<?xml version="1.0" encoding="UTF-8"?>
<svg xmlns="http://www.w3.org/2000/svg" xmlns:xlink="http://www.w3.org/1999/xlink" width="600" height="660">
<defs>
  <radialGradient id="rg" gradientUnits="userSpaceOnUse" cx="220" cy="220" r="405">
    <stop style="stop-color:#fff;stop-opacity:.3" offset="0"/>
    <stop style="stop-color:#fff;stop-opacity:.2" offset=".2"/>
    <stop style="stop-color:#666;stop-opacity:.1" offset=".6"/>
    <stop style="stop-color:#000;stop-opacity:.13" offset="1"/>
  </radialGradient>
  <path id="shield" d="m2,2v257c0,286 298,398 298,398c0,0 298-112 298-398V2z"/>
  <path id="ant" fill="#c00" transform="translate(20)scale(0.25)rotate(-30,220,250)" d="M 120.21875,13.6875 154.75,32.96875 171.5625,80.65625 197.875,99.4375 c -1.88326,2.67452 -3.66737,5.41741 -5.40625,8.1875 -0.90821,1.27525 -1.8778,2.91345 -2.84375,4.78125 -0.324,0.62777 -0.65415,1.15048 -0.96875,1.8125 -1.29358,2.72705 -2.51656,5.65375 -3.3125,8.25 -2.69187,8.78067 -4.15076,10.1692 9.125,10.125 3.93266,0.0253 7.69418,0.0499 11.53125,0.0625 l -0.0312,4.4375 -15.9375,12.375 2,10.15625 -49.625,0.25 -0.125,9.65625 L 107.125,101.5 96.0625,102.4375 C 87.477132,89.68724 63.13085,82.18604 52.25,68.90625 L 36.75,39.46875 22.96875,37.625 c 0,0 15.857,27.3869 20.03125,36.1875 16.682558,11.17689 42.90296,25.00084 48.28125,31.875 l -6.40625,7.96875 c 15.33968,23.79608 40.01867,45.5367 57.40625,67.78125 l 0.125,6.875 c 14.19059,-6.53431 29.55147,-14.31339 50.84375,-22.53125 l 2.4375,12.5 -43.34375,22.5625 0,8.84375 -69.5625,-28.59375 0,4.71875 c -7.813068,12.82117 -32.61283,52.44181 -42.03125,69.53125 -11.715952,6.88322 -24.76834,12.79718 -26.53125,17.75 -0.21119,8.753 -0.02435,11.22563 -0.09375,17.78125 5.91786,-8.93132 19.01621,-15.23419 34.59375,-23.125 l 34.375,-69.6875 3.375,7.46875 69.78125,11.28125 5.8125,7.375 c 11.35976,-11.91708 23.33127,-27.49258 34.96875,-39.3125 l 3.1875,16.21875 c -2.10731,1.70777 -3.13816,2.3328 -11.0625,8.1875 l -32,42.4375 6.71875,5.6875 -74.46875,-8.53125 -1.5,15.96875 c 3.591552,19.20825 8.32256,40.84303 12.9375,61.0625 10.27629,41.84999 8.99941,53.57245 1.8125,69.78125 -7.094158,15.99961 -13.21034,23.89157 -5.8125,37.65625 l 8.03125,11.1875 c 0.83508,-13.68042 0.94324,-12.58356 12.90625,-35.125 9.54324,-21.89801 9.29126,-22.80946 0.15625,-61.5 -9.12198,-38.63535 -17.96395,-74.87455 -16.25,-76.5625 l 69.65625,-7.0625 3.9375,2.5625 22.875,-54.65625 c 1.76747,-1.58607 2.31554,-2.05293 3.625,-3.21875 L 205.5,227.8125 c -5.00976,3.02986 -8.22553,7.61718 -8.21875,12.78125 0.007,5.19594 3.27001,9.81774 8.34375,12.84375 l 0.0312,1.90625 c -2.80658,3.8276 -7.42526,5.76649 -12.3125,10.125 -16.83558,15.0142 -25.16807,37.92237 -21.59375,64 3.13354,22.8617 21.27042,58.82794 37.1875,73.78125 l 10.6875,10.03125 14.03125,-13.1875 C 273.96869,362.22485 280.32502,292.82588 246,265.0625 c -4.01743,-3.26921 -9.17871,-5.25985 -12.34375,-9.46875 L 233.625,253.375 c 4.99339,-3.0343 8.16301,-7.65662 8.15625,-12.8125 -0.0111,-5.19393 -3.27356,-9.8244 -8.34375,-12.84375 l 3.59375,-18.1875 c 1.64571,1.46999 2.03191,1.7932 3.96875,3.53125 l 22.875,54.65625 3.9375,-2.5625 69.65625,7.0625 c 1.71394,1.68795 -7.12801,37.92715 -16.25,76.5625 -9.13502,38.69054 -9.38698,39.60199 0.15625,61.5 11.963,22.54144 12.07118,21.44458 12.90625,35.125 l 8.03125,-11.1875 c 7.39783,-13.76468 1.28167,-21.65664 -5.8125,-37.65625 -7.18692,-16.2088 -8.46378,-27.93126 1.8125,-69.78125 4.61493,-20.21947 9.34596,-41.85425 12.9375,-61.0625 l -1.5,-15.96875 -74.46875,8.53125 6.71875,-5.6875 -32,-42.4375 c -8.37249,-6.1858 -9.01944,-6.50874 -11.40625,-8.46875 l 3.21875,-16.28125 c 11.73931,11.8583 23.81603,27.62853 35.28125,39.65625 l 5.8125,-7.375 69.78125,-11.28125 3.375,-7.46875 34.375,69.6875 c 15.57753,7.89081 28.67587,14.19368 34.59375,23.125 -0.0694,-6.55562 0.11742,-9.02825 -0.0937,-17.78125 -1.76292,-4.95282 -14.81532,-10.86678 -26.53125,-17.75 -9.41843,-17.08944 -34.21817,-56.71008 -42.03125,-69.53125 l 0,-4.71875 -69.5625,28.59375 0,-8.84375 L 243.15625,179 l 2.5,-13.03125 c 21.34939,8.23804 36.9671,15.79572 51.1875,22.34375 l -0.125,-6.875 c 17.38757,-22.24455 42.09782,-43.73516 57.4375,-67.53125 L 347.75,105.9375 c 5.37828,-6.87416 31.59869,-20.6981 48.28125,-31.875 4.17424,-8.8006 20.03125,-36.18749 20.03125,-36.1875 l -13.78125,1.84375 -15.5,29.4375 c -10.88086,13.27979 -35.22713,20.781 -43.8125,33.53125 l -11.0625,-0.9375 -35.1875,67.78125 0.125,-9.40625 -49.9375,-0.25 1.9375,-10.03125 -15.75,-13 0.0312,-4.1875 c 3.57138,-0.008 7.06281,-0.0183 10.71875,-0.0312 13.27575,0.0442 11.81686,-1.34433 9.125,-10.125 -0.79595,-2.59626 -2.01893,-5.52295 -3.3125,-8.25 -0.31461,-0.66203 -0.64476,-1.18473 -0.96875,-1.8125 -0.96596,-1.86781 -1.93555,-3.506 -2.84375,-4.78125 l -5.46875,-8.25 26.28125,-18.75 16.8125,-47.6875 34.53125,-19.25 -9.40625,0.5 -30.75,14.46875 -18.0625,47.03125 -26.09375,14.8125 c -0.70095,-0.77189 -0.77467,-0.853954 -1.09375,-1.21875 -1.68516,-1.900006 -3.24007,-3.405547 -4.46875,-4 -2.31816,-1.12155 -5.1188,-1.68915 -7.9375,-1.78125 L 218.125,83.5 c -2.81871,0.0921 -5.61935,0.65971 -7.9375,1.78125 -1.89593,1.039979 -3.34225,2.681196 -4.78125,4.25 -0.20709,0.232916 -0.31424,0.382489 -0.875,1 L 178.4375,75.6875 l -18.0625,-47 -30.78125,-14.46875 -9.375,-0.53125 z"/>
  <pattern id="antpattern" patternUnits="userSpaceOnUse" y="0" width="150" height="218">
    <use xlink:href="#ant"/>
  </pattern>
  <pattern id="antpattern2" patternUnits="userSpaceOnUse" x="75" y="109" width="150" height="218">
    <use xlink:href="#ant"/>
  </pattern>
</defs>
<use xlink:href="#shield" fill="#ff0"/>
<use xlink:href="#shield" fill="url(#antpattern)"/>
<use xlink:href="#shield" fill="url(#antpattern2)"/>
<use xlink:href="#shield" fill="url(#rg)" stroke="#000" stroke-width="3"/>
</svg>