<?xml version="1.0" encoding="UTF-8"?>
<svg xmlns="http://www.w3.org/2000/svg" xmlns:xlink="http://www.w3.org/1999/xlink" width="600" height="660">
<defs>
  <radialGradient id="rg" gradientUnits="userSpaceOnUse" cx="220" cy="220" r="405">
    <stop style="stop-color:#fff;stop-opacity:.3" offset="0"/>
    <stop style="stop-color:#fff;stop-opacity:.2" offset=".2"/>
    <stop style="stop-color:#666;stop-opacity:.1" offset=".6"/>
    <stop style="stop-color:#000;stop-opacity:.13" offset="1"/>
  </radialGradient>
  <clipPath id="clip-shield">
    <path id="shield" d="m2,2v257c0,286 298,398 298,398c0,0 298-112 298-398V2z"/>
  </clipPath>
  <pattern id="fret" patternUnits="userSpaceOnUse" x="50" width="100" height="100">
    <path fill="#ccc" d="M 39.394531 0 L 85.859375 46.464844 L 96.464844 35.859375 L 60.605469 0 L 39.394531 0 z M 35.859375 3.5351562 L 0 39.394531 L 0 60.605469 L 46.464844 14.140625 L 35.859375 3.5351562 z M 100 39.394531 L 53.535156 85.859375 L 64.140625 96.464844 L 100 60.605469 L 100 39.394531 z M 14.140625 53.535156 L 3.5351562 64.140625 L 39.394531 100 L 60.605469 100 L 14.140625 53.535156 z "/>
  </pattern>
</defs>
<use id="background" xlink:href="#shield" fill="#fff"/>
<use id="background" xlink:href="#shield" fill="url(#fret)"/>
<path fill="#008" d="m 570.9163,298.06069 0.4716,0.47157 0.4715,0 0,0.47156 0.4716,0 0,0.47157 0.4716,0.47157 0.4716,0.47157 0,1.88628 -0.4716,0 0,0.47157 -0.4716,0 0,0.47157 -3.7725,0 c -1.5719,0 -8.8027,-2.04347 -21.6922,-6.1304 -13.204,-4.08694 -33.0099,-10.53173 -59.4178,-19.33436 -26.4079,-8.17387 -44.3276,-13.51833 -53.7589,-16.03336 -9.1171,-1.88628 -15.4047,-2.98661 -18.8628,-3.30099 l -5.6589,-0.47157 c 0.69687,1.2241 1.7742,1.96163 2.8295,2.82942 l 8.0166,9.90296 c 5.3445,6.60197 10.5317,13.51833 15.5618,20.74906 5.0301,7.23073 7.7023,11.16048 8.0167,11.78924 l 0.4716,0.47157 0,2.82942 -1.4147,0 -1.4147,-0.47157 -0.4716,0 c -0.3144,0 -4.8729,-2.04347 -13.6755,-6.13041 -8.8027,-4.08693 -16.9765,-7.38792 -24.5216,-9.90296 -7.5451,-2.51503 -12.5752,-3.77255 -15.0903,-3.77255 -2.8294,0 -7.5451,0.31438 -14.1471,0.94314 -6.6019,0.62875 -13.3611,0.94313 -20.2774,0.94313 -6.9164,-0.62875 -16.9766,-0.94313 -30.1805,-0.94313 -13.2039,0 -25.7791,-0.15719 -37.7256,-0.47157 -11.9464,-0.31438 -25.3075,-0.78595 -40.0834,-1.41471 l -25.4647,0 c -1.5719,0.31438 -2.6723,3.45818 -3.301,9.43139 -0.3144,5.65883 -1.4147,12.57519 -3.301,20.74906 -1.8863,7.85949 -4.0869,15.5618 -6.602,23.10691 l -3.7725,11.31767 -0.4716,0.47157 -0.4716,0.94314 0,0.94314 -0.4716,0.47157 -0.4715,0.47157 0,-6.60198 c 0,-4.08693 -0.3144,-8.17387 -0.9432,-12.26081 -0.6287,-3.77255 -1.8862,-7.85949 -3.7725,-12.26081 -1.8863,-4.71569 -3.9297,-8.64544 -6.1304,-11.78924 -2.2007,-3.45817 -3.7726,-5.34445 -4.7157,-5.65883 -0.9431,-0.31438 -3.9297,-0.62876 -8.9598,-0.94314 -5.3445,-0.31438 -9.7458,-0.15719 -13.204,0.47157 -3.4582,0.62876 -5.3445,4.08694 -5.6588,10.37453 l 0,8.95982 -0.4716,0.94314 0,0.94314 -0.4716,0 -0.4715,-0.47157 -0.4716,0 0,-0.47157 -0.4716,0 0,-0.47157 -0.4715,0 -2.8295,-1.88628 c -1.8863,-1.25751 -3.7725,-2.20065 -5.6588,-2.82941 -1.5719,-0.62876 -3.4581,-0.78595 -5.6588,-0.47157 -2.2007,0.31438 -4.5585,1.10033 -7.0736,2.35785 -2.8294,1.25751 -5.3444,3.14379 -7.5451,5.65883 -2.2007,2.20066 -3.6154,3.77256 -4.2441,4.7157 -0.6288,0.94314 -0.9432,3.45818 -0.9432,7.54511 0,4.40131 1.2575,14.93303 3.7726,31.59516 2.5151,16.66213 3.7726,30.18046 3.7726,40.55499 0.6287,10.37453 0.4715,19.96311 -0.4716,28.76574 -0.9431,8.80263 -1.5719,14.46147 -1.8863,16.97651 -1.34641,2.84438 -0.52422,6.7074 -1.8863,9.43139 l -0.4715,0.94314 0,-6.60198 c 0,-4.71569 -0.3144,-11.00329 -0.9432,-18.86278 -0.6287,-8.17387 -1.5719,-17.60526 -2.8294,-28.29417 -1.2575,-10.37453 -3.1438,-20.2775 -5.6588,-29.70889 -2.5151,-9.43139 -5.1873,-18.07684 -8.0167,-25.93633 -2.8294,-7.54511 -6.1304,-14.61866 -9.903,-21.22063 -3.7725,-6.60197 -7.7023,-12.418 -11.7892,-17.44807 -4.0869,-5.03008 -8.3311,-9.74578 -12.7324,-14.14709 -4.7157,-4.40131 -9.4314,-8.17387 -14.1471,-11.31767 -4.7157,-3.77256 -10.3745,-7.38793 -16.9765,-10.8461 -4.84221,-2.76604 -10.467533,-3.86572 -13.6755,-7.07355 l 3.7726,0 9.4313,2.35785 c 6.2876,1.5719 12.1036,3.30099 17.4481,5.18727 5.0301,2.51504 9.5886,5.03008 13.6755,7.54511 4.0869,2.51504 7.7023,5.03008 10.8461,7.54512 3.1438,2.82941 6.2876,5.81602 9.4314,8.95982 3.1438,3.14379 4.8729,4.87288 5.1873,5.18726 0.876695,1.03674 1.325336,1.20419 1.8863,1.88628 l 1.4147,0 c 1.03051,-0.75448 1.38184,-1.2729 1.8863,-1.88628 0,-0.31438 0.3144,-0.78595 0.9431,-1.41471 0,-0.62876 0.9431,-4.08694 2.8294,-10.37453 1.2575,-6.28759 3.7726,-14.93303 7.5451,-25.93632 3.7726,-11.00329 5.8161,-19.17717 6.1304,-24.52162 0.3144,-5.34446 0.1572,-9.74578 -0.4715,-13.20395 l -0.9432,-5.18727 -0.4715,-0.47157 -0.4716,-0.47157 0,-0.94314 7.0735,0 c 4.7157,-0.31437 7.7024,-0.62875 8.9599,-0.94313 1.2575,-0.62876 4.5584,-4.87289 9.9029,-12.73238 5.3445,-8.17387 10.2174,-14.30428 14.6187,-18.39122 4.0869,-4.08693 8.9598,-8.17387 14.6186,-12.26081 5.6589,-4.08693 12.1037,-8.01668 19.3344,-11.78924 7.5451,-3.77255 16.0334,-7.7023 25.4647,-11.78924 9.4314,-4.08693 18.5484,-7.7023 27.3511,-10.8461 9.117,-3.14379 16.0333,-6.1304 20.749,-8.95982 4.7157,-2.82942 8.8027,-5.50165 12.2609,-8.01668 3.1437,-3.1438 6.1303,-6.2876 8.9598,-9.43139 2.8294,-3.45818 5.1872,-7.54512 7.0735,-12.26081 1.8863,-4.40132 3.301,-8.95983 4.2441,-13.675521 0.9432,-4.715696 1.2576,-9.588582 0.9432,-14.618658 -0.3144,-5.030075 1.8863,-4.872885 6.602,0.47157 4.7157,5.658835 9.9029,12.732378 15.5618,21.220629 5.6588,8.80263 11.3176,18.23403 16.9765,28.29418 5.0301,9.74577 8.4882,16.50494 10.3745,20.27749 1.8863,3.45818 4.5585,6.2876 8.0167,8.48825 3.4581,2.20066 6.6019,4.40132 9.4314,6.60198 2.8294,2.20065 4.2441,3.45817 4.2441,3.77255 0,0.31438 1.2575,1.72909 3.7725,4.24413 2.5151,2.20066 5.0301,5.03008 7.5452,8.48825 1.8863,3.1438 3.9297,6.44479 6.1304,9.90296 1.8863,3.45818 4.5585,6.44479 8.0166,8.95983 3.1438,3.14379 7.7023,7.85949 13.6756,14.14708 5.9732,6.2876 10.6889,10.84611 14.1471,13.67552 3.4581,2.82942 9.5885,6.13041 18.3912,9.90296 8.4882,4.40132 31.4379,14.30428 68.8491,29.70889 37.4112,15.40461 56.9028,23.42129 58.4747,24.05005 1.2575,0.62876 2.0434,1.10033 2.3578,1.41471 z"/>
<path fill="#00f" d="m 381.81732,260.33512 0.94314,-0.47157 4.7157,0.47157 c 3.1438,0.31438 11.92522,6.74737 16.97651,9.90296 5.05129,3.15559 14.26496,12.26081 16.50493,12.26081 l 0,-0.47157 c -1.6032,-1.08324 -2.39445,-2.36566 -4.24413,-3.77256 l -2.35784,-2.35785 c -1.25752,-1.25751 -2.98661,-3.14379 -5.18727,-5.65883 -1.88628,-2.20066 -3.05005,-2.77338 -4.71569,-4.7157 -1.66564,-1.94232 -3.22644,-3.84789 -4.7157,-5.65883 l 3.77256,0.47157 c 2.51503,0.31438 8.48825,6.1304 17.91964,17.44807 5.73206,6.3773 10.70523,13.43118 16.03337,19.80593 l 0,1.88627 -2.82942,0 c -2.50164,-1.93693 -5.1629,-4.12957 -7.07354,-5.65883 -2.82942,-2.51504 -7.07355,-5.65884 -12.73238,-9.43139 -5.65884,-3.77256 -11.78925,-7.38793 -18.39122,-10.8461 -6.60197,-3.45818 -10.8461,-5.65884 -12.73238,-6.60198 -2.42154,-1.57058 -3.77255,-2.08334 -3.77255,-4.71569 0.31438,-0.94314 0.62876,-1.41471 0.94314,-1.41471 z m -160.80523,-26.4079 0,0.47157 -1.4147,0 c -0.94314,0 -4.7157,0.62876 -11.31767,1.88628 l -10.37454,1.88628 -0.47156,0 -0.47157,-0.47157 0,-11.78924 c 0,-7.54511 0.15719,-13.20395 0.47157,-16.97651 l 0.47156,-5.18726 0,-0.47157 0.47157,-1.41471 c 0.31438,-0.94314 4.08694,-2.35785 11.31767,-4.24413 7.23074,-1.88627 11.63206,-2.9866 13.20395,-3.30098 1.5719,-0.31438 1.5719,2.04347 0,7.07354 -1.57189,4.71569 -2.35784,8.17387 -2.35784,10.37453 -0.62876,1.88628 -0.78595,5.50165 -0.47157,10.8461 0.31438,5.34445 0.47157,8.48825 0.47157,9.43139 0,0.94314 0.15719,1.5719 0.47156,1.88628 z m -23.57847,-31.59516 0,1.41471 -1.88628,7.07354 c -0.94314,5.03007 -1.5719,11.00329 -1.88628,17.91965 0,6.91635 -2.67223,11.31767 -8.01668,13.20394 -5.65884,1.88628 -8.60618,3.44137 -9.4314,3.77256 -2.42364,0.97271 -3.77255,1.25799 -3.77255,3.77256 l 3.77255,0 8.48826,-1.88628 c 5.34445,-1.25752 8.48825,-1.72909 9.43139,-1.41471 0.62876,0 1.5719,1.41471 2.82942,4.24413 1.25751,3.14379 1.88627,3.45817 1.88627,0.94314 -0.62876,-2.51504 -0.94314,-4.08694 -0.94314,-4.7157 l 0,-1.41471 10.37454,0.47157 c 7.23073,0 11.31767,0.15719 12.26081,0.47157 0.62875,0.31438 1.10032,0.47157 1.4147,0.47157 l 0.47157,0 1.41471,0.47157 c 0.94314,0.31438 1.72909,0.78595 2.35785,1.41471 0.62876,0.94314 0.94314,1.10033 0.94314,0.47157 0.31438,-0.94314 4.08694,0 11.31767,2.82942 7.54511,2.82941 11.94643,4.5585 13.20395,5.18726 2.40005,0.96287 4.8322,1.05965 6.60197,2.82942 l -3.30098,0 -4.24413,-0.47157 c -2.82942,-0.31438 -8.80264,-0.31438 -17.91965,0 -8.80263,0.31438 -16.66212,0.94314 -23.57848,1.88628 -7.23073,0.94314 -14.30428,2.51504 -21.22063,4.71569 -6.91635,2.20066 -13.36114,4.55851 -19.33435,7.07355 -5.65883,2.51503 -11.63205,5.81602 -17.91964,9.90296 -6.2876,4.08693 -12.10363,8.33106 -17.44808,12.73238 -3.73319,3.02807 -8.00001,6.64583 -9.90296,8.95982 l -0.94314,0 c 0.412,-1.56565 -0.94314,-2.37707 -0.94314,-3.77256 0,-0.62876 -0.31438,-1.5719 -0.94314,-2.82941 0,-1.25752 -0.47157,-4.7157 -1.41471,-10.37454 l -0.94314,-8.48825 0,-0.47157 c 0.31438,0 2.44335,-2.06752 3.30099,-7.07354 0.35473,-2.07057 3.31739,-8.19138 4.7157,-10.37453 l 0.94314,7.54511 c 0.62876,5.03007 1.25752,8.33106 1.88627,9.90296 0.22738,2.72251 2.24235,4.52228 2.82942,6.13041 l 0.47157,0 0.47157,-0.47157 c -1.02669,-1.96876 -1.87645,-4.56209 -1.88628,-6.60198 -0.62876,-1.25752 -1.25752,-4.7157 -1.88628,-10.37453 l -0.94313,-8.95982 0,-0.47157 0.94313,-0.94314 c 0,-0.62876 2.20066,-3.92975 6.60198,-9.90296 4.40131,-5.97321 8.64544,-11.00329 12.73238,-15.09023 4.08693,-4.08693 8.33106,-7.85949 12.73238,-11.31767 2.27972,-2.68424 6.31611,-4.92594 8.48825,-6.60197 l 0.47157,0.47157 c -0.15872,0.99545 -0.21858,1.69095 -0.47157,2.82942 l -1.88628,8.48825 c -1.25752,5.97321 -1.72909,11.31767 -1.41471,16.03336 0.31438,4.7157 0.94314,8.80264 1.88628,12.26081 1.25752,3.1438 1.88628,4.87289 1.88628,5.18727 0.71306,1.27328 1.615,2.23733 2.35785,3.77256 l 0.94314,0 c -0.8795,-3.36947 -1.68011,-7.18324 -2.35785,-9.90297 -0.94314,-3.45817 -1.41471,-8.80263 -1.41471,-16.03336 0,-7.54511 0.15719,-13.20395 0.47157,-16.97651 l 0.47157,-5.65883 0.94314,-0.94314 c 0.62876,-0.62876 4.08694,-2.51504 10.37453,-5.65884 6.28759,-3.14379 10.21734,-5.03007 11.78924,-5.65883 1.5719,-0.62876 2.67223,-0.94314 3.30099,-0.94314 0.62875,0 0.78594,0.31438 0.47157,0.94314 z m -51.40109,40.55498 0.94314,-5.65883 0.47157,-1.88628 c 0.31438,-1.5719 0.47157,2.20066 0.47157,11.31767 0,9.43139 0.31438,16.19056 0.94314,20.27749 0.62876,4.08694 1.10033,6.44479 1.41471,7.07355 0.31438,0.62876 0.31438,0.94314 0,0.94314 -0.31438,0 -1.10033,-1.88628 -2.35785,-5.65884 -1.25752,-4.08693 -2.20066,-8.48825 -2.82942,-13.20395 0,-5.03007 0.31438,-9.43139 0.94314,-13.20395 z m -13.20395,42.91284 0.47157,0 c 0,0.31438 -0.15719,0.47157 -0.47157,0.47157 z m 172.59447,-191.457257 0,-1.414709 8.48825,15.090226 c 5.65884,9.74577 10.68892,18.86279 15.09023,27.35104 3.48934,6.62073 6.80269,13.80609 8.95982,20.27749 l -0.47157,0 c -1.52971,-0.58045 -2.87226,-0.63253 -4.24412,-1.88628 -0.31438,-0.31438 -1.72909,-3.61537 -4.24413,-9.90296 -2.51504,-5.97321 -6.91636,-15.40461 -13.20395,-28.29418 -6.28759,-13.20395 -9.74577,-20.277488 -10.37453,-21.220627 z m -1.88628,161.748367 c -1.0566,1.4159 -2.58617,0.94314 -4.24412,0.94314 l -0.47157,-0.47157 c -0.62876,-0.31438 -3.45818,-1.10033 -8.48826,-2.35785 -5.03007,-1.88627 -12.418,-3.77255 -22.16377,-5.65883 -9.74577,-1.88628 -20.59187,-3.45818 -32.5383,-4.7157 l -17.44807,-1.41471 -10.8461,0 -10.37453,-0.47157 17.91964,-0.47157 c 11.94643,-0.31437 22.63534,0.1572 32.06673,1.41471 9.43139,0.62876 18.23403,1.88628 26.4079,3.77256 8.48825,1.88628 14.46147,3.45818 17.91964,4.7157 4.06204,1.76679 8.37619,3.42082 12.26081,4.71569 z m 59.88934,-48.1001 c -1.09432,0.3822 -2.16724,0.79793 -3.30099,0.94314 1.42729,3.60444 6.68288,4.2711 10.8461,5.65884 3.08325,1.41451 11.22678,4.71569 14.14709,4.71569 l -6.1304,0 c -1.88628,0 -5.34446,-0.47157 -10.37453,-1.4147 -4.7157,-0.94314 -14.14709,-4.87289 -28.29418,-11.78924 -14.14709,-6.91636 -20.74906,-10.37454 -19.80592,-10.37454 0.62876,0 5.65884,1.10033 15.09023,3.30099 9.11701,2.20066 16.34774,3.77256 21.6922,4.7157 5.65883,0.94314 8.64544,1.72909 8.95982,2.35785 0.31438,0.62875 -0.62876,1.25751 -2.82942,1.88627 z m -35.36772,-3.77255 c 3.2128,2.46406 7.5969,3.82434 10.37453,6.60197 -1.9721,0.005 -3.90578,1.58995 -5.18726,2.35785 -1.5719,0.94314 -2.82942,2.51504 -3.77256,4.7157 -0.94314,2.20065 -1.5719,5.18726 -1.88628,8.95982 -0.31438,3.45817 -0.15719,6.1304 0.47157,8.01668 0,1.88628 1.10033,5.97322 3.30099,12.26081 1.88628,6.60197 0.78595,10.8461 -3.30099,12.73238 -3.77255,1.88628 -6.28759,2.20066 -7.54511,0.94314 -1.25752,-1.25752 -2.67223,-3.45818 -4.24413,-6.60198 -1.5719,-3.14379 -2.98661,-6.44478 -4.24412,-9.90296 -0.62876,-3.45817 -0.94314,-8.33106 -0.94314,-14.61865 0,-6.60198 0.31438,-11.63206 0.94314,-15.09023 0.62875,-3.1438 1.88627,-6.2876 3.77255,-9.43139 1.25752,-3.1438 2.35785,-4.87289 3.30099,-5.18727 0.62876,-0.31438 3.61537,1.10033 8.95982,4.24413 z m 24.05005,-8.48826 c -7.99608,-0.33234 -15.88836,-1.87356 -21.6922,-2.82941 -10.09941,-1.6633 -22.94972,-3.45818 -38.66871,-4.7157 -15.71899,-1.88628 -31.90954,-2.82942 -48.57166,-2.82942 l -26.4079,0 0,-0.47157 0.47157,0 0,-0.47157 2.35785,0 11.31767,-1.88627 c 7.23073,-1.25752 12.88957,-2.20066 16.9765,-2.82942 l 22.63534,0 c 11.31767,0 21.37783,0.62876 30.18046,1.88628 9.11701,1.25752 15.87617,2.51504 20.27749,3.77255 4.40131,1.25752 9.7945,3.34361 16.50493,5.18727 5.16431,1.41887 9.77895,4.18751 14.61866,5.18726 z m 0.47157,21.22064 c 4.24904,3.45244 9.95895,3.20831 13.67552,5.65883 -0.55688,1.76646 -1.99839,2.89206 -3.30099,4.7157 -1.88628,2.20065 -3.1438,4.24412 -3.77256,6.1304 -0.62875,2.20066 -0.78594,4.7157 -0.47156,7.54512 0.31437,2.51503 0.47156,4.24412 0.47156,5.18726 0.62876,0.94314 0.94314,1.72909 0.94314,2.35785 l 0,0.47157 -0.94314,0 c -0.31437,0.31438 -2.82941,1.10033 -7.54511,2.35785 l -11.31767,2.82941 c -2.20066,0.62876 -3.45818,0.62876 -3.77256,0 -0.62875,-0.62876 -1.57189,-2.51504 -2.82941,-5.65883 -1.25752,-3.45818 -1.88628,-7.70231 -1.88628,-12.73238 l 0,-9.90296 c 0.62876,-1.5719 1.5719,-3.77256 2.82942,-6.60198 1.25751,-2.51503 2.67222,-4.40131 4.24412,-5.65883 1.5719,-1.25752 6.13041,-0.15719 13.67552,3.30099 z m 28.29418,-22.63534 0,1.88627 c 0,0.31438 -0.15719,0.47157 -0.47157,0.47157 -0.31438,0.62876 -1.41471,0.94314 -3.30099,0.94314 -1.88628,0 -3.76824,-0.18429 -5.65884,-0.47157 -2.51103,-0.38155 -5.96446,-1.00922 -7.07354,-2.35784 l 5.18727,0 c 3.14379,0 5.03007,-0.31438 5.65883,-0.94314 0.62876,-0.62876 0.94314,-2.04347 0.94314,-4.24413 l 0,-4.7157 c -0.31438,-0.94313 0.31438,1e-5 1.88628,2.82942 1.88628,2.51504 2.82942,3.92975 2.82942,4.24413 z m -132.98263,38.19713 0,2.35785 -11.31767,-0.47157 c -7.23073,0 -11.00329,-3.1438 -11.31767,-9.43139 0,-6.28759 0.31438,-13.04676 0.94314,-20.27749 0.62876,-7.23073 1.72909,-11.00329 3.30099,-11.31767 1.5719,-0.31438 6.13041,-0.78595 13.67552,-1.41471 7.85949,-0.62876 11.31767,0.31438 10.37453,2.82942 -1.25752,2.51503 -2.51504,6.28759 -3.77256,11.31767 -1.25752,5.34445 -1.88628,10.68891 -1.88628,16.03336 z m -135.34047,64.60504 3.77256,-13.20395 1.4147,8.01668 c 1.25752,5.34445 1.88628,8.17387 1.88628,8.48825 0.77707,1.43296 1.45329,3.2684 2.35785,4.7157 l 0,0.47157 -6.1304,6.60197 c -3.58,3.0008 -6.05622,7.34689 -8.48826,10.37453 l 0,-3.30098 c 0,-0.94314 0.31438,-2.67223 0.94314,-5.18727 z m 89.12665,-5.18727 0.94314,-0.94314 0.47157,5.18727 c 0.31438,3.45817 0.47157,8.33106 0.47157,14.61865 l 0,13.20395 0,4.24413 -0.47157,-3.77256 c -0.31438,-2.51503 -0.78595,-8.48825 -1.41471,-17.91964 -0.62876,-9.43139 -0.62876,-14.30428 0,-14.61866 z m 100.91589,-39.61184 0.94314,0.94313 0,1.41471 c -1.90238,1.14399 -7.44745,-2.33608 -9.43139,-3.30098 -0.94314,-0.62876 -5.34446,-2.20066 -13.20395,-4.7157 -8.17387,-2.51504 -16.03337,-4.40132 -23.57848,-5.65883 -7.85949,-1.25752 -16.50493,-1.88628 -25.93632,-1.88628 -9.43139,0 -17.76246,0.31438 -24.99319,0.94314 l -10.37453,0.94314 -1.41471,0.47156 -1.41471,0 0,-0.47156 1.88628,0 0.94314,-0.47157 0.94314,-0.47157 0.94313,0 c 0.94314,0 1.5719,-0.15719 1.88628,-0.47157 l 0.47157,0 12.73238,-1.41471 c 8.17387,-1.25752 16.03337,-1.72909 23.57848,-1.41471 7.54511,0.31438 15.09023,1.10033 22.63534,2.35785 7.85949,1.25752 15.40461,2.98661 22.63534,5.18726 6.91635,2.20066 11.78924,3.92975 14.61866,5.18727 2.29813,0.27897 3.94534,2.82942 6.1304,2.82942 z m -95.25705,65.0766 -1.88628,11.31767 0,1.88628 -0.47157,0.94314 -0.47157,0.47157 0,-2.35785 0.47157,-1.41471 c 0.31438,-0.94314 0.62876,-3.45818 0.94314,-7.54511 0.31438,-4.08694 0.62876,-10.53173 0.94314,-19.33436 0,-8.48825 0.47157,-12.88957 1.41471,-13.20395 1.25751,-0.31438 1.72908,2.67223 1.4147,8.95983 -0.31438,6.28759 -1.10033,13.04676 -2.35784,20.27749 z m 157.97581,-33.00987 c -3.65047,0.10584 -7.78184,-0.0931 -10.8461,-0.47157 -2.82942,-0.31438 -9.90296,-0.15719 -21.22063,0.47157 l -16.97651,0 3.77256,0 8.01668,-1.88628 c 5.65883,-1.25752 9.90296,-2.51504 12.73238,-3.77256 2.82942,-1.25752 4.7157,-2.35785 5.65884,-3.30098 0.94313,-0.94314 1.72908,-0.62876 2.35784,0.94313 0.62876,1.5719 2.35785,2.98661 5.18727,4.24413 3.66668,1.23931 7.41316,3.77256 11.31767,3.77256 z m -66.96288,-129.68164 -0.47157,0 -0.94314,0.47157 -0.94314,0 0,-0.47157 c -1.79533,-3.30443 -2.06323,-7.20669 -2.82942,-10.8461 -1.25752,-5.97321 -0.78595,-5.97321 1.41471,0 1.12405,3.63429 2.81903,7.20831 3.77256,10.8461 z M 113.9658,324.94015 c 2.71449,-3.49607 8.51673,-8.67393 11.78924,-11.78924 5.65883,-5.97321 11.47486,-11.16048 17.44807,-15.56179 5.97321,-4.40132 11.94643,-8.48826 17.91965,-12.26081 5.97321,-3.1438 11.94643,-5.97322 17.91964,-8.48826 6.28759,-2.51503 12.57519,-4.71569 18.86278,-6.60197 5.97322,-1.25752 11.63206,-2.20066 16.97651,-2.82942 5.34445,-0.62876 11.63205,-0.94314 18.86278,-0.94314 7.54511,0 13.83271,0.47157 18.86279,1.41471 4.71569,0.94314 2.35784,1.5719 -7.07355,1.88628 -9.43139,0.31438 -18.5484,1.41471 -27.35103,3.30099 -8.80263,1.25752 -17.76246,3.45818 -26.87947,6.60197 -8.80263,3.1438 -17.60527,6.91636 -26.4079,11.31767 -8.80263,4.40132 -16.9765,9.11702 -24.52162,14.14709 -7.54511,5.03007 -12.47661,9.89121 -16.50493,12.26081 -3.33915,1.9642 -7.77585,7.54511 -9.90296,7.54511 z m 158.44738,-166.93563 0,0.94314 -0.94314,0 c -0.62876,0 -0.94314,-0.31438 -0.94314,-0.94314 l 0,-1.41471 -0.94314,-4.24413 c 0,-3.14379 0.31438,-3.14379 0.94314,0 1.25752,3.1438 1.88628,5.03008 1.88628,5.65884 z m 150.4307,84.88252 0,0.94314 c -8.63522,-2.80218 -17.70076,-6.31822 -24.05005,-8.48825 -12.88957,-4.40131 -19.80592,-6.91635 -20.74906,-7.54511 l -0.94314,-1.88628 -1.41471,-1.88628 c -0.94314,-1.25752 1.72909,-0.47157 8.01668,2.35785 6.60197,2.82941 14.14709,6.1304 22.63534,9.90296 5.42891,2.01672 11.55269,4.41712 16.50494,6.60197 z m 42.44126,20.74907 -1.41471,0 c -8.66271,-2.38576 -17.1144,-3.39042 -23.57848,-4.7157 -12.26106,-2.5138 -22.32096,-3.77256 -30.18045,-3.77256 -7.85949,0 -14.46147,0.15719 -19.80592,0.47157 l -8.01669,0.47157 c -1.47299,0.65463 -2.63949,0.94314 -4.24412,0.94314 l 0,-0.47157 c 1.80935,-1.07194 4.97311,-2.15788 7.54511,-3.30099 2.82942,-1.25751 4.87289,-1.88627 6.13041,-1.88627 1.25751,0 5.65883,-0.15719 13.20394,-0.47157 l 11.31768,-0.47157 c -4.27063,-0.95302 -8.84905,-3.32088 -13.20395,-5.18727 -6.60197,-2.82941 -5.03008,-2.67222 4.71569,0.47157 9.74577,2.51504 20.67591,6.60798 33.48144,9.90296 4.98306,1.28219 18.8381,5.77099 24.05005,8.01669 z m -135.81204,6.60197 0.94314,0 1.41471,0.47157 1.88628,0.47157 -5.65884,0 c -2.20066,0 -4.55851,-0.15719 -7.07354,-0.47157 -2.51504,-0.31438 -4.40132,-1.10033 -5.65884,-2.35785 -1.5719,-1.25752 -3.1438,-3.77256 -4.71569,-7.54511 -1.5719,-3.77256 -3.30099,-9.90297 -5.18727,-18.39122 -1.88628,-8.48825 -2.82942,-14.93303 -2.82942,-19.33435 0,-4.08693 0.94314,-7.54511 2.82942,-10.37453 l 2.35785,-3.77256 0,-0.47157 0.47157,0 1.41471,-1.41471 c 0.94314,-0.94313 0.62876,1e-5 -0.94314,2.82942 -1.5719,2.82942 -2.67223,5.03008 -3.30099,6.60198 l 0,7.54511 c 0.62876,3.77256 1.88628,9.74577 3.77256,17.91964 1.88628,8.17387 3.77256,13.9899 5.65883,17.44808 1.25752,3.45817 2.98661,5.81602 5.18727,7.07354 1.88628,1.25752 3.77256,2.20066 5.65883,2.82942 1.88628,0.62876 3.1438,0.94314 3.77256,0.94314 z m -146.18657,26.87947 -1.41471,0.47157 -1.88628,0 c -0.94314,0 -3.45818,0.62876 -7.54511,1.88627 -4.40132,0.62876 -6.2876,0.94314 -5.65884,0.94314 l 1.41471,-0.94314 0.94314,0 6.60197,-1.88627 c 4.40132,-1.25752 7.07355,-2.04347 8.01669,-2.35785 0.62876,0 0.94314,0.31438 0.94314,0.94314 0,0.62876 -0.47157,0.94314 -1.41471,0.94314 z m 107.51786,-141.47088 -0.47157,0 -0.47157,0.47157 -2.35784,0 c 0.13912,-3.4844 -0.51232,-6.928 -0.94314,-10.37453 -0.62876,-5.34445 -0.15719,-5.34445 1.41471,0 0.8938,3.2959 1.99531,6.63757 2.82941,9.90296 z m 83.46782,107.98944 0,0.94313 c -2.96646,-0.13351 -5.61565,-1.85155 -7.54511,-3.30098 -1.25752,-0.94314 -2.35785,-2.04347 -3.30099,-3.30099 l -1.41471,-1.88628 0,-0.47157 0.47157,-0.47157 0.47157,-0.94314 1.88628,-1.88627 c 1.5719,-0.62876 4.24413,-1.41471 8.01668,-2.35785 3.77256,-0.94314 8.17388,-1.41471 13.20395,-1.41471 5.03007,0 3.92974,0.94314 -3.30099,2.82942 -7.54511,1.25751 -11.94643,2.20065 -13.20394,2.82941 -1.5719,0.62876 -2.35785,1.5719 -2.35785,2.82942 0.31438,1.25752 1.10033,2.51504 2.35785,3.77256 2.0853,1.3831 2.55159,2.82942 4.71569,2.82942 z m -74.50799,-124.49438 -2.82942,-12.73238 4.71569,11.78924 c 2.05315,5.16948 4.50327,10.68039 6.13041,15.5618 l -1.41471,0 -1.88628,0.47157 -0.47157,-0.47157 c -1.76707,-5.24831 -3.01374,-10.61392 -4.24412,-14.61866 z m 4.71569,-31.59516 0,-1.41471 9.43139,21.6922 c 0.69201,7.10255 11.31767,17.93939 11.31767,25.46476 l -2.35784,0 -1.41471,-0.47157 -1.41471,0 c -2.852,-8.48753 -5.59337,-15.79668 -8.01668,-22.16377 l -6.60198,-20.27749 -0.47157,-0.47157 c -0.31438,-0.62876 -0.47157,-1.41471 -0.47157,-2.35785 z m -41.49812,52.34423 0,0.94313 -1.41471,0 0,-0.94313 -0.47157,-0.47157 0,-4.24413 c -0.62876,-2.82942 -0.31438,-2.82942 0.94314,0 0.62876,2.51504 0.94314,4.08694 0.94314,4.7157 z m -111.29042,62.71875 -0.47157,0 0,-0.94314 c 2.51827,-1.50328 5.28077,-5.05593 8.48825,-8.01668 3.77255,-3.77256 7.7023,-6.91636 11.78924,-9.43139 4.40131,-2.51504 9.11701,-4.55851 14.14709,-6.13041 5.34445,-1.5719 8.01668,-2.20066 8.01668,-1.88628 0,0.31438 -2.67223,1.72909 -8.01668,4.24413 -5.65884,2.51504 -11.47487,5.81603 -17.44808,9.90296 -5.97321,4.08694 -9.74577,6.75917 -11.31767,8.01668 -2.78979,1.93383 -3.27743,2.67352 -5.18726,4.24413 z m 212.67788,54.70207 c 2.35825,2.42744 6.8101,2.09441 8.95982,4.24413 -2.58366,-0.10156 -5.36779,-1.0495 -7.54511,-1.41471 -2.20066,-0.31438 -4.40132,-1.10033 -6.60198,-2.35785 -2.51503,-1.25752 -4.24412,-2.51504 -5.18726,-3.77255 -0.94314,-1.25752 -1.5719,-2.82942 -1.88628,-4.7157 -0.31438,-2.20066 -0.31438,-3.30099 0,-3.30099 0.31438,0 0.78595,0.62876 1.41471,1.88628 0.62876,1.25752 1.72909,2.67223 3.30099,4.24413 1.57189,1.88628 4.08693,3.61537 7.54511,5.18726 z m -62.24719,-28.29417 c -4.1354,-1.70067 -9.03928,-3.57467 -13.67551,-5.18727 -7.23073,-2.51503 -15.09023,-4.5585 -23.57848,-6.1304 -8.80263,-1.5719 -12.88957,-6.13041 -12.26081,-13.67552 0.62876,-7.54511 1.41471,-14.93304 2.35785,-22.16377 1.25751,-7.23073 5.50164,-10.8461 12.73237,-10.8461 7.23073,0 15.71899,0.62876 25.46476,1.88628 9.74577,1.25752 13.83271,3.30099 12.26081,6.1304 -1.88628,3.1438 -3.1438,6.75917 -3.77256,10.8461 -1.25751,4.40132 -1.72908,10.37454 -1.4147,17.91965 0.31438,7.23073 0.096,11.97871 0.47157,14.14708 0.45775,2.64299 1.4147,4.74305 1.4147,7.07355 z m 2.35785,-123.07966 -0.94314,-3.77256 4.7157,13.20395 c 2.41119,5.97221 5.21116,12.3325 7.07354,17.91964 l -2.82941,0 c -1.06131,-4.76069 -2.99303,-9.75734 -4.24413,-13.20395 -1.88628,-6.91635 -3.1438,-11.63205 -3.77256,-14.14708 z"/>
<path fill="#ccc" d="m 367.67024,229.21153 c 1.30895,-0.55925 2.90521,-0.9547 4.24412,-0.47157 2.28743,0.82539 4.03999,3.045 5.06569,5.24989 0.82201,1.76702 0.88058,3.88646 0.60282,5.81542 -0.11212,0.7786 -0.44097,1.54143 -0.89571,2.1833 -0.58499,0.82571 -1.37407,1.54344 -2.26758,2.01845 -1.65124,0.87784 -3.56682,1.44723 -5.43595,1.38754 -0.71037,-0.0227 -1.43051,-0.27335 -2.02811,-0.65808 -0.92665,-0.59657 -1.70534,-1.47151 -2.23075,-2.44028 -1.07318,-1.97877 -1.80066,-4.28917 -1.69252,-6.53762 0.0654,-1.35885 0.61613,-2.72085 1.39733,-3.83461 0.80891,-1.15327 1.94527,-2.15898 3.24066,-2.71244 z"/>
<path fill="#111" d="m 369.55652,243.83018 c -0.62284,0.0861 -1.30746,0.24556 -1.88628,0 -0.86356,-0.36636 -1.41391,-1.2578 -1.95568,-2.02359 -0.54113,-0.76489 -1.07654,-1.59512 -1.25569,-2.51479 -0.30185,-1.54956 -0.008,-3.18901 0.37059,-4.72154 0.19109,-0.77277 0.41288,-1.60081 0.94427,-2.19352 0.36443,-0.40648 0.90826,-0.6311 1.42494,-0.80737 1.04911,-0.35792 2.22127,-0.7579 3.29194,-0.47086 1.54701,0.41474 3.01112,1.56251 3.77831,2.96845 0.70819,1.29783 0.73837,2.97263 0.41708,4.41578 -0.39332,1.76669 -1.32204,3.57381 -2.75568,4.67861 -0.65116,0.5018 -1.55946,0.5563 -2.3738,0.66883 z"/>
<use id="shine" xlink:href="#shield" fill="url(#rg)" stroke="#000" stroke-width="3"/>
</svg>