<?xml version="1.0" encoding="UTF-8"?>
<svg xmlns="http://www.w3.org/2000/svg" xmlns:xlink="http://www.w3.org/1999/xlink" width="600" height="660">
<defs>
  <radialGradient id="rg" gradientUnits="userSpaceOnUse" cx="220" cy="220" r="405">
    <stop style="stop-color:#fff;stop-opacity:.3" offset="0"/>
    <stop style="stop-color:#fff;stop-opacity:.2" offset=".2"/>
    <stop style="stop-color:#666;stop-opacity:.1" offset=".6"/>
    <stop style="stop-color:#000;stop-opacity:.13" offset="1"/>
  </radialGradient>
  <linearGradient id="flame" gradientUnits="userSpaceOnUse" x1="0%" y1="0%" x2="0%" y2="80%">
    <stop offset="0%" style="stop-color:#f00;" />
    <stop offset="90%" style="stop-color:#fb0;" />
    <stop offset="100%" style="stop-color:#fe0;" />
  </linearGradient>
  <linearGradient id="flame2" x1="0%" y1="0%" x2="0%" y2="100%">
    <stop offset="0%" style="stop-color:#f00;" />
    <stop offset="80%" style="stop-color:#fb0;" />
    <stop offset="100%" style="stop-color:#ff0;" />
  </linearGradient>
  <path id="shield" d="m2,2v257c0,286 298,398 298,398c0,0 298-112 298-398V2z"/>
</defs>
<use xlink:href="#shield" fill="#ff0"/>
<g id="charge" fill="url(#flame)" stroke="#800">
  <path d="m 178.39762,125.86167 c -20.97915,17.91299 -5.3644,54.87771 -13.0121,73.29841 -13.41807,-7.57208 -3.42174,-41.77654 -32.95153,-59.77144 2.50227,35.33412 -12.94777,35.78156 -11.13986,63.00107 C 116.74838,186.23063 102.73703,171.3369 96.299658,167.19149 96.14007,235.28388 62.88271,264.18892 73.317839,307.70351 65.02697,294.27508 63.513851,283.70713 61.101441,273.67545 48.069578,303.23621 34.311405,343.28016 94.98908,400.89453 c -9.649743,-7.06641 -24.348938,-10.4152 -31.874975,-8.98678 25.644431,36.26787 -5.918393,115.36664 81.863925,101.33528 17.75411,10.96269 38.0286,15.93262 58.18004,11.74835 12.41046,14.97444 38.11486,29.48263 74.98342,20.22024 6.09464,3.48466 13.31735,6.03107 21.85847,6.31883 8.54113,-0.28776 15.76383,-2.83417 21.85847,-6.31883 36.86857,9.26239 62.57297,-5.2458 74.98342,-20.22024 20.15145,4.18427 40.42594,-0.78566 58.18004,-11.74835 87.78232,14.03136 56.21949,-65.06741 81.86393,-101.33528 -7.52604,-1.42842 -22.22523,1.92037 -31.87498,8.98678 60.67768,-57.61437 46.9195,-97.65832 33.88765,-127.21908 -2.41241,10.03168 -3.92554,20.59963 -12.21641,34.02806 10.43513,-43.51459 -22.82222,-72.41963 -22.98181,-140.51202 -6.43738,4.14541 -20.44873,19.03914 -24.99448,35.19822 1.80792,-27.21951 -13.64212,-27.66695 -11.13985,-63.00107 -29.5298,17.9949 -19.53346,52.19936 -32.95153,59.77144 -7.6477,-18.4207 7.96705,-55.38542 -13.01211,-73.29841 -1.09344,30.65725 -31.77156,28.15774 -35.38543,71.66019 -2.46967,29.729 -50.99845,49.949 -86.21691,30.84525 -35.21844,19.10375 -83.70042,-1.11625 -86.17009,-30.84525 -3.61387,-43.50245 -34.3388,-41.00294 -35.43225,-71.66019 z"/>
  <g id="top-flame" fill="none">
    <path fill="url(#flame2)" d="m 317.54349,268.73554 c 17.57452,-62.41048 72.95969,-54.24858 85.4165,-95.64243 6.03889,-20.06712 -7.20667,-29.18942 -10.82741,-66.16772 -8.05578,8.9578 -10.51279,15.4517 -15.48632,25.30533 1.98559,-40.847781 -23.90015,-48.554452 -18.80061,-83.653213 -9.83818,13.840372 -12.48906,24.805845 -14.43658,35.489958 -5.09454,-24.056217 -15.58599,-32.209739 -14.43659,-69.776854 -21.70027,34.910564 -18.68095,52.987991 -24.47654,75.858809 -3.79059,14.95859 -22.01049,42.62619 -32.06679,57.07814 -7.66729,-15.29422 13.21364,-30.70999 18.09984,-63.421566 2.6903,-18.010745 -8.17437,-40.659616 -19.05957,-57.045569 0.91173,43.486307 -21.54393,61.20914 -40.10615,97.609185 0.0925,-11.23284 -4.05085,-24.03369 -15.47743,-37.896038 0.94733,33.484868 -25.85027,52.610818 -19.85031,81.807348 7.24368,35.24871 68.39114,47.35316 83.01039,100.45462"/>
    <path d="m 376.64626,132.23072 c -6.7625,55.21145 -65.88965,66.12629 -54.39079,119.0606"/>
    <path d="m 343.40907,84.067465 c 5.75023,76.778775 -71.3427,79.023885 -33.97936,170.602345"/>
    <path d="m 272.42915,147.22756 c -33.82929,51.18221 25.23339,78.72999 22.85794,114.8912"/>
    <path d="m 231.36327,124.36961 c -30.38801,62.58694 41.49226,90.91608 56.104,138.35068"/>
  </g>
  <path id="heart" fill="#c00" d="m 227.38003,189.32107 c -47.47339,0.88261 -90.89538,34.59981 -95.44611,91.91286 -4.88622,61.53805 40.13478,148.4124 168.06922,216.34139 127.93441,-67.92899 172.90768,-154.80334 168.02147,-216.34139 -4.55075,-57.31305 -47.92499,-91.03025 -95.39838,-91.91286 -37.77557,0 -60.00322,19.18035 -72.62309,34.90301 -12.61989,-15.72266 -34.84755,-34.90301 -72.62311,-34.90301 z"/>
  <g id="stag" fill="#000" stroke="#c00">
    <path stroke="none" fill-rule="evenodd" d="m 327.41919,283.95951 c -0.68107,-0.0851 -2.51616,-0.45404 -4.0864,-0.82294 -2.71008,-0.63851 -3.03642,-0.85134 -6.48905,-4.20938 -4.22355,-4.11478 -4.69652,-5.24043 -1.4047,-3.35804 3.42425,1.95807 11.10044,4.46004 14.66185,4.77693 6.07758,0.53445 15.324,-3.95397 19.56174,-7.99307 0.62431,-0.0851 0.96012,-0.21757 1.51349,-0.28378 l -4.22828,4.2945 1.72631,0.12771 c 1.95333,0.14188 3.49993,1.66955 3.00331,2.95601 -0.24594,0.64323 -0.33107,0.61485 -0.74729,-0.22703 -0.28377,-0.57701 -1.05943,-1.09727 -1.96279,-1.32429 -1.98645,-0.49188 -4.5499,0.36418 -9.71466,3.24925 -5.10799,2.84724 -7.34038,3.37696 -11.83826,2.81886 z m -67.87018,-29.51288 c 0.29797,-0.30269 -0.8135,-0.14189 -2.8567,0.41148 -0.40674,0.10874 -0.72362,-0.0284 -0.72362,-0.31215 0,-0.27433 -0.0946,-0.40675 -0.21757,-0.28379 -0.11352,0.11352 -0.0946,0.49189 0.0331,0.83715 0.19865,0.52972 0.49188,0.55337 1.8351,0.15608 0.87498,-0.26013 1.74996,-0.62431 1.92968,-0.80404 z m 28.43453,3.68911 c 0.13244,-0.14188 -0.14189,-0.2554 -0.60539,-0.2554 -0.49188,0 -1.38105,-0.66214 -2.09522,-1.54186 -1.20606,-1.50401 -1.30538,-1.54185 -3.77425,-1.46618 -2.18982,0.0568 -2.5067,-0.0237 -2.28441,-0.60067 0.20811,-0.5439 0.0946,-0.52025 -0.60066,0.10874 -0.72837,0.66213 -0.7662,0.82767 -0.23648,1.12092 0.33107,0.18917 0.52026,0.59593 0.39729,0.89862 -0.11825,0.30743 0.29324,0.96012 0.91755,1.44727 1.00268,0.78512 1.51347,0.86079 4.57828,0.70944 1.90131,-0.10406 3.56613,-0.29323 3.70329,-0.42566 z m -18.20906,0.14189 c 0.89862,-0.29796 2.75263,-0.75674 4.11477,-1.04052 1.9959,-0.39729 2.19455,-0.50133 1.02633,-0.53444 -2.06212,-0.0616 -5.85055,0.89862 -7.60525,1.93915 -0.82295,0.48714 -1.57496,0.88443 -1.66482,0.88443 -0.0946,0 -0.28378,-0.6385 -0.42567,-1.41888 -0.15135,-0.78985 -0.56756,-1.66957 -0.91755,-1.96281 -0.56755,-0.47296 -0.58174,-0.42566 -0.16081,0.36892 0.26487,0.49188 0.47296,1.277 0.47296,1.74996 0,0.47297 0.22703,1.21078 0.49662,1.64119 0.47296,0.75674 0.52026,0.75674 1.74996,-0.16081 0.6858,-0.52026 1.9959,-1.18241 2.904,-1.46619 z m 9.87073,9.74303 c -0.58647,-0.89862 -3.03643,-2.36481 -4.83368,-2.89925 -0.39729,-0.11825 -0.73783,-0.6385 -0.75674,-1.15403 -0.0473,-0.90809 -0.0473,-0.90809 -0.35472,0.0946 -0.37838,1.24862 -0.25068,1.38106 1.83509,1.97226 0.89864,0.25539 2.29387,1.02159 3.08845,1.70266 1.74997,1.4993 1.83509,1.52294 1.0216,0.28378 z m 25.00555,3.96343 c -0.10874,-1.38104 -0.35946,-2.16143 -0.69526,-2.16143 -0.28378,0 -1.0216,-0.38784 -1.63645,-0.87026 -1.65537,-1.30537 -0.77093,-1.85874 1.65537,-1.02632 2.37427,0.80403 2.97967,0.52026 0.81349,-0.37838 -3.15939,-1.32429 -5.99243,0.17027 -3.14047,1.64592 0.69526,0.35945 1.26281,0.8797 1.26754,1.15402 0.0143,0.62432 1.60808,4.19046 1.77362,3.96343 0.0614,-0.0946 0.0473,-1.1351 -0.0473,-2.32698 z m -87.38936,57.0015 c 0,-0.3027 0.43513,-1.41889 0.97431,-2.4736 0.52971,-1.05471 0.82295,-1.92024 0.64795,-1.92024 -0.35944,0 -2.03374,3.31076 -2.03374,4.02019 0,0.25067 -0.52025,0.53446 -1.1351,0.62904 -1.05945,0.16081 -1.04053,0.175 0.20336,0.23649 0.87026,0.0378 1.33849,-0.13244 1.33849,-0.48715 z m -9.81398,16.58681 c 0.55336,-1.58916 0.29797,-1.83038 -1.78307,-1.67903 l -1.66955,0.12298 1.24389,-1.5797 c 1.32429,-1.67902 2.554,-4.83841 2.554,-6.56473 0,-0.69997 0.54863,-1.53712 1.65536,-2.52562 1.66957,-1.50401 2.76684,-4.08167 2.27023,-5.3634 -0.16081,-0.42566 0.41147,-1.19659 1.72631,-2.31751 6.00663,-5.1553 9.88492,-10.12141 15.05914,-19.29689 1.60807,-2.85196 2.25603,-3.62289 3.54722,-4.20937 1.50403,-0.6716 1.66483,-0.6716 3.08372,0 1.66956,0.78984 2.86143,2.27022 3.30128,4.08167 0.34527,1.42834 1.31011,2.88507 4.00127,6.03973 l 1.96752,2.29861 0,4.31341 c 0,3.48101 0.20338,4.95666 1.04998,7.63836 0.67161,2.12833 1.04052,4.19045 1.00741,5.73704 -0.0284,1.65536 0.22703,3.00331 0.80404,4.27085 1.44254,3.12156 1.01687,3.83101 -2.01482,3.37696 -1.01215,-0.1419 -2.03374,-0.85133 -3.67966,-2.50671 l -2.27022,-2.31751 -1.97225,-10.08357 c -1.57497,-8.08767 -2.18982,-10.45248 -3.08845,-11.90921 -0.61485,-1.00269 -1.30537,-1.88239 -1.5324,-1.95334 -0.22703,-0.0757 -1.05943,0.81823 -1.85401,1.98645 -0.79458,1.16822 -2.41212,3.34858 -3.61344,4.83841 -2.53035,3.16885 -4.62085,7.1039 -4.62085,8.70251 0,1.24862 1.14458,1.98645 1.73578,1.13512 0.23647,-0.35946 0.31688,-0.19865 0.23647,0.49188 -0.0709,0.60066 -0.51079,1.20132 -1.04051,1.43781 -0.74728,0.33107 -0.93174,0.73782 -0.93174,2.08104 0,0.92227 -0.2554,2.03373 -0.56756,2.4594 -0.53917,0.7331 -0.57701,0.72364 -0.87025,-0.23648 -0.34053,-1.13511 -1.38104,-2.44522 -1.92969,-2.44522 -0.20337,0 -0.17026,0.36418 0.0614,0.80404 0.66215,1.2297 0.50607,3.12155 -0.33108,3.8783 -1.01214,0.91754 -1.22024,0.85132 -0.99322,-0.30744 0.36891,-1.95806 -1.60808,-3.9918 -2.93237,-3.01749 -0.5581,0.41147 -0.60067,0.75674 -0.25541,1.93914 0.75675,2.58238 0.63377,4.49315 -0.33107,5.46273 l -0.88444,0.88443 -0.4635,-1.32429 c -0.60539,-1.74996 -1.07835,-1.67902 -0.86553,0.12297 0.40676,3.49993 -1.56077,6.79175 -4.05329,6.79175 -1.13511,0 -1.16349,-0.0473 -0.74254,-1.25335 z m 82.34284,-12.45784 0.80404,-1.57025 2.18982,1.98645 c 1.20606,1.08781 2.81885,2.31751 3.59451,2.73373 l 1.39052,0.75674 -1.44254,-1.31484 c -4.19045,-3.81209 -4.51207,-4.23775 -6.24311,-8.23902 -1.81617,-4.18571 -2.38374,-4.9661 -1.61754,-2.18982 0.84188,3.03643 0.5581,5.87894 -0.87497,8.78766 -0.72836,1.47564 -1.39997,2.86142 -1.49457,3.08844 -0.45877,1.09728 2.99385,-2.67223 3.68911,-4.03436 z m -30.73313,14.90778 c 2.63441,-0.92228 4.82423,-1.9486 5.24043,-2.44994 0.80404,-0.99323 1.56078,-3.40534 1.53241,-4.91882 -0.0143,-0.75674 -0.24595,-0.44931 -0.85134,1.12092 -0.98377,2.56347 -1.70266,3.12156 -7.86537,6.10122 -5.12692,2.47833 -4.80058,2.5067 1.93914,0.14189 z m 37.91744,10.67478 c 2.12833,-0.72364 3.78371,-1.39997 3.67019,-1.51349 -0.10874,-0.10873 -1.68848,0.14189 -3.50938,0.5581 -2.97021,0.68107 -3.7837,0.70944 -7.92686,0.2554 -9.55385,-1.04052 -11.66799,-1.36213 -13.87201,-2.10941 -1.24389,-0.42567 -2.31751,-0.70945 -2.38372,-0.64323 -0.41149,0.4162 3.49991,1.61752 8.21063,2.53035 3.02696,0.58647 6.60256,1.3101 7.96469,1.60807 3.48101,0.77567 3.54723,0.76621 7.85119,-0.68579 z m -74.09437,25.02919 c 0.0284,-0.0236 0.13243,-1.20605 0.23649,-2.62494 0.20809,-3.08372 -0.51081,-2.86143 -0.80404,0.24594 -0.15608,1.56078 -0.41149,2.14725 -1.08782,2.48306 -0.75675,0.38782 -0.70945,0.41147 0.36418,0.18918 0.68107,-0.14188 1.25808,-0.26959 1.29119,-0.29796 z m 102.75119,4.95192 c 1.21079,-0.52026 2.83777,-1.07835 3.61817,-1.2297 2.83778,-0.54391 3.21614,-1.08781 3.40533,-4.87152 0.10406,-1.88239 0.30743,-3.7837 0.4635,-4.24247 0.15608,-0.45405 -0.10873,-0.009 -0.5912,0.99321 -0.47296,0.99323 -0.99322,2.63914 -1.13511,3.65601 -0.14189,1.01687 -0.54391,1.98645 -0.88444,2.16145 -0.34053,0.17025 -2.0101,0.96956 -3.70803,1.77833 -3.35804,1.59388 -7.49647,4.6445 -8.27685,6.10123 -0.32162,0.60539 0.41621,0.18917 2.21346,-1.23916 1.48511,-1.18242 3.68912,-2.57766 4.89517,-3.10738 z m -17.91583,41.72479 c -1.3716,-1.08782 -1.38106,-2.12833 -0.0284,-6.36134 1.52767,-4.76274 1.24862,-6.07758 -2.05739,-9.60116 -1.41889,-1.51348 -2.69589,-3.02696 -2.81885,-3.36749 -0.15135,-0.37837 -0.25068,-0.22702 -0.2696,0.41148 -0.0331,1.20132 0.75675,2.41211 3.16885,4.85259 2.12834,2.16145 2.23239,3.46209 0.67634,7.92213 -1.41889,4.05802 -0.95539,6.29041 1.46619,7.08498 1.06416,0.35473 1.00268,-0.0473 -0.14189,-0.93646 z m 48.06722,-214.13395 c -0.15608,0.0189 -0.0851,0.25067 0.34527,0.74255 1.79725,2.06212 2.57291,5.98298 1.95333,9.86601 -0.40675,2.56345 -1.12566,4.65395 -1.59389,4.65395 -0.14189,0 -0.87971,-1.4047 -1.65536,-3.12155 -1.74997,-3.9114 -4.87152,-7.33093 -7.23633,-7.94578 -3.12157,-0.8135 -7.03297,0.96011 -8.96266,4.06747 l -0.89863,1.44254 1.72159,-1.53239 c 3.37223,-3.00332 6.28094,-3.86885 8.73563,-2.6013 0.96957,0.50134 2.89452,2.6013 2.89452,3.15939 0,0.0804 -0.85133,0.1419 -1.89185,0.1419 -1.56078,0 -2.06212,0.20336 -2.88507,1.15875 -1.3243,1.52768 -1.26754,2.19927 0.0946,1.13511 1.16823,-0.92227 3.02697,-1.11146 4.28032,-0.43512 0.42566,0.23647 1.30065,1.29592 1.92969,2.36481 1.08781,1.84455 1.1493,2.24658 1.25335,7.70929 0.0709,3.92559 0.31689,6.40866 0.75674,7.7566 1.00268,3.01277 0.52972,4.54044 -3.76005,12.18352 -0.85134,1.51348 -1.24389,2.27022 -1.24389,4.98976 0,2.86615 0.0473,2.23711 0.25539,3.60397 0.5108,-0.30269 0.66215,-0.54863 1.1493,-0.97902 0,-1.84457 1.3574,-5.73705 3.33912,-8.01673 3.09791,-3.56614 3.92559,-5.42015 3.92559,-8.83022 0,-1.58442 -0.15134,-3.59451 -0.33107,-4.46476 -0.48242,-2.27023 0.31215,-1.5797 1.17295,1.01213 0.52971,1.55605 0.6716,3.02224 0.52971,5.55732 -0.15608,3.02696 -0.39255,3.86411 -1.93915,6.97147 -2.43575,4.92828 -7.50591,9.88492 -12.89769,12.59973 l -2.41212,1.21551 0.87499,-1.70266 c 0.53917,-1.04997 1.01214,-3.10263 1.25335,-5.42016 0.41621,-4.04383 1.64118,-6.79648 4.35126,-9.79978 3.01277,-3.32966 4.49315,-9.79033 3.33912,-14.47267 -0.74728,-3.02696 -1.98644,-5.80798 -3.24452,-7.33093 -0.6858,-0.8324 -0.79458,-0.87024 -0.55338,-0.20809 1.74051,4.72962 1.98645,10.1214 0.62431,13.22403 -0.49188,1.10674 -1.47563,2.74319 -2.18981,3.63236 -0.7189,0.89864 -1.62227,2.56346 -2.01482,3.70803 -0.61485,1.82091 -0.70945,1.92969 -0.74255,0.85133 -0.0473,-1.65536 -1.40944,-4.57355 -2.36481,-5.08434 -0.42568,-0.2223 -1.59862,-0.5108 -2.61077,-0.6385 l -1.83509,-0.22703 1.60807,0.60539 c 2.1378,0.80404 2.63441,1.277 3.07426,2.86616 0.49188,1.77361 -0.15135,8.21536 -1.19659,12.07946 -1.12565,4.1337 -2.52089,6.71608 -4.57828,8.47551 -2.78103,2.38373 -6.12488,2.89926 -10.8687,1.67901 -2.11886,-0.53917 -8.42819,-3.21614 -8.41873,-3.56141 0,-0.071 1.98644,-0.12769 4.42221,-0.13242 7.94576,-0.0143 12.24973,-2.50672 13.88618,-8.02619 0.28378,-0.94593 0.175,-0.90809 -1.28646,0.48715 -2.3317,2.22293 -6.10122,4.35126 -8.6694,4.88098 -1.22972,0.2554 -2.36482,0.35472 -2.49253,0.21756 -0.14189,-0.13242 0.31689,-0.85133 1.01215,-1.57969 0.69526,-0.73309 1.58442,-1.96752 1.97699,-2.74319 0.89862,-1.7736 0.99321,-5.17894 0.17025,-6.00663 -0.52025,-0.52971 -0.58174,-0.40201 -0.43985,1.05471 0.33108,3.41952 -1.67428,5.73704 -6.57418,7.63362 -3.31074,1.277 -5.54312,1.41889 -7.79443,0.47296 l -1.41889,-0.60066 2.35536,-0.69998 c 1.30065,-0.38783 2.46887,-0.87499 2.6013,-1.08781 0.12769,-0.20811 1.03105,-0.37838 2.00063,-0.37838 1.7878,0 4.14315,-1.30538 5.60461,-3.0979 0.56755,-0.70945 0.5439,-0.7331 -0.41621,-0.45878 -0.56755,0.16553 -1.76889,0.41148 -2.67224,0.54391 l -1.65537,0.23649 1.15875,-1.08783 c 2.54455,-2.39318 2.91819,-5.79852 0.84188,-7.70929 -1.02633,-0.94593 -1.0547,-0.94593 -0.61485,-0.0946 0.26486,0.49661 0.47296,1.64118 0.47296,2.54454 0,1.34321 -0.33107,2.02428 -1.81145,3.76005 -5.4769,6.41811 -11.11462,6.85797 -14.4159,1.10674 -2.08104,-3.6229 -1.63172,-6.38501 1.34321,-8.2674 1.8682,-1.1824 3.92559,-3.93978 4.81004,-6.47013 0.8324,-2.35535 0.79458,-2.379 -0.83715,-0.47296 -0.79458,0.92227 -2.24185,2.18508 -3.21615,2.79995 -0.97431,0.61485 -2.09523,1.68374 -2.48305,2.36481 -0.39257,0.67633 -0.82296,1.12091 -0.95539,0.98375 -0.5108,-0.52025 0.78985,-4.18098 2.59184,-7.27417 1.46618,-2.52562 1.92022,-3.76005 2.09522,-5.67555 0.12771,-1.34794 0.0473,-2.79048 -0.18918,-3.1925 -0.32161,-0.58174 -0.41621,-0.28378 -0.41621,1.31484 0,2.40265 -0.64796,3.80262 -3.20196,6.93836 -4.31342,5.29719 -5.10799,9.50656 -2.83778,14.94564 l 0.61485,1.48982 -0.98375,-0.927 c -2.29861,-2.16144 -4.72963,-8.73563 -4.16208,-11.28962 0.14189,-0.69053 0.96485,-2.01483 1.81145,-2.94184 0.85133,-0.93173 1.85401,-2.62021 2.23711,-3.75059 0.92701,-2.73373 1.31011,-6.86742 0.72837,-7.8701 -0.35946,-0.61485 -0.45405,-0.6385 -0.46351,-0.12771 -0.0378,1.51349 -1.36214,4.98031 -2.62022,6.82959 -0.74727,1.09727 -1.56077,2.6486 -1.80671,3.43845 -0.40675,1.30064 -0.45404,1.102 -0.48715,-2.06212 -0.0331,-3.06008 0.16554,-4.07695 1.57024,-8.13497 0.8797,-2.54454 1.55131,-4.63504 1.49455,-4.63504 -0.23647,0 -4.36544,6.96202 -4.9188,8.29105 -0.32162,0.77565 -0.78985,2.5067 -1.04053,3.87829 -0.37836,2.11888 -0.33107,2.86615 0.37838,5.34449 0.45877,1.58442 0.82767,3.02695 0.82767,3.21614 0,0.39729 -3.15939,-1.32429 -3.76478,-2.05266 -0.23647,-0.28378 -0.69998,-1.85874 -1.04051,-3.51412 -1.24862,-6.13433 -4.88571,-9.60114 -7.8701,-7.51064 -0.50135,0.35472 -0.91283,0.85133 -0.91283,1.11146 0,0.34053 0.1419,0.33107 0.49188,-0.0236 1.01688,-1.01688 3.05535,-0.57701 4.38438,0.93646 1.277,1.452 1.49455,2.18982 1.93914,6.52689 0.28378,2.89927 0.90809,4.39856 1.82091,4.39856 1.06889,0 4.33233,2.24657 5.47218,3.76478 1.21079,1.60807 2.91345,4.88097 2.66751,5.12692 -0.0946,0.0946 -1.79726,-0.59593 -3.78371,-1.52768 -3.44316,-1.60806 -3.79316,-1.68374 -7.33091,-1.63644 -2.03375,0.0284 -3.87831,0.16081 -4.09586,0.29323 -0.66215,0.41148 -11.23287,0.28378 -18.55907,-0.22702 -3.79789,-0.26486 -7.08498,-0.36891 -7.30728,-0.23648 -0.21757,0.14189 -0.39728,1.70267 -0.39728,3.46209 0,3.64181 0.29323,4.09586 3.19249,4.91881 2.01956,0.58175 3.1121,1.93914 2.91345,3.64182 -0.10406,0.93174 -0.36418,1.1824 -1.3243,1.29119 -0.66214,0.0757 -1.9155,-0.18919 -2.79047,-0.58175 -1.82091,-0.82296 -2.19455,-0.64323 -1.81618,0.86553 0.30743,1.22024 2.08103,2.12832 4.95192,2.52089 1.46619,0.20337 2.04793,0.0757 3.10264,-0.67634 1.60807,-1.14458 3.85464,-1.17296 6.27149,-0.0804 2.26076,1.02633 3.27763,2.02428 4.68232,4.60192 1.18242,2.17564 3.80263,4.27086 5.93096,4.7391 3.02697,0.66214 9.11873,-2.49725 10.3106,-5.35395 0.29796,-0.69998 0.34998,-0.70944 0.37836,-0.10406 0.0378,1.2297 -2.73373,3.8452 -5.32083,5.01341 -1.35268,0.60067 -4.43166,1.54659 -6.84377,2.0905 -2.41212,0.54391 -11.78577,3.54722 -17.89171,8.19171 -5.94515,4.52626 -14.62922,13.13891 -15.6319,33.01282 l 0.83714,3.07425 c 0.46351,1.69321 0.94593,3.68912 1.08782,4.4364 l 0.25539,1.36212 1.02634,-1.7736 c 1.38105,-2.38846 5.53366,-6.62148 8.43293,-8.61739 2.22292,-1.51347 2.09522,-1.35267 -1.89186,2.61549 -3.18776,3.16886 -4.58774,4.90936 -5.56677,6.92418 -1.89185,3.85464 -2.00064,5.09381 -0.72364,8.2863 0.59122,1.46619 1.07363,2.89454 1.07363,3.16885 0,0.96958 -2.03374,3.68912 -4.18572,5.56678 -2.84724,2.48305 -10.59437,6.35662 -13.21458,6.60256 -1.9155,0.17973 -3.54722,1.04052 -4.89989,2.56346 -0.42568,0.48715 -1.06418,3.1121 -1.74997,7.18904 -1.56078,9.39777 -2.52562,12.02272 -7.07553,19.29689 -0.93647,1.48983 -1.277,2.379 -0.99321,2.64859 0.75673,0.7662 0.45877,4.07694 -0.50608,5.6046 -0.77565,1.22971 -0.91754,2.03375 -0.927,5.37287 0,3.0979 -0.17027,4.17153 -0.75675,5.07961 -0.97903,1.48511 -0.61485,1.79727 1.12092,0.97431 1.64592,-0.78512 1.89185,-0.62904 1.89185,1.20133 0,1.74997 1.05472,1.84455 2.67697,0.23648 2.53981,-2.5067 3.39115,-7.78497 1.87294,-11.59706 -0.88444,-2.22291 -0.88444,-2.2371 -0.0803,-3.03641 0.80404,-0.80404 0.8135,-0.80404 1.87293,0.2554 0.58176,0.58647 1.05945,1.44253 1.05945,1.90604 0,1.16349 0.59593,1.05943 1.16821,-0.20338 0.66215,-1.44254 0.63377,-1.59862 -0.58174,-3.04114 -0.87499,-1.04053 -0.94593,-1.26754 -0.36892,-1.26754 0.37838,0 1.21553,0.56755 1.85875,1.25335 l 1.17295,1.25335 0.28377,-1.46619 c 0.18919,-0.99323 0.0804,-1.74996 -0.32161,-2.36481 -0.54863,-0.81823 -0.51079,-0.96958 0.42567,-1.77362 0.84187,-0.72836 0.94593,-1.01686 0.55809,-1.66955 -0.25066,-0.43987 -0.4635,-0.56756 -0.47296,-0.28379 -0.0189,0.92702 -1.25335,0.54391 -1.74996,-0.53917 -0.56755,-1.25808 0.0142,-5.3161 1.35268,-9.36467 1.92968,-5.80798 3.40533,-9.59168 4.0391,-10.31059 1.74996,-2.00063 4.87151,-2.69589 16.11384,-3.57087 12.69906,-0.99322 18.44555,-2.32697 20.66848,-4.79111 0.37837,-0.42567 0.88444,-1.9486 1.11619,-3.39114 0.56756,-3.56615 0.89864,-3.67493 0.59594,-0.20338 -0.35472,4.07694 -0.72364,4.61612 -3.96343,5.89312 l -2.79049,1.09727 4.2283,4.15261 c 4.84787,4.75328 8.25319,7.10864 12.17879,8.40928 6.29041,2.08104 8.23901,3.43372 10.35789,7.18904 0.69526,1.22971 1.33376,2.24185 1.41889,2.24185 0.37837,0 5.35393,-9.33156 5.9404,-11.16193 0.95539,-2.99385 2.31753,-3.84518 6.25258,-3.92559 1.70266,-0.0378 2.44049,0.009 1.64592,0.10406 -4.97558,0.58175 -5.20261,0.80404 -9.55386,9.38359 l -3.35804,6.63094 -0.10406,10.91125 c -0.0568,6.00663 0.0803,12.01326 0.30743,13.34702 0.22701,1.33848 1.16349,4.11478 2.08104,6.14851 2.03373,4.49315 4.03436,11.27544 4.03436,13.60242 0,5.03232 -5.17421,7.22214 -20.5455,8.70252 -8.48022,0.82295 -9.86127,1.20605 -10.95383,3.04588 -1.43308,2.4121 -2.81886,3.59452 -5.33502,4.53098 -1.33848,0.50134 -3.04115,1.43781 -3.7837,2.08104 -1.4047,1.24389 -1.56078,1.30537 -4.98975,2.08104 -1.18242,0.27431 -2.16145,0.65268 -2.16145,0.85132 0,0.64323 1.90604,1.63646 3.73641,1.94862 l 1.78306,0.30269 -1.81144,1.3243 c -0.99322,0.73782 -1.95807,1.33848 -2.1378,1.33848 -0.18917,0 -0.33107,0.20811 -0.33107,0.4635 0,0.85134 7.33093,0.22703 9.74304,-0.83715 2.53981,-1.10673 3.49047,-2.06683 4.05802,-4.07693 0.2696,-0.94593 0.85134,-1.72159 1.57024,-2.11887 1.08781,-0.59594 1.19187,-0.57702 1.94861,0.34052 0.96484,1.18242 1.01687,2.44523 0.15608,3.67493 -1.14458,1.63172 0.42566,1.09727 1.85401,-0.63377 1.22025,-1.48037 1.28646,-1.50402 1.52294,-0.61485 0.44932,1.70266 1.38105,0.75674 1.38105,-1.41889 0,-0.77566 0.16554,-0.97904 0.64796,-0.79458 0.93174,0.35946 2.23712,-0.4635 2.23712,-1.40943 0,-0.69999 -0.11352,-0.74728 -0.78985,-0.32161 -1.01687,0.63377 -2.09996,-0.16081 -2.09996,-1.5324 0,-0.79458 0.31216,-1.01214 1.95807,-1.36214 5.77015,-1.2297 19.18337,-2.5067 26.66092,-2.53981 4.61139,-0.0141 6.74918,-0.49187 7.69037,-1.71685 1.24389,-1.60808 1.33849,-3.42898 0.37838,-7.26944 -0.99323,-4.03437 -1.04053,-4.83368 -0.73782,-12.06055 0.25539,-6.03974 0.80402,-7.50593 3.91613,-10.53289 2.38846,-2.31751 5.65663,-3.88775 10.92544,-5.24989 8.52279,-2.19928 10.73626,-4.03437 13.08688,-10.87815 0.52027,-1.48982 0.77566,-3.41951 0.78512,-5.7796 0.0143,-3.20196 0.071,-3.46208 0.61485,-2.74319 0.40203,0.52973 0.61485,1.79727 0.61485,3.70804 0.009,3.49991 0.42568,4.46003 1.2297,2.81886 l 0.56757,-1.14458 0.14188,1.02634 c 0.2223,1.53712 0.98377,3.29182 1.43308,3.29182 0.21756,0 0.28378,-0.51081 0.16081,-1.13512 -0.13243,-0.61485 -0.0473,-1.40942 0.17027,-1.74996 0.3689,-0.54864 0.45877,-0.54864 0.81822,0 0.61485,0.94593 0.49661,3.00331 -0.24594,4.06748 -0.6385,0.91281 -0.62904,0.94592 0.30742,0.80404 0.59593,-0.0804 1.20133,-0.61485 1.56078,-1.36213 l 0.58648,-1.2297 0.45877,1.38578 c 0.52025,1.56077 1.98644,2.93236 3.13575,2.93236 0.70943,0 0.6858,-0.11824 -0.22703,-1.46619 -0.5439,-0.80402 -1.20605,-2.51616 -1.46618,-3.80734 -1.43308,-6.93837 -2.51616,-8.8917 -7.06607,-12.67541 -1.65537,-1.3716 -3.2256,-2.95129 -3.49993,-3.49992 -0.26012,-0.54865 -1.54659,-3.21616 -2.83778,-5.93569 -2.86614,-5.98298 -5.28298,-8.58427 -11.50718,-12.39163 -11.84772,-7.24578 -13.93349,-8.64576 -16.09493,-10.79774 -1.41888,-1.41889 -5.04178,-6.39447 -9.12818,-12.54298 -3.71749,-5.61407 -5.12692,-8.54644 -8.06401,-11.19503 -1.60808,-1.45673 -3.68912,-4.63504 -3.79317,-8.79711 -0.23648,-8.74035 8.77346,-17.878 12.85513,-22.18196 -0.0946,-0.0946 -0.88444,0.32161 -1.75943,0.92228 -1.70266,1.16349 -7.14173,4.01072 -7.14173,3.73641 0,-0.0946 1.29118,-0.93647 2.88507,-1.87767 1.57969,-0.94593 3.96343,-2.61548 5.29719,-3.72222 2.56819,-2.14251 3.35804,-3.87829 3.32966,-7.30255 -0.009,-1.4378 -0.21757,-1.71685 -2.5067,-3.37694 -2.76684,-2.0101 -3.26346,-2.91346 -3.19251,-5.73232 l 0.0473,-1.92969 0.32162,2.27023 c 0.39255,2.71953 1.3101,3.63235 7.23633,7.21741 3.65127,2.20873 4.14316,2.38846 6.98566,2.57292 1.68375,0.10873 3.06007,0.0614 3.06007,-0.0946 0,-0.17027 -0.61485,-1.02159 -1.36213,-1.89185 -0.75674,-0.87498 -2.08104,-2.90872 -2.96548,-4.51206 -2.02429,-3.69858 -3.97289,-5.98771 -5.98772,-7.00932 -0.86078,-0.44458 -1.68847,-1.00267 -1.84455,-1.24389 -0.14189,-0.23647 0.71891,0.0805 1.92023,0.70945 1.2297,0.66214 3.7175,2.71007 5.69921,4.71071 3.86884,3.90194 5.81744,5.07016 11.61597,6.96675 6.38499,2.08103 11.68218,1.37158 19.90228,-2.69589 3.45262,-1.70267 5.24043,-2.32699 7.51064,-2.62495 3.67493,-0.49189 6.49378,-2.01955 9.95114,-5.40123 2.53981,-2.48779 4.35127,-3.27764 6.18163,-2.69589 0.64796,0.2081 0.86079,0.61485 0.86079,1.66482 0,0.75674 -0.18918,1.50403 -0.41148,1.64119 -0.22702,0.14189 -0.41147,0.4635 -0.41147,0.70944 0,0.2554 0.47296,0.0284 1.03105,-0.50135 0.69999,-0.66213 1.03107,-1.41888 1.03107,-2.34116 0,-1.43308 -1.18242,-3.0175 -2.24185,-3.0175 -1.41889,0 -0.80404,-0.83242 2.20874,-3.04116 3.3202,-2.43102 5.108,-4.34179 6.4181,-6.84376 1.08782,-2.08104 1.30065,-7.14174 0.44932,-10.64167 l -0.68107,-2.79048 1.31011,-3.0648 c 2.15671,-5.06071 1.7736,-8.51333 -1.42835,-12.84095 -1.41888,-1.91549 -4.80057,-3.97288 -7.40187,-4.49314 -2.96075,-0.58647 -4.09586,0.0662 -1.46618,0.85133 2.49251,0.74729 5.75595,4.16207 6.90525,7.20796 0.69526,1.8682 0.87026,3.11209 0.77566,5.54312 l -0.11824,3.13102 -1.56077,-2.33171 c -2.37901,-3.54722 -5.60935,-5.6519 -8.7309,-5.66136 -1.11619,0 -1.02161,0.0946 1.01688,1.11146 2.34116,1.16348 2.77628,1.74995 4.84786,6.47959 0.49661,1.12565 1.64119,3.23033 2.54454,4.66814 2.89454,4.61139 3.19723,8.9863 0.85133,12.47676 -1.15875,1.74997 -3.98707,4.31816 -4.35125,3.9587 -0.0946,-0.0946 0.29323,-2.03374 0.86079,-4.2945 0.98376,-3.89721 1.00741,-4.20937 0.40202,-5.92149 -0.83242,-2.36482 -2.3459,-4.91882 -3.51885,-5.94988 -0.93174,-0.82295 -0.93174,-0.82295 -0.56755,0 0.31688,0.73783 0.7189,9.20859 0.67161,14.3024 -0.0331,3.9114 -4.37965,9.46872 -9.55386,12.23081 l -2.58238,1.3716 1.88239,-2.63914 c 2.35537,-3.29655 5.07963,-8.87277 5.458,-11.17138 0.29797,-1.81144 0.82769,-2.77155 1.52294,-2.77155 0.24594,0 0.30269,0.62431 0.14189,1.54658 -0.23648,1.43781 -0.21283,1.48984 0.37837,0.74255 0.33108,-0.43985 0.61485,-1.50402 0.61485,-2.36481 0,-1.47564 -0.23648,-1.74997 -1.43781,-1.62699 -0.22228,0.0236 -0.42566,-0.85134 -0.43985,-1.95807 -0.0331,-2.3317 -1.74996,-6.19581 -3.29182,-7.40187 -1.15876,-0.91754 -1.24862,-1.67902 -0.37838,-3.35803 1.06417,-2.05739 2.25604,-7.88902 2.25604,-11.06734 0,-3.8783 -0.64796,-6.02082 -2.36481,-7.73294 -0.88445,-0.88445 -1.74997,-1.42835 -2.01009,-1.39051 z m -3.68911,209.68337 c 0.11352,-0.18918 -0.24594,-0.26486 -0.80404,-0.16081 -0.89863,0.175 -1.13511,-0.0662 -2.01482,-2.05266 -0.54391,-1.2297 -1.60808,-2.77156 -2.36481,-3.41479 -1.08782,-0.92227 -10.22546,-5.68501 -12.07948,-6.2904 -1.11619,-0.36892 1.49457,1.36213 3.29655,2.17562 4.19991,1.92023 9.12819,5.83163 10.38627,8.23902 0.34998,0.68107 0.85133,1.37159 1.09727,1.53712 0.62904,0.41149 2.21347,0.38784 2.47833,-0.0378 z m -20.98063,40.72211 c 0.81822,-1.5797 0.85132,-1.52294 -0.8135,-1.3243 -0.78985,0.0851 -1.43781,0.0331 -1.43781,-0.1277 0,-0.48242 4.36544,-5.14583 6.60729,-7.06133 1.79726,-1.54186 2.36481,-1.79727 3.94451,-1.79727 2.00064,0 2.53508,-0.41147 4.93773,-3.76005 3.15467,-4.39855 3.23981,-4.74382 3.23981,-12.94026 l 0,-7.43025 -1.5466,-3.12156 c -2.27968,-4.61138 -5.25934,-6.91472 -8.95792,-6.92418 -1.59861,0 -5.64244,-2.09994 -9.27006,-4.80056 -1.81146,-1.34795 -4.49316,-3.30129 -5.9688,-4.33235 -2.78102,-1.95807 -6.99985,-6.12486 -6.99985,-6.91944 0,-1.02634 3.82153,-4.46951 6.10122,-5.48638 2.80467,-1.26754 9.02413,-2.97967 12.22136,-3.38641 l 2.27022,-0.28377 0,2.4121 c 0.0189,4.45531 2.01483,7.14174 10.09304,13.61187 3.40532,2.729 6.20999,4.39857 10.18288,6.05393 1.74996,0.74255 1.92496,1.52767 0.93647,4.33235 -0.94593,2.68169 -1.77835,7.16538 -2.68643,14.49157 -0.45878,3.7175 -1.01687,7.8701 -1.24389,9.22278 -0.59593,3.63236 -0.52027,4.26613 0.64323,5.34448 0.92227,0.85134 0.96957,1.0216 0.38783,1.34794 -0.56756,0.31216 -0.58648,0.54391 -0.17027,1.46619 0.38783,0.85134 0.37837,1.22024 -0.0284,1.71685 -0.66215,0.80404 -1.40942,0.81823 -1.10673,0.0332 0.14189,-0.37837 -0.10873,-0.70944 -0.67634,-0.88443 -1.102,-0.35 -1.34321,-0.18919 -1.1824,0.78511 0.16081,0.92701 -0.99323,2.75264 -1.73577,2.75264 -0.35,0 -0.48243,-0.34053 -0.36892,-0.94593 0.10406,-0.53444 -0.0805,-1.17294 -0.4162,-1.45199 -1.23917,-1.02633 -2.74319,0.49188 -3.58507,3.64181 -0.61485,2.30807 -1.49455,3.60399 -2.9229,4.34181 -1.81146,0.93646 -2.03374,0.72362 -1.19661,-1.15404 0.49662,-1.10673 0.64323,-1.89185 0.39257,-2.13778 -0.54391,-0.54865 -1.2297,0.21755 -2.44995,2.77155 -1.16349,2.42631 -2.44522,3.11211 -5.87894,3.15467 l -1.96751,0.0237 0.63377,-1.21551 z"/>
    <path d="m 281.32896,237.56186 0.6716,14.83211 c 9.52075,1.46619 16.68661,4.37017 25.54047,9.60115 l 10.27229,-10.70788 -7.41606,0.33107 c 1.02159,5.59516 -5.47692,6.27149 -6.49851,0.6858 -3.76478,1.70267 -5.47219,-2.06212 -3.8783,-3.54722 l 2.50671,-1.13512 -2.27023,-5.0134 -5.0134,2.27023 1.1351,2.5067 c 0.2223,2.17562 -3.54721,3.87829 -5.24988,0.11352 -4.44585,3.53776 -8.8917,-1.25808 -4.44585,-4.79112 z"/>
  </g>
  <g id="mirrored-flame">
    <path d="m 121.28425,202.39283 c 15.8761,49.93102 -30.54023,89.60875 10.99445,161.37732"/>
    <path d="m 73.320622,307.72032 c 14.727679,31.9258 40.953198,36.43166 55.971298,63.64137"/>
    <path d="m 94.991783,400.91134 c 31.171997,39.95903 10.371947,56.44674 49.974127,92.36574"/>
    <path d="m 203.14303,505.00594 c -11.29983,-13.10267 -14.63319,-35.11333 -14.70852,-48.3839 -0.20056,-35.30821 25.8948,-54.00693 15.40528,-84.97391 46.68347,34.70851 13.20308,71.80245 45.54185,102.64836"/>
    <path d="m 129.99859,448.31296 c -30.004618,-68.27081 30.03965,-109.63863 24.2941,-154.25402 47.68489,51.99757 -5.72398,108.71965 35.03331,150.91455"/>
    <path d="m 278.1287,525.22296 c -15.5666,-9.6179 -26.79513,-23.97732 -28.55654,-45.27869 -1.98263,-23.97661 11.80428,-39.60808 5.95823,-62.47669 38.49667,25.9448 20.91284,44.27322 44.48786,63.16863"/>
    <path d="m 165.32453,199.18556 c -3.37283,8.0414 -6.21486,15.18752 -8.57707,21.79553"/>
  </g>
  <use xlink:href="#mirrored-flame" transform="matrix(-1,0,0,1,600,0)"/>
  <path d="m 280.30753,504.31919 c 17.30136,-22.76053 1.5014,-32.36763 19.67955,-70.44721 5.90926,25.6825 19.76132,40.3109 17.13075,70.44721"/>
</g>
<use id="shine" xlink:href="#shield" fill="url(#rg)" stroke="#000" stroke-width="3"/>
</svg>