<?xml version="1.0" encoding="UTF-8"?>
<svg xmlns="http://www.w3.org/2000/svg" xmlns:xlink="http://www.w3.org/1999/xlink" width="600" height="660">
<defs>
  <radialGradient id="rg" gradientUnits="userSpaceOnUse" cx="220" cy="220" r="405">
    <stop style="stop-color:#fff;stop-opacity:.3" offset="0"/>
    <stop style="stop-color:#fff;stop-opacity:.2" offset=".2"/>
    <stop style="stop-color:#666;stop-opacity:.1" offset=".6"/>
    <stop style="stop-color:#000;stop-opacity:.13" offset="1"/>
  </radialGradient>
  <linearGradient id="lg">
    <stop style="stop-color:#cc0000;stop-opacity:1" offset="0"/>
    <stop offset="0.15" style="stop-color:#cc0000;stop-opacity:1"/>
    <stop style="stop-color:#000000;stop-opacity:1" offset="1"/>
  </linearGradient>
  <radialGradient xlink:href="#lg" id="gradwing" cx="302.51257" cy="288.24686" fx="302.51257" fy="288.24686" r="113.0243" gradientTransform="matrix(0.34185697,-0.24104661,1.0940727,1.5516362,-127.80173,-139.52831)" gradientUnits="userSpaceOnUse" />
  <path id="shield" d="m2,2v257c0,286 298,398 298,398c0,0 298-112 298-398V2z"/>
</defs>
<use id="background" xlink:href="#shield" fill="#fd0"/>
<path fill="#c00" d="m 301.42748,50.949219 c -2.82395,7.862957 -5.78561,15.973705 -7.69335,23.498047 -12.08235,3.145734 -36.90321,-20.142202 -41.95899,2.591796 -0.78756,14.113434 13.73535,11.014666 10.54883,1.333985 1.93119,-1.751202 9.50977,2.282447 9.50977,3.775391 -10e-6,1.56457 -12.24362,5.993208 -17.24024,6.730468 -6.06079,3.45984 -13.60589,8.97879 -21.19141,14.542974 -7.95971,3.36587 -15.33846,5.32922 -21.13085,9.07421 -3.74948,6.67496 -8.2682,17.1079 -6.09571,29.19922 8.84455,9.23849 12.11987,-3.37102 19.44141,-4.55078 3.59222,2.14875 -9.78096,5.093 -6.62696,10.16797 12.11253,12.09757 18.65201,-16.21134 40.63477,-8.51172 12.53943,4.39202 25.75921,0.23881 38.86523,-2.43164 -7.55271,6.71797 -18.30954,6.02973 -27.00976,8.17969 2.19548,3.14161 6.84644,3.08331 9.06836,6.29687 -4.25474,2.75971 -10.99813,-2.37786 -15.24414,-4.61328 l -5.08789,12.60742 c -11.19286,14.5821 -26.99021,22.64522 -40.75391,33.94336 -7.93241,8.36562 -9.88808,20.20632 -11.3164,31.66016 2.58625,-3.38468 5.34577,-8.01953 8.46679,-10.69727 -0.35125,5.55167 -10.73445,19.02825 -8.92187,25.16797 2.86147,0.71183 2.87152,1.31346 5.3164,1.28516 0.9926,-2.63482 1.75845,-4.07506 2.74414,-4.83594 0.0123,4.10722 0.94453,5.25153 1.62305,7.48828 -2.89219,2.9606 -29.8441,-5.89468 -47.62891,-8.06445 -6.55551,-2.06397 -12.06222,-5.77898 -13.89257,-6.21289 -5.10533,-1.9936 -11.37556,-1.66701 -16.02539,0.60156 -6.08963,6.67561 -21.20469,29.51194 -35.72072,36.15039 -11.226561,4.01278 -14.680576,13.60291 -16.451165,22.85352 -3.24546,19.03909 -4.647704,42.9877 17.648435,26.86719 7.47681,-5.26228 14.25006,-9.6804 7.7461,-19.70118 6.10806,-2.61645 9.56144,-5.69407 7.83594,-16.67773 8.47202,-10.73915 20.24251,-23.24671 34.13867,-23.88672 11.74976,3.88563 26.04055,16.31015 36.42969,26.92578 3.77048,7.94315 17.99161,10.10416 24.19336,0.9707 1.14441,-3.73839 7.73192,-6.2682 9.08594,-1.46289 -4.20444,0.61003 -7.68238,0.50842 -6.98633,5.77735 18.74147,31.20426 42.26683,57.85629 70.85547,76.80273 -1.79873,-0.93026 -0.16194,8.6326 0.91015,9.78711 2.65335,-0.40512 6.99782,-3.6896 8.46289,-0.60156 0,1.30466 -7.44027,4.34363 -9.75976,3.98633 -4.09704,-1.44063 -4.47855,-11.46549 -6.57422,-15.73242 -1.13638,10.87883 -1.59851,23.09355 -4.64844,33.45703 -3.32924,6.49684 -4.33478,13.95284 -4.30078,21.30664 -0.15442,18.46757 13.24861,17.43904 12.39844,34.28711 -1.71718,19.33559 -25.83557,34.5074 -43.98242,37.9707 -14.09109,3.58548 -18.19074,6.05007 -21.67188,13.0293 -12.8844,19.91032 -16.88155,27.58473 12.46289,25.9082 10.54739,-0.46355 10.67502,-2.90594 11.40234,-11.22461 4.11733,-0.24368 5.21347,6.47072 12.66797,1.20703 13.77806,-26.34444 41.13037,-44.20456 70.61133,-51.09375 5.79563,-4.13058 6.78931,-14.66577 5.28125,-21.17578 -0.74677,-2.72354 0.37346,-4.84392 0.31445,-7.50781 -11.61865,-9.71192 -18.26861,-24.13875 -29.54492,-38.0918 -3.05964,-4.74554 -3.20275,-5.39046 -3.16015,-14.35156 0.0247,-5.16102 0.34988,-10.23551 0.7207,-11.27539 1.41626,-3.97108 2.62305,-0.24992 2.62305,8.08203 0,5.18572 0.36374,8.86162 1.45703,12.11523 5.17164,13.23575 21.5786,31.61897 31.48047,41.69532 7.47332,6.80848 20.89991,2.36498 23.80859,15.3789 0.22452,26.43765 -17.01573,43.60164 -33.50977,57.2793 -2.77494,0.6451 -5.26837,5.05719 -5.01171,9.05469 0.13682,2.12905 -1.1274,3.14592 -4.54493,6.82617 -10.62529,11.77505 -15.84593,26.11564 5.24414,24.86133 7.54372,-0.43925 14.60546,-4.15858 21.1836,-7.87696 3.17081,-3.90427 -0.77463,-8.39571 -0.0996,-12.79297 2.08502,-1.84264 5.13152,-0.50401 7.20898,-2.46093 6.42815,-10.19387 1.49219,-21.69656 12.47852,-33.51368 8.98343,-16.00955 19.88022,-24.57902 34.54492,-35.45703 3.44884,-5.80402 4.20084,-15.67776 2.07031,-22.05859 -4.97624,-9.36406 -14.62626,-5.22658 -13.38086,-22.75 3.17763,-15.52646 15.47265,-26.47201 16.79493,-42.59961 0.15248,-3.42436 0.85941,-7.11744 3.81485,-8.92383 9.78364,9.13091 15.44601,23.26716 34.91366,15.03711 14.29331,-5.43624 17.33089,-25.68391 28.89844,-34.93359 5.52502,-3.75776 8.84526,-1.04739 12.8418,2.1543 3.37232,-16.10375 -12.46744,-12.52286 -24.38672,-14.32813 -1.34579,-2.83374 -2.03782,-6.20504 -1.7461,-9.375 6.90721,-0.23889 11.31799,8.81644 18.83594,6.43164 20.0937,-0.68513 15.79397,-17.76812 25.20117,-11.82031 2.21146,-11.98257 -9.39813,-15.04227 -17.68359,-9.55469 -7.17424,3.50022 -14.22073,5.5082 -16.77734,-7.625 7.58649,1.21018 12.85156,6.40357 22.69726,1.63281 9.61054,-1.31169 12.90133,-14.52443 16.6836,-20.3457 2.79042,-0.56917 4.65796,1.82839 7.35351,1.90039 1.88363,-5.85384 -2.8015,-13.09357 -8.56055,-12.83398 -7.48183,0.34649 -12.4078,8.71505 -20.01562,11.02148 -6.58094,2.12214 -14.98848,-1.44896 -14.54688,-12.82227 5.7051,1.60994 14.64113,8.90024 28.37696,-3.71679 9.11899,-7.98553 7.47738,-20.16924 16.62695,-24.98242 2.76237,0.58622 5.35777,2.61898 8.42773,2.27929 0.59456,-7.94056 -5.41823,-16.70707 -15.09179,-16.01367 -10.15087,0.66073 -13.26613,16.91779 -25.90625,11.82227 -23.296,-15.50495 -59.42339,-21.60335 -76.10156,16.50976 -13.16353,26.1484 0.53933,41.76035 11.36523,57.34375 3.56878,13.65293 -0.38612,31.97276 -14.58185,36.12269 -6.1955,-14.46999 -8.95052,-21.82284 -21.7287,-34.12073 -34.19191,-19.30178 -66.26701,-71.67506 -63.86133,-92.46289 7.17348,-4.70027 13.20736,4.71901 2.02149,6.49023 18.41784,14.75302 26.31037,-10.71341 15.7539,-19.35547 7.15441,-3.99909 5.25694,14.72688 9.64063,16.70898 3.05652,-2.67721 4.33133,-8.2202 7.08789,-11.44921 3.32043,-10.07348 -3.84184,-16.90844 -9.12695,-25.69141 7.77666,0.10448 9.47613,16.5968 19.23633,11.49805 -2.76633,-8.12967 -0.18549,-14.68734 3.08789,-21.93555 -1.29274,-8.44169 -7.66208,-13.16606 -12.47266,-18.83984 3.26253,-3.4959 8.98082,1.20431 10.02734,5.3457 1.43574,4.42714 7.24865,9.8152 11.78125,7.17578 -5.58756,-5.70257 0.41815,-11.92783 -0.45507,-22.26562 -4.96327,-11.24937 -11.70249,-15.86843 -22.38868,-17.77735 7.22615,-8.79162 14.62425,6.14183 19.98633,5.125 -2.58848,-5.5473 -3.17796,-11.08992 -3.62109,-17.20312 -4.07834,-8.2803 -12.95275,-8.05837 -20.1211,-8.44336 1.63529,-9.234721 12.57945,3.26046 17.18555,-3.37891 -8.52613,-5.861485 -9.80141,-12.707164 -13.91016,-15.64453 -4.10863,-2.93733 -13.78939,-1.59725 -23.21093,2.089844 -0.83236,-4.808587 11.29477,-5.400649 13.68554,-7.833985 -6.99097,-10.115711 -18.19697,-13.756167 -29.25195,-7.445312 -1.39595,-8.647518 -1.91826,-21.125822 -11.09766,-24.080078 z m -7.35156,3.162109 c -5.96506,0.714469 -9.8248,11.125699 -8.23047,17.115234 9.18394,7.138036 9.81232,-12.138699 8.23047,-17.115234 z m 9.61524,7.611328 c 1.00945,5.152457 1.92728,23.383301 -3.13282,23.605469 2.68549,-5.433265 -1.00527,-19.290201 3.13282,-23.605469 z m 21.86523,18.529297 c 0.0834,0.01851 0.15264,0.05651 0.20899,0.117188 -0.15346,2.809467 -3.02702,8.824949 -5.52149,5.607421 0,-1.768386 4.06203,-6.002196 5.3125,-5.724609 z M 275.92748,86.6875 c 3.22913,-0.0711 6.08701,0.558628 7.90821,1.892578 -9.16577,0.459727 -16.76431,1.758649 -27.56055,8.775391 3.64276,-6.955881 12.54827,-10.511557 19.65234,-10.667969 z m 67.00391,7.585938 c 1.50057,0.05812 2.99509,0.521426 4.17188,1.572265 -5.75767,1.034217 -7.22576,0.722224 -10.81836,1.978516 0.0169,-1.847076 3.34523,-3.678638 6.64648,-3.550781 z m -35.92187,0.384765 c 1.69984,0.05338 5.48828,2.352912 5.48828,3.699219 -1.67759,1.534806 -7.54984,-1.127907 -6.07227,-3.576172 0.14039,-0.09344 0.34115,-0.130673 0.58399,-0.123047 z m -34.25977,1.037109 c 3.04407,-0.114079 4.97501,0.516666 6.43359,0.75586 1.96703,0.278093 8.5,4.714848 8.5,4.714848 0,0 -1.81069,1.18323 -7.16601,1.9707 -5.36276,0.70399 -13.02803,0.57698 -14.97656,-0.2207 -1.97375,-0.81617 -3.10951,-1.43295 -3.53711,-1.66602 -0.001,0.002 -0.0254,0.041 -0.0254,0.041 l -0.0176,-0.0625 c 0.007,0.004 0.0352,0.0172 0.043,0.0215 0.0662,-0.1238 2.28423,-4.212079 7.30859,-5.150391 1.28594,-0.245575 2.42281,-0.36627 3.4375,-0.404297 z m 49.66016,0.763672 c 39.19161,24.649396 10.50857,93.459726 -5.07032,101.775396 27.28527,-44.20815 29.27335,-75.02192 5.07032,-101.775396 z m -78.73438,11.546876 c -0.56743,2.52128 -2.4206,4.83624 -4.58789,6.20117 -0.66078,-2.24221 2.05044,-6.19217 4.58789,-6.20117 z m 4.4375,4.24609 c -4.36994,3.70498 -5.88631,5.39015 -9.45703,6.64844 2.46785,-5.4915 3.98593,-5.72057 9.45703,-6.64844 z m 105.3086,2.33985 c 3.04528,-0.0718 6.30861,1.18484 8,3.5332 -3.51689,0.0482 -9.82611,-1.54987 -12.85938,-1.91797 1.28471,-1.05116 3.0322,-1.57214 4.85938,-1.61523 z m -134.73829,2.27148 c 7.48796,1.65725 2.11336,15.16885 -3.0039,12.28711 3.60962,-4.04469 4.64837,-6.81264 3.0039,-12.28711 z m 134.6875,23.02539 c 3.24394,0.45045 10.38192,2.68344 9.81641,6.87305 -3.81122,-1.07233 -8.34959,-4.44462 -9.81641,-6.87305 z m -77.55078,22.54297 c 0.86747,-0.0223 1.56318,0.16719 1.82422,0.70313 -1.05301,1.08222 -6.66422,2.72144 -7.26172,1.04296 0.78714,-0.62726 3.52907,-1.69702 5.4375,-1.74609 z m 74.06641,2.00586 c 4.0429,1.52139 7.13041,12.55008 6.63672,16.51758 -2.99697,-2.48615 -11.69352,-16.16579 -6.63672,-16.51758 z m -79.99609,7.63477 c 1.38563,0.0369 2.51571,0.61922 2.84765,2.11914 -2.72496,0.89715 -7.6164,2.47961 -9.41015,0.52343 1.23188,-1.24974 4.25311,-2.70402 6.5625,-2.64257 z m -107.07618,3.40039 c -4.4976,0.14738 -8.13267,2.03346 -12.16992,6.20507 -11.71837,8.46218 -26.42527,14.41137 -40.2832,17.87696 -10.16502,0.72339 -15.951316,5.98507 -20.548835,14.43945 -3.734376,6.59294 -10.064439,13.76929 -10.648438,22.71484 2.251384,14.34714 25.594763,3.3898 31.986333,-0.35742 4.72179,-3.97131 1.67869,-10.35189 3.76172,-15.61133 7.9645,6.63673 9.84296,9.28008 17.44922,-4.90039 4.94398,-7.28815 17.68055,-13.56916 27.30859,-16.99609 14.7195,2.9372 10.04182,26.67093 17.38867,34.34766 10.23856,1.88103 19.95694,4.21258 26.64844,4.93164 2.62592,-9.12928 2.22771,-21.52371 5.2461,-31.03321 -15.26478,-8.45818 -23.45507,-17.16512 -33.48438,-29.0625 -5.13517,-1.73094 -9.15616,-2.66931 -12.6543,-2.55468 z m -0.11523,4.79687 c 5.96297,-0.0312 15.07221,5.70327 10.99023,13.09375 -1.90304,-5.60617 -8.37829,-12.98253 -15.63672,-9.0918 -0.12434,-2.78339 1.93605,-3.98774 4.64649,-4.00195 z m 97.35742,5.0332 c 2.12265,0.0526 4.10149,0.42954 5.77539,1.14454 -7.61523,3.16375 -13.11155,2.51673 -20.13086,3.05468 4.32313,-2.86179 9.68565,-4.31487 14.35547,-4.19922 z m 76.78516,5.8086 c 2.45826,2.21751 5.05334,5.39768 6.63867,8.22265 -1.58078,4.75646 -10.2176,-5.20963 -6.63867,-8.22265 z m -10.88086,15.56836 c 1.00561,-0.19134 3.62305,4.17432 3.62305,5.79101 -1.68651,-1.2295 -4.19435,-2.73618 -3.80079,-5.68945 0.0515,-0.0554 0.1107,-0.0888 0.17774,-0.10156 z M 95.025135,219.03711 c 3.071758,0.32372 6.938305,1.7418 9.310545,3.83789 -3.19411,2.13346 -11.320043,2.05029 -9.310545,-3.83789 z m -3.298828,8.62891 c -0.270689,4.12445 -1.178778,9.65121 -4.498047,6.01953 -0.58929,-1.65371 1.55576,-4.23551 4.498047,-6.01953 z m 57.193363,4.13671 c 1.74315,0.002 3.60017,1.11801 4.79492,2.5625 -3.42308,-0.27707 -5.81966,-0.25783 -8.29101,-0.17773 0.85329,-1.7153 2.14031,-2.38664 3.49609,-2.38477 z m 296.24024,4.58204 c 9.82817,1.24588 24.45189,5.88912 29.88281,6.92382 -16.66472,3.16987 -28.80484,-13.56845 -46.66016,8.06446 -3.13376,3.72557 -5.22022,8.03615 -6.39648,13.3164 -3.71527,16.35272 8.90498,18.55848 7.80859,31.9375 -7.34117,-16.37643 -20.42407,-23.43286 -2.51172,-48.625 5.75507,-5.9198 10.44496,-8.25522 17.87696,-11.61718 z m -139.80078,7.06445 c 0.15899,-0.002 0.28035,0.0215 0.36132,0.0742 -0.94574,4.6088 -8.11613,9.6267 -11.93945,8.84375 -1.30507,-2.94769 9.19324,-8.88235 11.57813,-8.91797 z m 8.34961,16.18555 c -2.81291,6.21564 -8.27486,12.07966 -13.79688,10.65039 4.05113,-3.07061 8.33132,-8.49853 13.79688,-10.65039 z m -120.26563,9.12304 c 12.02898,11.62329 10.18217,5.73737 21.02539,4.375 -6.30164,6.79036 -18.42666,7.49241 -21.02539,-4.375 z m 255.63281,1.38477 c 1.2841,-0.0328 2.59294,0.18088 3.88477,0.68359 10.60293,5.96196 7.24143,15.65929 23.85156,18.08789 -11.8979,4.60979 -15.61575,-8.02158 -23.37305,-14.84179 -8.27083,-3.53687 -12.52652,3.04499 -16.26367,11.24609 -1.23413,-7.64881 4.96628,-14.99854 11.90039,-15.17578 z m -130.08398,4.25586 c -1.46284,5.68754 -10.37906,16.89294 -15.68555,15.16601 5.36284,-4.82191 9.64631,-8.58306 15.68555,-15.16601 z m 10.74023,13.46289 c -1.4676,8.05405 -9.73768,15.32362 -14.72265,18.89648 1.84238,-6.2667 9.51007,-15.49051 14.72265,-18.89648 z m -235.449222,4.83203 c 5.755772,1.73511 9.982612,2.47632 10.496092,6.71484 -4.15168,-2.10937 -8.884387,-1.07678 -10.496092,-6.71484 z m 357.419932,5.20117 c 7.65556,6.4466 8.30949,16.2005 18.08007,16.65625 -9.47314,6.16337 -12.83342,-8.33776 -18.36523,-13.52734 -7.75322,2.78991 -7.97838,13.44267 -8.21289,20.83789 -0.29268,7.1331 -6.53786,18.49352 -14.27735,14.03711 3.38502,-3.59939 14.96853,-4.87957 11.37305,-18.31446 0.15383,-8.49013 1.95043,-18.40618 11.40235,-19.68945 z m -110.9004,2.93164 c 0.10605,4.01088 -3.62835,7.9616 -6.16406,10.62305 -3.74479,-1.19488 3.34972,-10.57345 6.16406,-10.62305 z m -248.083985,3.84571 c 1.714539,2.66867 2.870702,5.16023 0.644531,8.16796 -2.211816,-1.33922 -1.727602,-5.62251 -0.644531,-8.16796 z m 258.265635,7.02734 c 3.00257,1.48028 -2.57006,10.35636 -4.55274,8.35156 0.10981,-1.84516 3.44569,-7.96436 4.55274,-8.35156 z m 10.99023,8.08984 c 1.08804,3.96453 1.00175,7.28531 -2.40234,7.25391 -0.073,-2.61033 1.02701,-5.77941 2.40234,-7.25391 z m 22.91797,48.91992 c 0.83123,0.0263 1.59999,0.45997 1.91992,1.38868 -0.61316,2.00517 -4.60351,2.29282 -4.60351,0.33203 0.44402,-1.11696 1.61487,-1.75453 2.68359,-1.72071 z m -1.07031,10.5254 c 0.89574,0.009 1.66662,0.35316 2.04687,1.21484 -1.55251,1.57855 -5.33747,2.96773 -6.35156,0.66992 0.97032,-0.9866 2.81177,-1.89997 4.30469,-1.88476 z m -3.46094,8.5 c 0.78817,-0.0125 1.44649,0.0806 1.80078,0.3164 2.06419,2.16367 -6.24703,3.16418 -7.69922,1.64258 0,-0.93413 3.53394,-1.92159 5.89844,-1.95898 z m -2.4707,6.90039 c 0.58175,0.0138 1.20105,0.10887 1.84765,0.29687 -1.38267,2.28413 -3.31485,3.60969 -6.56055,3.2207 0.36722,-2.10468 2.19198,-3.57739 4.7129,-3.51757 z m -3.50196,10.78125 c 0.583,0.0228 1.09573,0.2017 1.42188,0.41796 -0.8191,2.7647 -3.22345,2.90812 -4.38867,1.29493 0.82835,-1.35827 1.99513,-1.75087 2.96679,-1.71289 z m -93.83984,10.81836 c 1.26456,1.12414 2.14678,4.75268 2.9043,6.83789 -0.75199,5.3779 -6.35476,-4.39416 -2.9043,-6.83789 z m 106.47266,17.74218 c 9.70629,0.3955 6.49232,16.00438 -0.625,18.22852 -2.70552,-2.08403 8.27143,-11.97397 0.625,-18.22852 z m -64.89649,13.19922 c 7.81414,4.7613 -3.44971,18.17458 -9.40625,14.22656 5.28114,-3.91518 9.88397,-3.20712 9.40625,-14.22656 z m -95.3125,57.16016 c 2.7563,0.95983 6.02635,4.81404 8.23047,6.89648 -1.66204,3.64575 -12.50573,-5.07047 -8.23047,-6.89648 z m -5.55078,8.79883 c 0.7721,-0.13166 0.70051,1.1113 -0.7168,4.16601 -0.68648,4.90894 -7.21861,0.60066 -1.47656,-2.53906 0.96341,-0.97467 1.7301,-1.54796 2.19336,-1.62695 z m 105.32031,8.38671 c 2.01859,0.15017 7.2168,2.73173 7.2168,3.79883 -1.76744,2.81039 -9.84024,-0.20258 -7.86328,-3.70312 0.13414,-0.0893 0.35811,-0.11716 0.64648,-0.0957 z m -9.3125,12.29688 c 1.1295,3.44602 1.70742,9.44387 -2.18164,6.91797 -2.2345,-1.93458 -0.26383,-4.33827 2.18164,-6.91797 z"/>
<path fill="url(#gradwing)" d="m 527.3531,266.10838 c -4.25943,-9.97682 -9.25017,-20.17974 -13.76571,-28.07206 -9.03104,-15.78463 -15.95972,-24.36263 -30.67431,-41.29504 -14.73091,-16.89765 -35.50626,-32.5897 -58.34283,-46.43902 -22.86561,-13.80994 -43.29902,-19.26243 -51.56045,-20.3146 -8.25112,-0.98374 -11.18653,0.0784 -11.18653,0.0784 0,0 -1.10755,3.72048 0.067,6.68736 1.21282,2.95307 3.60829,5.98338 3.961,10.22914 0.34804,4.23299 0.42393,7.55412 -3.99525,18.4772 -4.48762,10.93342 -10.36293,16.59552 -16.25084,22.10338 -5.90524,5.4997 -14.00793,10.35117 -22.09092,14.4594 -8.08871,4.05253 -14.39943,4.24306 -17.60921,4.30751 -3.50954,-1.4246 -5.54198,-0.22707 -7.54275,-4.17285 -2.77021,-5.35087 -27.62638,6.01272 -5.68574,33.07059 21.4965,26.51016 26.00646,20.86803 34.87971,12.55061 0.81268,-8.48539 1.11988,-6.0006 6.665,-10.50048 3.29518,-1.26447 11.59841,-3.12854 18.66282,-1.87422 7.11901,1.20578 13.49089,4.09631 17.33407,6.8193 3.77821,2.7032 7.25315,5.80479 8.52721,7.45114 1.27055,1.67645 1.94141,2.73271 1.94141,2.73271 0,0 1.08691,-8.24515 3.90044,-11.39933 2.81461,-3.11128 5.04917,-3.8765 8.21735,-4.73416 3.16926,-0.81476 10.32974,-0.1725 14.20789,2.40794 3.89795,2.51553 7.93887,6.26393 11.40177,11.08751 3.4618,4.78064 5.50737,9.0778 7.05624,12.91963 1.56163,3.83721 3.66333,10.00487 4.0315,11.82018 l 1.14522,5.35906 c 0,0 0.76877,-7.24957 4.94533,-12.18154 4.21483,-4.9458 7.17202,-8.02206 11.0747,-9.20324 3.88886,-1.21945 8.52243,-1.17844 10.08668,-0.44541 1.58976,0.72385 5.24947,2.14202 9.30874,7.45702 4.08485,5.30577 5.6545,8.44725 6.68752,10.74371 1.06883,2.35563 5.24544,12.62221 6.23883,17.92072 1.05833,5.31832 1.47815,14.7359 1.77752,18.23598 0.2866,3.50469 -0.14436,10.53103 -0.26213,11.64171 -0.0503,1.05743 -0.0273,1.12126 -0.0273,1.12126 0,0 1.91281,-6.63884 7.61702,-8.60423 11.72783,-4.04084 23.28684,-3.48026 30.83733,19.55328 7.55049,23.03354 10.92457,45.7184 -7.04285,110.94816 9.21119,-11.77175 18.20124,-26.72456 22.8485,-40.58874 15.71816,-46.89201 12.29375,-94.39114 -7.45228,-140.3476"/>
<path fill="#fd0" d="m 284.08901,210.49968 c 0,0 0.52059,-2.82969 3.74447,-5.20864 3.20409,-2.31405 7.21376,-3.67823 7.96031,-3.52977 0.77673,0.1516 2.23546,0.11488 2.50969,-0.24415 0.309,-0.34275 0.57015,-1.21664 -1.15752,-1.28434 -1.78795,-0.0746 -6.69267,1.20918 -9.06451,2.99114 -2.36482,1.72166 -3.45602,3.21345 -4.23357,5.05362 -0.74386,1.81353 -0.34508,2.63633 -0.34508,2.63633 z m 26.35914,43.65019 c 0,0 0.52564,-0.94073 1.28384,-0.83981 0.75817,0.10104 4.41978,1.76382 7.27453,0.39893 2.89409,-1.33586 6.22096,-3.54997 7.33353,-6.05982 1.09626,-2.4751 0.99082,-3.24522 1.35607,-3.23306 0.378,0.008 0.93408,1.78377 0.40251,2.82772 -0.53976,1.06127 -1.18969,2.85527 -3.13279,4.10683 -1.90483,1.2377 -4.9192,3.07892 -6.31468,3.41065 -1.38625,0.35725 -3.53074,0.61359 -4.41655,0.55882 -0.89044,-0.0674 -3.78186,-1.1575 -3.78186,-1.1575 m 63.324,-106.49725 c 0.0984,-3.5574 0.66879,-4.93292 0.66879,-4.93292 0,0 2.40247,0.0978 4.6199,1.35944 2.1965,1.2837 3.29271,3.19642 6.43899,8.06238 3.19269,4.83471 7.6476,12.20048 10.83415,17.97561 3.13551,5.7936 11.31902,23.70353 13.52259,29.99311 2.19895,6.27678 6.30093,16.81574 7.16565,19.92364 0.83455,3.10435 2.00371,8.729 2.00371,8.729 0,0 -4.09607,-11.32052 -5.17827,-14.03215 -1.12049,-2.69781 -7.55911,-19.6947 -9.8864,-24.77037 -2.25774,-5.04311 -7.59985,-17.41388 -10.4278,-21.91871 -2.84535,-4.51294 -8.71033,-13.30261 -11.63428,-16.517 -2.94244,-3.26542 -4.67375,-4.65966 -4.67375,-4.65966 0,0 -1.08198,-0.6766 -1.23512,-0.62117 -0.17871,0.0648 -0.34595,0.24062 -0.34595,0.24062 l 0.72657,6.11676 c -0.008,0.37799 2.22354,22.10153 2.5695,26.92708 0.39702,4.80707 1.05329,25.88802 0.6583,32.13632 -0.41475,6.31321 -1.10384,12.30711 -1.10384,12.30711 l -0.34634,-0.95723 c 0,0 0.27181,-36.58642 -0.34956,-41.77419 -1.05921,-8.39235 -4.20833,-26.70939 -4.00951,-33.57954 m 22.64516,13.91868 c 0,0 -3.47345,-6.92703 -5.19469,-10.2879 -1.72694,-3.41656 -2.611,-4.58333 -2.47908,-5.13624 0.0935,-0.53906 1.09532,-1.16129 1.09532,-1.16129 0,0 4.35489,1.74397 7.17525,3.75455 2.84232,2.03147 11.17089,8.25548 16.30694,13.87368 5.1453,5.64375 12.68901,13.92702 17.02487,20.32553 4.27204,6.42157 17.13269,25.41043 19.30229,29.01321 2.07456,3.57943 8.86565,15.52695 11.37027,20.65394 2.52306,5.17803 3.17764,6.26907 4.10576,8.15604 0.91646,1.93447 1.68848,4.26761 1.68848,4.26761 l -0.60719,-0.24226 c 0,0 -4.11669,-8.58507 -5.66917,-10.88122 -1.49681,-2.3018 -19.44498,-32.59882 -26.26568,-41.99533 -6.84974,-9.35709 -13.28049,-16.75848 -16.89976,-20.97699 -3.65509,-4.2777 -14.83166,-14.78274 -19.10637,-18.10016 -4.30128,-3.35106 -6.38755,-4.68907 -6.38755,-4.68907 0,0 6.02983,13.75289 9.37259,19.76019 3.35549,6.00265 10.01789,20.8257 11.35709,24.52688 1.3392,3.70119 2.48318,7.66063 2.70022,8.26047 0.21244,0.58709 0.68965,3.82073 0.68965,3.82073 0,0 -5.10358,-11.43225 -6.83657,-15.42397 -1.7653,-4.08103 -12.77281,-27.52199 -12.77281,-27.52199 m 21.85745,-2.5393 c -1.58851,-3.71202 -0.77766,-3.90438 0.26404,-4.13692 1.0903,-0.17802 2.09117,-1.00201 6.89648,2.58529 4.77167,3.61391 14.33346,13.08665 14.33346,13.08665 0,0 16.69743,18.42331 18.43974,20.92497 1.72141,2.52366 10.02422,13.98192 16.19651,24.21923 6.20487,10.16777 13.73214,24.3892 17.25636,33.65053 3.52422,9.26137 7.38866,20.42031 9.24705,26.47393 1.84103,6.04547 8.82563,34.04525 8.82563,34.04525 l -1.77662,-5.70793 c 0,0 -7.82909,-24.90854 -12.82104,-38.70502 -5.01043,-13.8475 -16.5976,-38.81074 -23.67126,-49.54463 -7.03072,-10.73497 -17.25861,-24.96072 -17.25861,-24.96072 0,0 -12.74351,-15.39398 -15.82317,-18.47984 -3.04925,-3.08243 -17.73772,-14.59727 -17.73772,-14.59727 11.35892,19.02702 26.56219,37.11053 36.66909,55.8689 5.54609,10.26182 10.32654,20.80065 12.21066,26.00782 1.89333,5.2327 5.22157,15.22889 5.22157,15.22889 l -1.16074,1.45921 c 0,0 -1.69517,-5.88174 -2.36478,-7.73232 -0.6696,-1.85059 -13.67875,-30.22526 -17.99788,-37.65461 -4.30529,-7.39102 -17.69399,-27.56002 -19.69156,-29.9693 -3.02747,-3.73984 -13.79096,-18.7677 -15.24091,-22.09684 m 54.56905,43.90742 c -1.72212,-3.56263 -1.61637,-5.14528 -1.98119,-6.15354 -0.35557,-0.98272 -0.48957,-2.0312 -0.11921,-2.32397 0.2881,-0.32075 3.39751,0.73388 5.61101,3.02153 2.21345,2.28789 5.12278,5.94057 10.07811,12.89431 4.97737,6.97469 9.00801,13.52691 12.23588,19.57577 3.21159,6.08361 5.11366,9.46562 8.48591,17.30976 3.39428,7.86501 7.80051,21.75793 10.32043,30.35787 2.48627,8.62656 6.19836,22.2366 7.56988,33.28721 1.346,11.05985 2.34142,29.60765 2.34142,29.60765 l -0.84568,-0.50228 c 0,0 -4.20497,-33.16241 -5.25508,-37.81976 -1.05471,-4.67013 -7.23184,-31.47542 -12.68625,-47.58714 -5.50195,-16.12339 -9.88866,-23.3406 -13.57624,-29.06437 -3.64821,-5.69468 -9.704,-13.37612 -9.704,-13.37612 -3.63174,-4.37273 -7.2217,-8.78948 -10.8708,-13.17039 4.33614,9.11191 8.90201,18.14068 12.90855,27.45844 4.30939,9.91546 10.16573,24.10639 13.24957,33.94566 4.75558,15.1377 9.02771,29.49774 10.53127,36.28596 1.50003,6.81837 2.99225,21.4337 2.99225,21.4337 0,0 -3.82581,-17.91339 -6.33987,-27.29489 -2.50806,-9.48469 -9.9301,-34.42504 -13.1726,-42.90786 -2.34425,-6.0799 -6.84321,-16.35977 -9.19901,-21.71382 -3.72619,-8.42327 -8.71871,-15.32029 -12.57435,-23.26372 m 56.26575,91.71826 c 0,0 -0.38301,11.10811 0.2408,16.22282 0.63656,5.11009 0.91779,16.33869 1.38309,19.77873 0.47806,3.43541 0.46584,13.25465 0.46584,13.25465 0,0 0.42928,-10.30211 0.77233,-14.53981 0.39409,-4.25615 -0.14717,-16.76186 -0.83185,-20.05034 -0.74392,-3.25264 -1.79064,-7.10294 -1.33829,-10.08114 0.41407,-2.96438 1.30825,-5.95813 1.30825,-5.95813 l 2.79678,7.33066 c 0,0 0.65831,0.22358 0.66584,-0.15433 0.066,-0.41397 -1.07186,-2.64322 -1.2379,-3.93989 l -0.43075,-2.58652 c -0.0886,-0.44427 -0.58193,-2.28647 -1.22719,-2.67363 -0.64988,-0.39993 -1.51673,-0.72137 -1.94957,-0.52143 -0.41899,0.23818 -0.59111,0.56027 -0.5945,1.26879 0.014,0.71663 -0.0483,2.65882 -0.0483,2.65882 m 7.62147,45.9556 c 0,0 -0.23244,-14.20514 -0.66891,-19.7196 -0.42481,-5.56199 -1.03011,-10.62566 -1.03011,-10.62566 0,0 2.70074,10.81501 3.1729,17.22587 1.08759,14.57412 1.27045,30.03847 -1.23766,44.52799 -0.76428,4.39007 -7.9216,33.75413 -8.66272,36.0141 -0.70525,2.31919 -5.73697,16.33619 -6.8541,19.51163 -1.09049,3.20911 -1.13931,3.40367 -2.62138,6.40806 -0.78965,0.48239 -1.20432,-0.23437 -0.19664,-2.49801 2.84061,-6.31051 2.01768,-4.48646 4.53216,-10.62124 2.52155,-6.19504 4.46456,-13.19111 5.95331,-17.45367 1.47945,-4.28806 2.88075,-13.33976 4.18254,-19.55532 2.88508,-13.84646 3.8197,-29.09454 3.44689,-43.24889 M 328.05718,211.82483 c 0,0 18.33717,-9.95465 26.58009,-19.76424 8.22546,-9.81773 8.93065,-11.45851 10.4125,-14.30407 1.53287,-2.86401 2.17481,-5.83833 2.97842,-6.12942 0.82944,-0.30013 2.6286,-0.63358 3.13103,-0.12256 0.50451,0.59687 2.18875,4.69281 2.34422,6.07992 0.14382,1.43461 1.01006,3.58933 1.01006,3.58933 l -1.81195,-1.01869 c 0,0 -1.82868,-5.05402 -2.22708,-5.35731 -0.3938,-0.29051 -0.95176,0.56087 -0.95176,0.56087 0,0 -6.00627,9.96739 -7.51785,11.81334 -1.48029,1.89234 -8.03804,10.09632 -16.09625,15.35024 -7.98973,5.24357 -12.8661,7.64307 -14.77747,8.62333 -1.92523,0.94199 -3.67566,1.32998 -3.67566,1.32998 z m 46.93842,-5.78324 -1.42217,-17.09436 0.81982,-0.008 c 0,0 1.18001,3.18144 1.35345,4.93731 0.16884,1.74309 -0.27131,7.22834 -0.17928,9.15801 0.16502,1.93213 0.0153,4.82968 0.0153,4.82968 l -0.28124,-0.25907 -0.35095,-0.96996 z m -1.26005,-18.63997 -0.9953,-2.67094 c -0.32322,-0.89337 -0.34842,-2.55855 -0.0223,-2.73428 0.31336,-0.17114 1.1226,-0.0887 1.18725,0.0901 0.0693,0.19143 0.87303,2.25328 0.81443,2.64978 -0.0466,0.34902 -0.11681,0.47523 -0.0856,1.0411 0.043,0.51839 0.40886,1.72843 0.0249,1.82406 -0.37122,0.0911 -0.89837,-0.20894 -0.89837,-0.20894"/>
<path fill="#c00" d="m 173.98966,137.22001 c -4.73707,-1.78635 1.31333,-13.80598 2.03278,-14.04111 -17.27035,13.40886 -40.93012,7.27574 -55.03812,17.05234 2.02749,-7.63982 16.86882,-14.12633 20.25198,-17.53289 -13.94777,1.10454 -25.00024,6.95994 -40.99985,-2.03533 0.16313,1.28214 18.38204,2.54697 19.75186,-10.30188 C 85.250989,112.4602 102.96453,72.760361 63.759902,67.63546 112.63221,51.22519 110.85705,97.612452 130.89049,92.875612 114.28215,78.291558 115.05953,69.320081 116.7912,58.544778 c 1.14694,13.775999 30.15823,40.747004 39.65169,27.318047 3.22219,-4.558336 4.3601,-12.820019 -3.58984,-18.47676 29.57767,5.714555 15.7266,40.827745 54.12721,52.341845 -17.39991,-0.25972 -33.18887,8.38566 -33.01564,17.50862 z"/>
<use id="shine" xlink:href="#shield" fill="url(#rg)" stroke="#000" stroke-width="3"/>
</svg>