<?xml version="1.0" encoding="UTF-8" standalone="no"?>
<svg
   xmlns:dc="http://purl.org/dc/elements/1.1/"
   xmlns:cc="http://creativecommons.org/ns#"
   xmlns:rdf="http://www.w3.org/1999/02/22-rdf-syntax-ns#"
   xmlns:svg="http://www.w3.org/2000/svg"
   xmlns="http://www.w3.org/2000/svg"
   xmlns:xlink="http://www.w3.org/1999/xlink"
   xmlns:sodipodi="http://sodipodi.sourceforge.net/DTD/sodipodi-0.dtd"
   xmlns:inkscape="http://www.inkscape.org/namespaces/inkscape"
   width="600"
   height="660"
   id="svg2"
   version="1.1"
   inkscape:version="0.48.2 r9819"
   sodipodi:docname="House_Blacktyde.svg">
  <metadata
     id="metadata28">
    <rdf:RDF>
      <cc:Work
         rdf:about="">
        <dc:format>image/svg+xml</dc:format>
        <dc:type
           rdf:resource="http://purl.org/dc/dcmitype/StillImage" />
      </cc:Work>
    </rdf:RDF>
  </metadata>
  <sodipodi:namedview
     pagecolor="#ffffff"
     bordercolor="#666666"
     borderopacity="1"
     objecttolerance="10"
     gridtolerance="10"
     guidetolerance="10"
     inkscape:pageopacity="0"
     inkscape:pageshadow="2"
     inkscape:window-width="1366"
     inkscape:window-height="715"
     id="namedview26"
     showgrid="false"
     inkscape:zoom="0.50568849"
     inkscape:cx="207.71547"
     inkscape:cy="341.90653"
     inkscape:window-x="-8"
     inkscape:window-y="-8"
     inkscape:window-maximized="1"
     inkscape:current-layer="svg2" />
  <defs
     id="defs4">
    <pattern
       inkscape:collect="always"
       xlink:href="#vair"
       id="pattern3006"
       patternTransform="translate(141.22881,-141.22881)" />
    <radialGradient
       id="rg"
       gradientUnits="userSpaceOnUse"
       cx="220"
       cy="220"
       r="405">
      <stop
         style="stop-color:#fff;stop-opacity:.3"
         offset="0"
         id="stop7" />
      <stop
         style="stop-color:#fff;stop-opacity:.2"
         offset=".2"
         id="stop9" />
      <stop
         style="stop-color:#666;stop-opacity:.1"
         offset=".6"
         id="stop11" />
      <stop
         style="stop-color:#000;stop-opacity:.13"
         offset="1"
         id="stop13" />
    </radialGradient>
    <clipPath
       id="clip-shield">
      <path
         id="shield"
         d="m2,2v257c0,286 298,398 298,398c0,0 298-112 298-398V2z" />
    </clipPath>
    <pattern
       id="vair"
       patternUnits="userSpaceOnUse"
       width="120"
       height="220">
      <path
         fill="#000"
         d="M60,0 l30,30 v50 l30,30 v110 h-60 l30,-30 v-50 l30,-30 H0 l30,30 v50 l30,30 H0 v-110 l30,-30 v-50z"
         id="path18" />
    </pattern>
    <radialGradient
       inkscape:collect="always"
       xlink:href="#rg"
       id="radialGradient4571"
       gradientUnits="userSpaceOnUse"
       cx="220"
       cy="220"
       r="405" />
    <radialGradient
       id="rg-1"
       gradientUnits="userSpaceOnUse"
       cx="220"
       cy="220"
       r="405">
      <stop
         style="stop-color:#fff;stop-opacity:.3"
         offset="0"
         id="stop7-7" />
      <stop
         style="stop-color:#fff;stop-opacity:.2"
         offset=".2"
         id="stop9-4" />
      <stop
         style="stop-color:#666;stop-opacity:.1"
         offset=".6"
         id="stop11-0" />
      <stop
         style="stop-color:#000;stop-opacity:.13"
         offset="1"
         id="stop13-9" />
    </radialGradient>
    <radialGradient
       id="radialGradient4600"
       gradientUnits="userSpaceOnUse"
       cx="220"
       cy="220"
       r="405">
      <stop
         style="stop-color:#fff;stop-opacity:.3"
         offset="0"
         id="stop4602" />
      <stop
         style="stop-color:#fff;stop-opacity:.2"
         offset=".2"
         id="stop4604" />
      <stop
         style="stop-color:#666;stop-opacity:.1"
         offset=".6"
         id="stop4606" />
      <stop
         style="stop-color:#000;stop-opacity:.13"
         offset="1"
         id="stop4608" />
    </radialGradient>
  </defs>
  <path
     inkscape:connector-curvature="0"
     style="fill:#008800"
     d="m 2,2 0,257 c 0,286 298,398 298,398 0,0 298,-112 298,-398 L 598,2 2,2 z"
     id="rect21" />
  <path
     inkscape:connector-curvature="0"
     style="fill:#000000;fill-opacity:1"
     d="m 58,2 -28,28 0,50 -28,28 0,2 118,0 L 90,80 90,30 62,2 58,2 z m 62,108 120,0 -30,-30 0,-50 -28,-28 -4,0 -28,28 0,50 -30,30 z m 0,0 -30,30 0,50 -30,30 60,0 60,0 -30,-30 0,-50 -30,-30 z m 60,110 60,0 60,0 -30,-30 0,-50 -30,-30 -30,30 0,50 -30,30 z m 0,0 -30,30 0,50 -30,30 120,0 -30,-30 0,-50 -30,-30 z m 60,110 120,0 -30,-30 0,-50 -30,-30 -30,30 0,50 -30,30 z m 0,0 -30,30 0,50 -30,30 60,0 60,0 -30,-30 0,-50 -30,-30 z m 60,110 60,0 60,0 -30,-30 0,-50 -30,-30 -30,30 0,50 -30,30 z m 0,0 -30,30 0,50 -30,30 120,0 -30,-30 0,-50 -30,-30 z m 60,110 106.03125,0 c 2.39023,-2.23495 4.78037,-4.50159 7.15625,-6.8125 L 450,520 l 0,-50 -30,-30 -30,30 0,50 -30,30 z m 0,0 -30,30 0,50 -25,25 c 12.01066,-4.98356 45.04761,-19.69928 85,-45.71875 L 390,580 360,550 z m 60,-110 60,0 60,0 -30,-30 0,-50 -30,-30 -30,30 0,50 -30,30 z m 60,-110 -30,-30 0,-50 -30,-30 -30,30 0,50 -30,30 120,0 z m 0,0 111.5625,0 c 0.44273,-2.38574 0.85045,-4.77244 1.25,-7.1875 L 570,300 l 0,-50 -30,-30 -30,30 0,50 -30,30 z m 60,-110 -30,-30 0,-50 -30,-30 -30,30 0,50 -30,30 60,0 60,0 z m 0,0 58,0 0,-108 -28,28 0,50 -30,30 z m -120,0 -30,-30 0,-50 -30,-30 -30,30 0,50 -30,30 60,0 60,0 z M 360,110 330,80 330,30 302,2 l -4,0 -28,28 0,50 -30,30 120,0 z m 0,0 120,0 -30,-30 0,-50 -28,-28 -4,0 -28,28 0,50 -30,30 z m 120,0 118,0 0,-2 -28,-28 0,-50 -28,-28 -4,0 -28,28 0,50 -30,30 z m 60,330 12.4375,0 c 4.35197,-8.00262 8.46148,-16.25442 12.3125,-24.75 L 540,440 z m 0,0 -30,30 0,33.03125 c 13.68166,-16.82311 26.53649,-35.16499 37.96875,-55.0625 L 540,440 z m -300,110 -30,30 0,29.28125 c 39.95239,26.01947 72.98934,40.73519 85,45.71875 l -25,-25 0,-50 -30,-30 z m 0,0 -30,-30 0,-50 -30,-30 -30,30 0,50 -23.1875,23.1875 c 2.37588,2.31091 4.76602,4.57755 7.15625,6.8125 L 240,550 z m -60,-110 -30,-30 0,-50 -30,-30 -30,30 0,50 -30,30 60,0 60,0 z m -120,0 -7.96875,7.96875 C 63.463508,467.86626 76.318336,486.20814 90,503.03125 L 90,470 60,440 z m 0,0 -24.75,-24.75 c 3.851022,8.49558 7.960526,16.74738 12.3125,24.75 L 60,440 z m 60,-110 -30,-30 0,-50 -30,-30 -30,30 0,50 -22.8125,22.8125 c 0.3995529,2.41506 0.8072707,4.80176 1.25,7.1875 L 120,330 z M 60,220 30,190 30,140 2,112 2,220 60,220 z M 10.53125,340.53125 C 15.306954,362.68207 21.941931,383.53558 30,403.125 L 30,360 10.53125,340.53125 z m 578.9375,0 L 570,360 l 0,43.125 c 8.05807,-19.58942 14.69305,-40.44293 19.46875,-62.59375 z"
     id="path4493" />
  <use
     height="1052.3622"
     width="744.09448"
     y="0"
     x="0"
     style="fill:url(#rg-1);stroke:#000000;stroke-width:3"
     id="shine"
     xlink:href="#shield" />
</svg>
