<?xml version="1.0" encoding="UTF-8"?>
<svg xmlns="http://www.w3.org/2000/svg" xmlns:xlink="http://www.w3.org/1999/xlink" width="600" height="660">
<defs>
  <radialGradient id="rg" gradientUnits="userSpaceOnUse" cx="220" cy="220" r="405">
    <stop style="stop-color:#fff;stop-opacity:.3" offset="0"/>
    <stop style="stop-color:#fff;stop-opacity:.2" offset=".2"/>
    <stop style="stop-color:#666;stop-opacity:.1" offset=".6"/>
    <stop style="stop-color:#000;stop-opacity:.13" offset="1"/>
  </radialGradient>
  <clipPath id="clip-shield">
    <path id="shield" d="m2,2v257c0,286 298,398 298,398c0,0 298-112 298-398V2z"/>
  </clipPath>
</defs>
<use id="background" xlink:href="#shield" fill="#000"/>
<path fill="#fff" fill-rule="evenodd" d="m 521.94,342.32 c 0,0 -1.24,-10.4 -1.97,-14.4 -0.73,-4.05 -1.55,-7.7 -1.55,-7.7 0,0 2.8,7.7 3.6,12.38 1.9,10.6 3.2,21.92 2.45,32.73 -0.23,3.27 -3.27,25.33 -3.64,27.04 -0.35,1.76 -2.98,12.4 -3.56,14.82 -0.56,2.42 -3.65,11.82 -4.5,14.13 -0.82,2.33 -7.06,16.92 -11.1,23.28 -4.04,6.37 -5.64,9.8 -9.57,14.78 -3.9,5 -8.93,12.05 -12.28,15.5 -3.35,3.5 -8.5,9.62 -14.06,14.44 -5.54,4.76 -8.4,7.36 -12.65,10.54 -4.2,3.16 -6.52,4.6 -6.52,4.6 0,0 17.42,-14.78 22.83,-20.5 5.45,-5.68 15.82,-17.38 19.78,-22.98 3.96,-5.6 11.26,-16.08 13.45,-20.58 2.15,-4.52 8.24,-16.07 9.8,-20.9 1.6,-4.83 4.2,-12.67 5.6,-17.36 1.37,-4.73 2.27,-10 3.04,-13.24 0.76,-3.25 1.1,-10 1.6,-14.65 1.07,-10.36 0.6,-21.6 -0.72,-31.95 m -287.2,-87.56 c 0,0 3.97,6.1 5.5,7.8 1.5,1.7 2.6,2.66 2.6,2.66 0,0 2.35,0.03 4.5,-0.73 2.18,-0.75 2.6,-1.83 2.6,-1.83 0,0 -2.5,0.7 -4.13,-0.65 -1.65,-1.35 -5.7,-5.93 -7.45,-6.55 -1.72,-0.58 -3.62,-0.7 -3.62,-0.7 m -5.5,-22.3 c 0,0 0.55,6.74 0.76,8.03 0.24,1.28 1.56,4.45 3.1,5.35 1.5,0.92 7.04,1.4 7.04,1.4 0,0 -2.93,-1.46 -3.6,-4.02 -0.7,-2.55 -1.4,-7.67 -3.08,-9.08 -1.65,-1.42 -2.9,-1.63 -2.9,-1.63 z m 8.4,-2.4 c 0,0 -4.23,-1.38 -6,-3.66 -1.8,-2.27 -1.47,-4.6 -1.43,-6.58 0.06,-2 1.42,-7.35 1.42,-7.35 0,0 2.2,1.88 2.72,3.52 0.5,1.65 0.2,7.77 1.16,9.9 0.95,2.1 2.14,4.15 2.14,4.15 m 2.85,-18.7 c 0,0 -3.93,-2.18 -4.76,-4.6 -0.8,-2.4 -0.23,-4 1.03,-6.5 1.3,-2.53 3.26,-5.93 3.26,-5.93 l 1.4,0.7 c 0,0 1,6.33 0.33,8.2 -0.66,1.9 -1.4,4.58 -1.4,5.52 0,0.93 0.14,2.6 0.14,2.6 m 8.62,-16.2 c 0,0 -3.23,-5.65 -3.14,-8.6 0.1,-2.95 1.06,-4.47 2.52,-6.56 1.42,-2.08 1.94,-2.78 1.94,-2.78 0,0 2.14,2.74 2.03,5.4 -0.08,2.7 -2.22,6.76 -2.45,8.64 -0.2,1.9 -0.9,3.88 -0.9,3.88 M 259.94,177 c 0,0 -3.17,-5.37 -3.13,-7.97 0.04,-2.6 0.3,-3.43 1.84,-5.76 1.52,-2.33 2.74,-4 2.74,-4 0,0 1.97,3.06 1.98,4.97 -0.02,1.9 -1.27,5.27 -2.03,8.04 -0.77,2.75 -1.4,4.72 -1.4,4.72 m 8.36,-15.1 c 0,0 -3.37,-4.9 -3.46,-8 -0.07,-3.08 0.88,-4.87 2.4,-6.8 1.52,-1.93 2.26,-3.12 2.26,-3.12 0,0 2.1,1.6 1.67,5.3 -0.53,4.66 -2.68,8.03 -2.9,12.62 m 7.87,-19.35 c 0,0 -1.2,-0.73 -2.45,-3.43 l -1.35,-2.94 c 0,0 1.54,-3.55 2.55,-6.9 0.94,-3.35 1.24,-4.67 1.24,-4.67 0,0 2.3,2.77 2.35,5.8 0,3.06 -2,7.7 -2.03,9.27 -0.05,1.58 -0.03,2 0.13,2.34 0.13,0.3 -0.45,0.55 -0.45,0.55 m -3.82,-42.9 c 0,0 3.2,7 3.48,10.25 0.3,3.25 0.3,5.44 2.12,6.27 1.8,0.8 3.5,1.75 3.5,1.75 l 0.35,-0.67 c 0,0 -2.2,-2.8 -2.36,-5.74 -0.23,-4.32 0.15,-12.6 -7.07,-11.86 m -10.1,-15.05 c 0,0 2.56,2.3 4.1,4.67 1.5,2.4 2.26,4.3 3.6,4.42 1.4,0.1 3.4,0.07 4.4,-0.32 1,-0.4 1.6,-0.77 1.6,-0.77 0,0 -0.86,0 -2.88,-2 -2,-2 -5.16,-5.4 -7.45,-6 -2.26,-0.6 -3.28,-0.46 -3.36,-0.42 -0.08,0.07 0,0.4 0,0.4 M 242.76,74.06 c 0,0 6.44,1.7 8.65,2.93 2.2,1.2 2.97,2.1 4.28,1.8 1.3,-0.3 5.97,-2.85 5.97,-2.85 0,0 -2.06,0.26 -3.42,0 -1.36,-0.23 -4.44,-2.3 -5.95,-3.03 -1.5,-0.73 -3.42,-1.3 -6,-0.5 -2.62,0.8 -3.5,1.64 -3.5,1.64 m -2.3,23.74 c 0,0 2.3,3.88 2.46,5.5 l 0.3,2.97 c 0,0 3.92,-0.26 5.72,0.94 1.8,1.16 3.76,4.5 3.62,6.02 -0.12,1.54 -0.62,3.27 -1.23,3.8 -0.6,0.57 -0.72,0.8 -0.72,0.8 0,0 1.48,1.02 2.4,3.1 0.9,2.1 1.22,6.28 0.65,7.78 -0.58,1.5 -2.36,3.4 -3.95,4.32 -1.6,0.92 -3.28,1.42 -3.28,1.42 0,0 -0.1,0.7 0.48,2.12 0.6,1.37 0.4,4.36 -0.13,6.17 -0.5,1.8 -2.13,4.1 -3.18,4.68 -1.06,0.63 -3.08,1.7 -4.42,1.76 -1.35,0.06 -2.58,-0.06 -2.58,-0.06 0,0 1.03,2 1.2,3.33 0.16,1.3 0.42,2.5 -0.8,5.05 -1.2,2.57 -2.82,4.57 -3.97,5.44 -1.15,0.9 -3.94,2.34 -4.46,2.4 -0.54,0.07 -1.55,0.1 -1.77,0.2 -0.18,0.1 -0.38,0.55 -0.25,0.88 0.14,0.35 0.9,1.9 0.87,2.8 -0.03,0.92 0.68,3.48 -1.62,5.85 -2.28,2.35 -5.16,3.74 -6.22,4.07 -1.05,0.3 -2.35,-0.2 -2.32,0.12 0.02,0.32 0.87,1.3 1.3,2.6 0.44,1.3 0.42,4.3 -0.17,5.92 -0.57,1.6 -2.78,3.56 -3.78,4.04 -1.02,0.5 -3.25,0.87 -3.25,0.87 1.38,3.96 1.05,9.74 -4.46,13.5 0.94,3.8 0.3,12.94 -4.2,15.3 2.44,7.5 0.34,15.3 -2.98,18.16 3.93,5.87 2.98,13.3 -2.1,18 5.87,3.07 7.97,12.6 2.45,19.24 7.74,6.72 6.87,13.25 3.5,19.22 7.37,3.87 10.64,10.1 9.8,18.87 7.1,1.58 12.26,10.1 12.9,16.38 5.3,-1.63 13.34,0.44 16.7,5.02 1.1,1.67 2.14,7.23 2.14,7.23 0,0 3.24,-1.72 7.7,-1.7 4.48,0.08 7.57,1.05 9.32,2.52 1.74,1.5 3.44,5.5 3.44,5.5 0,0 0.92,-0.27 1.16,-0.58 0.24,-0.3 0.48,-1.46 3.77,-2.88 3.27,-1.43 4.6,-1.63 6.2,-1.88 1.6,-0.26 2.8,-0.3 2.8,-0.3 l -3.44,-2.74 c 0,0 -5.98,0.48 -8.16,0.1 -2.15,-0.37 -10.98,-3.57 -14.17,-5.12 -3.13,-1.55 -14.18,-6.5 -19.53,-10.9 -6.05,-4.97 -16.45,-18.08 -20.2,-28.4 -4.17,-11.5 -7.5,-37 -8.2,-51.32 -0.7,-14.34 5.42,-31.9 6.28,-35.35 0.45,-1.8 2.5,-7.12 3.38,-10.1 0.92,-3.06 10.2,-24.64 14.02,-30.17 3.85,-5.52 16.73,-22.7 19.6,-28.14 2.86,-5.4 4.67,-7.67 5.98,-13.87 1.27,-6.25 1.97,-10.97 0.06,-15.3 -1.87,-4.38 -3.05,-8.4 -7.05,-11.18 -4,-2.8 -7.6,-4.02 -7.6,-4.02 z m -50.4,-0.46 c 0,0 4.2,-1.44 6.52,-0.7 2.27,0.8 3.02,1.9 3.43,3.68 0.46,1.74 0.05,3.33 -1.06,5.22 -1.13,1.93 -7.72,11.2 -10.05,13.72 -2.35,2.5 -12.199,14.37 -12.199,14.37 l 1.699,1.4 c 0,0 11.8,-15.22 14.32,-18.33 2.54,-3.08 6.38,-7.3 7.64,-9.3 1.27,-2.04 2.97,-5.6 1.94,-7.6 -1,-2 -1.26,-2.3 -2.64,-3.3 -1.4,-1 -4.1,-1.1 -6.04,-0.7 -1.95,0.38 -3.98,1.4 -3.98,1.4 z m -27.87,9.65 c 0,0 0.16,-2.56 1.54,-3.72 1.38,-1.14 2.1,-1.06 3.02,-0.8 0.95,0.24 2.4,1.64 2.4,1.64 0,0 7.83,-4.97 10.65,-7.1 2.87,-2.13 6,-4.48 8.9,-5.87 2.88,-1.4 4.97,-1.8 4.97,-1.8 0,0 -0.57,-1.32 -0.17,-2.65 0.38,-1.3 1.03,-3.1 4.56,-4.42 3.52,-1.32 5.57,-0.75 7.9,-0.55 2.3,0.18 3.15,1.7 5.66,1.05 2.53,-0.7 4.16,-1.47 4.8,-2.55 0.64,-1.1 0.7,-1.9 0.7,-1.9 0,0 1.25,1.4 1.33,2.9 0.1,1.53 -1.4,4.82 -2.45,6.1 -1.04,1.28 -3.56,3.3 -4.98,4 -1.4,0.66 -4.55,1 -4.55,1 l 0.04,0.75 c 0,0 2.86,2.56 3.2,4.45 0.33,1.92 -1.16,4.7 -1.16,4.7 l -0.72,-1.5 c 0,0 1.2,-2.53 0.3,-4.23 -0.87,-1.7 -2.98,-3.67 -4.65,-3.9 -1.65,-0.28 -2.44,-0.65 -2.44,-0.65 0,0 0.58,-1.16 1.1,-1.14 0.58,0.06 2.18,0.98 5.6,0.17 3.38,-0.82 6.28,-2.5 7.96,-5.23 1.66,-2.7 1.52,-4.3 1.52,-4.3 0,0 -1.53,1.1 -3.14,1.6 -1.6,0.52 -5.06,0.93 -6.24,0.6 -1.2,-0.33 -1.8,-0.65 -1.8,-0.65 0,0 -2.24,2.97 -6.4,4.98 -4.17,2 -5.55,2.03 -7.58,2.83 -2.06,0.8 -4.6,2.03 -7.63,4.2 -3.03,2.2 -7.7,5.8 -11.1,7.94 -3.42,2.13 -6.74,3.5 -8.36,3.96 -1.55,0.46 -2.77,0.1 -2.77,0.1 m 60.66,-22.64 c 0,0 0.47,0.3 0.76,-0.26 0.3,-0.52 0.5,-1.35 1.52,-1.84 1,-0.48 1.7,-0.44 2.36,0.02 0.64,0.47 0.7,2.15 1.15,2.33 0.46,0.2 1.1,-0.36 1.93,-1.02 0.86,-0.64 2.54,-1.22 3.4,-0.7 0.82,0.54 1.24,1.34 1.12,1.82 -0.15,0.5 -0.6,1.04 -0.27,1.2 0.34,0.1 1.46,-0.26 1.57,-1.03 0.1,-0.7 -0.43,-1.35 -0.75,-1.97 -0.3,-0.58 -2,-1.83 -3.04,-1.53 -1.03,0.3 -2.46,1.32 -2.84,1.38 -0.4,0.07 -0.45,-0.12 -1,-0.68 -0.6,-0.55 -2.35,-1.4 -3.3,-0.93 -0.94,0.46 -2.2,1.2 -2.5,2.02 -0.27,0.84 -0.1,1.16 -0.1,1.16 M 254.3,59 c 0,0 -1.84,0.74 -4.13,0.88 -2.26,0.12 -4.84,0.12 -8.44,0.36 -3.58,0.25 -5.38,1.48 -7.42,2.5 -2,1.02 -5.1,4.5 -10.66,8.03 -5.57,3.55 -12.13,5 -16.68,5.24 -4.6,0.25 -8.3,1.4 -10.23,2.13 -1.93,0.78 -5.37,3 -6.03,4.77 -0.66,1.8 0.3,4.02 0.3,4.02 0,0 -1.38,0.1 -3.44,0.98 -2.07,0.87 -5.34,3.44 -6.54,4.62 -1.25,1.16 -2.88,3.02 -6.38,5.08 -3.52,2 -5.07,1.1 -8.5,2.1 -3.45,0.94 -5.1,2 -6.3,4.14 -1.22,2.15 -0.4,7.05 -0.4,7.05 0,0 3.74,-0.57 8.48,-1.9 4.73,-1.3 12.14,-6.56 13.1,-7.32 1,-0.76 5.35,-4.35 8.32,-6 3,-1.7 6.12,-2.03 8.7,-1.7 2.62,0.33 4.1,2.2 5.33,4.76 1.24,2.57 0.72,4.3 -0.4,7.35 -1.1,3.05 -7.48,10.1 -10.24,13.4 -2.75,3.34 -10.66,12.77 -11.62,14.17 -0.94,1.37 -1.3,2.96 -0.7,4.53 0.58,1.57 3.2,2.37 3.93,2.62 0.77,0.25 1.4,0.1 1.53,-0.23 0.12,-0.37 -0.26,-0.78 -0.46,-0.97 -0.2,-0.2 -0.76,-1.06 -1.26,-2.4 -0.45,-1.38 0.43,-3.47 0.43,-3.47 0,0 0.2,0 0.73,0.17 0.53,0.17 1,0.8 1.85,1.36 0.9,0.56 1.53,0.5 2.84,0.54 1.34,0.03 3.25,-0.84 3.37,-1.06 0.1,-0.17 -0.18,-0.6 -0.65,-0.65 -0.5,-0.08 -1.47,-1.1 -2.47,-2.95 -1.05,-1.82 -0.54,-3.3 0.37,-4.3 0.9,-1 3.23,-2.32 5.78,-2.5 2.55,-0.2 7.7,0.88 11.45,0.13 3.75,-0.74 6.22,-2 7.5,-3.32 1.27,-1.33 2.75,-3.33 2.75,-3.33 0,0 -1.83,0.7 -4.25,1.16 -2.4,0.42 -4.4,-0.53 -6.63,-0.76 -2.2,-0.23 -4.6,0.1 -5.57,0.57 -0.93,0.46 -1.67,0.82 -2.04,0.66 -0.36,-0.17 -0.4,-1.44 1.6,-3.38 2,-1.9 5.97,-3.24 7.17,-3.33 1.25,-0.08 9.4,-0.53 11,-0.93 1.63,-0.38 3.68,-1.93 3.68,-1.93 0,0 -0.96,0.14 -2.52,0.24 -1.55,0.1 -2.6,-0.7 -4.72,-1.63 -2.12,-0.92 -3.9,-1.16 -5.6,-1.13 -1.68,0.04 -2.97,1.28 -2.97,1.28 0,0 -0.58,-1.02 -0.3,-1.53 0.37,-0.5 2.02,-1.96 5.34,-3.23 3.35,-1.3 10.33,0.27 12.38,0.26 2.1,0 2.77,0.27 4.32,-0.2 1.55,-0.45 3.64,-1.42 3.64,-1.42 0,0 -2.63,-0.72 -5.17,-1.57 -2.5,-0.85 -2.74,-1.16 -5.45,-3.63 -2.74,-2.45 -3.57,-5.6 -3.9,-6.4 -0.27,-0.78 0.1,-1.48 0.47,-1.65 0.36,-0.2 2.2,4.55 2.2,4.55 0,0 4.72,-0.57 8.3,-0.56 3.6,0 5.57,0.37 10.63,2.35 5,1.97 8.6,4.1 10.92,6.7 2.35,2.57 4.64,6.44 5.67,9.45 1.05,3.05 1.4,4.72 1.57,11.16 0.15,6.46 -4.68,15.44 -9.82,23.25 -5.15,7.78 -13.97,20.07 -19.65,29.38 -5.67,9.3 -10.96,23.95 -12.34,28.38 -1.33,4.25 -9.03,26.85 -8.76,39.17 0.3,13.96 2.46,50.92 19.37,72.88 5.45,7.08 15.64,13.44 22,16.3 5.62,2.4 14.1,6.48 18.62,7.27 4.53,0.82 5.14,0.95 8.2,0.53 3.07,-0.38 3.77,-1.33 4.22,-1.42 0.44,-0.1 1.68,0.16 1.3,0.66 -0.35,0.53 -3,1.88 -3,1.88 0,0 3.42,3.56 6.53,4 3.1,0.44 5.95,0.36 8.48,-1.3 2.56,-1.68 2.96,-1.76 2.96,-1.76 l 0.17,1.05 -2.8,2.14 c 0,0 4.43,3.13 8.3,2.6 3.86,-0.52 5.03,-1.22 6.48,-2.22 1.44,-0.98 1.92,-0.98 1.92,-0.98 l 0.25,0.85 c 0,0 -1.12,0.55 -1.7,1 -0.6,0.43 -0.65,0.82 -0.65,0.82 0,0 3.25,2.37 5.36,2.4 2.1,0.07 4.9,0.6 7.83,-1.54 2.92,-2.15 3.3,-2.75 3.3,-2.75 l 0.94,0.5 -2.15,1.98 c 0,0 0.78,0.05 1.36,0.42 0.6,0.37 1,1.16 4.02,1.2 3.05,0 4.37,-0.2 6.52,-1.3 2.17,-1.12 2.5,-1.16 2.5,-1.16 0,0 -1.35,-5.12 -1.95,-9.22 -0.56,-4.06 -0.5,-6.8 -0.5,-6.8 0,0 0,-0.17 -0.38,-0.2 -0.4,-0.04 -0.9,0.1 -0.7,0.07 0.14,0 -2.3,-4 -2.7,-5.05 -0.44,-1.08 -2,-5.1 -1.98,-7.24 0,-2.12 0.45,-3.02 0.64,-3.74 0.15,-0.76 0.28,-2.76 0.28,-2.76 0,0 0.57,0.44 0.6,0.57 0.04,0.16 0.04,1.96 -0.1,2.4 -0.1,0.46 -0.47,5.18 -0.16,6.3 0.3,1.16 1.62,4.97 2.3,5.67 0.7,0.7 1.06,1.37 1.2,1.64 0.1,0.26 0.64,0.75 0.64,0.75 l 0.25,-0.65 c 0,0 0.5,-2.02 0.72,-4.3 0.23,-2.3 0.04,-3.96 0.6,-5.52 0.6,-1.54 1.1,-2.32 1.1,-2.32 l 0.6,-0.13 c 0,0 -0.52,3.6 -1.04,5.47 -0.5,1.85 -1.26,5.5 -1.18,6.75 0.04,1.24 0.45,8.53 1.2,11.8 0.74,3.32 1.8,7.5 1.8,7.5 0,0 3.25,12.8 6.26,17.2 3.03,4.44 4.42,9.47 8.06,13.07 3.63,3.6 6.28,7.02 8.57,9.05 2.27,2.04 8.17,6 11.15,6.8 2.93,0.76 5.4,1.96 7.46,2.17 2.06,0.2 4.12,0.72 4.12,0.72 l -0.6,0.8 c 0,0 -1.88,-0.32 -3.43,-0.53 -1.55,-0.2 -3.03,-0.8 -3.03,-0.8 0,0 -0.08,4.8 0.45,5.96 0.54,1.18 1.03,3.02 1.78,3.56 0.7,0.54 1.4,1.16 1.1,1.5 -0.3,0.37 -0.9,0.1 -1.2,-0.23 -0.3,-0.3 -0.53,-0.3 -0.7,-0.53 -0.2,-0.24 -0.3,-0.7 -0.6,-0.87 -0.28,-0.22 -0.5,-0.18 -0.77,0 -0.26,0.14 -0.97,1.2 -0.97,1.2 0,0 -3.22,5.9 -6.55,8.54 -3.33,2.67 -12.44,9.54 -14.98,11.16 -2.55,1.62 -8.1,5.7 -14.9,9.05 -6.84,3.36 -15.95,5.82 -20.87,6.73 -4.9,0.88 -15.38,-0.83 -20,-2.6 -4.56,-1.8 -15.86,-8.17 -18.6,-10.03 -2.7,-1.84 -4.92,-4.05 -5.38,-4.03 -0.4,0.03 -0.74,0.07 -1,0.4 -0.27,0.27 -2.62,3.53 -2.96,5.9 -0.3,2.33 -0.2,3.7 -0.2,3.7 0,0 -0.77,1.8 -0.53,2.45 0.22,0.6 0.7,0.92 0.7,0.92 0,0 3.04,1.32 4.68,1.88 1.6,0.57 13.67,2.77 16.28,3.2 2.6,0.4 3.85,0.93 5.72,0.8 1.86,-0.14 2.74,-0.3 3,-0.08 0.28,0.22 0.23,0.77 -0.38,1 -0.6,0.25 -2.75,0.35 -3.9,0.17 -1.15,-0.16 -13.2,-2.06 -14.6,-2.35 -1.38,-0.34 -11.03,-3.36 -12.36,-3.78 -1.35,-0.46 -5.93,-2.33 -5.93,-2.33 0,0 -1.4,5.88 -0.34,10.14 1.1,4.27 2.73,8.67 2.73,8.67 0,0 10.7,-3.24 13.32,-3.64 2.62,-0.37 3.64,-0.04 4.3,-0.16 0.68,-0.14 4.44,-0.43 5.46,-0.52 1.02,-0.1 4.46,-0.45 5.67,-0.78 1.23,-0.34 1.88,-0.35 2.03,-0.17 0.14,0.18 0.28,0.92 -0.33,1.05 -0.6,0.14 -3.78,0.6 -5.2,0.66 -1.43,0.12 -1.73,0.5 -2.66,0.5 -0.88,-0.03 -6.4,-0.27 -11.37,0.96 -5,1.27 -8.2,2.34 -10.12,3.13 -1.9,0.8 -4.62,1.84 -4.62,1.84 0,0 -1.12,-0.03 -0.84,0.86 0.27,0.9 5.1,8.8 5.92,9.68 0.82,0.9 1.55,2.3 1.55,2.3 l 2.6,3.3 c 0,0 3.05,-4.8 8.3,-7.98 5.23,-3.17 10.78,-5.63 17.18,-4.87 6.4,0.76 13.56,2.9 18.32,7.5 4.77,4.6 5.25,7.72 5.85,9.82 0.57,2.1 0.57,3.53 0.7,3.67 0.12,0.12 0.9,-0.03 2,-0.1 1.1,-0.12 3.87,-1.2 6.37,-2.6 2.5,-1.4 6.3,-5.93 6.3,-5.93 0,0 -8.94,-4.84 -10.15,-9.98 -1.15,-5.15 -0.57,-4.83 -0.16,-5.92 0.43,-1.06 0.7,-3.52 0.7,-3.52 0,0 -0.9,1.34 -3.16,2.26 -2.28,0.95 -3.94,1.8 -5.8,2.06 -1.87,0.28 -4,-0.23 -5.66,-2.05 -1.62,-1.8 -1.3,-2.08 -1.3,-2.08 l 0.73,-0.32 c 0,0 1.42,3.26 3.6,3.53 2.24,0.26 4.5,-0.06 7.32,-1.5 2.83,-1.43 3.8,-3.1 5.8,-3.73 2,-0.7 8.5,-1.4 9.25,-1.57 0.77,-0.15 29.9,-8.73 45.43,-18.6 15.55,-9.9 17.9,-12.3 20.95,-15.95 3.02,-3.64 3.9,-4.98 3.9,-4.98 l 0.7,0.57 -2.72,3.67 1.4,0.22 c 0,0 3.16,-2.68 4.65,-4.75 1.53,-2.13 3.1,-4.5 3.3,-5.4 0.22,-0.9 0.2,-2.1 0.58,-2.5 0.4,-0.42 1.07,-1.65 1.08,-2.14 0,-0.47 -0.35,-4.3 -1.15,-5.38 -0.8,-1.1 -7.26,-8.53 -8.68,-12.2 -1.43,-3.67 -3.13,-11.17 -1.56,-16.1 1.55,-4.93 3.27,-9.85 7.2,-14.34 3.9,-4.47 6.62,-7.37 9.72,-13.78 3.05,-6.47 5.2,-11.66 5.07,-17.05 -0.14,-5.35 -0.48,-5.87 -0.84,-6.8 -0.33,-0.95 -0.14,-1.4 0.03,-1.46 0.2,0 0.7,0.56 0.7,0.56 0,0 0.24,1 0.28,1.3 0.05,0.26 0.67,2.28 0.7,2.83 0.05,0.53 0.34,5.9 -0.3,8.8 -0.65,2.93 -1.28,5.4 -1.28,5.4 0,0 1.98,-0.4 4.13,-1.8 2.16,-1.44 3.86,-3.46 3.86,-3.46 0,0 1.63,0 1.32,0.08 -0.3,0.12 -2.6,3.25 -4.43,4.22 -1.88,0.96 -2.73,1.38 -3.8,1.63 -1.08,0.24 -2,0.22 -1.7,0.27 0.3,0.05 -2.9,6.33 -3.65,7.5 -0.74,1.14 -1.72,2.58 -1.66,2.92 0.06,0.33 0.84,0.83 1.3,1.1 0.47,0.28 2.9,1.14 4.9,1 2.02,-0.18 5.06,-1.74 5.48,-1.82 0.43,-0.03 0.83,0.5 0.5,0.98 -0.3,0.42 -2.18,1.33 -3.64,1.53 -1.46,0.24 -4.14,0.3 -5.7,-0.1 -1.6,-0.4 -3.5,-1.53 -3.5,-1.53 l -6.1,8.22 c 0,0 1.13,4.3 5.16,5.84 4.07,1.53 4.26,1.8 5.26,1.46 l 1,-0.4 c 0,0 1.13,0.72 0.6,0.98 -0.53,0.25 -1.34,0.7 -2.18,0.63 -0.87,-0.07 -3.78,-0.73 -3.78,-0.73 0,0 -0.3,0.63 -0.27,1.04 0,0.4 -0.55,4.84 3.23,9.1 3.77,4.2 3.36,4 5.1,4.57 1.7,0.52 2.54,0.57 2.53,0.9 0,0.27 0.1,0.6 -0.45,0.6 -0.58,0 -2.3,-0.42 -2.92,-0.77 -0.63,-0.38 -1,-0.55 -1,-0.55 0,0 -0.6,2.33 0.12,4.5 0.76,2.18 1.54,3.42 2.46,4.2 0.94,0.76 2.3,2.75 4,2.98 1.73,0.2 1.94,0.18 1.94,0.18 0,0 0.98,0.5 0.08,0.85 -0.88,0.32 -1.7,0.4 -2.6,0.08 -0.9,-0.4 -2.9,-1.76 -2.9,-1.76 0,0 -0.7,3.8 -0.07,6.42 0.6,2.62 1.97,6.02 3.05,6.92 1.1,0.9 1.8,1.64 3.04,1.95 1.23,0.3 2.2,1.15 2.2,1.15 0,0 0.36,0.63 -0.23,0.66 -0.57,0.03 -1.66,-0.3 -2.4,-0.77 -0.8,-0.48 -2.33,-1.27 -2.63,-1.3 -0.3,-0.03 -0.35,0.16 -0.35,0.16 0,0 -0.23,1.97 -0.28,2.68 -0.08,0.7 -0.22,5.9 1.5,7.66 1.7,1.8 2.3,2.22 2.3,2.22 0,0 0.7,0.7 0.52,0.93 -0.18,0.23 -1.63,-0.57 -2.22,-0.85 -0.57,-0.27 -1.1,-0.62 -1.1,-0.62 0,0 -1.6,2.93 -1.35,6.2 0.2,3.32 0.97,5.5 1.18,6.1 0.2,0.62 0.42,1 0.65,1.34 0.26,0.32 0.98,0.72 0.54,1 -0.5,0.25 -0.86,0.14 -1.36,-0.23 -0.5,-0.37 -0.97,-1.47 -1.2,-1.7 -0.25,-0.28 -0.16,-0.5 -0.46,-0.36 -0.32,0.15 -0.53,0.66 -0.54,0.84 -0.06,0.16 -1.06,0.9 -1.57,2.97 -0.52,2.08 -0.9,4.23 -0.76,5.65 0.16,1.4 0.8,3.47 0.95,3.9 0.17,0.48 0.53,0.88 0.4,1.03 -0.08,0.15 -0.16,0.52 -0.38,0.55 -0.23,-0.02 -1.13,-1.34 -1.34,-1.9 -0.2,-0.57 -0.16,-1.63 -0.32,-1.96 -0.15,-0.3 0,-0.7 -0.46,-0.6 -0.46,0.1 -1,0.9 -1.08,1.08 -0.1,0.2 -1.9,2.75 -2.13,4.63 -0.22,1.84 -0.1,2.6 -0.1,3.1 0.02,0.5 0.56,1.74 0.72,2.28 0.15,0.54 0.15,0.7 0.27,1.1 0.12,0.42 0.4,0.93 0.17,1.04 -0.24,0.1 -0.73,0.35 -0.86,0.06 -0.14,-0.26 -0.7,-1.32 -0.78,-1.73 -0.02,-0.37 0.05,-0.98 -0.25,-1.2 -0.34,-0.3 -0.58,-0.3 -0.95,-0.08 -0.32,0.2 -0.56,0.64 -1,1.15 -0.4,0.48 -1.12,1.36 -1.22,1.73 -0.1,0.4 -1.54,2.9 -1.48,4.23 0.07,1.33 0.14,3.16 0.1,3.37 0,0.24 0.08,1.88 0.08,1.88 0,0 -0.8,0.8 -0.94,0.26 -0.2,-0.52 0.05,-0.9 -0.17,-1.5 -0.2,-0.57 -0.45,-1.13 -0.45,-1.13 0,0 0.23,-0.74 -0.13,-0.6 -0.35,0.05 -1.03,0.7 -1.13,0.98 -0.14,0.26 -2.48,2.36 -2.92,3.2 -0.45,0.8 -0.67,1.1 -0.8,2.08 -0.16,0.96 -0.5,2.24 -0.5,2.9 0,0.64 -0.06,1.64 0.06,1.9 0.12,0.23 0.68,0.93 0.6,1.32 -0.1,0.4 -0.32,1.18 -0.53,0.86 -0.2,-0.3 -1.26,-1.84 -1.12,-2.8 0.13,-0.87 0.3,-1.73 -0.02,-1.8 -0.3,-0.1 -0.56,-0.36 -0.84,0 -0.27,0.36 -3,2.38 -3.4,2.86 -0.44,0.5 -0.95,0.9 -1.4,1.43 -0.44,0.5 -1.1,1.82 -1.23,2.42 -0.14,0.62 -0.86,2 -0.84,2.5 0,0.5 0.03,0.77 -0.1,1.12 -0.13,0.33 -0.2,1.07 -0.35,1.12 -0.14,0.02 -0.56,-0.22 -0.55,-0.62 0.02,-0.42 0.12,-0.72 0.12,-0.98 0.04,-0.27 -0.12,-0.6 -0.04,-0.8 0.08,-0.2 0.23,-0.43 0.06,-0.5 -0.14,-0.05 -0.33,-0.2 -0.9,0.17 -0.52,0.38 -2.3,1.26 -3.04,1.9 -0.75,0.63 -1.1,1.28 -1.64,1.94 -0.56,0.65 -1.65,2.08 -1.9,2.56 -0.25,0.47 -0.55,1.62 -0.55,2.2 -0.05,0.6 -0.1,0.96 -0.24,1.24 -0.12,0.28 -0.35,0.68 -0.52,0.74 -0.2,0.03 -0.46,-0.3 -0.46,-0.3 0,0 0.37,-0.84 0.3,-1.25 -0.03,-0.43 0.14,-1.1 0.14,-1.1 l -0.05,-0.4 c 0,0 -0.54,0.16 -0.9,0.33 -0.36,0.2 -3.7,1.4 -4.7,2.68 -1,1.28 -1.1,1.63 -1.18,2.02 -0.08,0.37 -0.14,0.5 -0.43,0.72 -0.22,0.22 -0.46,0.3 -0.57,0.6 -0.08,0.3 -0.15,0.75 -0.37,1.04 -0.2,0.3 -0.47,0.57 -0.55,0.8 -0.1,0.22 -0.22,0.34 -0.25,0.56 -0.03,0.17 -0.02,0.56 -0.02,0.56 0,0 -0.1,0.23 -0.12,0.44 -0.03,0.17 0.22,0.7 -0.03,0.62 -0.28,-0.04 -0.8,-0.93 -0.77,-1.2 0.04,-0.3 0.3,-1 0.43,-1.35 0.13,-0.32 0.27,-0.65 0.35,-0.74 0.07,-0.1 0.4,-0.3 -0.08,-0.34 -0.45,-0.07 -0.75,-0.22 -1.57,0.2 -0.78,0.45 -2.25,1.38 -2.92,1.86 -0.67,0.46 -0.67,0.46 -1.24,1.04 -0.58,0.55 -1.23,1.1 -1.73,1.85 -0.48,0.75 -0.9,1.2 -0.96,1.9 -0.07,0.67 -0.1,0.82 -0.16,1.1 -0.05,0.3 -0.17,0.35 -0.16,0.6 0,0.26 0.1,0.32 0,0.56 -0.06,0.2 -0.07,0.6 -0.27,0.58 -0.17,0 -0.42,-0.3 -0.5,-0.62 -0.1,-0.32 0.04,-0.52 -0.05,-0.7 -0.04,-0.18 -0.04,-0.32 -0.35,-0.4 -0.32,-0.06 -2.2,-0.4 -4.38,0.68 -2.18,1.1 -2.7,2.23 -3.28,3.32 -0.57,1.08 -1.1,2.92 -1.26,3.6 -0.1,0.7 -0.08,1.9 -0.08,1.9 0,0 -0.77,-0.33 -0.73,-0.72 0.02,-0.4 0.04,-0.83 0.08,-1.2 0.05,-0.37 0.32,-0.74 0.14,-0.94 -0.15,-0.25 -0.3,-0.78 -1.33,-0.6 -1.03,0.14 -1.64,0.45 -2.8,0.67 -1.17,0.24 -0.98,0.1 -2.28,0.8 -1.33,0.72 -2.7,1.77 -3.22,2.46 -0.52,0.7 -0.9,1.4 -1,2.14 l -0.27,2.17 -0.24,0.58 -0.4,-0.13 c 0,0 0.05,-0.57 0.02,-1.03 -0.06,-0.45 0.05,-0.64 0.1,-0.94 0,-0.33 -0.23,-0.6 -0.58,-0.67 -0.35,-0.02 -2.24,0.04 -3.04,0.2 -0.76,0.15 -1.9,0.7 -2.88,1.26 -0.96,0.6 -1.46,1.06 -1.52,1.22 -0.12,0.23 -0.42,0.24 -0.52,0.77 -0.1,0.5 -0.18,1.47 -0.37,1.84 -0.2,0.3 -0.5,0.72 -0.53,1.02 0,0.32 0.04,1.23 0.04,1.23 l 0,0.18 c -0.23,-0.04 -0.43,-0.15 -0.48,-0.18 -0.1,-0.18 -0.07,-0.67 0.02,-1.67 0.1,-0.94 -0.14,-1.18 -0.6,-1.5 -0.5,-0.25 -2.66,-0.2 -4.15,0.16 -1.5,0.35 -3.32,1.06 -4.7,2.32 -1.42,1.3 -1.92,3.73 -2.03,4.1 -0.14,0.3 -0.38,0.1 -0.7,-0.14 -0.37,-0.24 0.64,-2.56 0.52,-2.74 -0.08,-0.18 -0.73,-0.33 -1.08,-0.25 -0.37,0.1 -0.46,0.1 -0.95,0.25 -0.5,0.14 -1.36,0.24 -3.3,0.82 -1.95,0.58 -2.9,1.24 -4.16,2.17 -1.25,0.96 -2.3,3.1 -2.3,3.1 l -0.63,-0.52 c 0,0 0.28,-0.8 0.48,-1.2 0.22,-0.47 0.78,-1.28 0.7,-1.46 -0.1,-0.2 -0.58,-0.33 -1.03,-0.33 -0.44,-0.02 -2.77,-0.2 -4.4,0.1 -1.64,0.25 -4.28,1.5 -4.28,1.5 0,0 -1.76,1.58 -2.58,1.85 -0.82,0.3 -1.04,0.1 -1.18,-0.3 -0.1,-0.37 1.8,-1.84 1.8,-1.84 0,0 -2.8,-0.77 -5.6,-0.1 -2.77,0.7 -2.24,0.96 -3,1.65 -0.78,0.7 -1.77,1.36 -2.05,1.4 -0.28,0.06 -0.25,-0.55 0.08,-1.18 0.35,-0.6 1.15,-1.16 1.15,-1.16 0,0 -0.12,-0.22 -0.94,-0.45 -0.8,-0.22 -1.74,-0.12 -3.6,-0.15 -1.87,-0.07 -3.2,0.5 -3.53,0.6 -0.32,0.05 -0.9,0.57 -1.44,1 -0.5,0.44 -0.97,0.52 -1.58,0.74 -0.6,0.27 -1.42,1.43 -1.6,1.44 -0.18,0.03 -0.44,-0.5 -0.37,-0.7 0.1,-0.14 0.85,-1 1.5,-1.4 0.7,-0.48 0.13,-0.9 -0.07,-1.25 -0.2,-0.38 -0.78,-0.45 -2.93,-0.62 -2.17,-0.1 -3.83,0.35 -4.55,0.54 -0.75,0.2 -2.34,1.46 -3.18,1.87 -0.83,0.4 -2.1,1.1 -2.1,1.1 0,0 -0.3,-0.52 -0.1,-0.93 0.18,-0.42 0.92,-0.48 1.3,-0.74 0.4,-0.25 0.2,-1 -0.4,-1.3 -0.56,-0.32 -3.08,-0.86 -4.64,-0.96 -1.53,-0.12 -3.46,0.6 -4.6,1.04 -1.17,0.44 -2.62,2.12 -2.62,2.12 0,0 -0.54,-0.33 -0.55,-0.4 0,-0.1 1,-1.6 1,-1.6 0,0 -0.86,-0.7 -2.64,-1.44 -1.8,-0.75 -3.66,-1.2 -6.54,-0.9 -2.9,0.32 -5.24,1.65 -5.8,1.97 -0.52,0.3 -0.64,0.67 -0.93,0.88 -0.3,0.18 -0.33,0.05 -0.7,-0.4 -0.35,-0.48 1.48,-1.24 2.04,-1.66 0.54,-0.43 -0.03,-0.6 -0.83,-1.58 -0.83,-1 -2.26,-1.82 -4.8,-1.8 -2.54,0 -3.93,0.67 -5.24,1.1 -1.32,0.4 -2.55,0.22 -2.55,0.22 0,0 0.8,-0.74 1.02,-0.88 0.2,-0.17 -1.37,-1.45 -3.77,-2.52 -2.4,-1.02 -4.24,-0.56 -6.4,-0.3 -2.14,0.26 -4.32,1.22 -4.32,1.22 l 0,-1.07 1.56,-0.64 c 0.84,-0.32 1.24,-0.37 1.65,-0.7 0.46,-0.33 0.14,-0.64 -0.33,-1.3 -0.5,-0.68 -1.3,-1.35 -2.38,-1.66 -1.08,-0.38 -2.38,-0.77 -4.15,-1.17 -1.75,-0.4 -2.62,-0.13 -3.6,0.18 -0.93,0.34 -3.07,1.68 -3.3,1.75 -0.18,0.06 -0.38,-0.06 -0.38,-0.06 l -0.02,-0.77 1.42,-0.7 c 0.74,-0.34 0.48,-1.08 -0.13,-2.12 -0.66,-1.05 -1.46,-1.46 -2.95,-2.2 -1.48,-0.73 -4.44,-0.83 -5.95,-0.5 -1.52,0.32 -4.2,1.7 -4.2,1.7 0,0 -0.08,-0.76 0.2,-0.98 0.3,-0.2 2.5,-1.27 3.22,-1.46 0.75,-0.2 0.56,-0.1 0.82,-0.5 0.27,-0.45 -0.6,-1.6 -1.97,-2.53 -1.4,-0.94 -4.04,-1.7 -6.46,-1.65 -2.44,0.05 -4.5,0.9 -5.18,1.08 -0.72,0.14 -2.4,0 -2.4,0 l 3.98,-1.93 c 0,0 -0.84,-1.76 -1.7,-2.6 -0.86,-0.84 -1.98,-1.62 -4.6,-1.56 -2.64,0.05 -5.2,0.38 -5.98,0.5 -0.8,0.12 -0.65,-0.44 -0.65,-0.44 0,0 1.02,-0.52 2.48,-0.7 1.46,-0.2 2,-0.23 2.27,-0.65 0.27,-0.43 -0.7,-1.65 -1.32,-2.12 -0.62,-0.48 -1.86,-1.5 -3.6,-2.07 -1.76,-0.54 -3.78,-0.5 -5.1,-0.3 l -3.13,0.46 0.1,-0.76 c 0,0 0.64,0.13 1.22,-0.14 l 1.4,-0.7 c 0,0 -0.73,-1.66 -2.12,-3.12 -1.2,-1.2 -1.98,-1.33 -2.94,-1.38 -0.58,0.22 -0.85,0.76 0.45,1.7 3.16,2.33 0.84,4.68 -1.22,3.73 -9.85,-4.4 -11.24,-5.7 -16.05,-8.73 -1.88,0.13 -3.98,-1.37 -3.98,-1.37 0,0 -0.15,-0.17 -0.2,-0.18 -0.05,0 -0.32,0.37 -0.32,0.37 l 4.46,4.1 c 2.65,2.45 7.78,7.62 10.12,9.14 2.36,1.47 4.27,3 5.82,4.16 1.56,1.16 6.22,4.07 10.3,6.55 4.1,2.45 14.54,8.64 18.18,10.9 3.68,2.27 12.48,5.66 14.88,6.77 2.4,1.1 14.15,5.17 16.97,6.17 2.85,1 12.22,3.5 18.72,5.34 6.5,1.8 17.03,4.13 19.97,4.58 2.96,0.45 9.6,1.63 11.3,1.66 1.7,0 2.58,0.2 6.3,1.06 3.66,0.86 11.9,0.42 15.06,0.56 3.14,0.16 10.97,0.6 14.6,0.16 3.64,-0.42 15.95,-2.9 22.03,-4.56 6.04,-1.63 13.17,-4.7 13.17,-4.7 4.03,-1.5 14.36,-5.36 19.27,-8.08 6.23,-3.45 17.67,-11.26 21.55,-13.74 3.86,-2.48 6.07,-4.05 10.96,-7.7 4.83,-3.7 11.07,-9.55 14.1,-12.8 3.1,-3.28 3.92,-4.65 5.02,-5.57 1.1,-0.9 1.5,-0.62 3.02,-2.64 1.5,-2.05 11.5,-11.66 15.98,-18.96 4.46,-7.25 9.44,-14.04 11.57,-18.42 2.1,-4.37 5.78,-13.33 7.26,-18.1 1.48,-4.77 3.44,-11.3 4.35,-15.5 0.87,-4.2 3.07,-16.72 3.26,-24.16 0.22,-7.46 -0.4,-24.72 -2.44,-33.12 -2.04,-8.37 -5.04,-21.1 -9.9,-31.2 -4.87,-10.08 -10.3,-21.8 -10.3,-21.8 0,0 -2.02,2.72 -2.06,7.55 -0.07,4.8 -1.2,7.4 -1.2,7.4 0,0 -0.95,-9.5 -3.23,-14.45 -2.27,-4.93 -5.48,-10.96 -8.1,-14.3 -2.66,-3.38 -7.66,-6.86 -11.1,-7.86 -3.47,-0.97 -6.8,-1.36 -9.43,0.03 -2.63,1.4 -5,4.6 -5.22,6.9 -0.26,2.3 -0.36,7.55 -0.36,7.55 0,0 -3.43,-4.12 -6.7,-6.27 -3.32,-2.15 -8.57,-5.32 -14.24,-5.57 -5.68,-0.26 -10.4,-0.16 -14.33,1.73 -3.95,1.9 -7.9,4.02 -8.74,4.28 -0.88,0.26 -2.18,0.5 -2.18,0.5 0,0 7.42,-3.87 9.78,-5.05 2.32,-1.18 8.26,-3.17 13.54,-2.78 5.3,0.35 10.2,2 13.2,3.7 2.98,1.7 5.76,3.7 6.82,4.82 1.06,1.13 1.63,1.85 1.63,1.85 0,0 0.18,-6.13 2,-8.66 1.83,-2.5 3.4,-3.22 5.67,-4.08 2.26,-0.84 7.56,-0.9 10.6,0.7 3.04,1.55 6.28,4 9.2,7.27 2.88,3.24 4.7,6.24 6.13,8.94 1.43,2.7 3.43,7.06 3.84,8.36 l 1.23,3.84 c 0,0 0.02,-5.37 2.7,-9.3 2.73,-3.94 4.66,-6.42 7.44,-7.58 2.76,-1.2 6.15,-1.5 7.36,-1.1 1.22,0.42 4,1.2 7.38,4.78 3.4,3.58 4.8,5.76 5.72,7.37 0.96,1.64 4.8,8.86 5.92,12.67 1.17,3.8 2.2,10.68 2.67,13.23 0.48,2.55 0.7,7.73 0.7,8.55 0.03,0.78 0.05,0.82 0.05,0.82 0,0 1.84,-3.9 3.6,-4.67 1.76,-0.75 5.38,-1.37 8.64,1.25 3.3,2.6 5.4,5.68 7.18,11.27 1.8,5.58 3.4,17.18 -2.8,30.33 -6.24,13.4 -10.75,19.53 -10.75,19.53 0,0 5.5,-1 9.38,2.2 3.9,3.15 7,9.43 7.22,13.8 0.2,4.4 -4.3,16.96 -12.92,25.8 -8.6,8.9 -13.24,12.15 -18.17,14.9 -4.9,2.77 -7.02,3.64 -8.02,4.43 -1,0.83 -1.04,0.9 -1.04,0.9 0,0 2.5,0.8 4.75,3.65 2.28,2.86 3.9,6.94 2.97,10.52 -0.95,3.55 -3.6,10.48 -11.06,18.22 -7.46,7.68 -19.57,18.23 -27.68,23.34 -8.13,5.08 -21.5,12.54 -31.62,17.73 -10.08,5.2 -16.32,9.17 -19.97,11.86 -3.63,2.7 -5.63,4.5 -5.63,4.5 0,0 18.13,-5.1 33.93,-13.34 15.78,-8.25 35.7,-19.86 48.25,-29.92 12.5,-10.05 26.44,-22.63 36.53,-35.67 9.97,-13.1 18.59,-31.3 18.59,-31.3 0,0 6.78,-15.95 10.8,-29.86 1.08,-3.68 1.94,-7.2 2.46,-10.25 5.95,-35.96 3.1,-73.86 -14.83,-106.06 l 0.05,-0.02 c -3.87,-7 -8.3,-14.1 -12.2,-19.54 -7.8,-10.9 -13.53,-16.66 -25.58,-27.96 -12.07,-11.28 -28.47,-21.22 -46.25,-29.66 -17.8,-8.4 -33.18,-10.87 -39.32,-11.02 -6.12,-0.1 -8.2,0.9 -8.2,0.9 0,0 -0.52,2.8 0.56,4.9 1.1,2.07 3.08,4.1 3.66,7.2 0.57,3.07 0.88,5.5 -1.54,13.84 -2.47,8.35 -6.35,12.94 -10.25,17.42 -3.92,4.47 -9.5,8.64 -15.1,12.26 -5.63,3.57 -10.24,4.2 -12.6,4.48 -2.3,0.3 -5.05,0.8 -5.43,0.84 -0.36,0.06 -0.78,-1.18 -0.38,-1.37 0.4,-0.18 5.14,-0.62 7.97,-1.12 2.84,-0.47 7.05,-2.78 10.17,-4.54 3.08,-1.77 6.64,-4.5 6.64,-4.5 l -0.72,0 c -0.86,0 -3.5,-0.22 -3.5,-0.22 0,0 0.74,-1.02 1.83,-2 1.1,-0.92 1.88,-1 1.88,-1 0,0 -1.53,-0.38 -2.48,-0.66 -1,-0.3 -2.1,-0.56 -2.1,-0.56 0,0 1.92,-1.48 2.66,-2.22 0.75,-0.77 2.62,-1.36 2.62,-1.36 0,0 -0.53,-0.4 -2.12,-0.32 -1.6,0.1 -5.16,-0.1 -9.62,1.7 -4.44,1.8 -7.78,4.23 -10.6,6.1 -2.8,1.9 -8.3,3.52 -9.8,3.86 -1.52,0.34 -3.28,1.25 -3.8,1.22 -0.57,-0.02 -0.8,-0.84 -0.1,-1.3 0.7,-0.5 2.22,-1.08 3.78,-3.34 1.55,-2.26 3.34,-3.67 3.34,-3.67 0,0 -1.7,-0.15 -3.5,0.18 -1.82,0.35 -4.6,1.85 -7.54,3.4 -2.95,1.58 -8.26,6 -9.76,7.1 -1.5,1.1 -4.28,2.8 -5.2,2.78 -0.9,0 -0.78,-0.8 0.15,-1.58 0.9,-0.72 1.58,-2.35 3.13,-5.35 1.58,-3 2.96,-3.53 2.96,-3.53 0,0 -0.45,-0.23 -2.14,0.36 -1.68,0.6 -3.18,1.1 -5.58,3.27 -2.4,2.22 -5.4,5.1 -7.85,7.6 -2.45,2.5 -11.35,6.1 -12.3,6.34 -0.9,0.3 -2.94,0.35 -2.94,0.35 0,0 0.65,-1.25 1.58,-2.27 0.96,-1.02 2.53,-4.08 3.4,-5.97 0.94,-1.9 2.55,-4.05 2.1,-3.64 -0.42,0.4 -2.1,1 -3.93,1.9 -1.83,0.87 -5.57,4.5 -5.57,4.5 0,0 -6.66,6.35 -9.2,8.16 -2.56,1.8 -6.4,2.43 -8.1,2.47 -1.7,0.04 -2.96,0.84 -3.36,0.86 -0.4,0.05 -0.47,-0.95 -0.28,-1.24 0.2,-0.33 0.96,-0.55 2.3,-1.08 1.38,-0.5 2.8,-1.64 3.82,-2.73 1,-1.15 1,-2 1,-2 0,0 -0.6,0.16 -2.06,0.47 -1.45,0.26 -2.32,0.34 -4.9,0.28 -2.56,-0.1 -3.6,0.55 -5.18,1.5 -0.95,0.58 -2.38,1.66 -4.12,2.65 -2.68,-1.2 -4.75,-2.6 -6.57,-4 -2.35,-1.76 -3.25,-2.85 -6.1,-6.4 -2.8,-3.56 -4.32,-7.65 -6.47,-12.7 -2.14,-5.12 -2.47,-11.7 -3.04,-17.75 -0.58,-6.05 3,-20.14 4.1,-23.5 1.07,-3.4 8.83,-17 13.16,-23.15 4.3,-6.17 11.92,-20.23 15.42,-26.95 3.52,-6.74 8.55,-16.4 11.3,-22.76 2.7,-6.35 3.43,-10.4 3.48,-17.72 0.08,-7.33 -3.4,-14.42 -5.6,-19 -2.2,-4.55 -5.92,-10.04 -10.77,-13.97 -4.84,-3.88 -8.34,-4.7 -12.4,-6.34 -4.05,-1.62 -5.1,-2.36 -8.74,-2.6 -3.65,-0.23 -7.35,0.43 -7.54,0.5 -0.14,0.08 -0.8,1.8 -0.8,1.8 0,0 2.16,0 5.54,0.57 3.4,0.6 5.18,2.92 7.3,4.67 2.14,1.73 2.95,1.75 3.9,1.9 0.92,0.18 1.98,-0.5 3.4,-0.87 1.44,-0.37 1.25,0.1 1.3,0.65 0.02,0.53 -2.05,2.98 -4.88,4.7 -2.8,1.7 -7.2,2.7 -9.6,2.97 -2.37,0.28 -4.65,-0.7 -6.94,-1.22 -2.27,-0.57 -3.83,-0.26 -4.85,0.12 -1,0.42 -1.94,1.3 -2.37,1.47 -0.4,0.17 -0.5,-0.14 -0.5,-0.14 0,0 0.02,-0.7 0.34,-1.1 0.3,-0.4 0.7,-1.13 3.02,-1.7 2.32,-0.53 4.62,-0.02 7.7,0.7 3,0.7 6.65,0.18 10.2,-1.2 3.52,-1.37 4.56,-2.94 4.56,-2.94 l -1.06,-0.03 c -1.05,-0.05 -2,-0.4 -3.84,-1.37 -1.86,-0.95 -3.3,-3.32 -6.03,-4.53 -2.73,-1.23 -5.57,-1.3 -8.73,-0.78 -3.2,0.52 -5.4,2.32 -6.27,2.52 -0.84,0.18 -1,-0.4 0.36,-1.55 1.36,-1.14 6.1,-2.3 6.1,-2.3 0,0 -0.1,-0.5 0.18,-1.82 0.3,-1.33 2.06,-3.35 5.26,-4.9 3.22,-1.55 4.68,0.1 4.68,0.1 0,0 0.76,-2.7 1.48,-3.28 0.73,-0.58 2.17,-1.86 4.58,-2.77 2.42,-0.87 5.04,0.55 5.04,0.55 0,0 0.4,-1.23 1.15,-2.2 0.8,-0.97 4.03,-4.25 4.03,-4.25 z m 134,77.13 c -32.82,-0.18 -64.15,9.3 -94,29 -3.68,2.4 -19.68,14.48 -25.5,21.25 -5.85,6.8 -6.93,9.38 -8.17,12.33 -1.22,2.93 -1.1,5.8 -1.12,6.9 0,1.12 0.08,2.07 0.08,2.07 0,0 7.7,-1.4 15.32,1.35 7.64,2.7 12.92,6.45 15.85,11.07 2.9,4.6 5.23,10.38 5.55,15.4 0.6,10.38 -0.24,16.55 -2.94,26.37 l -0.04,0.04 c 0,0 5.9,-4.1 8.62,-7.08 2.67,-3.02 6.6,-4.94 9.58,-5.96 2.97,-0.98 4.26,-0.8 4.54,-0.54 0.3,0.2 1.18,0.37 0.27,0.87 -0.94,0.5 -1.98,0.43 -3.56,2.5 -1.57,2.1 -1.92,2.94 -2.3,3.8 -0.37,0.9 -0.47,1.5 -0.47,1.5 0,0 5.68,-3.3 7.95,-5.32 2.28,-2.03 3.64,-2.82 4.07,-3.4 0.4,-0.6 3.6,-9.3 7.66,-12.36 4.08,-3.05 6.4,-4.17 8.7,-4.58 2.27,-0.43 7.1,-0.62 7.1,-0.62 0,0 -7.76,-5.06 -9.2,-6.37 -1.4,-1.3 -5.87,-7 -5.4,-12.13 0.48,-5.18 5.16,-8.34 8.14,-9.78 2.97,-1.43 11.32,-2.62 16.13,-2.42 4.78,0.25 6.98,0.66 8.75,1.3 1.8,0.62 2.85,1.14 2.85,1.14 0,0 -4.73,-5.04 -5.6,-9.45 -0.85,-4.38 0.3,-8 3.3,-10.37 3,-2.36 9.65,-4.24 13.5,-4.08 3.87,0.18 9.06,0.58 16.8,3.82 7.74,3.26 25.16,11.63 25.16,11.63 0,0 -2.43,-5.07 -0.55,-9.53 1.92,-4.44 6.53,-6.25 9.3,-6.54 2.74,-0.3 7.66,-0.28 12.2,2.3 4.58,2.57 10.22,5.52 16.54,12.65 6.32,7.14 11.12,13.17 14.3,19.8 l 6.6,13.66 c 0,0 0.38,-3.44 3.75,-5.3 3.36,-1.84 7.2,-2.92 10.65,-2.1 3.4,0.8 6.34,1 13.27,8.3 6.98,7.28 11.7,17.6 14.9,29.2 3.22,11.57 3.44,20.17 3.4,23.16 -0.05,3 -0.44,4.47 -0.44,4.47 0,0 1.3,-2.22 3.74,-2.77 2.37,-0.56 5.5,-0.65 8.97,3.1 3.5,3.72 7.83,13.2 8.88,18.47 1.04,5.3 3.6,23.93 1.4,40.35 -2.18,16.43 -2.32,18.2 -3.98,24.9 -1.7,6.74 -10.84,33.24 -12.25,37 -1.4,3.82 -3.1,11.8 -3.3,13.07 -0.2,1.25 -0.43,1.54 -0.2,1.66 0.2,0.12 0.7,-0.23 0.86,-0.67 0.16,-0.42 3.6,-6.86 3.6,-6.86 0,0 8.48,-18.5 13.13,-32.06 4.63,-13.56 7.06,-21.44 8.75,-30.5 1.7,-9.1 4.57,-34.58 4.5,-41.78 -0.04,-7.23 -0.78,-25.26 -4.4,-40.22 -3.66,-14.96 -9.35,-29 -13.44,-36.95 -18.76,-36.54 -57.9,-74.43 -98.97,-86.54 -18.02,-5.33 -35.63,-8.07 -52.83,-8.17 z m -19.6,7.5 c 2.77,0 5.5,0.08 8.18,0.14 5.37,0.1 9.8,0.74 13,1.2 3.2,0.43 6.78,1.05 11.76,1.94 5,0.93 12.64,3.05 18.32,4.92 5.68,1.88 15.7,6.4 19.8,8.3 4.1,1.88 8.9,4.56 13.02,7.38 4.13,2.86 13.94,10.37 13.94,10.37 0,0 -5.17,-3.6 -9.42,-6.33 -4.24,-2.73 -9.87,-6.03 -16.38,-9.56 -6.47,-3.5 -16.12,-7.4 -23.34,-9.8 -7.25,-2.4 -14.4,-4.3 -23.04,-5.77 -8.65,-1.47 -13,-1.2 -26.6,-0.74 -13.6,0.44 -25.14,4.15 -31.17,5.93 -6,1.72 -11.63,4.1 -11.63,4.1 0,0 0.76,0.12 4.77,0.4 4,0.26 4.25,-0.05 7.4,-0.43 3.16,-0.38 9.72,-0.77 19.17,-0.8 9.47,-0.02 19.82,1.18 24.14,1.6 4.3,0.45 12.08,2.2 14.15,2.8 l 18.7,5.45 c 1.63,0.47 6.72,2.05 6.72,2.05 l -0.42,0.68 c 0,0 -0.96,-0.1 -1.8,-0.36 -0.78,-0.26 -2.3,-0.98 -4.06,-1.78 -1.8,-0.8 -5.95,-1.66 -7.87,-2.3 -1.9,-0.6 -7.48,-1.7 -13.56,-3.48 -6.1,-1.8 -10.7,-2.33 -19.52,-2.72 -8.82,-0.38 -27.74,-0.66 -32.05,-0.5 -4.34,0.14 -17.13,0.7 -17.13,0.7 l -0.37,-0.32 c 0,0 -0.05,-0.42 0.67,-1.43 0.7,-1.03 1.97,-1.46 4.22,-2.62 2.26,-1.15 5.22,-2.26 11.43,-4.46 6.2,-2.23 14.97,-3.34 20.6,-4.05 2.8,-0.36 5.6,-0.48 8.37,-0.5 z m 55.26,0.04 c 0.64,0 1.4,0.05 2.27,0.14 3.5,0.38 12.05,3.24 14.88,4.35 2.8,1.13 13.78,5.87 17.13,7.64 3.36,1.72 5.07,2.2 10.7,5.67 5.6,3.47 13.84,9 18.44,12.37 4.57,3.34 16.7,14.15 21.3,19.15 4.58,5.02 11.4,13.14 13.6,16.06 2.14,2.96 6.12,9.85 10.43,16.53 4.26,6.64 8.04,15.46 9.9,19.53 1.9,4.06 6.86,19.92 8.96,28.95 2.06,9.03 3.3,26.92 3.06,32.7 -0.26,5.85 -1.2,19.1 -1.52,21.42 -0.37,2.3 -1.3,8.88 -1.3,8.88 0,0 1,-12.1 1.08,-12.7 0.1,-0.67 0.54,-14.3 0.5,-17.83 -0.04,-3.54 -1.3,-21.15 -2.7,-28.3 -1.37,-7.14 -5.68,-22.78 -8.57,-30.3 -2.86,-7.5 -6.78,-15.68 -9.83,-20.82 -3.05,-5.12 -7.13,-12.37 -9.84,-15.7 -2.7,-3.32 -11.36,-14.07 -13.8,-16.52 -2.45,-2.48 -11.84,-12.2 -17.67,-16.83 -5.82,-4.67 -14,-11.08 -18.58,-13.78 -4.56,-2.74 -8.98,-5.65 -12.92,-7.3 -3.94,-1.64 -10.6,-4.76 -14.95,-6.27 -4.36,-1.5 -12.74,-4.2 -16.05,-4.87 -3.33,-0.68 -6,-0.95 -6,-0.95 0,0 2.08,1.9 7.1,4.58 5.02,2.7 10.36,5.4 14.6,7.75 4.25,2.37 12.94,8.27 15.7,10.3 2.72,2.03 10.3,8.2 13.9,11.5 3.64,3.34 11.94,10.95 13.9,13.23 1.9,2.3 8.2,9.25 9.15,10.3 0.95,1.04 2.6,3.73 2.6,3.73 0,0 -8.35,-9.44 -11.35,-12.27 -3.02,-2.8 -14.9,-14.9 -19.04,-18.28 -4.17,-3.36 -13.32,-10.43 -18.1,-13.32 -4.8,-2.88 -11.83,-6.95 -14.5,-8.07 l 0,0.05 -4,-1.84 c 0,0 -4.78,-2.7 -6.6,-3.87 -1.83,-1.16 -4.64,-3.4 -4.64,-4.16 0,-0.53 0.88,-0.9 2.8,-0.87 z m -59.24,15.4 c 1.57,0 3.07,0.05 4.48,0.14 5.67,0.37 12.53,1.02 15.6,1.42 3.08,0.4 20.45,4 21.52,4.28 1.08,0.28 8.87,2.9 8.87,2.9 0,0 -3.67,-0.52 -6.28,-1.34 -2.64,-0.8 -10,-1.9 -13.08,-2.53 -3.03,-0.6 -17.04,-2.9 -24.75,-3.56 -7.72,-0.66 -21.6,-0.33 -30.3,0.57 -8.7,0.9 -21.86,4.06 -31.35,6.83 -9.47,2.74 -17.4,7.23 -17.4,7.23 0,0 5.87,-0.97 11.96,-2.16 6.1,-1.2 21,-2.86 25.34,-3.42 4.35,-0.57 16.83,-0.3 21.37,-0.33 4.53,-0.07 18.05,2.35 18.05,2.35 0,0 -12.17,-1.16 -17.86,-1.3 -5.66,-0.18 -17.23,0.07 -21.37,0.5 -4.2,0.42 -20.2,2.56 -23.66,3.3 -3.46,0.73 -6.82,1.7 -9.9,2.34 -3.08,0.62 -6.32,0.16 -6.32,0.16 l -0.3,-0.7 -0.03,0 c 0,0 0.54,-0.75 2.93,-2.17 2.38,-1.4 7.58,-4.2 15.06,-7 7.48,-2.8 9.25,-3.17 20.46,-5.02 11.23,-1.87 14.12,-1.8 21.4,-2.05 5.44,-0.2 10.83,-0.48 15.56,-0.46 z M 343.1,171.7 c 3.8,0.05 7.52,0.15 8.9,0.27 2.74,0.22 12.44,1.13 12.44,1.13 0,0 -13.42,-0.6 -17.8,-0.66 -4.37,-0.04 -13.35,0.34 -22.92,1.8 -9.54,1.4 -22.24,4.9 -29.3,7.5 -7.06,2.64 -15.1,7.05 -15.1,7.05 0,0 7.38,-0.1 12.3,-0.35 4.9,-0.24 13.8,-0.74 20.97,-0.54 7.22,0.2 19.58,1.52 23.12,2.15 3.54,0.66 9.32,2.12 9.32,2.12 l -6.94,-0.98 c -2.94,-0.4 -17.93,-1.88 -26.15,-2.25 -8.2,-0.36 -16.8,-0.15 -22.13,0.52 -5.37,0.67 -12.98,1.46 -12.98,1.46 l -0.16,-0.18 c 0,0 0,-0.55 0.05,-0.77 0.1,-0.2 0.45,-0.93 2.48,-2.52 2.02,-1.6 2.78,-2.08 6.68,-3.9 3.92,-1.83 6.12,-2.82 12,-4.93 5.87,-2.1 11.46,-3.42 18.5,-4.85 7.1,-1.45 14.27,-1.58 17.47,-1.9 1.6,-0.16 5.46,-0.2 9.25,-0.17 z m 127.54,9 c 0.3,0.1 3.92,3.23 3.92,3.23 0,0 0.44,0.92 0.42,1.1 l -4.27,-3.53 c 0,0 -0.35,-0.9 -0.06,-0.8 z m 6.8,5.9 c 0,0 4.08,3.53 4.97,4.46 0.94,0.94 1.46,1.9 1.46,1.9 0,0 -1.1,-0.97 -1.37,-1.1 -0.26,-0.13 -4.67,-4.04 -4.67,-4.04 l -0.43,-0.45 z m -163.06,4.93 c 2.4,0 4.8,0.04 7.17,0.17 9.42,0.5 28.28,3.1 28.23,3.2 -0.05,0.1 -1.2,0.43 -1.2,0.43 0,0 -2.4,-0.2 -7.43,-0.84 -5.06,-0.64 -18.55,-1.6 -27.36,-1.73 -8.8,-0.1 -20.8,1.25 -27.96,2.78 -7.18,1.5 -11.08,2.86 -11.08,2.86 0,0 5.8,0.86 9.86,1.67 4.12,0.83 13.68,3.73 17.02,4.9 3.37,1.18 10.92,4.06 12.64,4.85 1.66,0.8 4.37,2.5 4.37,2.5 l -0.18,0.4 c 0,0 -0.05,-0.05 -1.32,-0.38 -1.23,-0.33 -3.4,-1.78 -4.76,-2.74 -1.38,-0.95 -1.98,-1.08 -5.57,-2.54 -3.62,-1.45 -8.34,-2.27 -12.2,-3.34 -3.8,-1.07 -21.92,-4.74 -21.92,-4.74 l -0.03,0 c 0,0 1.74,-2.36 4.38,-3.64 2.65,-1.27 9.28,-2.3 17.05,-2.9 5.83,-0.43 13.05,-0.9 20.28,-0.9 z m -27.85,13.35 c 0.4,0 0.8,0 1.2,0.02 3.13,0.14 9.46,1.83 15.35,3.82 5.9,2 15.38,6.8 18.15,8.16 2.75,1.4 4.9,3.28 4.9,3.28 0,0 -11.13,-5.74 -20.77,-9 -9.67,-3.32 -12.64,-4 -15.95,-4.54 -3.28,-0.5 -4.98,-0.6 -4.98,-0.6 0,0 4.4,2 7.9,5.95 3.53,3.98 5.52,7.37 6.85,9.78 3.33,6.05 7.26,16.28 4.53,23.24 0,-0.04 -1.2,-11.07 -2.1,-14.47 -0.95,-3.43 -2.13,-9.43 -7.5,-14.64 -5.3,-5.27 -8.9,-7.27 -8.9,-7.27 l -4.52,-3.08 c 0,0 3,-0.63 5.85,-0.67 z m 101.92,4.6 c 0.58,0 1.9,0.08 3.2,0.64 1.7,0.78 2.64,2.1 5.3,5.43 2.7,3.3 6.53,8.37 9.3,12.36 2.74,4.02 10.08,16.54 12.17,20.98 2.08,4.44 5.88,11.85 6.74,14.07 0.85,2.2 2.13,6.24 2.13,6.24 0,0 -3.87,-8 -4.86,-9.9 -1.03,-1.9 -7.02,-13.87 -9.1,-17.42 -2.04,-3.52 -6.9,-12.2 -9.3,-15.28 -2.42,-3.1 -7.38,-9.1 -9.76,-11.23 -2.4,-2.17 -3.78,-3.07 -3.78,-3.07 0,0 -0.84,-0.4 -0.95,-0.36 -0.13,0.06 -0.24,0.2 -0.24,0.2 l 1,4.43 c 0.03,0.28 3.3,16.04 3.9,19.55 0.66,3.5 2.73,18.9 2.9,23.5 0.18,4.66 0.12,9.1 0.12,9.1 l -0.32,-0.67 c 0,0 -2.55,-26.84 -3.4,-30.6 -1.4,-6.06 -5.1,-19.25 -5.46,-24.3 -0.2,-2.62 0.1,-3.68 0.1,-3.68 l 0.3,0 z m 11.17,0.5 c 0,0 3.32,0.96 5.54,2.22 2.23,1.27 8.8,5.2 13,8.94 4.2,3.75 10.34,9.26 14,13.62 3.6,4.4 14.46,17.34 16.32,19.82 1.8,2.47 7.67,10.7 9.9,14.28 2.23,3.6 2.8,4.36 3.6,5.67 0.83,1.35 1.57,3 1.57,3 l -0.47,-0.13 c 0,0 -3.66,-5.98 -4.97,-7.55 -1.26,-1.57 -16.7,-22.43 -22.4,-28.8 -5.72,-6.35 -10.98,-11.3 -13.95,-14.1 -3,-2.87 -11.98,-9.73 -15.37,-11.84 -3.4,-2.13 -5.03,-2.95 -5.03,-2.95 0,0 5.45,9.63 8.35,13.78 2.9,4.15 8.9,14.5 10.17,17.12 1.26,2.6 2.4,5.43 2.6,5.85 0.2,0.42 0.8,2.75 0.8,2.75 0,0 -4.6,-8 -6.18,-10.8 -1.6,-2.85 -11.44,-19.2 -11.44,-19.2 l 0.03,0 c 0,0 -3.08,-4.82 -4.6,-7.15 -1.52,-2.38 -2.25,-3.17 -2.2,-3.58 0.03,-0.4 0.72,-0.94 0.72,-0.94 z m 22.76,4.86 c 0.72,-0.06 1.87,0.2 4.24,1.63 3.77,2.3 11.5,8.52 11.5,8.52 0,0 13.6,12.23 15.08,13.94 1.45,1.72 8.4,9.5 13.7,16.53 5.3,7 11.88,16.85 15.16,23.37 3.28,6.53 6.95,14.4 8.77,18.7 1.8,4.3 9.02,24.3 9.02,24.3 l -1.73,-4.05 c 0,0 -7.6,-17.68 -12.3,-27.4 -4.7,-9.8 -15.08,-27.2 -21.07,-34.55 -5.96,-7.34 -14.52,-17 -14.52,-17 0,0 -10.5,-10.33 -13,-12.36 -2.46,-2.04 -14.08,-9.37 -14.08,-9.37 9.75,13.1 22.25,25.2 31.07,38.2 4.83,7.1 9.13,14.46 10.9,18.14 1.78,3.7 4.97,10.77 4.97,10.77 l -0.75,1.15 c 0,0 -1.7,-4.2 -2.32,-5.5 -0.63,-1.3 -12.3,-21.12 -16.02,-26.24 -3.7,-5.1 -15.02,-18.87 -16.67,-20.5 -2.5,-2.5 -11.5,-12.7 -12.83,-15.04 l 0,0.02 c -1.45,-2.6 -0.87,-2.8 -0.12,-3.05 0.3,-0.1 0.57,-0.23 1,-0.26 z m -34.93,15.84 c 0.2,0 0.34,0.05 0.45,0.13 0.4,0.4 1.95,3.3 2.17,4.3 0.2,1.03 1,2.55 1,2.55 l -1.4,-0.6 c 0,0 -1.72,-3.58 -2.03,-3.77 -0.3,-0.2 -0.66,0.48 -0.66,0.48 0,0 -3.65,7.75 -4.62,9.22 -0.94,1.5 -5.13,8 -10.64,12.46 -5.47,4.44 -8.86,6.57 -10.2,7.43 -1.33,0.84 -2.58,1.25 -2.58,1.25 l 0.4,-0.52 c 0,0 12.68,-8.67 18,-16.48 5.28,-7.82 5.67,-9.07 6.55,-11.27 0.9,-2.2 1.14,-4.44 1.7,-4.72 0.45,-0.2 1.28,-0.47 1.85,-0.45 z m 2.87,7.6 c 0.2,0 0.35,0.02 0.38,0.08 0.07,0.14 0.8,1.6 0.8,1.88 0,0.26 -0.05,0.36 0,0.77 0.1,0.4 0.44,1.25 0.17,1.35 -0.27,0.1 -0.68,-0.1 -0.68,-0.1 l -0.02,0.02 -0.93,-1.88 c -0.3,-0.64 -0.45,-1.86 -0.23,-2.02 0.1,-0.07 0.32,-0.1 0.5,-0.1 z m -343,0.94 c 0,0 -0.74,4.94 -0.96,6.77 -0.22,1.78 -1.38,13.48 -2.12,20.54 -0.72,7.03 -1.8,44.95 -2.14,52.6 -0.38,7.66 1.1,8.9 1.1,8.9 0,0 1.08,2.38 2.26,2.3 1.22,-0.13 2.98,-3.34 4.1,-3.84 1.1,-0.54 1.5,0.35 1.4,1.7 -0.1,1.35 -1.88,14.74 -2.18,17.83 -0.25,3.1 0.57,5.92 0.8,6.3 0.18,0.37 0.76,0.95 1.56,0.14 0.8,-0.78 1.18,-2 1.95,-3.94 0.72,-1.97 2.3,-3.45 2.98,-3.17 0.7,0.33 0.88,4.3 0.04,9.98 -0.84,5.66 -1.05,13.17 -0.78,15.12 0.23,1.9 0.78,2.4 1.54,2.44 0.76,0.03 1.44,-0.73 3.1,-3.33 1.67,-2.64 2.66,-3.1 3.3,-2.47 0.62,0.6 1.47,8.3 1.54,12.08 0.06,3.8 0.65,11 1.6,14.03 0.95,3.07 2.78,4.6 2.94,4.72 0.16,0.14 0.48,-1.78 0.96,-2.75 0.46,-0.95 1.33,-2.03 1.93,-1.78 0.6,0.24 1.55,1.96 1.93,3.97 0.4,2 2.1,9.63 2.72,12.44 0.63,2.8 2.65,7.12 3.5,8.76 0.78,1.6 1.05,2 1.67,2.22 0.62,0.18 1.05,-2.8 1.16,-3.72 0.12,-0.96 0.96,-2.12 1.5,-1.93 0.55,0.2 2,3.1 3.42,6.24 1.4,3.16 2.8,8.92 4.4,13.77 1.6,4.88 4.2,6.57 4.9,7.07 0.72,0.5 0.93,0.4 1.25,0.1 0.3,-0.35 0.34,-1.72 0.08,-2.33 -0.2,-0.64 0.98,-1.37 0.98,-1.37 0,0 2.25,2.22 4.58,5.1 2.34,2.85 5.45,8.76 8.15,13.05 2.7,4.28 4.4,6.13 5.44,6.96 1.06,0.84 1.83,2.3 1.83,2.3 0,0 0.2,0 0.63,-0.64 0.47,-0.67 0.2,-1.4 0.02,-2.14 -0.16,-0.78 0.43,-1.52 1.07,-1.44 0.62,0.08 3.63,2.78 6.5,6.17 2.83,3.4 7.15,7.82 9.78,10.23 2.63,2.43 4.68,3.12 5.07,3.2 0.37,0.1 0.76,-0.46 0.96,-1.85 0.22,-1.4 0.45,-1.96 1.68,-2.4 1.26,-0.43 3,0.7 6.45,2.56 3.43,1.85 7.8,4.93 10.6,6.22 2.8,1.28 4.66,2 5.75,2.14 1.1,0.13 1.4,-0.74 1.03,-1.22 -0.36,-0.5 -1.48,-0.7 -2.07,-1.34 -0.33,-0.38 -0.74,-0.98 0.2,-2.07 0.6,-0.73 1.8,-1.02 2.37,-1.07 0.6,-0.06 4.8,0.63 8.64,1 3.88,0.4 7.1,0.1 10.78,-0.34 3.67,-0.47 7.68,-2.63 8.54,-3.6 0.86,-1 0.26,-0.87 -1.42,-1.83 -1.7,-1 -1.66,-1.62 -1.7,-2.13 -0.05,-0.5 1.76,-1.3 6.65,-5.08 4.94,-3.77 7.46,-9.4 7.63,-10.14 0.2,-0.74 0.9,-3 0.7,-3.32 -0.17,-0.28 -0.9,-0.16 -2.6,0.1 -1.66,0.3 -2.55,0.6 -3.12,0.53 -0.54,-0.06 -0.24,-0.9 0.13,-2.24 0.34,-1.33 1.12,-6.94 1.3,-11.22 0.18,-4.27 -1.8,-9.26 -2.22,-9.48 -0.46,-0.27 -0.78,0 -1.35,0.6 -0.58,0.55 -1.63,1.03 -1.96,1 -0.37,-0.05 -0.63,-0.97 -1.3,-3.2 -0.63,-2.2 -5.2,-8.68 -8.3,-11.07 -3.08,-2.4 -7.35,-4.05 -7.9,-3.76 -0.55,0.26 -1.03,1.37 -1.27,2.05 -0.23,0.7 -0.77,1.06 -1.85,0.83 -1.12,-0.26 -3.96,-2.2 -8.54,-3.7 -4.6,-1.53 -7.63,-1.5 -9.67,-1.64 -2.05,-0.17 -4.3,0.38 -4.83,0.92 -0.57,0.55 -0.2,1.1 0.22,1.8 0.38,0.65 0.9,1 1.23,1.98 0.28,1 -0.28,1.62 -0.6,1.78 -0.35,0.16 -4.18,0.84 -9.9,2.3 -5.7,1.48 -7.62,5.7 -7.9,6.4 -0.3,0.7 -0.34,1.33 0.2,1.57 0.5,0.23 2.63,-0.3 4.38,-0.24 1.75,0.07 0.75,1.26 -0.37,2.74 -1.1,1.44 -6.15,6.2 -7.94,9.32 -1.8,3.15 -1.75,6.9 -1.75,6.9 0,0 1.12,-0.45 3.64,-0.6 2.47,-0.2 3.32,0.02 3.32,0.02 0,0 0,-1.8 0.2,-4.73 0.24,-2.9 1.82,-7.75 4.3,-11.96 2.47,-4.2 7,-6.73 9.6,-8.03 2.62,-1.26 5.77,-2.1 9.2,-2.68 3.43,-0.57 10.05,-0.3 14.1,0.43 4.03,0.72 4.43,1.05 7.5,2.5 3.05,1.46 7.6,5.25 10,8.1 2.43,2.84 3.1,5 4.28,9.13 1.16,4.12 0.92,5.94 0.63,11.6 -0.3,5.7 -2.12,9.15 -4.3,12.95 -2.22,3.8 -6.03,6.38 -8.34,8.04 -2.32,1.63 -7.07,3.2 -10.27,3.82 -3.22,0.6 -8.46,0.65 -11.06,0.64 -2.62,-0.02 -7.2,-1.35 -9.45,-1.86 -2.22,-0.5 -6.13,-2 -11.93,-4.37 -5.8,-2.36 -14.15,-8.8 -18.8,-12.9 -4.65,-4.1 -17.35,-18.4 -17.35,-18.4 0,0 -2.7,-2.72 -7.77,-8.93 -5.04,-6.18 -8.88,-12.65 -10.37,-15.1 -1.5,-2.42 -5.9,-10.54 -7.63,-14.3 -1.7,-3.7 -8.44,-17.5 -9.65,-20.26 -1.2,-2.78 -7.2,-16.6 -9.4,-21.87 -2.23,-5.25 -5.38,-15.4 -7.15,-22.1 -1.77,-6.65 -4.22,-21.06 -4.22,-21.06 l 0.14,-1.2 c 0,0 4.8,18.08 6.24,23.68 1.43,5.56 6.53,19.56 8.67,25.54 2.17,5.97 6.83,17.2 9.06,21.72 2.22,4.55 4.93,9.95 8.2,15.9 3.3,5.97 8.32,13.46 11.33,17.9 3.04,4.44 11.76,15.2 12.07,15.46 0.32,0.27 0,1.52 0.1,2.08 0.1,0.6 0.42,0.6 2.24,2.64 1.77,2.03 9.2,10.1 13.33,13.8 4.1,3.72 9.48,8.14 16.3,12.3 6.78,4.16 11.9,5.92 16.02,7.1 4.15,1.15 8.94,2.2 15.23,2.38 6.33,0.16 8.7,-0.88 15.2,-3.93 6.5,-3.1 9.65,-11.08 10.82,-14.1 1.16,-3.04 1.75,-8.9 1.53,-13.7 -0.24,-4.8 -3.7,-10.27 -5.88,-12.95 -2.2,-2.67 -6.82,-6.37 -10.8,-8.16 -3.98,-1.8 -3.66,-1.42 -5.25,-1.9 -1.62,-0.5 -7.53,-1 -10.08,-0.8 -2.57,0.2 -6.24,1.06 -9.38,2.34 -3.13,1.3 -7.96,5.38 -11.13,10.23 -3.2,4.88 -4.1,9.3 -4.5,13.66 -0.35,4.38 -0.22,7.6 -0.22,7.6 0,0 1.46,0.78 3.7,2.16 2.24,1.37 5.5,2.7 7.17,3.07 1.7,0.37 2.37,0.22 2.37,0.22 0,0 -0.4,-0.14 -1.45,-1.14 -1.07,-1 -2.54,-3.86 -2.54,-3.86 l 1.02,0.28 c 0.64,0.17 1.67,1.17 1.67,1.17 0,0 0.3,-0.63 0.22,-2.75 -0.04,-2.1 -1.15,-3.92 -1.48,-4.87 -0.33,-0.94 -1.17,-0.82 -1.17,-0.82 l 0.46,-0.5 1,0.37 c 0,0 0.62,0.1 1.48,-1.03 0.85,-1.12 0.44,-4.05 0.44,-4.9 0,-0.85 -0.42,-1.83 -0.5,-2.08 -0.08,-0.26 0.23,-0.3 0.6,-0.08 0.33,0.22 0.75,1.6 0.87,1.86 0.08,0.3 0.1,0.66 0.85,0.08 0.77,-0.55 1.52,-3.68 1.62,-4.27 0.1,-0.62 -0.04,-3.56 -0.04,-3.56 l 0.4,-1.1 c 0,0 0.32,0.22 0.48,0.4 0.2,0.2 0.23,0.47 0.32,1.4 0.08,0.94 0.34,1 1,1.32 0.6,0.28 1.8,0.02 3.6,-1.5 1.82,-1.5 3.03,-5.68 3.03,-5.68 l 0,2.15 c -0.05,0.6 -0.2,1.66 0,1.9 0.18,0.3 0.8,0.16 2.63,0 1.84,-0.2 2.58,-0.6 4.18,-1.45 1.6,-0.83 2.58,-2.96 2.58,-2.96 0,0 0.34,0.53 0.34,0.76 -0.04,0.27 -1.24,1.68 -1.52,2.08 -0.27,0.4 -0.62,1.04 -0.5,1.43 0.14,0.42 2.37,1.5 4.7,1.74 2.4,0.23 5.73,-0.8 5.98,-0.88 0.24,-0.1 0.73,0.42 0.73,0.42 0,0 -1.3,0.42 -2.27,0.7 -0.98,0.27 -1.37,0.6 -1.73,1.36 -0.35,0.74 0.25,1.37 2.88,2.77 2.65,1.38 6.06,1.95 6.06,1.95 l -1.14,0.4 c -0.5,0.16 -1.9,-0.15 -2.55,0.24 -0.64,0.37 -0.92,0.96 -0.72,1.82 0.2,0.87 1.73,3.85 3.05,5.73 1.33,1.86 1.64,3.07 1.64,3.07 0,0 -2.08,-2.35 -2.8,-2.54 -0.7,-0.18 -0.94,0.8 -1,2.17 -0.1,1.35 1.62,6.04 1.62,6.04 l -0.8,0.3 c 0,0 -0.23,-0.38 -1.22,-1.84 -1,-1.5 -1.63,-0.52 -2.2,0.3 -0.56,0.8 -1.93,7.66 -1.93,7.66 0,0 -0.9,-0.1 -0.84,-0.42 0.08,-0.32 0.14,-1.58 -0.66,-1.68 -0.8,-0.1 -1.93,0.46 -3.67,1.83 -1.75,1.34 -4.05,4.34 -4.05,4.34 l -0.36,0 c 0,0 0.02,-0.54 -0.13,-1.1 -0.17,-0.5 -0.62,-1.13 -1.88,-1.38 -1.28,-0.3 -4.03,0.94 -4.7,1.2 -0.72,0.27 -3.53,1.4 -3.53,1.4 l -0.17,-0.26 c 0,0 0.2,-0.3 0.58,-0.66 0.37,-0.37 0.7,-1.07 0.66,-1.3 -0.1,-0.28 -0.98,-0.22 -1.4,-0.37 -0.42,-0.15 -3.63,-0.95 -5.05,-1 -1.43,-0.03 -4.8,0.93 -4.8,0.93 l -0.25,-0.38 c 0,0 1.02,-0.66 1.48,-1.45 0.48,-0.8 -1.93,-2.02 -4.32,-2.2 -2.4,-0.17 -6.78,0.56 -6.78,0.56 0,0 1.96,-0.94 2.93,-1.93 0.98,-1 -0.84,-2.14 -3.22,-3.04 -2.35,-0.93 -7.2,-1 -8.2,-1.02 -1.07,0 -2.35,-0.22 -2.35,-0.22 0,0 1.05,-0.03 2.12,-0.35 1.06,-0.3 1.34,-0.42 2.3,-0.95 0.95,-0.53 0.2,-1.32 -0.65,-2 -0.82,-0.7 -5.22,-1.8 -6.5,-2.15 -1.22,-0.35 -3.23,-0.72 -3.23,-0.72 0,0 0.37,-0.33 1,-0.45 0.6,-0.13 1.22,-0.28 1.57,-0.24 0.34,0.05 0.44,-0.52 0.44,-0.52 0,0 -2.27,-2.04 -6.72,-6.24 -4.46,-4.24 -10.1,-9.92 -14,-14.37 -3.85,-4.42 -9.8,-12.2 -9.8,-12.2 0,0 -6.06,-8.26 -11.44,-16.8 -5.36,-8.55 -9.53,-17.1 -13.2,-25.08 -3.64,-7.98 -6.57,-15.9 -8.96,-23.03 C 63,346 60.34,336.52 59.6,333.8 c -0.72,-2.75 -1.58,-5.62 -2.22,-8.62 -0.7,-3 -3.02,-16.62 -3.02,-16.62 l 1.95,8.5 c 0,0 2.38,9.9 2.76,11.37 0.4,1.48 2.1,6.2 3.1,9.9 0.97,3.67 1.43,4.35 2.6,8.38 1.18,4.02 3.6,10.1 5.35,15.05 1.78,4.92 5.12,12.8 9.08,20.65 3.97,7.85 7.76,14.23 10.28,18.7 2.58,4.47 5.36,8.1 10.34,15.13 5.03,7.02 12.26,15.28 17.52,21.13 5.25,5.88 10.2,9.67 10.4,9.73 0.2,0.04 0.56,-0.82 1.02,-1.12 0.45,-0.33 1.44,-0.85 1.6,-1.23 0.12,-0.4 -0.33,-0.55 -0.4,-0.86 -0.1,-0.3 -0.1,-0.83 -1.6,-1.92 -1.53,-1.1 -2.34,-1.17 -4.26,-2.3 -1.9,-1.1 -2.63,-3 -2.63,-3.5 0,-0.48 1.8,-0.34 3.78,-0.9 1.94,-0.58 1.9,-1.76 -0.26,-3.4 -2.15,-1.6 -10.38,-3.96 -13.24,-5.45 -2.84,-1.48 -2.7,-3.25 -3.07,-4.18 -0.37,-0.92 -0.12,-0.92 0.17,-1.2 0.3,-0.3 1.9,-0.15 4.66,-0.22 2.78,-0.08 3.1,-1.13 3.1,-1.13 0,0 0.38,-0.23 -0.32,-1.14 -0.74,-0.88 -4.03,-3.28 -6.43,-4.24 -2.4,-0.98 -5.32,-2.4 -7.06,-3.26 -1.75,-0.86 -5.02,-4.53 -5,-5.82 -0.02,-1.33 0.64,-1 2.74,-0.7 2.07,0.32 4.02,1.2 5.18,1.02 1.17,-0.18 0.83,-1.03 -0.54,-3.55 -1.36,-2.5 -5.8,-6.06 -8.98,-7.96 -3.16,-1.95 -6.7,-4.4 -8.92,-6.48 -2.27,-2.1 -3.05,-4.35 -3.17,-4.6 -0.13,-0.23 -0.05,-0.7 0.82,-0.82 0.83,-0.14 2.5,0.15 4.67,0.87 2.17,0.76 3.9,1.8 4.18,1.63 0.3,-0.18 0.1,-1.2 -0.33,-2.62 -0.44,-1.43 -1.4,-3.42 -2.86,-5.08 -1.48,-1.7 -7.58,-6.14 -10.48,-8.52 -2.94,-2.34 -6.2,-6.34 -6.47,-7.54 -0.3,-1.2 0.32,-1.02 1.87,-0.73 1.5,0.3 3.96,1.7 5.85,2.73 1.84,1 3.15,1 3.15,1 0,0 -1.15,-1.3 -1.9,-2.36 -0.76,-1.1 -3.78,-6.53 -5.02,-8.3 -1.28,-1.76 -3.24,-4.4 -5.5,-5.9 -2.28,-1.5 -3.14,-2.4 -4.08,-3.57 -0.97,-1.17 0.46,-2.08 1.13,-2.26 0.66,-0.2 3.06,1.2 4.03,1.96 0.98,0.75 2.27,1.53 2.63,1.25 0.4,-0.24 -0.46,-1.96 -1.3,-3.5 -0.9,-1.54 -3.6,-4.65 -7.5,-8.87 -3.87,-4.24 -4.78,-7.53 -5.32,-8.9 -0.5,-1.34 -0.24,-2.57 0.22,-3 0.43,-0.43 2.07,0.5 2.73,1.14 0.63,0.63 1.9,0.65 2.47,0.42 0.6,-0.25 -0.1,-1.83 -1.6,-4.86 -1.53,-3 -7.96,-21.16 -7.96,-21.16 0,0 -1.9,-5.94 -5.83,-22.05 -3.92,-16.1 -2.33,-20.68 -2.5,-25.44 -0.2,-4.77 -1.86,-9.24 -1.86,-9.24 z m 415.47,0.87 c 0.6,-0.06 2.6,0.52 4.16,1.84 1.8,1.5 4.2,3.97 8.35,8.7 4.18,4.73 7.63,9.23 10.45,13.42 2.8,4.22 4.46,6.56 7.52,12.05 3.08,5.52 7.35,15.38 9.84,21.5 2.48,6.13 6.23,15.82 8.06,23.82 1.82,8 3.94,21.53 3.94,21.53 l -0.66,-0.3 c 0,0 -5.57,-24 -6.7,-27.34 -1.1,-3.33 -7.65,-22.5 -12.86,-33.9 -5.24,-11.42 -9,-16.38 -12.13,-20.3 -3.1,-3.9 -8.12,-9.07 -8.12,-9.07 -3,-2.93 -5.95,-5.9 -8.96,-8.84 3.87,6.34 7.9,12.62 11.53,19.15 3.9,6.94 9.26,16.9 12.26,23.88 4.62,10.74 8.83,20.95 10.44,25.8 1.6,4.9 3.8,15.5 3.8,15.5 0,0 -4.14,-12.85 -6.7,-19.54 -2.54,-6.77 -9.86,-24.5 -12.87,-30.46 -2.17,-4.3 -6.24,-11.48 -8.37,-15.23 -3.37,-5.88 -7.54,-10.56 -10.96,-16.1 -1.53,-2.48 -1.58,-3.65 -1.92,-4.36 -0.33,-0.7 -0.5,-1.45 -0.26,-1.7 0.02,-0.03 0.08,-0.05 0.17,-0.05 z m -71.23,3.25 c 0,0 1.1,2.24 1.37,3.5 0.25,1.28 0.34,5.33 0.55,6.74 0.26,1.4 0.37,3.53 0.37,3.53 l -0.23,-0.17 -0.33,-0.68 0,-0.44 -2.33,-12.43 z m -55.77,14.07 c 1.27,-0.08 1.15,0.58 0.95,0.86 -0.18,0.28 -1.24,0.42 -1.82,0.37 -0.56,-0.06 -3.4,1.24 -5.57,3.18 -2.2,2 -2.36,4.1 -2.36,4.1 l -0.4,0.35 c 0,0 -0.35,-0.58 0.06,-1.96 0.43,-1.4 1.12,-2.58 2.73,-4.02 1.6,-1.5 5.1,-2.8 6.4,-2.88 z m 25.7,30.1 c 0.3,-0.03 0.83,1.23 0.52,2.04 -0.32,0.82 -0.66,2.18 -2,3.24 -1.3,1.05 -3.36,2.63 -4.36,2.98 -1,0.36 -2.54,0.7 -3.2,0.74 -0.65,0 -2.85,-0.57 -2.85,-0.57 0,0 0.32,-0.73 0.88,-0.72 0.57,0.02 3.38,0.96 5.37,-0.25 2.02,-1.2 4.3,-3.07 4.92,-5 0.6,-1.9 0.48,-2.45 0.75,-2.46 z m 85.52,8.86 c -1.6,0.1 -2.78,1.26 -2.32,3.93 0.4,2.68 3.12,4.96 6.77,7.24 l 0,0.02 c 0,0 3.4,2.1 5.64,3.05 2.24,0.97 4.73,3.24 4.73,3.24 0,0 -0.78,-2.5 -1.7,-4.42 -0.95,-1.94 -2.98,-5.3 -5.76,-8.7 -2.73,-3.4 -5.7,-4.47 -7.34,-4.34 z m 66.34,9.83 c 0.34,0 0.8,0.14 1.2,0.32 0.5,0.24 1,1.55 1.1,1.87 l 0.5,1.85 c 0.22,0.94 1.22,2.5 1.2,2.8 0.02,0.27 -0.48,0.16 -0.48,0.16 l -2.6,-5.15 c 0,0 -0.43,2.26 -0.5,4.46 -0.12,2.23 0.94,4.97 1.73,7.3 0.76,2.36 2.1,11.48 2.13,14.63 0.06,3.14 0.52,10.72 0.52,10.72 0,0 -0.73,-7.2 -1.34,-9.68 -0.6,-2.5 -1.63,-10.7 -2.5,-14.4 -0.83,-3.7 -1.38,-11.87 -1.38,-11.87 l -0.02,0 c 0,0 -0.1,-1.42 -0.16,-1.94 -0.05,-0.52 0.05,-0.77 0.34,-0.97 0.07,-0.06 0.17,-0.08 0.28,-0.1 z m -62.85,6.58 7,15.43 c 0,0 1.38,-0.1 4.67,0.64 3.33,0.75 5.48,3.9 5.48,3.9 0,0 -0.93,-2.86 -1.6,-5.38 -0.7,-2.55 -2.8,-6.9 -6.4,-10.46 -3.6,-3.57 -9.14,-4.12 -9.14,-4.12 z M 195.07,324.5 c 0,0 -0.83,0 -5.37,1.38 -4.56,1.4 -6.54,4.65 -6.54,4.65 0,0 8.87,11.3 12.2,14.68 3.33,3.37 6.17,5.1 8.8,6.4 2.6,1.25 3,1.92 2.37,2 -0.62,0.1 -3.03,-0.6 -5.37,-1.77 -2.34,-1.2 -5.75,-4.3 -9.97,-9.58 -4.23,-5.3 -13.42,-15.96 -13.42,-15.96 0,0 -0.2,0.08 -2.2,1.5 -1.93,1.42 -5.5,5.14 -7.1,8.07 -1.6,2.9 -1.9,5.98 -1.9,5.98 0,0 1.94,0.26 5.6,0.95 3.67,0.7 12.82,6.18 12.82,6.18 0,0 7.73,4.83 11.8,6.5 4.04,1.64 6.74,1.1 6.74,1.1 l 0.3,0.63 c 0.05,0.16 -0.34,0.48 -1.1,0.7 -0.8,0.18 -2,-0.16 -3.8,-0.5 -1.82,-0.38 -10.33,-4.83 -14.6,-7.56 -4.3,-2.73 -9.72,-5.12 -12.5,-6.04 -2.82,-0.9 -10.76,-0.6 -11.36,-0.32 -0.6,0.28 -0.66,1.7 -0.34,5.65 0.35,3.95 2.6,9.52 2.8,9.94 0.2,0.44 0.9,2.5 1.4,2.7 0.48,0.2 2,-0.28 8.65,-0.13 6.64,0.13 12.24,1.06 20.2,3.8 7.9,2.77 12.57,7.9 15.84,12.95 3.26,5.02 3.43,11.86 3.25,14.17 -0.2,2.14 -1,3.46 -1.1,3.63 0.1,0.04 0.34,0.15 0.94,0.5 1.45,0.84 7.62,1.6 11.63,0.88 4,-0.74 6.23,-2.4 6.4,-2.67 0.18,-0.23 0.1,-0.75 -0.6,-1.18 -0.77,-0.4 -1.45,-1.22 -3.6,-4.66 -2.12,-3.44 -1.35,-7.37 -1.35,-7.37 l -0.2,-0.76 c 0,0 -0.68,-0.08 -3.58,-1.77 -2.9,-1.67 -2.86,-7.28 -2.86,-7.28 l 0.76,0.24 c 0,0 0.05,1.58 1.28,4.23 1.2,2.62 3.43,3.15 5,3.4 1.58,0.28 3.2,-0.1 3.6,-0.24 0.36,-0.18 1.02,0 1.02,0 0,0 4.55,3.37 8.2,5.6 3.62,2.25 11.75,5.15 20.46,7.8 8.7,2.64 17.5,3.95 22.17,4.43 4.7,0.47 21.8,1.5 27.34,1.3 5.55,-0.15 8.3,-0.64 9.86,-1.03 1.56,-0.4 3.18,-1.36 4.85,-2.27 1.67,-0.92 1.36,-0.92 2,-0.97 0.6,-0.07 0.3,0.9 0.3,0.9 l -3.33,1.7 c -2.16,1.15 -4.5,2.02 -4.5,2.02 l -0.24,0.35 c 0,0 0.78,0 1.7,0.43 0.94,0.42 2.44,0.7 5.02,0.07 2.6,-0.6 4.5,-2.46 6,-4.38 1.5,-1.9 1.07,-4.27 0.84,-7.63 -0.24,-3.42 -1.26,-12.96 -1.1,-19.72 0.17,-6.72 6.7,-17.9 6.7,-17.9 l -0.28,-0.62 c 0,0 0,-0.2 -0.57,0.16 -0.56,0.3 -2.92,0.77 -5.92,1 -3,0.26 -6.23,-1.63 -6.6,-1.78 -0.37,-0.1 -1.35,0.62 -2.55,1.2 -1.2,0.58 -4.03,1.42 -7.03,0.83 -2.98,-0.63 -5.94,-3.22 -5.94,-3.22 0,0 -0.54,0.2 -2.07,0.67 -1.5,0.47 -1.95,0.46 -5.2,0.48 -3.28,0.02 -7.92,-2.96 -7.92,-2.96 0,0 -1.53,0.47 -4.34,0.94 -2.8,0.45 -6.87,-1 -6.87,-1 0,0 0.43,2.45 3.13,9.6 2.05,5.4 6.83,9.8 9.2,11.76 l 1.33,1.07 c 5.62,4.47 8.9,7.28 15.48,10.58 l -0.93,0.67 -4.8,-2.46 c -1.92,-1 -5.02,-3.53 -5.02,-3.53 L 298,373.44 c 0,0 0.15,0.44 0.24,2.1 0.12,1.66 1.94,5.84 2.3,6.45 0.38,0.6 1.14,1.52 1.67,1.93 0.54,0.42 0.52,1.14 0.52,1.14 0,0 -0.47,0.55 -0.62,0.55 -0.17,0.06 -0.88,-0.28 -2,-1.86 -1.1,-1.56 -3.35,-7.13 -3.35,-7.13 -32.27,0.78 -56,0.52 -80.75,-22.3 -7.43,-6.85 -15.94,-19.4 -16.8,-20.86 -0.87,-1.4 -1.86,-2.7 -2.47,-4.73 -0.6,-2 -1.67,-4.26 -1.67,-4.26 z m 16.13,71.7 c -0.18,-0.06 -0.05,0.07 -0.05,0.07 l 0.04,-0.07 z m 249.55,-57.34 c 0,0 0.65,1.47 0.85,2.8 0.17,1.38 1.6,7.18 2.4,11.23 0.83,4.04 1.24,4.28 1.24,4.28 l -0.02,0 c 0,0 0.4,0.27 0.92,0.52 0.53,0.23 1.7,1.26 2.67,2.24 0.94,1 4.47,3.85 5.38,4.47 0.94,0.66 3.92,1.55 3.92,1.55 0,0 0.04,-0.1 -0.2,-0.5 -0.3,-0.4 -1.16,-2.04 -1.7,-3.45 -0.6,-1.43 -0.87,-4.13 -1.92,-7.23 -1.06,-3.1 -3.8,-8.27 -6.8,-11.8 -3,-3.52 -6.73,-4.1 -6.73,-4.1 z m 53.53,5.14 c 0,0 1.4,2.36 1.38,3 -0.03,0.64 -0.18,3.8 -0.07,4.53 0.1,0.7 0.1,1.06 0.1,1.06 0,0 -0.97,-1.26 -0.98,-1.8 0,-0.57 -0.02,-4.87 -0.3,-5.47 -0.3,-0.6 -0.42,-0.62 -0.42,-0.62 z m 3.58,5.1 0.93,1.4 -0.47,3.97 -0.14,1.23 -0.07,-0.1 -0.25,-0.52 c 0,0 -0.1,-0.9 -0.2,-1.17 l -0.13,-0.3 c 0,0 0.1,-0.65 0.17,-1.7 0.1,-1.07 0.14,-2.8 0.14,-2.8 z m -0.3,7.26 c 0,0 0.78,1.2 1.03,1.7 0.23,0.5 0.02,1 0.06,1.42 0.03,0.48 -0.3,2.27 -0.3,2.95 0.03,0.68 -0.14,1.54 -0.07,1.86 0.07,0.28 0.05,0.85 0.05,0.85 l -0.54,-0.06 c 0,0 -0.46,-2.12 -0.4,-2.93 0.1,-0.82 0.2,-2.4 0.22,-3.54 0.08,-1.13 -0.38,-2.26 -0.38,-2.26 z m -2.45,2.32 c 0,0 0.5,0.32 0.55,0.67 0.05,0.34 -0.14,0.58 0,0.85 0.13,0.3 -0.4,1.2 -0.33,1.4 0.07,0.23 0.3,0.48 0.1,0.6 -0.17,0.12 -0.44,0.18 -0.44,0.18 l -0.24,-0.43 -0.18,-1.4 c -0.05,-0.32 0.16,-0.85 0.25,-1.15 0.1,-0.3 0.3,-0.72 0.3,-0.72 z m -0.6,7.15 0.45,0.95 c 0,0 0,5.6 0.03,6.7 0,1.07 -1.13,8.02 -1.36,9.84 -0.28,1.85 -1.28,5.4 -1.47,6 -0.16,0.6 -0.2,1.53 -0.3,1.8 -0.15,0.26 -0.34,0.54 -0.34,0.8 -0.02,0.3 -0.16,0.7 -0.16,0.7 0,0 -0.2,-0.28 -0.1,-0.7 0.15,-0.4 0.2,-0.75 0.2,-1.13 0,-0.4 -0.13,-0.7 0.03,-1.35 0.18,-0.63 1.6,-7.2 1.86,-8.93 0.27,-1.7 0.92,-8 0.92,-8 l 0.02,0 c 0,0 0.3,-3.42 0.27,-5.05 z m -48.4,0.54 c -0.1,0 -0.16,0 -0.17,0.03 -0.1,0.23 -0.26,1.08 -0.26,1.08 0,0 0.54,0.96 0.8,1.72 0.3,0.8 0.34,3.03 0.12,9.42 -0.22,6.37 0.27,10.14 2.5,13.9 2.22,3.77 6.13,4.42 6.6,4.33 0,0 0.16,-0.07 0.3,-0.23 0.14,-0.13 -0.02,-0.73 -0.34,-1.4 -0.32,-0.67 -1.1,-1.75 -0.87,-7.22 0.23,-5.46 -1.32,-12.55 -3.67,-16.97 -2.06,-3.87 -4.4,-4.65 -5.04,-4.66 z m 51.1,2.3 c 0,0 0.52,0.84 0.65,1.1 0.13,0.28 0.02,0.34 -0.13,0.9 -0.14,0.54 -0.3,1.7 -0.47,2.84 -0.16,1.15 -0.3,2.93 -0.28,3.2 l -0.67,-0.45 c 0,0 0.05,-1.03 0.23,-1.48 0.16,-0.4 0.46,-3.8 0.75,-4.35 0.3,-0.52 -0.5,-1.34 -0.5,-1.34 z m -51.6,27.37 c 0,0 -2.43,14.2 -3.16,16.26 -0.72,2.05 -0.67,3.45 1.1,6.86 1.74,3.4 4.5,6.18 4.5,6.18 l 0.48,-1.06 c 0,0 -0.44,-0.92 -0.7,-3.43 -0.27,-2.56 1.48,-9.44 2.04,-12.42 0.58,-3.02 0.6,-4.45 -0.55,-8.12 -1.2,-3.64 -3.7,-4.26 -3.7,-4.26 z m -56.15,1.75 c 0.02,0.02 1.63,1.38 2.32,3.2 0.7,1.82 -0.55,4.72 -0.64,4.98 -0.07,0.26 -0.64,0.82 -0.76,0.86 -0.1,0 -0.05,0.8 -0.05,0.8 l -0.55,-0.07 -0.18,-0.84 c 0,0 0.2,0.05 0.5,-0.32 0.3,-0.3 1,-2.37 0.93,-4.04 -0.04,-1.7 -1.55,-3.78 -1.55,-3.78 l -0.03,-0.77 z m 49.95,25.88 c 0,0 -0.8,2.55 -2.12,6.62 -1.33,4.07 -5.7,12.24 -6.1,13.62 -0.4,1.4 -0.35,3.2 0.65,5.4 1.02,2.22 1.98,2.38 1.98,2.38 0,0 0,-1.7 0.24,-3.62 0.2,-1.92 3.12,-6.5 4.1,-8.1 0.94,-1.57 2.5,-4.88 3,-8.34 0.5,-3.44 -1.74,-7.96 -1.74,-7.96 z m -12.42,27.9 c 0,0 -0.82,1.18 -3.57,5.45 -2.75,4.3 -8.83,12.32 -9.08,12.96 -0.3,0.62 -0.62,1.35 -0.22,4.82 0.36,3.45 1.7,5.84 1.7,5.84 0,0 0.55,-3.8 1.53,-5.84 0.96,-2.05 2.4,-4 4.55,-6.22 2.2,-2.24 4.14,-5.74 5.3,-9.07 1.16,-3.3 -0.2,-7.96 -0.2,-7.96 z m -20.3,27.16 c 0,0 -2.64,2.86 -5.74,6.1 -3.13,3.22 -11.25,10.38 -11.55,11.08 -1.3,3.04 -0.3,7.84 0.24,10.97 0,0 0.64,-1.16 2.1,-3.15 1.5,-1.97 3.88,-4.6 6.32,-6.7 2.44,-2.16 4.46,-5.34 6.72,-8.8 2.27,-3.45 1.9,-9.5 1.9,-9.5 z m -279.27,4.87 c -1.47,-0.06 -3.66,0.3 -4.62,0.5 l 0,-0.02 c -1.24,0.2 0.2,0.73 0.75,0.84 1.1,0.13 4.16,1.88 7,4.07 2.84,2.22 7.58,4.57 8.23,4.78 0.6,0.18 3.1,0.38 3.18,0.2 0.1,-0.13 -0.36,-0.6 -1.6,-1.44 -1.23,-0.87 -4.66,-4.18 -6.6,-5.68 -1.97,-1.54 -4.4,-3.2 -6.34,-3.25 z m 21.15,17.58 c -2.45,-0.2 -6.97,1.6 -6.97,1.6 l -0.06,0.2 c 0,0 0.56,0.15 1.6,0.25 1.06,0.1 2.74,0.37 5.74,1.6 3,1.24 6.93,3.72 9.3,4.57 2.4,0.87 6.7,0.7 6.98,0.55 0.27,-0.17 0.44,-0.63 0.44,-0.63 0,0 -0.5,-0.1 -1.23,-0.57 -0.78,-0.46 -3.03,-1.9 -6.28,-4.05 -3.26,-2.1 -7.06,-3.3 -9.52,-3.52 z m 233.27,1.5 c 0,0 -1.65,1.28 -5.66,4.23 -4,2.97 -15.15,10.02 -15.15,10.02 0,0 -0.88,1.25 -1.85,4.92 -0.95,3.65 -0.32,8.22 -0.32,8.22 0,0 1.93,-2.45 3.15,-4.52 1.25,-2.1 3.42,-2.48 6.8,-4.58 3.4,-2.1 7.46,-6.13 10.42,-9.36 2.95,-3.2 2.62,-8.94 2.62,-8.94 z m 42.73,3.36 c 0,0 -2.6,3.1 -3.86,4.03 -1.24,0.92 -5.3,3.07 -5.3,3.07 0,0 1.1,-1.17 4.23,-3.46 z m -252.15,9.38 c -1.18,0.02 -2.37,0.15 -3.07,0.28 -1.34,0.26 -3.3,1.72 -3.3,1.72 0,0 1.33,0.17 2.6,0.48 1.3,0.3 2.88,0.75 3.88,0.9 1.03,0.1 1.36,0.66 2.15,1.17 0.8,0.5 3.2,1.06 3.84,1.34 0.6,0.26 0.9,0.56 2.37,1.3 1.45,0.74 6.64,0.27 7,0.15 0.34,-0.12 1.4,-1.02 1.4,-1.02 0,0 -0.87,-0.5 -3.1,-1.42 -2.25,-0.93 -8.98,-4.44 -8.98,-4.44 0,0 -0.28,0.56 -1.7,-0.07 -0.72,-0.33 -1.9,-0.43 -3.1,-0.4 z m 177.54,8.45 c 0,0 -2.43,0.94 -5.4,2.6 -2.98,1.65 -11.33,4.35 -13.74,5.5 -2.4,1.18 -4.13,1.67 -6.2,4.12 -2.07,2.44 -2.08,6.02 -2.08,6.06 0.02,0 1.06,-0.35 2.66,-1.2 1.6,-0.86 5.75,-2.7 8.28,-3.43 2.56,-0.73 6.8,-3.33 9.93,-5.6 3.07,-2.3 6.56,-8.06 6.56,-8.06 z m -149.38,2.73 c -1.16,0.04 -2.43,0.2 -3.9,0.5 -3.03,0.62 -5.92,3.25 -5.92,3.25 l 0.02,0.02 c 0,0 1.24,0.1 2.74,0.03 1.54,-0.03 5.6,0.55 8.02,1.68 2.43,1.13 5.13,1.6 8.53,1.3 3.46,-0.27 5.77,-2.16 5.77,-2.16 0,0 -2.47,-0.6 -5.2,-1.82 -4.07,-1.84 -6.58,-2.88 -10.06,-2.8 z m 28.65,7.98 c -2.4,-0.03 -4.67,0.7 -6.94,1.92 -2.4,1.24 -4.27,3.08 -4.32,3.13 0.06,-0.03 4.23,-1.73 7.72,-0.48 3.54,1.27 5.6,2.2 9.6,1.9 4.03,-0.3 8.6,-3.1 8.6,-3.1 0,0 -8.04,-2.16 -12.24,-3.08 -0.82,-0.2 -1.63,-0.28 -2.43,-0.3 z m -11.25,5.05 -0.02,0 z m 100.38,-3.17 -0.07,0 c -0.53,0.26 -8.27,2.05 -13.77,3.3 -5.5,1.27 -12.02,1.9 -12.57,1.85 -0.54,-0.06 -3.34,1.5 -6.48,4.02 -3.16,2.5 -3.4,4.4 -3.4,4.4 l 0.32,0.22 c 0,0 0.47,-0.5 2.52,-1.22 2.04,-0.72 8.36,-1.8 13.86,-2.65 5.48,-0.8 10.1,-2.45 14.18,-4.56 3.8,-1.98 5.62,-5.16 5.4,-5.34 z m -54.15,4.1 c -1.2,-0.02 -3.8,0.07 -7.42,1.18 -3.68,1.1 -8.8,3.92 -8.85,3.94 0,0.02 -0.05,0.3 -0.04,0.38 0,0.1 0.57,0.28 0.57,0.28 0,0 1.2,0 4.85,0.28 3.65,0.24 6.6,0.97 10.63,0.98 4.06,0 7.8,-1.82 10.13,-2.95 2.3,-1.1 3.43,-3.4 3.43,-3.4 0,0 -2.24,0.05 -4.14,0.12 -1.85,0.07 -7.95,-0.77 -9.15,-0.8 z m -16.27,5.12 -0.02,0 z"/>
<path fill="#c00" fill-rule="evenodd" d="m 184.7,101.17 1.7,-0.94 c 0.38,1.45 0.7,2.74 0.75,4.18 -1,-0.42 -1.74,-1.62 -2.46,-3.23 z m -18.35,55.77 c -4.1,2.97 -10.8,-8.7 -10.6,-9.43 1.68,21.8 -16.47,38.17 -16.08,55.33 -5.26,-5.9 -2.5,-21.86 -3.48,-26.56 -6.76,12.25 -7.96,24.7 -24.28,33.1 1.16,0.57 12.25,-13.94 2.28,-22.16 -17.38,30.15 -40.76,-6.5 -66.63,23.4 13.22,-49.83 50.96,-22.8 58.04,-42.13 -21.32,5.83 -28.38,0.24 -36.42,-7.14 12.13,6.63 50.62,-2.73 44.64,-18.05 -2.03,-5.2 -8.299,-10.7 -17.399,-7.18 21.06,-21.54 42.739,9.36 73.499,-16.35 -9.8,14.38 -11.28,32.32 -3.57,37.2 z m 27.94,-68.68 c 0,0 -0.03,-2.06 1.7,-3.47 1.74,-1.43 3,-1.62 3.8,-1.9 0.8,-0.3 4.18,0.03 4.18,0.03 0,0 -0.44,0.82 -2.3,2.22 -1.88,1.37 -4.8,2.9 -5.7,3 -0.93,0.1 -1.5,0.1 -1.7,0.1 m 223.56,337.9 c 0,0 0.85,-6.28 -0.46,-8.62 -1.36,-2.35 -3.48,-4.17 -3.48,-4.17 l 3.62,-7.16 c 0,0 4.94,3.75 4.97,7.35 0.02,3.63 -1.45,8.67 -2.65,10.47 -1.2,1.76 -2,2.16 -2,2.16 m -93.34,71.2 c 0,0 3,-5.08 2.88,-7.77 -0.1,-2.64 -1.08,-4.76 -1.08,-4.76 0,0 1.5,-0.48 4.22,-2.03 2.75,-1.6 3.7,-2.62 3.7,-2.62 0,0 3.08,4.9 0.28,8.92 -2.82,4.02 -4.37,6 -6.47,7 -2.1,1.02 -3.53,1.26 -3.53,1.26 M 264.14,484.2 c 0,0 -3.8,-1.88 -4.66,-7.33 -0.93,-5.45 0.55,-8.36 1.54,-9.58 1,-1.24 1.98,-1.57 1.98,-1.57 l 1.9,2.1 2.9,6 c 0,0 -3.26,3.38 -3.23,6.24 0,2.85 -0.44,4.13 -0.44,4.13 m -10.6,-25.22 c 0,0 0.38,-2.12 2.93,-3.7 2.55,-1.62 5.88,-2.18 5.88,-2.18 l 0.53,-1.53 -1.08,-7.4 c 0,0 -4.03,0.4 -6.3,2.33 -2.22,1.94 -3.22,5.8 -3.1,8.5 0.08,2.67 0.55,3.7 0.55,3.7 z m 2.83,-23.85 c 0,0 4.56,-2.1 7.84,-2.36 3.28,-0.25 5.25,0.98 5.25,0.98 l 0.57,-0.56 1.46,-5.16 c 0,0 -5.03,-2.42 -7.67,-1.63 -2.62,0.8 -5.8,4.44 -6.72,6.05 -0.9,1.6 -0.74,2.7 -0.74,2.7 m 59.48,-21.2 c 0,0 3.76,-3.9 4.14,-7.37 0.4,-3.45 0.22,-4.7 0.22,-4.7 0,0 1.53,-0.05 3.83,-1.04 2.28,-0.94 3,-1.44 3,-1.44 0,0 1.25,3.4 -0.66,7.05 -1.9,3.64 -3.44,5.28 -5.86,6.58 -2.4,1.3 -3.1,1.46 -3.1,1.46 z m -102.1,-4.46 c 0,0 3.92,-2.6 4.5,-4.75 0.58,-2.2 0.28,-3.5 0.4,-4.26 0.12,-0.75 1.12,-0.82 2.05,-1.1 0.96,-0.32 2.02,-0.1 2.42,-0.28 0.4,-0.18 0.52,-0.58 1.03,-0.53 0.5,0 2.37,0.3 2.4,0.72 0.04,0.43 0.76,4.82 -0.45,6.3 -1.23,1.53 -1.45,1.74 -2.47,2.36 -1.07,0.6 -4.44,2.08 -6.14,2.2 -1.7,0.1 -3.72,-0.7 -3.72,-0.7 m -40.67,-87.07 c 1.04,-0.2 3.8,-0.46 6.3,1 2.5,1.46 3.5,2.98 4.2,3.5 0.66,0.48 1.42,-0.05 1.85,-0.2 0.37,-0.14 5.8,-2.85 5.8,-2.85 0,0 -0.9,-2.18 -2.5,-3.5 -1.6,-1.35 -4.48,-3.18 -8.05,-3 -3.53,0.14 -5.5,1.1 -6.3,1.65 -0.4,0.26 -1.03,0.8 -1.52,1.22 -0.97,0.87 -1.83,2.63 0.22,2.2 m -20.64,44.9 c 0.33,-0.28 0.6,-0.77 0.75,-1.62 0.4,-2.1 0.98,-3.38 2.8,-4.96 1.83,-1.55 4.84,-3.34 4.84,-3.34 0,0 -1.3,-2.84 -1.56,-4.44 l -0.4,-2.38 c 0,0 -2.67,-0.16 -4.55,1.36 -1.85,1.53 -4.3,4.8 -4.33,8.52 -0.04,2.14 0.22,3.83 0.4,4.88 0.17,0.88 0.88,3.15 2.06,1.97 m 1.4,-28.07 c 0,0 1.4,-1.45 3.5,-2.4 2.13,-0.94 4.14,-0.8 5.7,-0.46 1.55,0.35 2.7,1.2 2.7,1.2 l 4.52,-6.9 c 0,0 -2.75,-2.08 -6.26,-1.78 -3.5,0.3 -5.48,1.47 -7.7,3.38 -2.28,1.92 -3.06,5.05 -3.06,5.05 0,0 -0.53,1.6 -0.3,1.78 0.2,0.23 0.6,0.22 0.6,0.22 z m 39.4,-229.5 c 0,0 -0.38,-0.02 -0.9,-0.93 l -1.5,-2.6 0.3,-0.43 c 0,0 1,0.45 1.68,0.8 0.7,0.37 1.2,0.63 1.36,0.76 0.17,0.1 0.7,0.85 0.2,1.26 -0.54,0.4 -0.56,0.68 -0.56,0.68 z m -2.96,3.74 c 0.23,-0.07 0.7,-0.44 0.76,-0.92 0.12,-0.43 -0.06,-1 -0.06,-1 l -3.6,-1.15 c 0,0 0.15,0.82 0.27,1.06 0.13,0.22 1.28,1.54 1.46,1.67 0.18,0.1 1.16,0.33 1.16,0.33 m -4.3,4.43 c 0,0 -1.03,-1.2 -1.55,-1.88 -0.5,-0.66 -1.28,-2.23 -1.28,-2.23 0,0 2.66,0.97 3.3,1.44 0.67,0.47 0.94,0.93 0.94,0.93 0,0 0,0.8 -0.42,1.14 -0.45,0.34 -0.72,0.58 -1,0.58 m -3.98,4.82 c -0.27,-0.15 -0.84,-1.6 -1.77,-2.6 -0.96,-0.98 -1.7,-1.84 -1.7,-1.84 l -0.1,-0.63 c 0,0 2.43,1.04 3.58,2 1.2,1 1.72,1.3 1.72,1.3 z m -2.65,3.62 c 0.38,-0.28 1.23,-1.76 1.23,-1.76 0,0 -3.77,-2.92 -4.53,-3.1 -0.76,-0.2 -0.4,-0.03 -0.4,-0.03 0,0 1.44,2.3 2.28,3.47 0.85,1.16 1.4,1.4 1.4,1.4 m -3.9,5.28 c 0,0 -1.88,-1.15 -2.82,-2.27 -0.94,-1.12 -0.74,-1.52 -0.74,-1.52 0,0 3.13,1.48 4.02,1.43 0.87,-0.03 1.7,0.3 1.7,0.3 z m 3.55,-26.28 c 0.02,-0.56 2.02,-1.63 2.02,-1.63 0.1,1.8 0.18,4.03 0.27,5.24 -1.83,-0.86 -2.3,-3.05 -2.3,-3.6 z m -2.62,7.73 c -0.2,-0.03 -1.22,-0.47 -2.28,-1.93 -1.05,-1.45 -1.1,-2.28 -1.1,-2.28 0,0 0.83,-0.75 1.26,-1.1 0.48,-0.4 1.16,-0.16 1.16,-0.16 0,0 -0.15,0.8 -0.06,1.03 0.05,0.2 0.42,2.7 0.8,3.34 0.37,0.65 0.45,0.8 0.44,0.87 0,0.08 -0.22,0.24 -0.22,0.24 m -6.18,3.9 c 0,0 -2.15,-2 -2.96,-3.85 -0.8,-1.9 -0.32,-2.28 -0.32,-2.28 l 2.33,-0.54 c 0,0 0.35,2.1 0.7,3.8 0.35,1.73 0.25,2.87 0.25,2.87 m -7.45,1.73 c -0.1,-0.13 -2.6,-4.5 -2.57,-5.28 0,-0.78 0.8,-1.2 1.57,-1.57 0.72,-0.35 2,0.15 2,0.15 0,0 -0.64,2.8 -0.57,4.35 0.1,1.57 -0.02,2.27 -0.02,2.27 z m 0.8,-13.4 c 0,0 0.8,-1.23 1.8,-1.7 0.96,-0.48 1.8,0.05 2,0.3 0.27,0.28 0.4,0.37 0.4,0.37 0,0 -1.2,0.74 -2.2,0.95 -1.03,0.2 -2,0.08 -2,0.08"/>
<use id="shine" xlink:href="#shield" fill="url(#rg)" stroke="#000" stroke-width="3"/>
</svg>