<?xml version="1.0" encoding="UTF-8"?>
<svg xmlns="http://www.w3.org/2000/svg" xmlns:xlink="http://www.w3.org/1999/xlink" width="600" height="660">
<defs>
  <radialGradient id="rg" gradientUnits="userSpaceOnUse" cx="220" cy="220" r="405">
    <stop style="stop-color:#fff;stop-opacity:.3" offset="0"/>
    <stop style="stop-color:#fff;stop-opacity:.2" offset=".2"/>
    <stop style="stop-color:#666;stop-opacity:.1" offset=".6"/>
    <stop style="stop-color:#000;stop-opacity:.13" offset="1"/>
  </radialGradient>
  <clipPath id="clip-shield">
    <path id="shield" d="m2,2v257c0,286 298,398 298,398c0,0 298-112 298-398V2z"/>
  </clipPath>
</defs>
<use id="background" xlink:href="#shield" fill="#841"/>
<path fill="#fd0" d="M 150 150 L 150 259 C 150 381.45655 240.12925 455.92036 300 491.97852 C 359.87075 455.92036 450 381.45655 450 259 L 450 150 L 150 150 z"/>
<path fill="#c00" d="m 308.18776,421.15087 c 1.84746,-1.98948 2.53128,-2.53962 2.45732,-3.69055 -0.13875,-2.16098 1.20867,-4.54603 2.70876,-4.89476 8.91639,-7.39391 18.23647,-16.67241 18.1151,-30.96415 -1.57238,-7.0351 -8.83103,-4.63247 -12.87098,-8.31302 -5.35278,-5.4471 -14.22117,-15.38505 -17.01687,-22.54007 -0.59101,-1.75885 -0.78791,-3.74653 -0.78791,-6.54984 0,-4.50411 -0.65309,-6.51498 -1.4187,-4.36828 -0.20046,0.56214 -0.37548,3.30478 -0.38883,6.09474 -0.023,4.84422 0.0537,5.19365 1.70767,7.75901 6.09578,7.54278 9.69106,15.34081 15.97191,20.59091 0.0319,1.44005 -0.57405,2.58632 -0.17036,4.05862 0.81523,3.5192 0.27813,9.21432 -2.85489,11.44724 -15.9369,3.72418 -30.72275,13.37911 -38.17093,27.62046 -4.02978,2.84546 -4.62193,-0.78339 -6.84769,-0.65166 -0.39318,4.49693 -0.46317,5.81648 -6.16491,6.06707 -15.8631,0.9063 -13.70135,-3.24186 -6.73626,-14.00504 1.88184,-3.77285 4.09741,-5.10489 11.71481,-7.04314 9.80988,-1.8722 22.84833,-10.07417 23.77661,-20.52666 0.45959,-9.10778 -6.78603,-8.55183 -6.70255,-18.53508 -0.0184,-3.97534 0.5246,-8.00581 2.32433,-11.51789 1.64874,-5.60232 1.89923,-12.2055 2.51354,-18.08641 1.13288,2.30663 1.33841,7.72531 3.5532,8.50409 1.25388,0.19315 5.27609,-1.44964 5.27609,-2.15492 -0.79199,-1.66934 -3.1406,0.10653 -4.57496,0.32553 -0.57955,-0.62411 -1.46429,-5.79334 -0.49193,-5.29046 -15.45453,-10.24212 -28.17124,-24.65003 -38.30256,-41.51852 -0.37627,-2.84829 1.50322,-2.79299 3.77607,-3.12276 -0.73196,-2.59767 -4.29267,-1.23053 -4.91132,0.79038 -3.35256,4.93739 -11.04015,3.76937 -13.07841,-0.52456 -5.61619,-5.73863 -13.34143,-12.45532 -19.69315,-14.55583 -7.51203,0.34598 -13.8755,7.10759 -18.45533,12.91299 0.93278,5.93758 -0.93423,7.60138 -4.23614,9.01579 3.51593,5.41706 -0.1453,7.80533 -4.18713,10.65003 -12.05291,8.71447 -11.29448,-4.23177 -9.54004,-14.52398 0.95715,-5.00072 2.82382,-10.18536 8.89271,-12.3546 7.84711,-3.58863 16.0178,-15.93315 19.30975,-19.54187 2.51362,-1.22635 5.90368,-1.40284 8.66353,-0.32513 0.98946,0.23456 3.96597,2.24262 7.50977,3.35837 9.61416,1.17294 24.18372,5.95989 25.74719,4.35944 -0.3668,-1.20915 -0.87078,-1.82725 -0.87741,-4.04754 -0.53285,0.41132 -0.94678,1.18926 -1.48336,2.6136 -1.32166,0.0153 -1.32665,-0.3094 -2.87351,-0.6942 -0.97985,-3.31903 4.63342,-10.60409 4.8233,-13.60523 -1.68717,1.44754 -3.17945,3.95316 -4.57753,5.78286 0.77213,-6.19175 1.82915,-12.59261 6.11728,-17.11492 7.44042,-6.10758 15.98026,-10.46701 22.03093,-18.34984 l 2.75124,-6.81572 c 2.29532,1.20843 5.93993,3.9866 8.23997,2.49475 -1.20113,-1.7372 -3.71508,-1.70639 -4.90192,-3.40469 4.70319,-1.16223 10.51765,-0.78975 14.60052,-4.42137 -7.08489,1.4436 -14.23086,3.68838 -21.00946,1.31413 -11.8835,-4.16228 -15.4185,11.14137 -21.96632,4.60163 -1.705,-2.74344 5.52435,-4.33491 3.58246,-5.49649 -3.9579,0.63776 -5.72846,7.45378 -10.50967,2.45961 -1.17441,-6.53636 1.26827,-12.17614 3.29517,-15.78451 3.13127,-2.02448 7.12029,-3.08546 11.42317,-4.90499 4.1006,-3.0079 8.17938,-5.99181 11.45574,-7.86214 2.70109,-0.39855 9.31979,-2.79244 9.31979,-3.63822 0,-0.80706 -4.097,-2.98712 -5.14097,-2.04045 1.72258,5.23321 -6.12807,6.90768 -5.70233,-0.7218 2.73307,-12.28961 16.15064,0.29967 22.68215,-1.40086 1.03129,-4.06753 2.63234,-8.45167 4.15892,-12.70225 4.96222,1.59702 5.24401,8.34216 5.99864,13.01686 5.97613,-3.41154 12.03402,-1.44348 15.81322,4.0249 -1.29241,1.31542 -7.84804,1.6353 -7.39808,4.23474 5.09312,-1.99318 10.32656,-2.71701 12.54762,-1.12914 2.22112,1.58789 2.91022,5.28823 7.5193,8.45685 -2.48998,3.58913 -8.40561,-3.16521 -9.28962,1.82692 3.87509,0.20812 8.67187,0.0872 10.87655,4.56339 0.23955,3.30469 0.55887,6.30094 1.95816,9.29972 -2.89865,0.54968 -6.89819,-7.52289 -10.80452,-2.77029 5.77677,1.03193 9.41989,3.52921 12.10295,9.61043 0.47205,5.58843 -2.77455,8.95345 0.24599,12.03616 -2.45025,1.42683 -5.59306,-1.48562 -6.3692,-3.87886 -0.56573,-2.23876 -3.65678,-4.78009 -5.42045,-2.89027 2.60052,3.06715 6.04402,5.62133 6.74285,10.18476 -1.76953,3.91826 -3.16494,7.46346 -1.66951,11.85822 -5.2762,2.7563 -6.19434,-6.15944 -10.39827,-6.21592 2.85704,4.74792 6.72783,8.44307 4.93286,13.88862 -1.49015,1.74555 -2.17851,4.74228 -3.83081,6.18954 -2.36975,-1.07149 -1.34474,-11.19515 -5.21229,-9.03331 5.70664,4.67175 1.44006,18.43875 -8.51631,10.46352 6.04689,-0.95749 2.7858,-6.04883 -1.09206,-3.50795 -1.30047,11.23755 16.03886,39.54963 34.52242,49.98384 6.90767,6.64803 8.39687,10.62302 11.74605,18.44525 7.67397,-2.24338 9.81176,-12.14698 7.88254,-19.52752 -5.8523,-8.42412 -13.26028,-16.86423 -6.1443,-30.99961 9.01594,-20.60329 28.54608,-17.306 41.1395,-8.92429 6.83303,2.75455 8.51715,-6.03405 14.00454,-6.39123 5.22936,-0.37484 8.47956,4.36414 8.15815,8.65667 -1.65957,0.18363 -3.06283,-0.91506 -4.55612,-1.23196 -4.9461,2.60192 -4.05874,9.18835 -8.98831,13.50519 -7.42535,6.82055 -12.25557,2.87888 -15.33965,2.00858 -0.23872,6.14821 4.30667,8.07945 7.86421,6.93226 4.11266,-1.24682 6.77489,-5.77135 10.81944,-5.95866 3.11324,-0.14033 5.64588,3.77403 4.62762,6.93852 -1.45717,-0.0389 -2.46664,-1.3357 -3.9751,-1.02802 -2.04463,3.14688 -3.82343,10.28925 -9.01872,10.99833 -5.32242,2.57899 -8.16883,-0.2286 -12.26996,-0.8828 1.38206,7.09958 5.19204,6.01467 9.07031,4.12251 4.47898,-2.96649 10.75418,-1.31262 9.5587,5.16495 -5.08537,-3.21528 -2.76026,6.01908 -13.62257,6.38945 -4.06408,1.28918 -6.44907,-3.60567 -10.18299,-3.47653 -0.1577,1.71363 0.21679,3.53644 0.9443,5.06831 6.44336,0.9759 15.0062,-0.95992 13.18318,7.74549 -2.16046,-1.73078 -3.95543,-3.19603 -6.94216,-1.16465 -6.25322,5.00022 -7.89567,15.94524 -15.62239,18.88398 -10.52388,4.44902 -13.58488,-3.19267 -18.87375,-8.12868 -1.59766,0.9765 -1.97947,2.97279 -2.0619,4.82394 -0.7148,8.7183 -7.36166,14.63603 -9.07943,23.02937 -0.67324,9.47286 4.54335,7.23631 7.23342,12.29836 1.15173,3.44937 0.74537,8.78621 -1.11901,11.92376 -7.92749,5.88047 -13.81805,10.51329 -18.67434,19.16778 -5.93902,6.38813 -3.2702,12.60623 -6.74515,18.11686 -1.12304,1.05788 -2.77015,0.33438 -3.89728,1.33048 -0.3649,2.37708 1.76739,4.80543 0.0533,6.91601 -3.55603,2.01009 -7.37297,4.02071 -11.45097,4.25816 -11.40093,0.67806 -8.57911,-7.07445 -2.83526,-13.43984 z m 0.41824,5.24756 c -1.32198,1.39454 -2.38755,2.69331 -1.17962,3.73911 2.10236,1.36546 1.79021,-1.87625 1.17962,-3.73911 z m 8.9357,-4.59421 c 0,-0.65926 -3.67059,-2.38762 -4.25072,-2.00152 -1.06871,1.89233 3.29527,3.52077 4.25072,2.00152 z m -61.22382,-4.33504 c 1.22587,-2.64212 0.59077,-2.77741 -0.79804,-1.37238 -3.10405,1.69728 0.42694,4.02607 0.79804,1.37238 z m 7.83791,-3.28087 c -1.19151,-1.12573 -2.95881,-3.20894 -4.44882,-3.72781 -2.31113,0.98711 3.55035,5.69864 4.44882,3.72781 z m 47.07517,-34.62765 c 0.25825,5.95692 -2.23058,5.57392 -5.08547,7.6904 3.22,2.13423 9.30966,-5.11652 5.08547,-7.6904 z m 35.08162,-7.13473 c 4.13353,3.3811 -1.79984,8.72652 -0.33728,9.85311 3.8475,-1.20233 5.58433,-9.63931 0.33728,-9.85311 z m -55.98723,-5.89525 c -0.4095,-1.12723 -0.88657,-3.08917 -1.57017,-3.69686 -1.86526,1.32104 1.16366,6.60406 1.57017,3.69686 z m 47.55429,-8.61866 c 0.6299,0.87206 1.93001,0.79422 2.3728,-0.70033 -0.47017,-0.31176 -1.65633,-0.47448 -2.3728,0.70033 z m 4.49541,-6.59323 c -1.86421,-0.54203 -3.30171,0.34017 -3.54603,1.74049 1.75457,0.21028 2.79858,-0.50573 3.54603,-1.74049 z m 1.31078,-3.71988 c -0.76609,-0.50987 -4.16169,0.2146 -4.16169,0.8879 0.78503,0.82255 5.27756,0.28174 4.16169,-0.8879 z m 2.00391,-4.10961 c -0.54815,-1.24216 -2.59429,-0.49109 -3.43355,0.36225 0.5482,1.24216 2.59429,0.49109 3.43355,-0.36225 z m 0.51025,-5.59608 c -0.39531,-1.14752 -2.062,-0.89333 -2.48872,0.18011 0,1.05997 2.15726,0.90385 2.48872,-0.18011 z m 30.48493,-26.07549 c 0.12677,-3.99773 0.24825,-9.75677 4.43951,-11.26495 2.9904,2.8054 4.80646,10.64443 9.92748,7.31262 -5.28181,-0.24637 -5.63525,-5.51859 -9.77371,-9.00351 -5.10955,0.69371 -6.08029,6.05364 -6.16345,10.64326 1.94366,7.26267 -4.31866,7.95495 -6.14854,9.90072 4.18383,2.40906 7.56049,-3.73211 7.71871,-7.58814 z m -43.91169,-1.11962 c -0.74348,0.79709 -1.33905,2.51025 -1.29958,3.92135 1.84019,0.017 1.88776,-1.77819 1.29958,-3.92135 z m -5.94133,-4.37416 c -0.59845,0.20931 -2.40163,3.5176 -2.46099,4.51506 1.0718,1.08376 4.08413,-3.71485 2.46099,-4.51506 z m -139.61463,-3.79847 c -0.58549,1.37603 -0.84674,3.69114 0.34893,4.4151 1.20343,-1.62593 0.57792,-2.97246 -0.34893,-4.4151 z m 134.11038,-2.07892 c -1.52139,0.0268 -5.3568,5.09658 -3.33243,5.74251 1.37076,-1.43873 3.38975,-3.5743 3.33243,-5.74251 z m -5.9844,-7.00895 c -2.81783,1.84121 -6.96294,6.82746 -7.9589,10.21513 2.69479,-1.93143 7.16554,-5.86125 7.9589,-10.21513 z m -127.28012,2.61203 c 0.87126,3.04784 3.42975,2.49 5.67408,3.63029 -0.27758,-2.29127 -2.56261,-2.69232 -5.67408,-3.63029 z m 177.15078,-15.13778 c 0.63587,-2.85441 1.76367,-5.18523 3.45773,-7.19921 9.65228,-11.69438 16.21577,-2.64518 25.22443,-4.35876 -2.93586,-0.55934 -10.84195,-3.06943 -16.15489,-3.74293 -4.01761,1.81742 -6.55239,3.08016 -9.66348,6.2803 -9.68311,13.61844 -2.61089,17.4323 1.35762,26.28512 0.59269,-7.23247 -6.22982,-8.42452 -4.22141,-17.26452 z m -55.67622,5.24875 c -3.26471,3.55863 -5.58019,5.59184 -8.47925,8.19848 2.8686,0.93355 7.68846,-5.12389 8.47925,-8.19848 z m 85.31425,7.84638 c -8.97915,-1.31286 -7.16157,-6.55504 -12.89333,-9.77797 -4.46939,-1.73924 -9.32432,2.93364 -8.53363,7.83416 2.02024,-4.43337 4.32112,-7.99101 8.79219,-6.07904 4.19346,3.68689 6.20297,10.51482 12.63477,8.02285 z m -141.81821,-8.5313 c -5.86166,0.73647 -4.86319,3.91827 -11.36585,-2.36508 1.40483,6.41532 7.95929,6.03583 11.36585,2.36508 z m 53.6476,-7.29684 c -2.95459,1.16326 -5.26835,4.09768 -7.45832,5.7576 2.98511,0.77264 5.93771,-2.39753 7.45832,-5.7576 z m -4.31797,-8.70932 c -0.70035,-0.45572 -7.20768,3.08084 -6.45515,4.78054 2.06682,0.42325 5.9439,-2.2891 6.45515,-4.78054 z m -82.17244,-4.95051 c -1.1482,-1.38821 -3.42752,-2.21555 -4.48186,-0.0961 1.33597,-0.0433 2.6314,-0.0537 4.48186,0.0961 z m 95.0722,-11.83573 c 0,-0.93222 -1.60948,-3.55496 -2.05463,-3.07559 -0.21275,1.59649 1.14293,2.41094 2.05463,3.07559 z m 7.5125,-7.10206 c -0.857,-1.52713 -2.25996,-3.24619 -3.58885,-4.44494 -1.93471,1.62879 2.73431,7.0162 3.58885,4.44494 z m -11.39099,-55.61172 c 13.08374,14.46247 12.00937,31.12001 -2.74058,55.01818 8.42168,-4.4953 23.92689,-41.69314 2.74058,-55.01818 z m -30.58489,48.64577 c -2.89563,-1.23685 -7.48336,-0.59937 -10.88264,1.65087 3.79452,-0.29081 6.76598,0.0594 10.88264,-1.65087 z m 49.0258,-2.96938 c 0.26688,-2.14476 -1.40133,-8.10613 -3.58685,-8.92857 -2.73362,0.19017 1.96674,7.5846 3.58685,8.92857 z m -45.29238,-3.6557 c -0.47852,-2.16221 -4.02136,-0.79803 -5.08686,0.28291 0.96967,1.05748 3.61379,0.20207 5.08686,-0.28291 z m 2.65185,-5.9774 c -0.45158,-0.92709 -3.3065,0.0704 -3.92543,0.56362 0.323,0.90736 3.35619,0.0214 3.92543,-0.56362 z m 40.93663,-12.56603 c 0.79294,1.31277 3.24675,3.13518 5.30703,3.71486 0.30571,-2.26483 -3.55341,-3.47135 -5.30703,-3.71486 z m -72.80932,-12.44684 c 0.88897,2.9594 0.32695,4.45487 -1.62435,6.64136 2.7663,1.55782 5.67221,-5.74548 1.62435,-6.64136 z m 15.90869,-2.49317 c -2.95758,0.50159 -3.77826,0.62573 -5.11234,3.59434 1.93027,-0.68021 2.75003,-1.59149 5.11234,-3.59434 z m 61.25289,3.17444 c -1.46293,-2.03118 -5.09987,-2.55206 -6.95184,-1.03676 1.63973,0.19899 5.05067,1.0628 6.95184,1.03676 z m -63.65151,-5.46976 c -1.3717,0.005 -2.83713,2.13994 -2.47992,3.35204 1.1716,-0.73786 2.17318,-1.98908 2.47992,-3.35204 z m 18.36262,-1.88297 c 0,-0.93899 -1.8773,-2.20299 -2.57864,-1.73622 -1.17397,1.68514 1.69997,3.78329 2.57864,1.73622 z m 0.80811,-5.67823 c -1.9478,-0.9713 -4.68461,-0.45882 -7.01442,2.8726 3.04714,-1.75109 5.7721,-1.09463 7.01442,-2.8726 z m 18.03397,2.34564 c 0,-0.83176 -2.67583,-2.33743 -3.28297,-1.93334 -0.79875,1.32349 2.37609,2.76303 3.28297,1.93334 z m 18.70674,-1.35849 c -2.03568,-1.81781 -5.8345,-0.38227 -5.8478,1.07009 1.9421,-0.67913 2.7353,-0.51101 5.8478,-1.07009 z m -11.5346,-8.3656 c -0.48738,-0.52481 -2.98501,2.01141 -2.98501,3.0311 1.34847,1.73934 2.90205,-1.51235 2.98501,-3.0311 z M 301.2657,171.19147 c -2.23698,2.33276 -0.24113,9.82382 -1.69286,12.76095 2.7354,-0.1201 2.23855,-9.97562 1.69286,-12.76095 z m -121.37591,94.59468 c 0.3157,-4.83581 3.73857,-8.71493 5.75731,-12.27896 2.48534,-4.57029 5.61264,-7.41531 11.10767,-7.80636 7.49136,-1.87344 15.44185,-5.0892 21.7766,-9.66371 3.87994,-4.00907 7.07401,-4.1127 13.41912,-1.97391 5.42167,6.43152 9.8497,11.13929 18.10158,15.71164 -1.63169,5.14067 -1.41604,11.84075 -2.83557,16.77588 -3.61731,-0.38871 -8.87096,-1.64987 -14.40575,-2.66672 -3.97158,-4.14991 -1.4434,-16.97911 -9.40051,-18.56691 -5.20475,1.85254 -12.08998,5.248 -14.76261,9.18785 -4.11181,7.66572 -5.12705,6.23607 -9.43252,2.64837 -1.12605,2.84316 0.51936,6.2921 -2.03316,8.43892 -3.45517,2.02568 -16.0751,7.94973 -17.29216,0.19391 z m 6.79191,-4.88842 c -1.59055,0.96441 -2.75079,2.36005 -2.43223,3.25402 1.79434,1.96322 2.2859,-1.02441 2.43223,-3.25402 z m 6.81627,-2.59066 c -1.28239,-1.13311 -3.37276,-1.89876 -5.0333,-2.07376 -1.0863,3.18305 3.30662,3.22707 5.0333,2.07376 z m 37.49115,-15.95276 c 3.20967,-5.81115 -8.6683,-9.72963 -8.45319,-4.91474 3.92378,-2.10326 7.42444,1.88414 8.45319,4.91474 z m 65.07857,-75.27737 c 0.85512,2.69023 0.51627,13.1107 -4.44841,9.252 -0.86187,-3.23784 1.2238,-8.86577 4.44841,-9.252 z"/>
<use id="shine" xlink:href="#shield" fill="url(#rg)" stroke="#000" stroke-width="3"/>
</svg>