<?xml version="1.0" encoding="UTF-8" standalone="no"?>
<svg
   xmlns:dc="http://purl.org/dc/elements/1.1/"
   xmlns:cc="http://creativecommons.org/ns#"
   xmlns:rdf="http://www.w3.org/1999/02/22-rdf-syntax-ns#"
   xmlns:svg="http://www.w3.org/2000/svg"
   xmlns="http://www.w3.org/2000/svg"
   xmlns:xlink="http://www.w3.org/1999/xlink"
   xmlns:sodipodi="http://sodipodi.sourceforge.net/DTD/sodipodi-0.dtd"
   xmlns:inkscape="http://www.inkscape.org/namespaces/inkscape"
   width="600"
   height="660"
   id="svg2"
   version="1.1"
   inkscape:version="0.48.2 r9819"
   sodipodi:docname="House_Brax.svg">
  <metadata
     id="metadata25">
    <rdf:RDF>
      <cc:Work
         rdf:about="">
        <dc:format>image/svg+xml</dc:format>
        <dc:type
           rdf:resource="http://purl.org/dc/dcmitype/StillImage" />
        <dc:title />
      </cc:Work>
    </rdf:RDF>
  </metadata>
  <sodipodi:namedview
     pagecolor="#ffffff"
     bordercolor="#666666"
     borderopacity="1"
     objecttolerance="10"
     gridtolerance="10"
     guidetolerance="10"
     inkscape:pageopacity="0"
     inkscape:pageshadow="2"
     inkscape:window-width="1366"
     inkscape:window-height="715"
     id="namedview23"
     showgrid="false"
     inkscape:zoom="0.50568849"
     inkscape:cx="21.32748"
     inkscape:cy="400.35846"
     inkscape:window-x="-8"
     inkscape:window-y="-8"
     inkscape:window-maximized="1"
     inkscape:current-layer="svg2" />
  <defs
     id="defs4">
    <radialGradient
       id="rg"
       gradientUnits="userSpaceOnUse"
       cx="220"
       cy="220"
       r="405">
      <stop
         style="stop-color:#fff;stop-opacity:.3"
         offset="0"
         id="stop7" />
      <stop
         style="stop-color:#fff;stop-opacity:.2"
         offset=".2"
         id="stop9" />
      <stop
         style="stop-color:#666;stop-opacity:.1"
         offset=".6"
         id="stop11" />
      <stop
         style="stop-color:#000;stop-opacity:.13"
         offset="1"
         id="stop13" />
    </radialGradient>
    <path
       id="shield"
       d="m2,2v257c0,286 298,398 298,398c0,0 298-112 298-398V2z" />
    <radialGradient
       id="rg-1"
       gradientUnits="userSpaceOnUse"
       cx="220"
       cy="220"
       r="405">
      <stop
         style="stop-color:#fff;stop-opacity:.3"
         offset="0"
         id="stop7-7" />
      <stop
         style="stop-color:#fff;stop-opacity:.2"
         offset=".2"
         id="stop9-4" />
      <stop
         style="stop-color:#666;stop-opacity:.1"
         offset=".6"
         id="stop11-0" />
      <stop
         style="stop-color:#000;stop-opacity:.13"
         offset="1"
         id="stop13-9" />
    </radialGradient>
    <radialGradient
       id="radialGradient3005"
       gradientUnits="userSpaceOnUse"
       cx="220"
       cy="220"
       r="405">
      <stop
         style="stop-color:#fff;stop-opacity:.3"
         offset="0"
         id="stop3007" />
      <stop
         style="stop-color:#fff;stop-opacity:.2"
         offset=".2"
         id="stop3009" />
      <stop
         style="stop-color:#666;stop-opacity:.1"
         offset=".6"
         id="stop3011" />
      <stop
         style="stop-color:#000;stop-opacity:.13"
         offset="1"
         id="stop3013" />
    </radialGradient>
    <radialGradient
       id="rg-1-1"
       gradientUnits="userSpaceOnUse"
       cx="220"
       cy="220"
       r="405">
      <stop
         style="stop-color:#fff;stop-opacity:.3"
         offset="0"
         id="stop7-7-7" />
      <stop
         style="stop-color:#fff;stop-opacity:.2"
         offset=".2"
         id="stop9-4-4" />
      <stop
         style="stop-color:#666;stop-opacity:.1"
         offset=".6"
         id="stop11-0-0" />
      <stop
         style="stop-color:#000;stop-opacity:.13"
         offset="1"
         id="stop13-9-9" />
    </radialGradient>
    <radialGradient
       id="radialGradient3015"
       gradientUnits="userSpaceOnUse"
       cx="220"
       cy="220"
       r="405">
      <stop
         style="stop-color:#fff;stop-opacity:.3"
         offset="0"
         id="stop3017" />
      <stop
         style="stop-color:#fff;stop-opacity:.2"
         offset=".2"
         id="stop3019" />
      <stop
         style="stop-color:#666;stop-opacity:.1"
         offset=".6"
         id="stop3021" />
      <stop
         style="stop-color:#000;stop-opacity:.13"
         offset="1"
         id="stop3023" />
    </radialGradient>
    <radialGradient
       id="rg-1-1-1"
       gradientUnits="userSpaceOnUse"
       cx="220"
       cy="220"
       r="405">
      <stop
         style="stop-color:#fff;stop-opacity:.3"
         offset="0"
         id="stop7-7-7-7" />
      <stop
         style="stop-color:#fff;stop-opacity:.2"
         offset=".2"
         id="stop9-4-4-4" />
      <stop
         style="stop-color:#666;stop-opacity:.1"
         offset=".6"
         id="stop11-0-0-0" />
      <stop
         style="stop-color:#000;stop-opacity:.13"
         offset="1"
         id="stop13-9-9-9" />
    </radialGradient>
    <radialGradient
       id="radialGradient3128"
       gradientUnits="userSpaceOnUse"
       cx="220"
       cy="220"
       r="405">
      <stop
         style="stop-color:#fff;stop-opacity:.3"
         offset="0"
         id="stop3130" />
      <stop
         style="stop-color:#fff;stop-opacity:.2"
         offset=".2"
         id="stop3132" />
      <stop
         style="stop-color:#666;stop-opacity:.1"
         offset=".6"
         id="stop3134" />
      <stop
         style="stop-color:#000;stop-opacity:.13"
         offset="1"
         id="stop3136" />
    </radialGradient>
  </defs>
  <use
     height="1052.3622"
     width="744.09448"
     y="0"
     x="0"
     xlink:href="#shield"
     id="use16"
     style="fill:#dddddd" />
  <path
     d="m 222.41889,185.55791 -47.64879,-35.0073 c -27.55205,3.24142 -51.06526,11.23614 -84.119068,10.35122 -1.729016,1.77171 1.445474,2.4598 -0.439633,3.53753 -6.286898,3.59424 -21.552354,12.3851 -30.187458,16.25642 10.419753,4.63243 16.891747,1.36933 25.28305,1.94486 l -17.50365,16.53122 c 9.121462,2.29432 19.487443,0.85509 29.791293,-0.39774 L 107.85391,184.0038 c 1.52567,-3.07378 3.87963,-0.34957 6.3588,3.25107 l 38.09359,-21.01795 c 3.68114,8.29048 22.64824,6.78556 22.35529,7.2693 0.56556,-0.005 0.33698,10.9791 7.88791,15.94139 -25.35603,-14.38931 -45.39182,-9.55388 -50.45205,-3.09165 -20.16089,25.7467 1.95308,38.8131 6.57496,42.96108 -3.2609,-7.50761 -18.70675,-26.13764 0.59166,-39.75407 5.91183,-4.17122 25.53608,-5.80047 41.34058,8.63647 l 10.69668,15.5588 24.31059,9.72425 6.80697,-37.92458 z"
     id="path2406"
     style="fill:#aa00aa;fill-opacity:1;fill-rule:evenodd;stroke:#000000;stroke-width:3;stroke-linecap:butt;stroke-linejoin:miter;stroke-miterlimit:4;stroke-opacity:1;stroke-dasharray:none"
     inkscape:connector-curvature="0" />
  <path
     d="m 108.38412,165.72865 c 0.10927,0.23592 -3.66064,4.52633 0.67406,6.37187 13.19446,5.61769 35.1966,-12.91322 42.58908,-8.45086 l 2.13923,1.59852 c 1.73591,1.28595 9.02637,6.74047 21.50279,6.74461 0.71187,2.4e-4 3.24606,0.70491 3.97916,0.66289 0.6505,-0.90007 16.2748,14.73216 16.02897,15.65961 -0.16882,0.63687 -16.15555,-13.41322 -16.19129,-13.42172 -7.2429,-1.72259 -21.67661,1.42943 -27.70985,-8.26546 -1.43327,-2.30316 -4.38575,-1.09345 -4.53394,-1.06015 -7.40061,1.66346 -18.99614,6.04928 -28.5414,9.62755 -5.32028,1.99445 -11.52734,0.2915 -11.41927,0.26894 -9.034378,-5.12881 1.06065,-6.64149 1.48246,-9.7358 z"
     id="path3187"
     style="fill:#000000;fill-opacity:1;fill-rule:nonzero;stroke:none"
     inkscape:connector-curvature="0" />
  <path
     d="m 94.632067,175.37872 c -5.718009,11.38535 3.234098,15.92942 6.647493,17.56465 l -1.966278,3.17127 c -2.621101,-0.56389 -12.286486,-12.38461 -11.737958,-14.59941 1.15371,-3.64355 4.324863,-4.59718 7.056743,-6.13651 z"
     id="path3189"
     style="fill:#000000;fill-opacity:1;fill-rule:nonzero;stroke:none"
     inkscape:connector-curvature="0" />
  <path
     d="m 91.645475,164.96589 c -3.137208,6.30603 -2.56867,13.93144 -2.722685,15.79778 l -2.624653,2.44044 c -1.780754,-2.00426 0.128107,-15.58015 1.879791,-17.04229 3.084408,-2.25674 0.354141,-1.56929 3.467547,-1.19593 z"
     id="path2664"
     style="fill:#000000;fill-opacity:1;fill-rule:nonzero;stroke:none"
     inkscape:connector-curvature="0" />
  <path
     d="m 74.029434,182.11947 -12.037967,-0.74666 c 0.09082,-2.67953 5.475197,-6.46145 7.752134,-6.3138 0.200605,0.24309 -10.758705,8.37734 4.285833,7.06046 z"
     id="path2666"
     style="fill:#000000;fill-opacity:1;fill-rule:nonzero;stroke:none"
     inkscape:connector-curvature="0" />
  <path
     d="m 97.735568,198.3701 c -9.52806,0.60394 -16.683305,4.7671 -29.175209,0.92526 0.09083,-2.67952 5.475197,-6.46145 7.752135,-6.31379 0.200604,0.24309 -18.700358,7.33237 21.423074,5.38853 z"
     id="path2668"
     style="fill:#000000;fill-opacity:1;fill-rule:nonzero;stroke:none"
     inkscape:connector-curvature="0" />
  <path
     d="m 306.12152,333.29911 c -22.21512,3.20414 -50.19592,10.92843 -66.77364,36.31849 -6.18551,20.5049 -27.69345,45.51288 -41.59681,46.18491 -25.27548,1.22172 -29.88281,-16.51001 -28.81552,-29.99245 -0.71879,0.0741 -15.16703,32.28467 29.60427,36.44746 8.81294,0.0774 29.83112,-9.46023 42.35516,-33.75097 4.26424,17.67744 16.21862,28.89142 30.14512,33.28324 -20.55572,14.91052 -27.11015,27.99416 -80.99098,42.90467 l -12.36174,-0.11796 -1.94485,3.49196 -40.26718,25.56282 c 11.79233,0.66891 23.10996,0.38839 32.48778,-3.77174 l -20.93663,20.5389 c 15.85925,-0.69038 31.76128,-1.27382 45.24726,-7.89737 5.52065,-11.49423 9.18921,-31.13782 20.42092,-17.50365 30.84935,-29.32573 55.1533,-28.10603 82.65607,-41.81428 l 15.67682,-17.04692 c -24.19403,-18.54694 9.8512,-45.47401 17.38562,-48.10556 l 20.42099,-19.4485 -42.71266,-25.28305 z"
     id="path2408"
     style="fill:#aa00aa;fill-opacity:1;fill-rule:evenodd;stroke:#000000;stroke-width:3;stroke-linecap:butt;stroke-linejoin:miter;stroke-miterlimit:4;stroke-opacity:1;stroke-dasharray:none"
     inkscape:connector-curvature="0" />
  <path
     d="m 184.01378,482.15303 c 3.40082,12.86769 13.70464,15.81769 11.02917,12.579 l -2.19805,3.97972 c -2.21108,-2.45156 -11.31888,-5.17093 -11.41201,-19.55865 -0.009,-1.4117 -18.32848,17.65989 -25.32771,26.31129 -0.13912,0.17195 -0.9955,0.65009 -0.18076,0.80238 16.77198,3.13507 35.80082,-5.46531 36.15941,-4.83269 0.75601,1.33371 -34.62578,11.17081 -38.46275,8.17342 l -5.26017,0.46175 18.22824,-20.15435 17.73064,-16.89154 c -0.42683,3.20563 -0.46214,6.21551 -0.30601,9.12967 z"
     id="path2399"
     style="fill:#000000;fill-opacity:1;fill-rule:nonzero;stroke:none"
     inkscape:connector-curvature="0" />
  <path
     d="m 148.33345,486.64621 c -4.30133,5.02541 -0.89623,4.79181 17.31506,4.56888 1.28991,1.32094 -4.33232,1.91677 -26.20293,3.2377 -2.2046,-1.81374 1.91067,-5.29082 1.77999,-5.34919 l 7.10788,-2.45739 z"
     id="path3175"
     style="fill:#000000;fill-opacity:1;fill-rule:nonzero;stroke:none"
     inkscape:connector-curvature="0" />
  <path
     d="m 302.85261,384.76717 c 0.1202,1.04906 -20.83413,8.89352 -10.11508,33.15801 0.21415,0.48471 1.15656,2.82432 3.757,5.46696 2.51456,2.5583 4.56443,3.06402 4.23055,3.3667 -3.14272,2.84929 -2.08586,8.7687 -7.30303,10.50516 -54.05022,17.98981 -65.01846,27.56306 -78.72491,39.14502 -7.69119,2.24371 -20.90261,-3.30181 -6.96501,-11.67901 -5.59271,4.94638 1.14035,12.31414 6.89653,7.81467 29.38614,-22.9706 75.11685,-38.19012 76.86931,-39.41086 1.68622,-1.17467 3.79004,-3.4483 2.68458,-4.8161 -10.64403,-13.16995 -7.35436,-25.04183 -7.34271,-25.36677 2.0537,-11.86656 10.67515,-17.5413 16.01277,-18.18378 z"
     id="path2401"
     style="fill:#000000;fill-opacity:1;fill-rule:nonzero;stroke:none"
     inkscape:connector-curvature="0" />
  <path
     d="m 176.78594,468.49418 c -0.14951,0.40845 -0.21256,12.40496 0.84414,12.22277 l -1.9274,1.67432 c -2.96607,0.0923 -1.88231,-13.3862 -0.63161,-14.03767 l 1.71487,0.14058 z"
     id="path3177"
     style="fill:#000000;fill-opacity:1;fill-rule:nonzero;stroke:none"
     inkscape:connector-curvature="0" />
  <path
     inkscape:connector-curvature="0"
     style="fill:#aa00aa;fill-opacity:1;fill-rule:evenodd;stroke:#000000;stroke-width:3;stroke-linecap:butt;stroke-linejoin:miter;stroke-miterlimit:4;stroke-opacity:1;stroke-dasharray:none"
     id="path3184"
     d="m 296.49658,67.803094 c 8.52703,-11.232579 9.33422,-22.26503 9.87594,-27.295367 4.85369,5.30288 7.46267,13.155818 8.99453,21.036213 l -9.59116,9.134445 -9.27931,-2.875291 z" />
  <path
     inkscape:connector-curvature="0"
     style="fill:#aa00aa;fill-opacity:1;fill-rule:evenodd;stroke:#000000;stroke-width:3;stroke-linecap:butt;stroke-linejoin:miter;stroke-miterlimit:4;stroke-opacity:1;stroke-dasharray:none"
     id="path2384"
     d="m 263.72532,131.31403 -6.06331,-8.31278 c -2.08603,-0.42146 -2.5943,-1.78954 -6.31889,-1.22788 l -16.27438,6.24498 c -5.04518,-3.65882 -4.98774,-7.31763 -5.31884,-10.97646 2.26898,-3.37854 4.53798,-5.19552 6.80697,-7.44063 l 0.91344,-8.69285 c 7.87047,-2.96184 13.50142,-4.641593 20.20016,-5.259865 l 36.25944,-29.172756 c 28.3027,-18.621248 53.74914,-1.538517 79.7389,8.751827 11.87736,5.463687 22.34435,2.464404 33.06245,0.972429 -3.35544,9.286101 -12.45436,12.828676 -24.31065,13.61395 14.95344,1.388755 -0.52895,17.610025 37.8656,16.133485 -6.71853,6.32307 -15.38077,11.69828 -26.93296,7.14574 12.78049,8.77465 -1.02637,16.73339 22.1298,30.20415 -11.58722,3.22742 -16.77183,-2.08208 -21.15738,-8.45692 0.79186,8.2911 2.71211,16.20608 0.0799,25.63853 -0.68547,9.70087 4.82064,17.33786 11.35328,24.63267 -9.68366,-0.82678 -19.57716,-1.06602 -23.33823,-18.47608 0.13545,7.6288 2.16999,14.84888 -3.13123,25.73966 -3.8867,9.40015 -2.78745,17.88685 0.21399,27.74372 -21.87574,-18.00121 -13.2459,-22.44444 -15.16104,-31.57432 -7.69062,16.10897 -8.63007,34.46835 -9.1496,52.96768 -10.45302,-8.71158 -12.79566,-21.47835 -13.61395,-35.00731 -3.61707,-0.47872 -3.43621,10.43653 -0.97241,28.20033 9.03691,25.55542 17.49282,51.54665 35.97968,70.01461 l 28.48014,27.90542 c 15.2731,30.88644 21.99275,71.5016 74.83286,57.78595 11.1855,-2.02913 47.61831,-43.69329 5.59862,-102.2226 -38.86755,-30.5151 -59.72003,-20.18322 -67.18039,-4.32762 -12.21626,25.96323 11.3208,47.03128 40.92492,59.75586 -93.65344,-14.35688 -61.80845,-97.77871 -4.86215,-86.54584 -35.40364,-14.12282 -38.52984,-41.35496 -35.25342,-71.1641 2.1494,-19.55552 17.09645,-31.14925 3.50222,-57.65274 32.93593,35.58753 5.83248,54.21391 7.37303,71.17729 1.53664,16.92072 11.45585,30.95636 25.35067,41.10832 -21.5295,-62.24023 -4.08672,-84.08554 -3.56504,-86.03192 31.15409,-57.393309 11.22629,-72.743762 9.39959,-85.114895 7.39635,12.895995 20.71329,13.65204 18.74204,46.731095 0.78309,7.59855 -39.45971,74.58273 -10.16719,117.31384 -0.12587,-41.09324 24.3792,-49.68876 39.33256,-45.38374 11.24553,3.23753 17.15663,13.54325 14.06619,25.37771 -7.56229,28.95904 -8.02626,34.16281 0.26156,45.58399 -8.31113,-2.36374 -15.78306,-9.01906 -14.17155,-16.83791 7.49492,-36.36278 -3.52513,-38.86876 -7.63108,-39.23598 -23.21819,-3.69088 -17.48556,21.56903 -19.0392,39.54266 9.71615,36.01203 30.42927,50.87243 35.64094,78.86928 1.62045,3.53866 8.20313,61.41844 -32.85524,85.67625 -9.63226,3.39758 -19.54891,6.43974 -33.9623,3.86096 -20.92089,-8.08517 -36.82247,-21.34039 -50.50713,-39.07395 -2.05945,34.14006 -6.56018,72.37031 39.86941,88.77046 l 0.97241,13.33418 c -23.46538,14.01921 -30.21823,68.18671 -30.48386,75.33346 -18.64953,1.12507 -23.76566,9.86265 -22.99949,21.90905 -13.15444,7.94269 -26.98548,13.17908 -41.35753,16.25145 l 9.2675,-10.4169 -22.82245,2.06281 c 9.61781,-9.14017 16.68634,-20.0538 24.76736,-30.26313 l 22.36574,-7.77941 c 24.56717,-22.67483 22.19748,-67.7822 23.33823,-70.98703 -16.26659,-4.62419 -30.89389,-15.80553 -44.73156,-30.14518 0.77127,2.78723 12.53018,47.6154 -28.47966,58.87591 -15.48565,4.25206 -29.76671,-16.09279 -23.51558,-33.23897 3.93163,32.41258 21.34208,29.373 27.83593,25.96839 7.95163,-4.1688 24.55975,-11.4235 13.46261,-53.55018 l -15.55877,-23.3382 -7.77947,-48.62126 c -11.93706,-13.02225 -21.09696,-37.54667 -34.76087,-46.88997 -19.59121,-13.39629 -35.00032,-20.61523 -50.81251,-46.46284 l -14.58637,-6.80697 -7.32268,8.2951 c -27.34178,-4.68709 -46.12731,11.42985 -50.7695,20.65696 -6.18598,12.29563 -0.95072,27.97092 23.08488,36.20042 -12.32765,-2.39774 -44.19342,-4.58076 -27.03867,-42.40492 5.01826,-11.06467 16.95487,-17.17852 43.56989,-22.74756 l -35.01958,-6.70588 c -6.71064,3.67357 -13.82213,4.14016 -21.06643,3.54439 l -2.25949,1.21664 -19.44851,36.95215 -2.91727,1.94485 c -0.38426,23.71175 -12.1146,40.5172 -40.487973,47.19211 l 8.397943,-18.99178 -22.365779,7.7794 21.39335,-34.03488 6.80698,-3.8897 39.869429,-55.42823 c 23.62759,-2.47755 40.98184,-13.36486 63.50254,-22.48374 -0.7799,-13.24633 4.36624,-27.23341 13.31904,-41.69632 25.21478,-17.02014 48.7243,-11.1836 64.18003,-24.31063 8.29843,-6.2621 15.62741,-10.55947 18.13734,-21.45233 l -15.22003,-0.91344 c -3.39925,7.57635 -6.84097,20.0947 -24.0747,14.18864 -5.57859,0.28057 -7.47432,1.89499 -8.29508,-3.77174 l 12.86182,-13.64842 z" />
  <path
     inkscape:connector-curvature="0"
     style="fill:#000000;fill-opacity:1;fill-rule:nonzero;stroke:none"
     id="path3185"
     d="m 102.80361,310.48847 c -2.26214,13.65714 19.74862,18.19047 20.44511,16.14347 l -4.89216,2.5443 c 0.12062,4.16889 -17.64056,-4.85188 -18.909155,-10.66824 l 3.356205,-8.01953 z" />
  <path
     inkscape:connector-curvature="0"
     style="fill:#000000;fill-opacity:1;fill-rule:nonzero;stroke:none"
     id="path2670"
     d="m 92.896998,305.02959 c -2.262139,13.65714 7.266252,13.35859 7.962752,12.31823 l -2.878875,4.96025 c 0.12062,4.16888 -6.768826,-6.86517 -8.037425,-12.68153 l 2.953548,-4.59695 z" />
  <path
     inkscape:connector-curvature="0"
     style="fill:#000000;fill-opacity:1;fill-rule:nonzero;stroke:none"
     id="path2672"
     d="m 87.960855,331.90947 c 11.339966,-6.14918 11.528837,-14.92922 11.424061,-14.92332 l 0.962584,2.40454 c -0.0894,0.3157 -4.668633,9.04299 -5.57724,13.43565 l -6.809405,-0.91687 z" />
  <path
     inkscape:connector-curvature="0"
     style="fill:#000000;fill-opacity:1;fill-rule:nonzero;stroke:none"
     id="path2674"
     d="m 109.40594,294.96317 c -0.19065,10.46243 5.57594,8.73113 8.44904,6.92841 1.5474,-0.97091 18.0109,-37.55415 24.25769,-40.93252 0.0767,-0.0415 0.70725,-0.68688 1.77569,-0.46626 23.89243,4.93358 35.17948,-8.56264 35.52423,-8.26801 13.7033,5.27716 26.76855,7.36409 39.87099,9.637 10.24933,-6.40218 10.32771,-8.35458 15.48988,-12.53113 -3.83519,5.36328 -7.38881,10.72655 -13.00647,16.08983 -13.71655,-3.07277 -26.32111,-4.89455 -42.30632,-10.51958 -0.19699,-0.42987 -13.56387,13.34563 -35.20258,8.06454 -0.89022,-0.21726 -1.41165,0.44794 -1.4967,0.54046 -4.89619,5.32627 -19.85126,34.44748 -20.80326,37.29106 -2.82886,8.44969 -13.79697,4.8351 -14.90176,-0.23021 l 2.34957,-5.60359 z" />
  <path
     inkscape:connector-curvature="0"
     style="fill:#000000;fill-opacity:1;fill-rule:nonzero;stroke:none"
     id="path2680"
     d="m 360.48285,306.54631 c -0.047,0.0429 1.40063,-0.0936 1.4146,0.0259 0.48353,4.12752 2.34064,11.45387 10.08107,14.54144 -0.662,-0.0702 -1.60783,0.60158 -2.29131,0.40322 -2.56333,-0.74388 -4.81784,-2.64951 -8.63758,-0.57304 -1.72684,8.31843 -10.26313,16.66622 -13.52558,17.30082 -3.6403,2.00859 -14.71462,1.60114 -19.49863,-1.87704 -19.4038,-12.26554 -46.65044,-32.99843 -56.18971,-60.7066 0.16889,-0.32687 0.59695,0.83458 0.57085,0.84506 -2.2961,0.9229 -21.35597,-0.29814 -30.46679,-1.68466 -3.34294,-0.50874 -2.6667,-3.38972 -2.43011,-3.32719 11.75771,3.10749 32.57388,2.13427 34.85242,2.01316 15.56603,37.73423 32.6205,44.3456 47.76669,56.12858 9.03323,7.01632 20.12934,9.61044 25.35338,6.77712 8.34401,-4.52548 11.88342,-15.79538 11.77024,-16.01063 2.0525,-4.13131 1.20221,-8.82887 1.23046,-13.85606 z" />
  <path
     inkscape:connector-curvature="0"
     style="fill:#000000;fill-opacity:1;fill-rule:nonzero;stroke:none"
     id="path2409"
     d="m 312.8679,231.19966 c 25.00465,16.86766 30.88646,37.5626 38.15989,50.92774 1.9805,3.6393 -0.36676,3.30666 0.21167,5.12373 -3.81295,-12.13867 -19.14639,-38.50268 -35.46007,-51.00913 -0.5137,-0.3938 -7.32802,-3.54573 -7.84156,-3.95842 -1.41125,-1.13418 -9.44286,-2.07217 -13.82107,-2.77788 -1.84593,-0.29753 0.0418,-2.0514 -0.0852,-2.12788 7.34806,0.25136 9.74401,-0.35516 18.83631,3.82184 z" />
  <path
     inkscape:connector-curvature="0"
     style="fill:#000000;fill-opacity:1;fill-rule:nonzero;stroke:none"
     id="path2411"
     d="m 243.11548,273.61108 c 4.54838,11.05084 30.68165,32.03405 47.55725,46.26748 9.82661,8.28805 15.01936,14.63244 14.9053,14.48952 l -5.24008,-0.41332 c -15.29609,-24.228 -27.06809,-8.60103 -61.76177,-57.14224 -4.59007,-6.42213 -9.54785,-8.95148 -9.64835,-9.14269 l 14.18765,5.94125 z" />
  <path
     inkscape:connector-curvature="0"
     style="fill:#000000;fill-opacity:1;fill-rule:nonzero;stroke:none"
     id="path3183"
     d="m 392.57951,409.02847 c -2.82466,6.14259 18.96616,47.63141 38.14552,53.50782 l -0.10879,3.73909 C 404.0403,453.40797 393.46979,421.04635 391.31847,415.02299 l 1.26104,-5.99452 z" />
  <path
     inkscape:connector-curvature="0"
     style="fill:#000000;fill-opacity:1;fill-rule:nonzero;stroke:none"
     id="path2413"
     d="m 397.67975,351.40394 c -0.0924,0.66426 2.96784,19.62633 6.19988,22.82556 l -3.92829,-0.25089 c -2.49053,-9.57034 -3.71597,-18.96474 -4.15408,-19.79824 l 1.88249,-2.77643 z" />
  <path
     inkscape:connector-curvature="0"
     style="fill:#000000;fill-opacity:1;fill-rule:nonzero;stroke:none"
     id="path2415"
     d="m 411.22145,471.99135 c -1.55412,-0.0219 -2.31757,0.0257 -6.91209,-0.6694 l 0.62689,-2.20716 c 2.37384,0.68012 4.19279,1.91504 6.2852,2.87656 z" />
  <path
     inkscape:connector-curvature="0"
     style="fill:#000000;fill-opacity:1;fill-rule:nonzero;stroke:none"
     id="path2417"
     d="m 401.12394,545.71363 c 4.62668,-10.22709 9.78662,-25.12755 15.35803,-42.27906 4.66036,-14.34685 11.86179,-28.55161 13.58776,-32.92099 l 0.49207,-6.72649 -2.68098,-0.36223 c -2.14676,12.48118 -6.00489,20.01168 -14.98903,43.24643 -5.25948,13.60193 -8.21351,29.86302 -14.63241,37.0099 -3.547,2.39436 -6.54342,-4.19735 -6.55363,-7.61644 0.0287,0.35077 -2.01802,5.08836 1.40749,10.01305 0.52887,0.80007 6.82046,2.04941 8.0107,-0.36417 z" />
  <path
     inkscape:connector-curvature="0"
     style="fill:#000000;fill-opacity:1;fill-rule:nonzero;stroke:none"
     id="path2419"
     d="m 367.34234,557.42125 c -4.086,9.38586 12.81489,13.54521 19.86994,13.96644 l -3.17609,2.4123 c -2.11132,-0.47521 -18.71442,-2.29784 -21.00062,-11.41895 0.89714,-1.54558 1.70122,-3.07254 4.30677,-4.95979 z" />
  <path
     inkscape:connector-curvature="0"
     style="fill:#000000;fill-opacity:1;fill-rule:nonzero;stroke:none"
     id="path2421"
     d="m 358.86464,549.38585 c -0.95948,8.37061 1.22391,12.78577 3.27139,12.99333 0.77231,0.0783 1.54406,0.47303 2.47377,0.57709 l -3.83609,5.58046 c -2.11125,-0.47521 -3.92964,-5.06998 -6.21585,-14.19109 0.89715,-1.54557 1.70122,-3.07254 4.30678,-4.95979 z" />
  <path
     inkscape:connector-curvature="0"
     style="fill:#000000;fill-opacity:1;fill-rule:nonzero;stroke:none"
     id="path2423"
     d="m 360.64672,563.97261 c -0.022,1.11633 1.86038,1.37265 1.91697,1.6898 l -5.8162,10.99274 c -2.11125,-0.47521 -3.42799,0.52512 -3.44707,-0.22716 0.89715,-1.54557 6.42018,-10.00835 7.3463,-12.45538 z" />
  <path
     inkscape:connector-curvature="0"
     style="fill:#aa00aa;fill-opacity:1;fill-rule:evenodd;stroke:#000000;stroke-width:3;stroke-linecap:butt;stroke-linejoin:miter;stroke-miterlimit:4;stroke-opacity:1;stroke-dasharray:none"
     id="path2410"
     d="M 292.95749,68.42064 C 228.72086,66.091674 164.05217,65.778818 103.33463,47.027287 c 13.63671,8.352197 47.67076,29.132498 47.95657,17.232855 8.64515,7.388006 42.77024,18.440926 37.34604,7.360888 13.24468,6.035559 36.1274,12.017244 30.53908,4.640562 15.2625,5.118119 33.95023,8.60819 27.10479,-0.529292 13.46532,5.388723 25.42146,7.099421 36.4526,5.185484 10.12329,-2.570776 10.6908,-8.571048 10.22378,-12.497144 z" />
  <path
     inkscape:connector-curvature="0"
     style="fill:#000000;fill-opacity:1;fill-rule:nonzero;stroke:none"
     id="path2425"
     d="m 302.93217,71.15428 c 0.0487,0.105123 0.34641,0.410305 0.005,0.723137 -1.50024,1.373443 -6.91313,4.417036 -4.33822,5.291744 6.14648,2.088066 8.51865,0.619645 12.94236,1.40784 1.73315,0.308805 2.98995,0.800311 6.10274,2.234172 -0.20673,0.01205 -1.07131,1.011371 -1.5566,0.596122 -2.34487,-2.006429 -7.09974,-1.539737 -11.66472,-1.664923 -4.3166,-0.214373 -10.12968,0.464744 -10.72847,-1.377206 -1.18776,-3.430088 6.09101,-5.652642 9.23828,-7.210886 z" />
  <path
     inkscape:connector-curvature="0"
     style="fill:#000000;fill-opacity:1;fill-rule:nonzero;stroke:none"
     id="path2427"
     d="m 254.71396,103.95297 c 0.0487,0.10513 0.84087,0.45975 0.49909,0.77258 -0.98789,0.90442 -5.76455,3.22227 -10.46794,3.47707 -1.79102,0.0981 -1.96869,2.30711 -1.08943,2.60581 1.99176,0.57454 6.8199,-0.15087 7.54113,0.1424 0.0713,0.029 0.33899,1.57326 -0.42247,1.55393 -7.60706,-0.1931 -6.75174,0.38817 -8.6549,1.72655 -0.57053,0.40126 0.12915,1.22307 -1.24355,1.47431 -0.62361,0.13846 -2.89381,0.40184 -3.52459,-0.32791 -0.46926,-0.54287 -0.706,-2.17531 -0.16129,-2.34277 3.48586,-1.07169 3.22286,-3.34536 3.26301,-4.17423 -0.75651,-5.4849 11.45983,-2.80559 14.26094,-4.90774 z" />
  <path
     inkscape:connector-curvature="0"
     style="fill:#ffffff;fill-opacity:1;fill-rule:evenodd;stroke:#000000;stroke-width:1.60000002000000000;stroke-linecap:butt;stroke-linejoin:miter;stroke-miterlimit:4;stroke-opacity:1;stroke-dasharray:none"
     id="path2429"
     d="m 293.98642,85.18597 c 1.04848,5.893151 -1.4874,11.355889 10.04204,12.390847 6.27499,-1.102467 12.05048,-4.836284 10.49836,-12.743592 -5.80822,-0.531526 -11.69354,-1.014851 -20.5404,0.352745 z" />
  <path
     inkscape:connector-curvature="0"
     style="fill:#000000;fill-rule:evenodd;stroke:#000000;stroke-width:0.89631701;stroke-linecap:butt;stroke-linejoin:miter;stroke-miterlimit:4;stroke-opacity:1;stroke-dasharray:none"
     id="path3190"
     d="m 297.86442,85.114645 c 0.58753,3.299971 -0.83361,6.358925 5.62783,6.938462 3.51666,-0.617346 6.75341,-2.708158 5.88364,-7.135986 -3.2551,-0.297638 -6.55347,-0.568282 -11.51147,0.197524 z" />
  <path
     inkscape:connector-curvature="0"
     style="fill:#f9f9f9;fill-rule:evenodd;stroke:none"
     id="path3192"
     d="m 302.8656,85.132165 c -0.10998,1.683632 -1.08104,3.5439 0.87344,4.804054 -2.04196,0.798124 -3.65954,-0.120117 -3.78501,-2.474812 0.35072,-1.494075 1.47877,-2.088122 2.91157,-2.329242 z" />
  <path
     inkscape:connector-curvature="0"
     style="fill:#000000;fill-opacity:1;fill-rule:nonzero;stroke:none"
     id="path2676"
     d="m 318.28804,83.996166 0.49423,1.525259 c -0.22253,-1.237949 -20.07969,0.496575 -20.51789,-0.336932 1.42274,0.0064 -6.95631,0.546205 -5.0842,0.34485 0.82771,-0.08901 1.72605,3.149029 1.16669,3.962629 -0.0433,0.06282 0.28311,2.925445 1.66778,4.977896 0.93051,1.379369 3.0689,1.997506 3.15414,2.638214 0.13633,1.024909 -3.76186,-1.996068 -4.24843,-2.326655 -1.44525,-0.981999 -1.87523,-5.554288 -1.79924,-5.634241 0.56064,-0.590312 -0.19268,-3.310666 -0.69337,-3.103477 -0.36133,0.149506 -1.58278,-0.155316 -2.37632,0.0799 -0.48489,0.143695 -0.86163,1.941698 -0.0831,1.979994 0.0542,0.0024 2.47401,0.455684 3.56001,-0.132936 1.25927,-0.682517 1.48117,0.500454 0.0935,0.529332 -0.12451,0.0024 0.64533,0.842199 -0.20505,1.040761 -1.31371,0.306753 -4.41788,0.0064 -4.54734,-0.112351 -0.32454,-0.297774 -0.75946,-1.937762 -0.95446,-1.912931 -0.75962,0.09677 -1.52315,-1.387152 -1.98425,-1.489453 -0.21367,-0.04741 -1.59403,1.644067 -3.46599,2.263297 -4.84522,1.602713 -16.92404,10.732093 -17.20787,10.503625 -0.4595,-0.369841 14.04153,-10.735487 14.67567,-11.099389 0.50812,-0.29154 5.68698,-3.007776 5.84821,-3.186343 0.21231,-0.235181 2.65847,-1.541941 3.71876,-0.106907 0.12356,0.167209 3.95774,0.178312 4.34709,0.07064 1.12726,-0.311678 2.66845,-0.395103 4.09047,-0.506448 3.21751,-0.251927 12.51981,-1.504371 20.35091,0.03169 z" />
  <path
     inkscape:connector-curvature="0"
     style="fill:#000000;fill-opacity:1;fill-rule:nonzero;stroke:none"
     id="path3195"
     d="m 237.98884,107.37734 c -1.5003,1.37345 -7.34453,7.34463 -7.30012,10.06361 0.0583,3.40446 2.26589,8.18883 7.51229,8.97702 -3.75404,-0.37481 1.02096,0.46873 -1.21298,1.02028 -0.35661,0.44834 -7.62824,3.03754 -11.36853,-10.28222 -0.25482,-4.68901 11.09625,-9.61406 12.36934,-9.77869 z" />
  <path
     inkscape:connector-curvature="0"
     style="fill:#000000;fill-opacity:1;fill-rule:nonzero;stroke:none"
     id="path3197"
     d="m 253.18219,141.43723 c 1.39456,-1.48064 7.76844,-8.03225 7.52309,-10.7405 -0.30993,-3.39083 -3.85262,-7.83427 -9.1429,-8.23229 3.77144,0.0961 -1.05287,-0.39193 1.1342,-1.10719 0.30123,-0.44232 7.00348,-2.28783 12.39601,7.63449 0.22261,0.40952 -1.00107,-2.25825 1.2386,0.18042 0.41984,0.45715 1.09861,1.31621 1.26048,1.76289 0.14087,1.09129 -1.86094,2.23359 -2.75721,3.34642 -2.92873,3.63639 -10.68952,6.95796 -11.65227,7.15576 z" />
  <path
     inkscape:connector-curvature="0"
     style="fill:#aa00aa;fill-opacity:1;fill-rule:evenodd;stroke:#000000;stroke-width:3;stroke-linecap:butt;stroke-linejoin:miter;stroke-miterlimit:4;stroke-opacity:1;stroke-dasharray:none"
     id="path2412"
     d="m 207.4431,134.94329 c 21.83657,12.84112 32.21885,-5.4286 54.33396,-8.69593 0.15892,0.16287 8.62968,4.59309 -2.24613,9.37582 -14.31227,-0.18671 -26.27735,10.58005 -39.50529,15.45359 -15.03808,-3.97648 -10.89552,-9.93182 -12.58254,-16.13348 z" />
  <path
     inkscape:connector-curvature="0"
     style="fill:#000000;fill-opacity:1;fill-rule:nonzero;stroke:none"
     id="path2389"
     d="m 344.11641,87.070781 c -0.2847,0.877598 6.4901,4.218371 9.12359,8.209439 5.98182,8.45668 10.76199,17.5142 10.79783,28.94387 2.13543,20.16583 -8.53509,36.32472 -24.4172,50.9675 14.58308,-16.56972 24.83233,-36.98328 19.47835,-56.45613 -2.57993,-11.37532 -7.37734,-15.41848 -10.75114,-20.910938 0.0893,6.495988 0.99716,21.165448 -19.46502,35.240038 -6.52378,4.48725 -21.82386,8.35256 -30.84855,6.86458 -2.85211,-0.47026 1.01176,-2.05888 -1.83556,-3.50106 3.6526,-0.0797 -0.15564,-3.73331 2.9352,-3.27978 42.63029,6.25519 48.01612,-24.21753 44.9825,-46.077519 z" />
  <path
     inkscape:connector-curvature="0"
     style="fill:#000000;fill-opacity:1;fill-rule:nonzero;stroke:none"
     id="path2403"
     d="m 338.31258,67.53709 c 16.69361,5.480887 26.45893,11.501159 33.9105,18.997391 0.73353,1.279079 14.84577,13.825749 15.37072,38.902579 0.12556,6.06731 -1.78782,13.93834 -2.7477,22.0172 -7.30511,15.9726 -15.51743,26.76887 -21.6695,33.44868 -8.45823,9.1839 -14.31162,12.64999 -20.27429,29.83554 l -3.90034,0.47081 c -1.96151,-7.69512 6.53734,-17.68024 22.54477,-33.59618 23.7362,-26.00779 30.56304,-62.75214 6.10857,-90.891186 -7.32595,-6.917949 -24.70543,-13.190595 -31.29178,-13.933677 l 1.94905,-5.251157 z" />
  <path
     inkscape:connector-curvature="0"
     style="fill:#000000;fill-opacity:1;fill-rule:nonzero;stroke:none"
     id="path3179"
     d="m 286.88396,209.52493 c 1.76811,0.85874 14.62395,8.11002 18.98213,20.04178 -0.13489,-0.10434 -2.3914,2.3994 -3.65124,-0.6379 -2.02424,-4.88006 -12.06101,-14.92877 -16.88221,-16.53263 -9.43599,-3.13904 -21.70422,0.26598 -21.9135,-0.13215 7.38285,-3.0214 14.9943,-4.63796 23.46482,-2.7391 z" />
  <path
     inkscape:connector-curvature="0"
     style="fill:#000000;fill-opacity:1;fill-rule:nonzero;stroke:none"
     id="path3181"
     d="m 204.13058,228.88181 c 1.46031,-1.94201 1.14624,1.22565 2.09205,-1.41393 15.55441,-43.40976 71.93979,-38.64319 80.00747,-38.42753 -27.7629,-4.40854 -64.40127,1.19039 -79.65414,25.06915 -2.73005,4.27398 -0.87855,9.07882 -2.44538,14.77231 z" />
  <path
     inkscape:connector-curvature="0"
     style="fill:#000000;fill-opacity:1;fill-rule:nonzero;stroke:none"
     id="path3454"
     d="m 205.51157,230.26831 c 2.32678,-8.66525 0.60471,-6.62291 0.92261,-9.40874 2.06554,-18.10081 7.25334,-33.51604 13.22333,-37.80726 0.82196,-0.59082 5.54648,-4.7564 10.50345,-7.14888 4.18963,-2.02213 29.55666,-5.96176 42.61372,-14.00836 -27.90394,3.40317 -69.7053,11.81937 -70.95953,47.94777 -0.17596,5.06844 -1.57766,15.97803 3.69642,20.42547 z" />
  <path
     inkscape:connector-curvature="0"
     style="fill:#000000;fill-opacity:1;fill-rule:nonzero;stroke:none"
     id="path3199"
     d="m 281.93043,135.55628 c 0.89172,0.70084 -0.61068,-3.56944 -0.0675,-3.73561 1.10659,2.57552 13.33171,2.20088 16.07271,-0.81554 0.57054,1.37832 1.18593,2.2126 1.09845,2.93649 -0.27705,2.29214 4.66938,10.11384 -10.27623,19.42862 0.0482,0.0268 -9.74847,6.39374 -9.41284,5.29351 0.52663,-1.7263 13.19083,-11.58578 16.15979,-15.64494 2.94957,-4.03262 1.63593,-6.87707 1.59467,-7.16537 -0.15237,-1.06475 8.31583,-4.15279 5.73758,0.56973 -8.036,14.71935 -4.80763,-0.41339 -5.416,-0.12909 -4.5851,1.01426 -15.12105,0.49154 -15.4906,-0.7378 z" />
  <path
     inkscape:connector-curvature="0"
     style="fill:#aa00aa;fill-opacity:1;fill-rule:evenodd;stroke:none"
     id="path3301"
     d="M 310.05003,68.504647 C 316.80496,61.5612 323.68528,53.690363 330.75836,40.38355 l 7.53943,11.579004 -0.19975,13.3576 -28.04801,3.184493 z" />
  <path
     inkscape:connector-curvature="0"
     style="fill:#000000;fill-opacity:1;fill-rule:nonzero;stroke:none"
     id="path2678"
     d="m 330.05407,38.084129 c 10.11739,10.620915 11.76426,20.887136 5.20265,35.947106 -0.42,0.964001 -0.0535,1.829036 2.30193,6.828019 -1.35865,-1.855374 -4.39713,-3.250603 -4.12184,-7.068923 0.17759,-2.463131 3.83609,-11.083853 3.82164,-13.484492 -0.042,-6.998069 -2.60962,-14.238482 -5.6643,-16.9973 -0.45321,-0.409339 -1.17922,-1.380568 -1.38515,-0.916599 -1.81704,4.093156 -17.30118,24.677765 -17.22831,23.969544 l -7.58071,0.08872 -0.42695,-0.650245 7.12776,-0.765276 17.95328,-26.950552 z" />
  <path
     inkscape:connector-curvature="0"
     style="fill:#000000;fill-opacity:1;fill-rule:nonzero;stroke:none"
     id="path2407"
     d="m 329.80034,46.93044 c 2.13782,2.244181 3.54452,3.562117 3.31856,8.26201 0.20074,0.05894 -1.73387,0.527609 -1.99176,0.419541 0.41217,-1.476253 -0.0196,-3.643634 -0.13697,-3.860643 -0.22453,-0.414955 -0.91103,-1.851486 -1.07011,-1.493066 -0.55872,1.25861 -3.42057,5.045916 -6.23396,8.802926 -2.82992,3.779119 -4.28251,5.172647 -5.94982,8.640954 -0.20289,0.42196 -0.33363,2.7211 2.76264,1.83893 0.90999,-0.259282 1.35457,-1.937949 2.43761,-2.851596 0.52257,-0.440857 2.52486,0.313007 2.38359,0.164954 -0.10018,-0.104946 -0.43533,3.597454 1.04816,3.959153 2.05944,0.502153 5.21381,-2.746965 4.87818,-2.159865 -0.1649,0.288602 -0.93138,3.565552 -4.74864,4.143627 -1.81999,0.275616 -3.52401,-2.858811 -3.52808,-2.763585 -0.0507,1.204441 -4.99105,1.90033 -5.21151,1.518925 -2.67802,-1.016282 -2.06239,-2.776813 -1.82701,-4.406428 1.39792,-4.089025 6.73457,-9.444237 7.02335,-9.928711 2.03327,-3.411529 5.19634,-7.785854 5.27887,-7.962729 l 1.5669,-2.324397 z" />
  <use
     height="1052.3622"
     width="744.09448"
     y="0"
     x="0"
     style="fill:url(#rg-1-1-1);stroke:#000000;stroke-width:3"
     id="shine"
     xlink:href="#shield" />
</svg>
