<?xml version="1.0" encoding="UTF-8"?>
<svg xmlns="http://www.w3.org/2000/svg" xmlns:xlink="http://www.w3.org/1999/xlink" width="600" height="660">
<defs>
  <path id="shield" d="m2,2v257c0,286 298,398 298,398c0,0 298-112 298-398V2z"/>
</defs>
<use xlink:href="#shield" fill="#98673a"/>
<path fill="#60361d" d="m9,2 c-2.7,25 5,57.3 -4,74.2 c0,35.3 -4.3,70.5 -3,105.8 c4.6,-27 -0.2,19 0,28.7 c0.2,36 -1.4,72 4.4,107.5 c0.2,-15 -0.5,-32.7 1.8,-42.4 c-6.2,-13.6 0.7,-61 1,-54.3 c-9.2,-3 4,-62.8 1.8,-34.3 c-3.8,15 0.5,40.7 3.5,10.5 c3.3,-29.4 -6.6,-51.3 -1.3,-82.6 c4,-32 0,-64 1.4,-96 c-2.6,-7.4 7.8,-20.6 -5.6,-17.1 z m9.4,0 c1.4,0 0.4,0 0,0 z m14,0 c14.7,16 9.5,-5 0,0 z m86.6,0 c-3.3,34.6 2.8,69.7 -0.2,104.5 c3,27 1.8,54.8 2.5,82.2 c1.7,12.5 -3.3,42 3,45.2 c-0.3,-77.3 1.4,-154.7 0,-232 h-5.3 z m50,0 c-3.3,14.3 5.6,0 0,0 z m4,0 c-1.5,17.7 2.4,25.3 9.8,10 c4.2,-8.7 -0.2,-11 -9.8,-10 z m44.4,0 c6.3,14.6 4.3,-4.2 0,0 z m22.8,0 c10,19.8 -6,-8.6 -3.4,12 c2,18.5 -3,39.8 -4.8,53.7 c-4.6,-15.6 -2.6,29.7 -5.2,38.7 c3.3,16.8 7,-38.6 9,-3.6 c-6.8,18.2 -1,49.3 -9,58.7 c-14.3,-5.6 5,21.7 -3.5,36.5 c-4,17.3 3.8,44 6,54 c3,-18.3 9.8,52 9.5,7 c3,-18.2 3.7,-50 13,-59.2 c-1.8,18.8 -3.7,47 -9,68.6 c15.8,-5 -22,16 -8.4,19 c10.2,-17 -11,49.4 2,19.2 c5.5,-14 12.5,-51.5 10,-15.2 c1.5,13.4 -17,45.3 -6.6,45.6 c4.5,-18.4 14.7,-15.2 7,5.5 c-6.2,9.8 -22,58 -8,46.6 c4,-9.5 11,-55 11.8,-30.2 c1.5,16 -5,27 -11.8,49.4 c-4,13.3 -12,38 -9,12.4 c-4.4,-14.5 15,-19 2.6,-24.6 c-12.8,22.3 -8.4,37.3 -15.2,64.3 c-7.2,17.6 3.4,49.2 -7,70.5 c-3.3,13.4 -0.2,43 -5,36.2 c4,19.5 -18.2,29 -2.7,36 c13,1.2 6.4,9.8 18.2,7.3 c-6.3,-10 -11,-19 3.5,-5 c-9,15.3 31,32 35.6,28 c-4.3,-20.3 0.6,-38 -2.7,-53.4 c2.3,16 -11.5,50.6 -6.8,14 c5.4,-16.4 -3.3,-26.7 -7.4,-12 c3.8,-14 -7.3,-29.8 8.4,-10 c-9,-9.2 -1.2,-31.4 5.5,-19.5 c-6.2,-6.3 -9.5,-19 -1,-10.4 c7.6,9 -11,-22 3.5,-19 c-2,-8.6 8,-1.3 1,-14.3 c5.7,-3.8 5.4,-35 12.4,-52 c0.3,-26.5 13.7,-51 9.4,-76.8 c3,-22.8 2,-44.5 8.2,-67 c-1.4,-34.2 2.4,-68.7 6.6,-102.3 c-15.2,-10.6 -0.5,-45.3 -4.3,-66.6 c5,-21.7 4,25 3,33 c-1,21 -3.2,38.2 4.6,16 c-5,-15.6 5.7,-28.8 3,-4.4 c1,23.3 -2,47.7 -1.3,73 c0,33.6 5.6,-38.6 5.6,-49.7 c0.6,-22 6.8,-34.6 -5.4,-49.8 c3.6,-2 6.3,-12 6,-26 c0.3,12.8 10.4,36.2 6.3,9.7 c0,-9.6 -5,-35.6 -7,-12.2 c-2.4,-14.3 -0.6,-61.6 -4.2,-23.4 c-3,13.3 2,57.6 -6.3,22 c-5,-18.3 -7,-38 -7.3,-50.2 c-1,-4 3,-54.5 -6.7,-23.5 c4.5,9.3 -3,31.4 -0.2,50.6 c-0.8,20.5 -5.7,49 -7.2,59.5 c3.6,-12.2 5.2,38 5.5,10.7 c6.4,-29.4 2.3,19.3 1.4,28.4 c1.3,26.6 -6,54 -7.7,81.7 c-3.6,34 -7.2,68 -12.4,101.5 c-12.8,6 1.5,26.4 -7.4,21 c2.8,8.4 -1,15 -8.2,15 c5.3,16.5 -6,32 -11.2,44.5 c-7.2,1.7 -17,-24.5 -2,-24 c3.3,-17 16.8,-40 19.5,-52.5 c8,-5.8 5.8,-50.6 14,-69.8 c-6.4,-11 -10.4,36.2 -10.5,5 c1.3,-17.4 10.6,-42.2 7.6,-55.3 c-12.4,30 -2.6,-34.3 0.6,-45 c-0.4,-21.5 8.4,-45.7 2.6,-65 c9.6,-7.2 -9.6,-13.7 -2.2,-29.5 c1.8,-14.4 -0.5,-36.6 -5,-8.3 c-5.2,38 -4.5,-12.4 -6.5,-23.8 c-4.4,10.4 -4,51.6 -6.8,43.8 c0,-16.5 -5,-44.4 -4.4,-10.6 c2.3,23 -12,69.8 -7.7,77 c7.3,-14.5 4.8,-32 12.2,-45.4 c9.6,2 3,25.8 11.7,4 c5.2,-21.6 8.6,33.4 -5.3,15.4 c-7.5,-7.3 -5,-21.4 -7.6,-2 c1.8,21.3 -12.3,22.2 -7,36 c-13.7,-1.7 -11,-30 -8.8,-31.4 c0,-15.7 10.4,-32.4 6.6,-58.6 c5,-26.2 2.5,-52.4 3,-79 c-5.8,-12.6 18.5,-51.2 1,-50.6 z m14.4,0 c-8.4,11.4 2.8,18 0,0 z m3.5,0 c-1,6.2 4,-0.7 0,0 z m13.7,0 c-2.3,10 6.8,-3 0,0 z m12.2,0 c-0.8,7.2 6,-1.6 0,0 z m7,0 c-6.8,10 5.7,-0.5 0,0 z m6.5,0 c1.2,14.8 1.4,31 -1,42 c4.8,9 -0.4,69 5.3,26 c13,-30 -3.3,-33.2 2.4,-64.8 c2.6,-5.6 -4.8,-2.3 -6.7,-3.2 z m11,0 c-2.6,16.5 6.6,0.4 0,0 z m14,0 c-1.2,30.5 -4.7,62.3 -3,92 c4.2,-24.8 4.6,-43 6,-65 c-3.2,2 3.7,-28 -3,-27 z m10.2,0 c-6,15.7 16.7,25 1,22.6 c4.8,21.3 1.8,51 3.8,75.7 c1,0.3 -11,-13 -6.6,2 c-3,12.3 1,39 1,49.5 c-1.2,12.7 -2.2,34.8 -9,17 c0.6,12.5 11.3,15.6 6.5,31.4 c2,9.2 -3,25 -4.8,23.5 c3.8,18.7 3,49.3 0,71.7 c1,24.5 -10.3,-10.8 -4,17.3 c5,25.4 -2.4,45.2 -2.8,72.2 c0.6,21.7 2.2,14 5,2 c3,27.6 -2.3,51 1.7,77 c3.4,20 -10.8,32.8 -4,34.3 c12,8 6.2,46.6 4,35.4 c2,-12.2 -3,-32.6 -2,-7 c-5.6,26.5 -2.4,57.5 -6.4,86.2 c2,10.4 -7.6,38 3,35.7 c13.2,-3.2 1.5,-30.8 15.2,-13 c-1.6,-22.5 10.2,-39 4.6,-62 c3.3,-8 2.5,27.8 5.2,-2 c-6.5,-19.8 -4.3,-43.5 -4.7,-67 c-7.4,9.6 0.4,58.4 -6.4,50 c-4.5,-26.2 1,-32.6 0.4,-53.5 c-2.2,-22 10.7,15 7.3,-10.5 c-8.7,-14.5 12.7,-33 -1,-49.6 c7.5,-12.3 3.4,-39.4 1.2,-55.8 c3.8,-21.5 -1,-43.8 1.2,-66.7 c1.2,-31.4 -3.5,-64 0.2,-95.2 c4,12.8 -0.2,30.7 5.6,8.7 c0.8,12.3 5.6,64.3 -3.8,36 c-3.4,25 10,17.4 5,38.4 c1,10 -4.8,38 1.8,49.3 c-0.6,-37.2 8,24.6 -0.3,24 c4.8,15.5 9.2,35.7 -0.6,49.6 c-3,22.4 3,12.7 6,-3.6 c-0.8,15.3 9.4,9 -1.2,24 c0.2,18 -13,29 -7.2,51.7 c4,6.8 3.7,-41.2 5.5,-7.6 c-6.6,16.5 -4.4,42.7 -1,51.8 c5.4,13.2 -11.2,33.4 -1,46.4 c-2.8,-11.5 5,-32 4,-8 c1.8,12.6 -4.6,53 -4.4,16.2 c-5.2,2.2 -1.7,37.8 -11,35.8 c15,6.2 8.7,-29 13.3,-4.4 c33.5,-9.3 17.4,-49.5 21.6,-76.8 c0,-10.7 -7.3,-38.4 6.2,-37.2 c7.3,10.8 -2.8,17.5 4,25.6 c1,18 -2.4,35 -4.2,50 c8.4,6.7 -4,31.8 14.6,12.8 c25.3,-8.7 -2,-23.6 11.6,-38.7 c-6.7,-13.7 11.3,-34.7 2.4,-10 c2.5,11 0.8,29.2 5.8,24.3 c-2.2,15 -3.4,11.7 10.5,2.6 c-8,-8 -7.3,-39.8 -2.4,-49.5 c-0.7,-13.2 8.6,-53.2 1.6,-45.4 c-6,29.3 -4,-60.4 2.4,-22.6 c-0.8,-21.6 -9,-40.6 -2.4,-62.5 c-6.6,-36 -0.4,-73.5 -5.5,-110 c-0.4,-13.4 -2.5,-67.5 -5.3,-26.8 c0.8,11 4.8,52.8 -0.8,46.6 c-3.4,-23 3,-61 -5,-75.7 c-11.2,-7 14.6,-23 5,-1 c3,19.8 10.7,-7.4 6,-9.5 c6.2,-15.8 0.6,-22.2 -13.2,-9 c-2,-10 13.5,-17 13,-20.7 c3.2,-3 3.7,-47.2 3.8,-48.4 c-6.8,-19.3 8,-34 -1.3,-41.3 c1.8,-32.2 0,-64.6 -1.2,-97 c-11,2.6 -9.4,18.5 -3.5,10 c0.7,36.5 1.5,73 -0.6,109.4 c-3.3,-7.3 -3.7,-22.3 -4.2,-0.2 c-4.3,16 8.5,65 -3,62.4 c3,-21.8 0,-61 -1.4,-76.4 c-1.2,26 -3,57.5 2,80.5 c-3.8,23.7 -8,-31 -7,-39.6 c-7.5,17.5 3.6,54.7 -0.7,79 c-0.5,30.6 0.2,61 -0.5,91.5 c-3.8,-17 -7.6,46.4 -7.6,11 c-0.7,-10.4 -6.6,9.3 -3.2,-12.7 c-1.7,-14 12.4,3.7 4,-14.4 c3.6,-8.8 -5.8,-24.8 0.3,-29.6 c-14,-5.5 9,-15 -2.6,-19 c-5.5,-13.2 13.2,-45 -4.2,-39.3 c-3,-19 4.3,13 -0.8,8.7 c1.5,24 -1.5,40 0.3,64 c2.4,10.8 -3.8,64.4 -8.7,32 c-4.4,-34.4 2.8,-71 -5,-104 c9,-3 2.8,-32.5 3.5,-47.6 c-0.4,-28 -0.3,-56.2 -2,-84.4 c1.4,-16.8 -3,-43.5 2,-63.7 c-5.2,-12.8 7,-33.3 -17.6,-27 c-8.6,2.6 -0.7,17 -7.4,0 c-3,7.8 -1.2,21 -2.4,31 c-1.6,26.3 -0.4,52.7 -2.8,78.8 c-5.5,-16 2,-56.3 -4.7,-53.2 c2.5,-14 -1,-19.5 3,-31.5 c0,-11 5.7,-30 -12.3,-25 z m54.6,0 c-3.6,9.7 4.2,-1 0,0 z m24.5,0 c1.6,10.7 6.7,-2.7 0,0 z m7,0 c4.7,24.5 14,-2 0,0 z m137.2,0 c-1.5,25.2 6.5,0 0,0 z m9,0 c-0.3,34.8 -2,70.7 -12.7,103.2 c-4.6,16 12,23.4 1.5,35.3 c-1.8,47.3 4,94.7 1.7,142.2 c-1.4,27.7 -3.2,56 -2.7,83.4 c5,-10.8 5.6,-47.3 7.6,-13 c-2.5,16.3 -4.8,33.5 -0.2,51.3 c-1.6,0 2,15.3 1,18.2 c11.7,-17.2 1.3,-38.2 4,-57.4 c3.4,3.6 -1,-37 3.4,-24 c5.7,19.5 3,41.8 1.5,61.6 c10.6,-16.5 9.7,-47 12.2,-61.4 c18,1.6 -7.8,-11.6 -1.4,-21.3 c6.3,-6 -3.5,-27.4 6.2,-42.5 c-11,-16.4 3,-21 -0.2,-32.2 c8.6,-9.5 1.8,-37 -0.8,-32.7 c8,-17.6 14.7,-4.4 12,-26.2 c-0.2,-23.6 0.8,-47.8 -0.4,-71 c-1.8,-6 0.5,-18 0.4,-30 c-4,-10 3.8,-16.6 -2.4,-29.2 c2.5,-1.2 2.6,2 2.3,-11.2 c-5.5,14 4.4,-17.6 -1.6,-18 c-0.8,-12.2 -6,-40 -5.7,-10.6 c-0.6,26 -0.4,55 0.5,78.6 c-22.4,-23.2 4.2,49.6 -15,34 c-2.2,-17.7 4,-42.8 12.4,-50.7 c-10.8,-7.5 2.3,-30 -3.4,-53 c1.4,-11.5 1,-31 -14,-21.4 c-5.2,31 6.6,-4.7 -6.2,-2 z m32.3,0 c-0.4,13 2,0.4 0,0 z m-465,2 c-7.3,6.3 1,3.8 0,0 z m396,0.4 c-5,29.3 7.3,15 0,0 z m-209.5,0 c-2,4 2.5,4 0,0 z m224.7,2.6 c-12.3,21 14.8,32.4 4,4.6 c-7,7.3 -2,-0.4 -4,-4.6 z m-271,0 c-8.3,10 2.3,28 1,5 c6.5,-1 -3,-4.3 -1,-5 z m-246,0 c-5.7,2.7 2,3.2 0,0 z m346,0 c2.4,5 -2.2,3.7 0,0 z m162.7,0.2 c-8.8,5.5 2.8,17 0,0 z m-304.2,0.5 c-1.4,4.5 1.5,7.8 0,0 z m-196.4,0.3 c-4.3,6.4 0.2,30 1.7,12.5 c7,21.3 5.8,-5 0,-12 l-1.7,-0.5 z m251,0 c-6.5,1 6,4.5 0,0 z m-66,0.4 c-6,10.3 6,6.6 0,0 z m-139.4,1.2 c-1.2,5.5 1.3,12.2 0,0 z m-60.6,1 c3.7,14.5 12,1 0,0 z m578.4,0.4 c-3.5,5.5 1.5,9.7 0,0 z m-528,0 c-7.5,7.7 5,8 0,0 z m106,0 c3.4,5.6 -5.6,1.8 0,0 z m111,1.6 c-8.7,10.6 -0.5,41.2 -1.5,12.8 c0,-4.2 0.7,-9 1.5,-12.8 z m21.6,0 c-5.2,19.8 3.5,27.8 0,0 z m-247.6,0.6 c-5.8,6 15.2,18.2 2.2,0.6 l-2.4,-0.8 l0.2,0.2 z m294.4,1 c0.4,35.5 -1.7,71.4 -2,107 c-4.6,-15.7 -1,-63.4 0,-91.3 c1.7,-5 -3.3,-13 2,-15.8 z m200.6,0.8 c1.6,29.8 -12.3,43 -10.2,68.6 c-4.8,13.8 3.3,39 2,9.2 c2,-25.2 14.5,-52.7 8.2,-77.8 z m-426,0 c-1.7,3.6 2,4.7 0,0 z m187,1 c-4.8,4 4.7,2.5 0,0 z m-104.4,0.3 c-1.7,4.8 2.2,3.5 0,0 z m182.2,0 c-5.7,2.8 3.7,6.2 0,0 z m-205.3,0 c-4.5,8.6 3.7,3.6 0,0 z m-142,1 c1.5,21 17.4,4.8 0,0 z m206,0.2 c-17,4.8 7.5,20.3 0,0 z m-69.7,0.2 c-6,4.4 3,6.3 0,0 z m105.8,1.3 c-5.3,18.6 5.4,18.8 0,0 z m-193.6,1.5 c-1.6,3.8 1.3,6.5 0,0 z m-79.3,0.7 c-0.2,13.6 13.4,25.5 7.8,3.4 c-5,6.2 -5.4,-1.2 -7.8,-3.4 z m552.7,0 c5,15.6 -4.7,27 -1,2.8 l1,-2.7 z m-35.6,0.5 c0,28 -8.6,53.3 -12,79.7 c-0.5,19.4 10,-26 10.3,-33.6 c1,-15.3 3.4,-31 1.8,-46 z m-313.3,2.3 c-6.7,12.8 7,17.3 0,0 z m-43.2,0 c-11,10 1,46.6 0.3,15.6 c-2.7,-9.3 -1,-6 -0.3,-15.5 z m119.5,0 c-5.8,5.5 3.3,9.3 0,0 z m285,2.8 c5.6,14.3 -4,23.4 -1.6,2.6 c-3,-0.6 3,-2.7 1.6,-2.6 z m-309.8,1 c-6.6,12.8 4.7,25.2 1,2 l-1,-2 z m116.7,0.5 c-11,14.5 11,19.3 4.7,8 c-4,10.5 -2,-7 -4.7,-8 z m-22.7,0.4 c2.2,18.3 -6.7,25 -1,3.4 l0.6,-3 l0.5,-0.4 z m-49.8,0 c-1.2,4.7 1.7,7.2 0,0 z m-178.8,0.4 c-4.8,5.5 2.8,7.2 0,0 z m269.2,0.5 c-1.8,4.4 2.5,4 0,0 z m-307.6,0.9 c-3.8,21 -3.7,51.4 -4.5,68.3 c-3,10.5 10.8,27.2 4.4,1.6 c0,-20.8 4.2,-41 3,-57 c-3.8,-3.4 -0.8,-10.7 -3,-13 z m6.2,0 c-1.2,5.8 1.6,11.6 0,0 z m308.2,0 c-6,3 2.3,5 0,0 z m-326.7,0.5 c-4.3,7.5 11,36.4 0,0 z m161.6,1 c-1,12.6 -7.4,51.2 1,49.8 c0.7,-16 3.5,-35 -1,-49.8 z m248.3,1 c-4,4.4 4.4,4.5 0,0 z m-266.5,0.8 c-4.5,12.8 -0.4,36.6 0.4,8.3 c-0.2,-2.6 0,-5.5 -0.3,-8.2 z m-47,0.6 c-4,16.7 4.8,13.5 0,0 z m-149,0.3 c-6,15.6 11.6,31 2,6.3 c2,-1 -1.7,-5.7 -2,-6.3 z m80,0.4 c-7.5,10.2 0.3,59.4 0.7,23.5 c-0.3,-7.6 1.8,-16.4 -0.6,-23.4 z m141.3,2 c-7.5,14.4 7.6,34.3 2.3,7 c1.2,1.3 -2.4,-10 -2.3,-7 z m-207.4,0.9 c-8.3,12.8 7.6,21.2 0,0 z m381,2.2 c-3.3,25 3.7,16 0,0 z m118,0.6 c-7.3,7 8.8,6.8 0,0 z m-7.4,0.5 c-4.2,5.8 5.3,6.3 0,0 z m-10.8,0 c-9.4,8.2 -1,28.7 0,0 z m-131.2,0.5 c-2.3,17 7,5.8 0,0 z m-178.3,0.5 c-2.6,12.3 1.6,46 1,16 c0,-5.2 0,-11 -1,-16 z m-194.5,0.3 c-7.2,14.2 4.4,15.4 0,0 z m105.2,1.2 c-1.8,3.6 2,5 0,0 z m173.4,0.2 c6.2,18.3 -7,23 0,0 z m-262,0.2 c-4,7.3 4.3,9.2 0,0 z m527,0.6 c1.5,7 -5,6.4 0,0 z m-274.4,1.6 c-3,18.3 2.5,18.3 0,0 z m282.4,1.3 c12,3 -1.4,54 -1,17 c0,-5.5 0,-11.8 1,-17 z m-546.4,0.299999 c-5.2,11 5,9 0,0 z m-14,0 c-1.7,4.5 1.7,5.5 0,0 z m266,0.4 c-1.2,6 2.4,6 0,0 z m130.2,0 c-6.7,17.7 5.8,13.5 0,0 z m-7,0.7 c-1.5,4 1.7,5 0,0 z m-39.7,1 c4.8,3.7 -4.5,1 0,0 z m-264.2,0.5 c3,5.2 -5,5.6 0,0 z m465.7,1.2 c4,2.5 -4.5,6.3 0,0 z m-177.4,0.5 c-1.4,5 2.2,7 0,0 z m63.2,0.7 c-5.8,5.2 3.2,9 0,0 z m-432.3,0.4 c-0.500019,10.3 -3.20002,45.8 1.49998,15.6 c-0.3,-4.5 1.5,-12 -1.5,-15.6 z m524.4,0 c-4.6,8.2 6.5,3 0,0 z m-376.6,0.5 c-3.5,11 3.7,9.5 0,0 z m194.7,1.1 c5.3,9 -3.6,1.8 0,0 z m-272,0.2 c-5.8,5 2,5.5 0,0 z m-84.7,0.5 c-4.7,10.7 4.3,14.6 0,0 z m170,0.2 c-0.2,9.2 -1,27.8 -6,39.4 c8,-1 11.7,-24.2 6,-39.6 z m346.7,1.1 c-1.5,4 1.7,4.3 0,0 z m-246.6,1.3 c-5.5,6.8 4.6,7.5 0,0 z m55.2,0.3 c-5.5,21.4 5.5,27.5 0,0 z m-297.6,0.999999 c-1.7,4.3 2,3.8 0,0 z m148,0 c-1.5,5.4 3,2.6 0,0 z m189,0.5 c1.4,9.2 -1.2,4.7 0,0 z m-329,0.900002 c-6,2.5 3.7,5.8 0,0 z m554.7,1.4 c4,12.8 -6,6.8 0,0 z m-30.5,1 c6,10.8 -2.5,7.8 0,0 z m-310,0.3 c-6.5,16.3 1.3,31 2.6,6 c1.7,3 -1,-8.2 -2.6,-6 z m26,1.2 c-6,9 2.4,10 0,0 z m9.7,0.7 c-8.2,9 2.8,10.5 0,0 z m73.2,0 c5.6,5 -5.4,0.3 0,0 z m-324.1,1.1 c-4.7,8.3 3.5,14.5 0,0 z m228,0.7 c-1.8,4.2 2.2,4.4 0,0 z m6.8,0 c-4,6.4 4.5,2.3 0,0 z m114,0.2 c-1.8,4.5 1.2,5.5 0,0 z m-296.3,1 c-6,2.2 3,3.4 0,0 z m318.3,0 c-1.8,5.7 3,3 0,0 z m17.5,1.3 c-5.6,12 1.8,14.7 0,0 z m-117.3,0.100003 c-5.6,7.7 4.5,4.5 0,0 z m-99.3,0 c-1.7,4.5 1.7,5.7 0,0 z m129.3,1 c5.6,10 -6.3,6 0,0 z m24,0 c2,10.2 -1,6 0,0 z m-133.4,0.5 c7,15.2 -5.2,22.4 0,0 z m138.7,0 c1.6,6.6 -1.7,3 0,0 z m-66.8,0.4 c-4,12.5 4.5,20 0,0 z m-29,0.6 c-2,3.8 2.4,4.7 0,0 z m17.3,1.3 c-6.2,2 3.8,3.3 0,0 z m-162.8,0.2 c-1.7,3.6 2,4.7 0,0 z m228.3,0.8 c5,3 -6,2.6 0,0 z m-88.8,0 c-11.2,3.2 4.6,1.8 0,0 z m143.2,1.4 c-3.8,4.4 1.2,8.4 0,0 z m-193,0.5 c-4.3,8.4 5.2,5.6 0,0 z m299,0 c-4.5,6.7 5,7.6 0,0 z m-446.3,0 c-10.7,10 1.7,40 2.5,15 c-4.6,-3.6 0.8,-10.8 -2.6,-15 z m239.4,1 c-8.3,4.5 4.8,9 0,0 z m138,1.5 c-1.6,4 2.3,4.5 0,0 z m-118,1.4 c-6,10.5 4,7.8 0,0 z m-290.8,0.800002 c-11,15 1.5,10.6 2,11 c-7.4,26.2 9.2,17.8 2.2,-8 c2.7,-0.5 -5.4,-5 -4.2,-3 z m300.7,0 c2.8,13.8 -0.5,54 -1.5,19.4 c0,-6.5 0.2,-13.2 1.5,-19.4 z m-67.3,0.3 c-5.6,13.8 -0.6,31.6 0.6,4.2 c5.2,1 -2.5,-5.4 -0.6,-4.3 z m288.6,0.299998 c0,8.2 -3,46.5 -3.8,17.5 l3.8,-17.5 z m-381.8,0.4 c-2.4,11.2 3.5,20 0,0 z m208,1.6 c-6,3.3 5,5.5 0,0 z m151.2,0 c-2.7,8 4.3,4.5 0,0 z m-447,0.5 c-5,3.4 5,3 0,0 z m74.6,0 c-5.5,2.3 3.8,4.4 0,0 z m244,1.3 c-4,13.8 5.3,3.3 0,0 z m-389.5,0 c-5.5,2.4 3.8,4.4 0,0 z m403.4,0.8 c-6,4.8 1.6,7 0,0 z m-206.3,0 c-3.5,17.7 6.6,12 0,0 z m229,0.5 c-6.2,3.8 3.3,4.2 0,0 z m-194.6,0.7 c-13,26.3 14,9 0,0 z m-6,0.4 c-8.4,13.6 2.7,17 0,0 z m287.5,0 c-5.8,5.2 2,5.5 0,0 z m-98,0 c-7.3,4 4.7,5 0,0 z m-48.5,1.3 c-4.8,5 5.3,1.7 0,0 z m-179.7,0 c-7,7.6 1.8,18.5 0.8,3.6 l-0.6,-3.5 z m184.2,0.4 c-2.3,9.7 6,7 0,0 z m-113.7,2.7 c-7,6.6 0.4,19.7 0,0 z m-138,0 c-1.5,4.6 1.8,6 0,0 z m154.7,1 c-3,6.3 6,6.7 0,0 z m28.8,0.3 c-1.5,4 2,4.6 0,0 z m-59,1.4 c-1.5,4.3 1.7,6.3 0,0 z m122,0.2 c-9.7,14 2.4,51.8 1.6,17.2 c-0.3,-5.7 0.4,-12.2 -1.7,-17.2 z m-101.3,1.1 c7,13.7 -5.7,18.2 0,0 z m-120.2,0.7 c-2.2,8 4,5 0,0 z m367.8,0 c-5.4,14.2 2,33.8 1.3,5.8 c0,1.8 0,-7.4 -1.4,-5.7 z m-431.8,0.6 c-6.5,1.5 3,4 0,0 z m69.2,0 c-5.2,12.6 3,45 3.7,10.3 c-3,20 12,10.2 2.2,3 c7.2,-6.7 0.5,-10 -6,-13.4 z m10,2 c-4.7,3.8 4,3 0,0 z m136.2,0 c-2.5,16 -0.6,29.3 1.6,5.8 c0,-1 1,-6 -1.6,-5.7 z m272.8,0 c14.6,4.5 -7,1.5 0,0 z m-159.4,0 c-8.2,4.5 0.5,10.7 0,0 z m-399.4,1 c3,8.6 7.4,2 0,0 z m188,0.2 c-8.2,15.6 5.5,28.7 1.5,5 c7.3,-0.6 -3.7,-5 -1.5,-5 z m183,0 c-8.6,9.6 2.3,12.5 0,0 z m167,0.4 c4.4,7.8 -5.3,8.5 0,0 z m-325.3,0.8 c-6,0.8 5.6,6.2 0,0 z m-226,0.4 c-5,17.6 6,23.8 0.5,38.3 c-8.8,3.2 3.2,26.3 -0.7,43.7 c7,-19 3.2,-47.6 5,-70 c-6.8,15.4 -2.2,-9.7 -5,-12 z m347,0 c2.4,4.6 -2,4 0,0 z m-99.7,0 c-7.2,6.6 7.4,5.7 0,0 z m-131.4,0 c-3.5,5 4.3,7 0,0 z m174.6,0.2 c-1.6,3.8 1.3,6.5 0,0 z m130,0.2 c-12.6,6.4 -6.3,23 0.4,1 c1.4,-1 -1.6,-1 -0.4,-1 z m100.2,0.5 c-0.5,7 0,0.6 0,0 z m-531.6,0.900001 c1.7,9 -1,12 0,0 z m179.8,0.6 c-11,6 6.5,3.8 0,0 z m-38.2,0.5 c-5.2,8.8 5,12.5 0,0 z m297.6,0.2 c-1.5,3.4 1.3,6.5 0,0 z m145,0.7 c3.8,3.4 -7.5,4.5 0,0 z m-554.2,0.5 c-5.5,5.5 -5.7,36.6 -2.8,31.7 c3,-10 1.4,-23 2.8,-31.7 z m294.7,0 c2,6 -4,6 0,0 z m-87.2,0.6 c-7.3,4 7.6,2.2 0,0 z m149,0 c-4.5,3 2.5,2 0,0 z m-284.3,0 c-1.7,8.5 5.5,7.8 0,0 z m-5,0.5 c-2.6,4 5.7,1.6 0,0 z m410.3,1.5 c-3,4 6,1.4 0,0 z m-394.7,0 c2.4,4.4 -2,4 0,0 z m151,0 c-1.8,4.5 1.4,6.2 0,0 z m66,0.2 c2.4,11.6 -13,12 0,0 z m22.4,0.6 c4.7,4.2 -4.7,2.7 0,0 z m187.2,1.3 c-7.5,11.2 -4.3,34 0.7,8.7 c0.3,-2.6 0.5,-6.7 -0.6,-8.7 z m-25.7,0.6 c-4,14.2 -5.5,47.4 0,13.8 c0.3,-4.3 1.4,-10.8 0,-13.8 z m-234.7,-0.3 c4.5,9 -6,9.6 0,0 z m-241.8,1.2 c-7.2,30 -3.5,61.7 -8.2,92.2 c-0.8,12 -2.4,29 -8.2,18.2 c-6,20 2.4,13.4 3.7,10.3 c-4.5,14.1 4.5,61.1 9.5,23.3 c0,-30 -8.2,36.8 -5.6,-2.5 c-2.6,-23.4 12.3,-2.2 3.6,-21.5 c6,-39.6 5.8,-80.2 5.2,-120 z m231,1 c-5,23 4.3,15 0,0 z m316,0 c4.8,3.5 -4.4,3 0,0 z m-563,0 c-2.8,16.4 3.8,17.7 0,0 z m76,0.4 c-2,3.7 2,4.8 0,0 z m241,0.6 c6,15.2 -5.4,18.5 0,0 z m-256.7,0.3 c-12,7.5 11.6,3 0,0 z m304.7,2.6 c-6,17.6 7,13.6 0,0 z m-257.2,0.3 c-4.8,5.6 1.3,8 0,0 z m-23.8,0.4 c-8.5,7 1.5,12 0,0 z m456,0 c3.7,5.4 -5.5,2 0,0 z m-169,0.4 c-3,10.7 1,43.8 1.8,13.7 c-2,-4 1.4,-11 -1.8,-13.6 z m-173.6,0.5 c-4.5,3 3,2.3 0,0 z m-32.7,0.6 c-2,6.7 6.6,10.7 0,0 z m128.6,1.3 c-1.7,3.2 2.2,5 0,0 z m-226.2,0.8 c-6.4,1.7 9.3,4.8 0,0 z m236.2,0 c5.8,11.6 -5.7,11.5 0,0 z m200,0.5 c-5,4.4 0,8 0,0 z m-90.7,0 c-1.7,3.4 2,4.8 0,0 z m-337,0 c-5.4,4 3.8,5.4 0,0 z m181,1 c4.5,24.2 -9.4,17.2 0,0 z m-104.6,1.2 c-5.7,10.6 5.8,18 0,0 z m135.5,0 c-1,13.4 -1.6,51.7 1,50.5 c0.8,-16.7 4,-34.4 -1,-50.5 z m235,0.3 c-2.7,19.7 8.3,6.8 0,0 z m-332.5,0 c-8.6,13.2 11.4,46 7.6,14.7 c-2,-11 -7.7,17.5 -6.2,-5.3 c-1.3,-1.4 2.3,-8 -1.3,-9.4 z m-203,1 c-4.6,1.6 5.5,3.5 0,0 z m408.4,0.4 c-3,4.3 6.6,1 0,0 z m-269.7,0 c-5,5.5 6.3,10.3 0,0 z m142.5,0.2 c-1.8,4.2 1.4,6 0,0 z m135.6,0.7 c-5.4,5.8 5.7,6.2 0,0 z m-257,0.3 c-7.6,10 -14.2,9 -10.5,29 c8.8,-7.6 5.2,-16 11.3,-10.3 c0,-6 1.3,-13.7 -1,-18.7 z m175.8,0.8 c1.5,15 1.6,45 0.4,51.5 c-0.7,-17.2 -1.7,-34.6 -0.4,-51.6 z m-241.6,0.2 c-3,11.7 6.4,13 0,0 z m-62,1.8 c-2,4 2.2,4.4 0,0 z m391,0.3 c-3.8,9.6 2.5,12 0,0 z m-93,0.7 c5.8,10.6 -4.8,8 0,0 z m-262,1.6 c-6,21.3 -7.8,59 5,71.6 c8.4,-8.3 -2.7,-63.4 -2.4,-26.8 c-6.3,-4 0,-33.8 -2.7,-44.8 z m447,1 c-8.2,14.7 -4.7,38.7 -8.7,41 c-2,7 -3.2,28 3,5.4 c7.8,-13 4,-31.7 5.5,-46.4 z m-165.4,0.4 c1.3,6.3 -1.2,4 0,0 z m-236,0.4 c-5.8,20.6 3.4,24.3 0,0 z m264.5,0.3 c-6.7,10.2 3.5,14 0,0 z m21.7,0.4 c0,10 4,44.4 0.2,39.5 c-1.8,-12.7 -3.3,-28 -0.2,-39.6 z m162,0.2 c13.7,-3.6 7.2,41.5 3.4,11.4 c0,-4 -4.5,-7.3 -3.4,-11.4 z m-10,0 c2.6,4 -6.2,1.7 0,0 z m-232,0.2 c6,5.3 -3.7,5.5 0,0 z m49.7,0 c-5.2,6 3.4,9.3 0,0 z m-191,0.8 c-5,4 5.6,4.7 0,0 z m-22.7,0.9 c9.6,3.5 -7.5,5.6 0,0 z m-82.2,0.5 c-1.6,4 1.5,6 0,0 z m454.2,0.6 c-6,27.5 1,55 -3,82.8 c1.2,27 2,52.4 2.6,76.4 c-1.8,28 -6.6,51 -8.7,76.6 c-1.4,28.7 -3,57 0.6,85.4 c15.3,-5.5 -2.5,-47.5 3.4,-67.3 c2,-33 6.4,-48.8 9,-81.4 c2,-29.6 -0.3,-59.2 -2.4,-88.7 c-1,-27.7 2.5,-57.3 -1.5,-84 z m25,1.5 c4.5,9.7 -7.7,3.8 0,0 z m-541.2,0.6 c-5.4,7.7 4,6 0,0 z m320.3,1 c5.6,22.3 -12.2,5.8 0,0 z m189.2,0.4 c-4.7,17.5 4.4,14.4 0.2,0 h-0.2 z m-23.7,1.4 c-4,11.2 0.5,15.8 0,0 z m-479.5,0.6 c-5.7,8.7 5.2,2 0,0 z m339.5,0 c5.7,3.6 -5,5.3 0,0 z m-262.8,0.5 c-8.7,10.8 8.2,12 0,0 z m276.4,0 c-4,6.2 3.2,6.2 0,0 z m50,0.3 c-5.2,12.6 2.6,12.4 0,0 z m-153.4,0.4 c8,7.2 -8,6 0,0 z m-185.8,1.2 c-5.6,4.6 5,7.4 0,0 z m265.3,0 c5,6.4 -1,-0.4 0,0 z m-34.5,1.3 c-4.3,3.5 -3,-2 0,0 z m-75.6,0.5 c3.8,6 -5.7,2.8 0,0 z m-226.7,0 c-1.8,4.2 2,6 0,0 z m156.7,0.8 c-5.7,13.3 5,4.3 0,0 z m215.5,0.4 c-1.7,3.3 2.3,5.2 0,0 z m-4.7,0.2 c-4.6,10.5 5.6,11.8 0,0 z m-5.8,1 c-1.5,4.5 1.8,4.5 0,0 z m56.4,0 c-1.6,4.5 2.2,4.4 0,0 z m-270.8,1.5 c-10,8.8 7.2,11.2 3.7,16.8 c1.2,-4.7 3.7,-16.8 -3.7,-16.8 z m45.8,0 c-2.4,7.8 6,11 0,0 z m-116,1.3 c-1.5,6 3.2,2.3 0,0 z m231,0.6 c1.6,8 -1.7,4.2 0,0 z m-319.2,0.2 c-4,0.2 3,24.3 0,0 z m158.6,0 c6.8,3 -4.6,2.2 0,0 z m15.8,0 c-2.2,8 6,9.2 0,0 z m5.2,0 c-4.5,1.4 5,3.5 0,0 z m89.3,0 c2.7,2 -4.3,3.4 0,0.2 v-0.2 z m59,0 c4.5,3.8 -4.8,3 0,0 z m20,0.6 c9.3,5 -3,6.5 0,0 z m-297.5,0.7 c-3.2,4.6 5,6 0,0 z m260.3,0 c-5.2,9 3.7,2 0,0 z m-228,1.5 c-7,7.4 7,11.5 0,0 z m14,0 c-5,13 7.2,25.4 1.4,2.3 l-1.4,-2.2 z m399.4,0 c1.6,9.2 -0.3,43 2.4,46.8 c2,-4.4 9,-43 -2.4,-46.8 z m-347.3,0.3 c2,8.5 7.6,1.7 0,0 z m223.4,0 c-6.6,10 4.5,9.8 0,0 z m-141.8,0.2 c4.8,5.2 -3.8,9.4 0,0 z m7,0 c10,4.3 -6.5,7.3 0,0 z m-57.5,0.8 c-4.7,3.7 5,3 0,0 z m341.5,0.4 c-1.7,3.2 2.2,5 0,0 z m-274.5,1 c5,5.2 -5.5,-0.5 0,0 z m-230,0 c-2.5,8 8.7,6.5 0,0 z m-5,0.5 c-7,13.7 -1.3,45 0.2,11.7 c-0.7,-3.4 2.6,-8.8 -0.2,-11.7 z m408.8,1 c-4.5,9.4 -11.3,46.3 -1.6,17.8 c1,-5.8 2.3,-12.3 1.6,-17.8 z m-153.4,0.2 c4.2,1.5 -5,6.8 0,0 z m-131,0 c-4.2,12.4 0,59.5 2,23.4 c-0.6,-7.6 0.7,-16.5 -2,-23.5 z m30.8,0 c-1,13 3.8,16 0,0 z m400.3,2 c5.4,3.4 -6.6,4.2 0,0 z m-411,0.3 c-14.2,13 9,18.8 3.8,26.3 c-0.7,-9.2 7.2,8.3 3.6,-11.2 c-8,-3.2 -3,-5.6 -7.5,-15 z m386,0 c2,5.3 -2,3.6 0,0 z m-163.6,0.2 c-0.6,14.5 -2.5,39.4 2.7,48 c0.5,-15.8 0,-32.5 -2.8,-48 z m-82.7,1.3 c-5,13.6 5,10.2 0,0 z m-121.6,0.6 c-6,6 15.6,10 0,0 z m199,0.7 c-1.3,10.2 -9.3,46.3 2,43 c1.5,-13.6 0,-30 -2,-43 z m-46.4,0 c6,10 -3.2,11.5 0,0 z m4.5,0.7 c6.5,13.2 -0.8,51.2 -5.5,33.2 c10.5,-6.4 0.5,-24 5.5,-33.3 z m-275,0.2 c1.4,16 -15.2,23.5 -8.3,37.6 c9.4,-12 -2.2,20.6 11.4,28.8 c1,-10.4 3,-47.5 -3,-66.5 z m22.6,0 c-6.7,3 5.2,2.8 0,0 z m481,0 c7.2,5.5 -3.8,11.2 0,0 z m-471.2,1 c-4.2,13 5.4,26 0,0 z m161.5,0 c1.4,19.5 -7.7,40.4 -4.4,59.8 c-14.2,5.6 1.8,-35.2 1.2,-47 c1,-4 0.4,-10 3,-13 z m303.2,0.5 c1.2,7 -1.5,3 0,0 z m-206.6,0.8 c3,5.3 -4.3,8 0,0 z m-5.8,0.4 c6,2.2 -3.8,3.3 0,0 z m-144.4,0 c-1.7,4 2,4.3 0,0 z m-103.8,1 c0.3,10.6 5.4,5.7 0,0 z m450.8,3.8 c2.8,11.5 -5.2,15.6 0,0 z m-430,1.3 c0.2,8 -1,-1 0,0 z m452.2,0 c5,6.2 -5,6.2 0,0 z m-12.8,0.6 c4.3,7.4 -3.3,5 0,0 z m-226.6,1.2 c5.2,3.6 -3.3,6.3 0,0 z m17.3,0 c5.6,3.3 -3.6,6 0,0 z m-140.5,0.2 c-0.3,9 5,10 0,0 z m-35.7,0 c-5.3,6 4,6 0,0 z m-151,1.5 c-4.6,15.5 2.3,34.7 1,6 c-1,-1.8 2.8,-5.8 -1,-6 z m559.5,0 c11,12.8 -3,25 0,0 z m-399.5,0.6 c-6.6,4.2 0.2,7.7 0,0 z m383.6,0 c3.2,14.3 -7,32.6 -1.4,8.4 c1.3,-2.5 0,-6 1.3,-8.5 z m-487.5,0 c5.5,8 -5.5,5.4 0,0 z m182,0.7 c-3.3,15.2 2.7,7.4 0,0 z m-212.6,0.5 c-15.2,5.7 -16.5,54.8 -11.2,46 c7,-17.3 0,49.8 8.2,9.4 c2.2,-21.3 2,-37.4 3,-55.4 z m394,1.4 c-4.8,3.3 4.6,3.3 0,0 z m83,0.4 c-2.5,4.3 5.7,1.5 0,0 z m-69,0.2 c-4.2,6.3 5.4,7 0,0 z m60.6,0.8 c-5.3,9 3,2 0,0 z m42,0 c4.8,3.8 -4.5,1 0,0 z m-440,0.6 c-1.3,3.8 1.2,6.3 0,0 z m37.5,0.8 c-6,3 5.6,10.7 0,0 z m415.3,0.5 c7,10.3 -7,9.2 0,0 z m-397.1,0.2 c-6.7,10 4.8,13.7 0,0 z m36,0.6 c-5.7,4 5.8,7.8 0,0 z m-84.8,0.4 c-1.6,3.5 2.2,5 0,0 z m283.2,0 c3.7,6 -6,3 0,0 z m-101.2,0 c-5,8.2 4.3,7.5 0,0 z m-126,1.2 c-4,15.4 2,34.8 2,7 c-1,-0.6 0.6,-7.3 -2,-7 z m-104.2,0.2 c5.2,4 -5,10.3 0,0 z m13.3,1.3 c-4.8,9 4,2.7 0,0 z m15.3,0.6 c-1.4,5 2.2,7 0,0 z m420.3,0.2 c-4.8,3.6 4,2.8 0,0 z m-338.7,0.5 c-3.7,13.5 2,4.7 0,0 z m-87,0 c-1.6,4 1.4,6.7 0,0 z m18.5,0.4 c-5.6,18.8 7.2,13 0,0 z m183.8,0.4 c-2,36 -3,72.5 -0.6,108.5 c0.2,33.5 -4.8,67 -6.4,100.2 c-0.7,32 -2.6,64.6 -7.8,96.7 c0.6,25 -6.8,53.5 -2,76 c6.7,-26 3,-56.8 7,-84.7 c4,-7.5 5.5,-39 6,-35.7 c7,22.8 -6,35 -2.7,58 c-5.7,20.4 -3.7,42.3 -8,62.8 c-17.5,19.8 -17,50.2 -15,75 c20.3,18.3 5.3,-15.8 15.4,-17 c-2.5,11.2 4,37 6,12.5 c5,-23 0.7,-49.8 4,-70 c-5.4,-13.8 1,-29 0.5,-42.3 c-1.6,-4 1.7,-30.6 3.7,-47.6 c2.2,-15.7 2,-28 -0.6,-40 c-2,-20 2.8,-46.4 0.5,-69 c3.6,-37.2 4.6,-74 2.3,-111.2 c-4,-24.5 8.6,-50.8 -2.2,-72 z m-288,0 c-2.6,21 -11.2,5.2 -9.7,30.5 c-0.6,10.7 1.4,41.5 2.5,12 c4,-37.2 -4,37.5 -1,34 c0.5,9.8 2.4,38 4.4,13.5 c-0.4,-22.4 4.8,-50.4 4.4,-77.5 c0,-4 0.7,-9.2 -0.8,-12.5 z m80.4,0.5 c-7.3,4.4 8.7,10.8 0,0 z m320.8,1 c0.3,23.3 7.6,9 0,0 z m-251.4,0.4 c-2.2,15.6 -1,24.6 7,29 c8.2,17.3 -4.7,-14.4 3.7,-17 c2.5,-13 -10,0 -10.6,-12 z m-7.5,0 c-4.2,3.6 9.6,1.8 0,0 z m392,0.8 c8.4,0 -3,15 0,0 z m-340.5,1.3 c-5.5,6 5.7,9.3 0,0 z m98.4,0 c-4.6,1 4.8,3.7 0,0 z m205,0 c-0.6,21 -4.6,53 -1,67.8 c-0.3,-22.3 5.8,-46.3 1,-67.8 z m-244.2,3.2 c-1,17.5 -10.7,70.4 -4.4,67.2 c1.7,-22.2 6.5,-45.3 4.4,-67.2 z m88.6,0.6 c2.7,19.2 -4.3,8.5 0,0 z m-260.1,1.4 c-3.7,26.2 4.5,22.5 0,0 z m104.8,0 c-3,4.2 4.7,5.8 0,0 z m-46.7,0.2 c1.2,5.8 4,2.5 0,0 z m370,0.3 c-2.2,4.2 2.5,3.7 0,0 z m61,0.8 c-6,6 11.6,14 0,0 z m-398,0.5 c-1.4,4.2 2,2.4 0,0 z m161.6,0 c1,10.3 -5.5,11.5 0,0 z m-88,0 c-5.2,3 5.8,4.4 0,0 z m-119.3,1.2 c-4,6.5 4.4,2.7 0,0 z m418.6,0.5 c9.7,4 -10,6.7 0,0 z m-9.2,0.5 c4.8,13 -5.2,10.7 0,0 z m-236.6,0.2 c-1,5.8 0.6,11.6 0,0 z m-213.8,0 c-1,11.6 6.2,48.5 3.7,16.2 c-0.7,-5.3 -1.5,-11.3 -3.6,-16.2 z m-79.7,1 c-9.3,9 5.4,24.2 0,0 z m98.5,1 c-0.8,13.4 -0.2,50.4 2.4,50.5 c-0.8,-17.5 2.4,-34 -2.4,-50.5 z m142,1 c-5,7.7 5,3.8 0,0 z m76.6,0 c5,14.6 -3,25.2 -1,3 l1,-3 z m-260.4,0 c-6,13 4.2,24.8 1.6,3 c2.4,-3 -1.7,-1.7 -1.6,-3 z m-22.2,0.7 c-4,4.4 4.6,3.4 0,0 z m145,0.3 c-5.8,8.6 3,10 0,0 z m-189.8,0 c5.4,5 -4.3,7 0,0 z m488.5,0.5 c-1.8,6 2,6 0,0 z m-285.3,0.2 c4.8,11.6 -4.2,10.4 0,0 z m344.7,1.2 c4.3,12 2,53.6 0,20.2 c0,-6.6 -1.2,-14 0,-20.2 z m-110,0 c-6,11.5 7,18 0,0 z m-300.3,0.9 c-3.6,25.8 3.2,17.6 0,0 z m376.2,0 c-6,4 2.6,3.7 0,0 z m-191,0.8 c7.4,13.4 -8,5.4 0,0 z m-293,0.4 c4.6,5.3 -2.7,7.5 0,0 z m43.3,0 c-5.6,3.3 3.6,5.8 0,0 z m504.4,1 c-5.6,7 -3.4,39.3 0,59.7 c0.4,-20 0.6,-40.6 0,-59.8 z m-37,2.5 c4,8 -2,39.3 -1.8,12.3 c0.3,-4 0.2,-9 1.7,-12.3 z m-494.5,3.5 c-7.4,17.4 12,14.8 0,0 z m224,1 c1.7,5.6 -6.4,2 0,0 z m217.3,0 c-2.7,4.4 7,0.3 0,0 z m-413,0 c-1.8,4.6 2.3,3.7 0,0 z m83.8,0 c-2.7,7.8 3.8,7.8 0,0 z m336.8,0.8 c-4.8,10 -1,49 1.5,14.7 c-0.5,-4.7 1.3,-10.5 -1.6,-14.7 z m63.3,1.8 c0.8,11.5 -3,39.7 -3,11.8 c0,-4 0,-8.8 3,-11.8 z m-120.8,2 c-2.4,5 4.3,10.4 0,0 z m-238.7,0.6 c-4,16.6 4.2,29.5 0,0 z m17,0 c4.6,7 -5.3,3.5 0,0 z m-40.4,0.8 c2.6,9.3 -1,-1.2 0,0 z m336.2,0 c-4.5,4 2.4,6 0,0 z m52.4,0 c5.4,5.2 -5.2,0.2 0,0 z m-352.3,0 c3.4,7 -7.3,5.2 0,0 z m276,2.8 c-1,15 1.5,10.8 0,0 z m-329.8,0 c-9.6,12 -7.6,40.6 -3.2,57.3 c-4,5.8 1,20.8 6,11.6 c4.6,-9 -7.2,-42 -4,-60 c2.6,-2.2 2.8,-7.2 1.2,-9 z m-85.4,0.3 c-11.5,7 3.5,10 0,0 z m304,0.3 c-4.6,5 2.7,10.3 0,0 z m-39.7,0.6 c1.3,8 -1.5,4 0,0 z m-204.3,1.8 c-5.6,4.6 3,6.7 0,0 z m31,0.5 c-5.6,16.3 5.3,12.3 0,-0.2 v0.2 z m86.3,0 c-10,11.7 0.7,22.6 0,0 z m-258,1 c-1,4.3 1.4,2.3 0,0 z m245.7,0 c2.7,6.3 -4.2,6.2 0,0 z m-191.8,0 c-2,3.6 1,6.8 0,0 z m166.4,0 c8.3,11.4 -1.5,16.7 0,0 z m-21.2,2.6 c-5.7,2.5 3.8,6 0,0 z m-87.6,0.8 c-4.2,10.7 2,56.5 -5.5,31.5 c-1.7,14.5 -8.3,1 -5,22.7 c3,19 8.7,45.4 8.5,54.4 c-12.4,0.4 -4.4,15 -14,30.4 c-3,25.3 22.4,-5.8 12,-16.6 c1,-14.7 13.2,10.6 12.6,15 c9.7,17.2 -8,-28.7 7,-6.5 c15.8,2.8 8.3,-56.2 6.3,-19.8 c4.7,26.7 -19.8,-12 -4.5,0.3 c-3.3,-12.5 -3.5,-12.2 -7,-7.7 c-7.6,-24.4 -2.5,-51 -7,-73.7 c-1.3,-9.6 1,-22 -3.2,-30.2 z m242.7,0.4 c2,9 -5,6 0,0 z m15.4,0.3 c-1.6,4 1.5,6.3 0,0 z m-265.4,0.7 c-4.8,3.7 5,3.2 0,0 z m-26,0 c-3,25.6 -4,13 -13.2,7.4 c0.4,19.7 4.6,57.2 14,66.2 c-2,-16.6 -11,-40 -6.8,-52.5 c7.8,21.3 7.6,57.7 10,70 c-5.6,-4.7 5.7,31 3.7,6.8 c-2,-25.5 -5.6,-57.6 -5.8,-85.7 c7.5,-6.8 2,35.8 5.8,47 c-0.7,13.7 6.8,35.8 3.4,9.3 c-2.5,-21 -2,-42 -4,-63 c-5,1 -5.6,-2.2 -7,-5.4 z m138,0.5 c6,2 -2.3,4 0,0 z m202,0 c-6.7,7.7 1.3,15.3 0,0 z m-278,0.8 c-2.3,9 3.5,8.8 0,0 z m53,0 c0.6,4.2 -0.4,0.6 0,0 z m151.5,1 c8.6,24.5 -10.4,16.4 0,0 z m14.4,0.3 c1.5,9 -1,17.8 0,0 z m-202.6,0 c-5.5,7 5.5,6.2 0,0 z m-159,0.6 c-4,4.8 5.6,3.5 0,0 z m308.5,0.8 c-3.2,4.2 5.3,7 0,0 z m214.3,0.3 c-1.6,16.8 5.6,11.7 0,0 z m-342.2,0 c-1.5,4 1.6,4.8 0,0 z m25.3,0.2 c-6,13.7 0,7 0,0 z m-188,0.2 c-1.7,15.4 3,25.7 1,2.4 l-1,-2.5 z m82.8,1 c-3,9 5,8.5 0,0 z m6.7,0 c-5.7,2 3.7,4.4 0,0 z m445.3,1 c10.5,19.6 -5,39.6 -2.5,19.5 c-1,-7 4.2,-13 2.5,-19.6 z m-187,1.5 c3,3.8 -1.6,4.5 0,0 z m84.3,0 c-5.2,2.5 4.8,4 0,0 z m-38.3,1.3 c-1.7,3.6 2.2,5 0,0 z m-302.6,0.8 c-6.5,4.5 7,5.2 0,0 z m64.8,0 c-5,6.7 5,3.3 0,0 z m84,0 c-6.8,11.2 -2,35 0.6,9 c-3.5,4 2.6,-9 -0.6,-9 z m78,0 c-8,5.3 7.7,4.7 0,0 z m78.5,3.2 c-5.7,2 3.8,4.7 0,0 z m-57.5,0.6 c1.3,9.3 -1.5,4.3 0,0 z m-255,0.2 c-5.8,4.6 5.8,7.2 0,0 z m174,0 c-0.3,11.2 4,50.4 -6.4,45.2 c6.6,-14 0,-31.5 6.4,-45.2 z m278.3,0.7 c-5,11.5 4.4,9 0,0 z m-552.8,1 c-1.8,3.6 2,4.7 0,0 z m360.5,0 c2.4,4.4 -2,4 0,0 z m-50.4,0 c-5.7,7.5 0.2,13.2 0,0 z m-155,0.4 c2,19.3 -2.5,6.5 3.4,5 c2.5,-0.2 -5.7,-6.2 -3.4,-5 z m346.6,0.5 c-2.5,16.8 3.6,30 1,3 l-1,-3 z m-315,0.6 c-6.7,8.3 4,15 0,0 z m337,0 c-8.5,16.8 1,29.2 0,0 z m-381.3,0.8 c-5.7,13 7.2,16 0,0 z m425,0.5 c5.7,5.8 -6.2,9.5 0,0 z m-461.5,0.8 c-4.8,5.5 5,5 0,0 z m91.3,0.5 c-8.6,20 9.2,17.7 0,0 z m149,1.4 c6.7,6.3 -6.3,4 0,0 z m-211.5,0.7 c-4.7,4 4.8,4.7 0,0 z m-75.7,0 c-8.3,10 -16.7,38.3 -28.7,25.4 c-6.7,9.7 -4.2,32 -9.2,21.3 c-3.6,19 -0.6,31.5 2,41.2 c-17,16.8 -1.4,-57 -8,-46.4 c-2.8,25.3 -4.6,51.6 -4.2,77.2 c7.8,22.8 -1,-19.6 5.8,-24 c2.6,19.7 2,4.6 8,3 c0,14.2 46,39.4 19,13 c-20.8,-11.5 -18.3,-38 -8,-52.7 c11.6,-0.7 19.3,-23 21.7,-18 c0.5,-10 5.6,16.8 4.4,-5.8 c-5,-10.4 4.7,-30.4 -2.8,-34 z m295,0.6 c8.8,14.4 -6.7,7.8 0,0 z m-150.4,1 c-1.3,6.3 2,9.7 0,0 z m-205.1,1.19999 c-1.8,3.6 2,4.7 0,0 z m445.8,0 c-1.7,4.2 1.7,6.2 0,0 z m-265.8,0.2 c-5.6,12.8 4.5,28.2 1.5,3.4 l-1,-3.5 h-0.5 z m30,1 c-5.4,9.7 1,12.3 0,0 z m163.4,0.2 c-5.5,8 4.3,7.2 0,0 z m-250.8,0.8 c-5.7,7.3 5.7,1 0,0 z m388.2,0 c-5.3,2 5.6,3.2 0,0 z m-414.6,0.5 c-4.5,6.8 5.2,7.7 0,0 z m91,1 c-3,7.5 4.2,9 0,0 z m391.2,0.3 c-6.6,2.5 2.4,5.3 0,0 z m-231.8,1 c4,12.4 -1.3,7.4 0,0.2 v-0.2 z m-342,1.2 c-4.8,11 -1.3,46 1,14.7 c0,-5 0.6,-10 -1,-14.7 z m430.2,0 c-6,6 3.8,1 0,0 z m-125.3,0.500012 c-5.7,1.8 4,5.6 0,0 z m-291.4,0.2 c-8.5,14.7 6.5,16 0,0 z m493.3,0.3 c-1.3,3.5 1.7,8.4 0,0 z m-186,1 c1.4,6.8 -2.2,3 0,0 z m-121,1 c-1.6,4 1.4,6.6 0,0 z m-81.6,1 c-2,6.8 6.4,9 0,0 z m233.6,0.3 c2.2,4.8 -2,3.2 0,0 z m-212,0 c-4.7,6.7 4.5,1.5 0,0 z m330,0.2 c-4.5,17.5 2.7,26.5 0.5,2.5 l-0.7,-2.5 h0.2 z m-88.4,0.5 c-5.2,2.3 6,2.8 0,0 z m69.2,0 c-6.2,6.7 1.7,6.5 0,0 z m-194.7,2 c-3.5,16 -9,64.2 -0.8,22.7 c0.7,-7.5 1.8,-15.4 1,-22.7 z m-124.4,0 c-5.7,6 4.5,4.7 0,0 z m452,0.3 c-6.4,14 2,20.2 0,0 z m-490.3,1.7 c-5.2,3.4 6.6,9 0,0 z m331.8,0 c-4.4,3.2 -2.6,-2.2 0.2,0 z m-80.4,0.3 c2.3,8.3 -5.4,8 0,0 z m-151,0 c-3.4,4 6.4,1.7 0,0 z m158.5,0 c2.5,4.7 -2,4 0,0 z m-65,0.2 c-7.4,8 5.8,8.6 0,0 z m23,1.2 c-1.6,3.6 2.3,5 0,0 z m207.7,0.5 c-0.2,11.6 -8,49.8 -2.4,43.4 c2.6,-14.2 5.2,-29 2.4,-43.3 z m39.5,0 c-0.3,17.4 6,20.8 1.6,32.4 c-7.7,1 -1.2,-24 -1.5,-32.3 z m-58.2,0.3 c-2.6,9 3.5,7.7 0,0 z m49.8,0.4 c2.7,4.8 -1.8,3.7 0,0 z m-447,0.2 c3.6,9.7 -3,9.3 0,0 z m449.8,0 c1.4,7 -1.8,2.5 0,0 z m-368,0 c-1.8,21 -3.2,67.8 1.3,74 c0,-24.6 0.7,-49.7 -1.4,-74 z m19.5,1 c-14,9 13.4,15.7 0,0 z m-208.5,0.4 c-4.8,9.4 1.6,9 0,0 z m551.6,0.2 c2.8,12 -3,13.2 0,0 z m-125,0.3 c-17.6,18 5.3,17.2 0,0 z m28.2,0.4 c-3.7,9.6 2.8,10 0,0 z m-436.8,1 c-1.2,5.5 1.6,12 0,0 z m81,1 c-4.5,16.2 6.2,22.5 0,0 z m289.3,0 c-5.5,6.5 4.7,0.5 0,0 z m190,0 c-6,6.5 6,0.3 0,0 z m-11.3,0.5 c2,4.4 -1.5,4 0,0 z m-320,0 c7,14.7 -6.8,14 0,0 z m-26.3,0.8 c-5.8,11.5 9.6,18.6 0,0 z m-39.6,1.4 c-4.7,3.5 4.7,3 0,0 z m129.8,1.3 c-0.8,5.6 2.3,3 0,0 z m201,0.4 c-1.6,4 2.3,4.3 0,0 z m-340.7,1.7 c3.3,4 -6.4,1.5 0,0 z m332.8,0 c-4,10 -6.3,70.6 -1,31.2 c0,-10.3 2.4,-21.4 1,-31.2 z m-347,0 c-4.5,6.7 4.3,2 0,0 z m41,2.2 c-5.5,22 6.6,14.5 0,0 z m287.2,0 c-5,3 4.8,3.6 0,0 z m-97.8,0.4 c-2.6,4 5.7,1.6 0,0 z m-376,0 c-8.2,12.4 -1.4,41.8 -7.5,48.4 c0.4,-12 0.6,-62.7 -2,-24.8 c-5.6,15.5 9,51 7,15.8 c0,-13.2 2.4,-26.6 2.5,-39.4 z m171.7,0.3 c-6,9.8 2.3,12.2 0,0 z m216,1 c1.3,12 -1.2,5.7 0,0 z m186,0.2 c-6,26.4 4,24.3 0,0 z m-131,0.8 c-9.2,5.4 3.7,22 0,0 z m96.3,0.2 c6.7,8.6 -6.3,7.5 0,0 z m-412.2,0.4 c-5.5,5 5.6,9 0,0 z m200,1.2 c-3.8,5.3 5.8,3.2 0,0 z m-187,1.4 c-5.7,4.7 4.3,7.4 0,0 z m6,0 c-4.6,4.2 5.4,8.3 0,0 z m44,0.6 c4.4,7.3 11,20 9.4,5.6 c0.2,-6.3 -5,-5 -9.4,-5.6 z m121.4,0.2 c5.4,8 -5.2,3.8 0,0 z m-147.2,0 c-7.8,6.6 1.6,7 0,0 z m242.6,0.2 c-6,9.7 1.7,13.6 0,0 z m-305,1 c7.2,11 -5,28 0,0 z m70.7,2 c-7.6,13 0.4,16.6 0,0 z m58,1.2 c3,6.2 -3.8,0.2 0,0 z m-118.5,1.49999 c-5,6.8 6,11 0,0 z m149.8,2 c3.3,2.3 -5.2,3 0,0 z m44.6,0 c5.6,9 -5.5,6.4 0,0 z m118.2,0 c-7.5,5.7 -0.6,11 0,0 z m-144,0.3 c-6.8,46.6 -4,94.4 -12,141 c-4,17.6 1.6,27.7 4,3.3 c6.3,-47.7 7.4,-96.2 8,-144.2 z m91.8,0.4 c2.2,4.8 -2,3.2 0,0 z m-221,0.3 c-8,22.2 19.5,28 2.2,6 l-2.2,-6 z m-28.6,0.5 c-4.7,4 4.7,3 0,0 z m34,0 c-5.4,13 8,5.7 0,0 z m284,0.7 c-1.6,2.8 1,7.7 0,0 z m-113,1 c-2,6 2.7,2.3 0,0 z m209.4,0 c5.6,15.7 -6.4,17.6 0,0 z m-296,1.4 c-5.4,3.8 5,10 0,0 z m188.4,0.8 c-5.4,6 9,7 0,0 z m-170.6,-0.199988 c14,4.7 -12,4 0,0 z m-169,0.4 c-3.4,8.3 7.5,10 0,0 z m-74.3,1 c7.8,8.3 -6.8,25.8 -1.6,2.2 l1.6,-2 v-0.2 z m165.6,1.3 c-0.4,17.7 0.7,41 -3.3,57.8 c3.2,-30 -13.3,21 4.2,4.5 c10.6,12 3.3,-45.4 2.8,-57 c6.8,-0.4 -6.2,-5.4 -3.7,-5.3 z m213.3,1.3 c8,5.3 -7.7,4.7 0,0 z m-268.5,0.4 c-5.7,5.7 3.5,8.7 0,0 z m423.5,0 c3.2,3.8 -6.3,1.8 0,0 z m-496,0 c0,7.7 7.6,4.2 0,0 z m517,0.2 c-13.3,7.4 -0.8,17.4 0,0 z m-399.5,0 c-4.5,10.6 4.7,38.6 1,11.6 c-2,-3 1.6,-9.5 -1,-11.6 z m-31.2,0.7 c-2.7,6.8 4.3,6.5 0,0 z m5.4,0.2 c-1,9.4 9,7.4 0,0 z m181.2,0.3 c-3.2,4 6.6,1 0,0 z m114,0 c-2,6 2.8,2.2 0,0 z m44.7,0.2 c-1,4.5 1.3,16.7 0,0 z m-229.4,0.5 c10,4.7 2,17 0,0 z m-194,0 c-4.2,10.8 19.7,25.8 0,0 z m41,0.6 c5.3,5 -4.5,4.4 0,0 z m-115.8,0.4 c0.3,4.2 0.5,0.4 0,0 z m323.4,1 c2.3,4.5 -2,4.2 0,0 z m-203.7,1 c4.5,8.5 -3.6,4.6 0,-0.2 v0.2 z m26.3,0.5 c-3.2,9.3 4.6,19.7 0,0 z m78,0.3 c-11.4,6.3 -0.2,4.4 0,0 z m-96.8,1 c-5,3.5 5.8,8.4 0,0 z m438.7,0 c1,7.5 -1.6,3.2 0,0 z m-514,0 c-4.7,16.3 19,2.4 0,0 z m348,0.7 c8.3,5.7 -6.2,9.2 0,0 z m8,0 c5.7,5.6 -5.2,6.7 0,0 z m45,0 c-5,13.6 3,12 0,0 z m22,0 c-7.6,12 3.7,20 0,0 z m-262.6,0.3 c-20,4.8 12.4,10 0,0 z m-36,1 c-2.7,10 4,5.4 0,0 z m-77.8,1.2 c-4,2.3 3.8,2.7 0,0 z m345.4,0.6 c-5.3,6.5 4,9 0,0 z m-335,1.4 c-4.2,3.4 6.2,7.8 0,0 z m216.2,0 c3,9 -6,10.4 0,0 z m-263,0.3 c-5,8 4.3,10.6 0,0 z m265.3,2.3 c2.3,5.3 -2,2.5 0,0 z m-158.6,0.3 c0.4,13.5 -15,14.2 -15.5,3.5 c-8,15.4 11,27 0,26 c9,17.4 -6.4,25.3 -13.4,15 c-10.3,17.3 14.6,2.6 10.8,24 c5.2,-7.4 6.5,11 10.8,-4.6 c2,19 8.7,6.7 11.4,-12 c7,-11.6 13,16 11.5,-6.5 c4,-12.8 -2.2,-46.3 -3,-15.8 c-5,16.4 0,-35 -12.6,-29.7 z m225.3,1 c4,5.8 -6,1 0,0 z m-354,0 c-8,10.3 2.2,21 0,1.4 v-1.4 z m169,0.8 c-15,16 16.7,18.2 3.5,4.6 c-9.5,0.6 3.3,-4 -3.5,-4.5 z m230,2 c-5.8,12.7 0,35.3 0.7,8.4 c-1,-2.3 2.3,-7 -0.7,-8.5 z m-38,0 c5,10 -7.8,8.4 0,0 z m-255,1 c-2.8,19 2.7,22.4 0,0 z m262.6,0 c2.8,12.2 4.3,57.3 -2,54.2 c-4,-18.7 -8.4,15.4 -7.4,-9.5 c-0.4,-14.8 0.6,-48.6 3.4,-16.6 c-2.4,15 5.7,26.2 4,2 c0.7,-9.5 -1.2,-21.3 2,-30 z m99.5,0.5 c-5,21.2 2.7,22 0,0 z m-441.2,0.6 c-5.5,8 5.6,4.2 0,0 z m36.7,0 c-3.8,3 11.5,10.3 0,0 z m221,0.5 c3,4 -6,1.5 0,0 z m-90.4,0.7 c-1.5,4.5 1.3,9.4 0,0 z m198,0 c-1.5,5 1.3,9 0,0 z m-348.3,0.5 c-4.2,6.4 4.6,2.3 0,0 z m127.6,0.8 c5,3.5 -4.5,1.4 0,0 z m116.7,0 c5.3,5.6 -5.3,12.7 0,0 z m122.2,0.2 c-2,12.4 0.7,43.7 2.2,15 c-0.5,-4.6 1.6,-12 -2.2,-15 z m-78.3,0.6 c12.8,16.8 -3,67.4 -0.5,23.4 c1.3,-7 -6.3,-18.8 0.5,-23.4 z m-198,0.2 c2,8.6 -1.3,3.6 0,0 z m394.6,0.4 c3.6,5.4 -2,8.6 0,0 z m-207.6,1.2 c3.8,23.2 -6.5,15.8 0,0 z m34,0.2 c6.2,10.5 -8.7,28 0,0 z m-227.7,0.3 c2.7,3.8 -1.8,4.3 0,0 z m60,0 c-17,16.8 14.4,7.5 0,0 z m-154.8,0.7 c-6.4,8.8 7.4,17.2 0,0 z m305.2,0.6 c5.7,4.6 -5,7.2 0,0 z m-220.4,0.3 c17.7,5.8 -10.3,12 0,0 z m-64.4,0 c-3,7.8 17.3,27.3 3,4.7 c0.6,-2.8 -1.7,-3.3 -3,-4.7 z m335.3,0.5 c-2,10.8 4.6,15.8 1,1.7 l-1,-1.6 z m-61.4,0.8 c1.8,11 -3,31.5 -0.7,9.3 l0.8,-9.2 z m-101.7,0.7 c4.6,4 -4.7,2.7 0,0 z m-223.7,0.6 c0.3,18.5 15.5,6.5 0,0 z m458.8,1.4 c-6.6,13.5 0.8,30.2 0,0 z m79.2,0.4 c-4.2,8.4 -2.7,11.7 0,0 z m-454.3,1 c5.7,8.5 -7.4,2.7 0,0 z m85,0.7 c-7.6,19 -13.4,38.2 -7.3,52 c-2.2,21 14.8,-44 12.7,-10.8 c-2.5,40 14,-32.3 7.5,-33.5 c-7.2,16 -6.7,6.5 -7,-5.5 c-5,4 -3,-2.2 -6,-2.2 z m282.4,0.3 c-1.4,5.5 2,10.3 0,0 z m-483.7,1.39999 c-6.2,10.7 4.7,9.2 0,0 z m318.4,0 c2.5,4.8 -2,3.7 0,0 z m-80,0 c3.5,5.3 -5.5,3.5 0,0 z m-84.5,1 c4.2,5.3 -5.3,7 0,0 z m-117.4,0.4 c6.2,2.3 -3,3 0,0 z m165.5,1.30001 c5,7 -7.6,15 0,0 z m71.4,0.4 c-8.3,23.5 7,10.7 0,0 z m-16.5,1 c3,7.4 0.4,17.2 0,0 z m51,0.3 c10,18 -11,32.6 -0.5,6.3 l0.5,-6.4 z m-232.3,2 c-2.6,17.6 -27.6,31.3 -24.6,30 c11.4,7 -7,23 -12.8,5 c-7,8.4 20.5,31.3 -1.6,14.8 c-7.2,-10.5 -24,-29.8 -16.7,-9.3 c5.4,6 -7,13.2 8.2,18.4 c6.7,12.8 -0.7,-15.7 9.2,4.6 c20.2,5 20,-30 43.3,-28.8 c-10.2,-4.8 12,-19.5 5.4,-27 c-14,-2.2 -15.7,34.7 -11.7,3.4 c0.2,-3.3 4,-8.3 1.4,-11 z m62.4,1.3 c-1,12 12.4,12.2 0,0 z m181,0.3 c6.3,20.7 -5.8,19.7 0,0 z m165,0.6 c-4,11.8 3.3,15 0,0 z m-106,0 c10.3,2.7 -7.2,1.8 0,0 z m181,0.5 c5.6,10.2 2.8,17 0,0 z m-173,1 c6,9 -8.7,13 0,0 z m-34,0.7 c4.7,11.2 -6.2,15.2 0,0 z m-217.8,0 c-5.7,5 1.8,5.6 0,0 z m364.2,0.7 c-3.5,12.2 3,13.5 0,0 z m-297.4,1.2 c5.6,6.2 -4.4,5.7 0,0 z m294.3,1.4 c-5.5,7 4.6,7.4 0,0 z m43,0.4 c-9.7,1.3 -4.8,26.5 -2,38.4 c-3.4,15.3 2.2,44 5,14.3 c-5.2,-18.3 -3,-38 -3,-52.7 z m-109.8,0.5 c-1.2,19.6 5.8,20.4 0,0 z m84.4,0.2 c-7,14 2.4,21.5 0,0 z m38.3,1 c-4.8,5.5 2.8,7 0,0 z m-207.8,0.4 c4.8,5.2 -3.8,9.3 0,0 z m-89.3,1 c6,2 -2,3.8 0,0 z m-241.5,0 c-5.6,12 3.5,9.5 0,0.3 v-0.2 z m111.5,1 c-9.3,14.8 -3,45.6 -16,51.4 c-3.2,-6.5 6,-5.2 -3,-17.3 c2.6,8.4 -17.6,36.6 -12.3,15.2 c-14.3,4.4 -31.5,5.4 -42.4,18.4 c-10.5,-2.3 -19,-1.4 -20,-4 c5,14.2 15.8,16.5 25,7.8 c1.3,-2 18.7,-25 23.7,-6.2 c-14.4,9.00001 -28.1,21.8 -28.1,32.8 c8,-3.6 29,-39.6 23.7,-13.3 c-13.8,5.6 -23.2,41.5 -5.6,15 c19.7,-23.8 -0.8,6.6 -3.7,17.7 c9.3,-5.7 0.7,5.4 10.3,13 c2.8,-15.2 0,16.2 8,-4.4 c5,-7 5.3,4 7.7,-14 c1.6,-2 -12.4,14 -2.4,-4.20001 c8.6,-1 10,-24.7 14.3,-18 c-2.3,-11.7 6,-14 6.7,-7.4 c9.6,-19.2 6.7,-39.3 12,-59.5 c2,-8.5 6.5,9.3 3.6,-8.4 c-1,-4.3 0.3,-10.8 -1.4,-14.3 z m309.7,0.6 c-1.6,3.3 1.2,6.4 0,0 z m-177,2.6 c3,11.7 -12,10.5 0,0 z m120.2,0.7 c8,4.4 -6.8,4 0,0 z m43.6,2 c-1.7,3.7 1,6 0,0 z m-402.3,0.7 c-4.3,4 16.5,7.7 0,0 z m-6.4,3.8 c-3.6,10.7 3.8,10 0,0 z m345.6,0.4 c2.2,4 -1.6,4.2 0,0 z m198,1 c4,8 -2,8.3 0,0 z m-174.6,0.3 c3.4,9.8 6.7,-5 4.4,12 c-1.2,-6 -11,-0.6 -4.4,-12 z m-294.5,3 c-6.4,5 7.2,3 0,0 z m167.4,1 c8.4,18.7 -2.5,13 0,0 z m116,0.2 c0.3,6 -4,1.5 0,0 z m-4,0 c2.2,4.8 -1.6,3.4 0,0 z m-30,0.3 c-11.7,6.8 6.6,23.6 0,0 z m27.7,1.6 c12,9 7,7.2 -1.4,20.5 c-1,-6.6 0,-14.2 1.5,-20.4 z m-305,0.5 c6.8,2.8 -4.8,3.5 0,0 z m440.3,0 c-5,19 5,21.5 0,0 z m-178.4,0.4 c4,13 -5.7,41.3 -1.3,13 c1,-4 -1.3,-9.6 1.4,-13 z m-226.6,1 c-6.8,16.2 -16,4 -18.8,10 c-3.5,0.8 -26.5,11 -16.7,22.2 c6,-3.3 10.4,-22.4 24.5,-12.4 c4.5,-3 14.2,-15.8 11,-20 z m397.7,0.3 c-1.7,4.3 2.6,4 0,0 z m-114,1.4 c1.8,6 -1.8,4.6 0,0 z m-191.6,0.8 c-4.8,3 9.6,4.3 0,0 z m326.5,1 c-1.4,5.3 2.2,7 0,0 z m-340.4,0.5 c-7.2,8.3 5,12 0,0 z m78.7,0.2 c2.8,21.6 -11.5,20.7 0,0 z m107,1 c4,3 1.4,9.6 0,0 z m73.7,0.4 c-1.5,3.5 1.3,6.3 0,0 z m-40.7,1 c6,3.5 -2.5,4.5 0,0 z m-10,0.4 c7,14 -15,29.3 -3,5 c1,-1.5 0.7,-5 3,-5 z m111,1.6 c-2,9.7 3,2.2 0,0 z m-186.7,0.4 c0.6,11.4 4.8,5.3 0,0 z m64.8,2.5 c7.8,9.4 -9.4,14 0,0 z m-68,0.2 c-6,9 1,10.2 0,0 z m-189,0.2 c-10.5,10.6 4.2,11 0,0 z m372,0 c-2.8,4.2 6.4,1 0,0 z m-229.4,0.5 c2,7.4 -1.6,5 0,0 z m181,3.3 c-2.2,4 2.4,4 0,0 z m-412,0 c4.7,7.2 -5.3,3.2 0,0 z m144.2,0 c-5.8,8.3 5,6 0,0 z m323.4,1 c-7.5,6.3 5.3,8.6 0,0 z m-100.6,0.2 c6,11 -0.6,50.5 -1.3,19.4 c0.6,-6.2 -1.6,-14.3 1.4,-19.4 z m-296,0 c-1.8,4.4 2.5,4 0,0 z m45.7,0 c-5.2,6.2 4.2,6.3 0,0 z m35,2.2 c-4.4,10.4 5.8,14 0,0 z m237.3,0 c-8,8 8,6.2 0,0 z m-62.2,0.4 c2.4,4.8 -1.8,3.8 0,0 z m-227.7,0 c-3.4,4.8 5.8,6.7 0,0 z m304.6,1.6 c-4.6,4.8 5.6,12.8 0,0 z m-82.6,0 c4,9 -4.8,25 -1.7,2.5 c-1,-2 2,-1.3 1.7,-2.5 z m-194,0.6 c-5.3,6 5,7 0,0 z m34,1.3 c-5.4,9.4 3.7,1.5 0,0 z m200.4,0.3 c0.7,6.8 -5,6.8 0,0 z m-193.6,0.4 c-5.5,6.5 4.7,4 0,0 z m-37,0.6 c-7,3 -18.5,24 -5.2,19.5 c-13.8,13.7 -2,24.5 -7,25.7 c-4.5,11 10.7,12.5 -1.6,16.8 c15.8,9 -21.8,17.8 5,14 c7.2,-26 1,-45.5 9.3,-70.8 c5.3,3.8 -2,-6.8 -0.5,-5.2 z m213.5,0 c5,22.4 -5,19.7 0,0 z m-68.8,0.5 c-2.8,4.3 6.3,1.5 0,0 z m52,0.2 c5.2,8.6 -6,13.3 0,0 z m12.4,0 c1,9 -9.8,20.8 -7.3,25.6 c2,-15.3 -2.6,-25 7.4,-25.6 z m-118.8,0 c10.4,4 -8.5,24 0,0 z m-77.4,0.8 c-8.2,12.7 0.6,17.6 0,0 z m265.3,1 c-1.6,4.6 2,7.4 0,0 z m-411.2,0.6 c0.5,6.3 5,1 0,0 z m296.5,2.3 c5.4,4.7 -5.6,7 0,0 z m-144,2.5 c-9.4,10 6.6,7.7 0,0 z m-149.8,1 c2,13 5.2,-0.6 0,0 z m359,0.8 c5.4,4.8 -4.5,4 0,0 z m-282.2,0 c0.3,14 -17.6,22.6 -3,2.3 l2.8,-2.4 h0.2 z m326.4,0.6 c-1.5,4.8 1.6,7 0,0 z m-390,0 c-5.6,6.6 4,0.8 0,0 z m112.6,0.7 c4,8 -9,4 0,0 z m-108.5,0.7 c-5.8,6.3 3.6,1 0,0 z m401.7,0.6 c-1.6,4 1.4,6.5 0,0 z m50,1.4 c-5,7.3 3.4,10 0,0 z m-176,0.4 c6.2,21 -7.3,13 0,0 z m-84,0.7 c2.6,4.6 -1.7,4.2 0,0 z m-121.5,0 c5.7,3 -3.7,6.3 0,0 z m111.2,0.3 c-1.5,3.4 1.2,7 0,0 z m-32.2,0.7 c-7.2,3.5 6.6,5.7 0,0 z m50.5,0.2 c10,9.3 -5.7,11.4 0,0 z m-156.7,0 c5,4.2 -6.7,1.2 0,0 z m333.6,0.2 c-1.8,3.3 2.2,5.2 0,0 z m70,1.6 c-1.8,4 2,5 0,0 z m-109,3 c2.7,5.4 -1.6,2.8 0,0 z m155.4,0 c-5.5,8.7 3.3,1 0,0 z m-371.8,0.8 c-7,12.5 -6.6,42.5 -0.3,12.8 c0.5,-4 2.4,-9 0.3,-12.8 z m210,0.4 c4.7,3.6 0.6,8.5 0,0 z m-155.6,0.2 c4.6,6 -5.7,5.4 0,0 z m-45,0 c-10,11.3 4.5,18.3 0,0 z m-62,0.7 c5,6 -5.7,4.4 0,0 z m72.5,0 c-11.3,21.8 -0.3,7.4 0,13.4 c-6,10.2 -0.4,18.3 1.8,33.4 c11.2,-18 3,-19 2.2,-35 c2.3,17.3 15,-18.5 -4,-11.7 z m347,0.5 c-11.6,18.8 5.5,12 0,0 z m-282,0.8 c5,3.6 -4.5,1.3 0,0 z m246.8,0.6 c-4.2,7.7 8.6,16.5 0,0 z m-297.2,0.9 c-1.8,3.7 2,4.6 0,0 z m182,0 c2.6,4 -1.7,4.4 0,0 z m-252.8,1.3 c-2,4.8 5.6,2.8 0,0 z m218.2,0.3 c18,2.3 -10.8,7.8 0,0 z m46.7,0.6 c5.3,9.2 -2.5,39.7 6,36.5 c7.6,8 -1.6,50.6 3,71.5 c1.7,15.3 -3.7,26.2 -2.6,3.8 c5,-28 -8,-10.4 -7.5,-17 c6.6,-12 11,-24 -0.4,-21 c-3.5,-15 5,-31.8 6,-7 c1.2,-21.4 -15.2,-41.2 -4.4,-66.7 z m119.4,0.3 c-3.8,15.7 9,19.4 0,0 z m-153,1.6 c1.4,13 -0.5,29 3.6,40 c17.8,2.7 -1,15.6 3.7,26.4 c-15.7,-5 2,-17.2 -8.8,-24.6 c0,-14 -0.3,-28 1.4,-41.7 z m-25.4,1 c-2.4,5 4.4,5.3 0,0 z m-14,0 c5,12.4 -6.7,15 -0.2,0 h0.2 z m112.3,1.6 c-2.6,3.8 6.4,1.8 0,0 z m70.7,0 c-1.3,3.8 2,4.7 0,0 z m-11,0.3 c-1,12.6 -10.8,7.2 -1.8,17.7 c1,-5.6 1,-13 1.8,-17.8 z m-177.6,1 c1.3,6.5 -1.5,3.4 0,0 z m-177.6,0 c-3.6,11.7 1,12 -5.7,14.3 c6.3,27.2 13,-9.8 5.8,-14.3 z m-45.7,1.5 c-3,8 -14.8,8.5 0,0 z m147,0.5 c9,14.6 -10.6,33.3 -8.7,44.4 c-14.5,18 4.5,-27 3.7,-26.2 c-1,-10 4.2,-11 5,-18.2 z m13,0 c4.8,3.6 -4.4,1.2 0,0 z m56.5,0 c-9.2,9 -1.8,52 -1,16.7 c0,-5.3 3.3,-12 1,-16.7 z m189.7,0 c-4.8,12.2 10.3,60.6 3.8,24.3 c-2,-8 -0.8,-16.8 -3.8,-24.3 z m-371,1.7 c-6,2 -3.5,13.4 0,0 z m73,0 c-6,3.8 3.2,4 0,0 z m-25.6,2.3 c-4.5,3.5 7,2.6 0,0 z m-3.4,0.4 c-1.6,4 2.2,4.3 0,0 z m199,0.2 c6.4,20.8 -11,9.6 0,0.2 v-0.2 z m32,1.7 c1,8.6 -1.5,3.5 0,0 z m-291.4,0.7 c-5.8,2.3 3.7,5.4 0,0 z m237.4,1.5 c6.3,18.3 -7.6,16.4 0,0 z m-231,0 c-6.6,2 -0.5,9.5 0,0 z m6.2,0.8 c-4.5,3.3 3,2 0,0 z m302,0.6 c-1.6,4.4 2,5.6 0,0 z m-254.6,1.1 c-5.2,13.7 4,25 0,0 z m248.5,0.3 c-0.5,9 -8.5,15 2.3,20.8 c-2,13 5.2,38.5 4,10.3 c-2.2,-10.3 -1.5,-22 -6.3,-31 z m-183.5,0.5 c-5,3.8 7.7,3.6 0,0 z m85.4,0 c10.8,22.2 -9.3,7 0,0 z m80.7,0.7 c3.8,11.8 -4.3,12.7 0.3,-0.2 l-0.2,0.2 z m39,1 c-1.3,4 2.5,4.4 0,0 z m-228,0.3 c13.8,15 -7,41 -0.3,51 c2,16.2 -3,41.2 7.7,17.7 c-3,-17.2 10.2,-28 7.3,-4 c3.5,11 -20.2,30 -8.3,26 c-8.5,5.8 -1.3,19 -12.6,21 c2.5,0 11.7,12 0.6,20.4 c-13.2,-10.5 -2.2,-29.4 -2.3,-42 c-6,-15 9.5,-23 2.8,-40.4 c-3.6,-16 10.2,-32.8 5,-49 l0.6,-0.2 l-0.3,-0.6 z m-33.4,2.4 c-7,8.3 4.4,12.2 0,0 z m207.3,1 c4,11.6 -4.8,8.3 0,0 z m-253.5,0.2 c-4.2,3 -1,9.6 0.2,1.3 l-0.2,-1.3 z m232.8,0.2 c4.2,5.3 -2.5,10 0,0 z m-72.3,1.8 c-4.7,11.5 1.8,5.3 0,0 z m-183.4,0.5 c-6.2,7.5 -11.8,42 -1,16 c-2.7,-5.2 6.4,-12.7 1,-16 z m381.7,0 c-3,3.8 6.5,2 0,0 z m-137.7,0 c2.5,4.6 -2,4 0,0 z m-106,0 c1,7 -1.7,3.8 0,0 z m181.5,1 c-5.4,9.6 6.3,6.7 0,0 z m86.4,0 c-2.4,-0.5 0,2.6 0,0 z m-429,1.7 c3.4,4 -6.5,1.2 0,0 z m359.6,1 c-6.2,3 4.6,6 0,0 z m-310.7,0 c-8.6,12 7.4,13.6 0.5,6.3 c1.6,-0.6 -2.7,-7.6 -0.5,-6.3 z m-35.2,0 c-7.3,1.4 7.7,0.7 0,0 z m23,0.3 c-2,5.2 2.8,3.3 0,0 z m133.7,1 c-2.6,5.6 4.7,9.6 0,0 z m-140.2,0.3 c-5,13 2.6,7.8 0,0 z m60.2,1.4 c-5.2,6 7,12.6 0,0 z m-4.4,1 c-5.4,1.7 5.7,3 0,0 z m214,0 c3.8,11.7 -21.3,14.4 -1.5,2 c1.5,0.8 0.6,-2.3 1.5,-2 z m-40,0.4 c11.3,0.5 3.8,25.7 2.6,8 c-8.4,9 -5.2,-5.7 -2.7,-8 z m-246.5,1 c-9.6,7.4 4.5,7.2 0,0 z m392.2,0.6 c-4.8,8.4 7,7.5 0,0 z m-179.6,0.6 c5.2,16.2 -4.8,23.7 -1.5,2.7 l1.6,-2.8 z m-189.6,1.8 c-6.3,1.8 3.4,3.5 0,0 z m308.5,0 c-4.5,13 5.2,9 0,0 z m-275.2,0.8 c-7.7,14.2 -0.2,26.3 0.5,2 l-0.6,-2 z m11.6,1 c-9.7,28.7 -11.6,59.7 -16.3,89.3 c12,4.4 5.4,-37.3 11.3,-50.5 c-1,-13.4 8,-26.5 5,-38.7 z m52.7,1.6 c2.8,2.2 -4.6,3.4 0,0 z m165.3,2 c5.5,6 -6.3,9.4 0,0 z m-198.5,0 c-10.6,8 2.6,22 1,1 l-1,-1 z m81.7,0.7 c-5.6,10.7 5.4,9.4 0,0 z m94.4,0 c-4.6,4 4.6,3 0,0 z m-106,0.3 c-6.7,12.2 5.5,19 0,0 z m-161,0.4 c-5.5,8.8 4.8,8.5 0,0 z m15,2 c-13.3,17 2,12.4 0,0 z m63,0 c-3.8,6.8 4.2,6.8 0,0 z m-43.5,1.2 c-10,10.5 12,19 1,20.6 c-4,19 6.4,-10 3.5,11.5 c-10.7,-3 -9.4,37.3 -2.2,8 c3.2,7 6,26.7 -1.4,13.5 c-3.7,22.8 15,15 8,-6 c-1.8,-15.8 3.4,-36.2 -9,-47.5 z m364.3,1.6 c-5.2,10.4 4,2 0,0 z m-87.3,2.4 c5.8,9.4 -7.7,8 0,0 z m-263,0 c-8.7,21.5 3.7,23.7 0,0 z m328.7,0 c-5.4,4 5,4.5 0,0 z m-387,2 c-7.3,10 1.2,12.8 0,0 z m299,0 c2.2,22.4 6.8,60 -0.7,74.6 c3.4,-22.7 -5,8.8 -5,-14.5 c10,-16.6 -3.3,-37.7 4.5,-57 l1.2,-3 z m48.7,0 c-0.8,17 9,15 0,0 z m-265.4,1 c-3.7,5 5.8,3.5 0,0 z m135.3,0 c-4.7,6.3 5.5,8 0,0 z m48.8,1 c5,3.3 -4.2,1 0.3,0 h-0.2 z m137,1.6 c-2.2,5.3 2.4,2.3 0,0 z m-355,0.2 c1.2,6.3 -1.6,3.5 0,0 z m207.7,0.7 c4.6,3.3 -4.8,3.2 0,0 z m20.2,0.5 c-5.6,2 3.5,4.5 0,0 z m-178.4,1 c-6.6,11.6 6.2,28 2.2,3.4 c1.6,-0.4 -2,-4.2 -2.2,-3.4 z m71.5,1 c-5,2.2 7.3,3 0,0 z m89,0 c11.8,11.4 -5,21.7 0,-0.2 v0.2 z m-8,1 c6.7,13.5 -3.2,24.7 -0.3,2 l0.5,-2 z m69,1 c2.4,5 -1.8,3 0,0 z m19.8,1.2 c-1.7,3.2 2.2,5 0,0 z m-122,0 c-6,16.3 4.7,18 0,0 z m-153.8,2 c-5.4,4 4.5,5.2 0,0 z m297.5,0 c-5,6 5.3,6.3 0,0 z m-190.6,1.59999 c-9.7,13 8,9.7 0,0 z m195,0 c-2.3,8 4,4.4 0,0 z m-23,0.2 c-9.2,9.7 1.5,9.5 0,0 z m-23,0 c2.4,4.5 -2,4 0,0 z m-139,1.4 c-1.6,4 2.2,4.3 0,0 z m-95.7,5.3 c-1.6,4 2.2,4.5 0,0 z m-28,0 c-6.5,6.4 2.8,18 0,0 z m232.5,2.6 c0.5,5.7 -4,3 0,0 z m16.4,1.2 c-1.2,6 -4.4,2.7 0,0 z m40.3,0.8 c-19.4,-0.8 9.3,39.5 1.3,11.6 c-1,-4 -2,-7.7 -1.3,-11.7 z m-252.5,1.5 c-4.8,3.7 5,3 0,0 z m-58.3,1 c-1.5,5 1.3,9 0,0 z m135,0.7 c-3.2,4 6.5,1.7 0,0 z m-108.5,1.3 c-7.4,12 -2.5,42.3 1.4,12.6 c1,-7.8 9.2,0.4 -1.4,-12.6 z m271.3,0.2 c-4,8 2.7,10.3 0,0 z m-236.2,1 c-5.4,10.5 9.8,12.3 0,0 z m272.3,0.3 c-5.6,8 4.7,5.5 0,0 z m-128,0.6 c-1,13.6 1.5,9.7 0,0 z m121,2 c-5,7 6.4,7.7 0,0 z m-104.8,0.5 c6,9 -5.4,11.5 0,0 z m6,0 c7,14 -7,26.3 -1.5,2.3 c-0.2,-0.7 0.5,-2.4 1.5,-2.3 z m71,4.5 c-4.6,6.6 4.4,2 0,0 z m-110,0.2 c1.4,14 -3.4,34.2 -0.8,6.7 l0.8,-6.8 z m139.3,3.3 c-2,5.3 4.4,5.2 0,0 z m-7.2,0 c1,6 3.8,2.7 0,0 z m-289.8,2 c-1.7,4.8 2.5,3.4 0,0 z m42,0 c2.2,4.8 -2,3 0,0 z m226.7,0 c-1.7,6.2 2.8,2 0,0 z m-121,0.7 c-4.6,8 2.8,12.3 0,0 z m-72.8,2.90001 c6.3,3 -6.6,3 0,0 z m202.3,0 c-4.7,3.5 4.8,3.4 0,0 z m-12,0 c-6.3,13 -0.8,43.5 3.3,16.5 c-0.7,-5.3 1.2,-13 -3.3,-16.6 z m-6.3,2.6 c-5.4,5.7 5.6,6.8 0,0 z m-76.8,0.4 c-1.8,4.7 2.6,3.6 0,0 z m-157.8,1 c5.8,17.8 -4.7,-10 0,0 z m5.3,0 c-5.4,3.7 5.2,6.2 0,0 z m252.7,0 c-8.8,9.3 10.3,11 0,0 z m-173.7,0.5 c-2,19.8 -10.3,-0.6 -16.8,13.2 c3.8,21 24.6,4 16.7,-13.2 z m54.8,1.3 c4.8,10.5 -6.7,24.5 0,0 z m94.3,3.3 c-5.4,4 5,4.6 0,0 z m-51.8,1.9 c3.3,4.3 -6.3,1 0,0 z m-175.7,0 c-5.6,3.4 3.7,5.4 0,0 z m-36.8,2.2 c-14.3,1.6 4,2.5 0,0 z m173.5,5.6 c2.7,8 -4,13.3 0,0 z m-152,3.2 c-5.3,9 3,2 0,0 z m-6,0.5 c-1.8,3.4 2,4.6 0,0 z m147.6,0.8 c4.8,3.2 -4.7,3.6 0,0 z m-117.3,0.8 c12.5,5 -4.3,3.6 0,0 z m124,2.6 c9.2,11.6 -11,2 0,0 z m64.7,1.2 c6,2.7 -3.7,2.6 0,0 z m-206,0 c-1.5,3.8 1.7,4.8 0,0 z m5.4,1 c-3.4,14.5 4.2,0.8 0,0 z m12.7,0.5 c5.2,13 -4,16 0,0 z m86.6,0 c8.6,15.6 -5.2,19.6 0,0 z m-110.5,4.6 c-6,8.2 7.6,12.4 0,0 z m145.7,0.2 c13.4,4.5 -10.7,15.8 0,0 z m-139.4,0.3 c-5,6 1.4,12.7 0,0 z m112,0.2 c3.7,10.6 -0.8,16.8 0,0 z m-80.5,1 c-7.7,10 2,14 0,0 z m101,0.2 c4.4,4.8 -6.3,3 0,0 z m-77.2,0.7 c1.8,6.2 -6.7,6.5 0,0 z m47,2.7 c3.3,7 3,29.7 -2.4,17.5 c1,-3.4 -2,-13.7 2.4,-17.6 z m106.2,0 c7,8.3 -13.7,9.8 0,0 z m-159.6,2.7 c6,7 -5.4,1.6 0,0 z m82.6,1 c3,4.2 -4.7,5.8 0,0 z m17,0 c4,3 -5.2,12.3 0,0 z m-95,1.5 c1.4,10.6 -1.3,5.6 0,0 z m85,3 c4,14 -3.4,27.5 -1.5,5.6 l1.5,-5.5 z m-90.6,3.8 c3.4,12 -4.3,30.2 -3,6.7 c2.6,-1 1.3,-5 3,-6.7 z m62,0 c5,1 -4.4,8 0,0 z m86.6,1.7 c1.3,6.3 -1.4,3.5 0,0 z m-29.8,1.2 c5.2,5.3 -4.6,7 0,0 z m-17,0.8 c-6.4,19.7 4.8,14.5 0,0 z m-66.6,2.6 c-4.8,5.2 4.8,5.2 0,0 z m26.4,1.4 c6,14.5 -5.6,10.6 0,0 z m21,10.4 c3.4,16 -2.7,34.8 -1.2,7.7 c-0.8,-2.6 1,-5 1,-7.6 z m18.4,0.6 c-7.3,10 9.6,7 0,0 z m-12,0.7 c7,3.4 -10,7.7 0,0 z m-28.4,0.5 c7.8,6 -7,6 0,0 z m-47,4 c0.3,7 -4.4,1.7 0,0 z m81,13.2 c-10,4.5 5.6,4.5 0,0 z"/>
<use xlink:href="#shield" fill="none" stroke="#000" stroke-width="3"/>
</svg>