<?xml version="1.0" encoding="UTF-8" standalone="no"?>
<svg
   xmlns:dc="http://purl.org/dc/elements/1.1/"
   xmlns:cc="http://creativecommons.org/ns#"
   xmlns:rdf="http://www.w3.org/1999/02/22-rdf-syntax-ns#"
   xmlns:svg="http://www.w3.org/2000/svg"
   xmlns="http://www.w3.org/2000/svg"
   xmlns:xlink="http://www.w3.org/1999/xlink"
   xmlns:sodipodi="http://sodipodi.sourceforge.net/DTD/sodipodi-0.dtd"
   xmlns:inkscape="http://www.inkscape.org/namespaces/inkscape"
   width="600"
   height="660"
   id="svg2"
   version="1.1"
   inkscape:version="0.48.2 r9819"
   sodipodi:docname="House_Burley.svg">
  <metadata
     id="metadata27">
    <rdf:RDF>
      <cc:Work
         rdf:about="">
        <dc:format>image/svg+xml</dc:format>
        <dc:type
           rdf:resource="http://purl.org/dc/dcmitype/StillImage" />
        <dc:title></dc:title>
      </cc:Work>
    </rdf:RDF>
  </metadata>
  <sodipodi:namedview
     pagecolor="#ffffff"
     bordercolor="#666666"
     borderopacity="1"
     objecttolerance="10"
     gridtolerance="10"
     guidetolerance="10"
     inkscape:pageopacity="0"
     inkscape:pageshadow="2"
     inkscape:window-width="1366"
     inkscape:window-height="715"
     id="namedview25"
     showgrid="false"
     inkscape:zoom="0.71515151"
     inkscape:cx="264.36025"
     inkscape:cy="330.12799"
     inkscape:window-x="-8"
     inkscape:window-y="-8"
     inkscape:window-maximized="1"
     inkscape:current-layer="svg2" />
  <defs
     id="defs4">
    <radialGradient
       id="rg"
       gradientUnits="userSpaceOnUse"
       cx="220"
       cy="220"
       r="405">
      <stop
         style="stop-color:#fff;stop-opacity:.3"
         offset="0"
         id="stop7" />
      <stop
         style="stop-color:#fff;stop-opacity:.2"
         offset=".2"
         id="stop9" />
      <stop
         style="stop-color:#666;stop-opacity:.1"
         offset=".6"
         id="stop11" />
      <stop
         style="stop-color:#000;stop-opacity:.13"
         offset="1"
         id="stop13" />
    </radialGradient>
    <clipPath
       id="clip-shield">
      <path
         id="shield"
         d="m2,2v257c0,286 298,398 298,398c0,0 298-112 298-398V2z" />
    </clipPath>
    <clipPath
       clipPathUnits="userSpaceOnUse"
       id="clipPath3015">
      <use
         xlink:href="#shield"
         id="use3017"
         style="fill:url(#radialGradient3019);stroke:#000000;stroke-width:3"
         x="0"
         y="0"
         width="1"
         height="1" />
    </clipPath>
    <radialGradient
       inkscape:collect="always"
       xlink:href="#rg"
       id="radialGradient3019"
       gradientUnits="userSpaceOnUse"
       cx="220"
       cy="220"
       r="405" />
    <radialGradient
       inkscape:collect="always"
       xlink:href="#rg"
       id="radialGradient3072"
       gradientUnits="userSpaceOnUse"
       cx="220"
       cy="220"
       r="405" />
    <radialGradient
       id="rg-1"
       gradientUnits="userSpaceOnUse"
       cx="220"
       cy="220"
       r="405">
      <stop
         style="stop-color:#fff;stop-opacity:.3"
         offset="0"
         id="stop7-7" />
      <stop
         style="stop-color:#fff;stop-opacity:.2"
         offset=".2"
         id="stop9-4" />
      <stop
         style="stop-color:#666;stop-opacity:.1"
         offset=".6"
         id="stop11-0" />
      <stop
         style="stop-color:#000;stop-opacity:.13"
         offset="1"
         id="stop13-9" />
    </radialGradient>
    <radialGradient
       id="radialGradient3033"
       gradientUnits="userSpaceOnUse"
       cx="220"
       cy="220"
       r="405">
      <stop
         style="stop-color:#fff;stop-opacity:.3"
         offset="0"
         id="stop3035" />
      <stop
         style="stop-color:#fff;stop-opacity:.2"
         offset=".2"
         id="stop3037" />
      <stop
         style="stop-color:#666;stop-opacity:.1"
         offset=".6"
         id="stop3039" />
      <stop
         style="stop-color:#000;stop-opacity:.13"
         offset="1"
         id="stop3041" />
    </radialGradient>
  </defs>
  <path
     inkscape:connector-curvature="0"
     style="fill:#ffffff"
     d="m 2,2 0,257 c 0,286 298,398 298,398 0,0 298,-112 298,-398 L 598,2 2,2 z"
     id="rect18" />
  <path
     style="fill:#0000cc"
     inkscape:connector-curvature="0"
     id="path20"
     d="M 100,0 300,510 500,0 z" />
  <g
     transform="matrix(0.45654398,0,0,0.45654398,61.069982,7.519754)"
     id="g4858"
     style="fill:#ffffff;stroke:#000000;stroke-width:2.19036937;stroke-miterlimit:4;stroke-dasharray:none">
    <path
       d="m 447.08808,645.57134 c 0,0 -1.35425,4.82669 0.2778,16.42464 1.59732,11.6674 57.7467,30.48804 41.28732,64.7263 -16.42464,34.27299 5.45173,83.19969 4.89614,94.76292 2.67379,17.64 -11.63268,24.58488 -20.97354,26.49472 -12.32716,1.66677 -30.80056,-8.57692 -24.48071,7.9519 1.73622,19.13315 33.89103,35.76614 56.53134,43.12771 21.00827,0.31252 0.86811,0.10418 48.26693,-0.69448 14.86206,-2.74324 25.20993,-6.07678 26.91142,-19.44567 3.68079,-76.11591 -4.82669,-149.62749 7.6741,-230.39647 -30.69638,1.1459 -140.3908,-2.95157 -140.3908,-2.95157 z"
       id="path4388"
       style="fill:#ffffff;stroke:#000000;stroke-width:2.19036937;stroke-linecap:butt;stroke-linejoin:miter;stroke-miterlimit:4;stroke-opacity:1;stroke-dasharray:none"
       inkscape:connector-curvature="0" />
    <path
       d="m 472.74942,637.2722 c 0,0 2.50017,-73.75464 2.29182,-93.54756 29.82826,-68.71961 31.35614,-79.20638 34.34243,-101.01331 -0.55559,-15.69543 -1.49314,-24.4807 -1.04173,-39.8289 -9.89645,-39.44693 -32.4326,-100.59661 -42.19016,-159.55867 -3.05574,-28.71707 -8.78528,-57.85086 -4.65307,-83.75527 9.72284,-59.0315 53.71867,-140.599135 66.39308,-141.085277 16.80662,-0.625039 61.67055,88.200007 55.42016,153.273547 -2.67379,77.12292 6.42402,376.65567 7.46575,456.45237 -30.66166,-1.1459 -118.02828,9.06307 -118.02828,9.06307 z"
       id="path4392"
       style="fill:#ffffff;fill-opacity:1;fill-rule:nonzero;stroke:#000000;stroke-width:2.19036937;stroke-linecap:butt;stroke-linejoin:miter;stroke-miterlimit:4;stroke-opacity:1;stroke-dasharray:none"
       inkscape:connector-curvature="0" />
    <path
       d="m 510.66848,667.34355 c 2.32653,2.98629 45.00284,39.09968 69.65717,68.02511"
       id="path4402"
       style="fill:#ffffff;stroke:#000000;stroke-width:2.19036937;stroke-linecap:butt;stroke-linejoin:miter;stroke-miterlimit:4;stroke-opacity:1;stroke-dasharray:none"
       inkscape:connector-curvature="0" />
    <path
       d="m 577.79076,668.87142 c -2.32653,2.98629 -69.34464,63.44149 -93.99897,92.36693"
       id="path4404"
       style="fill:#ffffff;stroke:#000000;stroke-width:2.19036937;stroke-linecap:butt;stroke-linejoin:miter;stroke-miterlimit:4;stroke-opacity:1;stroke-dasharray:none"
       inkscape:connector-curvature="0" />
    <path
       d="m 562.99816,649.66881 c -2.04874,2.63907 -42.39849,38.92607 -71.53228,69.90024"
       id="path4406"
       style="fill:#ffffff;stroke:#000000;stroke-width:2.19036937;stroke-linecap:butt;stroke-linejoin:miter;stroke-miterlimit:4;stroke-opacity:1;stroke-dasharray:none"
       inkscape:connector-curvature="0" />
    <path
       d="m 500.52895,628.76473 c 2.32654,2.98629 57.15639,51.28795 81.81072,80.21338"
       id="path4408"
       style="fill:#ffffff;stroke:#000000;stroke-width:2.19036937;stroke-linecap:butt;stroke-linejoin:miter;stroke-miterlimit:4;stroke-opacity:1;stroke-dasharray:none"
       inkscape:connector-curvature="0" />
    <path
       d="m 474.93706,567.96228 c 46.39181,-25.14047 45.03756,-24.61961 53.37142,-29.27268 60.97607,26.42528 1.87512,0.83339 60.52465,26.52945"
       id="path4412"
       style="fill:#ffffff;stroke:#000000;stroke-width:2.19036937;stroke-linecap:butt;stroke-linejoin:miter;stroke-miterlimit:4;stroke-opacity:1;stroke-dasharray:none"
       inkscape:connector-curvature="0" />
    <path
       d="m 427.191,633.20945 c -22.50142,-47.15575 -78.96332,13.50779 -29.16851,33.33544 15.10512,0.34724 0.62504,0.0347 76.60205,0.97227 -0.24307,7.88245 2.15291,6.45874 -0.17363,5.72953 23.92513,-0.45141 122.47301,4.89614 122.92443,-2.7085 25.93913,0.17362 48.68362,0.20835 67.9904,0.17362 1.77093,-0.10418 2.63905,-0.59032 2.74322,-2.91685 1.35425,-30.00189 -0.52087,-19.68874 -0.52087,-28.96015 0,-1.25008 -1.56259,-2.74324 -3.85441,-3.12521 -9.6881,0.1389 2.88213,-0.79866 -66.87921,-0.27779 -0.45142,-8.29914 -7.98662,-6.31984 -14.7926,-7.29213 -109.86804,0.31252 0.4167,-1.77095 -109.76387,-1.70149 -10.93818,0.69448 -10.76456,6.38928 -11.56323,7.2574 z"
       id="path4414"
       style="fill:#ffffff;fill-opacity:1;fill-rule:nonzero;stroke:#000000;stroke-width:2.19036937;stroke-linecap:butt;stroke-linejoin:miter;stroke-miterlimit:4;stroke-opacity:1;stroke-dasharray:none"
       inkscape:connector-curvature="0" />
    <path
       d="M 560.9147,534.69629 C 544.45534,133.55991 577.96439,150.57487 541.36486,93.453215 c -2.32653,2.986299 5.76425,355.716855 5.45173,419.193075 z"
       id="path4418"
       style="fill:#ffffff;fill-opacity:1;fill-rule:nonzero;stroke:#000000;stroke-width:2.19036937;stroke-linecap:butt;stroke-linejoin:miter;stroke-miterlimit:4;stroke-opacity:1;stroke-dasharray:none"
       inkscape:connector-curvature="0" />
    <path
       d="m 485.14604,733.4241 c 2.32654,2.98629 69.34464,63.47622 93.99898,92.40165"
       id="path4420"
       style="fill:#ffffff;stroke:#000000;stroke-width:2.19036937;stroke-linecap:butt;stroke-linejoin:miter;stroke-miterlimit:4;stroke-opacity:1;stroke-dasharray:none"
       inkscape:connector-curvature="0" />
    <path
       d="m 490.38942,709.95039 c 2.32654,2.98631 65.76804,58.8926 90.42237,87.85276"
       id="path4422"
       style="fill:#ffffff;stroke:#000000;stroke-width:2.19036937;stroke-linecap:butt;stroke-linejoin:miter;stroke-miterlimit:4;stroke-opacity:1;stroke-dasharray:none"
       inkscape:connector-curvature="0" />
    <path
       d="m 487.85454,676.02464 c 2.32654,2.98631 69.34465,63.47622 93.99898,92.40166"
       id="path4424"
       style="fill:#ffffff;stroke:#000000;stroke-width:2.19036937;stroke-linecap:butt;stroke-linejoin:miter;stroke-miterlimit:4;stroke-opacity:1;stroke-dasharray:none"
       inkscape:connector-curvature="0" />
    <path
       d="m 484.27792,758.66874 c 1.63206,2.04874 38.78717,38.19685 66.46253,65.28189"
       id="path4426"
       style="fill:#ffffff;stroke:#000000;stroke-width:2.19036937;stroke-linecap:butt;stroke-linejoin:miter;stroke-miterlimit:4;stroke-opacity:1;stroke-dasharray:none"
       inkscape:connector-curvature="0" />
    <path
       d="m 486.32666,783.80921 c 2.32654,2.9863 33.23127,32.7104 39.58584,39.9678"
       id="path4428"
       style="fill:#ffffff;stroke:#000000;stroke-width:2.19036937;stroke-linecap:butt;stroke-linejoin:miter;stroke-miterlimit:4;stroke-opacity:1;stroke-dasharray:none"
       inkscape:connector-curvature="0" />
    <path
       d="m 580.81179,723.14567 c -2.32654,2.9863 -65.28189,61.42748 -89.93622,90.38764"
       id="path4430"
       style="fill:#ffffff;stroke:#000000;stroke-width:2.19036937;stroke-linecap:butt;stroke-linejoin:miter;stroke-miterlimit:4;stroke-opacity:1;stroke-dasharray:none"
       inkscape:connector-curvature="0" />
    <path
       d="m 582.86053,695.22724 c -2.32653,2.9863 -69.34465,63.47622 -93.99898,92.40166"
       id="path4432"
       style="fill:#ffffff;stroke:#000000;stroke-width:2.19036937;stroke-linecap:butt;stroke-linejoin:miter;stroke-miterlimit:4;stroke-opacity:1;stroke-dasharray:none"
       inkscape:connector-curvature="0" />
    <path
       d="m 580.81179,753.07811 c -2.04874,2.67378 -42.39851,38.92607 -71.53229,69.90024"
       id="path4434"
       style="fill:#ffffff;stroke:#000000;stroke-width:2.19036937;stroke-linecap:butt;stroke-linejoin:miter;stroke-miterlimit:4;stroke-opacity:1;stroke-dasharray:none"
       inkscape:connector-curvature="0" />
    <path
       d="m 581.36738,782.42024 c -10.97291,10.31315 -27.25866,25.66134 -42.84992,41.32204"
       id="path4436"
       style="fill:#ffffff;stroke:#000000;stroke-width:2.19036937;stroke-linecap:butt;stroke-linejoin:miter;stroke-miterlimit:4;stroke-opacity:1;stroke-dasharray:none"
       inkscape:connector-curvature="0" />
    <path
       d="m 579.59643,824.29788 c -86.04709,1.18062 0.17363,-0.24307 -85.97764,0.7292"
       id="path4438"
       style="fill:#ffffff;stroke:#000000;stroke-width:2.19036937;stroke-linecap:butt;stroke-linejoin:miter;stroke-miterlimit:4;stroke-opacity:1;stroke-dasharray:none"
       inkscape:connector-curvature="0" />
    <path
       d="m 522.26643,833.95126 c 6.28512,13.85504 5.72953,39.34276 -9.86173,55.00347"
       id="path4442"
       style="fill:#ffffff;stroke:#000000;stroke-width:2.19036937;stroke-linecap:butt;stroke-linejoin:miter;stroke-miterlimit:4;stroke-opacity:1;stroke-dasharray:none"
       inkscape:connector-curvature="0" />
    <path
       d="m 550.98352,788.63591 c 0,10.34787 -8.16024,18.75117 -18.23031,18.75117 -10.07008,0 -18.23032,-8.4033 -18.23032,-18.75117 0,-10.34788 8.16024,-18.75118 18.23032,-18.75118 10.07007,0 18.23031,8.4033 18.23031,18.75118 z"
       id="path4444"
       style="fill:#ffffff;fill-opacity:1;fill-rule:nonzero;stroke:#000000;stroke-width:2.19036937;stroke-linecap:butt;stroke-linejoin:miter;stroke-miterlimit:4;stroke-opacity:1;stroke-dasharray:none"
       inkscape:connector-curvature="0" />
    <path
       d="m 551.53911,719.60378 c 0,10.38259 -8.16023,18.78591 -18.23031,18.78591 -10.07008,0 -18.23032,-8.40332 -18.23032,-18.78591 0,-10.34788 8.16024,-18.75118 18.23032,-18.75118 10.07008,0 18.23031,8.4033 18.23031,18.75118 z"
       id="path4446"
       style="fill:#ffffff;fill-opacity:1;fill-rule:nonzero;stroke:#000000;stroke-width:2.19036937;stroke-linecap:butt;stroke-linejoin:miter;stroke-miterlimit:4;stroke-opacity:1;stroke-dasharray:none"
       inkscape:connector-curvature="0" />
    <path
       d="m 528.03068,541.36338 0.4167,-473.814576"
       id="path4448"
       style="fill:#ffffff;fill-opacity:1;fill-rule:nonzero;stroke:#000000;stroke-width:2.19036937;stroke-linecap:butt;stroke-linejoin:miter;stroke-miterlimit:4;stroke-opacity:1;stroke-dasharray:none"
       inkscape:connector-curvature="0" />
    <path
       d="m 427.191,641.36968 c 0,13.99394 -11.11182,25.34882 -24.82796,25.34882 -13.68142,0 -24.79323,-11.35488 -24.79323,-25.34882 0,-13.99394 11.11181,-25.34882 24.79323,-25.34882 13.71614,0 24.82796,11.35488 24.82796,25.34882 z"
       id="path4458"
       style="fill:#ffffff;fill-opacity:1;fill-rule:evenodd;stroke:#000000;stroke-width:2.19036937;stroke-linecap:square;stroke-linejoin:miter;stroke-miterlimit:4;stroke-opacity:1;stroke-dasharray:none"
       inkscape:connector-curvature="0" />
    <path
       d="m 462.26265,631.82047 c -0.31252,-3.09047 3.05575,-5.17394 12.18826,-5.55591 l 110.63199,1.04174 c 4.86141,-0.10417 10.31314,-0.17363 11.87574,7.1185 l 1.49315,36.28701 -0.17362,-3.19465 c 0.48614,4.61835 -2.11819,7.95189 -5.13921,8.40331 l -115.6323,-0.93756 c -3.92385,1.52788 -13.36889,-4.61835 -15.73015,-10.66039 z"
       id="path4466"
       style="fill:#ffffff;fill-opacity:1;fill-rule:nonzero;stroke:#000000;stroke-width:2.19036937;stroke-linecap:butt;stroke-linejoin:miter;stroke-miterlimit:4;stroke-opacity:1;stroke-dasharray:none"
       inkscape:connector-curvature="0" />
  </g>
  <use
     height="1052.3622"
     width="744.09448"
     y="0"
     x="0"
     style="fill:url(#rg-1);stroke:#000000;stroke-width:3"
     id="shine"
     xlink:href="#shield" />
</svg>
