<?xml version="1.0" encoding="UTF-8"?>
<svg xmlns="http://www.w3.org/2000/svg" xmlns:xlink="http://www.w3.org/1999/xlink" width="600" height="660">
<defs>
  <radialGradient id="rg" gradientUnits="userSpaceOnUse" cx="220" cy="220" r="405">
    <stop style="stop-color:#fff;stop-opacity:.3" offset="0"/>
    <stop style="stop-color:#fff;stop-opacity:.2" offset=".2"/>
    <stop style="stop-color:#666;stop-opacity:.1" offset=".6"/>
    <stop style="stop-color:#000;stop-opacity:.13" offset="1"/>
  </radialGradient>
  <path id="shield" d="m2,2v257c0,286 298,398 298,398c0,0 298-112 298-398V2z"/>
</defs>
<use xlink:href="#shield" fill="#fff"/>
<path fill="#080" d="M 75 225 L 75 250 L 2 250 L 2 259 C 2 301.42869 8.5574779 340.02778 19.728516 375 L 580.27148 375 C 591.44252 340.02778 598 301.42869 598 259 L 598 250 L 525 250 L 525 225 L 475 225 L 475 250 L 425 250 L 425 225 L 375 225 L 375 250 L 325 250 L 325 225 L 275 225 L 275 250 L 225 250 L 225 225 L 175 225 L 175 250 L 125 250 L 125 225 L 75 225 z "/>
<use id="shine" xlink:href="#shield" fill="url(#rg)" stroke="#000" stroke-width="3"/>
</svg>