<?xml version="1.0" encoding="UTF-8" standalone="no"?>
<svg
   xmlns:dc="http://purl.org/dc/elements/1.1/"
   xmlns:cc="http://creativecommons.org/ns#"
   xmlns:rdf="http://www.w3.org/1999/02/22-rdf-syntax-ns#"
   xmlns:svg="http://www.w3.org/2000/svg"
   xmlns="http://www.w3.org/2000/svg"
   xmlns:xlink="http://www.w3.org/1999/xlink"
   xmlns:sodipodi="http://sodipodi.sourceforge.net/DTD/sodipodi-0.dtd"
   xmlns:inkscape="http://www.inkscape.org/namespaces/inkscape"
   width="600"
   height="660"
   id="svg2"
   version="1.1"
   inkscape:version="0.48.2 r9819"
   sodipodi:docname="House_Tully.svg">
  <metadata
     id="metadata24">
    <rdf:RDF>
      <cc:Work
         rdf:about="">
        <dc:format>image/svg+xml</dc:format>
        <dc:type
           rdf:resource="http://purl.org/dc/dcmitype/StillImage" />
        <dc:title></dc:title>
      </cc:Work>
    </rdf:RDF>
  </metadata>
  <sodipodi:namedview
     pagecolor="#ffffff"
     bordercolor="#666666"
     borderopacity="1"
     objecttolerance="10"
     gridtolerance="10"
     guidetolerance="10"
     inkscape:pageopacity="0"
     inkscape:pageshadow="2"
     inkscape:window-width="1366"
     inkscape:window-height="715"
     id="namedview22"
     showgrid="false"
     inkscape:zoom="0.5056885"
     inkscape:cx="73.534643"
     inkscape:cy="193.32002"
     inkscape:window-x="-8"
     inkscape:window-y="-8"
     inkscape:window-maximized="1"
     inkscape:current-layer="layer2" />
  <defs
     id="defs4">
    <inkscape:path-effect
       is_visible="true"
       id="path-effect3136"
       effect="spiro" />
    <inkscape:path-effect
       effect="spiro"
       id="path-effect3132"
       is_visible="true" />
    <inkscape:path-effect
       effect="spiro"
       id="path-effect3101"
       is_visible="true" />
    <inkscape:path-effect
       is_visible="true"
       id="path-effect3085"
       effect="spiro" />
    <inkscape:path-effect
       is_visible="true"
       id="path-effect3083"
       effect="spiro" />
    <inkscape:path-effect
       is_visible="true"
       id="path-effect3081"
       effect="spiro" />
    <inkscape:path-effect
       is_visible="true"
       id="path-effect3079"
       effect="spiro" />
    <inkscape:path-effect
       is_visible="true"
       id="path-effect3077"
       effect="spiro" />
    <inkscape:path-effect
       is_visible="true"
       id="path-effect3075"
       effect="spiro" />
    <inkscape:path-effect
       effect="spiro"
       id="path-effect3049"
       is_visible="true" />
    <inkscape:path-effect
       is_visible="true"
       id="path-effect3045"
       effect="spiro" />
    <inkscape:path-effect
       effect="spiro"
       id="path-effect3041"
       is_visible="true" />
    <radialGradient
       id="rg"
       gradientUnits="userSpaceOnUse"
       cx="220"
       cy="220"
       r="405">
      <stop
         style="stop-color:#fff;stop-opacity:.3"
         offset="0"
         id="stop7" />
      <stop
         style="stop-color:#fff;stop-opacity:.2"
         offset=".2"
         id="stop9" />
      <stop
         style="stop-color:#666;stop-opacity:.1"
         offset=".6"
         id="stop11" />
      <stop
         style="stop-color:#000;stop-opacity:.13"
         offset="1"
         id="stop13" />
    </radialGradient>
    <path
       id="shield"
       d="m2,2v257c0,286 298,398 298,398c0,0 298-112 298-398V2z" />
    <radialGradient
       inkscape:collect="always"
       xlink:href="#rg-7"
       id="radialGradient3055-1"
       gradientUnits="userSpaceOnUse"
       cx="220"
       cy="220"
       r="405" />
    <radialGradient
       id="rg-7"
       gradientUnits="userSpaceOnUse"
       cx="220"
       cy="220"
       r="405">
      <stop
         style="stop-color:#fff;stop-opacity:.3"
         offset="0"
         id="stop7-4" />
      <stop
         style="stop-color:#fff;stop-opacity:.2"
         offset=".2"
         id="stop9-0" />
      <stop
         style="stop-color:#666;stop-opacity:.1"
         offset=".6"
         id="stop11-9" />
      <stop
         style="stop-color:#000;stop-opacity:.13"
         offset="1"
         id="stop13-4" />
    </radialGradient>
    <radialGradient
       r="405"
       cy="220"
       cx="220"
       gradientUnits="userSpaceOnUse"
       id="radialGradient3074"
       xlink:href="#rg-7"
       inkscape:collect="always" />
    <inkscape:path-effect
       is_visible="true"
       id="path-effect10120-1"
       effect="spiro" />
    <inkscape:path-effect
       effect="spiro"
       id="path-effect10118-3"
       is_visible="true" />
    <inkscape:path-effect
       effect="spiro"
       id="path-effect10116-9"
       is_visible="true" />
    <inkscape:path-effect
       effect="spiro"
       id="path-effect10114-7"
       is_visible="true" />
    <inkscape:path-effect
       effect="spiro"
       id="path-effect10112-7"
       is_visible="true" />
    <inkscape:path-effect
       effect="spiro"
       id="path-effect10110-2"
       is_visible="true" />
    <linearGradient
       inkscape:collect="always"
       xlink:href="#linearGradient4719-5"
       id="linearGradient4039"
       gradientUnits="userSpaceOnUse"
       gradientTransform="matrix(2.3257341,0,0,2.2943177,447.69485,-1820.2799)"
       x1="-145.25935"
       y1="984.24286"
       x2="-64.14286"
       y2="984.14789" />
    <linearGradient
       inkscape:collect="always"
       id="linearGradient4719-5">
      <stop
         style="stop-color:#666666;stop-opacity:1;"
         offset="0"
         id="stop4721-5" />
      <stop
         id="stop4809-1"
         offset="0.39344174"
         style="stop-color:#666666;stop-opacity:0.74901961;" />
      <stop
         style="stop-color:#666666;stop-opacity:0;"
         offset="1"
         id="stop4723-7" />
    </linearGradient>
    <radialGradient
       inkscape:collect="always"
       xlink:href="#linearGradient4801-8"
       id="radialGradient4041"
       gradientUnits="userSpaceOnUse"
       gradientTransform="matrix(-0.72153181,1.2650715,-2.2729984,-1.2616144,1712.0113,1733.7841)"
       cx="-307.14288"
       cy="782.36218"
       fx="-307.14288"
       fy="782.36218"
       r="63" />
    <linearGradient
       inkscape:collect="always"
       id="linearGradient4801-8">
      <stop
         style="stop-color:#000000;stop-opacity:1;"
         offset="0"
         id="stop4803-2" />
      <stop
         style="stop-color:#000000;stop-opacity:0;"
         offset="1"
         id="stop4805-4" />
    </linearGradient>
    <inkscape:path-effect
       effect="spiro"
       id="path-effect10108-4"
       is_visible="true" />
    <linearGradient
       inkscape:collect="always"
       xlink:href="#linearGradient4719-5"
       id="linearGradient4044"
       gradientUnits="userSpaceOnUse"
       gradientTransform="matrix(-2.4055369,0,0,-1.6485021,142.06168,1726.5307)"
       x1="-145.25935"
       y1="984.24286"
       x2="-64.14286"
       y2="984.14789" />
    <radialGradient
       inkscape:collect="always"
       xlink:href="#linearGradient4801-8"
       id="radialGradient4046"
       gradientUnits="userSpaceOnUse"
       gradientTransform="matrix(0.74628962,-0.90897301,2.3509914,0.90648896,-1165.637,-827.11785)"
       cx="-307.14288"
       cy="782.36218"
       fx="-307.14288"
       fy="782.36218"
       r="63" />
    <inkscape:path-effect
       effect="spiro"
       id="path-effect10102-7"
       is_visible="true" />
    <linearGradient
       inkscape:collect="always"
       xlink:href="#linearGradient4719-5"
       id="linearGradient4049"
       gradientUnits="userSpaceOnUse"
       gradientTransform="matrix(2.334989,0,0,-1.6146975,449.44065,1692.189)"
       x1="-145.25935"
       y1="984.24286"
       x2="-64.14286"
       y2="984.14789" />
    <radialGradient
       inkscape:collect="always"
       xlink:href="#linearGradient4801-8"
       id="radialGradient4051"
       gradientUnits="userSpaceOnUse"
       gradientTransform="matrix(-0.72440295,-0.89033332,-2.2820431,0.88790031,1718.7881,-809.09364)"
       cx="-307.14288"
       cy="782.36218"
       fx="-307.14288"
       fy="782.36218"
       r="63" />
    <inkscape:path-effect
       is_visible="true"
       id="path-effect10096-8"
       effect="spiro" />
    <linearGradient
       inkscape:collect="always"
       xlink:href="#linearGradient4719-5"
       id="linearGradient4054"
       gradientUnits="userSpaceOnUse"
       gradientTransform="matrix(-2.409599,0,0,2.2818507,139.61083,-1810.8163)"
       x1="-145.25935"
       y1="984.24286"
       x2="-64.14286"
       y2="984.14789" />
    <radialGradient
       inkscape:collect="always"
       xlink:href="#linearGradient4801-8"
       id="radialGradient4056"
       gradientUnits="userSpaceOnUse"
       gradientTransform="matrix(0.74754985,1.2581972,2.3549614,-1.2547588,-1170.296,1723.935)"
       cx="-307.14288"
       cy="782.36218"
       fx="-307.14288"
       fy="782.36218"
       r="63" />
    <inkscape:path-effect
       is_visible="true"
       id="path-effect10090-3"
       effect="spiro" />
    <inkscape:path-effect
       effect="spiro"
       id="path-effect10084-1"
       is_visible="true" />
    <inkscape:path-effect
       effect="spiro"
       id="path-effect10082-1"
       is_visible="true" />
    <radialGradient
       inkscape:collect="always"
       xlink:href="#linearGradient4801-8"
       id="radialGradient4061"
       gradientUnits="userSpaceOnUse"
       gradientTransform="matrix(-0.76516322,1.2901254,-2.4104477,-1.2865998,1806.8444,1757.4704)"
       cx="-307.14288"
       cy="782.36218"
       fx="-307.14288"
       fy="782.36218"
       r="63" />
    <inkscape:path-effect
       effect="spiro"
       id="path-effect10080-4"
       is_visible="true" />
    <inkscape:path-effect
       is_visible="true"
       id="path-effect3075-1"
       effect="spiro" />
    <inkscape:path-effect
       effect="spiro"
       id="path-effect3101-7"
       is_visible="true" />
    <linearGradient
       inkscape:collect="always"
       xlink:href="#grad1-7-7"
       id="linearGradient3085-8-8"
       gradientUnits="userSpaceOnUse"
       gradientTransform="matrix(0.77469594,0,0,0.30982404,152.68996,-13.619206)"
       x1="78.877235"
       y1="178.07356"
       x2="301.40585"
       y2="178.07356" />
    <linearGradient
       id="grad1-7-7"
       x1="78.877235"
       y1="178.07356"
       x2="301.40585"
       y2="178.07356"
       gradientTransform="scale(1.577772,0.63380513)"
       gradientUnits="userSpaceOnUse">
      <stop
         offset="0%"
         style="stop-color:#da0;"
         id="stop16-4-4" />
      <stop
         offset="40%"
         style="stop-color:#fd0;"
         id="stop18-0-0" />
      <stop
         offset="60%"
         style="stop-color:#fd0;"
         id="stop20-9-9" />
      <stop
         offset="100%"
         style="stop-color:#da0;"
         id="stop22-4-4" />
    </linearGradient>
    <linearGradient
       inkscape:collect="always"
       xlink:href="#grad1-7-7"
       id="linearGradient3081-8-8"
       gradientUnits="userSpaceOnUse"
       gradientTransform="matrix(0.77469594,0,0,0.30982404,-27.310046,-13.619206)"
       x1="78.877235"
       y1="178.07356"
       x2="301.40585"
       y2="178.07356" />
    <linearGradient
       id="linearGradient3093"
       x1="78.877235"
       y1="178.07356"
       x2="301.40585"
       y2="178.07356"
       gradientTransform="scale(1.577772,0.63380513)"
       gradientUnits="userSpaceOnUse">
      <stop
         offset="0%"
         style="stop-color:#da0;"
         id="stop3095" />
      <stop
         offset="40%"
         style="stop-color:#fd0;"
         id="stop3097" />
      <stop
         offset="60%"
         style="stop-color:#fd0;"
         id="stop3099" />
      <stop
         offset="100%"
         style="stop-color:#da0;"
         id="stop3101" />
    </linearGradient>
    <linearGradient
       y2="178.07356"
       x2="301.40585"
       y1="178.07356"
       x1="78.877235"
       gradientTransform="matrix(0.77469594,0,0,0.30982404,332.68995,-13.619206)"
       gradientUnits="userSpaceOnUse"
       id="linearGradient3128-1"
       xlink:href="#grad1-7-7"
       inkscape:collect="always" />
    <linearGradient
       id="linearGradient3104"
       x1="78.877235"
       y1="178.07356"
       x2="301.40585"
       y2="178.07356"
       gradientTransform="scale(1.577772,0.63380513)"
       gradientUnits="userSpaceOnUse">
      <stop
         offset="0%"
         style="stop-color:#da0;"
         id="stop3106" />
      <stop
         offset="40%"
         style="stop-color:#fd0;"
         id="stop3108" />
      <stop
         offset="60%"
         style="stop-color:#fd0;"
         id="stop3110" />
      <stop
         offset="100%"
         style="stop-color:#da0;"
         id="stop3112" />
    </linearGradient>
  </defs>
  <g
     inkscape:groupmode="layer"
     id="layer2"
     inkscape:label="Elements"
     style="display:inline">
    <path
       inkscape:connector-curvature="0"
       style="fill:#ffffff;fill-opacity:1;stroke:none;display:inline"
       id="path7212"
       d="m 2,2 0,257 c 0,286 298,398 298,398 0,0 298,-112 298,-398 L 598,2 z" />
    <path
       inkscape:connector-curvature="0"
       style="fill:none;stroke:none;display:inline"
       id="path7200"
       d="m 2,2 0,257 c 0,286 298,398 298,398 0,0 298,-112 298,-398 L 598,2 z" />
    <path
       inkscape:connector-curvature="0"
       style="fill:#008800;fill-opacity:1;fill-rule:nonzero;stroke:none;display:inline"
       d="m 103.8125,235.125 c -26.145328,0 -26.167187,19.99998 -52.3125,20 -25.178606,0 -26.115124,-18.53463 -49.5,-19.90625 L 2,259 c 0,21.34657 1.6775696,41.72256 4.75,61.15625 C 25.652566,323.56169 28.144012,339.5 51.5,339.5 c 26.145313,-2e-5 26.167172,-20 52.3125,-20 26.14531,0 26.13594,20 52.28125,20 26.14531,0 26.13594,-20 52.28125,-20 26.1453,0 26.16719,20 52.3125,20 26.14532,0 26.13594,-20 52.28125,-20 26.14531,0 26.13594,20 52.28125,20 26.14531,0 26.16719,-20 52.3125,-20 26.14531,0 26.13593,20 52.28125,20 26.14533,0 26.13594,-20 52.28125,-20 26.14532,0 26.13594,20 52.28125,20 6.75572,0 11.76865,-1.33338 15.9375,-3.3125 C 595.25536,312.00559 598,286.29847 598,259 l 0,-11.9375 c -5.79031,4.27685 -12.21366,8.0625 -23.59375,8.0625 -26.14531,0 -26.13593,-20 -52.28125,-20 -26.14531,0 -26.13592,20 -52.28125,20 -26.14532,0 -26.13594,-20 -52.28125,-20 -26.14531,0 -26.16719,20 -52.3125,20 -26.14531,0 -26.13594,-20 -52.28125,-20 -26.14531,0 -26.13593,20 -52.28125,20 -26.14531,0 -26.1672,-20 -52.3125,-20 -26.14531,0 -26.13594,20 -52.28125,20 -26.14531,0 -26.13594,-20 -52.28125,-20 z"
       id="path3341" />
    <path
       inkscape:connector-curvature="0"
       style="fill:#ffff00;fill-opacity:1;fill-rule:nonzero;stroke:none;display:inline"
       d="m 103.8125,403.875 c -26.145328,0 -26.167187,19.99998 -52.3125,20 -5.393244,0 -9.654693,-0.83655 -13.28125,-2.1875 12.701066,26.67232 28.042501,50.85663 44.84375,72.625 5.128448,-3.39191 11.191122,-6.0625 20.75,-6.0625 26.14531,0 26.13594,20 52.28125,20 26.14531,0 26.13594,-20 52.28125,-20 26.1453,0 26.16719,20 52.3125,20 26.14532,0 26.13594,-20 52.28125,-20 26.14531,0 26.13594,20 52.28125,20 26.14531,0 26.16719,-20 52.3125,-20 26.14531,0 26.13593,20 52.28125,20 25.94093,0 26.14917,-19.6609 51.6875,-19.96875 14.97225,-20.12255 28.63603,-42.24825 40.15625,-66.40625 -14.40418,-5.0646 -18.53516,-18 -39.5625,-18 -26.14531,0 -26.13592,20 -52.28125,20 -26.14532,0 -26.13594,-20 -52.28125,-20 -26.14531,0 -26.16719,20 -52.3125,20 -26.14531,0 -26.13594,-20 -52.28125,-20 -26.14531,0 -26.13593,20 -52.28125,20 -26.14531,0 -26.1672,-20 -52.3125,-20 -26.14531,0 -26.13594,20 -52.28125,20 -26.14531,0 -26.13594,-20 -52.28125,-20 z"
       id="path3339" />
    <path
       inkscape:connector-curvature="0"
       style="fill:#008800;fill-opacity:1;stroke:none;display:inline"
       d="M 2,2 2,66.46875 C 25.384876,67.840372 26.321394,86.375 51.5,86.375 c 26.145313,-2e-5 26.167172,-20 52.3125,-20 26.14529,0 26.13594,20 52.28125,20 26.14531,0 26.13594,-20 52.28125,-20 26.1453,0 26.16718,20 52.3125,20 26.14533,0 26.13594,-20 52.28125,-20 26.14531,0 26.13594,20 52.28125,20 26.14531,0 26.16719,-20 52.3125,-20 26.14531,0 26.13592,20 52.28125,20 26.14533,0 26.13595,-20 52.28125,-20 26.14533,0 26.13594,20 52.28125,20 11.3801,0 17.80345,-3.785652 23.59375,-8.0625 L 598,2 2,2 z"
       id="path3305" />
    <path
       inkscape:connector-curvature="0"
       style="fill:#ffff00;fill-opacity:1;stroke:none;display:inline"
       d="m 103.8125,150.75 c -26.145328,0 -26.167187,19.99998 -52.3125,20 -25.178606,0 -26.115124,-18.53463 -49.5,-19.90625 l 0,84.375 c 23.384876,1.37162 24.321394,19.90625 49.5,19.90625 26.145313,-2e-5 26.167172,-20 52.3125,-20 26.14531,0 26.13594,20 52.28125,20 26.14531,0 26.13594,-20 52.28125,-20 26.1453,0 26.16719,20 52.3125,20 26.14532,0 26.13594,-20 52.28125,-20 26.14531,0 26.13594,20 52.28125,20 26.14531,0 26.16719,-20 52.3125,-20 26.14531,0 26.13593,20 52.28125,20 26.14533,0 26.13594,-20 52.28125,-20 26.14532,0 26.13594,20 52.28125,20 11.38009,0 17.80344,-3.78565 23.59375,-8.0625 l 0,-84.375 c -5.7903,4.27685 -12.21365,8.0625 -23.59375,8.0625 -26.14531,0 -26.13591,-20 -52.28125,-20 -26.1453,0 -26.13592,20 -52.28125,20 -26.14533,0 -26.13594,-20 -52.28125,-20 -26.14531,0 -26.16719,20 -52.3125,20 -26.14531,0 -26.13594,-20 -52.28125,-20 -26.14531,0 -26.13592,20 -52.28125,20 -26.14532,0 -26.1672,-20 -52.3125,-20 -26.14531,0 -26.13594,20 -52.28125,20 -26.14531,0 -26.13596,-20 -52.28125,-20 z"
       id="path3303" />
    <path
       inkscape:connector-curvature="0"
       style="fill:#008800;fill-opacity:1;stroke:none;display:inline"
       d="m 103.8125,488.25 c -9.558878,0 -15.621552,2.67059 -20.75,6.0625 29.0195,37.59882 62.40321,68.04303 94.15625,92 8.67831,-5.85938 14.81543,-13.6875 31.15625,-13.6875 26.1453,0 26.16719,20 52.3125,20 26.14532,0 26.13594,-20 52.28125,-20 26.14531,0 26.13594,20 52.28125,20 26.14531,0 26.16719,-20 52.3125,-20 7.64473,0 13.05104,1.70515 17.53125,4.125 29.64708,-23.69928 60.02669,-53.01813 86.40625,-88.46875 -25.50622,0.32403 -25.72626,19.96875 -51.65625,19.96875 -26.14532,0 -26.13594,-20 -52.28125,-20 -26.14531,0 -26.16719,20 -52.3125,20 -26.14531,0 -26.13594,-20 -52.28125,-20 -26.14531,0 -26.13593,20 -52.28125,20 -26.14531,0 -26.1672,-20 -52.3125,-20 -26.14531,0 -26.13594,20 -52.28125,20 -26.14531,0 -26.13594,-20 -52.28125,-20 z"
       id="path3261" />
  </g>
  <g
     inkscape:groupmode="layer"
     id="layer1"
     inkscape:label="Cover"
     style="display:inline"
     sodipodi:insensitive="true">
    <path
       d="m 2,2 v 257 c 0,286 298,398 298,398 0,0 298,-112 298,-398 V 2 z"
       id="shine"
       inkscape:connector-curvature="0"
       style="fill:url(#radialGradient3074);stroke:#000000;stroke-width:3" />
  </g>
</svg>
