<?xml version="1.0" encoding="UTF-8" standalone="no"?>
<svg
   xmlns:dc="http://purl.org/dc/elements/1.1/"
   xmlns:cc="http://creativecommons.org/ns#"
   xmlns:rdf="http://www.w3.org/1999/02/22-rdf-syntax-ns#"
   xmlns:svg="http://www.w3.org/2000/svg"
   xmlns="http://www.w3.org/2000/svg"
   xmlns:xlink="http://www.w3.org/1999/xlink"
   xmlns:sodipodi="http://sodipodi.sourceforge.net/DTD/sodipodi-0.dtd"
   xmlns:inkscape="http://www.inkscape.org/namespaces/inkscape"
   width="600"
   height="660"
   id="svg2"
   version="1.1"
   inkscape:version="0.48.2 r9819"
   sodipodi:docname="House_Ironsmith.svg">
  <metadata
     id="metadata24">
    <rdf:RDF>
      <cc:Work
         rdf:about="">
        <dc:format>image/svg+xml</dc:format>
        <dc:type
           rdf:resource="http://purl.org/dc/dcmitype/StillImage" />
        <dc:title></dc:title>
      </cc:Work>
    </rdf:RDF>
  </metadata>
  <sodipodi:namedview
     pagecolor="#ffffff"
     bordercolor="#666666"
     borderopacity="1"
     objecttolerance="10"
     gridtolerance="10"
     guidetolerance="10"
     inkscape:pageopacity="0"
     inkscape:pageshadow="2"
     inkscape:window-width="1366"
     inkscape:window-height="715"
     id="namedview22"
     showgrid="false"
     inkscape:zoom="0.5056885"
     inkscape:cx="81.543128"
     inkscape:cy="374.37605"
     inkscape:window-x="-8"
     inkscape:window-y="-8"
     inkscape:window-maximized="1"
     inkscape:current-layer="layer2" />
  <defs
     id="defs4">
    <radialGradient
       id="rg"
       gradientUnits="userSpaceOnUse"
       cx="220"
       cy="220"
       r="405">
      <stop
         style="stop-color:#fff;stop-opacity:.3"
         offset="0"
         id="stop7" />
      <stop
         style="stop-color:#fff;stop-opacity:.2"
         offset=".2"
         id="stop9" />
      <stop
         style="stop-color:#666;stop-opacity:.1"
         offset=".6"
         id="stop11" />
      <stop
         style="stop-color:#000;stop-opacity:.13"
         offset="1"
         id="stop13" />
    </radialGradient>
    <path
       id="shield"
       d="m2,2v257c0,286 298,398 298,398c0,0 298-112 298-398V2z" />
    <radialGradient
       inkscape:collect="always"
       xlink:href="#rg-7"
       id="radialGradient3055-1"
       gradientUnits="userSpaceOnUse"
       cx="220"
       cy="220"
       r="405" />
    <radialGradient
       id="rg-7"
       gradientUnits="userSpaceOnUse"
       cx="220"
       cy="220"
       r="405">
      <stop
         style="stop-color:#fff;stop-opacity:.3"
         offset="0"
         id="stop7-4" />
      <stop
         style="stop-color:#fff;stop-opacity:.2"
         offset=".2"
         id="stop9-0" />
      <stop
         style="stop-color:#666;stop-opacity:.1"
         offset=".6"
         id="stop11-9" />
      <stop
         style="stop-color:#000;stop-opacity:.13"
         offset="1"
         id="stop13-4" />
    </radialGradient>
    <radialGradient
       r="405"
       cy="220"
       cx="220"
       gradientUnits="userSpaceOnUse"
       id="radialGradient3074"
       xlink:href="#rg-7"
       inkscape:collect="always" />
  </defs>
  <g
     inkscape:groupmode="layer"
     id="layer2"
     inkscape:label="Elements"
     style="display:inline">
    <use
       height="1052.3622"
       width="744.09448"
       y="0"
       x="0"
       id="background"
       xlink:href="#shield"
       style="fill:#ffdd00" />
    <path
       id="bordure"
       d="m 2,2 0,257 c 0,286 298,398 298,398 0,0 298,-112 298,-398 L 598,2 2,2 z m 98,98 400,0 0,159 C 500,424.40588 365.1074,515.01826 300,549.1543 234.8926,515.01826 100,424.40588 100,259 l 0,-159 z"
       style="fill:#008800"
       inkscape:connector-curvature="0" />
    <g
       transform="matrix(0.9,0,0,0.9,-326.43406,80.000811)"
       id="g3196">
      <path
         style="fill:#008800;fill-opacity:1;fill-rule:evenodd;stroke:#000000;stroke-width:1.66666663;stroke-linecap:butt;stroke-linejoin:miter;stroke-miterlimit:4;stroke-opacity:1;stroke-dasharray:none"
         d="m 685.13276,298.09751 c 3.93187,-1.18039 10.81319,2.13257 14.67947,5.46145 5.76105,5.39949 11.36253,13.12143 12.83393,20.55806 -6.22038,10.15639 -12.95943,20.4715 -18.509,31.00142 -3.06362,5.81299 -5.59467,11.69146 -8.15546,17.64482 -0.97719,2.27179 -1.95871,4.55449 -2.97581,6.84863 -1.03835,4.03241 -0.48596,8.19668 -0.66206,12.30767 -1.27983,41.45502 17.72013,60.8559 47.38029,86.86671 l 5.51481,-2.93687 c -20.68158,-13.32283 -45.78544,-38.19068 -48.64381,-70.72243 -0.42191,-7.96022 -2.11683,-15.43831 -0.64043,-22.8748 0.79012,-3.97974 3.30113,-7.94153 4.86021,-11.94318 7.79374,-18.43504 11.18827,-20.75515 25.46415,-44.66412 3.18712,-5.77436 6.28851,-12.54936 11.44769,-16.20889 1.44499,-1.02497 3.0514,-0.73278 4.86634,-1.4123 l -0.98461,-3.66684 c -5.06086,1.36849 -8.8974,4.51966 -11.8663,8.38619 -1.46255,2.29638 -2.90668,4.61444 -4.34588,6.92625 -2.14517,-6.43558 -6.39749,-12.42916 -11.06842,-17.14586 -4.33894,-4.65087 -11.17523,-7.78797 -17.55571,-8.15823 m -3.76627,85.2467 c 3.81765,-16.91359 0.88077,-4.23195 0,0 z"
         id="path3198"
         sodipodi:nodetypes="cccsscccccsccscccccccc"
         inkscape:connector-curvature="0" />
      <path
         sodipodi:nodetypes="ccscscc"
         style="fill:#cc0000;stroke:#000000;stroke-width:1.66666663;stroke-miterlimit:4;stroke-opacity:1;stroke-dasharray:none"
         d="m 685.77794,388.14738 c 1.49166,-2.0993 1.95149,-6.26227 4.8216,-5.60469 4.12016,-0.007 7.99826,-3.09838 9.1914,-7.66852 1.39498,-5.34327 -1.39329,-10.70606 -6.22768,-11.96819 -4.83439,-1.26213 -9.90257,2.04955 -11.29755,7.39282 -0.99277,3.80265 0.15234,7.61009 2.6276,9.94686 0.17683,1.92169 1.21931,3.26627 -1.52669,7.13651"
         id="path3200"
         inkscape:connector-curvature="0" />
      <path
         style="fill:#008800;fill-rule:evenodd;stroke:#000000;stroke-width:1.66666663;stroke-linecap:butt;stroke-linejoin:miter;stroke-miterlimit:4;stroke-opacity:1;stroke-dasharray:none"
         d="m 685.53533,387.87228 c 17.42547,0.46159 31.72893,-15.07367 38.93488,-29.88717 7.79634,-20.85242 25.66926,-33.6464 32.43217,-2.35265 1.6766,32.36718 -33.10603,38.01941 -58.33968,35.82872 -4.52064,-0.36032 -8.78558,0.85946 -13.31895,1.4214 -1.22164,0.15142 -2.46278,1.69447 -3.73366,1.4204 -18.47571,-0.49578 -36.07541,-2.5501 -52.36869,-11.87362 -10.84119,-7.05288 -21.03209,-14.14469 -18.49492,-31.71048 2.85547,-19.76959 29.59963,-7.68561 36.86239,2.42516 9.45774,13.09803 16.80909,31.07446 34.27933,34.41347"
         id="path3202"
         sodipodi:nodetypes="ccccsccscc"
         inkscape:connector-curvature="0" />
      <path
         style="fill:#008800;fill-rule:evenodd;stroke:#000000;stroke-width:1.66666663;stroke-linecap:butt;stroke-linejoin:miter;stroke-miterlimit:4;stroke-opacity:1;stroke-dasharray:none"
         d="m 727.05403,306.38701 c 2.62627,0.6455 1.28654,-6.68272 1.57001,-8.50136 2.02045,-14.92874 4.53414,-17.08741 12.43039,-30.10555 8.18002,-18.71345 35.72134,-15.8886 26.94897,7.97215 -5.80505,10.32732 -17.93767,14.4613 -26.98047,19.57604 -2.93999,1.66291 -4.66399,2.86941 -7.38144,4.79126 -1.98177,2.89439 -2.01472,7.99208 3.12902,8.76504 3.21369,1.53747 6.71458,1.55657 10.23554,1.25728 9.66876,-0.8219 19.81485,-3.45232 29.52118,-3.17282 6.71681,0.1934 14.70788,8.40172 14.30545,15.53602 -0.43434,7.70005 -10.5333,9.34412 -16.53283,9.89713 -14.00183,1.29064 -15.88301,-1.22494 -27.41483,-7.56802 -10.92027,-6.00671 -8.45881,-12.45248 -16.92081,-15.92501"
         id="path3204"
         sodipodi:nodetypes="ccccsccsssssc"
         inkscape:connector-curvature="0" />
      <path
         sodipodi:nodetypes="ccscscc"
         id="path3206"
         d="m 733.23032,307.66853 c 1.72533,-2.68943 3.45065,-2.05599 5.17598,-2.33918 2.35528,2.32824 6.31823,2.75948 9.58616,0.82686 3.82076,-2.25955 5.26533,-6.89828 3.22096,-10.35516 -2.04435,-3.45687 -6.81124,-4.43598 -10.63201,-2.17642 -2.71912,1.60805 -4.22093,4.42904 -4.13117,7.16374 -0.62733,2.68175 -2.89464,3.72354 -6.10442,3.82284"
         style="fill:#cc0000;stroke:#000000;stroke-width:1.66666663;stroke-miterlimit:4;stroke-opacity:1;stroke-dasharray:none"
         inkscape:connector-curvature="0" />
      <path
         style="fill:#008800;fill-rule:evenodd;stroke:#000000;stroke-width:1.66666663;stroke-linecap:butt;stroke-linejoin:miter;stroke-miterlimit:4;stroke-opacity:1;stroke-dasharray:none"
         d="m 685.92336,298.04447 c -3.08359,6.34991 -8.81798,12.91417 -15.36747,18.25446 -18.30973,14.92932 -53.53881,7.48643 -53.31299,-3.89753 0.29957,-15.10125 14.56906,-18.33034 26.29805,-16.06789 10.93374,2.10905 18.22814,6.43867 27.63745,6.75528 6.37631,0.21456 14.12894,-3.75082 12.54373,-11.45576 -1.80176,-3.58122 -5.99607,-5.32513 -9.48228,-5.92581 -8.72569,-1.50344 -16.14518,-5.23121 -20.91259,-6.64068 -9.93426,-2.93703 -13.92482,-4.36831 -18.61055,-13.44837 -8.68665,-16.83307 19.81097,-17.37382 25.98501,-9.86844 15.9644,8.34545 20.64113,21.417 25.22164,36.08634 0.81751,0.85801 1.05518,2.06559 1.5521,3.10419"
         id="path3208"
         sodipodi:nodetypes="csssscsssccc"
         inkscape:connector-curvature="0" />
      <path
         sodipodi:nodetypes="ccscscc"
         style="fill:#cc0000;stroke:#000000;stroke-width:1.66666663;stroke-miterlimit:4;stroke-opacity:1;stroke-dasharray:none"
         d="m 685.12707,293.25606 c -0.9935,0.63288 -1.98701,0.90758 -2.98052,-1.52018 -1.44727,-2.97883 -5.04143,-4.70306 -8.76599,-3.96681 -4.35463,0.86078 -7.25921,4.7554 -6.4804,8.6953 0.77881,3.93991 4.56101,5.09002 8.91565,4.22923 3.09906,-0.6126 4.28923,-1.60977 5.11375,-4.21875 2.31388,-0.91543 3.65439,-0.37081 4.95455,0.23435"
         id="path3210"
         inkscape:transform-center-x="-25.776133"
         inkscape:connector-curvature="0" />
    </g>
    <use
       x="0"
       y="0"
       xlink:href="#g3196"
       id="use3212"
       transform="translate(102.83012,-189.84018)"
       width="600"
       height="660" />
    <use
       x="0"
       y="0"
       xlink:href="#use3212"
       id="use3250"
       transform="translate(-205.6602,0)"
       width="600"
       height="660" />
  </g>
  <g
     inkscape:groupmode="layer"
     id="layer1"
     inkscape:label="Cover"
     style="display:inline"
     sodipodi:insensitive="true">
    <path
       d="m 2,2 v 257 c 0,286 298,398 298,398 0,0 298,-112 298,-398 V 2 z"
       id="shine"
       inkscape:connector-curvature="0"
       style="fill:url(#radialGradient3074);stroke:#000000;stroke-width:3" />
  </g>
</svg>
