<?xml version="1.0" encoding="UTF-8"?>
<svg xmlns="http://www.w3.org/2000/svg" xmlns:xlink="http://www.w3.org/1999/xlink" width="600" height="660">
<defs>
  <radialGradient id="rg" gradientUnits="userSpaceOnUse" cx="220" cy="220" r="405">
    <stop style="stop-color:#fff;stop-opacity:.3" offset="0"/>
    <stop style="stop-color:#fff;stop-opacity:.2" offset=".2"/>
    <stop style="stop-color:#666;stop-opacity:.1" offset=".6"/>
    <stop style="stop-color:#000;stop-opacity:.13" offset="1"/>
  </radialGradient>
  <path id="shield" d="m2,2v257c0,286 298,398 298,398c0,0 298-112 298-398V2z"/>
</defs>
<use id="design" xlink:href="#shield" fill="#000"/>
<path fill="#c00" stroke="#a00" stroke-width="3" d="m 239.09765,405.21342 c -24.13475,1.27043 -47.05703,-16.35697 -62.33771,-38.41586 -1.07024,-1.54497 13.04432,-0.79499 11.71533,-2.22744 -16.44014,-3.61739 -24.78842,-11.28537 -32.75036,-17.77352 0,0 13.79965,-0.79998 12.38361,-3.38079 -28.05731,-13.12416 -30.75409,-37.17172 -38.4246,-56.72669 -1.64614,-4.19673 17.97809,15.04646 14.98532,10.8376 -17.02842,-23.94771 -29.1572,-64.00961 -24.38507,-79.5426 1.03194,-3.35893 12.54063,14.07233 13.22763,6.5705 -28.89645,-32.47959 7.96104,-77.70641 27.5779,-118.99529 -6.44605,39.48106 19.79968,67.53609 9.22272,108.06829 -0.73823,2.82899 6.65548,-14.21996 7.18291,-11.31844 3.29164,18.10748 6.94676,39.19568 5.81206,56.68531 -2.90204,14.42418 -7.88701,22.26943 -3.62954,33.9709 l 5.64052,-19.96504 c 10.76964,25.16691 15.0741,49.33209 19.73239,66.42116 l 4.3938,-16.94943 c 11.24521,23.42136 32.0563,37.68589 32.39604,77.86032"/>
<path fill="#f11" d="m 237.98031,402.19198 c -24.13474,1.27041 -37.27331,-13.7306 -54.50569,-32.56884 -1.26856,-1.38678 12.35296,-2.68171 11.02399,-4.11417 -13.34193,-10.54657 -22.26721,-9.39059 -30.22916,-15.87876 0,0 11.86404,-1.23903 10.44802,-3.81987 -20.61604,-16.32062 -29.50128,-28.33967 -37.17179,-47.89467 -1.64616,-4.19671 17.00837,11.4594 14.89567,6.7469 -14.03591,-31.30795 -29.1325,-57.38963 -26.3448,-74.49213 0.5653,-3.46811 10.80792,4.21561 11.49492,-3.2862 -21.47935,-30.18654 -2.48881,-63.49008 19.06366,-104.33984 1.32046,35.7478 19.14051,58.32994 8.56356,98.86211 -0.73822,2.82898 9.26632,-8.23444 9.79378,-5.33292 3.29164,18.10748 2.48943,24.75227 1.35469,42.24188 -2.90206,14.42418 -4.16988,33.69565 2.99099,46.0558 l 6.38073,-16.94786 c 8.17543,27.63122 13.06494,41.14258 17.72325,58.23162 l 8.46038,-11.5495 c 11.24521,23.42136 23.0873,28.43288 26.98906,66.36256"/>
<path fill="#c00" stroke="#a00" stroke-width="3" d="m 302.15051,452.48324 -1.7344,-5.55936 C 279.9224,433.81636 276.28959,434.28387 253.813,412.25161 104.99801,266.37848 144.38489,166.59238 155.32291,126.91722 c -43.33623,115.88835 19.45151,215.13993 81.07538,274.66801 2.4956,2.56235 12.73361,12.7068 15.44042,15.44152 17.62687,17.80861 24.40441,20.02831 50.3118,35.45649 z"/>
<path fill="#ccc" stroke="#999" stroke-width="3" d="m 266.63482,383.13373 c -21.53652,-10.96715 -32.5741,-37.69407 -34.77811,-64.43796 -0.15437,-1.87311 11.69421,5.83367 11.25949,3.92864 -12.42888,-11.35282 -15.82472,-22.16763 -19.47589,-31.7675 0,0 12.35085,6.20702 12.41492,3.26396 -17.73626,-25.39451 -8.04796,-47.5687 -4.91333,-68.33906 0.67276,-4.45754 8.04625,22.01966 7.55887,16.8783 -2.77319,-29.25353 6.75393,-70.01255 18.65321,-81.07845 2.57315,-2.39295 3.82433,18.45731 8.17021,12.30404 -8.78526,-42.57638 45.74767,-63.31521 83.38081,-89.263991 -25.32297,30.968571 -16.62102,68.387801 -46.04704,98.201231 -2.05382,2.08087 12.87379,-8.9871 11.8798,-6.21059 -6.20309,17.32735 -13.58176,37.41783 -23.30926,51.99695 -9.72533,11.04068 -17.96506,15.34239 -20.12872,27.60489 l 14.86735,-14.46997 c -3.25667,27.18 -11.61149,50.25989 -16.12183,67.3886 l 12.27986,-12.48173 c -1.97204,25.90609 8.91863,48.66508 -10.87437,83.62703"/>
<path fill="#fff" d="m 267.1779,379.95842 c -21.53651,-10.96716 -25.41434,-30.52771 -30.9189,-55.45829 -0.40521,-1.83526 12.03883,3.85406 11.60414,1.94902 -6.28116,-15.80456 -14.58868,-19.2661 -18.23984,-28.86599 0,0 10.89407,4.85898 10.95819,1.91591 -9.6937,-24.44209 -11.37903,-39.29352 -8.24438,-60.0639 0.67274,-4.45754 8.99998,18.42832 9.52657,13.29082 3.49853,-34.13143 3.46533,-64.26713 14.43081,-77.68447 2.22361,-2.72083 7.25213,9.05478 11.59799,2.90152 -3.50839,-36.88198 29.58967,-56.22842 68.67953,-80.82912 -16.73034,31.61873 -12.5888,60.08547 -42.01479,89.89888 -2.05381,2.08086 12.14209,-2.49808 11.14812,0.27844 -6.2031,17.32736 -10.22022,22.68082 -19.94775,37.25989 -9.72535,11.04068 -20.45904,27.09634 -20.43762,41.38099 l 13.9998,-11.48692 c -6.73547,28.01706 -9.25672,42.163 -13.76703,59.29169 l 13.10167,-5.77197 c -1.97206,25.9061 5.77774,36.16725 -9.80808,70.9662"/>
<path fill="#ccc" stroke="#999" stroke-width="3" d="m 297.60528,455.59703 1.27765,-5.68175 c -11.19431,-21.5983 -14.57417,-23.00983 -23.02334,-53.32862 -55.94099,-200.73734 28.0621,-267.46119 57.37228,-296.35187 -95.47446,78.69414 -90.72447,196.04239 -67.12067,278.40716 0.88007,3.46686 4.67423,17.37121 5.65103,21.09296 6.36102,24.23614 11.12069,29.54722 25.84305,55.86212 z"/>
<path fill="#fd0" stroke="#b60" stroke-width="3" d="m 301.52256,377.78074 c -13.1676,-20.26609 -9.36296,-48.93106 2.10026,-73.19396 0.80286,-1.69934 7.21064,10.89921 7.78668,9.03205 -5.08732,-16.04627 -2.6208,-27.11009 -0.98287,-37.24941 0,0 7.59264,11.55086 9.11966,9.03413 -2.6628,-30.86042 16.81461,-45.21968 29.91446,-61.64003 2.8114,-3.52396 -4.04158,23.09272 -1.89298,18.39648 12.22512,-26.7209 40.85535,-57.25569 56.69338,-60.88939 3.42489,-0.78579 -5.91668,17.89666 0.92359,14.74071 13.67993,-41.26486 71.27625,-31.95874 116.84189,-35.61448 -37.41462,14.15808 -48.58812,50.91507 -88.97852,62.02125 -2.81909,0.77517 15.64259,-1.34617 13.39351,0.56137 -14.03571,11.90437 -30.47107,25.61391 -46.18488,33.37604 -13.94273,4.69885 -23.2294,4.30437 -31.23444,13.84218 l 20.11049,-5.09769 c -16.41036,21.91024 -35.18579,37.7206 -47.65621,50.29933 l 16.87553,-4.66957 c -14.66088,21.44931 -16.60878,46.60451 -51.23099,66.98595"/>
<path fill="#fe4" d="m 303.58054,375.30238 c -13.16759,-20.26609 -6.74561,-39.14494 0.9526,-63.48773 0.5667,-1.79199 8.4989,9.35712 9.07496,7.48997 2.46264,-16.82773 -3.00112,-23.97927 -1.36317,-34.1186 0,0 7.00505,9.65504 8.53212,7.13832 3.82605,-26.01433 9.79223,-39.7187 22.8921,-56.13905 2.81138,-3.52397 -1.41995,20.45938 1.60485,16.27347 20.09552,-27.80943 35.13463,-53.9243 51.33968,-60.06132 3.28612,-1.2445 1.75313,11.46774 8.59339,8.31178 15.40264,-33.69492 53.73961,-33.9004 99.89278,-35.6603 -30.29827,19.01745 -40.94496,45.74114 -81.33531,56.84732 -2.81908,0.77517 11.76439,3.90764 9.51533,5.8152 -14.03572,11.90438 -20.19138,14.53205 -35.9052,22.29413 -13.94274,4.69884 -31.26623,13.2366 -38.39,25.61818 l 17.86765,-2.94806 c -19.84163,20.89574 -29.09806,31.88586 -41.56845,44.46459 l 14.23236,1.55216 c -14.66089,21.44931 -13.07995,34.21063 -43.97714,56.55449"/>
<path fill="#fd0" stroke="#b60" stroke-width="3" d="m 292.11212,456.02103 3.94735,-4.28171 c 1.10459,-24.30183 -1.11669,-27.21419 6.72551,-57.69561 C 354.70733,192.22958 460.81807,176.44657 500.64677,166.0816 378.6164,186.49549 324.05588,290.49706 303.31498,373.62894 c -0.97126,3.44242 -4.6376,17.38102 -5.65254,21.09256 -6.60927,24.16962 -5.14281,31.14899 -5.55032,61.29953 z"/>
<use id="shine" xlink:href="#shield" fill="url(#rg)" stroke="#000" stroke-width="3"/>
</svg>