<?xml version="1.0" encoding="UTF-8" standalone="no"?>
<svg
   xmlns:dc="http://purl.org/dc/elements/1.1/"
   xmlns:cc="http://creativecommons.org/ns#"
   xmlns:rdf="http://www.w3.org/1999/02/22-rdf-syntax-ns#"
   xmlns:svg="http://www.w3.org/2000/svg"
   xmlns="http://www.w3.org/2000/svg"
   xmlns:xlink="http://www.w3.org/1999/xlink"
   xmlns:sodipodi="http://sodipodi.sourceforge.net/DTD/sodipodi-0.dtd"
   xmlns:inkscape="http://www.inkscape.org/namespaces/inkscape"
   width="600"
   height="660"
   id="svg2"
   version="1.1"
   inkscape:version="0.48.2 r9819"
   sodipodi:docname="House_Corbray.svg">
  <metadata
     id="metadata24">
    <rdf:RDF>
      <cc:Work
         rdf:about="">
        <dc:format>image/svg+xml</dc:format>
        <dc:type
           rdf:resource="http://purl.org/dc/dcmitype/StillImage" />
        <dc:title />
      </cc:Work>
    </rdf:RDF>
  </metadata>
  <sodipodi:namedview
     pagecolor="#ffffff"
     bordercolor="#666666"
     borderopacity="1"
     objecttolerance="10"
     gridtolerance="10"
     guidetolerance="10"
     inkscape:pageopacity="0"
     inkscape:pageshadow="2"
     inkscape:window-width="1366"
     inkscape:window-height="715"
     id="namedview22"
     showgrid="false"
     inkscape:zoom="0.50568851"
     inkscape:cx="80.273337"
     inkscape:cy="335.75418"
     inkscape:window-x="-8"
     inkscape:window-y="-8"
     inkscape:window-maximized="1"
     inkscape:current-layer="layer2" />
  <defs
     id="defs4">
    <inkscape:path-effect
       effect="spiro"
       id="path-effect3272"
       is_visible="true" />
    <inkscape:path-effect
       is_visible="true"
       id="path-effect3268"
       effect="spiro" />
    <inkscape:path-effect
       effect="spiro"
       id="path-effect3262"
       is_visible="true" />
    <inkscape:path-effect
       is_visible="true"
       id="path-effect3136"
       effect="spiro" />
    <inkscape:path-effect
       effect="spiro"
       id="path-effect3132"
       is_visible="true" />
    <inkscape:path-effect
       effect="spiro"
       id="path-effect3101"
       is_visible="true" />
    <inkscape:path-effect
       is_visible="true"
       id="path-effect3085"
       effect="spiro" />
    <inkscape:path-effect
       is_visible="true"
       id="path-effect3083"
       effect="spiro" />
    <inkscape:path-effect
       is_visible="true"
       id="path-effect3081"
       effect="spiro" />
    <inkscape:path-effect
       is_visible="true"
       id="path-effect3079"
       effect="spiro" />
    <inkscape:path-effect
       is_visible="true"
       id="path-effect3077"
       effect="spiro" />
    <inkscape:path-effect
       is_visible="true"
       id="path-effect3075"
       effect="spiro" />
    <inkscape:path-effect
       effect="spiro"
       id="path-effect3049"
       is_visible="true" />
    <inkscape:path-effect
       is_visible="true"
       id="path-effect3045"
       effect="spiro" />
    <inkscape:path-effect
       effect="spiro"
       id="path-effect3041"
       is_visible="true" />
    <radialGradient
       id="rg"
       gradientUnits="userSpaceOnUse"
       cx="220"
       cy="220"
       r="405">
      <stop
         style="stop-color:#fff;stop-opacity:.3"
         offset="0"
         id="stop7" />
      <stop
         style="stop-color:#fff;stop-opacity:.2"
         offset=".2"
         id="stop9" />
      <stop
         style="stop-color:#666;stop-opacity:.1"
         offset=".6"
         id="stop11" />
      <stop
         style="stop-color:#000;stop-opacity:.13"
         offset="1"
         id="stop13" />
    </radialGradient>
    <path
       id="shield"
       d="m2,2v257c0,286 298,398 298,398c0,0 298-112 298-398V2z" />
    <radialGradient
       inkscape:collect="always"
       xlink:href="#rg-7"
       id="radialGradient3055-1"
       gradientUnits="userSpaceOnUse"
       cx="220"
       cy="220"
       r="405" />
    <radialGradient
       id="rg-7"
       gradientUnits="userSpaceOnUse"
       cx="220"
       cy="220"
       r="405">
      <stop
         style="stop-color:#fff;stop-opacity:.3"
         offset="0"
         id="stop7-4" />
      <stop
         style="stop-color:#fff;stop-opacity:.2"
         offset=".2"
         id="stop9-0" />
      <stop
         style="stop-color:#666;stop-opacity:.1"
         offset=".6"
         id="stop11-9" />
      <stop
         style="stop-color:#000;stop-opacity:.13"
         offset="1"
         id="stop13-4" />
    </radialGradient>
    <radialGradient
       r="405"
       cy="220"
       cx="220"
       gradientUnits="userSpaceOnUse"
       id="radialGradient3074"
       xlink:href="#rg-7"
       inkscape:collect="always" />
    <inkscape:path-effect
       is_visible="true"
       id="path-effect10120-1"
       effect="spiro" />
    <inkscape:path-effect
       effect="spiro"
       id="path-effect10118-3"
       is_visible="true" />
    <inkscape:path-effect
       effect="spiro"
       id="path-effect10116-9"
       is_visible="true" />
    <inkscape:path-effect
       effect="spiro"
       id="path-effect10114-7"
       is_visible="true" />
    <inkscape:path-effect
       effect="spiro"
       id="path-effect10112-7"
       is_visible="true" />
    <inkscape:path-effect
       effect="spiro"
       id="path-effect10110-2"
       is_visible="true" />
    <linearGradient
       inkscape:collect="always"
       xlink:href="#linearGradient4719-5"
       id="linearGradient4039"
       gradientUnits="userSpaceOnUse"
       gradientTransform="matrix(2.3257341,0,0,2.2943177,447.69485,-1820.2799)"
       x1="-145.25935"
       y1="984.24286"
       x2="-64.14286"
       y2="984.14789" />
    <linearGradient
       inkscape:collect="always"
       id="linearGradient4719-5">
      <stop
         style="stop-color:#666666;stop-opacity:1;"
         offset="0"
         id="stop4721-5" />
      <stop
         id="stop4809-1"
         offset="0.39344174"
         style="stop-color:#666666;stop-opacity:0.74901961;" />
      <stop
         style="stop-color:#666666;stop-opacity:0;"
         offset="1"
         id="stop4723-7" />
    </linearGradient>
    <radialGradient
       inkscape:collect="always"
       xlink:href="#linearGradient4801-8"
       id="radialGradient4041"
       gradientUnits="userSpaceOnUse"
       gradientTransform="matrix(-0.72153181,1.2650715,-2.2729984,-1.2616144,1712.0113,1733.7841)"
       cx="-307.14288"
       cy="782.36218"
       fx="-307.14288"
       fy="782.36218"
       r="63" />
    <linearGradient
       inkscape:collect="always"
       id="linearGradient4801-8">
      <stop
         style="stop-color:#000000;stop-opacity:1;"
         offset="0"
         id="stop4803-2" />
      <stop
         style="stop-color:#000000;stop-opacity:0;"
         offset="1"
         id="stop4805-4" />
    </linearGradient>
    <inkscape:path-effect
       effect="spiro"
       id="path-effect10108-4"
       is_visible="true" />
    <linearGradient
       inkscape:collect="always"
       xlink:href="#linearGradient4719-5"
       id="linearGradient4044"
       gradientUnits="userSpaceOnUse"
       gradientTransform="matrix(-2.4055369,0,0,-1.6485021,142.06168,1726.5307)"
       x1="-145.25935"
       y1="984.24286"
       x2="-64.14286"
       y2="984.14789" />
    <radialGradient
       inkscape:collect="always"
       xlink:href="#linearGradient4801-8"
       id="radialGradient4046"
       gradientUnits="userSpaceOnUse"
       gradientTransform="matrix(0.74628962,-0.90897301,2.3509914,0.90648896,-1165.637,-827.11785)"
       cx="-307.14288"
       cy="782.36218"
       fx="-307.14288"
       fy="782.36218"
       r="63" />
    <inkscape:path-effect
       effect="spiro"
       id="path-effect10102-7"
       is_visible="true" />
    <linearGradient
       inkscape:collect="always"
       xlink:href="#linearGradient4719-5"
       id="linearGradient4049"
       gradientUnits="userSpaceOnUse"
       gradientTransform="matrix(2.334989,0,0,-1.6146975,449.44065,1692.189)"
       x1="-145.25935"
       y1="984.24286"
       x2="-64.14286"
       y2="984.14789" />
    <radialGradient
       inkscape:collect="always"
       xlink:href="#linearGradient4801-8"
       id="radialGradient4051"
       gradientUnits="userSpaceOnUse"
       gradientTransform="matrix(-0.72440295,-0.89033332,-2.2820431,0.88790031,1718.7881,-809.09364)"
       cx="-307.14288"
       cy="782.36218"
       fx="-307.14288"
       fy="782.36218"
       r="63" />
    <inkscape:path-effect
       is_visible="true"
       id="path-effect10096-8"
       effect="spiro" />
    <linearGradient
       inkscape:collect="always"
       xlink:href="#linearGradient4719-5"
       id="linearGradient4054"
       gradientUnits="userSpaceOnUse"
       gradientTransform="matrix(-2.409599,0,0,2.2818507,139.61083,-1810.8163)"
       x1="-145.25935"
       y1="984.24286"
       x2="-64.14286"
       y2="984.14789" />
    <radialGradient
       inkscape:collect="always"
       xlink:href="#linearGradient4801-8"
       id="radialGradient4056"
       gradientUnits="userSpaceOnUse"
       gradientTransform="matrix(0.74754985,1.2581972,2.3549614,-1.2547588,-1170.296,1723.935)"
       cx="-307.14288"
       cy="782.36218"
       fx="-307.14288"
       fy="782.36218"
       r="63" />
    <inkscape:path-effect
       is_visible="true"
       id="path-effect10090-3"
       effect="spiro" />
    <inkscape:path-effect
       effect="spiro"
       id="path-effect10084-1"
       is_visible="true" />
    <inkscape:path-effect
       effect="spiro"
       id="path-effect10082-1"
       is_visible="true" />
    <radialGradient
       inkscape:collect="always"
       xlink:href="#linearGradient4801-8"
       id="radialGradient4061"
       gradientUnits="userSpaceOnUse"
       gradientTransform="matrix(-0.76516322,1.2901254,-2.4104477,-1.2865998,1806.8444,1757.4704)"
       cx="-307.14288"
       cy="782.36218"
       fx="-307.14288"
       fy="782.36218"
       r="63" />
    <inkscape:path-effect
       effect="spiro"
       id="path-effect10080-4"
       is_visible="true" />
    <inkscape:path-effect
       is_visible="true"
       id="path-effect3075-1"
       effect="spiro" />
    <inkscape:path-effect
       effect="spiro"
       id="path-effect3101-7"
       is_visible="true" />
    <linearGradient
       inkscape:collect="always"
       xlink:href="#grad1-7-7"
       id="linearGradient3085-8-8"
       gradientUnits="userSpaceOnUse"
       gradientTransform="matrix(0.77469594,0,0,0.30982404,152.68996,-13.619206)"
       x1="78.877235"
       y1="178.07356"
       x2="301.40585"
       y2="178.07356" />
    <linearGradient
       id="grad1-7-7"
       x1="78.877235"
       y1="178.07356"
       x2="301.40585"
       y2="178.07356"
       gradientTransform="scale(1.577772,0.63380513)"
       gradientUnits="userSpaceOnUse">
      <stop
         offset="0%"
         style="stop-color:#da0;"
         id="stop16-4-4" />
      <stop
         offset="40%"
         style="stop-color:#fd0;"
         id="stop18-0-0" />
      <stop
         offset="60%"
         style="stop-color:#fd0;"
         id="stop20-9-9" />
      <stop
         offset="100%"
         style="stop-color:#da0;"
         id="stop22-4-4" />
    </linearGradient>
    <linearGradient
       inkscape:collect="always"
       xlink:href="#grad1-7-7"
       id="linearGradient3081-8-8"
       gradientUnits="userSpaceOnUse"
       gradientTransform="matrix(0.77469594,0,0,0.30982404,-27.310046,-13.619206)"
       x1="78.877235"
       y1="178.07356"
       x2="301.40585"
       y2="178.07356" />
    <linearGradient
       id="linearGradient3093"
       x1="78.877235"
       y1="178.07356"
       x2="301.40585"
       y2="178.07356"
       gradientTransform="scale(1.577772,0.63380513)"
       gradientUnits="userSpaceOnUse">
      <stop
         offset="0%"
         style="stop-color:#da0;"
         id="stop3095" />
      <stop
         offset="40%"
         style="stop-color:#fd0;"
         id="stop3097" />
      <stop
         offset="60%"
         style="stop-color:#fd0;"
         id="stop3099" />
      <stop
         offset="100%"
         style="stop-color:#da0;"
         id="stop3101" />
    </linearGradient>
    <linearGradient
       y2="178.07356"
       x2="301.40585"
       y1="178.07356"
       x1="78.877235"
       gradientTransform="matrix(0.77469594,0,0,0.30982404,332.68995,-13.619206)"
       gradientUnits="userSpaceOnUse"
       id="linearGradient3128-1"
       xlink:href="#grad1-7-7"
       inkscape:collect="always" />
    <linearGradient
       id="linearGradient3104"
       x1="78.877235"
       y1="178.07356"
       x2="301.40585"
       y2="178.07356"
       gradientTransform="scale(1.577772,0.63380513)"
       gradientUnits="userSpaceOnUse">
      <stop
         offset="0%"
         style="stop-color:#da0;"
         id="stop3106" />
      <stop
         offset="40%"
         style="stop-color:#fd0;"
         id="stop3108" />
      <stop
         offset="60%"
         style="stop-color:#fd0;"
         id="stop3110" />
      <stop
         offset="100%"
         style="stop-color:#da0;"
         id="stop3112" />
    </linearGradient>
  </defs>
  <g
     inkscape:groupmode="layer"
     id="layer2"
     inkscape:label="Elements"
     style="display:inline">
    <use
       xlink:href="#shield"
       id="use30"
       style="fill:#ffffff;display:inline"
       x="0"
       y="0"
       width="1"
       height="1" />
    <g
       style="display:inline"
       id="g3236"
       transform="translate(3.8e-5,0)">
      <path
         id="heart"
         d="m 90.051774,250.73547 c -7.750241,0.14409 -14.839068,5.64857 -15.582007,15.00519 -0.797685,10.04635 6.552184,24.22897 27.438053,35.31868 20.88585,-11.08971 28.22794,-25.27233 27.43024,-35.31868 -0.74292,-9.35662 -7.82396,-14.8611 -15.57421,-15.00519 -6.16702,0 -9.79578,3.13128 -11.85603,5.69808 -2.060256,-2.5668 -5.689018,-5.69808 -11.856046,-5.69808 z"
         inkscape:connector-curvature="0"
         style="fill:#cc0000;stroke:#880000;stroke-width:0.16325441" />
      <path
         style="fill:#000000;display:inline"
         inkscape:connector-curvature="0"
         d="m 67.437029,128.10044 c 0.08718,0.62912 0.137582,1.2632 0.210049,2.05257 0.02703,0.29519 -0.104094,0.35077 -0.296005,0.12465 -1.930781,-2.2809 -3.71773,-4.39192 -5.495526,-6.4938 -0.191933,-0.22613 -0.562957,-0.30507 -0.829872,-0.17474 -0.09012,0.0432 -0.179196,0.0874 -0.2693,0.13075 -0.267161,0.12985 -0.432459,0.46895 -0.372633,0.75962 0.442599,2.17194 0.742553,4.39703 1.47997,6.46348 0.711687,1.99164 1.798217,3.92205 3.055506,5.63283 3.873992,5.27012 7.731078,10.57192 11.970313,15.54181 1.740869,2.03948 4.426504,3.27873 6.703353,4.85221 17.339126,11.98867 13.271897,8.15824 21.397266,24.94271 0.68731,1.42008 0.86683,3.27279 0.68791,4.85658 -0.12256,1.08525 -1.10589,2.24583 -2.00122,3.03868 -4.557192,4.03731 -10.275575,5.80628 -15.826216,7.9021 -0.395932,0.1497 -0.637727,0.79934 -0.878324,1.25488 -1.69963,3.22278 -3.545783,6.38333 -5.004428,9.7121 -0.8388,1.91566 -1.343281,4.09548 -1.453006,6.18391 -0.146652,2.81262 0.161809,5.65871 0.408738,8.47839 0.26258,2.98697 1.323108,4.14001 4.388566,4.71976 0.290695,0.055 0.598767,-0.13819 0.695638,-0.41903 1.869768,-5.36222 6.518799,-7.66065 11.394704,-9.88896 5.294418,-2.41922 9.920908,-0.95345 14.472178,1.51284 0.26078,0.14219 0.46859,0.49954 0.4572,0.795 -0.25765,6.7757 -3.98257,12.329 -6.33963,18.35127 -1.2364,3.15721 -2.54889,6.30455 -3.49202,9.55382 -1.34372,4.63488 -4.080519,8.07758 -8.092821,10.59707 -2.132371,1.33799 -3.599406,1.03642 -4.396391,-1.32995 -0.693887,-2.06128 -0.917742,-4.32055 -1.067449,-6.51321 -0.170419,-2.49044 -1.166856,-3.46121 -2.995268,-2.66475 -0.272015,0.11872 -0.296511,0.39512 -0.08507,0.60297 1.234885,1.22317 1.408606,2.34324 -0.447839,3.69131 -0.555166,0.40249 -0.755545,2.04034 -0.414906,2.79113 0.826018,1.81202 1.985438,3.47248 3.141545,5.33163 0.15564,0.25118 0.04229,0.42223 -0.248105,0.36734 -4.124952,-0.77307 -7.023549,-3.15425 -9.451351,-6.25529 -2.420258,-3.0912 -5.677989,-2.96409 -7.44803,0.14263 -0.146065,0.25711 -0.01052,0.43378 0.280437,0.38166 0.994593,-0.17755 2.041574,-0.36452 3.09496,-0.55316 0.291365,-0.052 0.646996,0.0337 0.795023,0.19098 0.147403,0.15872 0.122864,0.48056 -0.0275,0.73477 -1.080102,1.83006 -0.02068,2.66214 1.506124,3.46718 1.410015,0.74201 2.623176,1.84999 3.987982,2.69175 1.150525,0.71124 2.370418,1.31151 3.543479,2.33633 0.223643,0.19402 0.155451,0.35083 -0.139661,0.33376 -0.939161,-0.0494 -1.876899,-0.0928 -2.81659,-0.1566 -2.30662,-0.15488 -4.619035,-0.50416 -6.917267,-0.4325 -1.914438,0.0604 -3.519911,0.87306 -4.087003,2.84088 -0.08166,0.28414 -0.01915,0.74135 0.106324,1.0105 0.07555,0.16193 0.15101,0.32385 0.226662,0.4854 0.125528,0.26914 0.337915,0.27389 0.474298,0.01 0.736032,-1.43757 1.115561,-2.10609 3.745177,-0.77281 3.205859,1.62626 7.896456,1.24519 11.703691,0.51099 3.988511,-0.76748 7.255547,-0.5177 10.494573,1.85651 1.646395,1.20556 3.492436,2.14634 5.284326,3.14178 0.44129,0.24429 1.15415,0.48729 1.52573,0.29932 3.16867,-1.59474 4.34219,0.0967 4.9735,2.91826 0.0654,0.28869 0.2572,0.33667 0.41531,0.0857 1.35782,-2.14299 0.47022,-3.83718 -0.9212,-4.98868 -1.37239,-1.13521 -3.24637,-2.15341 -4.96708,-2.27664 -3.1865,-0.22759 -4.857076,-1.86576 -5.939622,-4.12149 -0.128358,-0.26621 -0.03067,-0.63392 0.204246,-0.81556 5.752476,-4.4067 11.353106,-8.69591 16.950796,-12.98309 0.23622,-0.17936 0.34812,-0.50145 0.24868,-0.71749 -0.0979,-0.21547 -0.003,-0.2248 0.2084,-0.0186 0.39179,0.38033 0.81761,0.79306 1.37452,1.33365 0.21325,0.20672 0.46065,0.1459 0.55595,-0.13551 0.4143,-1.2386 0.77434,-2.31707 1.14801,-3.43424 0.0933,-0.2821 0.30088,-0.30807 0.4631,-0.0603 0.37632,0.57812 0.73169,1.12327 1.08218,1.66351 0.16222,0.2478 0.53056,0.48337 0.82369,0.52683 0.0105,0.001 0.0209,0.004 0.031,0.005 0.29371,0.042 0.58465,-0.15938 0.65168,-0.44748 0.36305,-1.5858 0.72642,-3.17369 1.09504,-4.7797 0.0666,-0.28825 0.33409,-0.41394 0.61104,-0.30646 2.24119,0.87405 4.09395,-0.0445 4.2931,-2.22809 0.31666,-3.51558 0.25877,-7.06374 0.56342,-10.58058 0.11349,-1.32582 0.63615,-2.61623 1.05282,-3.97016 0.0864,-0.2828 0.34302,-0.36884 0.5794,-0.1902 0.20341,0.15416 0.40142,0.30369 0.61824,0.46629 0.23675,0.17877 0.4474,0.0832 0.47291,-0.21072 0.0388,-0.47111 0.0733,-0.89974 0.10762,-1.32345 0.0242,-0.29657 0.26733,-0.44582 0.54128,-0.33497 1.27776,0.51091 2.49429,0.99687 3.83555,1.53269 0.27623,0.10944 0.48151,0.43834 0.4574,0.73453 -0.78423,10.26382 -1.94457,20.3489 -12.49312,26.30468 -0.25834,0.14591 -0.6067,0.0609 -0.77418,-0.18339 -0.72647,-1.05816 -1.58035,-2.30068 -2.70725,-3.94043 -0.16709,-0.24421 -0.37636,-0.21355 -0.46596,0.0681 -0.31015,0.96219 -0.44174,1.30294 -0.50743,1.65342 -0.19231,1.04694 -0.14577,2.90553 -0.54856,3.00424 -1.07303,0.26341 -2.26893,0.0206 -3.44083,-0.11724 -0.29416,-0.0345 -0.47505,-0.28733 -0.40117,-0.57473 0.0382,-0.15525 0.0779,-0.30951 0.1181,-0.46403 0.0721,-0.2876 -0.08,-0.40888 -0.34134,-0.26939 -0.60776,0.32192 -1.24467,0.66036 -2.01633,1.06818 -0.26121,0.13908 -0.27239,0.38388 -0.0261,0.54611 1.02984,0.67843 1.88932,1.24144 2.85464,1.87814 0.24753,0.16266 0.22959,0.39786 -0.0597,0.46354 -2.62838,0.58364 -5.46182,-2.88898 -7.71968,0.85358 -0.15224,0.25311 -0.0273,0.53324 0.25624,0.61815 2.28773,0.69108 4.53196,1.69133 6.81591,1.78853 4.80201,0.2057 7.71722,2.37124 9.34883,6.80115 0.65802,1.78557 1.06958,4.16391 4.24498,3.89733 0.29618,-0.0248 0.43762,0.15528 0.32049,0.42694 -0.39401,0.91743 -0.71611,1.66296 -0.99815,2.32287 -0.11726,0.27167 0.029,0.47931 0.31822,0.41363 1.81581,-0.4084 2.98963,-2.16695 2.33327,-4.44875 -0.41837,-1.45084 -1.55146,-2.71886 -2.46814,-3.99316 -0.66875,-0.92807 -1.67597,-1.63435 -2.24424,-2.60732 -1.99017,-3.41056 -1.55568,-4.11382 1.98324,-5.67887 3.55663,-1.57328 6.92618,-3.56948 10.40234,-5.33143 0.48149,-0.24411 1.05549,-0.30454 1.99001,-0.50171 0.29003,-0.0619 0.65098,-0.32086 0.80793,-0.57225 0.43023,-0.68791 1.01284,-1.62573 1.64432,-2.63658 0.15693,-0.25138 0.40213,-0.24628 0.54753,0.0124 0.31849,0.56822 0.61136,1.09061 0.9406,1.67697 0.14592,0.25835 0.39356,0.26657 0.56634,0.0267 0.23737,-0.32805 0.42701,-0.57509 0.50572,-0.85496 0.66835,-2.39037 2.42821,-3.76782 4.38092,-5.05502 0.39905,-0.26342 0.48314,-1.12316 0.56521,-1.72899 0.2305,-1.68522 0.39814,-3.37865 0.59713,-5.17907 0.0329,-0.29474 0.2431,-0.37804 0.4696,-0.18699 0.3165,0.2679 0.64327,0.54309 1.05308,0.88855 0.22673,0.1916 0.42337,0.10511 0.44004,-0.19019 0.10895,-1.9966 0.2034,-3.74376 0.30854,-5.68384 0.0151,-0.29629 0.15715,-0.33145 0.31294,-0.0806 0.19867,0.3176 0.36487,0.58509 0.51866,0.83161 0.15722,0.25176 0.42695,0.45857 0.60368,0.461 0.17642,0.005 0.34677,-0.23348 0.3791,-0.52665 0.14845,-1.31176 0.29647,-2.6259 0.44564,-3.94453 0.0326,-0.29486 0.29385,-0.5884 0.5835,-0.65036 2.25719,-0.46767 4.65598,-0.60646 6.23301,-2.96395 0.33457,-0.49969 2.19092,-0.93383 2.86511,-1.01878 4.47696,-0.56832 9.03914,-0.64799 13.56486,-0.52594 1.20178,0.0323 2.44587,1.22409 3.5382,2.05616 3.66945,2.79753 7.1018,5.94681 10.96818,8.42959 2.99966,1.92736 6.5682,2.03982 10.11837,1.02731 4.36347,-1.24357 8.83143,-2.14192 13.15052,-3.51428 5.14715,-1.63546 10.18161,-3.62665 15.27124,-5.44286 3.08,-1.10036 6.19764,-2.09626 9.25178,-3.26259 3.04638,-1.16336 6.05877,-2.42412 9.03282,-3.76296 1.02936,-0.46271 1.89033,-1.29566 2.8424,-1.94099 0.97286,-0.66089 1.92339,-1.36687 2.95158,-1.93151 1.15997,-0.63686 2.55108,-0.9461 3.54206,-1.762 0.61532,-0.50659 0.88679,-1.42855 1.04115,-2.37982 0.0469,-0.29369 0.2538,-0.69244 0.47094,-0.89521 2.09752,-1.96637 1.86322,-2.56404 0.11117,-5.43027 -1.84679,-3.02048 -4.34112,-4.00134 -7.61905,-3.81751 -11.67918,0.64961 -23.35971,1.26264 -35.03801,1.93436 -15.09843,0.86704 -15.22631,1.19266 -29.05222,-4.58968 -8.02378,-3.35623 -16.1348,-6.27589 -24.49073,-8.46515 -0.28682,-0.0754 -0.28418,-0.1818 0.006,-0.24136 1.73925,-0.35703 3.46615,-0.77063 5.18139,-1.24147 0.28692,-0.079 0.75663,-0.15732 1.05252,-0.17651 2.74263,-0.17345 5.483,-0.44344 8.22849,-0.60518 0.85559,-0.0501 1.74286,0.14562 2.59322,0.32997 3.9871,0.86801 7.60856,0.40454 10.59786,-2.68852 0.31975,-0.33057 0.88006,-0.4427 1.34324,-0.61691 0.91394,-0.34491 2.1061,-0.41093 2.70158,-1.04402 1.34466,-1.43418 2.56945,-2.72857 4.68597,-3.12412 0.50052,-0.0921 0.76321,-1.45839 1.16259,-2.64989 0.0933,-0.2821 0.42463,-0.49762 0.71943,-0.52476 1.45515,-0.1355 2.3097,-0.9703 2.59399,-3.20444 0.197,-1.54294 2.59997,-2.68273 3.52172,-4.28685 1.4678,-2.55528 3.65518,-4.81258 3.37839,-8.22408 -0.12672,-1.58289 0.67552,-3.23806 1.0316,-4.86465 0.81382,-3.72325 1.86786,-7.42277 2.29873,-11.19101 0.17161,-1.50501 -0.63216,-3.12372 -1.08836,-4.44989 -0.0961,-0.28026 0.0581,-0.61457 0.3251,-0.73907 0.956,-0.44578 1.94723,-0.90769 2.94212,-1.37226 0.26916,-0.12554 0.38535,-0.4447 0.2597,-0.71348 -0.51149,-1.09965 -1.02997,-2.20942 -1.58359,-3.39875 -0.12553,-0.26917 0.007,-0.54412 0.29573,-0.60823 0.86781,-0.19252 1.92042,-0.39615 2.8982,-0.78681 0.6568,-0.26221 1.38133,-0.90131 1.58642,-1.52959 0.11699,-0.36072 -0.65929,-1.15345 -1.18422,-1.55198 -0.78482,-0.59816 -1.65924,-1.07979 -2.638,-1.66486 -0.25482,-0.15239 -0.22696,-0.34392 0.0566,-0.4259 2.20318,-0.62754 4.22499,-1.20315 6.23161,-1.77493 0.28568,-0.0817 0.58466,-0.36859 0.66756,-0.64158 0.0828,-0.273 -0.0464,-0.63081 -0.29034,-0.79971 -1.3562,-0.93879 -2.72162,-1.88405 -4.17351,-2.89017 -0.2439,-0.1689 -0.21717,-0.39155 0.0615,-0.4935 1.48879,-0.55193 3.03166,-1.08371 4.52425,-1.73174 1.98902,-0.86354 2.21686,-2.03378 0.42558,-3.25957 -1.35075,-0.92567 -3.01386,-1.64007 -4.62524,-1.88512 -3.13377,-0.47774 -6.32093,-0.61298 -9.7288,-0.88552 -0.295,-0.0237 -0.30508,-0.11452 -0.0228,-0.20284 17.55644,-5.43956 18.52334,-5.76119 19.73934,-8.45752 0.12219,-0.26982 -0.0222,-0.46749 -0.31753,-0.43877 -8.65762,0.8412 -17.40402,1.69149 -26.15173,2.54174 -0.29577,0.0286 -0.31768,-0.0505 -0.0477,-0.17361 9.95122,-4.60573 20.4341,-8.04127 28.72989,-15.963298 0.21457,-0.205479 0.15428,-0.308905 -0.13163,-0.231342 -9.73214,2.680407 -19.15475,5.273605 -28.56985,7.868202 -0.28695,0.07899 -0.5889,0.01486 -0.67556,-0.146213 -0.0872,-0.159064 0.0462,-0.415451 0.29752,-0.572819 3.07091,-1.91569 6.17674,-3.776832 9.18932,-5.780522 4.51677,-3.004081 9.05232,-5.997317 13.38942,-9.250196 1.59599,-1.197586 2.75983,-2.967794 4.07187,-4.54473 0.18949,-0.227057 0.24564,-0.62598 0.12021,-0.895132 l 0,0 c -0.12509,-0.269015 -0.44428,-0.381627 -0.71119,-0.251273 -9.38509,4.552232 -18.77114,9.105925 -28.15623,13.658183 -0.26715,0.129858 -0.48529,0.170169 -0.4911,0.09186 -0.005,-0.07763 0.17755,-0.293306 0.40881,-0.479805 5.72799,-4.653765 11.52131,-9.228988 17.14376,-14.006198 3.36232,-2.855775 4.57656,-6.945251 5.37049,-11.137385 0.0402,-0.210654 -0.0514,-0.447381 -0.26108,-0.794405 -0.15293,-0.25375 -0.39262,-0.233706 -0.52489,0.0307 -5.10259,10.161595 -15.37097,13.322165 -24.36959,18.313346 -0.2592,0.143391 -0.30372,0.08716 -0.10165,-0.129561 5.54359,-5.948674 10.57151,-12.123304 11.09347,-20.164597 0.0194,-0.296537 -0.12984,-0.356198 -0.3229,-0.130428 -3.18994,3.699355 -6.36446,7.93497 -10.17956,11.475781 -3.88655,3.607418 -8.41333,6.527708 -12.85508,9.589828 -0.24494,0.169056 -0.34676,0.08431 -0.2282,-0.18635 3.35281,-7.655976 7.47485,-15.053795 5.27064,-23.873176 -0.0716,-0.287808 -0.20085,-0.287239 -0.27576,-6.68e-4 -0.41788,1.582309 -0.78323,3.184179 -1.31685,4.726128 -2.25286,6.508915 -5.92314,12.082114 -10.50328,17.26986 -6.37354,7.221162 -12.64543,14.597291 -16.89529,23.39451 -0.51404,1.0625 -1.21272,2.03421 -1.98682,3.24734 -0.16008,0.25026 -0.33363,0.21826 -0.39147,-0.0717 -0.28055,-1.39535 -0.52954,-2.63763 -0.84935,-4.22845 -0.0578,-0.28992 -0.26161,-0.34406 -0.46392,-0.12701 -0.76803,0.81736 -1.46225,1.35843 -1.65164,2.03782 -0.82972,2.96335 -1.75296,5.95857 -2.06193,8.99926 -0.49999,4.93662 -0.49689,9.92325 -0.80822,14.88089 -0.0475,0.7546 -0.20525,1.47272 -0.0488,2.10571 0.0717,0.28742 0.0604,0.65235 -0.11588,0.84776 -0.17659,0.19528 -0.31929,0.35256 -0.31929,0.35256 -0.18335,0.23464 -0.3667,0.4693 -0.55271,0.7052 -0.18279,0.23306 -0.51253,0.26575 -0.73618,0.0717 -0.37824,-0.32821 -0.75262,-0.65724 -1.09792,-0.99525 -0.64646,-0.63462 -1.88304,-1.07402 -2.01289,-1.76054 -0.69959,-3.72742 -3.19766,-4.46435 -6.49109,-4.36761 -0.29562,0.01 -0.41693,-0.18649 -0.26767,-0.44245 1.10112,-1.88785 2.21279,-3.58446 3.01241,-5.4169 0.41647,-0.95466 0.38463,-2.105 0.46393,-3.20599 0.0204,-0.29574 -0.19135,-0.54197 -0.48724,-0.55708 -1.11258,-0.0524 -2.22585,-0.14189 -3.3298,-0.0638 -0.62026,0.0431 -1.22596,0.33864 -2.03856,0.65098 -0.27644,0.10635 -0.42872,-0.0452 -0.31946,-0.31972 1.36243,-3.45457 4.35778,-6.13498 3.55515,-10.26671 -0.0572,-0.29152 -0.34675,-0.44407 -0.62702,-0.34798 -1.1591,0.40081 -2.20492,0.76315 -3.36244,1.16451 -0.28084,0.0978 -0.42843,-0.0509 -0.32999,-0.33112 0.86309,-2.45571 1.66122,-4.72808 2.45481,-6.98919 0.0985,-0.28024 0.009,-0.65414 -0.19896,-0.83543 -0.20838,-0.18091 -0.59329,-0.22664 -0.86245,-0.10115 -2.23798,1.0436 -4.47754,2.08661 -6.71556,3.13153 -0.26917,0.12552 -0.53536,0.12294 -0.59436,-0.004 -0.0591,-0.12657 0.02,-0.43391 0.17857,-0.68511 1.74833,-2.77681 3.49612,-5.553346 5.24587,-8.329193 0.15852,-0.250816 0.13536,-0.640776 -0.0511,-0.872043 -0.0653,-0.07985 -0.12984,-0.161688 -0.19546,-0.242075 -0.18649,-0.231267 -0.56066,-0.330942 -0.84035,-0.231527 -1.46894,0.527965 -3.00084,0.943998 -4.32122,1.721924 -3.82314,2.25536 -7.5398,4.687898 -11.2942,7.057764 -0.2502,0.15777 -0.59062,0.13534 -0.75645,-0.0524 -0.16599,-0.18729 -0.14488,-0.51928 0.046,-0.74578 0.80829,-0.95363 1.5916,-1.932805 2.46507,-2.820868 2.99908,-3.040516 6.09255,-5.990581 9.03745,-9.081536 0.56733,-0.596156 0.80706,-1.504312 0.94925,-2.518755 0.0415,-0.293837 -0.16745,-0.473181 -0.453,-0.391915 -7.71931,2.205281 -12.79628,8.668796 -20.11104,11.81862 -0.27145,0.116995 -0.35626,0.01114 -0.1905,-0.234956 0.90694,-1.333499 1.73531,-2.741021 2.81372,-3.918205 3.74077,-4.080252 7.64938,-8.006392 11.37576,-12.09723 0.73563,-0.8078 1.10874,-1.942964 1.38997,-3.130263 0.0683,-0.287697 -0.12062,-0.501544 -0.41509,-0.461828 -4.34952,0.607175 -7.43397,3.313456 -10.71665,5.526018 -3.21728,2.167347 -6.21347,4.660474 -9.29443,7.031914 -0.23483,0.181646 -0.5386,0.22733 -0.67724,0.104243 -0.13848,-0.123433 -0.10645,-0.416726 0.0693,-0.654096 4.99615,-6.745344 9.99231,-13.490688 14.98845,-20.236032 0.17764,-0.238522 0.14487,-0.597234 -0.0678,-0.801944 -0.0674,-0.0645 -0.13625,-0.12971 -0.20352,-0.194275 -0.2142,-0.20528 -0.61564,-0.294853 -0.89448,-0.192912 -9.21189,3.362136 -14.28483,12.244855 -22.503397,17.373943 -0.25177,0.157219 -0.365888,0.05745 -0.261146,-0.220595 0.539764,-1.432865 0.955727,-2.945089 1.776387,-4.192023 3.438586,-5.225284 7.113266,-10.295639 10.536056,-15.528883 0.85539,-1.306869 1.26143,-2.906833 1.80856,-4.414933 0.10163,-0.279093 0.005,-0.654283 -0.22607,-0.841735 -0.007,-0.0062 -0.015,-0.01238 -0.0236,-0.01944 -0.2298,-0.186908 -0.62556,-0.222353 -0.88949,-0.08555 -1.20206,0.622898 -2.47003,1.162587 -3.51299,1.98673 -6.958124,5.49925 -11.957417,12.722901 -17.137353,19.777521 -0.955033,1.301768 -1.799943,2.685024 -2.926912,4.408991 -0.162796,0.247918 -0.31632,0.209836 -0.335647,-0.08567 -0.296735,-4.628744 0.755253,-8.418006 2.70395,-12.009552 2.257535,-4.166049 4.531071,-8.322268 6.808284,-12.477583 0.46363,-0.844471 0.953365,-1.676314 1.438237,-2.509494 0.149401,-0.256349 0.07202,-0.602408 -0.171172,-0.772342 -0.0477,-0.03392 -0.09434,-0.065 -0.142046,-0.09892 -0.243347,-0.170479 -0.645599,-0.181993 -0.905782,-0.04073 -1.044596,0.564463 -2.204287,1.030488 -2.932552,1.869462 -3.260598,3.762681 -6.471355,7.585333 -9.443091,11.576904 -2.33973,3.14429 -4.343226,6.537811 -6.473835,9.836547 -0.161092,0.248104 -0.460575,0.422668 -0.669637,0.387978 -0.209215,-0.03429 -0.334872,-0.298171 -0.280955,-0.590622 1.132515,-6.141177 2.266838,-12.281278 3.399765,-18.422307 0.05334,-0.291263 -0.122418,-0.627702 -0.39189,-0.749402 -0.04711,-0.02067 -0.09399,-0.04135 -0.14026,-0.06351 -0.269946,-0.121824 -0.642697,-0.03578 -0.83658,0.187427 -1.002982,1.153438 -2.119294,2.240244 -2.868321,3.538632 -3.972884,6.88897 -6.443263,14.36486 -7.802429,22.156167 -2.258697,12.965809 -2.08568,25.978859 -0.279792,38.987019 z"
         id="path30" />
      <path
         style="fill:#cc0000;stroke:#880000;stroke-width:0.16325441"
         inkscape:connector-curvature="0"
         d="m 368.58757,250.73547 c -7.75024,0.14409 -14.83906,5.64857 -15.582,15.00519 -0.79769,10.04635 6.55218,24.22897 27.43805,35.31868 20.88585,-11.08971 28.22794,-25.27233 27.43024,-35.31868 -0.74292,-9.35662 -7.82396,-14.8611 -15.57421,-15.00519 -6.16702,0 -9.79578,3.13128 -11.85603,5.69808 -2.06026,-2.5668 -5.68902,-5.69808 -11.85605,-5.69808 z"
         id="path3036" />
      <path
         id="path3038"
         d="m 345.97283,128.10044 c 0.0872,0.62912 0.13758,1.2632 0.21005,2.05257 0.027,0.29519 -0.1041,0.35077 -0.29601,0.12465 -1.93078,-2.2809 -3.71773,-4.39192 -5.49552,-6.4938 -0.19194,-0.22613 -0.56296,-0.30507 -0.82987,-0.17474 -0.0901,0.0432 -0.1792,0.0874 -0.2693,0.13075 -0.26717,0.12985 -0.43246,0.46895 -0.37264,0.75962 0.4426,2.17194 0.74255,4.39703 1.47997,6.46348 0.71169,1.99164 1.79822,3.92205 3.05551,5.63283 3.87399,5.27012 7.73108,10.57192 11.97031,15.54181 1.74087,2.03948 4.42651,3.27873 6.70335,4.85221 17.33913,11.98867 13.2719,8.15824 21.39727,24.94271 0.68731,1.42008 0.86683,3.27279 0.68791,4.85658 -0.12256,1.08525 -1.10589,2.24583 -2.00122,3.03868 -4.55719,4.03731 -10.27558,5.80628 -15.82622,7.9021 -0.39593,0.1497 -0.63772,0.79934 -0.87832,1.25488 -1.69963,3.22278 -3.54578,6.38333 -5.00443,9.7121 -0.8388,1.91566 -1.34328,4.09548 -1.453,6.18391 -0.14666,2.81262 0.1618,5.65871 0.40873,8.47839 0.26258,2.98697 1.32311,4.14001 4.38857,4.71976 0.2907,0.055 0.59877,-0.13819 0.69564,-0.41903 1.86977,-5.36222 6.5188,-7.66065 11.3947,-9.88896 5.29442,-2.41922 9.92091,-0.95345 14.47218,1.51284 0.26078,0.14219 0.46859,0.49954 0.4572,0.795 -0.25765,6.7757 -3.98257,12.329 -6.33963,18.35127 -1.2364,3.15721 -2.54889,6.30455 -3.49202,9.55382 -1.34372,4.63488 -4.08052,8.07758 -8.09282,10.59707 -2.13237,1.33799 -3.59941,1.03642 -4.39639,-1.32995 -0.69389,-2.06128 -0.91774,-4.32055 -1.06745,-6.51321 -0.17042,-2.49044 -1.16686,-3.46121 -2.99527,-2.66475 -0.27201,0.11872 -0.29651,0.39512 -0.0851,0.60297 1.23489,1.22317 1.40861,2.34324 -0.44783,3.69131 -0.55517,0.40249 -0.75555,2.04034 -0.41491,2.79113 0.82602,1.81202 1.98544,3.47248 3.14155,5.33163 0.15563,0.25118 0.0423,0.42223 -0.24811,0.36734 -4.12495,-0.77307 -7.02355,-3.15425 -9.45135,-6.25529 -2.42026,-3.0912 -5.67799,-2.96409 -7.44803,0.14263 -0.14607,0.25711 -0.0105,0.43378 0.28044,0.38166 0.99459,-0.17755 2.04157,-0.36452 3.09496,-0.55316 0.29136,-0.052 0.64699,0.0337 0.79502,0.19098 0.1474,0.15872 0.12286,0.48056 -0.0275,0.73477 -1.0801,1.83006 -0.0207,2.66214 1.50613,3.46718 1.41001,0.74201 2.62317,1.84999 3.98798,2.69175 1.15052,0.71124 2.37042,1.31151 3.54348,2.33633 0.22364,0.19402 0.15545,0.35083 -0.13966,0.33376 -0.93917,-0.0494 -1.8769,-0.0928 -2.81659,-0.1566 -2.30662,-0.15488 -4.61904,-0.50416 -6.91727,-0.4325 -1.91444,0.0604 -3.51991,0.87306 -4.087,2.84088 -0.0817,0.28414 -0.0192,0.74135 0.10632,1.0105 0.0755,0.16193 0.15101,0.32385 0.22666,0.4854 0.12553,0.26914 0.33792,0.27389 0.4743,0.01 0.73603,-1.43757 1.11556,-2.10609 3.74518,-0.77281 3.20586,1.62626 7.89645,1.24519 11.70369,0.51099 3.98851,-0.76748 7.25554,-0.5177 10.49457,1.85651 1.6464,1.20556 3.49244,2.14634 5.28433,3.14178 0.44129,0.24429 1.15415,0.48729 1.52573,0.29932 3.16867,-1.59474 4.34219,0.0967 4.9735,2.91826 0.0654,0.28869 0.2572,0.33667 0.41531,0.0857 1.35782,-2.14299 0.47022,-3.83718 -0.9212,-4.98868 -1.37239,-1.13521 -3.24637,-2.15341 -4.96708,-2.27664 -3.1865,-0.22759 -4.85708,-1.86576 -5.93962,-4.12149 -0.12836,-0.26621 -0.0307,-0.63392 0.20424,-0.81556 5.75248,-4.4067 11.35311,-8.69591 16.9508,-12.98309 0.23622,-0.17936 0.34812,-0.50145 0.24868,-0.71749 -0.0979,-0.21547 -0.003,-0.2248 0.2084,-0.0186 0.39179,0.38033 0.81761,0.79306 1.37452,1.33365 0.21325,0.20672 0.46065,0.1459 0.55595,-0.13551 0.4143,-1.2386 0.77434,-2.31707 1.14801,-3.43424 0.0933,-0.2821 0.30088,-0.30807 0.4631,-0.0603 0.37632,0.57812 0.73169,1.12327 1.08218,1.66351 0.16222,0.2478 0.53056,0.48337 0.82369,0.52683 0.0105,0.001 0.0209,0.004 0.031,0.005 0.29371,0.042 0.58465,-0.15938 0.65168,-0.44748 0.36305,-1.5858 0.72642,-3.17369 1.09504,-4.7797 0.0666,-0.28825 0.33409,-0.41394 0.61104,-0.30646 2.24119,0.87405 4.09395,-0.0445 4.2931,-2.22809 0.31666,-3.51558 0.25877,-7.06374 0.56342,-10.58058 0.11349,-1.32582 0.63615,-2.61623 1.05282,-3.97016 0.0864,-0.2828 0.34302,-0.36884 0.5794,-0.1902 0.20341,0.15416 0.40142,0.30369 0.61824,0.46629 0.23675,0.17877 0.4474,0.0832 0.47291,-0.21072 0.0388,-0.47111 0.0733,-0.89974 0.10762,-1.32345 0.0242,-0.29657 0.26733,-0.44582 0.54128,-0.33497 1.27776,0.51091 2.49429,0.99687 3.83555,1.53269 0.27623,0.10944 0.48151,0.43834 0.4574,0.73453 -0.78423,10.26382 -1.94457,20.3489 -12.49312,26.30468 -0.25834,0.14591 -0.6067,0.0609 -0.77418,-0.18339 -0.72647,-1.05816 -1.58035,-2.30068 -2.70725,-3.94043 -0.16709,-0.24421 -0.37636,-0.21355 -0.46596,0.0681 -0.31015,0.96219 -0.44174,1.30294 -0.50743,1.65342 -0.19231,1.04694 -0.14577,2.90553 -0.54856,3.00424 -1.07303,0.26341 -2.26893,0.0206 -3.44083,-0.11724 -0.29416,-0.0345 -0.47505,-0.28733 -0.40117,-0.57473 0.0382,-0.15525 0.0779,-0.30951 0.1181,-0.46403 0.0721,-0.2876 -0.08,-0.40888 -0.34134,-0.26939 -0.60776,0.32192 -1.24467,0.66036 -2.01633,1.06818 -0.26121,0.13908 -0.27239,0.38388 -0.0261,0.54611 1.02984,0.67843 1.88932,1.24144 2.85464,1.87814 0.24753,0.16266 0.22959,0.39786 -0.0597,0.46354 -2.62838,0.58364 -5.46182,-2.88898 -7.71968,0.85358 -0.15224,0.25311 -0.0273,0.53324 0.25624,0.61815 2.28773,0.69108 4.53196,1.69133 6.81591,1.78853 4.80201,0.2057 7.71722,2.37124 9.34883,6.80115 0.65802,1.78557 1.06958,4.16391 4.24498,3.89733 0.29618,-0.0248 0.43762,0.15528 0.32049,0.42694 -0.39401,0.91743 -0.71611,1.66296 -0.99815,2.32287 -0.11726,0.27167 0.029,0.47931 0.31822,0.41363 1.81581,-0.4084 2.98963,-2.16695 2.33327,-4.44875 -0.41837,-1.45084 -1.55146,-2.71886 -2.46814,-3.99316 -0.66875,-0.92807 -1.67597,-1.63435 -2.24424,-2.60732 -1.99017,-3.41056 -1.55568,-4.11382 1.98324,-5.67887 3.55663,-1.57328 6.92618,-3.56948 10.40234,-5.33143 0.48149,-0.24411 1.05549,-0.30454 1.99001,-0.50171 0.29003,-0.0619 0.65098,-0.32086 0.80793,-0.57225 0.43023,-0.68791 1.01284,-1.62573 1.64432,-2.63658 0.15693,-0.25138 0.40213,-0.24628 0.54753,0.0124 0.31849,0.56822 0.61136,1.09061 0.9406,1.67697 0.14592,0.25835 0.39356,0.26657 0.56634,0.0267 0.23737,-0.32805 0.42701,-0.57509 0.50572,-0.85496 0.66835,-2.39037 2.42821,-3.76782 4.38092,-5.05502 0.39905,-0.26342 0.48314,-1.12316 0.56521,-1.72899 0.2305,-1.68522 0.39814,-3.37865 0.59713,-5.17907 0.0329,-0.29474 0.2431,-0.37804 0.4696,-0.18699 0.3165,0.2679 0.64327,0.54309 1.05308,0.88855 0.22673,0.1916 0.42337,0.10511 0.44004,-0.19019 0.10895,-1.9966 0.2034,-3.74376 0.30854,-5.68384 0.0151,-0.29629 0.15715,-0.33145 0.31294,-0.0806 0.19867,0.3176 0.36487,0.58509 0.51866,0.83161 0.15722,0.25176 0.42695,0.45857 0.60368,0.461 0.17642,0.005 0.34677,-0.23348 0.3791,-0.52665 0.14845,-1.31176 0.29647,-2.6259 0.44564,-3.94453 0.0326,-0.29486 0.29385,-0.5884 0.5835,-0.65036 2.25719,-0.46767 4.65598,-0.60646 6.23301,-2.96395 0.33457,-0.49969 2.19092,-0.93383 2.86511,-1.01878 4.47696,-0.56832 9.03914,-0.64799 13.56486,-0.52594 1.20178,0.0323 2.44587,1.22409 3.5382,2.05616 3.66945,2.79753 7.1018,5.94681 10.96818,8.42959 2.99966,1.92736 6.5682,2.03982 10.11837,1.02731 4.36347,-1.24357 8.83143,-2.14192 13.15052,-3.51428 5.14715,-1.63546 10.18161,-3.62665 15.27124,-5.44286 3.08,-1.10036 6.19764,-2.09626 9.25178,-3.26259 3.04638,-1.16336 6.05877,-2.42412 9.03282,-3.76296 1.02936,-0.46271 1.89033,-1.29566 2.8424,-1.94099 0.97286,-0.66089 1.92339,-1.36687 2.95158,-1.93151 1.15997,-0.63686 2.55108,-0.9461 3.54206,-1.762 0.61532,-0.50659 0.88679,-1.42855 1.04115,-2.37982 0.0469,-0.29369 0.2538,-0.69244 0.47094,-0.89521 2.09752,-1.96637 1.86322,-2.56404 0.11117,-5.43027 -1.84679,-3.02048 -4.34112,-4.00134 -7.61905,-3.81751 -11.67918,0.64961 -23.35971,1.26264 -35.03801,1.93436 -15.09843,0.86704 -15.22631,1.19266 -29.05222,-4.58968 -8.02378,-3.35623 -16.1348,-6.27589 -24.49073,-8.46515 -0.28682,-0.0754 -0.28418,-0.1818 0.006,-0.24136 1.73925,-0.35703 3.46615,-0.77063 5.18139,-1.24147 0.28692,-0.079 0.75663,-0.15732 1.05252,-0.17651 2.74263,-0.17345 5.483,-0.44344 8.22849,-0.60518 0.85559,-0.0501 1.74286,0.14562 2.59322,0.32997 3.9871,0.86801 7.60856,0.40454 10.59786,-2.68852 0.31975,-0.33057 0.88006,-0.4427 1.34324,-0.61691 0.91394,-0.34491 2.1061,-0.41093 2.70158,-1.04402 1.34466,-1.43418 2.56945,-2.72857 4.68597,-3.12412 0.50052,-0.0921 0.76321,-1.45839 1.16259,-2.64989 0.0934,-0.2821 0.42463,-0.49762 0.71943,-0.52476 1.45515,-0.1355 2.3097,-0.9703 2.59399,-3.20444 0.197,-1.54294 2.59997,-2.68273 3.52172,-4.28685 1.4678,-2.55528 3.65518,-4.81258 3.37839,-8.22408 -0.12672,-1.58289 0.67552,-3.23806 1.0316,-4.86465 0.81382,-3.72325 1.86786,-7.42277 2.29873,-11.19101 0.17161,-1.50501 -0.63216,-3.12372 -1.08836,-4.44989 -0.0961,-0.28026 0.0581,-0.61457 0.3251,-0.73907 0.956,-0.44578 1.94723,-0.90769 2.94212,-1.37226 0.26916,-0.12554 0.38535,-0.4447 0.2597,-0.71348 -0.51149,-1.09965 -1.02997,-2.20942 -1.58359,-3.39875 -0.12553,-0.26917 0.007,-0.54412 0.29573,-0.60823 0.86781,-0.19252 1.92042,-0.39615 2.8982,-0.78681 0.6568,-0.26221 1.38133,-0.90131 1.58642,-1.52959 0.11699,-0.36072 -0.65929,-1.15345 -1.18422,-1.55198 -0.78482,-0.59816 -1.65924,-1.07979 -2.638,-1.66486 -0.25482,-0.15239 -0.22696,-0.34392 0.0566,-0.4259 2.20318,-0.62754 4.22499,-1.20315 6.23161,-1.77493 0.28568,-0.0817 0.58466,-0.36859 0.66756,-0.64158 0.0828,-0.273 -0.0464,-0.63081 -0.29034,-0.79971 -1.3562,-0.93879 -2.72162,-1.88405 -4.17351,-2.89017 -0.2439,-0.1689 -0.21717,-0.39155 0.0615,-0.4935 1.48879,-0.55193 3.03166,-1.08371 4.52425,-1.73174 1.98902,-0.86354 2.21686,-2.03378 0.42558,-3.25957 -1.35075,-0.92567 -3.01386,-1.64007 -4.62524,-1.88512 -3.13377,-0.47774 -6.32093,-0.61298 -9.7288,-0.88552 -0.295,-0.0237 -0.30508,-0.11452 -0.0228,-0.20284 17.55644,-5.43956 18.52334,-5.76119 19.73934,-8.45752 0.12219,-0.26982 -0.0222,-0.46749 -0.31753,-0.43877 -8.65762,0.8412 -17.40402,1.69149 -26.15173,2.54174 -0.29577,0.0286 -0.31768,-0.0505 -0.0477,-0.17361 9.95122,-4.60573 20.4341,-8.04127 28.72989,-15.963298 0.21457,-0.205479 0.15428,-0.308905 -0.13163,-0.231342 -9.73214,2.680407 -19.15475,5.273605 -28.56985,7.868202 -0.28695,0.07899 -0.5889,0.01486 -0.67556,-0.146213 -0.0872,-0.159064 0.0462,-0.415451 0.29752,-0.572819 3.07091,-1.91569 6.17674,-3.776832 9.18932,-5.780522 4.51677,-3.004081 9.05232,-5.997317 13.38942,-9.250196 1.59599,-1.197586 2.75983,-2.967794 4.07187,-4.54473 0.18949,-0.227057 0.24564,-0.62598 0.12021,-0.895132 l 0,0 c -0.12509,-0.269015 -0.44428,-0.381627 -0.71119,-0.251273 -9.38509,4.552232 -18.77114,9.105925 -28.15623,13.658183 -0.26715,0.129858 -0.48529,0.170169 -0.4911,0.09186 -0.005,-0.07763 0.17755,-0.293306 0.40881,-0.479805 5.72799,-4.653765 11.52131,-9.228988 17.14376,-14.006198 3.36232,-2.855775 4.57656,-6.945251 5.37049,-11.137385 0.0402,-0.210654 -0.0514,-0.447381 -0.26108,-0.794405 -0.15293,-0.25375 -0.39262,-0.233706 -0.52489,0.0307 -5.10259,10.161595 -15.37097,13.322165 -24.36959,18.313346 -0.2592,0.143391 -0.30372,0.08716 -0.10165,-0.129561 5.54359,-5.948674 10.57151,-12.123304 11.09347,-20.164597 0.0194,-0.296537 -0.12984,-0.356198 -0.3229,-0.130428 -3.18994,3.699355 -6.36446,7.93497 -10.17956,11.475781 -3.88655,3.607418 -8.41333,6.527708 -12.85508,9.589828 -0.24494,0.169056 -0.34676,0.08431 -0.2282,-0.18635 3.35281,-7.655976 7.47485,-15.053795 5.27064,-23.873176 -0.0716,-0.287808 -0.20085,-0.287239 -0.27576,-6.68e-4 -0.41788,1.582309 -0.78323,3.184179 -1.31685,4.726128 -2.25286,6.508915 -5.92314,12.082114 -10.50328,17.26986 -6.37354,7.221162 -12.64543,14.597291 -16.89529,23.39451 -0.51404,1.0625 -1.21272,2.03421 -1.98682,3.24734 -0.16008,0.25026 -0.33363,0.21826 -0.39147,-0.0717 -0.28055,-1.39535 -0.52954,-2.63763 -0.84935,-4.22845 -0.0578,-0.28992 -0.26161,-0.34406 -0.46392,-0.12701 -0.76803,0.81736 -1.46225,1.35843 -1.65164,2.03782 -0.82972,2.96335 -1.75296,5.95857 -2.06193,8.99926 -0.49999,4.93662 -0.49689,9.92325 -0.80822,14.88089 -0.0475,0.7546 -0.20525,1.47272 -0.0488,2.10571 0.0717,0.28742 0.0604,0.65235 -0.11588,0.84776 -0.17659,0.19528 -0.31929,0.35256 -0.31929,0.35256 -0.18335,0.23464 -0.3667,0.4693 -0.55271,0.7052 -0.18279,0.23306 -0.51253,0.26575 -0.73618,0.0717 -0.37824,-0.32821 -0.75262,-0.65724 -1.09792,-0.99525 -0.64646,-0.63462 -1.88304,-1.07402 -2.01289,-1.76054 -0.69959,-3.72742 -3.19766,-4.46435 -6.49109,-4.36761 -0.29562,0.01 -0.41693,-0.18649 -0.26767,-0.44245 1.10112,-1.88785 2.21279,-3.58446 3.01241,-5.4169 0.41647,-0.95466 0.38463,-2.105 0.46393,-3.20599 0.0204,-0.29574 -0.19135,-0.54197 -0.48724,-0.55708 -1.11258,-0.0524 -2.22585,-0.14189 -3.3298,-0.0638 -0.62026,0.0431 -1.22596,0.33864 -2.03856,0.65098 -0.27644,0.10635 -0.42872,-0.0452 -0.31946,-0.31972 1.36243,-3.45457 4.35778,-6.13498 3.55515,-10.26671 -0.0572,-0.29152 -0.34675,-0.44407 -0.62702,-0.34798 -1.1591,0.40081 -2.20492,0.76315 -3.36244,1.16451 -0.28084,0.0978 -0.42843,-0.0509 -0.32999,-0.33112 0.86309,-2.45571 1.66122,-4.72808 2.45481,-6.98919 0.0985,-0.28024 0.009,-0.65414 -0.19896,-0.83543 -0.20838,-0.18091 -0.59329,-0.22664 -0.86245,-0.10115 -2.23798,1.0436 -4.47754,2.08661 -6.71556,3.13153 -0.26917,0.12552 -0.53536,0.12294 -0.59436,-0.004 -0.0591,-0.12657 0.02,-0.43391 0.17857,-0.68511 1.74833,-2.77681 3.49612,-5.553346 5.24587,-8.329193 0.15852,-0.250816 0.13536,-0.640776 -0.0511,-0.872043 -0.0653,-0.07985 -0.12984,-0.161688 -0.19546,-0.242075 -0.18649,-0.231267 -0.56066,-0.330942 -0.84035,-0.231527 -1.46894,0.527965 -3.00084,0.943998 -4.32122,1.721924 -3.82314,2.25536 -7.5398,4.687898 -11.2942,7.057764 -0.2502,0.15777 -0.59062,0.13534 -0.75645,-0.0524 -0.16599,-0.18729 -0.14488,-0.51928 0.0461,-0.74578 0.80829,-0.95363 1.5916,-1.932805 2.46507,-2.820868 2.99908,-3.040516 6.09255,-5.990581 9.03745,-9.081536 0.56733,-0.596156 0.80706,-1.504312 0.94925,-2.518755 0.0415,-0.293837 -0.16745,-0.473181 -0.453,-0.391915 -7.71931,2.205281 -12.79628,8.668796 -20.11104,11.81862 -0.27145,0.116995 -0.35626,0.01114 -0.1905,-0.234956 0.90694,-1.333499 1.73531,-2.741021 2.81372,-3.918205 3.74077,-4.080252 7.64938,-8.006392 11.37576,-12.09723 0.73563,-0.8078 1.10874,-1.942964 1.38997,-3.130263 0.0683,-0.287697 -0.12062,-0.501544 -0.41509,-0.461828 -4.34952,0.607175 -7.43397,3.313456 -10.71665,5.526018 -3.21728,2.167347 -6.21347,4.660474 -9.29443,7.031914 -0.23483,0.181646 -0.5386,0.22733 -0.67724,0.104243 -0.13848,-0.123433 -0.10645,-0.416726 0.0693,-0.654096 4.99615,-6.745344 9.99231,-13.490688 14.98845,-20.236032 0.17764,-0.238522 0.14487,-0.597234 -0.0678,-0.801944 -0.0674,-0.0645 -0.13625,-0.12971 -0.20352,-0.194275 -0.2142,-0.20528 -0.61564,-0.294853 -0.89448,-0.192912 -9.21189,3.362136 -14.28483,12.244855 -22.5034,17.373943 -0.25177,0.157219 -0.36589,0.05745 -0.26115,-0.220595 0.53977,-1.432865 0.95573,-2.945089 1.77639,-4.192023 3.43859,-5.225284 7.11327,-10.295639 10.53606,-15.528883 0.85539,-1.306869 1.26143,-2.906833 1.80856,-4.414933 0.10163,-0.279093 0.005,-0.654283 -0.22607,-0.841735 -0.007,-0.0062 -0.015,-0.01238 -0.0236,-0.01944 -0.2298,-0.186908 -0.62556,-0.222353 -0.88949,-0.08555 -1.20206,0.622898 -2.47003,1.162587 -3.51299,1.98673 -6.95813,5.49925 -11.95742,12.722901 -17.13736,19.777521 -0.95503,1.301768 -1.79994,2.685024 -2.92691,4.408991 -0.16279,0.247918 -0.31632,0.209836 -0.33564,-0.08567 -0.29674,-4.628744 0.75525,-8.418006 2.70395,-12.009552 2.25753,-4.166049 4.53107,-8.322268 6.80828,-12.477583 0.46363,-0.844471 0.95336,-1.676314 1.43824,-2.509494 0.1494,-0.256349 0.072,-0.602408 -0.17118,-0.772342 -0.0477,-0.03392 -0.0943,-0.065 -0.14204,-0.09892 -0.24335,-0.170479 -0.6456,-0.181993 -0.90578,-0.04073 -1.0446,0.564463 -2.20429,1.030488 -2.93256,1.869462 -3.26059,3.762681 -6.47135,7.585333 -9.44309,11.576904 -2.33973,3.14429 -4.34322,6.537811 -6.47383,9.836547 -0.16109,0.248104 -0.46058,0.422668 -0.66964,0.387978 -0.20921,-0.03429 -0.33487,-0.298171 -0.28095,-0.590622 1.13251,-6.141177 2.26683,-12.281278 3.39976,-18.422307 0.0533,-0.291263 -0.12242,-0.627702 -0.39189,-0.749402 -0.0471,-0.02067 -0.094,-0.04135 -0.14026,-0.06351 -0.26995,-0.121824 -0.6427,-0.03578 -0.83658,0.187427 -1.00298,1.153438 -2.11929,2.240244 -2.86832,3.538632 -3.97288,6.88897 -6.44326,14.36486 -7.80243,22.156167 -2.2587,12.965809 -2.08568,25.978859 -0.27979,38.987019 z"
         inkscape:connector-curvature="0"
         style="fill:#000000;display:inline" />
    </g>
    <g
       style="display:inline"
       id="g3242"
       transform="translate(5.8e-5,20)">
      <path
         id="path3042"
         d="m 229.31965,491.95453 c -7.75024,0.1441 -14.83906,5.64858 -15.582,15.00519 -0.79769,10.04636 6.55218,24.22898 27.43805,35.31869 20.88585,-11.08971 28.22794,-25.27233 27.43024,-35.31869 -0.74292,-9.35661 -7.82396,-14.86109 -15.57421,-15.00519 -6.16702,0 -9.79578,3.13128 -11.85603,5.69808 -2.06026,-2.5668 -5.68902,-5.69808 -11.85605,-5.69808 z"
         inkscape:connector-curvature="0"
         style="fill:#cc0000;stroke:#880000;stroke-width:0.16325441" />
      <path
         style="fill:#000000;display:inline"
         inkscape:connector-curvature="0"
         d="m 206.70491,369.31951 c 0.0872,0.62911 0.13758,1.26319 0.21005,2.05257 0.027,0.29519 -0.1041,0.35076 -0.29601,0.12465 -1.93078,-2.28091 -3.71773,-4.39192 -5.49552,-6.4938 -0.19194,-0.22613 -0.56296,-0.30507 -0.82987,-0.17474 -0.0901,0.0432 -0.1792,0.0874 -0.2693,0.13075 -0.26717,0.12985 -0.43246,0.46895 -0.37264,0.75962 0.4426,2.17194 0.74255,4.39703 1.47997,6.46347 0.71169,1.99165 1.79822,3.92206 3.05551,5.63284 3.87399,5.27011 7.73108,10.57192 11.97031,15.54181 1.74087,2.03948 4.42651,3.27873 6.70335,4.85221 17.33913,11.98866 13.2719,8.15824 21.39727,24.94271 0.68731,1.42007 0.86683,3.27279 0.68791,4.85658 -0.12256,1.08525 -1.10589,2.24583 -2.00122,3.03867 -4.55719,4.03732 -10.27558,5.80629 -15.82622,7.9021 -0.39593,0.14971 -0.63772,0.79935 -0.87832,1.25489 -1.69963,3.22278 -3.54578,6.38332 -5.00443,9.71209 -0.8388,1.91567 -1.34328,4.09548 -1.453,6.18392 -0.14666,2.81262 0.1618,5.65871 0.40873,8.47838 0.26258,2.98697 1.32311,4.14002 4.38857,4.71977 0.2907,0.055 0.59877,-0.13819 0.69564,-0.41903 1.86977,-5.36222 6.5188,-7.66066 11.3947,-9.88897 5.29442,-2.41921 9.92091,-0.95344 14.47218,1.51285 0.26078,0.14219 0.46859,0.49954 0.4572,0.795 -0.25765,6.7757 -3.98257,12.329 -6.33963,18.35126 -1.2364,3.15722 -2.54889,6.30455 -3.49202,9.55383 -1.34372,4.63487 -4.08052,8.07758 -8.09282,10.59706 -2.13237,1.338 -3.59941,1.03642 -4.39639,-1.32994 -0.69389,-2.06129 -0.91774,-4.32056 -1.06745,-6.51321 -0.17042,-2.49044 -1.16686,-3.46122 -2.99527,-2.66476 -0.27201,0.11873 -0.29651,0.39512 -0.0851,0.60298 1.23489,1.22316 1.40861,2.34324 -0.44783,3.69131 -0.55517,0.40249 -0.75555,2.04033 -0.41491,2.79112 0.82602,1.81203 1.98544,3.47248 3.14155,5.33163 0.15563,0.25119 0.0423,0.42224 -0.24811,0.36734 -4.12495,-0.77307 -7.02355,-3.15424 -9.45135,-6.25528 -2.42026,-3.09121 -5.67799,-2.9641 -7.44803,0.14263 -0.14607,0.25711 -0.0105,0.43378 0.28044,0.38165 0.99459,-0.17754 2.04157,-0.36451 3.09496,-0.55316 0.29136,-0.052 0.64699,0.0337 0.79502,0.19099 0.1474,0.15871 0.12286,0.48056 -0.0275,0.73476 -1.0801,1.83007 -0.0207,2.66215 1.50613,3.46719 1.41001,0.74201 2.62317,1.84998 3.98798,2.69174 1.15052,0.71125 2.37042,1.31152 3.54348,2.33633 0.22364,0.19403 0.15545,0.35084 -0.13966,0.33377 -0.93917,-0.0494 -1.8769,-0.0929 -2.81659,-0.1566 -2.30662,-0.15488 -4.61904,-0.50416 -6.91727,-0.4325 -1.91444,0.0604 -3.51991,0.87306 -4.087,2.84088 -0.0817,0.28413 -0.0192,0.74134 0.10632,1.01049 0.0755,0.16194 0.15101,0.32385 0.22666,0.4854 0.12553,0.26914 0.33792,0.2739 0.4743,0.01 0.73603,-1.43757 1.11556,-2.10609 3.74518,-0.77281 3.20586,1.62626 7.89645,1.24518 11.70369,0.51099 3.98851,-0.76748 7.25554,-0.5177 10.49457,1.85651 1.6464,1.20556 3.49244,2.14634 5.28433,3.14177 0.44129,0.2443 1.15415,0.4873 1.52573,0.29933 3.16867,-1.59474 4.34219,0.0967 4.9735,2.91826 0.0654,0.28868 0.2572,0.33667 0.41531,0.0857 1.35782,-2.143 0.47022,-3.83719 -0.9212,-4.98868 -1.37239,-1.13522 -3.24637,-2.15341 -4.96708,-2.27664 -3.1865,-0.22759 -4.85708,-1.86576 -5.93962,-4.1215 -0.12836,-0.2662 -0.0307,-0.63391 0.20424,-0.81556 5.75248,-4.4067 11.35311,-8.69591 16.9508,-12.98309 0.23622,-0.17935 0.34812,-0.50144 0.24868,-0.71748 -0.0979,-0.21547 -0.003,-0.22481 0.2084,-0.0186 0.39179,0.38032 0.81761,0.79305 1.37452,1.33364 0.21325,0.20672 0.46065,0.14591 0.55595,-0.1355 0.4143,-1.2386 0.77434,-2.31708 1.14801,-3.43424 0.0933,-0.2821 0.30088,-0.30807 0.4631,-0.0603 0.37632,0.57812 0.73169,1.12326 1.08218,1.66351 0.16222,0.2478 0.53056,0.48337 0.82369,0.52683 0.0105,0.001 0.0209,0.004 0.031,0.005 0.29371,0.042 0.58465,-0.15939 0.65168,-0.44748 0.36305,-1.5858 0.72642,-3.17369 1.09504,-4.7797 0.0666,-0.28825 0.33409,-0.41394 0.61104,-0.30647 2.24119,0.87405 4.09395,-0.0444 4.2931,-2.22808 0.31666,-3.51558 0.25877,-7.06375 0.56342,-10.58059 0.11349,-1.32581 0.63615,-2.61622 1.05282,-3.97015 0.0864,-0.28281 0.34302,-0.36884 0.5794,-0.1902 0.20341,0.15416 0.40142,0.30369 0.61824,0.46628 0.23675,0.17878 0.4474,0.0832 0.47291,-0.21071 0.0388,-0.47112 0.0733,-0.89974 0.10762,-1.32345 0.0242,-0.29657 0.26733,-0.44582 0.54128,-0.33498 1.27776,0.51092 2.49429,0.99688 3.83555,1.53269 0.27623,0.10944 0.48151,0.43834 0.4574,0.73453 -0.78423,10.26382 -1.94457,20.34891 -12.49312,26.30469 -0.25834,0.1459 -0.6067,0.0609 -0.77418,-0.18339 -0.72647,-1.05816 -1.58035,-2.30069 -2.70725,-3.94043 -0.16709,-0.24422 -0.37636,-0.21355 -0.46596,0.0681 -0.31015,0.9622 -0.44174,1.30295 -0.50743,1.65342 -0.19231,1.04695 -0.14577,2.90554 -0.54856,3.00425 -1.07303,0.2634 -2.26893,0.0206 -3.44083,-0.11725 -0.29416,-0.0345 -0.47505,-0.28732 -0.40117,-0.57472 0.0382,-0.15525 0.0779,-0.30951 0.1181,-0.46403 0.0721,-0.2876 -0.08,-0.40888 -0.34134,-0.26939 -0.60776,0.32192 -1.24467,0.66036 -2.01633,1.06817 -0.26121,0.13909 -0.27239,0.38388 -0.0261,0.54612 1.02984,0.67842 1.88932,1.24144 2.85464,1.87814 0.24753,0.16265 0.22959,0.39786 -0.0597,0.46353 -2.62838,0.58364 -5.46182,-2.88898 -7.71968,0.85359 -0.15224,0.2531 -0.0273,0.53324 0.25624,0.61814 2.28773,0.69109 4.53196,1.69133 6.81591,1.78853 4.80201,0.2057 7.71722,2.37124 9.34883,6.80116 0.65802,1.78557 1.06958,4.1639 4.24498,3.89733 0.29618,-0.0248 0.43762,0.15527 0.32049,0.42694 -0.39401,0.91743 -0.71611,1.66295 -0.99815,2.32287 -0.11726,0.27166 0.029,0.47931 0.31822,0.41363 1.81581,-0.40841 2.98963,-2.16695 2.33327,-4.44876 -0.41837,-1.45084 -1.55146,-2.71886 -2.46814,-3.99315 -0.66875,-0.92808 -1.67597,-1.63436 -2.24424,-2.60733 -1.99017,-3.41055 -1.55568,-4.11381 1.98324,-5.67886 3.55663,-1.57329 6.92618,-3.56949 10.40234,-5.33144 0.48149,-0.2441 1.05549,-0.30453 1.99001,-0.5017 0.29003,-0.0619 0.65098,-0.32087 0.80793,-0.57225 0.43023,-0.68791 1.01284,-1.62573 1.64432,-2.63658 0.15693,-0.25139 0.40213,-0.24629 0.54753,0.0124 0.31849,0.56821 0.61136,1.09061 0.9406,1.67697 0.14592,0.25834 0.39356,0.26656 0.56634,0.0267 0.23737,-0.32806 0.42701,-0.5751 0.50572,-0.85497 0.66835,-2.39037 2.42821,-3.76782 4.38092,-5.05501 0.39905,-0.26342 0.48314,-1.12316 0.56521,-1.729 0.2305,-1.68521 0.39814,-3.37865 0.59713,-5.17906 0.0329,-0.29475 0.2431,-0.37804 0.4696,-0.187 0.3165,0.2679 0.64327,0.54309 1.05308,0.88856 0.22673,0.1916 0.42337,0.10511 0.44004,-0.19019 0.10895,-1.99661 0.2034,-3.74376 0.30854,-5.68384 0.0151,-0.29629 0.15715,-0.33145 0.31294,-0.0806 0.19867,0.3176 0.36487,0.58509 0.51866,0.83161 0.15722,0.25175 0.42695,0.45857 0.60368,0.461 0.17642,0.005 0.34677,-0.23349 0.3791,-0.52666 0.14845,-1.31175 0.29647,-2.62589 0.44564,-3.94452 0.0326,-0.29487 0.29385,-0.58841 0.5835,-0.65036 2.25719,-0.46767 4.65598,-0.60647 6.23301,-2.96395 0.33457,-0.49969 2.19092,-0.93384 2.86511,-1.01878 4.47696,-0.56833 9.03914,-0.64799 13.56486,-0.52595 1.20178,0.0323 2.44587,1.2241 3.5382,2.05616 3.66945,2.79754 7.1018,5.94682 10.96818,8.4296 2.99966,1.92736 6.5682,2.03981 10.11837,1.0273 4.36347,-1.24357 8.83143,-2.14192 13.15052,-3.51428 5.14715,-1.63546 10.18161,-3.62664 15.27124,-5.44286 3.08,-1.10036 6.19764,-2.09626 9.25178,-3.26258 3.04638,-1.16337 6.05877,-2.42412 9.03282,-3.76297 1.02936,-0.4627 1.89033,-1.29565 2.8424,-1.94098 0.97286,-0.66089 1.92339,-1.36688 2.95158,-1.93151 1.15997,-0.63687 2.55108,-0.94611 3.54206,-1.762 0.61532,-0.5066 0.88679,-1.42856 1.04115,-2.37982 0.0469,-0.29369 0.2538,-0.69244 0.47094,-0.89521 2.09752,-1.96638 1.86322,-2.56404 0.11117,-5.43028 -1.84679,-3.02047 -4.34112,-4.00134 -7.61905,-3.8175 -11.67918,0.6496 -23.35971,1.26263 -35.03801,1.93436 -15.09843,0.86704 -15.22631,1.19266 -29.05222,-4.58968 -8.02378,-3.35623 -16.1348,-6.27589 -24.49073,-8.46515 -0.28682,-0.0754 -0.28418,-0.1818 0.006,-0.24136 1.73925,-0.35703 3.46615,-0.77064 5.18139,-1.24148 0.28692,-0.079 0.75663,-0.15732 1.05252,-0.17651 2.74263,-0.17345 5.483,-0.44344 8.22849,-0.60518 0.85559,-0.0501 1.74286,0.14562 2.59322,0.32998 3.9871,0.86801 7.60856,0.40453 10.59786,-2.68853 0.31975,-0.33057 0.88006,-0.4427 1.34324,-0.6169 0.91394,-0.34491 2.1061,-0.41094 2.70158,-1.04402 1.34466,-1.43418 2.56945,-2.72857 4.68597,-3.12413 0.50052,-0.0921 0.76321,-1.45839 1.16259,-2.64988 0.0934,-0.2821 0.42463,-0.49762 0.71943,-0.52476 1.45515,-0.13551 2.3097,-0.97031 2.59399,-3.20445 0.197,-1.54294 2.59997,-2.68272 3.52172,-4.28684 1.4678,-2.55528 3.65518,-4.81258 3.37839,-8.22408 -0.12672,-1.58289 0.67552,-3.23806 1.0316,-4.86465 0.81382,-3.72325 1.86786,-7.42277 2.29873,-11.19101 0.17161,-1.50502 -0.63216,-3.12373 -1.08836,-4.4499 -0.0961,-0.28025 0.0581,-0.61456 0.3251,-0.73906 0.956,-0.44578 1.94723,-0.9077 2.94212,-1.37226 0.26916,-0.12554 0.38535,-0.44471 0.2597,-0.71349 -0.51149,-1.09964 -1.02997,-2.20941 -1.58359,-3.39874 -0.12553,-0.26918 0.007,-0.54412 0.29573,-0.60823 0.86781,-0.19253 1.92042,-0.39615 2.8982,-0.78682 0.6568,-0.2622 1.38133,-0.90131 1.58642,-1.52959 0.11699,-0.36072 -0.65929,-1.15345 -1.18422,-1.55198 -0.78482,-0.59816 -1.65924,-1.07978 -2.638,-1.66486 -0.25482,-0.15239 -0.22696,-0.34391 0.0566,-0.4259 2.20318,-0.62754 4.22499,-1.20314 6.23161,-1.77492 0.28568,-0.0817 0.58466,-0.36859 0.66756,-0.64158 0.0828,-0.273 -0.0464,-0.63081 -0.29034,-0.79972 -1.3562,-0.93878 -2.72162,-1.88404 -4.17351,-2.89017 -0.2439,-0.16889 -0.21717,-0.39154 0.0615,-0.49349 1.48879,-0.55194 3.03166,-1.08371 4.52425,-1.73175 1.98902,-0.86353 2.21686,-2.03377 0.42558,-3.25956 -1.35075,-0.92567 -3.01386,-1.64008 -4.62524,-1.88512 -3.13377,-0.47774 -6.32093,-0.61298 -9.7288,-0.88553 -0.295,-0.0236 -0.30508,-0.11452 -0.0228,-0.20284 17.55644,-5.43955 18.52334,-5.76118 19.73934,-8.45751 0.12219,-0.26982 -0.0222,-0.4675 -0.31753,-0.43878 -8.65762,0.84121 -17.40402,1.6915 -26.15173,2.54175 -0.29577,0.0286 -0.31768,-0.0505 -0.0477,-0.17361 9.95122,-4.60573 20.4341,-8.04127 28.72989,-15.9633 0.21457,-0.20548 0.15428,-0.30891 -0.13163,-0.23134 -9.73214,2.6804 -19.15475,5.2736 -28.56985,7.8682 -0.28695,0.079 -0.5889,0.0149 -0.67556,-0.14621 -0.0872,-0.15907 0.0462,-0.41546 0.29752,-0.57282 3.07091,-1.91569 6.17674,-3.77684 9.18932,-5.78053 4.51677,-3.00408 9.05232,-5.99731 13.38942,-9.25019 1.59599,-1.19759 2.75983,-2.9678 4.07187,-4.54473 0.18949,-0.22706 0.24564,-0.62598 0.12021,-0.89513 l 0,0 c -0.12509,-0.26902 -0.44428,-0.38163 -0.71119,-0.25128 -9.38509,4.55224 -18.77114,9.10593 -28.15623,13.65819 -0.26715,0.12985 -0.48529,0.17017 -0.4911,0.0919 -0.005,-0.0776 0.17755,-0.29331 0.40881,-0.47981 5.72799,-4.65376 11.52131,-9.22898 17.14376,-14.00619 3.36232,-2.85578 4.57656,-6.94525 5.37049,-11.13739 0.0402,-0.21065 -0.0514,-0.44738 -0.26108,-0.7944 -0.15293,-0.25375 -0.39262,-0.23371 -0.52489,0.0307 -5.10259,10.16159 -15.37097,13.32216 -24.36959,18.31335 -0.2592,0.14339 -0.30372,0.0872 -0.10165,-0.12957 5.54359,-5.94867 10.57151,-12.1233 11.09347,-20.16459 0.0194,-0.29654 -0.12984,-0.3562 -0.3229,-0.13043 -3.18994,3.69936 -6.36446,7.93497 -10.17956,11.47578 -3.88655,3.60742 -8.41333,6.52771 -12.85508,9.58983 -0.24494,0.16905 -0.34676,0.0843 -0.2282,-0.18635 3.35281,-7.65598 7.47485,-15.0538 5.27064,-23.87318 -0.0716,-0.28781 -0.20085,-0.28724 -0.27576,-6.7e-4 -0.41788,1.58231 -0.78323,3.18418 -1.31685,4.72613 -2.25286,6.50892 -5.92314,12.08212 -10.50328,17.26986 -6.37354,7.22117 -12.64543,14.59729 -16.89529,23.39451 -0.51404,1.06251 -1.21272,2.03421 -1.98682,3.24735 -0.16008,0.25026 -0.33363,0.21825 -0.39147,-0.0717 -0.28055,-1.39535 -0.52954,-2.63763 -0.84935,-4.22844 -0.0578,-0.28993 -0.26161,-0.34407 -0.46392,-0.12701 -0.76803,0.81735 -1.46225,1.35843 -1.65164,2.03782 -0.82972,2.96335 -1.75296,5.95857 -2.06193,8.99926 -0.49999,4.93662 -0.49689,9.92324 -0.80822,14.88089 -0.0475,0.7546 -0.20525,1.47271 -0.0488,2.1057 0.0717,0.28743 0.0604,0.65235 -0.11588,0.84777 -0.17659,0.19527 -0.31929,0.35255 -0.31929,0.35255 -0.18335,0.23465 -0.3667,0.46931 -0.55271,0.70521 -0.18279,0.23306 -0.51253,0.26574 -0.73618,0.0717 -0.37824,-0.32822 -0.75262,-0.65724 -1.09792,-0.99525 -0.64646,-0.63462 -1.88304,-1.07402 -2.01289,-1.76054 -0.69959,-3.72742 -3.19766,-4.46436 -6.49109,-4.36762 -0.29562,0.01 -0.41693,-0.18648 -0.26767,-0.44245 1.10112,-1.88785 2.21279,-3.58445 3.01241,-5.41689 0.41647,-0.95466 0.38463,-2.105 0.46393,-3.206 0.0204,-0.29573 -0.19135,-0.54197 -0.48724,-0.55707 -1.11258,-0.0524 -2.22585,-0.14189 -3.3298,-0.0638 -0.62026,0.0431 -1.22596,0.33863 -2.03856,0.65098 -0.27644,0.10635 -0.42872,-0.0452 -0.31946,-0.31973 1.36243,-3.45457 4.35778,-6.13497 3.55515,-10.2667 -0.0572,-0.29153 -0.34675,-0.44408 -0.62702,-0.34798 -1.1591,0.4008 -2.20492,0.76314 -3.36244,1.16451 -0.28084,0.0978 -0.42843,-0.0509 -0.32999,-0.33112 0.86309,-2.45571 1.66122,-4.72808 2.45481,-6.98919 0.0985,-0.28024 0.009,-0.65415 -0.19896,-0.83543 -0.20838,-0.18092 -0.59329,-0.22664 -0.86245,-0.10115 -2.23798,1.0436 -4.47754,2.0866 -6.71556,3.13152 -0.26917,0.12553 -0.53536,0.12294 -0.59436,-0.004 -0.0591,-0.12658 0.02,-0.43391 0.17857,-0.68511 1.74833,-2.77681 3.49612,-5.55335 5.24587,-8.3292 0.15852,-0.25082 0.13536,-0.64078 -0.0511,-0.87204 -0.0653,-0.0799 -0.12984,-0.16169 -0.19546,-0.24208 -0.18649,-0.23126 -0.56066,-0.33094 -0.84035,-0.23152 -1.46894,0.52796 -3.00084,0.94399 -4.32122,1.72192 -3.82314,2.25536 -7.5398,4.6879 -11.2942,7.05776 -0.2502,0.15778 -0.59062,0.13535 -0.75645,-0.0524 -0.16599,-0.18729 -0.14488,-0.51927 0.046,-0.74577 0.80829,-0.95363 1.5916,-1.93281 2.46507,-2.82087 2.99908,-3.04052 6.09255,-5.99059 9.03745,-9.08154 0.56733,-0.59616 0.80706,-1.50431 0.94925,-2.51876 0.0415,-0.29383 -0.16745,-0.47318 -0.453,-0.39191 -7.71931,2.20528 -12.79628,8.6688 -20.11104,11.81862 -0.27145,0.11699 -0.35626,0.0111 -0.1905,-0.23496 0.90694,-1.3335 1.73531,-2.74102 2.81372,-3.9182 3.74077,-4.08025 7.64938,-8.00639 11.37576,-12.09723 0.73563,-0.8078 1.10874,-1.94297 1.38997,-3.13026 0.0683,-0.2877 -0.12062,-0.50155 -0.41509,-0.46183 -4.34952,0.60717 -7.43397,3.31345 -10.71665,5.52601 -3.21728,2.16735 -6.21347,4.66048 -9.29443,7.03192 -0.23483,0.18165 -0.5386,0.22733 -0.67724,0.10424 -0.13848,-0.12343 -0.10645,-0.41672 0.0693,-0.65409 4.99615,-6.74535 9.99231,-13.49069 14.98845,-20.23604 0.17764,-0.23852 0.14487,-0.59723 -0.0678,-0.80194 -0.0674,-0.0645 -0.13625,-0.12971 -0.20352,-0.19427 -0.2142,-0.20528 -0.61564,-0.29486 -0.89448,-0.19292 -9.21189,3.36214 -14.28483,12.24486 -22.5034,17.37395 -0.25177,0.15722 -0.36589,0.0574 -0.26115,-0.2206 0.53977,-1.43286 0.95573,-2.94509 1.77639,-4.19202 3.43859,-5.22529 7.11327,-10.29564 10.53606,-15.52889 0.85539,-1.30686 1.26143,-2.90683 1.80856,-4.41493 0.10163,-0.27909 0.005,-0.65428 -0.22607,-0.84173 -0.007,-0.006 -0.015,-0.0124 -0.0236,-0.0194 -0.2298,-0.18691 -0.62556,-0.22235 -0.88949,-0.0855 -1.20206,0.6229 -2.47003,1.16259 -3.51299,1.98673 -6.95813,5.49925 -11.95742,12.7229 -17.13736,19.77752 -0.95503,1.30177 -1.79994,2.68503 -2.92691,4.40899 -0.16279,0.24792 -0.31632,0.20984 -0.33564,-0.0857 -0.29674,-4.62874 0.75525,-8.41801 2.70395,-12.00955 2.25753,-4.16605 4.53107,-8.32227 6.80828,-12.47759 0.46363,-0.84447 0.95336,-1.67631 1.43824,-2.50949 0.1494,-0.25635 0.072,-0.60241 -0.17118,-0.77234 -0.0477,-0.0339 -0.0943,-0.065 -0.14204,-0.0989 -0.24335,-0.17048 -0.6456,-0.18199 -0.90578,-0.0407 -1.0446,0.56446 -2.20429,1.03048 -2.93256,1.86946 -3.26059,3.76268 -6.47135,7.58533 -9.44309,11.5769 -2.33973,3.14429 -4.34322,6.53781 -6.47383,9.83655 -0.16109,0.2481 -0.46058,0.42267 -0.66964,0.38798 -0.20921,-0.0343 -0.33487,-0.29817 -0.28095,-0.59062 1.13251,-6.14118 2.26683,-12.28128 3.39976,-18.42231 0.0533,-0.29126 -0.12242,-0.6277 -0.39189,-0.7494 -0.0471,-0.0207 -0.094,-0.0413 -0.14026,-0.0635 -0.26995,-0.12182 -0.6427,-0.0358 -0.83658,0.18743 -1.00298,1.15344 -2.11929,2.24025 -2.86832,3.53863 -3.97288,6.88897 -6.44326,14.36486 -7.80243,22.15617 -2.2587,12.96581 -2.08568,25.97886 -0.27979,38.98702 z"
         id="path3044" />
    </g>
  </g>
  <g
     inkscape:groupmode="layer"
     id="layer1"
     inkscape:label="Cover"
     style="display:inline"
     sodipodi:insensitive="true">
    <path
       d="m 2,2 v 257 c 0,286 298,398 298,398 0,0 298,-112 298,-398 V 2 z"
       id="shine"
       inkscape:connector-curvature="0"
       style="fill:url(#radialGradient3074);stroke:#000000;stroke-width:3" />
  </g>
</svg>
