<?xml version="1.0" encoding="UTF-8" standalone="no"?>
<svg
   xmlns:dc="http://purl.org/dc/elements/1.1/"
   xmlns:cc="http://creativecommons.org/ns#"
   xmlns:rdf="http://www.w3.org/1999/02/22-rdf-syntax-ns#"
   xmlns:svg="http://www.w3.org/2000/svg"
   xmlns="http://www.w3.org/2000/svg"
   xmlns:xlink="http://www.w3.org/1999/xlink"
   xmlns:sodipodi="http://sodipodi.sourceforge.net/DTD/sodipodi-0.dtd"
   xmlns:inkscape="http://www.inkscape.org/namespaces/inkscape"
   width="600"
   height="660"
   id="svg2"
   version="1.1"
   inkscape:version="0.48.2 r9819"
   sodipodi:docname="House_Rollingford.svg">
  <metadata
     id="metadata19">
    <rdf:RDF>
      <cc:Work
         rdf:about="">
        <dc:format>image/svg+xml</dc:format>
        <dc:type
           rdf:resource="http://purl.org/dc/dcmitype/StillImage" />
        <dc:title></dc:title>
      </cc:Work>
    </rdf:RDF>
  </metadata>
  <defs
     id="defs17">
    <radialGradient
       inkscape:collect="always"
       xlink:href="#rg"
       id="radialGradient4153"
       gradientUnits="userSpaceOnUse"
       cx="220"
       cy="220"
       r="405" />
    <clipPath
       clipPathUnits="userSpaceOnUse"
       id="clipPath5195">
      <path
         style="fill:#ffff00;stroke:none;stroke-width:3"
         id="path5197"
         d="m 2,2 0,257 c 0,286 298,398 298,398 0,0 298,-112 298,-398 L 598,2 Z"
         inkscape:connector-curvature="0" />
    </clipPath>
    <clipPath
       clipPathUnits="userSpaceOnUse"
       id="clipPath5277">
      <path
         style="fill:#1a1a1a;stroke:none;stroke-width:3"
         id="path5279"
         d="m 599.72861,332.73456 0,257 c 0,286 -298,398 -298,398 0,0 -298,-112 -298,-398 l 0,-257 z"
         inkscape:connector-curvature="0" />
    </clipPath>
    <clipPath
       clipPathUnits="userSpaceOnUse"
       id="clipPath5289">
      <path
         style="fill:#dc143c;fill-opacity:1;stroke:none;stroke-width:3"
         id="path5291"
         d="m 2,2 0,257 c 0,286 298,398 298,398 0,0 298,-112 298,-398 L 598,2 Z"
         inkscape:connector-curvature="0" />
    </clipPath>
    <clipPath
       clipPathUnits="userSpaceOnUse"
       id="clipPath5469">
      <path
         style="fill:#964b00;fill-opacity:1;stroke:none;stroke-width:3"
         id="path5471"
         d="m 2,2 0,257 c 0,286 298,398 298,398 0,0 298,-112 298,-398 L 598,2 Z"
         inkscape:connector-curvature="0" />
    </clipPath>
    <pattern
       patternUnits="userSpaceOnUse"
       width="119.33141"
       height="238.66283"
       patternTransform="translate(1.8988578,1.8104371)"
       id="pattern7206">
      <rect
         transform="matrix(0.70710678,0.70710678,-0.70710678,0.70710678,0,0)"
         id="rect7202"
         height="84.380051"
         width="84.380051"
         y="-42.190025"
         x="42.190025"
         style="fill:#ff0000;stroke:none" />
      <rect
         transform="matrix(0.70710678,0.70710678,-0.70710678,0.70710678,0,0)"
         id="rect7204"
         height="84.380051"
         width="84.380051"
         y="42.190029"
         x="126.57008"
         style="fill:#ff0000;stroke:none" />
    </pattern>
  </defs>
  <sodipodi:namedview
     pagecolor="#ffffff"
     bordercolor="#666666"
     borderopacity="1"
     objecttolerance="10"
     gridtolerance="10"
     guidetolerance="10"
     inkscape:pageopacity="0"
     inkscape:pageshadow="2"
     inkscape:window-width="1366"
     inkscape:window-height="715"
     id="namedview15"
     showgrid="false"
     inkscape:zoom="0.64"
     inkscape:cx="196.44658"
     inkscape:cy="427.81235"
     inkscape:window-x="-8"
     inkscape:window-y="-8"
     inkscape:window-maximized="1"
     inkscape:current-layer="svg2" />
  <radialGradient
     id="rg"
     gradientUnits="userSpaceOnUse"
     cx="220"
     cy="220"
     r="405">
    <stop
       style="stop-color:#fff;stop-opacity:.3"
       offset="0"
       id="stop5" />
    <stop
       style="stop-color:#fff;stop-opacity:.2"
       offset=".2"
       id="stop7" />
    <stop
       style="stop-color:#666;stop-opacity:.1"
       offset=".6"
       id="stop9" />
    <stop
       style="stop-color:#000;stop-opacity:.13"
       offset="1"
       id="stop11" />
  </radialGradient>
  <path
     inkscape:connector-curvature="0"
     style="fill:#00ccff;fill-opacity:1;stroke:none;stroke-width:3"
     id="path7212"
     d="m 2,2 0,257 c 0,286 298,398 298,398 0,0 298,-112 298,-398 L 598,2 Z" />
  <path
     inkscape:connector-curvature="0"
     style="fill:none;fill-opacity:1;stroke:none;stroke-width:3"
     id="path7200"
     d="m 2,2 0,257 c 0,286 298,398 298,398 0,0 298,-112 298,-398 L 598,2 Z" />
  <g
     transform="matrix(0.71048679,0,0,0.71048679,2.106042,48.904342)"
     id="g947">
    <path
       inkscape:connector-curvature="0"
       d="m 42.364189,24.660577 c 0.78726,0 43.114028,-29.1055927 43.114028,-29.1055927 L 97.680734,2.1046855 92.158333,8.7679195 42.364189,24.660577 z"
       id="path3808"
       style="fill:#ffdd00;stroke:#000000;stroke-width:4.22245740999999960;stroke-linecap:round;stroke-linejoin:round" />
    <path
       inkscape:connector-curvature="0"
       d="M 42.364189,24.660577 97.680734,2.1046855"
       id="path3810"
       style="fill:#ffdd00;stroke:#000000;stroke-width:4.22245740999999960;stroke-linecap:round;stroke-linejoin:round" />
    <path
       inkscape:connector-curvature="0"
       d="m 141.42419,146.48212 c -1.66564,7.54217 4.10142,36.44822 2.013,39.30995 1.91225,7.34061 -7.20568,9.68004 -12.26842,4.83081 l -30.55286,-9.80641 c -2.26723,0.72477 -4.452036,1.24348 -6.394212,1.15562 0.772459,-0.93272 2.037886,-1.86545 1.276693,-2.79817 -2.329563,-0.39284 -4.302638,0.2611 -5.845102,2.17945 -0.907219,7.75081 -1.865918,12.95847 -4.012025,10.03842 0,0 0.230583,-7.88918 -0.04776,-9.25134 -4.99389,-10.12546 -13.175706,-10.98664 -24.440208,-9.681 -8.598182,-3.05098 18.794506,-4.69409 23.418584,-4.93589 2.906883,-0.0949 6.177342,0.7546 10.88201,2.76309 13.05038,5.57137 32.55505,15.93546 39.98883,15.19747 1.05701,-0.10494 1.02301,-1.90599 1.58438,-2.46893 -0.042,-13.16941 -0.80537,-25.43225 -4.44346,-37.77263 l 8.84055,1.23956 z"
       id="path3812"
       style="fill:#ffdd00;stroke:#000000;stroke-width:4.22245740999999960;stroke-linecap:round;stroke-linejoin:round" />
    <path
       inkscape:connector-curvature="0"
       d="m 127.92479,134.90378 c 0.67485,4.54052 0.98222,13.39809 6.76494,16.97543 l 1.11617,-3.6811 c 1.46248,2.43223 3.26319,4.30073 5.41919,5.5771 2.57441,-0.72979 4.13547,-7.65549 4.79168,-13.01415 l -18.09198,-5.85728 z"
       id="path3814"
       style="fill:#ffdd00;stroke:#000000;stroke-width:4.22245740999999960;stroke-linecap:round;stroke-linejoin:round" />
    <path
       inkscape:connector-curvature="0"
       d="m 133.75683,249.97899 c 1.03608,-0.40779 2.43189,-2.24945 4.81485,-2.07492 4.65089,0.34064 7.30592,5.91612 12.68114,4.82321 l -8.66569,2.26887 c -1.43175,-2.9458 -3.80079,-2.92052 -5.2075,-4.39338 -0.7968,-0.83428 -2.22627,0.19218 -3.6228,-0.62378 z"
       id="path3816"
       style="fill:#ffdd00;stroke:#000000;stroke-width:4.22245740999999960;stroke-linecap:round;stroke-linejoin:round" />
    <path
       inkscape:connector-curvature="0"
       d="m 147.96513,146.20969 c 1.86997,14.67997 7.50421,29.69164 6.51442,40.78983 -0.73347,8.22417 -0.42554,7.74075 0.49156,10.79362 0.0704,0.23444 2.06129,0.92101 1.98652,1.288 -0.90888,-0.79889 -2.13752,-1.68317 -1.98652,-1.288 0.68919,10.30575 0.2244,39.55852 -2.69174,48.94383 -2.77697,1.70349 -0.7034,3.9607 -6.40177,7.08322 -15.15938,3.07038 -17.6576,-0.22059 -20.47844,1.98749 -3.14043,2.41967 -1.96472,3.27796 -1.0861,4.57572 1.75737,-2.59382 1.33771,-0.0992 2.65425,-0.22274 9.11874,-0.85556 15.49056,1.61523 20.36577,-0.34697 -2.14605,3.12377 -8.56964,7.19216 -10.22314,9.80754 -0.9042,2.00164 -0.1267,2.5179 2.31102,4.37253 -0.31135,-1.04522 0.0441,-3.59634 1.79236,-3.3238 2.07678,1.06603 1.98007,0.19775 3.42363,-1.41474 2.94747,-3.14748 6.82373,-3.87073 10.14747,-6.03614 3.26877,-4.8281 1.57234,-6.55564 2.76975,-9.67132 0.89141,-3.9381 1.84283,3.07419 3.79641,3.6412 0,0 1.20392,-4.21425 0.15289,-7.33245 -0.72111,-2.13939 -3.19172,-3.39071 -2.74926,-4.1593 1.12513,-1.95443 4.73164,-46.39852 3.54534,-46.63578 3.14495,-5.15584 0.0709,-11.83343 -0.83502,-17.98049 l -2.50504,-20.15994 -0.35728,-6.41111 -2.81839,-8.48594 -7.81869,0.18574 z"
       id="path3818"
       style="fill:#ffdd00;stroke:#000000;stroke-width:4.22245740999999960;stroke-linecap:round;stroke-linejoin:round" />
    <path
       inkscape:connector-curvature="0"
       d="m 85.478217,-4.4450157 c 8.68938,-14.1894503 33.661163,-10.3720383 33.539743,8.7178129 -0.18182,28.5876538 -9.18429,36.3532868 -11.82937,55.8484888 -1.04629,7.711574 8.79698,11.034551 15.86528,10.624835 28.85381,1.564302 58.80297,10.96831 81.8393,31.901759 4.48291,4.07369 8.28016,9.58585 12.85346,14.9225 2.75187,3.21121 8.94377,5.85179 11.55288,9.21818 5.45069,7.0327 7.95215,13.79857 10.52747,20.39702 1.66445,4.26463 1.06617,7.77963 0.89218,13.57038 -0.0767,2.55198 1.55861,5.59591 1.5732,9.01453 0.007,1.67557 -0.37716,3.31925 -1.00857,4.83389 -3.64586,0.59749 -7.04997,0.0574 -9.58414,-5.87372 -1.78516,4.08196 -5.35664,-1.80109 -8.58305,-3.89236 -2.42825,3.26101 -8.80911,-3.48861 -11.92444,-5.27137 -1.41537,0.8928 -2.16505,3.70952 -10.25341,-5.11834 -1.57405,3.8016 -4.47865,-0.76621 -7.76362,-5.40477 -0.78747,5.09493 -8.99155,-0.77308 -11.32427,-1.56627 -5.83803,1.8501 -7.78197,-0.26742 -9.96548,0.53337 -3.55578,1.30405 -9.48985,-0.13281 -12.56049,-2.32125 -0.85586,-0.60997 -0.55946,-1.62714 -0.83262,-2.8174 -0.69845,0.98733 3.86296,9.79209 0.10994,11.63762 l -3.57069,-1.52411 c -4.01963,-0.97577 -4.20936,-3.69239 -5.95917,-5.6999 l 0.49181,8.52662 c -3.16182,-0.34834 -6.04473,-8.55731 -7.13288,-13.34888 -0.32113,-1.41406 -0.4052,-2.46086 -0.44365,-3.007 0.16714,1.56742 0.10821,1.29017 0.44365,3.007 -5.6957,-1.90945 -12.26896,-4.13621 -15.78429,-5.90355 -11.23473,-5.64829 -13.04711,-10.18264 -16.36246,-13.45781 -4.85857,-4.7997 -12.789853,-10.61843 -19.575857,-20.44183 C 85.22493,94.722174 82.302348,84.724996 82.468287,76.679155 82.764137,62.334382 92.592533,49.798012 98.662644,36.379689 104.55343,23.357785 106.95697,11.720659 101.34349,9.9938619 98.778707,7.9510873 98.131102,11.411732 92.158333,8.7679195 95.097143,4.8471508 95.183931,3.7178838 95.220052,2.6382073 91.999163,1.3028292 87.163114,1.3298851 85.478217,-4.4450157 z"
       id="path3820"
       style="fill:#ffdd00;stroke:#000000;stroke-width:4.22245740999999960;stroke-linecap:round;stroke-linejoin:round" />
    <path
       inkscape:connector-curvature="0"
       d="m 102.1718,-4.2567313 a 2.0282117,1.9167178 0 1 1 -4.05642,0 2.0282117,1.9167178 0 1 1 4.05642,0 z"
       id="path3822"
       style="fill:#ffdd00;stroke:#000000;stroke-width:4.22245740999999960;stroke-linecap:round;stroke-linejoin:round" />
    <path
       inkscape:connector-curvature="0"
       d="m 113.86871,78.101775 c -7.00479,3.024636 -9.10993,5.06992 -9.15327,13.621583 -0.0438,8.648242 5.68988,13.612912 10.8287,22.759592 3.73344,6.64522 9.16049,11.97288 16.08466,16.0979 6.9442,4.39632 14.39299,4.41027 25.55869,5.79932"
       id="path3824"
       style="fill:#ffdd00;stroke:#000000;stroke-width:4.22245740999999960;stroke-linecap:round;stroke-linejoin:round" />
    <path
       inkscape:connector-curvature="0"
       d="m 149.35015,129.66569 c 2.49316,2.71972 5.21432,4.47931 7.83734,6.71448 2.71114,2.26986 7.14895,5.14471 11.99562,7.38451 5.32983,2.46308 5.56002,0.10995 5.01822,-2.54868"
       id="path3826"
       style="fill:#ffdd00;stroke:#000000;stroke-width:4.22245740999999960;stroke-linecap:round;stroke-linejoin:round" />
    <path
       inkscape:connector-curvature="0"
       d="m 161.59355,126.69375 c 6.52526,6.95361 11.97457,15.72348 20.25731,20.7838"
       id="path3828"
       style="fill:#ffdd00;stroke:#000000;stroke-width:4.22245740999999960;stroke-linecap:round;stroke-linejoin:round" />
    <path
       inkscape:connector-curvature="0"
       d="m 184.51475,126.45839 c 1.87517,7.27497 7.8281,12.81187 8.66038,22.58543"
       id="path3830"
       style="fill:#ffdd00;stroke:#000000;stroke-width:4.22245740999999960;stroke-linecap:round;stroke-linejoin:round" />
    <path
       inkscape:connector-curvature="0"
       d="m 197.33871,137.72033 c 3.18108,7.02525 4.76861,13.85209 3.60004,16.72826"
       id="path3832"
       style="fill:#ffdd00;stroke:#000000;stroke-width:4.22245740999999960;stroke-linecap:round;stroke-linejoin:round" />
    <path
       inkscape:connector-curvature="0"
       d="m 205.71327,135.13886 c 4.47059,4.76634 7.49864,15.58454 5.47889,24.42807"
       id="path3834"
       style="fill:#ffdd00;stroke:#000000;stroke-width:4.22245740999999960;stroke-linecap:round;stroke-linejoin:round" />
    <path
       inkscape:connector-curvature="0"
       d="m 212.14961,133.66512 c 4.93759,8.20425 5.4511,15.06338 7.15911,22.5631 0.85793,3.59406 1.59984,7.11749 3.80788,8.61008"
       id="path3836"
       style="fill:#ffdd00;stroke:#000000;stroke-width:4.22245740999999960;stroke-linecap:round;stroke-linejoin:round" />
    <path
       inkscape:connector-curvature="0"
       d="m 220.30144,139.83182 c 1.98483,4.18214 7.43353,13.59169 8.10566,18.33325 0.30736,3.7194 1.14367,7.30657 3.29255,10.56559"
       id="path3838"
       style="fill:#ffdd00;stroke:#000000;stroke-width:4.22245740999999960;stroke-linecap:round;stroke-linejoin:round" />
    <path
       inkscape:connector-curvature="0"
       d="m 217.99472,125.90108 c 3.1642,7.06244 6.62968,8.49852 10.43572,12.73606 3.3594,3.74026 7.77033,8.31759 9.62057,13.73943 5.14094,15.0647 4.78177,17.62183 3.23278,22.22781"
       id="path3840"
       style="fill:#ffdd00;stroke:#000000;stroke-width:4.22245740999999960;stroke-linecap:round;stroke-linejoin:round" />
    <path
       inkscape:connector-curvature="0"
       d="m 66.565675,169.12045 c -3.200402,1.40109 -2.864131,2.3177 -0.10282,2.90211"
       id="path3844"
       style="fill:#ffdd00;stroke:#000000;stroke-width:4.22245740999999960;stroke-linecap:round;stroke-linejoin:round" />
    <path
       inkscape:connector-curvature="0"
       d="m 85.712439,185.60456 c 0,2.95867 -0.704865,6.57774 -2.400214,9.0247 -0.5252,0.75804 -1.488681,1.32873 -1.661487,2.23902 -0.739367,3.89479 -3.014216,1.67532 -4.569409,2.73109 -2.026415,1.37566 -4.253353,2.40131 -6.492147,2.40131 -3.95926,0 -8.629736,-2.45349 -11.429355,-5.1937 -2.799619,-2.74021 -0.48959,-7.5024 -2.467908,-10.83462 -2.981507,-5.02198 -0.664328,-8.50528 3.203505,-10.83463 3.355889,-2.02105 6.3667,-3.3547 10.325959,-3.3547 3.95926,0 8.261937,0.61449 11.061557,3.3547 2.799619,2.74021 4.429499,6.59158 4.429499,10.46683 z"
       id="path3842"
       style="fill:#ffdd00;stroke:#000000;stroke-width:4.22245740999999960;stroke-linecap:round;stroke-linejoin:round" />
    <path
       inkscape:connector-curvature="0"
       d="m 74.67336,200.98894 c 2.407969,-1.38957 3.052888,-3.95466 4.297057,-6.80035"
       id="path3846"
       style="fill:#ffdd00;stroke:#000000;stroke-width:4.22245740999999960;stroke-linecap:round;stroke-linejoin:round" />
  </g>
  <g
     id="g3066"
     transform="matrix(0.71048679,0,0,0.71048679,100.49438,236.7859)">
    <path
       style="fill:#ffdd00;stroke:#000000;stroke-width:4.22245740999999960;stroke-linecap:round;stroke-linejoin:round"
       id="path3068"
       d="m 42.364189,24.660577 c 0.78726,0 43.114028,-29.1055927 43.114028,-29.1055927 L 97.680734,2.1046855 92.158333,8.7679195 42.364189,24.660577 z"
       inkscape:connector-curvature="0" />
    <path
       style="fill:#ffdd00;stroke:#000000;stroke-width:4.22245740999999960;stroke-linecap:round;stroke-linejoin:round"
       id="path3070"
       d="M 42.364189,24.660577 97.680734,2.1046855"
       inkscape:connector-curvature="0" />
    <path
       style="fill:#ffdd00;stroke:#000000;stroke-width:4.22245740999999960;stroke-linecap:round;stroke-linejoin:round"
       id="path3072"
       d="m 141.42419,146.48212 c -1.66564,7.54217 4.10142,36.44822 2.013,39.30995 1.91225,7.34061 -7.20568,9.68004 -12.26842,4.83081 l -30.55286,-9.80641 c -2.26723,0.72477 -4.452036,1.24348 -6.394212,1.15562 0.772459,-0.93272 2.037886,-1.86545 1.276693,-2.79817 -2.329563,-0.39284 -4.302638,0.2611 -5.845102,2.17945 -0.907219,7.75081 -1.865918,12.95847 -4.012025,10.03842 0,0 0.230583,-7.88918 -0.04776,-9.25134 -4.99389,-10.12546 -13.175706,-10.98664 -24.440208,-9.681 -8.598182,-3.05098 18.794506,-4.69409 23.418584,-4.93589 2.906883,-0.0949 6.177342,0.7546 10.88201,2.76309 13.05038,5.57137 32.55505,15.93546 39.98883,15.19747 1.05701,-0.10494 1.02301,-1.90599 1.58438,-2.46893 -0.042,-13.16941 -0.80537,-25.43225 -4.44346,-37.77263 l 8.84055,1.23956 z"
       inkscape:connector-curvature="0" />
    <path
       style="fill:#ffdd00;stroke:#000000;stroke-width:4.22245740999999960;stroke-linecap:round;stroke-linejoin:round"
       id="path3074"
       d="m 127.92479,134.90378 c 0.67485,4.54052 0.98222,13.39809 6.76494,16.97543 l 1.11617,-3.6811 c 1.46248,2.43223 3.26319,4.30073 5.41919,5.5771 2.57441,-0.72979 4.13547,-7.65549 4.79168,-13.01415 l -18.09198,-5.85728 z"
       inkscape:connector-curvature="0" />
    <path
       style="fill:#ffdd00;stroke:#000000;stroke-width:4.22245740999999960;stroke-linecap:round;stroke-linejoin:round"
       id="path3076"
       d="m 133.75683,249.97899 c 1.03608,-0.40779 2.43189,-2.24945 4.81485,-2.07492 4.65089,0.34064 7.30592,5.91612 12.68114,4.82321 l -8.66569,2.26887 c -1.43175,-2.9458 -3.80079,-2.92052 -5.2075,-4.39338 -0.7968,-0.83428 -2.22627,0.19218 -3.6228,-0.62378 z"
       inkscape:connector-curvature="0" />
    <path
       style="fill:#ffdd00;stroke:#000000;stroke-width:4.22245740999999960;stroke-linecap:round;stroke-linejoin:round"
       id="path3078"
       d="m 147.96513,146.20969 c 1.86997,14.67997 7.50421,29.69164 6.51442,40.78983 -0.73347,8.22417 -0.42554,7.74075 0.49156,10.79362 0.0704,0.23444 2.06129,0.92101 1.98652,1.288 -0.90888,-0.79889 -2.13752,-1.68317 -1.98652,-1.288 0.68919,10.30575 0.2244,39.55852 -2.69174,48.94383 -2.77697,1.70349 -0.7034,3.9607 -6.40177,7.08322 -15.15938,3.07038 -17.6576,-0.22059 -20.47844,1.98749 -3.14043,2.41967 -1.96472,3.27796 -1.0861,4.57572 1.75737,-2.59382 1.33771,-0.0992 2.65425,-0.22274 9.11874,-0.85556 15.49056,1.61523 20.36577,-0.34697 -2.14605,3.12377 -8.56964,7.19216 -10.22314,9.80754 -0.9042,2.00164 -0.1267,2.5179 2.31102,4.37253 -0.31135,-1.04522 0.0441,-3.59634 1.79236,-3.3238 2.07678,1.06603 1.98007,0.19775 3.42363,-1.41474 2.94747,-3.14748 6.82373,-3.87073 10.14747,-6.03614 3.26877,-4.8281 1.57234,-6.55564 2.76975,-9.67132 0.89141,-3.9381 1.84283,3.07419 3.79641,3.6412 0,0 1.20392,-4.21425 0.15289,-7.33245 -0.72111,-2.13939 -3.19172,-3.39071 -2.74926,-4.1593 1.12513,-1.95443 4.73164,-46.39852 3.54534,-46.63578 3.14495,-5.15584 0.0709,-11.83343 -0.83502,-17.98049 l -2.50504,-20.15994 -0.35728,-6.41111 -2.81839,-8.48594 -7.81869,0.18574 z"
       inkscape:connector-curvature="0" />
    <path
       style="fill:#ffdd00;stroke:#000000;stroke-width:4.22245740999999960;stroke-linecap:round;stroke-linejoin:round"
       id="path3080"
       d="m 85.478217,-4.4450157 c 8.68938,-14.1894503 33.661163,-10.3720383 33.539743,8.7178129 -0.18182,28.5876538 -9.18429,36.3532868 -11.82937,55.8484888 -1.04629,7.711574 8.79698,11.034551 15.86528,10.624835 28.85381,1.564302 58.80297,10.96831 81.8393,31.901759 4.48291,4.07369 8.28016,9.58585 12.85346,14.9225 2.75187,3.21121 8.94377,5.85179 11.55288,9.21818 5.45069,7.0327 7.95215,13.79857 10.52747,20.39702 1.66445,4.26463 1.06617,7.77963 0.89218,13.57038 -0.0767,2.55198 1.55861,5.59591 1.5732,9.01453 0.007,1.67557 -0.37716,3.31925 -1.00857,4.83389 -3.64586,0.59749 -7.04997,0.0574 -9.58414,-5.87372 -1.78516,4.08196 -5.35664,-1.80109 -8.58305,-3.89236 -2.42825,3.26101 -8.80911,-3.48861 -11.92444,-5.27137 -1.41537,0.8928 -2.16505,3.70952 -10.25341,-5.11834 -1.57405,3.8016 -4.47865,-0.76621 -7.76362,-5.40477 -0.78747,5.09493 -8.99155,-0.77308 -11.32427,-1.56627 -5.83803,1.8501 -7.78197,-0.26742 -9.96548,0.53337 -3.55578,1.30405 -9.48985,-0.13281 -12.56049,-2.32125 -0.85586,-0.60997 -0.55946,-1.62714 -0.83262,-2.8174 -0.69845,0.98733 3.86296,9.79209 0.10994,11.63762 l -3.57069,-1.52411 c -4.01963,-0.97577 -4.20936,-3.69239 -5.95917,-5.6999 l 0.49181,8.52662 c -3.16182,-0.34834 -6.04473,-8.55731 -7.13288,-13.34888 -0.32113,-1.41406 -0.4052,-2.46086 -0.44365,-3.007 0.16714,1.56742 0.10821,1.29017 0.44365,3.007 -5.6957,-1.90945 -12.26896,-4.13621 -15.78429,-5.90355 -11.23473,-5.64829 -13.04711,-10.18264 -16.36246,-13.45781 -4.85857,-4.7997 -12.789853,-10.61843 -19.575857,-20.44183 C 85.22493,94.722174 82.302348,84.724996 82.468287,76.679155 82.764137,62.334382 92.592533,49.798012 98.662644,36.379689 104.55343,23.357785 106.95697,11.720659 101.34349,9.9938619 98.778707,7.9510873 98.131102,11.411732 92.158333,8.7679195 95.097143,4.8471508 95.183931,3.7178838 95.220052,2.6382073 91.999163,1.3028292 87.163114,1.3298851 85.478217,-4.4450157 z"
       inkscape:connector-curvature="0" />
    <path
       style="fill:#ffdd00;stroke:#000000;stroke-width:4.22245740999999960;stroke-linecap:round;stroke-linejoin:round"
       id="path3082"
       d="m 102.1718,-4.2567313 a 2.0282117,1.9167178 0 1 1 -4.05642,0 2.0282117,1.9167178 0 1 1 4.05642,0 z"
       inkscape:connector-curvature="0" />
    <path
       style="fill:#ffdd00;stroke:#000000;stroke-width:4.22245740999999960;stroke-linecap:round;stroke-linejoin:round"
       id="path3084"
       d="m 113.86871,78.101775 c -7.00479,3.024636 -9.10993,5.06992 -9.15327,13.621583 -0.0438,8.648242 5.68988,13.612912 10.8287,22.759592 3.73344,6.64522 9.16049,11.97288 16.08466,16.0979 6.9442,4.39632 14.39299,4.41027 25.55869,5.79932"
       inkscape:connector-curvature="0" />
    <path
       style="fill:#ffdd00;stroke:#000000;stroke-width:4.22245740999999960;stroke-linecap:round;stroke-linejoin:round"
       id="path3086"
       d="m 149.35015,129.66569 c 2.49316,2.71972 5.21432,4.47931 7.83734,6.71448 2.71114,2.26986 7.14895,5.14471 11.99562,7.38451 5.32983,2.46308 5.56002,0.10995 5.01822,-2.54868"
       inkscape:connector-curvature="0" />
    <path
       style="fill:#ffdd00;stroke:#000000;stroke-width:4.22245740999999960;stroke-linecap:round;stroke-linejoin:round"
       id="path3088"
       d="m 161.59355,126.69375 c 6.52526,6.95361 11.97457,15.72348 20.25731,20.7838"
       inkscape:connector-curvature="0" />
    <path
       style="fill:#ffdd00;stroke:#000000;stroke-width:4.22245740999999960;stroke-linecap:round;stroke-linejoin:round"
       id="path3090"
       d="m 184.51475,126.45839 c 1.87517,7.27497 7.8281,12.81187 8.66038,22.58543"
       inkscape:connector-curvature="0" />
    <path
       style="fill:#ffdd00;stroke:#000000;stroke-width:4.22245740999999960;stroke-linecap:round;stroke-linejoin:round"
       id="path3092"
       d="m 197.33871,137.72033 c 3.18108,7.02525 4.76861,13.85209 3.60004,16.72826"
       inkscape:connector-curvature="0" />
    <path
       style="fill:#ffdd00;stroke:#000000;stroke-width:4.22245740999999960;stroke-linecap:round;stroke-linejoin:round"
       id="path3094"
       d="m 205.71327,135.13886 c 4.47059,4.76634 7.49864,15.58454 5.47889,24.42807"
       inkscape:connector-curvature="0" />
    <path
       style="fill:#ffdd00;stroke:#000000;stroke-width:4.22245740999999960;stroke-linecap:round;stroke-linejoin:round"
       id="path3096"
       d="m 212.14961,133.66512 c 4.93759,8.20425 5.4511,15.06338 7.15911,22.5631 0.85793,3.59406 1.59984,7.11749 3.80788,8.61008"
       inkscape:connector-curvature="0" />
    <path
       style="fill:#ffdd00;stroke:#000000;stroke-width:4.22245740999999960;stroke-linecap:round;stroke-linejoin:round"
       id="path3098"
       d="m 220.30144,139.83182 c 1.98483,4.18214 7.43353,13.59169 8.10566,18.33325 0.30736,3.7194 1.14367,7.30657 3.29255,10.56559"
       inkscape:connector-curvature="0" />
    <path
       style="fill:#ffdd00;stroke:#000000;stroke-width:4.22245740999999960;stroke-linecap:round;stroke-linejoin:round"
       id="path3100"
       d="m 217.99472,125.90108 c 3.1642,7.06244 6.62968,8.49852 10.43572,12.73606 3.3594,3.74026 7.77033,8.31759 9.62057,13.73943 5.14094,15.0647 4.78177,17.62183 3.23278,22.22781"
       inkscape:connector-curvature="0" />
    <path
       style="fill:#ffdd00;stroke:#000000;stroke-width:4.22245740999999960;stroke-linecap:round;stroke-linejoin:round"
       id="path3102"
       d="m 66.565675,169.12045 c -3.200402,1.40109 -2.864131,2.3177 -0.10282,2.90211"
       inkscape:connector-curvature="0" />
    <path
       style="fill:#ffdd00;stroke:#000000;stroke-width:4.22245740999999960;stroke-linecap:round;stroke-linejoin:round"
       id="path3104"
       d="m 85.712439,185.60456 c 0,2.95867 -0.704865,6.57774 -2.400214,9.0247 -0.5252,0.75804 -1.488681,1.32873 -1.661487,2.23902 -0.739367,3.89479 -3.014216,1.67532 -4.569409,2.73109 -2.026415,1.37566 -4.253353,2.40131 -6.492147,2.40131 -3.95926,0 -8.629736,-2.45349 -11.429355,-5.1937 -2.799619,-2.74021 -0.48959,-7.5024 -2.467908,-10.83462 -2.981507,-5.02198 -0.664328,-8.50528 3.203505,-10.83463 3.355889,-2.02105 6.3667,-3.3547 10.325959,-3.3547 3.95926,0 8.261937,0.61449 11.061557,3.3547 2.799619,2.74021 4.429499,6.59158 4.429499,10.46683 z"
       inkscape:connector-curvature="0" />
    <path
       style="fill:#ffdd00;stroke:#000000;stroke-width:4.22245740999999960;stroke-linecap:round;stroke-linejoin:round"
       id="path3106"
       d="m 74.67336,200.98894 c 2.407969,-1.38957 3.052888,-3.95466 4.297057,-6.80035"
       inkscape:connector-curvature="0" />
  </g>
  <g
     transform="matrix(0.71048679,0,0,0.71048679,198.88272,424.66747)"
     id="g3108">
    <path
       inkscape:connector-curvature="0"
       d="m 42.364189,24.660577 c 0.78726,0 43.114028,-29.1055927 43.114028,-29.1055927 L 97.680734,2.1046855 92.158333,8.7679195 42.364189,24.660577 z"
       id="path3110"
       style="fill:#ffdd00;stroke:#000000;stroke-width:4.22245740999999960;stroke-linecap:round;stroke-linejoin:round" />
    <path
       inkscape:connector-curvature="0"
       d="M 42.364189,24.660577 97.680734,2.1046855"
       id="path3112"
       style="fill:#ffdd00;stroke:#000000;stroke-width:4.22245740999999960;stroke-linecap:round;stroke-linejoin:round" />
    <path
       inkscape:connector-curvature="0"
       d="m 141.42419,146.48212 c -1.66564,7.54217 4.10142,36.44822 2.013,39.30995 1.91225,7.34061 -7.20568,9.68004 -12.26842,4.83081 l -30.55286,-9.80641 c -2.26723,0.72477 -4.452036,1.24348 -6.394212,1.15562 0.772459,-0.93272 2.037886,-1.86545 1.276693,-2.79817 -2.329563,-0.39284 -4.302638,0.2611 -5.845102,2.17945 -0.907219,7.75081 -1.865918,12.95847 -4.012025,10.03842 0,0 0.230583,-7.88918 -0.04776,-9.25134 -4.99389,-10.12546 -13.175706,-10.98664 -24.440208,-9.681 -8.598182,-3.05098 18.794506,-4.69409 23.418584,-4.93589 2.906883,-0.0949 6.177342,0.7546 10.88201,2.76309 13.05038,5.57137 32.55505,15.93546 39.98883,15.19747 1.05701,-0.10494 1.02301,-1.90599 1.58438,-2.46893 -0.042,-13.16941 -0.80537,-25.43225 -4.44346,-37.77263 l 8.84055,1.23956 z"
       id="path3114"
       style="fill:#ffdd00;stroke:#000000;stroke-width:4.22245740999999960;stroke-linecap:round;stroke-linejoin:round" />
    <path
       inkscape:connector-curvature="0"
       d="m 127.92479,134.90378 c 0.67485,4.54052 0.98222,13.39809 6.76494,16.97543 l 1.11617,-3.6811 c 1.46248,2.43223 3.26319,4.30073 5.41919,5.5771 2.57441,-0.72979 4.13547,-7.65549 4.79168,-13.01415 l -18.09198,-5.85728 z"
       id="path3116"
       style="fill:#ffdd00;stroke:#000000;stroke-width:4.22245740999999960;stroke-linecap:round;stroke-linejoin:round" />
    <path
       inkscape:connector-curvature="0"
       d="m 133.75683,249.97899 c 1.03608,-0.40779 2.43189,-2.24945 4.81485,-2.07492 4.65089,0.34064 7.30592,5.91612 12.68114,4.82321 l -8.66569,2.26887 c -1.43175,-2.9458 -3.80079,-2.92052 -5.2075,-4.39338 -0.7968,-0.83428 -2.22627,0.19218 -3.6228,-0.62378 z"
       id="path3118"
       style="fill:#ffdd00;stroke:#000000;stroke-width:4.22245740999999960;stroke-linecap:round;stroke-linejoin:round" />
    <path
       inkscape:connector-curvature="0"
       d="m 147.96513,146.20969 c 1.86997,14.67997 7.50421,29.69164 6.51442,40.78983 -0.73347,8.22417 -0.42554,7.74075 0.49156,10.79362 0.0704,0.23444 2.06129,0.92101 1.98652,1.288 -0.90888,-0.79889 -2.13752,-1.68317 -1.98652,-1.288 0.68919,10.30575 0.2244,39.55852 -2.69174,48.94383 -2.77697,1.70349 -0.7034,3.9607 -6.40177,7.08322 -15.15938,3.07038 -17.6576,-0.22059 -20.47844,1.98749 -3.14043,2.41967 -1.96472,3.27796 -1.0861,4.57572 1.75737,-2.59382 1.33771,-0.0992 2.65425,-0.22274 9.11874,-0.85556 15.49056,1.61523 20.36577,-0.34697 -2.14605,3.12377 -8.56964,7.19216 -10.22314,9.80754 -0.9042,2.00164 -0.1267,2.5179 2.31102,4.37253 -0.31135,-1.04522 0.0441,-3.59634 1.79236,-3.3238 2.07678,1.06603 1.98007,0.19775 3.42363,-1.41474 2.94747,-3.14748 6.82373,-3.87073 10.14747,-6.03614 3.26877,-4.8281 1.57234,-6.55564 2.76975,-9.67132 0.89141,-3.9381 1.84283,3.07419 3.79641,3.6412 0,0 1.20392,-4.21425 0.15289,-7.33245 -0.72111,-2.13939 -3.19172,-3.39071 -2.74926,-4.1593 1.12513,-1.95443 4.73164,-46.39852 3.54534,-46.63578 3.14495,-5.15584 0.0709,-11.83343 -0.83502,-17.98049 l -2.50504,-20.15994 -0.35728,-6.41111 -2.81839,-8.48594 -7.81869,0.18574 z"
       id="path3120"
       style="fill:#ffdd00;stroke:#000000;stroke-width:4.22245740999999960;stroke-linecap:round;stroke-linejoin:round" />
    <path
       inkscape:connector-curvature="0"
       d="m 85.478217,-4.4450157 c 8.68938,-14.1894503 33.661163,-10.3720383 33.539743,8.7178129 -0.18182,28.5876538 -9.18429,36.3532868 -11.82937,55.8484888 -1.04629,7.711574 8.79698,11.034551 15.86528,10.624835 28.85381,1.564302 58.80297,10.96831 81.8393,31.901759 4.48291,4.07369 8.28016,9.58585 12.85346,14.9225 2.75187,3.21121 8.94377,5.85179 11.55288,9.21818 5.45069,7.0327 7.95215,13.79857 10.52747,20.39702 1.66445,4.26463 1.06617,7.77963 0.89218,13.57038 -0.0767,2.55198 1.55861,5.59591 1.5732,9.01453 0.007,1.67557 -0.37716,3.31925 -1.00857,4.83389 -3.64586,0.59749 -7.04997,0.0574 -9.58414,-5.87372 -1.78516,4.08196 -5.35664,-1.80109 -8.58305,-3.89236 -2.42825,3.26101 -8.80911,-3.48861 -11.92444,-5.27137 -1.41537,0.8928 -2.16505,3.70952 -10.25341,-5.11834 -1.57405,3.8016 -4.47865,-0.76621 -7.76362,-5.40477 -0.78747,5.09493 -8.99155,-0.77308 -11.32427,-1.56627 -5.83803,1.8501 -7.78197,-0.26742 -9.96548,0.53337 -3.55578,1.30405 -9.48985,-0.13281 -12.56049,-2.32125 -0.85586,-0.60997 -0.55946,-1.62714 -0.83262,-2.8174 -0.69845,0.98733 3.86296,9.79209 0.10994,11.63762 l -3.57069,-1.52411 c -4.01963,-0.97577 -4.20936,-3.69239 -5.95917,-5.6999 l 0.49181,8.52662 c -3.16182,-0.34834 -6.04473,-8.55731 -7.13288,-13.34888 -0.32113,-1.41406 -0.4052,-2.46086 -0.44365,-3.007 0.16714,1.56742 0.10821,1.29017 0.44365,3.007 -5.6957,-1.90945 -12.26896,-4.13621 -15.78429,-5.90355 -11.23473,-5.64829 -13.04711,-10.18264 -16.36246,-13.45781 -4.85857,-4.7997 -12.789853,-10.61843 -19.575857,-20.44183 C 85.22493,94.722174 82.302348,84.724996 82.468287,76.679155 82.764137,62.334382 92.592533,49.798012 98.662644,36.379689 104.55343,23.357785 106.95697,11.720659 101.34349,9.9938619 98.778707,7.9510873 98.131102,11.411732 92.158333,8.7679195 95.097143,4.8471508 95.183931,3.7178838 95.220052,2.6382073 91.999163,1.3028292 87.163114,1.3298851 85.478217,-4.4450157 z"
       id="path3122"
       style="fill:#ffdd00;stroke:#000000;stroke-width:4.22245740999999960;stroke-linecap:round;stroke-linejoin:round" />
    <path
       inkscape:connector-curvature="0"
       d="m 102.1718,-4.2567313 a 2.0282117,1.9167178 0 1 1 -4.05642,0 2.0282117,1.9167178 0 1 1 4.05642,0 z"
       id="path3124"
       style="fill:#ffdd00;stroke:#000000;stroke-width:4.22245740999999960;stroke-linecap:round;stroke-linejoin:round" />
    <path
       inkscape:connector-curvature="0"
       d="m 113.86871,78.101775 c -7.00479,3.024636 -9.10993,5.06992 -9.15327,13.621583 -0.0438,8.648242 5.68988,13.612912 10.8287,22.759592 3.73344,6.64522 9.16049,11.97288 16.08466,16.0979 6.9442,4.39632 14.39299,4.41027 25.55869,5.79932"
       id="path3126"
       style="fill:#ffdd00;stroke:#000000;stroke-width:4.22245740999999960;stroke-linecap:round;stroke-linejoin:round" />
    <path
       inkscape:connector-curvature="0"
       d="m 149.35015,129.66569 c 2.49316,2.71972 5.21432,4.47931 7.83734,6.71448 2.71114,2.26986 7.14895,5.14471 11.99562,7.38451 5.32983,2.46308 5.56002,0.10995 5.01822,-2.54868"
       id="path3128"
       style="fill:#ffdd00;stroke:#000000;stroke-width:4.22245740999999960;stroke-linecap:round;stroke-linejoin:round" />
    <path
       inkscape:connector-curvature="0"
       d="m 161.59355,126.69375 c 6.52526,6.95361 11.97457,15.72348 20.25731,20.7838"
       id="path3130"
       style="fill:#ffdd00;stroke:#000000;stroke-width:4.22245740999999960;stroke-linecap:round;stroke-linejoin:round" />
    <path
       inkscape:connector-curvature="0"
       d="m 184.51475,126.45839 c 1.87517,7.27497 7.8281,12.81187 8.66038,22.58543"
       id="path3132"
       style="fill:#ffdd00;stroke:#000000;stroke-width:4.22245740999999960;stroke-linecap:round;stroke-linejoin:round" />
    <path
       inkscape:connector-curvature="0"
       d="m 197.33871,137.72033 c 3.18108,7.02525 4.76861,13.85209 3.60004,16.72826"
       id="path3134"
       style="fill:#ffdd00;stroke:#000000;stroke-width:4.22245740999999960;stroke-linecap:round;stroke-linejoin:round" />
    <path
       inkscape:connector-curvature="0"
       d="m 205.71327,135.13886 c 4.47059,4.76634 7.49864,15.58454 5.47889,24.42807"
       id="path3136"
       style="fill:#ffdd00;stroke:#000000;stroke-width:4.22245740999999960;stroke-linecap:round;stroke-linejoin:round" />
    <path
       inkscape:connector-curvature="0"
       d="m 212.14961,133.66512 c 4.93759,8.20425 5.4511,15.06338 7.15911,22.5631 0.85793,3.59406 1.59984,7.11749 3.80788,8.61008"
       id="path3138"
       style="fill:#ffdd00;stroke:#000000;stroke-width:4.22245740999999960;stroke-linecap:round;stroke-linejoin:round" />
    <path
       inkscape:connector-curvature="0"
       d="m 220.30144,139.83182 c 1.98483,4.18214 7.43353,13.59169 8.10566,18.33325 0.30736,3.7194 1.14367,7.30657 3.29255,10.56559"
       id="path3140"
       style="fill:#ffdd00;stroke:#000000;stroke-width:4.22245740999999960;stroke-linecap:round;stroke-linejoin:round" />
    <path
       inkscape:connector-curvature="0"
       d="m 217.99472,125.90108 c 3.1642,7.06244 6.62968,8.49852 10.43572,12.73606 3.3594,3.74026 7.77033,8.31759 9.62057,13.73943 5.14094,15.0647 4.78177,17.62183 3.23278,22.22781"
       id="path3142"
       style="fill:#ffdd00;stroke:#000000;stroke-width:4.22245740999999960;stroke-linecap:round;stroke-linejoin:round" />
    <path
       inkscape:connector-curvature="0"
       d="m 66.565675,169.12045 c -3.200402,1.40109 -2.864131,2.3177 -0.10282,2.90211"
       id="path3144"
       style="fill:#ffdd00;stroke:#000000;stroke-width:4.22245740999999960;stroke-linecap:round;stroke-linejoin:round" />
    <path
       inkscape:connector-curvature="0"
       d="m 85.712439,185.60456 c 0,2.95867 -0.704865,6.57774 -2.400214,9.0247 -0.5252,0.75804 -1.488681,1.32873 -1.661487,2.23902 -0.739367,3.89479 -3.014216,1.67532 -4.569409,2.73109 -2.026415,1.37566 -4.253353,2.40131 -6.492147,2.40131 -3.95926,0 -8.629736,-2.45349 -11.429355,-5.1937 -2.799619,-2.74021 -0.48959,-7.5024 -2.467908,-10.83462 -2.981507,-5.02198 -0.664328,-8.50528 3.203505,-10.83463 3.355889,-2.02105 6.3667,-3.3547 10.325959,-3.3547 3.95926,0 8.261937,0.61449 11.061557,3.3547 2.799619,2.74021 4.429499,6.59158 4.429499,10.46683 z"
       id="path3146"
       style="fill:#ffdd00;stroke:#000000;stroke-width:4.22245740999999960;stroke-linecap:round;stroke-linejoin:round" />
    <path
       inkscape:connector-curvature="0"
       d="m 74.67336,200.98894 c 2.407969,-1.38957 3.052888,-3.95466 4.297057,-6.80035"
       id="path3148"
       style="fill:#ffdd00;stroke:#000000;stroke-width:4.22245740999999960;stroke-linecap:round;stroke-linejoin:round" />
  </g>
  <g
     id="g3150"
     transform="matrix(0.71048679,0,0,0.71048679,297.27108,236.7859)">
    <path
       style="fill:#ffdd00;stroke:#000000;stroke-width:4.22245740999999960;stroke-linecap:round;stroke-linejoin:round"
       id="path3152"
       d="m 42.364189,24.660577 c 0.78726,0 43.114028,-29.1055927 43.114028,-29.1055927 L 97.680734,2.1046855 92.158333,8.7679195 42.364189,24.660577 z"
       inkscape:connector-curvature="0" />
    <path
       style="fill:#ffdd00;stroke:#000000;stroke-width:4.22245740999999960;stroke-linecap:round;stroke-linejoin:round"
       id="path3154"
       d="M 42.364189,24.660577 97.680734,2.1046855"
       inkscape:connector-curvature="0" />
    <path
       style="fill:#ffdd00;stroke:#000000;stroke-width:4.22245740999999960;stroke-linecap:round;stroke-linejoin:round"
       id="path3156"
       d="m 141.42419,146.48212 c -1.66564,7.54217 4.10142,36.44822 2.013,39.30995 1.91225,7.34061 -7.20568,9.68004 -12.26842,4.83081 l -30.55286,-9.80641 c -2.26723,0.72477 -4.452036,1.24348 -6.394212,1.15562 0.772459,-0.93272 2.037886,-1.86545 1.276693,-2.79817 -2.329563,-0.39284 -4.302638,0.2611 -5.845102,2.17945 -0.907219,7.75081 -1.865918,12.95847 -4.012025,10.03842 0,0 0.230583,-7.88918 -0.04776,-9.25134 -4.99389,-10.12546 -13.175706,-10.98664 -24.440208,-9.681 -8.598182,-3.05098 18.794506,-4.69409 23.418584,-4.93589 2.906883,-0.0949 6.177342,0.7546 10.88201,2.76309 13.05038,5.57137 32.55505,15.93546 39.98883,15.19747 1.05701,-0.10494 1.02301,-1.90599 1.58438,-2.46893 -0.042,-13.16941 -0.80537,-25.43225 -4.44346,-37.77263 l 8.84055,1.23956 z"
       inkscape:connector-curvature="0" />
    <path
       style="fill:#ffdd00;stroke:#000000;stroke-width:4.22245740999999960;stroke-linecap:round;stroke-linejoin:round"
       id="path3158"
       d="m 127.92479,134.90378 c 0.67485,4.54052 0.98222,13.39809 6.76494,16.97543 l 1.11617,-3.6811 c 1.46248,2.43223 3.26319,4.30073 5.41919,5.5771 2.57441,-0.72979 4.13547,-7.65549 4.79168,-13.01415 l -18.09198,-5.85728 z"
       inkscape:connector-curvature="0" />
    <path
       style="fill:#ffdd00;stroke:#000000;stroke-width:4.22245740999999960;stroke-linecap:round;stroke-linejoin:round"
       id="path3160"
       d="m 133.75683,249.97899 c 1.03608,-0.40779 2.43189,-2.24945 4.81485,-2.07492 4.65089,0.34064 7.30592,5.91612 12.68114,4.82321 l -8.66569,2.26887 c -1.43175,-2.9458 -3.80079,-2.92052 -5.2075,-4.39338 -0.7968,-0.83428 -2.22627,0.19218 -3.6228,-0.62378 z"
       inkscape:connector-curvature="0" />
    <path
       style="fill:#ffdd00;stroke:#000000;stroke-width:4.22245740999999960;stroke-linecap:round;stroke-linejoin:round"
       id="path3162"
       d="m 147.96513,146.20969 c 1.86997,14.67997 7.50421,29.69164 6.51442,40.78983 -0.73347,8.22417 -0.42554,7.74075 0.49156,10.79362 0.0704,0.23444 2.06129,0.92101 1.98652,1.288 -0.90888,-0.79889 -2.13752,-1.68317 -1.98652,-1.288 0.68919,10.30575 0.2244,39.55852 -2.69174,48.94383 -2.77697,1.70349 -0.7034,3.9607 -6.40177,7.08322 -15.15938,3.07038 -17.6576,-0.22059 -20.47844,1.98749 -3.14043,2.41967 -1.96472,3.27796 -1.0861,4.57572 1.75737,-2.59382 1.33771,-0.0992 2.65425,-0.22274 9.11874,-0.85556 15.49056,1.61523 20.36577,-0.34697 -2.14605,3.12377 -8.56964,7.19216 -10.22314,9.80754 -0.9042,2.00164 -0.1267,2.5179 2.31102,4.37253 -0.31135,-1.04522 0.0441,-3.59634 1.79236,-3.3238 2.07678,1.06603 1.98007,0.19775 3.42363,-1.41474 2.94747,-3.14748 6.82373,-3.87073 10.14747,-6.03614 3.26877,-4.8281 1.57234,-6.55564 2.76975,-9.67132 0.89141,-3.9381 1.84283,3.07419 3.79641,3.6412 0,0 1.20392,-4.21425 0.15289,-7.33245 -0.72111,-2.13939 -3.19172,-3.39071 -2.74926,-4.1593 1.12513,-1.95443 4.73164,-46.39852 3.54534,-46.63578 3.14495,-5.15584 0.0709,-11.83343 -0.83502,-17.98049 l -2.50504,-20.15994 -0.35728,-6.41111 -2.81839,-8.48594 -7.81869,0.18574 z"
       inkscape:connector-curvature="0" />
    <path
       style="fill:#ffdd00;stroke:#000000;stroke-width:4.22245740999999960;stroke-linecap:round;stroke-linejoin:round"
       id="path3164"
       d="m 85.478217,-4.4450157 c 8.68938,-14.1894503 33.661163,-10.3720383 33.539743,8.7178129 -0.18182,28.5876538 -9.18429,36.3532868 -11.82937,55.8484888 -1.04629,7.711574 8.79698,11.034551 15.86528,10.624835 28.85381,1.564302 58.80297,10.96831 81.8393,31.901759 4.48291,4.07369 8.28016,9.58585 12.85346,14.9225 2.75187,3.21121 8.94377,5.85179 11.55288,9.21818 5.45069,7.0327 7.95215,13.79857 10.52747,20.39702 1.66445,4.26463 1.06617,7.77963 0.89218,13.57038 -0.0767,2.55198 1.55861,5.59591 1.5732,9.01453 0.007,1.67557 -0.37716,3.31925 -1.00857,4.83389 -3.64586,0.59749 -7.04997,0.0574 -9.58414,-5.87372 -1.78516,4.08196 -5.35664,-1.80109 -8.58305,-3.89236 -2.42825,3.26101 -8.80911,-3.48861 -11.92444,-5.27137 -1.41537,0.8928 -2.16505,3.70952 -10.25341,-5.11834 -1.57405,3.8016 -4.47865,-0.76621 -7.76362,-5.40477 -0.78747,5.09493 -8.99155,-0.77308 -11.32427,-1.56627 -5.83803,1.8501 -7.78197,-0.26742 -9.96548,0.53337 -3.55578,1.30405 -9.48985,-0.13281 -12.56049,-2.32125 -0.85586,-0.60997 -0.55946,-1.62714 -0.83262,-2.8174 -0.69845,0.98733 3.86296,9.79209 0.10994,11.63762 l -3.57069,-1.52411 c -4.01963,-0.97577 -4.20936,-3.69239 -5.95917,-5.6999 l 0.49181,8.52662 c -3.16182,-0.34834 -6.04473,-8.55731 -7.13288,-13.34888 -0.32113,-1.41406 -0.4052,-2.46086 -0.44365,-3.007 0.16714,1.56742 0.10821,1.29017 0.44365,3.007 -5.6957,-1.90945 -12.26896,-4.13621 -15.78429,-5.90355 -11.23473,-5.64829 -13.04711,-10.18264 -16.36246,-13.45781 -4.85857,-4.7997 -12.789853,-10.61843 -19.575857,-20.44183 C 85.22493,94.722174 82.302348,84.724996 82.468287,76.679155 82.764137,62.334382 92.592533,49.798012 98.662644,36.379689 104.55343,23.357785 106.95697,11.720659 101.34349,9.9938619 98.778707,7.9510873 98.131102,11.411732 92.158333,8.7679195 95.097143,4.8471508 95.183931,3.7178838 95.220052,2.6382073 91.999163,1.3028292 87.163114,1.3298851 85.478217,-4.4450157 z"
       inkscape:connector-curvature="0" />
    <path
       style="fill:#ffdd00;stroke:#000000;stroke-width:4.22245740999999960;stroke-linecap:round;stroke-linejoin:round"
       id="path3166"
       d="m 102.1718,-4.2567313 a 2.0282117,1.9167178 0 1 1 -4.05642,0 2.0282117,1.9167178 0 1 1 4.05642,0 z"
       inkscape:connector-curvature="0" />
    <path
       style="fill:#ffdd00;stroke:#000000;stroke-width:4.22245740999999960;stroke-linecap:round;stroke-linejoin:round"
       id="path3168"
       d="m 113.86871,78.101775 c -7.00479,3.024636 -9.10993,5.06992 -9.15327,13.621583 -0.0438,8.648242 5.68988,13.612912 10.8287,22.759592 3.73344,6.64522 9.16049,11.97288 16.08466,16.0979 6.9442,4.39632 14.39299,4.41027 25.55869,5.79932"
       inkscape:connector-curvature="0" />
    <path
       style="fill:#ffdd00;stroke:#000000;stroke-width:4.22245740999999960;stroke-linecap:round;stroke-linejoin:round"
       id="path3170"
       d="m 149.35015,129.66569 c 2.49316,2.71972 5.21432,4.47931 7.83734,6.71448 2.71114,2.26986 7.14895,5.14471 11.99562,7.38451 5.32983,2.46308 5.56002,0.10995 5.01822,-2.54868"
       inkscape:connector-curvature="0" />
    <path
       style="fill:#ffdd00;stroke:#000000;stroke-width:4.22245740999999960;stroke-linecap:round;stroke-linejoin:round"
       id="path3172"
       d="m 161.59355,126.69375 c 6.52526,6.95361 11.97457,15.72348 20.25731,20.7838"
       inkscape:connector-curvature="0" />
    <path
       style="fill:#ffdd00;stroke:#000000;stroke-width:4.22245740999999960;stroke-linecap:round;stroke-linejoin:round"
       id="path3174"
       d="m 184.51475,126.45839 c 1.87517,7.27497 7.8281,12.81187 8.66038,22.58543"
       inkscape:connector-curvature="0" />
    <path
       style="fill:#ffdd00;stroke:#000000;stroke-width:4.22245740999999960;stroke-linecap:round;stroke-linejoin:round"
       id="path3176"
       d="m 197.33871,137.72033 c 3.18108,7.02525 4.76861,13.85209 3.60004,16.72826"
       inkscape:connector-curvature="0" />
    <path
       style="fill:#ffdd00;stroke:#000000;stroke-width:4.22245740999999960;stroke-linecap:round;stroke-linejoin:round"
       id="path3178"
       d="m 205.71327,135.13886 c 4.47059,4.76634 7.49864,15.58454 5.47889,24.42807"
       inkscape:connector-curvature="0" />
    <path
       style="fill:#ffdd00;stroke:#000000;stroke-width:4.22245740999999960;stroke-linecap:round;stroke-linejoin:round"
       id="path3180"
       d="m 212.14961,133.66512 c 4.93759,8.20425 5.4511,15.06338 7.15911,22.5631 0.85793,3.59406 1.59984,7.11749 3.80788,8.61008"
       inkscape:connector-curvature="0" />
    <path
       style="fill:#ffdd00;stroke:#000000;stroke-width:4.22245740999999960;stroke-linecap:round;stroke-linejoin:round"
       id="path3182"
       d="m 220.30144,139.83182 c 1.98483,4.18214 7.43353,13.59169 8.10566,18.33325 0.30736,3.7194 1.14367,7.30657 3.29255,10.56559"
       inkscape:connector-curvature="0" />
    <path
       style="fill:#ffdd00;stroke:#000000;stroke-width:4.22245740999999960;stroke-linecap:round;stroke-linejoin:round"
       id="path3184"
       d="m 217.99472,125.90108 c 3.1642,7.06244 6.62968,8.49852 10.43572,12.73606 3.3594,3.74026 7.77033,8.31759 9.62057,13.73943 5.14094,15.0647 4.78177,17.62183 3.23278,22.22781"
       inkscape:connector-curvature="0" />
    <path
       style="fill:#ffdd00;stroke:#000000;stroke-width:4.22245740999999960;stroke-linecap:round;stroke-linejoin:round"
       id="path3186"
       d="m 66.565675,169.12045 c -3.200402,1.40109 -2.864131,2.3177 -0.10282,2.90211"
       inkscape:connector-curvature="0" />
    <path
       style="fill:#ffdd00;stroke:#000000;stroke-width:4.22245740999999960;stroke-linecap:round;stroke-linejoin:round"
       id="path3188"
       d="m 85.712439,185.60456 c 0,2.95867 -0.704865,6.57774 -2.400214,9.0247 -0.5252,0.75804 -1.488681,1.32873 -1.661487,2.23902 -0.739367,3.89479 -3.014216,1.67532 -4.569409,2.73109 -2.026415,1.37566 -4.253353,2.40131 -6.492147,2.40131 -3.95926,0 -8.629736,-2.45349 -11.429355,-5.1937 -2.799619,-2.74021 -0.48959,-7.5024 -2.467908,-10.83462 -2.981507,-5.02198 -0.664328,-8.50528 3.203505,-10.83463 3.355889,-2.02105 6.3667,-3.3547 10.325959,-3.3547 3.95926,0 8.261937,0.61449 11.061557,3.3547 2.799619,2.74021 4.429499,6.59158 4.429499,10.46683 z"
       inkscape:connector-curvature="0" />
    <path
       style="fill:#ffdd00;stroke:#000000;stroke-width:4.22245740999999960;stroke-linecap:round;stroke-linejoin:round"
       id="path3190"
       d="m 74.67336,200.98894 c 2.407969,-1.38957 3.052888,-3.95466 4.297057,-6.80035"
       inkscape:connector-curvature="0" />
  </g>
  <g
     transform="matrix(0.71048679,0,0,0.71048679,395.6594,48.904372)"
     id="g3192">
    <path
       inkscape:connector-curvature="0"
       d="m 42.364189,24.660577 c 0.78726,0 43.114028,-29.1055927 43.114028,-29.1055927 L 97.680734,2.1046855 92.158333,8.7679195 42.364189,24.660577 z"
       id="path3194"
       style="fill:#ffdd00;stroke:#000000;stroke-width:4.22245740999999960;stroke-linecap:round;stroke-linejoin:round" />
    <path
       inkscape:connector-curvature="0"
       d="M 42.364189,24.660577 97.680734,2.1046855"
       id="path3196"
       style="fill:#ffdd00;stroke:#000000;stroke-width:4.22245740999999960;stroke-linecap:round;stroke-linejoin:round" />
    <path
       inkscape:connector-curvature="0"
       d="m 141.42419,146.48212 c -1.66564,7.54217 4.10142,36.44822 2.013,39.30995 1.91225,7.34061 -7.20568,9.68004 -12.26842,4.83081 l -30.55286,-9.80641 c -2.26723,0.72477 -4.452036,1.24348 -6.394212,1.15562 0.772459,-0.93272 2.037886,-1.86545 1.276693,-2.79817 -2.329563,-0.39284 -4.302638,0.2611 -5.845102,2.17945 -0.907219,7.75081 -1.865918,12.95847 -4.012025,10.03842 0,0 0.230583,-7.88918 -0.04776,-9.25134 -4.99389,-10.12546 -13.175706,-10.98664 -24.440208,-9.681 -8.598182,-3.05098 18.794506,-4.69409 23.418584,-4.93589 2.906883,-0.0949 6.177342,0.7546 10.88201,2.76309 13.05038,5.57137 32.55505,15.93546 39.98883,15.19747 1.05701,-0.10494 1.02301,-1.90599 1.58438,-2.46893 -0.042,-13.16941 -0.80537,-25.43225 -4.44346,-37.77263 l 8.84055,1.23956 z"
       id="path3198"
       style="fill:#ffdd00;stroke:#000000;stroke-width:4.22245740999999960;stroke-linecap:round;stroke-linejoin:round" />
    <path
       inkscape:connector-curvature="0"
       d="m 127.92479,134.90378 c 0.67485,4.54052 0.98222,13.39809 6.76494,16.97543 l 1.11617,-3.6811 c 1.46248,2.43223 3.26319,4.30073 5.41919,5.5771 2.57441,-0.72979 4.13547,-7.65549 4.79168,-13.01415 l -18.09198,-5.85728 z"
       id="path3200"
       style="fill:#ffdd00;stroke:#000000;stroke-width:4.22245740999999960;stroke-linecap:round;stroke-linejoin:round" />
    <path
       inkscape:connector-curvature="0"
       d="m 133.75683,249.97899 c 1.03608,-0.40779 2.43189,-2.24945 4.81485,-2.07492 4.65089,0.34064 7.30592,5.91612 12.68114,4.82321 l -8.66569,2.26887 c -1.43175,-2.9458 -3.80079,-2.92052 -5.2075,-4.39338 -0.7968,-0.83428 -2.22627,0.19218 -3.6228,-0.62378 z"
       id="path3202"
       style="fill:#ffdd00;stroke:#000000;stroke-width:4.22245740999999960;stroke-linecap:round;stroke-linejoin:round" />
    <path
       inkscape:connector-curvature="0"
       d="m 147.96513,146.20969 c 1.86997,14.67997 7.50421,29.69164 6.51442,40.78983 -0.73347,8.22417 -0.42554,7.74075 0.49156,10.79362 0.0704,0.23444 2.06129,0.92101 1.98652,1.288 -0.90888,-0.79889 -2.13752,-1.68317 -1.98652,-1.288 0.68919,10.30575 0.2244,39.55852 -2.69174,48.94383 -2.77697,1.70349 -0.7034,3.9607 -6.40177,7.08322 -15.15938,3.07038 -17.6576,-0.22059 -20.47844,1.98749 -3.14043,2.41967 -1.96472,3.27796 -1.0861,4.57572 1.75737,-2.59382 1.33771,-0.0992 2.65425,-0.22274 9.11874,-0.85556 15.49056,1.61523 20.36577,-0.34697 -2.14605,3.12377 -8.56964,7.19216 -10.22314,9.80754 -0.9042,2.00164 -0.1267,2.5179 2.31102,4.37253 -0.31135,-1.04522 0.0441,-3.59634 1.79236,-3.3238 2.07678,1.06603 1.98007,0.19775 3.42363,-1.41474 2.94747,-3.14748 6.82373,-3.87073 10.14747,-6.03614 3.26877,-4.8281 1.57234,-6.55564 2.76975,-9.67132 0.89141,-3.9381 1.84283,3.07419 3.79641,3.6412 0,0 1.20392,-4.21425 0.15289,-7.33245 -0.72111,-2.13939 -3.19172,-3.39071 -2.74926,-4.1593 1.12513,-1.95443 4.73164,-46.39852 3.54534,-46.63578 3.14495,-5.15584 0.0709,-11.83343 -0.83502,-17.98049 l -2.50504,-20.15994 -0.35728,-6.41111 -2.81839,-8.48594 -7.81869,0.18574 z"
       id="path3204"
       style="fill:#ffdd00;stroke:#000000;stroke-width:4.22245740999999960;stroke-linecap:round;stroke-linejoin:round" />
    <path
       inkscape:connector-curvature="0"
       d="m 85.478217,-4.4450157 c 8.68938,-14.1894503 33.661163,-10.3720383 33.539743,8.7178129 -0.18182,28.5876538 -9.18429,36.3532868 -11.82937,55.8484888 -1.04629,7.711574 8.79698,11.034551 15.86528,10.624835 28.85381,1.564302 58.80297,10.96831 81.8393,31.901759 4.48291,4.07369 8.28016,9.58585 12.85346,14.9225 2.75187,3.21121 8.94377,5.85179 11.55288,9.21818 5.45069,7.0327 7.95215,13.79857 10.52747,20.39702 1.66445,4.26463 1.06617,7.77963 0.89218,13.57038 -0.0767,2.55198 1.55861,5.59591 1.5732,9.01453 0.007,1.67557 -0.37716,3.31925 -1.00857,4.83389 -3.64586,0.59749 -7.04997,0.0574 -9.58414,-5.87372 -1.78516,4.08196 -5.35664,-1.80109 -8.58305,-3.89236 -2.42825,3.26101 -8.80911,-3.48861 -11.92444,-5.27137 -1.41537,0.8928 -2.16505,3.70952 -10.25341,-5.11834 -1.57405,3.8016 -4.47865,-0.76621 -7.76362,-5.40477 -0.78747,5.09493 -8.99155,-0.77308 -11.32427,-1.56627 -5.83803,1.8501 -7.78197,-0.26742 -9.96548,0.53337 -3.55578,1.30405 -9.48985,-0.13281 -12.56049,-2.32125 -0.85586,-0.60997 -0.55946,-1.62714 -0.83262,-2.8174 -0.69845,0.98733 3.86296,9.79209 0.10994,11.63762 l -3.57069,-1.52411 c -4.01963,-0.97577 -4.20936,-3.69239 -5.95917,-5.6999 l 0.49181,8.52662 c -3.16182,-0.34834 -6.04473,-8.55731 -7.13288,-13.34888 -0.32113,-1.41406 -0.4052,-2.46086 -0.44365,-3.007 0.16714,1.56742 0.10821,1.29017 0.44365,3.007 -5.6957,-1.90945 -12.26896,-4.13621 -15.78429,-5.90355 -11.23473,-5.64829 -13.04711,-10.18264 -16.36246,-13.45781 -4.85857,-4.7997 -12.789853,-10.61843 -19.575857,-20.44183 C 85.22493,94.722174 82.302348,84.724996 82.468287,76.679155 82.764137,62.334382 92.592533,49.798012 98.662644,36.379689 104.55343,23.357785 106.95697,11.720659 101.34349,9.9938619 98.778707,7.9510873 98.131102,11.411732 92.158333,8.7679195 95.097143,4.8471508 95.183931,3.7178838 95.220052,2.6382073 91.999163,1.3028292 87.163114,1.3298851 85.478217,-4.4450157 z"
       id="path3206"
       style="fill:#ffdd00;stroke:#000000;stroke-width:4.22245740999999960;stroke-linecap:round;stroke-linejoin:round" />
    <path
       inkscape:connector-curvature="0"
       d="m 102.1718,-4.2567313 a 2.0282117,1.9167178 0 1 1 -4.05642,0 2.0282117,1.9167178 0 1 1 4.05642,0 z"
       id="path3208"
       style="fill:#ffdd00;stroke:#000000;stroke-width:4.22245740999999960;stroke-linecap:round;stroke-linejoin:round" />
    <path
       inkscape:connector-curvature="0"
       d="m 113.86871,78.101775 c -7.00479,3.024636 -9.10993,5.06992 -9.15327,13.621583 -0.0438,8.648242 5.68988,13.612912 10.8287,22.759592 3.73344,6.64522 9.16049,11.97288 16.08466,16.0979 6.9442,4.39632 14.39299,4.41027 25.55869,5.79932"
       id="path3210"
       style="fill:#ffdd00;stroke:#000000;stroke-width:4.22245740999999960;stroke-linecap:round;stroke-linejoin:round" />
    <path
       inkscape:connector-curvature="0"
       d="m 149.35015,129.66569 c 2.49316,2.71972 5.21432,4.47931 7.83734,6.71448 2.71114,2.26986 7.14895,5.14471 11.99562,7.38451 5.32983,2.46308 5.56002,0.10995 5.01822,-2.54868"
       id="path3212"
       style="fill:#ffdd00;stroke:#000000;stroke-width:4.22245740999999960;stroke-linecap:round;stroke-linejoin:round" />
    <path
       inkscape:connector-curvature="0"
       d="m 161.59355,126.69375 c 6.52526,6.95361 11.97457,15.72348 20.25731,20.7838"
       id="path3214"
       style="fill:#ffdd00;stroke:#000000;stroke-width:4.22245740999999960;stroke-linecap:round;stroke-linejoin:round" />
    <path
       inkscape:connector-curvature="0"
       d="m 184.51475,126.45839 c 1.87517,7.27497 7.8281,12.81187 8.66038,22.58543"
       id="path3216"
       style="fill:#ffdd00;stroke:#000000;stroke-width:4.22245740999999960;stroke-linecap:round;stroke-linejoin:round" />
    <path
       inkscape:connector-curvature="0"
       d="m 197.33871,137.72033 c 3.18108,7.02525 4.76861,13.85209 3.60004,16.72826"
       id="path3218"
       style="fill:#ffdd00;stroke:#000000;stroke-width:4.22245740999999960;stroke-linecap:round;stroke-linejoin:round" />
    <path
       inkscape:connector-curvature="0"
       d="m 205.71327,135.13886 c 4.47059,4.76634 7.49864,15.58454 5.47889,24.42807"
       id="path3220"
       style="fill:#ffdd00;stroke:#000000;stroke-width:4.22245740999999960;stroke-linecap:round;stroke-linejoin:round" />
    <path
       inkscape:connector-curvature="0"
       d="m 212.14961,133.66512 c 4.93759,8.20425 5.4511,15.06338 7.15911,22.5631 0.85793,3.59406 1.59984,7.11749 3.80788,8.61008"
       id="path3222"
       style="fill:#ffdd00;stroke:#000000;stroke-width:4.22245740999999960;stroke-linecap:round;stroke-linejoin:round" />
    <path
       inkscape:connector-curvature="0"
       d="m 220.30144,139.83182 c 1.98483,4.18214 7.43353,13.59169 8.10566,18.33325 0.30736,3.7194 1.14367,7.30657 3.29255,10.56559"
       id="path3224"
       style="fill:#ffdd00;stroke:#000000;stroke-width:4.22245740999999960;stroke-linecap:round;stroke-linejoin:round" />
    <path
       inkscape:connector-curvature="0"
       d="m 217.99472,125.90108 c 3.1642,7.06244 6.62968,8.49852 10.43572,12.73606 3.3594,3.74026 7.77033,8.31759 9.62057,13.73943 5.14094,15.0647 4.78177,17.62183 3.23278,22.22781"
       id="path3226"
       style="fill:#ffdd00;stroke:#000000;stroke-width:4.22245740999999960;stroke-linecap:round;stroke-linejoin:round" />
    <path
       inkscape:connector-curvature="0"
       d="m 66.565675,169.12045 c -3.200402,1.40109 -2.864131,2.3177 -0.10282,2.90211"
       id="path3228"
       style="fill:#ffdd00;stroke:#000000;stroke-width:4.22245740999999960;stroke-linecap:round;stroke-linejoin:round" />
    <path
       inkscape:connector-curvature="0"
       d="m 85.712439,185.60456 c 0,2.95867 -0.704865,6.57774 -2.400214,9.0247 -0.5252,0.75804 -1.488681,1.32873 -1.661487,2.23902 -0.739367,3.89479 -3.014216,1.67532 -4.569409,2.73109 -2.026415,1.37566 -4.253353,2.40131 -6.492147,2.40131 -3.95926,0 -8.629736,-2.45349 -11.429355,-5.1937 -2.799619,-2.74021 -0.48959,-7.5024 -2.467908,-10.83462 -2.981507,-5.02198 -0.664328,-8.50528 3.203505,-10.83463 3.355889,-2.02105 6.3667,-3.3547 10.325959,-3.3547 3.95926,0 8.261937,0.61449 11.061557,3.3547 2.799619,2.74021 4.429499,6.59158 4.429499,10.46683 z"
       id="path3230"
       style="fill:#ffdd00;stroke:#000000;stroke-width:4.22245740999999960;stroke-linecap:round;stroke-linejoin:round" />
    <path
       inkscape:connector-curvature="0"
       d="m 74.67336,200.98894 c 2.407969,-1.38957 3.052888,-3.95466 4.297057,-6.80035"
       id="path3232"
       style="fill:#ffdd00;stroke:#000000;stroke-width:4.22245740999999960;stroke-linecap:round;stroke-linejoin:round" />
  </g>
  <path
     id="path4147"
     d="m 2,2 0,257 c 0,286 298,398 298,398 0,0 298,-112 298,-398 L 598,2 Z"
     style="fill:url(#radialGradient4153);stroke:#000000;stroke-width:3"
     inkscape:connector-curvature="0" />
</svg>
