<?xml version="1.0" encoding="UTF-8"?>
<svg xmlns="http://www.w3.org/2000/svg" xmlns:xlink="http://www.w3.org/1999/xlink" width="600" height="600">
<defs>
  <radialGradient id="rg" gradientUnits="userSpaceOnUse" cx="220" cy="220" r="405">
    <stop style="stop-color:#fff;stop-opacity:.3" offset="0"/>
    <stop style="stop-color:#fff;stop-opacity:.2" offset=".2"/>
    <stop style="stop-color:#666;stop-opacity:.1" offset=".6"/>
    <stop style="stop-color:#000;stop-opacity:.13" offset="1"/>
  </radialGradient>
  <clipPath id="clip-shield">
    <circle id="shield" cx="300" cy="300" r="298"/>
  </clipPath>
</defs>
<use id="background" xlink:href="#shield" fill="#a0a"/>
<g id="design" clip-path="url(#clip-shield)">
  <g id="row">
    <g id="lemon">
      <path fill="#080" d="m 316.85507,262.91216 c 12.01476,-2.32369 15.952,14.6644 15.952,14.6644 0,0 -4.77904,6.39117 -10.04411,6.72607 -18.62895,1.1873 -28.26667,-25.73883 -28.26667,-25.73883 0,0 10.50141,6.64417 22.35878,4.34836 z"/>
      <path fill="#941" d="m 344.5322,274.5844 c 0.59664,0.068 0.24439,2.36416 -0.35567,2.3509 -10.0562,-0.20708 -15.68636,6.02418 -16.31291,7.27135 -0.87827,1.748 -3.11608,-0.8794 -1.66924,-2.87714 0.29967,-0.4149 8.00262,-7.90069 18.33782,-6.74511 z"/>
      <path fill="#080" d="m 253.3504,332.34142 c -0.50133,0.32119 -2.50124,0.36753 -3.1592,-0.73721 -0.65194,-1.10332 0.28135,-2.94308 0.78082,-3.26313 0.50169,-0.32269 1.43875,0.31309 2.0952,1.41748 0.6561,1.10589 0.78187,2.25945 0.28318,2.58286 z"/>
      <path fill="#fe0" d="m 328.07259,288.4466 c 1.0189,-0.86554 0.62616,-3.57588 -0.94415,-6.22011 -1.57482,-2.64529 -3.72639,-4.22054 -4.92878,-3.66664 -10.6833,-11.16662 -30.86214,-11.91077 -48.08519,-0.85606 -15.39129,9.87972 -23.72836,26.17294 -21.89961,40.188 -3.19706,2.5793 -3.60573,8.17647 -0.7754,12.9376 2.8312,4.77087 7.83796,6.89877 11.49016,5.06675 11.23435,7.95553 28.96103,7.49625 44.3371,-2.37277 17.22491,-11.05586 25.6231,-30.13946 20.80587,-45.07677 z"/>
      <path fill="#7c0" d="m 327.04373,283.50491 c 3.68399,-5.79443 13.80863,-7.22676 13.80863,-7.22676 0,0 16.44197,15.17704 6.2962,27.42363 -10.01708,12.08495 -9.22444,28.24721 -9.22444,28.24721 0,0 -23.92451,-27.93795 -10.88039,-48.44408 z"/>
      <path fill="#080" d="m 340.85272,276.27665 c 0.94004,2.06032 1.6217,4.3072 2.06407,6.65307 0.39309,2.35963 0.46277,4.8317 0.23729,7.28321 -0.46055,4.94362 -2.18292,9.55089 -3.59947,14.04631 -1.48669,4.48996 -2.62425,9.06085 -2.90303,13.74584 -0.29832,4.68037 0.29497,9.37625 1.27254,13.94391 -0.80772,-2.14334 -1.40532,-4.41003 -1.87063,-6.73276 -0.40479,-2.33699 -0.62543,-4.74792 -0.6142,-7.19293 -0.003,-4.89756 1.17583,-9.77623 2.64852,-14.33457 1.48571,-4.56638 3.1702,-8.97308 3.87464,-13.59873 0.72657,-4.62518 0.17357,-9.36391 -1.10973,-13.81335 z"/>
    </g>
    <use xlink:href="#lemon" x="-300"/>
    <use xlink:href="#lemon" x="-150"/>
    <use xlink:href="#lemon" x="150"/>
    <use xlink:href="#lemon" x="300"/>
  </g>
  <use xlink:href="#row" y="260"/>
  <use xlink:href="#row" x="75" y="130"/>
  <use xlink:href="#row" x="75" y="-130"/>
  <use xlink:href="#row" y="-260"/>
</g>
<use id="shine" xlink:href="#shield" fill="url(#rg)" stroke="#000" stroke-width="3"/>
</svg>