<?xml version="1.0" encoding="UTF-8" standalone="no"?>
<svg
   xmlns:i="http://ns.adobe.com/AdobeIllustrator/10.0/"
   xmlns:dc="http://purl.org/dc/elements/1.1/"
   xmlns:cc="http://creativecommons.org/ns#"
   xmlns:rdf="http://www.w3.org/1999/02/22-rdf-syntax-ns#"
   xmlns:svg="http://www.w3.org/2000/svg"
   xmlns="http://www.w3.org/2000/svg"
   xmlns:xlink="http://www.w3.org/1999/xlink"
   xmlns:sodipodi="http://sodipodi.sourceforge.net/DTD/sodipodi-0.dtd"
   xmlns:inkscape="http://www.inkscape.org/namespaces/inkscape"
   width="600"
   height="660"
   id="svg2"
   version="1.1"
   inkscape:version="0.48.2 r9819"
   sodipodi:docname="House_Darry.svg">
  <metadata
     id="metadata24">
    <rdf:RDF>
      <cc:Work
         rdf:about="">
        <dc:format>image/svg+xml</dc:format>
        <dc:type
           rdf:resource="http://purl.org/dc/dcmitype/StillImage" />
        <dc:title />
      </cc:Work>
    </rdf:RDF>
  </metadata>
  <sodipodi:namedview
     pagecolor="#ffffff"
     bordercolor="#666666"
     borderopacity="1"
     objecttolerance="10"
     gridtolerance="10"
     guidetolerance="10"
     inkscape:pageopacity="0"
     inkscape:pageshadow="2"
     inkscape:window-width="1366"
     inkscape:window-height="715"
     id="namedview22"
     showgrid="false"
     inkscape:zoom="0.71515152"
     inkscape:cx="192.62685"
     inkscape:cy="285.55333"
     inkscape:window-x="-8"
     inkscape:window-y="-8"
     inkscape:window-maximized="1"
     inkscape:current-layer="layer2" />
  <defs
     id="defs4">
    <inkscape:path-effect
       effect="spiro"
       id="path-effect7615"
       is_visible="true" />
    <inkscape:path-effect
       effect="spiro"
       id="path-effect3576"
       is_visible="true" />
    <inkscape:path-effect
       is_visible="true"
       id="path-effect3572"
       effect="spiro" />
    <inkscape:path-effect
       effect="spiro"
       id="path-effect3568"
       is_visible="true" />
    <inkscape:path-effect
       is_visible="true"
       id="path-effect3136"
       effect="spiro" />
    <inkscape:path-effect
       effect="spiro"
       id="path-effect3132"
       is_visible="true" />
    <inkscape:path-effect
       effect="spiro"
       id="path-effect3101"
       is_visible="true" />
    <inkscape:path-effect
       is_visible="true"
       id="path-effect3085"
       effect="spiro" />
    <inkscape:path-effect
       is_visible="true"
       id="path-effect3083"
       effect="spiro" />
    <inkscape:path-effect
       is_visible="true"
       id="path-effect3081"
       effect="spiro" />
    <inkscape:path-effect
       is_visible="true"
       id="path-effect3079"
       effect="spiro" />
    <inkscape:path-effect
       is_visible="true"
       id="path-effect3077"
       effect="spiro" />
    <inkscape:path-effect
       is_visible="true"
       id="path-effect3075"
       effect="spiro" />
    <inkscape:path-effect
       effect="spiro"
       id="path-effect3049"
       is_visible="true" />
    <inkscape:path-effect
       is_visible="true"
       id="path-effect3045"
       effect="spiro" />
    <inkscape:path-effect
       effect="spiro"
       id="path-effect3041"
       is_visible="true" />
    <radialGradient
       id="rg"
       gradientUnits="userSpaceOnUse"
       cx="220"
       cy="220"
       r="405">
      <stop
         style="stop-color:#fff;stop-opacity:.3"
         offset="0"
         id="stop7" />
      <stop
         style="stop-color:#fff;stop-opacity:.2"
         offset=".2"
         id="stop9" />
      <stop
         style="stop-color:#666;stop-opacity:.1"
         offset=".6"
         id="stop11" />
      <stop
         style="stop-color:#000;stop-opacity:.13"
         offset="1"
         id="stop13" />
    </radialGradient>
    <path
       id="shield"
       d="m2,2v257c0,286 298,398 298,398c0,0 298-112 298-398V2z" />
    <radialGradient
       inkscape:collect="always"
       xlink:href="#rg-7"
       id="radialGradient3055-1"
       gradientUnits="userSpaceOnUse"
       cx="220"
       cy="220"
       r="405" />
    <radialGradient
       id="rg-7"
       gradientUnits="userSpaceOnUse"
       cx="220"
       cy="220"
       r="405">
      <stop
         style="stop-color:#fff;stop-opacity:.3"
         offset="0"
         id="stop7-4" />
      <stop
         style="stop-color:#fff;stop-opacity:.2"
         offset=".2"
         id="stop9-0" />
      <stop
         style="stop-color:#666;stop-opacity:.1"
         offset=".6"
         id="stop11-9" />
      <stop
         style="stop-color:#000;stop-opacity:.13"
         offset="1"
         id="stop13-4" />
    </radialGradient>
    <radialGradient
       r="405"
       cy="220"
       cx="220"
       gradientUnits="userSpaceOnUse"
       id="radialGradient3074"
       xlink:href="#rg-7"
       inkscape:collect="always" />
    <inkscape:path-effect
       is_visible="true"
       id="path-effect10120-1"
       effect="spiro" />
    <inkscape:path-effect
       effect="spiro"
       id="path-effect10118-3"
       is_visible="true" />
    <inkscape:path-effect
       effect="spiro"
       id="path-effect10116-9"
       is_visible="true" />
    <inkscape:path-effect
       effect="spiro"
       id="path-effect10114-7"
       is_visible="true" />
    <inkscape:path-effect
       effect="spiro"
       id="path-effect10112-7"
       is_visible="true" />
    <inkscape:path-effect
       effect="spiro"
       id="path-effect10110-2"
       is_visible="true" />
    <linearGradient
       inkscape:collect="always"
       xlink:href="#linearGradient4719-5"
       id="linearGradient4039"
       gradientUnits="userSpaceOnUse"
       gradientTransform="matrix(2.3257341,0,0,2.2943177,447.69485,-1820.2799)"
       x1="-145.25935"
       y1="984.24286"
       x2="-64.14286"
       y2="984.14789" />
    <linearGradient
       inkscape:collect="always"
       id="linearGradient4719-5">
      <stop
         style="stop-color:#666666;stop-opacity:1;"
         offset="0"
         id="stop4721-5" />
      <stop
         id="stop4809-1"
         offset="0.39344174"
         style="stop-color:#666666;stop-opacity:0.74901961;" />
      <stop
         style="stop-color:#666666;stop-opacity:0;"
         offset="1"
         id="stop4723-7" />
    </linearGradient>
    <radialGradient
       inkscape:collect="always"
       xlink:href="#linearGradient4801-8"
       id="radialGradient4041"
       gradientUnits="userSpaceOnUse"
       gradientTransform="matrix(-0.72153181,1.2650715,-2.2729984,-1.2616144,1712.0113,1733.7841)"
       cx="-307.14288"
       cy="782.36218"
       fx="-307.14288"
       fy="782.36218"
       r="63" />
    <linearGradient
       inkscape:collect="always"
       id="linearGradient4801-8">
      <stop
         style="stop-color:#000000;stop-opacity:1;"
         offset="0"
         id="stop4803-2" />
      <stop
         style="stop-color:#000000;stop-opacity:0;"
         offset="1"
         id="stop4805-4" />
    </linearGradient>
    <inkscape:path-effect
       effect="spiro"
       id="path-effect10108-4"
       is_visible="true" />
    <linearGradient
       inkscape:collect="always"
       xlink:href="#linearGradient4719-5"
       id="linearGradient4044"
       gradientUnits="userSpaceOnUse"
       gradientTransform="matrix(-2.4055369,0,0,-1.6485021,142.06168,1726.5307)"
       x1="-145.25935"
       y1="984.24286"
       x2="-64.14286"
       y2="984.14789" />
    <radialGradient
       inkscape:collect="always"
       xlink:href="#linearGradient4801-8"
       id="radialGradient4046"
       gradientUnits="userSpaceOnUse"
       gradientTransform="matrix(0.74628962,-0.90897301,2.3509914,0.90648896,-1165.637,-827.11785)"
       cx="-307.14288"
       cy="782.36218"
       fx="-307.14288"
       fy="782.36218"
       r="63" />
    <inkscape:path-effect
       effect="spiro"
       id="path-effect10102-7"
       is_visible="true" />
    <linearGradient
       inkscape:collect="always"
       xlink:href="#linearGradient4719-5"
       id="linearGradient4049"
       gradientUnits="userSpaceOnUse"
       gradientTransform="matrix(2.334989,0,0,-1.6146975,449.44065,1692.189)"
       x1="-145.25935"
       y1="984.24286"
       x2="-64.14286"
       y2="984.14789" />
    <radialGradient
       inkscape:collect="always"
       xlink:href="#linearGradient4801-8"
       id="radialGradient4051"
       gradientUnits="userSpaceOnUse"
       gradientTransform="matrix(-0.72440295,-0.89033332,-2.2820431,0.88790031,1718.7881,-809.09364)"
       cx="-307.14288"
       cy="782.36218"
       fx="-307.14288"
       fy="782.36218"
       r="63" />
    <inkscape:path-effect
       is_visible="true"
       id="path-effect10096-8"
       effect="spiro" />
    <linearGradient
       inkscape:collect="always"
       xlink:href="#linearGradient4719-5"
       id="linearGradient4054"
       gradientUnits="userSpaceOnUse"
       gradientTransform="matrix(-2.409599,0,0,2.2818507,139.61083,-1810.8163)"
       x1="-145.25935"
       y1="984.24286"
       x2="-64.14286"
       y2="984.14789" />
    <radialGradient
       inkscape:collect="always"
       xlink:href="#linearGradient4801-8"
       id="radialGradient4056"
       gradientUnits="userSpaceOnUse"
       gradientTransform="matrix(0.74754985,1.2581972,2.3549614,-1.2547588,-1170.296,1723.935)"
       cx="-307.14288"
       cy="782.36218"
       fx="-307.14288"
       fy="782.36218"
       r="63" />
    <inkscape:path-effect
       is_visible="true"
       id="path-effect10090-3"
       effect="spiro" />
    <inkscape:path-effect
       effect="spiro"
       id="path-effect10084-1"
       is_visible="true" />
    <inkscape:path-effect
       effect="spiro"
       id="path-effect10082-1"
       is_visible="true" />
    <radialGradient
       inkscape:collect="always"
       xlink:href="#linearGradient4801-8"
       id="radialGradient4061"
       gradientUnits="userSpaceOnUse"
       gradientTransform="matrix(-0.76516322,1.2901254,-2.4104477,-1.2865998,1806.8444,1757.4704)"
       cx="-307.14288"
       cy="782.36218"
       fx="-307.14288"
       fy="782.36218"
       r="63" />
    <inkscape:path-effect
       effect="spiro"
       id="path-effect10080-4"
       is_visible="true" />
    <inkscape:path-effect
       is_visible="true"
       id="path-effect3075-1"
       effect="spiro" />
    <inkscape:path-effect
       effect="spiro"
       id="path-effect3101-7"
       is_visible="true" />
    <linearGradient
       inkscape:collect="always"
       xlink:href="#grad1-7-7"
       id="linearGradient3085-8-8"
       gradientUnits="userSpaceOnUse"
       gradientTransform="matrix(0.77469594,0,0,0.30982404,152.68996,-13.619206)"
       x1="78.877235"
       y1="178.07356"
       x2="301.40585"
       y2="178.07356" />
    <linearGradient
       id="grad1-7-7"
       x1="78.877235"
       y1="178.07356"
       x2="301.40585"
       y2="178.07356"
       gradientTransform="scale(1.577772,0.63380513)"
       gradientUnits="userSpaceOnUse">
      <stop
         offset="0%"
         style="stop-color:#da0;"
         id="stop16-4-4" />
      <stop
         offset="40%"
         style="stop-color:#fd0;"
         id="stop18-0-0" />
      <stop
         offset="60%"
         style="stop-color:#fd0;"
         id="stop20-9-9" />
      <stop
         offset="100%"
         style="stop-color:#da0;"
         id="stop22-4-4" />
    </linearGradient>
    <linearGradient
       inkscape:collect="always"
       xlink:href="#grad1-7-7"
       id="linearGradient3081-8-8"
       gradientUnits="userSpaceOnUse"
       gradientTransform="matrix(0.77469594,0,0,0.30982404,-27.310046,-13.619206)"
       x1="78.877235"
       y1="178.07356"
       x2="301.40585"
       y2="178.07356" />
    <linearGradient
       id="linearGradient3093"
       x1="78.877235"
       y1="178.07356"
       x2="301.40585"
       y2="178.07356"
       gradientTransform="scale(1.577772,0.63380513)"
       gradientUnits="userSpaceOnUse">
      <stop
         offset="0%"
         style="stop-color:#da0;"
         id="stop3095" />
      <stop
         offset="40%"
         style="stop-color:#fd0;"
         id="stop3097" />
      <stop
         offset="60%"
         style="stop-color:#fd0;"
         id="stop3099" />
      <stop
         offset="100%"
         style="stop-color:#da0;"
         id="stop3101" />
    </linearGradient>
    <linearGradient
       y2="178.07356"
       x2="301.40585"
       y1="178.07356"
       x1="78.877235"
       gradientTransform="matrix(0.77469594,0,0,0.30982404,332.68995,-13.619206)"
       gradientUnits="userSpaceOnUse"
       id="linearGradient3128-1"
       xlink:href="#grad1-7-7"
       inkscape:collect="always" />
    <linearGradient
       id="linearGradient3104"
       x1="78.877235"
       y1="178.07356"
       x2="301.40585"
       y2="178.07356"
       gradientTransform="scale(1.577772,0.63380513)"
       gradientUnits="userSpaceOnUse">
      <stop
         offset="0%"
         style="stop-color:#da0;"
         id="stop3106" />
      <stop
         offset="40%"
         style="stop-color:#fd0;"
         id="stop3108" />
      <stop
         offset="60%"
         style="stop-color:#fd0;"
         id="stop3110" />
      <stop
         offset="100%"
         style="stop-color:#da0;"
         id="stop3112" />
    </linearGradient>
    <inkscape:path-effect
       is_visible="true"
       id="path-effect3061"
       effect="spiro" />
    <clipPath
       clipPathUnits="userSpaceOnUse"
       id="clipPath10110">
      <path
         style="fill:#ffff00;fill-opacity:1;stroke:none"
         id="path10112"
         d="M 598,2 V 259 C 598,545 300,657 300,657 300,657 2,545 2,259 V 2 z"
         inkscape:connector-curvature="0" />
    </clipPath>
  </defs>
  <g
     inkscape:groupmode="layer"
     id="layer2"
     inkscape:label="Elements"
     style="display:inline">
    <use
       height="1052.3622"
       width="744.09448"
       y="0"
       x="0"
       style="fill:#884411;display:inline"
       xlink:href="#shield"
       id="use4261" />
    <g
       style="display:inline"
       id="g4345"
       transform="translate(-6,4)">
      <path
         sodipodi:nodetypes="ccscccssssssccccccc"
         style="fill:#000000;fill-opacity:1;stroke:#333333;stroke-width:2;stroke-linecap:round;stroke-linejoin:round;stroke-miterlimit:4;stroke-opacity:1;stroke-dasharray:none"
         i:knockout="Off"
         d="m 456.9598,155.24488 1.5258,-7.76928 c -6.93494,0.19314 -10.60834,0.18991 -13.24282,-1.22451 -3.12949,-1.68015 0.51386,-5.39524 -1.2076,-7.82823 2.51469,-1.00054 1.75504,-1.06503 -0.47456,-1.84736 1.06779,-1.54228 -0.45459,-2.5021 -0.24526,-3.62189 -1.55932,-0.35 -1.83168,-0.94438 -3.72462,-0.79305 -7.68687,0.61459 5.50229,-9.46697 4.07847,-13.20652 -1.42521,-3.74067 0.38432,-9.04511 0.89909,-11.68503 0.60752,-3.1148 6.49806,-10.120153 28.14942,-6.16024 21.65139,3.95991 21.56065,3.80172 23.26827,9.52117 1.70754,5.71944 -3.17723,20.15496 -7.45176,25.6564 -4.2745,5.50141 5.79038,17.53568 5.79038,17.53568 l -7.24463,10.50167 -28.48955,0 -1.63087,-9.07881 10e-5,0 8e-5,0 8e-5,0 z"
         id="path3393"
         inkscape:connector-curvature="0" />
      <path
         sodipodi:nodetypes="cccssccccc"
         id="path4776"
         d="m 465.09472,111.81556 c -5.9809,5.85237 1.83048,6.14617 0.88251,11.95003 l 2.01242,0.2246 c 1.02025,-2.46994 2.64165,-3.00989 5.78752,-1.81392 0.83407,0.31711 3.60845,2.38802 0.4122,4.7528 -2.2756,1.68368 0.5476,3.27314 -0.68637,5.38234 4.60667,4.15754 6.17526,1.6031 7.2184,4.15144 1.46327,2.29115 3.98539,4.11796 6.78588,4.21082 -1.51238,-3.51309 6.66665,-8.49878 8.2546,-23.62996 l -30.66716,-5.22815 z"
         style="fill:#000000;stroke:#333333;stroke-width:2;stroke-linecap:round;stroke-linejoin:round;stroke-miterlimit:4;stroke-opacity:1;stroke-dasharray:none"
         inkscape:connector-curvature="0" />
      <path
         style="fill:#000000;stroke:#333333;stroke-width:2;stroke-linecap:round;stroke-linejoin:round;stroke-miterlimit:4;stroke-opacity:1;stroke-dasharray:none"
         i:knockout="Off"
         d="m 446.62665,117.57452 c 0,0 1.63984,-0.72741 9.03526,0.59233"
         id="path3397"
         sodipodi:nodetypes="cc"
         inkscape:connector-curvature="0" />
      <path
         style="fill:#000000;stroke:#333333;stroke-width:2;stroke-linecap:round;stroke-linejoin:round;stroke-miterlimit:4;stroke-opacity:1;stroke-dasharray:none"
         i:knockout="Off"
         d="m 445.78226,137.41291 c 0,0.0183 3.71077,0.28073 6.94317,0.22205"
         id="path3401"
         sodipodi:nodetypes="cc"
         inkscape:connector-curvature="0" />
      <path
         style="fill:#000000;stroke:#333333;stroke-width:2;stroke-linecap:round;stroke-linejoin:round;stroke-miterlimit:4;stroke-opacity:1;stroke-dasharray:none"
         i:knockout="Off"
         d="m 468.1021,123.91476 c 1.95914,-5.00654 10.45508,-0.5103 6.68741,2.47641 -5.13442,4.07022 -3.35138,6.13366 -6.83113,6.13366"
         id="path3403"
         sodipodi:nodetypes="csc"
         inkscape:connector-curvature="0" />
      <path
         sodipodi:nodetypes="ccc"
         id="rect3367"
         d="m 475.33053,450.90879 23.667,0 c 18.8433,43.75502 -45.26258,41.59192 -23.667,0 z"
         style="fill:#000000;fill-opacity:1;fill-rule:evenodd;stroke:#333333;stroke-width:2;stroke-linecap:round;stroke-linejoin:round;stroke-miterlimit:4;stroke-opacity:1;stroke-dasharray:none"
         inkscape:connector-curvature="0" />
      <path
         sodipodi:nodetypes="ccccc"
         id="rect4142"
         d="m 475.36764,421.58829 c 6.04997,3.42726 16.94227,21.50261 1.45821,23.21931 -10.71477,3.41096 -71.90097,6.34677 -72.91044,-3.47376 1.83201,-12.99061 41.65561,-8.84251 55.898,-18.64857 l 15.55423,-1.09698 z"
         style="fill:#000000;fill-opacity:1;stroke:#333333;stroke-width:2;stroke-linecap:round;stroke-linejoin:round;stroke-miterlimit:4;stroke-opacity:1;stroke-dasharray:none"
         inkscape:connector-curvature="0" />
      <path
         style="fill:#000000;fill-opacity:1;stroke:#333333;stroke-width:2;stroke-linecap:round;stroke-linejoin:round;stroke-miterlimit:4;stroke-opacity:1;stroke-dasharray:none"
         d="m 477.01089,342.67277 1.80319,88.14146 c 0.19557,9.56293 -41.60632,4.41133 -34.62653,-5.70661 5.99678,-8.69302 -6.45806,-64.80133 0.51733,-82.43485 l 32.30601,0 z"
         id="path4147"
         sodipodi:nodetypes="csscc"
         inkscape:connector-curvature="0" />
      <path
         sodipodi:nodetypes="csscc"
         id="path3363-9"
         d="m 503.69077,364.11354 c 9.13466,35.1827 -4.19144,56.34608 -2.32837,83.20506 0.90386,13.03044 -30.72856,13.4291 -28.98787,2.10531 3.80947,-24.78199 -13.74912,-58.40229 -6.77373,-82.98331 l 38.08997,-2.32706 z"
         style="fill:#000000;fill-opacity:1;stroke:#333333;stroke-width:2;stroke-linecap:round;stroke-linejoin:round;stroke-miterlimit:4;stroke-opacity:1;stroke-dasharray:none"
         inkscape:connector-curvature="0" />
      <path
         sodipodi:nodetypes="ccscssc"
         id="path4145"
         d="m 432.27266,281.90352 93.45264,0 c 11.62155,26.14557 -9.99568,69.36613 -14.09182,84.13368 -2.87957,10.38145 -44.85952,13.69895 -49.97632,-0.36024 -9.93873,2.49702 -21.47428,-0.68594 -23.56324,-6.56599 -6.28167,-17.68163 -3.58896,-54.03265 -4.10276,-59.36676 l -1.7185,-17.84069 z"
         style="fill:#000000;fill-opacity:1;stroke:#333333;stroke-width:2;stroke-linecap:round;stroke-linejoin:round;stroke-miterlimit:4;stroke-opacity:1;stroke-dasharray:none"
         inkscape:connector-curvature="0" />
      <path
         sodipodi:nodetypes="cccccsccc"
         id="path4316"
         d="m 550.30482,205.16817 -17.34034,-37.53929 c -8.73463,-3.89324 -17.35818,-6.2816 -39.64171,-15.95199 -13.65006,9.41779 -23.39974,10.32371 -36.19037,5.56812 -1.69449,-0.25794 -8.5476,2.50895 -14.79302,6.68905 -22.39669,19.76493 -9.59629,73.46509 -19.98785,115.59035 -3.81794,15.4773 62.04351,11.81058 96.27629,9.32968 l 20.68045,-56.2553 10.99655,-27.43062 z"
         style="fill:#000000;fill-opacity:1;stroke:#333333;stroke-width:2;stroke-linecap:round;stroke-linejoin:round;stroke-miterlimit:4;stroke-opacity:1;stroke-dasharray:none"
         inkscape:connector-curvature="0" />
      <path
         sodipodi:nodetypes="cscsscss"
         id="path4320"
         d="m 477.37398,291.91383 c -10.63517,-19.13056 -14.79273,-37.99519 -17.30319,-41.91079 -11.49869,-17.93464 -22.49754,-58.69399 -19.44143,-83.37285 0.19052,-6.60527 9.75476,-10.8083 9.86311,-6.39631 0.79315,32.29665 2.06144,45.92224 14.60541,65.45027 6.66989,10.38343 46.39549,50.52718 67.69935,-20.40788 3.76472,29.54978 22.89657,64.32912 9.30788,89.91014 -9.40839,17.71149 -49.92399,23.36253 -64.73113,-3.27258 z"
         style="fill:#000000;fill-opacity:1;stroke:#333333;stroke-width:2;stroke-linecap:round;stroke-linejoin:round;stroke-miterlimit:4;stroke-opacity:1;stroke-dasharray:none"
         inkscape:connector-curvature="0" />
      <path
         sodipodi:nodetypes="cc"
         id="path4149"
         d="m 461.56365,365.41837 c -3.43642,-4.2728 -1.71852,-56.19368 -7.21777,-65.15709"
         style="fill:#000000;fill-opacity:1;stroke:#333333;stroke-width:2;stroke-linecap:round;stroke-linejoin:round;stroke-miterlimit:4;stroke-opacity:1;stroke-dasharray:none"
         inkscape:connector-curvature="0" />
      <path
         sodipodi:nodetypes="cc"
         id="path4151"
         d="m 472.22814,449.2564 c 13.54633,3.56681 27.96022,-8.4732 29.57825,-18.40405"
         style="fill:#000000;fill-opacity:1;stroke:#333333;stroke-width:2;stroke-linecap:round;stroke-linejoin:round;stroke-miterlimit:4;stroke-opacity:1;stroke-dasharray:none"
         inkscape:connector-curvature="0" />
      <path
         sodipodi:nodetypes="cc"
         id="path4153"
         d="m 472.09545,428.27216 c 10.79655,-1.96226 25.23853,-6.61219 33.18967,-20.07164"
         style="fill:#000000;fill-opacity:1;stroke:#333333;stroke-width:2;stroke-linecap:round;stroke-linejoin:round;stroke-miterlimit:4;stroke-opacity:1;stroke-dasharray:none"
         inkscape:connector-curvature="0" />
      <path
         sodipodi:nodetypes="cc"
         id="path4155"
         d="m 506.46828,380.46996 c -8.53597,13.20715 -23.06939,17.20026 -39.82532,19.07067"
         style="fill:#000000;fill-opacity:1;stroke:#333333;stroke-width:2;stroke-linecap:round;stroke-linejoin:round;stroke-miterlimit:4;stroke-opacity:1;stroke-dasharray:none"
         inkscape:connector-curvature="0" />
      <path
         sodipodi:nodetypes="cc"
         id="path4157"
         d="m 463.89334,381.62621 c 10.8941,18.63687 27.52881,19.84827 42.18951,19.73197"
         style="fill:#000000;stroke:#333333;stroke-width:2;stroke-linecap:round;stroke-linejoin:round;stroke-miterlimit:4;stroke-opacity:1;stroke-dasharray:none"
         inkscape:connector-curvature="0" />
      <path
         sodipodi:nodetypes="cc"
         id="path4159"
         d="m 466.21333,398.96647 c 4.48874,7.49057 6.10453,19.41889 35.97844,27.70838"
         style="fill:#000000;stroke:#333333;stroke-width:2;stroke-linecap:round;stroke-linejoin:round;stroke-miterlimit:4;stroke-opacity:1;stroke-dasharray:none"
         inkscape:connector-curvature="0" />
      <path
         sodipodi:nodetypes="cc"
         id="path4161"
         d="m 471.98258,431.21806 c 4.07188,6.36741 8.25105,16.52385 28.80027,19.04278"
         style="fill:#000000;stroke:#333333;stroke-width:2;stroke-linecap:round;stroke-linejoin:round;stroke-miterlimit:4;stroke-opacity:1;stroke-dasharray:none"
         inkscape:connector-curvature="0" />
      <path
         sodipodi:nodetypes="cc"
         id="path4163"
         d="m 444.50226,425.42769 c 10.04177,0.47043 20.3163,-2.69791 24.68888,-10.08699"
         style="fill:#000000;fill-opacity:1;stroke:#333333;stroke-width:2;stroke-linecap:round;stroke-linejoin:round;stroke-miterlimit:4;stroke-opacity:1;stroke-dasharray:none"
         inkscape:connector-curvature="0" />
      <path
         sodipodi:nodetypes="cc"
         id="path4165"
         d="m 471.33675,426.7075 c -8.60617,-1.81122 -19.09422,-5.09161 -25.57763,-15.50725"
         style="fill:#000000;stroke:#333333;stroke-width:2;stroke-linecap:round;stroke-linejoin:round;stroke-miterlimit:4;stroke-opacity:1;stroke-dasharray:none"
         inkscape:connector-curvature="0" />
      <path
         sodipodi:nodetypes="cc"
         id="path4167"
         d="m 445.70267,403.81138 c 8.48322,-1.37866 18.20816,-2.77193 19.80121,-8.86269"
         style="fill:#000000;fill-opacity:1;stroke:#333333;stroke-width:2;stroke-linecap:round;stroke-linejoin:round;stroke-miterlimit:4;stroke-opacity:1;stroke-dasharray:none"
         inkscape:connector-curvature="0" />
      <path
         sodipodi:nodetypes="cc"
         id="path4169"
         d="m 467.43092,407.63969 c -7.39627,-2.62928 -14.23841,-8.78348 -22.92866,-16.76679"
         style="fill:#000000;stroke:#333333;stroke-width:2;stroke-linecap:round;stroke-linejoin:round;stroke-miterlimit:4;stroke-opacity:1;stroke-dasharray:none"
         inkscape:connector-curvature="0" />
      <path
         sodipodi:nodetypes="cc"
         id="path4171"
         d="m 443.91552,383.32336 c 5.52785,1.00665 15.45055,-1.83929 20.23086,-5.87272"
         style="fill:#000000;fill-opacity:1;stroke:#333333;stroke-width:2;stroke-linecap:round;stroke-linejoin:round;stroke-miterlimit:4;stroke-opacity:1;stroke-dasharray:none"
         inkscape:connector-curvature="0" />
      <path
         sodipodi:nodetypes="cc"
         id="path4173"
         d="m 463.87129,382.72132 c -7.73492,-1.42627 -16.63402,-2.3624 -20.82725,-10.86264"
         style="fill:#000000;stroke:#333333;stroke-width:2;stroke-linecap:round;stroke-linejoin:round;stroke-miterlimit:4;stroke-opacity:1;stroke-dasharray:none"
         inkscape:connector-curvature="0" />
      <g
         style="fill:#000000;stroke:#333333;stroke-width:0.66660297;stroke-miterlimit:4;stroke-dasharray:none"
         transform="matrix(-2.9933043,0,0,3.0072854,1650.9544,-911.81661)"
         id="g971">
        <path
           style="fill:#000000;stroke:#333333;stroke-width:0.66660297;stroke-miterlimit:4;stroke-dasharray:none"
           inkscape:connector-curvature="0"
           d="m 438.8,426.33 c 1.2782,24.314 6.8897,29.67 13.189,32.018 -3.7985,-5.3731 -6.1694,-11.72 -5.3231,-20.26 l -3.3369,0.55614 c -0.72082,-4.2725 -1.1289,-8.3574 -0.79449,-11.997 z"
           id="path930" />
        <path
           style="fill:#000000;stroke:#333333;stroke-width:0.66660297;stroke-miterlimit:4;stroke-dasharray:none"
           inkscape:connector-curvature="0"
           d="m 417.02,423.03 4.3258,-1.4607 c -4.2975,17.702 6.3157,28.315 20.112,37.415 -19.39,-0.69822 -30.524,-8.5986 -35.842,-21.573 3.7396,2.9172 8.3469,2.7372 12.65,2.2143 -2.2054,-6.3991 -2.3347,-11.695 -1.2456,-16.596 z"
           id="path1069" />
        <path
           style="fill:#000000;stroke:#333333;stroke-width:0.66660297;stroke-linecap:round;stroke-linejoin:round;stroke-miterlimit:4;stroke-dasharray:none"
           inkscape:connector-curvature="0"
           d="m 499.11,423.41 v 15.632 l -11.057,-11.057 -1.6267,1.6267 11.057,11.057 h -15.632 v 2.313 h 15.606 l -11.031,11.031 1.6267,1.6267 11.057,-11.057 v 15.632 h 2.2876 v -15.632 l 11.057,11.057 1.6267,-1.6267 -11.031,-11.031 h 15.606 v -2.313 h -15.632 l 11.057,-11.057 -1.6267,-1.6267 -11.057,11.057 V 423.41 H 499.11 z"
           id="path1049" />
        <path
           style="fill:#000000;stroke:#333333;stroke-width:0.66660297;stroke-linecap:round;stroke-linejoin:round;stroke-miterlimit:4;stroke-dasharray:none"
           inkscape:connector-curvature="0"
           d="m 506.01,441.82 a 5.7605,5.7605 0 1 1 -11.521,0 5.7605,5.7605 0 1 1 11.521,0 z"
           id="path1053" />
        <path
           style="fill:#000000;stroke:#333333;stroke-width:0.66660297;stroke-linecap:round;stroke-linejoin:round;stroke-miterlimit:4;stroke-dasharray:none"
           inkscape:connector-curvature="0"
           d="m 499.19,421.09 c -10.956,0.55535 -19.656,9.625 -19.656,20.719 0,11.452 9.2671,20.75 20.719,20.75 11.452,0 20.75,-9.2984 20.75,-20.75 0,-11.4516 -9.2984,-20.719 -20.75,-20.719 -0.35786,0 -0.70909,-0.0179 -1.0625,0 z m 1.0625,4.2188 c 9.119,0 16.5,7.381 16.5,16.5 0,9.119 -7.381,16.531 -16.5,16.531 -9.119,0 -16.5,-7.4122 -16.5,-16.531 0,-9.119 7.381,-16.5 16.5,-16.5 z"
           id="path1051" />
        <path
           style="fill:#000000;stroke:#333333;stroke-width:0.66660297;stroke-miterlimit:4;stroke-dasharray:none"
           inkscape:connector-curvature="0"
           d="m 411.66,400.12 c 8.3202,3.7609 11.639,15.345 13.934,20.237 2.2955,4.8925 5.9325,10.238 2.9933,10.371 -2.9393,0.13249 -4.6214,-3.885 -6.4995,-8.6039 -1.8782,-4.7188 -4.4565,-10.396 -8.7029,-14.916 -4.0426,-4.3029 -12.452,-3.4457 -13.335,-5.1735 -1.8582,-3.6386 7.4375,-3.8006 11.609,-1.9149 z"
           id="path868" />
        <path
           style="fill:#000000;stroke:#333333;stroke-width:0.66660297;stroke-miterlimit:4;stroke-dasharray:none"
           inkscape:connector-curvature="0"
           d="m 400.63,426.37 c 6.8327,-2.0611 14.085,-2.4623 21.052,-2.7076 7.8423,-0.2761 15.872,1.7959 26.964,1.7959 25.709,0.21632 76.195,0 76.195,0 2.4065,0 2.4035,3.4958 0.0273,3.4958 h -81.916 c -7.2361,0 -14.25,-0.45744 -22.031,0.1589 -6.3696,0.50458 -12.386,2.0682 -18.567,3.1382 -2.254,0.39018 -5.159,-4.845 -1.7239,-5.8812 z"
           id="path924" />
        <rect
           style="fill:#000000;stroke:#333333;stroke-width:0.66660297;stroke-miterlimit:4;stroke-dasharray:none"
           x="488.29999"
           y="400.48001"
           width="1.9664"
           height="6.8540001"
           ry="0.78135997"
           rx="1.095"
           id="rect1065" />
        <path
           style="fill:#000000;stroke:#333333;stroke-width:0.66660297;stroke-linecap:round;stroke-linejoin:round;stroke-miterlimit:4;stroke-dasharray:none"
           inkscape:connector-curvature="0"
           d="m 488.94,404.91 c -5.8579,0 -10.562,4.7046 -10.562,10.562 v 26.344 h 4.5312 v -26.344 c 0,-3.4343 2.597,-6.0625 6.0313,-6.0625 h 0.6875 c 3.4343,0 6.0625,2.6282 6.0625,6.0625 v 10 h 4.5 v -10 c 0,-5.8579 -4.7046,-10.563 -10.563,-10.563 H 488.94 z"
           id="path1067" />
        <path
           style="fill:#000000;stroke:#333333;stroke-width:0.66660297;stroke-linecap:round;stroke-linejoin:round;stroke-miterlimit:4;stroke-dasharray:none"
           inkscape:connector-curvature="0"
           d="m 476.25,419.19 v 19.219 l -13.594,-13.594 -2,2 13.594,13.594 h -19.219 v 2.8438 h 19.188 l -13.562,13.562 2,2 13.594,-13.594 v 19.219 h 2.8125 v -19.219 l 13.594,13.594 2,-2 -13.562,-13.562 h 19.188 v -2.8438 h -19.219 l 13.594,-13.594 -2,-2 -13.594,13.594 V 419.19 h -2.8125 z"
           id="rect843" />
        <path
           style="fill:#000000;stroke:#333333;stroke-width:0.66660297;stroke-linecap:round;stroke-linejoin:round;stroke-miterlimit:4;stroke-dasharray:none"
           inkscape:connector-curvature="0"
           d="m 477.66,416.34 c -14.079,0 -25.5,11.389 -25.5,25.469 0,14.079 11.421,25.5 25.5,25.5 14.079,0 25.5,-11.421 25.5,-25.5 0,-14.079 -11.421,-25.469 -25.5,-25.469 z m 0,5.1875 c 11.211,0 20.281,9.0698 20.281,20.281 0,11.2112 -9.0698,20.312 -20.281,20.312 -11.2112,0 -20.312,-9.1011 -20.312,-20.312 0,-11.2109 9.1011,-20.281 20.312,-20.281 z"
           id="path829" />
        <path
           style="fill:#000000;stroke:#333333;stroke-width:0.66660297;stroke-linecap:round;stroke-linejoin:round;stroke-miterlimit:4;stroke-dasharray:none"
           inkscape:connector-curvature="0"
           d="m 484.73,441.82 a 7.0822,7.0822 0 1 1 -14.164,0 7.0822,7.0822 0 1 1 14.164,0 z"
           id="path833" />
        <path
           style="fill:#000000;stroke:#333333;stroke-width:0.66660297;stroke-linecap:round;stroke-linejoin:round;stroke-miterlimit:4;stroke-dasharray:none"
           inkscape:connector-curvature="0"
           d="m 482.45,441.82 a 4.8006,4.8006 0 1 1 -9.6012,0 4.8006,4.8006 0 1 1 9.6012,0 z"
           id="path835" />
        <path
           style="fill:#000000;stroke:#333333;stroke-width:0.66660297;stroke-linecap:round;stroke-linejoin:round;stroke-miterlimit:4;stroke-dasharray:none"
           inkscape:connector-curvature="0"
           d="m 480.01,441.82 a 2.3616,2.3616 0 1 1 -4.7232,0 2.3616,2.3616 0 1 1 4.7232,0 z"
           id="path837" />
        <path
           style="fill:#000000;stroke:#333333;stroke-width:0.66660297;stroke-miterlimit:4;stroke-dasharray:none"
           inkscape:connector-curvature="0"
           d="m 477.65,416.33 v 5.1927"
           id="path861" />
        <path
           style="fill:#000000;stroke:#333333;stroke-width:0.66660297;stroke-miterlimit:4;stroke-dasharray:none"
           inkscape:connector-curvature="0"
           d="m 477.65,467.31 v -5.1927"
           id="path863" />
        <path
           style="fill:#000000;stroke:#333333;stroke-width:0.66660297;stroke-miterlimit:4;stroke-dasharray:none"
           inkscape:connector-curvature="0"
           d="m 503.14,441.82 h -5.1927"
           id="path865" />
        <path
           style="fill:#000000;stroke:#333333;stroke-width:0.66660297;stroke-miterlimit:4;stroke-dasharray:none"
           inkscape:connector-curvature="0"
           d="m 452.16,441.82 h 5.1927"
           id="path867" />
        <path
           style="fill:#000000;stroke:#333333;stroke-width:0.66660297;stroke-miterlimit:4;stroke-dasharray:none"
           inkscape:connector-curvature="0"
           d="m 500.25,421.08 v 4.2236"
           id="path1057" />
        <path
           style="fill:#000000;stroke:#333333;stroke-width:0.66660297;stroke-miterlimit:4;stroke-dasharray:none"
           inkscape:connector-curvature="0"
           d="m 500.25,462.55 v -4.2236"
           id="path1059" />
        <path
           style="fill:#000000;stroke:#333333;stroke-width:0.66660297;stroke-miterlimit:4;stroke-dasharray:none"
           inkscape:connector-curvature="0"
           d="m 520.99,441.82 h -4.2236"
           id="path1061" />
        <path
           style="fill:#000000;stroke:#333333;stroke-width:0.66660297;stroke-miterlimit:4;stroke-dasharray:none"
           inkscape:connector-curvature="0"
           d="m 428.07,452.08 c -4.286,-3.0266 -7.918,-6.951 -9.8058,-12.445"
           id="path1071" />
        <path
           style="fill:#000000;stroke:#333333;stroke-width:0.66660297;stroke-miterlimit:4;stroke-dasharray:none"
           inkscape:connector-curvature="0"
           d="m 430.08,450.11 -5.7988,5.6898"
           id="path1026" />
        <path
           style="fill:#000000;stroke:#333333;stroke-width:0.66660297;stroke-miterlimit:4;stroke-dasharray:none"
           inkscape:connector-curvature="0"
           d="m 392.43,401.2 c 10.133,2.5634 16.204,14.949 19.775,20 3.5714,5.0511 8.7456,10.343 5.4602,11.084 -3.2855,0.74086 -5.9895,-3.4478 -9.0556,-8.3871 -3.0661,-4.9394 -7.1141,-10.818 -12.809,-15.056 -5.4215,-4.0351 -14.725,-1.3766 -16.067,-3.146 -2.8263,-3.7262 7.6161,-5.7796 12.696,-4.4943 z"
           id="path866" />
        <path
           style="fill:#000000;stroke:#333333;stroke-width:0.66660297;stroke-linecap:round;stroke-linejoin:round;stroke-miterlimit:4;stroke-dasharray:none"
           inkscape:connector-curvature="0"
           d="m 402.41,407.56 c 0.8857,0.92883 1.7464,1.9127 2.5312,2.9062 h 11.285 c 1.007,0 1.8125,-0.6654 1.8125,-1.4688 0,-0.80335 -0.80546,-1.4375 -1.8125,-1.4375 z m 6.7188,8.9062 c 0.66824,1.0414 1.2796,1.9966 1.8438,2.875 h 9.9923 c 1.007,0 1.8125,-0.63415 1.8125,-1.4375 0,-0.80335 -0.80546,-1.4375 -1.8125,-1.4375 z"
           id="rect889" />
      </g>
      <path
         sodipodi:nodetypes="cc"
         id="path4322"
         d="m 469.33895,239.82793 c 25.55211,27.15458 41.79803,13.85977 59.46059,6.72254"
         style="fill:#000000;stroke:#333333;stroke-width:2;stroke-linecap:round;stroke-linejoin:round;stroke-miterlimit:4;stroke-opacity:1;stroke-dasharray:none"
         inkscape:connector-curvature="0" />
      <path
         id="path4310"
         d="m 531.94952,285.7961 c 0,0 -4.70761,18.41848 -13.85133,26.56651 -1.03218,0.9198 -3.37595,2.65752 -5.25598,0.39764 -1.58342,2.42351 -5.5168,1.97309 -6.0624,0.47617 -1.74753,2.31841 -5.98427,1.97716 -5.82272,-1.10377 -2.00229,1.58817 -5.5007,-0.66619 -4.63577,-2.13242 2.44384,-4.14275 10.16667,-13.66361 8.18223,-16.11017 -1.98444,-2.44654 -10.71256,2.96802 -11.37614,-0.82254 -0.66365,-3.79045 5.35378,-5.94773 11.29689,-7.53267 5.94302,-1.58481 6.59917,-6.72031 6.59917,-6.72031 0,0 14.53702,3.0638 20.92605,6.98156 z"
         i:knockout="Off"
         style="fill:#000000;fill-opacity:1;stroke:#333333;stroke-width:2;stroke-linecap:round;stroke-linejoin:round;stroke-miterlimit:4;stroke-opacity:1;stroke-dasharray:none"
         sodipodi:nodetypes="cscccsssscc"
         inkscape:connector-curvature="0" />
      <path
         sodipodi:nodetypes="csccsc"
         style="fill:#000000;fill-opacity:1;stroke:#333333;stroke-width:2;stroke-linecap:round;stroke-linejoin:round;stroke-miterlimit:4;stroke-opacity:1;stroke-dasharray:none"
         i:knockout="Off"
         d="m 532.66608,167.51787 c 11.3351,4.67793 34.02706,56.90603 32.19295,64.7203 -1.83409,7.81429 -0.47436,19.03374 -26.92042,54.30626 0,0 -24.13865,6.61628 -27.82772,-8.21318 0,0 11.97623,-32.18767 13.19092,-43.52615 0.57109,-5.33065 -19.52105,-19.97264 -20.86852,-40.66878"
         id="path4290"
         inkscape:connector-curvature="0" />
      <path
         sodipodi:nodetypes="ccc"
         id="path3396"
         d="m 447.98828,118.82496 c 4.0252,0.39292 5.12075,1.31599 5.67394,2.0052 -0.81007,0.39553 -1.92986,0.7919 -5.68643,1.18858"
         style="fill:#000000;stroke:#333333;stroke-width:2;stroke-linecap:round;stroke-linejoin:round;stroke-miterlimit:4;stroke-opacity:1;stroke-dasharray:none"
         inkscape:connector-curvature="0" />
      <path
         sodipodi:nodetypes="csssc"
         id="path3398"
         d="m 449.09922,120.54989 c 0,0.12626 0.0379,0.22819 0.0487,0.22819 0.0102,0 0.0341,-0.10235 0.0341,-0.22819 0,-0.12627 -0.0231,-0.2282 -0.0341,-0.2282 -0.0102,0 -0.0487,0.10215 -0.0487,0.2282 z"
         style="fill:#000000;fill-rule:evenodd;stroke:#333333;stroke-width:2;stroke-linecap:round;stroke-linejoin:round;stroke-miterlimit:4;stroke-opacity:1;stroke-dasharray:none"
         inkscape:connector-curvature="0" />
      <path
         sodipodi:nodetypes="cc"
         id="path3989"
         d="m 458.01862,147.57894 c 3.31887,-0.37028 9.0288,-0.3184 13.05107,-3.85274"
         style="fill:#000000;stroke:#333333;stroke-width:2;stroke-linecap:round;stroke-linejoin:round;stroke-miterlimit:4;stroke-opacity:1;stroke-dasharray:none"
         inkscape:connector-curvature="0" />
      <path
         style="fill:#000000;stroke:#333333;stroke-width:2;stroke-linecap:round;stroke-linejoin:round;stroke-miterlimit:4;stroke-opacity:1;stroke-dasharray:none"
         d="m 466.24278,118.46953 c -23.59653,-7.67683 -49.95424,-17.61236 -56.20442,-24.540697 0.78514,-2.10776 8.33275,-3.344018 11.36049,-3.402975 23.81511,-0.46366 43.42827,7.088268 59.66018,12.148882 9.12861,2.84605 23.12663,2.3839 46.53877,18.46635 3.07902,2.11504 10.01311,5.61066 7.28125,9.64333 -22.70716,-0.29392 -47.11784,-5.31413 -68.63627,-12.31489 z"
         id="path4856"
         sodipodi:nodetypes="ccssscs"
         inkscape:connector-curvature="0" />
      <path
         style="fill:#000000;stroke:#333333;stroke-width:2;stroke-linecap:round;stroke-linejoin:round;stroke-miterlimit:4;stroke-opacity:1;stroke-dasharray:none"
         d="m 446.11519,99.528758 c -3.5865,4.841622 50.3161,20.620312 51.20407,16.448552 3.4653,-16.280091 -4.81802,-18.770483 -15.5395,-22.90534 -14.29369,-5.512522 -28.6505,-3.011815 -35.66457,6.456788 z"
         id="path4858"
         sodipodi:nodetypes="csss"
         inkscape:connector-curvature="0" />
      <path
         sodipodi:nodetypes="cc"
         id="path5851"
         d="m 501.07856,312.36924 6.91734,-10.81958"
         style="fill:#000000;stroke:#333333;stroke-width:2;stroke-linecap:round;stroke-linejoin:round;stroke-miterlimit:4;stroke-opacity:1;stroke-dasharray:none"
         inkscape:connector-curvature="0" />
      <path
         sodipodi:nodetypes="cc"
         id="path5853"
         d="m 507.16019,312.89013 6.09901,-9.84868"
         style="fill:#000000;stroke:#333333;stroke-width:2;stroke-linecap:round;stroke-linejoin:round;stroke-miterlimit:4;stroke-opacity:1;stroke-dasharray:none"
         inkscape:connector-curvature="0" />
      <path
         sodipodi:nodetypes="cc"
         id="path5855"
         d="m 512.97964,312.585 5.55006,-8.85155"
         style="fill:#000000;stroke:#333333;stroke-width:2;stroke-linecap:round;stroke-linejoin:round;stroke-miterlimit:4;stroke-opacity:1;stroke-dasharray:none"
         inkscape:connector-curvature="0" />
    </g>
  </g>
  <g
     inkscape:groupmode="layer"
     id="layer1"
     inkscape:label="Cover"
     style="display:inline"
     sodipodi:insensitive="true">
    <path
       d="m 2,2 v 257 c 0,286 298,398 298,398 0,0 298,-112 298,-398 V 2 z"
       id="shine"
       inkscape:connector-curvature="0"
       style="fill:url(#radialGradient3074);stroke:#000000;stroke-width:3" />
  </g>
</svg>
