<?xml version="1.0" encoding="UTF-8" standalone="no"?>
<svg
   xmlns:dc="http://purl.org/dc/elements/1.1/"
   xmlns:cc="http://creativecommons.org/ns#"
   xmlns:rdf="http://www.w3.org/1999/02/22-rdf-syntax-ns#"
   xmlns:svg="http://www.w3.org/2000/svg"
   xmlns="http://www.w3.org/2000/svg"
   xmlns:xlink="http://www.w3.org/1999/xlink"
   xmlns:sodipodi="http://sodipodi.sourceforge.net/DTD/sodipodi-0.dtd"
   xmlns:inkscape="http://www.inkscape.org/namespaces/inkscape"
   width="600"
   height="600"
   id="svg2"
   version="1.1"
   inkscape:version="0.48.2 r9819"
   sodipodi:docname="House_Dayne.svg">
  <metadata
     id="metadata56">
    <rdf:RDF>
      <cc:Work
         rdf:about="">
        <dc:format>image/svg+xml</dc:format>
        <dc:type
           rdf:resource="http://purl.org/dc/dcmitype/StillImage" />
        <dc:title />
      </cc:Work>
    </rdf:RDF>
  </metadata>
  <sodipodi:namedview
     pagecolor="#ffffff"
     bordercolor="#666666"
     borderopacity="1"
     objecttolerance="10"
     gridtolerance="10"
     guidetolerance="10"
     inkscape:pageopacity="0"
     inkscape:pageshadow="2"
     inkscape:window-width="1366"
     inkscape:window-height="715"
     id="namedview54"
     showgrid="false"
     inkscape:zoom="0.55625733"
     inkscape:cx="123.63207"
     inkscape:cy="240.9759"
     inkscape:window-x="-8"
     inkscape:window-y="-8"
     inkscape:window-maximized="1"
     inkscape:current-layer="svg2" />
  <defs
     id="defs4">
    <radialGradient
       id="rg"
       gradientUnits="userSpaceOnUse"
       cx="220"
       cy="220"
       r="405">
      <stop
         style="stop-color:#fff;stop-opacity:.3"
         offset="0"
         id="stop7" />
      <stop
         style="stop-color:#fff;stop-opacity:.2"
         offset=".2"
         id="stop9" />
      <stop
         style="stop-color:#666;stop-opacity:.1"
         offset=".6"
         id="stop11" />
      <stop
         style="stop-color:#000;stop-opacity:.13"
         offset="1"
         id="stop13" />
    </radialGradient>
    <circle
       id="shield"
       cx="300"
       cy="300"
       r="298" />
    <path
       id="tail2"
       fill="none"
       stroke="#fff"
       stroke-width="5"
       stroke-linecap="round"
       d="M110,300 A400,400 0,0,1 500,300" />
    <path
       id="tail3"
       fill="none"
       stroke="#fff"
       stroke-width="5"
       stroke-linecap="round"
       d="M120,300 A400,400 0,0,1 500,300" />
    <path
       id="tail4"
       fill="none"
       stroke="#fff"
       stroke-width="5"
       stroke-linecap="round"
       d="M130,300 A400,400 0,0,1 500,300" />
    <radialGradient
       id="rg-1"
       gradientUnits="userSpaceOnUse"
       cx="220"
       cy="220"
       r="405">
      <stop
         style="stop-color:#fff;stop-opacity:.3"
         offset="0"
         id="stop7-7" />
      <stop
         style="stop-color:#fff;stop-opacity:.2"
         offset=".2"
         id="stop9-4" />
      <stop
         style="stop-color:#666;stop-opacity:.1"
         offset=".6"
         id="stop11-0" />
      <stop
         style="stop-color:#000;stop-opacity:.13"
         offset="1"
         id="stop13-9" />
    </radialGradient>
    <radialGradient
       id="radialGradient3023"
       gradientUnits="userSpaceOnUse"
       cx="220"
       cy="220"
       r="405">
      <stop
         style="stop-color:#fff;stop-opacity:.3"
         offset="0"
         id="stop3025" />
      <stop
         style="stop-color:#fff;stop-opacity:.2"
         offset=".2"
         id="stop3027" />
      <stop
         style="stop-color:#666;stop-opacity:.1"
         offset=".6"
         id="stop3029" />
      <stop
         style="stop-color:#000;stop-opacity:.13"
         offset="1"
         id="stop3031" />
    </radialGradient>
  </defs>
  <use
     height="1052.3622"
     width="744.09448"
     y="0"
     x="0"
     id="background"
     xlink:href="#shield"
     style="fill:#b378d4;fill-opacity:1" />
  <path
     style="fill:none;stroke:#ffffff;stroke-width:5;stroke-linecap:round"
     inkscape:connector-curvature="0"
     d="M 158.57864,158.57864 A 400,400 0 0 1 441.42136,441.42135"
     id="tail" />
  <use
     height="600"
     width="600"
     y="0"
     x="0"
     id="use23"
     transform="matrix(0.74663819,0.66523035,-0.66523035,0.74663819,267.67137,-115.18528)"
     xlink:href="#tail4" />
  <use
     height="600"
     width="600"
     y="0"
     x="0"
     id="use25"
     transform="matrix(0.73372987,0.67944131,-0.67944131,0.73372987,278.38881,-118.41826)"
     xlink:href="#tail3" />
  <use
     height="600"
     width="600"
     y="0"
     x="0"
     id="use27"
     transform="matrix(0.72055111,0.69340183,-0.69340183,0.72055111,289.16635,-121.44489)"
     xlink:href="#tail2" />
  <use
     height="600"
     width="600"
     y="0"
     x="0"
     id="use29"
     transform="matrix(0.99939083,0.0348995,-0.0348995,0.99939083,15.67428,-15.13648)"
     xlink:href="#tail" />
  <use
     height="600"
     width="600"
     y="0"
     x="0"
     id="use31"
     transform="matrix(0.99756405,0.06975647,-0.06975647,0.99756405,31.867276,-29.71671)"
     xlink:href="#tail" />
  <use
     height="600"
     width="600"
     y="0"
     x="0"
     id="use33"
     transform="matrix(0.9945219,0.10452846,-0.10452846,0.9945219,48.559249,-43.72294)"
     xlink:href="#tail" />
  <path
     style="fill:#c8a2c8;fill-opacity:1;stroke:#c8a2c8;stroke-opacity:1"
     inkscape:connector-curvature="0"
     id="path35"
     d="m 499.41253,442.4336 -105.50217,32.25547 66.39413,-88.10799 -1.9254,110.30616 -63.27876,-90.37143 z" />
  <path
     style="fill:#ffffff"
     inkscape:connector-curvature="0"
     id="path37"
     d="m 491.41374,442.29398 -90.95014,27.80644 57.23632,-75.95516 -1.65983,95.09151 -54.55065,-77.9064 z" />
  <path
     style="fill:#aaaaaa;stroke:#555555;stroke-width:2"
     inkscape:connector-curvature="0"
     id="path39"
     d="m 138.67846,448.74151 c -12.79843,21.12686 -7.52764,26.39765 13.39538,13.39539 20.92301,-13.00226 43.0254,-32.65853 55.61997,-53.98923 12.59457,-21.33069 5.48919,-28.43606 -15.8415,-15.84149 -21.3307,12.59457 -40.37544,35.30848 -53.17385,56.43533 z" />
  <path
     style="fill:#ffffff;stroke:#c8a2c8;stroke-width:2;stroke-opacity:1"
     inkscape:connector-curvature="0"
     id="path41"
     d="m 191.09868,382.27829 26.62302,26.62303 244.17871,-251.8925 11.98673,-30.89598 -30.89597,11.98674 -251.89249,244.17871 z" />
  <path
     style="fill:#555555"
     inkscape:connector-curvature="0"
     id="path43"
     d="M 205.35731,392.06011 442.2522,157.08794 209.21421,395.91701 l -3.8569,-3.8569 z" />
  <path
     style="fill:#555555"
     inkscape:connector-curvature="0"
     id="path45"
     d="m 132.14938,458.91662 c 0.22592,-0.5434 0.45008,-1.07813 0.68798,-1.60526 l 20.21865,5.33812 c -0.67279,0.41788 -1.34858,0.82607 -2.02569,1.23581 l -18.88094,-4.96867 z m 4.61194,-9.09649 c 0.29899,-0.51444 0.60098,-1.02952 0.90456,-1.54156 l 26.46135,6.96887 c -0.61456,0.44108 -1.22787,0.87845 -1.84733,1.31224 l -25.51858,-6.73955 z m 5.46554,-8.85441 c 0.33173,-0.50866 0.65729,-1.02313 0.99374,-1.52883 l 30.88218,8.15371 c -0.55102,0.45345 -1.10005,0.90332 -1.65622,1.35046 l -30.2197,-7.97534 z m 6.0261,-8.72704 c 0.36244,-0.4948 0.72848,-0.9865 1.09566,-1.47786 l 33.77422,8.90539 c -0.49383,0.46483 -0.99143,0.92948 -1.49063,1.38866 l -33.37926,-8.8162 z m 6.66313,-8.54865 c 0.39997,-0.48483 0.7926,-0.97174 1.19757,-1.45238 l 35.12466,9.26211 c -0.44653,0.48103 -0.89821,0.9511 -1.35049,1.42686 l -34.97179,-9.23663 z m 7.32559,-8.3703 c 0.44603,-0.477 0.89917,-0.9549 1.35049,-1.42686 l 34.92083,9.21114 c -0.3972,0.49154 -0.8073,0.97834 -1.21032,1.46512 l -35.06097,-9.24936 z m 8.15371,-8.15371 c 0.49647,-0.46381 0.9885,-0.93094 1.49062,-1.38866 l 33.06077,8.72703 c -0.11473,0.1802 -0.23032,0.36819 -0.34399,0.54783 -0.22901,0.32503 -0.45639,0.64511 -0.68797,0.96825 l -33.51941,-8.85443 z m 9.09649,-7.89891 c 0.58732,-0.43437 1.17734,-0.8755 1.77088,-1.31224 l 29.16227,7.68233 c -0.29116,0.52244 -0.58776,1.03833 -0.89181,1.5543 l -30.04134,-7.92439 z" />
  <path
     style="fill:#dddddd;stroke:#555555;stroke-width:2"
     inkscape:connector-curvature="0"
     id="path47"
     d="m 175.31259,358.69579 65.99161,65.99161 -8.74912,8.74912 -65.99161,-65.99161 z" />
  <path
     style="fill:#dddddd;stroke:#555555;stroke-width:2"
     inkscape:connector-curvature="0"
     id="path49"
     d="m 150.46177,473.01223 a 16.59863,16.59863 0 1 0 -23.47402,-23.474 16.59863,16.59863 0 0 0 23.47402,23.474 z" />
  <path
     style="fill:#ffffff;stroke:#555555;stroke-width:2"
     inkscape:connector-curvature="0"
     id="path51"
     d="m 143.6785,466.22894 a 7.0056539,7.0056539 0 1 0 -9.90749,-9.90748 7.0056539,7.0056539 0 1 0 9.90749,9.90748 z" />
  <use
     height="1052.3622"
     width="744.09448"
     y="0"
     x="0"
     style="fill:url(#rg-1);stroke:#000000;stroke-width:3"
     id="shine"
     xlink:href="#shield" />
</svg>
