<?xml version="1.0" encoding="UTF-8" standalone="no"?>
<svg
   xmlns:dc="http://purl.org/dc/elements/1.1/"
   xmlns:cc="http://creativecommons.org/ns#"
   xmlns:rdf="http://www.w3.org/1999/02/22-rdf-syntax-ns#"
   xmlns:svg="http://www.w3.org/2000/svg"
   xmlns="http://www.w3.org/2000/svg"
   xmlns:xlink="http://www.w3.org/1999/xlink"
   xmlns:sodipodi="http://sodipodi.sourceforge.net/DTD/sodipodi-0.dtd"
   xmlns:inkscape="http://www.inkscape.org/namespaces/inkscape"
   width="600"
   height="660"
   id="svg2"
   version="1.1"
   inkscape:version="0.48.2 r9819"
   sodipodi:docname="House_Goodbrother.svg">
  <metadata
     id="metadata51">
    <rdf:RDF>
      <cc:Work
         rdf:about="">
        <dc:format>image/svg+xml</dc:format>
        <dc:type
           rdf:resource="http://purl.org/dc/dcmitype/StillImage" />
        <dc:title></dc:title>
      </cc:Work>
    </rdf:RDF>
  </metadata>
  <sodipodi:namedview
     pagecolor="#ffffff"
     bordercolor="#666666"
     borderopacity="1"
     objecttolerance="10"
     gridtolerance="10"
     guidetolerance="10"
     inkscape:pageopacity="0"
     inkscape:pageshadow="2"
     inkscape:window-width="1366"
     inkscape:window-height="715"
     id="namedview49"
     showgrid="false"
     inkscape:zoom="0.50568848"
     inkscape:cx="137.64682"
     inkscape:cy="302.6557"
     inkscape:window-x="-8"
     inkscape:window-y="-8"
     inkscape:window-maximized="1"
     inkscape:current-layer="svg2" />
  <defs
     id="defs4">
    <radialGradient
       id="rg"
       gradientUnits="userSpaceOnUse"
       cx="220"
       cy="220"
       r="405">
      <stop
         style="stop-color:#fff;stop-opacity:.3"
         offset="0"
         id="stop7" />
      <stop
         style="stop-color:#fff;stop-opacity:.2"
         offset=".2"
         id="stop9" />
      <stop
         style="stop-color:#666;stop-opacity:.1"
         offset=".6"
         id="stop11" />
      <stop
         style="stop-color:#000;stop-opacity:.13"
         offset="1"
         id="stop13" />
    </radialGradient>
    <clipPath
       id="clip-shield">
      <path
         id="shield"
         d="m2,2v257c0,286 298,398 298,398c0,0 298-112 298-398V2z" />
    </clipPath>
    <radialGradient
       id="rg-1"
       gradientUnits="userSpaceOnUse"
       cx="220"
       cy="220"
       r="405">
      <stop
         style="stop-color:#fff;stop-opacity:.3"
         offset="0"
         id="stop7-7" />
      <stop
         style="stop-color:#fff;stop-opacity:.2"
         offset=".2"
         id="stop9-4" />
      <stop
         style="stop-color:#666;stop-opacity:.1"
         offset=".6"
         id="stop11-0" />
      <stop
         style="stop-color:#000;stop-opacity:.13"
         offset="1"
         id="stop13-9" />
    </radialGradient>
    <radialGradient
       id="radialGradient3027"
       gradientUnits="userSpaceOnUse"
       cx="220"
       cy="220"
       r="405">
      <stop
         style="stop-color:#fff;stop-opacity:.3"
         offset="0"
         id="stop3029" />
      <stop
         style="stop-color:#fff;stop-opacity:.2"
         offset=".2"
         id="stop3031" />
      <stop
         style="stop-color:#666;stop-opacity:.1"
         offset=".6"
         id="stop3033" />
      <stop
         style="stop-color:#000;stop-opacity:.13"
         offset="1"
         id="stop3035" />
    </radialGradient>
    <radialGradient
       r="405"
       cy="220"
       cx="220"
       gradientUnits="userSpaceOnUse"
       id="radialGradient3485"
       xlink:href="#rg-7-8"
       inkscape:collect="always"
       gradientTransform="translate(2,0)" />
    <radialGradient
       id="rg-7-8"
       gradientUnits="userSpaceOnUse"
       cx="220"
       cy="220"
       r="405">
      <stop
         style="stop-color:#fff;stop-opacity:.3"
         offset="0"
         id="stop5-4-2" />
      <stop
         style="stop-color:#fff;stop-opacity:.2"
         offset=".2"
         id="stop7-0-4" />
      <stop
         style="stop-color:#666;stop-opacity:.1"
         offset=".6"
         id="stop9-9-5" />
      <stop
         style="stop-color:#000;stop-opacity:.13"
         offset="1"
         id="stop11-4-5" />
    </radialGradient>
    <radialGradient
       r="405"
       cy="220"
       cx="220"
       gradientTransform="translate(2,0)"
       gradientUnits="userSpaceOnUse"
       id="radialGradient3094"
       xlink:href="#rg-7-8"
       inkscape:collect="always" />
    <radialGradient
       r="405"
       cy="220"
       cx="220"
       gradientTransform="translate(2,0)"
       gradientUnits="userSpaceOnUse"
       id="radialGradient3094-1"
       xlink:href="#rg-7-8-7"
       inkscape:collect="always" />
    <radialGradient
       id="rg-7-8-7"
       gradientUnits="userSpaceOnUse"
       cx="220"
       cy="220"
       r="405">
      <stop
         style="stop-color:#fff;stop-opacity:.3"
         offset="0"
         id="stop5-4-2-4" />
      <stop
         style="stop-color:#fff;stop-opacity:.2"
         offset=".2"
         id="stop7-0-4-0" />
      <stop
         style="stop-color:#666;stop-opacity:.1"
         offset=".6"
         id="stop9-9-5-9" />
      <stop
         style="stop-color:#000;stop-opacity:.13"
         offset="1"
         id="stop11-4-5-4" />
    </radialGradient>
    <linearGradient
       inkscape:collect="always"
       xlink:href="#grad1"
       id="linearGradient3102"
       gradientUnits="userSpaceOnUse"
       gradientTransform="scale(1.577772,0.63380513)"
       x1="78.877235"
       y1="178.07356"
       x2="301.40585"
       y2="178.07356" />
    <linearGradient
       id="grad1"
       x1="78.877235"
       y1="178.07356"
       x2="301.40585"
       y2="178.07356"
       gradientTransform="scale(1.577772,0.63380513)"
       gradientUnits="userSpaceOnUse">
      <stop
         offset="0"
         style="stop-color:#000000;stop-opacity:1;"
         id="stop16" />
      <stop
         offset="0.60000002"
         style="stop-color:#505050;stop-opacity:1;"
         id="stop20" />
      <stop
         offset="1"
         style="stop-color:#000000;stop-opacity:1;"
         id="stop22" />
    </linearGradient>
    <linearGradient
       y2="178.07356"
       x2="301.40585"
       y1="178.07356"
       x1="78.877235"
       gradientTransform="matrix(1.2941974,0,0,0.51989068,55.919303,-63.729152)"
       gradientUnits="userSpaceOnUse"
       id="linearGradient3180"
       xlink:href="#grad1"
       inkscape:collect="always" />
  </defs>
  <use
     id="shine"
     xlink:href="#shield"
     style="fill:#ffff00"
     x="0"
     y="0"
     width="1"
     height="1"
     transform="matrix(-1,0,0,1,602,0)" />
  <path
     inkscape:connector-curvature="0"
     d="m 460.86448,164.83173 c 0,0 4.8229,4.6577 10.64464,-1.37129 l 13.50412,13.04156 c -5.82177,6.02899 -2.05358,9.66813 2.136,13.7142 16.12144,17.19843 29.0758,9.40362 27.36981,-6.95825 2.96479,-0.93904 22.12022,-5.13011 49.84865,-20.2112 -2.58065,93.26411 -49.83024,118.52979 -123.90494,123.29641 21.94413,-30.5956 26.42505,-53.23776 26.50403,-54.5537 14.18102,1.53 19.67507,-14.40976 6.90883,-27.82717 -3.92736,-4.12768 -7.95778,-7.68521 -13.77954,-1.65622 l -13.50409,-13.04156 c 5.82177,-6.02899 0.99887,-10.68669 0.99887,-10.68669 l -7.71664,-7.45232 -12.11634,-1.44816 -8.13023,-31.15458 30.9682,8.46901 2.55217,10.38759 z"
     id="path4082"
     style="fill:#b7410e;stroke:#000000;stroke-width:2.99999976000000010;stroke-linecap:round;stroke-linejoin:round" />
  <path
     inkscape:connector-curvature="0"
     d="m 536.14515,110.03689 -29.25256,54.7462 c -4.61755,8.62816 -14.02589,10.60167 -21.87935,11.71891 l -13.50412,-13.04156 c 0.84244,-7.88817 2.48627,-17.36023 10.94748,-22.27637 l 53.68855,-31.14718 z"
     id="path4084"
     style="fill:#333333;stroke:#000000;stroke-width:2.99999976000000010" />
  <rect
     width="452.62064"
     height="18.773466"
     rx="4.9266047e-017"
     ry="1.0664739e-016"
     x="-174.09758"
     y="452.73099"
     transform="matrix(-0.69463605,0.71936135,0.71931823,0.6946807,0,0)"
     id="rect4086"
     style="fill:#333333;stroke:#000000;stroke-width:2.99999976000000010" />
  <path
     style="fill:#b7410e;stroke:#000000;stroke-width:2.99999976000000010;stroke-linecap:round;stroke-linejoin:round"
     id="path3081"
     d="m 143.13552,164.83173 c 0,0 -4.8229,4.6577 -10.64464,-1.37129 L 118.98676,176.502 c 5.82177,6.02899 2.05358,9.66813 -2.136,13.7142 -16.12144,17.19843 -29.075799,9.40362 -27.369806,-6.95825 -2.964792,-0.93904 -22.120224,-5.13011 -49.848655,-20.2112 2.580652,93.26411 49.83024,118.52979 123.904941,123.29641 -21.94413,-30.5956 -26.42505,-53.23776 -26.50403,-54.5537 -14.18101,1.53 -19.67507,-14.40976 -6.90883,-27.82717 3.92736,-4.12768 7.95778,-7.68521 13.77955,-1.65622 l 13.50408,-13.04156 c -5.82176,-6.02899 -0.99887,-10.68669 -0.99887,-10.68669 l 7.71664,-7.45232 12.11634,-1.44816 8.13023,-31.15458 -30.9682,8.46901 -2.55217,10.38759 z"
     inkscape:connector-curvature="0" />
  <path
     style="fill:#333333;stroke:#000000;stroke-width:2.99999976000000010"
     id="path3083"
     d="m 67.854853,110.03689 29.252557,54.7462 c 4.61755,8.62816 14.0259,10.60167 21.87935,11.71891 l 13.50412,-13.04156 c -0.84244,-7.88817 -2.48627,-17.36023 -10.94748,-22.27637 L 67.854853,110.03689 z"
     inkscape:connector-curvature="0" />
  <rect
     style="fill:#333333;stroke:#000000;stroke-width:2.99999976000000010"
     id="rect3085"
     transform="matrix(0.69463605,0.71936135,-0.71931823,0.6946807,0,0)"
     y="18.236736"
     x="245.48958"
     ry="1.0664739e-016"
     rx="4.9266047e-017"
     height="18.773466"
     width="452.62064" />
  <path
     inkscape:connector-curvature="0"
     style="fill:url(#linearGradient3180);stroke:#000000;stroke-width:1"
     id="path93"
     d="m 158.41216,43.618566 43.07636,100.511474 c 71.79391,-21.53818 129.22905,-21.53818 201.02296,0 L 445.58784,43.618566 395.3321,65.15673 c 21.53817,35.89695 -21.53819,57.43513 -43.07635,21.538163 -21.53818,21.538187 -43.07636,0 -35.89698,-14.358776 L 330.71757,57.977342 302,29.259766 273.28243,57.977342 287.64122,72.336117 C 294.82061,86.694893 273.28243,108.23308 251.74425,86.694893 230.20609,122.59186 187.12973,101.05368 208.6679,65.15673 L 158.41216,43.618566 z" />
  <path
     id="path4147"
     d="m 4,2 0,257 c 0,286 298,398 298,398 0,0 298,-112 298,-398 L 600,2 z"
     style="fill:url(#radialGradient3094-1);stroke:#000000;stroke-width:3"
     inkscape:connector-curvature="0" />
</svg>
