<?xml version="1.0" encoding="UTF-8" standalone="no"?>
<svg
   xmlns:dc="http://purl.org/dc/elements/1.1/"
   xmlns:cc="http://creativecommons.org/ns#"
   xmlns:rdf="http://www.w3.org/1999/02/22-rdf-syntax-ns#"
   xmlns:svg="http://www.w3.org/2000/svg"
   xmlns="http://www.w3.org/2000/svg"
   xmlns:xlink="http://www.w3.org/1999/xlink"
   xmlns:sodipodi="http://sodipodi.sourceforge.net/DTD/sodipodi-0.dtd"
   xmlns:inkscape="http://www.inkscape.org/namespaces/inkscape"
   width="600"
   height="660"
   id="svg2"
   version="1.1"
   inkscape:version="0.48.2 r9819"
   sodipodi:docname="Fiddler.svg">
  <metadata
     id="metadata24">
    <rdf:RDF>
      <cc:Work
         rdf:about="">
        <dc:format>image/svg+xml</dc:format>
        <dc:type
           rdf:resource="http://purl.org/dc/dcmitype/StillImage" />
        <dc:title />
      </cc:Work>
    </rdf:RDF>
  </metadata>
  <sodipodi:namedview
     pagecolor="#ffffff"
     bordercolor="#666666"
     borderopacity="1"
     objecttolerance="10"
     gridtolerance="10"
     guidetolerance="10"
     inkscape:pageopacity="0"
     inkscape:pageshadow="2"
     inkscape:window-width="1366"
     inkscape:window-height="715"
     id="namedview22"
     showgrid="false"
     inkscape:zoom="0.50568851"
     inkscape:cx="441.73398"
     inkscape:cy="254.9972"
     inkscape:window-x="-8"
     inkscape:window-y="-8"
     inkscape:window-maximized="1"
     inkscape:current-layer="layer2" />
  <defs
     id="defs4">
    <inkscape:path-effect
       is_visible="true"
       id="path-effect3136"
       effect="spiro" />
    <inkscape:path-effect
       effect="spiro"
       id="path-effect3132"
       is_visible="true" />
    <inkscape:path-effect
       effect="spiro"
       id="path-effect3101"
       is_visible="true" />
    <inkscape:path-effect
       is_visible="true"
       id="path-effect3085"
       effect="spiro" />
    <inkscape:path-effect
       is_visible="true"
       id="path-effect3083"
       effect="spiro" />
    <inkscape:path-effect
       is_visible="true"
       id="path-effect3081"
       effect="spiro" />
    <inkscape:path-effect
       is_visible="true"
       id="path-effect3079"
       effect="spiro" />
    <inkscape:path-effect
       is_visible="true"
       id="path-effect3077"
       effect="spiro" />
    <inkscape:path-effect
       is_visible="true"
       id="path-effect3075"
       effect="spiro" />
    <inkscape:path-effect
       effect="spiro"
       id="path-effect3049"
       is_visible="true" />
    <inkscape:path-effect
       is_visible="true"
       id="path-effect3045"
       effect="spiro" />
    <inkscape:path-effect
       effect="spiro"
       id="path-effect3041"
       is_visible="true" />
    <radialGradient
       id="rg"
       gradientUnits="userSpaceOnUse"
       cx="220"
       cy="220"
       r="405">
      <stop
         style="stop-color:#fff;stop-opacity:.3"
         offset="0"
         id="stop7" />
      <stop
         style="stop-color:#fff;stop-opacity:.2"
         offset=".2"
         id="stop9" />
      <stop
         style="stop-color:#666;stop-opacity:.1"
         offset=".6"
         id="stop11" />
      <stop
         style="stop-color:#000;stop-opacity:.13"
         offset="1"
         id="stop13" />
    </radialGradient>
    <path
       id="shield"
       d="m2,2v257c0,286 298,398 298,398c0,0 298-112 298-398V2z" />
    <radialGradient
       inkscape:collect="always"
       xlink:href="#rg-7"
       id="radialGradient3055-1"
       gradientUnits="userSpaceOnUse"
       cx="220"
       cy="220"
       r="405" />
    <radialGradient
       id="rg-7"
       gradientUnits="userSpaceOnUse"
       cx="220"
       cy="220"
       r="405">
      <stop
         style="stop-color:#fff;stop-opacity:.3"
         offset="0"
         id="stop7-4" />
      <stop
         style="stop-color:#fff;stop-opacity:.2"
         offset=".2"
         id="stop9-0" />
      <stop
         style="stop-color:#666;stop-opacity:.1"
         offset=".6"
         id="stop11-9" />
      <stop
         style="stop-color:#000;stop-opacity:.13"
         offset="1"
         id="stop13-4" />
    </radialGradient>
    <radialGradient
       r="405"
       cy="220"
       cx="220"
       gradientUnits="userSpaceOnUse"
       id="radialGradient3074"
       xlink:href="#rg-7"
       inkscape:collect="always" />
    <inkscape:path-effect
       is_visible="true"
       id="path-effect10120-1"
       effect="spiro" />
    <inkscape:path-effect
       effect="spiro"
       id="path-effect10118-3"
       is_visible="true" />
    <inkscape:path-effect
       effect="spiro"
       id="path-effect10116-9"
       is_visible="true" />
    <inkscape:path-effect
       effect="spiro"
       id="path-effect10114-7"
       is_visible="true" />
    <inkscape:path-effect
       effect="spiro"
       id="path-effect10112-7"
       is_visible="true" />
    <inkscape:path-effect
       effect="spiro"
       id="path-effect10110-2"
       is_visible="true" />
    <linearGradient
       inkscape:collect="always"
       xlink:href="#linearGradient4719-5"
       id="linearGradient4039"
       gradientUnits="userSpaceOnUse"
       gradientTransform="matrix(2.3257341,0,0,2.2943177,447.69485,-1820.2799)"
       x1="-145.25935"
       y1="984.24286"
       x2="-64.14286"
       y2="984.14789" />
    <linearGradient
       inkscape:collect="always"
       id="linearGradient4719-5">
      <stop
         style="stop-color:#666666;stop-opacity:1;"
         offset="0"
         id="stop4721-5" />
      <stop
         id="stop4809-1"
         offset="0.39344174"
         style="stop-color:#666666;stop-opacity:0.74901961;" />
      <stop
         style="stop-color:#666666;stop-opacity:0;"
         offset="1"
         id="stop4723-7" />
    </linearGradient>
    <radialGradient
       inkscape:collect="always"
       xlink:href="#linearGradient4801-8"
       id="radialGradient4041"
       gradientUnits="userSpaceOnUse"
       gradientTransform="matrix(-0.72153181,1.2650715,-2.2729984,-1.2616144,1712.0113,1733.7841)"
       cx="-307.14288"
       cy="782.36218"
       fx="-307.14288"
       fy="782.36218"
       r="63" />
    <linearGradient
       inkscape:collect="always"
       id="linearGradient4801-8">
      <stop
         style="stop-color:#000000;stop-opacity:1;"
         offset="0"
         id="stop4803-2" />
      <stop
         style="stop-color:#000000;stop-opacity:0;"
         offset="1"
         id="stop4805-4" />
    </linearGradient>
    <inkscape:path-effect
       effect="spiro"
       id="path-effect10108-4"
       is_visible="true" />
    <linearGradient
       inkscape:collect="always"
       xlink:href="#linearGradient4719-5"
       id="linearGradient4044"
       gradientUnits="userSpaceOnUse"
       gradientTransform="matrix(-2.4055369,0,0,-1.6485021,142.06168,1726.5307)"
       x1="-145.25935"
       y1="984.24286"
       x2="-64.14286"
       y2="984.14789" />
    <radialGradient
       inkscape:collect="always"
       xlink:href="#linearGradient4801-8"
       id="radialGradient4046"
       gradientUnits="userSpaceOnUse"
       gradientTransform="matrix(0.74628962,-0.90897301,2.3509914,0.90648896,-1165.637,-827.11785)"
       cx="-307.14288"
       cy="782.36218"
       fx="-307.14288"
       fy="782.36218"
       r="63" />
    <inkscape:path-effect
       effect="spiro"
       id="path-effect10102-7"
       is_visible="true" />
    <linearGradient
       inkscape:collect="always"
       xlink:href="#linearGradient4719-5"
       id="linearGradient4049"
       gradientUnits="userSpaceOnUse"
       gradientTransform="matrix(2.334989,0,0,-1.6146975,449.44065,1692.189)"
       x1="-145.25935"
       y1="984.24286"
       x2="-64.14286"
       y2="984.14789" />
    <radialGradient
       inkscape:collect="always"
       xlink:href="#linearGradient4801-8"
       id="radialGradient4051"
       gradientUnits="userSpaceOnUse"
       gradientTransform="matrix(-0.72440295,-0.89033332,-2.2820431,0.88790031,1718.7881,-809.09364)"
       cx="-307.14288"
       cy="782.36218"
       fx="-307.14288"
       fy="782.36218"
       r="63" />
    <inkscape:path-effect
       is_visible="true"
       id="path-effect10096-8"
       effect="spiro" />
    <linearGradient
       inkscape:collect="always"
       xlink:href="#linearGradient4719-5"
       id="linearGradient4054"
       gradientUnits="userSpaceOnUse"
       gradientTransform="matrix(-2.409599,0,0,2.2818507,139.61083,-1810.8163)"
       x1="-145.25935"
       y1="984.24286"
       x2="-64.14286"
       y2="984.14789" />
    <radialGradient
       inkscape:collect="always"
       xlink:href="#linearGradient4801-8"
       id="radialGradient4056"
       gradientUnits="userSpaceOnUse"
       gradientTransform="matrix(0.74754985,1.2581972,2.3549614,-1.2547588,-1170.296,1723.935)"
       cx="-307.14288"
       cy="782.36218"
       fx="-307.14288"
       fy="782.36218"
       r="63" />
    <inkscape:path-effect
       is_visible="true"
       id="path-effect10090-3"
       effect="spiro" />
    <inkscape:path-effect
       effect="spiro"
       id="path-effect10084-1"
       is_visible="true" />
    <inkscape:path-effect
       effect="spiro"
       id="path-effect10082-1"
       is_visible="true" />
    <radialGradient
       inkscape:collect="always"
       xlink:href="#linearGradient4801-8"
       id="radialGradient4061"
       gradientUnits="userSpaceOnUse"
       gradientTransform="matrix(-0.76516322,1.2901254,-2.4104477,-1.2865998,1806.8444,1757.4704)"
       cx="-307.14288"
       cy="782.36218"
       fx="-307.14288"
       fy="782.36218"
       r="63" />
    <inkscape:path-effect
       effect="spiro"
       id="path-effect10080-4"
       is_visible="true" />
    <inkscape:path-effect
       is_visible="true"
       id="path-effect3075-1"
       effect="spiro" />
    <inkscape:path-effect
       effect="spiro"
       id="path-effect3101-7"
       is_visible="true" />
    <linearGradient
       inkscape:collect="always"
       xlink:href="#grad1-7-7"
       id="linearGradient3085-8-8"
       gradientUnits="userSpaceOnUse"
       gradientTransform="matrix(0.77469594,0,0,0.30982404,152.68996,-13.619206)"
       x1="78.877235"
       y1="178.07356"
       x2="301.40585"
       y2="178.07356" />
    <linearGradient
       id="grad1-7-7"
       x1="78.877235"
       y1="178.07356"
       x2="301.40585"
       y2="178.07356"
       gradientTransform="scale(1.577772,0.63380513)"
       gradientUnits="userSpaceOnUse">
      <stop
         offset="0%"
         style="stop-color:#da0;"
         id="stop16-4-4" />
      <stop
         offset="40%"
         style="stop-color:#fd0;"
         id="stop18-0-0" />
      <stop
         offset="60%"
         style="stop-color:#fd0;"
         id="stop20-9-9" />
      <stop
         offset="100%"
         style="stop-color:#da0;"
         id="stop22-4-4" />
    </linearGradient>
    <linearGradient
       inkscape:collect="always"
       xlink:href="#grad1-7-7"
       id="linearGradient3081-8-8"
       gradientUnits="userSpaceOnUse"
       gradientTransform="matrix(0.77469594,0,0,0.30982404,-27.310046,-13.619206)"
       x1="78.877235"
       y1="178.07356"
       x2="301.40585"
       y2="178.07356" />
    <linearGradient
       id="linearGradient3093"
       x1="78.877235"
       y1="178.07356"
       x2="301.40585"
       y2="178.07356"
       gradientTransform="scale(1.577772,0.63380513)"
       gradientUnits="userSpaceOnUse">
      <stop
         offset="0%"
         style="stop-color:#da0;"
         id="stop3095" />
      <stop
         offset="40%"
         style="stop-color:#fd0;"
         id="stop3097" />
      <stop
         offset="60%"
         style="stop-color:#fd0;"
         id="stop3099" />
      <stop
         offset="100%"
         style="stop-color:#da0;"
         id="stop3101" />
    </linearGradient>
    <linearGradient
       y2="178.07356"
       x2="301.40585"
       y1="178.07356"
       x1="78.877235"
       gradientTransform="matrix(0.77469594,0,0,0.30982404,332.68995,-13.619206)"
       gradientUnits="userSpaceOnUse"
       id="linearGradient3128-1"
       xlink:href="#grad1-7-7"
       inkscape:collect="always" />
    <linearGradient
       id="linearGradient3104"
       x1="78.877235"
       y1="178.07356"
       x2="301.40585"
       y2="178.07356"
       gradientTransform="scale(1.577772,0.63380513)"
       gradientUnits="userSpaceOnUse">
      <stop
         offset="0%"
         style="stop-color:#da0;"
         id="stop3106" />
      <stop
         offset="40%"
         style="stop-color:#fd0;"
         id="stop3108" />
      <stop
         offset="60%"
         style="stop-color:#fd0;"
         id="stop3110" />
      <stop
         offset="100%"
         style="stop-color:#da0;"
         id="stop3112" />
    </linearGradient>
  </defs>
  <g
     inkscape:groupmode="layer"
     id="layer2"
     inkscape:label="Elements"
     style="display:inline">
    <path
       inkscape:connector-curvature="0"
       style="fill:#0000cc;display:inline"
       d="m 598,2 0,257 C 598,545 300,657 300,657 300,657 2,545 2,259 L 2,2 598,2 z"
       id="rect18" />
    <path
       style="fill:#ffdd00;fill-opacity:1;fill-rule:evenodd;stroke:#000000;stroke-width:3;stroke-linecap:butt;stroke-linejoin:miter;stroke-miterlimit:4;stroke-opacity:1;stroke-dasharray:none;display:inline"
       d="m 240.76696,3.5 c 5.16268,5.73528 8.23342,13.524519 8.22681,22.1038 -0.0135,17.579098 -12.78252,31.840597 -30.36159,31.851823 17.57907,0.03836 30.37517,14.303708 30.36159,31.882868 -0.0135,17.579109 -12.78246,31.840539 -30.36159,31.851819 17.57906,0.0384 30.37513,14.30379 30.36159,31.88288 -0.0136,17.57913 -12.78253,31.84061 -30.36159,31.85182 17.57903,0.0384 30.37513,14.3348 30.36159,31.91391 -0.003,3.42186 -0.48949,6.7098 -1.27283,10.08952 -3.30909,1.46611 -7.02239,2.08297 -10.89664,2.07999 -17.57911,-0.0136 -31.8405,-13.0309 -31.85173,-30.61004 -0.0383,17.57912 -14.30373,30.62359 -31.88277,30.61004 -17.57912,-0.0136 -31.84053,-13.03089 -31.85173,-30.61004 -0.0383,17.57913 -14.33471,30.62363 -31.91382,30.61004 -17.579025,-0.0135 -31.809425,-13.03086 -31.820676,-30.61004 -0.0383,17.57916 -14.33477,30.62357 -31.913815,30.61004 -17.579105,-0.0136 -31.840514,-13.0309 -31.85173,-30.61004 -0.02018,9.24355 -3.9715795,17.22238 -10.2757525,22.72469 0,30.02729 0,-4.08279 0,39.20941 0,33.20634 4.058123,64.08176 11.2381345,92.66832 3.64954,-13.26942 16.08717,-22.27041 30.827258,-22.25902 17.579054,0.0135 31.840435,12.78249 31.851726,30.36168 0.0383,-17.57911 14.30373,-30.37522 31.882765,-30.36168 17.57909,0.0135 31.84052,12.78256 31.85173,30.36168 0.0384,-17.57908 14.30372,-30.37522 31.88277,-30.36168 17.5791,0.0136 31.84045,12.78248 31.85173,30.36168 0.0384,-17.57909 14.30372,-30.3752 31.88277,-30.36168 3.55124,0.003 6.97821,0.54755 10.12053,1.4591 1.3739,3.68845 2.14543,7.7926 2.14208,12.10741 -0.0135,17.57911 -12.78253,31.84062 -30.36159,31.85183 17.57902,0.0383 30.37514,14.30378 30.36159,31.88287 -0.0135,17.5791 -12.78246,31.84052 -30.36159,31.85182 17.57904,0.0383 30.3752,14.30371 30.36159,31.88287 -0.0135,17.57912 -12.78253,31.84061 -30.36159,31.85182 17.57904,0.0385 30.37513,14.33482 30.36159,31.91391 -0.0136,17.57916 -12.78246,31.84053 -30.36159,31.85183 17.57902,0.0383 30.37519,14.30368 30.36159,31.88287 -0.008,10.31663 -4.42203,19.48133 -11.61067,25.30139 C 273.98757,645.71617 300,655.49999 300,655.5 c 0,0 25.94113,-9.75431 62.46167,-30.82735 -7.25918,-5.83253 -11.74278,-15.02453 -11.73485,-25.33245 0.0136,-17.57916 13.06192,-31.80958 30.64099,-31.82077 -17.57902,-0.0385 -30.6546,-14.33474 -30.64099,-31.91392 0.0135,-17.57907 13.06187,-31.84054 30.64099,-31.85182 -17.57909,-0.0384 -30.6546,-14.3037 -30.64099,-31.88287 0.0135,-17.5791 13.06192,-31.84063 30.64099,-31.85182 -17.57904,-0.0385 -30.65451,-14.30376 -30.64099,-31.88287 0.0136,-17.57916 13.06193,-31.84062 30.64099,-31.85182 -17.57908,-0.0384 -30.65457,-14.30369 -30.64099,-31.88287 0.003,-3.7494 0.61067,-7.37045 1.92477,-11.23817 3.7439,-1.76047 7.57127,-2.42457 11.57962,-2.42148 17.57906,0.0135 31.84043,12.78249 31.85173,30.36168 0.0383,-17.57909 14.30367,-30.37529 31.88277,-30.36168 17.57908,0.0135 31.84051,12.78256 31.85173,30.36168 0.0385,-17.57909 14.30373,-30.37522 31.88277,-30.36168 17.57912,0.0136 31.84044,12.78249 31.85173,30.36168 0.0385,-17.57907 14.33468,-30.37528 31.91382,-30.36168 14.10462,0.0108 26.05276,8.2522 30.23741,20.58261 6.92236,-28.11893 10.83455,-58.42859 10.83455,-90.99191 l 0,-40.26492 c -5.63263,-5.44408 -9.09053,-12.99272 -9.09606,-21.66918 -0.0384,17.57909 -14.33478,30.62358 -31.91381,30.61004 -17.57909,-0.0136 -31.84054,-13.03091 -31.85173,-30.61004 -0.0383,17.57909 -14.30365,30.62365 -31.88277,30.61004 -17.57906,-0.0135 -31.84045,-13.03086 -31.85173,-30.61004 -0.0383,17.57916 -14.30366,30.62365 -31.88277,30.61004 -17.57904,-0.0135 -31.84054,-13.03091 -31.85173,-30.61004 -0.0384,17.57911 -14.33477,30.62355 -31.91382,30.61004 -4.07357,-0.003 -8.37137,-1.18718 -11.95216,-2.48357 -0.79843,-2.892 -1.61676,-6.45283 -1.61432,-9.62385 0.0136,-17.57915 13.0619,-31.84062 30.64099,-31.85182 -17.57906,-0.0383 -30.65458,-14.30371 -30.64099,-31.88287 0.0135,-17.57908 13.06186,-31.84056 30.64099,-31.85183 -17.57909,-0.0383 -30.65452,-14.30377 -30.64099,-31.882865 0.0136,-17.579159 13.06191,-31.840606 30.64099,-31.851823 C 363.78876,57.541422 350.71324,43.245038 350.72682,25.665889 350.73382,17.045876 353.86996,9.23425 359.1399,3.5 l -118.37294,0 z"
       id="path1926"
       inkscape:connector-curvature="0" />
    <use
       style="display:inline"
       height="600"
       width="600"
       y="0"
       x="0"
       id="use23"
       transform="matrix(0.74663819,0.66523035,-0.66523035,0.74663819,88.313649,-223.86788)"
       xlink:href="#tail4" />
    <use
       style="display:inline"
       height="600"
       width="600"
       y="0"
       x="0"
       id="use25"
       transform="matrix(0.73372987,0.67944131,-0.67944131,0.73372987,99.03109,-227.10086)"
       xlink:href="#tail3" />
    <use
       style="display:inline"
       height="600"
       width="600"
       y="0"
       x="0"
       id="use27"
       transform="matrix(0.72055111,0.69340183,-0.69340183,0.72055111,109.80863,-230.12749)"
       xlink:href="#tail2" />
    <g
       style="display:inline"
       id="g3233"
       transform="matrix(0.53005636,0,0,0.53005636,590.00991,1.6930186)">
      <path
         d="m -373.88833,343.02516 c -12.79843,21.12686 -7.52764,26.39765 13.39538,13.39539 20.92301,-13.00226 43.0254,-32.65853 55.61997,-53.98923 12.59457,-21.33069 5.48919,-28.43606 -15.8415,-15.84149 -21.3307,12.59457 -40.37544,35.30848 -53.17385,56.43533 z"
         id="path39"
         inkscape:connector-curvature="0"
         style="fill:#ffdd00;stroke:#000000;stroke-width:3.77318358" />
      <path
         d="m -321.46811,276.56194 26.62302,26.62303 244.17871,-251.892497 11.98673,-30.89598 -30.89597,11.98674 -251.89249,244.178707 z"
         id="path41"
         inkscape:connector-curvature="0"
         style="fill:#ffdd00;stroke:#000000;stroke-width:3.77318358;stroke-opacity:1" />
      <path
         d="M -307.20948,286.34376 -70.31459,51.371593 -303.35258,290.20066 l -3.8569,-3.8569 z"
         id="path43"
         inkscape:connector-curvature="0"
         style="fill:#000000" />
      <path
         d="m -380.41741,353.20027 c 0.22592,-0.5434 0.45008,-1.07813 0.68798,-1.60526 l 20.21865,5.33812 c -0.67279,0.41788 -1.34858,0.82607 -2.02569,1.23581 l -18.88094,-4.96867 z m 4.61194,-9.09649 c 0.29899,-0.51444 0.60098,-1.02952 0.90456,-1.54156 l 26.46135,6.96887 c -0.61456,0.44108 -1.22787,0.87845 -1.84733,1.31224 l -25.51858,-6.73955 z m 5.46554,-8.85441 c 0.33173,-0.50866 0.65729,-1.02313 0.99374,-1.52883 l 30.88218,8.15371 c -0.55102,0.45345 -1.10005,0.90332 -1.65622,1.35046 l -30.2197,-7.97534 z m 6.0261,-8.72704 c 0.36244,-0.4948 0.72848,-0.9865 1.09566,-1.47786 l 33.77422,8.90539 c -0.49383,0.46483 -0.99143,0.92948 -1.49063,1.38866 l -33.37926,-8.8162 z m 6.66313,-8.54865 c 0.39997,-0.48483 0.7926,-0.97174 1.19757,-1.45238 l 35.12466,9.26211 c -0.44653,0.48103 -0.89821,0.9511 -1.35049,1.42686 l -34.97179,-9.23663 z m 7.32559,-8.3703 c 0.44603,-0.477 0.89917,-0.9549 1.35049,-1.42686 l 34.92083,9.21114 c -0.3972,0.49154 -0.8073,0.97834 -1.21032,1.46512 l -35.06097,-9.24936 z m 8.15371,-8.15371 c 0.49647,-0.46381 0.9885,-0.93094 1.49062,-1.38866 l 33.06077,8.72703 c -0.11473,0.1802 -0.23032,0.36819 -0.34399,0.54783 -0.22901,0.32503 -0.45639,0.64511 -0.68797,0.96825 l -33.51941,-8.85443 z m 9.09649,-7.89891 c 0.58732,-0.43437 1.17734,-0.8755 1.77088,-1.31224 l 29.16227,7.68233 c -0.29116,0.52244 -0.58776,1.03833 -0.89181,1.5543 l -30.04134,-7.92439 z"
         id="path45"
         inkscape:connector-curvature="0"
         style="fill:#000000" />
      <path
         d="m -337.2542,252.97944 65.99161,65.99161 -8.74912,8.74912 -65.99161,-65.99161 z"
         id="path47"
         inkscape:connector-curvature="0"
         style="fill:#ffdd00;stroke:#000000;stroke-width:3.77318358" />
      <path
         d="m -362.10502,367.29588 a 16.598632,16.598632 0 1 0 -23.47402,-23.474 16.598632,16.598632 0 0 0 23.47402,23.474 z"
         id="path49"
         inkscape:connector-curvature="0"
         style="fill:#ffdd00;stroke:#000000;stroke-width:3.77318358" />
      <path
         d="m -368.88829,360.51259 a 7.0056539,7.0056539 0 1 0 -9.90749,-9.90748 7.0056539,7.0056539 0 1 0 9.90749,9.90748 z"
         id="path51"
         inkscape:connector-curvature="0"
         style="fill:#ffffff;stroke:#000000;stroke-width:3.77318358" />
    </g>
    <g
       style="display:inline"
       id="g3244"
       transform="matrix(0.1773726,-0.1773726,0.1773726,0.1773726,-221.31923,248.45177)">
      <g
         transform="translate(3.7388157,-0.3995265)"
         style="stroke:#000000;stroke-width:3.85564661"
         id="g3206">
        <g
           id="g3192"
           style="fill:#fcef3c;stroke:#000000;stroke-width:3.85564661"
           transform="translate(999.99969,0)">
          <g
             id="g3170"
             style="fill:#fcef3c;stroke:#000000;stroke-width:3.85564661">
            <path
               inkscape:connector-curvature="0"
               style="fill:#ffdd00;fill-rule:evenodd;stroke:#000000;stroke-width:5.97984219;stroke-linecap:butt;stroke-linejoin:miter;stroke-opacity:1"
               d="m 353.21429,157.3451 -24.64286,0 0,-12.729 26.78571,0 -2.14285,12.729 z"
               id="path3163"
               sodipodi:nodetypes="ccccc" />
            <path
               inkscape:connector-curvature="0"
               id="path3165"
               style="fill:#ffdd00;fill-rule:evenodd;stroke:#000000;stroke-width:5.97984219;stroke-linecap:butt;stroke-linejoin:miter;stroke-opacity:1"
               d="m 328.57143,151.29075 0,0.71429 0,9.83599 c -1.13672,-3.09612 -1.34284,-4.85667 -4.65104,-4.69671 -3.94806,0.86293 0.0689,7.57051 -8.45968,9.39383 -5.24599,0.56764 -10.96773,0.72291 -15.96071,-3.01055 -4.25022,-3.65853 -6.25108,-7.66876 -6.25809,-11.96817 l 0.009,-0.62708 c -0.16255,-4.50037 1.82433,-8.69013 6.24891,-12.49874 4.99298,-3.73346 10.71472,-3.57819 15.96071,-3.01055 8.52861,1.82332 4.51162,8.5309 8.45968,9.39383 3.3082,0.15996 3.51432,-1.60059 4.65104,-4.69671 l 0,11.17057 z"
               sodipodi:nodetypes="ccccccccccccc" />
          </g>
          <g
             transform="translate(-1.4285714,42.142857)"
             id="g3174"
             style="fill:#fcef3c;stroke:#000000;stroke-width:3.85564661">
            <path
               inkscape:connector-curvature="0"
               sodipodi:nodetypes="ccccc"
               id="path3176"
               d="m 353.21429,157.3451 -24.64286,0 0,-12.729 26.78571,0 -2.14285,12.729 z"
               style="fill:#ffdd00;fill-rule:evenodd;stroke:#000000;stroke-width:5.97984219;stroke-linecap:butt;stroke-linejoin:miter;stroke-opacity:1" />
            <path
               inkscape:connector-curvature="0"
               sodipodi:nodetypes="ccccccccccccc"
               d="m 328.57143,151.29075 0,0.71429 0,9.83599 c -1.13672,-3.09612 -1.34284,-4.85667 -4.65104,-4.69671 -3.94806,0.86293 0.0689,7.57051 -8.45968,9.39383 -5.24599,0.56764 -10.96773,0.72291 -15.96071,-3.01055 -4.25022,-3.65853 -6.25108,-7.66876 -6.25809,-11.96817 l 0.009,-0.62708 c -0.16255,-4.50037 1.82433,-8.69013 6.24891,-12.49874 4.99298,-3.73346 10.71472,-3.57819 15.96071,-3.01055 8.52861,1.82332 4.51162,8.5309 8.45968,9.39383 3.3082,0.15996 3.51432,-1.60059 4.65104,-4.69671 l 0,11.17057 z"
               style="fill:#ffdd00;fill-rule:evenodd;stroke:#000000;stroke-width:5.97984219;stroke-linecap:butt;stroke-linejoin:miter;stroke-opacity:1"
               id="path3178" />
          </g>
          <g
             id="g3180"
             transform="matrix(-1,0,0,1,743.59902,23.571428)"
             style="fill:#fcef3c;stroke:#000000;stroke-width:3.85564661">
            <path
               inkscape:connector-curvature="0"
               style="fill:#ffdd00;fill-rule:evenodd;stroke:#000000;stroke-width:5.97984219;stroke-linecap:butt;stroke-linejoin:miter;stroke-opacity:1"
               d="m 353.21429,157.3451 -24.64286,0 0,-12.729 26.78571,0 -2.14285,12.729 z"
               id="path3182"
               sodipodi:nodetypes="ccccc" />
            <path
               inkscape:connector-curvature="0"
               id="path3184"
               style="fill:#ffdd00;fill-rule:evenodd;stroke:#000000;stroke-width:5.97984219;stroke-linecap:butt;stroke-linejoin:miter;stroke-opacity:1"
               d="m 328.57143,151.29075 0,0.71429 0,9.83599 c -1.13672,-3.09612 -1.34284,-4.85667 -4.65104,-4.69671 -3.94806,0.86293 0.0689,7.57051 -8.45968,9.39383 -5.24599,0.56764 -10.96773,0.72291 -15.96071,-3.01055 -4.25022,-3.65853 -6.25108,-7.66876 -6.25809,-11.96817 l 0.009,-0.62708 c -0.16255,-4.50037 1.82433,-8.69013 6.24891,-12.49874 4.99298,-3.73346 10.71472,-3.57819 15.96071,-3.01055 8.52861,1.82332 4.51162,8.5309 8.45968,9.39383 3.3082,0.15996 3.51432,-1.60059 4.65104,-4.69671 l 0,11.17057 z"
               sodipodi:nodetypes="ccccccccccccc" />
          </g>
          <g
             transform="matrix(-1,0,0,1,738.59902,-18.571429)"
             id="g3186"
             style="fill:#fcef3c;stroke:#000000;stroke-width:3.85564661">
            <path
               inkscape:connector-curvature="0"
               sodipodi:nodetypes="ccccc"
               id="path3188"
               d="m 353.21429,157.3451 -24.64286,0 0,-12.729 26.78571,0 -2.14285,12.729 z"
               style="fill:#ffdd00;fill-rule:evenodd;stroke:#000000;stroke-width:5.97984219;stroke-linecap:butt;stroke-linejoin:miter;stroke-opacity:1" />
            <path
               inkscape:connector-curvature="0"
               sodipodi:nodetypes="ccccccccccccc"
               d="m 328.57143,151.29075 0,0.71429 0,9.83599 c -1.13672,-3.09612 -1.34284,-4.85667 -4.65104,-4.69671 -3.94806,0.86293 0.0689,7.57051 -8.45968,9.39383 -5.24599,0.56764 -10.96773,0.72291 -15.96071,-3.01055 -4.25022,-3.65853 -6.25108,-7.66876 -6.25809,-11.96817 l 0.009,-0.62708 c -0.16255,-4.50037 1.82433,-8.69013 6.24891,-12.49874 4.99298,-3.73346 10.71472,-3.57819 15.96071,-3.01055 8.52861,1.82332 4.51162,8.5309 8.45968,9.39383 3.3082,0.15996 3.51432,-1.60059 4.65104,-4.69671 l 0,11.17057 z"
               style="fill:#ffdd00;fill-rule:evenodd;stroke:#000000;stroke-width:5.97984219;stroke-linecap:butt;stroke-linejoin:miter;stroke-opacity:1"
               id="path3190" />
          </g>
        </g>
        <path
           inkscape:connector-curvature="0"
           id="path3135"
           style="fill:#ffdd00;fill-rule:evenodd;stroke:#000000;stroke-width:5.97984219;stroke-linecap:butt;stroke-linejoin:miter;stroke-opacity:1"
           d="m 1371.4841,54.931183 -0.6791,0 c 4.3401,2.090657 6.2788,0.579334 8.8389,0 2.4265,4.161586 2.9259,11.535033 4.0405,17.883 2.1887,-1.136793 4.3774,-0.750922 6.566,0 l 3.0611,9.148546 c 0.7648,-0.09807 1.5047,-0.18533 2.2305,-0.252122 1.7346,-0.30403 3.2319,-0.134781 4.8323,0.494178 3.1332,1.33179 3.0818,2.520599 3.5272,5.362599 0.2324,3.399102 0.073,6.544514 -1.7932,8.544684 -0.9527,1.646507 0.5058,4.532882 -1.7563,5.727202 -3.5866,1.92681 -6.2069,0.75497 -8.469,0.47444 1.678,5.09267 1.0034,7.24465 0.8928,10.10153 -0.4077,2.62273 -1.7282,4.33272 -4.0406,5.05076 l 2.5254,84.85282 -40.2321,0 2.5254,-84.85282 c -2.3124,-0.71804 -3.6329,-2.42803 -4.0406,-5.05076 -0.1106,-2.85688 -0.7852,-5.00886 0.8928,-10.10153 -2.2621,0.28053 -4.8824,1.45237 -8.469,-0.47444 -2.2621,-1.19432 -0.8036,-4.080695 -1.7563,-5.727202 -1.8667,-2.00017 -2.0256,-5.145582 -1.7933,-8.544684 0.4105,-2.619308 0.3991,-3.834354 2.8477,-5.0513 1.642,-0.996272 3.1904,-0.934564 5.0284,-0.847005 0.8821,0.04518 1.7786,0.17371 2.714,0.29365 l 3.0611,-9.148546 c 2.1886,-0.750922 4.3773,-1.136793 6.5659,0 1.1147,-6.347967 1.6141,-13.721414 4.0406,-17.883 2.5601,0.579334 4.4988,2.090657 8.8389,0 z"
           sodipodi:nodetypes="ccccccccccccccccccccccccccccc" />
        <path
           inkscape:connector-curvature="0"
           style="fill:none;stroke:#000000;stroke-width:3.85564661;stroke-linecap:butt;stroke-linejoin:miter;stroke-opacity:1"
           d="m 1349.1076,81.647895 c -0.8294,10.706184 -2.0896,12.601929 -8.3928,14.821425"
           id="path3137"
           sodipodi:nodetypes="cc" />
        <path
           inkscape:connector-curvature="0"
           style="fill:none;stroke:#000000;stroke-width:3.85564661;stroke-linecap:butt;stroke-linejoin:miter;stroke-opacity:1"
           d="m 1358.3934,72.362181 c -0.4889,14.736631 -0.7742,29.180079 -8.2143,30.013999"
           id="path3139"
           sodipodi:nodetypes="cc" />
        <path
           inkscape:connector-curvature="0"
           sodipodi:nodetypes="cc"
           id="path3152"
           d="m 1393.182,81.647895 c 0.8294,10.706184 2.0896,12.601929 8.3928,14.821425"
           style="fill:none;stroke:#000000;stroke-width:3.85564661;stroke-linecap:butt;stroke-linejoin:miter;stroke-opacity:1" />
        <path
           inkscape:connector-curvature="0"
           sodipodi:nodetypes="cc"
           id="path3154"
           d="m 1383.8962,72.362181 c 0.4889,14.736631 0.7741,29.180079 8.2143,30.013999"
           style="fill:none;stroke:#000000;stroke-width:3.85564661;stroke-linecap:butt;stroke-linejoin:miter;stroke-opacity:1" />
      </g>
      <path
         inkscape:connector-curvature="0"
         sodipodi:nodetypes="ccccccccc"
         id="path3107"
         d="m 1364.4001,999.07664 0,2.77796 c -2.4487,-0.251 -0.7512,3.1945 1.7678,4.7982 5.4158,3.7006 12.2814,2.4815 16.747,0 2.0741,-0.6628 5.0706,-4.3532 2.5785,-4.7982 l 0.122,-2.78713 -0.7597,-2.51622 -20.2031,-0.25253 -0.2525,2.77792 z"
         style="fill:#ffdd00;fill-rule:evenodd;stroke:#000000;stroke-width:3.85564661;stroke-linecap:butt;stroke-linejoin:miter;stroke-opacity:1" />
      <path
         inkscape:connector-curvature="0"
         sodipodi:nodetypes="cccccccccccccccccccccccccccccccccc"
         d="m 1369.8093,997.83174 13.6103,0 c 28.6243,-0.49938 57.2487,-0.44765 85.8731,-12.3745 29.3061,-11.97232 54.56,-31.77907 69.6428,-71.25 8.7994,-26.07143 5.7888,-52.14286 -0.5357,-78.21429 -6.6564,-17.98398 -20.2292,-41.91943 -19.4643,-53.75 0.4835,-4.75897 3.0637,-8.67927 5.8929,-12.5 l -7.1429,-13.92857 c -14.2401,8.27043 -26.3539,4.58002 -36.7857,-8.57143 -9.6317,-16.96102 -16.7797,-36.08184 -15.5357,-62.5 0.4234,-19.74805 -1.9301,-38.658 12.5,-54.46429 4.6734,-4.01839 11.2248,-9.23964 22.8571,-2.32142 l 3.3929,-8.39286 c -2.9331,-6.85671 -6.6971,-13.00117 -3.2143,-25.35715 7.8738,-25.26734 14.6595,-50.84559 12.6786,-78.92857 -3.2427,-25.70271 -15.4372,-44.32662 -31.8591,-59.65337 -10.2932,-10.58286 -22.903,-17.34031 -36.3797,-22.93876 -14.0061,-5.60696 -28.2203,-9.19758 -42.6541,-12.05073 -21.5481,-4.25944 -33.8234,-4.31878 -55.3716,-0.0593 -21.5481,4.25944 -42.6067,10.1625 -63.2142,21.9643 -24.1051,17.79923 -43.4616,39.253 -47.6786,72.67856 -1.9809,28.08298 4.8047,53.66123 12.6786,78.92857 3.4827,12.35598 -0.2813,18.50044 -3.2143,25.35715 l 3.3928,8.39286 c 11.6323,-6.91822 18.1837,-1.69697 22.8572,2.32142 14.4301,15.80629 12.0765,34.71624 12.5,54.46429 1.244,26.41816 -5.904,45.53898 -15.5357,62.5 -10.4318,13.15145 -22.5456,16.84186 -36.7858,8.57143 l -7.1428,13.92857 c 2.8291,3.82073 5.4093,7.74103 5.8928,12.5 0.7649,11.83057 -12.8079,35.76602 -19.4642,53.75 -6.3245,26.07143 -9.3352,52.14286 -0.5358,78.21429 15.0828,39.47093 40.3367,59.27768 69.6429,71.25 29.7008,12.37539 59.4017,11.85429 89.1025,12.43384 z"
         style="fill:#ffdd00;fill-rule:evenodd;stroke:#000000;stroke-width:5.97984219;stroke-linecap:butt;stroke-linejoin:miter;stroke-opacity:1"
         id="path3090" />
      <path
         inkscape:connector-curvature="0"
         sodipodi:nodetypes="cccccccccccccccccsccscccccccccccccccc"
         d="m 1367.9167,989.02231 14.1673,0 c 27.7128,-0.56234 55.4256,-0.0567 83.1384,-12.06464 27.3445,-11.61683 50.908,-30.83546 64.9812,-69.13439 8.2104,-25.2973 5.4013,-50.59459 -0.4998,-75.89188 -6.2109,-17.45 -18.8751,-40.67473 -18.1615,-52.15403 0.4512,-4.61765 2.8587,-11.01291 5.4984,-14.72019 l 0.091,0 -0.5553,0 c -15.9472,9.52138 -29.5131,7.10312 -41.1955,-8.03758 -10.7863,-19.52648 -18.7912,-41.53944 -17.3981,-71.95351 0.4743,-22.73507 -2.1614,-44.50527 13.9985,-62.70236 5.1894,-4.58708 11.6604,-10.53563 24.4685,-2.87163 0.058,0.0536 0.1573,-0.0177 0.2359,-0.0265 -2.7013,-6.5132 -5.1842,-10.28771 -1.9714,-22.14065 7.3467,-24.51708 13.6782,-49.33583 11.8299,-76.58495 -3.9348,-32.43306 -21.9956,-53.24982 -44.4872,-70.52053 -19.2281,-11.45137 -38.8772,-17.17917 -58.983,-21.31213 -6.9168,-1.42182 -12.8096,-2.34769 -18.383,-2.7823 -5.5734,-0.43461 -13.8071,-0.43461 -19.3805,0 -5.5734,0.43461 -11.4662,1.36048 -18.383,2.7823 -20.1058,4.13296 -39.7549,9.86076 -58.983,21.31213 -22.4916,17.27071 -40.5524,38.08747 -44.4872,70.52053 -1.8483,27.24912 4.4832,52.06787 11.8299,76.58495 3.2128,11.85294 0.7299,15.62745 -1.9714,22.14065 0.079,0.009 0.1777,0.0801 0.2359,0.0265 12.8081,-7.664 19.2791,-1.71545 24.4685,2.87163 16.1599,18.19709 13.5242,39.96729 13.9985,62.70236 1.3931,30.41407 -6.6118,52.42703 -17.3981,71.95351 -11.6824,15.1407 -25.2483,17.55896 -41.1955,8.03758 l -0.5553,0 0.091,0 c 2.6397,3.70728 5.0472,10.10254 5.4984,14.72019 0.7136,11.4793 -11.9506,34.70403 -18.1615,52.15403 -5.9011,25.29729 -8.7102,50.59458 -0.4998,75.89188 14.0732,38.29893 37.6367,57.51756 64.9812,69.13439 27.7128,12.00793 55.4256,11.5023 83.1384,12.06464 z"
         style="fill:none;stroke:#000000;stroke-width:3.98656106;stroke-linecap:butt;stroke-linejoin:miter;stroke-opacity:1"
         id="path3098" />
      <path
         inkscape:connector-curvature="0"
         sodipodi:nodetypes="ccccccccc"
         d="m 1359.1728,998.14642 c -10.1277,-14.35183 -3.9535,-32.29608 -1.9463,-49.32204 2.5131,-25.48208 0.7301,-50.28792 -5.8386,-74.34046 -6.8953,-15.78835 -9.0712,-40.6766 -10.8664,-66.29883 22.777,3.41931 45.8076,2.66946 68.6045,0 -1.7952,25.62223 -3.9712,50.51048 -10.8665,66.29883 -6.5686,24.05254 -8.3517,48.85838 -5.8386,74.34046 2.0072,17.02596 8.1814,34.97021 -1.9462,49.32204 l -31.3019,0 z"
         style="fill:#ffdd00;fill-rule:evenodd;stroke:#000000;stroke-width:5.97984219;stroke-linecap:butt;stroke-linejoin:miter;stroke-opacity:1"
         id="path3109" />
      <g
         transform="translate(999.99975,0)"
         style="fill:#000000;stroke:#000000;stroke-width:1.28521562"
         id="g3118">
        <path
           inkscape:connector-curvature="0"
           style="fill:#000000;fill-rule:evenodd;stroke:#000000;stroke-width:1.28521562px;stroke-linecap:butt;stroke-linejoin:miter;stroke-opacity:1"
           d="m 304.37237,734.50504 c 0.47294,28.89458 -3.84449,46.1156 -11.57431,53.05448 -3.44256,3.4938 -5.19092,3.80525 -9.01089,1.15657 -2.12954,-1.59997 -3.85005,-3.47264 -5.12908,-5.63962 15.10358,-12.10474 -14.42542,-24.60894 -8.65809,2.14286 8.67383,14.93585 27.46332,11.18002 35.70549,-2.10463 3.95319,-5.66732 5.97579,-11.61329 7.55841,-18.30998 2.2558,-9.97576 3.08943,-19.69577 2.45039,-27.44254 0.46154,-15.47619 -2.41029,-30.95238 2.85714,-46.42857 3.29111,-3.6165 4.478,-9.86385 11.42857,-5.71428 l 3.36222,3.40554 c -1.65275,0.14092 -6.4098,5.07245 -0.50508,8.82397 4.8347,1.96986 7.69038,0.2644 7.81382,-6.51523 -1.55881,-7.2094 -5.40636,-9.59845 -11.96621,-11.43409 -21.87416,-3.53519 -24.01998,38.72929 -24.33238,55.00552 z"
           id="path3114"
           sodipodi:nodetypes="ccccccccccccccc" />
        <path
           inkscape:connector-curvature="0"
           sodipodi:nodetypes="ccccccccccccccc"
           id="path3116"
           d="m 445.27559,734.50504 c -0.47294,28.89458 3.84449,46.1156 11.57431,53.05448 3.44256,3.4938 5.19092,3.80525 9.01089,1.15657 2.12954,-1.59997 3.85005,-3.47264 5.12908,-5.63962 -13.22288,-15.56733 16.41291,-20.53879 8.65809,2.14286 -8.67383,14.93585 -27.46332,11.18002 -35.70549,-2.10463 -3.95319,-5.66732 -5.97579,-11.61329 -7.55841,-18.30998 -2.2558,-9.97576 -3.08943,-19.69577 -2.45039,-27.44254 -0.46154,-15.47619 2.41029,-30.95238 -2.85714,-46.42857 -3.41265,-3.21721 -5.18491,-10.23663 -11.42857,-5.71428 l -3.36222,3.40554 c 1.65275,0.14092 6.4098,5.07245 0.50508,8.82397 -4.8347,1.96986 -7.69038,0.2644 -7.81382,-6.51523 4.52804,-16.03871 19.23305,-14.20174 28.27556,-3.02302 3.68358,12.04733 8.79781,18.62442 8.02303,46.59445 z"
           style="fill:#000000;fill-rule:evenodd;stroke:#000000;stroke-width:1.28521562px;stroke-linecap:butt;stroke-linejoin:miter;stroke-opacity:1" />
      </g>
      <path
         inkscape:connector-curvature="0"
         sodipodi:nodetypes="ccccccccccc"
         d="m 1366.8149,742.24535 16.0175,0 33.0826,0 0,-5.05076 -6.8186,-2.99341 -26.0114,0 -16.5226,0 -26.0115,0 -6.8185,2.99341 0,5.05076 33.0825,0 z"
         style="fill:#313131;fill-rule:evenodd;stroke:#000000;stroke-width:3.85564661;stroke-linecap:butt;stroke-linejoin:miter;stroke-opacity:1"
         id="path3122" />
      <path
         inkscape:connector-curvature="0"
         sodipodi:nodetypes="ccccccc"
         d="m 1398.5521,202.00504 c 0.1589,4.76215 0.6652,10.04547 -2.8572,9.28571 l 13.2143,436.78572 -68.171,0 13.2143,-436.78572 c -3.5224,0.75976 -3.0161,-4.52356 -2.8572,-9.28571 l 47.4568,0 z"
         style="fill:#ffdd00;fill-rule:evenodd;stroke:#000000;stroke-width:5.97984219;stroke-linecap:butt;stroke-linejoin:miter;stroke-opacity:1"
         id="path3226" />
      <path
         inkscape:connector-curvature="0"
         sodipodi:nodetypes="ccccccccccccccc"
         d="m 1349.2861,823.07647 -2.8571,-82.14329 15,-557.2 m 4.9565,639.34329 -0.9526,-82.14329 4.9388,-587.60592 0.061,-11.87608 m 30.1513,681.62529 2.8565,-82.14329 -15,-557.2 0,-18.909 m -4.9558,658.25229 0.9519,-82.14329 -4.9431,-588.11718 -0.057,-34.96482"
         style="fill:none;stroke:#000000;stroke-width:3.85564661;stroke-linecap:butt;stroke-linejoin:miter;stroke-opacity:1"
         id="path3127" />
    </g>
    <g
       transform="matrix(0.1773726,-0.1773726,0.1773726,0.1773726,-221.31923,588.45177)"
       id="g3242"
       style="display:inline">
      <g
         id="g3245"
         style="stroke:#000000;stroke-width:3.85564661"
         transform="translate(3.7388157,-0.3995265)">
        <g
           transform="translate(999.99969,0)"
           style="fill:#fcef3c;stroke:#000000;stroke-width:3.85564661"
           id="g3247">
          <g
             style="fill:#fcef3c;stroke:#000000;stroke-width:3.85564661"
             id="g3249">
            <path
               sodipodi:nodetypes="ccccc"
               id="path3251"
               d="m 353.21429,157.3451 -24.64286,0 0,-12.729 26.78571,0 -2.14285,12.729 z"
               style="fill:#ffdd00;fill-rule:evenodd;stroke:#000000;stroke-width:5.97984219;stroke-linecap:butt;stroke-linejoin:miter;stroke-opacity:1"
               inkscape:connector-curvature="0" />
            <path
               sodipodi:nodetypes="ccccccccccccc"
               d="m 328.57143,151.29075 0,0.71429 0,9.83599 c -1.13672,-3.09612 -1.34284,-4.85667 -4.65104,-4.69671 -3.94806,0.86293 0.0689,7.57051 -8.45968,9.39383 -5.24599,0.56764 -10.96773,0.72291 -15.96071,-3.01055 -4.25022,-3.65853 -6.25108,-7.66876 -6.25809,-11.96817 l 0.009,-0.62708 c -0.16255,-4.50037 1.82433,-8.69013 6.24891,-12.49874 4.99298,-3.73346 10.71472,-3.57819 15.96071,-3.01055 8.52861,1.82332 4.51162,8.5309 8.45968,9.39383 3.3082,0.15996 3.51432,-1.60059 4.65104,-4.69671 l 0,11.17057 z"
               style="fill:#ffdd00;fill-rule:evenodd;stroke:#000000;stroke-width:5.97984219;stroke-linecap:butt;stroke-linejoin:miter;stroke-opacity:1"
               id="path3253"
               inkscape:connector-curvature="0" />
          </g>
          <g
             style="fill:#fcef3c;stroke:#000000;stroke-width:3.85564661"
             id="g3255"
             transform="translate(-1.4285714,42.142857)">
            <path
               style="fill:#ffdd00;fill-rule:evenodd;stroke:#000000;stroke-width:5.97984219;stroke-linecap:butt;stroke-linejoin:miter;stroke-opacity:1"
               d="m 353.21429,157.3451 -24.64286,0 0,-12.729 26.78571,0 -2.14285,12.729 z"
               id="path3257"
               sodipodi:nodetypes="ccccc"
               inkscape:connector-curvature="0" />
            <path
               id="path3259"
               style="fill:#ffdd00;fill-rule:evenodd;stroke:#000000;stroke-width:5.97984219;stroke-linecap:butt;stroke-linejoin:miter;stroke-opacity:1"
               d="m 328.57143,151.29075 0,0.71429 0,9.83599 c -1.13672,-3.09612 -1.34284,-4.85667 -4.65104,-4.69671 -3.94806,0.86293 0.0689,7.57051 -8.45968,9.39383 -5.24599,0.56764 -10.96773,0.72291 -15.96071,-3.01055 -4.25022,-3.65853 -6.25108,-7.66876 -6.25809,-11.96817 l 0.009,-0.62708 c -0.16255,-4.50037 1.82433,-8.69013 6.24891,-12.49874 4.99298,-3.73346 10.71472,-3.57819 15.96071,-3.01055 8.52861,1.82332 4.51162,8.5309 8.45968,9.39383 3.3082,0.15996 3.51432,-1.60059 4.65104,-4.69671 l 0,11.17057 z"
               sodipodi:nodetypes="ccccccccccccc"
               inkscape:connector-curvature="0" />
          </g>
          <g
             style="fill:#fcef3c;stroke:#000000;stroke-width:3.85564661"
             transform="matrix(-1,0,0,1,743.59902,23.571428)"
             id="g3261">
            <path
               sodipodi:nodetypes="ccccc"
               id="path3263"
               d="m 353.21429,157.3451 -24.64286,0 0,-12.729 26.78571,0 -2.14285,12.729 z"
               style="fill:#ffdd00;fill-rule:evenodd;stroke:#000000;stroke-width:5.97984219;stroke-linecap:butt;stroke-linejoin:miter;stroke-opacity:1"
               inkscape:connector-curvature="0" />
            <path
               sodipodi:nodetypes="ccccccccccccc"
               d="m 328.57143,151.29075 0,0.71429 0,9.83599 c -1.13672,-3.09612 -1.34284,-4.85667 -4.65104,-4.69671 -3.94806,0.86293 0.0689,7.57051 -8.45968,9.39383 -5.24599,0.56764 -10.96773,0.72291 -15.96071,-3.01055 -4.25022,-3.65853 -6.25108,-7.66876 -6.25809,-11.96817 l 0.009,-0.62708 c -0.16255,-4.50037 1.82433,-8.69013 6.24891,-12.49874 4.99298,-3.73346 10.71472,-3.57819 15.96071,-3.01055 8.52861,1.82332 4.51162,8.5309 8.45968,9.39383 3.3082,0.15996 3.51432,-1.60059 4.65104,-4.69671 l 0,11.17057 z"
               style="fill:#ffdd00;fill-rule:evenodd;stroke:#000000;stroke-width:5.97984219;stroke-linecap:butt;stroke-linejoin:miter;stroke-opacity:1"
               id="path3265"
               inkscape:connector-curvature="0" />
          </g>
          <g
             style="fill:#fcef3c;stroke:#000000;stroke-width:3.85564661"
             id="g3267"
             transform="matrix(-1,0,0,1,738.59902,-18.571429)">
            <path
               style="fill:#ffdd00;fill-rule:evenodd;stroke:#000000;stroke-width:5.97984219;stroke-linecap:butt;stroke-linejoin:miter;stroke-opacity:1"
               d="m 353.21429,157.3451 -24.64286,0 0,-12.729 26.78571,0 -2.14285,12.729 z"
               id="path3269"
               sodipodi:nodetypes="ccccc"
               inkscape:connector-curvature="0" />
            <path
               id="path3271"
               style="fill:#ffdd00;fill-rule:evenodd;stroke:#000000;stroke-width:5.97984219;stroke-linecap:butt;stroke-linejoin:miter;stroke-opacity:1"
               d="m 328.57143,151.29075 0,0.71429 0,9.83599 c -1.13672,-3.09612 -1.34284,-4.85667 -4.65104,-4.69671 -3.94806,0.86293 0.0689,7.57051 -8.45968,9.39383 -5.24599,0.56764 -10.96773,0.72291 -15.96071,-3.01055 -4.25022,-3.65853 -6.25108,-7.66876 -6.25809,-11.96817 l 0.009,-0.62708 c -0.16255,-4.50037 1.82433,-8.69013 6.24891,-12.49874 4.99298,-3.73346 10.71472,-3.57819 15.96071,-3.01055 8.52861,1.82332 4.51162,8.5309 8.45968,9.39383 3.3082,0.15996 3.51432,-1.60059 4.65104,-4.69671 l 0,11.17057 z"
               sodipodi:nodetypes="ccccccccccccc"
               inkscape:connector-curvature="0" />
          </g>
        </g>
        <path
           sodipodi:nodetypes="ccccccccccccccccccccccccccccc"
           d="m 1371.4841,54.931183 -0.6791,0 c 4.3401,2.090657 6.2788,0.579334 8.8389,0 2.4265,4.161586 2.9259,11.535033 4.0405,17.883 2.1887,-1.136793 4.3774,-0.750922 6.566,0 l 3.0611,9.148546 c 0.7648,-0.09807 1.5047,-0.18533 2.2305,-0.252122 1.7346,-0.30403 3.2319,-0.134781 4.8323,0.494178 3.1332,1.33179 3.0818,2.520599 3.5272,5.362599 0.2324,3.399102 0.073,6.544514 -1.7932,8.544684 -0.9527,1.646507 0.5058,4.532882 -1.7563,5.727202 -3.5866,1.92681 -6.2069,0.75497 -8.469,0.47444 1.678,5.09267 1.0034,7.24465 0.8928,10.10153 -0.4077,2.62273 -1.7282,4.33272 -4.0406,5.05076 l 2.5254,84.85282 -40.2321,0 2.5254,-84.85282 c -2.3124,-0.71804 -3.6329,-2.42803 -4.0406,-5.05076 -0.1106,-2.85688 -0.7852,-5.00886 0.8928,-10.10153 -2.2621,0.28053 -4.8824,1.45237 -8.469,-0.47444 -2.2621,-1.19432 -0.8036,-4.080695 -1.7563,-5.727202 -1.8667,-2.00017 -2.0256,-5.145582 -1.7933,-8.544684 0.4105,-2.619308 0.3991,-3.834354 2.8477,-5.0513 1.642,-0.996272 3.1904,-0.934564 5.0284,-0.847005 0.8821,0.04518 1.7786,0.17371 2.714,0.29365 l 3.0611,-9.148546 c 2.1886,-0.750922 4.3773,-1.136793 6.5659,0 1.1147,-6.347967 1.6141,-13.721414 4.0406,-17.883 2.5601,0.579334 4.4988,2.090657 8.8389,0 z"
           style="fill:#ffdd00;fill-rule:evenodd;stroke:#000000;stroke-width:5.97984219;stroke-linecap:butt;stroke-linejoin:miter;stroke-opacity:1"
           id="path3273"
           inkscape:connector-curvature="0" />
        <path
           sodipodi:nodetypes="cc"
           id="path3275"
           d="m 1349.1076,81.647895 c -0.8294,10.706184 -2.0896,12.601929 -8.3928,14.821425"
           style="fill:none;stroke:#000000;stroke-width:3.85564661;stroke-linecap:butt;stroke-linejoin:miter;stroke-opacity:1"
           inkscape:connector-curvature="0" />
        <path
           sodipodi:nodetypes="cc"
           id="path3277"
           d="m 1358.3934,72.362181 c -0.4889,14.736631 -0.7742,29.180079 -8.2143,30.013999"
           style="fill:none;stroke:#000000;stroke-width:3.85564661;stroke-linecap:butt;stroke-linejoin:miter;stroke-opacity:1"
           inkscape:connector-curvature="0" />
        <path
           style="fill:none;stroke:#000000;stroke-width:3.85564661;stroke-linecap:butt;stroke-linejoin:miter;stroke-opacity:1"
           d="m 1393.182,81.647895 c 0.8294,10.706184 2.0896,12.601929 8.3928,14.821425"
           id="path3279"
           sodipodi:nodetypes="cc"
           inkscape:connector-curvature="0" />
        <path
           style="fill:none;stroke:#000000;stroke-width:3.85564661;stroke-linecap:butt;stroke-linejoin:miter;stroke-opacity:1"
           d="m 1383.8962,72.362181 c 0.4889,14.736631 0.7741,29.180079 8.2143,30.013999"
           id="path3281"
           sodipodi:nodetypes="cc"
           inkscape:connector-curvature="0" />
      </g>
      <path
         style="fill:#ffdd00;fill-rule:evenodd;stroke:#000000;stroke-width:3.85564661;stroke-linecap:butt;stroke-linejoin:miter;stroke-opacity:1"
         d="m 1364.4001,999.07664 0,2.77796 c -2.4487,-0.251 -0.7512,3.1945 1.7678,4.7982 5.4158,3.7006 12.2814,2.4815 16.747,0 2.0741,-0.6628 5.0706,-4.3532 2.5785,-4.7982 l 0.122,-2.78713 -0.7597,-2.51622 -20.2031,-0.25253 -0.2525,2.77792 z"
         id="path3283"
         sodipodi:nodetypes="ccccccccc"
         inkscape:connector-curvature="0" />
      <path
         id="path3285"
         style="fill:#ffdd00;fill-rule:evenodd;stroke:#000000;stroke-width:5.97984219;stroke-linecap:butt;stroke-linejoin:miter;stroke-opacity:1"
         d="m 1369.8093,997.83174 13.6103,0 c 28.6243,-0.49938 57.2487,-0.44765 85.8731,-12.3745 29.3061,-11.97232 54.56,-31.77907 69.6428,-71.25 8.7994,-26.07143 5.7888,-52.14286 -0.5357,-78.21429 -6.6564,-17.98398 -20.2292,-41.91943 -19.4643,-53.75 0.4835,-4.75897 3.0637,-8.67927 5.8929,-12.5 l -7.1429,-13.92857 c -14.2401,8.27043 -26.3539,4.58002 -36.7857,-8.57143 -9.6317,-16.96102 -16.7797,-36.08184 -15.5357,-62.5 0.4234,-19.74805 -1.9301,-38.658 12.5,-54.46429 4.6734,-4.01839 11.2248,-9.23964 22.8571,-2.32142 l 3.3929,-8.39286 c -2.9331,-6.85671 -6.6971,-13.00117 -3.2143,-25.35715 7.8738,-25.26734 14.6595,-50.84559 12.6786,-78.92857 -3.2427,-25.70271 -15.4372,-44.32662 -31.8591,-59.65337 -10.2932,-10.58286 -22.903,-17.34031 -36.3797,-22.93876 -14.0061,-5.60696 -28.2203,-9.19758 -42.6541,-12.05073 -21.5481,-4.25944 -33.8234,-4.31878 -55.3716,-0.0593 -21.5481,4.25944 -42.6067,10.1625 -63.2142,21.9643 -24.1051,17.79923 -43.4616,39.253 -47.6786,72.67856 -1.9809,28.08298 4.8047,53.66123 12.6786,78.92857 3.4827,12.35598 -0.2813,18.50044 -3.2143,25.35715 l 3.3928,8.39286 c 11.6323,-6.91822 18.1837,-1.69697 22.8572,2.32142 14.4301,15.80629 12.0765,34.71624 12.5,54.46429 1.244,26.41816 -5.904,45.53898 -15.5357,62.5 -10.4318,13.15145 -22.5456,16.84186 -36.7858,8.57143 l -7.1428,13.92857 c 2.8291,3.82073 5.4093,7.74103 5.8928,12.5 0.7649,11.83057 -12.8079,35.76602 -19.4642,53.75 -6.3245,26.07143 -9.3352,52.14286 -0.5358,78.21429 15.0828,39.47093 40.3367,59.27768 69.6429,71.25 29.7008,12.37539 59.4017,11.85429 89.1025,12.43384 z"
         sodipodi:nodetypes="cccccccccccccccccccccccccccccccccc"
         inkscape:connector-curvature="0" />
      <path
         id="path3287"
         style="fill:none;stroke:#000000;stroke-width:3.98656106;stroke-linecap:butt;stroke-linejoin:miter;stroke-opacity:1"
         d="m 1367.9167,989.02231 14.1673,0 c 27.7128,-0.56234 55.4256,-0.0567 83.1384,-12.06464 27.3445,-11.61683 50.908,-30.83546 64.9812,-69.13439 8.2104,-25.2973 5.4013,-50.59459 -0.4998,-75.89188 -6.2109,-17.45 -18.8751,-40.67473 -18.1615,-52.15403 0.4512,-4.61765 2.8587,-11.01291 5.4984,-14.72019 l 0.091,0 -0.5553,0 c -15.9472,9.52138 -29.5131,7.10312 -41.1955,-8.03758 -10.7863,-19.52648 -18.7912,-41.53944 -17.3981,-71.95351 0.4743,-22.73507 -2.1614,-44.50527 13.9985,-62.70236 5.1894,-4.58708 11.6604,-10.53563 24.4685,-2.87163 0.058,0.0536 0.1573,-0.0177 0.2359,-0.0265 -2.7013,-6.5132 -5.1842,-10.28771 -1.9714,-22.14065 7.3467,-24.51708 13.6782,-49.33583 11.8299,-76.58495 -3.9348,-32.43306 -21.9956,-53.24982 -44.4872,-70.52053 -19.2281,-11.45137 -38.8772,-17.17917 -58.983,-21.31213 -6.9168,-1.42182 -12.8096,-2.34769 -18.383,-2.7823 -5.5734,-0.43461 -13.8071,-0.43461 -19.3805,0 -5.5734,0.43461 -11.4662,1.36048 -18.383,2.7823 -20.1058,4.13296 -39.7549,9.86076 -58.983,21.31213 -22.4916,17.27071 -40.5524,38.08747 -44.4872,70.52053 -1.8483,27.24912 4.4832,52.06787 11.8299,76.58495 3.2128,11.85294 0.7299,15.62745 -1.9714,22.14065 0.079,0.009 0.1777,0.0801 0.2359,0.0265 12.8081,-7.664 19.2791,-1.71545 24.4685,2.87163 16.1599,18.19709 13.5242,39.96729 13.9985,62.70236 1.3931,30.41407 -6.6118,52.42703 -17.3981,71.95351 -11.6824,15.1407 -25.2483,17.55896 -41.1955,8.03758 l -0.5553,0 0.091,0 c 2.6397,3.70728 5.0472,10.10254 5.4984,14.72019 0.7136,11.4793 -11.9506,34.70403 -18.1615,52.15403 -5.9011,25.29729 -8.7102,50.59458 -0.4998,75.89188 14.0732,38.29893 37.6367,57.51756 64.9812,69.13439 27.7128,12.00793 55.4256,11.5023 83.1384,12.06464 z"
         sodipodi:nodetypes="cccccccccccccccccsccscccccccccccccccc"
         inkscape:connector-curvature="0" />
      <path
         id="path3289"
         style="fill:#ffdd00;fill-rule:evenodd;stroke:#000000;stroke-width:5.97984219;stroke-linecap:butt;stroke-linejoin:miter;stroke-opacity:1"
         d="m 1359.1728,998.14642 c -10.1277,-14.35183 -3.9535,-32.29608 -1.9463,-49.32204 2.5131,-25.48208 0.7301,-50.28792 -5.8386,-74.34046 -6.8953,-15.78835 -9.0712,-40.6766 -10.8664,-66.29883 22.777,3.41931 45.8076,2.66946 68.6045,0 -1.7952,25.62223 -3.9712,50.51048 -10.8665,66.29883 -6.5686,24.05254 -8.3517,48.85838 -5.8386,74.34046 2.0072,17.02596 8.1814,34.97021 -1.9462,49.32204 l -31.3019,0 z"
         sodipodi:nodetypes="ccccccccc"
         inkscape:connector-curvature="0" />
      <g
         id="g3291"
         style="fill:#000000;stroke:#000000;stroke-width:1.28521562"
         transform="translate(999.99975,0)">
        <path
           sodipodi:nodetypes="ccccccccccccccc"
           id="path3293"
           d="m 304.37237,734.50504 c 0.47294,28.89458 -3.84449,46.1156 -11.57431,53.05448 -3.44256,3.4938 -5.19092,3.80525 -9.01089,1.15657 -2.12954,-1.59997 -3.85005,-3.47264 -5.12908,-5.63962 15.10358,-12.10474 -14.42542,-24.60894 -8.65809,2.14286 8.67383,14.93585 27.46332,11.18002 35.70549,-2.10463 3.95319,-5.66732 5.97579,-11.61329 7.55841,-18.30998 2.2558,-9.97576 3.08943,-19.69577 2.45039,-27.44254 0.46154,-15.47619 -2.41029,-30.95238 2.85714,-46.42857 3.29111,-3.6165 4.478,-9.86385 11.42857,-5.71428 l 3.36222,3.40554 c -1.65275,0.14092 -6.4098,5.07245 -0.50508,8.82397 4.8347,1.96986 7.69038,0.2644 7.81382,-6.51523 -1.55881,-7.2094 -5.40636,-9.59845 -11.96621,-11.43409 -21.87416,-3.53519 -24.01998,38.72929 -24.33238,55.00552 z"
           style="fill:#000000;fill-rule:evenodd;stroke:#000000;stroke-width:1.28521562px;stroke-linecap:butt;stroke-linejoin:miter;stroke-opacity:1"
           inkscape:connector-curvature="0" />
        <path
           style="fill:#000000;fill-rule:evenodd;stroke:#000000;stroke-width:1.28521562px;stroke-linecap:butt;stroke-linejoin:miter;stroke-opacity:1"
           d="m 445.27559,734.50504 c -0.47294,28.89458 3.84449,46.1156 11.57431,53.05448 3.44256,3.4938 5.19092,3.80525 9.01089,1.15657 2.12954,-1.59997 3.85005,-3.47264 5.12908,-5.63962 -13.22288,-15.56733 16.41291,-20.53879 8.65809,2.14286 -8.67383,14.93585 -27.46332,11.18002 -35.70549,-2.10463 -3.95319,-5.66732 -5.97579,-11.61329 -7.55841,-18.30998 -2.2558,-9.97576 -3.08943,-19.69577 -2.45039,-27.44254 -0.46154,-15.47619 2.41029,-30.95238 -2.85714,-46.42857 -3.41265,-3.21721 -5.18491,-10.23663 -11.42857,-5.71428 l -3.36222,3.40554 c 1.65275,0.14092 6.4098,5.07245 0.50508,8.82397 -4.8347,1.96986 -7.69038,0.2644 -7.81382,-6.51523 4.52804,-16.03871 19.23305,-14.20174 28.27556,-3.02302 3.68358,12.04733 8.79781,18.62442 8.02303,46.59445 z"
           id="path3295"
           sodipodi:nodetypes="ccccccccccccccc"
           inkscape:connector-curvature="0" />
      </g>
      <path
         id="path3297"
         style="fill:#313131;fill-rule:evenodd;stroke:#000000;stroke-width:3.85564661;stroke-linecap:butt;stroke-linejoin:miter;stroke-opacity:1"
         d="m 1366.8149,742.24535 16.0175,0 33.0826,0 0,-5.05076 -6.8186,-2.99341 -26.0114,0 -16.5226,0 -26.0115,0 -6.8185,2.99341 0,5.05076 33.0825,0 z"
         sodipodi:nodetypes="ccccccccccc"
         inkscape:connector-curvature="0" />
      <path
         id="path3299"
         style="fill:#ffdd00;fill-rule:evenodd;stroke:#000000;stroke-width:5.97984219;stroke-linecap:butt;stroke-linejoin:miter;stroke-opacity:1"
         d="m 1398.5521,202.00504 c 0.1589,4.76215 0.6652,10.04547 -2.8572,9.28571 l 13.2143,436.78572 -68.171,0 13.2143,-436.78572 c -3.5224,0.75976 -3.0161,-4.52356 -2.8572,-9.28571 l 47.4568,0 z"
         sodipodi:nodetypes="ccccccc"
         inkscape:connector-curvature="0" />
      <path
         id="path3301"
         style="fill:none;stroke:#000000;stroke-width:3.85564661;stroke-linecap:butt;stroke-linejoin:miter;stroke-opacity:1"
         d="m 1349.2861,823.07647 -2.8571,-82.14329 15,-557.2 m 4.9565,639.34329 -0.9526,-82.14329 4.9388,-587.60592 0.061,-11.87608 m 30.1513,681.62529 2.8565,-82.14329 -15,-557.2 0,-18.909 m -4.9558,658.25229 0.9519,-82.14329 -4.9431,-588.11718 -0.057,-34.96482"
         sodipodi:nodetypes="ccccccccccccccc"
         inkscape:connector-curvature="0" />
    </g>
    <g
       style="display:inline"
       transform="matrix(0.53005636,0,0,0.53005636,590.00991,341.19733)"
       id="g3463">
      <path
         style="fill:#ffdd00;stroke:#000000;stroke-width:3.77318358"
         inkscape:connector-curvature="0"
         id="path3465"
         d="m -373.88833,343.02516 c -12.79843,21.12686 -7.52764,26.39765 13.39538,13.39539 20.92301,-13.00226 43.0254,-32.65853 55.61997,-53.98923 12.59457,-21.33069 5.48919,-28.43606 -15.8415,-15.84149 -21.3307,12.59457 -40.37544,35.30848 -53.17385,56.43533 z" />
      <path
         style="fill:#ffdd00;stroke:#000000;stroke-width:3.77318358;stroke-opacity:1"
         inkscape:connector-curvature="0"
         id="path3467"
         d="m -321.46811,276.56194 26.62302,26.62303 244.17871,-251.892497 11.98673,-30.89598 -30.89597,11.98674 -251.89249,244.178707 z" />
      <path
         style="fill:#000000"
         inkscape:connector-curvature="0"
         id="path3469"
         d="M -307.20948,286.34376 -70.31459,51.371593 -303.35258,290.20066 l -3.8569,-3.8569 z" />
      <path
         style="fill:#000000"
         inkscape:connector-curvature="0"
         id="path3471"
         d="m -380.41741,353.20027 c 0.22592,-0.5434 0.45008,-1.07813 0.68798,-1.60526 l 20.21865,5.33812 c -0.67279,0.41788 -1.34858,0.82607 -2.02569,1.23581 l -18.88094,-4.96867 z m 4.61194,-9.09649 c 0.29899,-0.51444 0.60098,-1.02952 0.90456,-1.54156 l 26.46135,6.96887 c -0.61456,0.44108 -1.22787,0.87845 -1.84733,1.31224 l -25.51858,-6.73955 z m 5.46554,-8.85441 c 0.33173,-0.50866 0.65729,-1.02313 0.99374,-1.52883 l 30.88218,8.15371 c -0.55102,0.45345 -1.10005,0.90332 -1.65622,1.35046 l -30.2197,-7.97534 z m 6.0261,-8.72704 c 0.36244,-0.4948 0.72848,-0.9865 1.09566,-1.47786 l 33.77422,8.90539 c -0.49383,0.46483 -0.99143,0.92948 -1.49063,1.38866 l -33.37926,-8.8162 z m 6.66313,-8.54865 c 0.39997,-0.48483 0.7926,-0.97174 1.19757,-1.45238 l 35.12466,9.26211 c -0.44653,0.48103 -0.89821,0.9511 -1.35049,1.42686 l -34.97179,-9.23663 z m 7.32559,-8.3703 c 0.44603,-0.477 0.89917,-0.9549 1.35049,-1.42686 l 34.92083,9.21114 c -0.3972,0.49154 -0.8073,0.97834 -1.21032,1.46512 l -35.06097,-9.24936 z m 8.15371,-8.15371 c 0.49647,-0.46381 0.9885,-0.93094 1.49062,-1.38866 l 33.06077,8.72703 c -0.11473,0.1802 -0.23032,0.36819 -0.34399,0.54783 -0.22901,0.32503 -0.45639,0.64511 -0.68797,0.96825 l -33.51941,-8.85443 z m 9.09649,-7.89891 c 0.58732,-0.43437 1.17734,-0.8755 1.77088,-1.31224 l 29.16227,7.68233 c -0.29116,0.52244 -0.58776,1.03833 -0.89181,1.5543 l -30.04134,-7.92439 z" />
      <path
         style="fill:#ffdd00;stroke:#000000;stroke-width:3.77318358"
         inkscape:connector-curvature="0"
         id="path3473"
         d="m -337.2542,252.97944 65.99161,65.99161 -8.74912,8.74912 -65.99161,-65.99161 z" />
      <path
         style="fill:#ffdd00;stroke:#000000;stroke-width:3.77318358"
         inkscape:connector-curvature="0"
         id="path3475"
         d="m -362.10502,367.29588 a 16.598632,16.598632 0 1 0 -23.47402,-23.474 16.598632,16.598632 0 0 0 23.47402,23.474 z" />
      <path
         style="fill:#ffffff;stroke:#000000;stroke-width:3.77318358"
         inkscape:connector-curvature="0"
         id="path3477"
         d="m -368.88829,360.51259 a 7.0056539,7.0056539 0 1 0 -9.90749,-9.90748 7.0056539,7.0056539 0 1 0 9.90749,9.90748 z" />
    </g>
  </g>
  <g
     inkscape:groupmode="layer"
     id="layer1"
     inkscape:label="Cover"
     style="display:inline"
     sodipodi:insensitive="true">
    <path
       d="m 2,2 v 257 c 0,286 298,398 298,398 0,0 298,-112 298,-398 V 2 z"
       id="shine"
       inkscape:connector-curvature="0"
       style="fill:url(#radialGradient3074);stroke:#000000;stroke-width:3" />
  </g>
</svg>
