<?xml version="1.0" encoding="UTF-8" standalone="no"?>
<svg
   xmlns:dc="http://purl.org/dc/elements/1.1/"
   xmlns:cc="http://creativecommons.org/ns#"
   xmlns:rdf="http://www.w3.org/1999/02/22-rdf-syntax-ns#"
   xmlns:svg="http://www.w3.org/2000/svg"
   xmlns="http://www.w3.org/2000/svg"
   xmlns:xlink="http://www.w3.org/1999/xlink"
   xmlns:sodipodi="http://sodipodi.sourceforge.net/DTD/sodipodi-0.dtd"
   xmlns:inkscape="http://www.inkscape.org/namespaces/inkscape"
   width="600"
   height="660"
   id="svg2"
   version="1.1"
   inkscape:version="0.48.2 r9819"
   sodipodi:docname="House_Flint_(Widow's_Watch).svg">
  <metadata
     id="metadata24">
    <rdf:RDF>
      <cc:Work
         rdf:about="">
        <dc:format>image/svg+xml</dc:format>
        <dc:type
           rdf:resource="http://purl.org/dc/dcmitype/StillImage" />
        <dc:title />
      </cc:Work>
    </rdf:RDF>
  </metadata>
  <sodipodi:namedview
     pagecolor="#ffffff"
     bordercolor="#666666"
     borderopacity="1"
     objecttolerance="10"
     gridtolerance="10"
     guidetolerance="10"
     inkscape:pageopacity="0"
     inkscape:pageshadow="2"
     inkscape:window-width="1366"
     inkscape:window-height="715"
     id="namedview22"
     showgrid="false"
     inkscape:zoom="0.50568848"
     inkscape:cx="153.83673"
     inkscape:cy="258.56856"
     inkscape:window-x="-8"
     inkscape:window-y="-8"
     inkscape:window-maximized="1"
     inkscape:current-layer="layer2" />
  <defs
     id="defs4">
    <inkscape:path-effect
       is_visible="true"
       id="path-effect3540"
       effect="spiro" />
    <inkscape:path-effect
       effect="spiro"
       id="path-effect3536"
       is_visible="true" />
    <inkscape:path-effect
       is_visible="true"
       id="path-effect3221"
       effect="spiro" />
    <inkscape:path-effect
       effect="spiro"
       id="path-effect3217"
       is_visible="true" />
    <inkscape:path-effect
       effect="spiro"
       id="path-effect3151"
       is_visible="true" />
    <inkscape:path-effect
       is_visible="true"
       id="path-effect3147"
       effect="spiro" />
    <inkscape:path-effect
       effect="spiro"
       id="path-effect3139"
       is_visible="true" />
    <inkscape:path-effect
       effect="spiro"
       id="path-effect7615"
       is_visible="true" />
    <inkscape:path-effect
       effect="spiro"
       id="path-effect3576"
       is_visible="true" />
    <inkscape:path-effect
       is_visible="true"
       id="path-effect3572"
       effect="spiro" />
    <inkscape:path-effect
       effect="spiro"
       id="path-effect3568"
       is_visible="true" />
    <inkscape:path-effect
       is_visible="true"
       id="path-effect3136"
       effect="spiro" />
    <inkscape:path-effect
       effect="spiro"
       id="path-effect3132"
       is_visible="true" />
    <inkscape:path-effect
       effect="spiro"
       id="path-effect3101"
       is_visible="true" />
    <inkscape:path-effect
       is_visible="true"
       id="path-effect3085"
       effect="spiro" />
    <inkscape:path-effect
       is_visible="true"
       id="path-effect3083"
       effect="spiro" />
    <inkscape:path-effect
       is_visible="true"
       id="path-effect3081"
       effect="spiro" />
    <inkscape:path-effect
       is_visible="true"
       id="path-effect3079"
       effect="spiro" />
    <inkscape:path-effect
       is_visible="true"
       id="path-effect3077"
       effect="spiro" />
    <inkscape:path-effect
       is_visible="true"
       id="path-effect3075"
       effect="spiro" />
    <inkscape:path-effect
       effect="spiro"
       id="path-effect3049"
       is_visible="true" />
    <inkscape:path-effect
       is_visible="true"
       id="path-effect3045"
       effect="spiro" />
    <inkscape:path-effect
       effect="spiro"
       id="path-effect3041"
       is_visible="true" />
    <radialGradient
       id="rg"
       gradientUnits="userSpaceOnUse"
       cx="220"
       cy="220"
       r="405">
      <stop
         style="stop-color:#fff;stop-opacity:.3"
         offset="0"
         id="stop7" />
      <stop
         style="stop-color:#fff;stop-opacity:.2"
         offset=".2"
         id="stop9" />
      <stop
         style="stop-color:#666;stop-opacity:.1"
         offset=".6"
         id="stop11" />
      <stop
         style="stop-color:#000;stop-opacity:.13"
         offset="1"
         id="stop13" />
    </radialGradient>
    <path
       id="shield"
       d="m2,2v257c0,286 298,398 298,398c0,0 298-112 298-398V2z" />
    <radialGradient
       inkscape:collect="always"
       xlink:href="#rg-7"
       id="radialGradient3055-1"
       gradientUnits="userSpaceOnUse"
       cx="220"
       cy="220"
       r="405" />
    <radialGradient
       id="rg-7"
       gradientUnits="userSpaceOnUse"
       cx="220"
       cy="220"
       r="405">
      <stop
         style="stop-color:#fff;stop-opacity:.3"
         offset="0"
         id="stop7-4" />
      <stop
         style="stop-color:#fff;stop-opacity:.2"
         offset=".2"
         id="stop9-0" />
      <stop
         style="stop-color:#666;stop-opacity:.1"
         offset=".6"
         id="stop11-9" />
      <stop
         style="stop-color:#000;stop-opacity:.13"
         offset="1"
         id="stop13-4" />
    </radialGradient>
    <radialGradient
       r="405"
       cy="220"
       cx="220"
       gradientUnits="userSpaceOnUse"
       id="radialGradient3074"
       xlink:href="#rg-7"
       inkscape:collect="always" />
    <inkscape:path-effect
       is_visible="true"
       id="path-effect10120-1"
       effect="spiro" />
    <inkscape:path-effect
       effect="spiro"
       id="path-effect10118-3"
       is_visible="true" />
    <inkscape:path-effect
       effect="spiro"
       id="path-effect10116-9"
       is_visible="true" />
    <inkscape:path-effect
       effect="spiro"
       id="path-effect10114-7"
       is_visible="true" />
    <inkscape:path-effect
       effect="spiro"
       id="path-effect10112-7"
       is_visible="true" />
    <inkscape:path-effect
       effect="spiro"
       id="path-effect10110-2"
       is_visible="true" />
    <linearGradient
       inkscape:collect="always"
       xlink:href="#linearGradient4719-5"
       id="linearGradient4039"
       gradientUnits="userSpaceOnUse"
       gradientTransform="matrix(2.3257341,0,0,2.2943177,447.69485,-1820.2799)"
       x1="-145.25935"
       y1="984.24286"
       x2="-64.14286"
       y2="984.14789" />
    <linearGradient
       inkscape:collect="always"
       id="linearGradient4719-5">
      <stop
         style="stop-color:#666666;stop-opacity:1;"
         offset="0"
         id="stop4721-5" />
      <stop
         id="stop4809-1"
         offset="0.39344174"
         style="stop-color:#666666;stop-opacity:0.74901961;" />
      <stop
         style="stop-color:#666666;stop-opacity:0;"
         offset="1"
         id="stop4723-7" />
    </linearGradient>
    <radialGradient
       inkscape:collect="always"
       xlink:href="#linearGradient4801-8"
       id="radialGradient4041"
       gradientUnits="userSpaceOnUse"
       gradientTransform="matrix(-0.72153181,1.2650715,-2.2729984,-1.2616144,1712.0113,1733.7841)"
       cx="-307.14288"
       cy="782.36218"
       fx="-307.14288"
       fy="782.36218"
       r="63" />
    <linearGradient
       inkscape:collect="always"
       id="linearGradient4801-8">
      <stop
         style="stop-color:#000000;stop-opacity:1;"
         offset="0"
         id="stop4803-2" />
      <stop
         style="stop-color:#000000;stop-opacity:0;"
         offset="1"
         id="stop4805-4" />
    </linearGradient>
    <inkscape:path-effect
       effect="spiro"
       id="path-effect10108-4"
       is_visible="true" />
    <linearGradient
       inkscape:collect="always"
       xlink:href="#linearGradient4719-5"
       id="linearGradient4044"
       gradientUnits="userSpaceOnUse"
       gradientTransform="matrix(-2.4055369,0,0,-1.6485021,142.06168,1726.5307)"
       x1="-145.25935"
       y1="984.24286"
       x2="-64.14286"
       y2="984.14789" />
    <radialGradient
       inkscape:collect="always"
       xlink:href="#linearGradient4801-8"
       id="radialGradient4046"
       gradientUnits="userSpaceOnUse"
       gradientTransform="matrix(0.74628962,-0.90897301,2.3509914,0.90648896,-1165.637,-827.11785)"
       cx="-307.14288"
       cy="782.36218"
       fx="-307.14288"
       fy="782.36218"
       r="63" />
    <inkscape:path-effect
       effect="spiro"
       id="path-effect10102-7"
       is_visible="true" />
    <linearGradient
       inkscape:collect="always"
       xlink:href="#linearGradient4719-5"
       id="linearGradient4049"
       gradientUnits="userSpaceOnUse"
       gradientTransform="matrix(2.334989,0,0,-1.6146975,449.44065,1692.189)"
       x1="-145.25935"
       y1="984.24286"
       x2="-64.14286"
       y2="984.14789" />
    <radialGradient
       inkscape:collect="always"
       xlink:href="#linearGradient4801-8"
       id="radialGradient4051"
       gradientUnits="userSpaceOnUse"
       gradientTransform="matrix(-0.72440295,-0.89033332,-2.2820431,0.88790031,1718.7881,-809.09364)"
       cx="-307.14288"
       cy="782.36218"
       fx="-307.14288"
       fy="782.36218"
       r="63" />
    <inkscape:path-effect
       is_visible="true"
       id="path-effect10096-8"
       effect="spiro" />
    <linearGradient
       inkscape:collect="always"
       xlink:href="#linearGradient4719-5"
       id="linearGradient4054"
       gradientUnits="userSpaceOnUse"
       gradientTransform="matrix(-2.409599,0,0,2.2818507,139.61083,-1810.8163)"
       x1="-145.25935"
       y1="984.24286"
       x2="-64.14286"
       y2="984.14789" />
    <radialGradient
       inkscape:collect="always"
       xlink:href="#linearGradient4801-8"
       id="radialGradient4056"
       gradientUnits="userSpaceOnUse"
       gradientTransform="matrix(0.74754985,1.2581972,2.3549614,-1.2547588,-1170.296,1723.935)"
       cx="-307.14288"
       cy="782.36218"
       fx="-307.14288"
       fy="782.36218"
       r="63" />
    <inkscape:path-effect
       is_visible="true"
       id="path-effect10090-3"
       effect="spiro" />
    <inkscape:path-effect
       effect="spiro"
       id="path-effect10084-1"
       is_visible="true" />
    <inkscape:path-effect
       effect="spiro"
       id="path-effect10082-1"
       is_visible="true" />
    <radialGradient
       inkscape:collect="always"
       xlink:href="#linearGradient4801-8"
       id="radialGradient4061"
       gradientUnits="userSpaceOnUse"
       gradientTransform="matrix(-0.76516322,1.2901254,-2.4104477,-1.2865998,1806.8444,1757.4704)"
       cx="-307.14288"
       cy="782.36218"
       fx="-307.14288"
       fy="782.36218"
       r="63" />
    <inkscape:path-effect
       effect="spiro"
       id="path-effect10080-4"
       is_visible="true" />
    <inkscape:path-effect
       is_visible="true"
       id="path-effect3075-1"
       effect="spiro" />
    <inkscape:path-effect
       effect="spiro"
       id="path-effect3101-7"
       is_visible="true" />
    <linearGradient
       inkscape:collect="always"
       xlink:href="#grad1-7-7"
       id="linearGradient3085-8-8"
       gradientUnits="userSpaceOnUse"
       gradientTransform="matrix(0.77469594,0,0,0.30982404,152.68996,-13.619206)"
       x1="78.877235"
       y1="178.07356"
       x2="301.40585"
       y2="178.07356" />
    <linearGradient
       id="grad1-7-7"
       x1="78.877235"
       y1="178.07356"
       x2="301.40585"
       y2="178.07356"
       gradientTransform="scale(1.577772,0.63380513)"
       gradientUnits="userSpaceOnUse">
      <stop
         offset="0%"
         style="stop-color:#da0;"
         id="stop16-4-4" />
      <stop
         offset="40%"
         style="stop-color:#fd0;"
         id="stop18-0-0" />
      <stop
         offset="60%"
         style="stop-color:#fd0;"
         id="stop20-9-9" />
      <stop
         offset="100%"
         style="stop-color:#da0;"
         id="stop22-4-4" />
    </linearGradient>
    <linearGradient
       inkscape:collect="always"
       xlink:href="#grad1-7-7"
       id="linearGradient3081-8-8"
       gradientUnits="userSpaceOnUse"
       gradientTransform="matrix(0.77469594,0,0,0.30982404,-27.310046,-13.619206)"
       x1="78.877235"
       y1="178.07356"
       x2="301.40585"
       y2="178.07356" />
    <linearGradient
       id="linearGradient3093"
       x1="78.877235"
       y1="178.07356"
       x2="301.40585"
       y2="178.07356"
       gradientTransform="scale(1.577772,0.63380513)"
       gradientUnits="userSpaceOnUse">
      <stop
         offset="0%"
         style="stop-color:#da0;"
         id="stop3095" />
      <stop
         offset="40%"
         style="stop-color:#fd0;"
         id="stop3097" />
      <stop
         offset="60%"
         style="stop-color:#fd0;"
         id="stop3099" />
      <stop
         offset="100%"
         style="stop-color:#da0;"
         id="stop3101" />
    </linearGradient>
    <linearGradient
       y2="178.07356"
       x2="301.40585"
       y1="178.07356"
       x1="78.877235"
       gradientTransform="matrix(0.77469594,0,0,0.30982404,332.68995,-13.619206)"
       gradientUnits="userSpaceOnUse"
       id="linearGradient3128-1"
       xlink:href="#grad1-7-7"
       inkscape:collect="always" />
    <linearGradient
       id="linearGradient3104"
       x1="78.877235"
       y1="178.07356"
       x2="301.40585"
       y2="178.07356"
       gradientTransform="scale(1.577772,0.63380513)"
       gradientUnits="userSpaceOnUse">
      <stop
         offset="0%"
         style="stop-color:#da0;"
         id="stop3106" />
      <stop
         offset="40%"
         style="stop-color:#fd0;"
         id="stop3108" />
      <stop
         offset="60%"
         style="stop-color:#fd0;"
         id="stop3110" />
      <stop
         offset="100%"
         style="stop-color:#da0;"
         id="stop3112" />
    </linearGradient>
    <inkscape:path-effect
       is_visible="true"
       id="path-effect3061"
       effect="spiro" />
    <clipPath
       clipPathUnits="userSpaceOnUse"
       id="clipPath10110">
      <path
         style="fill:#ffff00;fill-opacity:1;stroke:none"
         id="path10112"
         d="M 598,2 V 259 C 598,545 300,657 300,657 300,657 2,545 2,259 V 2 z"
         inkscape:connector-curvature="0" />
    </clipPath>
    <clipPath
       clipPathUnits="userSpaceOnUse"
       id="clipPath4574">
      <path
         style="fill:#000000;fill-opacity:1;stroke:none;display:inline"
         id="path4576"
         d="M 598,2 V 259 C 598,545 300,657 300,657 300,657 2,545 2,259 V 2 z"
         inkscape:connector-curvature="0" />
    </clipPath>
  </defs>
  <g
     inkscape:groupmode="layer"
     id="layer2"
     inkscape:label="Elements"
     style="display:inline">
    <use
       height="1052.3622"
       width="744.09448"
       y="0"
       x="0"
       xlink:href="#shield"
       id="use22"
       style="fill:#0000cc;fill-opacity:1;display:inline"
       transform="translate(0.4999998,0)" />
    <path
       inkscape:connector-curvature="0"
       style="fill:#00ff00;fill-opacity:1;display:inline"
       d="m 2,147.28125 1,0.9375"
       id="path3122" />
    <path
       inkscape:connector-curvature="0"
       style="fill:#ffff00;fill-opacity:1;display:inline"
       d="m 2.5,2 0,162.34375 c 14.016826,-3.50967 26.552191,-8.92995 36.625,-16.125 13.04754,-9.31984 23.93476,-17.71096 33.28125,-17.8125 5.99143,-0.0651 11.37631,3.2955 16.15625,12.03125 -21.56011,-15.77692 -34.93433,25.34706 5.875,26.15625 l 2.75,0 c 24.98217,-1.70902 47.62345,-8.76646 63.875,-20.375 21.41127,-15.29408 37.29451,-28.14479 49.53125,-5.78125 -21.56015,-15.77692 -34.99684,25.34706 5.8125,26.15625 l 2.71875,0 c 24.98212,-1.70902 47.71722,-8.76646 63.96875,-20.375 21.41135,-15.29408 37.20073,-28.14479 49.4375,-5.78125 -21.5359,-15.75912 -34.89156,25.25719 5.75,26.15625 24.95884,-1.71608 47.72991,-8.77554 63.96875,-20.375 13.0476,-9.31984 23.93476,-17.71096 33.28125,-17.8125 5.99129,-0.0651 11.28256,3.2955 16.0625,12.03125 -21.56011,-15.77692 -34.84071,25.34706 5.96875,26.15625 l 2.65625,0 c 24.98197,-1.70902 47.65458,-8.76646 63.90625,-20.375 21.41115,-15.29408 37.2632,-28.14479 49.5,-5.78125 -21.56014,-15.77692 -34.90302,25.34706 5.90625,26.15625 l 2.65625,0 c 5.56926,-0.38099 11.01424,-1.06498 16.3125,-1.96875 L 598.5,2 2.5,2 z"
       id="background" />
    <g
       style="display:inline"
       id="g3182"
       transform="translate(-7.6666875,0)">
      <path
         style="fill:#ffffff;stroke:#0000cc;stroke-width:10"
         inkscape:connector-curvature="0"
         id="path3111"
         d="m 107.5,70.02462 c 0,0 25,-40 75,-40 50,0 75,40 75,40 0,0 -25,40 -75,40 -50,0 -75,-40 -75,-40 z" />
      <circle
         transform="translate(-117.5,-219.97538)"
         style="fill:#000000;stroke:#0000cc;stroke-width:20"
         sodipodi:ry="26"
         sodipodi:rx="26"
         sodipodi:cy="290"
         sodipodi:cx="300"
         d="m 326,290 c 0,14.3594 -11.6406,26 -26,26 -14.3594,0 -26,-11.6406 -26,-26 0,-14.3594 11.6406,-26 26,-26 14.3594,0 26,11.6406 26,26 z"
         id="circle3113"
         r="26"
         cy="290"
         cx="300" />
    </g>
    <path
       inkscape:connector-curvature="0"
       style="fill:#ffffff;display:inline"
       d="M 9.78125,188.625 C 7.323996,188.64723 4.7803163,188.97788 2.5,189.5625 L 2.5,259 c 0,0.021 -3.2e-6,0.0415 0,0.0625 19.064915,0.0871 38.5,-0.23077 38.5,-1 0,-0.51775 -2.72523,-2.40875 -6.0625,-4.1875 C 25.54989,248.87145 15.73525,239.21582 11.53125,230.8125 8.4319104,224.61729 8,222.79321 8,216.3125 c 0,-11.95514 4.28781,-18.16955 11.6875,-16.96875 2.36034,0.38303 3.57804,0.12424 3.9375,-0.8125 0.89423,-2.33034 -2.36798,-7.17198 -5.8125,-8.625 -2.100744,-0.88617 -5.003799,-1.30864 -8.03125,-1.28125 z m 119,0 c -3.89244,0.0352 -8.00211,0.79775 -10.9375,2.21875 -9.58776,4.64135 -22.19294,20.69761 -27.9375,35.59375 -5.24102,13.59042 -7.47952,28.58298 -4.6875,31.375 1.49826,1.49826 74.78125,1.74308 74.78125,0.25 0,-0.51775 -2.72523,-2.40875 -6.0625,-4.1875 -9.38761,-5.00355 -19.20225,-14.65918 -23.40625,-23.0625 -3.09934,-6.19521 -3.53125,-8.01929 -3.53125,-14.5 0,-11.95514 4.28781,-18.16955 11.6875,-16.96875 2.36034,0.38303 3.57804,0.12424 3.9375,-0.8125 0.89423,-2.33034 -2.36798,-7.17198 -5.8125,-8.625 -2.10074,-0.88617 -5.0038,-1.30864 -8.03125,-1.28125 z m 119,0 c -3.89244,0.0352 -8.00211,0.79775 -10.9375,2.21875 -9.58776,4.64135 -22.19294,20.69761 -27.9375,35.59375 -5.24102,13.59042 -7.47952,28.58298 -4.6875,31.375 1.49826,1.49826 74.78125,1.74308 74.78125,0.25 0,-0.51775 -2.72523,-2.40875 -6.0625,-4.1875 -9.38761,-5.00355 -19.20225,-14.65918 -23.40625,-23.0625 -3.09934,-6.19521 -3.53125,-8.01929 -3.53125,-14.5 0,-11.95514 4.28781,-18.16955 11.6875,-16.96875 2.36034,0.38303 3.57804,0.12424 3.9375,-0.8125 0.89423,-2.33034 -2.36798,-7.17198 -5.8125,-8.625 -2.10074,-0.88617 -5.0038,-1.30864 -8.03125,-1.28125 z m 119,0 c -3.89244,0.0352 -8.00211,0.79775 -10.9375,2.21875 -9.58776,4.64135 -22.19294,20.69761 -27.9375,35.59375 -5.24102,13.59042 -7.47952,28.58298 -4.6875,31.375 1.49826,1.49826 74.78125,1.74308 74.78125,0.25 0,-0.51775 -2.72523,-2.40875 -6.0625,-4.1875 -9.38761,-5.00355 -19.20225,-14.65918 -23.40625,-23.0625 -3.09934,-6.19521 -3.53125,-8.01929 -3.53125,-14.5 0,-11.95514 4.28781,-18.16955 11.6875,-16.96875 2.36034,0.38303 3.57804,0.12424 3.9375,-0.8125 0.89423,-2.33034 -2.36798,-7.17198 -5.8125,-8.625 -2.10074,-0.88617 -5.0038,-1.30864 -8.03125,-1.28125 z m 119,0 c -3.89244,0.0352 -8.00211,0.79775 -10.9375,2.21875 -9.58776,4.64135 -22.19294,20.69761 -27.9375,35.59375 -5.24102,13.59042 -7.47952,28.58298 -4.6875,31.375 1.49826,1.49826 74.78125,1.74308 74.78125,0.25 0,-0.51775 -2.72523,-2.40875 -6.0625,-4.1875 -9.38761,-5.00355 -19.20225,-14.65918 -23.40625,-23.0625 -3.09934,-6.19521 -3.53125,-8.01929 -3.53125,-14.5 0,-11.95514 4.28781,-18.16955 11.6875,-16.96875 2.36034,0.38303 3.57804,0.12424 3.9375,-0.8125 0.89423,-2.33034 -2.36798,-7.17198 -5.8125,-8.625 -2.10074,-0.88617 -5.0038,-1.30864 -8.03125,-1.28125 z M 598.5,189.3125 c -1.7056,0.36805 -3.31029,0.87968 -4.65625,1.53125 -9.58776,4.64135 -22.19294,20.69761 -27.9375,35.59375 -5.24102,13.59042 -7.47952,28.58298 -4.6875,31.375 0.74011,0.74011 18.9942,1.18001 37.28125,1.25 0,-0.021 0,-0.0415 0,-0.0625 l 0,-69.6875 z M 69.28125,288.09375 c -3.892437,0.0352 -8.002105,0.79775 -10.9375,2.21875 -9.587759,4.64135 -22.192942,20.72886 -27.9375,35.625 -5.241024,13.59042 -7.479522,28.55173 -4.6875,31.34375 1.498256,1.49826 74.78125,1.74308 74.78125,0.25 0,-0.51775 -2.72523,-2.3775 -6.0625,-4.15625 C 85.04989,348.37145 75.23525,338.68457 71.03125,330.28125 67.93191,324.08604 67.5,322.29321 67.5,315.8125 c 0,-11.95514 4.28781,-18.2008 11.6875,-17 2.36034,0.38303 3.57804,0.15549 3.9375,-0.78125 0.89423,-2.33034 -2.36798,-7.20323 -5.8125,-8.65625 -2.100744,-0.88617 -5.003799,-1.30864 -8.03125,-1.28125 z m 119,0 c -3.89244,0.0352 -8.00211,0.79775 -10.9375,2.21875 -9.58776,4.64135 -22.19294,20.72886 -27.9375,35.625 -5.24102,13.59042 -7.47952,28.55173 -4.6875,31.34375 1.49825,1.49826 74.78125,1.74308 74.78125,0.25 0,-0.51775 -2.72523,-2.3775 -6.0625,-4.15625 -9.38761,-5.00355 -19.20225,-14.69043 -23.40625,-23.09375 -3.09934,-6.19521 -3.53125,-7.98804 -3.53125,-14.46875 0,-11.95514 4.28781,-18.2008 11.6875,-17 2.36034,0.38303 3.57804,0.15549 3.9375,-0.78125 0.89423,-2.33034 -2.36798,-7.20323 -5.8125,-8.65625 -2.10074,-0.88617 -5.0038,-1.30864 -8.03125,-1.28125 z m 119,0 c -3.89244,0.0352 -8.00211,0.79775 -10.9375,2.21875 -9.58776,4.64135 -22.19294,20.72886 -27.9375,35.625 -5.24102,13.59042 -7.47952,28.55173 -4.6875,31.34375 1.49825,1.49826 74.78125,1.74308 74.78125,0.25 0,-0.51775 -2.72523,-2.3775 -6.0625,-4.15625 -9.38761,-5.00355 -19.20225,-14.69043 -23.40625,-23.09375 -3.09934,-6.19521 -3.53125,-7.98804 -3.53125,-14.46875 0,-11.95514 4.28781,-18.2008 11.6875,-17 2.36034,0.38303 3.57804,0.15549 3.9375,-0.78125 0.89423,-2.33034 -2.36798,-7.20323 -5.8125,-8.65625 -2.10074,-0.88617 -5.0038,-1.30864 -8.03125,-1.28125 z m 119,0 c -3.89244,0.0352 -8.00211,0.79775 -10.9375,2.21875 -9.58776,4.64135 -22.19294,20.72886 -27.9375,35.625 -5.24102,13.59042 -7.47952,28.55173 -4.6875,31.34375 1.49825,1.49826 74.78125,1.74308 74.78125,0.25 0,-0.51775 -2.72523,-2.3775 -6.0625,-4.15625 -9.38761,-5.00355 -19.20225,-14.69043 -23.40625,-23.09375 -3.09934,-6.19521 -3.53125,-7.98804 -3.53125,-14.46875 0,-11.95514 4.28781,-18.2008 11.6875,-17 2.36034,0.38303 3.57804,0.15549 3.9375,-0.78125 0.89423,-2.33034 -2.36798,-7.20323 -5.8125,-8.65625 -2.10074,-0.88617 -5.0038,-1.30864 -8.03125,-1.28125 z m 119,0 c -3.89244,0.0352 -8.00211,0.79775 -10.9375,2.21875 -9.58776,4.64135 -22.19294,20.72886 -27.9375,35.625 -5.24102,13.59042 -7.47952,28.55173 -4.6875,31.34375 1.49825,1.49826 74.78125,1.74308 74.78125,0.25 0,-0.51775 -2.72523,-2.3775 -6.0625,-4.15625 -9.38761,-5.00355 -19.20225,-14.69043 -23.40625,-23.09375 -3.09934,-6.19521 -3.53125,-7.98804 -3.53125,-14.46875 0,-11.95514 4.28781,-18.2008 11.6875,-17 2.36034,0.38303 3.57804,0.15549 3.9375,-0.78125 0.89423,-2.33034 -2.36798,-7.20323 -5.8125,-8.65625 -2.10074,-0.88617 -5.0038,-1.30864 -8.03125,-1.28125 z m -416.5,99.5 c -3.89244,0.0352 -8.00211,0.79775 -10.9375,2.21875 -9.58776,4.64135 -22.19294,20.69761 -27.9375,35.59375 -5.24102,13.59042 -7.47952,28.58298 -4.6875,31.375 1.49826,1.49826 74.78125,1.74308 74.78125,0.25 0,-0.51775 -2.72523,-2.40875 -6.0625,-4.1875 -9.38761,-5.00355 -19.20225,-14.65918 -23.40625,-23.0625 -3.09934,-6.19521 -3.53125,-8.01929 -3.53125,-14.5 0,-11.95514 4.28781,-18.16955 11.6875,-16.96875 2.36034,0.38303 3.57804,0.12424 3.9375,-0.8125 0.89423,-2.33034 -2.36798,-7.17198 -5.8125,-8.625 -2.10074,-0.88617 -5.0038,-1.30864 -8.03125,-1.28125 z m 119,0 c -3.89244,0.0352 -8.00211,0.79775 -10.9375,2.21875 -9.58776,4.64135 -22.19294,20.69761 -27.9375,35.59375 -5.24102,13.59042 -7.47952,28.58298 -4.6875,31.375 1.49826,1.49826 74.78125,1.74308 74.78125,0.25 0,-0.51775 -2.72523,-2.40875 -6.0625,-4.1875 -9.38761,-5.00355 -19.20225,-14.65918 -23.40625,-23.0625 -3.09934,-6.19521 -3.53125,-8.01929 -3.53125,-14.5 0,-11.95514 4.28781,-18.16955 11.6875,-16.96875 2.36034,0.38303 3.57804,0.12424 3.9375,-0.8125 0.89423,-2.33034 -2.36798,-7.17198 -5.8125,-8.625 -2.10074,-0.88617 -5.0038,-1.30864 -8.03125,-1.28125 z m 119,0 c -3.89244,0.0352 -8.00211,0.79775 -10.9375,2.21875 -9.58776,4.64135 -22.19294,20.69761 -27.9375,35.59375 -5.24102,13.59042 -7.47952,28.58298 -4.6875,31.375 1.49826,1.49826 74.78125,1.74308 74.78125,0.25 0,-0.51775 -2.72523,-2.40875 -6.0625,-4.1875 -9.38761,-5.00355 -19.20225,-14.65918 -23.40625,-23.0625 -3.09934,-6.19521 -3.53125,-8.01929 -3.53125,-14.5 0,-11.95514 4.28781,-18.16955 11.6875,-16.96875 2.36034,0.38303 3.57804,0.12424 3.9375,-0.8125 0.89423,-2.33034 -2.36798,-7.17198 -5.8125,-8.625 -2.10074,-0.88617 -5.0038,-1.30864 -8.03125,-1.28125 z m 119,0 c -3.89244,0.0352 -8.00211,0.79775 -10.9375,2.21875 -9.58776,4.64135 -22.19294,20.69761 -27.9375,35.59375 -5.24102,13.59042 -7.47952,28.58298 -4.6875,31.375 1.49826,1.49826 74.78125,1.74308 74.78125,0.25 0,-0.51775 -2.72523,-2.40875 -6.0625,-4.1875 -9.38761,-5.00355 -19.20225,-14.65918 -23.40625,-23.0625 -3.09934,-6.19521 -3.53125,-8.01929 -3.53125,-14.5 0,-11.95514 4.28781,-18.16955 11.6875,-16.96875 2.36034,0.38303 3.57804,0.12424 3.9375,-0.8125 0.89423,-2.33034 -2.36798,-7.17198 -5.8125,-8.625 -2.10074,-0.88617 -5.0038,-1.30864 -8.03125,-1.28125 z m -297.5,99.46875 c -3.89244,0.0352 -8.00211,0.79775 -10.9375,2.21875 -9.58776,4.64135 -22.19294,20.72886 -27.9375,35.625 -5.24102,13.59042 -7.47952,28.55173 -4.6875,31.34375 1.49825,1.49826 74.78125,1.74308 74.78125,0.25 0,-0.51775 -2.72523,-2.3775 -6.0625,-4.15625 -9.38761,-5.00355 -19.20225,-14.65918 -23.40625,-23.0625 -3.09934,-6.19521 -3.53125,-8.01929 -3.53125,-14.5 0,-11.95514 4.28781,-18.2008 11.6875,-17 2.36034,0.38303 3.57804,0.15549 3.9375,-0.78125 0.89423,-2.33034 -2.36798,-7.20323 -5.8125,-8.65625 -2.10074,-0.88617 -5.0038,-1.30864 -8.03125,-1.28125 z m 119,0 c -3.89244,0.0352 -8.00211,0.79775 -10.9375,2.21875 -9.58776,4.64135 -22.19294,20.72886 -27.9375,35.625 -5.24102,13.59042 -7.47952,28.55173 -4.6875,31.34375 1.49825,1.49826 74.78125,1.74308 74.78125,0.25 0,-0.51775 -2.72523,-2.3775 -6.0625,-4.15625 -9.38761,-5.00355 -19.20225,-14.65918 -23.40625,-23.0625 -3.09934,-6.19521 -3.53125,-8.01929 -3.53125,-14.5 0,-11.95514 4.28781,-18.2008 11.6875,-17 2.36034,0.38303 3.57804,0.15549 3.9375,-0.78125 0.89423,-2.33034 -2.36798,-7.20323 -5.8125,-8.65625 -2.10074,-0.88617 -5.0038,-1.30864 -8.03125,-1.28125 z m 119,0 c -3.89244,0.0352 -8.00211,0.79775 -10.9375,2.21875 -9.58776,4.64135 -22.19294,20.72886 -27.9375,35.625 -5.24102,13.59042 -7.47952,28.55173 -4.6875,31.34375 1.49825,1.49826 74.78125,1.74308 74.78125,0.25 0,-0.51775 -2.72523,-2.3775 -6.0625,-4.15625 -9.38761,-5.00355 -19.20225,-14.65918 -23.40625,-23.0625 -3.09934,-6.19521 -3.53125,-8.01929 -3.53125,-14.5 0,-11.95514 4.28781,-18.2008 11.6875,-17 2.36034,0.38303 3.57804,0.15549 3.9375,-0.78125 0.89423,-2.33034 -2.36798,-7.20323 -5.8125,-8.65625 -2.10074,-0.88617 -5.0038,-1.30864 -8.03125,-1.28125 z m -178.5,99.5 c -3.89244,0.0352 -8.00211,0.79775 -10.9375,2.21875 -6.96573,3.37205 -15.51195,12.79711 -21.875,23.40625 13.8647,8.85305 26.84933,16.32392 38.28125,22.46875 -1.48222,-1.98845 -2.75426,-3.97833 -3.71875,-5.90625 C 246.43191,622.55479 246,620.76196 246,614.28125 c 0,-11.95514 4.28781,-18.2008 11.6875,-17 2.36034,0.38303 3.57804,0.12424 3.9375,-0.8125 0.89423,-2.33034 -2.36798,-7.17198 -5.8125,-8.625 -2.10074,-0.88617 -5.0038,-1.30864 -8.03125,-1.28125 z m 119,0 c -3.89244,0.0352 -8.00211,0.79775 -10.9375,2.21875 -9.58776,4.64135 -22.19294,20.72886 -27.9375,35.625 -3.1716,8.22424 -5.22691,16.92859 -5.75,23.15625 11.43505,-5.3781 26.67395,-13.09661 44.28125,-23.40625 -1.1976,-3.07161 -1.4375,-5.32765 -1.4375,-9.875 0,-11.95514 4.28781,-18.2008 11.6875,-17 2.36034,0.38303 3.57804,0.12424 3.9375,-0.8125 0.89423,-2.33034 -2.36798,-7.17198 -5.8125,-8.625 -2.10074,-0.88617 -5.0038,-1.30864 -8.03125,-1.28125 z"
       id="path3205" />
    <g
       style="display:inline"
       transform="translate(243.66662,0)"
       id="g3554">
      <path
         d="m 107.5,70.02462 c 0,0 25,-40 75,-40 50,0 75,40 75,40 0,0 -25,40 -75,40 -50,0 -75,-40 -75,-40 z"
         id="path3556"
         inkscape:connector-curvature="0"
         style="fill:#ffffff;stroke:#0000cc;stroke-width:10" />
      <circle
         cx="300"
         cy="290"
         r="26"
         id="circle3558"
         d="m 326,290 c 0,14.3594 -11.6406,26 -26,26 -14.3594,0 -26,-11.6406 -26,-26 0,-14.3594 11.6406,-26 26,-26 14.3594,0 26,11.6406 26,26 z"
         sodipodi:cx="300"
         sodipodi:cy="290"
         sodipodi:rx="26"
         sodipodi:ry="26"
         style="fill:#000000;stroke:#0000cc;stroke-width:20"
         transform="translate(-117.5,-219.97538)" />
    </g>
  </g>
  <g
     inkscape:groupmode="layer"
     id="layer1"
     inkscape:label="Cover"
     style="display:inline"
     sodipodi:insensitive="true">
    <path
       d="m 2,2 v 257 c 0,286 298,398 298,398 0,0 298,-112 298,-398 V 2 z"
       id="shine"
       inkscape:connector-curvature="0"
       style="fill:url(#radialGradient3074);stroke:#000000;stroke-width:3" />
  </g>
</svg>
