<?xml version="1.0" encoding="UTF-8" standalone="no"?>
<svg
   xmlns:dc="http://purl.org/dc/elements/1.1/"
   xmlns:cc="http://creativecommons.org/ns#"
   xmlns:rdf="http://www.w3.org/1999/02/22-rdf-syntax-ns#"
   xmlns:svg="http://www.w3.org/2000/svg"
   xmlns="http://www.w3.org/2000/svg"
   xmlns:xlink="http://www.w3.org/1999/xlink"
   xmlns:sodipodi="http://sodipodi.sourceforge.net/DTD/sodipodi-0.dtd"
   xmlns:inkscape="http://www.inkscape.org/namespaces/inkscape"
   width="600"
   height="660"
   id="svg2"
   version="1.1"
   inkscape:version="0.48.2 r9819"
   sodipodi:docname="House_Frey.svg">
  <metadata
     id="metadata51">
    <rdf:RDF>
      <cc:Work
         rdf:about="">
        <dc:format>image/svg+xml</dc:format>
        <dc:type
           rdf:resource="http://purl.org/dc/dcmitype/StillImage" />
        <dc:title></dc:title>
      </cc:Work>
    </rdf:RDF>
  </metadata>
  <sodipodi:namedview
     pagecolor="#ffffff"
     bordercolor="#666666"
     borderopacity="1"
     objecttolerance="10"
     gridtolerance="10"
     guidetolerance="10"
     inkscape:pageopacity="0"
     inkscape:pageshadow="2"
     inkscape:window-width="1366"
     inkscape:window-height="715"
     id="namedview49"
     showgrid="false"
     inkscape:zoom="0.71515151"
     inkscape:cx="31.42093"
     inkscape:cy="405.34774"
     inkscape:window-x="-8"
     inkscape:window-y="-8"
     inkscape:window-maximized="1"
     inkscape:current-layer="svg2" />
  <defs
     id="defs4">
    <radialGradient
       id="rg"
       gradientUnits="userSpaceOnUse"
       cx="220"
       cy="220"
       r="405">
      <stop
         style="stop-color:#fff;stop-opacity:.3"
         offset="0"
         id="stop7" />
      <stop
         style="stop-color:#fff;stop-opacity:.2"
         offset=".2"
         id="stop9" />
      <stop
         style="stop-color:#666;stop-opacity:.1"
         offset=".6"
         id="stop11" />
      <stop
         style="stop-color:#000;stop-opacity:.13"
         offset="1"
         id="stop13" />
    </radialGradient>
    <clipPath
       id="clip-shield">
      <path
         id="shield"
         d="m2,2v257c0,286 298,398 298,398c0,0 298-112 298-398V2z" />
    </clipPath>
    <radialGradient
       id="rg-1"
       gradientUnits="userSpaceOnUse"
       cx="220"
       cy="220"
       r="405">
      <stop
         style="stop-color:#fff;stop-opacity:.3"
         offset="0"
         id="stop7-7" />
      <stop
         style="stop-color:#fff;stop-opacity:.2"
         offset=".2"
         id="stop9-4" />
      <stop
         style="stop-color:#666;stop-opacity:.1"
         offset=".6"
         id="stop11-0" />
      <stop
         style="stop-color:#000;stop-opacity:.13"
         offset="1"
         id="stop13-9" />
    </radialGradient>
    <radialGradient
       id="radialGradient3027"
       gradientUnits="userSpaceOnUse"
       cx="220"
       cy="220"
       r="405">
      <stop
         style="stop-color:#fff;stop-opacity:.3"
         offset="0"
         id="stop3029" />
      <stop
         style="stop-color:#fff;stop-opacity:.2"
         offset=".2"
         id="stop3031" />
      <stop
         style="stop-color:#666;stop-opacity:.1"
         offset=".6"
         id="stop3033" />
      <stop
         style="stop-color:#000;stop-opacity:.13"
         offset="1"
         id="stop3035" />
    </radialGradient>
    <radialGradient
       r="405"
       cy="220"
       cx="220"
       gradientUnits="userSpaceOnUse"
       id="radialGradient3485"
       xlink:href="#rg-7-8"
       inkscape:collect="always"
       gradientTransform="translate(2,0)" />
    <radialGradient
       id="rg-7-8"
       gradientUnits="userSpaceOnUse"
       cx="220"
       cy="220"
       r="405">
      <stop
         style="stop-color:#fff;stop-opacity:.3"
         offset="0"
         id="stop5-4-2" />
      <stop
         style="stop-color:#fff;stop-opacity:.2"
         offset=".2"
         id="stop7-0-4" />
      <stop
         style="stop-color:#666;stop-opacity:.1"
         offset=".6"
         id="stop9-9-5" />
      <stop
         style="stop-color:#000;stop-opacity:.13"
         offset="1"
         id="stop11-4-5" />
    </radialGradient>
    <radialGradient
       r="405"
       cy="220"
       cx="220"
       gradientTransform="translate(2,0)"
       gradientUnits="userSpaceOnUse"
       id="radialGradient3094"
       xlink:href="#rg-7-8"
       inkscape:collect="always" />
    <radialGradient
       r="405"
       cy="220"
       cx="220"
       gradientTransform="translate(96.920097,-57.347558)"
       gradientUnits="userSpaceOnUse"
       id="radialGradient3094-1"
       xlink:href="#rg-7-8-7"
       inkscape:collect="always" />
    <radialGradient
       id="rg-7-8-7"
       gradientUnits="userSpaceOnUse"
       cx="220"
       cy="220"
       r="405">
      <stop
         style="stop-color:#fff;stop-opacity:.3"
         offset="0"
         id="stop5-4-2-4" />
      <stop
         style="stop-color:#fff;stop-opacity:.2"
         offset=".2"
         id="stop7-0-4-0" />
      <stop
         style="stop-color:#666;stop-opacity:.1"
         offset=".6"
         id="stop9-9-5-9" />
      <stop
         style="stop-color:#000;stop-opacity:.13"
         offset="1"
         id="stop11-4-5-4" />
    </radialGradient>
    <radialGradient
       id="rg-1-1"
       gradientUnits="userSpaceOnUse"
       cx="220"
       cy="220"
       r="405">
      <stop
         style="stop-color:#fff;stop-opacity:.3"
         offset="0"
         id="stop7-7-7" />
      <stop
         style="stop-color:#fff;stop-opacity:.2"
         offset=".2"
         id="stop9-4-4" />
      <stop
         style="stop-color:#666;stop-opacity:.1"
         offset=".6"
         id="stop11-0-0" />
      <stop
         style="stop-color:#000;stop-opacity:.13"
         offset="1"
         id="stop13-9-9" />
    </radialGradient>
    <radialGradient
       id="radialGradient3019"
       gradientUnits="userSpaceOnUse"
       cx="220"
       cy="220"
       r="405">
      <stop
         style="stop-color:#fff;stop-opacity:.3"
         offset="0"
         id="stop3021" />
      <stop
         style="stop-color:#fff;stop-opacity:.2"
         offset=".2"
         id="stop3023" />
      <stop
         style="stop-color:#666;stop-opacity:.1"
         offset=".6"
         id="stop3025" />
      <stop
         style="stop-color:#000;stop-opacity:.13"
         offset="1"
         id="stop3027" />
    </radialGradient>
  </defs>
  <use
     height="1052.3622"
     width="744.09448"
     y="0"
     x="0"
     id="shine"
     xlink:href="#shield"
     style="fill:#0000cc" />
  <g
     transform="matrix(0.83048267,0,0,0.83048267,215.52294,-50.141558)"
     id="g3281"
     style="stroke-width:2;stroke-miterlimit:4;stroke-dasharray:none;display:inline">
    <path
       d="m 196.43343,233.69878 0,-57.53699 27.61775,0 0,23.0148 17.2611,0 0,-23.0148 27.61775,0 0,23.0148 17.26109,0 0,-23.0148 27.61775,0 0,23.0148 17.2611,0 0,-23.0148 27.61775,0 0,23.0148 17.26109,0 0,-23.0148 27.61776,0 0,57.53699 z m 5.7537,0 195.62574,0 0,8.63054 -195.62574,0 z m 5.7537,8.63054 184.11834,0 0,8.63055 -184.11834,0 z m 28.76849,60.41384 c 0,-17.2611 -11.5074,-40.27589 -23.01479,-51.78329 l 172.61094,0 c -11.50739,11.5074 -23.01479,34.52219 -23.01479,51.78329 z m -2.87685,0 132.33506,0 0,8.63054 -132.33506,0 z m 2.87685,8.63054 126.58136,0 0,5.7537 -126.58136,0 z m -51.78329,235.90163 0,-80.55178 c 57.53699,-57.53698 57.53699,-120.82766 57.53699,-149.59615 l 115.07396,0 c 0,28.76849 0,92.05917 57.53698,149.59615 l 0,80.55178 z m -5.75369,0 241.65532,0 0,14.38424 -241.65532,0 z"
       id="path22"
       inkscape:connector-curvature="0"
       style="fill:#aeaeae;stroke:#000000;stroke-width:2.40823817000000020;stroke-miterlimit:4;stroke-dasharray:none;fill-opacity:1" />
    <path
       d="m 210.24231,190.54604 0,-14.38425 m 44.87884,14.38425 0,-14.38425 M 300,190.54604 l 0,-14.38425 m 44.87884,14.38425 0,-14.38425 m 44.87885,14.38425 0,-14.38425 m -157.07596,43.15274 0,-20.13794 m 44.87885,20.13794 0,-20.13794 m 44.87884,20.13794 0,-20.13794 m 44.87885,20.13794 0,-20.13794 m -157.07596,34.52219 0,-14.38425 m 44.87884,14.38425 0,-14.38425 M 300,233.69878 l 0,-14.38425 m 44.87884,14.38425 0,-14.38425 m 44.87885,14.38425 0,-14.38425 m -193.32426,0 207.13314,0 m -207.13314,-28.76849 27.61775,0 m 17.2611,0 27.61775,0 m 17.26109,0 27.61775,0 m 17.2611,0 27.61775,0 m 17.26109,0 27.61776,0 m -172.61095,69.04438 0,-8.63055 m 23.01479,8.63055 0,-8.63055 m 23.0148,8.63055 0,-8.63055 M 300,259.59042 l 0,-8.63055 m 23.01479,8.63055 0,-8.63055 m 23.01479,8.63055 0,-8.63055 m 23.0148,8.63055 0,-8.63055 m -126.58136,17.2611 0,-8.63055 m 23.01479,8.63055 0,-8.63055 m 23.01479,8.63055 0,-8.63055 m 23.01479,8.63055 0,-8.63055 m 23.0148,8.63055 0,-8.63055 m 23.01479,8.63055 0,-8.63055 m -126.58136,17.26109 0,-8.63054 m 23.01479,8.63054 0,-8.63054 m 23.0148,8.63054 0,-8.63054 M 300,276.85151 l 0,-8.63054 m 23.01479,8.63054 0,-8.63054 m 23.01479,8.63054 0,-8.63054 m 23.0148,8.63054 0,-8.63054 m -126.58136,17.26109 0,-8.63055 m 23.01479,8.63055 0,-8.63055 m 23.01479,8.63055 0,-8.63055 m 23.01479,8.63055 0,-8.63055 m 23.0148,8.63055 0,-8.63055 m 23.01479,8.63055 0,-8.63055 m -103.56657,17.2611 0,-8.63055 m 23.0148,8.63055 0,-8.63055 M 300,294.11261 l 0,-8.63055 m 23.01479,8.63055 0,-8.63055 m 23.01479,8.63055 0,-8.63055 m -103.56656,17.2611 0,-8.63055 m 23.01479,8.63055 0,-8.63055 m 23.01479,8.63055 0,-8.63055 m 23.01479,8.63055 0,-8.63055 m 23.0148,8.63055 0,-8.63055 m 23.01479,8.63055 0,-8.63055 m -121.69072,0 128.30747,0 m -130.32126,-8.63055 132.33506,0 m -135.49959,-8.63055 138.66412,0 m -142.9794,-8.63054 147.29468,0 m -152.76069,-8.63055 158.2267,0 m -107.88184,80.55177 0,-23.01479 M 300,340.14219 300,317.1274 m 28.76849,23.01479 0,-23.01479 m -71.92123,46.02959 0,-23.0148 m 28.76849,23.0148 0,-23.0148 m 28.76849,23.0148 0,-23.0148 m 28.7685,23.0148 0,-23.0148 m -100.68972,46.02959 0,-23.01479 m 28.76849,23.01479 0,-23.01479 M 300,386.17178 l 0,-23.01479 m 28.76849,23.01479 0,-23.01479 m 28.76849,23.01479 0,-23.01479 m -100.68972,46.02958 0,-23.01479 m 28.76849,23.01479 0,-23.01479 m 28.76849,23.01479 0,-23.01479 m 28.7685,23.01479 0,-23.01479 m -100.68972,46.02958 0,-23.01479 m 28.76849,23.01479 0,-23.01479 M 300,432.20136 l 0,-23.01479 m 28.76849,23.01479 0,-23.01479 m 28.76849,23.01479 0,-23.01479 m -129.45821,46.02959 0,-23.0148 m 28.76849,23.0148 0,-23.0148 m 28.76849,23.0148 0,-23.0148 m 28.76849,23.0148 0,-23.0148 m 28.7685,23.0148 0,-23.0148 m 28.76849,23.0148 0,-23.0148 m -158.2267,46.02959 0,-23.01479 m 28.76849,23.01479 0,-23.01479 m 28.76849,23.01479 0,-23.01479 M 300,478.23095 l 0,-23.01479 m 28.76849,23.01479 0,-23.01479 m 28.76849,23.01479 0,-23.01479 m 28.76849,23.01479 0,-23.01479 m -186.99519,46.02958 0,-23.01479 m 28.76849,23.01479 0,-23.01479 m 28.76849,23.01479 0,-23.01479 m 28.76849,23.01479 0,-23.01479 m 28.76849,23.01479 0,-23.01479 m 28.7685,23.01479 0,-23.01479 m 28.76849,23.01479 0,-23.01479 m 28.76849,23.01479 0,-23.01479 m -186.99519,46.02959 0,-23.0148 m 28.76849,23.0148 0,-23.0148 m 28.76849,23.0148 0,-23.0148 M 300,524.26054 l 0,-23.0148 m 28.76849,23.0148 0,-23.0148 m 28.76849,23.0148 0,-23.0148 m 28.76849,23.0148 0,-23.0148 m -186.99519,46.02959 0,-23.01479 m 28.76849,23.01479 0,-23.01479 m 28.76849,23.01479 0,-23.01479 m 28.76849,23.01479 0,-23.01479 m 28.76849,23.01479 0,-23.01479 m 28.7685,23.01479 0,-23.01479 m 28.76849,23.01479 0,-23.01479 m 28.76849,23.01479 0,-23.01479 m -215.76369,0 230.14793,0 m 0,-23.0148 -230.14793,0 m 0,-23.01479 230.14793,0 m -10.64434,-23.01479 -208.85924,0 m 17.26109,-23.0148 174.33706,0 m -12.37045,-23.01479 -149.59616,0 m 8.63055,-23.01479 132.33506,0 m -5.46602,-23.01479 -121.40303,0 m 2.58917,-23.0148 116.2247,0"
       id="path24"
       inkscape:connector-curvature="0"
       style="fill:#aeaeae;stroke:#000000;stroke-width:2.40823817000000020;stroke-miterlimit:4;stroke-dasharray:none;fill-opacity:1" />
    <path
       d="m 248.21671,547.27533 v -86.30547 a 51.783285,51.783285 0 1 1 103.56657,0 v 86.30547 z"
       id="path26"
       inkscape:connector-curvature="0"
       style="fill:#aeaeae;stroke:#000000;stroke-width:2.40823817000000020;stroke-miterlimit:4;stroke-dasharray:none;fill-opacity:1" />
    <path
       d="m 236.70932,547.27533 v -20.13794 h 126.58136 v 20.13794 z m 0,-40.27589 V 486.8615 h 126.58136 v 20.13794 z"
       id="path28"
       inkscape:connector-curvature="0"
       style="fill:#aeaeae;stroke:#000000;stroke-width:2.40823817000000020;stroke-miterlimit:4;stroke-dasharray:none;fill-opacity:1" />
    <path
       d="m 235.94721,466.91731 1.75514,-20.0613 63.04986,5.51612 -1.75514,20.06134 z"
       id="path30"
       inkscape:connector-curvature="0"
       style="fill:#aeaeae;stroke:#000000;stroke-width:2.40823817000000020;stroke-miterlimit:4;stroke-dasharray:none;fill-opacity:1" />
    <path
       d="m 258.38897,411.91221 17.43997,-10.06897 31.64534,54.81134 -17.43997,10.06897 z"
       id="path32"
       inkscape:connector-curvature="0"
       style="fill:#aeaeae;stroke:#000000;stroke-width:2.40823817000000020;stroke-miterlimit:4;stroke-dasharray:none;fill-opacity:1" />
    <path
       d="m 309.96569,466.72355 -17.43998,-10.06897 31.64534,-54.81134 17.43998,10.06897 z"
       id="path34"
       inkscape:connector-curvature="0"
       style="fill:#aeaeae;stroke:#000000;stroke-width:2.40823817000000020;stroke-miterlimit:4;stroke-dasharray:none;fill-opacity:1" />
    <path
       d="m 301.00293,472.43347 -1.75514,-20.06131 63.04983,-5.51615 1.75514,20.06133 z"
       id="path36"
       inkscape:connector-curvature="0"
       style="fill:#aeaeae;stroke:#000000;stroke-width:2.40823817000000020;stroke-miterlimit:4;stroke-dasharray:none;fill-opacity:1" />
    <path
       d="m 265.47781,547.27533 v -86.30547 a 34.52219,34.52219 0 1 1 69.04438,0 v 86.30547 z"
       id="path38"
       inkscape:connector-curvature="0"
       style="fill:#333333;stroke:#000000;stroke-width:2.40823817;stroke-miterlimit:4;stroke-dasharray:none" />
  </g>
  <g
     transform="translate(0,-8.68e-6)"
     style="display:inline"
     id="g4558">
    <path
       inkscape:connector-curvature="0"
       inkscape:tile-y0="508.01641"
       inkscape:tile-x0="174.48375"
       inkscape:tile-h="0"
       inkscape:tile-w="16.91582"
       inkscape:tile-cy="508.01641"
       inkscape:tile-cx="182.94166"
       sodipodi:nodetypes="cc"
       id="path4240"
       d="m 174.48375,508.01641 16.91582,0"
       style="fill:none;stroke:#000000;stroke-width:2;stroke-miterlimit:4;stroke-opacity:1;stroke-dasharray:none" />
    <path
       inkscape:connector-curvature="0"
       id="path4216"
       d="m 35.75,416.8125 c 9.895259,21.42217 21.490343,41.25971 34.21875,59.5625 1.612525,-13.78968 25.183816,-24.74999 54.03125,-24.75 29.89079,0 54.15625,11.76001 54.15625,26.25 l 0,38.9375 9.03125,0 0,-38.9375 c 0,-14.49 24.26546,-26.24999 54.15625,-26.25 29.89078,0 54.15624,11.76001 54.15625,26.25 l 0,38.9375 9,0 0,-38.9375 c 10e-6,-14.49 24.26546,-26.24999 54.15625,-26.25 29.89079,0 54.15624,11.76001 54.15625,26.25 l 0,38.9375 9.03125,0 0,-38.9375 c 10e-6,-14.49 24.26545,-26.24999 54.15625,-26.25 28.84743,0 52.41874,10.96033 54.03125,24.75 12.72841,-18.30279 24.32349,-38.14033 34.21875,-59.5625 l -528.5,0 z"
       style="fill:#aeaeae;fill-opacity:1;fill-rule:evenodd;stroke:#000000;stroke-width:3;stroke-linecap:butt;stroke-linejoin:miter;stroke-miterlimit:4;stroke-opacity:1;stroke-dasharray:none;display:inline" />
    <path
       inkscape:connector-curvature="0"
       sodipodi:nodetypes="cc"
       id="path4228"
       d="m 46.483747,437.5 506.915823,0"
       style="fill:none;stroke:#000000;stroke-width:3;stroke-miterlimit:4;stroke-opacity:1;stroke-dasharray:none" />
    <path
       inkscape:connector-curvature="0"
       style="fill:none;stroke:#000000;stroke-width:2;stroke-miterlimit:4;stroke-opacity:1;stroke-dasharray:none"
       d="m 38.483747,426.01641 520.915823,0"
       id="path4230"
       sodipodi:nodetypes="cc" />
    <path
       inkscape:connector-curvature="0"
       sodipodi:nodetypes="cc"
       id="path4232"
       d="m 52.483747,448.01641 494.915823,0"
       style="fill:none;stroke:#000000;stroke-width:2;stroke-miterlimit:4;stroke-opacity:1;stroke-dasharray:none" />
    <path
       inkscape:connector-curvature="0"
       style="fill:none;stroke:#000000;stroke-width:2;stroke-miterlimit:4;stroke-opacity:1;stroke-dasharray:none"
       d="m 56.483747,458.01641 484.915823,0"
       id="path4234"
       sodipodi:nodetypes="cc" />
    <use
       id="use4434"
       xlink:href="#path4240"
       inkscape:tiled-clone-of="#path4240"
       y="0"
       x="0"
       width="600"
       height="660" />
    <use
       height="660"
       width="600"
       transform="translate(0,-40)"
       id="use4436"
       xlink:href="#path4240"
       inkscape:tiled-clone-of="#path4240"
       y="0"
       x="0" />
    <use
       height="660"
       width="600"
       transform="translate(0,-30)"
       id="use4438"
       xlink:href="#path4240"
       inkscape:tiled-clone-of="#path4240"
       y="0"
       x="0" />
    <use
       height="660"
       width="600"
       transform="translate(0,-20)"
       id="use4440"
       xlink:href="#path4240"
       inkscape:tiled-clone-of="#path4240"
       y="0"
       x="0" />
    <use
       height="660"
       width="600"
       transform="translate(0,-10)"
       id="use4442"
       xlink:href="#path4240"
       inkscape:tiled-clone-of="#path4240"
       y="0"
       x="0" />
    <use
       height="660"
       width="600"
       id="use4444"
       transform="translate(116.74746,0)"
       xlink:href="#path4240"
       inkscape:tiled-clone-of="#path4240"
       y="0"
       x="0" />
    <use
       height="660"
       width="600"
       id="use4446"
       transform="translate(116.74746,-40)"
       xlink:href="#path4240"
       inkscape:tiled-clone-of="#path4240"
       y="0"
       x="0" />
    <use
       height="660"
       width="600"
       id="use4448"
       transform="translate(116.74746,-30)"
       xlink:href="#path4240"
       inkscape:tiled-clone-of="#path4240"
       y="0"
       x="0" />
    <use
       height="660"
       width="600"
       id="use4450"
       transform="translate(116.74746,-20)"
       xlink:href="#path4240"
       inkscape:tiled-clone-of="#path4240"
       y="0"
       x="0" />
    <use
       height="660"
       width="600"
       id="use4452"
       transform="translate(116.74746,-10)"
       xlink:href="#path4240"
       inkscape:tiled-clone-of="#path4240"
       y="0"
       x="0" />
    <use
       height="660"
       width="600"
       id="use4454"
       transform="translate(233.49492,0)"
       xlink:href="#path4240"
       inkscape:tiled-clone-of="#path4240"
       y="0"
       x="0" />
    <use
       height="660"
       width="600"
       id="use4456"
       transform="translate(233.49492,-10)"
       xlink:href="#path4240"
       inkscape:tiled-clone-of="#path4240"
       y="0"
       x="0" />
    <use
       height="660"
       width="600"
       id="use4458"
       transform="translate(233.49492,-20)"
       xlink:href="#path4240"
       inkscape:tiled-clone-of="#path4240"
       y="0"
       x="0" />
    <use
       height="660"
       width="600"
       id="use4460"
       transform="translate(233.49492,-30)"
       xlink:href="#path4240"
       inkscape:tiled-clone-of="#path4240"
       y="0"
       x="0" />
    <use
       height="660"
       width="600"
       id="use4462"
       transform="translate(233.49492,-40)"
       xlink:href="#path4240"
       inkscape:tiled-clone-of="#path4240"
       y="0"
       x="0" />
    <path
       inkscape:connector-curvature="0"
       inkscape:tile-y0="426.28684"
       inkscape:tile-x0="300"
       inkscape:tile-h="11.93353"
       inkscape:tile-w="0"
       inkscape:tile-cy="432.2536"
       inkscape:tile-cx="300"
       sodipodi:nodetypes="cc"
       id="path4464"
       d="m 300,438.22037 0,-11.93353"
       style="fill:none;stroke:#000000;stroke-width:2;stroke-miterlimit:4;stroke-opacity:1;stroke-dasharray:none" />
    <use
       height="660"
       width="600"
       transform="translate(250,0)"
       id="use4474"
       xlink:href="#path4464"
       inkscape:tiled-clone-of="#path4464"
       y="0"
       x="0" />
    <use
       height="660"
       width="600"
       transform="translate(200,0)"
       id="use4476"
       xlink:href="#path4464"
       inkscape:tiled-clone-of="#path4464"
       y="0"
       x="0" />
    <use
       height="660"
       width="600"
       transform="translate(150,0)"
       id="use4478"
       xlink:href="#path4464"
       inkscape:tiled-clone-of="#path4464"
       y="0"
       x="0" />
    <use
       height="660"
       width="600"
       transform="translate(100,0)"
       id="use4480"
       xlink:href="#path4464"
       inkscape:tiled-clone-of="#path4464"
       y="0"
       x="0" />
    <use
       height="660"
       width="600"
       transform="translate(50,0)"
       id="use4482"
       xlink:href="#path4464"
       inkscape:tiled-clone-of="#path4464"
       y="0"
       x="0" />
    <use
       height="660"
       width="600"
       transform="translate(-250,0)"
       id="use4484"
       xlink:href="#path4464"
       inkscape:tiled-clone-of="#path4464"
       y="0"
       x="0" />
    <use
       height="660"
       width="600"
       transform="translate(-200,0)"
       id="use4486"
       xlink:href="#path4464"
       inkscape:tiled-clone-of="#path4464"
       y="0"
       x="0" />
    <use
       height="660"
       width="600"
       transform="translate(-150,0)"
       id="use4488"
       xlink:href="#path4464"
       inkscape:tiled-clone-of="#path4464"
       y="0"
       x="0" />
    <use
       height="660"
       width="600"
       transform="translate(-100,0)"
       id="use4490"
       xlink:href="#path4464"
       inkscape:tiled-clone-of="#path4464"
       y="0"
       x="0" />
    <use
       height="660"
       width="600"
       transform="translate(-50,0)"
       id="use4492"
       xlink:href="#path4464"
       inkscape:tiled-clone-of="#path4464"
       y="0"
       x="0" />
    <path
       inkscape:connector-curvature="0"
       style="fill:none;stroke:#000000;stroke-width:2;stroke-miterlimit:4;stroke-opacity:1;stroke-dasharray:none"
       d="m 275,426.22037 0,-9.93353"
       id="path4496"
       sodipodi:nodetypes="cc"
       inkscape:tile-cx="275"
       inkscape:tile-cy="421.2536"
       inkscape:tile-w="0"
       inkscape:tile-h="9.93353"
       inkscape:tile-x0="275"
       inkscape:tile-y0="416.28684" />
    <use
       id="use4498"
       xlink:href="#path4496"
       inkscape:tiled-clone-of="#path4496"
       y="0"
       x="0"
       width="600"
       height="660" />
    <use
       height="660"
       width="600"
       id="use4500"
       transform="translate(0,21.93353)"
       xlink:href="#path4496"
       inkscape:tiled-clone-of="#path4496"
       y="0"
       x="0" />
    <use
       height="660"
       width="600"
       transform="translate(252,0.06647)"
       id="use4504"
       xlink:href="#path4496"
       inkscape:tiled-clone-of="#path4496"
       y="0"
       x="0" />
    <use
       height="660"
       width="600"
       id="use4506"
       transform="translate(-200,21.93353)"
       xlink:href="#path4496"
       inkscape:tiled-clone-of="#path4496"
       y="0"
       x="0" />
    <use
       height="660"
       width="600"
       id="use4508"
       transform="translate(225,31.93353)"
       xlink:href="#path4496"
       inkscape:tiled-clone-of="#path4496"
       y="0"
       x="0" />
    <use
       height="660"
       width="600"
       transform="translate(202,0.06647)"
       id="use4510"
       xlink:href="#path4496"
       inkscape:tiled-clone-of="#path4496"
       y="0"
       x="0" />
    <use
       height="660"
       width="600"
       id="use4512"
       transform="translate(52,21.93353)"
       xlink:href="#path4496"
       inkscape:tiled-clone-of="#path4496"
       y="0"
       x="0" />
    <use
       height="660"
       width="600"
       id="use4514"
       transform="translate(175,31.93353)"
       xlink:href="#path4496"
       inkscape:tiled-clone-of="#path4496"
       y="0"
       x="0" />
    <use
       height="660"
       width="600"
       transform="translate(152,0.06647)"
       id="use4516"
       xlink:href="#path4496"
       inkscape:tiled-clone-of="#path4496"
       y="0"
       x="0" />
    <use
       height="660"
       width="600"
       id="use4518"
       transform="translate(-150,21.93353)"
       xlink:href="#path4496"
       inkscape:tiled-clone-of="#path4496"
       y="0"
       x="0" />
    <use
       height="660"
       width="600"
       id="use4520"
       transform="translate(125,31.93353)"
       xlink:href="#path4496"
       inkscape:tiled-clone-of="#path4496"
       y="0"
       x="0" />
    <use
       height="660"
       width="600"
       transform="translate(102,0.06647)"
       id="use4522"
       xlink:href="#path4496"
       inkscape:tiled-clone-of="#path4496"
       y="0"
       x="0" />
    <use
       height="660"
       width="600"
       id="use4524"
       transform="translate(-100,21.93353)"
       xlink:href="#path4496"
       inkscape:tiled-clone-of="#path4496"
       y="0"
       x="0" />
    <use
       height="660"
       width="600"
       id="use4526"
       transform="translate(75,31.93353)"
       xlink:href="#path4496"
       inkscape:tiled-clone-of="#path4496"
       y="0"
       x="0" />
    <use
       height="660"
       width="600"
       transform="translate(52,0.06647)"
       id="use4528"
       xlink:href="#path4496"
       inkscape:tiled-clone-of="#path4496"
       y="0"
       x="0" />
    <use
       height="660"
       width="600"
       id="use4530"
       transform="translate(-50,21.93353)"
       xlink:href="#path4496"
       inkscape:tiled-clone-of="#path4496"
       y="0"
       x="0" />
    <use
       height="660"
       width="600"
       id="use4532"
       transform="translate(-175,31.93353)"
       xlink:href="#path4496"
       inkscape:tiled-clone-of="#path4496"
       y="0"
       x="0" />
    <use
       height="660"
       width="600"
       transform="translate(-200,0.06647)"
       id="use4534"
       xlink:href="#path4496"
       inkscape:tiled-clone-of="#path4496"
       y="0"
       x="0" />
    <use
       height="660"
       width="600"
       id="use4536"
       transform="translate(102,21.93353)"
       xlink:href="#path4496"
       inkscape:tiled-clone-of="#path4496"
       y="0"
       x="0" />
    <use
       height="660"
       width="600"
       id="use4538"
       transform="translate(-125,31.93353)"
       xlink:href="#path4496"
       inkscape:tiled-clone-of="#path4496"
       y="0"
       x="0" />
    <use
       height="660"
       width="600"
       transform="translate(-150,0.06647)"
       id="use4540"
       xlink:href="#path4496"
       inkscape:tiled-clone-of="#path4496"
       y="0"
       x="0" />
    <use
       height="660"
       width="600"
       id="use4542"
       transform="translate(152,21.93353)"
       xlink:href="#path4496"
       inkscape:tiled-clone-of="#path4496"
       y="0"
       x="0" />
    <use
       height="660"
       width="600"
       id="use4544"
       transform="translate(-75,31.93353)"
       xlink:href="#path4496"
       inkscape:tiled-clone-of="#path4496"
       y="0"
       x="0" />
    <use
       height="660"
       width="600"
       transform="translate(-100,0.06647)"
       id="use4546"
       xlink:href="#path4496"
       inkscape:tiled-clone-of="#path4496"
       y="0"
       x="0" />
    <use
       height="660"
       width="600"
       id="use4548"
       transform="translate(202,21.93353)"
       xlink:href="#path4496"
       inkscape:tiled-clone-of="#path4496"
       y="0"
       x="0" />
    <use
       height="660"
       width="600"
       id="use4550"
       transform="translate(-25,31.93353)"
       xlink:href="#path4496"
       inkscape:tiled-clone-of="#path4496"
       y="0"
       x="0" />
    <use
       height="660"
       width="600"
       transform="translate(-50,0.06647)"
       id="use4552"
       xlink:href="#path4496"
       inkscape:tiled-clone-of="#path4496"
       y="0"
       x="0" />
    <use
       height="660"
       width="600"
       id="use4554"
       transform="translate(252,21.93353)"
       xlink:href="#path4496"
       inkscape:tiled-clone-of="#path4496"
       y="0"
       x="0" />
    <use
       height="660"
       width="600"
       id="use4556"
       transform="translate(25,31.93353)"
       xlink:href="#path4496"
       inkscape:tiled-clone-of="#path4496"
       y="0"
       x="0" />
    <path
       inkscape:connector-curvature="0"
       id="path4223"
       d="m 124,451.625 c -28.847436,10e-6 -52.418724,10.96032 -54.03125,24.75 3.486173,5.01294 7.076388,9.90282 10.71875,14.6875 l 0,-5.53125 c 0,-11.592 19.39988,-21.00001 43.3125,-21 23.91263,0 43.34375,9.40799 43.34375,21 l 0,31.28125 10.8125,0 0,-38.9375 c 0,-14.48999 -24.26546,-26.25 -54.15625,-26.25 z m 117.34375,0 c -29.89079,10e-6 -54.15625,11.76 -54.15625,26.25 l 0,38.9375 10.84375,0 0,-31.28125 c 0,-11.592 19.39987,-21.00001 43.3125,-21 23.91263,0 43.31249,9.40799 43.3125,21 l 0,31.28125 10.84375,0 0,-38.9375 c 0,-14.48999 -24.26547,-26.25 -54.15625,-26.25 z m 117.3125,0 c -29.8908,10e-6 -54.15625,11.76 -54.15625,26.25 l 0,38.9375 10.84375,0 0,-31.28125 c 10e-6,-11.592 19.39986,-21.00001 43.3125,-21 23.91263,0 43.31249,9.40799 43.3125,21 l 0,31.28125 10.84375,0 0,-38.9375 c 0,-14.48999 -24.26545,-26.25 -54.15625,-26.25 z m 117.34375,0 c -29.8908,10e-6 -54.15625,11.76 -54.15625,26.25 l 0,38.9375 10.8125,0 0,-31.28125 c -10e-6,-11.592 19.43111,-21.00001 43.34375,-21 23.91262,0 43.31252,9.40799 43.3125,21 l 0,5.53125 c 3.64236,-4.78468 7.23258,-9.67456 10.71875,-14.6875 C 528.41872,462.58533 504.84744,451.625 476,451.625 z"
       style="fill:#aeaeae;fill-opacity:1;fill-rule:evenodd;stroke:#000000;stroke-width:3;stroke-linecap:butt;stroke-linejoin:miter;stroke-miterlimit:4;stroke-opacity:1;stroke-dasharray:none;display:inline" />
  </g>
  <g
     style="stroke-width:2;stroke-miterlimit:4;stroke-dasharray:none;display:inline"
     id="g3261"
     transform="matrix(-0.83048267,0,0,0.83048267,384.47706,-50.141558)">
    <path
       style="fill:#aeaeae;stroke:#000000;stroke-width:2.40823817000000020;stroke-miterlimit:4;stroke-dasharray:none;fill-opacity:1"
       inkscape:connector-curvature="0"
       id="path3263"
       d="m 196.43343,233.69878 0,-57.53699 27.61775,0 0,23.0148 17.2611,0 0,-23.0148 27.61775,0 0,23.0148 17.26109,0 0,-23.0148 27.61775,0 0,23.0148 17.2611,0 0,-23.0148 27.61775,0 0,23.0148 17.26109,0 0,-23.0148 27.61776,0 0,57.53699 z m 5.7537,0 195.62574,0 0,8.63054 -195.62574,0 z m 5.7537,8.63054 184.11834,0 0,8.63055 -184.11834,0 z m 28.76849,60.41384 c 0,-17.2611 -11.5074,-40.27589 -23.01479,-51.78329 l 172.61094,0 c -11.50739,11.5074 -23.01479,34.52219 -23.01479,51.78329 z m -2.87685,0 132.33506,0 0,8.63054 -132.33506,0 z m 2.87685,8.63054 126.58136,0 0,5.7537 -126.58136,0 z m -51.78329,235.90163 0,-80.55178 c 57.53699,-57.53698 57.53699,-120.82766 57.53699,-149.59615 l 115.07396,0 c 0,28.76849 0,92.05917 57.53698,149.59615 l 0,80.55178 z m -5.75369,0 241.65532,0 0,14.38424 -241.65532,0 z" />
    <path
       style="fill:#aeaeae;stroke:#000000;stroke-width:2.40823817000000020;stroke-miterlimit:4;stroke-dasharray:none;fill-opacity:1"
       inkscape:connector-curvature="0"
       id="path3265"
       d="m 210.24231,190.54604 0,-14.38425 m 44.87884,14.38425 0,-14.38425 M 300,190.54604 l 0,-14.38425 m 44.87884,14.38425 0,-14.38425 m 44.87885,14.38425 0,-14.38425 m -157.07596,43.15274 0,-20.13794 m 44.87885,20.13794 0,-20.13794 m 44.87884,20.13794 0,-20.13794 m 44.87885,20.13794 0,-20.13794 m -157.07596,34.52219 0,-14.38425 m 44.87884,14.38425 0,-14.38425 M 300,233.69878 l 0,-14.38425 m 44.87884,14.38425 0,-14.38425 m 44.87885,14.38425 0,-14.38425 m -193.32426,0 207.13314,0 m -207.13314,-28.76849 27.61775,0 m 17.2611,0 27.61775,0 m 17.26109,0 27.61775,0 m 17.2611,0 27.61775,0 m 17.26109,0 27.61776,0 m -172.61095,69.04438 0,-8.63055 m 23.01479,8.63055 0,-8.63055 m 23.0148,8.63055 0,-8.63055 M 300,259.59042 l 0,-8.63055 m 23.01479,8.63055 0,-8.63055 m 23.01479,8.63055 0,-8.63055 m 23.0148,8.63055 0,-8.63055 m -126.58136,17.2611 0,-8.63055 m 23.01479,8.63055 0,-8.63055 m 23.01479,8.63055 0,-8.63055 m 23.01479,8.63055 0,-8.63055 m 23.0148,8.63055 0,-8.63055 m 23.01479,8.63055 0,-8.63055 m -126.58136,17.26109 0,-8.63054 m 23.01479,8.63054 0,-8.63054 m 23.0148,8.63054 0,-8.63054 M 300,276.85151 l 0,-8.63054 m 23.01479,8.63054 0,-8.63054 m 23.01479,8.63054 0,-8.63054 m 23.0148,8.63054 0,-8.63054 m -126.58136,17.26109 0,-8.63055 m 23.01479,8.63055 0,-8.63055 m 23.01479,8.63055 0,-8.63055 m 23.01479,8.63055 0,-8.63055 m 23.0148,8.63055 0,-8.63055 m 23.01479,8.63055 0,-8.63055 m -103.56657,17.2611 0,-8.63055 m 23.0148,8.63055 0,-8.63055 M 300,294.11261 l 0,-8.63055 m 23.01479,8.63055 0,-8.63055 m 23.01479,8.63055 0,-8.63055 m -103.56656,17.2611 0,-8.63055 m 23.01479,8.63055 0,-8.63055 m 23.01479,8.63055 0,-8.63055 m 23.01479,8.63055 0,-8.63055 m 23.0148,8.63055 0,-8.63055 m 23.01479,8.63055 0,-8.63055 m -121.69072,0 128.30747,0 m -130.32126,-8.63055 132.33506,0 m -135.49959,-8.63055 138.66412,0 m -142.9794,-8.63054 147.29468,0 m -152.76069,-8.63055 158.2267,0 m -107.88184,80.55177 0,-23.01479 M 300,340.14219 300,317.1274 m 28.76849,23.01479 0,-23.01479 m -71.92123,46.02959 0,-23.0148 m 28.76849,23.0148 0,-23.0148 m 28.76849,23.0148 0,-23.0148 m 28.7685,23.0148 0,-23.0148 m -100.68972,46.02959 0,-23.01479 m 28.76849,23.01479 0,-23.01479 M 300,386.17178 l 0,-23.01479 m 28.76849,23.01479 0,-23.01479 m 28.76849,23.01479 0,-23.01479 m -100.68972,46.02958 0,-23.01479 m 28.76849,23.01479 0,-23.01479 m 28.76849,23.01479 0,-23.01479 m 28.7685,23.01479 0,-23.01479 m -100.68972,46.02958 0,-23.01479 m 28.76849,23.01479 0,-23.01479 M 300,432.20136 l 0,-23.01479 m 28.76849,23.01479 0,-23.01479 m 28.76849,23.01479 0,-23.01479 m -129.45821,46.02959 0,-23.0148 m 28.76849,23.0148 0,-23.0148 m 28.76849,23.0148 0,-23.0148 m 28.76849,23.0148 0,-23.0148 m 28.7685,23.0148 0,-23.0148 m 28.76849,23.0148 0,-23.0148 m -158.2267,46.02959 0,-23.01479 m 28.76849,23.01479 0,-23.01479 m 28.76849,23.01479 0,-23.01479 M 300,478.23095 l 0,-23.01479 m 28.76849,23.01479 0,-23.01479 m 28.76849,23.01479 0,-23.01479 m 28.76849,23.01479 0,-23.01479 m -186.99519,46.02958 0,-23.01479 m 28.76849,23.01479 0,-23.01479 m 28.76849,23.01479 0,-23.01479 m 28.76849,23.01479 0,-23.01479 m 28.76849,23.01479 0,-23.01479 m 28.7685,23.01479 0,-23.01479 m 28.76849,23.01479 0,-23.01479 m 28.76849,23.01479 0,-23.01479 m -186.99519,46.02959 0,-23.0148 m 28.76849,23.0148 0,-23.0148 m 28.76849,23.0148 0,-23.0148 M 300,524.26054 l 0,-23.0148 m 28.76849,23.0148 0,-23.0148 m 28.76849,23.0148 0,-23.0148 m 28.76849,23.0148 0,-23.0148 m -186.99519,46.02959 0,-23.01479 m 28.76849,23.01479 0,-23.01479 m 28.76849,23.01479 0,-23.01479 m 28.76849,23.01479 0,-23.01479 m 28.76849,23.01479 0,-23.01479 m 28.7685,23.01479 0,-23.01479 m 28.76849,23.01479 0,-23.01479 m 28.76849,23.01479 0,-23.01479 m -215.76369,0 230.14793,0 m 0,-23.0148 -230.14793,0 m 0,-23.01479 230.14793,0 m -10.64434,-23.01479 -208.85924,0 m 17.26109,-23.0148 174.33706,0 m -12.37045,-23.01479 -149.59616,0 m 8.63055,-23.01479 132.33506,0 m -5.46602,-23.01479 -121.40303,0 m 2.58917,-23.0148 116.2247,0" />
    <path
       style="fill:#aeaeae;stroke:#000000;stroke-width:2.40823817000000020;stroke-miterlimit:4;stroke-dasharray:none;fill-opacity:1"
       inkscape:connector-curvature="0"
       id="path3267"
       d="m 248.21671,547.27533 v -86.30547 a 51.783285,51.783285 0 1 1 103.56657,0 v 86.30547 z" />
    <path
       style="fill:#aeaeae;stroke:#000000;stroke-width:2.40823817000000020;stroke-miterlimit:4;stroke-dasharray:none;fill-opacity:1"
       inkscape:connector-curvature="0"
       id="path3269"
       d="m 236.70932,547.27533 v -20.13794 h 126.58136 v 20.13794 z m 0,-40.27589 V 486.8615 h 126.58136 v 20.13794 z" />
    <path
       style="fill:#aeaeae;stroke:#000000;stroke-width:2.40823817000000020;stroke-miterlimit:4;stroke-dasharray:none;fill-opacity:1"
       inkscape:connector-curvature="0"
       id="path3271"
       d="m 235.94721,466.91731 1.75514,-20.0613 63.04986,5.51612 -1.75514,20.06134 z" />
    <path
       style="fill:#aeaeae;stroke:#000000;stroke-width:2.40823817000000020;stroke-miterlimit:4;stroke-dasharray:none;fill-opacity:1"
       inkscape:connector-curvature="0"
       id="path3273"
       d="m 258.38897,411.91221 17.43997,-10.06897 31.64534,54.81134 -17.43997,10.06897 z" />
    <path
       style="fill:#aeaeae;stroke:#000000;stroke-width:2.40823817000000020;stroke-miterlimit:4;stroke-dasharray:none;fill-opacity:1"
       inkscape:connector-curvature="0"
       id="path3275"
       d="m 309.96569,466.72355 -17.43998,-10.06897 31.64534,-54.81134 17.43998,10.06897 z" />
    <path
       style="fill:#aeaeae;stroke:#000000;stroke-width:2.40823817000000020;stroke-miterlimit:4;stroke-dasharray:none;fill-opacity:1"
       inkscape:connector-curvature="0"
       id="path3277"
       d="m 301.00293,472.43347 -1.75514,-20.06131 63.04983,-5.51615 1.75514,20.06133 z" />
    <path
       style="fill:#333333;stroke:#000000;stroke-width:2.40823817;stroke-miterlimit:4;stroke-dasharray:none"
       inkscape:connector-curvature="0"
       id="path3279"
       d="m 265.47781,547.27533 v -86.30547 a 34.52219,34.52219 0 1 1 69.04438,0 v 86.30547 z" />
  </g>
  <path
     style="fill:#cc0000"
     inkscape:connector-curvature="0"
     id="bend"
     d="M 513.14844,2 57.664062,457.48242 c 22.236533,36.31415 49.114108,67.14813 76.765628,92.93946 L 598,86.851562 598,2 513.14844,2 z" />
  <use
     height="1052.3622"
     width="744.09448"
     y="0"
     x="0"
     style="fill:url(#rg-1-1);stroke:#000000;stroke-width:3"
     id="use27"
     xlink:href="#shield" />
</svg>
