<?xml version="1.0" encoding="UTF-8" standalone="no"?>
<svg
   xmlns:dc="http://purl.org/dc/elements/1.1/"
   xmlns:cc="http://creativecommons.org/ns#"
   xmlns:rdf="http://www.w3.org/1999/02/22-rdf-syntax-ns#"
   xmlns:svg="http://www.w3.org/2000/svg"
   xmlns="http://www.w3.org/2000/svg"
   xmlns:xlink="http://www.w3.org/1999/xlink"
   xmlns:sodipodi="http://sodipodi.sourceforge.net/DTD/sodipodi-0.dtd"
   xmlns:inkscape="http://www.inkscape.org/namespaces/inkscape"
   width="600"
   height="660"
   id="svg2"
   version="1.1"
   inkscape:version="0.48.2 r9819"
   sodipodi:docname="House_Frey_(Aemon_Rivers).svg">
  <metadata
     id="metadata24">
    <rdf:RDF>
      <cc:Work
         rdf:about="">
        <dc:format>image/svg+xml</dc:format>
        <dc:type
           rdf:resource="http://purl.org/dc/dcmitype/StillImage" />
      </cc:Work>
    </rdf:RDF>
  </metadata>
  <sodipodi:namedview
     pagecolor="#ffffff"
     bordercolor="#666666"
     borderopacity="1"
     objecttolerance="10"
     gridtolerance="10"
     guidetolerance="10"
     inkscape:pageopacity="0"
     inkscape:pageshadow="2"
     inkscape:window-width="1366"
     inkscape:window-height="715"
     id="namedview22"
     showgrid="false"
     inkscape:zoom="0.7151515"
     inkscape:cx="37.609432"
     inkscape:cy="361.03954"
     inkscape:window-x="-8"
     inkscape:window-y="-8"
     inkscape:window-maximized="1"
     inkscape:current-layer="layer3" />
  <defs
     id="defs4">
    <radialGradient
       id="rg"
       gradientUnits="userSpaceOnUse"
       cx="220"
       cy="220"
       r="405">
      <stop
         style="stop-color:#fff;stop-opacity:.3"
         offset="0"
         id="stop7" />
      <stop
         style="stop-color:#fff;stop-opacity:.2"
         offset=".2"
         id="stop9" />
      <stop
         style="stop-color:#666;stop-opacity:.1"
         offset=".6"
         id="stop11" />
      <stop
         style="stop-color:#000;stop-opacity:.13"
         offset="1"
         id="stop13" />
    </radialGradient>
    <path
       id="shield"
       d="m2,2v257c0,286 298,398 298,398c0,0 298-112 298-398V2z" />
    <radialGradient
       inkscape:collect="always"
       xlink:href="#rg-7"
       id="radialGradient3055-1"
       gradientUnits="userSpaceOnUse"
       cx="220"
       cy="220"
       r="405" />
    <radialGradient
       id="rg-7"
       gradientUnits="userSpaceOnUse"
       cx="220"
       cy="220"
       r="405">
      <stop
         style="stop-color:#fff;stop-opacity:.3"
         offset="0"
         id="stop7-4" />
      <stop
         style="stop-color:#fff;stop-opacity:.2"
         offset=".2"
         id="stop9-0" />
      <stop
         style="stop-color:#666;stop-opacity:.1"
         offset=".6"
         id="stop11-9" />
      <stop
         style="stop-color:#000;stop-opacity:.13"
         offset="1"
         id="stop13-4" />
    </radialGradient>
    <radialGradient
       r="405"
       cy="220"
       cx="220"
       gradientUnits="userSpaceOnUse"
       id="radialGradient3074"
       xlink:href="#rg-7"
       inkscape:collect="always" />
    <clipPath
       clipPathUnits="userSpaceOnUse"
       id="clipPath4354">
      <path
         style="fill:#aeaeae;fill-opacity:1"
         inkscape:connector-curvature="0"
         d="M 595.89258,300 C 569.35438,555.75613 300,657 300,657 l 0,-357 295.89258,0 z"
         id="path4356" />
    </clipPath>
    <clipPath
       clipPathUnits="userSpaceOnUse"
       id="clipPath4354-1">
      <path
         style="fill:#aeaeae;fill-opacity:1"
         inkscape:connector-curvature="0"
         d="M 595.89258,300 C 569.35438,555.75613 300,657 300,657 l 0,-357 295.89258,0 z"
         id="path4356-7" />
    </clipPath>
    <clipPath
       clipPathUnits="userSpaceOnUse"
       id="clipPath3532">
      <path
         style="fill:#0000cc;fill-opacity:1"
         inkscape:connector-curvature="0"
         id="path3534"
         d="m 1.99998,2 v 257 c 0,286 298,398 298,398 0,0 298,-112 298,-398 V 2 z" />
    </clipPath>
    <clipPath
       clipPathUnits="userSpaceOnUse"
       id="clipPath3536">
      <path
         style="fill:#0000cc;fill-opacity:1"
         inkscape:connector-curvature="0"
         id="path3538"
         d="m 1.99998,2 v 257 c 0,286 298,398 298,398 0,0 298,-112 298,-398 V 2 z" />
    </clipPath>
  </defs>
  <g
     inkscape:groupmode="layer"
     id="layer3"
     inkscape:label="Frey"
     style="display:inline"
     sodipodi:insensitive="true">
    <path
       d="m 1.99998,2 v 257 c 0,286 298,398 298,398 0,0 298,-112 298,-398 V 2 z"
       id="bg"
       inkscape:connector-curvature="0"
       style="fill:#0000cc;fill-opacity:1" />
    <g
       style="display:inline"
       id="g3886"
       transform="matrix(0.99003322,0,0,0.99003322,1.5049441,3.004982)">
      <path
         inkscape:connector-curvature="0"
         inkscape:tile-y0="508.01641"
         inkscape:tile-x0="174.48375"
         inkscape:tile-h="0"
         inkscape:tile-w="16.91582"
         inkscape:tile-cy="508.01641"
         inkscape:tile-cx="182.94166"
         sodipodi:nodetypes="cc"
         id="path4240"
         d="m 72.585308,293.00475 10.567945,0"
         style="fill:none;stroke:#000000;stroke-width:2;stroke-miterlimit:4;stroke-opacity:1;stroke-dasharray:none" />
      <path
         inkscape:connector-curvature="0"
         id="path4216"
         d="M 2,236.03125 2,241.25 2,259 c 0,14.0886 0.71872,27.74845 2.09375,41 l 4.3125,0 0,-30.09375 c 3.894298,-6.97178 17.019101,-12.12499 32.625,-12.125 18.673893,0 33.84375,7.35381 33.84375,16.40625 l 0,24.3125 5.65625,0 0,-24.3125 c 0,-9.05245 15.138605,-16.40624 33.8125,-16.40625 18.67389,0 33.84374,7.35381 33.84375,16.40625 l 0,24.3125 5.625,0 0,-24.3125 c 0,-9.05245 15.16986,-16.40624 33.84375,-16.40625 18.67389,0 33.8125,7.35381 33.8125,16.40625 l 0,24.3125 5.65625,0 0,-24.3125 c 1e-5,-9.05245 15.16985,-16.40624 33.84375,-16.40625 16.46652,0 30.17499,5.72235 33.1875,13.28125 l 0,28.9375 5.84375,0 0,-50.8125 0,-13.15625 -298,0 z"
         style="fill:#aeaeae;fill-opacity:1;fill-rule:evenodd;stroke:#000000;stroke-width:3.00000024;stroke-linecap:butt;stroke-linejoin:miter;stroke-miterlimit:4;stroke-opacity:1;stroke-dasharray:none;display:inline" />
      <path
         inkscape:connector-curvature="0"
         style="fill:none;stroke:#000000;stroke-width:1.99999988;stroke-miterlimit:4;stroke-opacity:1;stroke-dasharray:none"
         d="m 1.5,241.77629 299,0"
         id="path4230"
         sodipodi:nodetypes="cc" />
      <use
         id="use4434"
         xlink:href="#path4240"
         inkscape:tiled-clone-of="#path4240"
         y="0"
         x="0"
         width="600"
         height="660" />
      <use
         height="660"
         width="600"
         transform="translate(0,-24.989494)"
         id="use4436"
         xlink:href="#path4240"
         inkscape:tiled-clone-of="#path4240"
         y="0"
         x="0" />
      <use
         height="660"
         width="600"
         transform="translate(0,-18.742121)"
         id="use4438"
         xlink:href="#path4240"
         inkscape:tiled-clone-of="#path4240"
         y="0"
         x="0" />
      <use
         height="660"
         width="600"
         transform="translate(0,-12.494747)"
         id="use4440"
         xlink:href="#path4240"
         inkscape:tiled-clone-of="#path4240"
         y="0"
         x="0" />
      <use
         height="660"
         width="600"
         transform="translate(0,-6.2473736)"
         id="use4442"
         xlink:href="#path4240"
         inkscape:tiled-clone-of="#path4240"
         y="0"
         x="0" />
      <use
         height="660"
         width="600"
         id="use4444"
         transform="translate(72.9365,0)"
         xlink:href="#path4240"
         inkscape:tiled-clone-of="#path4240"
         y="0"
         x="0" />
      <use
         height="660"
         width="600"
         id="use4446"
         transform="translate(72.9365,-24.989494)"
         xlink:href="#path4240"
         inkscape:tiled-clone-of="#path4240"
         y="0"
         x="0" />
      <use
         height="660"
         width="600"
         id="use4448"
         transform="translate(72.9365,-18.742121)"
         xlink:href="#path4240"
         inkscape:tiled-clone-of="#path4240"
         y="0"
         x="0" />
      <use
         height="660"
         width="600"
         id="use4450"
         transform="translate(72.9365,-12.494747)"
         xlink:href="#path4240"
         inkscape:tiled-clone-of="#path4240"
         y="0"
         x="0" />
      <use
         height="660"
         width="600"
         id="use4452"
         transform="translate(72.9365,-6.2473736)"
         xlink:href="#path4240"
         inkscape:tiled-clone-of="#path4240"
         y="0"
         x="0" />
      <use
         height="660"
         width="600"
         id="use4454"
         transform="translate(145.873,0)"
         xlink:href="#path4240"
         inkscape:tiled-clone-of="#path4240"
         y="0"
         x="0" />
      <use
         height="660"
         width="600"
         id="use4456"
         transform="translate(145.873,-6.2473736)"
         xlink:href="#path4240"
         inkscape:tiled-clone-of="#path4240"
         y="0"
         x="0" />
      <use
         height="660"
         width="600"
         id="use4458"
         transform="translate(145.873,-12.494747)"
         xlink:href="#path4240"
         inkscape:tiled-clone-of="#path4240"
         y="0"
         x="0" />
      <use
         height="660"
         width="600"
         id="use4460"
         transform="translate(145.873,-18.742121)"
         xlink:href="#path4240"
         inkscape:tiled-clone-of="#path4240"
         y="0"
         x="0" />
      <use
         height="660"
         width="600"
         id="use4462"
         transform="translate(145.873,-24.989494)"
         xlink:href="#path4240"
         inkscape:tiled-clone-of="#path4240"
         y="0"
         x="0" />
      <path
         inkscape:connector-curvature="0"
         inkscape:tile-y0="426.28684"
         inkscape:tile-x0="300"
         inkscape:tile-h="11.93353"
         inkscape:tile-w="0"
         inkscape:tile-cy="432.2536"
         inkscape:tile-cx="300"
         sodipodi:nodetypes="cc"
         id="path4464"
         d="m 151,249.40056 0,-7.45532"
         style="fill:none;stroke:#000000;stroke-width:2;stroke-miterlimit:4;stroke-opacity:1;stroke-dasharray:none" />
      <use
         height="660"
         width="600"
         transform="translate(124.94747,0)"
         id="use4476"
         xlink:href="#path4464"
         inkscape:tiled-clone-of="#path4464"
         y="0"
         x="0" />
      <use
         height="660"
         width="600"
         transform="translate(93.710604,0)"
         id="use4478"
         xlink:href="#path4464"
         inkscape:tiled-clone-of="#path4464"
         y="0"
         x="0" />
      <use
         height="660"
         width="600"
         transform="translate(62.473736,0)"
         id="use4480"
         xlink:href="#path4464"
         inkscape:tiled-clone-of="#path4464"
         y="0"
         x="0" />
      <use
         height="660"
         width="600"
         transform="translate(31.236868,0)"
         id="use4482"
         xlink:href="#path4464"
         inkscape:tiled-clone-of="#path4464"
         y="0"
         x="0" />
      <use
         height="660"
         width="600"
         transform="translate(-124.94747,0)"
         id="use4486"
         xlink:href="#path4464"
         inkscape:tiled-clone-of="#path4464"
         y="0"
         x="0" />
      <use
         height="660"
         width="600"
         transform="translate(-93.710604,0)"
         id="use4488"
         xlink:href="#path4464"
         inkscape:tiled-clone-of="#path4464"
         y="0"
         x="0" />
      <use
         height="660"
         width="600"
         transform="translate(-62.473736,0)"
         id="use4490"
         xlink:href="#path4464"
         inkscape:tiled-clone-of="#path4464"
         y="0"
         x="0" />
      <use
         height="660"
         width="600"
         transform="translate(-31.236868,0)"
         id="use4492"
         xlink:href="#path4464"
         inkscape:tiled-clone-of="#path4464"
         y="0"
         x="0" />
      <path
         inkscape:connector-curvature="0"
         style="fill:none;stroke:#000000;stroke-width:2;stroke-miterlimit:4;stroke-opacity:1;stroke-dasharray:none"
         d="m 135.38156,241.90371 0,-6.20585"
         id="path4496"
         sodipodi:nodetypes="cc"
         inkscape:tile-cx="275"
         inkscape:tile-cy="421.2536"
         inkscape:tile-w="0"
         inkscape:tile-h="9.93353"
         inkscape:tile-x0="275"
         inkscape:tile-y0="416.28684" />
      <use
         id="use4498"
         xlink:href="#path4496"
         inkscape:tiled-clone-of="#path4496"
         y="0"
         x="0"
         width="600"
         height="660" />
      <use
         height="660"
         width="600"
         id="use4500"
         transform="translate(0,13.702696)"
         xlink:href="#path4496"
         inkscape:tiled-clone-of="#path4496"
         y="0"
         x="0" />
      <use
         height="660"
         width="600"
         transform="translate(157.43381,0.04152629)"
         id="use4504"
         xlink:href="#path4496"
         inkscape:tiled-clone-of="#path4496"
         y="0"
         x="0" />
      <use
         height="660"
         width="600"
         id="use4506"
         transform="translate(-124.94747,13.702696)"
         xlink:href="#path4496"
         inkscape:tiled-clone-of="#path4496"
         y="0"
         x="0" />
      <use
         height="660"
         width="600"
         id="use4508"
         transform="translate(140.56591,19.950069)"
         xlink:href="#path4496"
         inkscape:tiled-clone-of="#path4496"
         y="0"
         x="0" />
      <use
         height="660"
         width="600"
         transform="translate(126.19695,0.04152629)"
         id="use4510"
         xlink:href="#path4496"
         inkscape:tiled-clone-of="#path4496"
         y="0"
         x="0" />
      <use
         height="660"
         width="600"
         id="use4512"
         transform="translate(32.486343,13.702696)"
         xlink:href="#path4496"
         inkscape:tiled-clone-of="#path4496"
         y="0"
         x="0" />
      <use
         height="660"
         width="600"
         id="use4514"
         transform="translate(109.32904,19.950069)"
         xlink:href="#path4496"
         inkscape:tiled-clone-of="#path4496"
         y="0"
         x="0" />
      <use
         height="660"
         width="600"
         transform="translate(94.960079,0.04152629)"
         id="use4516"
         xlink:href="#path4496"
         inkscape:tiled-clone-of="#path4496"
         y="0"
         x="0" />
      <use
         height="660"
         width="600"
         id="use4518"
         transform="translate(-93.710604,13.702696)"
         xlink:href="#path4496"
         inkscape:tiled-clone-of="#path4496"
         y="0"
         x="0" />
      <use
         height="660"
         width="600"
         id="use4520"
         transform="translate(78.09217,19.950069)"
         xlink:href="#path4496"
         inkscape:tiled-clone-of="#path4496"
         y="0"
         x="0" />
      <use
         height="660"
         width="600"
         transform="translate(63.723211,0.04152629)"
         id="use4522"
         xlink:href="#path4496"
         inkscape:tiled-clone-of="#path4496"
         y="0"
         x="0" />
      <use
         height="660"
         width="600"
         id="use4524"
         transform="translate(-62.473736,13.702696)"
         xlink:href="#path4496"
         inkscape:tiled-clone-of="#path4496"
         y="0"
         x="0" />
      <use
         height="660"
         width="600"
         id="use4526"
         transform="translate(46.855302,19.950069)"
         xlink:href="#path4496"
         inkscape:tiled-clone-of="#path4496"
         y="0"
         x="0" />
      <use
         height="660"
         width="600"
         transform="translate(32.486343,0.04152629)"
         id="use4528"
         xlink:href="#path4496"
         inkscape:tiled-clone-of="#path4496"
         y="0"
         x="0" />
      <use
         height="660"
         width="600"
         id="use4530"
         transform="translate(-31.236868,13.702696)"
         xlink:href="#path4496"
         inkscape:tiled-clone-of="#path4496"
         y="0"
         x="0" />
      <use
         height="660"
         width="600"
         id="use4532"
         transform="translate(-109.32904,19.950069)"
         xlink:href="#path4496"
         inkscape:tiled-clone-of="#path4496"
         y="0"
         x="0" />
      <use
         height="660"
         width="600"
         transform="translate(-124.94747,0.04152629)"
         id="use4534"
         xlink:href="#path4496"
         inkscape:tiled-clone-of="#path4496"
         y="0"
         x="0" />
      <use
         height="660"
         width="600"
         id="use4536"
         transform="translate(63.723211,13.702696)"
         xlink:href="#path4496"
         inkscape:tiled-clone-of="#path4496"
         y="0"
         x="0" />
      <use
         height="660"
         width="600"
         id="use4538"
         transform="translate(-78.09217,19.950069)"
         xlink:href="#path4496"
         inkscape:tiled-clone-of="#path4496"
         y="0"
         x="0" />
      <use
         height="660"
         width="600"
         transform="translate(-93.710604,0.04152629)"
         id="use4540"
         xlink:href="#path4496"
         inkscape:tiled-clone-of="#path4496"
         y="0"
         x="0" />
      <use
         height="660"
         width="600"
         id="use4542"
         transform="translate(94.960079,13.702696)"
         xlink:href="#path4496"
         inkscape:tiled-clone-of="#path4496"
         y="0"
         x="0" />
      <use
         height="660"
         width="600"
         id="use4544"
         transform="translate(-46.855302,19.950069)"
         xlink:href="#path4496"
         inkscape:tiled-clone-of="#path4496"
         y="0"
         x="0" />
      <use
         height="660"
         width="600"
         transform="translate(-62.473736,0.04152629)"
         id="use4546"
         xlink:href="#path4496"
         inkscape:tiled-clone-of="#path4496"
         y="0"
         x="0" />
      <use
         height="660"
         width="600"
         id="use4548"
         transform="translate(126.19695,13.702696)"
         xlink:href="#path4496"
         inkscape:tiled-clone-of="#path4496"
         y="0"
         x="0" />
      <use
         height="660"
         width="600"
         id="use4550"
         transform="translate(-15.618434,19.950069)"
         xlink:href="#path4496"
         inkscape:tiled-clone-of="#path4496"
         y="0"
         x="0" />
      <use
         height="660"
         width="600"
         transform="translate(-31.236868,0.04152629)"
         id="use4552"
         xlink:href="#path4496"
         inkscape:tiled-clone-of="#path4496"
         y="0"
         x="0" />
      <use
         height="660"
         width="600"
         id="use4554"
         transform="translate(157.43381,13.702696)"
         xlink:href="#path4496"
         inkscape:tiled-clone-of="#path4496"
         y="0"
         x="0" />
      <path
         sodipodi:nodetypes="cc"
         id="path3821"
         d="m 1.5,261.76788 299,0"
         style="fill:none;stroke:#000000;stroke-width:1.99999988;stroke-miterlimit:4;stroke-opacity:1;stroke-dasharray:none"
         inkscape:connector-curvature="0" />
      <use
         height="660"
         width="600"
         id="use4556"
         transform="translate(15.618434,19.950069)"
         xlink:href="#path4496"
         inkscape:tiled-clone-of="#path4496"
         y="0"
         x="0" />
      <path
         inkscape:connector-curvature="0"
         id="path3752"
         d="m 114.35525,257.77493 c -18.673895,1e-5 -33.833434,7.34691 -33.833434,16.39936 l 0,24.32571 6.774495,0 0,-19.54257 c 0,-7.24195 12.119824,-13.11949 27.058939,-13.11948 14.93911,0 27.05893,5.87752 27.05894,13.11948 l 0,19.54257 6.77449,0 0,-24.32571 c 0,-9.05244 -15.15954,-16.39936 -33.83343,-16.39936 z"
         style="fill:#aeaeae;fill-opacity:1;fill-rule:evenodd;stroke:#000000;stroke-width:3.00000024;stroke-linecap:butt;stroke-linejoin:miter;stroke-miterlimit:4;stroke-opacity:1;stroke-dasharray:none;display:inline" />
      <path
         inkscape:connector-curvature="0"
         id="path3750"
         d="m 187.64475,257.77493 c -18.6739,1e-5 -33.83343,7.34691 -33.83343,16.39936 l 0,24.32571 6.77449,0 0,-19.54257 c 1e-5,-7.24195 12.11982,-13.11949 27.05894,-13.11948 14.93911,0 27.05893,5.87752 27.05894,13.11948 l 0,19.54257 6.77449,0 0,-24.32571 c 0,-9.05244 -15.15953,-16.39936 -33.83343,-16.39936 z"
         style="fill:#aeaeae;fill-opacity:1;fill-rule:evenodd;stroke:#000000;stroke-width:3.00000024;stroke-linecap:butt;stroke-linejoin:miter;stroke-miterlimit:4;stroke-opacity:1;stroke-dasharray:none;display:inline" />
      <g
         transform="translate(-3.0000005,0)"
         id="g3663">
        <g
           transform="matrix(0.51883355,0,0,0.51883355,81.083341,-55.697373)"
           id="g3281"
           style="stroke-width:2;stroke-miterlimit:4;stroke-dasharray:none;display:inline">
          <path
             d="m 196.43343,233.69878 0,-57.53699 27.61775,0 0,23.0148 17.2611,0 0,-23.0148 27.61775,0 0,23.0148 17.26109,0 0,-23.0148 27.61775,0 0,23.0148 17.2611,0 0,-23.0148 27.61775,0 0,23.0148 17.26109,0 0,-23.0148 27.61776,0 0,57.53699 z m 5.7537,0 195.62574,0 0,8.63054 -195.62574,0 z m 5.7537,8.63054 184.11834,0 0,8.63055 -184.11834,0 z m 28.76849,60.41384 c 0,-17.2611 -11.5074,-40.27589 -23.01479,-51.78329 l 172.61094,0 c -11.50739,11.5074 -23.01479,34.52219 -23.01479,51.78329 z m -2.87685,0 132.33506,0 0,8.63054 -132.33506,0 z m 2.87685,8.63054 126.58136,0 0,5.7537 -126.58136,0 z m -51.78329,235.90163 0,-80.55178 c 57.53699,-57.53698 57.53699,-120.82766 57.53699,-149.59615 l 115.07396,0 c 0,28.76849 0,92.05917 57.53698,149.59615 l 0,80.55178 z m -5.75369,0 241.65532,0 0,14.38424 -241.65532,0 z"
             id="path22"
             inkscape:connector-curvature="0"
             style="fill:#aeaeae;fill-opacity:1;stroke:#000000;stroke-width:3.85480094;stroke-miterlimit:4;stroke-dasharray:none" />
          <path
             d="m 210.24231,190.54604 0,-14.38425 m 44.87884,14.38425 0,-14.38425 M 300,190.54604 l 0,-14.38425 m 44.87884,14.38425 0,-14.38425 m 44.87885,14.38425 0,-14.38425 m -157.07596,43.15274 0,-20.13794 m 44.87885,20.13794 0,-20.13794 m 44.87884,20.13794 0,-20.13794 m 44.87885,20.13794 0,-20.13794 m -157.07596,34.52219 0,-14.38425 m 44.87884,14.38425 0,-14.38425 M 300,233.69878 l 0,-14.38425 m 44.87884,14.38425 0,-14.38425 m 44.87885,14.38425 0,-14.38425 m -193.32426,0 207.13314,0 m -207.13314,-28.76849 27.61775,0 m 17.2611,0 27.61775,0 m 17.26109,0 27.61775,0 m 17.2611,0 27.61775,0 m 17.26109,0 27.61776,0 m -172.61095,69.04438 0,-8.63055 m 23.01479,8.63055 0,-8.63055 m 23.0148,8.63055 0,-8.63055 M 300,259.59042 l 0,-8.63055 m 23.01479,8.63055 0,-8.63055 m 23.01479,8.63055 0,-8.63055 m 23.0148,8.63055 0,-8.63055 m -126.58136,17.2611 0,-8.63055 m 23.01479,8.63055 0,-8.63055 m 23.01479,8.63055 0,-8.63055 m 23.01479,8.63055 0,-8.63055 m 23.0148,8.63055 0,-8.63055 m 23.01479,8.63055 0,-8.63055 m -126.58136,17.26109 0,-8.63054 m 23.01479,8.63054 0,-8.63054 m 23.0148,8.63054 0,-8.63054 M 300,276.85151 l 0,-8.63054 m 23.01479,8.63054 0,-8.63054 m 23.01479,8.63054 0,-8.63054 m 23.0148,8.63054 0,-8.63054 m -126.58136,17.26109 0,-8.63055 m 23.01479,8.63055 0,-8.63055 m 23.01479,8.63055 0,-8.63055 m 23.01479,8.63055 0,-8.63055 m 23.0148,8.63055 0,-8.63055 m 23.01479,8.63055 0,-8.63055 m -103.56657,17.2611 0,-8.63055 m 23.0148,8.63055 0,-8.63055 M 300,294.11261 l 0,-8.63055 m 23.01479,8.63055 0,-8.63055 m 23.01479,8.63055 0,-8.63055 m -103.56656,17.2611 0,-8.63055 m 23.01479,8.63055 0,-8.63055 m 23.01479,8.63055 0,-8.63055 m 23.01479,8.63055 0,-8.63055 m 23.0148,8.63055 0,-8.63055 m 23.01479,8.63055 0,-8.63055 m -121.69072,0 128.30747,0 m -130.32126,-8.63055 132.33506,0 m -135.49959,-8.63055 138.66412,0 m -142.9794,-8.63054 147.29468,0 m -152.76069,-8.63055 158.2267,0 m -107.88184,80.55177 0,-23.01479 M 300,340.14219 300,317.1274 m 28.76849,23.01479 0,-23.01479 m -71.92123,46.02959 0,-23.0148 m 28.76849,23.0148 0,-23.0148 m 28.76849,23.0148 0,-23.0148 m 28.7685,23.0148 0,-23.0148 m -100.68972,46.02959 0,-23.01479 m 28.76849,23.01479 0,-23.01479 M 300,386.17178 l 0,-23.01479 m 28.76849,23.01479 0,-23.01479 m 28.76849,23.01479 0,-23.01479 m -100.68972,46.02958 0,-23.01479 m 28.76849,23.01479 0,-23.01479 m 28.76849,23.01479 0,-23.01479 m 28.7685,23.01479 0,-23.01479 m -100.68972,46.02958 0,-23.01479 m 28.76849,23.01479 0,-23.01479 M 300,432.20136 l 0,-23.01479 m 28.76849,23.01479 0,-23.01479 m 28.76849,23.01479 0,-23.01479 m -129.45821,46.02959 0,-23.0148 m 28.76849,23.0148 0,-23.0148 m 28.76849,23.0148 0,-23.0148 m 28.76849,23.0148 0,-23.0148 m 28.7685,23.0148 0,-23.0148 m 28.76849,23.0148 0,-23.0148 m -158.2267,46.02959 0,-23.01479 m 28.76849,23.01479 0,-23.01479 m 28.76849,23.01479 0,-23.01479 M 300,478.23095 l 0,-23.01479 m 28.76849,23.01479 0,-23.01479 m 28.76849,23.01479 0,-23.01479 m 28.76849,23.01479 0,-23.01479 m -186.99519,46.02958 0,-23.01479 m 28.76849,23.01479 0,-23.01479 m 28.76849,23.01479 0,-23.01479 m 28.76849,23.01479 0,-23.01479 m 28.76849,23.01479 0,-23.01479 m 28.7685,23.01479 0,-23.01479 m 28.76849,23.01479 0,-23.01479 m 28.76849,23.01479 0,-23.01479 m -186.99519,46.02959 0,-23.0148 m 28.76849,23.0148 0,-23.0148 m 28.76849,23.0148 0,-23.0148 M 300,524.26054 l 0,-23.0148 m 28.76849,23.0148 0,-23.0148 m 28.76849,23.0148 0,-23.0148 m 28.76849,23.0148 0,-23.0148 m -186.99519,46.02959 0,-23.01479 m 28.76849,23.01479 0,-23.01479 m 28.76849,23.01479 0,-23.01479 m 28.76849,23.01479 0,-23.01479 m 28.76849,23.01479 0,-23.01479 m 28.7685,23.01479 0,-23.01479 m 28.76849,23.01479 0,-23.01479 m 28.76849,23.01479 0,-23.01479 m -215.76369,0 230.14793,0 m 0,-23.0148 -230.14793,0 m 0,-23.01479 230.14793,0 m -10.64434,-23.01479 -208.85924,0 m 17.26109,-23.0148 174.33706,0 m -12.37045,-23.01479 -149.59616,0 m 8.63055,-23.01479 132.33506,0 m -5.46602,-23.01479 -121.40303,0 m 2.58917,-23.0148 116.2247,0"
             id="path24"
             inkscape:connector-curvature="0"
             style="fill:#aeaeae;fill-opacity:1;stroke:#000000;stroke-width:3.85480094;stroke-miterlimit:4;stroke-dasharray:none" />
          <path
             d="m 248.21671,547.27533 v -86.30547 a 51.783285,51.783285 0 1 1 103.56657,0 v 86.30547 z"
             id="path26"
             inkscape:connector-curvature="0"
             style="fill:#aeaeae;fill-opacity:1;stroke:#000000;stroke-width:3.85480094;stroke-miterlimit:4;stroke-dasharray:none" />
          <path
             d="m 236.70932,547.27533 v -20.13794 h 126.58136 v 20.13794 z m 0,-40.27589 V 486.8615 h 126.58136 v 20.13794 z"
             id="path28"
             inkscape:connector-curvature="0"
             style="fill:#aeaeae;fill-opacity:1;stroke:#000000;stroke-width:3.85480094;stroke-miterlimit:4;stroke-dasharray:none" />
          <path
             d="m 235.94721,466.91731 1.75514,-20.0613 63.04986,5.51612 -1.75514,20.06134 z"
             id="path30"
             inkscape:connector-curvature="0"
             style="fill:#aeaeae;fill-opacity:1;stroke:#000000;stroke-width:3.85480094;stroke-miterlimit:4;stroke-dasharray:none" />
          <path
             d="m 258.38897,411.91221 17.43997,-10.06897 31.64534,54.81134 -17.43997,10.06897 z"
             id="path32"
             inkscape:connector-curvature="0"
             style="fill:#aeaeae;fill-opacity:1;stroke:#000000;stroke-width:3.85480094;stroke-miterlimit:4;stroke-dasharray:none" />
          <path
             d="m 309.96569,466.72355 -17.43998,-10.06897 31.64534,-54.81134 17.43998,10.06897 z"
             id="path34"
             inkscape:connector-curvature="0"
             style="fill:#aeaeae;fill-opacity:1;stroke:#000000;stroke-width:3.85480094;stroke-miterlimit:4;stroke-dasharray:none" />
          <path
             d="m 301.00293,472.43347 -1.75514,-20.06131 63.04983,-5.51615 1.75514,20.06133 z"
             id="path36"
             inkscape:connector-curvature="0"
             style="fill:#aeaeae;fill-opacity:1;stroke:#000000;stroke-width:3.85480094;stroke-miterlimit:4;stroke-dasharray:none" />
          <path
             d="m 265.47781,547.27533 v -86.30547 a 34.52219,34.52219 0 1 1 69.04438,0 v 86.30547 z"
             id="path38"
             inkscape:connector-curvature="0"
             style="fill:#333333;stroke:#000000;stroke-width:3.85480094;stroke-miterlimit:4;stroke-dasharray:none" />
        </g>
        <g
           style="stroke-width:2;stroke-miterlimit:4;stroke-dasharray:none;display:inline"
           id="g3261"
           transform="matrix(-0.51883355,0,0,0.51883355,226.91666,-55.697373)">
          <path
             style="fill:#aeaeae;fill-opacity:1;stroke:#000000;stroke-width:3.85480094;stroke-miterlimit:4;stroke-dasharray:none"
             inkscape:connector-curvature="0"
             id="path3263"
             d="m 196.43343,233.69878 0,-57.53699 27.61775,0 0,23.0148 17.2611,0 0,-23.0148 27.61775,0 0,23.0148 17.26109,0 0,-23.0148 27.61775,0 0,23.0148 17.2611,0 0,-23.0148 27.61775,0 0,23.0148 17.26109,0 0,-23.0148 27.61776,0 0,57.53699 z m 5.7537,0 195.62574,0 0,8.63054 -195.62574,0 z m 5.7537,8.63054 184.11834,0 0,8.63055 -184.11834,0 z m 28.76849,60.41384 c 0,-17.2611 -11.5074,-40.27589 -23.01479,-51.78329 l 172.61094,0 c -11.50739,11.5074 -23.01479,34.52219 -23.01479,51.78329 z m -2.87685,0 132.33506,0 0,8.63054 -132.33506,0 z m 2.87685,8.63054 126.58136,0 0,5.7537 -126.58136,0 z m -51.78329,235.90163 0,-80.55178 c 57.53699,-57.53698 57.53699,-120.82766 57.53699,-149.59615 l 115.07396,0 c 0,28.76849 0,92.05917 57.53698,149.59615 l 0,80.55178 z m -5.75369,0 241.65532,0 0,14.38424 -241.65532,0 z" />
          <path
             style="fill:#aeaeae;fill-opacity:1;stroke:#000000;stroke-width:3.85480094;stroke-miterlimit:4;stroke-dasharray:none"
             inkscape:connector-curvature="0"
             id="path3265"
             d="m 210.24231,190.54604 0,-14.38425 m 44.87884,14.38425 0,-14.38425 M 300,190.54604 l 0,-14.38425 m 44.87884,14.38425 0,-14.38425 m 44.87885,14.38425 0,-14.38425 m -157.07596,43.15274 0,-20.13794 m 44.87885,20.13794 0,-20.13794 m 44.87884,20.13794 0,-20.13794 m 44.87885,20.13794 0,-20.13794 m -157.07596,34.52219 0,-14.38425 m 44.87884,14.38425 0,-14.38425 M 300,233.69878 l 0,-14.38425 m 44.87884,14.38425 0,-14.38425 m 44.87885,14.38425 0,-14.38425 m -193.32426,0 207.13314,0 m -207.13314,-28.76849 27.61775,0 m 17.2611,0 27.61775,0 m 17.26109,0 27.61775,0 m 17.2611,0 27.61775,0 m 17.26109,0 27.61776,0 m -172.61095,69.04438 0,-8.63055 m 23.01479,8.63055 0,-8.63055 m 23.0148,8.63055 0,-8.63055 M 300,259.59042 l 0,-8.63055 m 23.01479,8.63055 0,-8.63055 m 23.01479,8.63055 0,-8.63055 m 23.0148,8.63055 0,-8.63055 m -126.58136,17.2611 0,-8.63055 m 23.01479,8.63055 0,-8.63055 m 23.01479,8.63055 0,-8.63055 m 23.01479,8.63055 0,-8.63055 m 23.0148,8.63055 0,-8.63055 m 23.01479,8.63055 0,-8.63055 m -126.58136,17.26109 0,-8.63054 m 23.01479,8.63054 0,-8.63054 m 23.0148,8.63054 0,-8.63054 M 300,276.85151 l 0,-8.63054 m 23.01479,8.63054 0,-8.63054 m 23.01479,8.63054 0,-8.63054 m 23.0148,8.63054 0,-8.63054 m -126.58136,17.26109 0,-8.63055 m 23.01479,8.63055 0,-8.63055 m 23.01479,8.63055 0,-8.63055 m 23.01479,8.63055 0,-8.63055 m 23.0148,8.63055 0,-8.63055 m 23.01479,8.63055 0,-8.63055 m -103.56657,17.2611 0,-8.63055 m 23.0148,8.63055 0,-8.63055 M 300,294.11261 l 0,-8.63055 m 23.01479,8.63055 0,-8.63055 m 23.01479,8.63055 0,-8.63055 m -103.56656,17.2611 0,-8.63055 m 23.01479,8.63055 0,-8.63055 m 23.01479,8.63055 0,-8.63055 m 23.01479,8.63055 0,-8.63055 m 23.0148,8.63055 0,-8.63055 m 23.01479,8.63055 0,-8.63055 m -121.69072,0 128.30747,0 m -130.32126,-8.63055 132.33506,0 m -135.49959,-8.63055 138.66412,0 m -142.9794,-8.63054 147.29468,0 m -152.76069,-8.63055 158.2267,0 m -107.88184,80.55177 0,-23.01479 M 300,340.14219 300,317.1274 m 28.76849,23.01479 0,-23.01479 m -71.92123,46.02959 0,-23.0148 m 28.76849,23.0148 0,-23.0148 m 28.76849,23.0148 0,-23.0148 m 28.7685,23.0148 0,-23.0148 m -100.68972,46.02959 0,-23.01479 m 28.76849,23.01479 0,-23.01479 M 300,386.17178 l 0,-23.01479 m 28.76849,23.01479 0,-23.01479 m 28.76849,23.01479 0,-23.01479 m -100.68972,46.02958 0,-23.01479 m 28.76849,23.01479 0,-23.01479 m 28.76849,23.01479 0,-23.01479 m 28.7685,23.01479 0,-23.01479 m -100.68972,46.02958 0,-23.01479 m 28.76849,23.01479 0,-23.01479 M 300,432.20136 l 0,-23.01479 m 28.76849,23.01479 0,-23.01479 m 28.76849,23.01479 0,-23.01479 m -129.45821,46.02959 0,-23.0148 m 28.76849,23.0148 0,-23.0148 m 28.76849,23.0148 0,-23.0148 m 28.76849,23.0148 0,-23.0148 m 28.7685,23.0148 0,-23.0148 m 28.76849,23.0148 0,-23.0148 m -158.2267,46.02959 0,-23.01479 m 28.76849,23.01479 0,-23.01479 m 28.76849,23.01479 0,-23.01479 M 300,478.23095 l 0,-23.01479 m 28.76849,23.01479 0,-23.01479 m 28.76849,23.01479 0,-23.01479 m 28.76849,23.01479 0,-23.01479 m -186.99519,46.02958 0,-23.01479 m 28.76849,23.01479 0,-23.01479 m 28.76849,23.01479 0,-23.01479 m 28.76849,23.01479 0,-23.01479 m 28.76849,23.01479 0,-23.01479 m 28.7685,23.01479 0,-23.01479 m 28.76849,23.01479 0,-23.01479 m 28.76849,23.01479 0,-23.01479 m -186.99519,46.02959 0,-23.0148 m 28.76849,23.0148 0,-23.0148 m 28.76849,23.0148 0,-23.0148 M 300,524.26054 l 0,-23.0148 m 28.76849,23.0148 0,-23.0148 m 28.76849,23.0148 0,-23.0148 m 28.76849,23.0148 0,-23.0148 m -186.99519,46.02959 0,-23.01479 m 28.76849,23.01479 0,-23.01479 m 28.76849,23.01479 0,-23.01479 m 28.76849,23.01479 0,-23.01479 m 28.76849,23.01479 0,-23.01479 m 28.7685,23.01479 0,-23.01479 m 28.76849,23.01479 0,-23.01479 m 28.76849,23.01479 0,-23.01479 m -215.76369,0 230.14793,0 m 0,-23.0148 -230.14793,0 m 0,-23.01479 230.14793,0 m -10.64434,-23.01479 -208.85924,0 m 17.26109,-23.0148 174.33706,0 m -12.37045,-23.01479 -149.59616,0 m 8.63055,-23.01479 132.33506,0 m -5.46602,-23.01479 -121.40303,0 m 2.58917,-23.0148 116.2247,0" />
          <path
             style="fill:#aeaeae;fill-opacity:1;stroke:#000000;stroke-width:3.85480094;stroke-miterlimit:4;stroke-dasharray:none"
             inkscape:connector-curvature="0"
             id="path3267"
             d="m 248.21671,547.27533 v -86.30547 a 51.783285,51.783285 0 1 1 103.56657,0 v 86.30547 z" />
          <path
             style="fill:#aeaeae;fill-opacity:1;stroke:#000000;stroke-width:3.85480094;stroke-miterlimit:4;stroke-dasharray:none"
             inkscape:connector-curvature="0"
             id="path3269"
             d="m 236.70932,547.27533 v -20.13794 h 126.58136 v 20.13794 z m 0,-40.27589 V 486.8615 h 126.58136 v 20.13794 z" />
          <path
             style="fill:#aeaeae;fill-opacity:1;stroke:#000000;stroke-width:3.85480094;stroke-miterlimit:4;stroke-dasharray:none"
             inkscape:connector-curvature="0"
             id="path3271"
             d="m 235.94721,466.91731 1.75514,-20.0613 63.04986,5.51612 -1.75514,20.06134 z" />
          <path
             style="fill:#aeaeae;fill-opacity:1;stroke:#000000;stroke-width:3.85480094;stroke-miterlimit:4;stroke-dasharray:none"
             inkscape:connector-curvature="0"
             id="path3273"
             d="m 258.38897,411.91221 17.43997,-10.06897 31.64534,54.81134 -17.43997,10.06897 z" />
          <path
             style="fill:#aeaeae;fill-opacity:1;stroke:#000000;stroke-width:3.85480094;stroke-miterlimit:4;stroke-dasharray:none"
             inkscape:connector-curvature="0"
             id="path3275"
             d="m 309.96569,466.72355 -17.43998,-10.06897 31.64534,-54.81134 17.43998,10.06897 z" />
          <path
             style="fill:#aeaeae;fill-opacity:1;stroke:#000000;stroke-width:3.85480094;stroke-miterlimit:4;stroke-dasharray:none"
             inkscape:connector-curvature="0"
             id="path3277"
             d="m 301.00293,472.43347 -1.75514,-20.06131 63.04983,-5.51615 1.75514,20.06133 z" />
          <path
             style="fill:#333333;stroke:#000000;stroke-width:3.85480094;stroke-miterlimit:4;stroke-dasharray:none"
             inkscape:connector-curvature="0"
             id="path3279"
             d="m 265.47781,547.27533 v -86.30547 a 34.52219,34.52219 0 1 1 69.04438,0 v 86.30547 z" />
        </g>
      </g>
      <path
         inkscape:connector-curvature="0"
         style="fill:#aeaeae;fill-opacity:1;fill-rule:evenodd;stroke:#000000;stroke-width:3.00000024;stroke-linecap:butt;stroke-linejoin:miter;stroke-miterlimit:4;stroke-opacity:1;stroke-dasharray:none;display:inline"
         d="m 41.046226,257.77493 c -18.673895,1e-5 -33.833434,7.34691 -33.833434,16.39936 l 0,24.32571 6.774495,0 0,-19.54257 c 0,-7.24195 12.119824,-13.11949 27.058939,-13.11948 14.93911,0 27.05893,5.87752 27.05894,13.11948 l 0,19.54257 6.77449,0 0,-24.32571 c 0,-9.05244 -15.15954,-16.39936 -33.83343,-16.39936 z"
         id="path3756" />
      <path
         id="path3776"
         d="m 260.95377,257.77493 c -18.67389,1e-5 -33.83343,7.34691 -33.83343,16.39936 l 0,24.32571 6.7745,0 0,-19.54257 c 0,-7.24195 12.11982,-13.11949 27.05893,-13.11948 14.93911,0 27.05893,5.87752 27.05894,13.11948 l 0,19.54257 6.77449,0 0,-24.32571 c 0,-9.05244 -15.15954,-16.39936 -33.83343,-16.39936 z"
         style="fill:#aeaeae;fill-opacity:1;fill-rule:evenodd;stroke:#000000;stroke-width:3.00000024;stroke-linecap:butt;stroke-linejoin:miter;stroke-miterlimit:4;stroke-opacity:1;stroke-dasharray:none;display:inline"
         inkscape:connector-curvature="0" />
      <path
         inkscape:connector-curvature="0"
         style="fill:none;stroke:#000000;stroke-width:1.99999988;stroke-miterlimit:4;stroke-opacity:1;stroke-dasharray:none"
         d="m 1.5,255.10401 299,0"
         id="path3841"
         sodipodi:nodetypes="cc" />
      <path
         sodipodi:nodetypes="cc"
         id="path3843"
         d="m 1.5,248.44014 299,0"
         style="fill:none;stroke:#000000;stroke-width:1.99999988;stroke-miterlimit:4;stroke-opacity:1;stroke-dasharray:none"
         inkscape:connector-curvature="0" />
    </g>
    <g
       style="display:inline"
       id="g4267"
       clip-path="url(#clipPath4354-1)">
      <path
         style="fill:none;stroke:#000000;stroke-width:2;stroke-miterlimit:4;stroke-opacity:1;stroke-dasharray:none"
         d="m 372.08531,591.00475 10.56794,0"
         id="path4289"
         sodipodi:nodetypes="cc"
         inkscape:tile-cx="182.94166"
         inkscape:tile-cy="508.01641"
         inkscape:tile-w="16.91582"
         inkscape:tile-h="0"
         inkscape:tile-x0="174.48375"
         inkscape:tile-y0="508.01641"
         inkscape:connector-curvature="0" />
      <path
         id="path4731"
         d="m 301.5,534.03125 0,5.21875 0,7.9375 0,9.8125 0,41 2.09375,0 3.75,0 0.5625,0 0,-30.09375 c 0.1217,-0.21787 0.26673,-0.44204 0.40625,-0.65625 0.0538,-0.0827 0.0998,-0.1679 0.15625,-0.25 0.0853,-0.12372 0.19013,-0.25261 0.28125,-0.375 0.31386,-0.42071 0.65022,-0.84594 1.03125,-1.25 0.1074,-0.11389 0.23118,-0.23126 0.34375,-0.34375 0.0863,-0.0862 0.19192,-0.16466 0.28125,-0.25 0.34685,-0.33136 0.70289,-0.65078 1.09375,-0.96875 0.40229,-0.32727 0.83443,-0.6567 1.28125,-0.96875 0.40912,-0.28564 0.83658,-0.57166 1.28125,-0.84375 0.44155,-0.27018 0.89999,-0.52522 1.375,-0.78125 0.31634,-0.17051 0.63816,-0.33606 0.96875,-0.5 0.31184,-0.15451 0.64463,-0.28904 0.96875,-0.4375 0.31803,-0.14571 0.63929,-0.29779 0.96875,-0.4375 0.24954,-0.10579 0.49408,-0.21025 0.75,-0.3125 0.54298,-0.21695 1.0857,-0.42454 1.65625,-0.625 0.41937,-0.14735 0.84771,-0.29942 1.28125,-0.4375 0.27344,-0.0872 0.56488,-0.16662 0.84375,-0.25 0.32952,-0.0984 0.66313,-0.18828 1,-0.28125 0.54997,-0.15204 1.11882,-0.30029 1.6875,-0.4375 0.30172,-0.0727 0.59951,-0.15037 0.90625,-0.21875 0.33944,-0.0758 0.68586,-0.14828 1.03125,-0.21875 0.61983,-0.12646 1.23704,-0.26631 1.875,-0.375 0.0399,-0.007 0.085,0.007 0.125,0 0.8424,-0.14176 1.69134,-0.26547 2.5625,-0.375 1.75486,-0.22063 3.55281,-0.38789 5.40625,-0.46875 1.00567,-0.0438 2.03334,-0.0625 3.0625,-0.0625 18.67389,0 33.84375,7.35381 33.84375,16.40625 l 0,24.3125 5.65625,0 0,-24.3125 c 0,-8.48666 13.29376,-15.47144 30.34375,-16.3125 1.13667,-0.0561 2.30163,-0.0937 3.46875,-0.0937 18.67389,0 33.84374,7.35381 33.84375,16.40625 l 0,24.3125 5.625,0 0,-24.3125 c 10e-6,-8.48666 13.32158,-15.47144 30.37498,-16.3125 1.1369,-0.0561 2.3016,-0.0937 3.4688,-0.0937 18.6739,0 33.8125,7.35381 33.8125,16.40625 l 0,24.3125 5.6562,0 0,-24.3125 c 0,-5.092 4.7891,-9.64567 12.3125,-12.65625 0.8359,-0.33451 1.7247,-0.64249 2.625,-0.9375 4.5017,-1.47503 9.753,-2.4384 15.4375,-2.71875 1.1369,-0.0561 2.3016,-0.0937 3.4688,-0.0937 0.9753,0 1.9519,0.0231 2.9062,0.0625 0.051,0.002 0.105,-0.002 0.1563,0 1.8534,0.0809 3.6514,0.24812 5.4062,0.46875 0.8712,0.10953 1.7201,0.23324 2.5625,0.375 0.03,0.005 0.064,-0.005 0.094,0 0.01,0.002 0.021,-0.002 0.031,0 0.638,0.10869 1.2552,0.24854 1.875,0.375 0.2166,0.0442 0.442,0.0787 0.6563,0.125 0.2293,0.0495 0.4608,0.10437 0.6875,0.15625 0.5975,0.1371 1.2035,0.28418 1.7812,0.4375 0.2587,0.0686 0.5267,0.14697 0.7813,0.21875 0.668,0.18878 1.3307,0.38386 1.9687,0.59375 0.1536,0.0504 0.317,0.10464 0.4688,0.15625 0.1377,0.047 0.2699,0.10828 0.4062,0.15625 0.5706,0.20046 1.1133,0.40805 1.6563,0.625 0.061,0.0242 0.1272,0.0381 0.1875,0.0625 0.3905,0.15841 0.7809,0.33335 1.1562,0.5 0.322,0.14309 0.6584,0.28853 0.9688,0.4375 0.3233,0.15541 0.6584,0.30716 0.9687,0.46875 0.1277,0.0665 0.2496,0.15124 0.375,0.21875 0.475,0.25603 0.9335,0.51107 1.375,0.78125 0.4447,0.27209 0.8721,0.55811 1.2813,0.84375 0.4468,0.31205 0.8789,0.64148 1.2812,0.96875 0.3909,0.31797 0.7469,0.63739 1.0938,0.96875 0.089,0.0853 0.1949,0.16381 0.2812,0.25 0.1126,0.11249 0.2364,0.22986 0.3438,0.34375 0.381,0.40406 0.7174,0.82929 1.0312,1.25 0.091,0.12239 0.196,0.25128 0.2813,0.375 0.057,0.0821 0.1024,0.16733 0.1562,0.25 0.1395,0.21421 0.2846,0.43838 0.4063,0.65625 l 0,30.09375 0.5625,0 3.75,0 2.0937,0 0,-41 0,-9.8125 0,-13.15625 -297.99998,0 z"
         style="fill:#aeaeae;fill-opacity:1;fill-rule:evenodd;stroke:#000000;stroke-width:3.00000024;stroke-linecap:butt;stroke-linejoin:miter;stroke-miterlimit:4;stroke-opacity:1;stroke-dasharray:none;display:inline"
         inkscape:connector-curvature="0" />
      <path
         sodipodi:nodetypes="cc"
         id="path4293"
         d="m 301,539.77629 298.99998,0"
         style="fill:none;stroke:#000000;stroke-width:1.99999988;stroke-miterlimit:4;stroke-opacity:1;stroke-dasharray:none"
         inkscape:connector-curvature="0" />
      <use
         transform="translate(299.5,298)"
         height="660"
         width="600"
         x="0"
         y="0"
         inkscape:tiled-clone-of="#path4240"
         xlink:href="#path4240"
         id="use4295" />
      <use
         x="0"
         y="0"
         inkscape:tiled-clone-of="#path4240"
         xlink:href="#path4240"
         id="use4297"
         transform="translate(299.5,273.01051)"
         width="600"
         height="660" />
      <use
         x="0"
         y="0"
         inkscape:tiled-clone-of="#path4240"
         xlink:href="#path4240"
         id="use4299"
         transform="translate(299.5,279.25788)"
         width="600"
         height="660" />
      <use
         x="0"
         y="0"
         inkscape:tiled-clone-of="#path4240"
         xlink:href="#path4240"
         id="use4301"
         transform="translate(299.5,285.50525)"
         width="600"
         height="660" />
      <use
         x="0"
         y="0"
         inkscape:tiled-clone-of="#path4240"
         xlink:href="#path4240"
         id="use4303"
         transform="translate(299.5,291.75263)"
         width="600"
         height="660" />
      <use
         x="0"
         y="0"
         inkscape:tiled-clone-of="#path4240"
         xlink:href="#path4240"
         transform="translate(372.4365,298)"
         id="use4305"
         width="600"
         height="660" />
      <use
         x="0"
         y="0"
         inkscape:tiled-clone-of="#path4240"
         xlink:href="#path4240"
         transform="translate(372.4365,273.01051)"
         id="use4307"
         width="600"
         height="660" />
      <use
         x="0"
         y="0"
         inkscape:tiled-clone-of="#path4240"
         xlink:href="#path4240"
         transform="translate(372.4365,279.25788)"
         id="use4309"
         width="600"
         height="660" />
      <use
         x="0"
         y="0"
         inkscape:tiled-clone-of="#path4240"
         xlink:href="#path4240"
         transform="translate(372.4365,285.50525)"
         id="use4311"
         width="600"
         height="660" />
      <use
         x="0"
         y="0"
         inkscape:tiled-clone-of="#path4240"
         xlink:href="#path4240"
         transform="translate(372.4365,291.75263)"
         id="use4313"
         width="600"
         height="660" />
      <use
         x="0"
         y="0"
         inkscape:tiled-clone-of="#path4240"
         xlink:href="#path4240"
         transform="translate(445.373,298)"
         id="use4315"
         width="600"
         height="660" />
      <use
         x="0"
         y="0"
         inkscape:tiled-clone-of="#path4240"
         xlink:href="#path4240"
         transform="translate(445.373,291.75263)"
         id="use4317"
         width="600"
         height="660" />
      <use
         x="0"
         y="0"
         inkscape:tiled-clone-of="#path4240"
         xlink:href="#path4240"
         transform="translate(445.373,285.50525)"
         id="use4319"
         width="600"
         height="660" />
      <use
         x="0"
         y="0"
         inkscape:tiled-clone-of="#path4240"
         xlink:href="#path4240"
         transform="translate(445.373,279.25788)"
         id="use4321"
         width="600"
         height="660" />
      <use
         x="0"
         y="0"
         inkscape:tiled-clone-of="#path4240"
         xlink:href="#path4240"
         transform="translate(445.373,273.01051)"
         id="use4323"
         width="600"
         height="660" />
      <path
         style="fill:none;stroke:#000000;stroke-width:2;stroke-miterlimit:4;stroke-opacity:1;stroke-dasharray:none"
         d="m 450.5,547.40056 0,-7.45532"
         id="path4325"
         sodipodi:nodetypes="cc"
         inkscape:tile-cx="300"
         inkscape:tile-cy="432.2536"
         inkscape:tile-w="0"
         inkscape:tile-h="11.93353"
         inkscape:tile-x0="300"
         inkscape:tile-y0="426.28684"
         inkscape:connector-curvature="0" />
      <use
         x="0"
         y="0"
         inkscape:tiled-clone-of="#path4464"
         xlink:href="#path4464"
         id="use4327"
         transform="translate(424.44747,298)"
         width="600"
         height="660" />
      <use
         x="0"
         y="0"
         inkscape:tiled-clone-of="#path4464"
         xlink:href="#path4464"
         id="use4329"
         transform="translate(393.2106,298)"
         width="600"
         height="660" />
      <use
         x="0"
         y="0"
         inkscape:tiled-clone-of="#path4464"
         xlink:href="#path4464"
         id="use4331"
         transform="translate(361.97374,298)"
         width="600"
         height="660" />
      <use
         x="0"
         y="0"
         inkscape:tiled-clone-of="#path4464"
         xlink:href="#path4464"
         id="use4333"
         transform="translate(330.73687,298)"
         width="600"
         height="660" />
      <use
         x="0"
         y="0"
         inkscape:tiled-clone-of="#path4464"
         xlink:href="#path4464"
         id="use4335"
         transform="translate(174.55253,298)"
         width="600"
         height="660" />
      <use
         x="0"
         y="0"
         inkscape:tiled-clone-of="#path4464"
         xlink:href="#path4464"
         id="use4337"
         transform="translate(205.7894,298)"
         width="600"
         height="660" />
      <use
         x="0"
         y="0"
         inkscape:tiled-clone-of="#path4464"
         xlink:href="#path4464"
         id="use4339"
         transform="translate(237.02626,298)"
         width="600"
         height="660" />
      <use
         x="0"
         y="0"
         inkscape:tiled-clone-of="#path4464"
         xlink:href="#path4464"
         id="use4341"
         transform="translate(268.26313,298)"
         width="600"
         height="660" />
      <path
         inkscape:tile-y0="416.28684"
         inkscape:tile-x0="275"
         inkscape:tile-h="9.93353"
         inkscape:tile-w="0"
         inkscape:tile-cy="421.2536"
         inkscape:tile-cx="275"
         sodipodi:nodetypes="cc"
         id="path4343"
         d="m 434.88156,539.90371 0,-6.20585"
         style="fill:none;stroke:#000000;stroke-width:2;stroke-miterlimit:4;stroke-opacity:1;stroke-dasharray:none"
         inkscape:connector-curvature="0" />
      <use
         transform="translate(299.5,298)"
         height="660"
         width="600"
         x="0"
         y="0"
         inkscape:tiled-clone-of="#path4496"
         xlink:href="#path4496"
         id="use4345" />
      <use
         x="0"
         y="0"
         inkscape:tiled-clone-of="#path4496"
         xlink:href="#path4496"
         transform="translate(299.5,311.7027)"
         id="use4347"
         width="600"
         height="660" />
      <use
         x="0"
         y="0"
         inkscape:tiled-clone-of="#path4496"
         xlink:href="#path4496"
         id="use4349"
         transform="translate(456.93381,298.04153)"
         width="600"
         height="660" />
      <use
         x="0"
         y="0"
         inkscape:tiled-clone-of="#path4496"
         xlink:href="#path4496"
         transform="translate(174.55253,311.7027)"
         id="use4351"
         width="600"
         height="660" />
      <use
         x="0"
         y="0"
         inkscape:tiled-clone-of="#path4496"
         xlink:href="#path4496"
         transform="translate(440.06591,317.95007)"
         id="use4353"
         width="600"
         height="660" />
      <use
         x="0"
         y="0"
         inkscape:tiled-clone-of="#path4496"
         xlink:href="#path4496"
         id="use4355"
         transform="translate(425.69695,298.04153)"
         width="600"
         height="660" />
      <use
         x="0"
         y="0"
         inkscape:tiled-clone-of="#path4496"
         xlink:href="#path4496"
         transform="translate(331.98634,311.7027)"
         id="use4357"
         width="600"
         height="660" />
      <use
         x="0"
         y="0"
         inkscape:tiled-clone-of="#path4496"
         xlink:href="#path4496"
         transform="translate(408.82904,317.95007)"
         id="use4359"
         width="600"
         height="660" />
      <use
         x="0"
         y="0"
         inkscape:tiled-clone-of="#path4496"
         xlink:href="#path4496"
         id="use4361"
         transform="translate(394.46008,298.04153)"
         width="600"
         height="660" />
      <use
         x="0"
         y="0"
         inkscape:tiled-clone-of="#path4496"
         xlink:href="#path4496"
         transform="translate(205.7894,311.7027)"
         id="use4363"
         width="600"
         height="660" />
      <use
         x="0"
         y="0"
         inkscape:tiled-clone-of="#path4496"
         xlink:href="#path4496"
         transform="translate(377.59217,317.95007)"
         id="use4365"
         width="600"
         height="660" />
      <use
         x="0"
         y="0"
         inkscape:tiled-clone-of="#path4496"
         xlink:href="#path4496"
         id="use4367"
         transform="translate(363.22321,298.04153)"
         width="600"
         height="660" />
      <use
         x="0"
         y="0"
         inkscape:tiled-clone-of="#path4496"
         xlink:href="#path4496"
         transform="translate(237.02626,311.7027)"
         id="use4369"
         width="600"
         height="660" />
      <use
         x="0"
         y="0"
         inkscape:tiled-clone-of="#path4496"
         xlink:href="#path4496"
         transform="translate(346.3553,317.95007)"
         id="use4371"
         width="600"
         height="660" />
      <use
         x="0"
         y="0"
         inkscape:tiled-clone-of="#path4496"
         xlink:href="#path4496"
         id="use4373"
         transform="translate(331.98634,298.04153)"
         width="600"
         height="660" />
      <use
         x="0"
         y="0"
         inkscape:tiled-clone-of="#path4496"
         xlink:href="#path4496"
         transform="translate(268.26313,311.7027)"
         id="use4375"
         width="600"
         height="660" />
      <use
         x="0"
         y="0"
         inkscape:tiled-clone-of="#path4496"
         xlink:href="#path4496"
         transform="translate(190.17096,317.95007)"
         id="use4377"
         width="600"
         height="660" />
      <use
         x="0"
         y="0"
         inkscape:tiled-clone-of="#path4496"
         xlink:href="#path4496"
         id="use4379"
         transform="translate(174.55253,298.04153)"
         width="600"
         height="660" />
      <use
         x="0"
         y="0"
         inkscape:tiled-clone-of="#path4496"
         xlink:href="#path4496"
         transform="translate(363.22321,311.7027)"
         id="use4381"
         width="600"
         height="660" />
      <use
         x="0"
         y="0"
         inkscape:tiled-clone-of="#path4496"
         xlink:href="#path4496"
         transform="translate(221.40783,317.95007)"
         id="use4383"
         width="600"
         height="660" />
      <use
         x="0"
         y="0"
         inkscape:tiled-clone-of="#path4496"
         xlink:href="#path4496"
         id="use4385"
         transform="translate(205.7894,298.04153)"
         width="600"
         height="660" />
      <use
         x="0"
         y="0"
         inkscape:tiled-clone-of="#path4496"
         xlink:href="#path4496"
         transform="translate(394.46008,311.7027)"
         id="use4387"
         width="600"
         height="660" />
      <use
         x="0"
         y="0"
         inkscape:tiled-clone-of="#path4496"
         xlink:href="#path4496"
         transform="translate(252.6447,317.95007)"
         id="use4389"
         width="600"
         height="660" />
      <use
         x="0"
         y="0"
         inkscape:tiled-clone-of="#path4496"
         xlink:href="#path4496"
         id="use4391"
         transform="translate(237.02626,298.04153)"
         width="600"
         height="660" />
      <use
         x="0"
         y="0"
         inkscape:tiled-clone-of="#path4496"
         xlink:href="#path4496"
         transform="translate(425.69695,311.7027)"
         id="use4393"
         width="600"
         height="660" />
      <use
         x="0"
         y="0"
         inkscape:tiled-clone-of="#path4496"
         xlink:href="#path4496"
         transform="translate(283.88157,317.95007)"
         id="use4395"
         width="600"
         height="660" />
      <use
         x="0"
         y="0"
         inkscape:tiled-clone-of="#path4496"
         xlink:href="#path4496"
         id="use4397"
         transform="translate(268.26313,298.04153)"
         width="600"
         height="660" />
      <use
         x="0"
         y="0"
         inkscape:tiled-clone-of="#path4496"
         xlink:href="#path4496"
         transform="translate(456.93381,311.7027)"
         id="use4399"
         width="600"
         height="660" />
      <path
         inkscape:connector-curvature="0"
         style="fill:none;stroke:#000000;stroke-width:1.99999988;stroke-miterlimit:4;stroke-opacity:1;stroke-dasharray:none"
         d="m 301,559.76788 298.99998,0"
         id="path4401"
         sodipodi:nodetypes="cc" />
      <use
         x="0"
         y="0"
         inkscape:tiled-clone-of="#path4496"
         xlink:href="#path4496"
         transform="translate(315.11843,317.95007)"
         id="use4403"
         width="600"
         height="660" />
      <path
         inkscape:connector-curvature="0"
         style="fill:#aeaeae;fill-opacity:1;fill-rule:evenodd;stroke:#000000;stroke-width:3.00000024;stroke-linecap:butt;stroke-linejoin:miter;stroke-miterlimit:4;stroke-opacity:1;stroke-dasharray:none;display:inline"
         d="m 413.85525,555.77493 c -18.6739,10e-6 -33.83343,7.34691 -33.83343,16.39936 l 0,24.32571 6.77449,0 0,-19.54257 c 0,-7.24195 12.11982,-13.11949 27.05894,-13.11948 14.93911,0 27.05893,5.87752 27.05894,13.11948 l 0,19.54257 6.77449,0 0,-24.32571 c 0,-9.05244 -15.15954,-16.39936 -33.83343,-16.39936 z"
         id="path4405" />
      <path
         inkscape:connector-curvature="0"
         style="fill:#aeaeae;fill-opacity:1;fill-rule:evenodd;stroke:#000000;stroke-width:3.00000024;stroke-linecap:butt;stroke-linejoin:miter;stroke-miterlimit:4;stroke-opacity:1;stroke-dasharray:none;display:inline"
         d="m 487.14478,555.77493 c -18.6739,10e-6 -33.83346,7.34691 -33.83346,16.39936 l 0,24.32571 6.77446,0 0,-19.54257 c 0,-7.24195 12.1198,-13.11949 27.059,-13.11948 14.9391,0 27.0589,5.87752 27.0589,13.11948 l 0,19.54257 6.7745,0 0,-24.32571 c 0,-9.05244 -15.1595,-16.39936 -33.8334,-16.39936 z"
         id="path4407" />
      <g
         id="g4409"
         transform="translate(296.5,298)">
        <g
           style="stroke-width:2;stroke-miterlimit:4;stroke-dasharray:none;display:inline"
           id="g4411"
           transform="matrix(0.51883355,0,0,0.51883355,81.083341,-55.697373)">
          <path
             style="fill:#aeaeae;fill-opacity:1;stroke:#000000;stroke-width:3.85480094;stroke-miterlimit:4;stroke-dasharray:none"
             inkscape:connector-curvature="0"
             id="path4413"
             d="m 196.43343,233.69878 0,-57.53699 27.61775,0 0,23.0148 17.2611,0 0,-23.0148 27.61775,0 0,23.0148 17.26109,0 0,-23.0148 27.61775,0 0,23.0148 17.2611,0 0,-23.0148 27.61775,0 0,23.0148 17.26109,0 0,-23.0148 27.61776,0 0,57.53699 z m 5.7537,0 195.62574,0 0,8.63054 -195.62574,0 z m 5.7537,8.63054 184.11834,0 0,8.63055 -184.11834,0 z m 28.76849,60.41384 c 0,-17.2611 -11.5074,-40.27589 -23.01479,-51.78329 l 172.61094,0 c -11.50739,11.5074 -23.01479,34.52219 -23.01479,51.78329 z m -2.87685,0 132.33506,0 0,8.63054 -132.33506,0 z m 2.87685,8.63054 126.58136,0 0,5.7537 -126.58136,0 z m -51.78329,235.90163 0,-80.55178 c 57.53699,-57.53698 57.53699,-120.82766 57.53699,-149.59615 l 115.07396,0 c 0,28.76849 0,92.05917 57.53698,149.59615 l 0,80.55178 z m -5.75369,0 241.65532,0 0,14.38424 -241.65532,0 z" />
          <path
             style="fill:#aeaeae;fill-opacity:1;stroke:#000000;stroke-width:3.85480094;stroke-miterlimit:4;stroke-dasharray:none"
             inkscape:connector-curvature="0"
             id="path4415"
             d="m 210.24231,190.54604 0,-14.38425 m 44.87884,14.38425 0,-14.38425 M 300,190.54604 l 0,-14.38425 m 44.87884,14.38425 0,-14.38425 m 44.87885,14.38425 0,-14.38425 m -157.07596,43.15274 0,-20.13794 m 44.87885,20.13794 0,-20.13794 m 44.87884,20.13794 0,-20.13794 m 44.87885,20.13794 0,-20.13794 m -157.07596,34.52219 0,-14.38425 m 44.87884,14.38425 0,-14.38425 M 300,233.69878 l 0,-14.38425 m 44.87884,14.38425 0,-14.38425 m 44.87885,14.38425 0,-14.38425 m -193.32426,0 207.13314,0 m -207.13314,-28.76849 27.61775,0 m 17.2611,0 27.61775,0 m 17.26109,0 27.61775,0 m 17.2611,0 27.61775,0 m 17.26109,0 27.61776,0 m -172.61095,69.04438 0,-8.63055 m 23.01479,8.63055 0,-8.63055 m 23.0148,8.63055 0,-8.63055 M 300,259.59042 l 0,-8.63055 m 23.01479,8.63055 0,-8.63055 m 23.01479,8.63055 0,-8.63055 m 23.0148,8.63055 0,-8.63055 m -126.58136,17.2611 0,-8.63055 m 23.01479,8.63055 0,-8.63055 m 23.01479,8.63055 0,-8.63055 m 23.01479,8.63055 0,-8.63055 m 23.0148,8.63055 0,-8.63055 m 23.01479,8.63055 0,-8.63055 m -126.58136,17.26109 0,-8.63054 m 23.01479,8.63054 0,-8.63054 m 23.0148,8.63054 0,-8.63054 M 300,276.85151 l 0,-8.63054 m 23.01479,8.63054 0,-8.63054 m 23.01479,8.63054 0,-8.63054 m 23.0148,8.63054 0,-8.63054 m -126.58136,17.26109 0,-8.63055 m 23.01479,8.63055 0,-8.63055 m 23.01479,8.63055 0,-8.63055 m 23.01479,8.63055 0,-8.63055 m 23.0148,8.63055 0,-8.63055 m 23.01479,8.63055 0,-8.63055 m -103.56657,17.2611 0,-8.63055 m 23.0148,8.63055 0,-8.63055 M 300,294.11261 l 0,-8.63055 m 23.01479,8.63055 0,-8.63055 m 23.01479,8.63055 0,-8.63055 m -103.56656,17.2611 0,-8.63055 m 23.01479,8.63055 0,-8.63055 m 23.01479,8.63055 0,-8.63055 m 23.01479,8.63055 0,-8.63055 m 23.0148,8.63055 0,-8.63055 m 23.01479,8.63055 0,-8.63055 m -121.69072,0 128.30747,0 m -130.32126,-8.63055 132.33506,0 m -135.49959,-8.63055 138.66412,0 m -142.9794,-8.63054 147.29468,0 m -152.76069,-8.63055 158.2267,0 m -107.88184,80.55177 0,-23.01479 M 300,340.14219 300,317.1274 m 28.76849,23.01479 0,-23.01479 m -71.92123,46.02959 0,-23.0148 m 28.76849,23.0148 0,-23.0148 m 28.76849,23.0148 0,-23.0148 m 28.7685,23.0148 0,-23.0148 m -100.68972,46.02959 0,-23.01479 m 28.76849,23.01479 0,-23.01479 M 300,386.17178 l 0,-23.01479 m 28.76849,23.01479 0,-23.01479 m 28.76849,23.01479 0,-23.01479 m -100.68972,46.02958 0,-23.01479 m 28.76849,23.01479 0,-23.01479 m 28.76849,23.01479 0,-23.01479 m 28.7685,23.01479 0,-23.01479 m -100.68972,46.02958 0,-23.01479 m 28.76849,23.01479 0,-23.01479 M 300,432.20136 l 0,-23.01479 m 28.76849,23.01479 0,-23.01479 m 28.76849,23.01479 0,-23.01479 m -129.45821,46.02959 0,-23.0148 m 28.76849,23.0148 0,-23.0148 m 28.76849,23.0148 0,-23.0148 m 28.76849,23.0148 0,-23.0148 m 28.7685,23.0148 0,-23.0148 m 28.76849,23.0148 0,-23.0148 m -158.2267,46.02959 0,-23.01479 m 28.76849,23.01479 0,-23.01479 m 28.76849,23.01479 0,-23.01479 M 300,478.23095 l 0,-23.01479 m 28.76849,23.01479 0,-23.01479 m 28.76849,23.01479 0,-23.01479 m 28.76849,23.01479 0,-23.01479 m -186.99519,46.02958 0,-23.01479 m 28.76849,23.01479 0,-23.01479 m 28.76849,23.01479 0,-23.01479 m 28.76849,23.01479 0,-23.01479 m 28.76849,23.01479 0,-23.01479 m 28.7685,23.01479 0,-23.01479 m 28.76849,23.01479 0,-23.01479 m 28.76849,23.01479 0,-23.01479 m -186.99519,46.02959 0,-23.0148 m 28.76849,23.0148 0,-23.0148 m 28.76849,23.0148 0,-23.0148 M 300,524.26054 l 0,-23.0148 m 28.76849,23.0148 0,-23.0148 m 28.76849,23.0148 0,-23.0148 m 28.76849,23.0148 0,-23.0148 m -186.99519,46.02959 0,-23.01479 m 28.76849,23.01479 0,-23.01479 m 28.76849,23.01479 0,-23.01479 m 28.76849,23.01479 0,-23.01479 m 28.76849,23.01479 0,-23.01479 m 28.7685,23.01479 0,-23.01479 m 28.76849,23.01479 0,-23.01479 m 28.76849,23.01479 0,-23.01479 m -215.76369,0 230.14793,0 m 0,-23.0148 -230.14793,0 m 0,-23.01479 230.14793,0 m -10.64434,-23.01479 -208.85924,0 m 17.26109,-23.0148 174.33706,0 m -12.37045,-23.01479 -149.59616,0 m 8.63055,-23.01479 132.33506,0 m -5.46602,-23.01479 -121.40303,0 m 2.58917,-23.0148 116.2247,0" />
          <path
             style="fill:#aeaeae;fill-opacity:1;stroke:#000000;stroke-width:3.85480094;stroke-miterlimit:4;stroke-dasharray:none"
             inkscape:connector-curvature="0"
             id="path4417"
             d="m 248.21671,547.27533 v -86.30547 a 51.783285,51.783285 0 1 1 103.56657,0 v 86.30547 z" />
          <path
             style="fill:#aeaeae;fill-opacity:1;stroke:#000000;stroke-width:3.85480094;stroke-miterlimit:4;stroke-dasharray:none"
             inkscape:connector-curvature="0"
             id="path4419"
             d="m 236.70932,547.27533 v -20.13794 h 126.58136 v 20.13794 z m 0,-40.27589 V 486.8615 h 126.58136 v 20.13794 z" />
          <path
             style="fill:#aeaeae;fill-opacity:1;stroke:#000000;stroke-width:3.85480094;stroke-miterlimit:4;stroke-dasharray:none"
             inkscape:connector-curvature="0"
             id="path4421"
             d="m 235.94721,466.91731 1.75514,-20.0613 63.04986,5.51612 -1.75514,20.06134 z" />
          <path
             style="fill:#aeaeae;fill-opacity:1;stroke:#000000;stroke-width:3.85480094;stroke-miterlimit:4;stroke-dasharray:none"
             inkscape:connector-curvature="0"
             id="path4423"
             d="m 258.38897,411.91221 17.43997,-10.06897 31.64534,54.81134 -17.43997,10.06897 z" />
          <path
             style="fill:#aeaeae;fill-opacity:1;stroke:#000000;stroke-width:3.85480094;stroke-miterlimit:4;stroke-dasharray:none"
             inkscape:connector-curvature="0"
             id="path4425"
             d="m 309.96569,466.72355 -17.43998,-10.06897 31.64534,-54.81134 17.43998,10.06897 z" />
          <path
             style="fill:#aeaeae;fill-opacity:1;stroke:#000000;stroke-width:3.85480094;stroke-miterlimit:4;stroke-dasharray:none"
             inkscape:connector-curvature="0"
             id="path4427"
             d="m 301.00293,472.43347 -1.75514,-20.06131 63.04983,-5.51615 1.75514,20.06133 z" />
          <path
             style="fill:#333333;stroke:#000000;stroke-width:3.85480094;stroke-miterlimit:4;stroke-dasharray:none"
             inkscape:connector-curvature="0"
             id="path4429"
             d="m 265.47781,547.27533 v -86.30547 a 34.52219,34.52219 0 1 1 69.04438,0 v 86.30547 z" />
        </g>
        <g
           transform="matrix(-0.51883355,0,0,0.51883355,226.91666,-55.697373)"
           id="g4431"
           style="stroke-width:2;stroke-miterlimit:4;stroke-dasharray:none;display:inline">
          <path
             d="m 196.43343,233.69878 0,-57.53699 27.61775,0 0,23.0148 17.2611,0 0,-23.0148 27.61775,0 0,23.0148 17.26109,0 0,-23.0148 27.61775,0 0,23.0148 17.2611,0 0,-23.0148 27.61775,0 0,23.0148 17.26109,0 0,-23.0148 27.61776,0 0,57.53699 z m 5.7537,0 195.62574,0 0,8.63054 -195.62574,0 z m 5.7537,8.63054 184.11834,0 0,8.63055 -184.11834,0 z m 28.76849,60.41384 c 0,-17.2611 -11.5074,-40.27589 -23.01479,-51.78329 l 172.61094,0 c -11.50739,11.5074 -23.01479,34.52219 -23.01479,51.78329 z m -2.87685,0 132.33506,0 0,8.63054 -132.33506,0 z m 2.87685,8.63054 126.58136,0 0,5.7537 -126.58136,0 z m -51.78329,235.90163 0,-80.55178 c 57.53699,-57.53698 57.53699,-120.82766 57.53699,-149.59615 l 115.07396,0 c 0,28.76849 0,92.05917 57.53698,149.59615 l 0,80.55178 z m -5.75369,0 241.65532,0 0,14.38424 -241.65532,0 z"
             id="path4433"
             inkscape:connector-curvature="0"
             style="fill:#aeaeae;fill-opacity:1;stroke:#000000;stroke-width:3.85480094;stroke-miterlimit:4;stroke-dasharray:none" />
          <path
             d="m 210.24231,190.54604 0,-14.38425 m 44.87884,14.38425 0,-14.38425 M 300,190.54604 l 0,-14.38425 m 44.87884,14.38425 0,-14.38425 m 44.87885,14.38425 0,-14.38425 m -157.07596,43.15274 0,-20.13794 m 44.87885,20.13794 0,-20.13794 m 44.87884,20.13794 0,-20.13794 m 44.87885,20.13794 0,-20.13794 m -157.07596,34.52219 0,-14.38425 m 44.87884,14.38425 0,-14.38425 M 300,233.69878 l 0,-14.38425 m 44.87884,14.38425 0,-14.38425 m 44.87885,14.38425 0,-14.38425 m -193.32426,0 207.13314,0 m -207.13314,-28.76849 27.61775,0 m 17.2611,0 27.61775,0 m 17.26109,0 27.61775,0 m 17.2611,0 27.61775,0 m 17.26109,0 27.61776,0 m -172.61095,69.04438 0,-8.63055 m 23.01479,8.63055 0,-8.63055 m 23.0148,8.63055 0,-8.63055 M 300,259.59042 l 0,-8.63055 m 23.01479,8.63055 0,-8.63055 m 23.01479,8.63055 0,-8.63055 m 23.0148,8.63055 0,-8.63055 m -126.58136,17.2611 0,-8.63055 m 23.01479,8.63055 0,-8.63055 m 23.01479,8.63055 0,-8.63055 m 23.01479,8.63055 0,-8.63055 m 23.0148,8.63055 0,-8.63055 m 23.01479,8.63055 0,-8.63055 m -126.58136,17.26109 0,-8.63054 m 23.01479,8.63054 0,-8.63054 m 23.0148,8.63054 0,-8.63054 M 300,276.85151 l 0,-8.63054 m 23.01479,8.63054 0,-8.63054 m 23.01479,8.63054 0,-8.63054 m 23.0148,8.63054 0,-8.63054 m -126.58136,17.26109 0,-8.63055 m 23.01479,8.63055 0,-8.63055 m 23.01479,8.63055 0,-8.63055 m 23.01479,8.63055 0,-8.63055 m 23.0148,8.63055 0,-8.63055 m 23.01479,8.63055 0,-8.63055 m -103.56657,17.2611 0,-8.63055 m 23.0148,8.63055 0,-8.63055 M 300,294.11261 l 0,-8.63055 m 23.01479,8.63055 0,-8.63055 m 23.01479,8.63055 0,-8.63055 m -103.56656,17.2611 0,-8.63055 m 23.01479,8.63055 0,-8.63055 m 23.01479,8.63055 0,-8.63055 m 23.01479,8.63055 0,-8.63055 m 23.0148,8.63055 0,-8.63055 m 23.01479,8.63055 0,-8.63055 m -121.69072,0 128.30747,0 m -130.32126,-8.63055 132.33506,0 m -135.49959,-8.63055 138.66412,0 m -142.9794,-8.63054 147.29468,0 m -152.76069,-8.63055 158.2267,0 m -107.88184,80.55177 0,-23.01479 M 300,340.14219 300,317.1274 m 28.76849,23.01479 0,-23.01479 m -71.92123,46.02959 0,-23.0148 m 28.76849,23.0148 0,-23.0148 m 28.76849,23.0148 0,-23.0148 m 28.7685,23.0148 0,-23.0148 m -100.68972,46.02959 0,-23.01479 m 28.76849,23.01479 0,-23.01479 M 300,386.17178 l 0,-23.01479 m 28.76849,23.01479 0,-23.01479 m 28.76849,23.01479 0,-23.01479 m -100.68972,46.02958 0,-23.01479 m 28.76849,23.01479 0,-23.01479 m 28.76849,23.01479 0,-23.01479 m 28.7685,23.01479 0,-23.01479 m -100.68972,46.02958 0,-23.01479 m 28.76849,23.01479 0,-23.01479 M 300,432.20136 l 0,-23.01479 m 28.76849,23.01479 0,-23.01479 m 28.76849,23.01479 0,-23.01479 m -129.45821,46.02959 0,-23.0148 m 28.76849,23.0148 0,-23.0148 m 28.76849,23.0148 0,-23.0148 m 28.76849,23.0148 0,-23.0148 m 28.7685,23.0148 0,-23.0148 m 28.76849,23.0148 0,-23.0148 m -158.2267,46.02959 0,-23.01479 m 28.76849,23.01479 0,-23.01479 m 28.76849,23.01479 0,-23.01479 M 300,478.23095 l 0,-23.01479 m 28.76849,23.01479 0,-23.01479 m 28.76849,23.01479 0,-23.01479 m 28.76849,23.01479 0,-23.01479 m -186.99519,46.02958 0,-23.01479 m 28.76849,23.01479 0,-23.01479 m 28.76849,23.01479 0,-23.01479 m 28.76849,23.01479 0,-23.01479 m 28.76849,23.01479 0,-23.01479 m 28.7685,23.01479 0,-23.01479 m 28.76849,23.01479 0,-23.01479 m 28.76849,23.01479 0,-23.01479 m -186.99519,46.02959 0,-23.0148 m 28.76849,23.0148 0,-23.0148 m 28.76849,23.0148 0,-23.0148 M 300,524.26054 l 0,-23.0148 m 28.76849,23.0148 0,-23.0148 m 28.76849,23.0148 0,-23.0148 m 28.76849,23.0148 0,-23.0148 m -186.99519,46.02959 0,-23.01479 m 28.76849,23.01479 0,-23.01479 m 28.76849,23.01479 0,-23.01479 m 28.76849,23.01479 0,-23.01479 m 28.76849,23.01479 0,-23.01479 m 28.7685,23.01479 0,-23.01479 m 28.76849,23.01479 0,-23.01479 m 28.76849,23.01479 0,-23.01479 m -215.76369,0 230.14793,0 m 0,-23.0148 -230.14793,0 m 0,-23.01479 230.14793,0 m -10.64434,-23.01479 -208.85924,0 m 17.26109,-23.0148 174.33706,0 m -12.37045,-23.01479 -149.59616,0 m 8.63055,-23.01479 132.33506,0 m -5.46602,-23.01479 -121.40303,0 m 2.58917,-23.0148 116.2247,0"
             id="path4435"
             inkscape:connector-curvature="0"
             style="fill:#aeaeae;fill-opacity:1;stroke:#000000;stroke-width:3.85480094;stroke-miterlimit:4;stroke-dasharray:none" />
          <path
             d="m 248.21671,547.27533 v -86.30547 a 51.783285,51.783285 0 1 1 103.56657,0 v 86.30547 z"
             id="path4437"
             inkscape:connector-curvature="0"
             style="fill:#aeaeae;fill-opacity:1;stroke:#000000;stroke-width:3.85480094;stroke-miterlimit:4;stroke-dasharray:none" />
          <path
             d="m 236.70932,547.27533 v -20.13794 h 126.58136 v 20.13794 z m 0,-40.27589 V 486.8615 h 126.58136 v 20.13794 z"
             id="path4439"
             inkscape:connector-curvature="0"
             style="fill:#aeaeae;fill-opacity:1;stroke:#000000;stroke-width:3.85480094;stroke-miterlimit:4;stroke-dasharray:none" />
          <path
             d="m 235.94721,466.91731 1.75514,-20.0613 63.04986,5.51612 -1.75514,20.06134 z"
             id="path4441"
             inkscape:connector-curvature="0"
             style="fill:#aeaeae;fill-opacity:1;stroke:#000000;stroke-width:3.85480094;stroke-miterlimit:4;stroke-dasharray:none" />
          <path
             d="m 258.38897,411.91221 17.43997,-10.06897 31.64534,54.81134 -17.43997,10.06897 z"
             id="path4443"
             inkscape:connector-curvature="0"
             style="fill:#aeaeae;fill-opacity:1;stroke:#000000;stroke-width:3.85480094;stroke-miterlimit:4;stroke-dasharray:none" />
          <path
             d="m 309.96569,466.72355 -17.43998,-10.06897 31.64534,-54.81134 17.43998,10.06897 z"
             id="path4445"
             inkscape:connector-curvature="0"
             style="fill:#aeaeae;fill-opacity:1;stroke:#000000;stroke-width:3.85480094;stroke-miterlimit:4;stroke-dasharray:none" />
          <path
             d="m 301.00293,472.43347 -1.75514,-20.06131 63.04983,-5.51615 1.75514,20.06133 z"
             id="path4447"
             inkscape:connector-curvature="0"
             style="fill:#aeaeae;fill-opacity:1;stroke:#000000;stroke-width:3.85480094;stroke-miterlimit:4;stroke-dasharray:none" />
          <path
             d="m 265.47781,547.27533 v -86.30547 a 34.52219,34.52219 0 1 1 69.04438,0 v 86.30547 z"
             id="path4449"
             inkscape:connector-curvature="0"
             style="fill:#333333;stroke:#000000;stroke-width:3.85480094;stroke-miterlimit:4;stroke-dasharray:none" />
        </g>
      </g>
      <path
         id="path4451"
         d="m 340.54623,555.77493 c -18.6739,10e-6 -33.83344,7.34691 -33.83344,16.39936 l 0,24.32571 6.7745,0 0,-19.54257 c 0,-7.24195 12.11982,-13.11949 27.05894,-13.11948 14.93911,0 27.05893,5.87752 27.05894,13.11948 l 0,19.54257 6.77449,0 0,-24.32571 c 0,-9.05244 -15.15954,-16.39936 -33.83343,-16.39936 z"
         style="fill:#aeaeae;fill-opacity:1;fill-rule:evenodd;stroke:#000000;stroke-width:3.00000024;stroke-linecap:butt;stroke-linejoin:miter;stroke-miterlimit:4;stroke-opacity:1;stroke-dasharray:none;display:inline"
         inkscape:connector-curvature="0" />
      <path
         inkscape:connector-curvature="0"
         style="fill:#aeaeae;fill-opacity:1;fill-rule:evenodd;stroke:#000000;stroke-width:3.00000024;stroke-linecap:butt;stroke-linejoin:miter;stroke-miterlimit:4;stroke-opacity:1;stroke-dasharray:none;display:inline"
         d="m 560.45378,555.77493 c -18.6739,10e-6 -33.8334,7.34691 -33.8334,16.39936 l 0,24.32571 6.7745,0 0,-19.54257 c 0,-7.24195 12.1198,-13.11949 27.0589,-13.11948 14.9391,0 27.0589,5.87752 27.0589,13.11948 l 0,19.54257 6.7745,0 0,-24.32571 c 0,-9.05244 -15.1595,-16.39936 -33.8334,-16.39936 z"
         id="path4453" />
      <path
         sodipodi:nodetypes="cc"
         id="path4455"
         d="m 301,553.10401 298.99998,0"
         style="fill:none;stroke:#000000;stroke-width:1.99999988;stroke-miterlimit:4;stroke-opacity:1;stroke-dasharray:none"
         inkscape:connector-curvature="0" />
      <path
         inkscape:connector-curvature="0"
         style="fill:none;stroke:#000000;stroke-width:1.99999988;stroke-miterlimit:4;stroke-opacity:1;stroke-dasharray:none"
         d="m 301,546.44014 298.99998,0"
         id="path4457"
         sodipodi:nodetypes="cc" />
    </g>
    <path
       style="fill:none;stroke:#cc0000;stroke-width:84.85281372"
       d="M 600,300 270,630 600,300 z"
       id="path3043"
       clip-path="url(#clipPath3536)"
       inkscape:connector-curvature="0" />
    <path
       style="fill:none;stroke:#cc0000;stroke-width:84.85281372"
       d="M 300,0 0,300 300,0 z"
       id="path3502"
       clip-path="url(#clipPath3532)"
       inkscape:connector-curvature="0" />
  </g>
  <g
     inkscape:groupmode="layer"
     id="layer2"
     inkscape:label="Elements"
     style="display:inline"
     sodipodi:insensitive="true">
    <path
       id="top-right"
       d="m 299.99996,2 0,298 295.89258,0 c 1.37503,-13.25155 2.10742,-26.9114 2.10742,-41 l 0,-257 -298,0 z"
       inkscape:connector-curvature="0"
       style="fill:#008800;fill-opacity:1" />
    <path
       style="fill:#ffdd00;fill-opacity:1"
       inkscape:connector-curvature="0"
       d="m 337.24996,39.25 0,223.5 221.91944,0 c 1.03127,-9.93866 1.58056,-20.18355 1.58056,-30.75 l 0,-192.75 -223.5,0 z"
       id="path3262" />
    <path
       id="bottom-left"
       d="m 4.10738,300 c 26.5382,255.75613 295.89258,357 295.89258,357 l 0,-357 -295.89258,0 z"
       inkscape:connector-curvature="0"
       style="fill:#008800;fill-opacity:1" />
    <path
       style="fill:#ffdd00;fill-opacity:1"
       d="M 51.96875,344.625 C 89.948882,475.38555 192.36153,556.96663 263,599.46875 l 0,-254.84375 -211.03125,0 z"
       id="path3264"
       inkscape:connector-curvature="0" />
    <g
       id="g3565"
       transform="matrix(0.49660035,0,0,0.49660035,337.20175,-155.92427)">
      <g
         id="g3196"
         transform="matrix(0.9,0,0,0.9,-405.3686,384.50907)"
         style="display:inline">
        <path
           inkscape:connector-curvature="0"
           sodipodi:nodetypes="cccsscccccsccscccccccc"
           id="path3198"
           d="m 685.13276,298.09751 c 3.93187,-1.18039 10.81319,2.13257 14.67947,5.46145 5.76105,5.39949 11.36253,13.12143 12.83393,20.55806 -6.22038,10.15639 -12.95943,20.4715 -18.509,31.00142 -3.06362,5.81299 -5.59467,11.69146 -8.15546,17.64482 -0.97719,2.27179 -1.95871,4.55449 -2.97581,6.84863 -1.03835,4.03241 -0.48596,8.19668 -0.66206,12.30767 -1.27983,41.45502 17.72013,60.8559 47.38029,86.86671 l 5.51481,-2.93687 c -20.68158,-13.32283 -45.78544,-38.19068 -48.64381,-70.72243 -0.42191,-7.96022 -2.11683,-15.43831 -0.64043,-22.8748 0.79012,-3.97974 3.30113,-7.94153 4.86021,-11.94318 7.79374,-18.43504 11.18827,-20.75515 25.46415,-44.66412 3.18712,-5.77436 6.28851,-12.54936 11.44769,-16.20889 1.44499,-1.02497 3.0514,-0.73278 4.86634,-1.4123 l -0.98461,-3.66684 c -5.06086,1.36849 -8.8974,4.51966 -11.8663,8.38619 -1.46255,2.29638 -2.90668,4.61444 -4.34588,6.92625 -2.14517,-6.43558 -6.39749,-12.42916 -11.06842,-17.14586 -4.33894,-4.65087 -11.17523,-7.78797 -17.55571,-8.15823 m -3.76627,85.2467 c 3.81765,-16.91359 0.88077,-4.23195 0,0 z"
           style="fill:#008800;fill-opacity:1;fill-rule:evenodd;stroke:#000000;stroke-width:3.35615301;stroke-linecap:butt;stroke-linejoin:miter;stroke-miterlimit:4;stroke-opacity:1;stroke-dasharray:none" />
        <path
           inkscape:connector-curvature="0"
           id="path3200"
           d="m 685.77794,388.14738 c 1.49166,-2.0993 1.95149,-6.26227 4.8216,-5.60469 4.12016,-0.007 7.99826,-3.09838 9.1914,-7.66852 1.39498,-5.34327 -1.39329,-10.70606 -6.22768,-11.96819 -4.83439,-1.26213 -9.90257,2.04955 -11.29755,7.39282 -0.99277,3.80265 0.15234,7.61009 2.6276,9.94686 0.17683,1.92169 1.21931,3.26627 -1.52669,7.13651"
           style="fill:#cc0000;stroke:#000000;stroke-width:3.35615301;stroke-miterlimit:4;stroke-opacity:1;stroke-dasharray:none"
           sodipodi:nodetypes="ccscscc" />
        <path
           inkscape:connector-curvature="0"
           sodipodi:nodetypes="ccccsccscc"
           id="path3202"
           d="m 685.53533,387.87228 c 17.42547,0.46159 31.72893,-15.07367 38.93488,-29.88717 7.79634,-20.85242 25.66926,-33.6464 32.43217,-2.35265 1.6766,32.36718 -33.10603,38.01941 -58.33968,35.82872 -4.52064,-0.36032 -8.78558,0.85946 -13.31895,1.4214 -1.22164,0.15142 -2.46278,1.69447 -3.73366,1.4204 -18.47571,-0.49578 -36.07541,-2.5501 -52.36869,-11.87362 -10.84119,-7.05288 -21.03209,-14.14469 -18.49492,-31.71048 2.85547,-19.76959 29.59963,-7.68561 36.86239,2.42516 9.45774,13.09803 16.80909,31.07446 34.27933,34.41347"
           style="fill:#008800;fill-rule:evenodd;stroke:#000000;stroke-width:3.35615301;stroke-linecap:butt;stroke-linejoin:miter;stroke-miterlimit:4;stroke-opacity:1;stroke-dasharray:none" />
        <path
           inkscape:connector-curvature="0"
           sodipodi:nodetypes="ccccsccsssssc"
           id="path3204"
           d="m 727.05403,306.38701 c 2.62627,0.6455 1.28654,-6.68272 1.57001,-8.50136 2.02045,-14.92874 4.53414,-17.08741 12.43039,-30.10555 8.18002,-18.71345 35.72134,-15.8886 26.94897,7.97215 -5.80505,10.32732 -17.93767,14.4613 -26.98047,19.57604 -2.93999,1.66291 -4.66399,2.86941 -7.38144,4.79126 -1.98177,2.89439 -2.01472,7.99208 3.12902,8.76504 3.21369,1.53747 6.71458,1.55657 10.23554,1.25728 9.66876,-0.8219 19.81485,-3.45232 29.52118,-3.17282 6.71681,0.1934 14.70788,8.40172 14.30545,15.53602 -0.43434,7.70005 -10.5333,9.34412 -16.53283,9.89713 -14.00183,1.29064 -15.88301,-1.22494 -27.41483,-7.56802 -10.92027,-6.00671 -8.45881,-12.45248 -16.92081,-15.92501"
           style="fill:#008800;fill-rule:evenodd;stroke:#000000;stroke-width:3.35615301;stroke-linecap:butt;stroke-linejoin:miter;stroke-miterlimit:4;stroke-opacity:1;stroke-dasharray:none" />
        <path
           inkscape:connector-curvature="0"
           style="fill:#cc0000;stroke:#000000;stroke-width:3.35615301;stroke-miterlimit:4;stroke-opacity:1;stroke-dasharray:none"
           d="m 733.23032,307.66853 c 1.72533,-2.68943 3.45065,-2.05599 5.17598,-2.33918 2.35528,2.32824 6.31823,2.75948 9.58616,0.82686 3.82076,-2.25955 5.26533,-6.89828 3.22096,-10.35516 -2.04435,-3.45687 -6.81124,-4.43598 -10.63201,-2.17642 -2.71912,1.60805 -4.22093,4.42904 -4.13117,7.16374 -0.62733,2.68175 -2.89464,3.72354 -6.10442,3.82284"
           id="path3206"
           sodipodi:nodetypes="ccscscc" />
        <path
           inkscape:connector-curvature="0"
           sodipodi:nodetypes="csssscsssccc"
           id="path3208"
           d="m 685.92336,298.04447 c -3.08359,6.34991 -8.81798,12.91417 -15.36747,18.25446 -18.30973,14.92932 -53.53881,7.48643 -53.31299,-3.89753 0.29957,-15.10125 14.56906,-18.33034 26.29805,-16.06789 10.93374,2.10905 18.22814,6.43867 27.63745,6.75528 6.37631,0.21456 14.12894,-3.75082 12.54373,-11.45576 -1.80176,-3.58122 -5.99607,-5.32513 -9.48228,-5.92581 -8.72569,-1.50344 -16.14518,-5.23121 -20.91259,-6.64068 -9.93426,-2.93703 -13.92482,-4.36831 -18.61055,-13.44837 -8.68665,-16.83307 19.81097,-17.37382 25.98501,-9.86844 15.9644,8.34545 20.64113,21.417 25.22164,36.08634 0.81751,0.85801 1.05518,2.06559 1.5521,3.10419"
           style="fill:#008800;fill-rule:evenodd;stroke:#000000;stroke-width:3.35615301;stroke-linecap:butt;stroke-linejoin:miter;stroke-miterlimit:4;stroke-opacity:1;stroke-dasharray:none" />
        <path
           inkscape:connector-curvature="0"
           inkscape:transform-center-x="-25.776133"
           id="path3210"
           d="m 685.12707,293.25606 c -0.9935,0.63288 -1.98701,0.90758 -2.98052,-1.52018 -1.44727,-2.97883 -5.04143,-4.70306 -8.76599,-3.96681 -4.35463,0.86078 -7.25921,4.7554 -6.4804,8.6953 0.77881,3.93991 4.56101,5.09002 8.91565,4.22923 3.09906,-0.6126 4.28923,-1.60977 5.11375,-4.21875 2.31388,-0.91543 3.65439,-0.37081 4.95455,0.23435"
           style="fill:#cc0000;stroke:#000000;stroke-width:3.35615301;stroke-miterlimit:4;stroke-opacity:1;stroke-dasharray:none"
           sodipodi:nodetypes="ccscscc" />
      </g>
      <use
         height="660"
         width="600"
         transform="translate(102.83012,-189.84018)"
         id="use3212"
         xlink:href="#g3196"
         y="0"
         x="0"
         style="display:inline" />
      <use
         height="660"
         width="600"
         transform="translate(-205.6602,-4.2076597e-6)"
         id="use3250"
         xlink:href="#use3212"
         y="0"
         x="0"
         style="display:inline" />
    </g>
    <g
       transform="matrix(0.4423137,0,0,0.4423137,73.113872,166.39497)"
       id="g3577">
      <g
         style="display:inline"
         transform="matrix(0.9,0,0,0.9,-405.3686,384.50907)"
         id="g3579">
        <path
           style="fill:#008800;fill-opacity:1;fill-rule:evenodd;stroke:#000000;stroke-width:3.76806498;stroke-linecap:butt;stroke-linejoin:miter;stroke-miterlimit:4;stroke-opacity:1;stroke-dasharray:none"
           d="m 685.13276,298.09751 c 3.93187,-1.18039 10.81319,2.13257 14.67947,5.46145 5.76105,5.39949 11.36253,13.12143 12.83393,20.55806 -6.22038,10.15639 -12.95943,20.4715 -18.509,31.00142 -3.06362,5.81299 -5.59467,11.69146 -8.15546,17.64482 -0.97719,2.27179 -1.95871,4.55449 -2.97581,6.84863 -1.03835,4.03241 -0.48596,8.19668 -0.66206,12.30767 -1.27983,41.45502 17.72013,60.8559 47.38029,86.86671 l 5.51481,-2.93687 c -20.68158,-13.32283 -45.78544,-38.19068 -48.64381,-70.72243 -0.42191,-7.96022 -2.11683,-15.43831 -0.64043,-22.8748 0.79012,-3.97974 3.30113,-7.94153 4.86021,-11.94318 7.79374,-18.43504 11.18827,-20.75515 25.46415,-44.66412 3.18712,-5.77436 6.28851,-12.54936 11.44769,-16.20889 1.44499,-1.02497 3.0514,-0.73278 4.86634,-1.4123 l -0.98461,-3.66684 c -5.06086,1.36849 -8.8974,4.51966 -11.8663,8.38619 -1.46255,2.29638 -2.90668,4.61444 -4.34588,6.92625 -2.14517,-6.43558 -6.39749,-12.42916 -11.06842,-17.14586 -4.33894,-4.65087 -11.17523,-7.78797 -17.55571,-8.15823 m -3.76627,85.2467 c 3.81765,-16.91359 0.88077,-4.23195 0,0 z"
           id="path3581"
           sodipodi:nodetypes="cccsscccccsccscccccccc"
           inkscape:connector-curvature="0" />
        <path
           sodipodi:nodetypes="ccscscc"
           style="fill:#cc0000;stroke:#000000;stroke-width:3.76806498;stroke-miterlimit:4;stroke-opacity:1;stroke-dasharray:none"
           d="m 685.77794,388.14738 c 1.49166,-2.0993 1.95149,-6.26227 4.8216,-5.60469 4.12016,-0.007 7.99826,-3.09838 9.1914,-7.66852 1.39498,-5.34327 -1.39329,-10.70606 -6.22768,-11.96819 -4.83439,-1.26213 -9.90257,2.04955 -11.29755,7.39282 -0.99277,3.80265 0.15234,7.61009 2.6276,9.94686 0.17683,1.92169 1.21931,3.26627 -1.52669,7.13651"
           id="path3583"
           inkscape:connector-curvature="0" />
        <path
           style="fill:#008800;fill-rule:evenodd;stroke:#000000;stroke-width:3.76806498;stroke-linecap:butt;stroke-linejoin:miter;stroke-miterlimit:4;stroke-opacity:1;stroke-dasharray:none"
           d="m 685.53533,387.87228 c 17.42547,0.46159 31.72893,-15.07367 38.93488,-29.88717 7.79634,-20.85242 25.66926,-33.6464 32.43217,-2.35265 1.6766,32.36718 -33.10603,38.01941 -58.33968,35.82872 -4.52064,-0.36032 -8.78558,0.85946 -13.31895,1.4214 -1.22164,0.15142 -2.46278,1.69447 -3.73366,1.4204 -18.47571,-0.49578 -36.07541,-2.5501 -52.36869,-11.87362 -10.84119,-7.05288 -21.03209,-14.14469 -18.49492,-31.71048 2.85547,-19.76959 29.59963,-7.68561 36.86239,2.42516 9.45774,13.09803 16.80909,31.07446 34.27933,34.41347"
           id="path3585"
           sodipodi:nodetypes="ccccsccscc"
           inkscape:connector-curvature="0" />
        <path
           style="fill:#008800;fill-rule:evenodd;stroke:#000000;stroke-width:3.76806498;stroke-linecap:butt;stroke-linejoin:miter;stroke-miterlimit:4;stroke-opacity:1;stroke-dasharray:none"
           d="m 727.05403,306.38701 c 2.62627,0.6455 1.28654,-6.68272 1.57001,-8.50136 2.02045,-14.92874 4.53414,-17.08741 12.43039,-30.10555 8.18002,-18.71345 35.72134,-15.8886 26.94897,7.97215 -5.80505,10.32732 -17.93767,14.4613 -26.98047,19.57604 -2.93999,1.66291 -4.66399,2.86941 -7.38144,4.79126 -1.98177,2.89439 -2.01472,7.99208 3.12902,8.76504 3.21369,1.53747 6.71458,1.55657 10.23554,1.25728 9.66876,-0.8219 19.81485,-3.45232 29.52118,-3.17282 6.71681,0.1934 14.70788,8.40172 14.30545,15.53602 -0.43434,7.70005 -10.5333,9.34412 -16.53283,9.89713 -14.00183,1.29064 -15.88301,-1.22494 -27.41483,-7.56802 -10.92027,-6.00671 -8.45881,-12.45248 -16.92081,-15.92501"
           id="path3587"
           sodipodi:nodetypes="ccccsccsssssc"
           inkscape:connector-curvature="0" />
        <path
           sodipodi:nodetypes="ccscscc"
           id="path3589"
           d="m 733.23032,307.66853 c 1.72533,-2.68943 3.45065,-2.05599 5.17598,-2.33918 2.35528,2.32824 6.31823,2.75948 9.58616,0.82686 3.82076,-2.25955 5.26533,-6.89828 3.22096,-10.35516 -2.04435,-3.45687 -6.81124,-4.43598 -10.63201,-2.17642 -2.71912,1.60805 -4.22093,4.42904 -4.13117,7.16374 -0.62733,2.68175 -2.89464,3.72354 -6.10442,3.82284"
           style="fill:#cc0000;stroke:#000000;stroke-width:3.76806498;stroke-miterlimit:4;stroke-opacity:1;stroke-dasharray:none"
           inkscape:connector-curvature="0" />
        <path
           style="fill:#008800;fill-rule:evenodd;stroke:#000000;stroke-width:3.76806498;stroke-linecap:butt;stroke-linejoin:miter;stroke-miterlimit:4;stroke-opacity:1;stroke-dasharray:none"
           d="m 685.92336,298.04447 c -3.08359,6.34991 -8.81798,12.91417 -15.36747,18.25446 -18.30973,14.92932 -53.53881,7.48643 -53.31299,-3.89753 0.29957,-15.10125 14.56906,-18.33034 26.29805,-16.06789 10.93374,2.10905 18.22814,6.43867 27.63745,6.75528 6.37631,0.21456 14.12894,-3.75082 12.54373,-11.45576 -1.80176,-3.58122 -5.99607,-5.32513 -9.48228,-5.92581 -8.72569,-1.50344 -16.14518,-5.23121 -20.91259,-6.64068 -9.93426,-2.93703 -13.92482,-4.36831 -18.61055,-13.44837 -8.68665,-16.83307 19.81097,-17.37382 25.98501,-9.86844 15.9644,8.34545 20.64113,21.417 25.22164,36.08634 0.81751,0.85801 1.05518,2.06559 1.5521,3.10419"
           id="path3591"
           sodipodi:nodetypes="csssscsssccc"
           inkscape:connector-curvature="0" />
        <path
           sodipodi:nodetypes="ccscscc"
           style="fill:#cc0000;stroke:#000000;stroke-width:3.76806498;stroke-miterlimit:4;stroke-opacity:1;stroke-dasharray:none"
           d="m 685.12707,293.25606 c -0.9935,0.63288 -1.98701,0.90758 -2.98052,-1.52018 -1.44727,-2.97883 -5.04143,-4.70306 -8.76599,-3.96681 -4.35463,0.86078 -7.25921,4.7554 -6.4804,8.6953 0.77881,3.93991 4.56101,5.09002 8.91565,4.22923 3.09906,-0.6126 4.28923,-1.60977 5.11375,-4.21875 2.31388,-0.91543 3.65439,-0.37081 4.95455,0.23435"
           id="path3593"
           inkscape:transform-center-x="-25.776133"
           inkscape:connector-curvature="0" />
      </g>
      <use
         style="display:inline"
         x="0"
         y="0"
         xlink:href="#g3196"
         id="use3595"
         transform="translate(102.83012,-189.84018)"
         width="600"
         height="660" />
      <use
         style="display:inline"
         x="0"
         y="0"
         xlink:href="#use3212"
         id="use3597"
         transform="translate(-205.6602,-4.2076597e-6)"
         width="600"
         height="660" />
    </g>
  </g>
  <g
     inkscape:groupmode="layer"
     id="layer1"
     inkscape:label="Cover"
     style="display:inline"
     sodipodi:insensitive="true">
    <path
       d="m 2,2 v 257 c 0,286 298,398 298,398 0,0 298,-112 298,-398 V 2 z"
       id="shine"
       inkscape:connector-curvature="0"
       style="fill:url(#radialGradient3074);stroke:#000000;stroke-width:3" />
  </g>
</svg>
