<?xml version="1.0" encoding="UTF-8" standalone="no"?>
<svg
   xmlns:dc="http://purl.org/dc/elements/1.1/"
   xmlns:cc="http://creativecommons.org/ns#"
   xmlns:rdf="http://www.w3.org/1999/02/22-rdf-syntax-ns#"
   xmlns:svg="http://www.w3.org/2000/svg"
   xmlns="http://www.w3.org/2000/svg"
   xmlns:xlink="http://www.w3.org/1999/xlink"
   xmlns:sodipodi="http://sodipodi.sourceforge.net/DTD/sodipodi-0.dtd"
   xmlns:inkscape="http://www.inkscape.org/namespaces/inkscape"
   width="600"
   height="660"
   id="svg2"
   version="1.1"
   inkscape:version="0.91 r13725"
   sodipodi:docname="Blason_vide_3D_600x660.svg">
  <metadata
     id="metadata19">
    <rdf:RDF>
      <cc:Work
         rdf:about="">
        <dc:format>image/svg+xml</dc:format>
        <dc:type
           rdf:resource="http://purl.org/dc/dcmitype/StillImage" />
        <dc:title></dc:title>
      </cc:Work>
    </rdf:RDF>
  </metadata>
  <defs
     id="defs17">
    <radialGradient
       inkscape:collect="always"
       xlink:href="#rg"
       id="radialGradient4153"
       gradientUnits="userSpaceOnUse"
       cx="220"
       cy="220"
       r="405" />
  </defs>
  <sodipodi:namedview
     pagecolor="#ffffff"
     bordercolor="#666666"
     borderopacity="1"
     objecttolerance="10"
     gridtolerance="10"
     guidetolerance="10"
     inkscape:pageopacity="0"
     inkscape:pageshadow="2"
     inkscape:window-width="1366"
     inkscape:window-height="705"
     id="namedview15"
     showgrid="false"
     inkscape:zoom="0.5"
     inkscape:cx="37.452818"
     inkscape:cy="366.64044"
     inkscape:window-x="-8"
     inkscape:window-y="-8"
     inkscape:window-maximized="1"
     inkscape:current-layer="svg2"
     showguides="false" />
  <radialGradient
     id="rg"
     gradientUnits="userSpaceOnUse"
     cx="220"
     cy="220"
     r="405">
    <stop
       style="stop-color:#fff;stop-opacity:.3"
       offset="0"
       id="stop5" />
    <stop
       style="stop-color:#fff;stop-opacity:.2"
       offset=".2"
       id="stop7" />
    <stop
       style="stop-color:#666;stop-opacity:.1"
       offset=".6"
       id="stop9" />
    <stop
       style="stop-color:#000;stop-opacity:.13"
       offset="1"
       id="stop11" />
  </radialGradient>
  <path
     inkscape:connector-curvature="0"
     style="fill:#90ee90;fill-opacity:1;stroke:none;stroke-width:3"
     id="path7212"
     d="m 2,2 0,257 c 0,286 298,398 298,398 0,0 298,-112 298,-398 L 598,2 Z" />
  <path
     inkscape:connector-curvature="0"
     style="fill:none;fill-opacity:1;stroke:none;stroke-width:3"
     id="path7200"
     d="m 2,2 0,257 c 0,286 298,398 298,398 0,0 298,-112 298,-398 L 598,2 Z" />
  <path
     style="fill:#008000"
     inkscape:connector-curvature="0"
     id="path4383"
     d="m 300,307.22591 45.72127,140.71472 -119.69953,-86.9668 147.95651,0 -119.69954,86.9668 z" />
  <use
     x="0"
     y="0"
     xlink:href="#path4383"
     id="use4479"
     transform="translate(0,-150)"
     width="100%"
     height="100%"
     style="fill:#008000" />
  <use
     height="100%"
     width="100%"
     transform="matrix(0.30901699,-0.95105652,0.95105652,0.30901699,-301.46661,505.36802)"
     id="use4500"
     xlink:href="#path4383"
     y="0"
     x="0"
     style="fill:#008000" />
  <use
     x="0"
     y="0"
     xlink:href="#path4383"
     id="use4532"
     transform="matrix(0.30901699,-0.95105652,0.95105652,0.30901699,-356.0906,337.96049)"
     width="100%"
     height="100%"
     style="fill:#008000" />
  <g
     id="g4504"
     transform="matrix(-0.809017,-0.58778525,0.58778525,-0.809017,344.65032,834.26866)"
     style="fill:#008000">
    <use
       x="0"
       y="0"
       xlink:href="#path4383"
       id="use4508"
       transform="translate(0,-198.08327)"
       width="100%"
       height="100%"
       style="fill:#008000" />
  </g>
  <g
     id="g4512"
     transform="matrix(-0.80901699,0.58778526,-0.58778526,-0.80901699,740.95377,481.25793)"
     style="fill:#008000">
    <use
       x="0"
       y="0"
       xlink:href="#path4383"
       id="use4516"
       transform="translate(0,-198.08327)"
       width="100%"
       height="100%"
       style="fill:#008000" />
  </g>
  <g
     id="g4520"
     transform="matrix(0.309017,0.95105651,-0.95105651,0.309017,527.48928,-3.9521114)"
     style="fill:#008000">
    <use
       x="0"
       y="0"
       xlink:href="#path4383"
       id="use4524"
       transform="translate(0,-198.08327)"
       width="100%"
       height="100%"
       style="fill:#008000" />
  </g>
  <g
     transform="matrix(-0.809017,-0.58778525,0.58778525,-0.809017,290.02633,618.77786)"
     id="g4534" />
  <use
     height="100%"
     width="100%"
     transform="translate(0,-299.90664)"
     id="use4540"
     xlink:href="#path4383"
     y="0"
     x="0"
     style="fill:#008000" />
  <g
     transform="matrix(-0.30901699,-0.95105652,-0.95105652,0.30901699,712.88428,566.57912)"
     id="g4542"
     style="fill:#008000">
    <use
       x="0"
       y="0"
       xlink:href="#path4383"
       id="use4546"
       transform="translate(142.33428,-301.76555)"
       width="100%"
       height="100%"
       style="fill:#008000" />
  </g>
  <path
     id="path4147"
     d="m 2,2 0,257 c 0,286 298,398 298,398 0,0 298,-112 298,-398 L 598,2 Z"
     style="fill:url(#radialGradient4153);stroke:#000000;stroke-width:3"
     inkscape:connector-curvature="0" />
</svg>
