<?xml version="1.0" encoding="UTF-8"?>
<svg xmlns="http://www.w3.org/2000/svg" xmlns:xlink="http://www.w3.org/1999/xlink" width="600" height="660">
<defs>
  <radialGradient id="rg" gradientUnits="userSpaceOnUse" cx="220" cy="220" r="405">
    <stop style="stop-color:#fff;stop-opacity:.3" offset="0"/>
    <stop style="stop-color:#fff;stop-opacity:.2" offset=".2"/>
    <stop style="stop-color:#666;stop-opacity:.1" offset=".6"/>
    <stop style="stop-color:#000;stop-opacity:.13" offset="1"/>
  </radialGradient>
  <path id="shield" d="m2,2v257c0,286 298,398 298,398c0,0 298-112 298-398V2z"/>
  <pattern id="ermine" patternUnits="userSpaceOnUse" x="-10" width="60" height="120">
    <g transform="scale(0.2)">
    <path id="ermine1" d="m 46,105 c 0,50 -25,105 -46,125 15,0 25,0 35,-5 3,10 6,20 15,25 9,-5 12,-15 15,-25 10,5 20,5 35,5 C 79,210 54,155 54,105 Z m 54,0 a 20,20 0 0 1 -20,20 20,20 0 0 1 -20,-20 20,20 0 0 1 20,-20 20,20 0 0 1 20,20 z m -60,0 A 20,20 0 0 1 20,125 20,20 0 0 1 0,105 20,20 0 0 1 20,85 20,20 0 0 1 40,105 Z M 70,70 A 20,20 0 0 1 50,90 20,20 0 0 1 30,70 20,20 0 0 1 50,50 20,20 0 0 1 70,70 Z"/>
    <use xlink:href="#ermine1" x="150" y="300"/>
    </g>
  </pattern>
</defs>
<use xlink:href="#shield" fill="#fff"/>
<use xlink:href="#shield" fill="url(#ermine)"/>
<path id="cross" fill="#000" d="M 225 2 L 225 225 L 2 225 L 2 259 C 2 301.42869 8.5574779 340.02778 19.728516 375 L 225 375 L 225 618.75391 C 268.01274 644.97675 300 657 300 657 C 300 657 331.98726 644.97675 375 618.75391 L 375 375 L 580.27148 375 C 591.44252 340.02778 598 301.42869 598 259 L 598 225 L 375 225 L 375 2 L 225 2 z"/>
<g id="trefoil">
  <path fill="#a80" d="m 334.12379,333.13561 c 3.7921,0.69029 1.70013,11.3132 -1.8727,10.32384 -2.50553,-0.69382 -1.44436,-10.92766 1.8727,-10.32384 z"/>
  <path fill="#fd0" d="m 307.48281,296.41877 c 12.59731,-34.80584 34.08924,-24.36316 30.39411,-8.02863 13.63969,7.30936 2.21273,38.87027 -32.11453,17.20421 2.77223,12.30742 6.41599,24.2126 28.67369,27.52674 -2.16716,2.97333 -4.57945,5.86495 -2.2939,10.32252 -28.87713,-6.4963 -25.24065,-29.86647 -32.688,-37.27579 -19.30958,35.74252 -44.43836,26.64072 -36.70232,6.30821 -15.05781,-13.52855 -2.1438,-34.06718 30.96758,-17.77768 -28.19487,-20.88831 -19.59827,-40.27156 -2.86737,-33.83495 11.87109,-10.47939 28.53657,-2.86454 16.63074,35.55537 z"/>
  <path fill="none" stroke="#a80" d="m 299.45418,300.43309 c -11.85308,9.5328 -15.17131,4.44812 -25.80632,9.17558 m 20.64506,-37.89003 c 4.28577,5.8456 3.83411,15.61761 6.16906,23.41404 m 30.53325,-2.15475 c -4.09299,3.68823 -12.32111,5.30892 -20.64505,6.88168 l 0,0.57348 0,0"/>
</g>
<use xlink:href="#trefoil" x="230"/>
<use xlink:href="#trefoil" x="115"/>
<use xlink:href="#trefoil" x="-115"/>
<use xlink:href="#trefoil" x="-230"/>
<use xlink:href="#trefoil" y="230"/>
<use xlink:href="#trefoil" y="115"/>
<use xlink:href="#trefoil" y="-115"/>
<use xlink:href="#trefoil" y="-230"/>
<use id="shine" xlink:href="#shield" fill="url(#rg)" stroke="#000" stroke-width="3"/>
</svg>