<?xml version="1.0" encoding="UTF-8" standalone="no"?>
<svg
   xmlns:dc="http://purl.org/dc/elements/1.1/"
   xmlns:cc="http://creativecommons.org/ns#"
   xmlns:rdf="http://www.w3.org/1999/02/22-rdf-syntax-ns#"
   xmlns:svg="http://www.w3.org/2000/svg"
   xmlns="http://www.w3.org/2000/svg"
   xmlns:xlink="http://www.w3.org/1999/xlink"
   xmlns:sodipodi="http://sodipodi.sourceforge.net/DTD/sodipodi-0.dtd"
   xmlns:inkscape="http://www.inkscape.org/namespaces/inkscape"
   width="600"
   height="660"
   id="svg2"
   version="1.1"
   inkscape:version="0.48.2 r9819"
   sodipodi:docname="House_Graceford.svg">
  <metadata
     id="metadata24">
    <rdf:RDF>
      <cc:Work
         rdf:about="">
        <dc:format>image/svg+xml</dc:format>
        <dc:type
           rdf:resource="http://purl.org/dc/dcmitype/StillImage" />
        <dc:title />
      </cc:Work>
    </rdf:RDF>
  </metadata>
  <sodipodi:namedview
     pagecolor="#ffffff"
     bordercolor="#666666"
     borderopacity="1"
     objecttolerance="10"
     gridtolerance="10"
     guidetolerance="10"
     inkscape:pageopacity="0"
     inkscape:pageshadow="2"
     inkscape:window-width="1366"
     inkscape:window-height="715"
     id="namedview22"
     showgrid="false"
     inkscape:zoom="0.71515155"
     inkscape:cx="61.467607"
     inkscape:cy="368.20566"
     inkscape:window-x="-8"
     inkscape:window-y="-8"
     inkscape:window-maximized="1"
     inkscape:current-layer="layer2" />
  <defs
     id="defs4">
    <inkscape:path-effect
       is_visible="true"
       id="path-effect3136"
       effect="spiro" />
    <inkscape:path-effect
       effect="spiro"
       id="path-effect3132"
       is_visible="true" />
    <inkscape:path-effect
       effect="spiro"
       id="path-effect3101"
       is_visible="true" />
    <inkscape:path-effect
       is_visible="true"
       id="path-effect3085"
       effect="spiro" />
    <inkscape:path-effect
       is_visible="true"
       id="path-effect3083"
       effect="spiro" />
    <inkscape:path-effect
       is_visible="true"
       id="path-effect3081"
       effect="spiro" />
    <inkscape:path-effect
       is_visible="true"
       id="path-effect3079"
       effect="spiro" />
    <inkscape:path-effect
       is_visible="true"
       id="path-effect3077"
       effect="spiro" />
    <inkscape:path-effect
       is_visible="true"
       id="path-effect3075"
       effect="spiro" />
    <inkscape:path-effect
       effect="spiro"
       id="path-effect3049"
       is_visible="true" />
    <inkscape:path-effect
       is_visible="true"
       id="path-effect3045"
       effect="spiro" />
    <inkscape:path-effect
       effect="spiro"
       id="path-effect3041"
       is_visible="true" />
    <radialGradient
       id="rg"
       gradientUnits="userSpaceOnUse"
       cx="220"
       cy="220"
       r="405">
      <stop
         style="stop-color:#fff;stop-opacity:.3"
         offset="0"
         id="stop7" />
      <stop
         style="stop-color:#fff;stop-opacity:.2"
         offset=".2"
         id="stop9" />
      <stop
         style="stop-color:#666;stop-opacity:.1"
         offset=".6"
         id="stop11" />
      <stop
         style="stop-color:#000;stop-opacity:.13"
         offset="1"
         id="stop13" />
    </radialGradient>
    <path
       id="shield"
       d="m2,2v257c0,286 298,398 298,398c0,0 298-112 298-398V2z" />
    <radialGradient
       inkscape:collect="always"
       xlink:href="#rg-7"
       id="radialGradient3055-1"
       gradientUnits="userSpaceOnUse"
       cx="220"
       cy="220"
       r="405" />
    <radialGradient
       id="rg-7"
       gradientUnits="userSpaceOnUse"
       cx="220"
       cy="220"
       r="405">
      <stop
         style="stop-color:#fff;stop-opacity:.3"
         offset="0"
         id="stop7-4" />
      <stop
         style="stop-color:#fff;stop-opacity:.2"
         offset=".2"
         id="stop9-0" />
      <stop
         style="stop-color:#666;stop-opacity:.1"
         offset=".6"
         id="stop11-9" />
      <stop
         style="stop-color:#000;stop-opacity:.13"
         offset="1"
         id="stop13-4" />
    </radialGradient>
    <radialGradient
       r="405"
       cy="220"
       cx="220"
       gradientUnits="userSpaceOnUse"
       id="radialGradient3074"
       xlink:href="#rg-7"
       inkscape:collect="always" />
    <inkscape:path-effect
       is_visible="true"
       id="path-effect10120-1"
       effect="spiro" />
    <inkscape:path-effect
       effect="spiro"
       id="path-effect10118-3"
       is_visible="true" />
    <inkscape:path-effect
       effect="spiro"
       id="path-effect10116-9"
       is_visible="true" />
    <inkscape:path-effect
       effect="spiro"
       id="path-effect10114-7"
       is_visible="true" />
    <inkscape:path-effect
       effect="spiro"
       id="path-effect10112-7"
       is_visible="true" />
    <inkscape:path-effect
       effect="spiro"
       id="path-effect10110-2"
       is_visible="true" />
    <linearGradient
       inkscape:collect="always"
       xlink:href="#linearGradient4719-5"
       id="linearGradient4039"
       gradientUnits="userSpaceOnUse"
       gradientTransform="matrix(2.3257341,0,0,2.2943177,447.69485,-1820.2799)"
       x1="-145.25935"
       y1="984.24286"
       x2="-64.14286"
       y2="984.14789" />
    <linearGradient
       inkscape:collect="always"
       id="linearGradient4719-5">
      <stop
         style="stop-color:#666666;stop-opacity:1;"
         offset="0"
         id="stop4721-5" />
      <stop
         id="stop4809-1"
         offset="0.39344174"
         style="stop-color:#666666;stop-opacity:0.74901961;" />
      <stop
         style="stop-color:#666666;stop-opacity:0;"
         offset="1"
         id="stop4723-7" />
    </linearGradient>
    <radialGradient
       inkscape:collect="always"
       xlink:href="#linearGradient4801-8"
       id="radialGradient4041"
       gradientUnits="userSpaceOnUse"
       gradientTransform="matrix(-0.72153181,1.2650715,-2.2729984,-1.2616144,1712.0113,1733.7841)"
       cx="-307.14288"
       cy="782.36218"
       fx="-307.14288"
       fy="782.36218"
       r="63" />
    <linearGradient
       inkscape:collect="always"
       id="linearGradient4801-8">
      <stop
         style="stop-color:#000000;stop-opacity:1;"
         offset="0"
         id="stop4803-2" />
      <stop
         style="stop-color:#000000;stop-opacity:0;"
         offset="1"
         id="stop4805-4" />
    </linearGradient>
    <inkscape:path-effect
       effect="spiro"
       id="path-effect10108-4"
       is_visible="true" />
    <linearGradient
       inkscape:collect="always"
       xlink:href="#linearGradient4719-5"
       id="linearGradient4044"
       gradientUnits="userSpaceOnUse"
       gradientTransform="matrix(-2.4055369,0,0,-1.6485021,142.06168,1726.5307)"
       x1="-145.25935"
       y1="984.24286"
       x2="-64.14286"
       y2="984.14789" />
    <radialGradient
       inkscape:collect="always"
       xlink:href="#linearGradient4801-8"
       id="radialGradient4046"
       gradientUnits="userSpaceOnUse"
       gradientTransform="matrix(0.74628962,-0.90897301,2.3509914,0.90648896,-1165.637,-827.11785)"
       cx="-307.14288"
       cy="782.36218"
       fx="-307.14288"
       fy="782.36218"
       r="63" />
    <inkscape:path-effect
       effect="spiro"
       id="path-effect10102-7"
       is_visible="true" />
    <linearGradient
       inkscape:collect="always"
       xlink:href="#linearGradient4719-5"
       id="linearGradient4049"
       gradientUnits="userSpaceOnUse"
       gradientTransform="matrix(2.334989,0,0,-1.6146975,449.44065,1692.189)"
       x1="-145.25935"
       y1="984.24286"
       x2="-64.14286"
       y2="984.14789" />
    <radialGradient
       inkscape:collect="always"
       xlink:href="#linearGradient4801-8"
       id="radialGradient4051"
       gradientUnits="userSpaceOnUse"
       gradientTransform="matrix(-0.72440295,-0.89033332,-2.2820431,0.88790031,1718.7881,-809.09364)"
       cx="-307.14288"
       cy="782.36218"
       fx="-307.14288"
       fy="782.36218"
       r="63" />
    <inkscape:path-effect
       is_visible="true"
       id="path-effect10096-8"
       effect="spiro" />
    <linearGradient
       inkscape:collect="always"
       xlink:href="#linearGradient4719-5"
       id="linearGradient4054"
       gradientUnits="userSpaceOnUse"
       gradientTransform="matrix(-2.409599,0,0,2.2818507,139.61083,-1810.8163)"
       x1="-145.25935"
       y1="984.24286"
       x2="-64.14286"
       y2="984.14789" />
    <radialGradient
       inkscape:collect="always"
       xlink:href="#linearGradient4801-8"
       id="radialGradient4056"
       gradientUnits="userSpaceOnUse"
       gradientTransform="matrix(0.74754985,1.2581972,2.3549614,-1.2547588,-1170.296,1723.935)"
       cx="-307.14288"
       cy="782.36218"
       fx="-307.14288"
       fy="782.36218"
       r="63" />
    <inkscape:path-effect
       is_visible="true"
       id="path-effect10090-3"
       effect="spiro" />
    <inkscape:path-effect
       effect="spiro"
       id="path-effect10084-1"
       is_visible="true" />
    <inkscape:path-effect
       effect="spiro"
       id="path-effect10082-1"
       is_visible="true" />
    <radialGradient
       inkscape:collect="always"
       xlink:href="#linearGradient4801-8"
       id="radialGradient4061"
       gradientUnits="userSpaceOnUse"
       gradientTransform="matrix(-0.76516322,1.2901254,-2.4104477,-1.2865998,1806.8444,1757.4704)"
       cx="-307.14288"
       cy="782.36218"
       fx="-307.14288"
       fy="782.36218"
       r="63" />
    <inkscape:path-effect
       effect="spiro"
       id="path-effect10080-4"
       is_visible="true" />
    <inkscape:path-effect
       is_visible="true"
       id="path-effect3075-1"
       effect="spiro" />
    <inkscape:path-effect
       effect="spiro"
       id="path-effect3101-7"
       is_visible="true" />
    <linearGradient
       inkscape:collect="always"
       xlink:href="#grad1-7-7"
       id="linearGradient3085-8-8"
       gradientUnits="userSpaceOnUse"
       gradientTransform="matrix(0.77469594,0,0,0.30982404,152.68996,-13.619206)"
       x1="78.877235"
       y1="178.07356"
       x2="301.40585"
       y2="178.07356" />
    <linearGradient
       id="grad1-7-7"
       x1="78.877235"
       y1="178.07356"
       x2="301.40585"
       y2="178.07356"
       gradientTransform="scale(1.577772,0.63380513)"
       gradientUnits="userSpaceOnUse">
      <stop
         offset="0%"
         style="stop-color:#da0;"
         id="stop16-4-4" />
      <stop
         offset="40%"
         style="stop-color:#fd0;"
         id="stop18-0-0" />
      <stop
         offset="60%"
         style="stop-color:#fd0;"
         id="stop20-9-9" />
      <stop
         offset="100%"
         style="stop-color:#da0;"
         id="stop22-4-4" />
    </linearGradient>
    <linearGradient
       inkscape:collect="always"
       xlink:href="#grad1-7-7"
       id="linearGradient3081-8-8"
       gradientUnits="userSpaceOnUse"
       gradientTransform="matrix(0.77469594,0,0,0.30982404,-27.310046,-13.619206)"
       x1="78.877235"
       y1="178.07356"
       x2="301.40585"
       y2="178.07356" />
    <linearGradient
       id="linearGradient3093"
       x1="78.877235"
       y1="178.07356"
       x2="301.40585"
       y2="178.07356"
       gradientTransform="scale(1.577772,0.63380513)"
       gradientUnits="userSpaceOnUse">
      <stop
         offset="0%"
         style="stop-color:#da0;"
         id="stop3095" />
      <stop
         offset="40%"
         style="stop-color:#fd0;"
         id="stop3097" />
      <stop
         offset="60%"
         style="stop-color:#fd0;"
         id="stop3099" />
      <stop
         offset="100%"
         style="stop-color:#da0;"
         id="stop3101" />
    </linearGradient>
    <linearGradient
       y2="178.07356"
       x2="301.40585"
       y1="178.07356"
       x1="78.877235"
       gradientTransform="matrix(0.77469594,0,0,0.30982404,332.68995,-13.619206)"
       gradientUnits="userSpaceOnUse"
       id="linearGradient3128-1"
       xlink:href="#grad1-7-7"
       inkscape:collect="always" />
    <linearGradient
       id="linearGradient3104"
       x1="78.877235"
       y1="178.07356"
       x2="301.40585"
       y2="178.07356"
       gradientTransform="scale(1.577772,0.63380513)"
       gradientUnits="userSpaceOnUse">
      <stop
         offset="0%"
         style="stop-color:#da0;"
         id="stop3106" />
      <stop
         offset="40%"
         style="stop-color:#fd0;"
         id="stop3108" />
      <stop
         offset="60%"
         style="stop-color:#fd0;"
         id="stop3110" />
      <stop
         offset="100%"
         style="stop-color:#da0;"
         id="stop3112" />
    </linearGradient>
  </defs>
  <g
     inkscape:groupmode="layer"
     id="layer2"
     inkscape:label="Elements"
     style="display:inline">
    <path
       d="M 598,2 V 259 C 598,545 300,657 300,657 300,657 2,545 2,259 V 2 z"
       id="background"
       inkscape:connector-curvature="0"
       style="fill:#884411" />
    <path
       style="fill:#ffffff;stroke:none;stroke-width:2"
       d="M 204.0625 2 C 199.20886 12.444407 195.00376 22.899343 195 33.34375 C 194.996 44.45486 199.76401 55.54514 205 66.65625 C 210.23599 77.76736 214.996 88.88889 215 100 C 215.004 111.11111 210.23599 122.23264 205 133.34375 C 199.76401 144.45486 195.004 155.54514 195 166.65625 C 194.996 177.76736 199.76401 188.88889 205 200 C 210.23599 211.11111 214.996 222.23264 215 233.34375 C 215.004 244.45486 210.23599 255.54514 205 266.65625 C 199.76401 277.76736 195.004 288.88889 195 300 C 194.996 311.11111 199.76401 322.23264 205 333.34375 C 210.23599 344.45486 214.996 355.54514 215 366.65625 C 215.004 377.76736 210.23599 388.88889 205 400 C 199.76401 411.11111 195.004 422.23264 195 433.34375 C 194.996 444.45486 199.76401 455.54514 205 466.65625 C 210.23599 477.76736 214.996 488.88889 215 500 C 215.004 511.11111 210.23599 522.23264 205 533.34375 C 199.76401 544.45486 195.004 555.54514 195 566.65625 C 194.996 577.76736 199.76401 588.88889 205 600 C 206.3412 602.84612 207.63846 605.68519 208.84375 608.53125 C 259.74437 641.84997 300 657 300 657 C 300 657 340.25563 641.84997 391.15625 608.53125 C 392.36154 605.68519 393.6588 602.84612 395 600 C 400.23599 588.88889 405.004 577.76736 405 566.65625 C 404.996 555.54514 400.23599 544.45486 395 533.34375 C 389.76401 522.23264 384.996 511.11111 385 500 C 385.004 488.88889 389.76401 477.76736 395 466.65625 C 400.23599 455.54514 405.004 444.45486 405 433.34375 C 404.996 422.23264 400.23599 411.11111 395 400 C 389.76401 388.88889 384.996 377.76736 385 366.65625 C 385.004 355.54514 389.76401 344.45486 395 333.34375 C 400.23599 322.23264 405.004 311.11111 405 300 C 404.996 288.88889 400.23599 277.76736 395 266.65625 C 389.76401 255.54514 384.996 244.45486 385 233.34375 C 385.004 222.23264 389.76401 211.11111 395 200 C 400.23599 188.88889 405.004 177.76736 405 166.65625 C 404.996 155.54514 400.23599 144.45486 395 133.34375 C 389.76401 122.23264 384.996 111.11111 385 100 C 385.004 88.88889 389.76401 77.76736 395 66.65625 C 400.23599 55.54514 405.004 44.45486 405 33.34375 C 404.99624 22.899343 400.79114 12.444407 395.9375 2 L 204.0625 2 z "
       id="path3099" />
    <g
       id="g3150"
       transform="matrix(0.96817172,0,0,0.96817172,417.72386,45.229606)">
      <path
         inkscape:connector-curvature="0"
         style="fill-rule:evenodd"
         id="path77"
         d="m -161.85752,274.44596 c 20.74861,29.38444 50.41113,30.66908 71.38225,3.55812 4.81236,15.06446 13.16236,23.95226 25.09268,26.68799 4.97762,-5.715 3.66801,-14.23519 1.43632,-23.57215 5.58019,-6.56161 7.26642,-14.80259 5.20298,-24.18461 6.51532,-10.74272 8.02309,-20.79314 5.55015,-30.15563 12.8535,-39.50485 8.71404,-65.78429 -7.1147,-82.99995 -44.17961,-39.44265 -108.10868,-37.19036 -133.32436,22.59327 -4.91206,11.61149 -6.16943,23.74038 1.48573,46.04877 -7.01947,12.15807 -4.4915,27.04122 1.04215,42.03862 3.8656,11.53168 -9.46481,26.246 3.82265,40.57243 2.31499,-0.51201 4.24536,-1.78648 5.76976,-3.83569 -0.97989,3.27366 -0.77403,6.464 -0.0702,9.6291 6.49348,-9.27649 19.54645,-15.13557 19.72452,-26.38027 l 0,0 z" />
      <path
         inkscape:connector-curvature="0"
         style="fill:#884411;fill-rule:evenodd"
         id="path79"
         d="m -68.59308,300.44958 c -15.09707,-7.89156 -24.7938,-21.73755 -14.67124,-38.53143 12.39238,10.85194 21.94095,20.91517 14.67124,38.53143 l 0,0 z" />
      <path
         inkscape:connector-curvature="0"
         style="fill:#884411;fill-rule:evenodd"
         id="path81"
         d="m -75.58031,241.81087 c 11.88438,8.28344 21.55716,19.95417 8.73057,34.73185 -14.61815,-18.08092 -12.71861,-26.19873 -8.73057,-34.73185 l 0,0 z" />
      <path
         inkscape:connector-curvature="0"
         style="fill:#884411;fill-rule:evenodd"
         id="path83"
         d="m -59.76547,253.18833 c 6.78901,-12.54708 5.71712,-20.24746 2.14621,-26.57511 -5.72011,-0.48695 -11.76451,-2.92442 -17.64866,-6.37852 -0.36107,5.65016 0.11627,12.40999 3.10696,18.65867 4.55129,4.33408 8.97366,8.79282 12.39549,14.29496 l 0,0 z" />
      <path
         inkscape:connector-curvature="0"
         style="fill:#884411;fill-rule:evenodd"
         id="path85"
         d="m -53.93271,224.76006 c -14.66119,-2.83354 -27.86328,-8.83469 -35.04099,-27.88126 4.72168,-0.34543 9.42202,-0.7032 14.1437,-1.04865 2.29368,-0.52434 2.1274,-1.61574 -0.16601,-1.83069 -14.58814,-0.004 -27.63229,-1.64825 -35.76305,-8.3049 -9.01348,-7.39381 -3.96702,-15.54336 2.39408,-15.62484 12.14778,-0.15333 24.74074,1.28703 41.14142,15.59076 1.02456,1.13189 2.04055,0.75151 1.7692,-0.0593 -4.18844,-4.86402 -8.8448,-8.9175 -14.31399,-11.56322 -1.1576,-3.51233 -2.83312,-6.66956 -4.87633,-9.58403 5.76646,-3.78071 13.49474,-1.45177 21.37961,1.39417 1.87233,0.79657 2.65301,-0.26002 1.31663,-1.34442 -6.47988,-3.45674 -13.52449,-6.32948 -25.81655,-3.95583 -2.4388,-2.57407 -5.06236,-4.82821 -7.87963,-6.79604 2.45158,-4.44321 8.45507,-5.1862 15.22718,-4.94506 1.59943,-0.35637 0.87903,-1.56861 -0.27372,-1.6937 -7.64123,0.0819 -13.8099,1.55423 -18.50606,4.41712 -2.67632,-1.37451 -5.43878,-2.59974 -8.33675,-3.59033 -1.56581,-2.41132 3.59864,-6.82399 7.35966,-8.26445 1.36804,-0.54683 0.97288,-1.68506 -0.36792,-1.77661 -2.66091,-0.71151 -6.63268,2.76868 -11.51863,9.16231 -1.42146,0.8857 -4.64556,1.10039 -5.82426,-0.4049 -0.9406,-2.16412 -1.88116,-4.32823 -2.84307,-6.50466 -0.61331,-1.54858 -1.78764,-1.28805 -1.6904,0.21852 0.25132,1.87995 0.49038,3.78124 0.72043,5.64889 0.37299,1.32449 -0.42244,2.25882 -2.30992,2.8186 -1.69044,0.21848 -3.3932,0.45832 -5.09596,0.69815 -0.91968,-3.43185 -2.71767,-5.83504 -4.74461,-8.28508 -2.04759,-1.92161 -2.92896,-1.57729 -1.97849,0.4219 2.25165,2.75043 3.36926,5.64243 3.29781,8.67269 -3.56982,1.01048 -7.16095,2.00866 -10.75204,3.00683 -4.46242,-5.07909 -8.3832,-7.59871 -11.7993,-7.49488 -2.57099,0.36424 -2.85706,2.18987 -0.62102,2.25792 4.58864,0.0329 7.8376,1.79482 9.12297,6.12036 0.29084,1.95957 -5.43082,9.40649 -7.67282,9.98913 -4.47556,-2.10051 -9.04576,-3.54463 -13.88908,-2.64372 -1.28095,0.19895 -0.1894,2.79144 0.94056,2.16411 4.36196,-1.88983 7.94492,-0.36155 11.81557,2.44196 -3.34795,6.144 -12.86908,11.25507 -18.71756,17.69021 -1.12373,1.25669 0.52781,2.23865 2.03482,0.66289 10.62273,-9.67957 23.55956,-16.91393 42.42606,-13.72855 4.11824,0.69972 5.71504,3.69773 0.11561,9.11057 -16.92421,16.30821 -27.45764,15.48809 -41.45717,11.55772 -2.56414,-0.48501 -5.12827,-0.97002 -7.89693,-0.80524 -2.51865,0.96326 -1.29985,3.08891 0.11397,2.51174 4.44967,-1.69698 11.02517,0.16548 18.19208,3.02348 -5.99933,8.76546 -15.72198,15.95005 -24.28766,12.31287 -1.30454,-0.69627 -2.7843,0.24108 -1.88594,0.90195 4.52573,1.81662 8.94,3.28448 13.19194,4.1467 0.8262,0.3917 1.54156,0.97534 1.29969,3.16778 -2.79411,8.68205 -6.62207,16.93787 -15.34497,23.27764 -1.46837,-7.16141 -5.01223,-13.38814 -0.39773,-23.35123 0.73167,1.04809 1.45098,2.11751 2.1613,3.15327 0.98447,0.5117 1.82173,-0.19955 1.15486,-1.40935 -10.9448,-19.71415 -11.35588,-39.3475 -1.19218,-56.45892 22.55312,-38.0286 51.71089,-44.88478 73.98314,-40.15971 61.31681,12.9622 68.85,51.09809 59.65357,91.26392 -2.9866,-3.74354 -5.96093,-7.50843 -8.92616,-11.23966 -1.6102,-2.0388 -2.93891,-1.41235 -1.86047,0.6607 4.61285,6.9861 8.94095,14.12063 9.09119,22.2843 l 0,0 z" />
      <path
         inkscape:connector-curvature="0"
         style="fill:#884411;fill-rule:evenodd"
         id="path87"
         d="m -174.03083,235.4797 c 0.0922,7.47605 -0.0379,14.79526 -7.19495,17.28971 -2.03965,1.80858 -3.49435,3.98334 -4.68077,6.28458 -0.17095,-4.87659 -1.06503,-8.54965 -2.24575,-11.67715 0.29612,-2.72986 1.63504,-4.26055 4.03774,-4.57975 4.62274,-1.45485 7.60141,-4.20018 10.08373,-7.31739 l 0,0 z" />
      <path
         inkscape:connector-curvature="0"
         style="fill:#884411;fill-rule:evenodd"
         id="path89"
         d="m -173.94589,250.80097 c 1.57371,6.14155 2.8624,13.17078 0.14329,20.78698 -2.49619,5.55503 -7.18088,11.35385 -12.17938,15.57792 -2.06699,-5.82905 -2.47253,-13.59978 -0.023,-20.0074 3.27847,-6.26939 7.65193,-11.48004 12.06066,-16.3575 l 0,0 z" />
      <path
         inkscape:connector-curvature="0"
         style="fill:#884411;fill-rule:evenodd"
         id="path91"
         d="m -168.68846,264.7004 c 1.81693,2.27192 3.16738,5.69651 3.79285,10.72179 -3.45905,6.33579 -8.23778,11.31246 -13.36935,15.91475 4.38212,-9.21567 7.93208,-18.17233 9.5765,-26.63654 l 0,0 z" />
      <path
         inkscape:connector-curvature="0"
         style="fill:#ffdd00;fill-rule:evenodd"
         id="path93"
         d="m -86.81652,166.44221 c 0.82004,1.78168 1.78372,3.56097 1.75204,5.1922 -11.61017,-6.04901 -28.33606,-8.31133 -36.01612,1.247 -1.17459,2.08053 -1.72298,2.04831 -2.92702,0.0449 -4.81822,-6.13772 -14.17255,-6.93117 -28.05386,-2.34668 -3.12097,1.07054 -3.59993,0.2252 -1.4246,-2.55732 18.51278,-21.81846 50.76051,-22.05586 66.66956,-1.58013 l 0,0 z" />
      <path
         inkscape:connector-curvature="0"
         style="fill:#f5c491;fill-rule:evenodd"
         id="path95"
         d="m -92.34447,196.41157 c 2.15711,6.16551 5.27834,12.6317 9.92351,18.52729 4.74902,15.56824 5.67225,31.99919 -5.2688,50.11223 -20.49386,33.87077 -46.19776,40.36054 -73.45464,3.57827 -9.28117,-12.49687 -13.47821,-29.90787 -8.511,-53.29008 1.41662,-6.69026 6.03563,-12.12886 11.1287,-17.00935 11.33173,-1.44924 22.62822,-5.99031 33.8693,-17.33209 0.96099,-3.14237 2.15913,-3.24694 3.63685,-0.28924 2.89033,7.5558 13.60565,12.14965 28.67608,15.70295 l 0,0 z" />
      <path
         inkscape:connector-curvature="0"
         style="fill-rule:evenodd"
         id="path103"
         d="m -126.47294,252.33495 c -0.90532,0.92774 0.4704,2.09175 1.65282,2.06342 3.51047,-0.0211 5.18154,-1.38819 5.00427,-4.13545 -2.16749,-10.03932 -3.91317,-20.11952 -4.79,-29.7834 0.22794,-1.77394 2.37896,-3.23378 2.92679,-4.82296 0.56427,-1.86408 -0.75824,-2.62765 -1.87628,-1.28234 -3.01428,3.8908 -3.68171,4.89902 -3.4046,8.55712 1.43912,8.93625 2.68628,17.76166 3.75553,26.05776 -0.24243,1.65167 -1.74782,2.8303 -3.2685,3.34587 l 0,0 z" />
      <g
         transform="matrix(0.34974767,0,0,0.34974767,-191.85447,131.84423)"
         id="g3994"
         style="display:inline">
        <path
           style="fill:#ffffff;fill-opacity:1;fill-rule:evenodd;stroke:#000000;stroke-width:7.38299799;stroke-linecap:butt;stroke-linejoin:miter;stroke-miterlimit:4;stroke-opacity:1;stroke-dasharray:none"
           d="m 165.67248,378.04975 c 7.29554,2.59184 11.65228,5.21356 18.71203,4.09857 8.41956,-1.32976 16.47817,-1.09679 24.23354,0 5.82836,0.82428 12.66252,-0.95641 17.10238,-4.09857"
           id="path2931"
           sodipodi:nodetypes="cssc"
           inkscape:connector-curvature="0" />
        <path
           style="fill:#ffffff;fill-opacity:1;fill-rule:evenodd;stroke:#000000;stroke-width:7.38299799;stroke-linecap:butt;stroke-linejoin:miter;stroke-miterlimit:4;stroke-opacity:1;stroke-dasharray:none"
           d="m 179.98297,388.05498 c 4.54687,4.53829 9.33374,3.54397 14.59654,3.60606 7.08947,0.0836 10.1926,0.70306 16.83043,-3.04487"
           id="path4871"
           sodipodi:nodetypes="csc"
           inkscape:connector-curvature="0" />
      </g>
      <g
         transform="translate(-420.96399,-69.216098)"
         id="g4074">
        <g
           id="g4040">
          <path
             inkscape:connector-curvature="0"
             style="fill-rule:evenodd"
             id="path109"
             d="m 284.87364,293.68172 c 1.65483,0.92691 2.43284,0.46609 1.12195,-0.85955 -2.94109,-2.29527 -5.39771,-5.67596 -10.9812,-4.57673 -2.98134,0.58237 -5.50519,2.73708 -7.7993,4.74005 -0.91437,0.89408 -2.67764,0.30267 -1.89209,-0.46673 6.97966,-8.00035 13.72979,-8.31227 20.05091,-3.49675 1.32166,0.96213 2.69872,0.44895 1.95388,-0.37924 -8.99961,-7.07296 -16.87833,-5.79155 -23.65412,3.77695 -0.10672,0.67776 -0.94551,1.04675 -2.57119,1.10356 -1.35397,0.12836 -1.41906,1.02929 -0.51743,1.63517 2.35633,1.18981 5.08321,0.80181 8.17733,-1.109 1.43227,-1.24919 2.86454,-2.49838 4.30913,-3.7689 0.33008,4.79784 1.63108,6.28842 3.69647,6.25796 2.81552,-0.39371 3.51194,-2.43746 2.859,-6.08501 1.76722,1.07719 3.5131,2.14204 5.24666,3.22822 l 0,0 z" />
          <path
             inkscape:connector-curvature="0"
             style="fill-rule:evenodd"
             id="path111"
             d="m 286.09955,279.68609 c 2.34753,0.41683 2.67036,-0.73347 0.24111,-1.99386 -6.32484,-3.28191 -14.34822,-3.81888 -24.51116,-0.69944 -2.06798,0.62619 -4.15099,1.86942 -5.05192,4.56296 -1.12113,3.41965 0.21607,4.30547 2.27408,1.82486 4.91121,-5.89555 14.81881,-5.86338 27.04798,-3.69452 l 0,0 z" />
        </g>
        <g
           style="display:inline"
           id="g4044"
           transform="matrix(-1,0,0,1,591.10781,3.1590175e-6)">
          <path
             d="m 284.87364,293.68172 c 1.65483,0.92691 2.43284,0.46609 1.12195,-0.85955 -2.94109,-2.29527 -5.39771,-5.67596 -10.9812,-4.57673 -2.98134,0.58237 -5.50519,2.73708 -7.7993,4.74005 -0.91437,0.89408 -2.67764,0.30267 -1.89209,-0.46673 6.97966,-8.00035 13.72979,-8.31227 20.05091,-3.49675 1.32166,0.96213 2.69872,0.44895 1.95388,-0.37924 -8.99961,-7.07296 -16.87833,-5.79155 -23.65412,3.77695 -0.10672,0.67776 -0.94551,1.04675 -2.57119,1.10356 -1.35397,0.12836 -1.41906,1.02929 -0.51743,1.63517 2.35633,1.18981 5.08321,0.80181 8.17733,-1.109 1.43227,-1.24919 2.86454,-2.49838 4.30913,-3.7689 0.33008,4.79784 1.63108,6.28842 3.69647,6.25796 2.81552,-0.39371 3.51194,-2.43746 2.859,-6.08501 1.76722,1.07719 3.5131,2.14204 5.24666,3.22822 l 0,0 z"
             id="path4046"
             style="fill-rule:evenodd"
             inkscape:connector-curvature="0" />
          <path
             d="m 286.09955,279.68609 c 2.34753,0.41683 2.67036,-0.73347 0.24111,-1.99386 -6.32484,-3.28191 -14.34822,-3.81888 -24.51116,-0.69944 -2.06798,0.62619 -4.15099,1.86942 -5.05192,4.56296 -1.12113,3.41965 0.21607,4.30547 2.27408,1.82486 4.91121,-5.89555 14.81881,-5.86338 27.04798,-3.69452 l 0,0 z"
             id="path4048"
             style="fill-rule:evenodd"
             inkscape:connector-curvature="0" />
        </g>
      </g>
    </g>
  </g>
  <g
     inkscape:groupmode="layer"
     id="layer1"
     inkscape:label="Cover"
     style="display:inline"
     sodipodi:insensitive="true">
    <path
       d="m 2,2 v 257 c 0,286 298,398 298,398 0,0 298,-112 298,-398 V 2 z"
       id="shine"
       inkscape:connector-curvature="0"
       style="fill:url(#radialGradient3074);stroke:#000000;stroke-width:3" />
  </g>
</svg>
