<?xml version="1.0" encoding="UTF-8" standalone="no"?>
<svg
   xmlns:dc="http://purl.org/dc/elements/1.1/"
   xmlns:cc="http://creativecommons.org/ns#"
   xmlns:rdf="http://www.w3.org/1999/02/22-rdf-syntax-ns#"
   xmlns:svg="http://www.w3.org/2000/svg"
   xmlns="http://www.w3.org/2000/svg"
   xmlns:xlink="http://www.w3.org/1999/xlink"
   xmlns:sodipodi="http://sodipodi.sourceforge.net/DTD/sodipodi-0.dtd"
   xmlns:inkscape="http://www.inkscape.org/namespaces/inkscape"
   width="600"
   height="660"
   id="svg2"
   version="1.1"
   inkscape:version="0.48.2 r9819"
   sodipodi:docname="House_Grafton.svg">
  <metadata
     id="metadata27">
    <rdf:RDF>
      <cc:Work
         rdf:about="">
        <dc:format>image/svg+xml</dc:format>
        <dc:type
           rdf:resource="http://purl.org/dc/dcmitype/StillImage" />
        <dc:title />
      </cc:Work>
    </rdf:RDF>
  </metadata>
  <sodipodi:namedview
     pagecolor="#ffffff"
     bordercolor="#666666"
     borderopacity="1"
     objecttolerance="10"
     gridtolerance="10"
     guidetolerance="10"
     inkscape:pageopacity="0"
     inkscape:pageshadow="2"
     inkscape:window-width="1366"
     inkscape:window-height="715"
     id="namedview25"
     showgrid="false"
     inkscape:zoom="0.50568849"
     inkscape:cx="307.86929"
     inkscape:cy="472.00502"
     inkscape:window-x="-8"
     inkscape:window-y="-8"
     inkscape:window-maximized="1"
     inkscape:current-layer="svg2" />
  <defs
     id="defs4">
    <radialGradient
       id="rg"
       gradientUnits="userSpaceOnUse"
       cx="220"
       cy="220"
       r="405">
      <stop
         style="stop-color:#fff;stop-opacity:.3"
         offset="0"
         id="stop7" />
      <stop
         style="stop-color:#fff;stop-opacity:.2"
         offset=".2"
         id="stop9" />
      <stop
         style="stop-color:#666;stop-opacity:.1"
         offset=".6"
         id="stop11" />
      <stop
         style="stop-color:#000;stop-opacity:.13"
         offset="1"
         id="stop13" />
    </radialGradient>
    <clipPath
       id="clip-shield">
      <path
         id="shield"
         d="m2,2v257c0,286 298,398 298,398c0,0 298-112 298-398V2z" />
    </clipPath>
    <clipPath
       clipPathUnits="userSpaceOnUse"
       id="clipPath3015">
      <use
         xlink:href="#shield"
         id="use3017"
         style="fill:url(#radialGradient3019);stroke:#000000;stroke-width:3"
         x="0"
         y="0"
         width="1"
         height="1" />
    </clipPath>
    <radialGradient
       inkscape:collect="always"
       xlink:href="#rg"
       id="radialGradient3019"
       gradientUnits="userSpaceOnUse"
       cx="220"
       cy="220"
       r="405" />
    <radialGradient
       inkscape:collect="always"
       xlink:href="#rg"
       id="radialGradient3072"
       gradientUnits="userSpaceOnUse"
       cx="220"
       cy="220"
       r="405" />
    <radialGradient
       id="rg-1"
       gradientUnits="userSpaceOnUse"
       cx="220"
       cy="220"
       r="405">
      <stop
         style="stop-color:#fff;stop-opacity:.3"
         offset="0"
         id="stop7-7" />
      <stop
         style="stop-color:#fff;stop-opacity:.2"
         offset=".2"
         id="stop9-4" />
      <stop
         style="stop-color:#666;stop-opacity:.1"
         offset=".6"
         id="stop11-0" />
      <stop
         style="stop-color:#000;stop-opacity:.13"
         offset="1"
         id="stop13-9" />
    </radialGradient>
    <radialGradient
       id="radialGradient3033"
       gradientUnits="userSpaceOnUse"
       cx="220"
       cy="220"
       r="405">
      <stop
         style="stop-color:#fff;stop-opacity:.3"
         offset="0"
         id="stop3035" />
      <stop
         style="stop-color:#fff;stop-opacity:.2"
         offset=".2"
         id="stop3037" />
      <stop
         style="stop-color:#666;stop-opacity:.1"
         offset=".6"
         id="stop3039" />
      <stop
         style="stop-color:#000;stop-opacity:.13"
         offset="1"
         id="stop3041" />
    </radialGradient>
  </defs>
  <path
     inkscape:connector-curvature="0"
     style="fill:#ff3300"
     d="m 2,2 0,257 c 0,286 298,398 298,398 0,0 298,-112 298,-398 L 598,2 2,2 z"
     id="rect18" />
  <path
     style="fill:#000000"
     inkscape:connector-curvature="0"
     id="path20"
     d="M 100,0 300,510 500,0 z" />
  <g
     id="g3035"
     transform="matrix(0.57987223,0,0,0.57987223,126.03833,-6.2215974)">
    <g
       transform="matrix(2.8768491,0,0,2.8768491,-979.16626,-722.47852)"
       id="g7386">
      <g
         id="g7380"
         transform="matrix(-1,0,0,1,889.28286,0)">
        <path
           d="m 441.0094,317.95948 c 0.04,-9.5218 -28.34098,-18.13569 -22.35952,-32.56123 -8.75929,11.22235 10.27939,27.73536 0.0703,32.7439 1.17991,5.65245 4.82161,3.23502 10.34049,3.35471 5.65732,0.89014 11.14087,1.42334 11.94844,-3.53806 z"
           id="path7382"
           style="fill:#e20909;fill-rule:evenodd;stroke:#800000;stroke-width:0.3022705px;stroke-linecap:butt;stroke-linejoin:miter"
           inkscape:connector-curvature="0" />
        <path
           d="m 428.92178,318.15563 c -4.34919,-5.67374 -7.44567,-12.05759 -9.1124,-19.25173 5.59644,5.99593 11.79805,11.9938 18.1527,17.99287"
           id="path7384"
           style="fill:#ff4300;stroke:#9d2900;stroke-width:0.29972336;stroke-linecap:butt;stroke-linejoin:miter;stroke-miterlimit:4;stroke-dasharray:none"
           inkscape:connector-curvature="0" />
      </g>
      <path
         d="m 438.54157,288.51664 c -3.14948,-4.03083 6.83683,-8.06586 10.23307,-15.91084 1.19453,8.36901 -7.64208,12.65116 -6.2599,19.57428 6.76152,-5.16713 10.13947,-15.43331 15.76323,-35.06855 -4.10478,11.55593 -0.5821,25.98826 -3.82425,28.63436 2.22633,0.11134 8.60007,-7.45399 14.22428,-14.63765 -3.4812,11.65666 -13.46821,23.01006 -14.08845,27.46645 -1.09004,7.83073 -12.71933,13.06429 -16.86992,10.72434 -3.1831,-1.51843 -3.99163,-5.49764 -3.64317,-9.39301 -1.17605,-4.68567 4.41364,-7.42538 4.46494,-11.38972 z"
         id="path10495"
         style="fill:#e20909;fill-rule:evenodd;stroke:#800000;stroke-width:0.3022705px;stroke-linecap:butt;stroke-linejoin:miter"
         inkscape:connector-curvature="0" />
      <path
         d="m 450.05256,307.19793 c -0.49146,-6.15652 8.77011,-18.65985 12.13976,-26.20498 -8.04435,13.23793 -16.11324,14 -22.15425,18.85488 l -0.14504,0.4298"
         id="path10497"
         style="fill:#ffc900;stroke:#937502;stroke-width:0.29972336;stroke-linecap:butt;stroke-linejoin:miter;stroke-miterlimit:4;stroke-dasharray:none"
         inkscape:connector-curvature="0" />
      <path
         d="m 443.2526,309.33623 c 4.84856,-8.19487 25.82398,-13.31801 28.08761,-28.76928 1.76424,14.12641 -7.95175,15.58106 -15.42248,31.57646 -3.91177,4.2474 -8.23535,10.69712 -13.03455,7.96932 -5.31317,-2.13716 -1.48096,-6.10345 0.37018,-10.77701 z"
         id="path10499"
         style="fill:#ff4300;fill-rule:evenodd;stroke:#9d2900;stroke-width:0.3022705px;stroke-linecap:butt;stroke-linejoin:miter"
         inkscape:connector-curvature="0" />
      <path
         d="m 448.30163,306.47682 c 0.64552,-2.56017 -0.82136,-5.51586 -3.08102,-8.71862 3.45309,0.54302 15.84773,-13.77416 5.2939,-18.19022 1.40184,9.84059 -9.42766,12.8344 -10.47475,11.5051 -5.29733,-6.72504 -10.2701,-14.00885 -5.28065,-20.7688 -6.2125,4.87454 -8.21417,11.65615 -5.88832,17.5889 -4.69737,-0.1464 -5.92036,-11.26933 -9.8333,-12.48539 2.90592,3.23226 1.94777,14.90385 8.52094,20.97077 -0.35751,2.78062 -0.99784,5.78293 -2.17013,9.052 -0.21336,5.77035 -1.68523,13.39427 3.64306,14.83708 5.27746,2.22387 17.29417,-9.16961 19.26976,-13.7915 z"
         id="path10501"
         style="fill:#ff4300;fill-rule:evenodd;stroke:#9d2900;stroke-width:0.3022705px;stroke-linecap:butt;stroke-linejoin:miter"
         inkscape:connector-curvature="0" />
      <path
         d="m 431.9955,320.33225 c -0.69181,-9.8548 -2.05008,-19.04833 0.54112,-32.16296 6.45677,4.49233 10.92264,12.44033 12.77895,24.91813 0.78653,-1.40241 6.69136,-7.16103 15.49279,-15.38501 -5.14064,10.61822 -6.85793,14.44888 -9.93701,20.97954"
         id="path10503"
         style="fill:#e20909;stroke:#800000;stroke-width:0.29972336;stroke-linecap:butt;stroke-linejoin:miter;stroke-miterlimit:4;stroke-dasharray:none"
         inkscape:connector-curvature="0" />
      <g
         id="g7376">
        <path
           inkscape:connector-curvature="0"
           style="fill:#e20909;fill-rule:evenodd;stroke:#800000;stroke-width:0.3022705px;stroke-linecap:butt;stroke-linejoin:miter"
           id="path10507"
           d="m 441.0094,317.95948 c 0.04,-9.5218 -28.34098,-18.13569 -22.35952,-32.56123 -8.75929,11.22235 10.27939,27.73536 0.0703,32.7439 1.17991,5.65245 4.82161,3.23502 10.34049,3.35471 5.65732,0.89014 11.14087,1.42334 11.94844,-3.53806 z" />
        <path
           inkscape:connector-curvature="0"
           style="fill:#ff4300;stroke:#9d2900;stroke-width:0.29972336;stroke-linecap:butt;stroke-linejoin:miter;stroke-miterlimit:4;stroke-dasharray:none"
           id="path10535"
           d="m 428.92178,318.15563 c -4.34919,-5.67374 -7.44567,-12.05759 -9.1124,-19.25173 5.59644,5.99593 11.79805,11.9938 18.1527,17.99287" />
      </g>
    </g>
    <g
       style="stroke-width:2;stroke-miterlimit:4;stroke-dasharray:none"
       id="g3281">
      <path
         style="fill:#ffff00;stroke:#000000;stroke-width:3.44903564;stroke-miterlimit:4;stroke-dasharray:none"
         inkscape:connector-curvature="0"
         id="path22"
         d="m 196.43343,233.69878 0,-57.53699 27.61775,0 0,23.0148 17.2611,0 0,-23.0148 27.61775,0 0,23.0148 17.26109,0 0,-23.0148 27.61775,0 0,23.0148 17.2611,0 0,-23.0148 27.61775,0 0,23.0148 17.26109,0 0,-23.0148 27.61776,0 0,57.53699 z m 5.7537,0 195.62574,0 0,8.63054 -195.62574,0 z m 5.7537,8.63054 184.11834,0 0,8.63055 -184.11834,0 z m 28.76849,60.41384 c 0,-17.2611 -11.5074,-40.27589 -23.01479,-51.78329 l 172.61094,0 c -11.50739,11.5074 -23.01479,34.52219 -23.01479,51.78329 z m -2.87685,0 132.33506,0 0,8.63054 -132.33506,0 z m 2.87685,8.63054 126.58136,0 0,5.7537 -126.58136,0 z m -51.78329,235.90163 0,-80.55178 c 57.53699,-57.53698 57.53699,-120.82766 57.53699,-149.59615 l 115.07396,0 c 0,28.76849 0,92.05917 57.53698,149.59615 l 0,80.55178 z m -5.75369,0 241.65532,0 0,14.38424 -241.65532,0 z" />
      <path
         style="fill:#ffff00;stroke:#000000;stroke-width:3.44903564;stroke-miterlimit:4;stroke-dasharray:none"
         inkscape:connector-curvature="0"
         id="path24"
         d="m 210.24231,190.54604 0,-14.38425 m 44.87884,14.38425 0,-14.38425 M 300,190.54604 l 0,-14.38425 m 44.87884,14.38425 0,-14.38425 m 44.87885,14.38425 0,-14.38425 m -157.07596,43.15274 0,-20.13794 m 44.87885,20.13794 0,-20.13794 m 44.87884,20.13794 0,-20.13794 m 44.87885,20.13794 0,-20.13794 m -157.07596,34.52219 0,-14.38425 m 44.87884,14.38425 0,-14.38425 M 300,233.69878 l 0,-14.38425 m 44.87884,14.38425 0,-14.38425 m 44.87885,14.38425 0,-14.38425 m -193.32426,0 207.13314,0 m -207.13314,-28.76849 27.61775,0 m 17.2611,0 27.61775,0 m 17.26109,0 27.61775,0 m 17.2611,0 27.61775,0 m 17.26109,0 27.61776,0 m -172.61095,69.04438 0,-8.63055 m 23.01479,8.63055 0,-8.63055 m 23.0148,8.63055 0,-8.63055 M 300,259.59042 l 0,-8.63055 m 23.01479,8.63055 0,-8.63055 m 23.01479,8.63055 0,-8.63055 m 23.0148,8.63055 0,-8.63055 m -126.58136,17.2611 0,-8.63055 m 23.01479,8.63055 0,-8.63055 m 23.01479,8.63055 0,-8.63055 m 23.01479,8.63055 0,-8.63055 m 23.0148,8.63055 0,-8.63055 m 23.01479,8.63055 0,-8.63055 m -126.58136,17.26109 0,-8.63054 m 23.01479,8.63054 0,-8.63054 m 23.0148,8.63054 0,-8.63054 M 300,276.85151 l 0,-8.63054 m 23.01479,8.63054 0,-8.63054 m 23.01479,8.63054 0,-8.63054 m 23.0148,8.63054 0,-8.63054 m -126.58136,17.26109 0,-8.63055 m 23.01479,8.63055 0,-8.63055 m 23.01479,8.63055 0,-8.63055 m 23.01479,8.63055 0,-8.63055 m 23.0148,8.63055 0,-8.63055 m 23.01479,8.63055 0,-8.63055 m -103.56657,17.2611 0,-8.63055 m 23.0148,8.63055 0,-8.63055 M 300,294.11261 l 0,-8.63055 m 23.01479,8.63055 0,-8.63055 m 23.01479,8.63055 0,-8.63055 m -103.56656,17.2611 0,-8.63055 m 23.01479,8.63055 0,-8.63055 m 23.01479,8.63055 0,-8.63055 m 23.01479,8.63055 0,-8.63055 m 23.0148,8.63055 0,-8.63055 m 23.01479,8.63055 0,-8.63055 m -121.69072,0 128.30747,0 m -130.32126,-8.63055 132.33506,0 m -135.49959,-8.63055 138.66412,0 m -142.9794,-8.63054 147.29468,0 m -152.76069,-8.63055 158.2267,0 m -107.88184,80.55177 0,-23.01479 M 300,340.14219 300,317.1274 m 28.76849,23.01479 0,-23.01479 m -71.92123,46.02959 0,-23.0148 m 28.76849,23.0148 0,-23.0148 m 28.76849,23.0148 0,-23.0148 m 28.7685,23.0148 0,-23.0148 m -100.68972,46.02959 0,-23.01479 m 28.76849,23.01479 0,-23.01479 M 300,386.17178 l 0,-23.01479 m 28.76849,23.01479 0,-23.01479 m 28.76849,23.01479 0,-23.01479 m -100.68972,46.02958 0,-23.01479 m 28.76849,23.01479 0,-23.01479 m 28.76849,23.01479 0,-23.01479 m 28.7685,23.01479 0,-23.01479 m -100.68972,46.02958 0,-23.01479 m 28.76849,23.01479 0,-23.01479 M 300,432.20136 l 0,-23.01479 m 28.76849,23.01479 0,-23.01479 m 28.76849,23.01479 0,-23.01479 m -129.45821,46.02959 0,-23.0148 m 28.76849,23.0148 0,-23.0148 m 28.76849,23.0148 0,-23.0148 m 28.76849,23.0148 0,-23.0148 m 28.7685,23.0148 0,-23.0148 m 28.76849,23.0148 0,-23.0148 m -158.2267,46.02959 0,-23.01479 m 28.76849,23.01479 0,-23.01479 m 28.76849,23.01479 0,-23.01479 M 300,478.23095 l 0,-23.01479 m 28.76849,23.01479 0,-23.01479 m 28.76849,23.01479 0,-23.01479 m 28.76849,23.01479 0,-23.01479 m -186.99519,46.02958 0,-23.01479 m 28.76849,23.01479 0,-23.01479 m 28.76849,23.01479 0,-23.01479 m 28.76849,23.01479 0,-23.01479 m 28.76849,23.01479 0,-23.01479 m 28.7685,23.01479 0,-23.01479 m 28.76849,23.01479 0,-23.01479 m 28.76849,23.01479 0,-23.01479 m -186.99519,46.02959 0,-23.0148 m 28.76849,23.0148 0,-23.0148 m 28.76849,23.0148 0,-23.0148 M 300,524.26054 l 0,-23.0148 m 28.76849,23.0148 0,-23.0148 m 28.76849,23.0148 0,-23.0148 m 28.76849,23.0148 0,-23.0148 m -186.99519,46.02959 0,-23.01479 m 28.76849,23.01479 0,-23.01479 m 28.76849,23.01479 0,-23.01479 m 28.76849,23.01479 0,-23.01479 m 28.76849,23.01479 0,-23.01479 m 28.7685,23.01479 0,-23.01479 m 28.76849,23.01479 0,-23.01479 m 28.76849,23.01479 0,-23.01479 m -215.76369,0 230.14793,0 m 0,-23.0148 -230.14793,0 m 0,-23.01479 230.14793,0 m -10.64434,-23.01479 -208.85924,0 m 17.26109,-23.0148 174.33706,0 m -12.37045,-23.01479 -149.59616,0 m 8.63055,-23.01479 132.33506,0 m -5.46602,-23.01479 -121.40303,0 m 2.58917,-23.0148 116.2247,0" />
      <path
         style="fill:#ffff00;stroke:#000000;stroke-width:3.44903564;stroke-miterlimit:4;stroke-dasharray:none"
         inkscape:connector-curvature="0"
         id="path26"
         d="m 248.21671,547.27533 v -86.30547 a 51.783285,51.783285 0 1 1 103.56657,0 v 86.30547 z" />
      <path
         style="fill:#ffff00;stroke:#000000;stroke-width:3.44903564;stroke-miterlimit:4;stroke-dasharray:none"
         inkscape:connector-curvature="0"
         id="path28"
         d="m 236.70932,547.27533 v -20.13794 h 126.58136 v 20.13794 z m 0,-40.27589 V 486.8615 h 126.58136 v 20.13794 z" />
      <path
         style="fill:#ffff00;stroke:#000000;stroke-width:3.44903564;stroke-miterlimit:4;stroke-dasharray:none"
         inkscape:connector-curvature="0"
         id="path30"
         d="m 235.94721,466.91731 1.75514,-20.0613 63.04986,5.51612 -1.75514,20.06134 z" />
      <path
         style="fill:#ffff00;stroke:#000000;stroke-width:3.44903564;stroke-miterlimit:4;stroke-dasharray:none"
         inkscape:connector-curvature="0"
         id="path32"
         d="m 258.38897,411.91221 17.43997,-10.06897 31.64534,54.81134 -17.43997,10.06897 z" />
      <path
         style="fill:#ffff00;stroke:#000000;stroke-width:3.44903564;stroke-miterlimit:4;stroke-dasharray:none"
         inkscape:connector-curvature="0"
         id="path34"
         d="m 309.96569,466.72355 -17.43998,-10.06897 31.64534,-54.81134 17.43998,10.06897 z" />
      <path
         style="fill:#ffff00;stroke:#000000;stroke-width:3.44903564;stroke-miterlimit:4;stroke-dasharray:none"
         inkscape:connector-curvature="0"
         id="path36"
         d="m 301.00293,472.43347 -1.75514,-20.06131 63.04983,-5.51615 1.75514,20.06133 z" />
      <path
         style="fill:#ffff00;stroke:#000000;stroke-width:3.44903564;stroke-miterlimit:4;stroke-dasharray:none"
         inkscape:connector-curvature="0"
         id="path38"
         d="m 265.47781,547.27533 v -86.30547 a 34.52219,34.52219 0 1 1 69.04438,0 v 86.30547 z" />
    </g>
  </g>
  <use
     height="1052.3622"
     width="744.09448"
     y="0"
     x="0"
     style="fill:url(#rg-1);stroke:#000000;stroke-width:3"
     id="shine"
     xlink:href="#shield" />
</svg>
