<?xml version="1.0" encoding="UTF-8" standalone="no"?>
<svg
   xmlns:dc="http://purl.org/dc/elements/1.1/"
   xmlns:cc="http://creativecommons.org/ns#"
   xmlns:rdf="http://www.w3.org/1999/02/22-rdf-syntax-ns#"
   xmlns:svg="http://www.w3.org/2000/svg"
   xmlns="http://www.w3.org/2000/svg"
   xmlns:xlink="http://www.w3.org/1999/xlink"
   xmlns:sodipodi="http://sodipodi.sourceforge.net/DTD/sodipodi-0.dtd"
   xmlns:inkscape="http://www.inkscape.org/namespaces/inkscape"
   width="600"
   height="660"
   id="svg2"
   version="1.1"
   inkscape:version="0.48.2 r9819"
   sodipodi:docname="House_Graves.svg">
  <metadata
     id="metadata24">
    <rdf:RDF>
      <cc:Work
         rdf:about="">
        <dc:format>image/svg+xml</dc:format>
        <dc:type
           rdf:resource="http://purl.org/dc/dcmitype/StillImage" />
      </cc:Work>
    </rdf:RDF>
  </metadata>
  <sodipodi:namedview
     pagecolor="#ffffff"
     bordercolor="#666666"
     borderopacity="1"
     objecttolerance="10"
     gridtolerance="10"
     guidetolerance="10"
     inkscape:pageopacity="0"
     inkscape:pageshadow="2"
     inkscape:window-width="1366"
     inkscape:window-height="715"
     id="namedview22"
     showgrid="false"
     inkscape:zoom="1.011377"
     inkscape:cx="222.33682"
     inkscape:cy="376.49168"
     inkscape:window-x="-8"
     inkscape:window-y="-8"
     inkscape:window-maximized="1"
     inkscape:current-layer="layer2" />
  <defs
     id="defs4">
    <radialGradient
       id="rg"
       gradientUnits="userSpaceOnUse"
       cx="220"
       cy="220"
       r="405">
      <stop
         style="stop-color:#fff;stop-opacity:.3"
         offset="0"
         id="stop7" />
      <stop
         style="stop-color:#fff;stop-opacity:.2"
         offset=".2"
         id="stop9" />
      <stop
         style="stop-color:#666;stop-opacity:.1"
         offset=".6"
         id="stop11" />
      <stop
         style="stop-color:#000;stop-opacity:.13"
         offset="1"
         id="stop13" />
    </radialGradient>
    <path
       id="shield"
       d="m2,2v257c0,286 298,398 298,398c0,0 298-112 298-398V2z" />
    <radialGradient
       inkscape:collect="always"
       xlink:href="#rg-7"
       id="radialGradient3055-1"
       gradientUnits="userSpaceOnUse"
       cx="220"
       cy="220"
       r="405" />
    <radialGradient
       id="rg-7"
       gradientUnits="userSpaceOnUse"
       cx="220"
       cy="220"
       r="405">
      <stop
         style="stop-color:#fff;stop-opacity:.3"
         offset="0"
         id="stop7-4" />
      <stop
         style="stop-color:#fff;stop-opacity:.2"
         offset=".2"
         id="stop9-0" />
      <stop
         style="stop-color:#666;stop-opacity:.1"
         offset=".6"
         id="stop11-9" />
      <stop
         style="stop-color:#000;stop-opacity:.13"
         offset="1"
         id="stop13-4" />
    </radialGradient>
    <radialGradient
       r="405"
       cy="220"
       cx="220"
       gradientUnits="userSpaceOnUse"
       id="radialGradient3074"
       xlink:href="#rg-7"
       inkscape:collect="always" />
  </defs>
  <g
     inkscape:groupmode="layer"
     id="layer2"
     inkscape:label="Elements"
     style="display:inline">
    <path
       id="path3414"
       d="M 323.78125 238.25 L 318.15625 276.8125 C 319.57886 279.04486 322.39213 277.98849 322.90625 281.0625 C 323.90462 287.03347 327.11876 292.08866 328.34375 291.1875 C 328.34375 291.1875 327.85203 294.74689 327.53125 298.84375 L 362.6875 298.84375 C 356.45332 288.51918 351.03143 278.79279 348.84375 268.03125 L 342.9375 239.125 L 323.78125 238.25 z M 327.53125 298.84375 C 327.46849 299.64535 327.41662 300.4584 327.375 301.28125 C 327.41699 300.46058 327.4685 299.64513 327.53125 298.84375 z M 327.375 301.28125 C 327.33326 302.10639 327.29071 302.91693 327.28125 303.71875 C 327.2913 302.92183 327.33301 302.10192 327.375 301.28125 z M 327.28125 303.71875 C 327.27178 304.52125 327.27859 305.29695 327.3125 306.03125 C 327.27944 305.30111 327.2712 304.51567 327.28125 303.71875 z M 327.3125 306.03125 C 327.34604 306.75739 327.41329 307.44668 327.5 308.0625 C 327.41264 307.44218 327.34556 306.76139 327.3125 306.03125 z M 365.71875 304.03125 C 366.50967 305.47085 367.25655 306.88862 367.90625 308.25 C 367.2535 306.88273 366.51408 305.47775 365.71875 304.03125 z M 327.71875 310 C 327.7838 310.6459 327.83103 311.28702 327.875 311.9375 C 327.83078 311.28748 327.78392 310.64541 327.71875 310 z M 327.875 311.9375 C 328.05089 314.53941 328.09251 317.17325 328.09375 319.8125 C 328.09118 317.16917 328.05227 314.54321 327.875 311.9375 z M 369.96875 313.0625 C 371.45762 316.9161 372.37596 320.39577 372.8125 323.53125 C 372.37607 320.39831 371.45752 316.91378 369.96875 313.0625 z M 328.09375 322.46875 C 328.09428 324.08848 328.10969 325.70336 328.15625 327.3125 C 328.10982 325.70775 328.09498 324.08431 328.09375 322.46875 z M 328.15625 327.3125 C 328.27394 331.38025 328.59792 335.3994 329.6875 339.25 C 332.98488 350.90253 337.38023 366.65524 348.1875 370.90625 C 351.44294 372.18677 352.50638 370.39157 352.5625 369.875 C 358.28942 378.64922 360.59074 392.39701 371.84375 388.84375 C 366.96208 383.73696 365.1923 377.85586 364.375 371.21875 C 370.48337 381.76993 373.55082 389.84769 386.9375 389.78125 C 383.8589 386.16379 381.5653 382.52731 379.78125 378.90625 L 379.75 378.875 L 328.15625 327.3125 z M 373 325.375 C 373.19746 327.69374 373.15282 329.79618 372.875 331.6875 C 373.15658 329.78892 373.19844 327.7043 373 325.375 z M 376.59375 339.625 C 377.86086 341.84731 379.08185 344.13458 380.3125 346.40625 C 379.08145 344.13373 377.86112 341.84786 376.59375 339.625 z M 385.5 355.15625 C 386.91071 357.19688 388.44374 359.05592 390.15625 360.6875 C 388.45613 359.0646 386.90247 357.18306 385.5 355.15625 z M 376.65625 362.25 C 377.21425 363.04343 377.78271 363.73681 378.375 364.34375 C 377.78349 363.73663 377.21375 363.04354 376.65625 362.25 z M 392.84375 362.9375 C 393.79846 363.61333 394.8004 364.20542 395.875 364.71875 C 394.8004 364.20542 393.79853 363.61348 392.84375 362.9375 z "
       style="fill:#cc0000;stroke:#000000;stroke-width:2.15022922;stroke-linecap:round;stroke-linejoin:round" />
    <use
       height="1052.3622"
       width="744.09448"
       y="0"
       x="0"
       style="fill:#008800"
       id="background"
       xlink:href="#shield"
       transform="matrix(-1,0,0,1,600,0)" />
    <path
       style="fill:#ffffff;fill-opacity:1;fill-rule:evenodd;stroke:#000000;stroke-width:1px;stroke-linecap:butt;stroke-linejoin:miter;stroke-opacity:1;display:inline"
       d="M 1.5 2.1875 L 1.5 260.71875 C 1.5 273.8296 2.3296735 286.45748 3.53125 298.84375 L 299.6875 298.84375 L 3.03125 2.1875 L 1.5 2.1875 z M 299.71875 2.1875 L 299.71875 298.84375 L 299.71875 298.875 L 508.03125 507.15625 C 552.25251 453.79151 588.11171 384.99103 596.46875 298.84375 L 299.75 298.84375 L 596.40625 2.1875 L 299.71875 2.1875 z M 299.71875 298.875 L 91.71875 506.84375 C 179.20898 612.61631 298.67638 657.98139 299.71875 658.375 L 299.71875 298.875 z "
       id="path7059" />
    <path
       id="path3003-5"
       d="M 96.866963,71.543125 C 81.426166,71.319501 61.590301,85.760441 58.431614,100.77119 c -8.239678,39.17718 3.56293,83.49341 -0.46875,115.50817 -1.322391,10.47162 -0.120413,28.92058 -9.542717,34.33916 1.19643,6.26469 6.727637,4.87737 12.162127,3.69582 -1.997004,2.14612 -2.473409,4.46882 -1.276699,6.92115 32.272792,-12.05182 20.344394,-41.69079 31.782539,-66.72376 2.075015,-4.54107 9.797516,3.57819 11.557486,-0.60475 -6.219972,31.41915 -9.336944,62.46416 -25.669441,94.7434 -7.797376,15.41198 -19.481292,34.14994 -10.482367,37.89779 11.63575,4.84705 21.693663,-14.05325 30.036553,-28.49054 15.964165,-27.63044 25.518925,-54.12342 31.380445,-84.3965 -3.06279,36.64206 -15.06859,67.77738 -28.019637,103.54645 -3.09676,20.91915 -32.081421,46.4385 -19.083285,52.0764 8.289349,3.59583 20.959792,-4.13403 26.340312,-11.69187 27.81751,-39.07612 55.21143,-130.78985 56.03927,-130.62643 5.34655,2.356 -27.93793,119.60865 -57.11439,166.77608 -3.1174,5.03971 -5.82626,14.01455 -0.60475,16.32841 11.55877,5.12206 25.61783,-21.34253 35.94968,-35.07454 28.71847,-38.17517 57.1445,-149.50544 57.51864,-149.37428 -4.39271,58.84748 -32.50287,135.75688 -29.83443,136.47291 9.26619,2.48394 17.84647,-11.43234 23.0483,-19.88962 22.17962,-36.0658 32.16098,-100.43721 33.99943,-110.40138 6.51025,12.33737 -16.73179,73.84963 -9.40725,82.65052 2.52802,3.0372 7.148,-5.16722 9.60894,-8.26505 14.56888,-18.3391 27.88632,-74.11626 27.88632,-74.11626 l 1.74707,-29.90109 c -9.07397,-6.73022 -15.20212,-22.45484 -27.88418,-18.33715 -8.55361,-36.67431 -84.60292,-26.79401 -112.01189,-33.25975 -24.215885,-5.71531 -30.625718,-21.83558 -28.290569,-31.71588 6.339091,6.35801 12.126433,12.04429 23.048309,9.67603 10.92101,-2.36955 20.48738,-10.02652 20.09174,-26.20699 C 130.54278,86.14716 116.74046,73.684431 99.962218,71.820182 98.91353,71.70364 97.900729,71.566175 96.871263,71.551403 z m 406.264327,0 c -1.02947,0.01505 -2.04227,0.152236 -3.09096,0.268779 -16.7791,1.86399 -30.58056,14.325687 -30.9762,30.507456 -0.39625,16.18069 9.16987,23.83744 20.09131,26.20699 10.92145,2.36826 16.70879,-3.31802 23.04831,-9.67603 2.33515,9.88138 -4.07275,26.00272 -28.28842,31.71588 -27.40897,6.46746 -103.45828,-3.41349 -112.01404,33.2619 -12.69152,-4.11834 -18.7986,11.60651 -27.88633,18.34404 l 1.74707,29.90108 c 0,0 13.31701,55.77695 27.88632,74.11626 2.46094,3.09783 7.0807,11.30203 9.60894,8.26505 7.32454,-8.7996 -15.9175,-70.3125 -9.40725,-82.65051 1.8395,9.96373 11.82003,74.33557 33.99943,110.40137 5.2014,8.45728 13.78146,22.37313 23.0483,19.88962 2.66844,-0.71525 -25.44151,-77.62543 -29.83443,-136.4729 0.37451,-0.1316 28.80017,111.1991 57.51864,149.37428 10.33142,13.73308 24.39005,40.19853 35.94968,35.07454 5.2214,-2.31387 2.51276,-11.28871 -0.60475,-16.32842 -29.17861,-47.16743 -62.46201,-164.42158 -57.11439,-166.77608 0.82878,-0.16385 28.22176,91.55031 56.03927,130.62643 5.38052,7.55784 18.05096,15.2877 26.34031,11.69187 12.99749,-5.63812 -15.98652,-31.15682 -19.08328,-52.0764 -12.95148,-35.77122 -24.95771,-66.90439 -28.01964,-103.54644 5.86088,30.27307 15.41564,56.76605 31.38045,84.3965 8.34138,14.43728 18.40037,33.33715 30.03655,28.49053 8.99892,-3.74849 -2.68499,-22.48494 -10.48237,-37.89779 -16.33142,-32.27924 -19.44839,-63.3264 -25.66944,-94.7434 1.76005,4.18306 9.48251,-3.93621 11.55749,0.60475 11.43879,25.03297 -0.48953,54.67173 31.78254,66.72377 1.19668,-2.45213 0.7203,-4.77502 -1.2767,-6.92116 5.43449,1.18168 10.96574,2.56888 12.16212,-3.69582 -9.42166,-5.41836 -8.22118,-23.85464 -9.54164,-34.33701 -4.03361,-32.01476 7.77028,-76.33099 -0.47036,-115.50817 -3.1574,-15.010531 -22.9924,-29.451686 -38.43535,-29.230212 z"
       inkscape:connector-curvature="0"
       style="fill:#ffffff;stroke:#000000;stroke-width:2.15022921999999990;stroke-linecap:round;stroke-linejoin:round" />
    <path
       id="path3017-0"
       d="m 440.28869,63.458263 c -1.13943,-0.06257 -2.31967,0.427895 -3.69474,1.021617 1.37563,1.017316 1.95114,1.416958 3.08902,4.661267 0.45488,1.296911 2.46201,14.552967 -10.96295,15.962872 -13.42495,1.409862 -51.06794,4.800602 -62.99097,22.859091 l 1.39309,0.95777 c 0,0 7.05534,-7.36754 23.25904,-12.131805 13.5172,-3.974484 26.53813,-5.932053 37.128,-4.214235 10.5901,1.717862 13.92639,-3.621416 17.98904,-8.811424 2.25301,-2.878297 3.08902,-8.747778 3.08902,-8.747778 3.1589,-1.577795 3.09482,-6.542288 3.69474,-9.258458 -1.39077,2.892059 -3.19395,4.666643 -5.81465,4.533544 -2.4661,-5.136038 -4.27896,-6.728068 -6.17804,-6.832139 z"
       inkscape:connector-curvature="0"
       style="fill:#ffdd00;stroke:#000000;stroke-width:2.15022921999999990;stroke-linecap:round;stroke-linejoin:round" />
    <path
       id="path3025-9"
       d="m 162.11352,394.07752 c -5.14399,0.11439 -10.03512,2.78605 -10.68406,9.94481 6.33329,-8.13496 14.70155,-3.43521 14.24527,2.75487 0,0 -12.5782,-1.88893 -10.0119,8.19775 1.62912,6.40339 10.81824,6.45069 10.81824,6.45069 0.0877,4.7318 5.31257,8.15647 8.93678,9.34017 2.88926,0.94352 5.37557,5.5291 7.39141,9.27286 l 5.84605,-7.39141 -0.67195,-7.18994 c -3.81472,0.79129 -6.75903,0.60228 -8.06336,-0.73914 -2.2042,-2.26677 -2.81379,-7.1493 0.33597,-8.8697 0,0 5.64887,-5.03562 4.23337,-12.4309 -1.41564,-7.3955 -8.68176,-7.40195 -10.0792,-3.96459 -1.69096,-3.01807 -7.15252,-5.48997 -12.29673,-5.37558 z m 275.76691,0 c -5.14399,-0.11439 -10.60558,2.35751 -12.29673,5.37557 -1.3975,-3.43757 -8.66349,-3.4309 -10.0792,3.9646 -1.41565,7.39549 4.23337,12.43112 4.23337,12.4309 3.14987,1.72042 2.54006,6.60293 0.33597,8.8697 -1.30431,1.34142 -4.24864,1.53042 -8.06336,0.73914 l -0.67194,7.18994 5.84604,7.39141 c 2.01593,-3.74377 4.50215,-8.32934 7.39141,-9.27287 3.62421,-1.18357 8.84927,-4.60815 8.93679,-9.34016 0,0 9.18922,-0.0473 10.81823,-6.45069 2.5663,-10.08672 -10.0119,-8.19775 -10.0119,-8.19775 -0.45628,-6.19029 7.91199,-10.89005 14.24527,-2.75487 -0.64879,-7.15876 -5.53985,-9.83042 -10.68406,-9.94481 z"
       inkscape:connector-curvature="0"
       style="fill:#ffdd00;stroke:#000000;stroke-width:2.15022921999999990;stroke-linecap:round;stroke-linejoin:round" />
    <path
       id="path3023-5"
       d="m 153.5126,412.13945 c -5.76949,0.18513 -9.8674,7.48623 -8.7353,10.28067 -6.47649,-1.58977 -17.52781,14.38848 -8.60092,25.2652 -1.2075,-10.44668 6.95363,-17.59124 10.88554,-12.96847 0,0 -1.96654,3.33393 4.03168,6.45069 5.64091,2.93098 9.07138,-0.0671 9.07138,-0.0671 3.30706,3.20084 8.30978,0.1989 11.62457,-1.74706 2.64263,-1.5513 7.59676,-0.30924 11.55749,0.73914 l 8.80303,-11.48222 c -1.00848,-1.13332 -4.1609,-1.50271 -10.21359,0.26878 -2.50953,0.87168 -4.46366,0.1546 -6.58507,-0.20148 -5.01176,-0.84134 -7.1035,-0.56927 -8.93679,-3.56121 0,0 -0.82061,-7.26132 -8.60091,-11.82626 -1.4588,-0.85592 -2.96904,-1.18503 -4.30046,-1.14231 z m 292.96875,0 c -1.3314,-0.0428 -2.84175,0.28639 -4.30046,1.14231 -7.78039,4.56493 -8.60092,11.82626 -8.60092,11.82626 -1.83329,2.99204 -3.92524,2.72004 -8.93678,3.56121 -2.12138,0.35612 -4.07555,1.07326 -6.58508,0.20147 -6.05268,-1.77149 -9.20513,-1.4021 -10.21359,-0.26878 l 8.80261,11.4904 c 3.96072,-1.04839 8.91485,-2.29042 11.55748,-0.73914 3.3148,1.94596 8.31773,4.94789 11.62457,1.74706 0,0 3.43026,2.99828 9.07139,0.0671 5.99828,-3.11676 4.03168,-6.45069 4.03168,-6.45069 3.93191,-4.62278 12.0931,2.52179 10.88553,12.96846 8.9269,-10.87672 -2.12436,-26.85421 -8.60091,-25.26519 1.13203,-2.79444 -2.96581,-10.09576 -8.73531,-10.28068 z"
       inkscape:connector-curvature="0"
       style="fill:#ffdd00;stroke:#000000;stroke-width:2.15022921999999990;stroke-linecap:round;stroke-linejoin:round" />
    <path
       id="path3021-6"
       d="m 242.75787,352.27706 -23.58586,5.37558 c -2.94152,16.94165 -16.79071,33.54142 -20.69596,52.94939 -1.75033,3.2232 -2.63898,8.38955 -5.03971,10.81824 -1.00465,1.01645 -2.57941,0.0374 -4.09877,0.67194 -3.1776,1.32691 -4.73523,5.23861 -4.63632,10.0119 l -4.97241,4.23337 c -2.29451,5.09282 -5.15238,6.292 -8.26505,5.77874 0,0 -3.71108,-5.15904 -12.63259,-2.35192 -8.92152,2.80713 -7.64901,13.16586 -4.50215,14.37966 -5.67102,2.15776 -6.25717,7.34131 -7.52581,11.22162 -3.71387,11.35858 3.88676,20.4962 9.81042,24.25673 -6.51476,-11.08959 -1.77671,-24.49326 3.69582,-24.66098 0,0 5.84798,6.12859 11.55748,3.09096 5.36934,-2.85658 5.03971,-9.40725 5.03971,-9.40725 4.14199,-0.62667 6.62873,-6.94976 7.32411,-11.22162 0.55452,-3.40532 4.36539,-6.75516 7.45871,-9.47434 2.07033,1.10758 4.37035,1.74712 8.06336,-0.53756 2.78348,-0.37356 5.16529,0.0899 6.3163,3.15826 1.74646,4.39829 5.57404,9.73301 10.88554,1.67986 -1.21269,3.39199 20.11453,4.89264 10.28068,20.42718 8.52996,-0.6295 17.05647,-7.2396 7.18993,-20.96473 0,0 3.41457,-5.09454 1.67987,-10.68406 -0.97298,-3.13504 -5.00186,-6.42833 -8.13045,-6.3836 -6.82913,0.0976 -4.38045,3.53562 -11.42309,6.51777 -2.87206,1.21624 -6.458,-5.73272 -16.32841,-1.2767 -0.67778,-1.8398 -0.16428,-3.67022 1.2095,-5.50996 2.71316,-2.79831 5.27408,-5.70026 7.12264,-8.80261 5.41793,-1.52307 5.67918,-3.27802 7.05533,-9.40725 6.35436,-8.08121 11.7123,-10.76534 12.56551,-17.33622 l 14.58113,-36.5539 z m 114.49971,0 14.58114,36.5539 c 0.85316,6.57089 6.21115,9.25502 12.56551,17.33622 1.37627,6.12923 1.6375,7.88425 7.05533,9.40726 1.84846,3.10213 4.40947,6.00408 7.12263,8.80261 1.37385,1.8398 1.88728,3.67022 1.20951,5.50996 -9.8702,-4.45592 -13.45614,2.49297 -16.32841,1.2767 -7.04265,-2.98237 -4.59397,-6.42016 -11.4231,-6.51778 -3.1288,-0.0447 -7.15768,3.24835 -8.13044,6.3836 -1.7347,5.58952 1.67986,10.68406 1.67986,10.68406 -9.86676,13.72513 -1.34013,20.33515 7.18994,20.96474 -9.83386,-15.53455 11.4934,-17.03519 10.28068,-20.42718 5.31149,8.05325 9.13911,2.71853 10.88553,-1.67987 1.15108,-3.06816 3.53283,-3.53175 6.3163,-3.15825 3.69302,2.28461 5.99312,1.64514 8.06336,0.53755 3.0931,2.7194 6.90417,6.06903 7.45871,9.47434 0.6956,4.27165 3.18234,10.59483 7.32412,11.22162 0,0 -0.32983,6.55067 5.0397,9.40725 5.70951,3.03763 11.55749,-3.09095 11.55749,-3.09095 5.47233,0.1675 10.21036,13.57074 3.69581,24.66098 5.92367,-3.76118 13.5243,-12.8988 9.81042,-24.25674 -1.26872,-3.8803 -1.8547,-9.06364 -7.5258,-11.22161 3.14707,-1.21389 4.41936,-11.57254 -4.50215,-14.37966 -8.92152,-2.80713 -12.6326,2.3517 -12.6326,2.35192 -3.11267,0.51324 -5.97054,-0.68588 -8.26505,-5.77874 l -4.98853,-4.23595 c 0.0989,-4.7733 -1.45891,-8.68521 -4.63633,-10.0119 -1.51956,-0.63456 -3.09418,0.34451 -4.09876,-0.67195 -2.40052,-2.42868 -3.28921,-7.59525 -5.03971,-10.81823 -3.90525,-19.40862 -17.75444,-36.00774 -20.69596,-52.9494 l -23.58586,-5.37557 z"
       inkscape:connector-curvature="0"
       style="fill:#ffdd00;stroke:#000000;stroke-width:2.15022921999999990;stroke-linecap:round;stroke-linejoin:round" />
    <path
       style="fill:#ffffff;stroke:#000000;stroke-width:2.15022921999999990;stroke-linecap:round;stroke-linejoin:round"
       d="m 276.21544,238.2504 -19.15037,0.87353 -5.91313,28.89478 c -2.29817,11.30613 -8.15281,21.47456 -14.78283,32.38676 -8.89894,14.64822 -10.56838,25.55762 -8.93678,32.85765 -7.71997,10.54817 -11.854,25.97262 -23.31709,31.44711 8.3072,4.47548 15.94589,5.15861 21.3679,-6.18191 -0.77589,10.40754 -3.57368,20.83808 -12.4309,31.24498 13.38668,0.0664 16.46903,-7.99455 22.57741,-18.54573 -0.81713,6.63711 -2.57705,12.49821 -7.45872,17.605 11.25301,3.55304 13.55784,-10.17467 19.28498,-18.94889 0.0561,0.51657 1.11227,2.28849 4.36754,1.00792 10.80705,-4.25101 15.18105,-19.99606 18.47864,-31.64923 2.80906,-9.92696 0.77452,-20.9314 2.21732,-31.17832 0.79593,-5.65253 -0.87353,-16.86597 -0.87353,-16.86597 1.2252,0.90131 4.44431,-4.17532 5.44266,-10.1465 0.51397,-3.07397 3.34812,-2.0009 4.77093,-4.23337 l -5.64435,-38.57082 z"
       id="path3299" />
    <path
       style="fill:#008800;fill-opacity:1;fill-rule:evenodd;stroke:#000000;stroke-width:1px;stroke-linecap:butt;stroke-linejoin:miter;stroke-opacity:1;display:inline"
       d="m 271.875,326.71875 -51.0625,51.0625 c -1.84276,4.00037 -4.34901,8.00396 -7.75,12 13.38668,0.0664 16.45412,-8.01132 22.5625,-18.5625 -0.81713,6.63711 -2.58708,12.51821 -7.46875,17.625 11.25301,3.55304 13.58536,-10.19453 19.3125,-18.96875 0.0561,0.51657 1.08848,2.31182 4.34375,1.03125 10.80705,-4.25101 15.20241,-20.00308 18.5,-31.65625 1.14259,-4.03781 1.46266,-8.2604 1.5625,-12.53125 z"
       id="path3301" />
    <path
       style="fill:#ffffff;stroke:#000000;stroke-width:2.15022921999999990;stroke-linecap:round;stroke-linejoin:round"
       d="m 323.78926,238.2504 -5.64435,38.57082 c 1.42261,2.23236 4.25681,1.15936 4.77093,4.23337 0.99837,5.97097 4.21767,11.04766 5.44266,10.1465 0,0 -1.66946,11.21345 -0.87353,16.86597 1.44291,10.24692 -0.59166,21.25136 2.21731,31.17832 3.29738,11.65253 7.67138,27.39822 18.47865,31.64923 3.25544,1.28052 4.31142,-0.49135 4.36754,-1.00792 5.72692,8.77422 8.03197,22.50215 19.28498,18.94889 -4.88167,-5.10679 -6.64142,-10.96789 -7.45872,-17.605 6.10837,10.55118 9.19073,18.61217 22.57741,18.54573 -8.85722,-10.40754 -11.6551,-20.83809 -12.43091,-31.24498 5.42202,11.34052 13.06071,10.65739 21.36791,6.18191 -11.46244,-5.47556 -15.59669,-20.89894 -23.31709,-31.44711 1.6314,-7.30003 -0.0378,-18.20986 -8.93678,-32.85765 -6.63002,-10.91328 -12.48466,-21.08171 -14.78283,-32.38676 l -5.91313,-28.89478 -19.15037,-0.87353 z"
       id="path3005-3" />
    <path
       style="fill:#ffffff;stroke:none;stroke-width:2.15022921999999990;stroke-linecap:round;stroke-linejoin:round"
       inkscape:connector-curvature="0"
       d="m 212.98021,47.67558 c -6.82075,0.315438 -11.23216,6.24061 -5.03971,10.482368 -25.37271,-13.45119 -42.20255,-0.149441 -29.90109,21.906536 -0.76851,-6.936425 -0.24721,-13.985307 7.39141,-11.960651 4.4026,1.166908 5.3173,10.974986 14.31236,9.676032 8.84518,9.381451 25.18993,18.326834 27.88632,26.609085 -22.44839,-6.375857 -41.37686,-8.316654 -52.20972,0 21.24126,1.76876 43.42174,2.118 59.66887,11.4904 27.85407,7.25337 25.92101,44.89249 36.75602,69.54701 l -4.50215,4.70363 c -12.98631,-2.31623 -22.19252,15.93836 -23.4504,28.96144 -6.39586,66.19051 19.47484,76.77179 28.01963,98.23968 11.44288,28.74426 8.0023,22.23982 12.29674,50.26161 1.09945,7.17445 -6.68528,5.37901 -5.84605,33.73279 0.5608,18.94481 -1.34391,35.32397 -4.9724,38.09992 -2.79659,2.1395 -17.04121,0.3582 -8.93679,-15.99233 -23.86754,5.94129 -11.92366,31.79329 0.47037,37.09145 13.39227,5.72499 19.02867,-5.4074 19.82253,-7.66019 -0.55222,19.33766 -24.35135,33.08773 -52.81393,27.2133 -11.83529,-2.44287 -30.37629,18.73774 -24.66098,32.38675 1.61813,0.7416 5.03928,-2.01115 7.05533,-3.15825 -5.17388,5.7166 -13.76835,19.78039 -9.74312,33.05977 2.26613,7.47592 9.39263,20.99205 21.63561,20.02401 -17.42202,-16.06221 -9.89278,-15.05719 -10.48237,-22.17316 -0.76982,-9.29179 13.96746,-16.8735 21.16643,-22.44409 9.00408,3.86138 12.65453,-0.56298 20.02401,-8.19775 3.31522,-3.43456 5.00788,-14.05541 13.10307,-6.78656 l 5.57726,-5.64435 c 7.26326,2.96302 7.42238,12.81515 5.24119,21.63561 -3.26018,13.18499 -7.03426,20.6351 -7.18994,28.42388 -0.051,2.55404 5.49125,2.61554 5.44266,5.57726 -0.33079,20.20571 5.45148,20.9684 20.89765,38.57082 15.44595,-17.60135 21.22835,-18.36404 20.89765,-38.57082 -0.0486,-2.96172 5.49383,-3.023 5.44266,-5.57726 -0.15568,-7.78813 -3.92976,-15.23825 -7.18994,-28.42388 -2.18119,-8.82153 -2.02218,-18.67367 5.24118,-21.63561 l 5.57727,5.64435 c 8.09497,-7.26885 9.78784,3.352 13.10307,6.78656 7.36948,7.63482 11.01992,12.05913 20.02401,8.19775 7.19896,5.56952 21.93664,13.15123 21.16642,22.44409 -0.58965,7.11704 6.93965,6.11203 -10.48236,22.17316 12.24405,0.9681 19.37055,-12.54809 21.6356,-20.02401 4.02523,-13.27938 -4.56945,-27.34231 -9.74312,-33.05977 2.01625,1.14699 5.43729,3.89965 7.05534,3.15825 5.71488,-13.65008 -12.82505,-34.83156 -24.66098,-32.38675 -28.46259,5.87486 -52.26348,-7.87607 -52.81394,-27.2133 0.79374,2.25279 6.43026,13.38518 19.82254,7.66019 12.39392,-5.29816 24.33844,-31.15037 0.47036,-37.09145 8.10443,16.35055 -6.14019,18.1318 -8.93678,15.99233 -3.62851,-2.77574 -5.53319,-19.15446 -4.97241,-38.09992 0.8393,-28.35292 -6.94545,-26.55748 -5.84604,-33.73279 4.29422,-28.02179 0.8537,-21.51735 12.29673,-50.26161 8.54544,-21.46574 34.41657,-32.04702 28.01964,-98.23968 -1.25834,-13.02265 -10.46474,-31.27724 -23.4504,-28.96144 l -4.50215,-4.70363 c 10.83371,-24.65237 8.90044,-62.29214 36.75602,-69.54701 16.24777,-9.37221 38.42674,-9.72162 59.66886,-11.4904 -10.83393,-8.316654 -29.76132,-6.375857 -52.20972,0 2.69531,-8.282251 19.0405,-17.227634 27.88633,-26.609085 8.99505,1.298975 9.90976,-8.509102 14.31235,-9.676032 7.63869,-2.02457 8.15991,5.024226 7.39142,11.960651 12.29995,-22.054902 -4.52925,-35.356221 -29.90109,-21.906536 6.60529,-4.524513 1.12579,-10.980361 -6.45069,-10.482368 -3.44381,0.226397 -7.30239,1.902781 -10.68406,5.846043 -8.05433,-18.555404 -27.86482,23.564363 -41.2586,15.320384 2.49341,8.610593 7.21337,8.24785 13.17015,7.122635 -4.06823,6.982224 -14.30827,9.973623 -19.15037,15.589162 1.83901,1.187873 3.10257,1.604587 6.78656,1.343893 -19.10307,15.155893 -16.54838,32.986663 -34.47033,46.096613 -17.92238,-13.10973 -15.36769,-30.93965 -34.47033,-46.096613 3.68399,0.260694 4.94768,-0.156106 6.78656,-1.343893 -4.84232,-5.615539 -15.08236,-8.606938 -19.15037,-15.589162 5.95678,1.125322 10.67674,1.48798 13.17015,-7.122635 -13.3927,8.243979 -33.20384,-33.876863 -41.2586,-15.320384 -3.38145,-3.94309 -7.24004,-5.619624 -10.68406,-5.846043 -0.47352,-0.03118 -0.95638,-0.0215 -1.41109,0 z"
       id="path3439" />
    <path
       style="fill:#008800;fill-opacity:1;fill-rule:evenodd;stroke:#000000;stroke-width:1px;stroke-linecap:butt;stroke-linejoin:miter;stroke-opacity:1;display:inline"
       d="m 327.53125,298.84375 c -0.25099,3.2055 -0.38064,6.73748 -0.0312,9.21875 0.88321,6.27221 0.47053,12.83099 0.65625,19.25 l 51.625,51.59375 c -3.34871,-6.79684 -4.74385,-13.58534 -5.25,-20.375 5.42202,11.34052 13.03655,10.66298 21.34375,6.1875 -11.46244,-5.47556 -15.5921,-20.88933 -23.3125,-31.4375 1.6314,-7.30003 -0.0385,-18.22721 -8.9375,-32.875 -0.31875,-0.52468 -0.62264,-1.04106 -0.9375,-1.5625 l -35.15625,0 z"
       id="path3306" />
    <path
       style="fill:#008800;fill-opacity:1;fill-rule:evenodd;stroke:#000000;stroke-width:1px;stroke-linecap:butt;stroke-linejoin:miter;stroke-opacity:1;display:inline"
       d="M 503.125 71.53125 C 502.09553 71.5463 501.07994 71.695957 500.03125 71.8125 C 483.25215 73.67649 469.45814 86.130731 469.0625 102.3125 C 468.83805 111.47766 471.80224 117.90373 476.40625 122.1875 L 521.625 76.96875 C 515.60543 73.543519 509.03979 71.446423 503.125 71.53125 z M 78 77.1875 C 68.465755 82.722888 60.361082 91.639982 58.4375 100.78125 C 50.197822 139.95843 62.00043 184.26649 57.96875 216.28125 C 56.646359 226.75287 57.828554 245.20642 48.40625 250.625 C 49.60268 256.88969 55.15926 255.49405 60.59375 254.3125 C 58.596746 256.45862 58.11579 258.79767 59.3125 261.25 C 91.585292 249.19818 79.655605 219.53297 91.09375 194.5 C 93.168765 189.95893 100.89628 198.08919 102.65625 193.90625 C 96.436278 225.3254 93.301247 256.37701 76.96875 288.65625 C 75.294397 291.96571 73.445751 295.40892 71.65625 298.84375 L 96.09375 298.84375 C 96.240074 298.58978 96.385965 298.31391 96.53125 298.0625 C 112.49541 270.43206 122.04473 243.92933 127.90625 213.65625 C 125.37923 243.88862 116.74204 270.4132 106.53125 298.84375 L 136.9375 298.84375 C 151.78857 262.51241 162.67097 226.86679 163.1875 226.96875 C 165.99205 228.2046 158.16091 261.07799 145.875 298.84375 L 176.4375 298.84375 C 189.55203 261.05279 198.72611 225.55089 198.9375 225.625 C 197.17986 249.17144 191.64222 275.55191 185.78125 298.84375 L 210.71875 298.84375 C 220.18899 268.65241 224.94307 238.38776 226.15625 231.8125 C 230.98623 240.96564 219.44707 277.16303 216.15625 298.84375 L 231.125 298.84375 C 238.70654 285.18388 245.51318 263.79554 249.75 248.90625 L 154.75 153.90625 C 139.36765 153.08059 125.0964 152.68621 116.09375 150.5625 C 91.877865 144.84719 85.477351 128.72405 87.8125 118.84375 C 94.151591 125.20176 99.921874 130.89951 110.84375 128.53125 C 115.45527 127.53068 119.83212 125.59851 123.3125 122.46875 L 78 77.1875 z M 444.6875 153.90625 C 413.3696 155.60837 377.61769 159.32968 371.90625 183.8125 C 359.21473 179.69416 353.08773 195.44997 344 202.1875 L 345.75 232.0625 C 345.75 232.0625 347.40829 238.88858 350.125 248.46875 L 444.6875 153.90625 z M 368.875 298.84375 C 370.44033 301.66401 372.04389 304.15792 373.65625 306.1875 C 376.11719 309.28533 380.72176 317.50573 383.25 314.46875 C 385.14044 312.1976 384.98857 306.38602 383.84375 298.84375 L 368.875 298.84375 z M 389.28125 298.84375 C 394.16212 314.40451 400.30032 329.95243 407.84375 342.21875 C 413.04515 350.67603 421.63941 364.57726 430.90625 362.09375 C 432.50698 361.66469 423.00555 333.76325 414.21875 298.84375 L 389.28125 298.84375 z M 423.5625 298.84375 C 433.65929 327.93896 446.10135 358.39397 458.59375 375 C 468.92517 388.73308 482.97162 415.18649 494.53125 410.0625 C 499.75265 407.74863 497.05501 398.78971 493.9375 393.75 C 480.06464 371.32443 465.26063 333.07414 454.125 298.84375 L 423.5625 298.84375 z M 463.0625 298.84375 C 472.01323 320.74095 482.38282 342.89896 492.84375 357.59375 C 498.22427 365.15159 510.89815 372.87708 519.1875 369.28125 C 532.18499 363.64313 503.19051 338.13833 500.09375 317.21875 C 497.82818 310.96139 495.63365 304.87158 493.46875 298.84375 L 463.0625 298.84375 z M 503.90625 298.84375 C 512.16111 313.17393 522.06646 331.32472 533.5 326.5625 C 540.57227 323.61656 534.86328 311.41554 528.3125 298.84375 L 503.90625 298.84375 z "
       id="path3282" />
    <path
       style="fill:#008800;fill-opacity:1;fill-rule:evenodd;stroke:#000000;stroke-width:1px;stroke-linecap:butt;stroke-linejoin:miter;stroke-opacity:1;display:inline"
       d="M 387 47.65625 C 386.54529 47.635217 386.06728 47.656375 385.59375 47.6875 C 382.14994 47.913897 378.31917 49.587988 374.9375 53.53125 C 366.88317 34.975846 347.05003 77.087729 333.65625 68.84375 C 336.14966 77.454343 340.88697 77.093965 346.84375 75.96875 C 342.77552 82.950974 332.5296 85.946961 327.6875 91.5625 C 329.52651 92.750373 330.78476 93.166944 334.46875 92.90625 C 315.36568 108.06214 317.92195 125.89005 300 139 C 299.90266 138.9288 299.81489 138.85273 299.71875 138.78125 L 299.71875 298.84375 L 299.71875 298.875 L 325.28125 324.4375 C 326.12483 322.26772 326.99635 320.10035 328.09375 317.34375 C 330.70006 310.79682 334.92114 305.25226 339.34375 298.84375 L 299.75 298.84375 L 357.09375 241.5 C 357.20862 234.8173 356.89593 227.39432 356.09375 219.09375 C 354.83541 206.0711 345.64191 187.8092 332.65625 190.125 L 328.15625 185.4375 C 338.98996 160.78513 337.05067 123.12987 364.90625 115.875 C 381.15402 106.50279 403.35163 106.14378 424.59375 104.375 C 413.75982 96.058346 394.8234 97.999143 372.375 104.375 C 375.07031 96.092749 391.40417 87.162701 400.25 77.78125 C 409.24505 79.080225 410.15991 69.26068 414.5625 68.09375 C 422.20119 66.06918 422.73724 73.126075 421.96875 80.0625 C 434.2687 58.007598 417.43434 44.706565 392.0625 58.15625 C 398.25496 53.914519 393.82063 47.971746 387 47.65625 z M 299.71875 298.875 L 274.5625 324.03125 C 282.6904 344.89649 280.31266 342.106 284.21875 367.59375 C 285.3182 374.7682 277.53577 372.95872 278.375 401.3125 C 278.9358 420.25731 277.00349 436.66155 273.375 439.4375 C 270.57841 441.577 256.36433 439.78803 264.46875 423.4375 C 240.60121 429.37879 252.54347 455.23309 264.9375 460.53125 C 278.32977 466.25624 283.95614 455.12779 284.75 452.875 C 284.19778 472.21266 260.40008 485.93693 231.9375 480.0625 C 220.10221 477.61963 201.56594 498.81974 207.28125 512.46875 C 208.89938 513.21035 212.29645 510.4596 214.3125 509.3125 C 209.13862 515.0291 200.56852 529.09562 204.59375 542.375 C 206.85988 549.85092 213.97577 563.34304 226.21875 562.375 C 208.79673 546.31279 216.33959 547.33472 215.75 540.21875 C 214.98018 530.92696 229.70728 523.35184 236.90625 517.78125 C 245.91033 521.64263 249.56802 517.19727 256.9375 509.5625 C 260.25272 506.12794 261.93606 495.5124 270.03125 502.78125 L 275.59375 497.15625 C 282.85701 500.11927 283.02494 509.96079 280.84375 518.78125 C 277.58357 531.96624 273.81193 539.42997 273.65625 547.21875 C 273.60525 549.77279 279.14234 549.81953 279.09375 552.78125 C 278.76505 572.85933 284.49131 573.74996 299.71875 591.03125 L 299.71875 298.875 z M 242.9375 242.09375 C 243.56805 272.04151 252.45207 286.95482 260.65625 298.84375 L 299.6875 298.84375 L 242.9375 242.09375 z "
       id="path3288" />
    <path
       id="path3007-6"
       d="m 350.67788,358.2977 c 1.22023,4.17639 2.62113,10.55032 1.74844,11.98904"
       inkscape:connector-curvature="0"
       style="fill:#cc0000;stroke:#000000;stroke-width:2.15022922;stroke-linecap:round;stroke-linejoin:round" />
    <path
       id="path3015-0"
       d="m 350.63487,113.81663 c -1.33079,3.88138 -1.19836,7.33315 0.2017,10.32261 -0.46318,17.77659 14.47642,19.52623 18.43112,9.31995 -6.63346,3.40511 -15.00129,2.42611 -11.24119,-7.792 6.51692,-1.92832 8.08981,-6.40274 3.07978,-12.98674"
       inkscape:connector-curvature="0"
       style="fill:#008800;stroke:#000000;stroke-width:2.15022921999999990;stroke-linecap:round;stroke-linejoin:round" />
    <path
       id="path3069-1"
       d="m 363.42874,75.392035 c -1.40494,2.48201 1.99993,5.574255 4.68363,4.983157 3.07977,-0.678419 6.80289,-4.062428 5.85163,-7.223911 -0.72875,-2.422018 -2.13083,-7.575042 -6.0043,-3.474555 -1.48187,1.568678 -3.54315,3.970183 -4.53096,5.715524 z"
       inkscape:connector-curvature="0"
       style="fill:#ffffff;stroke:#000000;stroke-width:2.15022922;stroke-linecap:round;stroke-linejoin:round" />
    <path
       id="path3071-8"
       d="m 354.6558,92.228331 c 3.35931,-3.550244 4.74706,-5.11303 7.77652,-14.772505 2.00348,-5.34246 10.85157,-13.619553 14.78304,-14.2042"
       inkscape:connector-curvature="0"
       style="fill:none;stroke:#000000;stroke-width:2.15022922;stroke-linecap:round;stroke-linejoin:round" />
    <path
       id="path3108-3"
       d="m 500.77464,96.915831 c 10.80146,3.057626 15.74096,13.479569 11.42954,21.947389"
       inkscape:connector-curvature="0"
       style="fill:none;stroke:#000000;stroke-width:2.15022922;stroke-linecap:round;stroke-linejoin:round" />
    <path
       id="path3114-1"
       d="m 387.4468,223.90837 c -0.0574,5.33515 10.32605,57.35307 15.94804,68.10422"
       inkscape:connector-curvature="0"
       style="fill:none;stroke:#000000;stroke-width:2.15022921999999990;stroke-linecap:round;stroke-linejoin:round" />
    <path
       id="path3116-2"
       d="m 417.30273,211.73808 c -0.0574,5.33514 15.11698,71.81765 20.73897,82.56665"
       inkscape:connector-curvature="0"
       style="fill:none;stroke:#000000;stroke-width:2.15022921999999990;stroke-linecap:round;stroke-linejoin:round" />
    <path
       id="path3118-7"
       d="m 451.06133,204.62082 c -0.0574,5.33515 25.03942,89.24956 30.66227,99.99856"
       inkscape:connector-curvature="0"
       style="fill:none;stroke:#000000;stroke-width:2.15022921999999990;stroke-linecap:round;stroke-linejoin:round" />
    <path
       id="path3120-6"
       d="m 479.8099,192.68704 c -0.0574,5.33515 11.85056,45.415 17.47233,56.16614"
       inkscape:connector-curvature="0"
       style="fill:none;stroke:#000000;stroke-width:2.15022921999999990;stroke-linecap:round;stroke-linejoin:round" />
    <path
       style="fill:none;stroke:#000000;stroke-width:2.15022921999999990;stroke-linecap:round;stroke-linejoin:round"
       d="m 365.81549,223.30631 c 0,0 6.23889,11.21043 11.21538,7.69072 4.9765,-3.51949 2.50438,-11.5936 3.15783,-10.67524"
       id="path3351" />
    <path
       style="fill:#ffffff;stroke:#000000;stroke-width:2.15022921999999990;stroke-linecap:round;stroke-linejoin:round"
       d="m 380.1887,220.32179 c 0.65333,0.9183 7.437,11.6966 12.8487,8.72391 5.41169,-2.97269 2.28655,-13.54494 2.28655,-13.54494 0,0 4.20735,10.70148 10.34432,6.65776 6.13697,-4.04372 3.26663,-19.97305 3.26663,-19.97305 0,0 3.32985,17.99742 10.12651,14.80755 6.79666,-3.18986 5.6622,-13.20069 5.6622,-13.20069 0,0 -0.0645,14.13755 7.29551,15.49628 7.36002,1.35877 5.6622,-12.51197 6.09762,-11.59361 0.43555,0.9183 2.06736,13.44517 8.92883,11.70843 6.86138,-1.73683 5.70176,-16.16779 5.70176,-16.16779 -0.53967,0.42669 7.16026,17.14184 15.88976,12.73409 8.7295,-4.40776 1.7103,-13.55483 1.7103,-13.55483 0,0 9.56314,8.23473 13.5344,2.24312 3.97126,-5.99162 -5.11733,-15.66937 -5.11733,-15.66937 0,0 8.92775,5.41686 11.45492,-0.8075 2.52716,-6.22435 -8.58652,-17.27365 -12.68528,-16.29981 l -0.21778,0"
       id="path3110-5" />
    <path
       id="path3112-2"
       d="m 366.43906,224.35992 c -6.22878,6.04021 1.97191,56.77466 8.06852,65.54759"
       inkscape:connector-curvature="0"
       style="fill:none;stroke:#000000;stroke-width:2.15022921999999990;stroke-linecap:round;stroke-linejoin:round" />
    <path
       id="path3122-0"
       d="m 517.63243,162.56233 c -0.77756,24.77709 13.07791,83.97936 21.76677,91.78039"
       inkscape:connector-curvature="0"
       style="fill:#ffffff;stroke:#000000;stroke-width:2.15022921999999990;stroke-linecap:round;stroke-linejoin:round" />
    <path
       id="path3124-0"
       d="m 494.45296,194.40723 c 0,0 -2.86109,8.20248 3.26405,7.80576 6.12514,-0.39652 1.88414,-26.14249 5.12314,-26.58974 0,0 1.57665,7.48345 6.40789,2.74886 4.83114,-4.73481 1.23387,-16.03104 1.23387,-16.03104 0,0 4.33121,3.80032 7.16542,0.2103 2.83422,-3.58996 -1.65111,-13.8535 -2.87055,-12.70463"
       inkscape:connector-curvature="0"
       style="fill:#ffffff;stroke:#000000;stroke-width:2.15022921999999990;stroke-linecap:round;stroke-linejoin:round" />
    <path
       id="path3031-8"
       d="m 411.08857,52.793126 c 13.61762,0.123423 19.79329,11.429113 10.95262,27.282109 0.76852,-6.936425 0.24722,-13.985307 -7.39141,-11.960651 -4.40259,1.166908 -5.3846,10.974986 -14.37966,9.676032 -8.84518,9.381451 -25.18993,18.326835 -27.88632,26.609084 22.44839,-6.375856 41.44352,-8.316653 52.27637,0 -20.33751,1.6935 -41.49082,2.09112 -57.51863,10.34798 -0.023,0.002 -0.0441,-0.002 -0.0671,0 -2.09116,1.1407 -3.65216,0.57661 -5.91313,-2.08303 -0.77832,-1.63188 -2.5392,-2.49857 -1.47828,-5.50996 -0.37625,-3.43091 -2.25968,-7.04287 0.13439,-10.011903 1.18316,-1.176282 1.92706,-2.568878 6.51777,-2.284618 1.61732,-7.704702 18.71366,-12.718176 16.66428,-20.1584 1.31837,-5.194739 0.36204,-6.578411 -0.54239,-10.413775 4.65159,-6.655175 6.79214,-5.823466 9.68076,-6.116113 7.13596,-3.783113 13.6202,-5.423953 18.94889,-5.375573 z"
       inkscape:connector-curvature="0"
       style="fill:#ffdd00;stroke:#000000;stroke-width:2.15022921999999990px;stroke-linecap:round;stroke-linejoin:round" />
    <path
       id="path3036-8"
       d="m 399.70311,60.963997 c -1.63454,-1.345227 -4.59934,-0.370356 -7.6531,1.045312 0.2748,2.072241 0.30041,3.28297 2.71789,2.411698 z"
       inkscape:connector-curvature="0"
       style="fill:#cc0000;stroke:#000000;stroke-width:2.15022922px" />
    <path
       id="path3038-1"
       d="m 371.59961,78.638882 c 2.03214,-4.733945 -3.04408,-10.109733 -5.26226,-7.109949 -2.0628,5.127222 2.21152,9.1417 3.35888,8.316012 z"
       inkscape:connector-curvature="0"
       style="stroke:#000000;stroke-width:2.15022922" />
    <path
       id="path3040-7"
       d="m 363.47174,75.392035 c -1.40493,2.48201 1.99993,5.574255 4.68363,4.983157 3.07978,-0.678419 6.8029,-4.062428 5.85164,-7.223911 -0.72876,-2.422018 -2.13084,-7.575042 -6.0043,-3.474555 -1.48188,1.568678 -3.54315,3.970183 -4.53097,5.715524 z"
       inkscape:connector-curvature="0"
       style="fill:none;stroke:#000000;stroke-width:2.15022922;stroke-linecap:round;stroke-linejoin:round" />
    <path
       id="path3260-1"
       d="m 159.71817,63.458263 c 1.13942,-0.06257 2.31966,0.427895 3.69473,1.021617 -1.37563,1.017316 -1.95114,1.416958 -3.08901,4.661267 -0.45489,1.296911 -2.46202,14.552967 10.96294,15.962872 13.42496,1.409862 51.06794,4.800602 62.99097,22.859091 l -1.39309,0.95777 c 0,0 -7.05534,-7.36754 -23.25903,-12.131805 -13.51721,-3.974484 -26.53813,-5.932053 -37.12801,-4.214235 -10.5901,1.717862 -13.92639,-3.621416 -17.98904,-8.811424 -2.25301,-2.878297 -3.08902,-8.747778 -3.08902,-8.747778 -3.1589,-1.577795 -3.09482,-6.542288 -3.69474,-9.258458 1.39077,2.892059 3.19396,4.666643 5.81465,4.533544 2.4661,-5.136038 4.27896,-6.728068 6.17804,-6.832139 z"
       inkscape:connector-curvature="0"
       style="fill:#ffdd00;stroke:#000000;stroke-width:2.15022921999999990;stroke-linecap:round;stroke-linejoin:round" />
    <path
       id="path3274-8"
       d="m 249.31607,358.2977 c -1.22023,4.17639 -2.62113,10.55032 -1.74844,11.98904"
       inkscape:connector-curvature="0"
       style="fill:#cc0000;stroke:#000000;stroke-width:2.15022922;stroke-linecap:round;stroke-linejoin:round" />
    <path
       id="path3276-2"
       d="m 249.35907,113.81663 c 1.3308,3.88138 1.19837,7.33315 -0.20169,10.32261 0.46318,17.77659 -14.47642,19.52623 -18.43112,9.31995 6.63346,3.40511 15.00129,2.42611 11.24119,-7.792 -6.51692,-1.92832 -8.08981,-6.40274 -3.07978,-12.98674"
       inkscape:connector-curvature="0"
       style="fill:#ffffff;stroke:#000000;stroke-width:2.15022921999999990;stroke-linecap:round;stroke-linejoin:round" />
    <path
       id="path3278-0"
       d="m 236.56521,75.392035 c 1.40494,2.48201 -1.99993,5.574255 -4.68363,4.983157 -3.07977,-0.678419 -6.80289,-4.062428 -5.85163,-7.223911 0.72875,-2.422018 2.13083,-7.575042 6.0043,-3.474555 1.48187,1.568678 3.54315,3.970183 4.53096,5.715524 z"
       inkscape:connector-curvature="0"
       style="fill:#ffffff;stroke:#000000;stroke-width:2.15022922;stroke-linecap:round;stroke-linejoin:round" />
    <path
       id="path3280-3"
       d="m 245.33815,92.228331 c -3.35931,-3.550244 -4.74707,-5.11303 -7.77652,-14.772505 -2.00348,-5.34246 -10.85157,-13.619553 -14.78304,-14.2042"
       inkscape:connector-curvature="0"
       style="fill:none;stroke:#000000;stroke-width:2.15022922;stroke-linecap:round;stroke-linejoin:round" />
    <path
       style="fill:#008800;stroke:#000000;stroke-width:2.15022922;stroke-linecap:round;stroke-linejoin:round"
       d="m 272.03332,328.67094 c 1.94795,9.49391 1.31084,10.34927 1.10274,18.22319 -0.1202,4.54903 -3.5554,1.94906 -5.23559,0.64935 -1.98363,-1.53434 -3.11762,-6.39951 -3.54186,-9.57777"
       id="path3284-2"
       inkscape:connector-curvature="0" />
    <path
       id="path3286-8"
       d="M 99.219314,96.915831 C 88.417852,99.973457 83.478345,110.3954 87.78977,118.86322"
       inkscape:connector-curvature="0"
       style="fill:#008800;stroke:#000000;stroke-width:2.15022921999999990;stroke-linecap:round;stroke-linejoin:round" />
    <path
       id="path3288-9"
       d="m 212.53726,223.90837 c 0.0574,5.33515 -10.32605,57.35307 -15.94804,68.10422"
       inkscape:connector-curvature="0"
       style="fill:#008800;stroke:#000000;stroke-width:2.15022921999999990;stroke-linecap:round;stroke-linejoin:round" />
    <path
       id="path3290-5"
       d="m 182.70283,211.73808 c 0.0574,5.33514 -15.11698,71.81765 -20.73897,82.56665"
       inkscape:connector-curvature="0"
       style="fill:#008800;stroke:#000000;stroke-width:2.15022921999999990;stroke-linecap:round;stroke-linejoin:round" />
    <path
       id="path3292-5"
       d="m 148.94767,204.62082 c 0.0559,5.33687 -25.03942,89.24741 -30.66227,99.99856"
       inkscape:connector-curvature="0"
       style="fill:#008800;stroke:#000000;stroke-width:2.15022921999999990;stroke-linecap:round;stroke-linejoin:round" />
    <path
       id="path3294-2"
       d="m 120.20125,192.68704 c 0.0574,5.33515 -11.85056,45.415 -17.47233,56.16614"
       inkscape:connector-curvature="0"
       style="fill:#008800;stroke:#000000;stroke-width:2.15022921999999990;stroke-linecap:round;stroke-linejoin:round" />
    <path
       style="fill:none;stroke:#000000;stroke-width:2.15022922;stroke-linecap:round;stroke-linejoin:round"
       d="m 234.18061,223.30631 c 0,0 -6.23889,11.21043 -11.21538,7.69072 -4.9765,-3.51949 -2.50438,-11.5936 -3.15783,-10.67524"
       id="path3295" />
    <path
       style="fill:#008800;stroke:#000000;stroke-width:2.15022921999999990;stroke-linecap:round;stroke-linejoin:round"
       d="m 219.8074,220.32179 c -0.65333,0.9183 -7.437,11.6966 -12.8487,8.72391 -5.41169,-2.97269 -2.28655,-13.54494 -2.28655,-13.54494 0,0 -4.20735,10.70148 -10.34432,6.65776 -6.13697,-4.04372 -3.26663,-19.97305 -3.26663,-19.97305 0,0 -3.32985,17.99742 -10.12651,14.80755 -6.79666,-3.18986 -5.6622,-13.20069 -5.6622,-13.20069 0,0 0.0645,14.13755 -7.29551,15.49628 -7.36002,1.35877 -5.6622,-12.51197 -6.09762,-11.59361 -0.43555,0.9183 -2.06736,13.44517 -8.92883,11.70843 -6.86138,-1.73683 -5.70176,-16.16779 -5.70176,-16.16779 0.53967,0.42669 -7.16026,17.14184 -15.88976,12.73409 -8.7295,-4.40776 -1.7103,-13.55483 -1.7103,-13.55483 0,0 -9.56314,8.23473 -13.5344,2.24312 -3.97126,-5.99162 5.11733,-15.66937 5.11733,-15.66937 0,0 -8.92775,5.41686 -11.45492,-0.8075 -2.52716,-6.22435 8.58652,-17.27365 12.68528,-16.29981 l 0.21778,0"
       id="path3296-1" />
    <path
       id="path3298-6"
       d="m 233.54844,224.35992 c 6.22878,6.04021 -1.97191,56.77466 -8.06852,65.54759"
       inkscape:connector-curvature="0"
       style="fill:none;stroke:#000000;stroke-width:2.15022921999999990;stroke-linecap:round;stroke-linejoin:round" />
    <path
       id="path3300-5"
       d="M 82.367967,162.56233 C 83.1442,187.33942 69.290272,246.53524 60.599045,254.34057"
       inkscape:connector-curvature="0"
       style="fill:#008800;stroke:#000000;stroke-width:2.15022921999999990;stroke-linecap:round;stroke-linejoin:round" />
    <path
       id="path3302-1"
       d="m 105.56249,194.40723 c 0,0 2.8611,8.20248 -3.26405,7.80576 -6.125141,-0.39652 -1.88414,-26.14249 -5.123134,-26.58974 0,0 -1.576656,7.48345 -6.407898,2.74886 -4.831136,-4.73481 -1.233867,-16.03104 -1.233867,-16.03104 0,0 -4.331206,3.80032 -7.165424,0.2103 -2.834217,-3.58996 1.651118,-13.8535 2.870556,-12.70463"
       inkscape:connector-curvature="0"
       style="fill:#008800;stroke:#000000;stroke-width:2.15022921999999990;stroke-linecap:round;stroke-linejoin:round" />
    <path
       id="path3304-5"
       d="m 188.92559,52.793126 c -13.61762,0.123423 -19.79329,11.429113 -10.95262,27.282109 -0.76852,-6.936425 -0.24721,-13.985307 7.39141,-11.960651 4.40259,1.166908 5.3846,10.974986 14.37966,9.676032 8.84518,9.381451 25.18994,18.326835 27.88632,26.609084 -22.44839,-6.375856 -41.44352,-8.316653 -52.27637,0 20.33751,1.6935 41.49082,2.09112 57.51863,10.34798 0.023,0.002 0.0441,-0.002 0.0671,0 2.09116,1.1407 3.65216,0.57661 5.91313,-2.08303 0.77832,-1.63188 2.53921,-2.49857 1.47828,-5.50996 0.37625,-3.43091 2.25968,-7.04287 -0.13439,-10.011903 -1.18316,-1.176282 -1.92705,-2.568878 -6.51799,-2.284618 -1.61731,-7.704702 -18.71366,-12.718176 -16.66427,-20.1584 -1.31837,-5.194739 -0.36204,-6.578411 0.54239,-10.413775 -4.65159,-6.655175 -6.79214,-5.823466 -9.68076,-6.116113 -7.13597,-3.783113 -13.6202,-5.423953 -18.9489,-5.375573 z"
       inkscape:connector-curvature="0"
       style="fill:#ffdd00;stroke:#000000;stroke-width:2.15022921999999990px;stroke-linecap:round;stroke-linejoin:round" />
    <path
       id="path3306-4"
       d="m 200.3003,60.963997 c 1.63454,-1.345227 4.59934,-0.370356 7.6531,1.045312 -0.2748,2.072241 -0.30041,3.28297 -2.71789,2.411698 z"
       inkscape:connector-curvature="0"
       style="fill:#cc0000;stroke:#000000;stroke-width:2.15022922px" />
    <path
       id="path3308-5"
       d="m 228.38574,78.638882 c -2.03214,-4.733945 3.04408,-10.109733 5.26225,-7.109949 2.06281,5.127222 -2.21151,9.1417 -3.35887,8.316012 z"
       inkscape:connector-curvature="0"
       style="stroke:#000000;stroke-width:2.15022922" />
    <path
       id="path3310-6"
       d="m 236.52221,75.392035 c 1.40493,2.48201 -1.99993,5.574255 -4.68363,4.983157 -3.07978,-0.678419 -6.8029,-4.062428 -5.85164,-7.223911 0.72876,-2.422018 2.13084,-7.575042 6.0043,-3.474555 1.48188,1.568678 3.54315,3.970183 4.53097,5.715524 z"
       inkscape:connector-curvature="0"
       style="fill:none;stroke:#000000;stroke-width:2.15022922;stroke-linecap:round;stroke-linejoin:round" />
    <path
       style="fill:#008800;fill-opacity:1;fill-rule:evenodd;stroke:#000000;stroke-width:1px;stroke-linecap:butt;stroke-linejoin:miter;stroke-opacity:1;display:inline"
       d="M 248.71875 276.53125 C 245.97572 284.07602 241.86883 291.29859 237.3125 298.84375 L 260.65625 298.84375 C 256.44803 292.74549 252.07911 285.84179 248.71875 276.53125 z "
       id="path3328" />
    <path
       inkscape:connector-curvature="0"
       style="fill:#ffffff;stroke:#000000;stroke-width:2.15022921999999990;stroke-linecap:round;stroke-linejoin:round;display:inline"
       d="m 351.28126,276.5625 c -3.36559,9.29482 -7.73259,16.18819 -11.93751,22.28126 l 23.34376,0 c -4.55081,-7.53669 -8.66321,-14.74673 -11.40625,-22.28126 z"
       id="path3236" />
    <path
       id="path3001-1"
       d="m 212.98021,47.67558 c -6.82075,0.315438 -11.23216,6.24061 -5.03971,10.482368 -25.37271,-13.45119 -42.20255,-0.149441 -29.90109,21.906536 -0.76851,-6.936425 -0.24721,-13.985307 7.39141,-11.960651 4.4026,1.166908 5.3173,10.974986 14.31236,9.676032 8.84518,9.381451 25.18993,18.326834 27.88632,26.609085 -22.44839,-6.375857 -41.37686,-8.316654 -52.20972,0 21.24126,1.76876 43.42174,2.118 59.66887,11.4904 27.85407,7.25337 25.92101,44.89249 36.75602,69.54701 l -4.50215,4.70363 c -12.98631,-2.31623 -22.19252,15.93836 -23.4504,28.96144 -6.39586,66.19051 19.47484,76.77179 28.01963,98.23968 11.44288,28.74426 8.0023,22.23982 12.29674,50.26161 1.09945,7.17445 -6.68528,5.37901 -5.84605,33.73279 0.5608,18.94481 -1.34391,35.32397 -4.9724,38.09992 -2.79659,2.1395 -17.04121,0.3582 -8.93679,-15.99233 -23.86754,5.94129 -11.92366,31.79329 0.47037,37.09145 13.39227,5.72499 19.02867,-5.4074 19.82253,-7.66019 -0.55222,19.33766 -24.35135,33.08773 -52.81393,27.2133 -11.83529,-2.44287 -30.37629,18.73774 -24.66098,32.38675 1.61813,0.7416 5.03928,-2.01115 7.05533,-3.15825 -5.17388,5.7166 -13.76835,19.78039 -9.74312,33.05977 2.26613,7.47592 9.39263,20.99205 21.63561,20.02401 -17.42202,-16.06221 -9.89278,-15.05719 -10.48237,-22.17316 -0.76982,-9.29179 13.96746,-16.8735 21.16643,-22.44409 9.00408,3.86138 12.65453,-0.56298 20.02401,-8.19775 3.31522,-3.43456 5.00788,-14.05541 13.10307,-6.78656 l 5.57726,-5.64435 c 7.26326,2.96302 7.42238,12.81515 5.24119,21.63561 -3.26018,13.18499 -7.03426,20.6351 -7.18994,28.42388 -0.051,2.55404 5.49125,2.61554 5.44266,5.57726 -0.33079,20.20571 5.45148,20.9684 20.89765,38.57082 15.44595,-17.60135 21.22835,-18.36404 20.89765,-38.57082 -0.0486,-2.96172 5.49383,-3.023 5.44266,-5.57726 -0.15568,-7.78813 -3.92976,-15.23825 -7.18994,-28.42388 -2.18119,-8.82153 -2.02218,-18.67367 5.24118,-21.63561 l 5.57727,5.64435 c 8.09497,-7.26885 9.78784,3.352 13.10307,6.78656 7.36948,7.63482 11.01992,12.05913 20.02401,8.19775 7.19896,5.56952 21.93664,13.15123 21.16642,22.44409 -0.58965,7.11704 6.93965,6.11203 -10.48236,22.17316 12.24405,0.9681 19.37055,-12.54809 21.6356,-20.02401 4.02523,-13.27938 -4.56945,-27.34231 -9.74312,-33.05977 2.01625,1.14699 5.43729,3.89965 7.05534,3.15825 5.71488,-13.65008 -12.82505,-34.83156 -24.66098,-32.38675 -28.46259,5.87486 -52.26348,-7.87607 -52.81394,-27.2133 0.79374,2.25279 6.43026,13.38518 19.82254,7.66019 12.39392,-5.29816 24.33844,-31.15037 0.47036,-37.09145 8.10443,16.35055 -6.14019,18.1318 -8.93678,15.99233 -3.62851,-2.77574 -5.53319,-19.15446 -4.97241,-38.09992 0.8393,-28.35292 -6.94545,-26.55748 -5.84604,-33.73279 4.29422,-28.02179 0.8537,-21.51735 12.29673,-50.26161 8.54544,-21.46574 34.41657,-32.04702 28.01964,-98.23968 -1.25834,-13.02265 -10.46474,-31.27724 -23.4504,-28.96144 l -4.50215,-4.70363 c 10.83371,-24.65237 8.90044,-62.29214 36.75602,-69.54701 16.24777,-9.37221 38.42674,-9.72162 59.66886,-11.4904 -10.83393,-8.316654 -29.76132,-6.375857 -52.20972,0 2.69531,-8.282251 19.0405,-17.227634 27.88633,-26.609085 8.99505,1.298975 9.90976,-8.509102 14.31235,-9.676032 7.63869,-2.02457 8.15991,5.024226 7.39142,11.960651 12.29995,-22.054902 -4.52925,-35.356221 -29.90109,-21.906536 6.60529,-4.524513 1.12579,-10.980361 -6.45069,-10.482368 -3.44381,0.226397 -7.30239,1.902781 -10.68406,5.846043 -8.05433,-18.555404 -27.86482,23.564363 -41.2586,15.320384 2.49341,8.610593 7.21337,8.24785 13.17015,7.122635 -4.06823,6.982224 -14.30827,9.973623 -19.15037,15.589162 1.83901,1.187873 3.10257,1.604587 6.78656,1.343893 -19.10307,15.155893 -16.54838,32.986663 -34.47033,46.096613 -17.92238,-13.10973 -15.36769,-30.93965 -34.47033,-46.096613 3.68399,0.260694 4.94768,-0.156106 6.78656,-1.343893 -4.84232,-5.615539 -15.08236,-8.606938 -19.15037,-15.589162 5.95678,1.125322 10.67674,1.48798 13.17015,-7.122635 -13.3927,8.243979 -33.20384,-33.876863 -41.2586,-15.320384 -3.38145,-3.94309 -7.24004,-5.619624 -10.68406,-5.846043 -0.47352,-0.03118 -0.95638,-0.0215 -1.41109,0 z"
       inkscape:connector-curvature="0"
       style="fill:none;stroke:#000000;stroke-width:2.15022921999999990;stroke-linecap:round;stroke-linejoin:round" />
    <path
       inkscape:connector-curvature="0"
       id="path3486"
       d="m 327.96668,328.67094 c -1.94795,9.49391 -1.31084,10.34927 -1.10274,18.22319 0.1202,4.54903 3.5554,1.94906 5.23559,0.64935 1.98363,-1.53434 3.11762,-6.39951 3.54186,-9.57777"
       style="fill:#ffffff;stroke:#000000;stroke-width:2.15022921999999990;stroke-linecap:round;stroke-linejoin:round" />
  </g>
  <g
     inkscape:groupmode="layer"
     id="layer1"
     inkscape:label="Cover"
     style="display:inline"
     sodipodi:insensitive="true">
    <path
       d="m 2,2 v 257 c 0,286 298,398 298,398 0,0 298,-112 298,-398 V 2 z"
       id="shine"
       inkscape:connector-curvature="0"
       style="fill:url(#radialGradient3074);stroke:#000000;stroke-width:3" />
  </g>
</svg>
