<?xml version="1.0" encoding="UTF-8" standalone="no"?>
<svg
   xmlns:dc="http://purl.org/dc/elements/1.1/"
   xmlns:cc="http://creativecommons.org/ns#"
   xmlns:rdf="http://www.w3.org/1999/02/22-rdf-syntax-ns#"
   xmlns:svg="http://www.w3.org/2000/svg"
   xmlns="http://www.w3.org/2000/svg"
   xmlns:xlink="http://www.w3.org/1999/xlink"
   xmlns:sodipodi="http://sodipodi.sourceforge.net/DTD/sodipodi-0.dtd"
   xmlns:inkscape="http://www.inkscape.org/namespaces/inkscape"
   width="600"
   height="660"
   id="svg2"
   version="1.1"
   inkscape:version="0.48.2 r9819"
   sodipodi:docname="House_Greyjoy_(Euron).svg">
  <metadata
     id="metadata24">
    <rdf:RDF>
      <cc:Work
         rdf:about="">
        <dc:format>image/svg+xml</dc:format>
        <dc:type
           rdf:resource="http://purl.org/dc/dcmitype/StillImage" />
        <dc:title />
      </cc:Work>
    </rdf:RDF>
  </metadata>
  <sodipodi:namedview
     pagecolor="#ffffff"
     bordercolor="#666666"
     borderopacity="1"
     objecttolerance="10"
     gridtolerance="10"
     guidetolerance="10"
     inkscape:pageopacity="0"
     inkscape:pageshadow="2"
     inkscape:window-width="1366"
     inkscape:window-height="715"
     id="namedview22"
     showgrid="false"
     inkscape:zoom="0.71515155"
     inkscape:cx="211.64799"
     inkscape:cy="407.673"
     inkscape:window-x="-8"
     inkscape:window-y="-8"
     inkscape:window-maximized="1"
     inkscape:current-layer="layer2" />
  <defs
     id="defs4">
    <inkscape:path-effect
       is_visible="true"
       id="path-effect3136"
       effect="spiro" />
    <inkscape:path-effect
       effect="spiro"
       id="path-effect3132"
       is_visible="true" />
    <inkscape:path-effect
       effect="spiro"
       id="path-effect3101"
       is_visible="true" />
    <inkscape:path-effect
       is_visible="true"
       id="path-effect3085"
       effect="spiro" />
    <inkscape:path-effect
       is_visible="true"
       id="path-effect3083"
       effect="spiro" />
    <inkscape:path-effect
       is_visible="true"
       id="path-effect3081"
       effect="spiro" />
    <inkscape:path-effect
       is_visible="true"
       id="path-effect3079"
       effect="spiro" />
    <inkscape:path-effect
       is_visible="true"
       id="path-effect3077"
       effect="spiro" />
    <inkscape:path-effect
       is_visible="true"
       id="path-effect3075"
       effect="spiro" />
    <inkscape:path-effect
       effect="spiro"
       id="path-effect3049"
       is_visible="true" />
    <inkscape:path-effect
       is_visible="true"
       id="path-effect3045"
       effect="spiro" />
    <inkscape:path-effect
       effect="spiro"
       id="path-effect3041"
       is_visible="true" />
    <radialGradient
       id="rg"
       gradientUnits="userSpaceOnUse"
       cx="220"
       cy="220"
       r="405">
      <stop
         style="stop-color:#fff;stop-opacity:.3"
         offset="0"
         id="stop7" />
      <stop
         style="stop-color:#fff;stop-opacity:.2"
         offset=".2"
         id="stop9" />
      <stop
         style="stop-color:#666;stop-opacity:.1"
         offset=".6"
         id="stop11" />
      <stop
         style="stop-color:#000;stop-opacity:.13"
         offset="1"
         id="stop13" />
    </radialGradient>
    <path
       id="shield"
       d="m2,2v257c0,286 298,398 298,398c0,0 298-112 298-398V2z" />
    <radialGradient
       inkscape:collect="always"
       xlink:href="#rg-7"
       id="radialGradient3055-1"
       gradientUnits="userSpaceOnUse"
       cx="220"
       cy="220"
       r="405" />
    <radialGradient
       id="rg-7"
       gradientUnits="userSpaceOnUse"
       cx="220"
       cy="220"
       r="405">
      <stop
         style="stop-color:#fff;stop-opacity:.3"
         offset="0"
         id="stop7-4" />
      <stop
         style="stop-color:#fff;stop-opacity:.2"
         offset=".2"
         id="stop9-0" />
      <stop
         style="stop-color:#666;stop-opacity:.1"
         offset=".6"
         id="stop11-9" />
      <stop
         style="stop-color:#000;stop-opacity:.13"
         offset="1"
         id="stop13-4" />
    </radialGradient>
    <radialGradient
       r="405"
       cy="220"
       cx="220"
       gradientUnits="userSpaceOnUse"
       id="radialGradient3074"
       xlink:href="#rg-7"
       inkscape:collect="always" />
    <inkscape:path-effect
       is_visible="true"
       id="path-effect10120-1"
       effect="spiro" />
    <inkscape:path-effect
       effect="spiro"
       id="path-effect10118-3"
       is_visible="true" />
    <inkscape:path-effect
       effect="spiro"
       id="path-effect10116-9"
       is_visible="true" />
    <inkscape:path-effect
       effect="spiro"
       id="path-effect10114-7"
       is_visible="true" />
    <inkscape:path-effect
       effect="spiro"
       id="path-effect10112-7"
       is_visible="true" />
    <inkscape:path-effect
       effect="spiro"
       id="path-effect10110-2"
       is_visible="true" />
    <linearGradient
       inkscape:collect="always"
       xlink:href="#linearGradient4719-5"
       id="linearGradient4039"
       gradientUnits="userSpaceOnUse"
       gradientTransform="matrix(2.3257341,0,0,2.2943177,447.69485,-1820.2799)"
       x1="-145.25935"
       y1="984.24286"
       x2="-64.14286"
       y2="984.14789" />
    <linearGradient
       inkscape:collect="always"
       id="linearGradient4719-5">
      <stop
         style="stop-color:#666666;stop-opacity:1;"
         offset="0"
         id="stop4721-5" />
      <stop
         id="stop4809-1"
         offset="0.39344174"
         style="stop-color:#666666;stop-opacity:0.74901961;" />
      <stop
         style="stop-color:#666666;stop-opacity:0;"
         offset="1"
         id="stop4723-7" />
    </linearGradient>
    <radialGradient
       inkscape:collect="always"
       xlink:href="#linearGradient4801-8"
       id="radialGradient4041"
       gradientUnits="userSpaceOnUse"
       gradientTransform="matrix(-0.72153181,1.2650715,-2.2729984,-1.2616144,1712.0113,1733.7841)"
       cx="-307.14288"
       cy="782.36218"
       fx="-307.14288"
       fy="782.36218"
       r="63" />
    <linearGradient
       inkscape:collect="always"
       id="linearGradient4801-8">
      <stop
         style="stop-color:#000000;stop-opacity:1;"
         offset="0"
         id="stop4803-2" />
      <stop
         style="stop-color:#000000;stop-opacity:0;"
         offset="1"
         id="stop4805-4" />
    </linearGradient>
    <inkscape:path-effect
       effect="spiro"
       id="path-effect10108-4"
       is_visible="true" />
    <linearGradient
       inkscape:collect="always"
       xlink:href="#linearGradient4719-5"
       id="linearGradient4044"
       gradientUnits="userSpaceOnUse"
       gradientTransform="matrix(-2.4055369,0,0,-1.6485021,142.06168,1726.5307)"
       x1="-145.25935"
       y1="984.24286"
       x2="-64.14286"
       y2="984.14789" />
    <radialGradient
       inkscape:collect="always"
       xlink:href="#linearGradient4801-8"
       id="radialGradient4046"
       gradientUnits="userSpaceOnUse"
       gradientTransform="matrix(0.74628962,-0.90897301,2.3509914,0.90648896,-1165.637,-827.11785)"
       cx="-307.14288"
       cy="782.36218"
       fx="-307.14288"
       fy="782.36218"
       r="63" />
    <inkscape:path-effect
       effect="spiro"
       id="path-effect10102-7"
       is_visible="true" />
    <linearGradient
       inkscape:collect="always"
       xlink:href="#linearGradient4719-5"
       id="linearGradient4049"
       gradientUnits="userSpaceOnUse"
       gradientTransform="matrix(2.334989,0,0,-1.6146975,449.44065,1692.189)"
       x1="-145.25935"
       y1="984.24286"
       x2="-64.14286"
       y2="984.14789" />
    <radialGradient
       inkscape:collect="always"
       xlink:href="#linearGradient4801-8"
       id="radialGradient4051"
       gradientUnits="userSpaceOnUse"
       gradientTransform="matrix(-0.72440295,-0.89033332,-2.2820431,0.88790031,1718.7881,-809.09364)"
       cx="-307.14288"
       cy="782.36218"
       fx="-307.14288"
       fy="782.36218"
       r="63" />
    <inkscape:path-effect
       is_visible="true"
       id="path-effect10096-8"
       effect="spiro" />
    <linearGradient
       inkscape:collect="always"
       xlink:href="#linearGradient4719-5"
       id="linearGradient4054"
       gradientUnits="userSpaceOnUse"
       gradientTransform="matrix(-2.409599,0,0,2.2818507,139.61083,-1810.8163)"
       x1="-145.25935"
       y1="984.24286"
       x2="-64.14286"
       y2="984.14789" />
    <radialGradient
       inkscape:collect="always"
       xlink:href="#linearGradient4801-8"
       id="radialGradient4056"
       gradientUnits="userSpaceOnUse"
       gradientTransform="matrix(0.74754985,1.2581972,2.3549614,-1.2547588,-1170.296,1723.935)"
       cx="-307.14288"
       cy="782.36218"
       fx="-307.14288"
       fy="782.36218"
       r="63" />
    <inkscape:path-effect
       is_visible="true"
       id="path-effect10090-3"
       effect="spiro" />
    <inkscape:path-effect
       effect="spiro"
       id="path-effect10084-1"
       is_visible="true" />
    <inkscape:path-effect
       effect="spiro"
       id="path-effect10082-1"
       is_visible="true" />
    <radialGradient
       inkscape:collect="always"
       xlink:href="#linearGradient4801-8"
       id="radialGradient4061"
       gradientUnits="userSpaceOnUse"
       gradientTransform="matrix(-0.76516322,1.2901254,-2.4104477,-1.2865998,1806.8444,1757.4704)"
       cx="-307.14288"
       cy="782.36218"
       fx="-307.14288"
       fy="782.36218"
       r="63" />
    <inkscape:path-effect
       effect="spiro"
       id="path-effect10080-4"
       is_visible="true" />
    <inkscape:path-effect
       is_visible="true"
       id="path-effect3075-1"
       effect="spiro" />
    <inkscape:path-effect
       effect="spiro"
       id="path-effect3101-7"
       is_visible="true" />
    <linearGradient
       inkscape:collect="always"
       xlink:href="#grad1-7-7"
       id="linearGradient3085-8-8"
       gradientUnits="userSpaceOnUse"
       gradientTransform="matrix(0.77469594,0,0,0.30982404,152.68996,-13.619206)"
       x1="78.877235"
       y1="178.07356"
       x2="301.40585"
       y2="178.07356" />
    <linearGradient
       id="grad1-7-7"
       x1="78.877235"
       y1="178.07356"
       x2="301.40585"
       y2="178.07356"
       gradientTransform="scale(1.577772,0.63380513)"
       gradientUnits="userSpaceOnUse">
      <stop
         offset="0%"
         style="stop-color:#da0;"
         id="stop16-4-4" />
      <stop
         offset="40%"
         style="stop-color:#fd0;"
         id="stop18-0-0" />
      <stop
         offset="60%"
         style="stop-color:#fd0;"
         id="stop20-9-9" />
      <stop
         offset="100%"
         style="stop-color:#da0;"
         id="stop22-4-4" />
    </linearGradient>
    <linearGradient
       inkscape:collect="always"
       xlink:href="#grad1-7-7"
       id="linearGradient3081-8-8"
       gradientUnits="userSpaceOnUse"
       gradientTransform="matrix(0.77469594,0,0,0.30982404,-27.310046,-13.619206)"
       x1="78.877235"
       y1="178.07356"
       x2="301.40585"
       y2="178.07356" />
    <linearGradient
       id="linearGradient3093"
       x1="78.877235"
       y1="178.07356"
       x2="301.40585"
       y2="178.07356"
       gradientTransform="scale(1.577772,0.63380513)"
       gradientUnits="userSpaceOnUse">
      <stop
         offset="0%"
         style="stop-color:#da0;"
         id="stop3095" />
      <stop
         offset="40%"
         style="stop-color:#fd0;"
         id="stop3097" />
      <stop
         offset="60%"
         style="stop-color:#fd0;"
         id="stop3099" />
      <stop
         offset="100%"
         style="stop-color:#da0;"
         id="stop3101" />
    </linearGradient>
    <linearGradient
       y2="178.07356"
       x2="301.40585"
       y1="178.07356"
       x1="78.877235"
       gradientTransform="matrix(0.77469594,0,0,0.30982404,332.68995,-13.619206)"
       gradientUnits="userSpaceOnUse"
       id="linearGradient3128-1"
       xlink:href="#grad1-7-7"
       inkscape:collect="always" />
    <linearGradient
       id="linearGradient3104"
       x1="78.877235"
       y1="178.07356"
       x2="301.40585"
       y2="178.07356"
       gradientTransform="scale(1.577772,0.63380513)"
       gradientUnits="userSpaceOnUse">
      <stop
         offset="0%"
         style="stop-color:#da0;"
         id="stop3106" />
      <stop
         offset="40%"
         style="stop-color:#fd0;"
         id="stop3108" />
      <stop
         offset="60%"
         style="stop-color:#fd0;"
         id="stop3110" />
      <stop
         offset="100%"
         style="stop-color:#da0;"
         id="stop3112" />
    </linearGradient>
  </defs>
  <g
     inkscape:groupmode="layer"
     id="layer2"
     inkscape:label="Elements"
     style="display:inline">
    <path
       inkscape:connector-curvature="0"
       style="fill:#738276;fill-opacity:1;stroke:none;display:inline;stroke-width:4;stroke-miterlimit:4;stroke-dasharray:none"
       id="path7212"
       d="m 2,2 0,257 c 0,286 298,398 298,398 0,0 298,-112 298,-398 L 598,2 z" />
    <g
       transform="matrix(-1.1847227,-0.684,-0.684,1.1847227,1166.1172,-122.81413)"
       id="g4941">
      <path
         d="m 214.15328,543.33713 1.04767,0.26916 c 2.98948,0.56466 6.59666,-0.43092 10.31802,-1.58891 5.72549,-0.57 15.38234,-6.04033 23.14986,-10.23495 3.99152,-0.74443 6.80585,-3.05846 10.01505,-4.84599 l -2.26146,5.16906 c 5.81906,0.78376 6.05704,-7.70883 10.33812,-8.72279 -1.0328,4.75301 -2.43648,9.38237 -5.16906,13.56878 1.9384,1.03323 3.8768,2.45812 5.8152,-0.64613 l 2.90759,-6.78439 c 0.3962,2.71458 0.83561,5.37876 2.9076,6.13826 1.12489,3.99423 -1.75502,7.67616 -0.32307,11.63038 5.20692,-2.23526 8.72021,-4.95442 11.95346,-7.75359 3.98448,2.77027 7.96896,4.59949 11.95345,4.52293 -13.17959,-6.88074 -13.18217,-15.43181 -6.13826,-24.8761 -0.10279,3.19161 -3.42801,6.03516 -3.12095,9.73325 9.93588,0.0511 17.56916,-2.48465 20.68675,-11.27826 0.28445,-0.80235 0.75674,-0.22466 0.64266,0.67241 -2.31309,7.43902 -8.30715,11.34087 -21.24688,11.73306 -0.36595,2.63988 0.34604,4.15321 2.39229,5.29285 4.39592,0.45007 5.01739,4.67459 7.10745,7.43053 l 5.8152,0.64613 c -2.79001,-3.24696 -2.93177,-6.05255 -4.19986,-9.04586 l 5.81519,5.16906 -0.9692,-10.01505 2.26147,1.9384 -0.32307,-2.58453 c 3.01528,0.19554 6.03057,1.83819 9.04585,0 -3.00229,-0.33606 -4.51734,-2.15937 -6.46132,-3.55373 l 0.64613,-4.52293 0,-4.846 c 0.88938,2.22314 3.79411,1.67519 2.58453,6.7844 4.51141,-1.78263 4.08729,-6.03302 4.84599,-9.69199 1.06006,0.98796 2.20217,1.89387 2.15636,3.98771 3.71827,-2.45648 5.98455,-7.99391 7.21257,-13.03357 l 1.61533,5.49213 c 4.58237,-4.60258 2.98546,-13.30286 5.49213,-19.06091 l 1.61533,1.9384 c 3.78845,-15.23829 18.24402,-11.54518 20.99931,-19.06092 l -1.29227,-0.9692 c 9.26036,-5.06839 19.59656,-0.35253 29.39903,-2.26146 -5.40532,-3.58941 -24.87426,-5.50259 -24.22997,-6.46132 8.63732,-1.94515 16.81487,0.70725 25.19917,1.29226 -5.43187,-10.75086 -16.08084,-10.79295 -26.8145,-10.66119 -4.12495,-7.59187 -13.22466,-4.46888 -20.9993,-4.19986 -5.36245,-0.7505 -8.64364,1.36072 -11.63039,3.8768 -4.82905,3.97192 -13.17473,7.50664 -19.50876,8.76958 -14.62468,2.49691 -23.18627,6.29852 -36.47901,18.36799 -4.59203,4.18884 -10.17056,8.02105 -14.16008,12.46105 -3.45587,2.11045 -6.40143,4.33531 -9.64953,6.92292 -12.12484,0.68709 -24.73838,-0.68404 -34.24502,-2.9076 0.88709,8.83665 13.18736,9.74747 24.55303,11.30733 -5.35589,2.4548 -11.52456,2.47125 -17.76864,2.26146 5.19122,4.92873 12.57181,6.76658 22.62076,4.87857 -9.90188,7.24514 -19.71818,11.94596 -30.05129,20.32062 -1.00152,1.42747 -1.13404,2.9487 0.75318,3.34157 0.058,1.30175 1.47681,3.42319 3.17616,3.69018"
         id="path4943"
         style="fill:#000000;fill-opacity:1;stroke:#333333;stroke-width:2;stroke-miterlimit:4;stroke-opacity:1;stroke-dasharray:none"
         inkscape:connector-curvature="0" />
      <path
         d="m 305.53573,536.62727 c 0.22827,2.66459 7.18716,9.64779 11.35509,9.83185 5.31141,-1.05843 8.15923,-0.357 8.97598,1.76443 1.72724,1.2615 2.68131,4.61907 0.94261,6.21553 -1.06323,-1.24663 0.54275,-1.80416 -2.29027,-3.41789 -1.14175,1.01213 -6.40241,-1.94846 -6.448,-1.01099 0.55135,1.07744 6.45537,4.42433 5.39443,6.71423 0.70107,1.49058 -0.55741,4.2251 -2.74549,3.93811 1.51839,-1.91687 0.21881,-3.12311 -0.80671,-2.92046 -1.87657,-0.60043 -3.815,-7.23269 -5.37676,-6.46644 -1.09738,1.05237 4.31012,4.21672 1.93288,7.29086 0.12289,2.13708 -0.0997,3.59107 -2.85992,3.11938 0.2634,-1.29814 0.98657,-2.50816 0.0544,-3.09502 -1.97431,0.055 -3.36178,-3.21096 -2.89631,-4.82264 0.25274,-1.91414 -1.85815,-4.26578 -3.22103,-4.13605 -2.33426,0.0173 -1.21923,3.58913 -3.9014,3.36552 l -4.47945,-0.4456 c 1.48173,-2.26302 3.39434,-4.25185 4.01583,-7.0623 1.20325,-3.28818 -1.88751,-4.60714 -2.92014,-7.17664 0.49331,-1.09636 3.58271,0.73512 4.23266,1.72194 l 1.04158,-3.40782 z"
         id="path4945"
         style="fill:#000000;fill-opacity:1;fill-rule:evenodd;stroke:#333333;stroke-width:2;stroke-miterlimit:4;stroke-opacity:1;stroke-dasharray:none"
         inkscape:connector-curvature="0" />
      <path
         d="m 283.61409,540.06092 c -0.64368,2.45146 0.21054,5.02115 0.365,7.05674 -0.24409,2.70547 0.29291,5.51126 -1.51216,6.48317 -0.43403,1.2044 -6.26053,1.42634 -8.13437,1.80763 -1.31282,0.91715 -1.61949,2.13974 -1.32096,2.88527 -0.92341,2.12837 -0.87285,4.86336 1.30358,6.90031 0.0683,-2.53893 0.64269,-4.10864 2.08574,-4.29314 0.001,0.83515 3.31298,-0.21896 3.70218,-2.38121 1.78236,0.35116 4.562,-0.47746 4.91886,-3.85862 1.19965,-2.9395 3.79092,0.80203 4.81457,0.99073 2.15654,2.63662 1.64459,6.59874 4.81458,5.30124 1.22774,0.6622 2.00588,1.56991 1.65121,3.11123 2.11317,-1.44901 0.80198,-3.62982 0.66048,-5.56196 2.02897,-2.22348 -2.84991,-3.03754 -3.44146,-5.09268 4.37013,-2.17237 2.79286,3.52606 7.28269,0.86906 0.99191,0.53145 1.9013,1.21283 1.86966,2.76781 1.82946,-1.63374 1.48403,-3.53267 0.25084,-5.16641 0.65475,-4.19522 -8.33256,-3.38699 -8.13437,-3.4936 -2.83761,-1.34756 -6.47203,-2.66645 -6.23983,-6.20507 -1.21963,-1.51687 -1.95418,-1.66605 -4.93624,-2.1205 z"
         id="path4947"
         style="fill:#000000;fill-opacity:1;fill-rule:evenodd;stroke:#333333;stroke-width:2;stroke-miterlimit:4;stroke-opacity:1;stroke-dasharray:none"
         inkscape:connector-curvature="0" />
      <path
         inkscape:connector-curvature="0"
         style="fill:#333333;fill-opacity:1;fill-rule:evenodd;stroke:#333333;stroke-width:0.34757334;stroke-opacity:1"
         d="m 215.22697,543.6323 c 13.14864,-10.81112 32.62839,-17.65387 49.12991,-27.59139 6.98265,-0.3433 12.94771,-2.04339 18.21908,-4.6684 4.87837,-3.16029 11.05038,-5.99716 17.01998,-8.88464 9.68248,-4.23413 11.33367,-12.46017 13.5323,-20.57482 0.34129,-5.02652 -2.61396,-7.76186 -7.85897,-6.29321 -0.30601,0.45499 -0.29151,1.14485 0.64226,1.17748 3.67127,-0.69693 5.82927,0.5009 5.79691,5.21693 -2.31613,6.84184 -3.53538,14.88624 -12.64772,19.29613 -5.90372,2.80251 -11.97386,5.43861 -17.34111,8.77761 -5.08289,3.1983 -10.77673,3.88933 -17.97055,4.5848 -7.61209,0.30678 -15.6131,2.03228 -23.47995,1.27939 l 0.45268,1.41481 0,0 c 7.77493,0.5673 13.68339,-0.73185 20.44538,-1.17749 -17.06369,10.76141 -35.15232,15.75398 -47.01389,27.14763"
         id="path4949" />
      <path
         inkscape:connector-curvature="0"
         style="fill:#333333;fill-opacity:1;fill-rule:evenodd;stroke:#333333;stroke-width:0.34757334;stroke-opacity:1"
         d="m 286.71248,492.7577 c -10.91518,8.26226 -27.28588,13.86019 -51.13821,15.8043 -0.64033,0.68826 -1.60564,1.46937 -0.22578,1.58043 22.66476,-2.02403 40.88311,-7.01233 52.71864,-16.25585 0.88568,-1.52249 -0.17213,-1.37913 -1.35465,-1.12888 z"
         id="path4951" />
      <path
         inkscape:connector-curvature="0"
         style="fill:#333333;fill-opacity:1;fill-rule:evenodd;stroke:#333333;stroke-width:0.34757334;stroke-opacity:1"
         d="m 276.89123,486.88753 c -4.81798,3.69347 -16.13297,9.19844 -29.8024,13.20788 -0.24933,0.78907 -1.12212,2.04573 0.90311,1.12888 11.49251,-3.4873 25.41514,-8.63323 29.57662,-13.32077 1.19787,-1.00303 0.0925,-1.39358 -0.67733,-1.01599 z"
         id="path4953" />
      <path
         inkscape:connector-curvature="0"
         style="fill:#ffffff;fill-opacity:1;fill-rule:evenodd;stroke:#333333;stroke-width:0.34757334;stroke-opacity:1"
         d="m 348.94146,459.90733 c 0,1.05934 0.88397,2.1171 2.06065,2.1171 1.02819,0 2.11015,-0.85976 2.11015,-2.1171 0,-1.05934 -0.93346,-2.16659 -2.11015,-2.16659 -1.02818,0 -2.06065,0.90925 -2.06065,2.16659 z"
         id="path4955" />
    </g>
    <g
       id="g4839"
       transform="matrix(1.1847227,-0.684,0.684,1.1847227,-566.11721,-122.81413)">
      <path
         inkscape:connector-curvature="0"
         style="fill:#000000;fill-opacity:1;stroke:#333333;stroke-width:2;stroke-miterlimit:4;stroke-opacity:1;stroke-dasharray:none"
         id="path17126"
         d="m 214.15328,543.33713 1.04767,0.26916 c 2.98948,0.56466 6.59666,-0.43092 10.31802,-1.58891 5.72549,-0.57 15.38234,-6.04033 23.14986,-10.23495 3.99152,-0.74443 6.80585,-3.05846 10.01505,-4.84599 l -2.26146,5.16906 c 5.81906,0.78376 6.05704,-7.70883 10.33812,-8.72279 -1.0328,4.75301 -2.43648,9.38237 -5.16906,13.56878 1.9384,1.03323 3.8768,2.45812 5.8152,-0.64613 l 2.90759,-6.78439 c 0.3962,2.71458 0.83561,5.37876 2.9076,6.13826 1.12489,3.99423 -1.75502,7.67616 -0.32307,11.63038 5.20692,-2.23526 8.72021,-4.95442 11.95346,-7.75359 3.98448,2.77027 7.96896,4.59949 11.95345,4.52293 -13.17959,-6.88074 -13.18217,-15.43181 -6.13826,-24.8761 -0.10279,3.19161 -3.42801,6.03516 -3.12095,9.73325 9.93588,0.0511 17.56916,-2.48465 20.68675,-11.27826 0.28445,-0.80235 0.75674,-0.22466 0.64266,0.67241 -2.31309,7.43902 -8.30715,11.34087 -21.24688,11.73306 -0.36595,2.63988 0.34604,4.15321 2.39229,5.29285 4.39592,0.45007 5.01739,4.67459 7.10745,7.43053 l 5.8152,0.64613 c -2.79001,-3.24696 -2.93177,-6.05255 -4.19986,-9.04586 l 5.81519,5.16906 -0.9692,-10.01505 2.26147,1.9384 -0.32307,-2.58453 c 3.01528,0.19554 6.03057,1.83819 9.04585,0 -3.00229,-0.33606 -4.51734,-2.15937 -6.46132,-3.55373 l 0.64613,-4.52293 0,-4.846 c 0.88938,2.22314 3.79411,1.67519 2.58453,6.7844 4.51141,-1.78263 4.08729,-6.03302 4.84599,-9.69199 1.06006,0.98796 2.20217,1.89387 2.15636,3.98771 3.71827,-2.45648 5.98455,-7.99391 7.21257,-13.03357 l 1.61533,5.49213 c 4.58237,-4.60258 2.98546,-13.30286 5.49213,-19.06091 l 1.61533,1.9384 c 3.78845,-15.23829 18.24402,-11.54518 20.99931,-19.06092 l -1.29227,-0.9692 c 9.26036,-5.06839 19.59656,-0.35253 29.39903,-2.26146 -5.40532,-3.58941 -24.87426,-5.50259 -24.22997,-6.46132 8.63732,-1.94515 16.81487,0.70725 25.19917,1.29226 -5.43187,-10.75086 -16.08084,-10.79295 -26.8145,-10.66119 -4.12495,-7.59187 -13.22466,-4.46888 -20.9993,-4.19986 -5.36245,-0.7505 -8.64364,1.36072 -11.63039,3.8768 -4.82905,3.97192 -13.17473,7.50664 -19.50876,8.76958 -14.62468,2.49691 -23.18627,6.29852 -36.47901,18.36799 -4.59203,4.18884 -10.17056,8.02105 -14.16008,12.46105 -3.45587,2.11045 -6.40143,4.33531 -9.64953,6.92292 -12.12484,0.68709 -24.73838,-0.68404 -34.24502,-2.9076 0.88709,8.83665 13.18736,9.74747 24.55303,11.30733 -5.35589,2.4548 -11.52456,2.47125 -17.76864,2.26146 5.19122,4.92873 12.57181,6.76658 22.62076,4.87857 -9.90188,7.24514 -19.71818,11.94596 -30.05129,20.32062 -1.00152,1.42747 -1.13404,2.9487 0.75318,3.34157 0.058,1.30175 1.47681,3.42319 3.17616,3.69018" />
      <path
         inkscape:connector-curvature="0"
         style="fill:#000000;fill-opacity:1;fill-rule:evenodd;stroke:#333333;stroke-width:2;stroke-miterlimit:4;stroke-opacity:1;stroke-dasharray:none"
         id="path17128"
         d="m 305.53573,536.62727 c 0.22827,2.66459 7.18716,9.64779 11.35509,9.83185 5.31141,-1.05843 8.15923,-0.357 8.97598,1.76443 1.72724,1.2615 2.68131,4.61907 0.94261,6.21553 -1.06323,-1.24663 0.54275,-1.80416 -2.29027,-3.41789 -1.14175,1.01213 -6.40241,-1.94846 -6.448,-1.01099 0.55135,1.07744 6.45537,4.42433 5.39443,6.71423 0.70107,1.49058 -0.55741,4.2251 -2.74549,3.93811 1.51839,-1.91687 0.21881,-3.12311 -0.80671,-2.92046 -1.87657,-0.60043 -3.815,-7.23269 -5.37676,-6.46644 -1.09738,1.05237 4.31012,4.21672 1.93288,7.29086 0.12289,2.13708 -0.0997,3.59107 -2.85992,3.11938 0.2634,-1.29814 0.98657,-2.50816 0.0544,-3.09502 -1.97431,0.055 -3.36178,-3.21096 -2.89631,-4.82264 0.25274,-1.91414 -1.85815,-4.26578 -3.22103,-4.13605 -2.33426,0.0173 -1.21923,3.58913 -3.9014,3.36552 l -4.47945,-0.4456 c 1.48173,-2.26302 3.39434,-4.25185 4.01583,-7.0623 1.20325,-3.28818 -1.88751,-4.60714 -2.92014,-7.17664 0.49331,-1.09636 3.58271,0.73512 4.23266,1.72194 l 1.04158,-3.40782 z" />
      <path
         inkscape:connector-curvature="0"
         style="fill:#000000;fill-opacity:1;fill-rule:evenodd;stroke:#333333;stroke-width:2;stroke-miterlimit:4;stroke-opacity:1;stroke-dasharray:none"
         id="path17130"
         d="m 283.61409,540.06092 c -0.64368,2.45146 0.21054,5.02115 0.365,7.05674 -0.24409,2.70547 0.29291,5.51126 -1.51216,6.48317 -0.43403,1.2044 -6.26053,1.42634 -8.13437,1.80763 -1.31282,0.91715 -1.61949,2.13974 -1.32096,2.88527 -0.92341,2.12837 -0.87285,4.86336 1.30358,6.90031 0.0683,-2.53893 0.64269,-4.10864 2.08574,-4.29314 0.001,0.83515 3.31298,-0.21896 3.70218,-2.38121 1.78236,0.35116 4.562,-0.47746 4.91886,-3.85862 1.19965,-2.9395 3.79092,0.80203 4.81457,0.99073 2.15654,2.63662 1.64459,6.59874 4.81458,5.30124 1.22774,0.6622 2.00588,1.56991 1.65121,3.11123 2.11317,-1.44901 0.80198,-3.62982 0.66048,-5.56196 2.02897,-2.22348 -2.84991,-3.03754 -3.44146,-5.09268 4.37013,-2.17237 2.79286,3.52606 7.28269,0.86906 0.99191,0.53145 1.9013,1.21283 1.86966,2.76781 1.82946,-1.63374 1.48403,-3.53267 0.25084,-5.16641 0.65475,-4.19522 -8.33256,-3.38699 -8.13437,-3.4936 -2.83761,-1.34756 -6.47203,-2.66645 -6.23983,-6.20507 -1.21963,-1.51687 -1.95418,-1.66605 -4.93624,-2.1205 z" />
      <path
         id="path4837"
         d="m 215.22697,543.6323 c 13.14864,-10.81112 32.62839,-17.65387 49.12991,-27.59139 6.98265,-0.3433 12.94771,-2.04339 18.21908,-4.6684 4.87837,-3.16029 11.05038,-5.99716 17.01998,-8.88464 9.68248,-4.23413 11.33367,-12.46017 13.5323,-20.57482 0.34129,-5.02652 -2.61396,-7.76186 -7.85897,-6.29321 -0.30601,0.45499 -0.29151,1.14485 0.64226,1.17748 3.67127,-0.69693 5.82927,0.5009 5.79691,5.21693 -2.31613,6.84184 -3.53538,14.88624 -12.64772,19.29613 -5.90372,2.80251 -11.97386,5.43861 -17.34111,8.77761 -5.08289,3.1983 -10.77673,3.88933 -17.97055,4.5848 -7.61209,0.30678 -15.6131,2.03228 -23.47995,1.27939 l 0.45268,1.41481 0,0 c 7.77493,0.5673 13.68339,-0.73185 20.44538,-1.17749 -17.06369,10.76141 -35.15232,15.75398 -47.01389,27.14763"
         style="fill:#333333;fill-opacity:1;fill-rule:evenodd;stroke:#333333;stroke-width:0.34757334;stroke-opacity:1"
         inkscape:connector-curvature="0" />
      <path
         id="path4835"
         d="m 286.71248,492.7577 c -10.91518,8.26226 -27.28588,13.86019 -51.13821,15.8043 -0.64033,0.68826 -1.60564,1.46937 -0.22578,1.58043 22.66476,-2.02403 40.88311,-7.01233 52.71864,-16.25585 0.88568,-1.52249 -0.17213,-1.37913 -1.35465,-1.12888 z"
         style="fill:#333333;fill-opacity:1;fill-rule:evenodd;stroke:#333333;stroke-width:0.34757334;stroke-opacity:1"
         inkscape:connector-curvature="0" />
      <path
         id="path4833"
         d="m 276.89123,486.88753 c -4.81798,3.69347 -16.13297,9.19844 -29.8024,13.20788 -0.24933,0.78907 -1.12212,2.04573 0.90311,1.12888 11.49251,-3.4873 25.41514,-8.63323 29.57662,-13.32077 1.19787,-1.00303 0.0925,-1.39358 -0.67733,-1.01599 z"
         style="fill:#333333;fill-opacity:1;fill-rule:evenodd;stroke:#333333;stroke-width:0.34757334;stroke-opacity:1"
         inkscape:connector-curvature="0" />
      <path
         id="path17132"
         d="m 348.94146,459.90733 c 0,1.05934 0.88397,2.1171 2.06065,2.1171 1.02819,0 2.11015,-0.85976 2.11015,-2.1171 0,-1.05934 -0.93346,-2.16659 -2.11015,-2.16659 -1.02818,0 -2.06065,0.90925 -2.06065,2.16659 z"
         style="fill:#ffffff;fill-opacity:1;fill-rule:evenodd;stroke:#333333;stroke-width:0.34757334;stroke-opacity:1"
         inkscape:connector-curvature="0" />
    </g>
    <g
       id="g4937"
       transform="matrix(1.368,0,0,1.368,-263.51638,-497.91523)">
      <path
         style="fill:#cc0000;stroke:#000000;stroke-width:10"
         inkscape:connector-curvature="0"
         id="path3084"
         d="m 336.9272,596.37856 c 0,0 25,-40 75,-40 50,0 75,40 75,40 0,0 -25,40 -75,40 -50,0 -75,-40 -75,-40 z" />
      <circle
         transform="translate(111.9272,306.37856)"
         style="fill:#cc0000;stroke:#000000;stroke-width:20"
         sodipodi:ry="26"
         sodipodi:rx="26"
         sodipodi:cy="290"
         sodipodi:cx="300"
         d="m 326,290 c 0,14.3594 -11.6406,26 -26,26 -14.3594,0 -26,-11.6406 -26,-26 0,-14.3594 11.6406,-26 26,-26 14.3594,0 26,11.6406 26,26 z"
         id="circle3086"
         r="26"
         cy="290"
         cx="300" />
    </g>
    <g
       transform="matrix(0.4371832,0,0,0.4371832,168.84507,104.7133)"
       style="display:inline"
       id="g3204">
      <path
         id="polygon7500"
         d="M 300.02258,145.00645 266.02356,323.093 215.91584,150.05434 202.18262,327.02739 131.28947,166.60845 141.97912,332.96608 66.483483,189.69512 l 26.35295,148.24462 2.746648,17.51914 0.148464,0.14846 0.07424,0.37117 0.296932,0 407.320093,0.51964 c -0.68195,1.74975 0.0741,0 0.0741,0 L 533.56168,189.69512 457.99181,332.96608 468.68146,166.60845 397.78831,327.02739 384.05508,150.05434 333.94736,323.093 300.02258,145.00645 z"
         style="fill:#000000;fill-opacity:1;fill-rule:evenodd;stroke:#333333;stroke-width:2.57451773;stroke-miterlimit:4;stroke-dasharray:none"
         inkscape:connector-curvature="0" />
      <path
         sodipodi:nodetypes="cccccccccccccccccccccccccccccccccccccscccccccccccccc"
         style="fill:#000000;fill-opacity:1;fill-rule:evenodd;stroke:#333333;stroke-width:2.21126556;stroke-miterlimit:4;stroke-opacity:1;stroke-dasharray:none"
         inkscape:connector-curvature="0"
         d="m 83.148504,237.12636 52.326206,99.26994 c 1.61508,3.06712 5.1765,4.59639 8.51479,3.65756 3.34344,-0.94228 5.58327,-4.10379 5.36186,-7.56568 L 141.312,207.48679 195.44209,330.00463 c 3.42142,8.42021 14.60585,6.00222 14.08433,-2.40974 l 10.61559,-136.53009 38.83231,134.05341 c 1.84022,6.27025 4.31442,7.86398 8.0161,8.01281 3.10362,-0.75782 5.05824,-2.64149 6.30165,-8.67876 l 26.70976,-140.11382 26.70633,140.11382 c 0.64019,3.3383 1.99504,8.22265 6.5981,8.37885 5.79575,0.15101 6.77223,-4.43983 7.72137,-7.71291 l 38.82887,-134.04654 10.61559,136.52322 c 0.25916,3.37262 2.46686,6.72372 5.80344,7.3004 3.33486,0.56298 6.91811,-1.79262 8.28433,-4.89065 l 54.12837,-122.51784 -8.04108,125.00138 c -0.21797,3.4636 2.02186,6.6234 5.36186,7.56568 3.34173,0.93884 6.89971,-0.59044 8.51479,-3.65756 l 52.32106,-99.25966 c 24.76579,-46.68485 3.89503,-6.38858 23.91727,-46.03581 0.68654,-3.5837 -1.35763,-7.14343 -4.79718,-8.3603 -3.43956,-1.20315 -7.26358,0.29163 -8.96448,3.52021 l -59.4353,112.75185 8.48732,-131.95087 c 0.22484,-3.57001 -2.12484,-6.78127 -5.59872,-7.63258 -3.47903,-0.84789 -7.04902,0.90451 -8.49419,4.18616 l -59.0663,133.6638 -11.47891,-147.79277 c -0.28491,-3.54597 -3.06368,-6.38996 -6.6045,-6.75894 -3.54082,-0.35874 -6.8362,1.85707 -7.83168,5.2829 L 335.42548,291.47268 307.23622,143.6044 c -0.66765,-3.47216 -3.69872,-5.98658 -7.23439,-5.98658 -3.54082,0 -6.57875,2.51442 -7.24812,5.98658 L 264.5696,291.47098 223.02032,148.00858 c -0.99376,-3.42583 -4.28914,-5.64164 -7.83339,-5.28294 -3.54254,0.36902 -6.32302,3.2113 -6.60107,6.75897 L 197.10008,297.29112 138.03722,163.61359 c -1.45031,-3.28168 -5.01688,-5.03576 -8.4942,-4.1862 -3.48246,0.85131 -5.8287,4.05575 -5.59871,7.63262 L 132.42305,299.0006 72.996321,186.25732 c -1.706048,-3.22844 -5.521485,-4.72339 -8.961037,-3.52024 -3.444704,1.2169 -5.483723,4.7766 -4.797186,8.36033 18.65988,36.46182 0.763531,0.63099 23.910406,46.02895 z"
         id="path7516" />
      <g
         transform="matrix(1.8632965,0,0,1.8632965,-626.41214,-299.9657)"
         id="g11746-2-0-7-0-1-0-7-7-4-2-4-6-2"
         style="fill:#000000;fill-opacity:1;fill-rule:evenodd;stroke:#333333;stroke-width:1.07812953;stroke-miterlimit:4;stroke-dasharray:none;display:inline">
        <path
           inkscape:connector-curvature="0"
           d="m 390.38814,381.07914 c 0,0 12.05564,-0.88424 33.29743,-2.08342 21.24179,-1.19917 43.99979,-1.82891 55.6089,-1.82891 1.85699,0 33.53566,0 35.38749,0 11.24508,0 34.53839,0.62974 55.6089,1.82891 21.07057,1.19918 33.05521,2.20453 33.05521,2.20453 l 7.38763,-33.00505 c 0,0 -75.69995,-6.83087 -113.74548,-6.83086 -38.04553,10e-6 -113.74549,6.83091 -113.74549,6.83091 l 7.14541,32.88389 z"
           id="path8971-7-4-4-6-7-1-2-1-3-8-8-0-3"
           style="fill:#000000;fill-opacity:1;fill-rule:evenodd;stroke:#333333" />
        <path
           inkscape:connector-curvature="0"
           d="m 482.92007,341.44119 29.64102,0.14614 0.0643,35.39636 -28.10666,0 -1.59866,-35.5425 z"
           id="path8973-3-6-4-47-1-5-3-5-6-5-3-1-7"
           style="fill:#000000;fill-opacity:1;fill-rule:evenodd;stroke:#333333;stroke-width:1.07812953;marker:none;visibility:visible;display:inline;overflow:visible;enable-background:accumulate" />
        <path
           inkscape:connector-curvature="0"
           d="m 399.02267,346.47444 85.62826,-5.28023 -0.0547,34.19488 -83.53498,3.88068 -2.03858,-32.79533 z"
           id="path8979-9-0-9-8-8-8-8-2-5-9-9-8-3"
           style="fill:#000000;fill-opacity:1;fill-rule:evenodd;stroke:#333333;stroke-width:1.07812953;marker:none;visibility:visible;display:inline;overflow:visible;enable-background:accumulate" />
        <path
           inkscape:connector-curvature="0"
           d="m 405.94279,345.53224 57.768,-3.85336 1.52874,34.63711 -57.25837,2.67563 -2.03837,-33.45938 z"
           id="path8981-7-3-1-4-4-2-3-1-9-4-5-5-0"
           style="fill:#000000;fill-opacity:1;fill-rule:evenodd;stroke:#333333;stroke-width:1.07812953;marker:none;visibility:visible;display:inline;overflow:visible;enable-background:accumulate" />
        <path
           inkscape:connector-curvature="0"
           d="m 413.78562,344.76637 32.90308,-2.11815 1.52874,34.7005 -16.19673,0.58798 -16.19672,0.58798 -2.03837,-33.75831 z"
           id="path8983-7-2-5-0-0-5-5-1-5-3-5-9-9"
           style="fill:#000000;fill-opacity:1;fill-rule:evenodd;stroke:#333333;stroke-width:1.07812953;marker:none;visibility:visible;display:inline;overflow:visible;enable-background:accumulate" />
        <path
           inkscape:connector-curvature="0"
           d="m 478.97038,373.00052 c -11.72282,0 -34.47682,0.62611 -55.78271,1.82891 -13.3447,0.76851 -20.74082,2.04968 -34.04378,3.35538 0,0 1.3309,2.80633 1.3309,2.80633 13.38906,-1.21911 19.65678,-1.41812 33.07621,-2.22621 21.17784,-1.19556 43.924,-1.82892 55.41938,-1.82892 1.85698,0 33.5356,0 35.38748,0 11.1277,0 34.43324,0.63364 55.4351,1.82892 20.93691,1.19156 33.69762,2.34732 33.69762,2.34732 0,0 0.64144,-2.65726 0.64144,-2.65726 0,0 -12.7715,-2.41878 -33.97573,-3.62556 -21.13902,-1.20308 -44.43596,-1.82891 -55.79843,-1.82891 -1.85193,0 -33.5305,0 -35.38748,0 z"
           id="path8991-9-6-5-0-7-0-1-0-4-9-7-3-8"
           style="fill:#000000;fill-opacity:1;fill-rule:evenodd;stroke:#333333;display:inline" />
        <path
           inkscape:connector-curvature="0"
           d="m 423.18772,344.45634 c -21.37622,1.20677 -39.86385,3.64619 -39.86385,3.64619 0,0 1.33719,5.83735 1.33719,5.83735 0,0 17.78206,-2.31744 38.88943,-3.50903 21.17784,-1.19556 43.92396,-1.67101 55.41933,-1.67101 1.85703,0 33.53571,0 35.38748,0 11.12775,0 34.78405,0.72957 55.78602,1.92484 20.9368,1.19157 39.16003,3.2552 39.15998,3.2552 0,0 1.01629,-5.83735 1.01629,-5.83735 0,0 -18.95957,-2.4394 -40.1638,-3.64619 -21.13907,-1.20308 -44.43597,-2.68633 -55.79849,-2.68633 -1.85187,0 -37.24451,0 -35.38748,0 -18.6322,0.32121 -37.2096,1.6156 -55.78215,2.68633 l 5e-5,0 z"
           id="path8993-5-9-5-62-7-2-5-1-9-0-0-3-4"
           style="fill:#000000;fill-opacity:1;fill-rule:evenodd;stroke:#333333;display:inline" />
        <path
           inkscape:connector-curvature="0"
           d="m 496.50058,341.72544 c 38.01199,-0.0193 76.02023,2.041 113.8632,6.23428 l -6.92787,33.31224 c -37.64029,-3.37881 -68.45072,-4.28271 -106.50894,-4.58075 m 0.5045,-34.96577 c -38.01198,-0.0193 -76.02022,2.041 -113.8632,6.23428 l 6.92787,33.31225 c 37.6403,-3.37882 68.45072,-4.28271 106.50894,-4.58076"
           id="path8995-7-3-4-8-4-12-8-4-8-17-5-7-1-4"
           style="fill:#000000;stroke:#333333;stroke-width:1.07812953;stroke-linecap:butt;stroke-linejoin:miter;stroke-miterlimit:4;stroke-opacity:1;stroke-dasharray:none;display:inline" />
      </g>
      <g
         transform="matrix(1.883925,0,0,1.4418796,1376.2345,-471.74128)"
         id="g8876-0-1-2-7-2-3-2-7-5-6-7-8-9"
         style="fill:#000000;fill-opacity:1;fill-rule:evenodd;stroke:#333333;stroke-width:1.21886778;stroke-miterlimit:4;stroke-dasharray:none;display:inline">
        <path
           inkscape:connector-curvature="0"
           d="m -644.32223,561.76862 -0.0312,0.0312 -0.0312,0 c -13.36934,1.25678 -28.84217,2.62778 -42.34375,5.03125 -1.90913,2.98168 -2.06747,5.70075 1.40625,7.875 12.96265,-2.30753 28.24596,-3.71121 41.625,-4.96875 18.14491,-1.37417 36.43964,-2.23317 54.6875,-2.4688 l 35,0 c 10.91556,0 33.96831,0.8703 54.6875,2.5 20.62477,1.62227 41.6875,4.9375 41.6875,4.9375 3.59435,-2.39802 3.20392,-5.08067 1.25,-7.875 0,0 -21.25757,-3.40639 -42.3125,-5.0625 -20.96041,-1.64868 -43.98416,-2.5 -55.3125,-2.5 l -35,0 c -18.46448,0.0721 -36.90054,1.20996 -55.3126,2.5001 z"
           id="path8995-2-0-3-3-9-4-7-9-2-6-5-3-9-2-5"
           style="font-size:medium;font-style:normal;font-variant:normal;font-weight:normal;font-stretch:normal;text-indent:0;text-align:start;text-decoration:none;line-height:normal;letter-spacing:normal;word-spacing:normal;text-transform:none;direction:ltr;block-progression:tb;writing-mode:lr-tb;text-anchor:start;color:#000000;fill:#000000;fill-opacity:1;stroke:#333333;stroke-width:1.21886778;marker:none;visibility:visible;display:inline;overflow:visible;enable-background:accumulate;font-family:Bitstream Vera Sans;-inkscape-font-specification:Bitstream Vera Sans" />
        <path
           inkscape:connector-curvature="0"
           d="m -454.92903,569.95629 c 0.10745,-1.31971 -0.47864,-1.7281 -1.4556,-3.12527 0,0 -21.25757,-3.40639 -42.3125,-5.0625 -20.96041,-1.64868 -43.98416,-2.5 -55.3125,-2.5 l -35,0 c -18.46448,0.0721 -36.90054,1.20996 -55.3126,2.5001 l -0.0312,0.0312 -0.0312,0 c -13.36934,1.25678 -28.84217,2.62778 -42.34375,5.03125 -0.95457,1.49084 -1.47143,1.6349 -1.31544,2.95916 15.61395,-1.89703 28.80702,-4.05063 43.91525,-5.23163 23.98015,-1.87451 49.50789,-2.23512 72.35649,-2.3283 22.78284,-0.0929 45.0466,0.69285 66.87797,2.34356 16.90077,1.27789 33.54239,3.07416 49.96508,5.38243 z"
           id="path8995-2-0-4-0-7-8-1-4-9-9-0-4-6-8-7-0"
           style="font-size:medium;font-style:normal;font-variant:normal;font-weight:normal;font-stretch:normal;text-indent:0;text-align:start;text-decoration:none;line-height:normal;letter-spacing:normal;word-spacing:normal;text-transform:none;direction:ltr;block-progression:tb;writing-mode:lr-tb;text-anchor:start;color:#000000;fill:#000000;fill-opacity:1;stroke:#333333;stroke-width:1.21886778;marker:none;visibility:visible;display:inline;overflow:visible;enable-background:accumulate;font-family:Bitstream Vera Sans;-inkscape-font-specification:Bitstream Vera Sans" />
        <path
           inkscape:connector-curvature="0"
           d="m -687.27466,572.9792 c 0.44377,0.60668 1.08484,1.18377 1.95253,1.72687 12.96265,-2.30753 28.24596,-3.71121 41.625,-4.96875 18.14491,-1.37417 36.43964,-2.23317 54.6875,-2.4688 l 35,0 c 10.91556,0 33.96831,0.8703 54.6875,2.5 20.62477,1.62227 41.6875,4.9375 41.6875,4.9375 1.12714,-0.75199 1.45291,-1.1907 1.87102,-1.99333 -39.88861,-7.11356 -76.13007,-7.82574 -114.389,-8.18008 -37.26743,-0.34515 -79.25667,1.89738 -117.1221,8.44659 l 5e-5,0 z"
           id="path8995-2-0-7-8-0-8-2-8-7-3-1-0-1-3-3-2-5"
           style="font-size:medium;font-style:normal;font-variant:normal;font-weight:normal;font-stretch:normal;text-indent:0;text-align:start;text-decoration:none;line-height:normal;letter-spacing:normal;word-spacing:normal;text-transform:none;direction:ltr;block-progression:tb;writing-mode:lr-tb;text-anchor:start;color:#000000;fill:#000000;fill-opacity:1;stroke:#333333;stroke-width:1.21886778;marker:none;visibility:visible;display:inline;overflow:visible;enable-background:accumulate;font-family:Bitstream Vera Sans;-inkscape-font-specification:Bitstream Vera Sans" />
        <path
           inkscape:connector-curvature="0"
           d="m -644.32223,561.76862 -0.0312,0.0312 -0.0312,0 c -13.36934,1.25678 -28.84217,2.62778 -42.34375,5.03125 -1.90913,2.98168 -2.06747,5.70075 1.40625,7.875 12.96265,-2.30753 28.24596,-3.71121 41.625,-4.96875 18.14491,-1.37417 36.43964,-2.23317 54.6875,-2.4688 l 35,0 c 10.91556,0 33.96831,0.8703 54.6875,2.5 20.62477,1.62227 41.6875,4.9375 41.6875,4.9375 3.59435,-2.39802 3.20392,-5.08067 1.25,-7.875 0,0 -21.25757,-3.40639 -42.3125,-5.0625 -20.96041,-1.64868 -43.98416,-2.5 -55.3125,-2.5 l -35,0 c -18.46448,0.0721 -36.90054,1.20996 -55.3126,2.5001 z"
           id="path8995-2-0-7-3-8-0-5-5-0-5-9-8-0-0-1-1"
           style="font-size:medium;font-style:normal;font-variant:normal;font-weight:normal;font-stretch:normal;text-indent:0;text-align:start;text-decoration:none;line-height:normal;letter-spacing:normal;word-spacing:normal;text-transform:none;direction:ltr;block-progression:tb;writing-mode:lr-tb;text-anchor:start;color:#000000;fill:#000000;stroke:#333333;stroke-width:1.2194258;stroke-miterlimit:4;stroke-dasharray:none;marker:none;visibility:visible;display:inline;overflow:visible;enable-background:accumulate;font-family:Bitstream Vera Sans;-inkscape-font-specification:Bitstream Vera Sans" />
      </g>
      <g
         transform="matrix(1.7517106,0,0,1.4418796,1300.6747,-407.66595)"
         id="g8876-3-8-3-7-8-7-1-8-5-83-8-9-1-2"
         style="fill:#000000;fill-opacity:1;fill-rule:evenodd;stroke:#333333;stroke-width:1.26402962;stroke-miterlimit:4;stroke-dasharray:none;display:inline">
        <path
           inkscape:connector-curvature="0"
           d="m -644.32223,561.76862 -0.0312,0.0312 -0.0312,0 c -13.36934,1.25678 -28.84217,2.62778 -42.34375,5.03125 -1.90913,2.98168 -2.06747,5.70075 1.40625,7.875 12.96265,-2.30753 28.24596,-3.71121 41.625,-4.96875 18.14491,-1.37417 36.43964,-2.23317 54.6875,-2.4688 l 35,0 c 10.91556,0 33.96831,0.8703 54.6875,2.5 20.62477,1.62227 41.6875,4.9375 41.6875,4.9375 3.59435,-2.39802 3.20392,-5.08067 1.25,-7.875 0,0 -21.25757,-3.40639 -42.3125,-5.0625 -20.96041,-1.64868 -43.98416,-2.5 -55.3125,-2.5 l -35,0 c -18.46448,0.0721 -36.90054,1.20996 -55.3126,2.5001 z"
           id="path8995-2-0-0-3-8-4-9-3-5-8-6-5-4-7-5-4"
           style="font-size:medium;font-style:normal;font-variant:normal;font-weight:normal;font-stretch:normal;text-indent:0;text-align:start;text-decoration:none;line-height:normal;letter-spacing:normal;word-spacing:normal;text-transform:none;direction:ltr;block-progression:tb;writing-mode:lr-tb;text-anchor:start;color:#000000;fill:#000000;fill-opacity:1;stroke:#333333;stroke-width:1.26402962;marker:none;visibility:visible;display:inline;overflow:visible;enable-background:accumulate;font-family:Bitstream Vera Sans;-inkscape-font-specification:Bitstream Vera Sans" />
        <path
           inkscape:connector-curvature="0"
           d="m -454.92903,569.95629 c 0.10745,-1.31971 -0.47864,-1.7281 -1.4556,-3.12527 0,0 -21.25757,-3.40639 -42.3125,-5.0625 -20.96041,-1.64868 -43.98416,-2.5 -55.3125,-2.5 l -35,0 c -18.46448,0.0721 -36.90054,1.20996 -55.3126,2.5001 l -0.0312,0.0312 -0.0312,0 c -13.36934,1.25678 -28.84217,2.62778 -42.34375,5.03125 -0.95457,1.49084 -1.47143,1.6349 -1.31544,2.95916 15.61395,-1.89703 28.80702,-4.05063 43.91525,-5.23163 23.98015,-1.87451 49.50789,-2.23512 72.35649,-2.3283 22.78284,-0.0929 45.0466,0.69285 66.87797,2.34356 16.90077,1.27789 33.54239,3.07416 49.96508,5.38243 z"
           id="path8995-2-0-4-6-6-1-8-9-89-2-0-2-2-0-1-7-0"
           style="font-size:medium;font-style:normal;font-variant:normal;font-weight:normal;font-stretch:normal;text-indent:0;text-align:start;text-decoration:none;line-height:normal;letter-spacing:normal;word-spacing:normal;text-transform:none;direction:ltr;block-progression:tb;writing-mode:lr-tb;text-anchor:start;color:#000000;fill:#000000;fill-opacity:1;stroke:#333333;stroke-width:1.26402962;marker:none;visibility:visible;display:inline;overflow:visible;enable-background:accumulate;font-family:Bitstream Vera Sans;-inkscape-font-specification:Bitstream Vera Sans" />
        <path
           inkscape:connector-curvature="0"
           d="m -687.27466,572.9792 c 0.44377,0.60668 1.08484,1.18377 1.95253,1.72687 12.96265,-2.30753 28.24596,-3.71121 41.625,-4.96875 18.14491,-1.37417 36.43964,-2.23317 54.6875,-2.4688 l 35,0 c 10.91556,0 33.96831,0.8703 54.6875,2.5 20.62477,1.62227 41.6875,4.9375 41.6875,4.9375 1.12714,-0.75199 1.45291,-1.1907 1.87102,-1.99333 -39.88861,-7.11356 -76.13007,-7.82574 -114.389,-8.18008 -37.26743,-0.34515 -79.25667,1.89738 -117.1221,8.44659 l 5e-5,0 z"
           id="path8995-2-0-7-8-2-0-5-5-9-37-7-4-8-2-4-8-9-6"
           style="font-size:medium;font-style:normal;font-variant:normal;font-weight:normal;font-stretch:normal;text-indent:0;text-align:start;text-decoration:none;line-height:normal;letter-spacing:normal;word-spacing:normal;text-transform:none;direction:ltr;block-progression:tb;writing-mode:lr-tb;text-anchor:start;color:#000000;fill:#000000;fill-opacity:1;stroke:#333333;stroke-width:1.26402962;marker:none;visibility:visible;display:inline;overflow:visible;enable-background:accumulate;font-family:Bitstream Vera Sans;-inkscape-font-specification:Bitstream Vera Sans" />
        <path
           inkscape:connector-curvature="0"
           d="m -644.32223,561.76862 -0.0312,0.0312 -0.0312,0 c -13.36934,1.25678 -28.84217,2.62778 -42.34375,5.03125 -1.90913,2.98168 -2.06747,5.70075 1.40625,7.875 12.96265,-2.30753 28.24596,-3.71121 41.625,-4.96875 18.14491,-1.37417 36.43964,-1.77813 54.6875,-2.01376 l 35,0 c 10.91556,0 33.96831,0.41526 54.6875,2.04496 20.62477,1.62227 41.6875,4.9375 41.6875,4.9375 3.59435,-2.39802 3.20392,-5.08067 1.25,-7.875 0,0 -21.25757,-3.40639 -42.3125,-5.0625 -20.96041,-1.64868 -43.98416,-2.04496 -55.3125,-2.04496 l -35,0 c -18.46448,0.0721 -36.90054,0.75492 -55.3126,2.04506 z"
           id="path8995-2-0-7-2-4-3-8-3-1-3-0-5-6-6-5-7-0"
           style="font-size:medium;font-style:normal;font-variant:normal;font-weight:normal;font-stretch:normal;text-indent:0;text-align:start;text-decoration:none;line-height:normal;letter-spacing:normal;word-spacing:normal;text-transform:none;direction:ltr;block-progression:tb;writing-mode:lr-tb;text-anchor:start;color:#000000;fill:#000000;stroke:#333333;stroke-width:1.2640872;stroke-miterlimit:4;stroke-dasharray:none;marker:none;visibility:visible;display:inline;overflow:visible;enable-background:accumulate;font-family:Bitstream Vera Sans;-inkscape-font-specification:Bitstream Vera Sans" />
      </g>
    </g>
  </g>
  <g
     inkscape:groupmode="layer"
     id="layer1"
     inkscape:label="Cover"
     style="display:inline"
     sodipodi:insensitive="true">
    <path
       d="m 2,2 v 257 c 0,286 298,398 298,398 0,0 298,-112 298,-398 V 2 z"
       id="shine"
       inkscape:connector-curvature="0"
       style="fill:url(#radialGradient3074);stroke:#000000;stroke-width:3" />
  </g>
</svg>
