<?xml version="1.0" encoding="UTF-8" standalone="no"?>
<svg
   xmlns:dc="http://purl.org/dc/elements/1.1/"
   xmlns:cc="http://creativecommons.org/ns#"
   xmlns:rdf="http://www.w3.org/1999/02/22-rdf-syntax-ns#"
   xmlns:svg="http://www.w3.org/2000/svg"
   xmlns="http://www.w3.org/2000/svg"
   xmlns:xlink="http://www.w3.org/1999/xlink"
   xmlns:sodipodi="http://sodipodi.sourceforge.net/DTD/sodipodi-0.dtd"
   xmlns:inkscape="http://www.inkscape.org/namespaces/inkscape"
   width="600"
   height="660"
   id="svg2"
   version="1.1"
   inkscape:version="0.48.2 r9819"
   sodipodi:docname="House_Greyjoy1.svg">
  <metadata
     id="metadata24">
    <rdf:RDF>
      <cc:Work
         rdf:about="">
        <dc:format>image/svg+xml</dc:format>
        <dc:type
           rdf:resource="http://purl.org/dc/dcmitype/StillImage" />
        <dc:title />
      </cc:Work>
    </rdf:RDF>
  </metadata>
  <sodipodi:namedview
     pagecolor="#ffffff"
     bordercolor="#666666"
     borderopacity="1"
     objecttolerance="10"
     gridtolerance="10"
     guidetolerance="10"
     inkscape:pageopacity="0"
     inkscape:pageshadow="2"
     inkscape:window-width="1366"
     inkscape:window-height="715"
     id="namedview22"
     showgrid="false"
     inkscape:zoom="0.50568851"
     inkscape:cx="-31.735795"
     inkscape:cy="330.94536"
     inkscape:window-x="-8"
     inkscape:window-y="-8"
     inkscape:window-maximized="1"
     inkscape:current-layer="layer2" />
  <defs
     id="defs4">
    <inkscape:path-effect
       is_visible="true"
       id="path-effect3136"
       effect="spiro" />
    <inkscape:path-effect
       effect="spiro"
       id="path-effect3132"
       is_visible="true" />
    <inkscape:path-effect
       effect="spiro"
       id="path-effect3101"
       is_visible="true" />
    <inkscape:path-effect
       is_visible="true"
       id="path-effect3085"
       effect="spiro" />
    <inkscape:path-effect
       is_visible="true"
       id="path-effect3083"
       effect="spiro" />
    <inkscape:path-effect
       is_visible="true"
       id="path-effect3081"
       effect="spiro" />
    <inkscape:path-effect
       is_visible="true"
       id="path-effect3079"
       effect="spiro" />
    <inkscape:path-effect
       is_visible="true"
       id="path-effect3077"
       effect="spiro" />
    <inkscape:path-effect
       is_visible="true"
       id="path-effect3075"
       effect="spiro" />
    <inkscape:path-effect
       effect="spiro"
       id="path-effect3049"
       is_visible="true" />
    <inkscape:path-effect
       is_visible="true"
       id="path-effect3045"
       effect="spiro" />
    <inkscape:path-effect
       effect="spiro"
       id="path-effect3041"
       is_visible="true" />
    <radialGradient
       id="rg"
       gradientUnits="userSpaceOnUse"
       cx="220"
       cy="220"
       r="405">
      <stop
         style="stop-color:#fff;stop-opacity:.3"
         offset="0"
         id="stop7" />
      <stop
         style="stop-color:#fff;stop-opacity:.2"
         offset=".2"
         id="stop9" />
      <stop
         style="stop-color:#666;stop-opacity:.1"
         offset=".6"
         id="stop11" />
      <stop
         style="stop-color:#000;stop-opacity:.13"
         offset="1"
         id="stop13" />
    </radialGradient>
    <path
       id="shield"
       d="m2,2v257c0,286 298,398 298,398c0,0 298-112 298-398V2z" />
    <radialGradient
       inkscape:collect="always"
       xlink:href="#rg-7"
       id="radialGradient3055-1"
       gradientUnits="userSpaceOnUse"
       cx="220"
       cy="220"
       r="405" />
    <radialGradient
       id="rg-7"
       gradientUnits="userSpaceOnUse"
       cx="220"
       cy="220"
       r="405">
      <stop
         style="stop-color:#fff;stop-opacity:.3"
         offset="0"
         id="stop7-4" />
      <stop
         style="stop-color:#fff;stop-opacity:.2"
         offset=".2"
         id="stop9-0" />
      <stop
         style="stop-color:#666;stop-opacity:.1"
         offset=".6"
         id="stop11-9" />
      <stop
         style="stop-color:#000;stop-opacity:.13"
         offset="1"
         id="stop13-4" />
    </radialGradient>
    <radialGradient
       r="405"
       cy="220"
       cx="220"
       gradientUnits="userSpaceOnUse"
       id="radialGradient3074"
       xlink:href="#rg-7"
       inkscape:collect="always" />
    <inkscape:path-effect
       is_visible="true"
       id="path-effect10120-1"
       effect="spiro" />
    <inkscape:path-effect
       effect="spiro"
       id="path-effect10118-3"
       is_visible="true" />
    <inkscape:path-effect
       effect="spiro"
       id="path-effect10116-9"
       is_visible="true" />
    <inkscape:path-effect
       effect="spiro"
       id="path-effect10114-7"
       is_visible="true" />
    <inkscape:path-effect
       effect="spiro"
       id="path-effect10112-7"
       is_visible="true" />
    <inkscape:path-effect
       effect="spiro"
       id="path-effect10110-2"
       is_visible="true" />
    <linearGradient
       inkscape:collect="always"
       xlink:href="#linearGradient4719-5"
       id="linearGradient4039"
       gradientUnits="userSpaceOnUse"
       gradientTransform="matrix(2.3257341,0,0,2.2943177,447.69485,-1820.2799)"
       x1="-145.25935"
       y1="984.24286"
       x2="-64.14286"
       y2="984.14789" />
    <linearGradient
       inkscape:collect="always"
       id="linearGradient4719-5">
      <stop
         style="stop-color:#666666;stop-opacity:1;"
         offset="0"
         id="stop4721-5" />
      <stop
         id="stop4809-1"
         offset="0.39344174"
         style="stop-color:#666666;stop-opacity:0.74901961;" />
      <stop
         style="stop-color:#666666;stop-opacity:0;"
         offset="1"
         id="stop4723-7" />
    </linearGradient>
    <radialGradient
       inkscape:collect="always"
       xlink:href="#linearGradient4801-8"
       id="radialGradient4041"
       gradientUnits="userSpaceOnUse"
       gradientTransform="matrix(-0.72153181,1.2650715,-2.2729984,-1.2616144,1712.0113,1733.7841)"
       cx="-307.14288"
       cy="782.36218"
       fx="-307.14288"
       fy="782.36218"
       r="63" />
    <linearGradient
       inkscape:collect="always"
       id="linearGradient4801-8">
      <stop
         style="stop-color:#000000;stop-opacity:1;"
         offset="0"
         id="stop4803-2" />
      <stop
         style="stop-color:#000000;stop-opacity:0;"
         offset="1"
         id="stop4805-4" />
    </linearGradient>
    <inkscape:path-effect
       effect="spiro"
       id="path-effect10108-4"
       is_visible="true" />
    <linearGradient
       inkscape:collect="always"
       xlink:href="#linearGradient4719-5"
       id="linearGradient4044"
       gradientUnits="userSpaceOnUse"
       gradientTransform="matrix(-2.4055369,0,0,-1.6485021,142.06168,1726.5307)"
       x1="-145.25935"
       y1="984.24286"
       x2="-64.14286"
       y2="984.14789" />
    <radialGradient
       inkscape:collect="always"
       xlink:href="#linearGradient4801-8"
       id="radialGradient4046"
       gradientUnits="userSpaceOnUse"
       gradientTransform="matrix(0.74628962,-0.90897301,2.3509914,0.90648896,-1165.637,-827.11785)"
       cx="-307.14288"
       cy="782.36218"
       fx="-307.14288"
       fy="782.36218"
       r="63" />
    <inkscape:path-effect
       effect="spiro"
       id="path-effect10102-7"
       is_visible="true" />
    <linearGradient
       inkscape:collect="always"
       xlink:href="#linearGradient4719-5"
       id="linearGradient4049"
       gradientUnits="userSpaceOnUse"
       gradientTransform="matrix(2.334989,0,0,-1.6146975,449.44065,1692.189)"
       x1="-145.25935"
       y1="984.24286"
       x2="-64.14286"
       y2="984.14789" />
    <radialGradient
       inkscape:collect="always"
       xlink:href="#linearGradient4801-8"
       id="radialGradient4051"
       gradientUnits="userSpaceOnUse"
       gradientTransform="matrix(-0.72440295,-0.89033332,-2.2820431,0.88790031,1718.7881,-809.09364)"
       cx="-307.14288"
       cy="782.36218"
       fx="-307.14288"
       fy="782.36218"
       r="63" />
    <inkscape:path-effect
       is_visible="true"
       id="path-effect10096-8"
       effect="spiro" />
    <linearGradient
       inkscape:collect="always"
       xlink:href="#linearGradient4719-5"
       id="linearGradient4054"
       gradientUnits="userSpaceOnUse"
       gradientTransform="matrix(-2.409599,0,0,2.2818507,139.61083,-1810.8163)"
       x1="-145.25935"
       y1="984.24286"
       x2="-64.14286"
       y2="984.14789" />
    <radialGradient
       inkscape:collect="always"
       xlink:href="#linearGradient4801-8"
       id="radialGradient4056"
       gradientUnits="userSpaceOnUse"
       gradientTransform="matrix(0.74754985,1.2581972,2.3549614,-1.2547588,-1170.296,1723.935)"
       cx="-307.14288"
       cy="782.36218"
       fx="-307.14288"
       fy="782.36218"
       r="63" />
    <inkscape:path-effect
       is_visible="true"
       id="path-effect10090-3"
       effect="spiro" />
    <inkscape:path-effect
       effect="spiro"
       id="path-effect10084-1"
       is_visible="true" />
    <inkscape:path-effect
       effect="spiro"
       id="path-effect10082-1"
       is_visible="true" />
    <radialGradient
       inkscape:collect="always"
       xlink:href="#linearGradient4801-8"
       id="radialGradient4061"
       gradientUnits="userSpaceOnUse"
       gradientTransform="matrix(-0.76516322,1.2901254,-2.4104477,-1.2865998,1806.8444,1757.4704)"
       cx="-307.14288"
       cy="782.36218"
       fx="-307.14288"
       fy="782.36218"
       r="63" />
    <inkscape:path-effect
       effect="spiro"
       id="path-effect10080-4"
       is_visible="true" />
    <inkscape:path-effect
       is_visible="true"
       id="path-effect3075-1"
       effect="spiro" />
    <inkscape:path-effect
       effect="spiro"
       id="path-effect3101-7"
       is_visible="true" />
    <linearGradient
       inkscape:collect="always"
       xlink:href="#grad1-7-7"
       id="linearGradient3085-8-8"
       gradientUnits="userSpaceOnUse"
       gradientTransform="matrix(0.77469594,0,0,0.30982404,152.68996,-13.619206)"
       x1="78.877235"
       y1="178.07356"
       x2="301.40585"
       y2="178.07356" />
    <linearGradient
       id="grad1-7-7"
       x1="78.877235"
       y1="178.07356"
       x2="301.40585"
       y2="178.07356"
       gradientTransform="scale(1.577772,0.63380513)"
       gradientUnits="userSpaceOnUse">
      <stop
         offset="0%"
         style="stop-color:#da0;"
         id="stop16-4-4" />
      <stop
         offset="40%"
         style="stop-color:#fd0;"
         id="stop18-0-0" />
      <stop
         offset="60%"
         style="stop-color:#fd0;"
         id="stop20-9-9" />
      <stop
         offset="100%"
         style="stop-color:#da0;"
         id="stop22-4-4" />
    </linearGradient>
    <linearGradient
       inkscape:collect="always"
       xlink:href="#grad1-7-7"
       id="linearGradient3081-8-8"
       gradientUnits="userSpaceOnUse"
       gradientTransform="matrix(0.77469594,0,0,0.30982404,-27.310046,-13.619206)"
       x1="78.877235"
       y1="178.07356"
       x2="301.40585"
       y2="178.07356" />
    <linearGradient
       id="linearGradient3093"
       x1="78.877235"
       y1="178.07356"
       x2="301.40585"
       y2="178.07356"
       gradientTransform="scale(1.577772,0.63380513)"
       gradientUnits="userSpaceOnUse">
      <stop
         offset="0%"
         style="stop-color:#da0;"
         id="stop3095" />
      <stop
         offset="40%"
         style="stop-color:#fd0;"
         id="stop3097" />
      <stop
         offset="60%"
         style="stop-color:#fd0;"
         id="stop3099" />
      <stop
         offset="100%"
         style="stop-color:#da0;"
         id="stop3101" />
    </linearGradient>
    <linearGradient
       y2="178.07356"
       x2="301.40585"
       y1="178.07356"
       x1="78.877235"
       gradientTransform="matrix(0.77469594,0,0,0.30982404,332.68995,-13.619206)"
       gradientUnits="userSpaceOnUse"
       id="linearGradient3128-1"
       xlink:href="#grad1-7-7"
       inkscape:collect="always" />
    <linearGradient
       id="linearGradient3104"
       x1="78.877235"
       y1="178.07356"
       x2="301.40585"
       y2="178.07356"
       gradientTransform="scale(1.577772,0.63380513)"
       gradientUnits="userSpaceOnUse">
      <stop
         offset="0%"
         style="stop-color:#da0;"
         id="stop3106" />
      <stop
         offset="40%"
         style="stop-color:#fd0;"
         id="stop3108" />
      <stop
         offset="60%"
         style="stop-color:#fd0;"
         id="stop3110" />
      <stop
         offset="100%"
         style="stop-color:#da0;"
         id="stop3112" />
    </linearGradient>
  </defs>
  <g
     inkscape:groupmode="layer"
     id="layer2"
     inkscape:label="Elements"
     style="display:inline">
    <path
       inkscape:connector-curvature="0"
       style="fill:#000000"
       d="m 2,2 0,257 c 0,286 298,398 298,398 0,0 298,-112 298,-398 L 598,2 2,2 z"
       id="rect18" />
    <g
       style="display:inline;stroke-width:2.01131696;stroke-miterlimit:4;stroke-dasharray:none"
       id="g3080"
       transform="matrix(0.99437336,0,0,0.99437336,-225.02219,-238.29954)">
      <g
         style="fill:#ffdd00;stroke:#000000;stroke-width:2.01131696;stroke-miterlimit:4;stroke-dasharray:none"
         transform="translate(131.03381,174.18432)"
         id="g2994">
        <path
           style="fill:#ffdd00;stroke:#000000;stroke-width:2.01131696;stroke-miterlimit:4;stroke-dasharray:none"
           d="m 315.28125,299.03125 c 1.27571,-3.83389 2.67429,-7.64667 3.53843,-11.59375 1.90195,-8.68746 3.59526,-11.71324 3.58657,-26.4375 -0.008,-14.35776 -0.3829,-17.99308 -2.71875,-28 -6.35613,-27.23009 -20.01144,-44.46588 -39.21875,-49.46875 -16.15049,-4.20667 -40.57672,0.84068 -60.59375,12.53125 -3.78417,2.21007 -13.49507,8.97439 -21.59375,15.03125 -19.36032,14.47924 -26.68431,18.14452 -37.625,18.71875 -10.77232,0.56541 -16.59004,-1.79969 -23.65625,-9.53125 -11.81496,-12.92745 -10.53098,-32.77452 3,-46.09375 6.0433,-5.94873 17.99405,-12.35672 26.59375,-14.28125 5.47811,-1.22594 5.73671,-1.21616 7.53125,1 1.10353,1.3628 1.875,3.91491 1.875,6.21875 0,2.13907 0.23797,3.875 0.53125,3.875 0.9408,0 10.77964,-5.12875 16.96875,-8.84375 13.81805,-8.29424 25.5,-19.17175 25.5,-23.75 0,-3.14751 -3.70485,-3.75679 -22.5,-3.75 -14.92457,0.005 -21.6489,1.01006 -26.21875,3.9375 l -2.25,1.4375 2.15625,4.125 c 2.08867,4.00721 2.09039,4.14587 0.28125,5.46875 -1.02501,0.7495 -2.54887,1.36791 -3.40625,1.375 -2.8324,0.0234 -13.83432,3.86141 -19.75,6.875 -13.18609,6.71731 -23.36751,16.71736 -27.21875,26.78125 -3.77582,9.86684 -2.61082,24.49192 2.75,35 7.30537,14.31971 27.99973,25.64064 40.96875,22.375 7.62865,-1.92092 23.4283,-10.66805 42.9375,-23.75 20.72976,-13.90041 27.99918,-17.8403 40.25,-21.8125 6.46824,-2.09726 10.53176,-2.74855 17,-2.78125 11.50038,-0.0581 18.15711,2.54381 25.96875,10.1875 12.29309,12.02878 19.36758,27.58624 21.28125,46.6875 3.37214,22.23738 -3.2462,30.85816 -7.20424,45.7956 -2.96658,11.19571 -8.06173,21.71763 -12.30552,32.49421 -2.00301,5.0864 -4.4716,9.99579 -6.20899,15.17894 -5.25657,15.68187 -10.2729,33.85885 -12.6875,47.96875 -2.82587,16.51324 -3.00196,38.42475 -0.40625,48.5 6.5392,25.3819 26.84265,40.4255 49.3125,36.53125 19.43172,-3.36771 32.33723,-17.04426 35.21875,-37.34375 2.19673,-15.47538 -1.0012,-29.71451 -13.03125,-57.9375 -9.79077,-22.96952 -11.94762,-33.05514 -8.5,-39.5625 2.66042,-5.02154 11.42079,-10.65797 18.25,-11.75 4.80772,-0.76879 8.8856,0.84727 16.28125,6.4375 3.0102,2.27536 5.85001,4.125 6.3125,4.125 1.54211,0 -3.52456,-7.82237 -8.34375,-12.875 -7.13804,-7.48381 -13.30174,-8.80438 -20.9375,-9.58051 -4.59432,-0.46699 -10.19108,1.331 -13.5,3.11176 -10.39493,5.59424 -17.49981,21.24502 -16,35.25 1.09407,10.21624 3.85521,17.62312 13.625,36.8125 l 9.03125,17.78125 -0.4375,11 c -0.53037,13.63211 -3.11867,22.28847 -8.84375,29.53125 -6.55065,8.28719 -14.65943,10.14688 -24.4375,5.59375 -8.04655,-3.74685 -14.21177,-12.77271 -17.9375,-26.28125 -2.10912,-7.64716 -3.265,-27.03915 -1.6875,-40.4375 2.44675,-20.78122 10.70644,-40.47677 17.11288,-60.39668 3.41518,-10.61901 7.83405,-20.8942 11.35587,-31.47832 z"
           id="path3869"
           inkscape:connector-curvature="0"
           sodipodi:nodetypes="aacsssssssssssssccccsssssssssscaaassssssssssasscccsssaaa" />
        <g
           style="fill:#ffdd00;stroke:#000000;stroke-width:2.01131696;stroke-miterlimit:4;stroke-dasharray:none"
           id="g3096"
           transform="matrix(-1,0,0,1,787.9184,0)">
          <path
             style="fill:#ffdd00;stroke:#000000;stroke-width:2.01131696;stroke-miterlimit:4;stroke-dasharray:none"
             d="m 309.28125,299.03125 c 1.27571,-3.83389 2.67429,-7.64667 3.53843,-11.59375 1.90195,-8.68746 3.59526,-11.71324 3.58657,-26.4375 -0.008,-14.35776 -0.3829,-17.99308 -2.71875,-28 -6.35613,-27.23009 -20.01144,-44.46588 -39.21875,-49.46875 -16.15049,-4.20667 -40.57672,0.84068 -60.59375,12.53125 -3.78417,2.21007 -13.49507,8.97439 -21.59375,15.03125 -19.36032,14.47924 -26.68431,18.14452 -37.625,18.71875 -10.77232,0.56541 -16.59004,-1.79969 -23.65625,-9.53125 -11.81496,-12.92745 -10.53098,-32.77452 3,-46.09375 6.0433,-5.94873 17.99405,-12.35672 26.59375,-14.28125 5.47811,-1.22594 5.73671,-1.21616 7.53125,1 1.10353,1.3628 1.875,3.91491 1.875,6.21875 0,2.13907 0.23797,3.875 0.53125,3.875 0.9408,0 10.77964,-5.12875 16.96875,-8.84375 13.81805,-8.29424 25.5,-19.17175 25.5,-23.75 0,-3.14751 -3.70485,-3.75679 -22.5,-3.75 -14.92457,0.005 -21.6489,1.01006 -26.21875,3.9375 l -2.25,1.4375 2.15625,4.125 c 2.08867,4.00721 2.09039,4.14587 0.28125,5.46875 -1.02501,0.7495 -2.54887,1.36791 -3.40625,1.375 -2.8324,0.0234 -13.83432,3.86141 -19.75,6.875 -13.18609,6.71731 -23.36751,16.71736 -27.21875,26.78125 -3.77582,9.86684 -2.61082,24.49192 2.75,35 7.30537,14.31971 27.99973,25.64064 40.96875,22.375 7.62865,-1.92092 23.4283,-10.66805 42.9375,-23.75 20.72976,-13.90041 27.99918,-17.8403 40.25,-21.8125 6.46824,-2.09726 10.53176,-2.74855 17,-2.78125 11.50038,-0.0581 18.15711,2.54381 25.96875,10.1875 12.29309,12.02878 19.36758,27.58624 21.28125,46.6875 3.37214,22.23738 -3.2462,30.85816 -7.20424,45.7956 -2.96658,11.19571 -8.06173,21.71763 -12.30552,32.49421 -2.00301,5.0864 -4.4716,9.99579 -6.20899,15.17894 -5.25657,15.68187 -10.2729,33.85885 -12.6875,47.96875 -2.82587,16.51324 -3.00196,38.42475 -0.40625,48.5 6.5392,25.3819 26.84265,40.4255 49.3125,36.53125 19.43172,-3.36771 32.33723,-17.04426 35.21875,-37.34375 2.19673,-15.47538 -1.0012,-29.71451 -13.03125,-57.9375 -9.79077,-22.96952 -11.94762,-33.05514 -8.5,-39.5625 2.66042,-5.02154 11.42079,-10.65797 18.25,-11.75 4.80772,-0.76879 8.8856,0.84727 16.28125,6.4375 3.0102,2.27536 5.85001,4.125 6.3125,4.125 1.54211,0 -3.52456,-7.82237 -8.34375,-12.875 -7.13804,-7.48381 -13.30174,-8.80438 -20.9375,-9.58051 -4.59432,-0.46699 -10.19108,1.331 -13.5,3.11176 -10.39493,5.59424 -17.49981,21.24502 -16,35.25 1.09407,10.21624 3.85521,17.62312 13.625,36.8125 l 9.03125,17.78125 -0.4375,11 c -0.53037,13.63211 -3.11867,22.28847 -8.84375,29.53125 -6.55065,8.28719 -14.65943,10.14688 -24.4375,5.59375 -8.04655,-3.74685 -14.21177,-12.77271 -17.9375,-26.28125 -2.10912,-7.64716 -3.265,-27.03915 -1.6875,-40.4375 2.44675,-20.78122 10.70644,-40.47677 17.11288,-60.39668 3.41518,-10.61901 7.83405,-20.8942 11.35587,-31.47832 z"
             id="path3094"
             inkscape:connector-curvature="0"
             sodipodi:nodetypes="aacsssssssssssssccccsssssssssscaaassssssssssasscccsssaaa" />
        </g>
      </g>
      <path
         sodipodi:nodetypes="cssssssssssssssaccssssssaascssssssscssssscssssssssssssssccsssssssssssssscssssscssssssscsssssssssccsssssssssssssscc"
         inkscape:connector-curvature="0"
         id="path3079"
         d="m 527.48862,763.14667 c -0.36959,-0.0416 -0.69172,-0.40944 -0.95481,-1.1186 -1.79681,-4.8433 -13.01836,-43.10911 -16.53125,-56.34375 -13.29724,-50.0966 -15.86878,-73.61515 -12.46875,-114.59375 2.25519,-27.18056 1.79483,-40.39359 -1.6875,-48 -2.96651,-6.47971 -7.13606,-9.56475 -14.1875,-10.53125 -2.74259,-0.37592 -4.625,-1.15402 -4.625,-1.90625 0,-1.67529 8.43296,-7.21923 13.125,-8.625 6.49444,-1.94578 13.14748,1.33995 17.90625,8.84375 3.60033,5.67714 3.68466,7.48431 0.59375,11.625 -1.30693,1.7508 -2.8888,4.83663 -3.53125,6.84375 -1.17411,3.66813 -0.61434,8.84375 0.96875,8.84375 1.85449,0 6.11813,-9.26405 7.59375,-16.5 1.89901,-9.31211 1.12846,-12.94052 -5.15625,-23.96875 -10.78463,-18.92457 -22.57601,-30.71598 -39.6875,-34.15625 -2.38281,-0.47906 -4.51515,-0.16713 -6.73379,0.17839 -4.03532,0.62845 -6.02846,1.73645 -11.76621,3.41536 l -32.1875,10.09375 c -12.92483,3.35925 -24.56799,3.903 -30.46875,1.4375 -1.97169,-0.82382 -5.24976,-2.96633 -7.28125,-4.75 -5.23697,-4.59813 -11.64925,-18.75 -8.5,-18.75 0.47437,0 2.61187,1.39842 4.75,3.125 5.32864,4.30299 14.75325,8.49566 22.1875,9.84375 9.1577,1.6606 16.34226,0.0129 30.15625,-6.90625 16.02919,-8.02871 21.91677,-9.12521 33.53125,-9.5625 5.95085,-0.22405 11.94509,1.44764 17.5,3.59375 4.46103,1.72349 9.67721,5.26602 12.34375,7.3125 2.66655,2.04647 5.10983,3.45266 5.4375,3.125 0.84075,-0.84076 -10.86603,-12.55221 -19.78125,-19.78125 -4.14914,-3.3644 -11.29764,-7.82659 -16,-10 -4.675,-2.16077 -7.37399,-2.79342 -11.16291,-3.86595 -6.14478,-1.73941 -12.69443,-1.9885 -18.70393,-4.14949 -2.47063,-0.88843 -4.90574,-2.0184 -7.01505,-3.58178 -6.54389,-4.8502 -12.24188,-10.53332 -16.96186,-17.59028 -7.5514,-11.29028 -11.41028,-21.42044 -11.96875,-31.43751 -0.30193,-5.4154 0.0321,-8.12805 0.90625,-8.09375 0.77129,0.0303 1.96383,2.19973 3.5,6.53125 7.377,20.80087 16.30153,32.43751 30.71875,42.15626 6.5286,4.40097 15.28902,3.77081 22.91384,5.73377 1.83404,0.47216 3.04999,0.65546 5.49241,1.45373 9.07355,2.96554 17.88369,7.997 25.84375,14.75 3.6047,3.05809 6.81414,5.31086 7.125,5 0.31087,-0.31086 -0.58484,-2.51265 -1.96875,-4.875 -6.53,-11.14676 -12.01485,-29.34889 -15.78125,-52.28126 -6.17491,-37.59701 -17.63981,-56.7168 -35.4375,-59.15625 -8.38068,-1.1487 -4.62477,-5.34375 4.78125,-5.34375 7.70515,0 16.33441,4.48716 21.78125,11.3125 10.05016,12.59357 17.2671,34.28919 21,63.18751 1.85938,14.39439 2.80517,18.52093 6.21875,26.9375 3.59839,8.87223 6.43322,11.45321 5.40625,4.9375 -0.3366,-2.13567 -1.13022,-11.975 -1.75,-21.875 -2.7612,-44.10618 4.08944,-82.45791 17.21875,-96.50001 4.34789,-4.65017 4.57584,-3.20249 1.90625,11.84375 -8.34597,47.03918 -7.69815,99.62236 1.59375,130.15626 3.31839,10.90446 4.96481,12.914 4.5,5.5 -0.29607,-4.72251 0.003,-5.75279 2.21875,-7.96875 1.58037,-1.58038 2.5988,-2.36648 3.60746,-2.37248 l -0.0465,0 c 1.00866,0.006 2.02709,0.7921 3.60746,2.37248 2.21594,2.21596 2.51482,3.24624 2.21875,7.96875 -0.46481,7.414 1.18161,5.40446 4.5,-5.5 9.2919,-30.5339 9.93972,-83.11708 1.59375,-130.15626 -2.66959,-15.04624 -2.44164,-16.49392 1.90625,-11.84375 13.12931,14.0421 19.97995,52.39383 17.21875,96.50001 -0.61978,9.9 -1.4134,19.73933 -1.75,21.875 -1.02697,6.51571 1.80786,3.93473 5.40625,-4.9375 3.41358,-8.41657 4.35937,-12.54311 6.21875,-26.9375 3.7329,-28.89832 10.94984,-50.59394 21,-63.18751 5.44682,-6.82534 14.07608,-11.3125 21.78123,-11.3125 9.40602,0 13.16193,4.19505 4.78125,5.34375 -17.79769,2.43945 -29.26259,21.55924 -35.4375,59.15625 -3.7664,22.93237 -9.25125,41.1345 -15.78125,52.28126 -1.38391,2.36235 -2.27962,4.56414 -1.96875,4.875 0.31086,0.31086 3.5203,-1.94191 7.125,-5 7.96006,-6.753 16.7702,-11.78446 25.84375,-14.75 2.44242,-0.79827 3.65837,-0.98157 5.49241,-1.45373 7.62482,-1.96296 16.38524,-1.3328 22.91384,-5.73377 14.41722,-9.71875 23.34175,-21.35539 30.71875,-42.15626 1.53617,-4.33152 2.72871,-6.50096 3.5,-6.53125 0.87413,-0.0343 1.20818,2.67835 0.90625,8.09375 -0.55847,10.01707 -4.41735,20.14723 -11.96875,31.43751 -4.71998,7.05696 -10.41797,12.74008 -16.96186,17.59028 -2.10931,1.56338 -4.54442,2.69335 -7.01505,3.58178 -6.0095,2.16099 -12.55915,2.41008 -18.70393,4.14949 -3.78892,1.07253 -6.48791,1.70518 -11.16291,3.86595 -4.70236,2.17341 -11.85086,6.6356 -16,10 -8.91522,7.22904 -20.622,18.94049 -19.78125,19.78125 0.32767,0.32766 2.77095,-1.07853 5.4375,-3.125 2.66654,-2.04648 8.21875,-5.33385 12.34375,-7.3125 7.06779,-3.39022 8.07629,-3.59375 17.5,-3.59375 12.13528,0 17.50206,1.53379 33.53125,9.5625 13.81399,6.91916 20.99855,8.56685 30.15625,6.90625 7.43425,-1.34809 16.85886,-5.54076 22.1875,-9.84375 2.13813,-1.72658 4.27563,-3.125 4.75,-3.125 3.14925,0 -3.26303,14.15187 -8.5,18.75 -2.03149,1.78367 -5.30956,3.92618 -7.28125,4.75 -5.90076,2.4655 -17.54392,1.92175 -30.46875,-1.4375 l -32.1875,-10.09375 c -11.29792,-3.44662 -14.67168,-4.11473 -18.5,-3.59375 -13.30089,1.81005 -28.90287,15.23168 -39.6875,34.15625 -6.28471,11.02823 -7.05526,14.65664 -5.15625,23.96875 1.47562,7.23595 5.73926,16.5 7.59375,16.5 1.58309,0 2.14286,-5.17562 0.96875,-8.84375 -0.64245,-2.00712 -2.22432,-5.09295 -3.53125,-6.84375 -3.09091,-4.14069 -3.00658,-5.94786 0.59375,-11.625 4.75877,-7.5038 11.41181,-10.78953 17.90625,-8.84375 4.69204,1.40577 13.125,6.94971 13.125,8.625 0,0.75223 -1.88241,1.53033 -4.625,1.90625 -7.05144,0.9665 -11.22099,4.05154 -14.1875,10.53125 -3.48233,7.60641 -3.94269,20.81944 -1.6875,48 3.40003,40.9786 0.82849,64.49715 -12.46875,114.59375 -3.51289,13.23464 -14.73444,51.50045 -16.53125,56.34375 -0.26309,0.70916 -0.58522,1.07699 -0.95481,1.1186 z"
         style="fill:#ffdd00;stroke:#000000;stroke-width:2.01131696;stroke-miterlimit:4;stroke-dasharray:none" />
      <path
         id="path2999"
         d="m 554.03381,687.18432 c -0.44786,0 -1.51708,3.4875 -2.40625,7.75 -6.68667,32.05447 -20.09893,74.25 -23.59375,74.25 -3.19375,0 -15.49601,-37.62794 -21.90625,-66.96875 -1.5928,-7.29053 -3.35711,-13.70086 -3.90625,-14.25 -0.66459,-0.66459 -1.20304,1.6466 -1.625,6.875 -1.82172,22.57236 -7.84683,35.95195 -17.8125,39.625 -2.75438,1.01519 -2.11674,2.15672 3.1875,5.59375 14.72657,9.54249 19.84096,27.008 12.5625,42.90625 -1.40433,3.06748 -2.20742,5.89402 -1.78125,6.28125 0.42617,0.38723 2.4607,1.22356 4.5,1.875 7.91436,2.52818 18.24102,17.84509 23.8125,35.3125 1.18416,3.7125 2.51414,6.75 2.96875,6.75 0.45461,0 1.80713,-3.0375 3,-6.75 5.84688,-18.19693 15.63021,-32.69023 23.84375,-35.3125 2.00516,-0.64017 4.01226,-1.4887 4.4375,-1.875 0.42525,-0.38631 -0.40341,-3.36814 -1.84375,-6.625 -3.75028,-8.48004 -4.32765,-18.15309 -1.5,-25.625 2.31532,-6.11814 10.51908,-15.44482 16.125,-18.34375 1.68974,-0.8738 2.92258,-1.96372 2.75,-2.4375 -0.17258,-0.47377 -2.54089,-2.35604 -5.25,-4.1875 -8.20664,-5.54802 -12.4184,-16.67126 -14.09375,-37.09375 -0.34967,-4.2625 -1.02088,-7.75 -1.46875,-7.75 z"
         style="fill:#ffdd00;stroke:#000000;stroke-width:2.01131696;stroke-miterlimit:4;stroke-dasharray:none"
         inkscape:connector-curvature="0" />
    </g>
  </g>
  <g
     inkscape:groupmode="layer"
     id="layer1"
     inkscape:label="Cover"
     style="display:inline"
     sodipodi:insensitive="true">
    <path
       d="m 2,2 v 257 c 0,286 298,398 298,398 0,0 298,-112 298,-398 V 2 z"
       id="shine"
       inkscape:connector-curvature="0"
       style="fill:url(#radialGradient3074);stroke:#000000;stroke-width:3" />
  </g>
</svg>
