<?xml version="1.0" encoding="UTF-8" standalone="no"?>
<svg
   xmlns:dc="http://purl.org/dc/elements/1.1/"
   xmlns:cc="http://creativecommons.org/ns#"
   xmlns:rdf="http://www.w3.org/1999/02/22-rdf-syntax-ns#"
   xmlns:svg="http://www.w3.org/2000/svg"
   xmlns="http://www.w3.org/2000/svg"
   xmlns:xlink="http://www.w3.org/1999/xlink"
   xmlns:sodipodi="http://sodipodi.sourceforge.net/DTD/sodipodi-0.dtd"
   xmlns:inkscape="http://www.inkscape.org/namespaces/inkscape"
   width="600"
   height="660"
   id="svg2"
   version="1.1"
   inkscape:version="0.48.2 r9819"
   sodipodi:docname="House_Harte.svg">
  <metadata
     id="metadata36">
    <rdf:RDF>
      <cc:Work
         rdf:about="">
        <dc:format>image/svg+xml</dc:format>
        <dc:type
           rdf:resource="http://purl.org/dc/dcmitype/StillImage" />
        <dc:title />
      </cc:Work>
    </rdf:RDF>
  </metadata>
  <sodipodi:namedview
     pagecolor="#ffffff"
     bordercolor="#666666"
     borderopacity="1"
     objecttolerance="10"
     gridtolerance="10"
     guidetolerance="10"
     inkscape:pageopacity="0"
     inkscape:pageshadow="2"
     inkscape:window-width="1366"
     inkscape:window-height="715"
     id="namedview34"
     showgrid="false"
     inkscape:zoom="0.50568848"
     inkscape:cx="-51.759813"
     inkscape:cy="486.65826"
     inkscape:window-x="-8"
     inkscape:window-y="-8"
     inkscape:window-maximized="1"
     inkscape:current-layer="svg2" />
  <defs
     id="defs4">
    <pattern
       inkscape:collect="always"
       xlink:href="#pattern3018"
       id="pattern3091"
       patternTransform="translate(-360.76271,-51.737289)" />
    <pattern
       inkscape:collect="always"
       xlink:href="#vair"
       id="pattern3018" />
    <radialGradient
       id="rg"
       gradientUnits="userSpaceOnUse"
       cx="220"
       cy="220"
       r="405">
      <stop
         style="stop-color:#fff;stop-opacity:.3"
         offset="0"
         id="stop7" />
      <stop
         style="stop-color:#fff;stop-opacity:.2"
         offset=".2"
         id="stop9" />
      <stop
         style="stop-color:#666;stop-opacity:.1"
         offset=".6"
         id="stop11" />
      <stop
         style="stop-color:#000;stop-opacity:.13"
         offset="1"
         id="stop13" />
    </radialGradient>
    <clipPath
       id="clip-shield">
      <path
         id="shield"
         d="m2,2v257c0,286 298,398 298,398c0,0 298-112 298-398V2z" />
    </clipPath>
    <pattern
       id="vair"
       patternUnits="userSpaceOnUse"
       x="0"
       width="120"
       height="220">
      <path
         fill="#00c"
         d="M60,0 l30,30 v50 l30,30 v110 h-60 l30,-30 v-50 l30,-30 H0 l30,30 v50 l30,30 H0 v-110 l30,-30 v-50z"
         id="path18" />
    </pattern>
    <radialGradient
       inkscape:collect="always"
       xlink:href="#rg"
       id="radialGradient3980"
       gradientUnits="userSpaceOnUse"
       cx="220"
       cy="220"
       r="405" />
    <radialGradient
       inkscape:collect="always"
       xlink:href="#rg"
       id="radialGradient3986"
       gradientUnits="userSpaceOnUse"
       cx="220"
       cy="220"
       r="405" />
    <radialGradient
       inkscape:collect="always"
       xlink:href="#rg"
       id="radialGradient4239"
       gradientUnits="userSpaceOnUse"
       cx="220"
       cy="220"
       r="405" />
    <radialGradient
       inkscape:collect="always"
       xlink:href="#rg"
       id="radialGradient4372"
       gradientUnits="userSpaceOnUse"
       cx="220"
       cy="220"
       r="405"
       gradientTransform="translate(659.8581,-236.72867)" />
    <radialGradient
       inkscape:collect="always"
       xlink:href="#rg"
       id="radialGradient4383"
       gradientUnits="userSpaceOnUse"
       cx="220"
       cy="220"
       r="405" />
    <radialGradient
       inkscape:collect="always"
       xlink:href="#rg"
       id="radialGradient5274"
       gradientUnits="userSpaceOnUse"
       cx="220"
       cy="220"
       r="405" />
    <radialGradient
       inkscape:collect="always"
       xlink:href="#rg"
       id="radialGradient5367"
       gradientUnits="userSpaceOnUse"
       cx="220"
       cy="220"
       r="405" />
    <radialGradient
       inkscape:collect="always"
       xlink:href="#rg-7"
       id="radialGradient5274-1"
       gradientUnits="userSpaceOnUse"
       cx="220"
       cy="220"
       r="405" />
    <radialGradient
       id="rg-7"
       gradientUnits="userSpaceOnUse"
       cx="220"
       cy="220"
       r="405">
      <stop
         style="stop-color:#fff;stop-opacity:.3"
         offset="0"
         id="stop7-4" />
      <stop
         style="stop-color:#fff;stop-opacity:.2"
         offset=".2"
         id="stop9-0" />
      <stop
         style="stop-color:#666;stop-opacity:.1"
         offset=".6"
         id="stop11-9" />
      <stop
         style="stop-color:#000;stop-opacity:.13"
         offset="1"
         id="stop13-4" />
    </radialGradient>
    <radialGradient
       inkscape:collect="always"
       xlink:href="#rg-7"
       id="radialGradient5292"
       gradientUnits="userSpaceOnUse"
       cx="220"
       cy="220"
       r="405" />
    <radialGradient
       id="radialGradient5294"
       gradientUnits="userSpaceOnUse"
       cx="220"
       cy="220"
       r="405">
      <stop
         style="stop-color:#fff;stop-opacity:.3"
         offset="0"
         id="stop5296" />
      <stop
         style="stop-color:#fff;stop-opacity:.2"
         offset=".2"
         id="stop5298" />
      <stop
         style="stop-color:#666;stop-opacity:.1"
         offset=".6"
         id="stop5300" />
      <stop
         style="stop-color:#000;stop-opacity:.13"
         offset="1"
         id="stop5302" />
    </radialGradient>
    <clipPath
       clipPathUnits="userSpaceOnUse"
       id="clipPath5608">
      <use
         height="660"
         width="600"
         y="0"
         x="0"
         transform="translate(0.01435,0)"
         style="fill:url(#radialGradient5612);stroke:#000000;stroke-width:3"
         id="use5610"
         xlink:href="#shield" />
    </clipPath>
    <radialGradient
       inkscape:collect="always"
       xlink:href="#rg-7"
       id="radialGradient5612"
       gradientUnits="userSpaceOnUse"
       cx="220"
       cy="220"
       r="405" />
    <radialGradient
       inkscape:collect="always"
       xlink:href="#rg-7-7"
       id="radialGradient5274-1-1"
       gradientUnits="userSpaceOnUse"
       cx="220"
       cy="220"
       r="405" />
    <radialGradient
       id="rg-7-7"
       gradientUnits="userSpaceOnUse"
       cx="220"
       cy="220"
       r="405">
      <stop
         style="stop-color:#fff;stop-opacity:.3"
         offset="0"
         id="stop7-4-4" />
      <stop
         style="stop-color:#fff;stop-opacity:.2"
         offset=".2"
         id="stop9-0-0" />
      <stop
         style="stop-color:#666;stop-opacity:.1"
         offset=".6"
         id="stop11-9-9" />
      <stop
         style="stop-color:#000;stop-opacity:.13"
         offset="1"
         id="stop13-4-4" />
    </radialGradient>
    <radialGradient
       inkscape:collect="always"
       xlink:href="#rg-7-7"
       id="radialGradient3094"
       gradientUnits="userSpaceOnUse"
       cx="220"
       cy="220"
       r="405" />
    <radialGradient
       id="radialGradient3096"
       gradientUnits="userSpaceOnUse"
       cx="220"
       cy="220"
       r="405">
      <stop
         style="stop-color:#fff;stop-opacity:.3"
         offset="0"
         id="stop3098" />
      <stop
         style="stop-color:#fff;stop-opacity:.2"
         offset=".2"
         id="stop3100" />
      <stop
         style="stop-color:#666;stop-opacity:.1"
         offset=".6"
         id="stop3102" />
      <stop
         style="stop-color:#000;stop-opacity:.13"
         offset="1"
         id="stop3104" />
    </radialGradient>
  </defs>
  <path
     inkscape:connector-curvature="0"
     style="fill:#ffffff"
     d="m 2,2 0,257 c 0,286 298,398 298,398 0,0 298,-112 298,-398 L 598,2 2,2 z"
     id="rect21" />
  <path
     inkscape:connector-curvature="0"
     style="fill:#0000cc;fill-opacity:1"
     d="m 58,2 -28,28 0,50 -28,28 0,2 118,0 L 90,80 90,30 62,2 58,2 z m 62,108 120,0 -30,-30 0,-50 -28,-28 -4,0 -28,28 0,50 -30,30 z m 0,0 -30,30 0,50 -30,30 60,0 60,0 -30,-30 0,-50 -30,-30 z m 60,110 60,0 60,0 -30,-30 0,-50 -30,-30 -30,30 0,50 -30,30 z m 0,0 -30,30 0,50 -30,30 120,0 -30,-30 0,-50 -30,-30 z m 60,110 120,0 -30,-30 0,-50 -30,-30 -30,30 0,50 -30,30 z m 0,0 -30,30 0,50 -30,30 60,0 60,0 -30,-30 0,-50 -30,-30 z m 60,110 60,0 60,0 -30,-30 0,-50 -30,-30 -30,30 0,50 -30,30 z m 0,0 -30,30 0,50 -30,30 120,0 -30,-30 0,-50 -30,-30 z m 60,110 106.03125,0 c 2.39023,-2.23495 4.78037,-4.50159 7.15625,-6.8125 L 450,520 l 0,-50 -30,-30 -30,30 0,50 -30,30 z m 0,0 -30,30 0,50 -25,25 c 12.01066,-4.98356 45.04761,-19.69928 85,-45.71875 L 390,580 360,550 z m 60,-110 60,0 60,0 -30,-30 0,-50 -30,-30 -30,30 0,50 -30,30 z m 60,-110 -30,-30 0,-50 -30,-30 -30,30 0,50 -30,30 120,0 z m 0,0 111.5625,0 c 0.44273,-2.38574 0.85045,-4.77244 1.25,-7.1875 L 570,300 l 0,-50 -30,-30 -30,30 0,50 -30,30 z m 60,-110 -30,-30 0,-50 -30,-30 -30,30 0,50 -30,30 60,0 60,0 z m 0,0 58,0 0,-108 -28,28 0,50 -30,30 z m -120,0 -30,-30 0,-50 -30,-30 -30,30 0,50 -30,30 60,0 60,0 z M 360,110 330,80 330,30 302,2 l -4,0 -28,28 0,50 -30,30 120,0 z m 0,0 120,0 -30,-30 0,-50 -28,-28 -4,0 -28,28 0,50 -30,30 z m 120,0 118,0 0,-2 -28,-28 0,-50 -28,-28 -4,0 -28,28 0,50 -30,30 z m 60,330 12.4375,0 c 4.35197,-8.00262 8.46148,-16.25442 12.3125,-24.75 L 540,440 z m 0,0 -30,30 0,33.03125 c 13.68166,-16.82311 26.53649,-35.16499 37.96875,-55.0625 L 540,440 z m -300,110 -30,30 0,29.28125 c 39.95239,26.01947 72.98934,40.73519 85,45.71875 l -25,-25 0,-50 -30,-30 z m 0,0 -30,-30 0,-50 -30,-30 -30,30 0,50 -23.1875,23.1875 c 2.37588,2.31091 4.76602,4.57755 7.15625,6.8125 L 240,550 z m -60,-110 -30,-30 0,-50 -30,-30 -30,30 0,50 -30,30 60,0 60,0 z m -120,0 -7.96875,7.96875 C 63.463508,467.86626 76.318336,486.20814 90,503.03125 L 90,470 60,440 z m 0,0 -24.75,-24.75 c 3.851022,8.49558 7.960526,16.74738 12.3125,24.75 L 60,440 z m 60,-110 -30,-30 0,-50 -30,-30 -30,30 0,50 -22.8125,22.8125 c 0.3995529,2.41506 0.8072707,4.80176 1.25,7.1875 L 120,330 z M 60,220 30,190 30,140 2,112 2,220 60,220 z M 10.53125,340.53125 C 15.306954,362.68207 21.941931,383.53558 30,403.125 L 30,360 10.53125,340.53125 z m 578.9375,0 L 570,360 l 0,43.125 c 8.05807,-19.58942 14.69305,-40.44293 19.46875,-62.59375 z"
     id="path4493" />
  <path
     style="fill:#ffffff;stroke:#000000;stroke-width:3;stroke-miterlimit:4;stroke-dasharray:none"
     d="m 2,2.00992 0,111.28125 449.65624,449.65625 c 36.6368,-31.77223 73.0608,-72.18379 100.4062,-122.21875 L 113.34375,2.00992 2,2.00992 z"
     id="path3978"
     inkscape:connector-curvature="0" />
  <g
     id="g3992"
     transform="matrix(0.8164023,-0.8164023,0.8164023,0.8164023,-80.96961,92.536087)">
    <g
       style="stroke-width:9.8092823;stroke-miterlimit:4;stroke-dasharray:none"
       id="g3994"
       transform="matrix(0.20198598,0,0,0.20580896,30.455227,13.486547)">
      <path
         id="path3996"
         style="fill:#cc0000;fill-opacity:1;fill-rule:evenodd;stroke:#000000;stroke-width:8.49606894999999970;stroke-linecap:butt;stroke-linejoin:miter;stroke-miterlimit:4;stroke-opacity:1;stroke-dasharray:none"
         d="m 225.06956,598.83523 c 0.85136,-2.82131 -4.26341,-13.57758 25.4632,-55.07503 -68.67222,-69.63281 -94.37141,-165.13559 -41.53249,-233.46641 l -3.91386,-7.82772 -37.57308,34.44199 -21.13486,0 c -12.65978,-7.49414 -20.23556,-22.61427 -28.96259,-36.00754 -4.44788,5.01298 -9.72805,8.71809 0,36.00754 43.52808,39.39955 38.43619,78.79911 42.26972,118.19866 -23.57779,6.47137 -44.97896,-21.88313 -66.535665,-47.74913 -8.68929,-15.11875 -20.840791,-18.11977 -33.65922,-18.78654 25.17054,47.02398 46.859495,97.89601 110.370935,102.54321 l 58.70794,76.71171 c -45.65843,8.22628 -99.44303,-0.92869 -126.02638,-35.22477 -5.453091,-0.91624 -9.095812,-1.73308 -6.262185,6.67324 46.227885,56.10231 62.464165,62.98965 122.735775,63.01847 8.9908,0.004 5.30072,-0.96551 6.05276,-3.45768 z m 24.39431,-4.1106 c 2.68908,-0.60162 8.50967,-2.00401 11.19939,-2.63271 3.64371,4.43802 6.1657,9.15647 1.56555,15.65545 -8.95926,4.66907 -10.23755,-3.46346 -13.30714,-8.6105 0.7081,-11.97739 12.4261,-26.69952 21.13486,-42.26972 20.31709,-37.71787 11.30172,-50.99202 7.82773,-68.88398 -2.8693,-3.12761 -2.00766,-6.98697 -3.91386,-6.26218 -7.00554,37.52996 -26.10049,66.73075 -40.1171,88.45329 -8.00731,14.82729 -20.15958,45.46502 12.72006,62.62181 18.422,1.71519 32.15385,0.0803 36.00753,-8.6105 11.28364,-4.04166 19.48207,-1.9129 26.61427,2.34832 l 21.13486,-24.26595 C 308.51909,591.18313 286.535,575.8794 268.70548,560.91605"
         inkscape:connector-curvature="0" />
      <path
         id="path3998"
         style="fill:#cc0000;fill-opacity:1;fill-rule:evenodd;stroke:#000000;stroke-width:8.49606894999999970;stroke-linecap:butt;stroke-linejoin:miter;stroke-miterlimit:4;stroke-opacity:1;stroke-dasharray:none"
         d="m 525.63565,598.83523 c -0.85136,-2.82131 4.26341,-13.57758 -25.4632,-55.07503 68.67222,-69.63281 94.37141,-165.13559 41.53249,-233.46641 l 3.91386,-7.82772 37.57308,34.44199 21.13486,0 c 12.65977,-7.49414 20.23555,-22.61427 28.96259,-36.00754 4.44788,5.01298 9.72804,8.71809 0,36.00754 -43.52808,39.39955 -38.43619,78.79911 -42.26972,118.19866 23.57779,6.47137 44.97896,-21.88313 66.53566,-47.74913 8.68929,-15.11875 20.84079,-18.11977 33.65922,-18.78654 -25.17054,47.02398 -46.85949,97.89601 -110.37093,102.54321 l -58.70794,76.71171 c 45.65843,8.22628 99.44302,-0.92869 126.02638,-35.22477 5.45309,-0.91624 9.09581,-1.73308 6.26218,6.67324 -46.22788,56.10231 -62.46416,62.98965 -122.73577,63.01847 -8.9908,0.004 -5.30072,-0.96551 -6.05276,-3.45768 z m -24.39431,-4.1106 c -2.68908,-0.60162 -8.50967,-2.00401 -11.19939,-2.63271 -3.64371,4.43802 -6.1657,9.15647 -1.56555,15.65545 8.95926,4.66907 10.23755,-3.46346 13.30714,-8.6105 -0.7081,-11.97739 -12.42611,-26.69952 -21.13486,-42.26972 -20.31709,-37.71787 -11.30172,-50.99202 -7.82773,-68.88398 2.8693,-3.12761 2.00766,-6.98697 3.91386,-6.26218 7.00554,37.52996 26.10049,66.73075 40.1171,88.45329 8.00731,14.82729 20.15958,45.46502 -12.72006,62.62181 -18.422,1.71519 -32.15385,0.0803 -36.00753,-8.6105 -11.28364,-4.04166 -19.48207,-1.9129 -26.61427,2.34832 l -21.13486,-24.26595 c 21.81093,-11.08483 43.79501,-26.38856 61.62453,-41.35191"
         inkscape:connector-curvature="0" />
    </g>
    <path
       inkscape:connector-curvature="0"
       sodipodi:nodetypes="cssscc"
       id="path4000"
       d="m 92.233647,145.4828 c -3.268206,-1.06554 -4.917748,-2.89197 -7.628705,-3.83869 -2.710966,-0.94672 -5.112423,0.75332 -6.708932,0.0442 -1.596496,-0.70908 0.844588,4.23557 3.480353,5.53494 2.635777,1.29935 8.982126,1.98 10.790149,1.62813 0.572362,-1.80734 -0.008,-3.01598 0.06714,-3.36862 z"
       style="fill:#cc0000;fill-opacity:1;fill-rule:evenodd;stroke:#000000;stroke-width:1.73225045000000000;stroke-linecap:butt;stroke-linejoin:miter;stroke-opacity:1" />
    <path
       inkscape:connector-curvature="0"
       sodipodi:nodetypes="cssscc"
       id="path4002"
       d="m 120.11418,145.86652 c 3.22901,-1.17895 4.8138,-3.06185 7.49007,-4.1026 2.67628,-1.04075 5.13561,0.57444 6.70639,-0.18994 1.57078,-0.76436 -0.69625,4.26247 -3.28505,5.65304 -2.58883,1.39055 -9.09405,2.27356 -10.91325,1.98501 0.0844,-1.78627 0.0893,-2.9957 0.002,-3.34551 z"
       style="fill:#cc0000;fill-opacity:1;fill-rule:evenodd;stroke:#000000;stroke-width:1.73225045000000000;stroke-linecap:butt;stroke-linejoin:miter;stroke-opacity:1;display:inline" />
    <path
       inkscape:connector-curvature="0"
       sodipodi:nodetypes="ccccscccsccccc"
       id="path4004"
       style="fill:#cc0000;fill-opacity:1;fill-rule:evenodd;stroke:#000000;stroke-width:1.73224925999999990;stroke-linecap:butt;stroke-linejoin:miter;stroke-miterlimit:4;stroke-opacity:1;stroke-dasharray:none"
       d="m 105.2577,135.93489 c -3.16474,-0.0204 -5.942609,1.35894 -8.048145,2.07549 -1.572914,0.35193 -2.822444,1.79216 -4.420588,4.40483 -0.450746,5.5826 -0.723228,9.47361 0.199078,12.33535 1.040125,6.79343 3.300509,9.53063 5.281527,13.4523 1.493726,2.957 1.516003,7.46568 2.182508,10.61098 2.07085,3.96738 3.78307,3.28902 5.4867,2.54728 1.68664,0.77958 3.37693,1.49591 5.53581,-2.42426 0.73655,-3.12964 0.5829,-7.68806 2.14225,-10.61098 2.06806,-3.87648 4.66551,-6.51119 5.857,-13.27973 0.98594,-2.84043 0.80038,-6.73655 0.47433,-12.32782 -1.53943,-2.64769 -2.75651,-4.11545 -4.32117,-4.50239 -2.29944,-0.84027 -5.42293,-2.26 -8.99076,-2.25919 -0.1378,-0.004 -1.05978,-0.0198 -1.37854,-0.0219 z" />
    <path
       inkscape:connector-curvature="0"
       id="path4006"
       style="fill:#000000;fill-opacity:1;fill-rule:evenodd;stroke:#000000;stroke-width:1.66446507;stroke-linecap:butt;stroke-linejoin:miter;stroke-miterlimit:4;stroke-opacity:1;stroke-dasharray:none"
       d="m 102.31493,173.86902 0.83353,3.31107 2.67829,2.54831 0.0654,1.54157 0.0889,8.6e-4 0.0998,-1.53972 2.7345,-2.4879 0.90721,-3.29164 -3.71509,0.96849 -3.69255,-1.05116 z" />
    <path
       inkscape:connector-curvature="0"
       sodipodi:nodetypes="cc"
       d="m 108.25781,155.8319 c 1.64518,-6.77436 6.50334,-7.36177 9.40931,-8.51201"
       style="fill:#cc0000;fill-opacity:1;fill-rule:evenodd;stroke:#000000;stroke-width:0.55482160999999997px;stroke-linecap:butt;stroke-linejoin:miter;stroke-opacity:1"
       id="path4008" />
    <path
       inkscape:connector-curvature="0"
       sodipodi:nodetypes="ccccc"
       id="path4010"
       style="fill:#f6f6f6;fill-opacity:1;fill-rule:evenodd;stroke:#000000;stroke-width:0.55482161px;stroke-linecap:butt;stroke-linejoin:miter;stroke-opacity:1"
       d="m 98.419478,138.75588 c 2.688802,1.07521 6.040672,10.62909 7.513412,13.40328 1.25554,-2.93461 4.45073,-12.0221 7.61757,-13.25712 -2.03956,0.66954 -6.12093,5.00044 -7.54415,7.41312 -1.85045,-1.91192 -5.10285,-6.73095 -7.586832,-7.55928 z" />
    <path
       inkscape:connector-curvature="0"
       sodipodi:nodetypes="cc"
       id="path4012"
       style="fill:#cc0000;fill-opacity:1;fill-rule:evenodd;stroke:#000000;stroke-width:0.55482160999999997px;stroke-linecap:butt;stroke-linejoin:miter;stroke-opacity:1"
       d="m 109.33858,172.46644 c -1.5387,-7.7422 -1.06685,-14.68734 -1.06685,-14.68734" />
    <path
       inkscape:connector-curvature="0"
       sodipodi:nodetypes="cc"
       d="m 103.56073,155.75114 c -1.64519,-6.77435 -6.503353,-7.36177 -9.409321,-8.51201"
       style="fill:#cc0000;fill-opacity:1;fill-rule:evenodd;stroke:#000000;stroke-width:0.55482160999999997px;stroke-linecap:butt;stroke-linejoin:miter;stroke-opacity:1;display:inline"
       id="path4014" />
    <path
       inkscape:connector-curvature="0"
       sodipodi:nodetypes="cc"
       id="path4016"
       style="fill:#cc0000;fill-opacity:1;fill-rule:evenodd;stroke:#000000;stroke-width:0.55482160999999997px;stroke-linecap:butt;stroke-linejoin:miter;stroke-opacity:1;display:inline"
       d="m 102.47995,172.38568 c 1.53871,-7.7422 1.06685,-14.68734 1.06685,-14.68734" />
    <path
       inkscape:connector-curvature="0"
       sodipodi:nodetypes="ccccccccc"
       id="path4018"
       d="m 98.410589,138.2406 -1.875253,-1.8715 -0.147146,2.11311 -3.04903,-0.99202 1.355537,2.59105 -3.259773,0.1618 1.798862,1.479 -2.994468,0.85953 3.016288,1.02289"
       style="fill:#cc0000;fill-opacity:1;fill-rule:evenodd;stroke:#000000;stroke-width:0.86612522999999997px;stroke-linecap:butt;stroke-linejoin:miter;stroke-opacity:1" />
    <path
       inkscape:connector-curvature="0"
       sodipodi:nodetypes="ccccccccc"
       id="path4020"
       d="m 114.57201,138.4323 1.87525,-1.8715 0.14715,2.11311 3.04903,-0.99202 -1.35554,2.59105 3.25978,0.1618 -1.79887,1.479 2.99447,0.85952 -3.01629,1.0229"
       style="fill:#cc0000;fill-opacity:1;fill-rule:evenodd;stroke:#000000;stroke-width:0.86612522999999997px;stroke-linecap:butt;stroke-linejoin:miter;stroke-opacity:1;display:inline" />
    <path
       inkscape:connector-curvature="0"
       sodipodi:nodetypes="ccccccccccccccc"
       id="path4022"
       d="m 100.2814,137.25692 -1.780783,-1.01759 3.434363,0.2544 -1.14479,-0.89039 2.67118,0.12719 0,-0.89039 2.41678,0.5088 0.25439,0.50879 0.3816,-0.50879 2.92557,-0.2544 -0.50879,0.89039 2.67117,-0.38159 -0.38159,1.01759 3.05277,0 -0.2544,1.14478"
       style="fill:#cc0000;fill-opacity:1;fill-rule:evenodd;stroke:#000000;stroke-width:0.86612522999999997px;stroke-linecap:butt;stroke-linejoin:miter;stroke-opacity:1" />
    <path
       sodipodi:nodetypes="ccccc"
       d="m 100.79906,154.76341 -0.938055,-1.47352 c -1.727013,-2.67961 -3.181906,-3.58017 -5.694142,-3.77504 0.321589,1.63709 -1.345779,7.47349 5.378438,5.29737 l 1.253759,-0.0488 z"
       style="fill:#f6f6f6;fill-opacity:1;fill-rule:evenodd;stroke:#000000;stroke-width:1.10964406;stroke-linecap:butt;stroke-linejoin:miter;stroke-miterlimit:4;stroke-opacity:1;stroke-dasharray:none"
       id="path4024"
       inkscape:connector-curvature="0" />
    <path
       d="m 95.400405,152.82626 c 0.243709,1.11425 1.131177,1.86668 1.981587,1.68007 0.850409,-0.18659 1.341306,-1.24148 1.096107,-2.35539 -0.243713,-1.11424 -1.131181,-1.86668 -1.981591,-1.68007 -0.850409,0.1866 -1.341306,1.24148 -1.096103,2.35539 z"
       style="color:#000000;fill:#000000;fill-opacity:1;fill-rule:nonzero;stroke:#000000;stroke-width:0.55482161;stroke-linecap:butt;stroke-linejoin:miter;stroke-miterlimit:4;stroke-opacity:1;stroke-dasharray:none;stroke-dashoffset:0;marker:none;visibility:visible;display:inline;overflow:visible"
       id="path4026"
       inkscape:connector-curvature="0" />
    <path
       sodipodi:nodetypes="ccccc"
       d="m 111.08884,154.76341 0.93806,-1.47352 c 1.72701,-2.67961 3.1819,-3.58017 5.69414,-3.77504 -0.32159,1.63709 1.34578,7.47349 -5.37844,5.29737 l -1.25376,-0.0488 z"
       style="fill:#f6f6f6;fill-opacity:1;fill-rule:evenodd;stroke:#000000;stroke-width:1.10964406;stroke-linecap:butt;stroke-linejoin:miter;stroke-miterlimit:4;stroke-opacity:1;stroke-dasharray:none"
       id="path4028"
       inkscape:connector-curvature="0" />
    <path
       d="m 116.4875,152.82626 c -0.24371,1.11425 -1.13118,1.86668 -1.98159,1.68007 -0.85041,-0.18659 -1.34131,-1.24148 -1.09611,-2.35539 0.24371,-1.11424 1.13118,-1.86668 1.98159,-1.68007 0.85041,0.1866 1.34131,1.24148 1.09611,2.35539 z"
       style="color:#000000;fill:#000000;fill-opacity:1;fill-rule:nonzero;stroke:#000000;stroke-width:0.55482161;stroke-linecap:butt;stroke-linejoin:miter;stroke-miterlimit:4;stroke-opacity:1;stroke-dasharray:none;stroke-dashoffset:0;marker:none;visibility:visible;display:inline;overflow:visible"
       id="path4030"
       inkscape:connector-curvature="0" />
  </g>
  <g
     transform="matrix(0.8164023,-0.8164023,0.8164023,0.8164023,257.02743,430.53313)"
     id="g4032">
    <g
       transform="matrix(0.20198598,0,0,0.20580896,30.455227,13.486547)"
       id="g4034"
       style="stroke-width:9.8092823;stroke-miterlimit:4;stroke-dasharray:none">
      <path
         inkscape:connector-curvature="0"
         d="m 225.06956,598.83523 c 0.85136,-2.82131 -4.26341,-13.57758 25.4632,-55.07503 -68.67222,-69.63281 -94.37141,-165.13559 -41.53249,-233.46641 l -3.91386,-7.82772 -37.57308,34.44199 -21.13486,0 c -12.65978,-7.49414 -20.23556,-22.61427 -28.96259,-36.00754 -4.44788,5.01298 -9.72805,8.71809 0,36.00754 43.52808,39.39955 38.43619,78.79911 42.26972,118.19866 -23.57779,6.47137 -44.97896,-21.88313 -66.535665,-47.74913 -8.68929,-15.11875 -20.840791,-18.11977 -33.65922,-18.78654 25.17054,47.02398 46.859495,97.89601 110.370935,102.54321 l 58.70794,76.71171 c -45.65843,8.22628 -99.44303,-0.92869 -126.02638,-35.22477 -5.453091,-0.91624 -9.095812,-1.73308 -6.262185,6.67324 46.227885,56.10231 62.464165,62.98965 122.735775,63.01847 8.9908,0.004 5.30072,-0.96551 6.05276,-3.45768 z m 24.39431,-4.1106 c 2.68908,-0.60162 8.50967,-2.00401 11.19939,-2.63271 3.64371,4.43802 6.1657,9.15647 1.56555,15.65545 -8.95926,4.66907 -10.23755,-3.46346 -13.30714,-8.6105 0.7081,-11.97739 12.4261,-26.69952 21.13486,-42.26972 20.31709,-37.71787 11.30172,-50.99202 7.82773,-68.88398 -2.8693,-3.12761 -2.00766,-6.98697 -3.91386,-6.26218 -7.00554,37.52996 -26.10049,66.73075 -40.1171,88.45329 -8.00731,14.82729 -20.15958,45.46502 12.72006,62.62181 18.422,1.71519 32.15385,0.0803 36.00753,-8.6105 11.28364,-4.04166 19.48207,-1.9129 26.61427,2.34832 l 21.13486,-24.26595 C 308.51909,591.18313 286.535,575.8794 268.70548,560.91605"
         style="fill:#cc0000;fill-opacity:1;fill-rule:evenodd;stroke:#000000;stroke-width:8.49606894999999970;stroke-linecap:butt;stroke-linejoin:miter;stroke-miterlimit:4;stroke-opacity:1;stroke-dasharray:none"
         id="path4036" />
      <path
         inkscape:connector-curvature="0"
         d="m 525.63565,598.83523 c -0.85136,-2.82131 4.26341,-13.57758 -25.4632,-55.07503 68.67222,-69.63281 94.37141,-165.13559 41.53249,-233.46641 l 3.91386,-7.82772 37.57308,34.44199 21.13486,0 c 12.65977,-7.49414 20.23555,-22.61427 28.96259,-36.00754 4.44788,5.01298 9.72804,8.71809 0,36.00754 -43.52808,39.39955 -38.43619,78.79911 -42.26972,118.19866 23.57779,6.47137 44.97896,-21.88313 66.53566,-47.74913 8.68929,-15.11875 20.84079,-18.11977 33.65922,-18.78654 -25.17054,47.02398 -46.85949,97.89601 -110.37093,102.54321 l -58.70794,76.71171 c 45.65843,8.22628 99.44302,-0.92869 126.02638,-35.22477 5.45309,-0.91624 9.09581,-1.73308 6.26218,6.67324 -46.22788,56.10231 -62.46416,62.98965 -122.73577,63.01847 -8.9908,0.004 -5.30072,-0.96551 -6.05276,-3.45768 z m -24.39431,-4.1106 c -2.68908,-0.60162 -8.50967,-2.00401 -11.19939,-2.63271 -3.64371,4.43802 -6.1657,9.15647 -1.56555,15.65545 8.95926,4.66907 10.23755,-3.46346 13.30714,-8.6105 -0.7081,-11.97739 -12.42611,-26.69952 -21.13486,-42.26972 -20.31709,-37.71787 -11.30172,-50.99202 -7.82773,-68.88398 2.8693,-3.12761 2.00766,-6.98697 3.91386,-6.26218 7.00554,37.52996 26.10049,66.73075 40.1171,88.45329 8.00731,14.82729 20.15958,45.46502 -12.72006,62.62181 -18.422,1.71519 -32.15385,0.0803 -36.00753,-8.6105 -11.28364,-4.04166 -19.48207,-1.9129 -26.61427,2.34832 l -21.13486,-24.26595 c 21.81093,-11.08483 43.79501,-26.38856 61.62453,-41.35191"
         style="fill:#cc0000;fill-opacity:1;fill-rule:evenodd;stroke:#000000;stroke-width:8.49606894999999970;stroke-linecap:butt;stroke-linejoin:miter;stroke-miterlimit:4;stroke-opacity:1;stroke-dasharray:none"
         id="path4038" />
    </g>
    <path
       style="fill:#cc0000;fill-opacity:1;fill-rule:evenodd;stroke:#000000;stroke-width:1.73225045000000000;stroke-linecap:butt;stroke-linejoin:miter;stroke-opacity:1"
       d="m 92.233647,145.4828 c -3.268206,-1.06554 -4.917748,-2.89197 -7.628705,-3.83869 -2.710966,-0.94672 -5.112423,0.75332 -6.708932,0.0442 -1.596496,-0.70908 0.844588,4.23557 3.480353,5.53494 2.635777,1.29935 8.982126,1.98 10.790149,1.62813 0.572362,-1.80734 -0.008,-3.01598 0.06714,-3.36862 z"
       id="path4040"
       sodipodi:nodetypes="cssscc"
       inkscape:connector-curvature="0" />
    <path
       style="fill:#cc0000;fill-opacity:1;fill-rule:evenodd;stroke:#000000;stroke-width:1.73225045000000000;stroke-linecap:butt;stroke-linejoin:miter;stroke-opacity:1;display:inline"
       d="m 120.11418,145.86652 c 3.22901,-1.17895 4.8138,-3.06185 7.49007,-4.1026 2.67628,-1.04075 5.13561,0.57444 6.70639,-0.18994 1.57078,-0.76436 -0.69625,4.26247 -3.28505,5.65304 -2.58883,1.39055 -9.09405,2.27356 -10.91325,1.98501 0.0844,-1.78627 0.0893,-2.9957 0.002,-3.34551 z"
       id="path4042"
       sodipodi:nodetypes="cssscc"
       inkscape:connector-curvature="0" />
    <path
       d="m 105.2577,135.93489 c -3.16474,-0.0204 -5.942609,1.35894 -8.048145,2.07549 -1.572914,0.35193 -2.822444,1.79216 -4.420588,4.40483 -0.450746,5.5826 -0.723228,9.47361 0.199078,12.33535 1.040125,6.79343 3.300509,9.53063 5.281527,13.4523 1.493726,2.957 1.516003,7.46568 2.182508,10.61098 2.07085,3.96738 3.78307,3.28902 5.4867,2.54728 1.68664,0.77958 3.37693,1.49591 5.53581,-2.42426 0.73655,-3.12964 0.5829,-7.68806 2.14225,-10.61098 2.06806,-3.87648 4.66551,-6.51119 5.857,-13.27973 0.98594,-2.84043 0.80038,-6.73655 0.47433,-12.32782 -1.53943,-2.64769 -2.75651,-4.11545 -4.32117,-4.50239 -2.29944,-0.84027 -5.42293,-2.26 -8.99076,-2.25919 -0.1378,-0.004 -1.05978,-0.0198 -1.37854,-0.0219 z"
       style="fill:#cc0000;fill-opacity:1;fill-rule:evenodd;stroke:#000000;stroke-width:1.73224925999999990;stroke-linecap:butt;stroke-linejoin:miter;stroke-miterlimit:4;stroke-opacity:1;stroke-dasharray:none"
       id="path4044"
       sodipodi:nodetypes="ccccscccsccccc"
       inkscape:connector-curvature="0" />
    <path
       d="m 102.31493,173.86902 0.83353,3.31107 2.67829,2.54831 0.0654,1.54157 0.0889,8.6e-4 0.0998,-1.53972 2.7345,-2.4879 0.90721,-3.29164 -3.71509,0.96849 -3.69255,-1.05116 z"
       style="fill:#000000;fill-opacity:1;fill-rule:evenodd;stroke:#000000;stroke-width:1.66446507;stroke-linecap:butt;stroke-linejoin:miter;stroke-miterlimit:4;stroke-opacity:1;stroke-dasharray:none"
       id="path4046"
       inkscape:connector-curvature="0" />
    <path
       id="path4048"
       style="fill:#cc0000;fill-opacity:1;fill-rule:evenodd;stroke:#000000;stroke-width:0.55482160999999997px;stroke-linecap:butt;stroke-linejoin:miter;stroke-opacity:1"
       d="m 108.25781,155.8319 c 1.64518,-6.77436 6.50334,-7.36177 9.40931,-8.51201"
       sodipodi:nodetypes="cc"
       inkscape:connector-curvature="0" />
    <path
       d="m 98.419478,138.75588 c 2.688802,1.07521 6.040672,10.62909 7.513412,13.40328 1.25554,-2.93461 4.45073,-12.0221 7.61757,-13.25712 -2.03956,0.66954 -6.12093,5.00044 -7.54415,7.41312 -1.85045,-1.91192 -5.10285,-6.73095 -7.586832,-7.55928 z"
       style="fill:#f6f6f6;fill-opacity:1;fill-rule:evenodd;stroke:#000000;stroke-width:0.55482161px;stroke-linecap:butt;stroke-linejoin:miter;stroke-opacity:1"
       id="path4050"
       sodipodi:nodetypes="ccccc"
       inkscape:connector-curvature="0" />
    <path
       d="m 109.33858,172.46644 c -1.5387,-7.7422 -1.06685,-14.68734 -1.06685,-14.68734"
       style="fill:#cc0000;fill-opacity:1;fill-rule:evenodd;stroke:#000000;stroke-width:0.55482160999999997px;stroke-linecap:butt;stroke-linejoin:miter;stroke-opacity:1"
       id="path4052"
       sodipodi:nodetypes="cc"
       inkscape:connector-curvature="0" />
    <path
       id="path4054"
       style="fill:#cc0000;fill-opacity:1;fill-rule:evenodd;stroke:#000000;stroke-width:0.55482160999999997px;stroke-linecap:butt;stroke-linejoin:miter;stroke-opacity:1;display:inline"
       d="m 103.56073,155.75114 c -1.64519,-6.77435 -6.503353,-7.36177 -9.409321,-8.51201"
       sodipodi:nodetypes="cc"
       inkscape:connector-curvature="0" />
    <path
       d="m 102.47995,172.38568 c 1.53871,-7.7422 1.06685,-14.68734 1.06685,-14.68734"
       style="fill:#cc0000;fill-opacity:1;fill-rule:evenodd;stroke:#000000;stroke-width:0.55482160999999997px;stroke-linecap:butt;stroke-linejoin:miter;stroke-opacity:1;display:inline"
       id="path4056"
       sodipodi:nodetypes="cc"
       inkscape:connector-curvature="0" />
    <path
       style="fill:#cc0000;fill-opacity:1;fill-rule:evenodd;stroke:#000000;stroke-width:0.86612522999999997px;stroke-linecap:butt;stroke-linejoin:miter;stroke-opacity:1"
       d="m 98.410589,138.2406 -1.875253,-1.8715 -0.147146,2.11311 -3.04903,-0.99202 1.355537,2.59105 -3.259773,0.1618 1.798862,1.479 -2.994468,0.85953 3.016288,1.02289"
       id="path4058"
       sodipodi:nodetypes="ccccccccc"
       inkscape:connector-curvature="0" />
    <path
       style="fill:#cc0000;fill-opacity:1;fill-rule:evenodd;stroke:#000000;stroke-width:0.86612522999999997px;stroke-linecap:butt;stroke-linejoin:miter;stroke-opacity:1;display:inline"
       d="m 114.57201,138.4323 1.87525,-1.8715 0.14715,2.11311 3.04903,-0.99202 -1.35554,2.59105 3.25978,0.1618 -1.79887,1.479 2.99447,0.85952 -3.01629,1.0229"
       id="path4060"
       sodipodi:nodetypes="ccccccccc"
       inkscape:connector-curvature="0" />
    <path
       style="fill:#cc0000;fill-opacity:1;fill-rule:evenodd;stroke:#000000;stroke-width:0.86612522999999997px;stroke-linecap:butt;stroke-linejoin:miter;stroke-opacity:1"
       d="m 100.2814,137.25692 -1.780783,-1.01759 3.434363,0.2544 -1.14479,-0.89039 2.67118,0.12719 0,-0.89039 2.41678,0.5088 0.25439,0.50879 0.3816,-0.50879 2.92557,-0.2544 -0.50879,0.89039 2.67117,-0.38159 -0.38159,1.01759 3.05277,0 -0.2544,1.14478"
       id="path4062"
       sodipodi:nodetypes="ccccccccccccccc"
       inkscape:connector-curvature="0" />
    <path
       inkscape:connector-curvature="0"
       id="path4064"
       style="fill:#f6f6f6;fill-opacity:1;fill-rule:evenodd;stroke:#000000;stroke-width:1.10964406;stroke-linecap:butt;stroke-linejoin:miter;stroke-miterlimit:4;stroke-opacity:1;stroke-dasharray:none"
       d="m 100.79906,154.76341 -0.938055,-1.47352 c -1.727013,-2.67961 -3.181906,-3.58017 -5.694142,-3.77504 0.321589,1.63709 -1.345779,7.47349 5.378438,5.29737 l 1.253759,-0.0488 z"
       sodipodi:nodetypes="ccccc" />
    <path
       inkscape:connector-curvature="0"
       id="path4066"
       style="color:#000000;fill:#000000;fill-opacity:1;fill-rule:nonzero;stroke:#000000;stroke-width:0.55482161;stroke-linecap:butt;stroke-linejoin:miter;stroke-miterlimit:4;stroke-opacity:1;stroke-dasharray:none;stroke-dashoffset:0;marker:none;visibility:visible;display:inline;overflow:visible"
       d="m 95.400405,152.82626 c 0.243709,1.11425 1.131177,1.86668 1.981587,1.68007 0.850409,-0.18659 1.341306,-1.24148 1.096107,-2.35539 -0.243713,-1.11424 -1.131181,-1.86668 -1.981591,-1.68007 -0.850409,0.1866 -1.341306,1.24148 -1.096103,2.35539 z" />
    <path
       inkscape:connector-curvature="0"
       id="path4068"
       style="fill:#f6f6f6;fill-opacity:1;fill-rule:evenodd;stroke:#000000;stroke-width:1.10964406;stroke-linecap:butt;stroke-linejoin:miter;stroke-miterlimit:4;stroke-opacity:1;stroke-dasharray:none"
       d="m 111.08884,154.76341 0.93806,-1.47352 c 1.72701,-2.67961 3.1819,-3.58017 5.69414,-3.77504 -0.32159,1.63709 1.34578,7.47349 -5.37844,5.29737 l -1.25376,-0.0488 z"
       sodipodi:nodetypes="ccccc" />
    <path
       inkscape:connector-curvature="0"
       id="path4070"
       style="color:#000000;fill:#000000;fill-opacity:1;fill-rule:nonzero;stroke:#000000;stroke-width:0.55482161;stroke-linecap:butt;stroke-linejoin:miter;stroke-miterlimit:4;stroke-opacity:1;stroke-dasharray:none;stroke-dashoffset:0;marker:none;visibility:visible;display:inline;overflow:visible"
       d="m 116.4875,152.82626 c -0.24371,1.11425 -1.13118,1.86668 -1.98159,1.68007 -0.85041,-0.18659 -1.34131,-1.24148 -1.09611,-2.35539 0.24371,-1.11424 1.13118,-1.86668 1.98159,-1.68007 0.85041,0.1866 1.34131,1.24148 1.09611,2.35539 z" />
  </g>
  <g
     id="g4072"
     transform="matrix(0.8164023,-0.8164023,0.8164023,0.8164023,88.02891,261.53461)">
    <g
       style="stroke-width:9.8092823;stroke-miterlimit:4;stroke-dasharray:none"
       id="g4074"
       transform="matrix(0.20198598,0,0,0.20580896,30.455227,13.486547)">
      <path
         id="path4076"
         style="fill:#cc0000;fill-opacity:1;fill-rule:evenodd;stroke:#000000;stroke-width:8.49606894999999970;stroke-linecap:butt;stroke-linejoin:miter;stroke-miterlimit:4;stroke-opacity:1;stroke-dasharray:none"
         d="m 225.06956,598.83523 c 0.85136,-2.82131 -4.26341,-13.57758 25.4632,-55.07503 -68.67222,-69.63281 -94.37141,-165.13559 -41.53249,-233.46641 l -3.91386,-7.82772 -37.57308,34.44199 -21.13486,0 c -12.65978,-7.49414 -20.23556,-22.61427 -28.96259,-36.00754 -4.44788,5.01298 -9.72805,8.71809 0,36.00754 43.52808,39.39955 38.43619,78.79911 42.26972,118.19866 -23.57779,6.47137 -44.97896,-21.88313 -66.535665,-47.74913 -8.68929,-15.11875 -20.840791,-18.11977 -33.65922,-18.78654 25.17054,47.02398 46.859495,97.89601 110.370935,102.54321 l 58.70794,76.71171 c -45.65843,8.22628 -99.44303,-0.92869 -126.02638,-35.22477 -5.453091,-0.91624 -9.095812,-1.73308 -6.262185,6.67324 46.227885,56.10231 62.464165,62.98965 122.735775,63.01847 8.9908,0.004 5.30072,-0.96551 6.05276,-3.45768 z m 24.39431,-4.1106 c 2.68908,-0.60162 8.50967,-2.00401 11.19939,-2.63271 3.64371,4.43802 6.1657,9.15647 1.56555,15.65545 -8.95926,4.66907 -10.23755,-3.46346 -13.30714,-8.6105 0.7081,-11.97739 12.4261,-26.69952 21.13486,-42.26972 20.31709,-37.71787 11.30172,-50.99202 7.82773,-68.88398 -2.8693,-3.12761 -2.00766,-6.98697 -3.91386,-6.26218 -7.00554,37.52996 -26.10049,66.73075 -40.1171,88.45329 -8.00731,14.82729 -20.15958,45.46502 12.72006,62.62181 18.422,1.71519 32.15385,0.0803 36.00753,-8.6105 11.28364,-4.04166 19.48207,-1.9129 26.61427,2.34832 l 21.13486,-24.26595 C 308.51909,591.18313 286.535,575.8794 268.70548,560.91605"
         inkscape:connector-curvature="0" />
      <path
         id="path4078"
         style="fill:#cc0000;fill-opacity:1;fill-rule:evenodd;stroke:#000000;stroke-width:8.49606894999999970;stroke-linecap:butt;stroke-linejoin:miter;stroke-miterlimit:4;stroke-opacity:1;stroke-dasharray:none"
         d="m 525.63565,598.83523 c -0.85136,-2.82131 4.26341,-13.57758 -25.4632,-55.07503 68.67222,-69.63281 94.37141,-165.13559 41.53249,-233.46641 l 3.91386,-7.82772 37.57308,34.44199 21.13486,0 c 12.65977,-7.49414 20.23555,-22.61427 28.96259,-36.00754 4.44788,5.01298 9.72804,8.71809 0,36.00754 -43.52808,39.39955 -38.43619,78.79911 -42.26972,118.19866 23.57779,6.47137 44.97896,-21.88313 66.53566,-47.74913 8.68929,-15.11875 20.84079,-18.11977 33.65922,-18.78654 -25.17054,47.02398 -46.85949,97.89601 -110.37093,102.54321 l -58.70794,76.71171 c 45.65843,8.22628 99.44302,-0.92869 126.02638,-35.22477 5.45309,-0.91624 9.09581,-1.73308 6.26218,6.67324 -46.22788,56.10231 -62.46416,62.98965 -122.73577,63.01847 -8.9908,0.004 -5.30072,-0.96551 -6.05276,-3.45768 z m -24.39431,-4.1106 c -2.68908,-0.60162 -8.50967,-2.00401 -11.19939,-2.63271 -3.64371,4.43802 -6.1657,9.15647 -1.56555,15.65545 8.95926,4.66907 10.23755,-3.46346 13.30714,-8.6105 -0.7081,-11.97739 -12.42611,-26.69952 -21.13486,-42.26972 -20.31709,-37.71787 -11.30172,-50.99202 -7.82773,-68.88398 2.8693,-3.12761 2.00766,-6.98697 3.91386,-6.26218 7.00554,37.52996 26.10049,66.73075 40.1171,88.45329 8.00731,14.82729 20.15958,45.46502 -12.72006,62.62181 -18.422,1.71519 -32.15385,0.0803 -36.00753,-8.6105 -11.28364,-4.04166 -19.48207,-1.9129 -26.61427,2.34832 l -21.13486,-24.26595 c 21.81093,-11.08483 43.79501,-26.38856 61.62453,-41.35191"
         inkscape:connector-curvature="0" />
    </g>
    <path
       inkscape:connector-curvature="0"
       sodipodi:nodetypes="cssscc"
       id="path4080"
       d="m 92.233647,145.4828 c -3.268206,-1.06554 -4.917748,-2.89197 -7.628705,-3.83869 -2.710966,-0.94672 -5.112423,0.75332 -6.708932,0.0442 -1.596496,-0.70908 0.844588,4.23557 3.480353,5.53494 2.635777,1.29935 8.982126,1.98 10.790149,1.62813 0.572362,-1.80734 -0.008,-3.01598 0.06714,-3.36862 z"
       style="fill:#cc0000;fill-opacity:1;fill-rule:evenodd;stroke:#000000;stroke-width:1.73225045000000000;stroke-linecap:butt;stroke-linejoin:miter;stroke-opacity:1" />
    <path
       inkscape:connector-curvature="0"
       sodipodi:nodetypes="cssscc"
       id="path4082"
       d="m 120.11418,145.86652 c 3.22901,-1.17895 4.8138,-3.06185 7.49007,-4.1026 2.67628,-1.04075 5.13561,0.57444 6.70639,-0.18994 1.57078,-0.76436 -0.69625,4.26247 -3.28505,5.65304 -2.58883,1.39055 -9.09405,2.27356 -10.91325,1.98501 0.0844,-1.78627 0.0893,-2.9957 0.002,-3.34551 z"
       style="fill:#cc0000;fill-opacity:1;fill-rule:evenodd;stroke:#000000;stroke-width:1.73225045000000000;stroke-linecap:butt;stroke-linejoin:miter;stroke-opacity:1;display:inline" />
    <path
       inkscape:connector-curvature="0"
       sodipodi:nodetypes="ccccscccsccccc"
       id="path4084"
       style="fill:#cc0000;fill-opacity:1;fill-rule:evenodd;stroke:#000000;stroke-width:1.73224925999999990;stroke-linecap:butt;stroke-linejoin:miter;stroke-miterlimit:4;stroke-opacity:1;stroke-dasharray:none"
       d="m 105.2577,135.93489 c -3.16474,-0.0204 -5.942609,1.35894 -8.048145,2.07549 -1.572914,0.35193 -2.822444,1.79216 -4.420588,4.40483 -0.450746,5.5826 -0.723228,9.47361 0.199078,12.33535 1.040125,6.79343 3.300509,9.53063 5.281527,13.4523 1.493726,2.957 1.516003,7.46568 2.182508,10.61098 2.07085,3.96738 3.78307,3.28902 5.4867,2.54728 1.68664,0.77958 3.37693,1.49591 5.53581,-2.42426 0.73655,-3.12964 0.5829,-7.68806 2.14225,-10.61098 2.06806,-3.87648 4.66551,-6.51119 5.857,-13.27973 0.98594,-2.84043 0.80038,-6.73655 0.47433,-12.32782 -1.53943,-2.64769 -2.75651,-4.11545 -4.32117,-4.50239 -2.29944,-0.84027 -5.42293,-2.26 -8.99076,-2.25919 -0.1378,-0.004 -1.05978,-0.0198 -1.37854,-0.0219 z" />
    <path
       inkscape:connector-curvature="0"
       id="path4086"
       style="fill:#000000;fill-opacity:1;fill-rule:evenodd;stroke:#000000;stroke-width:1.66446507;stroke-linecap:butt;stroke-linejoin:miter;stroke-miterlimit:4;stroke-opacity:1;stroke-dasharray:none"
       d="m 102.31493,173.86902 0.83353,3.31107 2.67829,2.54831 0.0654,1.54157 0.0889,8.6e-4 0.0998,-1.53972 2.7345,-2.4879 0.90721,-3.29164 -3.71509,0.96849 -3.69255,-1.05116 z" />
    <path
       inkscape:connector-curvature="0"
       sodipodi:nodetypes="cc"
       d="m 108.25781,155.8319 c 1.64518,-6.77436 6.50334,-7.36177 9.40931,-8.51201"
       style="fill:#cc0000;fill-opacity:1;fill-rule:evenodd;stroke:#000000;stroke-width:0.55482160999999997px;stroke-linecap:butt;stroke-linejoin:miter;stroke-opacity:1"
       id="path4088" />
    <path
       inkscape:connector-curvature="0"
       sodipodi:nodetypes="ccccc"
       id="path4090"
       style="fill:#f6f6f6;fill-opacity:1;fill-rule:evenodd;stroke:#000000;stroke-width:0.55482161px;stroke-linecap:butt;stroke-linejoin:miter;stroke-opacity:1"
       d="m 98.419478,138.75588 c 2.688802,1.07521 6.040672,10.62909 7.513412,13.40328 1.25554,-2.93461 4.45073,-12.0221 7.61757,-13.25712 -2.03956,0.66954 -6.12093,5.00044 -7.54415,7.41312 -1.85045,-1.91192 -5.10285,-6.73095 -7.586832,-7.55928 z" />
    <path
       inkscape:connector-curvature="0"
       sodipodi:nodetypes="cc"
       id="path4092"
       style="fill:#cc0000;fill-opacity:1;fill-rule:evenodd;stroke:#000000;stroke-width:0.55482160999999997px;stroke-linecap:butt;stroke-linejoin:miter;stroke-opacity:1"
       d="m 109.33858,172.46644 c -1.5387,-7.7422 -1.06685,-14.68734 -1.06685,-14.68734" />
    <path
       inkscape:connector-curvature="0"
       sodipodi:nodetypes="cc"
       d="m 103.56073,155.75114 c -1.64519,-6.77435 -6.503353,-7.36177 -9.409321,-8.51201"
       style="fill:#cc0000;fill-opacity:1;fill-rule:evenodd;stroke:#000000;stroke-width:0.55482160999999997px;stroke-linecap:butt;stroke-linejoin:miter;stroke-opacity:1;display:inline"
       id="path4094" />
    <path
       inkscape:connector-curvature="0"
       sodipodi:nodetypes="cc"
       id="path4096"
       style="fill:#cc0000;fill-opacity:1;fill-rule:evenodd;stroke:#000000;stroke-width:0.55482160999999997px;stroke-linecap:butt;stroke-linejoin:miter;stroke-opacity:1;display:inline"
       d="m 102.47995,172.38568 c 1.53871,-7.7422 1.06685,-14.68734 1.06685,-14.68734" />
    <path
       inkscape:connector-curvature="0"
       sodipodi:nodetypes="ccccccccc"
       id="path4098"
       d="m 98.410589,138.2406 -1.875253,-1.8715 -0.147146,2.11311 -3.04903,-0.99202 1.355537,2.59105 -3.259773,0.1618 1.798862,1.479 -2.994468,0.85953 3.016288,1.02289"
       style="fill:#cc0000;fill-opacity:1;fill-rule:evenodd;stroke:#000000;stroke-width:0.86612522999999997px;stroke-linecap:butt;stroke-linejoin:miter;stroke-opacity:1" />
    <path
       inkscape:connector-curvature="0"
       sodipodi:nodetypes="ccccccccc"
       id="path4100"
       d="m 114.57201,138.4323 1.87525,-1.8715 0.14715,2.11311 3.04903,-0.99202 -1.35554,2.59105 3.25978,0.1618 -1.79887,1.479 2.99447,0.85952 -3.01629,1.0229"
       style="fill:#cc0000;fill-opacity:1;fill-rule:evenodd;stroke:#000000;stroke-width:0.86612522999999997px;stroke-linecap:butt;stroke-linejoin:miter;stroke-opacity:1;display:inline" />
    <path
       inkscape:connector-curvature="0"
       sodipodi:nodetypes="ccccccccccccccc"
       id="path4102"
       d="m 100.2814,137.25692 -1.780783,-1.01759 3.434363,0.2544 -1.14479,-0.89039 2.67118,0.12719 0,-0.89039 2.41678,0.5088 0.25439,0.50879 0.3816,-0.50879 2.92557,-0.2544 -0.50879,0.89039 2.67117,-0.38159 -0.38159,1.01759 3.05277,0 -0.2544,1.14478"
       style="fill:#cc0000;fill-opacity:1;fill-rule:evenodd;stroke:#000000;stroke-width:0.86612522999999997px;stroke-linecap:butt;stroke-linejoin:miter;stroke-opacity:1" />
    <path
       sodipodi:nodetypes="ccccc"
       d="m 100.79906,154.76341 -0.938055,-1.47352 c -1.727013,-2.67961 -3.181906,-3.58017 -5.694142,-3.77504 0.321589,1.63709 -1.345779,7.47349 5.378438,5.29737 l 1.253759,-0.0488 z"
       style="fill:#f6f6f6;fill-opacity:1;fill-rule:evenodd;stroke:#000000;stroke-width:1.10964406;stroke-linecap:butt;stroke-linejoin:miter;stroke-miterlimit:4;stroke-opacity:1;stroke-dasharray:none"
       id="path4104"
       inkscape:connector-curvature="0" />
    <path
       d="m 95.400405,152.82626 c 0.243709,1.11425 1.131177,1.86668 1.981587,1.68007 0.850409,-0.18659 1.341306,-1.24148 1.096107,-2.35539 -0.243713,-1.11424 -1.131181,-1.86668 -1.981591,-1.68007 -0.850409,0.1866 -1.341306,1.24148 -1.096103,2.35539 z"
       style="color:#000000;fill:#000000;fill-opacity:1;fill-rule:nonzero;stroke:#000000;stroke-width:0.55482161;stroke-linecap:butt;stroke-linejoin:miter;stroke-miterlimit:4;stroke-opacity:1;stroke-dasharray:none;stroke-dashoffset:0;marker:none;visibility:visible;display:inline;overflow:visible"
       id="path4106"
       inkscape:connector-curvature="0" />
    <path
       sodipodi:nodetypes="ccccc"
       d="m 111.08884,154.76341 0.93806,-1.47352 c 1.72701,-2.67961 3.1819,-3.58017 5.69414,-3.77504 -0.32159,1.63709 1.34578,7.47349 -5.37844,5.29737 l -1.25376,-0.0488 z"
       style="fill:#f6f6f6;fill-opacity:1;fill-rule:evenodd;stroke:#000000;stroke-width:1.10964406;stroke-linecap:butt;stroke-linejoin:miter;stroke-miterlimit:4;stroke-opacity:1;stroke-dasharray:none"
       id="path4108"
       inkscape:connector-curvature="0" />
    <path
       d="m 116.4875,152.82626 c -0.24371,1.11425 -1.13118,1.86668 -1.98159,1.68007 -0.85041,-0.18659 -1.34131,-1.24148 -1.09611,-2.35539 0.24371,-1.11424 1.13118,-1.86668 1.98159,-1.68007 0.85041,0.1866 1.34131,1.24148 1.09611,2.35539 z"
       style="color:#000000;fill:#000000;fill-opacity:1;fill-rule:nonzero;stroke:#000000;stroke-width:0.55482161;stroke-linecap:butt;stroke-linejoin:miter;stroke-miterlimit:4;stroke-opacity:1;stroke-dasharray:none;stroke-dashoffset:0;marker:none;visibility:visible;display:inline;overflow:visible"
       id="path4110"
       inkscape:connector-curvature="0" />
  </g>
  <use
     xlink:href="#shield"
     id="use3976"
     style="fill:url(#radialGradient5274-1-1);stroke:#000000;stroke-width:3"
     transform="translate(0.01435,0)"
     x="0"
     y="0"
     width="600"
     height="660" />
</svg>
