<?xml version="1.0" encoding="UTF-8"?>
<svg xmlns="http://www.w3.org/2000/svg" xmlns:xlink="http://www.w3.org/1999/xlink" width="600" height="660">
<defs>
  <radialGradient id="rg" gradientUnits="userSpaceOnUse" cx="220" cy="220" r="405">
    <stop style="stop-color:#fff;stop-opacity:.3" offset="0"/>
    <stop style="stop-color:#fff;stop-opacity:.2" offset=".2"/>
    <stop style="stop-color:#666;stop-opacity:.1" offset=".6"/>
    <stop style="stop-color:#000;stop-opacity:.13" offset="1"/>
  </radialGradient>
  <clipPath id="clip-shield">
    <path id="shield" d="m2,2v257c0,286 298,398 298,398c0,0 298-112 298-398V2z"/>
  </clipPath>
  <pattern id="fret" patternUnits="userSpaceOnUse" x="50" width="100" height="100">
    <path fill="#090" d="M 39.394531 0 L 85.859375 46.464844 L 96.464844 35.859375 L 60.605469 0 L 39.394531 0 z M 35.859375 3.5351562 L 0 39.394531 L 0 60.605469 L 46.464844 14.140625 L 35.859375 3.5351562 z M 100 39.394531 L 53.535156 85.859375 L 64.140625 96.464844 L 100 60.605469 L 100 39.394531 z M 14.140625 53.535156 L 3.5351562 64.140625 L 39.394531 100 L 60.605469 100 L 14.140625 53.535156 z "/>
  </pattern>
</defs>
<use id="background" xlink:href="#shield" fill="#fd0"/>
<use id="background" xlink:href="#shield" fill="url(#fret)"/>
<path fill="#090" stroke="#fd0" stroke-width="2" d="M 225.92773 2 C 230.78136 12.444407 234.99614 22.889577 235 33.333984 C 235.004 44.445094 230.23599 55.554906 225 66.666016 C 219.76401 77.777126 215.00411 88.88889 215 100 C 214.996 111.11111 219.76401 122.22287 225 133.33398 C 230.23599 144.44509 234.99589 155.55491 235 166.66602 C 235.004 177.77713 230.23599 188.88889 225 200 C 219.76401 211.11111 215.00411 222.22287 215 233.33398 C 214.996 244.44509 219.76401 255.55491 225 266.66602 C 230.23599 277.77713 234.99589 288.88889 235 300 C 235.004 311.11111 230.23599 322.22287 225 333.33398 C 219.76401 344.44509 215.00411 355.55491 215 366.66602 C 214.996 377.77713 219.76401 388.88889 225 400 C 230.23599 411.11111 234.99589 422.22287 235 433.33398 C 235.004 444.44509 230.23599 455.55491 225 466.66602 C 219.76401 477.77713 215.00411 488.88889 215 500 C 214.996 511.11111 219.76401 522.22287 225 533.33398 C 230.23599 544.44509 234.99589 555.55491 235 566.66602 C 235.004 577.77713 230.23599 588.88889 225 600 C 222.66871 604.94714 220.4347 609.89466 218.66992 614.8418 C 264.83708 643.78482 300 657 300 657 C 300 657 327.61717 646.60371 366.01367 624.11328 C 367.68294 616.07539 371.21223 608.03789 375 600 C 380.23599 588.88889 385.0041 577.77713 385 566.66602 C 384.996 555.55491 380.23599 544.44509 375 533.33398 C 369.76401 522.22287 364.9959 511.11111 365 500 C 365.004 488.88889 369.76401 477.77713 375 466.66602 C 380.23599 455.55491 385.0041 444.44509 385 433.33398 C 384.996 422.22287 380.23599 411.11111 375 400 C 369.76401 388.88889 364.9959 377.77713 365 366.66602 C 365.004 355.55491 369.76401 344.44509 375 333.33398 C 380.23599 322.22287 385.0041 311.11111 385 300 C 384.996 288.88889 380.23599 277.77713 375 266.66602 C 369.76401 255.55491 364.9959 244.44509 365 233.33398 C 365.004 222.22287 369.76401 211.11111 375 200 C 380.23599 188.88889 385.0041 177.77713 385 166.66602 C 384.996 155.55491 380.23599 144.44509 375 133.33398 C 369.76401 122.22287 364.9959 111.11111 365 100 C 365.004 88.88889 369.76401 77.777126 375 66.666016 C 380.23599 55.554906 385.0041 44.445094 385 33.333984 C 384.99624 22.889577 380.78137 12.444407 375.92773 2 L 225.92773 2 z "/>
<use id="shine" xlink:href="#shield" fill="url(#rg)" stroke="#000" stroke-width="3"/>
</svg>