<?xml version="1.0" encoding="UTF-8" standalone="no"?>
<svg
   xmlns:dc="http://purl.org/dc/elements/1.1/"
   xmlns:cc="http://creativecommons.org/ns#"
   xmlns:rdf="http://www.w3.org/1999/02/22-rdf-syntax-ns#"
   xmlns:svg="http://www.w3.org/2000/svg"
   xmlns="http://www.w3.org/2000/svg"
   xmlns:xlink="http://www.w3.org/1999/xlink"
   xmlns:sodipodi="http://sodipodi.sourceforge.net/DTD/sodipodi-0.dtd"
   xmlns:inkscape="http://www.inkscape.org/namespaces/inkscape"
   width="600"
   height="660"
   id="svg2"
   version="1.1"
   inkscape:version="0.48.2 r9819"
   sodipodi:docname="House_Hetherspoon.svg">
  <metadata
     id="metadata24">
    <rdf:RDF>
      <cc:Work
         rdf:about="">
        <dc:format>image/svg+xml</dc:format>
        <dc:type
           rdf:resource="http://purl.org/dc/dcmitype/StillImage" />
        <dc:title></dc:title>
      </cc:Work>
    </rdf:RDF>
  </metadata>
  <sodipodi:namedview
     pagecolor="#ffffff"
     bordercolor="#666666"
     borderopacity="1"
     objecttolerance="10"
     gridtolerance="10"
     guidetolerance="10"
     inkscape:pageopacity="0"
     inkscape:pageshadow="2"
     inkscape:window-width="1366"
     inkscape:window-height="715"
     id="namedview22"
     showgrid="false"
     inkscape:zoom="0.71515155"
     inkscape:cx="170.77169"
     inkscape:cy="279.58321"
     inkscape:window-x="-8"
     inkscape:window-y="-8"
     inkscape:window-maximized="1"
     inkscape:current-layer="layer2" />
  <defs
     id="defs4">
    <inkscape:path-effect
       is_visible="true"
       id="path-effect3136"
       effect="spiro" />
    <inkscape:path-effect
       effect="spiro"
       id="path-effect3132"
       is_visible="true" />
    <inkscape:path-effect
       effect="spiro"
       id="path-effect3101"
       is_visible="true" />
    <inkscape:path-effect
       is_visible="true"
       id="path-effect3085"
       effect="spiro" />
    <inkscape:path-effect
       is_visible="true"
       id="path-effect3083"
       effect="spiro" />
    <inkscape:path-effect
       is_visible="true"
       id="path-effect3081"
       effect="spiro" />
    <inkscape:path-effect
       is_visible="true"
       id="path-effect3079"
       effect="spiro" />
    <inkscape:path-effect
       is_visible="true"
       id="path-effect3077"
       effect="spiro" />
    <inkscape:path-effect
       is_visible="true"
       id="path-effect3075"
       effect="spiro" />
    <inkscape:path-effect
       effect="spiro"
       id="path-effect3049"
       is_visible="true" />
    <inkscape:path-effect
       is_visible="true"
       id="path-effect3045"
       effect="spiro" />
    <inkscape:path-effect
       effect="spiro"
       id="path-effect3041"
       is_visible="true" />
    <radialGradient
       id="rg"
       gradientUnits="userSpaceOnUse"
       cx="220"
       cy="220"
       r="405">
      <stop
         style="stop-color:#fff;stop-opacity:.3"
         offset="0"
         id="stop7" />
      <stop
         style="stop-color:#fff;stop-opacity:.2"
         offset=".2"
         id="stop9" />
      <stop
         style="stop-color:#666;stop-opacity:.1"
         offset=".6"
         id="stop11" />
      <stop
         style="stop-color:#000;stop-opacity:.13"
         offset="1"
         id="stop13" />
    </radialGradient>
    <path
       id="shield"
       d="m2,2v257c0,286 298,398 298,398c0,0 298-112 298-398V2z" />
    <radialGradient
       inkscape:collect="always"
       xlink:href="#rg-7"
       id="radialGradient3055-1"
       gradientUnits="userSpaceOnUse"
       cx="220"
       cy="220"
       r="405" />
    <radialGradient
       id="rg-7"
       gradientUnits="userSpaceOnUse"
       cx="220"
       cy="220"
       r="405">
      <stop
         style="stop-color:#fff;stop-opacity:.3"
         offset="0"
         id="stop7-4" />
      <stop
         style="stop-color:#fff;stop-opacity:.2"
         offset=".2"
         id="stop9-0" />
      <stop
         style="stop-color:#666;stop-opacity:.1"
         offset=".6"
         id="stop11-9" />
      <stop
         style="stop-color:#000;stop-opacity:.13"
         offset="1"
         id="stop13-4" />
    </radialGradient>
    <radialGradient
       r="405"
       cy="220"
       cx="220"
       gradientUnits="userSpaceOnUse"
       id="radialGradient3074"
       xlink:href="#rg-7"
       inkscape:collect="always" />
    <inkscape:path-effect
       is_visible="true"
       id="path-effect10120-1"
       effect="spiro" />
    <inkscape:path-effect
       effect="spiro"
       id="path-effect10118-3"
       is_visible="true" />
    <inkscape:path-effect
       effect="spiro"
       id="path-effect10116-9"
       is_visible="true" />
    <inkscape:path-effect
       effect="spiro"
       id="path-effect10114-7"
       is_visible="true" />
    <inkscape:path-effect
       effect="spiro"
       id="path-effect10112-7"
       is_visible="true" />
    <inkscape:path-effect
       effect="spiro"
       id="path-effect10110-2"
       is_visible="true" />
    <linearGradient
       inkscape:collect="always"
       xlink:href="#linearGradient4719-5"
       id="linearGradient4039"
       gradientUnits="userSpaceOnUse"
       gradientTransform="matrix(2.3257341,0,0,2.2943177,447.69485,-1820.2799)"
       x1="-145.25935"
       y1="984.24286"
       x2="-64.14286"
       y2="984.14789" />
    <linearGradient
       inkscape:collect="always"
       id="linearGradient4719-5">
      <stop
         style="stop-color:#666666;stop-opacity:1;"
         offset="0"
         id="stop4721-5" />
      <stop
         id="stop4809-1"
         offset="0.39344174"
         style="stop-color:#666666;stop-opacity:0.74901961;" />
      <stop
         style="stop-color:#666666;stop-opacity:0;"
         offset="1"
         id="stop4723-7" />
    </linearGradient>
    <radialGradient
       inkscape:collect="always"
       xlink:href="#linearGradient4801-8"
       id="radialGradient4041"
       gradientUnits="userSpaceOnUse"
       gradientTransform="matrix(-0.72153181,1.2650715,-2.2729984,-1.2616144,1712.0113,1733.7841)"
       cx="-307.14288"
       cy="782.36218"
       fx="-307.14288"
       fy="782.36218"
       r="63" />
    <linearGradient
       inkscape:collect="always"
       id="linearGradient4801-8">
      <stop
         style="stop-color:#000000;stop-opacity:1;"
         offset="0"
         id="stop4803-2" />
      <stop
         style="stop-color:#000000;stop-opacity:0;"
         offset="1"
         id="stop4805-4" />
    </linearGradient>
    <inkscape:path-effect
       effect="spiro"
       id="path-effect10108-4"
       is_visible="true" />
    <linearGradient
       inkscape:collect="always"
       xlink:href="#linearGradient4719-5"
       id="linearGradient4044"
       gradientUnits="userSpaceOnUse"
       gradientTransform="matrix(-2.4055369,0,0,-1.6485021,142.06168,1726.5307)"
       x1="-145.25935"
       y1="984.24286"
       x2="-64.14286"
       y2="984.14789" />
    <radialGradient
       inkscape:collect="always"
       xlink:href="#linearGradient4801-8"
       id="radialGradient4046"
       gradientUnits="userSpaceOnUse"
       gradientTransform="matrix(0.74628962,-0.90897301,2.3509914,0.90648896,-1165.637,-827.11785)"
       cx="-307.14288"
       cy="782.36218"
       fx="-307.14288"
       fy="782.36218"
       r="63" />
    <inkscape:path-effect
       effect="spiro"
       id="path-effect10102-7"
       is_visible="true" />
    <linearGradient
       inkscape:collect="always"
       xlink:href="#linearGradient4719-5"
       id="linearGradient4049"
       gradientUnits="userSpaceOnUse"
       gradientTransform="matrix(2.334989,0,0,-1.6146975,449.44065,1692.189)"
       x1="-145.25935"
       y1="984.24286"
       x2="-64.14286"
       y2="984.14789" />
    <radialGradient
       inkscape:collect="always"
       xlink:href="#linearGradient4801-8"
       id="radialGradient4051"
       gradientUnits="userSpaceOnUse"
       gradientTransform="matrix(-0.72440295,-0.89033332,-2.2820431,0.88790031,1718.7881,-809.09364)"
       cx="-307.14288"
       cy="782.36218"
       fx="-307.14288"
       fy="782.36218"
       r="63" />
    <inkscape:path-effect
       is_visible="true"
       id="path-effect10096-8"
       effect="spiro" />
    <linearGradient
       inkscape:collect="always"
       xlink:href="#linearGradient4719-5"
       id="linearGradient4054"
       gradientUnits="userSpaceOnUse"
       gradientTransform="matrix(-2.409599,0,0,2.2818507,139.61083,-1810.8163)"
       x1="-145.25935"
       y1="984.24286"
       x2="-64.14286"
       y2="984.14789" />
    <radialGradient
       inkscape:collect="always"
       xlink:href="#linearGradient4801-8"
       id="radialGradient4056"
       gradientUnits="userSpaceOnUse"
       gradientTransform="matrix(0.74754985,1.2581972,2.3549614,-1.2547588,-1170.296,1723.935)"
       cx="-307.14288"
       cy="782.36218"
       fx="-307.14288"
       fy="782.36218"
       r="63" />
    <inkscape:path-effect
       is_visible="true"
       id="path-effect10090-3"
       effect="spiro" />
    <inkscape:path-effect
       effect="spiro"
       id="path-effect10084-1"
       is_visible="true" />
    <inkscape:path-effect
       effect="spiro"
       id="path-effect10082-1"
       is_visible="true" />
    <radialGradient
       inkscape:collect="always"
       xlink:href="#linearGradient4801-8"
       id="radialGradient4061"
       gradientUnits="userSpaceOnUse"
       gradientTransform="matrix(-0.76516322,1.2901254,-2.4104477,-1.2865998,1806.8444,1757.4704)"
       cx="-307.14288"
       cy="782.36218"
       fx="-307.14288"
       fy="782.36218"
       r="63" />
    <inkscape:path-effect
       effect="spiro"
       id="path-effect10080-4"
       is_visible="true" />
    <inkscape:path-effect
       is_visible="true"
       id="path-effect3075-1"
       effect="spiro" />
    <inkscape:path-effect
       effect="spiro"
       id="path-effect3101-7"
       is_visible="true" />
    <linearGradient
       inkscape:collect="always"
       xlink:href="#grad1-7-7"
       id="linearGradient3085-8-8"
       gradientUnits="userSpaceOnUse"
       gradientTransform="matrix(0.77469594,0,0,0.30982404,152.68996,-13.619206)"
       x1="78.877235"
       y1="178.07356"
       x2="301.40585"
       y2="178.07356" />
    <linearGradient
       id="grad1-7-7"
       x1="78.877235"
       y1="178.07356"
       x2="301.40585"
       y2="178.07356"
       gradientTransform="scale(1.577772,0.63380513)"
       gradientUnits="userSpaceOnUse">
      <stop
         offset="0%"
         style="stop-color:#da0;"
         id="stop16-4-4" />
      <stop
         offset="40%"
         style="stop-color:#fd0;"
         id="stop18-0-0" />
      <stop
         offset="60%"
         style="stop-color:#fd0;"
         id="stop20-9-9" />
      <stop
         offset="100%"
         style="stop-color:#da0;"
         id="stop22-4-4" />
    </linearGradient>
    <linearGradient
       inkscape:collect="always"
       xlink:href="#grad1-7-7"
       id="linearGradient3081-8-8"
       gradientUnits="userSpaceOnUse"
       gradientTransform="matrix(0.77469594,0,0,0.30982404,-27.310046,-13.619206)"
       x1="78.877235"
       y1="178.07356"
       x2="301.40585"
       y2="178.07356" />
    <linearGradient
       id="linearGradient3093"
       x1="78.877235"
       y1="178.07356"
       x2="301.40585"
       y2="178.07356"
       gradientTransform="scale(1.577772,0.63380513)"
       gradientUnits="userSpaceOnUse">
      <stop
         offset="0%"
         style="stop-color:#da0;"
         id="stop3095" />
      <stop
         offset="40%"
         style="stop-color:#fd0;"
         id="stop3097" />
      <stop
         offset="60%"
         style="stop-color:#fd0;"
         id="stop3099" />
      <stop
         offset="100%"
         style="stop-color:#da0;"
         id="stop3101" />
    </linearGradient>
    <linearGradient
       y2="178.07356"
       x2="301.40585"
       y1="178.07356"
       x1="78.877235"
       gradientTransform="matrix(0.77469594,0,0,0.30982404,332.68995,-13.619206)"
       gradientUnits="userSpaceOnUse"
       id="linearGradient3128-1"
       xlink:href="#grad1-7-7"
       inkscape:collect="always" />
    <linearGradient
       id="linearGradient3104"
       x1="78.877235"
       y1="178.07356"
       x2="301.40585"
       y2="178.07356"
       gradientTransform="scale(1.577772,0.63380513)"
       gradientUnits="userSpaceOnUse">
      <stop
         offset="0%"
         style="stop-color:#da0;"
         id="stop3106" />
      <stop
         offset="40%"
         style="stop-color:#fd0;"
         id="stop3108" />
      <stop
         offset="60%"
         style="stop-color:#fd0;"
         id="stop3110" />
      <stop
         offset="100%"
         style="stop-color:#da0;"
         id="stop3112" />
    </linearGradient>
  </defs>
  <g
     inkscape:groupmode="layer"
     id="layer2"
     inkscape:label="Elements"
     style="display:inline">
    <path
       d="m 2,2 v 257 c 0,286 298,398 298,398 0,0 298,-112 298,-398 V 2 z"
       id="shine-1"
       inkscape:connector-curvature="0"
       style="fill:#ff8800" />
    <path
       inkscape:connector-curvature="0"
       style="fill:#000000"
       d="M 48,2 2,48 2,52 49.9375,99.9375 2,147.84375 l 0,4 L 49.90625,199.75 2,247.65625 l 0,4 47.9375,47.90625 -39.65625,39.65625 c 1.98762,9.38306 4.287477,18.54786 6.90625,27.46875 l 32.75,32.75 -15.03125,15.03125 C 45.272654,437.47618 57.593032,458.67517 71.1875,478.125 L 100,449.34375 50.0625,399.4375 100,349.5 50.0625,299.5625 100,249.65625 50.09375,199.75 100,149.84375 50.0625,99.9375 100,50 52,2 48,2 z M 100,50 149.9375,99.9375 100,149.84375 149.90625,199.75 100,249.65625 149.9375,299.5625 100,349.5 149.9375,399.4375 100,449.34375 149.9375,499.25 116.40625,532.78125 c 17.24873,17.82044 35.15634,33.51984 52.71875,47.28125 L 200,549.1875 150.0625,499.25 200,449.34375 150.0625,399.4375 200,349.5 150.0625,299.5625 200,249.65625 150.09375,199.75 200,149.84375 150.0625,99.9375 200,50 152,2 148,2 100,50 z M 200,50 249.9375,99.9375 200,149.84375 249.90625,199.75 200,249.65625 249.9375,299.5625 200,349.5 249.9375,399.4375 200,449.34375 249.9375,499.25 200,549.1875 l 49.90625,49.90625 -21.625,21.625 c 30.88416,18.55555 55.48499,29.56067 66.03125,33.96875 L 300,649 250.09375,599.09375 300,549.1875 250.0625,499.25 300,449.34375 250.0625,399.4375 300,349.5 250.0625,299.5625 300,249.65625 250.09375,199.75 300,149.84375 250.0625,99.9375 300,50 252,2 248,2 200,50 z M 300,50 349.9375,99.9375 300,149.84375 349.90625,199.75 300,249.65625 349.9375,299.5625 300,349.5 349.9375,399.4375 300,449.34375 349.9375,499.25 300,549.1875 349.90625,599.09375 300,649 l 5.6875,5.6875 c 10.54626,-4.40808 35.14709,-15.4132 66.03125,-33.96875 l -21.625,-21.625 49.875,-49.90625 L 350.0625,499.28125 400,449.375 449.90625,499.28125 400,549.1875 l 30.875,30.875 c 17.5572,-13.75733 35.4435,-29.46732 52.6875,-47.28125 L 450.0625,499.25 499.96875,449.34375 450.0625,399.4375 499.96875,349.5 450.0625,299.5625 499.96875,249.65625 450.0625,199.75 499.96875,149.84375 450.0625,99.9375 499.96875,50 l -48,-48 -4,0 L 400,50 399.96875,50 352,2 348,2 300,50 z M 499.96875,50 549.875,99.9375 499.96875,149.84375 549.875,199.75 499.96875,249.65625 549.875,299.5625 499.96875,349.5 l 49.90625,49.9375 -49.90625,49.90625 28.8125,28.8125 c 13.60434,-19.45962 25.93974,-40.66597 36.3125,-63.6875 l -15.03125,-15.03125 32.75,-32.75 c 2.61598,-8.91139 4.92004,-18.06493 6.90625,-27.4375 L 550.0625,299.5625 598,251.625 598,247.6875 550.0625,199.75 598,151.8125 598,147.875 550.0625,99.9375 598,51.96875 598,48.03125 551.96875,2 l -4,0 -48,48 z m -100,0.03125 L 449.875,99.9375 400,149.8125 350.09375,99.90625 l 49.875,-49.875 z M 400,149.875 449.875,199.75 400,249.625 350.09375,199.75 400,149.875 z m 0,99.8125 49.90625,49.90625 L 400,349.5 l -0.0312,0 L 350.0625,299.59375 400,249.6875 z m -0.0312,99.84375 49.90625,49.90625 -49.875,49.875 -49.90625,-49.90625 49.875,-49.875 z"
       id="path3031" />
    <path
       inkscape:connector-curvature="0"
       id="path3463"
       d="m 319.48365,563.37295 c 20.44878,-2.53159 34.49534,-6.70676 52.11128,-15.48944 15.10405,-7.53033 29.50612,-21.59867 35.32353,-34.50498 4.20162,-9.32155 4.03939,-5.93268 4.7482,-99.18663 0.36192,-47.61713 0.68001,-128.6669 0.70685,-180.11056 0.0522,-99.98475 0.24157,-94.41442 -3.71988,-109.37999 -3.75513,-14.1861 -7.25737,-20.39408 -17.0519,-30.225878 C 380.76847,83.601009 370.18529,76.959029 354.0759,70.924323 310.89811,54.749562 258.63908,59.406657 222.03587,82.691136 c -3.07007,1.952928 -9.26022,7.249229 -13.79049,11.799016 -7.46469,7.496958 -8.57565,8.997798 -12.09128,16.334578 -4.37614,9.13255 -5.33312,13.27228 -7.05027,30.49624 -0.38148,3.82638 -0.93055,82.96282 -1.22019,175.85875 -0.56901,182.50423 -0.6068,180.38309 3.42179,192.0143 4.48475,12.94799 13.29229,23.4586 27.86545,33.25368 25.54296,17.16821 64.69352,25.33501 100.31277,20.92526 z"
       style="fill:#ffffff" />
    <path
       style="fill:#dddddd"
       d="M 298.46875 36.1875 C 268.11256 36.440479 238.12761 44.415804 214.21875 59.625 C 210.84134 61.773436 204.0463 67.619734 199.0625 72.625 C 190.85053 80.872475 189.61758 82.522481 185.75 90.59375 C 180.93577 100.64056 179.88906 105.17674 178 124.125 C 177.58034 128.33443 176.97489 215.39802 176.65625 317.59375 C 176.03028 518.36849 176.00561 516.04814 180.4375 528.84375 C 185.37122 543.08796 195.06167 554.63058 211.09375 565.40625 C 239.19382 584.29317 282.25241 593.28871 321.4375 588.4375 C 343.93341 585.65247 359.37052 581.06816 378.75 571.40625 C 395.36611 563.12206 411.22521 547.63587 417.625 533.4375 C 422.24724 523.18277 422.06398 526.9021 422.84375 424.3125 C 423.24191 371.92841 423.59548 282.78119 423.625 226.1875 C 423.6824 116.19328 423.88929 122.30753 419.53125 105.84375 C 415.4002 90.237475 411.55631 83.409805 400.78125 72.59375 C 388.86347 60.630644 377.22209 53.326341 359.5 46.6875 C 340.20299 39.458681 319.23877 36.014409 298.46875 36.1875 z M 298.625 63.875 C 317.31802 63.719218 336.16394 66.806563 353.53125 73.3125 C 369.48114 79.287457 379.9615 85.858205 390.6875 96.625 C 400.38506 106.35945 403.84455 112.51686 407.5625 126.5625 C 411.48473 141.3799 411.3017 135.8802 411.25 234.875 C 411.22343 285.80932 410.92084 366.04182 410.5625 413.1875 C 409.86071 505.51814 410.03502 502.17699 405.875 511.40625 C 400.11519 524.18478 385.8295 538.10673 370.875 545.5625 C 353.43347 554.25822 339.52757 558.39972 319.28125 560.90625 C 284.01467 565.27234 245.25881 557.18573 219.96875 540.1875 C 205.53988 530.4894 196.81535 520.06979 192.375 507.25 C 188.3863 495.73395 188.43663 497.82226 189 317.125 C 189.28678 225.14884 189.8098 146.81974 190.1875 143.03125 C 191.88765 125.97782 192.85469 121.85463 197.1875 112.8125 C 200.66832 105.54836 201.76547 104.07898 209.15625 96.65625 C 213.64167 92.151511 219.77283 86.902342 222.8125 84.96875 C 244.33047 71.280474 271.30443 64.102682 298.625 63.875 z "
       id="path3338" />
    <g
       transform="matrix(1.9247021,0,0,1.9247021,-1404.3498,-371.03486)"
       style="display:inline"
       id="g4267">
      <path
         sodipodi:nodetypes="ssssssssss"
         inkscape:connector-curvature="0"
         id="path3851-5-5-0"
         d="m 880.67516,466.06758 1.61194,-151.29543 c 0.0412,-3.86944 -1.19458,-4.45903 -6.6586,-8.74309 -7.77163,-6.09334 -13.65573,-17.66691 -14.29018,-32.44539 -0.63137,-14.70642 9.41969,-35.39756 25.45349,-33.94308 15.92008,1.44416 22.18157,16.9695 22.88548,31.97672 0.53776,11.46499 -4.44885,25.22609 -12.25485,34.33673 -3.47727,4.05844 -5.17729,4.84686 -5.14313,8.50747 l 1.41677,151.77606 c 0.0631,6.76104 -13.09192,6.49468 -13.02092,-0.16999 z"
         style="fill:#994400;fill-opacity:1;stroke:#000000;stroke-width:0.67542922;stroke-linecap:butt;stroke-linejoin:miter;stroke-miterlimit:4;stroke-opacity:1;stroke-dasharray:none;display:inline" />
      <path
         sodipodi:nodetypes="csscssc"
         inkscape:connector-curvature="0"
         id="path3855-8-9-9"
         d="m 897.22388,287.29575 c -3.66699,4.41103 -7.6826,11.97052 -17.67279,5.80549 -6.4844,-4.00158 -8.97645,-15.97358 -8.97366,-19.76494 0.008,-11.4962 6.39058,-28.97036 14.62963,-26.56641 -8.15626,-2.3377 -17.2393,14.87689 -16.63232,27.37553 0.48001,9.88403 5.30612,19.5698 11.67507,23.44291 9.8522,5.99136 15.04331,-5.74946 16.97407,-10.29258 z"
         style="fill:#000000;stroke:#000000;stroke-width:0.51956093;stroke-linecap:round;stroke-linejoin:round;stroke-miterlimit:4;stroke-opacity:1;stroke-dasharray:none;display:inline" />
    </g>
  </g>
  <g
     inkscape:groupmode="layer"
     id="layer1"
     inkscape:label="Cover"
     style="display:inline"
     sodipodi:insensitive="true">
    <path
       d="m 2,2 v 257 c 0,286 298,398 298,398 0,0 298,-112 298,-398 V 2 z"
       id="shine"
       inkscape:connector-curvature="0"
       style="fill:url(#radialGradient3074);stroke:#000000;stroke-width:3" />
  </g>
</svg>
