<?xml version="1.0" encoding="UTF-8" standalone="no"?>
<svg
   xmlns:dc="http://purl.org/dc/elements/1.1/"
   xmlns:cc="http://creativecommons.org/ns#"
   xmlns:rdf="http://www.w3.org/1999/02/22-rdf-syntax-ns#"
   xmlns:svg="http://www.w3.org/2000/svg"
   xmlns="http://www.w3.org/2000/svg"
   xmlns:xlink="http://www.w3.org/1999/xlink"
   xmlns:sodipodi="http://sodipodi.sourceforge.net/DTD/sodipodi-0.dtd"
   xmlns:inkscape="http://www.inkscape.org/namespaces/inkscape"
   width="600"
   height="660"
   id="svg2"
   version="1.1"
   inkscape:version="0.48.2 r9819"
   sodipodi:docname="House_Jast_.svg">
  <metadata
     id="metadata24">
    <rdf:RDF>
      <cc:Work
         rdf:about="">
        <dc:format>image/svg+xml</dc:format>
        <dc:type
           rdf:resource="http://purl.org/dc/dcmitype/StillImage" />
        <dc:title></dc:title>
      </cc:Work>
    </rdf:RDF>
  </metadata>
  <sodipodi:namedview
     pagecolor="#ffffff"
     bordercolor="#666666"
     borderopacity="1"
     objecttolerance="10"
     gridtolerance="10"
     guidetolerance="10"
     inkscape:pageopacity="0"
     inkscape:pageshadow="2"
     inkscape:window-width="1366"
     inkscape:window-height="715"
     id="namedview22"
     showgrid="false"
     inkscape:zoom="1.4303031"
     inkscape:cx="281.85873"
     inkscape:cy="327.22379"
     inkscape:window-x="-8"
     inkscape:window-y="-8"
     inkscape:window-maximized="1"
     inkscape:current-layer="layer2" />
  <defs
     id="defs4">
    <inkscape:path-effect
       is_visible="true"
       id="path-effect3136"
       effect="spiro" />
    <inkscape:path-effect
       effect="spiro"
       id="path-effect3132"
       is_visible="true" />
    <inkscape:path-effect
       effect="spiro"
       id="path-effect3101"
       is_visible="true" />
    <inkscape:path-effect
       is_visible="true"
       id="path-effect3085"
       effect="spiro" />
    <inkscape:path-effect
       is_visible="true"
       id="path-effect3083"
       effect="spiro" />
    <inkscape:path-effect
       is_visible="true"
       id="path-effect3081"
       effect="spiro" />
    <inkscape:path-effect
       is_visible="true"
       id="path-effect3079"
       effect="spiro" />
    <inkscape:path-effect
       is_visible="true"
       id="path-effect3077"
       effect="spiro" />
    <inkscape:path-effect
       is_visible="true"
       id="path-effect3075"
       effect="spiro" />
    <inkscape:path-effect
       effect="spiro"
       id="path-effect3049"
       is_visible="true" />
    <inkscape:path-effect
       is_visible="true"
       id="path-effect3045"
       effect="spiro" />
    <inkscape:path-effect
       effect="spiro"
       id="path-effect3041"
       is_visible="true" />
    <radialGradient
       id="rg"
       gradientUnits="userSpaceOnUse"
       cx="220"
       cy="220"
       r="405">
      <stop
         style="stop-color:#fff;stop-opacity:.3"
         offset="0"
         id="stop7" />
      <stop
         style="stop-color:#fff;stop-opacity:.2"
         offset=".2"
         id="stop9" />
      <stop
         style="stop-color:#666;stop-opacity:.1"
         offset=".6"
         id="stop11" />
      <stop
         style="stop-color:#000;stop-opacity:.13"
         offset="1"
         id="stop13" />
    </radialGradient>
    <path
       id="shield"
       d="m2,2v257c0,286 298,398 298,398c0,0 298-112 298-398V2z" />
    <radialGradient
       inkscape:collect="always"
       xlink:href="#rg-7"
       id="radialGradient3055-1"
       gradientUnits="userSpaceOnUse"
       cx="220"
       cy="220"
       r="405" />
    <radialGradient
       id="rg-7"
       gradientUnits="userSpaceOnUse"
       cx="220"
       cy="220"
       r="405">
      <stop
         style="stop-color:#fff;stop-opacity:.3"
         offset="0"
         id="stop7-4" />
      <stop
         style="stop-color:#fff;stop-opacity:.2"
         offset=".2"
         id="stop9-0" />
      <stop
         style="stop-color:#666;stop-opacity:.1"
         offset=".6"
         id="stop11-9" />
      <stop
         style="stop-color:#000;stop-opacity:.13"
         offset="1"
         id="stop13-4" />
    </radialGradient>
    <radialGradient
       r="405"
       cy="220"
       cx="220"
       gradientUnits="userSpaceOnUse"
       id="radialGradient3074"
       xlink:href="#rg-7"
       inkscape:collect="always" />
    <inkscape:path-effect
       is_visible="true"
       id="path-effect10120-1"
       effect="spiro" />
    <inkscape:path-effect
       effect="spiro"
       id="path-effect10118-3"
       is_visible="true" />
    <inkscape:path-effect
       effect="spiro"
       id="path-effect10116-9"
       is_visible="true" />
    <inkscape:path-effect
       effect="spiro"
       id="path-effect10114-7"
       is_visible="true" />
    <inkscape:path-effect
       effect="spiro"
       id="path-effect10112-7"
       is_visible="true" />
    <inkscape:path-effect
       effect="spiro"
       id="path-effect10110-2"
       is_visible="true" />
    <linearGradient
       inkscape:collect="always"
       xlink:href="#linearGradient4719-5"
       id="linearGradient4039"
       gradientUnits="userSpaceOnUse"
       gradientTransform="matrix(2.3257341,0,0,2.2943177,447.69485,-1820.2799)"
       x1="-145.25935"
       y1="984.24286"
       x2="-64.14286"
       y2="984.14789" />
    <linearGradient
       inkscape:collect="always"
       id="linearGradient4719-5">
      <stop
         style="stop-color:#666666;stop-opacity:1;"
         offset="0"
         id="stop4721-5" />
      <stop
         id="stop4809-1"
         offset="0.39344174"
         style="stop-color:#666666;stop-opacity:0.74901961;" />
      <stop
         style="stop-color:#666666;stop-opacity:0;"
         offset="1"
         id="stop4723-7" />
    </linearGradient>
    <radialGradient
       inkscape:collect="always"
       xlink:href="#linearGradient4801-8"
       id="radialGradient4041"
       gradientUnits="userSpaceOnUse"
       gradientTransform="matrix(-0.72153181,1.2650715,-2.2729984,-1.2616144,1712.0113,1733.7841)"
       cx="-307.14288"
       cy="782.36218"
       fx="-307.14288"
       fy="782.36218"
       r="63" />
    <linearGradient
       inkscape:collect="always"
       id="linearGradient4801-8">
      <stop
         style="stop-color:#000000;stop-opacity:1;"
         offset="0"
         id="stop4803-2" />
      <stop
         style="stop-color:#000000;stop-opacity:0;"
         offset="1"
         id="stop4805-4" />
    </linearGradient>
    <inkscape:path-effect
       effect="spiro"
       id="path-effect10108-4"
       is_visible="true" />
    <linearGradient
       inkscape:collect="always"
       xlink:href="#linearGradient4719-5"
       id="linearGradient4044"
       gradientUnits="userSpaceOnUse"
       gradientTransform="matrix(-2.4055369,0,0,-1.6485021,142.06168,1726.5307)"
       x1="-145.25935"
       y1="984.24286"
       x2="-64.14286"
       y2="984.14789" />
    <radialGradient
       inkscape:collect="always"
       xlink:href="#linearGradient4801-8"
       id="radialGradient4046"
       gradientUnits="userSpaceOnUse"
       gradientTransform="matrix(0.74628962,-0.90897301,2.3509914,0.90648896,-1165.637,-827.11785)"
       cx="-307.14288"
       cy="782.36218"
       fx="-307.14288"
       fy="782.36218"
       r="63" />
    <inkscape:path-effect
       effect="spiro"
       id="path-effect10102-7"
       is_visible="true" />
    <linearGradient
       inkscape:collect="always"
       xlink:href="#linearGradient4719-5"
       id="linearGradient4049"
       gradientUnits="userSpaceOnUse"
       gradientTransform="matrix(2.334989,0,0,-1.6146975,449.44065,1692.189)"
       x1="-145.25935"
       y1="984.24286"
       x2="-64.14286"
       y2="984.14789" />
    <radialGradient
       inkscape:collect="always"
       xlink:href="#linearGradient4801-8"
       id="radialGradient4051"
       gradientUnits="userSpaceOnUse"
       gradientTransform="matrix(-0.72440295,-0.89033332,-2.2820431,0.88790031,1718.7881,-809.09364)"
       cx="-307.14288"
       cy="782.36218"
       fx="-307.14288"
       fy="782.36218"
       r="63" />
    <inkscape:path-effect
       is_visible="true"
       id="path-effect10096-8"
       effect="spiro" />
    <linearGradient
       inkscape:collect="always"
       xlink:href="#linearGradient4719-5"
       id="linearGradient4054"
       gradientUnits="userSpaceOnUse"
       gradientTransform="matrix(-2.409599,0,0,2.2818507,139.61083,-1810.8163)"
       x1="-145.25935"
       y1="984.24286"
       x2="-64.14286"
       y2="984.14789" />
    <radialGradient
       inkscape:collect="always"
       xlink:href="#linearGradient4801-8"
       id="radialGradient4056"
       gradientUnits="userSpaceOnUse"
       gradientTransform="matrix(0.74754985,1.2581972,2.3549614,-1.2547588,-1170.296,1723.935)"
       cx="-307.14288"
       cy="782.36218"
       fx="-307.14288"
       fy="782.36218"
       r="63" />
    <inkscape:path-effect
       is_visible="true"
       id="path-effect10090-3"
       effect="spiro" />
    <inkscape:path-effect
       effect="spiro"
       id="path-effect10084-1"
       is_visible="true" />
    <inkscape:path-effect
       effect="spiro"
       id="path-effect10082-1"
       is_visible="true" />
    <radialGradient
       inkscape:collect="always"
       xlink:href="#linearGradient4801-8"
       id="radialGradient4061"
       gradientUnits="userSpaceOnUse"
       gradientTransform="matrix(-0.76516322,1.2901254,-2.4104477,-1.2865998,1806.8444,1757.4704)"
       cx="-307.14288"
       cy="782.36218"
       fx="-307.14288"
       fy="782.36218"
       r="63" />
    <inkscape:path-effect
       effect="spiro"
       id="path-effect10080-4"
       is_visible="true" />
    <inkscape:path-effect
       is_visible="true"
       id="path-effect3075-1"
       effect="spiro" />
    <inkscape:path-effect
       effect="spiro"
       id="path-effect3101-7"
       is_visible="true" />
    <linearGradient
       inkscape:collect="always"
       xlink:href="#grad1-7-7"
       id="linearGradient3085-8-8"
       gradientUnits="userSpaceOnUse"
       gradientTransform="matrix(0.77469594,0,0,0.30982404,152.68996,-13.619206)"
       x1="78.877235"
       y1="178.07356"
       x2="301.40585"
       y2="178.07356" />
    <linearGradient
       id="grad1-7-7"
       x1="78.877235"
       y1="178.07356"
       x2="301.40585"
       y2="178.07356"
       gradientTransform="scale(1.577772,0.63380513)"
       gradientUnits="userSpaceOnUse">
      <stop
         offset="0%"
         style="stop-color:#da0;"
         id="stop16-4-4" />
      <stop
         offset="40%"
         style="stop-color:#fd0;"
         id="stop18-0-0" />
      <stop
         offset="60%"
         style="stop-color:#fd0;"
         id="stop20-9-9" />
      <stop
         offset="100%"
         style="stop-color:#da0;"
         id="stop22-4-4" />
    </linearGradient>
    <linearGradient
       inkscape:collect="always"
       xlink:href="#grad1-7-7"
       id="linearGradient3081-8-8"
       gradientUnits="userSpaceOnUse"
       gradientTransform="matrix(0.77469594,0,0,0.30982404,-27.310046,-13.619206)"
       x1="78.877235"
       y1="178.07356"
       x2="301.40585"
       y2="178.07356" />
    <linearGradient
       id="linearGradient3093"
       x1="78.877235"
       y1="178.07356"
       x2="301.40585"
       y2="178.07356"
       gradientTransform="scale(1.577772,0.63380513)"
       gradientUnits="userSpaceOnUse">
      <stop
         offset="0%"
         style="stop-color:#da0;"
         id="stop3095" />
      <stop
         offset="40%"
         style="stop-color:#fd0;"
         id="stop3097" />
      <stop
         offset="60%"
         style="stop-color:#fd0;"
         id="stop3099" />
      <stop
         offset="100%"
         style="stop-color:#da0;"
         id="stop3101" />
    </linearGradient>
    <linearGradient
       y2="178.07356"
       x2="301.40585"
       y1="178.07356"
       x1="78.877235"
       gradientTransform="matrix(0.77469594,0,0,0.30982404,332.68995,-13.619206)"
       gradientUnits="userSpaceOnUse"
       id="linearGradient3128-1"
       xlink:href="#grad1-7-7"
       inkscape:collect="always" />
    <linearGradient
       id="linearGradient3104"
       x1="78.877235"
       y1="178.07356"
       x2="301.40585"
       y2="178.07356"
       gradientTransform="scale(1.577772,0.63380513)"
       gradientUnits="userSpaceOnUse">
      <stop
         offset="0%"
         style="stop-color:#da0;"
         id="stop3106" />
      <stop
         offset="40%"
         style="stop-color:#fd0;"
         id="stop3108" />
      <stop
         offset="60%"
         style="stop-color:#fd0;"
         id="stop3110" />
      <stop
         offset="100%"
         style="stop-color:#da0;"
         id="stop3112" />
    </linearGradient>
    <inkscape:path-effect
       is_visible="true"
       id="path-effect3061"
       effect="spiro" />
  </defs>
  <g
     inkscape:groupmode="layer"
     id="layer2"
     inkscape:label="Elements"
     style="display:inline">
    <path
       d="M 598,2 V 259 C 598,545 300,657 300,657 300,657 2,545 2,259 V 2 z"
       id="background"
       inkscape:connector-curvature="0"
       style="fill:#000000" />
    <path
       style="fill:#ffff00;stroke:none"
       d="M 225 2 L 225 228.9375 L 36.3125 417.625 C 59.142228 467.07891 91.078942 508.00433 124.84375 541.21875 L 300 366.0625 L 475.15625 541.21875 C 508.92106 508.00433 540.85777 467.07891 563.6875 417.625 L 375 228.9375 L 375 2 L 225 2 z "
       id="pall" />
    <g
       id="g3149"
       transform="translate(0,-6.79661)">
      <path
         sodipodi:nodetypes="cccscccsccsccccccccccccc"
         style="fill:#ffff00;fill-opacity:1;stroke:#000000;stroke-width:1.29999995;stroke-linecap:round;stroke-linejoin:bevel;stroke-miterlimit:4;stroke-opacity:1;stroke-dasharray:none"
         d="m 242.08182,593.37368 c 23.17644,-4.15114 19.28911,-17.88174 34.02577,-22.62047 -11.37878,1.74461 -23.52622,-1.504 -26.80562,-6.15841 10.92842,-3.09293 21.14013,-5.84215 29.52923,-16.45494 5.95327,-7.53145 5.83236,-14.56602 9.22308,-28.46682 l 1.8927,-6.28959 19.6018,-49.11223 28.19949,3.63617 c 17.80004,2.29523 6.57199,26.47073 28.76871,34.39983 -2.92082,3.34614 -11.96279,6.37552 -19.97577,-2.86054 5.04929,8.66469 13.50486,11.94233 17.18752,20.01111 3.767,8.25359 0.72398,21.243 3.34692,35.6983 -1.40801,-3.86388 -8.59281,0.84386 -14.61967,-10.12818 10.91278,16.23037 5.6515,26.71589 19.8956,39.30186 -7.48797,1.69137 -11.64288,2.36181 -17.90006,-1.71625 7.12202,11.48783 3.53748,19.20169 16.3578,29.99699 -8.62502,1.87551 -24.6793,-2.98251 -31.15667,-13.32735 -5.25391,11.26879 1.35386,16.95924 4.18033,23.23433 -13.23976,-1.97179 -23.27357,-12.15324 -27.68907,-20.59064 -5.9438,15.96641 -14.65761,21.50981 -23.56301,24.39126 0.31408,-6.12129 4.62777,-12.31566 0.44198,-21.85929 -6.00691,10.19909 -22.9015,11.4728 -36.2051,11.2379 4.10391,-6.25877 17.36737,-10.35436 19.47266,-21.45352 -8.66733,6.56235 -20.76412,9.54436 -34.20862,-0.86952 z"
         class="fil4 str10"
         id="path3221"
         inkscape:connector-curvature="0" />
      <path
         sodipodi:nodetypes="sccccccs"
         style="fill:#ffff00;fill-opacity:1;stroke:#000000;stroke-width:1.29999995;stroke-linejoin:bevel;stroke-miterlimit:4;stroke-opacity:1;stroke-dasharray:none"
         d="m 235.59869,518.37714 c 10.33042,-2.14203 16.55123,-10.73658 28.20861,-12.08534 8.89775,-0.54637 15.76685,7.92349 19.06196,13.5754 -5.49346,3.41304 -7.99036,3.14475 -12.5549,2.74757 -0.54361,-4.56824 -4.1375,-8.90066 -8.58327,-8.38629 -5.44412,0.63002 -13.19636,9.84442 -24.9181,11.13227 -4.63624,1.66227 -22.78731,1.878 -21.11058,-19.89807 1.35147,5.85678 8.06129,15.36845 19.89628,12.91446 z"
         class="fil4 str9"
         id="path3223"
         inkscape:connector-curvature="0" />
      <path
         style="fill:#ffffff;fill-opacity:1;stroke:#000000;stroke-width:1.29999995;stroke-linejoin:bevel;stroke-miterlimit:4;stroke-opacity:1;stroke-dasharray:none"
         d="m 257.48945,525.43016 c -1.97917,-0.1235 -4.26016,-0.14498 -5.23691,-0.71882 -0.15258,-2.28795 0.15203,-4.73339 1.06005,-7.49589 0.84701,2.98678 2.26202,5.70395 4.17686,8.21471 m -4.81961,-14.93223 c -2.12535,-1.92873 -3.6425,-3.94785 -4.61568,-6.00943 0.56541,-0.99815 2.55297,-2.18015 4.21073,-3.30421 -0.44321,3.15821 -0.30944,6.28976 0.40495,9.31364 z"
         class="fil4 str9"
         id="path3225"
         inkscape:connector-curvature="0" />
      <path
         style="fill:#ffff00;fill-opacity:1;stroke:#000000;stroke-width:1.29999995;stroke-linejoin:bevel;stroke-miterlimit:4;stroke-opacity:1;stroke-dasharray:none"
         d="m 346.72147,461.81091 c -0.73445,8.26165 -12.63663,10.04373 -21.74849,7.63148 2.78378,0.49124 10.11628,9.53839 18.55667,10.174 -3.00136,4.355 -8.92687,7.1305 -16.75075,6.82515 16.87372,9.25005 11.70839,22.33417 9.54794,28.85239 -0.45277,-8.65017 -5.4018,-12.34063 -11.25755,-15.03081 -0.12469,16.40671 9.80144,22.38951 -5.08322,35.66451 4.45082,-9.77409 -2.80908,-7.7689 -4.69795,-20.22809 3.37471,14.06391 -12.6497,15.15551 -12.52561,31.88344 -10.57722,-11.8546 3.05707,-20.03993 -0.87045,-30.99473 1.3553,11.87597 -10.90652,9.9312 -25.84445,11.86926 -11.96621,1.55243 -31.14729,16.20607 -26.80991,-4.3661 3.78144,-1.59324 15.14828,-1.82366 18.44285,-2.20519 18.60995,-0.65611 18.16794,-23.84256 2.61429,-25.19117 -8.17694,-0.54611 -14.14848,6.23943 -21.57083,8.68904 -8.8257,2.91281 -10.82011,-10.73548 -10.8607,-15.76568 -2.71151,-1.01291 -2.37463,-3.61423 -2.32975,-5.22672 1.69792,-1.41415 10.97909,-11.09086 18.1113,-12.62912 0.87781,-2.81909 4.08876,-5.90538 6.91642,-7.55107 4.50634,-2.62559 12.40058,-3.98207 14.86598,-5.59211 4.25551,-2.77795 5.55154,-5.77145 13.22665,-8.164 7.95367,-2.58097 12.95495,-2.4788 18.75832,-1.5231 3.36978,0.55514 5.86165,0.87371 8.41302,2.10892 5.04261,2.44174 23.64914,12.76287 30.89621,10.76965 z"
         class="fil4 str9"
         id="path3227"
         inkscape:connector-curvature="0"
         sodipodi:nodetypes="ccccccccccscccscccccccccc" />
      <path
         style="fill:#ffff00;fill-opacity:1;stroke:#000000;stroke-width:1.29999995;stroke-linecap:round;stroke-linejoin:bevel;stroke-miterlimit:4;stroke-opacity:1;stroke-dasharray:none"
         d="m 254.16472,471.70337 c 9.29333,-0.12698 18.03996,2.82879 29.90803,1.4556"
         class="fil5 str10"
         id="path3229"
         inkscape:connector-curvature="0" />
      <path
         style="fill:#ffff00;fill-opacity:1;stroke:#000000;stroke-width:1.29999995;stroke-linecap:round;stroke-linejoin:round;stroke-miterlimit:4;stroke-opacity:1;stroke-dasharray:none"
         d="m 237.86214,489.61925 c 4.12872,-1.07933 6.73864,-4.15734 10.28704,-7.51083"
         class="fil5 str12"
         id="path3231"
         inkscape:connector-curvature="0" />
      <path
         style="fill:#ffff00;fill-opacity:1;stroke:#000000;stroke-width:1.29999995;stroke-linecap:round;stroke-linejoin:bevel;stroke-miterlimit:4;stroke-opacity:1;stroke-dasharray:none"
         d="m 277.92186,491.45374 c 5.52456,2.6313 8.11441,7.49005 9.80038,13.03118"
         class="fil5 str10"
         id="path3233"
         inkscape:connector-curvature="0" />
      <path
         style="fill:#ffff00;fill-opacity:1;stroke:#000000;stroke-width:1.29999995;stroke-linejoin:round;stroke-miterlimit:4;stroke-opacity:1;stroke-dasharray:none"
         sodipodi:nodetypes="cccccccccccccccccc"
         d="m 294.24602,461.59198 c 1.27582,-3.42877 2.87548,-7.30644 4.94798,-10.13597 3.42029,-4.31321 8.24296,-7.31968 11.93689,-6.63314 3.81073,0.71446 7.32485,6.35992 8.18175,10.55393 0.69647,4.10709 0.58647,7.9334 -1.22501,12.16018 m -23.84161,-5.945 0,0 0,0 z"
         class="fil6 str11"
         id="path3235"
         inkscape:connector-curvature="0" />
      <path
         style="fill:#ffff00;fill-opacity:1;stroke:#000000;stroke-width:1.29999995;stroke-linejoin:round;stroke-miterlimit:4;stroke-opacity:1;stroke-dasharray:none"
         sodipodi:nodetypes="csc"
         d="m 261.44702,477.43129 c 2.39128,2.40431 3.36425,2.56578 5.08775,2.93624 1.7591,0.38171 6.02347,-0.58134 6.02347,-0.58134 m -11.11122,-2.3549 0,0 0,0 z"
         class="fil7 str11"
         id="path3237"
         inkscape:connector-curvature="0" />
      <path
         style="fill:#ffff00;fill-opacity:1;stroke:#000000;stroke-width:1.29999995;stroke-linejoin:round;stroke-miterlimit:4;stroke-opacity:1;stroke-dasharray:none"
         sodipodi:nodetypes="cccss"
         d="m 259.37038,466.08198 c 0,0 1.93735,2.54482 2.81362,2.90157 4.41938,-0.96827 6.87296,2.1488 10.80433,-2.15761 0.58683,-0.93173 3.04376,-1.03621 4.43852,-0.65083 0.65017,0.17968 2.17066,1.46889 2.17066,1.46889 m -20.22662,-1.55838 0,0 0,0 z"
         class="fil7 str11"
         id="path3239"
         inkscape:connector-curvature="0" />
      <path
         style="fill:#ffff00;fill-opacity:1;stroke:#000000;stroke-width:1.29999995;stroke-linejoin:round;stroke-miterlimit:4;stroke-opacity:1;stroke-dasharray:none"
         d="m 235.53421,484.39167 c 0.64143,-0.32069 1.53089,-0.79812 2.51796,-0.82076 2.4154,-0.0558 2.46802,3.62366 2.12972,5.17206"
         class="fil7 str11"
         id="path3241"
         inkscape:connector-curvature="0" />
      <path
         id="path3243"
         class="fil10 str11"
         d="m 263.48501,468.93818 c -0.29759,-0.0388 -0.60229,-0.0364 -0.91384,-0.0413 -1.56295,1.4384 -2.25463,3.00763 -2.21068,4.73139 0.16828,1.72498 0.92797,3.18202 2.63812,3.99662 2.23613,1.14767 9.64307,0.14294 13.92218,-3.97785 -0.83113,-0.30645 -12.54368,-4.6031 -13.43568,-4.70813 l 0,0 z"
         sodipodi:nodetypes="cccccc"
         style="fill:#ffffff;fill-opacity:1;stroke:#000000;stroke-width:1.29999995;stroke-linejoin:round;stroke-miterlimit:4;stroke-opacity:1;stroke-dasharray:none"
         inkscape:connector-curvature="0" />
      <path
         style="fill:#ffff00;fill-opacity:1;stroke:#000000;stroke-width:1.29999995;stroke-miterlimit:4;stroke-opacity:1;stroke-dasharray:none"
         d="m 310.44902,450.53905 c -5.80586,5.20527 -6.12101,10.87735 -6.46758,12.40586 -2.15298,-4.94066 0.18308,-10.95151 6.46758,-12.40586 z"
         class="fil2"
         id="path3245"
         inkscape:connector-curvature="0" />
      <path
         inkscape:connector-curvature="0"
         style="fill:#ffffff;fill-opacity:1;stroke:#000000;stroke-width:1.29999995;stroke-linejoin:round;stroke-miterlimit:4;stroke-opacity:1;stroke-dasharray:none;stroke-dashoffset:0"
         d="m 267.19356,472.93268 c 0.2351,1.67284 -0.60382,3.33365 -1.87401,3.7096 -1.26999,0.37614 -2.4901,-0.6754 -2.7252,-2.34821 -0.2351,-1.67279 0.60381,-3.33363 1.87383,-3.70957 1.27017,-0.37617 2.49029,0.67542 2.72538,2.34818 z"
         id="path3247" />
      <path
         inkscape:connector-curvature="0"
         style="fill:#ffffff;fill-opacity:1;stroke:#000000;stroke-width:1.29999995;stroke-miterlimit:4;stroke-opacity:1;stroke-dasharray:none;display:inline"
         d="m 266.3378,473.23129 c 0.13727,0.9767 -0.39676,1.95257 -1.1929,2.17973 -0.79613,0.22722 -1.55272,-0.38041 -1.68999,-1.35712 -0.13725,-0.97665 0.39679,-1.95253 1.19293,-2.17968 0.79613,-0.22722 1.55271,0.38046 1.68996,1.35707 z"
         id="path3249" />
    </g>
    <g
       transform="matrix(-1.2387864,0.17410009,0.17410009,1.2387864,-457.74492,-145.5113)"
       id="use3309"
       style="display:inline">
      <path
         inkscape:connector-curvature="0"
         id="path3401"
         class="fil4 str10"
         d="m -363.97778,346.60982 c -18.80843,-0.70762 -17.25877,-12.00932 -29.4516,-14.12103 9.20161,0.11512 18.45618,-3.80794 20.53435,-7.85724 -8.9951,-1.23256 -17.38461,-2.27278 -25.20618,-9.74062 -5.55054,-5.29962 -6.23744,-10.88168 -10.46806,-21.50841 l -2.19801,-4.76831 -20.98079,-36.69678 -21.91835,6.01569 c -13.83527,3.79723 -2.25748,21.68555 -18.9464,30.43172 2.68441,2.32388 10.17911,3.71601 15.4947,-4.48678 -3.03308,7.42077 -9.36191,10.95607 -11.37945,17.75308 -2.06375,6.95268 1.79024,16.89663 1.3221,28.63134 0.68472,-3.21531 6.896,-0.28797 10.44623,-9.64401 -6.83295,14.06214 -1.50154,21.77721 -11.37703,33.32504 6.11569,0.50584 9.47933,0.57432 13.97886,-3.35003 -4.35978,9.88618 -0.66405,15.59373 -9.61168,25.56565 7.03627,0.52511 19.20447,-5.10662 23.1811,-14.01628 5.41271,8.33593 0.81504,13.57566 -0.72429,18.85751 10.26131,-3.03384 17.07142,-12.20983 19.62807,-19.38017 6.48146,11.97784 13.99608,15.3966 21.36622,16.68682 -0.92964,-4.81071 -5.03352,-9.2343 -2.78178,-17.25478 5.88978,7.40538 19.40535,6.53408 29.91042,4.86807 -3.94498,-4.49791 -14.90007,-6.26441 -17.80144,-14.81635 7.59119,4.23053 17.49884,5.2453 26.98301,-4.49413 z"
         style="fill:#ffff00;fill-opacity:1;stroke:#000000;stroke-width:1.03920126;stroke-linecap:round;stroke-linejoin:bevel;stroke-miterlimit:4;stroke-opacity:1;stroke-dasharray:none"
         sodipodi:nodetypes="cccscccsccsccccccccccccc" />
      <path
         inkscape:connector-curvature="0"
         id="path3403"
         class="fil4 str9"
         d="m -367.18928,286.52084 c -8.41593,-0.54636 -14.29653,-6.65777 -23.67464,-6.42854 -7.1043,0.55739 -11.59962,8.02639 -13.57926,12.86707 4.72837,2.09062 6.67508,1.60045 10.24421,0.77822 -0.0779,-3.67672 2.28505,-7.50612 5.86157,-7.59355 4.37969,-0.10695 11.54154,6.32477 20.96382,6.04016 3.85501,0.80007 18.24751,-1.04852 14.49754,-18.10005 -0.41824,4.78662 -4.67158,13.0626 -14.31324,12.43669 z"
         style="fill:#ffff00;fill-opacity:1;stroke:#000000;stroke-width:1.03920126;stroke-linejoin:bevel;stroke-miterlimit:4;stroke-opacity:1;stroke-dasharray:none"
         sodipodi:nodetypes="sccccccs" />
      <path
         inkscape:connector-curvature="0"
         id="path3405"
         class="fil4 str9"
         d="m -383.73347,294.53946 c 1.55298,-0.31795 3.35624,-0.58872 4.0656,-1.15164 -0.13376,-1.82813 -0.64695,-3.73007 -1.67308,-5.81586 -0.33821,2.45859 -1.15605,4.76694 -2.39252,6.9675 m 2.15398,-12.35664 c 1.46786,-1.76324 2.44421,-3.53038 2.98523,-5.27061 -0.55863,-0.72723 -2.26349,-1.44179 -3.70084,-2.14717 0.70221,2.45075 0.94471,4.94458 0.71561,7.41778 z"
         style="fill:#ffff00;fill-opacity:1;stroke:#000000;stroke-width:1.03920126;stroke-linejoin:bevel;stroke-miterlimit:4;stroke-opacity:1;stroke-dasharray:none" />
      <path
         sodipodi:nodetypes="ccccccccccscccscccccccccc"
         inkscape:connector-curvature="0"
         id="path3407"
         class="fil4 str9"
         d="m -461.44791,254.10541 c 1.50053,6.45826 11.12063,6.54481 18.06526,3.62154 -2.149,0.69857 -6.94693,8.67611 -13.55768,10.11828 2.8604,3.11354 7.85985,4.65141 14.01931,3.53926 -12.32824,9.19965 -6.78369,18.98246 -4.34829,23.90197 -0.60394,-6.8979 2.90316,-10.36989 7.23932,-13.15092 1.924,12.97378 -5.26798,18.81411 7.99169,27.66672 -4.61069,-7.24206 1.35937,-6.46243 1.46849,-16.53534 -1.10679,11.50852 11.69968,10.58988 13.46248,23.84561 7.05413,-10.56092 -4.6495,-15.52362 -2.7592,-24.63245 0.24837,9.55187 9.73854,6.64821 21.77911,6.5205 9.64524,-0.10236 26.45936,9.3636 20.73715,-6.43891 -3.17067,-0.84052 -12.19436,0.24167 -14.84481,0.30618 -14.80474,1.55103 -17.03441,-16.85268 -4.87208,-19.65064 6.41216,-1.34201 11.89418,3.36511 18.04228,4.47848 7.31054,1.32391 7.37091,-9.70204 6.84342,-13.68849 2.03376,-1.10349 1.47768,-3.12523 1.26275,-4.3967 -1.50141,-0.93055 -9.925,-7.55813 -15.74204,-7.98235 -1.00851,-2.13395 -3.89368,-4.21985 -6.31516,-5.208 -3.85935,-1.57709 -10.25939,-1.77263 -12.39014,-2.77286 -3.67774,-1.72561 -5.03672,-3.95109 -11.37856,-4.99117 -6.58332,-1.15824 -10.53099,-0.52096 -15.01865,0.88122 -2.60578,0.81435 -4.54292,1.34376 -6.42518,2.60541 -3.72011,2.4939 -17.30089,12.7342 -23.25947,11.96262 z"
         style="fill:#ffff00;fill-opacity:1;stroke:#000000;stroke-width:1.03920126;stroke-linejoin:bevel;stroke-miterlimit:4;stroke-opacity:1;stroke-dasharray:none" />
      <path
         inkscape:connector-curvature="0"
         id="path3409"
         class="fil5 str10"
         d="m -387.07886,251.63912 c -7.37078,0.9334 -13.96583,4.24629 -23.51344,4.47962"
         style="fill:#ffff00;fill-opacity:1;stroke:#000000;stroke-width:1.03920126;stroke-linecap:round;stroke-linejoin:bevel;stroke-miterlimit:4;stroke-opacity:1;stroke-dasharray:none" />
      <path
         inkscape:connector-curvature="0"
         id="path3411"
         class="fil5 str12"
         d="m -372.18044,264.00773 c -3.3884,-0.39507 -5.79687,-2.54128 -8.97889,-4.80115"
         style="fill:#ffff00;fill-opacity:1;stroke:#000000;stroke-width:1.03920126;stroke-linecap:round;stroke-linejoin:round;stroke-miterlimit:4;stroke-opacity:1;stroke-dasharray:none" />
      <path
         inkscape:connector-curvature="0"
         id="path3413"
         class="fil5 str10"
         d="m -403.68787,269.91669 c -4.08053,2.69758 -5.59012,6.83192 -6.30828,11.40588"
         style="fill:#ffff00;fill-opacity:1;stroke:#000000;stroke-width:1.03920126;stroke-linecap:round;stroke-linejoin:bevel;stroke-miterlimit:4;stroke-opacity:1;stroke-dasharray:none" />
      <path
         inkscape:connector-curvature="0"
         id="path3415"
         class="fil6 str11"
         d="m -419.93238,248.09405 c -1.39141,-2.5723 -3.08911,-5.46392 -5.04451,-7.47322 -3.18738,-3.03384 -7.33951,-4.87725 -10.18727,-3.92282 -2.93711,0.98953 -5.09084,5.84947 -5.30257,9.2648 -0.0944,3.32868 0.41836,6.34538 2.32258,9.48979 m 18.21177,-7.35855 0,0 0,0 z"
         sodipodi:nodetypes="cccccccccccccccccc"
         style="fill:#ffff00;fill-opacity:1;stroke:#000000;stroke-width:1.03920126;stroke-linejoin:round;stroke-miterlimit:4;stroke-opacity:1;stroke-dasharray:none" />
      <path
         inkscape:connector-curvature="0"
         id="path3417"
         class="fil7 str11"
         d="m -392.20632,256.98356 c -1.62547,2.1693 -2.37771,2.40537 -3.70083,2.89037 -1.35005,0.49787 -4.83289,0.20994 -4.83289,0.20994 m 8.53372,-3.10031 0,0 0,0 z"
         sodipodi:nodetypes="csc"
         style="fill:#ffff00;fill-opacity:1;stroke:#000000;stroke-width:1.03920126;stroke-linejoin:round;stroke-miterlimit:4;stroke-opacity:1;stroke-dasharray:none" />
      <path
         inkscape:connector-curvature="0"
         id="path3419"
         class="fil7 str11"
         d="m -391.82509,247.76834 c 0,0 -1.2505,2.23003 -1.90447,2.60993 -3.60613,-0.27482 -5.20161,2.46564 -8.79281,-0.50597 -0.5682,-0.67227 -2.52474,-0.48164 -3.58597,-0.0214 -0.49469,0.21457 -1.55489,1.40428 -1.55489,1.40428 m 15.83814,-3.4839 0,0 0,0 z"
         sodipodi:nodetypes="cccss"
         style="fill:#ffff00;fill-opacity:1;stroke:#000000;stroke-width:1.03920126;stroke-linejoin:round;stroke-miterlimit:4;stroke-opacity:1;stroke-dasharray:none" />
      <path
         inkscape:connector-curvature="0"
         id="path3421"
         class="fil7 str11"
         d="m -370.91922,259.61056 c -0.54344,-0.1825 -1.30066,-0.46148 -2.08455,-0.36959 -1.91825,0.22455 -1.55055,3.14309 -1.11049,4.33117"
         style="fill:#ffff00;fill-opacity:1;stroke:#000000;stroke-width:1.03920126;stroke-linejoin:round;stroke-miterlimit:4;stroke-opacity:1;stroke-dasharray:none" />
      <path
         inkscape:connector-curvature="0"
         style="fill:#ffffff;fill-opacity:1;stroke:#000000;stroke-width:1.03920126;stroke-linejoin:round;stroke-miterlimit:4;stroke-opacity:1;stroke-dasharray:none"
         sodipodi:nodetypes="cccccc"
         d="m -394.76449,250.48709 c 0.23126,-0.0638 0.47273,-0.0958 0.7188,-0.13438 1.39727,0.96476 2.11939,2.13002 2.27637,3.49945 0.0587,1.38423 -0.38058,2.62215 -1.64372,3.45725 -1.64245,1.15728 -7.61761,1.18597 -11.46343,-1.60001 0.62384,-0.33505 9.41755,-5.03936 10.11198,-5.22174 l 0,0 z"
         class="fil10 str11"
         id="path3423" />
      <path
         inkscape:connector-curvature="0"
         id="path3425"
         class="fil2"
         d="m -433.98845,241.14712 c 5.17506,3.4746 6.05557,7.92959 6.49997,9.10101 1.15465,-4.15058 -1.36332,-8.64891 -6.49997,-9.10101 z"
         style="fill:#ffff00;fill-opacity:1;stroke:#000000;stroke-width:1.03920126;stroke-miterlimit:4;stroke-opacity:1;stroke-dasharray:none" />
      <path
         id="path3427"
         d="m -397.2558,254.06175 c 0,1.35039 0.84886,2.57176 1.89618,2.72805 1.04718,0.15647 1.89604,-0.81168 1.89604,-2.16204 0,-1.35035 -0.84886,-2.57175 -1.89604,-2.72805 -1.04732,-0.15647 -1.89618,0.81172 -1.89618,2.16204 z"
         style="fill:#ffffff;fill-opacity:1;stroke:#000000;stroke-width:1.03920126;stroke-linejoin:round;stroke-miterlimit:4;stroke-opacity:1;stroke-dasharray:none;stroke-dashoffset:0"
         inkscape:connector-curvature="0" />
      <path
         id="path3429"
         d="m -396.54516,254.20293 c 0,0.78843 0.53131,1.50152 1.18681,1.59277 0.6555,0.0913 1.18682,-0.47388 1.18682,-1.26232 0,-0.78839 -0.53132,-1.50149 -1.18682,-1.59273 -0.6555,-0.0913 -1.18681,0.47392 -1.18681,1.26228 z"
         style="fill:#ffffff;fill-opacity:1;stroke:#000000;stroke-width:1.03920126;stroke-miterlimit:4;stroke-opacity:1;stroke-dasharray:none;display:inline"
         inkscape:connector-curvature="0" />
    </g>
    <use
       x="0"
       y="0"
       xlink:href="#use3309"
       id="use3311"
       transform="translate(389.23746,0)"
       width="600"
       height="660" />
  </g>
  <g
     inkscape:groupmode="layer"
     id="layer1"
     inkscape:label="Cover"
     style="display:inline"
     sodipodi:insensitive="true">
    <path
       d="m 2,2 v 257 c 0,286 298,398 298,398 0,0 298,-112 298,-398 V 2 z"
       id="shine"
       inkscape:connector-curvature="0"
       style="fill:url(#radialGradient3074);stroke:#000000;stroke-width:3" />
  </g>
</svg>
