<?xml version="1.0" encoding="UTF-8" standalone="no"?>
<svg
   xmlns:dc="http://purl.org/dc/elements/1.1/"
   xmlns:cc="http://creativecommons.org/ns#"
   xmlns:rdf="http://www.w3.org/1999/02/22-rdf-syntax-ns#"
   xmlns:svg="http://www.w3.org/2000/svg"
   xmlns="http://www.w3.org/2000/svg"
   xmlns:xlink="http://www.w3.org/1999/xlink"
   xmlns:sodipodi="http://sodipodi.sourceforge.net/DTD/sodipodi-0.dtd"
   xmlns:inkscape="http://www.inkscape.org/namespaces/inkscape"
   width="600"
   height="660"
   id="svg2"
   version="1.1"
   inkscape:version="0.91 r13725"
   sodipodi:docname="Blason_vide_3D_600x660.svg">
  <metadata
     id="metadata19">
    <rdf:RDF>
      <cc:Work
         rdf:about="">
        <dc:format>image/svg+xml</dc:format>
        <dc:type
           rdf:resource="http://purl.org/dc/dcmitype/StillImage" />
        <dc:title></dc:title>
      </cc:Work>
    </rdf:RDF>
  </metadata>
  <defs
     id="defs17">
    <radialGradient
       inkscape:collect="always"
       xlink:href="#rg"
       id="radialGradient4153"
       gradientUnits="userSpaceOnUse"
       cx="220"
       cy="220"
       r="405" />
    <pattern
       patternUnits="userSpaceOnUse"
       width="20"
       height="20"
       id="pattern5620">
      <rect
         style="fill:#ffffff;stroke:none"
         x="0"
         y="0"
         width="20"
         height="20"
         id="rect5618" />
      <rect
         id="rect5614"
         height="10"
         width="10"
         y="0"
         x="0"
         style="fill:#008000;stroke:none" />
      <rect
         id="rect5616"
         height="10"
         width="10"
         y="10"
         x="10"
         style="fill:#008000;stroke:none" />
    </pattern>
  </defs>
  <sodipodi:namedview
     pagecolor="#ffffff"
     bordercolor="#666666"
     borderopacity="1"
     objecttolerance="10"
     gridtolerance="10"
     guidetolerance="10"
     inkscape:pageopacity="0"
     inkscape:pageshadow="2"
     inkscape:window-width="1366"
     inkscape:window-height="705"
     id="namedview15"
     showgrid="false"
     inkscape:zoom="0.5"
     inkscape:cx="170.1539"
     inkscape:cy="356.68106"
     inkscape:window-x="-8"
     inkscape:window-y="-8"
     inkscape:window-maximized="1"
     inkscape:current-layer="svg2"
     showguides="false" />
  <radialGradient
     id="rg"
     gradientUnits="userSpaceOnUse"
     cx="220"
     cy="220"
     r="405">
    <stop
       style="stop-color:#fff;stop-opacity:.3"
       offset="0"
       id="stop5" />
    <stop
       style="stop-color:#fff;stop-opacity:.2"
       offset=".2"
       id="stop7" />
    <stop
       style="stop-color:#666;stop-opacity:.1"
       offset=".6"
       id="stop9" />
    <stop
       style="stop-color:#000;stop-opacity:.13"
       offset="1"
       id="stop11" />
  </radialGradient>
  <path
     inkscape:connector-curvature="0"
     style="fill:#8b4513;fill-opacity:1;stroke:none;stroke-width:3"
     id="path7212"
     d="m 2,2 0,257 c 0,286 298,398 298,398 0,0 298,-112 298,-398 L 598,2 Z" />
  <path
     inkscape:connector-curvature="0"
     style="fill:none;fill-opacity:1;stroke:none;stroke-width:3"
     id="path7200"
     d="m 2,2 0,257 c 0,286 298,398 298,398 0,0 298,-112 298,-398 L 598,2 Z" />
  <g
     transform="matrix(-0.809017,-0.58778525,0.58778525,-0.809017,290.02633,618.77786)"
     id="g4534" />
  <rect
     style="opacity:1;fill:none;fill-opacity:1;stroke:none;stroke-width:60;stroke-linecap:square;stroke-miterlimit:4;stroke-dasharray:none;stroke-opacity:1"
     id="rect5607"
     width="152"
     height="152"
     x="600"
     y="456" />
  <circle
     style="opacity:1;fill:#00b000;fill-opacity:1;stroke:none;stroke-width:40;stroke-linecap:square;stroke-miterlimit:4;stroke-dasharray:none;stroke-opacity:1"
     id="path5658"
     cx="300"
     cy="535"
     r="50" />
  <use
     x="0"
     y="0"
     xlink:href="#path5658"
     id="use5660"
     transform="translate(-135,-405)"
     width="100%"
     height="100%" />
  <use
     x="0"
     y="0"
     xlink:href="#path5658"
     id="use5662"
     transform="translate(135,-405)"
     width="100%"
     height="100%" />
  <use
     x="0"
     y="0"
     xlink:href="#path5658"
     id="use5664"
     transform="translate(-135,-265)"
     width="100%"
     height="100%" />
  <use
     x="0"
     y="0"
     xlink:href="#path5658"
     id="use5668"
     transform="translate(135,-265)"
     width="100%"
     height="100%" />
  <use
     x="0"
     y="0"
     xlink:href="#path5658"
     id="use5670"
     transform="translate(-135,-125)"
     width="100%"
     height="100%" />
  <use
     x="0"
     y="0"
     xlink:href="#path5658"
     id="use5672"
     transform="translate(135,-125)"
     width="100%"
     height="100%" />
  <path
     id="path4147"
     d="m 2,2 0,257 c 0,286 298,398 298,398 0,0 298,-112 298,-398 L 598,2 Z"
     style="fill:url(#radialGradient4153);stroke:#000000;stroke-width:3"
     inkscape:connector-curvature="0" />
</svg>
