<?xml version="1.0" encoding="UTF-8" standalone="no"?>
<svg
   xmlns:dc="http://purl.org/dc/elements/1.1/"
   xmlns:cc="http://creativecommons.org/ns#"
   xmlns:rdf="http://www.w3.org/1999/02/22-rdf-syntax-ns#"
   xmlns:svg="http://www.w3.org/2000/svg"
   xmlns="http://www.w3.org/2000/svg"
   xmlns:xlink="http://www.w3.org/1999/xlink"
   xmlns:sodipodi="http://sodipodi.sourceforge.net/DTD/sodipodi-0.dtd"
   xmlns:inkscape="http://www.inkscape.org/namespaces/inkscape"
   width="600"
   height="660"
   id="svg2"
   version="1.1"
   inkscape:version="0.48.2 r9819"
   sodipodi:docname="House_Lefford.svg">
  <metadata
     id="metadata27">
    <rdf:RDF>
      <cc:Work
         rdf:about="">
        <dc:format>image/svg+xml</dc:format>
        <dc:type
           rdf:resource="http://purl.org/dc/dcmitype/StillImage" />
      </cc:Work>
    </rdf:RDF>
  </metadata>
  <sodipodi:namedview
     pagecolor="#ffffff"
     bordercolor="#666666"
     borderopacity="1"
     objecttolerance="10"
     gridtolerance="10"
     guidetolerance="10"
     inkscape:pageopacity="0"
     inkscape:pageshadow="2"
     inkscape:window-width="1366"
     inkscape:window-height="715"
     id="namedview25"
     showgrid="false"
     inkscape:zoom="0.35757576"
     inkscape:cx="300"
     inkscape:cy="306.22881"
     inkscape:window-x="-8"
     inkscape:window-y="-8"
     inkscape:window-maximized="1"
     inkscape:current-layer="svg2" />
  <defs
     id="defs4">
    <radialGradient
       id="rg"
       gradientUnits="userSpaceOnUse"
       cx="220"
       cy="220"
       r="405">
      <stop
         style="stop-color:#fff;stop-opacity:.3"
         offset="0"
         id="stop7" />
      <stop
         style="stop-color:#fff;stop-opacity:.2"
         offset=".2"
         id="stop9" />
      <stop
         style="stop-color:#666;stop-opacity:.1"
         offset=".6"
         id="stop11" />
      <stop
         style="stop-color:#000;stop-opacity:.13"
         offset="1"
         id="stop13" />
    </radialGradient>
    <clipPath
       id="clip-shield">
      <path
         id="shield"
         d="m2,2v257c0,286 298,398 298,398c0,0 298-112 298-398V2z" />
    </clipPath>
    <clipPath
       clipPathUnits="userSpaceOnUse"
       id="clipPath3015">
      <use
         xlink:href="#shield"
         id="use3017"
         style="fill:url(#radialGradient3019);stroke:#000000;stroke-width:3"
         x="0"
         y="0"
         width="1"
         height="1" />
    </clipPath>
    <radialGradient
       inkscape:collect="always"
       xlink:href="#rg"
       id="radialGradient3019"
       gradientUnits="userSpaceOnUse"
       cx="220"
       cy="220"
       r="405" />
  </defs>
  <g
     id="g3009"
     clip-path="url(#clipPath3015)">
    <rect
       x="0"
       y="0"
       width="600"
       height="660"
       id="rect18"
       style="fill:#0088ee" />
    <path
       d="M 100,660 300,150 500,660 z"
       id="path20"
       inkscape:connector-curvature="0"
       style="fill:#ffdd00" />
  </g>
  <path
     style="fill:#ffff00"
     inkscape:connector-curvature="0"
     id="path22"
     d="m 150,50 -9.53581,52.44862 C 126.69864,68.94287 112.55272,81.80612 111.7315,57.61091 c -10.98435,21.65254 8.35419,20.84155 8.80331,50.2322 L 79.289042,79.28822 109.63251,123.11749 c -33.424503,-13.95671 -34.331675,5.14093 -52.020775,-11.38681 7.543532,23.0777 20.644453,8.8303 41.744239,29.2948 L 50,149.99959 l 52.4478,9.53581 c -33.503868,13.76585 -20.641058,27.91106 -44.836065,28.73227 21.652328,10.98424 20.841575,-8.35302 50.231365,-8.80248 l -28.554058,41.24495 43.829268,-30.34347 c -13.95728,33.4252 5.14104,34.33155 -11.38681,52.02077 23.07775,-7.54354 8.83008,-20.64354 29.29479,-41.74341 L 150.0004,250 l 9.53582,-52.4478 c 13.76582,33.50367 27.91105,20.64027 28.73227,44.83524 10.98428,-21.65241 -8.35398,-20.84125 -8.8033,-50.23137 l 41.24576,28.55407 -30.34264,-43.82763 c 33.42352,13.9559 34.33103,-5.14241 52.01995,11.38516 -7.54355,-23.07775 -20.64436,-8.83007 -41.74424,-29.29479 L 250,149.99959 197.55302,140.46377 c 33.50297,-13.76575 20.6404,-27.91188 44.83524,-28.73309 -21.65254,-10.98434 -20.84156,8.3542 -50.2322,8.80331 l 28.55489,-41.24577 -43.82927,30.34347 c 13.95671,-33.4245 -5.14092,-34.33168 11.38681,-52.02078 -23.07775,7.54355 -8.83008,20.64436 -29.29479,41.74424 l -8.9733,-49.35597 z" />
  <use
     id="shine"
     xlink:href="#shield"
     stroke-width="3"
     stroke="#000"
     fill="url(#rg)" />
</svg>
