<?xml version="1.0" encoding="UTF-8" standalone="no"?>
<svg
   xmlns:dc="http://purl.org/dc/elements/1.1/"
   xmlns:cc="http://creativecommons.org/ns#"
   xmlns:rdf="http://www.w3.org/1999/02/22-rdf-syntax-ns#"
   xmlns:svg="http://www.w3.org/2000/svg"
   xmlns="http://www.w3.org/2000/svg"
   xmlns:xlink="http://www.w3.org/1999/xlink"
   xmlns:sodipodi="http://sodipodi.sourceforge.net/DTD/sodipodi-0.dtd"
   xmlns:inkscape="http://www.inkscape.org/namespaces/inkscape"
   width="600"
   height="660"
   id="svg2"
   version="1.1"
   inkscape:version="0.48.2 r9819"
   sodipodi:docname="House_Lightfoot.svg">
  <metadata
     id="metadata24">
    <rdf:RDF>
      <cc:Work
         rdf:about="">
        <dc:format>image/svg+xml</dc:format>
        <dc:type
           rdf:resource="http://purl.org/dc/dcmitype/StillImage" />
        <dc:title />
      </cc:Work>
    </rdf:RDF>
  </metadata>
  <sodipodi:namedview
     pagecolor="#ffffff"
     bordercolor="#666666"
     borderopacity="1"
     objecttolerance="10"
     gridtolerance="10"
     guidetolerance="10"
     inkscape:pageopacity="0"
     inkscape:pageshadow="2"
     inkscape:window-width="1366"
     inkscape:window-height="715"
     id="namedview22"
     showgrid="false"
     inkscape:zoom="0.5"
     inkscape:cx="-85.514687"
     inkscape:cy="421.60822"
     inkscape:window-x="-8"
     inkscape:window-y="-8"
     inkscape:window-maximized="1"
     inkscape:current-layer="layer2" />
  <defs
     id="defs4">
    <inkscape:path-effect
       effect="spiro"
       id="path-effect3223"
       is_visible="true" />
    <inkscape:path-effect
       effect="spiro"
       id="path-effect3219"
       is_visible="true" />
    <inkscape:path-effect
       is_visible="true"
       id="path-effect3136"
       effect="spiro" />
    <inkscape:path-effect
       effect="spiro"
       id="path-effect3132"
       is_visible="true" />
    <inkscape:path-effect
       effect="spiro"
       id="path-effect3101"
       is_visible="true" />
    <inkscape:path-effect
       is_visible="true"
       id="path-effect3085"
       effect="spiro" />
    <inkscape:path-effect
       is_visible="true"
       id="path-effect3083"
       effect="spiro" />
    <inkscape:path-effect
       is_visible="true"
       id="path-effect3081"
       effect="spiro" />
    <inkscape:path-effect
       is_visible="true"
       id="path-effect3079"
       effect="spiro" />
    <inkscape:path-effect
       is_visible="true"
       id="path-effect3077"
       effect="spiro" />
    <inkscape:path-effect
       is_visible="true"
       id="path-effect3075"
       effect="spiro" />
    <inkscape:path-effect
       effect="spiro"
       id="path-effect3049"
       is_visible="true" />
    <inkscape:path-effect
       is_visible="true"
       id="path-effect3045"
       effect="spiro" />
    <inkscape:path-effect
       effect="spiro"
       id="path-effect3041"
       is_visible="true" />
    <radialGradient
       id="rg"
       gradientUnits="userSpaceOnUse"
       cx="220"
       cy="220"
       r="405">
      <stop
         style="stop-color:#fff;stop-opacity:.3"
         offset="0"
         id="stop7" />
      <stop
         style="stop-color:#fff;stop-opacity:.2"
         offset=".2"
         id="stop9" />
      <stop
         style="stop-color:#666;stop-opacity:.1"
         offset=".6"
         id="stop11" />
      <stop
         style="stop-color:#000;stop-opacity:.13"
         offset="1"
         id="stop13" />
    </radialGradient>
    <path
       id="shield"
       d="m2,2v257c0,286 298,398 298,398c0,0 298-112 298-398V2z" />
    <radialGradient
       inkscape:collect="always"
       xlink:href="#rg-7"
       id="radialGradient3055-1"
       gradientUnits="userSpaceOnUse"
       cx="220"
       cy="220"
       r="405" />
    <radialGradient
       id="rg-7"
       gradientUnits="userSpaceOnUse"
       cx="220"
       cy="220"
       r="405">
      <stop
         style="stop-color:#fff;stop-opacity:.3"
         offset="0"
         id="stop7-4" />
      <stop
         style="stop-color:#fff;stop-opacity:.2"
         offset=".2"
         id="stop9-0" />
      <stop
         style="stop-color:#666;stop-opacity:.1"
         offset=".6"
         id="stop11-9" />
      <stop
         style="stop-color:#000;stop-opacity:.13"
         offset="1"
         id="stop13-4" />
    </radialGradient>
    <radialGradient
       r="405"
       cy="220"
       cx="220"
       gradientUnits="userSpaceOnUse"
       id="radialGradient3074"
       xlink:href="#rg-7"
       inkscape:collect="always" />
    <inkscape:path-effect
       is_visible="true"
       id="path-effect10120-1"
       effect="spiro" />
    <inkscape:path-effect
       effect="spiro"
       id="path-effect10118-3"
       is_visible="true" />
    <inkscape:path-effect
       effect="spiro"
       id="path-effect10116-9"
       is_visible="true" />
    <inkscape:path-effect
       effect="spiro"
       id="path-effect10114-7"
       is_visible="true" />
    <inkscape:path-effect
       effect="spiro"
       id="path-effect10112-7"
       is_visible="true" />
    <inkscape:path-effect
       effect="spiro"
       id="path-effect10110-2"
       is_visible="true" />
    <linearGradient
       inkscape:collect="always"
       xlink:href="#linearGradient4719-5"
       id="linearGradient4039"
       gradientUnits="userSpaceOnUse"
       gradientTransform="matrix(2.3257341,0,0,2.2943177,447.69485,-1820.2799)"
       x1="-145.25935"
       y1="984.24286"
       x2="-64.14286"
       y2="984.14789" />
    <linearGradient
       inkscape:collect="always"
       id="linearGradient4719-5">
      <stop
         style="stop-color:#666666;stop-opacity:1;"
         offset="0"
         id="stop4721-5" />
      <stop
         id="stop4809-1"
         offset="0.39344174"
         style="stop-color:#666666;stop-opacity:0.74901961;" />
      <stop
         style="stop-color:#666666;stop-opacity:0;"
         offset="1"
         id="stop4723-7" />
    </linearGradient>
    <radialGradient
       inkscape:collect="always"
       xlink:href="#linearGradient4801-8"
       id="radialGradient4041"
       gradientUnits="userSpaceOnUse"
       gradientTransform="matrix(-0.72153181,1.2650715,-2.2729984,-1.2616144,1712.0113,1733.7841)"
       cx="-307.14288"
       cy="782.36218"
       fx="-307.14288"
       fy="782.36218"
       r="63" />
    <linearGradient
       inkscape:collect="always"
       id="linearGradient4801-8">
      <stop
         style="stop-color:#000000;stop-opacity:1;"
         offset="0"
         id="stop4803-2" />
      <stop
         style="stop-color:#000000;stop-opacity:0;"
         offset="1"
         id="stop4805-4" />
    </linearGradient>
    <inkscape:path-effect
       effect="spiro"
       id="path-effect10108-4"
       is_visible="true" />
    <linearGradient
       inkscape:collect="always"
       xlink:href="#linearGradient4719-5"
       id="linearGradient4044"
       gradientUnits="userSpaceOnUse"
       gradientTransform="matrix(-2.4055369,0,0,-1.6485021,142.06168,1726.5307)"
       x1="-145.25935"
       y1="984.24286"
       x2="-64.14286"
       y2="984.14789" />
    <radialGradient
       inkscape:collect="always"
       xlink:href="#linearGradient4801-8"
       id="radialGradient4046"
       gradientUnits="userSpaceOnUse"
       gradientTransform="matrix(0.74628962,-0.90897301,2.3509914,0.90648896,-1165.637,-827.11785)"
       cx="-307.14288"
       cy="782.36218"
       fx="-307.14288"
       fy="782.36218"
       r="63" />
    <inkscape:path-effect
       effect="spiro"
       id="path-effect10102-7"
       is_visible="true" />
    <linearGradient
       inkscape:collect="always"
       xlink:href="#linearGradient4719-5"
       id="linearGradient4049"
       gradientUnits="userSpaceOnUse"
       gradientTransform="matrix(2.334989,0,0,-1.6146975,449.44065,1692.189)"
       x1="-145.25935"
       y1="984.24286"
       x2="-64.14286"
       y2="984.14789" />
    <radialGradient
       inkscape:collect="always"
       xlink:href="#linearGradient4801-8"
       id="radialGradient4051"
       gradientUnits="userSpaceOnUse"
       gradientTransform="matrix(-0.72440295,-0.89033332,-2.2820431,0.88790031,1718.7881,-809.09364)"
       cx="-307.14288"
       cy="782.36218"
       fx="-307.14288"
       fy="782.36218"
       r="63" />
    <inkscape:path-effect
       is_visible="true"
       id="path-effect10096-8"
       effect="spiro" />
    <linearGradient
       inkscape:collect="always"
       xlink:href="#linearGradient4719-5"
       id="linearGradient4054"
       gradientUnits="userSpaceOnUse"
       gradientTransform="matrix(-2.409599,0,0,2.2818507,139.61083,-1810.8163)"
       x1="-145.25935"
       y1="984.24286"
       x2="-64.14286"
       y2="984.14789" />
    <radialGradient
       inkscape:collect="always"
       xlink:href="#linearGradient4801-8"
       id="radialGradient4056"
       gradientUnits="userSpaceOnUse"
       gradientTransform="matrix(0.74754985,1.2581972,2.3549614,-1.2547588,-1170.296,1723.935)"
       cx="-307.14288"
       cy="782.36218"
       fx="-307.14288"
       fy="782.36218"
       r="63" />
    <inkscape:path-effect
       is_visible="true"
       id="path-effect10090-3"
       effect="spiro" />
    <inkscape:path-effect
       effect="spiro"
       id="path-effect10084-1"
       is_visible="true" />
    <inkscape:path-effect
       effect="spiro"
       id="path-effect10082-1"
       is_visible="true" />
    <radialGradient
       inkscape:collect="always"
       xlink:href="#linearGradient4801-8"
       id="radialGradient4061"
       gradientUnits="userSpaceOnUse"
       gradientTransform="matrix(-0.76516322,1.2901254,-2.4104477,-1.2865998,1806.8444,1757.4704)"
       cx="-307.14288"
       cy="782.36218"
       fx="-307.14288"
       fy="782.36218"
       r="63" />
    <inkscape:path-effect
       effect="spiro"
       id="path-effect10080-4"
       is_visible="true" />
    <inkscape:path-effect
       is_visible="true"
       id="path-effect3075-1"
       effect="spiro" />
    <inkscape:path-effect
       effect="spiro"
       id="path-effect3101-7"
       is_visible="true" />
    <linearGradient
       inkscape:collect="always"
       xlink:href="#grad1-7-7"
       id="linearGradient3085-8-8"
       gradientUnits="userSpaceOnUse"
       gradientTransform="matrix(0.77469594,0,0,0.30982404,152.68996,-13.619206)"
       x1="78.877235"
       y1="178.07356"
       x2="301.40585"
       y2="178.07356" />
    <linearGradient
       id="grad1-7-7"
       x1="78.877235"
       y1="178.07356"
       x2="301.40585"
       y2="178.07356"
       gradientTransform="scale(1.577772,0.63380513)"
       gradientUnits="userSpaceOnUse">
      <stop
         offset="0%"
         style="stop-color:#da0;"
         id="stop16-4-4" />
      <stop
         offset="40%"
         style="stop-color:#fd0;"
         id="stop18-0-0" />
      <stop
         offset="60%"
         style="stop-color:#fd0;"
         id="stop20-9-9" />
      <stop
         offset="100%"
         style="stop-color:#da0;"
         id="stop22-4-4" />
    </linearGradient>
    <linearGradient
       inkscape:collect="always"
       xlink:href="#grad1-7-7"
       id="linearGradient3081-8-8"
       gradientUnits="userSpaceOnUse"
       gradientTransform="matrix(0.77469594,0,0,0.30982404,-27.310046,-13.619206)"
       x1="78.877235"
       y1="178.07356"
       x2="301.40585"
       y2="178.07356" />
    <linearGradient
       id="linearGradient3093"
       x1="78.877235"
       y1="178.07356"
       x2="301.40585"
       y2="178.07356"
       gradientTransform="scale(1.577772,0.63380513)"
       gradientUnits="userSpaceOnUse">
      <stop
         offset="0%"
         style="stop-color:#da0;"
         id="stop3095" />
      <stop
         offset="40%"
         style="stop-color:#fd0;"
         id="stop3097" />
      <stop
         offset="60%"
         style="stop-color:#fd0;"
         id="stop3099" />
      <stop
         offset="100%"
         style="stop-color:#da0;"
         id="stop3101" />
    </linearGradient>
    <linearGradient
       y2="178.07356"
       x2="301.40585"
       y1="178.07356"
       x1="78.877235"
       gradientTransform="matrix(0.77469594,0,0,0.30982404,332.68995,-13.619206)"
       gradientUnits="userSpaceOnUse"
       id="linearGradient3128-1"
       xlink:href="#grad1-7-7"
       inkscape:collect="always" />
    <linearGradient
       id="linearGradient3104"
       x1="78.877235"
       y1="178.07356"
       x2="301.40585"
       y2="178.07356"
       gradientTransform="scale(1.577772,0.63380513)"
       gradientUnits="userSpaceOnUse">
      <stop
         offset="0%"
         style="stop-color:#da0;"
         id="stop3106" />
      <stop
         offset="40%"
         style="stop-color:#fd0;"
         id="stop3108" />
      <stop
         offset="60%"
         style="stop-color:#fd0;"
         id="stop3110" />
      <stop
         offset="100%"
         style="stop-color:#da0;"
         id="stop3112" />
    </linearGradient>
    <inkscape:path-effect
       is_visible="true"
       id="path-effect3061"
       effect="spiro" />
  </defs>
  <g
     inkscape:groupmode="layer"
     id="layer2"
     inkscape:label="Elements"
     style="display:inline">
    <path
       inkscape:connector-curvature="0"
       d="m 2,2 v 257 c 0,286 298,398 298,398 0,0 298,-112 298,-398 V 2 z"
       id="path13"
       style="fill:#774411;fill-opacity:1;stroke:none;display:inline" />
    <path
       inkscape:connector-curvature="0"
       style="fill:#ffffff;display:inline"
       d="m 496.59375,2 -9.5,8.75 C 481.86233,15.562501 476.63031,21.305374 475.5,23.5 c -4.49413,8.725536 -1.25027,21.023449 6.25,23.78125 2.98789,1.098625 11.13864,0.680583 14.5625,-0.75 1.92661,-0.804986 7.22606,-5.19249 11.78125,-9.75 7.29743,-7.301667 9.02088,-9.746492 14.46875,-20.71875 C 525.96304,9.2136565 528.75,3.2511593 528.75,2.8125 528.75,2.3738405 521.49805,1.9999951 512.65625,2 l -16.0625,0 z m 56.0625,49.46875 c -5.38957,0.234413 -10.90625,4.69888 -10.90625,9.8125 0,4.078112 1.23344,5.32709 6.5625,6.625 4.34931,1.059284 9.07139,0.657791 11.03125,-0.96875 3.77897,-3.136266 1.72806,-13.084881 -3.0625,-14.90625 -1.16069,-0.441294 -2.38125,-0.616595 -3.625,-0.5625 z m 18.125,14.625 c -1.00738,0.01978 -2.08748,0.538714 -3.21875,1.5625 -1.78208,1.612766 -2.49208,6.35167 -1.15625,7.6875 1.65958,1.65958 6.35935,0.564799 7.9375,-1.84375 1.51741,-2.315873 1.51741,-2.684128 0,-5 -1.06907,-1.6316 -2.26729,-2.431677 -3.5625,-2.40625 z m -34.875,6.1875 c -3.02828,0.06148 -6.11751,1.76562 -10.0625,5.3125 -5.77412,5.191422 -10.50138,13.967134 -12.21875,22.625 -0.94365,4.75729 -0.8554,6.51237 0.5,10.65625 1.78581,5.4598 1.49992,6.93578 -2.28125,12.125 -8.49252,11.65502 -11.04238,13.83438 -22.90625,19.625 -10.17407,4.96587 -12.66952,6.70178 -20.375,14.3125 -9.30332,9.18891 -11.8125,13.48767 -11.8125,20.0625 0,6.47622 2.16271,10.38749 7.125,12.84375 5.37355,2.65982 11.02514,2.71535 16.59375,0.1875 2.56276,-1.16336 8.67218,-6.37471 15.5,-13.25 7.80644,-7.86075 13.0164,-12.22868 16.9375,-14.1875 3.11342,-1.55533 8.32656,-4.9814 11.59375,-7.625 3.26718,-2.64358 9.72434,-7.31746 14.34375,-10.375 18.11102,-11.98752 18.65503,-12.43878 22.375,-18.5625 3.60608,-5.93625 3.66126,-6.08804 2.53125,-11.53125 -0.86891,-4.18552 -0.86316,-6.38364 0.0312,-9.09375 1.49382,-4.52631 0.43127,-13.554292 -2.1875,-18.6875 -1.56554,-3.068714 -3.34467,-4.474671 -9.15625,-7.25 -3.96371,-1.892875 -8.89593,-4.395834 -10.96875,-5.5625 -1.9637,-1.105257 -3.74553,-1.661887 -5.5625,-1.625 z M 573.875,79.0625 c -1.19883,-0.0024 -2.49141,0.509007 -3.90625,1.5 -2.14047,1.49924 -3.09619,6.247568 -1.5625,7.78125 1.39001,1.390008 6.42421,0.57579 8.34375,-1.34375 2.40772,-2.407719 2.54426,-4.330742 0.4375,-6.4375 -0.99591,-0.995914 -2.11367,-1.49755 -3.3125,-1.5 z M 411.75,82.125 c -3.41188,0.227098 -7.2524,5.027611 -5.53125,7.8125 0.98558,1.594688 4.62498,1.272814 6.6875,-0.59375 2.24027,-2.027417 2.41543,-6.181043 0.28125,-7 -0.45156,-0.173278 -0.95009,-0.251193 -1.4375,-0.21875 z m 13.59375,0.90625 c -1.53003,0.06279 -3.07862,0.82743 -4.03125,2.1875 -4.24567,6.061559 1.30684,11.911911 6.4375,6.78125 2.23745,-2.237448 2.60243,-5.991318 0.78125,-7.8125 -0.83532,-0.835319 -1.99748,-1.205085 -3.1875,-1.15625 z M 437.375,86 c -3.3856,0 -6.34393,6.968571 -3.96875,9.34375 1.17231,1.172319 4.83204,0.699802 7.125,-0.90625 C 444.61251,91.578873 442.51947,86 437.375,86 z m -37.90625,1.09375 c -1.20098,-0.04777 -2.53968,0.698212 -4.34375,2.25 -1.84454,1.586613 -2.50915,2.898538 -2.0625,4.0625 0.96245,2.508107 7.51236,1.789986 9.375,-1.03125 1.22919,-1.861791 1.19148,-2.339788 -0.21875,-3.75 -0.96429,-0.964294 -1.81591,-1.494099 -2.75,-1.53125 z m 176.0625,6.96875 c -3.0167,0.09277 -5.83155,3.798038 -4.375,7.59375 0.86602,2.25682 4.60596,1.22814 6.9375,-1.90625 1.92702,-2.590582 1.95857,-2.885189 0.375,-4.46875 -0.90251,-0.902511 -1.93193,-1.249673 -2.9375,-1.21875 z M 410.25,97.125 c -21.88213,0.285056 -22.94007,0.382619 -27,2.8125 -6.36711,3.81074 -7.2426,4.80552 -17.15625,19.5625 -5.17282,7.70001 -11.19994,16.25 -13.40625,19 -2.20629,2.75 -5.45063,7.67949 -7.21875,10.96875 -2.1193,3.94258 -7.22381,9.98575 -14.9375,17.71875 -12.74315,12.77511 -14.48008,15.961 -13.5,24.65625 1.20118,10.65684 11.87873,16.06761 22.21875,11.25 5.10806,-2.37996 14.23358,-10.64074 19.15625,-17.3125 2.10458,-2.85235 6.09374,-9.6901 8.84375,-15.21875 4.49104,-9.02884 5.75207,-10.69166 12.46875,-16.28125 9.57061,-7.96464 11.91679,-8.96917 17.03125,-7.28125 5.68656,1.87674 14.79956,0.74826 22.25,-2.75 7.8257,-3.67446 12.05228,-7.23645 15.375,-12.90625 3.09231,-5.27663 2.77984,-8.43474 -1.53125,-15.28125 -1.5829,-2.51383 -3.47423,-6.31165 -4.21875,-8.4375 -2.37056,-6.7688 -9.12715,-10.62047 -18.375,-10.5 z m 36.6875,2.75 c -4.06904,0.23618 -6.73264,3.55729 -6.5625,9.09375 0.31821,10.35522 6.67219,14.49601 12.65625,8.25 5.66813,-5.91625 5.54697,-12.98953 -0.28125,-15.9375 -1.77863,-0.89965 -3.45821,-1.342901 -4.96875,-1.40625 -0.28323,-0.01188 -0.57248,-0.01574 -0.84375,0 z m 123.375,6.625 c -2.34578,-1e-5 -3.06993,0.55766 -3.65625,2.75 -1.65333,6.18202 2.40669,9.27196 5.65625,4.3125 0.8801,-1.34321 1.42992,-3.48071 1.25,-4.75 -0.25664,-1.81049 -0.95293,-2.31251 -3.25,-2.3125 z M 397.0625,208 c -0.35387,-0.0104 -0.70677,0.005 -1.0625,0.0312 -6.16603,0.44794 -12.19992,6.12835 -10.8125,11.65625 1.16435,4.63911 12.56748,7.09542 17.34375,3.75 3.8045,-2.66478 2.14833,-13.08871 -2.34375,-14.8125 -1.0119,-0.38831 -2.06338,-0.59389 -3.125,-0.625 z m 17.3125,14.5625 c -0.61054,-0.0276 -1.22326,0.23764 -2.09375,0.8125 -2.88758,1.90694 -4.2318,6.08878 -2.59375,8.0625 1.64523,1.98238 4.01636,1.98044 6.84375,0 2.85324,-1.99849 2.84364,-5.88323 0,-7.875 -0.93737,-0.65657 -1.54571,-0.97241 -2.15625,-1 z m -35.65625,6.53125 c -3.7809,0.13605 -7.18327,2.29452 -11.0625,6.59375 -9.6661,10.71264 -12.13548,20.01532 -9.375,35.375 0.58465,3.25306 0.0877,4.32425 -5.53125,11.78125 -6.40831,8.50446 -11.3914,12.58789 -18.90625,15.53125 -15.73144,6.16157 -34.0132,24.83162 -34.09375,34.84375 -0.0331,4.11317 2.85936,10.47882 5.5625,12.25 5.33708,3.49699 13.76871,3.88567 19.65625,0.90625 1.49334,-0.75571 7.79334,-6.44171 14,-12.625 6.99306,-6.96676 13.37296,-12.34822 16.78125,-14.15625 3.025,-1.6047 9.03239,-5.6547 13.375,-9 4.34261,-3.34531 13.34159,-9.69375 19.96875,-14.09375 10.25185,-6.80657 12.53499,-8.82048 15.34375,-13.5 3.12753,-5.21063 3.26745,-5.86828 2.71875,-12.5 -0.34163,-4.12907 -0.14349,-8.17084 0.5,-9.84375 1.54517,-4.01706 -0.24315,-14.03344 -3.34375,-18.71875 -1.65203,-2.49639 -3.75483,-4.15896 -6.28125,-4.96875 -2.08863,-0.66948 -6.3093,-2.73695 -9.40625,-4.59375 -3.78584,-2.26984 -6.96555,-3.38707 -9.90625,-3.28125 z M 418.09375,236 c -3.11169,0.074 -7.34375,2.56357 -7.34375,5.4375 0,1.62762 2.65773,4.5625 4.125,4.5625 0.53802,0 2.28356,-0.69212 3.90625,-1.53125 2.88711,-1.49297 3.60544,-3.58709 2.34375,-6.875 -0.43894,-1.14386 -1.61684,-1.62739 -3.03125,-1.59375 z m -162.75,2.53125 c -3.41188,0.2271 -7.2524,5.02761 -5.53125,7.8125 0.98558,1.59469 4.62498,1.27281 6.6875,-0.59375 2.24027,-2.02742 2.41543,-6.18104 0.28125,-7 -0.45156,-0.17328 -0.95009,-0.25119 -1.4375,-0.21875 z m 13.59375,0.90625 c -1.53003,0.0628 -3.07862,0.82743 -4.03125,2.1875 -4.24567,6.06156 1.30684,11.91191 6.4375,6.78125 2.23745,-2.23745 2.63368,-5.99132 0.8125,-7.8125 -0.83532,-0.83532 -2.02873,-1.20509 -3.21875,-1.15625 z m 12.03125,2.96875 c -3.3856,0 -6.34393,6.96858 -3.96875,9.34375 1.17231,1.17232 4.83204,0.6998 7.125,-0.90625 4.08126,-2.85863 1.98822,-8.4375 -3.15625,-8.4375 z M 243.0625,243.5 c -1.20098,-0.0478 -2.53968,0.69821 -4.34375,2.25 -1.84454,1.58662 -2.50915,2.89853 -2.0625,4.0625 0.96245,2.5081 7.51236,1.78999 9.375,-1.03125 1.22919,-1.86179 1.19148,-2.33979 -0.21875,-3.75 -0.96429,-0.96429 -1.81591,-1.4941 -2.75,-1.53125 z m 176.15625,7.5 c -2.7612,-1e-5 -3.75463,0.52721 -4.625,2.4375 -0.61051,1.33992 -0.83005,3.13994 -0.5,4 0.78637,2.04926 4.50242,1.99681 6.8125,-0.0937 1.00582,-0.91023 1.84376,-2.71024 1.84375,-4 0,-2.01606 -0.50378,-2.34376 -3.53125,-2.34375 z m -165.375,2.53125 c -21.88213,0.28506 -22.94007,0.38262 -27,2.8125 -6.36711,3.81074 -7.2426,4.80552 -17.15625,19.5625 -5.17282,7.70001 -11.19994,16.25 -13.40625,19 -2.20629,2.75 -5.45063,7.67949 -7.21875,10.96875 -2.1193,3.94258 -7.19256,9.98575 -14.90625,17.71875 -12.74315,12.77511 -14.51133,15.961 -13.53125,24.65625 1.20118,10.65684 11.87873,16.06761 22.21875,11.25 5.10806,-2.37996 14.26483,-10.64074 19.1875,-17.3125 2.10458,-2.85235 6.06249,-9.6901 8.8125,-15.21875 4.49104,-9.02884 5.75207,-10.69166 12.46875,-16.28125 9.57061,-7.96464 11.91679,-8.96917 17.03125,-7.28125 5.68656,1.87674 14.79956,0.74826 22.25,-2.75 7.8257,-3.67446 12.05228,-7.23645 15.375,-12.90625 3.09231,-5.27663 2.77984,-8.43474 -1.53125,-15.28125 -1.5829,-2.51383 -3.47423,-6.31165 -4.21875,-8.4375 -2.37056,-6.7688 -9.12715,-10.62047 -18.375,-10.5 z m 36.6875,2.75 c -4.0656,0.23617 -6.70139,3.55729 -6.53125,9.09375 0.31821,10.35522 6.64094,14.49601 12.625,8.25 5.66813,-5.91625 5.54697,-12.98953 -0.28125,-15.9375 -1.77863,-0.89965 -3.45821,-1.3429 -4.96875,-1.40625 -0.28323,-0.0119 -0.57271,-0.0157 -0.84375,0 z M 413.65625,262 c -3.35327,0 -5.34329,7.1567 -2.71875,9.78125 1.609,1.60899 4.96947,-0.60401 6.21875,-4.09375 1.0743,-3.00095 -0.57653,-5.68749 -3.5,-5.6875 z m -173,102.40625 c -0.3568,-0.0104 -0.70677,0.005 -1.0625,0.0312 -6.16603,0.44794 -12.19992,6.0971 -10.8125,11.625 1.16435,4.63911 12.56748,7.12667 17.34375,3.78125 3.8045,-2.66478 2.17958,-13.08871 -2.3125,-14.8125 -1.01191,-0.38831 -2.08585,-0.59389 -3.15625,-0.625 z m 17.3125,14.5625 c -0.61054,-0.0276 -1.22326,0.23764 -2.09375,0.8125 -2.88758,1.90694 -4.2318,6.08878 -2.59375,8.0625 1.64523,1.98238 4.01636,1.98044 6.84375,0 2.85324,-1.99849 2.84364,-5.88323 0,-7.875 -0.93737,-0.65657 -1.54571,-0.97241 -2.15625,-1 z M 222.3125,385.5 c -3.7809,0.13605 -7.18327,2.29452 -11.0625,6.59375 -9.6661,10.71264 -12.13548,20.01532 -9.375,35.375 0.58465,3.25306 0.0877,4.293 -5.53125,11.75 -6.40831,8.50446 -11.3914,12.61914 -18.90625,15.5625 -15.73144,6.16157 -33.98195,24.83162 -34.0625,34.84375 -0.0331,4.11317 2.82811,10.44757 5.53125,12.21875 5.33708,3.49699 13.76871,3.88567 19.65625,0.90625 1.49334,-0.75571 7.79334,-6.41046 14,-12.59375 6.99306,-6.96676 13.37296,-12.34822 16.78125,-14.15625 3.025,-1.6047 9.06364,-5.6547 13.40625,-9 4.34261,-3.34531 13.31034,-9.69375 19.9375,-14.09375 10.25185,-6.80657 12.53499,-8.82048 15.34375,-13.5 3.12753,-5.21063 3.26745,-5.86828 2.71875,-12.5 -0.34163,-4.12907 -0.11224,-8.17084 0.53125,-9.84375 1.54517,-4.01706 -0.2744,-14.03344 -3.375,-18.71875 -1.65203,-2.49639 -3.75483,-4.15896 -6.28125,-4.96875 -2.08863,-0.66948 -6.3093,-2.73695 -9.40625,-4.59375 -3.78584,-2.26984 -6.96555,-3.38707 -9.90625,-3.28125 z m 39.375,6.90625 c -3.11169,0.074 -7.34375,2.56357 -7.34375,5.4375 0,1.62762 2.65773,4.5625 4.125,4.5625 0.53802,0 2.31481,-0.69212 3.9375,-1.53125 2.88711,-1.49297 3.60544,-3.58709 2.34375,-6.875 -0.43894,-1.14386 -1.64809,-1.62739 -3.0625,-1.59375 z m -162.625,2.28125 c -0.451624,0.074 -1.037887,0.34161 -1.8125,0.75 -1.331447,0.70198 -2.752174,1.76984 -3.15625,2.375 -1.174582,1.75911 -0.863061,5.38749 0.5,5.9375 1.960412,0.79104 2.181537,0.74577 4.40625,-0.8125 2.65942,-1.86272 3.48437,-4.9668 1.90625,-7.125 -0.65243,-0.89224 -1.091043,-1.24835 -1.84375,-1.125 z m 13.3125,1.1875 c -0.76822,0.0417 -1.59512,0.33383 -2.46875,0.90625 -2.7771,1.81962 -4.10448,6.24783 -2.46875,8.21875 1.73913,2.09553 6.64678,1.76368 7.875,-0.53125 2.39003,-4.46582 0.39145,-8.77439 -2.9375,-8.59375 z m 13,3.53125 c -2.86265,0 -6.03125,2.96971 -6.03125,5.65625 -1e-5,1.92687 3.13023,4.51582 4.71875,3.90625 0.79906,-0.30663 1.85142,-0.5625 2.34375,-0.5625 0.49234,0 1.62326,-1.09935 2.5,-2.4375 2.2029,-3.36205 0.47707,-6.5625 -3.53125,-6.5625 z m -39.5625,1.1875 c -1.547878,0.0646 -3.158853,0.88295 -4.40625,2.46875 -2.057256,2.61537 -2.093834,2.85136 -0.4375,4.0625 2.462131,1.80035 4.753781,1.5974 7.5,-0.65625 1.917999,-1.57399 2.175627,-2.27733 1.28125,-3.75 -0.908417,-1.49577 -2.389622,-2.18964 -3.9375,-2.125 z m 177,6.8125 c -2.7612,-10e-6 -3.75463,0.52721 -4.625,2.4375 -0.61051,1.33992 -0.83005,3.13994 -0.5,4 0.78637,2.04926 4.50242,1.99681 6.8125,-0.0937 1.00582,-0.91023 1.84376,-2.71024 1.84375,-4 0,-2.01606 -0.50378,-2.34376 -3.53125,-2.34375 z m -182.125,3.03125 c -5.391268,0.0769 -7.210889,0.60191 -10.71875,2.5625 -4.997491,2.79314 -9.373704,7.69928 -14.59375,16.40625 -1.290933,2.15326 -4.316073,6.53326 -7.5625,11.0625 5.359829,9.82384 11.069528,19.28294 17.0625,28.375 1.416169,-1.20112 2.994533,-2.45662 4.96875,-3.96875 7.259526,-5.56035 7.624909,-5.72266 11.75,-4.9375 7.350884,1.39914 15.89236,0.81975 22,-1.5 10.62459,-4.03533 19.74999,-13.15116 19.75,-19.75 0,-1.64461 -2.39118,-7.69079 -5.3125,-13.40625 -6.46364,-12.64587 -9.50196,-14.90402 -19.8125,-14.84375 -3.506904,0.0205 -10.259259,0.0187 -15,0 -0.931676,-0.004 -1.761069,-0.011 -2.53125,0 z M 135,413.25 c -2.53969,-0.0454 -4.94887,0.74046 -6.09375,2.375 -3.9155,5.59016 -0.0827,17.78124 5.59375,17.78125 1.14328,0 3.83345,-1.73972 5.96875,-3.875 4.8117,-4.81172 5.30745,-9.7863 1.40625,-13.6875 -1.68509,-1.6851 -4.33531,-2.54838 -6.875,-2.59375 z m 122.25,5.15625 c -3.35327,0 -5.34329,7.1567 -2.71875,9.78125 1.609,1.60899 4.96947,-0.60401 6.21875,-4.09375 1.0743,-3.00095 -0.57653,-5.68749 -3.5,-5.6875 z"
       id="path3043" />
  </g>
  <g
     inkscape:groupmode="layer"
     id="layer1"
     inkscape:label="Cover"
     style="display:inline"
     sodipodi:insensitive="true">
    <path
       d="m 2,2 v 257 c 0,286 298,398 298,398 0,0 298,-112 298,-398 V 2 z"
       id="shine"
       inkscape:connector-curvature="0"
       style="fill:url(#radialGradient3074);stroke:#000000;stroke-width:3" />
  </g>
</svg>
