<?xml version="1.0" encoding="UTF-8" standalone="no"?>
<svg
   xmlns:dc="http://purl.org/dc/elements/1.1/"
   xmlns:cc="http://creativecommons.org/ns#"
   xmlns:rdf="http://www.w3.org/1999/02/22-rdf-syntax-ns#"
   xmlns:svg="http://www.w3.org/2000/svg"
   xmlns="http://www.w3.org/2000/svg"
   xmlns:xlink="http://www.w3.org/1999/xlink"
   xmlns:sodipodi="http://sodipodi.sourceforge.net/DTD/sodipodi-0.dtd"
   xmlns:inkscape="http://www.inkscape.org/namespaces/inkscape"
   width="600"
   height="660"
   id="svg2"
   version="1.1"
   inkscape:version="0.48.2 r9819"
   sodipodi:docname="House_Blount.svg">
  <metadata
     id="metadata24">
    <rdf:RDF>
      <cc:Work
         rdf:about="">
        <dc:format>image/svg+xml</dc:format>
        <dc:type
           rdf:resource="http://purl.org/dc/dcmitype/StillImage" />
        <dc:title></dc:title>
      </cc:Work>
    </rdf:RDF>
  </metadata>
  <sodipodi:namedview
     pagecolor="#ffffff"
     bordercolor="#666666"
     borderopacity="1"
     objecttolerance="10"
     gridtolerance="10"
     guidetolerance="10"
     inkscape:pageopacity="0"
     inkscape:pageshadow="2"
     inkscape:window-width="1366"
     inkscape:window-height="715"
     id="namedview22"
     showgrid="false"
     inkscape:zoom="0.71515155"
     inkscape:cx="469.09182"
     inkscape:cy="283.68414"
     inkscape:window-x="-8"
     inkscape:window-y="-8"
     inkscape:window-maximized="1"
     inkscape:current-layer="layer2" />
  <defs
     id="defs4">
    <inkscape:path-effect
       is_visible="true"
       id="path-effect3136"
       effect="spiro" />
    <inkscape:path-effect
       effect="spiro"
       id="path-effect3132"
       is_visible="true" />
    <inkscape:path-effect
       effect="spiro"
       id="path-effect3101"
       is_visible="true" />
    <inkscape:path-effect
       is_visible="true"
       id="path-effect3085"
       effect="spiro" />
    <inkscape:path-effect
       is_visible="true"
       id="path-effect3083"
       effect="spiro" />
    <inkscape:path-effect
       is_visible="true"
       id="path-effect3081"
       effect="spiro" />
    <inkscape:path-effect
       is_visible="true"
       id="path-effect3079"
       effect="spiro" />
    <inkscape:path-effect
       is_visible="true"
       id="path-effect3077"
       effect="spiro" />
    <inkscape:path-effect
       is_visible="true"
       id="path-effect3075"
       effect="spiro" />
    <inkscape:path-effect
       effect="spiro"
       id="path-effect3049"
       is_visible="true" />
    <inkscape:path-effect
       is_visible="true"
       id="path-effect3045"
       effect="spiro" />
    <inkscape:path-effect
       effect="spiro"
       id="path-effect3041"
       is_visible="true" />
    <radialGradient
       id="rg"
       gradientUnits="userSpaceOnUse"
       cx="220"
       cy="220"
       r="405">
      <stop
         style="stop-color:#fff;stop-opacity:.3"
         offset="0"
         id="stop7" />
      <stop
         style="stop-color:#fff;stop-opacity:.2"
         offset=".2"
         id="stop9" />
      <stop
         style="stop-color:#666;stop-opacity:.1"
         offset=".6"
         id="stop11" />
      <stop
         style="stop-color:#000;stop-opacity:.13"
         offset="1"
         id="stop13" />
    </radialGradient>
    <path
       id="shield"
       d="m2,2v257c0,286 298,398 298,398c0,0 298-112 298-398V2z" />
    <radialGradient
       inkscape:collect="always"
       xlink:href="#rg-7"
       id="radialGradient3055-1"
       gradientUnits="userSpaceOnUse"
       cx="220"
       cy="220"
       r="405" />
    <radialGradient
       id="rg-7"
       gradientUnits="userSpaceOnUse"
       cx="220"
       cy="220"
       r="405">
      <stop
         style="stop-color:#fff;stop-opacity:.3"
         offset="0"
         id="stop7-4" />
      <stop
         style="stop-color:#fff;stop-opacity:.2"
         offset=".2"
         id="stop9-0" />
      <stop
         style="stop-color:#666;stop-opacity:.1"
         offset=".6"
         id="stop11-9" />
      <stop
         style="stop-color:#000;stop-opacity:.13"
         offset="1"
         id="stop13-4" />
    </radialGradient>
    <radialGradient
       r="405"
       cy="220"
       cx="220"
       gradientUnits="userSpaceOnUse"
       id="radialGradient3074"
       xlink:href="#rg-7"
       inkscape:collect="always" />
    <inkscape:path-effect
       is_visible="true"
       id="path-effect10120-1"
       effect="spiro" />
    <inkscape:path-effect
       effect="spiro"
       id="path-effect10118-3"
       is_visible="true" />
    <inkscape:path-effect
       effect="spiro"
       id="path-effect10116-9"
       is_visible="true" />
    <inkscape:path-effect
       effect="spiro"
       id="path-effect10114-7"
       is_visible="true" />
    <inkscape:path-effect
       effect="spiro"
       id="path-effect10112-7"
       is_visible="true" />
    <inkscape:path-effect
       effect="spiro"
       id="path-effect10110-2"
       is_visible="true" />
    <linearGradient
       inkscape:collect="always"
       xlink:href="#linearGradient4719-5"
       id="linearGradient4039"
       gradientUnits="userSpaceOnUse"
       gradientTransform="matrix(2.3257341,0,0,2.2943177,447.69485,-1820.2799)"
       x1="-145.25935"
       y1="984.24286"
       x2="-64.14286"
       y2="984.14789" />
    <linearGradient
       inkscape:collect="always"
       id="linearGradient4719-5">
      <stop
         style="stop-color:#666666;stop-opacity:1;"
         offset="0"
         id="stop4721-5" />
      <stop
         id="stop4809-1"
         offset="0.39344174"
         style="stop-color:#666666;stop-opacity:0.74901961;" />
      <stop
         style="stop-color:#666666;stop-opacity:0;"
         offset="1"
         id="stop4723-7" />
    </linearGradient>
    <radialGradient
       inkscape:collect="always"
       xlink:href="#linearGradient4801-8"
       id="radialGradient4041"
       gradientUnits="userSpaceOnUse"
       gradientTransform="matrix(-0.72153181,1.2650715,-2.2729984,-1.2616144,1712.0113,1733.7841)"
       cx="-307.14288"
       cy="782.36218"
       fx="-307.14288"
       fy="782.36218"
       r="63" />
    <linearGradient
       inkscape:collect="always"
       id="linearGradient4801-8">
      <stop
         style="stop-color:#000000;stop-opacity:1;"
         offset="0"
         id="stop4803-2" />
      <stop
         style="stop-color:#000000;stop-opacity:0;"
         offset="1"
         id="stop4805-4" />
    </linearGradient>
    <inkscape:path-effect
       effect="spiro"
       id="path-effect10108-4"
       is_visible="true" />
    <linearGradient
       inkscape:collect="always"
       xlink:href="#linearGradient4719-5"
       id="linearGradient4044"
       gradientUnits="userSpaceOnUse"
       gradientTransform="matrix(-2.4055369,0,0,-1.6485021,142.06168,1726.5307)"
       x1="-145.25935"
       y1="984.24286"
       x2="-64.14286"
       y2="984.14789" />
    <radialGradient
       inkscape:collect="always"
       xlink:href="#linearGradient4801-8"
       id="radialGradient4046"
       gradientUnits="userSpaceOnUse"
       gradientTransform="matrix(0.74628962,-0.90897301,2.3509914,0.90648896,-1165.637,-827.11785)"
       cx="-307.14288"
       cy="782.36218"
       fx="-307.14288"
       fy="782.36218"
       r="63" />
    <inkscape:path-effect
       effect="spiro"
       id="path-effect10102-7"
       is_visible="true" />
    <linearGradient
       inkscape:collect="always"
       xlink:href="#linearGradient4719-5"
       id="linearGradient4049"
       gradientUnits="userSpaceOnUse"
       gradientTransform="matrix(2.334989,0,0,-1.6146975,449.44065,1692.189)"
       x1="-145.25935"
       y1="984.24286"
       x2="-64.14286"
       y2="984.14789" />
    <radialGradient
       inkscape:collect="always"
       xlink:href="#linearGradient4801-8"
       id="radialGradient4051"
       gradientUnits="userSpaceOnUse"
       gradientTransform="matrix(-0.72440295,-0.89033332,-2.2820431,0.88790031,1718.7881,-809.09364)"
       cx="-307.14288"
       cy="782.36218"
       fx="-307.14288"
       fy="782.36218"
       r="63" />
    <inkscape:path-effect
       is_visible="true"
       id="path-effect10096-8"
       effect="spiro" />
    <linearGradient
       inkscape:collect="always"
       xlink:href="#linearGradient4719-5"
       id="linearGradient4054"
       gradientUnits="userSpaceOnUse"
       gradientTransform="matrix(-2.409599,0,0,2.2818507,139.61083,-1810.8163)"
       x1="-145.25935"
       y1="984.24286"
       x2="-64.14286"
       y2="984.14789" />
    <radialGradient
       inkscape:collect="always"
       xlink:href="#linearGradient4801-8"
       id="radialGradient4056"
       gradientUnits="userSpaceOnUse"
       gradientTransform="matrix(0.74754985,1.2581972,2.3549614,-1.2547588,-1170.296,1723.935)"
       cx="-307.14288"
       cy="782.36218"
       fx="-307.14288"
       fy="782.36218"
       r="63" />
    <inkscape:path-effect
       is_visible="true"
       id="path-effect10090-3"
       effect="spiro" />
    <inkscape:path-effect
       effect="spiro"
       id="path-effect10084-1"
       is_visible="true" />
    <inkscape:path-effect
       effect="spiro"
       id="path-effect10082-1"
       is_visible="true" />
    <radialGradient
       inkscape:collect="always"
       xlink:href="#linearGradient4801-8"
       id="radialGradient4061"
       gradientUnits="userSpaceOnUse"
       gradientTransform="matrix(-0.76516322,1.2901254,-2.4104477,-1.2865998,1806.8444,1757.4704)"
       cx="-307.14288"
       cy="782.36218"
       fx="-307.14288"
       fy="782.36218"
       r="63" />
    <inkscape:path-effect
       effect="spiro"
       id="path-effect10080-4"
       is_visible="true" />
    <inkscape:path-effect
       is_visible="true"
       id="path-effect3075-1"
       effect="spiro" />
    <inkscape:path-effect
       effect="spiro"
       id="path-effect3101-7"
       is_visible="true" />
    <linearGradient
       inkscape:collect="always"
       xlink:href="#grad1-7-7"
       id="linearGradient3085-8-8"
       gradientUnits="userSpaceOnUse"
       gradientTransform="matrix(0.77469594,0,0,0.30982404,152.68996,-13.619206)"
       x1="78.877235"
       y1="178.07356"
       x2="301.40585"
       y2="178.07356" />
    <linearGradient
       id="grad1-7-7"
       x1="78.877235"
       y1="178.07356"
       x2="301.40585"
       y2="178.07356"
       gradientTransform="scale(1.577772,0.63380513)"
       gradientUnits="userSpaceOnUse">
      <stop
         offset="0%"
         style="stop-color:#da0;"
         id="stop16-4-4" />
      <stop
         offset="40%"
         style="stop-color:#fd0;"
         id="stop18-0-0" />
      <stop
         offset="60%"
         style="stop-color:#fd0;"
         id="stop20-9-9" />
      <stop
         offset="100%"
         style="stop-color:#da0;"
         id="stop22-4-4" />
    </linearGradient>
    <linearGradient
       inkscape:collect="always"
       xlink:href="#grad1-7-7"
       id="linearGradient3081-8-8"
       gradientUnits="userSpaceOnUse"
       gradientTransform="matrix(0.77469594,0,0,0.30982404,-27.310046,-13.619206)"
       x1="78.877235"
       y1="178.07356"
       x2="301.40585"
       y2="178.07356" />
    <linearGradient
       id="linearGradient3093"
       x1="78.877235"
       y1="178.07356"
       x2="301.40585"
       y2="178.07356"
       gradientTransform="scale(1.577772,0.63380513)"
       gradientUnits="userSpaceOnUse">
      <stop
         offset="0%"
         style="stop-color:#da0;"
         id="stop3095" />
      <stop
         offset="40%"
         style="stop-color:#fd0;"
         id="stop3097" />
      <stop
         offset="60%"
         style="stop-color:#fd0;"
         id="stop3099" />
      <stop
         offset="100%"
         style="stop-color:#da0;"
         id="stop3101" />
    </linearGradient>
    <linearGradient
       y2="178.07356"
       x2="301.40585"
       y1="178.07356"
       x1="78.877235"
       gradientTransform="matrix(0.77469594,0,0,0.30982404,332.68995,-13.619206)"
       gradientUnits="userSpaceOnUse"
       id="linearGradient3128-1"
       xlink:href="#grad1-7-7"
       inkscape:collect="always" />
    <linearGradient
       id="linearGradient3104"
       x1="78.877235"
       y1="178.07356"
       x2="301.40585"
       y2="178.07356"
       gradientTransform="scale(1.577772,0.63380513)"
       gradientUnits="userSpaceOnUse">
      <stop
         offset="0%"
         style="stop-color:#da0;"
         id="stop3106" />
      <stop
         offset="40%"
         style="stop-color:#fd0;"
         id="stop3108" />
      <stop
         offset="60%"
         style="stop-color:#fd0;"
         id="stop3110" />
      <stop
         offset="100%"
         style="stop-color:#da0;"
         id="stop3112" />
    </linearGradient>
    <inkscape:path-effect
       is_visible="true"
       id="path-effect3061"
       effect="spiro" />
  </defs>
  <g
     inkscape:groupmode="layer"
     id="layer2"
     inkscape:label="Elements"
     style="display:inline">
    <path
       inkscape:connector-curvature="0"
       style="fill:#aa00aa;fill-opacity:1;stroke:none;display:inline"
       id="path7212"
       d="m 2,2 0,257 c 0,286 298,398 298,398 0,0 298,-112 298,-398 L 598,2 z" />
    <path
       style="fill:#ffffff;stroke:none;stroke-width:1px;stroke-linecap:butt;stroke-linejoin:miter;stroke-opacity:1"
       d="M 199.5 2 L 199.5 602.28125 C 254.74711 639.97646 300 657 300 657 C 300 657 345.25289 639.97646 400.5 602.28125 L 400.5 2 L 199.5 2 z "
       id="path3059" />
    <g
       id="g5897"
       transform="matrix(0.3206513,0,0,0.62485866,16.582952,168.44941)">
      <g
         transform="matrix(0.90426907,-0.42696191,0.42696191,0.90426907,488.12411,-203.9939)"
         id="g5807"
         style="fill:#fcef3c;fill-opacity:1;stroke:#000000;stroke-width:6.70214891;stroke-miterlimit:4;stroke-opacity:1;stroke-dasharray:none">
        <path
           d="m 202.34375,807.6875 -39.09375,0.375 c -1e-5,2e-5 -13.00754,20.70073 -32.75,38.8125 -21.61195,19.82679 -37.8125,28.75 -37.8125,28.75 l -0.3125,39.5 c -10e-7,3e-5 25.20486,20.26131 37.3125,34 12.10764,13.73868 33.84375,37.375 33.84375,37.375 l 41.65625,1.03125 c 0,-10e-6 16.37503,-19.44404 31.71875,-34.84375 C 252.24997,937.28778 274.5,920.25 274.5,920.25 l -0.8125,-43.96875 c -10e-6,0 -20.33748,-16.55562 -36.84375,-31.25 -17.40027,-15.49023 -34.5,-37.34375 -34.5,-37.34375 z m -19.1875,20.5625 c 43.16281,0.0337 20.90626,49.34374 20.90625,49.34375 0,0 47.92391,-24.26059 46,17.34375 -0.18064,52.92917 -46.375,23.40625 -46.375,23.40625 0,0 28.78403,45.80486 -20.75,45.75 -40.56214,-0.0449 -18.40624,-46.78122 -18.40625,-46.78125 0,0 -49.72387,27.65306 -49.03125,-18.28125 0.69862,-46.33264 47.59375,-21.96875 47.59375,-21.96875 0,0 -20.97337,-47.44306 17.96875,-48.78125 0.71845,-0.0247 1.40863,-0.0318 2.09375,-0.0312 z"
           style="fill:#ddaa22;fill-opacity:1;fill-rule:evenodd;stroke:#000000;stroke-width:6.70214891;stroke-linecap:butt;stroke-linejoin:miter;stroke-miterlimit:4;stroke-opacity:1;stroke-dasharray:none"
           id="path5809"
           inkscape:connector-curvature="0" />
        <path
           d="m 257.18207,992.8739 c -0.80981,1.06854 -1.79127,2.03522 -2.7103,3.02126 -1.19449,1.54196 -2.63694,2.84352 -4.04929,4.17444 -1.44287,1.0218 -2.99437,1.8753 -4.51105,2.7797 -1.22776,1.1947 -2.04093,0.37 -3.29155,0.3422 -1.16234,-0.6495 -2.18393,-1.5105 -3.24587,-2.3055 l 2.9924,9.979 c 1.14648,0.8099 2.22157,1.7537 3.5569,2.2504 1.54325,-0.01 2.74888,0.4642 4.11419,-0.7609 1.56254,-0.9536 3.15503,-1.8563 4.66153,-2.8981 1.45382,-1.3496 2.95163,-2.6551 4.15574,-4.2491 0.95284,-0.9429 1.85518,-1.9393 2.95807,-2.7109 l -4.63077,-9.6225 z"
           style="opacity:0.01000001;fill:#ddaa22;fill-opacity:1;stroke:#000000;stroke-width:6.70214891;stroke-miterlimit:4;stroke-opacity:1;stroke-dasharray:none;display:inline"
           id="path5811"
           inkscape:connector-curvature="0" />
        <g
           transform="matrix(-0.795463,-0.606002,-0.606002,0.795463,811.8474,412.0752)"
           style="fill:#fcef3c;fill-opacity:1;stroke:#000000;stroke-width:6.70214891;stroke-miterlimit:4;stroke-opacity:1;stroke-dasharray:none"
           id="g5813">
          <path
             d="m 133.93996,681.40468 -29.36084,38.12876 c 0,0 -6.24755,6.09079 2.22551,12.61541 8.47305,6.52463 12.69035,-1.64866 12.69035,-1.64866 l 29.61179,-38.45465 c 0,0 4.69306,-6.76868 -2.47645,-12.28952 -7.16952,-5.52084 -12.69036,1.64866 -12.69036,1.64866 z"
             style="fill:#ddaa22;fill-opacity:1;fill-rule:evenodd;stroke:#000000;stroke-width:6.70214891;stroke-linecap:butt;stroke-linejoin:miter;stroke-miterlimit:4;stroke-opacity:1;stroke-dasharray:none"
             id="path5815"
             inkscape:connector-curvature="0" />
          <path
             d="m 104.22095,719.8715 c 0,0 -15.63087,-21.54341 -5.05076,-36.36549 10.81582,-15.15229 35.35534,-3.03045 35.35534,-3.03045 l -30.30458,39.39594 z"
             style="fill:#ddaa22;fill-opacity:1;fill-rule:evenodd;stroke:#000000;stroke-width:6.70214891;stroke-linecap:butt;stroke-linejoin:miter;stroke-miterlimit:4;stroke-opacity:1;stroke-dasharray:none"
             id="path5817"
             inkscape:connector-curvature="0" />
        </g>
        <g
           transform="matrix(-0.795463,-0.606002,-0.606002,0.795463,742.6738,519.8756)"
           style="fill:#fcef3c;fill-opacity:1;stroke:#000000;stroke-width:6.70214891;stroke-miterlimit:4;stroke-opacity:1;stroke-dasharray:none;display:inline"
           id="g5819">
          <g
             transform="matrix(-0.03191847,-0.99949,0.99949,-0.03191847,-545.3843,867.0029)"
             style="fill:#fcef3c;fill-opacity:1;stroke:#000000;stroke-width:6.70215273;stroke-miterlimit:4;stroke-opacity:1;stroke-dasharray:none"
             id="g5821">
            <path
               d="m 133.93996,681.40468 -29.36084,38.12876 c 0,0 -6.24755,6.09079 2.22551,12.61541 8.47305,6.52463 12.69035,-1.64866 12.69035,-1.64866 l 29.61179,-38.45465 c 0,0 4.69306,-6.76868 -2.47645,-12.28952 -7.16952,-5.52084 -12.69036,1.64866 -12.69036,1.64866 z"
               style="fill:#ddaa22;fill-opacity:1;fill-rule:evenodd;stroke:#000000;stroke-width:6.70215273;stroke-linecap:butt;stroke-linejoin:miter;stroke-miterlimit:4;stroke-opacity:1;stroke-dasharray:none"
               id="path5823"
               inkscape:connector-curvature="0" />
            <path
               d="m 104.22095,719.8715 c 0,0 -15.63087,-21.54341 -5.05076,-36.36549 10.81582,-15.15229 35.35534,-3.03045 35.35534,-3.03045 l -30.30458,39.39594 z"
               style="fill:#ddaa22;fill-opacity:1;fill-rule:evenodd;stroke:#000000;stroke-width:6.70215273;stroke-linecap:butt;stroke-linejoin:miter;stroke-miterlimit:4;stroke-opacity:1;stroke-dasharray:none"
               id="path5825"
               inkscape:connector-curvature="0" />
          </g>
        </g>
        <g
           transform="matrix(0.779176,0.626804,0.626804,-0.779176,-458.3038,1366.039)"
           style="fill:#fcef3c;fill-opacity:1;stroke:#000000;stroke-width:6.70215464;stroke-miterlimit:4;stroke-opacity:1;stroke-dasharray:none;display:inline"
           id="g5827">
          <path
             d="m 133.93996,681.40468 -29.36084,38.12876 c 0,0 -6.24755,6.09079 2.22551,12.61541 8.47305,6.52463 12.69035,-1.64866 12.69035,-1.64866 l 29.61179,-38.45465 c 0,0 4.69306,-6.76868 -2.47645,-12.28952 -7.16952,-5.52084 -12.69036,1.64866 -12.69036,1.64866 z"
             style="fill:#ddaa22;fill-opacity:1;fill-rule:evenodd;stroke:#000000;stroke-width:6.70215464;stroke-linecap:butt;stroke-linejoin:miter;stroke-miterlimit:4;stroke-opacity:1;stroke-dasharray:none"
             id="path5829"
             inkscape:connector-curvature="0" />
          <path
             d="m 104.22095,719.8715 c 0,0 -15.63087,-21.54341 -5.05076,-36.36549 10.81582,-15.15229 35.35534,-3.03045 35.35534,-3.03045 l -30.30458,39.39594 z"
             style="fill:#ddaa22;fill-opacity:1;fill-rule:evenodd;stroke:#000000;stroke-width:6.70215464;stroke-linecap:butt;stroke-linejoin:miter;stroke-miterlimit:4;stroke-opacity:1;stroke-dasharray:none"
             id="path5831"
             inkscape:connector-curvature="0" />
        </g>
        <path
           d="m 206.74065,807.30474 -48.11333,0.98401 c 0,0 -8.6105,1.41028 -8.82916,-9.28157 -0.21867,-10.69185 8.86192,-9.23198 8.86192,-9.23198 l 48.52456,-0.9924 c 0,0 8.23292,0.24301 8.41794,9.28995 0.18502,9.04697 -8.86193,9.23199 -8.86193,9.23199 z"
           style="fill:#ddaa22;fill-opacity:1;fill-rule:evenodd;stroke:#000000;stroke-width:6.70214891;stroke-linecap:butt;stroke-linejoin:miter;stroke-miterlimit:4;stroke-opacity:1;stroke-dasharray:none;display:inline"
           id="path5833"
           inkscape:connector-curvature="0" />
        <path
           d="m 205.25524,111.39015 c 0,0 -2.35755,-17.439083 -19.82565,-17.976839 -17.4681,-0.537755 -18.80398,21.749489 -18.80398,21.749489 l -2.63789,674.34035 40.08922,-0.55819 1.1783,-677.55481 z"
           style="fill:#ddaa22;fill-opacity:1;fill-rule:evenodd;stroke:#000000;stroke-width:6.70214891;stroke-linecap:butt;stroke-linejoin:miter;stroke-miterlimit:4;stroke-opacity:1;stroke-dasharray:none"
           id="path5835"
           inkscape:connector-curvature="0" />
        <path
           d="m 166.01232,234.8604 -16.38174,-0.0842 0.92064,45.64149 0.80803,0.61558 -81.26118,-0.61142 -0.57874,-31.08852 27.93352,0.21017 -0.19314,-14.83246 -27.93354,-0.21016 -0.15494,-19.91129 47.53704,0.45925 0.84084,20.54337 11.60714,-0.84434 -0.0587,-19.19948 17.67965,-0.57805 -0.48183,-16.96787 -17.37187,0.17405 -0.13582,-22.4507 -11.17724,0.42382 -0.76843,21.12333 -47.03678,0.56032 -0.84763,-22.35446 28.33754,0.51796 -0.19315,-14.83245 -27.52951,0.0976 0.01772,-29.35714 79.93381,1.51567 0.69477,42.66976 15.94827,0.0184 -0.15473,58.75172 z"
           style="fill:#ddaa22;fill-opacity:1;fill-rule:evenodd;stroke:#000000;stroke-width:6.70214891;stroke-linecap:butt;stroke-linejoin:miter;stroke-miterlimit:4;stroke-opacity:1;stroke-dasharray:none"
           id="path5837"
           inkscape:connector-curvature="0" />
      </g>
      <g
         style="fill:#fcef3c;fill-opacity:1;stroke:#000000;stroke-width:6.70214891;stroke-miterlimit:4;stroke-opacity:1;stroke-dasharray:none"
         id="g5865"
         transform="matrix(-0.90426907,-0.42696191,-0.42696191,0.90426907,1279.6345,-203.9939)">
        <path
           inkscape:connector-curvature="0"
           id="path5867"
           style="fill:#ddaa22;fill-opacity:1;fill-rule:evenodd;stroke:#000000;stroke-width:6.70214891;stroke-linecap:butt;stroke-linejoin:miter;stroke-miterlimit:4;stroke-opacity:1;stroke-dasharray:none"
           d="m 202.34375,807.6875 -39.09375,0.375 c -1e-5,2e-5 -13.00754,20.70073 -32.75,38.8125 -21.61195,19.82679 -37.8125,28.75 -37.8125,28.75 l -0.3125,39.5 c -10e-7,3e-5 25.20486,20.26131 37.3125,34 12.10764,13.73868 33.84375,37.375 33.84375,37.375 l 41.65625,1.03125 c 0,-10e-6 16.37503,-19.44404 31.71875,-34.84375 C 252.24997,937.28778 274.5,920.25 274.5,920.25 l -0.8125,-43.96875 c -10e-6,0 -20.33748,-16.55562 -36.84375,-31.25 -17.40027,-15.49023 -34.5,-37.34375 -34.5,-37.34375 z m -19.1875,20.5625 c 43.16281,0.0337 20.90626,49.34374 20.90625,49.34375 0,0 47.92391,-24.26059 46,17.34375 -0.18064,52.92917 -46.375,23.40625 -46.375,23.40625 0,0 28.78403,45.80486 -20.75,45.75 -40.56214,-0.0449 -18.40624,-46.78122 -18.40625,-46.78125 0,0 -49.72387,27.65306 -49.03125,-18.28125 0.69862,-46.33264 47.59375,-21.96875 47.59375,-21.96875 0,0 -20.97337,-47.44306 17.96875,-48.78125 0.71845,-0.0247 1.40863,-0.0318 2.09375,-0.0312 z" />
        <path
           inkscape:connector-curvature="0"
           id="path5869"
           style="opacity:0.01000001;fill:#ddaa22;fill-opacity:1;stroke:#000000;stroke-width:6.70214891;stroke-miterlimit:4;stroke-opacity:1;stroke-dasharray:none;display:inline"
           d="m 257.18207,992.8739 c -0.80981,1.06854 -1.79127,2.03522 -2.7103,3.02126 -1.19449,1.54196 -2.63694,2.84352 -4.04929,4.17444 -1.44287,1.0218 -2.99437,1.8753 -4.51105,2.7797 -1.22776,1.1947 -2.04093,0.37 -3.29155,0.3422 -1.16234,-0.6495 -2.18393,-1.5105 -3.24587,-2.3055 l 2.9924,9.979 c 1.14648,0.8099 2.22157,1.7537 3.5569,2.2504 1.54325,-0.01 2.74888,0.4642 4.11419,-0.7609 1.56254,-0.9536 3.15503,-1.8563 4.66153,-2.8981 1.45382,-1.3496 2.95163,-2.6551 4.15574,-4.2491 0.95284,-0.9429 1.85518,-1.9393 2.95807,-2.7109 l -4.63077,-9.6225 z" />
        <g
           id="g5871"
           style="fill:#fcef3c;fill-opacity:1;stroke:#000000;stroke-width:6.70214891;stroke-miterlimit:4;stroke-opacity:1;stroke-dasharray:none"
           transform="matrix(-0.795463,-0.606002,-0.606002,0.795463,811.8474,412.0752)">
          <path
             inkscape:connector-curvature="0"
             id="path5873"
             style="fill:#ddaa22;fill-opacity:1;fill-rule:evenodd;stroke:#000000;stroke-width:6.70214891;stroke-linecap:butt;stroke-linejoin:miter;stroke-miterlimit:4;stroke-opacity:1;stroke-dasharray:none"
             d="m 133.93996,681.40468 -29.36084,38.12876 c 0,0 -6.24755,6.09079 2.22551,12.61541 8.47305,6.52463 12.69035,-1.64866 12.69035,-1.64866 l 29.61179,-38.45465 c 0,0 4.69306,-6.76868 -2.47645,-12.28952 -7.16952,-5.52084 -12.69036,1.64866 -12.69036,1.64866 z" />
          <path
             inkscape:connector-curvature="0"
             id="path5875"
             style="fill:#ddaa22;fill-opacity:1;fill-rule:evenodd;stroke:#000000;stroke-width:6.70214891;stroke-linecap:butt;stroke-linejoin:miter;stroke-miterlimit:4;stroke-opacity:1;stroke-dasharray:none"
             d="m 104.22095,719.8715 c 0,0 -15.63087,-21.54341 -5.05076,-36.36549 10.81582,-15.15229 35.35534,-3.03045 35.35534,-3.03045 l -30.30458,39.39594 z" />
        </g>
        <g
           id="g5877"
           style="fill:#fcef3c;fill-opacity:1;stroke:#000000;stroke-width:6.70214891;stroke-miterlimit:4;stroke-opacity:1;stroke-dasharray:none;display:inline"
           transform="matrix(-0.795463,-0.606002,-0.606002,0.795463,742.6738,519.8756)">
          <g
             id="g5879"
             style="fill:#fcef3c;fill-opacity:1;stroke:#000000;stroke-width:6.70215273;stroke-miterlimit:4;stroke-opacity:1;stroke-dasharray:none"
             transform="matrix(-0.03191847,-0.99949,0.99949,-0.03191847,-545.3843,867.0029)">
            <path
               inkscape:connector-curvature="0"
               id="path5881"
               style="fill:#ddaa22;fill-opacity:1;fill-rule:evenodd;stroke:#000000;stroke-width:6.70215273;stroke-linecap:butt;stroke-linejoin:miter;stroke-miterlimit:4;stroke-opacity:1;stroke-dasharray:none"
               d="m 133.93996,681.40468 -29.36084,38.12876 c 0,0 -6.24755,6.09079 2.22551,12.61541 8.47305,6.52463 12.69035,-1.64866 12.69035,-1.64866 l 29.61179,-38.45465 c 0,0 4.69306,-6.76868 -2.47645,-12.28952 -7.16952,-5.52084 -12.69036,1.64866 -12.69036,1.64866 z" />
            <path
               inkscape:connector-curvature="0"
               id="path5883"
               style="fill:#ddaa22;fill-opacity:1;fill-rule:evenodd;stroke:#000000;stroke-width:6.70215273;stroke-linecap:butt;stroke-linejoin:miter;stroke-miterlimit:4;stroke-opacity:1;stroke-dasharray:none"
               d="m 104.22095,719.8715 c 0,0 -15.63087,-21.54341 -5.05076,-36.36549 10.81582,-15.15229 35.35534,-3.03045 35.35534,-3.03045 l -30.30458,39.39594 z" />
          </g>
        </g>
        <g
           id="g5885"
           style="fill:#fcef3c;fill-opacity:1;stroke:#000000;stroke-width:6.70215464;stroke-miterlimit:4;stroke-opacity:1;stroke-dasharray:none;display:inline"
           transform="matrix(0.779176,0.626804,0.626804,-0.779176,-458.3038,1366.039)">
          <path
             inkscape:connector-curvature="0"
             id="path5887"
             style="fill:#ddaa22;fill-opacity:1;fill-rule:evenodd;stroke:#000000;stroke-width:6.70215464;stroke-linecap:butt;stroke-linejoin:miter;stroke-miterlimit:4;stroke-opacity:1;stroke-dasharray:none"
             d="m 133.93996,681.40468 -29.36084,38.12876 c 0,0 -6.24755,6.09079 2.22551,12.61541 8.47305,6.52463 12.69035,-1.64866 12.69035,-1.64866 l 29.61179,-38.45465 c 0,0 4.69306,-6.76868 -2.47645,-12.28952 -7.16952,-5.52084 -12.69036,1.64866 -12.69036,1.64866 z" />
          <path
             inkscape:connector-curvature="0"
             id="path5889"
             style="fill:#ddaa22;fill-opacity:1;fill-rule:evenodd;stroke:#000000;stroke-width:6.70215464;stroke-linecap:butt;stroke-linejoin:miter;stroke-miterlimit:4;stroke-opacity:1;stroke-dasharray:none"
             d="m 104.22095,719.8715 c 0,0 -15.63087,-21.54341 -5.05076,-36.36549 10.81582,-15.15229 35.35534,-3.03045 35.35534,-3.03045 l -30.30458,39.39594 z" />
        </g>
        <path
           inkscape:connector-curvature="0"
           id="path5891"
           style="fill:#ddaa22;fill-opacity:1;fill-rule:evenodd;stroke:#000000;stroke-width:6.70214891;stroke-linecap:butt;stroke-linejoin:miter;stroke-miterlimit:4;stroke-opacity:1;stroke-dasharray:none;display:inline"
           d="m 206.74065,807.30474 -48.11333,0.98401 c 0,0 -8.6105,1.41028 -8.82916,-9.28157 -0.21867,-10.69185 8.86192,-9.23198 8.86192,-9.23198 l 48.52456,-0.9924 c 0,0 8.23292,0.24301 8.41794,9.28995 0.18502,9.04697 -8.86193,9.23199 -8.86193,9.23199 z" />
        <path
           inkscape:connector-curvature="0"
           id="path5893"
           style="fill:#ddaa22;fill-opacity:1;fill-rule:evenodd;stroke:#000000;stroke-width:6.70214891;stroke-linecap:butt;stroke-linejoin:miter;stroke-miterlimit:4;stroke-opacity:1;stroke-dasharray:none"
           d="m 205.25524,111.39015 c 0,0 -2.35755,-17.439083 -19.82565,-17.976839 -17.4681,-0.537755 -18.80398,21.749489 -18.80398,21.749489 l -2.63789,674.34035 40.08922,-0.55819 1.1783,-677.55481 z" />
        <path
           inkscape:connector-curvature="0"
           id="path5895"
           style="fill:#ddaa22;fill-opacity:1;fill-rule:evenodd;stroke:#000000;stroke-width:6.70214891;stroke-linecap:butt;stroke-linejoin:miter;stroke-miterlimit:4;stroke-opacity:1;stroke-dasharray:none"
           d="m 166.01232,234.8604 -16.38174,-0.0842 0.92064,45.64149 0.80803,0.61558 -81.26118,-0.61142 -0.57874,-31.08852 27.93352,0.21017 -0.19314,-14.83246 -27.93354,-0.21016 -0.15494,-19.91129 47.53704,0.45925 0.84084,20.54337 11.60714,-0.84434 -0.0587,-19.19948 17.67965,-0.57805 -0.48183,-16.96787 -17.37187,0.17405 -0.13582,-22.4507 -11.17724,0.42382 -0.76843,21.12333 -47.03678,0.56032 -0.84763,-22.35446 28.33754,0.51796 -0.19315,-14.83245 -27.52951,0.0976 0.01772,-29.35714 79.93381,1.51567 0.69477,42.66976 15.94827,0.0184 -0.15473,58.75172 z" />
      </g>
    </g>
  </g>
  <g
     inkscape:groupmode="layer"
     id="layer1"
     inkscape:label="Cover"
     style="display:inline"
     sodipodi:insensitive="true">
    <path
       d="m 2,2 v 257 c 0,286 298,398 298,398 0,0 298,-112 298,-398 V 2 z"
       id="shine"
       inkscape:connector-curvature="0"
       style="fill:url(#radialGradient3074);stroke:#000000;stroke-width:3" />
  </g>
</svg>
