<?xml version="1.0" encoding="UTF-8" standalone="no"?>
<svg
   xmlns:dc="http://purl.org/dc/elements/1.1/"
   xmlns:cc="http://creativecommons.org/ns#"
   xmlns:rdf="http://www.w3.org/1999/02/22-rdf-syntax-ns#"
   xmlns:svg="http://www.w3.org/2000/svg"
   xmlns="http://www.w3.org/2000/svg"
   xmlns:xlink="http://www.w3.org/1999/xlink"
   xmlns:sodipodi="http://sodipodi.sourceforge.net/DTD/sodipodi-0.dtd"
   xmlns:inkscape="http://www.inkscape.org/namespaces/inkscape"
   width="600"
   height="660"
   id="svg2"
   version="1.1"
   inkscape:version="0.48.2 r9819"
   sodipodi:docname="House_Lydden.svg">
  <metadata
     id="metadata24">
    <rdf:RDF>
      <cc:Work
         rdf:about="">
        <dc:format>image/svg+xml</dc:format>
        <dc:type
           rdf:resource="http://purl.org/dc/dcmitype/StillImage" />
        <dc:title />
      </cc:Work>
    </rdf:RDF>
  </metadata>
  <sodipodi:namedview
     pagecolor="#ffffff"
     bordercolor="#666666"
     borderopacity="1"
     objecttolerance="10"
     gridtolerance="10"
     guidetolerance="10"
     inkscape:pageopacity="0"
     inkscape:pageshadow="2"
     inkscape:window-width="1366"
     inkscape:window-height="715"
     id="namedview22"
     showgrid="false"
     inkscape:zoom="0.35757576"
     inkscape:cx="-204.46561"
     inkscape:cy="336.38629"
     inkscape:window-x="-8"
     inkscape:window-y="-8"
     inkscape:window-maximized="1"
     inkscape:current-layer="svg2" />
  <defs
     id="defs4">
    <radialGradient
       id="rg"
       gradientUnits="userSpaceOnUse"
       cx="220"
       cy="220"
       r="405">
      <stop
         style="stop-color:#fff;stop-opacity:.3"
         offset="0"
         id="stop7" />
      <stop
         style="stop-color:#fff;stop-opacity:.2"
         offset=".2"
         id="stop9" />
      <stop
         style="stop-color:#666;stop-opacity:.1"
         offset=".6"
         id="stop11" />
      <stop
         style="stop-color:#000;stop-opacity:.13"
         offset="1"
         id="stop13" />
    </radialGradient>
    <path
       id="shield"
       d="m2,2v257c0,286 298,398 298,398c0,0 298-112 298-398V2z" />
    <radialGradient
       id="rg-1"
       gradientUnits="userSpaceOnUse"
       cx="220"
       cy="220"
       r="405">
      <stop
         style="stop-color:#fff;stop-opacity:.3"
         offset="0"
         id="stop7-7" />
      <stop
         style="stop-color:#fff;stop-opacity:.2"
         offset=".2"
         id="stop9-4" />
      <stop
         style="stop-color:#666;stop-opacity:.1"
         offset=".6"
         id="stop11-0" />
      <stop
         style="stop-color:#000;stop-opacity:.13"
         offset="1"
         id="stop13-9" />
    </radialGradient>
    <radialGradient
       id="radialGradient3014"
       gradientUnits="userSpaceOnUse"
       cx="220"
       cy="220"
       r="405">
      <stop
         style="stop-color:#fff;stop-opacity:.3"
         offset="0"
         id="stop3016" />
      <stop
         style="stop-color:#fff;stop-opacity:.2"
         offset=".2"
         id="stop3018" />
      <stop
         style="stop-color:#666;stop-opacity:.1"
         offset=".6"
         id="stop3020" />
      <stop
         style="stop-color:#000;stop-opacity:.13"
         offset="1"
         id="stop3022" />
    </radialGradient>
  </defs>
  <use
     height="1052.3622"
     width="744.09448"
     y="0"
     x="0"
     id="background"
     xlink:href="#shield"
     style="fill:#008800;fill-opacity:1" />
  <path
     inkscape:connector-curvature="0"
     d="m 300,2 0,655 c 0,0 298,-112 298,-398 L 598,2 300,2 z"
     id="path17"
     style="fill:#8b4513;fill-opacity:1" />
  <g
     style="display:inline"
     id="g1989"
     inkscape:label="Calque 1"
     transform="matrix(0.82675373,0,0,0.82675373,-12.42958,-165.37669)">
    <g
       transform="translate(847.5179,65.65991)"
       id="g6374">
      <path
         inkscape:connector-curvature="0"
         style="fill:#ffffff;fill-rule:evenodd;stroke:#000000;stroke-width:2.72108841;stroke-linecap:butt;stroke-linejoin:miter;stroke-miterlimit:4;stroke-opacity:1;stroke-dasharray:none"
         d="m -214.28571,528.25504 c -1.34097,-27.31034 -19.74277,-50.00099 -34.82143,-71.42857 -16.42724,-27.90761 -37.98654,-39.99928 -67.67857,-49.64286 -16.31659,-5.16831 -36.55214,-5.62114 -55.53572,-5.17857 -21.09635,0.16742 -41.87868,3.47509 -62.5,8.39286 -17.55461,6.07143 -35.09146,12.14285 -51.25,18.21428 -11.02217,-1.19252 -21.88631,-2.96446 -34.28571,0.89286 -25.94156,7.20238 -54.54093,12.31648 -87.14286,14.28571 -16.67623,2.17158 -37.86903,9.04792 -63.58372,20.63457 -5.73835,2.17211 -10.84923,5.2123 -15.80338,8.75891 -8.91172,6.42208 -17.16159,13.38566 -22.04147,23.10652 -5.46429,11.66673 -10.86382,22.03825 -16.78572,42.85715 -7.00889,18.9117 -13.70042,37.98207 -24.39404,55.05141 -1.59914,3.71488 -2.42315,6.18008 1.44999,6.83322 2.09724,0.6782 4.75823,0.88776 7.75491,1.05141 3.55609,0.38694 8.28526,0.81231 12.69365,1.11435 10.41441,0.77086 20.36076,-1.98591 26.10457,-7.92079 5.5847,-4.24854 11.63978,-7.95779 19.09539,-14.30551 6.43159,-5.47585 14.62494,-9.68666 24.08125,-14.85981 17.35929,-7.08882 33.26258,-9.39337 56.89332,-6.59308 5.9866,-0.0327 9.15507,2.03171 13.11062,6.20709 5.79895,6.31775 10.20079,14.69438 9.63891,30.38599 -0.95515,26.79619 -5.0918,36.41226 -9.8002,42.94091 -6.49517,8.01775 -18.00606,12.05963 -27.6998,14.73766 -3.74825,2.40488 -7.94633,3.76014 -10.35714,9.28572 -0.67145,1.83837 -1.20335,3.56821 2.32143,2.14285 4.18276,-5.27186 8.939,-5.38232 13.57143,-6.60714 -0.64686,-0.42886 -8.6132,4.68197 -9.28572,11.96429 0.22732,2.84612 1.33846,1.715 2.5,0.35714 4.48221,-4.69599 9.87296,-9.28215 14.82144,-10.71429 -4.06295,4.38032 -5.94137,12.09771 -2.85715,17.5 2.93444,1.2127 1.84575,-0.63924 3.03572,-1.60713 -1.1886,-6.78196 2.42414,-6.99696 3.39285,-9.4643 9.1348,-4.29373 13.87209,-1.34012 22.67857,-3.74999 3.30087,-0.99027 6.36161,-1.64435 14.28572,-9.10715 8.9296,-13.5735 18.47704,-27.32138 24.46428,-42.5 2.30586,-4.94826 2.88228,-10.76124 6.96429,-14.82143 6.04682,-1.19244 12.12664,-0.70571 18.23623,-0.27614 16.88317,1.42002 31.71975,10.93316 48.70886,12.75122 21.86927,2.63406 44.40206,5.472 65.91205,0.56064 l 16.66882,-3.25563 c -13.52731,2.70624 4.58851,-1.84841 9.39426,-0.11462 4.67469,1.74948 26.83932,2.4456 30.10677,5.13324 -6.86859,4.71327 -16.20363,6.76249 -24.52141,7.74283 -6.20424,0.73788 -12.40848,1.63475 -18.61272,5.31561 -0.51088,1.06901 -5.46273,2.42754 -7.32143,10.89285 -0.0552,2.61043 1.55419,1.89163 2.85714,1.78572 4.12343,-6.00188 9.27462,-10.11955 16.25,-10.89286 -3.05088,3.78849 -5.38994,4.3738 -9.28571,11.96429 -0.38789,2.97816 1.02243,2.35991 2.5,1.60714 2.98405,-2.89517 4.65078,-6.54309 10.71428,-7.67857 0.87415,0.30748 3.3806,-2.32318 2.14286,1.78571 -1.86751,1.75651 -3.92869,1.18902 -5.35714,8.21429 -0.2381,2.26191 0.71428,2.38095 2.85714,0.35714 1.33941,-1.3101 2.04128,-2.51395 4.30571,-3.97822 2.18573,-1.36398 3.81355,-2.64765 6.43852,-3.05053 4.55448,-0.55199 12.4578,-0.1763 21.03396,-0.74139 3.64076,0.10312 6.87117,-1.07413 10.21356,-2.33852 7.38257,-2.82092 13.09768,-5.64185 16.93682,-8.46277 3.64966,-2.51763 8.90839,-0.13155 12.67857,1.25 -5.59524,-0.11562 -11.19047,6.49234 -16.78571,11.25 -10.41667,8.82935 -20.83333,9.98901 -31.25,10.89286 -9.28572,2.18925 -18.57143,0.25357 -27.85715,6.78571 -3.83718,3.63275 -7.79678,7.16058 -8.39285,13.57143 0.0362,1.30092 -0.28561,3.07923 2.5,0.71429 6.0532,-10.0599 16.60566,-10.38273 26.96428,-13.03572 -4.34278,2.92403 -9.1953,4.31885 -12.67857,9.82143 -1.54414,2.42644 -3.54262,4.09563 -3.75,8.75 0.26188,1.16193 -0.0208,2.97735 2.5,1.42857 2.53096,-3.70872 4.22507,-8.53324 8.03572,-10.53571 4.21465,-3.76914 6.81478,-1.88745 10.17857,-2.67857 -2.63827,2.16394 -5.88779,3.10537 -7.67857,6.96428 -1.19046,1.90477 -1.19049,4.28571 0,7.14286 0.89286,2.0042 1.78571,1.33176 2.67857,0.53572 1.63084,-4.76066 4.96059,-8.87484 9.82143,-10.53572 l 0.89285,9.82143 c 0.77381,2.21402 1.54762,2.19035 2.32143,-0.35714 0.78819,-4.05836 1.36396,-10.52884 6.60715,-9.46429 11.96428,0.38273 23.92857,-2.68658 35.89285,-5 9.34101,-3.75691 18.43695,-8.12646 27.30116,-13.07534 11.99922,-6.41456 9.77796,-4.2806 12.29032,-15.82559 1.28163,-5.41863 3.37705,-10.43036 5.22995,-15.56335 5.4547,-14.23304 13.39497,-26.69067 15.89286,-43.03572 2.17703,-9.1278 5.36689,-15.51902 9.46428,-20.35714 2.87799,7.73809 2.10449,15.47619 2.32143,23.21428 1.07642,13.86406 3.45351,26.42744 6.42857,38.39286 2.18566,12.37169 5.81784,42.7072 20.89286,45.17857 6.85202,-6.22285 9.39284,-18.93354 10.71429,-27.85714 0.30745,-6.13095 -0.54773,-12.26191 -2.14286,-18.39286 -10.09596,-27.81542 -20.62814,-56.01802 -24.28571,-85.53571 z"
         id="path2822"
         sodipodi:nodetypes="cccccccccccccccccscccccccccccccccccccccccccccccccccccccccccccccccccccccccccccccccccccccccc" />
      <path
         inkscape:connector-curvature="0"
         style="fill:#000000;fill-rule:evenodd;stroke:#000000;stroke-width:0.90702951px;stroke-linecap:butt;stroke-linejoin:miter;stroke-opacity:1"
         d="m -744.9875,586.42932 c -2.34889,9.27504 10.01377,8.60545 13.76333,2.65165 -2.13903,0.57179 -3.58398,0.31067 -4.04062,-1.13642 -0.58672,-2.82029 1.51748,-5.93957 3.91435,-9.09137 4.34476,-5.74295 4.5824,-9.86863 6.69226,-14.26841 1.77411,-12.20178 5.04443,-23.40609 9.84898,-33.58757 5.97051,-13.25306 12.41752,-26.47434 23.35978,-39.39595 10.58773,-11.27712 20.79667,-15.73587 31.06219,-21.2132 8.15351,-5.35467 16.6601,-11.37136 22.22336,-11.8693 -4.46671,6.35554 -7.09539,12.71109 -6.18719,19.06663 0.32139,12.36483 9.796,12.83048 16.28871,17.1726 5.97892,1.34754 12.13398,3.12563 21.08694,11.74302 1.24427,1.94073 2.80966,3.80118 2.77792,6.06092 -2.42645,2.78443 -5.35337,1.06463 -8.08122,1.13642 -2.24808,-5.25731 -13.39135,-3.96026 -21.46574,-4.9245 -11.06038,-0.22667 -21.88892,0.55133 -31.94608,4.67196 -3.58019,2.84181 -7.51544,5.43607 -10.38621,9.05698 -7.37436,9.30127 -16.92258,17.41187 -25.34793,26.17209 -8.65449,7.07008 -16.70585,15.69107 -20.70813,34.72399 0.21029,3.24091 -3.04047,6.48181 -6.81853,9.72272 -2.65177,1.47314 -8.65296,2.94628 -6.81853,4.41942 l 0,5.05076 -13.8896,-1.51523 -1.89403,-3.03046 3.15672,-6.94479 3.40927,-4.67196 z"
         id="path4594"
         sodipodi:nodetypes="ccccccccccccccccsccccccccc" />
      <g
         id="g2800">
        <path
           sodipodi:open="true"
           transform="matrix(0.220012,0,0,0.238737,-569.4173,458.5521)"
           sodipodi:end="10.977966"
           sodipodi:start="4.7143463"
           d="m -638.87109,330.10317 c 14.22621,0.0257 25.73627,10.67457 25.70842,23.785 -0.0278,13.11043 -11.58304,23.71774 -25.80926,23.69207 -14.22621,-0.0257 -25.73626,-10.67457 -25.70842,-23.785 0.0275,-12.92941 11.27765,-23.46079 25.30529,-23.68844"
           sodipodi:ry="23.738585"
           sodipodi:rx="25.75889"
           sodipodi:cy="353.84171"
           sodipodi:cx="-638.92151"
           id="path1909"
           style="color:#000000;fill:#ffffff;fill-opacity:0.99541285;fill-rule:evenodd;stroke:#000000;stroke-width:2.72108841;stroke-linecap:square;stroke-linejoin:miter;stroke-miterlimit:4;stroke-opacity:1;stroke-dasharray:none;stroke-dashoffset:0;marker:none;visibility:visible;display:inline;overflow:visible"
           sodipodi:type="arc" />
        <path
           sodipodi:open="true"
           transform="matrix(0.121973,0,0,0.132354,-632.0565,496.1948)"
           sodipodi:end="10.977966"
           sodipodi:start="4.7143463"
           d="m -638.87109,330.10317 c 14.22621,0.0257 25.73627,10.67457 25.70842,23.785 -0.0278,13.11043 -11.58304,23.71774 -25.80926,23.69207 -14.22621,-0.0257 -25.73626,-10.67457 -25.70842,-23.785 0.0275,-12.92941 11.27765,-23.46079 25.30529,-23.68844"
           sodipodi:ry="23.738585"
           sodipodi:rx="25.75889"
           sodipodi:cy="353.84171"
           sodipodi:cx="-638.92151"
           id="path2798"
           style="color:#000000;fill:#000000;fill-opacity:0.99541285;fill-rule:evenodd;stroke:#000000;stroke-width:2.72108841;stroke-linecap:square;stroke-linejoin:miter;stroke-miterlimit:4;stroke-opacity:1;stroke-dasharray:none;stroke-dashoffset:0;marker:none;visibility:visible;display:inline;overflow:visible"
           sodipodi:type="arc" />
      </g>
      <path
         inkscape:connector-curvature="0"
         style="fill:#ffffff;fill-rule:evenodd;stroke:#000000;stroke-width:2.72108841;stroke-linecap:butt;stroke-linejoin:miter;stroke-miterlimit:4;stroke-opacity:1;stroke-dasharray:none"
         d="m -595.61119,561.80685 c 2.16583,9.90588 1.40898,15.1393 -1.59648,27.73956 -1.61724,6.78021 -4.46659,15.53066 -10.65162,27.9451 -5.06735,8.3914 -12.77778,13.09724 -21.76345,14.60303 -3.92281,0.65737 -8.33898,-0.25721 -11.82413,2.56956 -3.283,3.9439 -6.56599,6.75686 -9.84899,13.5108 0.34419,0.57965 -3.85782,7.00441 2.77792,-0.50508 4.50391,-4.81184 9.82049,-9.12938 17.29887,-9.97526 -4.16472,3.25707 -8.69099,3.80259 -12.2481,11.61676 -1.67863,3.84314 -0.40536,2.88945 0.50507,2.52538 4.76178,-4.02771 9.01885,-6.85673 11.11168,-4.54569 0.0242,2.27284 -1.66735,4.54569 -2.14657,6.81853 -0.26073,1.22971 -1.11309,3.11677 1.51522,1.13643 0.61141,-0.64634 1.22283,-1.25929 1.83424,-1.83409 2.29278,-2.15549 4.58555,-3.77449 6.87833,-4.60564 l 5.20821,-1.67056 c 8.91601,0.42073 12.65987,-1.39423 15.78873,-3.45251 2.72767,-1.92053 5.66642,-3.26182 8.12675,-5.51367 6.14814,-5.81079 10.00116,-13.22815 13.8078,-20.67799 1.84231,-12.96362 2.19195,-25.92725 0,-38.89087 -2.77099,-6.64378 -4.80841,-11.45802 -14.77348,-16.79379 z"
         id="path4596"
         sodipodi:nodetypes="cscscccccccccsccccccc" />
      <path
         inkscape:connector-curvature="0"
         style="fill:none;stroke:#000000;stroke-width:2.72108841;stroke-linecap:butt;stroke-linejoin:miter;stroke-miterlimit:4;stroke-opacity:1;stroke-dasharray:none"
         d="m -300.52038,624.0575 -45.45687,-14.14213"
         id="path4602" />
    </g>
  </g>
  <use
     height="1052.3622"
     width="744.09448"
     y="0"
     x="0"
     style="fill:url(#rg-1);stroke:#000000;stroke-width:3"
     id="shine"
     xlink:href="#shield" />
</svg>
