<?xml version="1.0" encoding="UTF-8" standalone="no"?>
<svg
   xmlns:dc="http://purl.org/dc/elements/1.1/"
   xmlns:cc="http://creativecommons.org/ns#"
   xmlns:rdf="http://www.w3.org/1999/02/22-rdf-syntax-ns#"
   xmlns:svg="http://www.w3.org/2000/svg"
   xmlns="http://www.w3.org/2000/svg"
   xmlns:xlink="http://www.w3.org/1999/xlink"
   xmlns:sodipodi="http://sodipodi.sourceforge.net/DTD/sodipodi-0.dtd"
   xmlns:inkscape="http://www.inkscape.org/namespaces/inkscape"
   width="600"
   height="660"
   id="svg2"
   version="1.1"
   inkscape:version="0.48.2 r9819"
   sodipodi:docname="House_Mallister.svg">
  <metadata
     id="metadata24">
    <rdf:RDF>
      <cc:Work
         rdf:about="">
        <dc:format>image/svg+xml</dc:format>
        <dc:type
           rdf:resource="http://purl.org/dc/dcmitype/StillImage" />
        <dc:title />
      </cc:Work>
    </rdf:RDF>
  </metadata>
  <sodipodi:namedview
     pagecolor="#ffffff"
     bordercolor="#666666"
     borderopacity="1"
     objecttolerance="10"
     gridtolerance="10"
     guidetolerance="10"
     inkscape:pageopacity="0"
     inkscape:pageshadow="2"
     inkscape:window-width="1366"
     inkscape:window-height="715"
     id="namedview22"
     showgrid="false"
     inkscape:zoom="0.50568848"
     inkscape:cx="-108.26833"
     inkscape:cy="322.13856"
     inkscape:window-x="-8"
     inkscape:window-y="-8"
     inkscape:window-maximized="1"
     inkscape:current-layer="layer2" />
  <defs
     id="defs4">
    <inkscape:path-effect
       is_visible="true"
       id="path-effect3136"
       effect="spiro" />
    <inkscape:path-effect
       effect="spiro"
       id="path-effect3132"
       is_visible="true" />
    <inkscape:path-effect
       effect="spiro"
       id="path-effect3101"
       is_visible="true" />
    <inkscape:path-effect
       is_visible="true"
       id="path-effect3085"
       effect="spiro" />
    <inkscape:path-effect
       is_visible="true"
       id="path-effect3083"
       effect="spiro" />
    <inkscape:path-effect
       is_visible="true"
       id="path-effect3081"
       effect="spiro" />
    <inkscape:path-effect
       is_visible="true"
       id="path-effect3079"
       effect="spiro" />
    <inkscape:path-effect
       is_visible="true"
       id="path-effect3077"
       effect="spiro" />
    <inkscape:path-effect
       is_visible="true"
       id="path-effect3075"
       effect="spiro" />
    <inkscape:path-effect
       effect="spiro"
       id="path-effect3049"
       is_visible="true" />
    <inkscape:path-effect
       is_visible="true"
       id="path-effect3045"
       effect="spiro" />
    <inkscape:path-effect
       effect="spiro"
       id="path-effect3041"
       is_visible="true" />
    <radialGradient
       id="rg"
       gradientUnits="userSpaceOnUse"
       cx="220"
       cy="220"
       r="405">
      <stop
         style="stop-color:#fff;stop-opacity:.3"
         offset="0"
         id="stop7" />
      <stop
         style="stop-color:#fff;stop-opacity:.2"
         offset=".2"
         id="stop9" />
      <stop
         style="stop-color:#666;stop-opacity:.1"
         offset=".6"
         id="stop11" />
      <stop
         style="stop-color:#000;stop-opacity:.13"
         offset="1"
         id="stop13" />
    </radialGradient>
    <path
       id="shield"
       d="m2,2v257c0,286 298,398 298,398c0,0 298-112 298-398V2z" />
    <radialGradient
       inkscape:collect="always"
       xlink:href="#rg-7"
       id="radialGradient3055-1"
       gradientUnits="userSpaceOnUse"
       cx="220"
       cy="220"
       r="405" />
    <radialGradient
       id="rg-7"
       gradientUnits="userSpaceOnUse"
       cx="220"
       cy="220"
       r="405">
      <stop
         style="stop-color:#fff;stop-opacity:.3"
         offset="0"
         id="stop7-4" />
      <stop
         style="stop-color:#fff;stop-opacity:.2"
         offset=".2"
         id="stop9-0" />
      <stop
         style="stop-color:#666;stop-opacity:.1"
         offset=".6"
         id="stop11-9" />
      <stop
         style="stop-color:#000;stop-opacity:.13"
         offset="1"
         id="stop13-4" />
    </radialGradient>
    <radialGradient
       r="405"
       cy="220"
       cx="220"
       gradientUnits="userSpaceOnUse"
       id="radialGradient3074"
       xlink:href="#rg-7"
       inkscape:collect="always" />
    <inkscape:path-effect
       is_visible="true"
       id="path-effect10120-1"
       effect="spiro" />
    <inkscape:path-effect
       effect="spiro"
       id="path-effect10118-3"
       is_visible="true" />
    <inkscape:path-effect
       effect="spiro"
       id="path-effect10116-9"
       is_visible="true" />
    <inkscape:path-effect
       effect="spiro"
       id="path-effect10114-7"
       is_visible="true" />
    <inkscape:path-effect
       effect="spiro"
       id="path-effect10112-7"
       is_visible="true" />
    <inkscape:path-effect
       effect="spiro"
       id="path-effect10110-2"
       is_visible="true" />
    <linearGradient
       inkscape:collect="always"
       xlink:href="#linearGradient4719-5"
       id="linearGradient4039"
       gradientUnits="userSpaceOnUse"
       gradientTransform="matrix(2.3257341,0,0,2.2943177,447.69485,-1820.2799)"
       x1="-145.25935"
       y1="984.24286"
       x2="-64.14286"
       y2="984.14789" />
    <linearGradient
       inkscape:collect="always"
       id="linearGradient4719-5">
      <stop
         style="stop-color:#666666;stop-opacity:1;"
         offset="0"
         id="stop4721-5" />
      <stop
         id="stop4809-1"
         offset="0.39344174"
         style="stop-color:#666666;stop-opacity:0.74901961;" />
      <stop
         style="stop-color:#666666;stop-opacity:0;"
         offset="1"
         id="stop4723-7" />
    </linearGradient>
    <radialGradient
       inkscape:collect="always"
       xlink:href="#linearGradient4801-8"
       id="radialGradient4041"
       gradientUnits="userSpaceOnUse"
       gradientTransform="matrix(-0.72153181,1.2650715,-2.2729984,-1.2616144,1712.0113,1733.7841)"
       cx="-307.14288"
       cy="782.36218"
       fx="-307.14288"
       fy="782.36218"
       r="63" />
    <linearGradient
       inkscape:collect="always"
       id="linearGradient4801-8">
      <stop
         style="stop-color:#000000;stop-opacity:1;"
         offset="0"
         id="stop4803-2" />
      <stop
         style="stop-color:#000000;stop-opacity:0;"
         offset="1"
         id="stop4805-4" />
    </linearGradient>
    <inkscape:path-effect
       effect="spiro"
       id="path-effect10108-4"
       is_visible="true" />
    <linearGradient
       inkscape:collect="always"
       xlink:href="#linearGradient4719-5"
       id="linearGradient4044"
       gradientUnits="userSpaceOnUse"
       gradientTransform="matrix(-2.4055369,0,0,-1.6485021,142.06168,1726.5307)"
       x1="-145.25935"
       y1="984.24286"
       x2="-64.14286"
       y2="984.14789" />
    <radialGradient
       inkscape:collect="always"
       xlink:href="#linearGradient4801-8"
       id="radialGradient4046"
       gradientUnits="userSpaceOnUse"
       gradientTransform="matrix(0.74628962,-0.90897301,2.3509914,0.90648896,-1165.637,-827.11785)"
       cx="-307.14288"
       cy="782.36218"
       fx="-307.14288"
       fy="782.36218"
       r="63" />
    <inkscape:path-effect
       effect="spiro"
       id="path-effect10102-7"
       is_visible="true" />
    <linearGradient
       inkscape:collect="always"
       xlink:href="#linearGradient4719-5"
       id="linearGradient4049"
       gradientUnits="userSpaceOnUse"
       gradientTransform="matrix(2.334989,0,0,-1.6146975,449.44065,1692.189)"
       x1="-145.25935"
       y1="984.24286"
       x2="-64.14286"
       y2="984.14789" />
    <radialGradient
       inkscape:collect="always"
       xlink:href="#linearGradient4801-8"
       id="radialGradient4051"
       gradientUnits="userSpaceOnUse"
       gradientTransform="matrix(-0.72440295,-0.89033332,-2.2820431,0.88790031,1718.7881,-809.09364)"
       cx="-307.14288"
       cy="782.36218"
       fx="-307.14288"
       fy="782.36218"
       r="63" />
    <inkscape:path-effect
       is_visible="true"
       id="path-effect10096-8"
       effect="spiro" />
    <linearGradient
       inkscape:collect="always"
       xlink:href="#linearGradient4719-5"
       id="linearGradient4054"
       gradientUnits="userSpaceOnUse"
       gradientTransform="matrix(-2.409599,0,0,2.2818507,139.61083,-1810.8163)"
       x1="-145.25935"
       y1="984.24286"
       x2="-64.14286"
       y2="984.14789" />
    <radialGradient
       inkscape:collect="always"
       xlink:href="#linearGradient4801-8"
       id="radialGradient4056"
       gradientUnits="userSpaceOnUse"
       gradientTransform="matrix(0.74754985,1.2581972,2.3549614,-1.2547588,-1170.296,1723.935)"
       cx="-307.14288"
       cy="782.36218"
       fx="-307.14288"
       fy="782.36218"
       r="63" />
    <inkscape:path-effect
       is_visible="true"
       id="path-effect10090-3"
       effect="spiro" />
    <inkscape:path-effect
       effect="spiro"
       id="path-effect10084-1"
       is_visible="true" />
    <inkscape:path-effect
       effect="spiro"
       id="path-effect10082-1"
       is_visible="true" />
    <radialGradient
       inkscape:collect="always"
       xlink:href="#linearGradient4801-8"
       id="radialGradient4061"
       gradientUnits="userSpaceOnUse"
       gradientTransform="matrix(-0.76516322,1.2901254,-2.4104477,-1.2865998,1806.8444,1757.4704)"
       cx="-307.14288"
       cy="782.36218"
       fx="-307.14288"
       fy="782.36218"
       r="63" />
    <inkscape:path-effect
       effect="spiro"
       id="path-effect10080-4"
       is_visible="true" />
    <inkscape:path-effect
       is_visible="true"
       id="path-effect3075-1"
       effect="spiro" />
    <inkscape:path-effect
       effect="spiro"
       id="path-effect3101-7"
       is_visible="true" />
    <linearGradient
       inkscape:collect="always"
       xlink:href="#grad1-7-7"
       id="linearGradient3085-8-8"
       gradientUnits="userSpaceOnUse"
       gradientTransform="matrix(0.77469594,0,0,0.30982404,152.68996,-13.619206)"
       x1="78.877235"
       y1="178.07356"
       x2="301.40585"
       y2="178.07356" />
    <linearGradient
       id="grad1-7-7"
       x1="78.877235"
       y1="178.07356"
       x2="301.40585"
       y2="178.07356"
       gradientTransform="scale(1.577772,0.63380513)"
       gradientUnits="userSpaceOnUse">
      <stop
         offset="0%"
         style="stop-color:#da0;"
         id="stop16-4-4" />
      <stop
         offset="40%"
         style="stop-color:#fd0;"
         id="stop18-0-0" />
      <stop
         offset="60%"
         style="stop-color:#fd0;"
         id="stop20-9-9" />
      <stop
         offset="100%"
         style="stop-color:#da0;"
         id="stop22-4-4" />
    </linearGradient>
    <linearGradient
       inkscape:collect="always"
       xlink:href="#grad1-7-7"
       id="linearGradient3081-8-8"
       gradientUnits="userSpaceOnUse"
       gradientTransform="matrix(0.77469594,0,0,0.30982404,-27.310046,-13.619206)"
       x1="78.877235"
       y1="178.07356"
       x2="301.40585"
       y2="178.07356" />
    <linearGradient
       id="linearGradient3093"
       x1="78.877235"
       y1="178.07356"
       x2="301.40585"
       y2="178.07356"
       gradientTransform="scale(1.577772,0.63380513)"
       gradientUnits="userSpaceOnUse">
      <stop
         offset="0%"
         style="stop-color:#da0;"
         id="stop3095" />
      <stop
         offset="40%"
         style="stop-color:#fd0;"
         id="stop3097" />
      <stop
         offset="60%"
         style="stop-color:#fd0;"
         id="stop3099" />
      <stop
         offset="100%"
         style="stop-color:#da0;"
         id="stop3101" />
    </linearGradient>
    <linearGradient
       y2="178.07356"
       x2="301.40585"
       y1="178.07356"
       x1="78.877235"
       gradientTransform="matrix(0.77469594,0,0,0.30982404,332.68995,-13.619206)"
       gradientUnits="userSpaceOnUse"
       id="linearGradient3128-1"
       xlink:href="#grad1-7-7"
       inkscape:collect="always" />
    <linearGradient
       id="linearGradient3104"
       x1="78.877235"
       y1="178.07356"
       x2="301.40585"
       y2="178.07356"
       gradientTransform="scale(1.577772,0.63380513)"
       gradientUnits="userSpaceOnUse">
      <stop
         offset="0%"
         style="stop-color:#da0;"
         id="stop3106" />
      <stop
         offset="40%"
         style="stop-color:#fd0;"
         id="stop3108" />
      <stop
         offset="60%"
         style="stop-color:#fd0;"
         id="stop3110" />
      <stop
         offset="100%"
         style="stop-color:#da0;"
         id="stop3112" />
    </linearGradient>
    <inkscape:path-effect
       is_visible="true"
       id="path-effect3061"
       effect="spiro" />
  </defs>
  <g
     inkscape:groupmode="layer"
     id="layer2"
     inkscape:label="Elements"
     style="display:inline">
    <path
       inkscape:connector-curvature="0"
       d="m 2,2 v 257 c 0,286 298,398 298,398 0,0 298,-112 298,-398 V 2 z"
       id="path13"
       style="fill:#330088;fill-opacity:1;stroke:none;display:inline" />
    <g
       style="display:inline"
       transform="matrix(1.8216614,0,0,1.8216614,-1182.4506,-69.427676)"
       id="g3461">
      <g
         transform="matrix(0.214968,0,0,0.214893,736.93169,102.67504)"
         id="g2401">
        <path
           inkscape:connector-curvature="0"
           d="m 233.93921,227.5321 -9.59645,-6.56599 c -4.54568,2.27284 -65.15484,-4.04061 -81.06474,-9.59645 C 127.36812,205.81382 95.713418,182.99872 92.517854,180.05493 79.696606,168.24384 58.898753,140.52465 56.884596,137.12345 48.868976,123.58791 36.605028,95.411328 34.495359,80.006501 32.377299,64.540408 30.227592,39.618346 30.732669,38.355656 c 0.505076,-1.262691 1.892614,-5.85192 6.731871,-7.298225 5.444018,-1.62705 28.768498,-8.677082 32.029015,-12.053121 2.608282,-2.700694 29.850213,-24.2018446 34.013425,-38.732426 3.56577,-12.445373 3.70141,-21.187822 3.70141,-30.279195 0,-9.091373 -0.0433,-22.945075 -3.57886,-33.804215 -3.53553,-10.85914 -13.593729,-20.534814 -27.230788,-30.636334 -13.637059,-10.10153 -35.146129,-12.07851 -35.146129,-12.07851 l -115.453257,1.95903 c -0.117138,0.0233 -76.639236,-1.4447 -134.602826,-25.53173 39.02067,110.133287 128.176375,88.469986 142.222298,94.788456 C -188.6945,-17.366063 -245.58739,-14.683456 -257.5,-17.93497 c 0.18642,3.31794 14.9132,20.2501856 31.75751,33.100664 13.62611,10.39532 32.50781,17.471264 41.47855,18.922193 18.81238,3.042718 39.51187,1.888113 61.85082,0.458977 12.49838,-0.799585 52.024274,-13.022705 48.76088,-8.035122 -2.560606,3.913483 -20.119263,16.123189 -41.60547,34.193297 -18.87763,15.876272 -40.75167,38.007096 -62.32935,55.752831 -38.59138,31.738 -78.62978,50.82246 -76.37741,52.99045 12.7381,12.26087 48.17007,20.97725 77.58964,12.3119 12.62925,-3.71987 20.4894,-8.18465 34.28833,-17.72115 10.6626,-7.36898 25.4964,-21.7161 34.29159,-29.65341 16.691362,-15.06328 32.371214,-27.52743 42.223892,-36.153087 -0.03142,6.776087 -5.248689,14.040967 -11.616756,25.758887 -79.802056,148.9975 -170.715776,300.01531 -170.715776,300.01531 76.41386,4.21312 119.58338,-73.49024 156.333708,-121.38785 46.774406,-60.96225 36.091484,-48.20402 46.201874,-61.95484 10.11039,-13.75082 -2.41629,8.6786 -23.738585,60.60916 -25.829549,56.35145 -25.166711,99.5255 -34.453887,158.85949 -7.1605,44.28008 -17.79737,96.78447 -18.07405,90.64818 -0.99848,14.78239 -37.66858,110.17792 -68.18529,190.41376 36.05671,-2.90623 61.93449,-23.85141 81.31728,-43.43656 14.394584,-21.32135 26.345018,-42.99404 35.355336,-65.65991 16.420116,-38.23712 28.310745,-74.84322 40.279492,-109.80759 25.0746068,-73.25059 42.577437,-137.9071 60.230688,-183.64173 l -0.561073,95.10179 c 2.12756,22.72016 -5.341806,126.74617 -9.970014,158.58481 C 5.5785803,669.75019 2.8610615,715.70675 -6.4770953,757.86218 112.19521,739.39901 142.73321,502.35295 139.99502,404.81387 c 9.76481,72.95181 19.52962,143.80009 29.29443,206.07112 23.71641,-13.23839 37.11259,-26.85768 42.93148,-53.53809 5.21912,-73.77611 11.4484,-137.21243 16.66752,-199.50513 l 48.9924,-94.95433 -43.94164,-35.35534 z"
           style="color:#000000;fill:none;stroke:#dcd6d6;stroke-width:5;stroke-linecap:butt;stroke-linejoin:round;stroke-miterlimit:4;stroke-opacity:1;stroke-dashoffset:0;marker:none;visibility:visible;display:inline;overflow:visible"
           id="path2403" />
        <path
           inkscape:connector-curvature="0"
           d="m 481.13209,227.5321 9.59645,-6.56599 c 4.54568,2.27284 65.15484,-4.04061 81.06474,-9.59645 15.9099,-5.55584 47.5646,-28.37094 50.76017,-31.31473 12.82124,-11.81109 33.6191,-39.53028 35.63326,-42.93148 8.01562,-13.53554 20.27957,-41.712122 22.38924,-57.116949 2.11806,-15.466093 4.26776,-40.388155 3.76269,-41.650845 -0.50508,-1.262691 -1.89262,-5.85192 -6.73188,-7.298225 -5.44401,-1.62705 -28.76849,-8.677082 -32.02901,-12.053121 -2.60829,-2.700694 -29.85022,-24.2018444 -34.01343,-38.732426 -3.56577,-12.445373 -3.70141,-21.187822 -3.70141,-30.279195 0,-9.091373 0.0433,-22.945075 3.57886,-33.804215 3.53553,-10.85914 13.59373,-20.534814 27.23079,-30.636334 13.63706,-10.10153 35.14613,-12.07851 35.14613,-12.07851 l 115.45325,1.95903 c 0.11714,0.0233 76.63924,-1.4447 134.60283,-25.53173 -39.02067,110.133287 -128.17637,88.469986 -142.2223,94.788456 122.11333,37.944551 179.00622,40.627158 190.91883,37.375644 -0.18642,3.31794 -14.9132,20.2501858 -31.75751,33.100664 -13.62611,10.39532 -32.50781,17.471264 -41.47855,18.922193 -18.81238,3.042718 -39.51187,1.888113 -61.85082,0.458977 -12.49838,-0.799585 -52.02427,-13.022705 -48.76088,-8.035122 2.56061,3.913483 20.11926,16.123189 41.60547,34.193297 18.87763,15.876272 40.75167,38.007094 62.32935,55.752831 38.59138,31.738 78.62978,50.82246 76.37741,52.99045 -12.7381,12.26087 -48.17007,20.97725 -77.58964,12.3119 -12.62925,-3.71987 -20.4894,-8.18465 -34.28833,-17.72115 -10.6626,-7.36898 -25.4964,-21.7161 -34.29159,-29.65341 -16.69136,-15.06328 -32.37121,-27.52743 -42.22389,-36.153087 0.0314,6.776087 5.24869,14.040967 11.61675,25.758887 79.80206,148.9975 170.71578,300.01531 170.71578,300.01531 -76.41386,4.21312 -119.58338,-73.49024 -156.33371,-121.38785 -46.7744,-60.96225 -36.09148,-48.20402 -46.20187,-61.95484 -10.11039,-13.75082 2.41629,8.6786 23.73858,60.60916 25.82955,56.35145 25.16671,99.5255 34.45389,158.85949 7.1605,44.28008 17.79737,96.78447 18.07405,90.64818 0.99848,14.78239 37.66858,110.17792 68.18529,190.41376 -36.05671,-2.90623 -61.93449,-23.85141 -81.31728,-43.43656 -14.39458,-21.32135 -26.34502,-42.99404 -35.35534,-65.65991 -16.42011,-38.23712 -28.31074,-74.84322 -40.27949,-109.80759 -25.0746,-73.25059 -42.57743,-137.9071 -60.23068,-183.64173 l 0.56107,95.10179 c -2.12756,22.72016 5.34181,126.74617 9.97002,158.58481 11.25334,77.41471 13.97086,123.37127 23.30902,165.5267 C 602.87609,739.39901 572.33809,502.35295 575.07628,404.81387 565.31147,477.76568 555.54666,548.61396 545.78185,610.88499 522.06544,597.6466 508.66926,584.02731 502.85037,557.3469 497.63125,483.57079 491.40197,420.13447 486.18285,357.84177 l -48.9924,-94.95433 43.94164,-35.35534 z"
           style="color:#000000;fill:none;stroke:#dcd6d6;stroke-width:5;stroke-linecap:butt;stroke-linejoin:round;stroke-miterlimit:4;stroke-opacity:1;stroke-dashoffset:0;marker:none;visibility:visible;display:inline;overflow:visible"
           id="path2405" />
      </g>
      <g
         transform="matrix(0.214968,0,0,0.214893,736.93169,102.67504)"
         style="fill:#2b5df2;fill-opacity:1;stroke:#000000;stroke-width:6;stroke-linecap:round;stroke-linejoin:round;stroke-miterlimit:4;stroke-opacity:1;stroke-dasharray:none"
         id="g2407">
        <g
           style="fill:#2b5df2;fill-opacity:1;stroke:#000000;stroke-width:6;stroke-linecap:round;stroke-linejoin:round;stroke-miterlimit:4;stroke-opacity:1;stroke-dasharray:none"
           id="g2409">
          <g
             style="fill:#2b5df2;fill-opacity:1;stroke:#000000;stroke-width:6;stroke-linecap:round;stroke-linejoin:round;stroke-miterlimit:4;stroke-opacity:1;stroke-dasharray:none"
             id="g2411">
            <path
               inkscape:connector-curvature="0"
               d="m -54.394146,887.55938 c 0.09391,-0.57545 0.897716,-23.58027 0.883246,-23.38143 -0.01447,0.19883 -29.91545,-0.7912 -35.069184,0.31029 -8.803997,1.88163 -13.834816,10.90553 -12.435166,26.75461 0.80517,5.25575 1.340056,10.78177 6.06091,12.12183 4.781938,-22.00931 10.590868,-17.09308 15.664363,-17.01564 6.130764,0.0936 24.801922,1.78579 24.895831,1.21034 z"
               style="color:#000000;fill:#dddddd;fill-opacity:1;fill-rule:nonzero;stroke:#000000;stroke-width:6;stroke-linecap:round;stroke-linejoin:round;stroke-miterlimit:4;stroke-opacity:1;stroke-dasharray:none;stroke-dashoffset:0;marker:none;visibility:visible;display:inline;overflow:visible"
               id="path2413" />
            <path
               inkscape:connector-curvature="0"
               d="M 10,792.00504 -5.7142857,807.71932 -21.785714,797.00504 c -5.257448,-5.06681 -14.41703,-6.28283 -26.428572,-3.57143 12.290043,-23.84932 38.058585,-22.58808 44.2857145,-13.92857 L 10,792.00504 z"
               style="color:#000000;fill:#dddddd;fill-opacity:1;fill-rule:nonzero;stroke:#000000;stroke-width:6;stroke-linecap:round;stroke-linejoin:round;stroke-miterlimit:4;stroke-opacity:1;stroke-dasharray:none;stroke-dashoffset:0;marker:none;visibility:visible;display:inline;overflow:visible"
               id="path2415" />
            <path
               inkscape:connector-curvature="0"
               d="m 5.7142857,959.1479 c 13.0032273,-3.15438 4.8198893,-38.55603 -12.5,-25.71429 C -24.105604,946.27535 -43.119976,955.38129 -22.5,985.21933 -21.456816,963.66489 -7.2889414,962.30228 5.7142857,959.1479 z"
               style="color:#000000;fill:#dddddd;fill-opacity:1;fill-rule:nonzero;stroke:#000000;stroke-width:6;stroke-linecap:round;stroke-linejoin:round;stroke-miterlimit:4;stroke-opacity:1;stroke-dasharray:none;stroke-dashoffset:0;marker:none;visibility:visible;display:inline;overflow:visible"
               id="path2417" />
            <path
               inkscape:connector-curvature="0"
               d="m 162.85714,879.50504 c 30.40728,-17.45974 47.33074,-13.73062 51.07143,10.71428 -16.1601,-7.77642 -26.67651,-3.01131 -34.28571,8.21429"
               style="color:#000000;fill:#dddddd;fill-opacity:1;fill-rule:nonzero;stroke:#000000;stroke-width:6;stroke-linecap:round;stroke-linejoin:round;stroke-miterlimit:4;stroke-opacity:1;stroke-dasharray:none;stroke-dashoffset:0;marker:none;visibility:visible;display:inline;overflow:visible"
               id="path2419" />
          </g>
          <path
             inkscape:connector-curvature="0"
             d="M 245.71429,696.6479 211.42857,679.50504 87.142857,850.21932 C 78.674948,838.004 72.269324,819.60182 65,803.79075 L 5.418419,782.7806 c -9.0607222,6.23327 -17.980446,16.97417 -25.714286,30 5.419542,5.80253 12.130711,7.73018 18.8672956,9.58158 9.0476191,-4.92204 18.0952384,-6.8108 27.1428574,-5 11.066084,14.69971 14.535781,25.60122 20.714286,37.85714 -16.766953,-4.38209 -37.4848007,-12.84469 -64.668239,-23.74474 -14.986989,8.8352 -31.229744,20.2915 -50,22.82125 1.661234,3.31333 2.708539,6.54992 3.297099,9.72917 1.954086,10.55548 -1.14866,20.47885 -3.628861,30.48004 4.261983,9.04055 10.795972,5.92144 15.173315,7.56128 25.77484,-21.04235 27.314621,-25.19836 40.714286,-25.71429 26.921126,0.69885 35.91079,3.39009 51.969542,5.29587 -14.777988,15.9363 -31.8919931,34.09593 -52.142857,40 -2.870789,4.67799 -2.565528,10.41466 -1.428571,16.42857 17.2186151,11.50742 9.3343616,18.0578 8.9898472,27.0562 1.97066,2.65448 7.6316731,2.84873 13.5714286,2.85714 14.0234212,-21.743 22.0307412,-21.42695 32.4387242,-29.91334 7.409543,-8.36187 9.654268,-18.66083 17.179946,-24.3106 25.572933,-19.19842 48.295308,-25.57318 68.830208,-22.83226 24.72906,9.96637 39.17152,15.03125 56.84699,15.71429 0.60114,-3.55963 4.07213,-2.3897 2.22952,-10.83684 -7.14286,-1.10706 -14.28572,-15.3033 -21.42858,-25 -17.20492,-0.13089 -35.72971,2.37795 -46.51523,-10.59174 L 245.71429,696.6479 z"
             style="color:#000000;fill:#dddddd;fill-opacity:1;fill-rule:nonzero;stroke:#000000;stroke-width:6;stroke-linecap:round;stroke-linejoin:round;stroke-miterlimit:4;stroke-opacity:1;stroke-dasharray:none;stroke-dashoffset:0;marker:none;visibility:visible;display:inline;overflow:visible"
             id="path2421" />
        </g>
        <g
           transform="matrix(-1,0,0,1,714.467,0)"
           style="fill:#2b5df2;fill-opacity:1;stroke:#000000;stroke-width:6;stroke-linecap:round;stroke-linejoin:round;stroke-miterlimit:4;stroke-opacity:1;stroke-dasharray:none"
           id="g2423">
          <g
             style="fill:#2b5df2;fill-opacity:1;stroke:#000000;stroke-width:6;stroke-linecap:round;stroke-linejoin:round;stroke-miterlimit:4;stroke-opacity:1;stroke-dasharray:none"
             id="g2425">
            <path
               inkscape:connector-curvature="0"
               d="m -54.394146,887.55938 c 0.09391,-0.57545 0.897716,-23.58027 0.883246,-23.38143 -0.01447,0.19883 -29.91545,-0.7912 -35.069184,0.31029 -8.803997,1.88163 -13.834816,10.90553 -12.435166,26.75461 0.80517,5.25575 1.340056,10.78177 6.06091,12.12183 4.781938,-22.00931 10.590868,-17.09308 15.664363,-17.01564 6.130764,0.0936 24.801922,1.78579 24.895831,1.21034 z"
               style="color:#000000;fill:#dddddd;fill-opacity:1;fill-rule:nonzero;stroke:#000000;stroke-width:6;stroke-linecap:round;stroke-linejoin:round;stroke-miterlimit:4;stroke-opacity:1;stroke-dasharray:none;stroke-dashoffset:0;marker:none;visibility:visible;display:inline;overflow:visible"
               id="path2427" />
            <path
               inkscape:connector-curvature="0"
               d="M 10,792.00504 -5.7142857,807.71932 -21.785714,797.00504 c -5.257448,-5.06681 -14.41703,-6.28283 -26.428572,-3.57143 12.290043,-23.84932 38.058585,-22.58808 44.2857145,-13.92857 L 10,792.00504 z"
               style="color:#000000;fill:#dddddd;fill-opacity:1;fill-rule:nonzero;stroke:#000000;stroke-width:6;stroke-linecap:round;stroke-linejoin:round;stroke-miterlimit:4;stroke-opacity:1;stroke-dasharray:none;stroke-dashoffset:0;marker:none;visibility:visible;display:inline;overflow:visible"
               id="path2429" />
            <path
               inkscape:connector-curvature="0"
               d="m 5.7142857,959.1479 c 13.0032273,-3.15438 4.8198893,-38.55603 -12.5,-25.71429 C -24.105604,946.27535 -43.119976,955.38129 -22.5,985.21933 -21.456816,963.66489 -7.2889414,962.30228 5.7142857,959.1479 z"
               style="color:#000000;fill:#dddddd;fill-opacity:1;fill-rule:nonzero;stroke:#000000;stroke-width:6;stroke-linecap:round;stroke-linejoin:round;stroke-miterlimit:4;stroke-opacity:1;stroke-dasharray:none;stroke-dashoffset:0;marker:none;visibility:visible;display:inline;overflow:visible"
               id="path2431" />
            <path
               inkscape:connector-curvature="0"
               d="m 162.85714,879.50504 c 30.40728,-17.45974 47.33074,-13.73062 51.07143,10.71428 -16.1601,-7.77642 -26.67651,-3.01131 -34.28571,8.21429"
               style="color:#000000;fill:#dddddd;fill-opacity:1;fill-rule:nonzero;stroke:#000000;stroke-width:6;stroke-linecap:round;stroke-linejoin:round;stroke-miterlimit:4;stroke-opacity:1;stroke-dasharray:none;stroke-dashoffset:0;marker:none;visibility:visible;display:inline;overflow:visible"
               id="path2433" />
          </g>
          <path
             inkscape:connector-curvature="0"
             d="M 245.71429,696.6479 211.42857,679.50504 87.142857,850.21932 C 78.674948,838.004 72.269324,819.60182 65,803.79075 L 5.418419,782.7806 c -9.0607222,6.23327 -17.980446,16.97417 -25.714286,30 5.419542,5.80253 12.130711,7.73018 18.8672956,9.58158 9.0476191,-4.92204 18.0952384,-6.8108 27.1428574,-5 11.066084,14.69971 14.535781,25.60122 20.714286,37.85714 -16.766953,-4.38209 -37.4848007,-12.84469 -64.668239,-23.74474 -14.986989,8.8352 -31.229744,20.2915 -50,22.82125 1.661234,3.31333 2.708539,6.54992 3.297099,9.72917 1.954086,10.55548 -1.14866,20.47885 -3.628861,30.48004 4.261983,9.04055 10.795972,5.92144 15.173315,7.56128 25.77484,-21.04235 27.314621,-25.19836 40.714286,-25.71429 26.921126,0.69885 35.91079,3.39009 51.969542,5.29587 -14.777988,15.9363 -31.8919931,34.09593 -52.142857,40 -2.870789,4.67799 -2.565528,10.41466 -1.428571,16.42857 17.2186151,11.50742 9.3343616,18.0578 8.9898472,27.0562 1.97066,2.65448 7.6316731,2.84873 13.5714286,2.85714 14.0234212,-21.743 22.0307412,-21.42695 32.4387242,-29.91334 7.409543,-8.36187 9.654268,-18.66083 17.179946,-24.3106 25.572933,-19.19842 48.295308,-25.57318 68.830208,-22.83226 24.72906,9.96637 39.17152,15.03125 56.84699,15.71429 0.60114,-3.55963 4.07213,-2.3897 2.22952,-10.83684 -7.14286,-1.10706 -14.28572,-15.3033 -21.42858,-25 -17.20492,-0.13089 -35.72971,2.37795 -46.51523,-10.59174 L 245.71429,696.6479 z"
             style="color:#000000;fill:#dddddd;fill-opacity:1;fill-rule:nonzero;stroke:#000000;stroke-width:6;stroke-linecap:round;stroke-linejoin:round;stroke-miterlimit:4;stroke-opacity:1;stroke-dasharray:none;stroke-dashoffset:0;marker:none;visibility:visible;display:inline;overflow:visible"
             id="path2435" />
        </g>
      </g>
      <path
         id="path2439"
         style="color:#000000;fill:#dddddd;fill-opacity:1;fill-rule:nonzero;stroke:#000000;stroke-width:1.28958297;stroke-linecap:butt;stroke-linejoin:round;stroke-miterlimit:4;stroke-opacity:1;stroke-dasharray:none;stroke-dashoffset:0;marker:none;visibility:visible;display:inline;overflow:visible"
         d="m 840.3597,151.5701 2.06293,-1.41099 c 0.97717,0.48842 14.0062,-0.8683 17.42632,-2.06221 3.42012,-1.19391 10.22487,-6.09672 10.91181,-6.72932 2.75616,-2.53812 7.22703,-8.49478 7.66001,-9.22567 1.7231,-2.90869 4.35946,-8.96364 4.81297,-12.27403 0.45532,-3.32356 0.91744,-8.67913 0.80886,-8.95048 -0.10858,-0.27134 -0.40685,-1.25753 -1.44714,-1.56834 -1.17029,-0.34964 -6.1843,-1.86464 -6.88521,-2.59013 -0.5607,-0.58036 -6.41684,-5.2008 -7.3118,-8.323324 -0.76652,-2.674424 -0.79568,-4.553115 -0.79568,-6.506787 0,-1.953673 0.009,-4.930736 0.76934,-7.264289 0.76002,-2.333553 2.92221,-4.412788 5.85375,-6.583534 2.93153,-2.170748 7.55529,-2.595587 7.55529,-2.595587 l 24.81875,0.420982 c 0.0252,0.005 16.47499,-0.310456 28.9353,-5.48659 -8.38819,23.666872 -27.55381,19.01158 -30.57324,20.369375 26.25046,8.154019 38.48061,8.730492 41.04144,8.031764 -0.0401,0.713003 -3.20586,4.35162 -6.82685,7.1131 -2.92918,2.23388 -6.98814,3.75445 -8.91656,4.06625 -4.04406,0.65386 -8.49379,0.40574 -13.29595,0.0986 -2.68675,-0.17183 -11.18355,-2.79849 -10.48203,-1.72669 0.55045,0.84098 4.325,3.46476 8.94385,7.3479 4.05809,3.4117 8.7603,8.16746 13.39882,11.98089 8.29591,6.82028 16.90288,10.92139 16.41869,11.38728 -2.73828,2.63477 -10.35502,4.50786 -16.67929,2.64574 -2.71488,-0.79938 -4.40456,-1.75883 -7.37089,-3.80815 -2.29212,-1.58354 -5.48091,-4.66664 -7.37159,-6.37231 -3.58811,-3.237 -6.95878,-5.91545 -9.07679,-7.76905 0.007,1.45614 1.1283,3.01731 2.49723,5.53541 17.15489,32.01852 36.69843,64.47119 36.69843,64.47119 -16.42653,0.90537 -25.7066,-15.79254 -33.60674,-26.0854 -10.055,-13.10036 -7.75852,-10.35871 -9.93193,-13.31366 -2.17341,-2.95496 0.51943,1.86497 5.10304,13.02448 5.55252,12.10953 5.41004,21.38733 7.40648,34.13779 1.53928,9.51548 3.82587,20.79831 3.88534,19.47966 0.21464,3.17663 8.09754,23.67647 14.65766,40.91859 -7.75104,-0.62453 -13.31393,-5.1255 -17.48061,-9.33422 -3.09438,-4.58181 -5.66334,-9.23911 -7.60027,-14.10985 -3.5298,-8.21689 -6.0859,-16.08329 -8.6588,-23.59688 -5.39024,-15.74104 -9.15279,-29.63527 -12.94767,-39.46333 l 0.12061,20.43671 c -0.45736,4.88241 1.14832,27.23687 2.14323,34.07877 2.41911,16.63588 3.00329,26.51162 5.0107,35.57053 -25.51075,-3.96761 -32.07544,-54.90715 -31.48682,-75.86761 -2.09912,15.67683 -4.19824,30.90163 -6.29736,44.28324 -5.09827,-2.84484 -7.97802,-5.77153 -9.2289,-11.50496 -1.12194,-15.85397 -2.46104,-29.48599 -3.58298,-42.87226 l -10.5318,-20.40502 9.44605,-7.59761 z"
         inkscape:connector-curvature="0" />
      <path
         id="path2441"
         style="color:#000000;fill:#dddddd;fill-opacity:1;fill-rule:nonzero;stroke:#000000;stroke-width:1.28958297;stroke-linecap:butt;stroke-linejoin:round;stroke-miterlimit:4;stroke-opacity:1;stroke-dasharray:none;stroke-dashoffset:0;marker:none;visibility:visible;display:inline;overflow:visible"
         d="m 787.22114,151.5701 -2.06293,-1.41099 c -0.97718,0.48842 -14.00621,-0.8683 -17.42633,-2.06221 -3.42012,-1.19391 -10.22486,-6.09672 -10.91181,-6.72932 -2.75616,-2.53812 -7.22703,-8.49478 -7.66001,-9.22567 -1.7231,-2.90869 -4.35946,-8.96364 -4.81297,-12.27403 -0.45532,-3.32356 -0.91743,-8.67913 -0.80886,-8.95048 0.10858,-0.27134 0.40685,-1.25753 1.44714,-1.56834 1.17029,-0.34964 6.1843,-1.86464 6.88521,-2.59013 0.5607,-0.58036 6.41684,-5.2008 7.3118,-8.323324 0.76653,-2.674424 0.79569,-4.553115 0.79569,-6.506787 0,-1.953673 -0.009,-4.930736 -0.76934,-7.264289 -0.76003,-2.333553 -2.92222,-4.412788 -5.85375,-6.583534 -2.93153,-2.170748 -7.5553,-2.595587 -7.5553,-2.595587 l -24.81875,0.420982 c -0.0252,0.005 -16.47498,-0.310456 -28.9353,-5.48659 8.38819,23.666872 27.55382,19.01158 30.57324,20.369375 -26.25046,8.154019 -38.48061,8.730492 -41.04144,8.031764 0.0401,0.713003 3.20586,4.35162 6.82685,7.1131 2.92918,2.23388 6.98814,3.75445 8.91656,4.06625 4.04406,0.65386 8.49379,0.40574 13.29595,0.0986 2.68675,-0.17183 11.18355,-2.79849 10.48203,-1.72669 -0.55045,0.84098 -4.325,3.46476 -8.94385,7.3479 -4.05808,3.4117 -8.7603,8.16746 -13.39881,11.98089 -8.29591,6.82028 -16.90289,10.92139 -16.4187,11.38728 2.73828,2.63477 10.35502,4.50786 16.67929,2.64574 2.71488,-0.79938 4.40456,-1.75883 7.37089,-3.80815 2.29212,-1.58354 5.48091,-4.66664 7.3716,-6.37231 3.5881,-3.237 6.95877,-5.91545 9.07678,-7.76905 -0.007,1.45614 -1.1283,3.01731 -2.49723,5.53541 -17.15489,32.01852 -36.69843,64.47119 -36.69843,64.47119 16.42654,0.90537 25.7066,-15.79254 33.60675,-26.0854 10.055,-13.10036 7.75851,-10.35871 9.93192,-13.31366 2.17341,-2.95496 -0.51942,1.86497 -5.10303,13.02448 -5.55253,12.10953 -5.41004,21.38733 -7.40649,34.13779 -1.53928,9.51548 -3.82586,20.79831 -3.88534,19.47966 -0.21464,3.17663 -8.09754,23.67647 -14.65766,40.91859 7.75104,-0.62453 13.31394,-5.1255 17.48062,-9.33422 3.09437,-4.58181 5.66333,-9.23911 7.60026,-14.10985 3.5298,-8.21689 6.08591,-16.08329 8.65881,-23.59688 5.39023,-15.74104 9.15278,-29.63527 12.94766,-39.46333 l -0.12061,20.43671 c 0.45736,4.88241 -1.14832,27.23687 -2.14323,34.07877 -2.41911,16.63588 -3.00329,26.51162 -5.0107,35.57053 25.51075,-3.96761 32.07545,-54.90715 31.48682,-75.86761 2.09912,15.67683 4.19825,30.90163 6.29737,44.28324 5.09827,-2.84484 7.97802,-5.77153 9.22889,-11.50496 1.12195,-15.85397 2.46104,-29.48599 3.58299,-42.87226 l 10.53179,-20.40502 -9.44604,-7.59761 z"
         inkscape:connector-curvature="0" />
      <path
         id="path2447"
         style="color:#000000;fill:#dddddd;fill-opacity:1;fill-rule:nonzero;stroke:#000000;stroke-width:1.28958297;stroke-linecap:round;stroke-linejoin:round;stroke-miterlimit:4;stroke-opacity:1;stroke-dasharray:none;stroke-dashoffset:0;marker:none;visibility:visible;display:inline;overflow:visible"
         d="m 695.93422,104.25712 c 9.14367,0.87432 18.91001,-1.05243 28.86713,-3.83737"
         inkscape:connector-curvature="0" />
      <path
         id="path2449"
         style="color:#000000;fill:#dddddd;fill-opacity:1;fill-rule:nonzero;stroke:#000000;stroke-width:1.28958297;stroke-linecap:round;stroke-linejoin:round;stroke-miterlimit:4;stroke-opacity:1;stroke-dasharray:none;stroke-dashoffset:0;marker:none;visibility:visible;display:inline;overflow:visible"
         d="m 722.34458,115.30876 c -19.53186,19.69716 -22.9416,21.02902 -25.18197,21.02882"
         inkscape:connector-curvature="0" />
      <path
         id="path2451"
         style="color:#000000;fill:#dddddd;fill-opacity:1;fill-rule:nonzero;stroke:#000000;stroke-width:1.28958297;stroke-linecap:round;stroke-linejoin:round;stroke-miterlimit:4;stroke-opacity:1;stroke-dasharray:none;stroke-dashoffset:0;marker:none;visibility:visible;display:inline;overflow:visible"
         d="m 696.24132,183.61404 c 7.37661,-10.98208 11.36004,-14.96132 30.70971,-50.65335"
         inkscape:connector-curvature="0" />
      <path
         id="path2453"
         style="color:#000000;fill:#dddddd;fill-opacity:1;fill-rule:nonzero;stroke:#000000;stroke-width:1.28958297;stroke-linecap:round;stroke-linejoin:round;stroke-miterlimit:4;stroke-opacity:1;stroke-dasharray:none;stroke-dashoffset:0;marker:none;visibility:visible;display:inline;overflow:visible"
         d="m 712.67102,237.95127 c 7.80691,-19.59277 14.97461,-50.89658 22.41809,-77.39218"
         inkscape:connector-curvature="0" />
      <path
         id="path2455"
         style="color:#000000;fill:#fcef3c;fill-opacity:1;fill-rule:nonzero;stroke:#000000;stroke-width:1.28958297;stroke-linecap:round;stroke-linejoin:round;stroke-miterlimit:4;stroke-opacity:1;stroke-dasharray:none;stroke-dashoffset:0;marker:none;visibility:visible;display:inline;overflow:visible"
         d="m 747.68009,242.24913 c 2.01055,-9.00335 4.87381,-38.87628 7.67743,-68.88856"
         inkscape:connector-curvature="0" />
      <path
         id="path2457"
         style="color:#000000;fill:#fcef3c;fill-opacity:1;fill-rule:nonzero;stroke:#000000;stroke-width:1.28958297;stroke-linecap:round;stroke-linejoin:round;stroke-miterlimit:4;stroke-opacity:1;stroke-dasharray:none;stroke-dashoffset:0;marker:none;visibility:visible;display:inline;overflow:visible"
         d="m 775.16528,219.07138 0,-36.53181"
         inkscape:connector-curvature="0" />
      <path
         id="path2461"
         style="color:#000000;fill:none;stroke:#000000;stroke-width:1.28958297;stroke-linecap:round;stroke-linejoin:round;stroke-miterlimit:4;stroke-opacity:1;stroke-dasharray:none;stroke-dashoffset:0;marker:none;visibility:visible;display:inline;overflow:visible"
         d="m 732.01814,116.07624 c -5.56223,2.62878 -12.90635,5.17659 -1.07484,8.59572 -7.7474,4.18717 -8.53151,7.67826 4.14581,9.82367 -2.08517,-0.41925 -22.1931,9.1927 2.76387,7.21427 -15.29132,13.50067 -4.2953,12.13202 2.61033,8.59572 -13.34689,9.80559 -2.36964,15.01316 6.60259,7.67475 -11.7783,18.36186 5.60409,16.7028 8.59872,5.98631 -4.0627,11.68353 6.93932,23.315 11.97678,3.0699 -1.04795,22.2904 11.36611,15.81323 13.51228,2.9164"
         inkscape:connector-curvature="0" />
      <path
         id="path2463"
         style="color:#000000;fill:#fcef3c;fill-opacity:1;fill-rule:nonzero;stroke:#000000;stroke-width:1.28958297;stroke-linecap:round;stroke-linejoin:round;stroke-miterlimit:4;stroke-opacity:1;stroke-dasharray:none;stroke-dashoffset:0;marker:none;visibility:visible;display:inline;overflow:visible"
         d="m 731.71104,120.83458 -2.14968,0"
         inkscape:connector-curvature="0" />
      <path
         id="path2465"
         style="color:#000000;fill:#fcef3c;fill-opacity:1;fill-rule:nonzero;stroke:#000000;stroke-width:1.28958297;stroke-linecap:round;stroke-linejoin:round;stroke-miterlimit:4;stroke-opacity:1;stroke-dasharray:none;stroke-dashoffset:0;marker:none;visibility:visible;display:inline;overflow:visible"
         d="m 732.93943,128.66283 -4.29936,1.22796"
         inkscape:connector-curvature="0" />
      <path
         id="path2467"
         style="color:#000000;fill:#fcef3c;fill-opacity:1;fill-rule:nonzero;stroke:#000000;stroke-width:1.28958297;stroke-linecap:round;stroke-linejoin:round;stroke-miterlimit:4;stroke-opacity:1;stroke-dasharray:none;stroke-dashoffset:0;marker:none;visibility:visible;display:inline;overflow:visible"
         d="M 736.16395,137.41204 731.25039,138.64"
         inkscape:connector-curvature="0" />
      <path
         id="path2469"
         style="color:#000000;fill:#fcef3c;fill-opacity:1;fill-rule:nonzero;stroke:#000000;stroke-width:1.28958297;stroke-linecap:round;stroke-linejoin:round;stroke-miterlimit:4;stroke-opacity:1;stroke-dasharray:none;stroke-dashoffset:0;marker:none;visibility:visible;display:inline;overflow:visible"
         d="m 739.38847,145.39378 -4.14581,2.60942"
         inkscape:connector-curvature="0" />
      <path
         id="path2471"
         style="color:#000000;fill:#fcef3c;fill-opacity:1;fill-rule:nonzero;stroke:#000000;stroke-width:1.28958297;stroke-linecap:round;stroke-linejoin:round;stroke-miterlimit:4;stroke-opacity:1;stroke-dasharray:none;stroke-dashoffset:0;marker:none;visibility:visible;display:inline;overflow:visible"
         d="m 743.84138,152.45455 -4.76001,5.21883"
         inkscape:connector-curvature="0" />
      <path
         id="path2473"
         style="color:#000000;fill:#fcef3c;fill-opacity:1;fill-rule:nonzero;stroke:#000000;stroke-width:1.28958297;stroke-linecap:round;stroke-linejoin:round;stroke-miterlimit:4;stroke-opacity:1;stroke-dasharray:none;stroke-dashoffset:0;marker:none;visibility:visible;display:inline;overflow:visible"
         d="m 751.5188,159.36183 -3.68516,6.60028"
         inkscape:connector-curvature="0" />
      <path
         id="path2475"
         style="color:#000000;fill:#fcef3c;fill-opacity:1;fill-rule:nonzero;stroke:#000000;stroke-width:1.28958297;stroke-linecap:round;stroke-linejoin:round;stroke-miterlimit:4;stroke-opacity:1;stroke-dasharray:none;stroke-dashoffset:0;marker:none;visibility:visible;display:inline;overflow:visible"
         d="m 762.5743,164.27367 -2.91742,8.74921"
         inkscape:connector-curvature="0" />
      <path
         id="path2477"
         style="color:#000000;fill:#fcef3c;fill-opacity:1;fill-rule:nonzero;stroke:#000000;stroke-width:1.28958297;stroke-linecap:round;stroke-linejoin:round;stroke-miterlimit:4;stroke-opacity:1;stroke-dasharray:none;stroke-dashoffset:0;marker:none;visibility:visible;display:inline;overflow:visible"
         d="m 774.55109,168.87852 -1.53549,7.06077"
         inkscape:connector-curvature="0" />
      <path
         id="path2479"
         style="color:#000000;fill:#dddddd;fill-opacity:1;fill-rule:nonzero;stroke:#000000;stroke-width:1.28958297;stroke-linecap:round;stroke-linejoin:round;stroke-miterlimit:4;stroke-opacity:1;stroke-dasharray:none;stroke-dashoffset:0;marker:none;visibility:visible;display:inline;overflow:visible"
         d="m 732.93943,84.763255 c -9.93367,-1.418081 -22.05276,-1.925888 -27.4852,-5.218829"
         inkscape:connector-curvature="0" />
      <path
         id="path2483"
         style="color:#000000;fill:#dddddd;fill-opacity:1;fill-rule:nonzero;stroke:#000000;stroke-width:1.28958297;stroke-linecap:round;stroke-linejoin:round;stroke-miterlimit:4;stroke-opacity:1;stroke-dasharray:none;stroke-dashoffset:0;marker:none;visibility:visible;display:inline;overflow:visible"
         d="m 931.93839,104.25712 c -9.14367,0.87432 -18.91001,-1.05243 -28.86713,-3.83737"
         inkscape:connector-curvature="0" />
      <path
         id="path2485"
         style="color:#000000;fill:#dddddd;fill-opacity:1;fill-rule:nonzero;stroke:#000000;stroke-width:1.28958297;stroke-linecap:round;stroke-linejoin:round;stroke-miterlimit:4;stroke-opacity:1;stroke-dasharray:none;stroke-dashoffset:0;marker:none;visibility:visible;display:inline;overflow:visible"
         d="m 905.52803,115.30876 c 19.53186,19.69716 22.9416,21.02902 25.18197,21.02882"
         inkscape:connector-curvature="0" />
      <path
         id="path2487"
         style="color:#000000;fill:#dddddd;fill-opacity:1;fill-rule:nonzero;stroke:#000000;stroke-width:1.28958297;stroke-linecap:round;stroke-linejoin:round;stroke-miterlimit:4;stroke-opacity:1;stroke-dasharray:none;stroke-dashoffset:0;marker:none;visibility:visible;display:inline;overflow:visible"
         d="m 931.63129,183.61404 c -7.37661,-10.98208 -11.36004,-14.96132 -30.70971,-50.65335"
         inkscape:connector-curvature="0" />
      <path
         id="path2489"
         style="color:#000000;fill:#dddddd;fill-opacity:1;fill-rule:nonzero;stroke:#000000;stroke-width:1.28958297;stroke-linecap:round;stroke-linejoin:round;stroke-miterlimit:4;stroke-opacity:1;stroke-dasharray:none;stroke-dashoffset:0;marker:none;visibility:visible;display:inline;overflow:visible"
         d="M 915.20159,237.95127 C 907.39468,218.3585 900.22698,187.05469 892.7835,160.55909"
         inkscape:connector-curvature="0" />
      <path
         id="path2491"
         style="color:#000000;fill:#dddddd;fill-opacity:1;fill-rule:nonzero;stroke:#000000;stroke-width:1.28958297;stroke-linecap:round;stroke-linejoin:round;stroke-miterlimit:4;stroke-opacity:1;stroke-dasharray:none;stroke-dashoffset:0;marker:none;visibility:visible;display:inline;overflow:visible"
         d="m 880.19252,242.24913 c -2.01055,-9.00335 -4.87381,-38.87628 -7.67743,-68.88856"
         inkscape:connector-curvature="0" />
      <path
         id="path2493"
         style="color:#000000;fill:#dddddd;fill-opacity:1;fill-rule:nonzero;stroke:#000000;stroke-width:1.28958297;stroke-linecap:round;stroke-linejoin:round;stroke-miterlimit:4;stroke-opacity:1;stroke-dasharray:none;stroke-dashoffset:0;marker:none;visibility:visible;display:inline;overflow:visible"
         d="m 852.70733,219.07138 0,-36.53181"
         inkscape:connector-curvature="0" />
      <path
         id="path2497"
         style="color:#000000;fill:none;stroke:#000000;stroke-width:1.28958297;stroke-linecap:round;stroke-linejoin:round;stroke-miterlimit:4;stroke-opacity:1;stroke-dasharray:none;stroke-dashoffset:0;marker:none;visibility:visible;display:inline;overflow:visible"
         d="m 895.85447,116.07624 c 5.56223,2.62878 12.90635,5.17659 1.07484,8.59572 7.7474,4.18717 8.53151,7.67826 -4.14581,9.82367 2.08517,-0.41925 22.1931,9.1927 -2.76387,7.21427 15.29132,13.50067 4.2953,12.13202 -2.61033,8.59572 13.34689,9.80559 2.36964,15.01316 -6.60259,7.67475 11.7783,18.36186 -5.60409,16.7028 -8.59872,5.98631 4.0627,11.68353 -6.93932,23.315 -11.97678,3.0699 1.04795,22.2904 -11.36611,15.81323 -13.51228,2.9164"
         inkscape:connector-curvature="0" />
      <path
         id="path2499"
         style="color:#000000;fill:#fcef3c;fill-opacity:1;fill-rule:nonzero;stroke:#000000;stroke-width:1.28958297;stroke-linecap:round;stroke-linejoin:round;stroke-miterlimit:4;stroke-opacity:1;stroke-dasharray:none;stroke-dashoffset:0;marker:none;visibility:visible;display:inline;overflow:visible"
         d="m 896.16157,120.83458 2.14968,0"
         inkscape:connector-curvature="0" />
      <path
         id="path2501"
         style="color:#000000;fill:#fcef3c;fill-opacity:1;fill-rule:nonzero;stroke:#000000;stroke-width:1.28958297;stroke-linecap:round;stroke-linejoin:round;stroke-miterlimit:4;stroke-opacity:1;stroke-dasharray:none;stroke-dashoffset:0;marker:none;visibility:visible;display:inline;overflow:visible"
         d="m 894.93318,128.66283 4.29936,1.22796"
         inkscape:connector-curvature="0" />
      <path
         id="path2503"
         style="color:#000000;fill:#fcef3c;fill-opacity:1;fill-rule:nonzero;stroke:#000000;stroke-width:1.28958297;stroke-linecap:round;stroke-linejoin:round;stroke-miterlimit:4;stroke-opacity:1;stroke-dasharray:none;stroke-dashoffset:0;marker:none;visibility:visible;display:inline;overflow:visible"
         d="m 891.70866,137.41204 4.91356,1.22796"
         inkscape:connector-curvature="0" />
      <path
         id="path2505"
         style="color:#000000;fill:#fcef3c;fill-opacity:1;fill-rule:nonzero;stroke:#000000;stroke-width:1.28958297;stroke-linecap:round;stroke-linejoin:round;stroke-miterlimit:4;stroke-opacity:1;stroke-dasharray:none;stroke-dashoffset:0;marker:none;visibility:visible;display:inline;overflow:visible"
         d="m 888.48414,145.39378 4.14581,2.60942"
         inkscape:connector-curvature="0" />
      <path
         id="path2507"
         style="color:#000000;fill:#fcef3c;fill-opacity:1;fill-rule:nonzero;stroke:#000000;stroke-width:1.28958297;stroke-linecap:round;stroke-linejoin:round;stroke-miterlimit:4;stroke-opacity:1;stroke-dasharray:none;stroke-dashoffset:0;marker:none;visibility:visible;display:inline;overflow:visible"
         d="m 884.03123,152.45455 4.76001,5.21883"
         inkscape:connector-curvature="0" />
      <path
         id="path2509"
         style="color:#000000;fill:#fcef3c;fill-opacity:1;fill-rule:nonzero;stroke:#000000;stroke-width:1.28958297;stroke-linecap:round;stroke-linejoin:round;stroke-miterlimit:4;stroke-opacity:1;stroke-dasharray:none;stroke-dashoffset:0;marker:none;visibility:visible;display:inline;overflow:visible"
         d="m 876.35381,159.36183 3.68516,6.60028"
         inkscape:connector-curvature="0" />
      <path
         id="path2511"
         style="color:#000000;fill:#fcef3c;fill-opacity:1;fill-rule:nonzero;stroke:#000000;stroke-width:1.28958297;stroke-linecap:round;stroke-linejoin:round;stroke-miterlimit:4;stroke-opacity:1;stroke-dasharray:none;stroke-dashoffset:0;marker:none;visibility:visible;display:inline;overflow:visible"
         d="m 865.29831,164.27367 2.91742,8.74921"
         inkscape:connector-curvature="0" />
      <path
         id="path2513"
         style="color:#000000;fill:#fcef3c;fill-opacity:1;fill-rule:nonzero;stroke:#000000;stroke-width:1.28958297;stroke-linecap:round;stroke-linejoin:round;stroke-miterlimit:4;stroke-opacity:1;stroke-dasharray:none;stroke-dashoffset:0;marker:none;visibility:visible;display:inline;overflow:visible"
         d="m 853.32152,168.87852 1.53549,7.06077"
         inkscape:connector-curvature="0" />
      <path
         id="path2515"
         style="color:#000000;fill:#dddddd;fill-opacity:1;fill-rule:nonzero;stroke:#000000;stroke-width:1.28958297;stroke-linecap:round;stroke-linejoin:round;stroke-miterlimit:4;stroke-opacity:1;stroke-dasharray:none;stroke-dashoffset:0;marker:none;visibility:visible;display:inline;overflow:visible"
         d="m 894.62608,84.763255 c 9.93367,-1.418081 22.05276,-1.925888 27.48519,-5.218829"
         inkscape:connector-curvature="0" />
      <g
         transform="matrix(0.214968,0,0,0.214893,736.93169,102.67504)"
         id="g2517">
        <g
           style="fill:#2b5df2;fill-opacity:1;display:inline"
           id="g2519">
          <path
             inkscape:connector-curvature="0"
             d="m 363.65492,-39.107647 c 9.4999,3.108878 14.325,-30.964712 -10.6066,-24.243661 -71.73261,23.686382 -118.84923,35.649081 -125.25892,-9.596449 -3.42472,-12.371442 -25.61562,-19.476746 -19.69797,5.050763 32.33447,76.3741672 89.51986,12.666023 155.56349,28.789347 z"
             style="color:#000000;fill:#dddddd;fill-opacity:1;fill-rule:nonzero;stroke:#000000;stroke-width:6;stroke-linecap:butt;stroke-linejoin:round;stroke-miterlimit:4;stroke-opacity:1;stroke-dasharray:none;stroke-dashoffset:0;marker:none;visibility:visible;display:inline;overflow:visible"
             id="path2521" />
          <path
             inkscape:connector-curvature="0"
             d="M 419.71838,-92.645731 380.82751,16.450744 C 320.54656,-11.793896 283.3614,-19.107977 266.1752,-8.2979936 276.88758,-22.114947 290.67739,-48.29773 365.17015,-17.894443 353.87958,-51.342487 268.41922,-86.966752 252.53814,-50.219324 c -22.07134,-52.033096 1.02649,-75.751196 69.19545,-71.215756 l 97.98479,28.789349 z"
             style="color:#000000;fill:#dddddd;fill-opacity:1;fill-rule:nonzero;stroke:#000000;stroke-width:6;stroke-linecap:round;stroke-linejoin:round;stroke-miterlimit:4;stroke-opacity:1;stroke-dasharray:none;stroke-dashoffset:0;marker:none;visibility:visible;display:inline;overflow:visible"
             id="path2523" />
        </g>
        <path
           inkscape:connector-curvature="0"
           d="m 259.10413,190.70206 c -64.64375,20.64399 -13.50953,10.73546 -16.96127,15.23155 -40.37675,12.93121 -14.29061,159.72099 14.28571,362.14286 -5.47619,22.95582 -10.95238,34.61167 -16.42857,46.42857 -9.37197,12.32484 -28.10876,36.94031 -55.71429,58.57143 L 195,678.79075 180,694.50504 c 24.22528,16.42434 61.94369,7.21174 69.28571,55.71428 1.23867,-39.7342 8.69209,-16.80458 17.14286,-7.85714 1.36246,-57.49995 25.38099,-78.21898 45,-102.85714 1.53047,29.29579 16.20937,82.63994 -27.14285,130.71428 -33.89556,16.24843 -68.57374,11.36626 -100.71429,75 22.14825,-5.71277 19.11779,-18.47558 84.28571,-12.14285 l 41.42858,-24.28572 c -8.54885,30.15266 9.89179,57.16328 -98.57143,107.14286 C 134.02995,933.46153 80.269592,966.27209 55,1018.0765 c 41.873832,-20.80516 86.14578,-34.09662 142.85714,-45.00003 59.94579,-33.2583 73.22641,-54.38275 103.57143,-85 -8.62229,23.23117 -13.31891,43.3218 -30.71428,73.57143 -36.49037,36.49146 -86.74493,54.7945 -72.85715,157.8571 45.95344,-73.6956 80.22763,-63.0398 129.28572,-237.14282 8.57745,38.0802 17.67208,74.86743 11.42857,150.00002 -11.18894,35.8089 -9.76524,66.5727 -47.14286,112.8571 l 34.28572,-8.5714 31.82136,96 31.82136,-96 34.28572,8.5714 c -37.37762,-46.2844 -35.95392,-77.0482 -47.14286,-112.8571 -6.24351,-75.13259 2.85112,-111.91982 11.42857,-150.00002 49.05809,174.10302 83.33228,163.44722 129.28572,237.14282 13.88778,-103.0626 -36.36678,-121.36564 -72.85715,-157.8571 -17.39537,-30.24963 -22.09199,-50.34026 -30.71428,-73.57143 30.34502,30.61725 43.62564,51.7417 103.57143,85 56.71136,10.90341 100.98331,24.19487 142.85714,45.00003 C 634.80171,966.27209 581.04135,933.46153 504.35701,915.93361 395.89379,865.95403 414.33443,838.94341 405.78558,808.79075 l 41.42858,24.28572 c 65.16792,-6.33273 62.13746,6.43008 84.28571,12.14285 -32.14055,-63.63374 -66.81873,-58.75157 -100.71429,-75 -43.35222,-48.07434 -28.67332,-101.41849 -27.14285,-130.71428 19.61901,24.63816 43.63754,45.35719 45,102.85714 8.45077,-8.94744 15.90419,-31.87706 17.14286,7.85714 7.34202,-48.50254 45.06043,-39.28994 69.28571,-55.71428 l -15,-15.71429 10.71429,-5.71428 c -27.60553,-21.63112 -46.34232,-46.24659 -55.71429,-58.57143 -5.47619,-11.8169 -10.95238,-23.47275 -16.42857,-46.42857 28.57632,-202.42187 54.66246,-349.21165 14.28571,-362.14286 -8.84256,-4.73232 8.77008,3.30369 -12.21222,-6.34939 46.54392,9.33221 25.57489,4.75686 11.02502,-6.35678 -43.13868,-42.40265 -8.53649,-18.7986 3.74475,-17.19797 C 444.39585,121.82785 460.3596,91.39045 466.69048,70.493905 l 9.59645,26.263966 11.40754,-50.630179 21.42241,19.31545 c -4.32558,-22.463006 -8.17548,-45.74146 -18.9583,-57.1348946 17.98458,4.0843446 30.75067,3.8297606 32.9549,2.7523926 4.6809,-2.2878985 -18.93471,-12.2286884 -19.82292,-28.511283 15.33901,1.731771 22.71505,-0.816115 34.40095,-13.808693 3.56927,-3.968375 -16.66901,4.247843 -15.79978,1.661481 -44.6276,-41.507782 -3.45008,-21.667082 -1.77521,-29.922052 -63.24416,-34.577264 -14.24951,-23.310507 -17.38179,-33.335034 -47.00232,-20.780869 -29.44346,-9.799449 -10.24947,-36.217559 -10.76897,3.06729 -26.12978,7.3579 -45.99783,4.10189 0.14997,-3.985 -35.35667,-13.66677 -90.77454,-14.77899 -19.35833,-0.38852 -32.19013,1.1171 -33.47423,20.33483 71.13681,83.505177 70.54203,116.2269277 34.34519,123.7436832 8.58536,17.1390788 14.65649,27.1485848 12.07197,32.5197728 -4.35045,9.041169 -27.62795,16.915557 -78.39541,45.619116 23.90119,8.300326 75.95336,-18.500033 0.21973,31.166798 -49.50213,23.40135 -10.92823,14.15942 5.49456,13.42785 -12.14952,18.04248 -25.97595,35.93252 -48.48733,53.03301 l 11.61676,10.6066 z"
           style="color:#000000;fill:#dddddd;fill-opacity:1;fill-rule:nonzero;stroke:#000000;stroke-width:6;stroke-linecap:butt;stroke-linejoin:round;stroke-miterlimit:4;stroke-opacity:1;stroke-dasharray:none;stroke-dashoffset:0;marker:none;visibility:visible;display:inline;overflow:visible"
           id="path2525" />
        <g
           id="g2527">
          <path
             inkscape:connector-curvature="0"
             d="m 382.32141,-97.459259 22.94397,1.696429 0.0918,21.160722 -23.03575,0 0,-22.857151 z"
             style="fill:#ffffff;fill-opacity:1;fill-rule:nonzero;stroke:none"
             id="path2529" />
          <path
             inkscape:connector-curvature="0"
             d="m 374.56431,-121.62601 c -1.15479,0.34734 -2.66105,-1.28094 -3.32324,-3.70881 -0.49401,5.1617 -0.76593,10.63431 -0.0805,17.44725 1.28712,3.72996 2.96495,6.48311 4.72334,9.034891 -0.60288,3.56257 -1.99905,8.752497 -2.02047,11.571783 -0.0546,7.182341 2.93093,10.253295 7.23029,15.124646 6.11765,6.931556 13.88409,6.109418 27.26491,4.117969 0.78069,-0.11619 2.37733,3.139036 2.79759,3.274888 1.00046,0.323413 3.15589,2.400485 3.60888,0.168942 0.17122,-0.843421 -0.0542,-2.528484 0.58189,-3.653183 1.26913,-2.244004 1.40791,-7.05979 1.4253,-7.404152 0.21886,-4.61971 1.00062,-1.612052 -0.84462,-4.619057 -2.07966,-3.389018 -6.98951,-12.656726 -10.1777,-15.635407 -5.12082,-4.78431 -19.40996,-11.98361 -27.47995,-12.77828 -0.98601,-0.0971 -0.87561,-2.36967 -1.72013,-2.72352 -2.8824,-1.20771 -1.49202,-7.56026 -1.98561,-10.21796 z m 10.52498,24.795653 c 5.57315,1.648376 9.31207,2.968353 12.61072,5.14188 0.83493,0.550149 1.80879,0.904285 2.58124,1.625977 0.24066,0.224847 -0.12821,0.683331 -0.38956,0.836907 -0.61434,0.361007 -1.8566,1.421353 -4.60325,0.406671 -1.07963,-0.398842 0.88861,-3.219148 0.64108,-3.776435 -0.9379,-2.111521 -5.47787,-4.912531 -6.79778,-2.596308 -5.79352,10.166653 0.43573,15.112907 6.1808,14.4382 2.06898,-0.242983 6.95474,-2.763335 8.43082,-1.949169 2.58931,1.428196 0.9347,4.514208 1.06468,4.506205 -9.26264,2.985219 -11.49593,4.270001 -16.6875,0.147322 -3.58036,-2.843191 -7.38066,-3.927903 -3.03125,-18.78125 z"
             style="color:#000000;fill:#000000;fill-opacity:1;fill-rule:nonzero;stroke:none;stroke-width:8;marker:none;visibility:visible;display:inline;overflow:visible"
             id="path2531" />
        </g>
      </g>
    </g>
  </g>
  <g
     inkscape:groupmode="layer"
     id="layer1"
     inkscape:label="Cover"
     style="display:inline"
     sodipodi:insensitive="true">
    <path
       d="m 2,2 v 257 c 0,286 298,398 298,398 0,0 298,-112 298,-398 V 2 z"
       id="shine"
       inkscape:connector-curvature="0"
       style="fill:url(#radialGradient3074);stroke:#000000;stroke-width:3" />
  </g>
</svg>
