<?xml version="1.0" encoding="UTF-8"?>
<svg xmlns="http://www.w3.org/2000/svg" xmlns:xlink="http://www.w3.org/1999/xlink" width="600" height="600">
<defs>
  <radialGradient id="rg" gradientUnits="userSpaceOnUse" cx="220" cy="220" r="405">
    <stop style="stop-color:#fff;stop-opacity:.3" offset="0"/>
    <stop style="stop-color:#fff;stop-opacity:.2" offset=".2"/>
    <stop style="stop-color:#666;stop-opacity:.1" offset=".6"/>
    <stop style="stop-color:#000;stop-opacity:.13" offset="1"/>
  </radialGradient>
  <linearGradient id="grad1" x1="0%" y1="0%" x2="100%" y2="0%">
    <stop offset="0%" style="stop-color:#da0;" />
    <stop offset="40%" style="stop-color:#fd0;" />
    <stop offset="60%" style="stop-color:#fd0;" />
    <stop offset="100%" style="stop-color:#da0;" />
  </linearGradient>
  <circle id="shield" cx="300" cy="300" r="298"/>
</defs>
<use id="background" xlink:href="#shield" fill="#000"/>
<g fill="#fff" stroke="#000" stroke-width="1">
  <path d="m 221.39774,374.57664 c 5.26471,12.58543 10.84511,25.87064 11.37174,38.7679 -2.42142,10.40118 -1.6846,22.67479 0.94775,32.45231 3.36996,13.41748 16.53176,29.33105 29.69432,34.63584 13.47747,4.83629 21.90118,6.08509 36.95783,6.08509 15.0574,-2e-5 23.48033,-1.24806 36.64213,-6.55285 13.16259,-5.30478 26.48222,-20.75061 29.85216,-34.1681 2.63237,-9.77752 3.36919,-22.05112 0.94778,-32.4523 0.52662,-12.89727 6.107,-26.68802 11.37173,-39.27346"/>
  <path fill="#fff" d="m 203.69966,331.05433 c -14.52085,-13.94442 -24.66937,-38.14459 -26.07774,-64.27795 -1.52903,-28.79886 13.82426,-57.39541 36.83106,-73.69809 25.77649,-17.92201 68.87543,-22.87867 95.67406,-21.54105 18.15184,0.0115 58.58578,9.30993 72.85851,19.80967 25.03665,17.9825 38.4633,43.50562 39.39361,72.5968 1.37574,29.22088 -11.08339,51.47739 -26.33955,65.36786" />
  <path fill="#fff" d="m 396.10927,248.69397 c 5.88241,5.08363 5.14028,12.72561 4.08096,24.13047 -0.83623,8.66514 -6.43331,17.19462 -6.72774,25.11092 -2.05791,16.7044 2.9412,33.40877 5.29432,47.06312 1.61782,15.68721 -2.94196,29.19614 -8.82361,34.4252 -5.88165,5.15711 -16.64632,7.9268 -21.45045,9.69656 -5.59784,1.93467 -11.32166,5.44045 -16.48771,9.47769 -6.21479,5.91269 -8.25868,27.36816 -8.14047,34.30998 -10.86198,6.4411 -23.77554,4.82005 -43.04512,4.91679 -17.2974,0.30734 -33.19182,2.25965 -44.26568,-4.47816 0.24172,-6.94397 -1.31613,-27.77571 -7.84658,-34.62463 -5.48175,-4.03724 -9.2402,-7.29341 -16.48773,-9.16586 -7.97677,-2.40391 -15.5688,-4.53945 -21.45043,-9.69656 -5.88167,-5.22908 -10.44145,-18.73799 -8.82362,-34.42521 2.35311,-13.65434 7.35224,-30.35873 5.29431,-47.06311 -0.29442,-7.9163 -5.89152,-16.44579 -6.72772,-25.11094 -1.05934,-11.40484 -1.80146,-19.04682 4.08095,-24.13046"/>
  <path fill="#000" stroke="none" d="m 365.37537,307.06776 c -10.21376,-1.76824 -20.11111,-2.9121 -30.32488,-4.05595 -13.37277,-3.32891 -20.11189,11.75339 -16.42628,23.09079 4.63262,10.08934 11.16079,18.93065 18.63672,27.45936 5.79135,6.44863 12.69058,7.49204 19.26958,5.30403 5.31026,-1.45419 10.21454,-4.67963 15.47926,-12.16868 2.31593,-6.44939 4.31619,-9.77826 7.26499,-17.78678 2.31593,-7.38485 -1.28622,-18.43967 -13.89939,-21.84277 z m -130.58004,0 c 10.21377,-1.76824 20.11111,-2.9121 30.32488,-4.05595 13.37276,-3.32891 20.1119,11.75339 16.42628,23.09079 -4.63263,10.08934 -11.16079,18.93065 -18.63671,27.45936 -5.79136,6.44863 -12.6906,7.49204 -19.2696,5.30403 -5.31025,-1.45419 -10.21454,-4.67963 -15.47926,-12.16868 -2.31593,-6.44939 -4.31618,-9.77826 -7.26498,-17.78678 -2.31592,-7.38485 1.28622,-18.43967 13.89939,-21.84277 z"/>
  <path fill="#000" stroke="none" d="m 248.71976,427.45061 c -5.1456,-17.09559 -7.35286,-23.15071 -12.72554,-36.1047 0.14665,-0.48754 6.7385,2.92598 10.73686,5.91926 3.14226,2.35238 6.06294,7.69047 7.58519,11.81068 1.29539,3.50622 1.38549,4.832 1.34642,19.81219 -0.0194,7.45525 -0.10045,5.4655 -0.18027,7.40764 l -0.14484,3.53115 c -2.04669,-1.98089 -5.32338,-8.07563 -6.61782,-12.37622 z m 106.29597,-1.38504 c 4.14312,-17.36581 3.76804,-21.76567 9.14072,-34.71966 -0.14665,-0.48754 -6.7385,2.92598 -10.73686,5.91926 -3.14226,2.35238 -6.06294,7.69047 -7.58519,11.81068 -1.29539,3.50622 -1.38549,4.832 -1.34642,19.81219 0.0194,7.45525 0.10045,5.4655 0.18027,7.40764 l 0.14484,3.53115 c 2.04669,-1.98089 8.82674,-7.99415 10.20264,-13.76126 z"/>
  <path fill="#000" stroke="none" d="m 302.4283,349.1567 c 7.35755,5.52665 8.99435,7.38262 13.06013,13.49842 1.47136,2.36044 4.21906,7.8766 4.9703,11.57726 0.75046,3.69993 1.31275,9.06842 1.31048,11.91157 -0.008,9.63435 -3.11345,15.67823 -6.50388,15.46761 -3.02923,-0.34334 -12.72818,-7.09294 -12.72548,-10.55111 0.0115,-13.86731 -0.15093,-23.80712 -0.11147,-41.90375 z m -5.09199,0 c -7.35755,5.52665 -8.99435,7.38262 -13.06013,13.49842 -1.47136,2.36044 -4.21906,7.8766 -4.9703,11.57726 -0.75046,3.69993 -1.31275,9.06842 -1.31048,11.91157 0.008,9.63435 3.11345,15.67823 6.50388,15.46761 3.02923,-0.34334 12.72818,-7.09294 12.72548,-10.55111 -0.0115,-13.86731 0.15093,-23.80712 0.11147,-41.90375 z"/>
  <g id="teeth">
    <path d="m 344.72086,430.40813 c -0.2303,-1.2555 -6.51853,-2.12531 -7.25258,-0.62184 l 0.33732,8.70547 c 1.67103,4.63509 3.83895,4.69012 6.40926,1.03639 l 0.506,-9.12002 z"/>
    <path d="m 339.64404,432.68511 c -0.23028,-1.25549 -6.51854,-2.12527 -7.25259,-0.62183 l 0.33732,8.70548 c 1.67103,4.63506 3.83896,4.69013 6.4093,1.03637 l 0.50597,-9.12002 z"/>
    <path d="m 335.29251,435.28736 c -0.2303,-1.25549 -6.51858,-2.12527 -7.25261,-0.62181 l 0.33731,8.70546 c 1.67103,4.63507 3.83895,4.69013 6.4093,1.03639 l 0.506,-9.12004 z"/>
    <path d="m 330.06418,437.41439 c -0.21396,-1.41089 -6.05645,-2.38832 -6.73846,-0.69878 l 0.31341,9.78296 c 1.55257,5.20875 3.5668,5.2706 5.95489,1.16466 l 0.47016,-10.24884 z"/>
    <path d="m 325.13894,438.6489 c -0.24195,-1.52254 -6.84448,-2.57734 -7.61525,-0.7541 l 0.35419,10.55713 c 1.75457,5.62097 4.03091,5.68772 6.72977,1.25683 l 0.53129,-11.05986 z"/>
    <path d="m 317.5217,440.73743 c -0.24171,-1.47306 -6.84271,-2.49356 -7.61327,-0.72956 l 0.35412,10.21399 c 1.7541,5.43823 4.02984,5.50281 6.728,1.21593 l 0.53115,-10.70036 z"/>
    <path d="m 310.19049,441.52837 c -0.32887,-1.59738 -9.30696,-2.704 -10.35497,-0.79114 l 0.4816,11.07595 c 2.38581,5.89722 5.48108,5.96724 9.15091,1.31859 l 0.72246,-11.6034 z"/>
    <path d="m 255.14891,430.40813 c 0.23028,-1.2555 6.51854,-2.12531 7.2526,-0.62184 l -0.33733,8.70547 c -1.67103,4.63509 -3.83896,4.69012 -6.40928,1.03639 l -0.50599,-9.12002 z"/>
    <path d="m 260.22574,432.68511 c 0.23028,-1.25549 6.51855,-2.12527 7.25259,-0.62183 l -0.33733,8.70548 c -1.67102,4.63506 -3.83895,4.69013 -6.40928,1.03637 l -0.50598,-9.12002 z"/>
    <path d="m 264.57727,435.28736 c 0.2303,-1.25549 6.51857,-2.12527 7.25261,-0.62181 l -0.33731,8.70546 c -1.67103,4.63507 -3.83897,4.69013 -6.4093,1.03639 l -0.506,-9.12004 z"/>
    <path d="m 269.80561,437.41439 c 0.21395,-1.41089 6.05643,-2.38832 6.73845,-0.69878 l -0.3134,9.78296 c -1.55258,5.20875 -3.56681,5.2706 -5.95492,1.16466 l -0.47013,-10.24884 z"/>
    <path d="m 274.73081,438.6489 c 0.24195,-1.52254 6.84451,-2.57734 7.61525,-0.7541 l -0.3542,10.55713 c -1.75455,5.62097 -4.03087,5.68772 -6.72973,1.25683 l -0.53132,-11.05986 z"/>
    <path d="m 282.34808,440.73743 c 0.24171,-1.47306 6.84271,-2.49356 7.61325,-0.72956 l -0.3541,10.21399 c -1.7541,5.43823 -4.02984,5.50281 -6.728,1.21593 l -0.53115,-10.70036 z"/>
    <path d="m 289.67928,441.52837 c 0.32888,-1.59738 9.30695,-2.704 10.35498,-0.79114 l -0.48158,11.07595 c -2.38582,5.89722 -5.48109,5.96724 -9.15092,1.31859 l -0.72248,-11.6034 z"/>
    <path d="m 344.14969,429.77125 c -0.22121,1.30484 -6.25826,2.20887 -6.96297,0.64626 l 0.32385,-9.04775 c 1.60428,-4.81731 3.68565,-4.87452 6.15333,-1.07712 l 0.48579,9.47861 z"/>
    <path d="m 339.27561,431.46163 c -0.22121,1.30486 -6.25823,2.20885 -6.96297,0.64625 l 0.32386,-9.04772 c 1.60427,-4.81733 3.68564,-4.87454 6.15332,-1.07714 l 0.48579,9.47861 z"/>
    <path d="m 335.09785,433.53659 c -0.22122,1.56325 -6.25824,2.64626 -6.963,0.77424 l 0.32384,-10.83952 c 1.60432,-5.7713 3.68569,-5.83988 6.15337,-1.29044 l 0.48579,11.35572 z"/>
    <path d="m 330.92011,436.70856 c -0.30959,2.04778 -8.76152,3.46648 -9.74817,1.01422 l 0.45343,-14.19911 c 2.24596,-7.56004 5.15986,-7.64983 8.61462,-1.69038 l 0.68012,14.87527 z"/>
    <path d="m 322.56458,438.80989 c -0.30963,1.98317 -8.76155,3.3571 -9.74819,0.98223 l 0.45342,-13.75118 c 2.24598,-7.32154 5.15989,-7.4085 8.61464,-1.63703 l 0.68013,14.40598 z"/>
    <path d="m 314.55718,441.44158 c -0.47545,2.04779 -13.45522,3.46645 -14.97039,1.01423 l 0.6963,-14.19908 c 3.44919,-7.56008 7.92409,-7.64986 13.22963,-1.69041 l 1.04446,14.87526 z"/>
    <path d="m 255.72007,429.77125 c 0.22121,1.30484 6.25826,2.20887 6.96297,0.64626 l -0.32386,-9.04775 c -1.60427,-4.81731 -3.68562,-4.87452 -6.1533,-1.07712 l -0.48581,9.47861 z"/>
    <path d="m 260.59414,431.46163 c 0.22123,1.30486 6.25824,2.20885 6.96299,0.64625 l -0.32387,-9.04772 c -1.60428,-4.81733 -3.68565,-4.87454 -6.15333,-1.07714 l -0.48579,9.47861 z"/>
    <path d="m 264.77193,433.53659 c 0.22123,1.56325 6.25824,2.64626 6.96299,0.77424 l -0.32387,-10.83952 c -1.60429,-5.7713 -3.68567,-5.83988 -6.15335,-1.29044 l -0.48577,11.35572 z"/>
    <path d="m 268.94965,436.70856 c 0.3096,2.04778 8.76155,3.46648 9.74816,1.01422 l -0.45342,-14.19911 c -2.24598,-7.56004 -5.15987,-7.64983 -8.61463,-1.69038 l -0.68011,14.87527 z"/>
    <path d="m 277.30519,438.80989 c 0.30961,1.98317 8.76154,3.3571 9.74818,0.98223 l -0.4534,-13.75118 c -2.24599,-7.32154 -5.15989,-7.4085 -8.61465,-1.63703 l -0.68013,14.40598 z"/>
    <path d="m 285.31258,441.44158 c 0.47544,2.04779 13.4552,3.46645 14.97041,1.01423 l -0.69633,-14.19908 c -3.44919,-7.56008 -7.92409,-7.64986 -13.22963,-1.69041 l -1.04445,14.87526 z"/>
  </g>
  <path fill="url(#grad1)" d="m 124.9503,130.86893 52.51492,122.53478 c 87.52484,-26.25746 157.54472,-26.25746 245.06956,0 l 52.51492,-122.53478 -61.26739,26.25744 c 26.25745,43.76242 -26.25747,70.01988 -52.51491,26.25744 -26.25746,26.25747 -52.51492,0 -43.76244,-17.50496 L 335.00994,148.37389 300,113.36394 l -35.00994,35.00995 17.50498,17.50496 c 8.75248,17.50496 -17.50498,43.76243 -43.76244,17.50496 -26.25744,43.76244 -78.77236,17.50498 -52.51491,-26.25744 L 124.9503,130.86893 Z" />
</g>
<use id="shine" xlink:href="#shield" fill="url(#rg)" stroke="#000" stroke-width="3"/>
</svg>