<?xml version="1.0" encoding="UTF-8" standalone="no"?>
<svg
   xmlns:dc="http://purl.org/dc/elements/1.1/"
   xmlns:cc="http://creativecommons.org/ns#"
   xmlns:rdf="http://www.w3.org/1999/02/22-rdf-syntax-ns#"
   xmlns:svg="http://www.w3.org/2000/svg"
   xmlns="http://www.w3.org/2000/svg"
   xmlns:xlink="http://www.w3.org/1999/xlink"
   xmlns:sodipodi="http://sodipodi.sourceforge.net/DTD/sodipodi-0.dtd"
   xmlns:inkscape="http://www.inkscape.org/namespaces/inkscape"
   width="600"
   height="660"
   id="svg2"
   version="1.1"
   inkscape:version="0.48.2 r9819"
   sodipodi:docname="House_Clegane.svg">
  <metadata
     id="metadata20">
    <rdf:RDF>
      <cc:Work
         rdf:about="">
        <dc:format>image/svg+xml</dc:format>
        <dc:type
           rdf:resource="http://purl.org/dc/dcmitype/StillImage" />
        <dc:title></dc:title>
      </cc:Work>
    </rdf:RDF>
  </metadata>
  <sodipodi:namedview
     pagecolor="#ffffff"
     bordercolor="#666666"
     borderopacity="1"
     objecttolerance="10"
     gridtolerance="10"
     guidetolerance="10"
     inkscape:pageopacity="0"
     inkscape:pageshadow="2"
     inkscape:window-width="1366"
     inkscape:window-height="715"
     id="namedview18"
     showgrid="false"
     inkscape:zoom="0.50568849"
     inkscape:cx="302.74256"
     inkscape:cy="184.78058"
     inkscape:window-x="-8"
     inkscape:window-y="-8"
     inkscape:window-maximized="1"
     inkscape:current-layer="svg2" />
  <defs
     id="defs4">
    <radialGradient
       id="rg"
       gradientUnits="userSpaceOnUse"
       cx="220"
       cy="220"
       r="405">
      <stop
         style="stop-color:#fff;stop-opacity:.3"
         offset="0"
         id="stop7" />
      <stop
         style="stop-color:#eee;stop-opacity:.2"
         offset=".2"
         id="stop9" />
      <stop
         style="stop-color:#666;stop-opacity:.1"
         offset=".6"
         id="stop11" />
      <stop
         style="stop-color:#000;stop-opacity:.13"
         offset="1"
         id="stop13" />
    </radialGradient>
    <path
       id="shield"
       d="m2,2v257c0,286 298,398 298,398c0,0 298-112 298-398V2z" />
  </defs>
  <use
     xlink:href="#shield"
     id="use16"
     style="fill:#ffdd00"
     x="0"
     y="0"
     width="1"
     height="1" />
  <g
     id="g3478"
     transform="matrix(0.59259816,0,0,0.59259816,527.1972,173.77169)">
    <g
       id="use27"
       transform="matrix(0.6403672,0,0,0.6473046,-826.34924,-329.73323)"
       style="fill:none;stroke:#000000;stroke-width:6.74993658;stroke-linecap:round;stroke-linejoin:round;stroke-opacity:1">
      <path
         inkscape:connector-curvature="0"
         style="fill:#008800;fill-opacity:1;stroke-width:6.74993658"
         d="m 123.03125,143.4375 c -10.72242,0.56968 -25.933509,22.15152 -39.5625,42.125 -14.4494,21.17581 -16.28249,26.55184 -18.53125,43.09375 -1.942401,14.28839 1.35018,23.16067 0,34.4375 -10.029871,2.31453 -18.90685,-1.16217 -30.09375,6.9375 C 34.332032,257.30101 21.25933,244.57399 12.875,231.84375 l 21.96875,-17.375 c 7.277272,-0.87902 5.85587,-5.26455 3.96875,-7.71875 -2.087639,-2.71497 -9.08236,-2.24361 -8.9375,2.84375 L 11.71875,221.4375 c 4.56202,-14.27331 5.7684,-28.57045 6.9375,-42.84375 4.18276,-1.95195 1.57058,-6.22231 -0.90625,-7.34375 -2.46137,-1.11443 -6.4408,0.63621 -4.875,3.875 -1.66224,10.67658 -1.72256,21.99449 -6.9375,31.25 -3.17214,7.83761 -6.9165,4.11346 -10.4375,4.625 -0.2112601,-5.87177 1.7519,-11.40815 -0.875,-17.625 -2.4100502,-9.64412 -8.95704,-19.29338 -15.1875,-28.9375 2.75992,-4.26276 -0.94931,-7.04562 -5.40625,-4.40625 -5.2622,3.11624 -2.53319,6.03535 0.34375,7.15625 9.32281,11.76336 12.39392,27.58572 13.125,37.84375 -5.86716,-10.65643 -12.76665,-14.06313 -19.15625,-21.0625 0.98079,-3.92316 -2.92448,-5.17762 -5.5,-2.25 -2.45295,2.78831 -0.68205,6.00262 1.46875,6.15625 0.193941,-0.0582 8.69364,7.60942 12.625,19.59375 4.01575,12.2416 2.45813,2.75708 9.65625,25.65625 7.8188995,22.38703 14.56815,44.94525 32.0625,65.84375 17.40142,3.54263 46.20762,-6.97735 50.3125,-1.5 7.668752,10.23281 2.81104,2.69827 -1.15625,16.21875 -5.230571,17.82569 -6.34375,55.875 -6.34375,55.875 10e-7,-10e-6 -34.60971,-16.02758 -43.96875,-6.9375 -13.0575009,12.68226 -5.78125,52.0625 -5.78125,52.0625 C 8.0185496,392.82808 1.16491,373.12604 3,348.65625 c 1.1748799,-0.43286 3.11889,-5.58889 -2.0625,-6 -5.89468,-0.46771 -3.92428,4.95837 -3.125,5.15625 l 2.46875,41.40625 C -6.8199,374.6065 -14.15003,360.01851 -20.75,345.40625 c 0.477111,-1.94754 1.5153,-8.45528 -5.3125,-5.34375 -5.479521,2.49711 -2.42859,7.28173 -0.5625,7.3125 6.402539,12.41265 11.44065,24.80608 14.03125,37.21875 -4.16251,4.53975 -17.7104,-9.29756 -26.96875,-14.3125 -0.43333,-5.02093 -5.21561,-5.07897 -6.65625,-2 -2.225919,4.75732 3.72943,6.35404 4.5,5.96875 0,-10e-6 20.71857,13.53697 29.125,25.40625 11.74603025,16.58456 -1.45115,23.38545 13.09375,48.875 16.70561,29.27616 38.47644,56.06713 59.8125,64.53125 7.8927,3.13109 17.18522,0.64257 20.125,-18.53125 3.336569,-21.76177 -10.520333,-56.48313 -20.25,-73.34375 -1.124573,-1.73545 -2.248298,-3.50604 -3.34375,-5.34375 1.019303,1.46138 2.164902,3.30091 3.34375,5.34375 14.106367,21.76902 30.769254,35.76062 56.84375,47.90625 2.7045,1.25978 4.27708,2.41724 5.65625,3.125 l 0,0.34375 c 0.9337,0.29316 1.68539,0.38165 2.375,0.34375 0.68961,0.0379 1.4413,-0.0506 2.375,-0.34375 l 0,-0.34375 c 1.37917,-0.70776 2.95175,-1.86522 5.65625,-3.125 C 159.19848,456.93404 175.88322,442.93739 190,421.125 c 1.1627,-2.01098 2.27461,-3.83803 3.28125,-5.28125 -1.07952,1.81098 -2.1735,3.56962 -3.28125,5.28125 -9.73178,16.83186 -23.6541,51.61172 -20.3125,73.40625 2.93978,19.17382 12.20105,21.66234 20.09375,18.53125 21.33606,-8.46412 43.13813,-35.25509 59.84375,-64.53125 14.5449,-25.48955 1.34773,-32.29044 13.09375,-48.875 8.40643,-11.86928 29.12499,-25.40626 29.125,-25.40625 0.77057,0.38529 6.72593,-1.21143 4.5,-5.96875 -1.44064,-3.07897 -6.25416,-3.02093 -6.6875,2 -9.25835,5.01494 -22.77498,18.85225 -26.9375,14.3125 2.5906,-12.41267 7.59745,-24.8061 14,-37.21875 1.86609,-0.0308 4.94827,-4.81539 -0.53125,-7.3125 -6.8278,-3.11153 -5.78963,3.39621 -5.3125,5.34375 -6.59997,14.61226 -13.9301,29.20025 -21.03125,43.8125 l 2.4375,-41.40625 c 0.79928,-0.19788 2.80094,-5.62396 -3.09375,-5.15625 -5.18139,0.41111 -3.23738,5.56714 -2.0625,6 1.83509,24.46979 -5.01854,44.17183 -8.71875,66.03125 0,0 7.27626,-39.38024 -5.78125,-52.0625 -9.35904,-9.09008 -44,6.93749 -44,6.9375 0,0 -1.08193,-38.04931 -6.3125,-55.875 -3.96729,-13.52048 -8.825,-5.98594 -1.15625,-16.21875 4.10488,-5.47735 32.91108,5.04263 50.3125,1.5 17.49435,-20.8985 24.24361,-43.45672 32.0625,-65.84375 7.19812,-22.89917 5.64051,-13.41465 9.65625,-25.65625 3.93136,-11.98433 12.43106,-19.65192 12.625,-19.59375 2.1508,-0.15363 3.9217,-3.36794 1.46875,-6.15625 -2.57552,-2.92762 -6.4808,-1.67316 -5.5,2.25 -6.3896,6.99937 -13.32033,10.40607 -19.1875,21.0625 0.73108,-10.25803 3.80218,-26.08039 13.125,-37.84375 2.87694,-1.1209 5.63721,-4.04001 0.375,-7.15625 -4.45694,-2.63937 -8.19743,0.14349 -5.4375,4.40625 -6.23046,9.64412 -12.77745,19.29338 -15.1875,28.9375 -2.6269,6.21685 -0.66375,11.75323 -0.875,17.625 -3.521,-0.51154 -7.23412,3.21261 -10.40625,-4.625 -5.21494,-9.25551 -5.27526,-20.57342 -6.9375,-31.25 1.5658,-3.23879 -2.41364,-4.98943 -4.875,-3.875 -2.47683,1.12144 -5.08901,5.3918 -0.90625,7.34375 1.1691,14.2733 2.37549,28.57044 6.9375,42.84375 l -18.1875,-11.84375 c 0.14486,-5.08736 -6.84986,-5.55872 -8.9375,-2.84375 -1.88712,2.4542 -3.30852,6.83973 3.96875,7.71875 l 22,17.375 c -8.38433,12.73024 -21.48828,25.45726 -22,38.1875 -11.1869,-8.09967 -20.06388,-4.62297 -30.09375,-6.9375 -1.35018,-11.27683 1.9424,-20.14911 0,-34.4375 -2.24876,-16.54191 -4.05061,-21.91794 -18.5,-43.09375 -14.50987,-21.26443 -30.82561,-44.32023 -41.59375,-41.9375 -0.65428,-0.14496 -1.3376,-0.22435 -2.03125,-0.1875 z"
         id="path3018" />
      <path
         inkscape:connector-curvature="0"
         style="fill:#e9f5e9;stroke-width:7.08743286"
         d="m 154.20946,189.31 c 0.84639,18.39542 11.10566,25.36394 20.83129,34.14019 3.57277,-3.57278 5.44508,-16.22059 1.44662,-25.17116 -3.69935,-8.28101 -16.35367,-11.58844 -22.27791,-8.96903 z m -58.30601,0 c -0.84639,18.39542 -11.10566,25.36394 -20.83129,34.14019 -3.57277,-3.57278 -5.44508,-16.22059 -1.44662,-25.17116 3.69935,-8.28101 16.35367,-11.58844 22.27791,-8.96903 z"
         id="path3020" />
      <path
         inkscape:connector-curvature="0"
         d="m 169.25428,233.57651 c -4.92335,14.02282 -1.42706,25.70686 7.52241,35.87612 m -38.47882,-68.97261 c -5.16715,19.51084 10.30635,32.00303 22.91326,31.9149 m -80.3525,1.18159 c 4.92335,14.02282 1.42706,25.70686 -7.52241,35.87612 m 38.47882,-68.97261 c 5.16715,19.51084 -10.30635,32.00303 -22.91326,31.9149"
         id="path3022"
         style="stroke-width:6.74993658" />
      <path
         inkscape:connector-curvature="0"
         d="m 221.0432,386.33935 c -12.24114,8.16995 -20.69466,18.86498 -28.35371,30.08965 m 45.71313,-1.73594 c -3.90829,20.44392 -13.89392,36.45051 -24.59251,52.36756 m -63.07253,-26.47311 c 13.42989,-19.08261 27.08603,-37.82585 36.02078,-63.65118 M 136.56072,154.30185 c 1.96265,11.462 4.5729,22.64647 11.86227,31.82559 M 29.06971,386.33935 c 12.24114,8.16995 20.69466,18.86498 28.35371,30.08965 m -45.71313,-1.73594 c 3.90829,20.44392 13.89392,36.45051 24.59251,52.36756 M 99.37533,440.58751 C 85.94544,421.5049 72.2893,402.76166 63.35455,376.93633 m 50.19764,-222.63448 c -1.96265,11.462 -4.5729,22.64647 -11.86227,31.82559"
         id="path3024"
         style="stroke-width:6.74993658" />
    </g>
    <g
       style="fill:none;stroke:#000000;stroke-width:6.74993658;stroke-linecap:round;stroke-linejoin:round;stroke-opacity:1"
       transform="matrix(0.6403672,0,0,0.6473046,-584.43481,-329.73323)"
       id="g3238">
      <path
         id="path3240"
         d="m 123.03125,143.4375 c -10.72242,0.56968 -25.933509,22.15152 -39.5625,42.125 -14.4494,21.17581 -16.28249,26.55184 -18.53125,43.09375 -1.942401,14.28839 1.35018,23.16067 0,34.4375 -10.029871,2.31453 -18.90685,-1.16217 -30.09375,6.9375 C 34.332032,257.30101 21.25933,244.57399 12.875,231.84375 l 21.96875,-17.375 c 7.277272,-0.87902 5.85587,-5.26455 3.96875,-7.71875 -2.087639,-2.71497 -9.08236,-2.24361 -8.9375,2.84375 L 11.71875,221.4375 c 4.56202,-14.27331 5.7684,-28.57045 6.9375,-42.84375 4.18276,-1.95195 1.57058,-6.22231 -0.90625,-7.34375 -2.46137,-1.11443 -6.4408,0.63621 -4.875,3.875 -1.66224,10.67658 -1.72256,21.99449 -6.9375,31.25 -3.17214,7.83761 -6.9165,4.11346 -10.4375,4.625 -0.2112601,-5.87177 1.7519,-11.40815 -0.875,-17.625 -2.4100502,-9.64412 -8.95704,-19.29338 -15.1875,-28.9375 2.75992,-4.26276 -0.94931,-7.04562 -5.40625,-4.40625 -5.2622,3.11624 -2.53319,6.03535 0.34375,7.15625 9.32281,11.76336 12.39392,27.58572 13.125,37.84375 -5.86716,-10.65643 -12.76665,-14.06313 -19.15625,-21.0625 0.98079,-3.92316 -2.92448,-5.17762 -5.5,-2.25 -2.45295,2.78831 -0.68205,6.00262 1.46875,6.15625 0.193941,-0.0582 8.69364,7.60942 12.625,19.59375 4.01575,12.2416 2.45813,2.75708 9.65625,25.65625 7.8188995,22.38703 14.56815,44.94525 32.0625,65.84375 17.40142,3.54263 46.20762,-6.97735 50.3125,-1.5 7.668752,10.23281 2.81104,2.69827 -1.15625,16.21875 -5.230571,17.82569 -6.34375,55.875 -6.34375,55.875 10e-7,-10e-6 -34.60971,-16.02758 -43.96875,-6.9375 -13.0575009,12.68226 -5.78125,52.0625 -5.78125,52.0625 C 8.0185496,392.82808 1.16491,373.12604 3,348.65625 c 1.1748799,-0.43286 3.11889,-5.58889 -2.0625,-6 -5.89468,-0.46771 -3.92428,4.95837 -3.125,5.15625 l 2.46875,41.40625 C -6.8199,374.6065 -14.15003,360.01851 -20.75,345.40625 c 0.477111,-1.94754 1.5153,-8.45528 -5.3125,-5.34375 -5.479521,2.49711 -2.42859,7.28173 -0.5625,7.3125 6.402539,12.41265 11.44065,24.80608 14.03125,37.21875 -4.16251,4.53975 -17.7104,-9.29756 -26.96875,-14.3125 -0.43333,-5.02093 -5.21561,-5.07897 -6.65625,-2 -2.225919,4.75732 3.72943,6.35404 4.5,5.96875 0,-10e-6 20.71857,13.53697 29.125,25.40625 11.74603025,16.58456 -1.45115,23.38545 13.09375,48.875 16.70561,29.27616 38.47644,56.06713 59.8125,64.53125 7.8927,3.13109 17.18522,0.64257 20.125,-18.53125 3.336569,-21.76177 -10.520333,-56.48313 -20.25,-73.34375 -1.124573,-1.73545 -2.248298,-3.50604 -3.34375,-5.34375 1.019303,1.46138 2.164902,3.30091 3.34375,5.34375 14.106367,21.76902 30.769254,35.76062 56.84375,47.90625 2.7045,1.25978 4.27708,2.41724 5.65625,3.125 l 0,0.34375 c 0.9337,0.29316 1.68539,0.38165 2.375,0.34375 0.68961,0.0379 1.4413,-0.0506 2.375,-0.34375 l 0,-0.34375 c 1.37917,-0.70776 2.95175,-1.86522 5.65625,-3.125 C 159.19848,456.93404 175.88322,442.93739 190,421.125 c 1.1627,-2.01098 2.27461,-3.83803 3.28125,-5.28125 -1.07952,1.81098 -2.1735,3.56962 -3.28125,5.28125 -9.73178,16.83186 -23.6541,51.61172 -20.3125,73.40625 2.93978,19.17382 12.20105,21.66234 20.09375,18.53125 21.33606,-8.46412 43.13813,-35.25509 59.84375,-64.53125 14.5449,-25.48955 1.34773,-32.29044 13.09375,-48.875 8.40643,-11.86928 29.12499,-25.40626 29.125,-25.40625 0.77057,0.38529 6.72593,-1.21143 4.5,-5.96875 -1.44064,-3.07897 -6.25416,-3.02093 -6.6875,2 -9.25835,5.01494 -22.77498,18.85225 -26.9375,14.3125 2.5906,-12.41267 7.59745,-24.8061 14,-37.21875 1.86609,-0.0308 4.94827,-4.81539 -0.53125,-7.3125 -6.8278,-3.11153 -5.78963,3.39621 -5.3125,5.34375 -6.59997,14.61226 -13.9301,29.20025 -21.03125,43.8125 l 2.4375,-41.40625 c 0.79928,-0.19788 2.80094,-5.62396 -3.09375,-5.15625 -5.18139,0.41111 -3.23738,5.56714 -2.0625,6 1.83509,24.46979 -5.01854,44.17183 -8.71875,66.03125 0,0 7.27626,-39.38024 -5.78125,-52.0625 -9.35904,-9.09008 -44,6.93749 -44,6.9375 0,0 -1.08193,-38.04931 -6.3125,-55.875 -3.96729,-13.52048 -8.825,-5.98594 -1.15625,-16.21875 4.10488,-5.47735 32.91108,5.04263 50.3125,1.5 17.49435,-20.8985 24.24361,-43.45672 32.0625,-65.84375 7.19812,-22.89917 5.64051,-13.41465 9.65625,-25.65625 3.93136,-11.98433 12.43106,-19.65192 12.625,-19.59375 2.1508,-0.15363 3.9217,-3.36794 1.46875,-6.15625 -2.57552,-2.92762 -6.4808,-1.67316 -5.5,2.25 -6.3896,6.99937 -13.32033,10.40607 -19.1875,21.0625 0.73108,-10.25803 3.80218,-26.08039 13.125,-37.84375 2.87694,-1.1209 5.63721,-4.04001 0.375,-7.15625 -4.45694,-2.63937 -8.19743,0.14349 -5.4375,4.40625 -6.23046,9.64412 -12.77745,19.29338 -15.1875,28.9375 -2.6269,6.21685 -0.66375,11.75323 -0.875,17.625 -3.521,-0.51154 -7.23412,3.21261 -10.40625,-4.625 -5.21494,-9.25551 -5.27526,-20.57342 -6.9375,-31.25 1.5658,-3.23879 -2.41364,-4.98943 -4.875,-3.875 -2.47683,1.12144 -5.08901,5.3918 -0.90625,7.34375 1.1691,14.2733 2.37549,28.57044 6.9375,42.84375 l -18.1875,-11.84375 c 0.14486,-5.08736 -6.84986,-5.55872 -8.9375,-2.84375 -1.88712,2.4542 -3.30852,6.83973 3.96875,7.71875 l 22,17.375 c -8.38433,12.73024 -21.48828,25.45726 -22,38.1875 -11.1869,-8.09967 -20.06388,-4.62297 -30.09375,-6.9375 -1.35018,-11.27683 1.9424,-20.14911 0,-34.4375 -2.24876,-16.54191 -4.05061,-21.91794 -18.5,-43.09375 -14.50987,-21.26443 -30.82561,-44.32023 -41.59375,-41.9375 -0.65428,-0.14496 -1.3376,-0.22435 -2.03125,-0.1875 z"
         style="fill:#008800;fill-opacity:1;stroke-width:6.74993658"
         inkscape:connector-curvature="0" />
      <path
         id="path3242"
         d="m 154.20946,189.31 c 0.84639,18.39542 11.10566,25.36394 20.83129,34.14019 3.57277,-3.57278 5.44508,-16.22059 1.44662,-25.17116 -3.69935,-8.28101 -16.35367,-11.58844 -22.27791,-8.96903 z m -58.30601,0 c -0.84639,18.39542 -11.10566,25.36394 -20.83129,34.14019 -3.57277,-3.57278 -5.44508,-16.22059 -1.44662,-25.17116 3.69935,-8.28101 16.35367,-11.58844 22.27791,-8.96903 z"
         style="fill:#e9f5e9;stroke-width:7.08743286"
         inkscape:connector-curvature="0" />
      <path
         id="path3244"
         d="m 169.25428,233.57651 c -4.92335,14.02282 -1.42706,25.70686 7.52241,35.87612 m -38.47882,-68.97261 c -5.16715,19.51084 10.30635,32.00303 22.91326,31.9149 m -80.3525,1.18159 c 4.92335,14.02282 1.42706,25.70686 -7.52241,35.87612 m 38.47882,-68.97261 c 5.16715,19.51084 -10.30635,32.00303 -22.91326,31.9149"
         inkscape:connector-curvature="0"
         style="stroke-width:6.74993658" />
      <path
         id="path3246"
         d="m 221.0432,386.33935 c -12.24114,8.16995 -20.69466,18.86498 -28.35371,30.08965 m 45.71313,-1.73594 c -3.90829,20.44392 -13.89392,36.45051 -24.59251,52.36756 m -63.07253,-26.47311 c 13.42989,-19.08261 27.08603,-37.82585 36.02078,-63.65118 M 136.56072,154.30185 c 1.96265,11.462 4.5729,22.64647 11.86227,31.82559 M 29.06971,386.33935 c 12.24114,8.16995 20.69466,18.86498 28.35371,30.08965 m -45.71313,-1.73594 c 3.90829,20.44392 13.89392,36.45051 24.59251,52.36756 M 99.37533,440.58751 C 85.94544,421.5049 72.2893,402.76166 63.35455,376.93633 m 50.19764,-222.63448 c -1.96265,11.462 -4.5729,22.64647 -11.86227,31.82559"
         inkscape:connector-curvature="0"
         style="stroke-width:6.74993658" />
    </g>
    <g
       id="g3248"
       transform="matrix(0.6403672,0,0,0.6473046,-342.52036,-329.73323)"
       style="fill:none;stroke:#000000;stroke-width:6.74993658;stroke-linecap:round;stroke-linejoin:round;stroke-opacity:1">
      <path
         inkscape:connector-curvature="0"
         style="fill:#008800;fill-opacity:1;stroke-width:6.74993658"
         d="m 123.03125,143.4375 c -10.72242,0.56968 -25.933509,22.15152 -39.5625,42.125 -14.4494,21.17581 -16.28249,26.55184 -18.53125,43.09375 -1.942401,14.28839 1.35018,23.16067 0,34.4375 -10.029871,2.31453 -18.90685,-1.16217 -30.09375,6.9375 C 34.332032,257.30101 21.25933,244.57399 12.875,231.84375 l 21.96875,-17.375 c 7.277272,-0.87902 5.85587,-5.26455 3.96875,-7.71875 -2.087639,-2.71497 -9.08236,-2.24361 -8.9375,2.84375 L 11.71875,221.4375 c 4.56202,-14.27331 5.7684,-28.57045 6.9375,-42.84375 4.18276,-1.95195 1.57058,-6.22231 -0.90625,-7.34375 -2.46137,-1.11443 -6.4408,0.63621 -4.875,3.875 -1.66224,10.67658 -1.72256,21.99449 -6.9375,31.25 -3.17214,7.83761 -6.9165,4.11346 -10.4375,4.625 -0.2112601,-5.87177 1.7519,-11.40815 -0.875,-17.625 -2.4100502,-9.64412 -8.95704,-19.29338 -15.1875,-28.9375 2.75992,-4.26276 -0.94931,-7.04562 -5.40625,-4.40625 -5.2622,3.11624 -2.53319,6.03535 0.34375,7.15625 9.32281,11.76336 12.39392,27.58572 13.125,37.84375 -5.86716,-10.65643 -12.76665,-14.06313 -19.15625,-21.0625 0.98079,-3.92316 -2.92448,-5.17762 -5.5,-2.25 -2.45295,2.78831 -0.68205,6.00262 1.46875,6.15625 0.193941,-0.0582 8.69364,7.60942 12.625,19.59375 4.01575,12.2416 2.45813,2.75708 9.65625,25.65625 7.8188995,22.38703 14.56815,44.94525 32.0625,65.84375 17.40142,3.54263 46.20762,-6.97735 50.3125,-1.5 7.668752,10.23281 2.81104,2.69827 -1.15625,16.21875 -5.230571,17.82569 -6.34375,55.875 -6.34375,55.875 10e-7,-10e-6 -34.60971,-16.02758 -43.96875,-6.9375 -13.0575009,12.68226 -5.78125,52.0625 -5.78125,52.0625 C 8.0185496,392.82808 1.16491,373.12604 3,348.65625 c 1.1748799,-0.43286 3.11889,-5.58889 -2.0625,-6 -5.89468,-0.46771 -3.92428,4.95837 -3.125,5.15625 l 2.46875,41.40625 C -6.8199,374.6065 -14.15003,360.01851 -20.75,345.40625 c 0.477111,-1.94754 1.5153,-8.45528 -5.3125,-5.34375 -5.479521,2.49711 -2.42859,7.28173 -0.5625,7.3125 6.402539,12.41265 11.44065,24.80608 14.03125,37.21875 -4.16251,4.53975 -17.7104,-9.29756 -26.96875,-14.3125 -0.43333,-5.02093 -5.21561,-5.07897 -6.65625,-2 -2.225919,4.75732 3.72943,6.35404 4.5,5.96875 0,-10e-6 20.71857,13.53697 29.125,25.40625 11.74603025,16.58456 -1.45115,23.38545 13.09375,48.875 16.70561,29.27616 38.47644,56.06713 59.8125,64.53125 7.8927,3.13109 17.18522,0.64257 20.125,-18.53125 3.336569,-21.76177 -10.520333,-56.48313 -20.25,-73.34375 -1.124573,-1.73545 -2.248298,-3.50604 -3.34375,-5.34375 1.019303,1.46138 2.164902,3.30091 3.34375,5.34375 14.106367,21.76902 30.769254,35.76062 56.84375,47.90625 2.7045,1.25978 4.27708,2.41724 5.65625,3.125 l 0,0.34375 c 0.9337,0.29316 1.68539,0.38165 2.375,0.34375 0.68961,0.0379 1.4413,-0.0506 2.375,-0.34375 l 0,-0.34375 c 1.37917,-0.70776 2.95175,-1.86522 5.65625,-3.125 C 159.19848,456.93404 175.88322,442.93739 190,421.125 c 1.1627,-2.01098 2.27461,-3.83803 3.28125,-5.28125 -1.07952,1.81098 -2.1735,3.56962 -3.28125,5.28125 -9.73178,16.83186 -23.6541,51.61172 -20.3125,73.40625 2.93978,19.17382 12.20105,21.66234 20.09375,18.53125 21.33606,-8.46412 43.13813,-35.25509 59.84375,-64.53125 14.5449,-25.48955 1.34773,-32.29044 13.09375,-48.875 8.40643,-11.86928 29.12499,-25.40626 29.125,-25.40625 0.77057,0.38529 6.72593,-1.21143 4.5,-5.96875 -1.44064,-3.07897 -6.25416,-3.02093 -6.6875,2 -9.25835,5.01494 -22.77498,18.85225 -26.9375,14.3125 2.5906,-12.41267 7.59745,-24.8061 14,-37.21875 1.86609,-0.0308 4.94827,-4.81539 -0.53125,-7.3125 -6.8278,-3.11153 -5.78963,3.39621 -5.3125,5.34375 -6.59997,14.61226 -13.9301,29.20025 -21.03125,43.8125 l 2.4375,-41.40625 c 0.79928,-0.19788 2.80094,-5.62396 -3.09375,-5.15625 -5.18139,0.41111 -3.23738,5.56714 -2.0625,6 1.83509,24.46979 -5.01854,44.17183 -8.71875,66.03125 0,0 7.27626,-39.38024 -5.78125,-52.0625 -9.35904,-9.09008 -44,6.93749 -44,6.9375 0,0 -1.08193,-38.04931 -6.3125,-55.875 -3.96729,-13.52048 -8.825,-5.98594 -1.15625,-16.21875 4.10488,-5.47735 32.91108,5.04263 50.3125,1.5 17.49435,-20.8985 24.24361,-43.45672 32.0625,-65.84375 7.19812,-22.89917 5.64051,-13.41465 9.65625,-25.65625 3.93136,-11.98433 12.43106,-19.65192 12.625,-19.59375 2.1508,-0.15363 3.9217,-3.36794 1.46875,-6.15625 -2.57552,-2.92762 -6.4808,-1.67316 -5.5,2.25 -6.3896,6.99937 -13.32033,10.40607 -19.1875,21.0625 0.73108,-10.25803 3.80218,-26.08039 13.125,-37.84375 2.87694,-1.1209 5.63721,-4.04001 0.375,-7.15625 -4.45694,-2.63937 -8.19743,0.14349 -5.4375,4.40625 -6.23046,9.64412 -12.77745,19.29338 -15.1875,28.9375 -2.6269,6.21685 -0.66375,11.75323 -0.875,17.625 -3.521,-0.51154 -7.23412,3.21261 -10.40625,-4.625 -5.21494,-9.25551 -5.27526,-20.57342 -6.9375,-31.25 1.5658,-3.23879 -2.41364,-4.98943 -4.875,-3.875 -2.47683,1.12144 -5.08901,5.3918 -0.90625,7.34375 1.1691,14.2733 2.37549,28.57044 6.9375,42.84375 l -18.1875,-11.84375 c 0.14486,-5.08736 -6.84986,-5.55872 -8.9375,-2.84375 -1.88712,2.4542 -3.30852,6.83973 3.96875,7.71875 l 22,17.375 c -8.38433,12.73024 -21.48828,25.45726 -22,38.1875 -11.1869,-8.09967 -20.06388,-4.62297 -30.09375,-6.9375 -1.35018,-11.27683 1.9424,-20.14911 0,-34.4375 -2.24876,-16.54191 -4.05061,-21.91794 -18.5,-43.09375 -14.50987,-21.26443 -30.82561,-44.32023 -41.59375,-41.9375 -0.65428,-0.14496 -1.3376,-0.22435 -2.03125,-0.1875 z"
         id="path3250" />
      <path
         inkscape:connector-curvature="0"
         style="fill:#e9f5e9;stroke-width:7.08743286"
         d="m 154.20946,189.31 c 0.84639,18.39542 11.10566,25.36394 20.83129,34.14019 3.57277,-3.57278 5.44508,-16.22059 1.44662,-25.17116 -3.69935,-8.28101 -16.35367,-11.58844 -22.27791,-8.96903 z m -58.30601,0 c -0.84639,18.39542 -11.10566,25.36394 -20.83129,34.14019 -3.57277,-3.57278 -5.44508,-16.22059 -1.44662,-25.17116 3.69935,-8.28101 16.35367,-11.58844 22.27791,-8.96903 z"
         id="path3252" />
      <path
         inkscape:connector-curvature="0"
         d="m 169.25428,233.57651 c -4.92335,14.02282 -1.42706,25.70686 7.52241,35.87612 m -38.47882,-68.97261 c -5.16715,19.51084 10.30635,32.00303 22.91326,31.9149 m -80.3525,1.18159 c 4.92335,14.02282 1.42706,25.70686 -7.52241,35.87612 m 38.47882,-68.97261 c 5.16715,19.51084 -10.30635,32.00303 -22.91326,31.9149"
         id="path3254"
         style="stroke-width:6.74993658" />
      <path
         inkscape:connector-curvature="0"
         d="m 221.0432,386.33935 c -12.24114,8.16995 -20.69466,18.86498 -28.35371,30.08965 m 45.71313,-1.73594 c -3.90829,20.44392 -13.89392,36.45051 -24.59251,52.36756 m -63.07253,-26.47311 c 13.42989,-19.08261 27.08603,-37.82585 36.02078,-63.65118 M 136.56072,154.30185 c 1.96265,11.462 4.5729,22.64647 11.86227,31.82559 M 29.06971,386.33935 c 12.24114,8.16995 20.69466,18.86498 28.35371,30.08965 m -45.71313,-1.73594 c 3.90829,20.44392 13.89392,36.45051 24.59251,52.36756 M 99.37533,440.58751 C 85.94544,421.5049 72.2893,402.76166 63.35455,376.93633 m 50.19764,-222.63448 c -1.96265,11.462 -4.5729,22.64647 -11.86227,31.82559"
         id="path3256"
         style="stroke-width:6.74993658" />
    </g>
    <g
       style="fill:none;stroke:#000000;stroke-width:6.74993658;stroke-linecap:round;stroke-linejoin:round;stroke-opacity:1"
       transform="matrix(0.6403672,0,0,0.6473046,-100.60597,-329.73323)"
       id="g3258">
      <path
         id="path3260"
         d="m 123.03125,143.4375 c -10.72242,0.56968 -25.933509,22.15152 -39.5625,42.125 -14.4494,21.17581 -16.28249,26.55184 -18.53125,43.09375 -1.942401,14.28839 1.35018,23.16067 0,34.4375 -10.029871,2.31453 -18.90685,-1.16217 -30.09375,6.9375 C 34.332032,257.30101 21.25933,244.57399 12.875,231.84375 l 21.96875,-17.375 c 7.277272,-0.87902 5.85587,-5.26455 3.96875,-7.71875 -2.087639,-2.71497 -9.08236,-2.24361 -8.9375,2.84375 L 11.71875,221.4375 c 4.56202,-14.27331 5.7684,-28.57045 6.9375,-42.84375 4.18276,-1.95195 1.57058,-6.22231 -0.90625,-7.34375 -2.46137,-1.11443 -6.4408,0.63621 -4.875,3.875 -1.66224,10.67658 -1.72256,21.99449 -6.9375,31.25 -3.17214,7.83761 -6.9165,4.11346 -10.4375,4.625 -0.2112601,-5.87177 1.7519,-11.40815 -0.875,-17.625 -2.4100502,-9.64412 -8.95704,-19.29338 -15.1875,-28.9375 2.75992,-4.26276 -0.94931,-7.04562 -5.40625,-4.40625 -5.2622,3.11624 -2.53319,6.03535 0.34375,7.15625 9.32281,11.76336 12.39392,27.58572 13.125,37.84375 -5.86716,-10.65643 -12.76665,-14.06313 -19.15625,-21.0625 0.98079,-3.92316 -2.92448,-5.17762 -5.5,-2.25 -2.45295,2.78831 -0.68205,6.00262 1.46875,6.15625 0.193941,-0.0582 8.69364,7.60942 12.625,19.59375 4.01575,12.2416 2.45813,2.75708 9.65625,25.65625 7.8188995,22.38703 14.56815,44.94525 32.0625,65.84375 17.40142,3.54263 46.20762,-6.97735 50.3125,-1.5 7.668752,10.23281 2.81104,2.69827 -1.15625,16.21875 -5.230571,17.82569 -6.34375,55.875 -6.34375,55.875 10e-7,-10e-6 -34.60971,-16.02758 -43.96875,-6.9375 -13.0575009,12.68226 -5.78125,52.0625 -5.78125,52.0625 C 8.0185496,392.82808 1.16491,373.12604 3,348.65625 c 1.1748799,-0.43286 3.11889,-5.58889 -2.0625,-6 -5.89468,-0.46771 -3.92428,4.95837 -3.125,5.15625 l 2.46875,41.40625 C -6.8199,374.6065 -14.15003,360.01851 -20.75,345.40625 c 0.477111,-1.94754 1.5153,-8.45528 -5.3125,-5.34375 -5.479521,2.49711 -2.42859,7.28173 -0.5625,7.3125 6.402539,12.41265 11.44065,24.80608 14.03125,37.21875 -4.16251,4.53975 -17.7104,-9.29756 -26.96875,-14.3125 -0.43333,-5.02093 -5.21561,-5.07897 -6.65625,-2 -2.225919,4.75732 3.72943,6.35404 4.5,5.96875 0,-10e-6 20.71857,13.53697 29.125,25.40625 11.74603025,16.58456 -1.45115,23.38545 13.09375,48.875 16.70561,29.27616 38.47644,56.06713 59.8125,64.53125 7.8927,3.13109 17.18522,0.64257 20.125,-18.53125 3.336569,-21.76177 -10.520333,-56.48313 -20.25,-73.34375 -1.124573,-1.73545 -2.248298,-3.50604 -3.34375,-5.34375 1.019303,1.46138 2.164902,3.30091 3.34375,5.34375 14.106367,21.76902 30.769254,35.76062 56.84375,47.90625 2.7045,1.25978 4.27708,2.41724 5.65625,3.125 l 0,0.34375 c 0.9337,0.29316 1.68539,0.38165 2.375,0.34375 0.68961,0.0379 1.4413,-0.0506 2.375,-0.34375 l 0,-0.34375 c 1.37917,-0.70776 2.95175,-1.86522 5.65625,-3.125 C 159.19848,456.93404 175.88322,442.93739 190,421.125 c 1.1627,-2.01098 2.27461,-3.83803 3.28125,-5.28125 -1.07952,1.81098 -2.1735,3.56962 -3.28125,5.28125 -9.73178,16.83186 -23.6541,51.61172 -20.3125,73.40625 2.93978,19.17382 12.20105,21.66234 20.09375,18.53125 21.33606,-8.46412 43.13813,-35.25509 59.84375,-64.53125 14.5449,-25.48955 1.34773,-32.29044 13.09375,-48.875 8.40643,-11.86928 29.12499,-25.40626 29.125,-25.40625 0.77057,0.38529 6.72593,-1.21143 4.5,-5.96875 -1.44064,-3.07897 -6.25416,-3.02093 -6.6875,2 -9.25835,5.01494 -22.77498,18.85225 -26.9375,14.3125 2.5906,-12.41267 7.59745,-24.8061 14,-37.21875 1.86609,-0.0308 4.94827,-4.81539 -0.53125,-7.3125 -6.8278,-3.11153 -5.78963,3.39621 -5.3125,5.34375 -6.59997,14.61226 -13.9301,29.20025 -21.03125,43.8125 l 2.4375,-41.40625 c 0.79928,-0.19788 2.80094,-5.62396 -3.09375,-5.15625 -5.18139,0.41111 -3.23738,5.56714 -2.0625,6 1.83509,24.46979 -5.01854,44.17183 -8.71875,66.03125 0,0 7.27626,-39.38024 -5.78125,-52.0625 -9.35904,-9.09008 -44,6.93749 -44,6.9375 0,0 -1.08193,-38.04931 -6.3125,-55.875 -3.96729,-13.52048 -8.825,-5.98594 -1.15625,-16.21875 4.10488,-5.47735 32.91108,5.04263 50.3125,1.5 17.49435,-20.8985 24.24361,-43.45672 32.0625,-65.84375 7.19812,-22.89917 5.64051,-13.41465 9.65625,-25.65625 3.93136,-11.98433 12.43106,-19.65192 12.625,-19.59375 2.1508,-0.15363 3.9217,-3.36794 1.46875,-6.15625 -2.57552,-2.92762 -6.4808,-1.67316 -5.5,2.25 -6.3896,6.99937 -13.32033,10.40607 -19.1875,21.0625 0.73108,-10.25803 3.80218,-26.08039 13.125,-37.84375 2.87694,-1.1209 5.63721,-4.04001 0.375,-7.15625 -4.45694,-2.63937 -8.19743,0.14349 -5.4375,4.40625 -6.23046,9.64412 -12.77745,19.29338 -15.1875,28.9375 -2.6269,6.21685 -0.66375,11.75323 -0.875,17.625 -3.521,-0.51154 -7.23412,3.21261 -10.40625,-4.625 -5.21494,-9.25551 -5.27526,-20.57342 -6.9375,-31.25 1.5658,-3.23879 -2.41364,-4.98943 -4.875,-3.875 -2.47683,1.12144 -5.08901,5.3918 -0.90625,7.34375 1.1691,14.2733 2.37549,28.57044 6.9375,42.84375 l -18.1875,-11.84375 c 0.14486,-5.08736 -6.84986,-5.55872 -8.9375,-2.84375 -1.88712,2.4542 -3.30852,6.83973 3.96875,7.71875 l 22,17.375 c -8.38433,12.73024 -21.48828,25.45726 -22,38.1875 -11.1869,-8.09967 -20.06388,-4.62297 -30.09375,-6.9375 -1.35018,-11.27683 1.9424,-20.14911 0,-34.4375 -2.24876,-16.54191 -4.05061,-21.91794 -18.5,-43.09375 -14.50987,-21.26443 -30.82561,-44.32023 -41.59375,-41.9375 -0.65428,-0.14496 -1.3376,-0.22435 -2.03125,-0.1875 z"
         style="fill:#008800;fill-opacity:1;stroke-width:6.74993658"
         inkscape:connector-curvature="0" />
      <path
         id="path3262"
         d="m 154.20946,189.31 c 0.84639,18.39542 11.10566,25.36394 20.83129,34.14019 3.57277,-3.57278 5.44508,-16.22059 1.44662,-25.17116 -3.69935,-8.28101 -16.35367,-11.58844 -22.27791,-8.96903 z m -58.30601,0 c -0.84639,18.39542 -11.10566,25.36394 -20.83129,34.14019 -3.57277,-3.57278 -5.44508,-16.22059 -1.44662,-25.17116 3.69935,-8.28101 16.35367,-11.58844 22.27791,-8.96903 z"
         style="fill:#e9f5e9;stroke-width:7.08743286"
         inkscape:connector-curvature="0" />
      <path
         id="path3264"
         d="m 169.25428,233.57651 c -4.92335,14.02282 -1.42706,25.70686 7.52241,35.87612 m -38.47882,-68.97261 c -5.16715,19.51084 10.30635,32.00303 22.91326,31.9149 m -80.3525,1.18159 c 4.92335,14.02282 1.42706,25.70686 -7.52241,35.87612 m 38.47882,-68.97261 c 5.16715,19.51084 -10.30635,32.00303 -22.91326,31.9149"
         inkscape:connector-curvature="0"
         style="stroke-width:6.74993658" />
      <path
         id="path3266"
         d="m 221.0432,386.33935 c -12.24114,8.16995 -20.69466,18.86498 -28.35371,30.08965 m 45.71313,-1.73594 c -3.90829,20.44392 -13.89392,36.45051 -24.59251,52.36756 m -63.07253,-26.47311 c 13.42989,-19.08261 27.08603,-37.82585 36.02078,-63.65118 M 136.56072,154.30185 c 1.96265,11.462 4.5729,22.64647 11.86227,31.82559 M 29.06971,386.33935 c 12.24114,8.16995 20.69466,18.86498 28.35371,30.08965 m -45.71313,-1.73594 c 3.90829,20.44392 13.89392,36.45051 24.59251,52.36756 M 99.37533,440.58751 C 85.94544,421.5049 72.2893,402.76166 63.35455,376.93633 m 50.19764,-222.63448 c -1.96265,11.462 -4.5729,22.64647 -11.86227,31.82559"
         inkscape:connector-curvature="0"
         style="stroke-width:6.74993658" />
    </g>
    <g
       id="g3278"
       transform="matrix(0.6403672,0,0,0.6473046,-221.56319,-80.567973)"
       style="fill:none;stroke:#000000;stroke-width:6.74993658;stroke-linecap:round;stroke-linejoin:round;stroke-opacity:1">
      <path
         inkscape:connector-curvature="0"
         style="fill:#008800;fill-opacity:1;stroke-width:6.74993658"
         d="m 123.03125,143.4375 c -10.72242,0.56968 -25.933509,22.15152 -39.5625,42.125 -14.4494,21.17581 -16.28249,26.55184 -18.53125,43.09375 -1.942401,14.28839 1.35018,23.16067 0,34.4375 -10.029871,2.31453 -18.90685,-1.16217 -30.09375,6.9375 C 34.332032,257.30101 21.25933,244.57399 12.875,231.84375 l 21.96875,-17.375 c 7.277272,-0.87902 5.85587,-5.26455 3.96875,-7.71875 -2.087639,-2.71497 -9.08236,-2.24361 -8.9375,2.84375 L 11.71875,221.4375 c 4.56202,-14.27331 5.7684,-28.57045 6.9375,-42.84375 4.18276,-1.95195 1.57058,-6.22231 -0.90625,-7.34375 -2.46137,-1.11443 -6.4408,0.63621 -4.875,3.875 -1.66224,10.67658 -1.72256,21.99449 -6.9375,31.25 -3.17214,7.83761 -6.9165,4.11346 -10.4375,4.625 -0.2112601,-5.87177 1.7519,-11.40815 -0.875,-17.625 -2.4100502,-9.64412 -8.95704,-19.29338 -15.1875,-28.9375 2.75992,-4.26276 -0.94931,-7.04562 -5.40625,-4.40625 -5.2622,3.11624 -2.53319,6.03535 0.34375,7.15625 9.32281,11.76336 12.39392,27.58572 13.125,37.84375 -5.86716,-10.65643 -12.76665,-14.06313 -19.15625,-21.0625 0.98079,-3.92316 -2.92448,-5.17762 -5.5,-2.25 -2.45295,2.78831 -0.68205,6.00262 1.46875,6.15625 0.193941,-0.0582 8.69364,7.60942 12.625,19.59375 4.01575,12.2416 2.45813,2.75708 9.65625,25.65625 7.8188995,22.38703 14.56815,44.94525 32.0625,65.84375 17.40142,3.54263 46.20762,-6.97735 50.3125,-1.5 7.668752,10.23281 2.81104,2.69827 -1.15625,16.21875 -5.230571,17.82569 -6.34375,55.875 -6.34375,55.875 10e-7,-10e-6 -34.60971,-16.02758 -43.96875,-6.9375 -13.0575009,12.68226 -5.78125,52.0625 -5.78125,52.0625 C 8.0185496,392.82808 1.16491,373.12604 3,348.65625 c 1.1748799,-0.43286 3.11889,-5.58889 -2.0625,-6 -5.89468,-0.46771 -3.92428,4.95837 -3.125,5.15625 l 2.46875,41.40625 C -6.8199,374.6065 -14.15003,360.01851 -20.75,345.40625 c 0.477111,-1.94754 1.5153,-8.45528 -5.3125,-5.34375 -5.479521,2.49711 -2.42859,7.28173 -0.5625,7.3125 6.402539,12.41265 11.44065,24.80608 14.03125,37.21875 -4.16251,4.53975 -17.7104,-9.29756 -26.96875,-14.3125 -0.43333,-5.02093 -5.21561,-5.07897 -6.65625,-2 -2.225919,4.75732 3.72943,6.35404 4.5,5.96875 0,-10e-6 20.71857,13.53697 29.125,25.40625 11.74603025,16.58456 -1.45115,23.38545 13.09375,48.875 16.70561,29.27616 38.47644,56.06713 59.8125,64.53125 7.8927,3.13109 17.18522,0.64257 20.125,-18.53125 3.336569,-21.76177 -10.520333,-56.48313 -20.25,-73.34375 -1.124573,-1.73545 -2.248298,-3.50604 -3.34375,-5.34375 1.019303,1.46138 2.164902,3.30091 3.34375,5.34375 14.106367,21.76902 30.769254,35.76062 56.84375,47.90625 2.7045,1.25978 4.27708,2.41724 5.65625,3.125 l 0,0.34375 c 0.9337,0.29316 1.68539,0.38165 2.375,0.34375 0.68961,0.0379 1.4413,-0.0506 2.375,-0.34375 l 0,-0.34375 c 1.37917,-0.70776 2.95175,-1.86522 5.65625,-3.125 C 159.19848,456.93404 175.88322,442.93739 190,421.125 c 1.1627,-2.01098 2.27461,-3.83803 3.28125,-5.28125 -1.07952,1.81098 -2.1735,3.56962 -3.28125,5.28125 -9.73178,16.83186 -23.6541,51.61172 -20.3125,73.40625 2.93978,19.17382 12.20105,21.66234 20.09375,18.53125 21.33606,-8.46412 43.13813,-35.25509 59.84375,-64.53125 14.5449,-25.48955 1.34773,-32.29044 13.09375,-48.875 8.40643,-11.86928 29.12499,-25.40626 29.125,-25.40625 0.77057,0.38529 6.72593,-1.21143 4.5,-5.96875 -1.44064,-3.07897 -6.25416,-3.02093 -6.6875,2 -9.25835,5.01494 -22.77498,18.85225 -26.9375,14.3125 2.5906,-12.41267 7.59745,-24.8061 14,-37.21875 1.86609,-0.0308 4.94827,-4.81539 -0.53125,-7.3125 -6.8278,-3.11153 -5.78963,3.39621 -5.3125,5.34375 -6.59997,14.61226 -13.9301,29.20025 -21.03125,43.8125 l 2.4375,-41.40625 c 0.79928,-0.19788 2.80094,-5.62396 -3.09375,-5.15625 -5.18139,0.41111 -3.23738,5.56714 -2.0625,6 1.83509,24.46979 -5.01854,44.17183 -8.71875,66.03125 0,0 7.27626,-39.38024 -5.78125,-52.0625 -9.35904,-9.09008 -44,6.93749 -44,6.9375 0,0 -1.08193,-38.04931 -6.3125,-55.875 -3.96729,-13.52048 -8.825,-5.98594 -1.15625,-16.21875 4.10488,-5.47735 32.91108,5.04263 50.3125,1.5 17.49435,-20.8985 24.24361,-43.45672 32.0625,-65.84375 7.19812,-22.89917 5.64051,-13.41465 9.65625,-25.65625 3.93136,-11.98433 12.43106,-19.65192 12.625,-19.59375 2.1508,-0.15363 3.9217,-3.36794 1.46875,-6.15625 -2.57552,-2.92762 -6.4808,-1.67316 -5.5,2.25 -6.3896,6.99937 -13.32033,10.40607 -19.1875,21.0625 0.73108,-10.25803 3.80218,-26.08039 13.125,-37.84375 2.87694,-1.1209 5.63721,-4.04001 0.375,-7.15625 -4.45694,-2.63937 -8.19743,0.14349 -5.4375,4.40625 -6.23046,9.64412 -12.77745,19.29338 -15.1875,28.9375 -2.6269,6.21685 -0.66375,11.75323 -0.875,17.625 -3.521,-0.51154 -7.23412,3.21261 -10.40625,-4.625 -5.21494,-9.25551 -5.27526,-20.57342 -6.9375,-31.25 1.5658,-3.23879 -2.41364,-4.98943 -4.875,-3.875 -2.47683,1.12144 -5.08901,5.3918 -0.90625,7.34375 1.1691,14.2733 2.37549,28.57044 6.9375,42.84375 l -18.1875,-11.84375 c 0.14486,-5.08736 -6.84986,-5.55872 -8.9375,-2.84375 -1.88712,2.4542 -3.30852,6.83973 3.96875,7.71875 l 22,17.375 c -8.38433,12.73024 -21.48828,25.45726 -22,38.1875 -11.1869,-8.09967 -20.06388,-4.62297 -30.09375,-6.9375 -1.35018,-11.27683 1.9424,-20.14911 0,-34.4375 -2.24876,-16.54191 -4.05061,-21.91794 -18.5,-43.09375 -14.50987,-21.26443 -30.82561,-44.32023 -41.59375,-41.9375 -0.65428,-0.14496 -1.3376,-0.22435 -2.03125,-0.1875 z"
         id="path3280" />
      <path
         inkscape:connector-curvature="0"
         style="fill:#e9f5e9;stroke-width:7.08743286"
         d="m 154.20946,189.31 c 0.84639,18.39542 11.10566,25.36394 20.83129,34.14019 3.57277,-3.57278 5.44508,-16.22059 1.44662,-25.17116 -3.69935,-8.28101 -16.35367,-11.58844 -22.27791,-8.96903 z m -58.30601,0 c -0.84639,18.39542 -11.10566,25.36394 -20.83129,34.14019 -3.57277,-3.57278 -5.44508,-16.22059 -1.44662,-25.17116 3.69935,-8.28101 16.35367,-11.58844 22.27791,-8.96903 z"
         id="path3282" />
      <path
         inkscape:connector-curvature="0"
         d="m 169.25428,233.57651 c -4.92335,14.02282 -1.42706,25.70686 7.52241,35.87612 m -38.47882,-68.97261 c -5.16715,19.51084 10.30635,32.00303 22.91326,31.9149 m -80.3525,1.18159 c 4.92335,14.02282 1.42706,25.70686 -7.52241,35.87612 m 38.47882,-68.97261 c 5.16715,19.51084 -10.30635,32.00303 -22.91326,31.9149"
         id="path3284"
         style="stroke-width:6.74993658" />
      <path
         inkscape:connector-curvature="0"
         d="m 221.0432,386.33935 c -12.24114,8.16995 -20.69466,18.86498 -28.35371,30.08965 m 45.71313,-1.73594 c -3.90829,20.44392 -13.89392,36.45051 -24.59251,52.36756 m -63.07253,-26.47311 c 13.42989,-19.08261 27.08603,-37.82585 36.02078,-63.65118 M 136.56072,154.30185 c 1.96265,11.462 4.5729,22.64647 11.86227,31.82559 M 29.06971,386.33935 c 12.24114,8.16995 20.69466,18.86498 28.35371,30.08965 m -45.71313,-1.73594 c 3.90829,20.44392 13.89392,36.45051 24.59251,52.36756 M 99.37533,440.58751 C 85.94544,421.5049 72.2893,402.76166 63.35455,376.93633 m 50.19764,-222.63448 c -1.96265,11.462 -4.5729,22.64647 -11.86227,31.82559"
         id="path3286"
         style="stroke-width:6.74993658" />
    </g>
    <g
       id="g3288"
       transform="matrix(0.6403672,0,0,0.6473046,-463.47763,-76.612973)"
       style="fill:none;stroke:#000000;stroke-width:6.74993658;stroke-linecap:round;stroke-linejoin:round;stroke-opacity:1">
      <path
         inkscape:connector-curvature="0"
         style="fill:#008800;fill-opacity:1;stroke-width:6.74993658"
         d="m 123.03125,143.4375 c -10.72242,0.56968 -25.933509,22.15152 -39.5625,42.125 -14.4494,21.17581 -16.28249,26.55184 -18.53125,43.09375 -1.942401,14.28839 1.35018,23.16067 0,34.4375 -10.029871,2.31453 -18.90685,-1.16217 -30.09375,6.9375 C 34.332032,257.30101 21.25933,244.57399 12.875,231.84375 l 21.96875,-17.375 c 7.277272,-0.87902 5.85587,-5.26455 3.96875,-7.71875 -2.087639,-2.71497 -9.08236,-2.24361 -8.9375,2.84375 L 11.71875,221.4375 c 4.56202,-14.27331 5.7684,-28.57045 6.9375,-42.84375 4.18276,-1.95195 1.57058,-6.22231 -0.90625,-7.34375 -2.46137,-1.11443 -6.4408,0.63621 -4.875,3.875 -1.66224,10.67658 -1.72256,21.99449 -6.9375,31.25 -3.17214,7.83761 -6.9165,4.11346 -10.4375,4.625 -0.2112601,-5.87177 1.7519,-11.40815 -0.875,-17.625 -2.4100502,-9.64412 -8.95704,-19.29338 -15.1875,-28.9375 2.75992,-4.26276 -0.94931,-7.04562 -5.40625,-4.40625 -5.2622,3.11624 -2.53319,6.03535 0.34375,7.15625 9.32281,11.76336 12.39392,27.58572 13.125,37.84375 -5.86716,-10.65643 -12.76665,-14.06313 -19.15625,-21.0625 0.98079,-3.92316 -2.92448,-5.17762 -5.5,-2.25 -2.45295,2.78831 -0.68205,6.00262 1.46875,6.15625 0.193941,-0.0582 8.69364,7.60942 12.625,19.59375 4.01575,12.2416 2.45813,2.75708 9.65625,25.65625 7.8188995,22.38703 14.56815,44.94525 32.0625,65.84375 17.40142,3.54263 46.20762,-6.97735 50.3125,-1.5 7.668752,10.23281 2.81104,2.69827 -1.15625,16.21875 -5.230571,17.82569 -6.34375,55.875 -6.34375,55.875 10e-7,-10e-6 -34.60971,-16.02758 -43.96875,-6.9375 -13.0575009,12.68226 -5.78125,52.0625 -5.78125,52.0625 C 8.0185496,392.82808 1.16491,373.12604 3,348.65625 c 1.1748799,-0.43286 3.11889,-5.58889 -2.0625,-6 -5.89468,-0.46771 -3.92428,4.95837 -3.125,5.15625 l 2.46875,41.40625 C -6.8199,374.6065 -14.15003,360.01851 -20.75,345.40625 c 0.477111,-1.94754 1.5153,-8.45528 -5.3125,-5.34375 -5.479521,2.49711 -2.42859,7.28173 -0.5625,7.3125 6.402539,12.41265 11.44065,24.80608 14.03125,37.21875 -4.16251,4.53975 -17.7104,-9.29756 -26.96875,-14.3125 -0.43333,-5.02093 -5.21561,-5.07897 -6.65625,-2 -2.225919,4.75732 3.72943,6.35404 4.5,5.96875 0,-10e-6 20.71857,13.53697 29.125,25.40625 11.74603025,16.58456 -1.45115,23.38545 13.09375,48.875 16.70561,29.27616 38.47644,56.06713 59.8125,64.53125 7.8927,3.13109 17.18522,0.64257 20.125,-18.53125 3.336569,-21.76177 -10.520333,-56.48313 -20.25,-73.34375 -1.124573,-1.73545 -2.248298,-3.50604 -3.34375,-5.34375 1.019303,1.46138 2.164902,3.30091 3.34375,5.34375 14.106367,21.76902 30.769254,35.76062 56.84375,47.90625 2.7045,1.25978 4.27708,2.41724 5.65625,3.125 l 0,0.34375 c 0.9337,0.29316 1.68539,0.38165 2.375,0.34375 0.68961,0.0379 1.4413,-0.0506 2.375,-0.34375 l 0,-0.34375 c 1.37917,-0.70776 2.95175,-1.86522 5.65625,-3.125 C 159.19848,456.93404 175.88322,442.93739 190,421.125 c 1.1627,-2.01098 2.27461,-3.83803 3.28125,-5.28125 -1.07952,1.81098 -2.1735,3.56962 -3.28125,5.28125 -9.73178,16.83186 -23.6541,51.61172 -20.3125,73.40625 2.93978,19.17382 12.20105,21.66234 20.09375,18.53125 21.33606,-8.46412 43.13813,-35.25509 59.84375,-64.53125 14.5449,-25.48955 1.34773,-32.29044 13.09375,-48.875 8.40643,-11.86928 29.12499,-25.40626 29.125,-25.40625 0.77057,0.38529 6.72593,-1.21143 4.5,-5.96875 -1.44064,-3.07897 -6.25416,-3.02093 -6.6875,2 -9.25835,5.01494 -22.77498,18.85225 -26.9375,14.3125 2.5906,-12.41267 7.59745,-24.8061 14,-37.21875 1.86609,-0.0308 4.94827,-4.81539 -0.53125,-7.3125 -6.8278,-3.11153 -5.78963,3.39621 -5.3125,5.34375 -6.59997,14.61226 -13.9301,29.20025 -21.03125,43.8125 l 2.4375,-41.40625 c 0.79928,-0.19788 2.80094,-5.62396 -3.09375,-5.15625 -5.18139,0.41111 -3.23738,5.56714 -2.0625,6 1.83509,24.46979 -5.01854,44.17183 -8.71875,66.03125 0,0 7.27626,-39.38024 -5.78125,-52.0625 -9.35904,-9.09008 -44,6.93749 -44,6.9375 0,0 -1.08193,-38.04931 -6.3125,-55.875 -3.96729,-13.52048 -8.825,-5.98594 -1.15625,-16.21875 4.10488,-5.47735 32.91108,5.04263 50.3125,1.5 17.49435,-20.8985 24.24361,-43.45672 32.0625,-65.84375 7.19812,-22.89917 5.64051,-13.41465 9.65625,-25.65625 3.93136,-11.98433 12.43106,-19.65192 12.625,-19.59375 2.1508,-0.15363 3.9217,-3.36794 1.46875,-6.15625 -2.57552,-2.92762 -6.4808,-1.67316 -5.5,2.25 -6.3896,6.99937 -13.32033,10.40607 -19.1875,21.0625 0.73108,-10.25803 3.80218,-26.08039 13.125,-37.84375 2.87694,-1.1209 5.63721,-4.04001 0.375,-7.15625 -4.45694,-2.63937 -8.19743,0.14349 -5.4375,4.40625 -6.23046,9.64412 -12.77745,19.29338 -15.1875,28.9375 -2.6269,6.21685 -0.66375,11.75323 -0.875,17.625 -3.521,-0.51154 -7.23412,3.21261 -10.40625,-4.625 -5.21494,-9.25551 -5.27526,-20.57342 -6.9375,-31.25 1.5658,-3.23879 -2.41364,-4.98943 -4.875,-3.875 -2.47683,1.12144 -5.08901,5.3918 -0.90625,7.34375 1.1691,14.2733 2.37549,28.57044 6.9375,42.84375 l -18.1875,-11.84375 c 0.14486,-5.08736 -6.84986,-5.55872 -8.9375,-2.84375 -1.88712,2.4542 -3.30852,6.83973 3.96875,7.71875 l 22,17.375 c -8.38433,12.73024 -21.48828,25.45726 -22,38.1875 -11.1869,-8.09967 -20.06388,-4.62297 -30.09375,-6.9375 -1.35018,-11.27683 1.9424,-20.14911 0,-34.4375 -2.24876,-16.54191 -4.05061,-21.91794 -18.5,-43.09375 -14.50987,-21.26443 -30.82561,-44.32023 -41.59375,-41.9375 -0.65428,-0.14496 -1.3376,-0.22435 -2.03125,-0.1875 z"
         id="path3290" />
      <path
         inkscape:connector-curvature="0"
         style="fill:#e9f5e9;stroke-width:7.08743286"
         d="m 154.20946,189.31 c 0.84639,18.39542 11.10566,25.36394 20.83129,34.14019 3.57277,-3.57278 5.44508,-16.22059 1.44662,-25.17116 -3.69935,-8.28101 -16.35367,-11.58844 -22.27791,-8.96903 z m -58.30601,0 c -0.84639,18.39542 -11.10566,25.36394 -20.83129,34.14019 -3.57277,-3.57278 -5.44508,-16.22059 -1.44662,-25.17116 3.69935,-8.28101 16.35367,-11.58844 22.27791,-8.96903 z"
         id="path3292" />
      <path
         inkscape:connector-curvature="0"
         d="m 169.25428,233.57651 c -4.92335,14.02282 -1.42706,25.70686 7.52241,35.87612 m -38.47882,-68.97261 c -5.16715,19.51084 10.30635,32.00303 22.91326,31.9149 m -80.3525,1.18159 c 4.92335,14.02282 1.42706,25.70686 -7.52241,35.87612 m 38.47882,-68.97261 c 5.16715,19.51084 -10.30635,32.00303 -22.91326,31.9149"
         id="path3294"
         style="stroke-width:6.74993658" />
      <path
         inkscape:connector-curvature="0"
         d="m 221.0432,386.33935 c -12.24114,8.16995 -20.69466,18.86498 -28.35371,30.08965 m 45.71313,-1.73594 c -3.90829,20.44392 -13.89392,36.45051 -24.59251,52.36756 m -63.07253,-26.47311 c 13.42989,-19.08261 27.08603,-37.82585 36.02078,-63.65118 M 136.56072,154.30185 c 1.96265,11.462 4.5729,22.64647 11.86227,31.82559 M 29.06971,386.33935 c 12.24114,8.16995 20.69466,18.86498 28.35371,30.08965 m -45.71313,-1.73594 c 3.90829,20.44392 13.89392,36.45051 24.59251,52.36756 M 99.37533,440.58751 C 85.94544,421.5049 72.2893,402.76166 63.35455,376.93633 m 50.19764,-222.63448 c -1.96265,11.462 -4.5729,22.64647 -11.86227,31.82559"
         id="path3296"
         style="stroke-width:6.74993658" />
    </g>
    <g
       style="fill:none;stroke:#000000;stroke-width:6.74993658;stroke-linecap:round;stroke-linejoin:round;stroke-opacity:1"
       transform="matrix(0.6403672,0,0,0.6473046,-705.39204,-76.612973)"
       id="g3298">
      <path
         id="path3300"
         d="m 123.03125,143.4375 c -10.72242,0.56968 -25.933509,22.15152 -39.5625,42.125 -14.4494,21.17581 -16.28249,26.55184 -18.53125,43.09375 -1.942401,14.28839 1.35018,23.16067 0,34.4375 -10.029871,2.31453 -18.90685,-1.16217 -30.09375,6.9375 C 34.332032,257.30101 21.25933,244.57399 12.875,231.84375 l 21.96875,-17.375 c 7.277272,-0.87902 5.85587,-5.26455 3.96875,-7.71875 -2.087639,-2.71497 -9.08236,-2.24361 -8.9375,2.84375 L 11.71875,221.4375 c 4.56202,-14.27331 5.7684,-28.57045 6.9375,-42.84375 4.18276,-1.95195 1.57058,-6.22231 -0.90625,-7.34375 -2.46137,-1.11443 -6.4408,0.63621 -4.875,3.875 -1.66224,10.67658 -1.72256,21.99449 -6.9375,31.25 -3.17214,7.83761 -6.9165,4.11346 -10.4375,4.625 -0.2112601,-5.87177 1.7519,-11.40815 -0.875,-17.625 -2.4100502,-9.64412 -8.95704,-19.29338 -15.1875,-28.9375 2.75992,-4.26276 -0.94931,-7.04562 -5.40625,-4.40625 -5.2622,3.11624 -2.53319,6.03535 0.34375,7.15625 9.32281,11.76336 12.39392,27.58572 13.125,37.84375 -5.86716,-10.65643 -12.76665,-14.06313 -19.15625,-21.0625 0.98079,-3.92316 -2.92448,-5.17762 -5.5,-2.25 -2.45295,2.78831 -0.68205,6.00262 1.46875,6.15625 0.193941,-0.0582 8.69364,7.60942 12.625,19.59375 4.01575,12.2416 2.45813,2.75708 9.65625,25.65625 7.8188995,22.38703 14.56815,44.94525 32.0625,65.84375 17.40142,3.54263 46.20762,-6.97735 50.3125,-1.5 7.668752,10.23281 2.81104,2.69827 -1.15625,16.21875 -5.230571,17.82569 -6.34375,55.875 -6.34375,55.875 10e-7,-10e-6 -34.60971,-16.02758 -43.96875,-6.9375 -13.0575009,12.68226 -5.78125,52.0625 -5.78125,52.0625 C 8.0185496,392.82808 1.16491,373.12604 3,348.65625 c 1.1748799,-0.43286 3.11889,-5.58889 -2.0625,-6 -5.89468,-0.46771 -3.92428,4.95837 -3.125,5.15625 l 2.46875,41.40625 C -6.8199,374.6065 -14.15003,360.01851 -20.75,345.40625 c 0.477111,-1.94754 1.5153,-8.45528 -5.3125,-5.34375 -5.479521,2.49711 -2.42859,7.28173 -0.5625,7.3125 6.402539,12.41265 11.44065,24.80608 14.03125,37.21875 -4.16251,4.53975 -17.7104,-9.29756 -26.96875,-14.3125 -0.43333,-5.02093 -5.21561,-5.07897 -6.65625,-2 -2.225919,4.75732 3.72943,6.35404 4.5,5.96875 0,-10e-6 20.71857,13.53697 29.125,25.40625 11.74603025,16.58456 -1.45115,23.38545 13.09375,48.875 16.70561,29.27616 38.47644,56.06713 59.8125,64.53125 7.8927,3.13109 17.18522,0.64257 20.125,-18.53125 3.336569,-21.76177 -10.520333,-56.48313 -20.25,-73.34375 -1.124573,-1.73545 -2.248298,-3.50604 -3.34375,-5.34375 1.019303,1.46138 2.164902,3.30091 3.34375,5.34375 14.106367,21.76902 30.769254,35.76062 56.84375,47.90625 2.7045,1.25978 4.27708,2.41724 5.65625,3.125 l 0,0.34375 c 0.9337,0.29316 1.68539,0.38165 2.375,0.34375 0.68961,0.0379 1.4413,-0.0506 2.375,-0.34375 l 0,-0.34375 c 1.37917,-0.70776 2.95175,-1.86522 5.65625,-3.125 C 159.19848,456.93404 175.88322,442.93739 190,421.125 c 1.1627,-2.01098 2.27461,-3.83803 3.28125,-5.28125 -1.07952,1.81098 -2.1735,3.56962 -3.28125,5.28125 -9.73178,16.83186 -23.6541,51.61172 -20.3125,73.40625 2.93978,19.17382 12.20105,21.66234 20.09375,18.53125 21.33606,-8.46412 43.13813,-35.25509 59.84375,-64.53125 14.5449,-25.48955 1.34773,-32.29044 13.09375,-48.875 8.40643,-11.86928 29.12499,-25.40626 29.125,-25.40625 0.77057,0.38529 6.72593,-1.21143 4.5,-5.96875 -1.44064,-3.07897 -6.25416,-3.02093 -6.6875,2 -9.25835,5.01494 -22.77498,18.85225 -26.9375,14.3125 2.5906,-12.41267 7.59745,-24.8061 14,-37.21875 1.86609,-0.0308 4.94827,-4.81539 -0.53125,-7.3125 -6.8278,-3.11153 -5.78963,3.39621 -5.3125,5.34375 -6.59997,14.61226 -13.9301,29.20025 -21.03125,43.8125 l 2.4375,-41.40625 c 0.79928,-0.19788 2.80094,-5.62396 -3.09375,-5.15625 -5.18139,0.41111 -3.23738,5.56714 -2.0625,6 1.83509,24.46979 -5.01854,44.17183 -8.71875,66.03125 0,0 7.27626,-39.38024 -5.78125,-52.0625 -9.35904,-9.09008 -44,6.93749 -44,6.9375 0,0 -1.08193,-38.04931 -6.3125,-55.875 -3.96729,-13.52048 -8.825,-5.98594 -1.15625,-16.21875 4.10488,-5.47735 32.91108,5.04263 50.3125,1.5 17.49435,-20.8985 24.24361,-43.45672 32.0625,-65.84375 7.19812,-22.89917 5.64051,-13.41465 9.65625,-25.65625 3.93136,-11.98433 12.43106,-19.65192 12.625,-19.59375 2.1508,-0.15363 3.9217,-3.36794 1.46875,-6.15625 -2.57552,-2.92762 -6.4808,-1.67316 -5.5,2.25 -6.3896,6.99937 -13.32033,10.40607 -19.1875,21.0625 0.73108,-10.25803 3.80218,-26.08039 13.125,-37.84375 2.87694,-1.1209 5.63721,-4.04001 0.375,-7.15625 -4.45694,-2.63937 -8.19743,0.14349 -5.4375,4.40625 -6.23046,9.64412 -12.77745,19.29338 -15.1875,28.9375 -2.6269,6.21685 -0.66375,11.75323 -0.875,17.625 -3.521,-0.51154 -7.23412,3.21261 -10.40625,-4.625 -5.21494,-9.25551 -5.27526,-20.57342 -6.9375,-31.25 1.5658,-3.23879 -2.41364,-4.98943 -4.875,-3.875 -2.47683,1.12144 -5.08901,5.3918 -0.90625,7.34375 1.1691,14.2733 2.37549,28.57044 6.9375,42.84375 l -18.1875,-11.84375 c 0.14486,-5.08736 -6.84986,-5.55872 -8.9375,-2.84375 -1.88712,2.4542 -3.30852,6.83973 3.96875,7.71875 l 22,17.375 c -8.38433,12.73024 -21.48828,25.45726 -22,38.1875 -11.1869,-8.09967 -20.06388,-4.62297 -30.09375,-6.9375 -1.35018,-11.27683 1.9424,-20.14911 0,-34.4375 -2.24876,-16.54191 -4.05061,-21.91794 -18.5,-43.09375 -14.50987,-21.26443 -30.82561,-44.32023 -41.59375,-41.9375 -0.65428,-0.14496 -1.3376,-0.22435 -2.03125,-0.1875 z"
         style="fill:#008800;fill-opacity:1;stroke-width:6.74993658"
         inkscape:connector-curvature="0" />
      <path
         id="path3302"
         d="m 154.20946,189.31 c 0.84639,18.39542 11.10566,25.36394 20.83129,34.14019 3.57277,-3.57278 5.44508,-16.22059 1.44662,-25.17116 -3.69935,-8.28101 -16.35367,-11.58844 -22.27791,-8.96903 z m -58.30601,0 c -0.84639,18.39542 -11.10566,25.36394 -20.83129,34.14019 -3.57277,-3.57278 -5.44508,-16.22059 -1.44662,-25.17116 3.69935,-8.28101 16.35367,-11.58844 22.27791,-8.96903 z"
         style="fill:#e9f5e9;stroke-width:7.08743286"
         inkscape:connector-curvature="0" />
      <path
         id="path3304"
         d="m 169.25428,233.57651 c -4.92335,14.02282 -1.42706,25.70686 7.52241,35.87612 m -38.47882,-68.97261 c -5.16715,19.51084 10.30635,32.00303 22.91326,31.9149 m -80.3525,1.18159 c 4.92335,14.02282 1.42706,25.70686 -7.52241,35.87612 m 38.47882,-68.97261 c 5.16715,19.51084 -10.30635,32.00303 -22.91326,31.9149"
         inkscape:connector-curvature="0"
         style="stroke-width:6.74993658" />
      <path
         id="path3306"
         d="m 221.0432,386.33935 c -12.24114,8.16995 -20.69466,18.86498 -28.35371,30.08965 m 45.71313,-1.73594 c -3.90829,20.44392 -13.89392,36.45051 -24.59251,52.36756 m -63.07253,-26.47311 c 13.42989,-19.08261 27.08603,-37.82585 36.02078,-63.65118 M 136.56072,154.30185 c 1.96265,11.462 4.5729,22.64647 11.86227,31.82559 M 29.06971,386.33935 c 12.24114,8.16995 20.69466,18.86498 28.35371,30.08965 m -45.71313,-1.73594 c 3.90829,20.44392 13.89392,36.45051 24.59251,52.36756 M 99.37533,440.58751 C 85.94544,421.5049 72.2893,402.76166 63.35455,376.93633 m 50.19764,-222.63448 c -1.96265,11.462 -4.5729,22.64647 -11.86227,31.82559"
         inkscape:connector-curvature="0"
         style="stroke-width:6.74993658" />
    </g>
    <g
       id="g3380"
       transform="matrix(0.6403672,0,0,0.6473046,-584.43484,176.50729)"
       style="fill:none;stroke:#000000;stroke-width:6.74993658;stroke-linecap:round;stroke-linejoin:round;stroke-opacity:1">
      <path
         inkscape:connector-curvature="0"
         style="fill:#008800;fill-opacity:1;stroke-width:6.74993658"
         d="m 123.03125,143.4375 c -10.72242,0.56968 -25.933509,22.15152 -39.5625,42.125 -14.4494,21.17581 -16.28249,26.55184 -18.53125,43.09375 -1.942401,14.28839 1.35018,23.16067 0,34.4375 -10.029871,2.31453 -18.90685,-1.16217 -30.09375,6.9375 C 34.332032,257.30101 21.25933,244.57399 12.875,231.84375 l 21.96875,-17.375 c 7.277272,-0.87902 5.85587,-5.26455 3.96875,-7.71875 -2.087639,-2.71497 -9.08236,-2.24361 -8.9375,2.84375 L 11.71875,221.4375 c 4.56202,-14.27331 5.7684,-28.57045 6.9375,-42.84375 4.18276,-1.95195 1.57058,-6.22231 -0.90625,-7.34375 -2.46137,-1.11443 -6.4408,0.63621 -4.875,3.875 -1.66224,10.67658 -1.72256,21.99449 -6.9375,31.25 -3.17214,7.83761 -6.9165,4.11346 -10.4375,4.625 -0.2112601,-5.87177 1.7519,-11.40815 -0.875,-17.625 -2.4100502,-9.64412 -8.95704,-19.29338 -15.1875,-28.9375 2.75992,-4.26276 -0.94931,-7.04562 -5.40625,-4.40625 -5.2622,3.11624 -2.53319,6.03535 0.34375,7.15625 9.32281,11.76336 12.39392,27.58572 13.125,37.84375 -5.86716,-10.65643 -12.76665,-14.06313 -19.15625,-21.0625 0.98079,-3.92316 -2.92448,-5.17762 -5.5,-2.25 -2.45295,2.78831 -0.68205,6.00262 1.46875,6.15625 0.193941,-0.0582 8.69364,7.60942 12.625,19.59375 4.01575,12.2416 2.45813,2.75708 9.65625,25.65625 7.8188995,22.38703 14.56815,44.94525 32.0625,65.84375 17.40142,3.54263 46.20762,-6.97735 50.3125,-1.5 7.668752,10.23281 2.81104,2.69827 -1.15625,16.21875 -5.230571,17.82569 -6.34375,55.875 -6.34375,55.875 10e-7,-10e-6 -34.60971,-16.02758 -43.96875,-6.9375 -13.0575009,12.68226 -5.78125,52.0625 -5.78125,52.0625 C 8.0185496,392.82808 1.16491,373.12604 3,348.65625 c 1.1748799,-0.43286 3.11889,-5.58889 -2.0625,-6 -5.89468,-0.46771 -3.92428,4.95837 -3.125,5.15625 l 2.46875,41.40625 C -6.8199,374.6065 -14.15003,360.01851 -20.75,345.40625 c 0.477111,-1.94754 1.5153,-8.45528 -5.3125,-5.34375 -5.479521,2.49711 -2.42859,7.28173 -0.5625,7.3125 6.402539,12.41265 11.44065,24.80608 14.03125,37.21875 -4.16251,4.53975 -17.7104,-9.29756 -26.96875,-14.3125 -0.43333,-5.02093 -5.21561,-5.07897 -6.65625,-2 -2.225919,4.75732 3.72943,6.35404 4.5,5.96875 0,-10e-6 20.71857,13.53697 29.125,25.40625 11.74603025,16.58456 -1.45115,23.38545 13.09375,48.875 16.70561,29.27616 38.47644,56.06713 59.8125,64.53125 7.8927,3.13109 17.18522,0.64257 20.125,-18.53125 3.336569,-21.76177 -10.520333,-56.48313 -20.25,-73.34375 -1.124573,-1.73545 -2.248298,-3.50604 -3.34375,-5.34375 1.019303,1.46138 2.164902,3.30091 3.34375,5.34375 14.106367,21.76902 30.769254,35.76062 56.84375,47.90625 2.7045,1.25978 4.27708,2.41724 5.65625,3.125 l 0,0.34375 c 0.9337,0.29316 1.68539,0.38165 2.375,0.34375 0.68961,0.0379 1.4413,-0.0506 2.375,-0.34375 l 0,-0.34375 c 1.37917,-0.70776 2.95175,-1.86522 5.65625,-3.125 C 159.19848,456.93404 175.88322,442.93739 190,421.125 c 1.1627,-2.01098 2.27461,-3.83803 3.28125,-5.28125 -1.07952,1.81098 -2.1735,3.56962 -3.28125,5.28125 -9.73178,16.83186 -23.6541,51.61172 -20.3125,73.40625 2.93978,19.17382 12.20105,21.66234 20.09375,18.53125 21.33606,-8.46412 43.13813,-35.25509 59.84375,-64.53125 14.5449,-25.48955 1.34773,-32.29044 13.09375,-48.875 8.40643,-11.86928 29.12499,-25.40626 29.125,-25.40625 0.77057,0.38529 6.72593,-1.21143 4.5,-5.96875 -1.44064,-3.07897 -6.25416,-3.02093 -6.6875,2 -9.25835,5.01494 -22.77498,18.85225 -26.9375,14.3125 2.5906,-12.41267 7.59745,-24.8061 14,-37.21875 1.86609,-0.0308 4.94827,-4.81539 -0.53125,-7.3125 -6.8278,-3.11153 -5.78963,3.39621 -5.3125,5.34375 -6.59997,14.61226 -13.9301,29.20025 -21.03125,43.8125 l 2.4375,-41.40625 c 0.79928,-0.19788 2.80094,-5.62396 -3.09375,-5.15625 -5.18139,0.41111 -3.23738,5.56714 -2.0625,6 1.83509,24.46979 -5.01854,44.17183 -8.71875,66.03125 0,0 7.27626,-39.38024 -5.78125,-52.0625 -9.35904,-9.09008 -44,6.93749 -44,6.9375 0,0 -1.08193,-38.04931 -6.3125,-55.875 -3.96729,-13.52048 -8.825,-5.98594 -1.15625,-16.21875 4.10488,-5.47735 32.91108,5.04263 50.3125,1.5 17.49435,-20.8985 24.24361,-43.45672 32.0625,-65.84375 7.19812,-22.89917 5.64051,-13.41465 9.65625,-25.65625 3.93136,-11.98433 12.43106,-19.65192 12.625,-19.59375 2.1508,-0.15363 3.9217,-3.36794 1.46875,-6.15625 -2.57552,-2.92762 -6.4808,-1.67316 -5.5,2.25 -6.3896,6.99937 -13.32033,10.40607 -19.1875,21.0625 0.73108,-10.25803 3.80218,-26.08039 13.125,-37.84375 2.87694,-1.1209 5.63721,-4.04001 0.375,-7.15625 -4.45694,-2.63937 -8.19743,0.14349 -5.4375,4.40625 -6.23046,9.64412 -12.77745,19.29338 -15.1875,28.9375 -2.6269,6.21685 -0.66375,11.75323 -0.875,17.625 -3.521,-0.51154 -7.23412,3.21261 -10.40625,-4.625 -5.21494,-9.25551 -5.27526,-20.57342 -6.9375,-31.25 1.5658,-3.23879 -2.41364,-4.98943 -4.875,-3.875 -2.47683,1.12144 -5.08901,5.3918 -0.90625,7.34375 1.1691,14.2733 2.37549,28.57044 6.9375,42.84375 l -18.1875,-11.84375 c 0.14486,-5.08736 -6.84986,-5.55872 -8.9375,-2.84375 -1.88712,2.4542 -3.30852,6.83973 3.96875,7.71875 l 22,17.375 c -8.38433,12.73024 -21.48828,25.45726 -22,38.1875 -11.1869,-8.09967 -20.06388,-4.62297 -30.09375,-6.9375 -1.35018,-11.27683 1.9424,-20.14911 0,-34.4375 -2.24876,-16.54191 -4.05061,-21.91794 -18.5,-43.09375 -14.50987,-21.26443 -30.82561,-44.32023 -41.59375,-41.9375 -0.65428,-0.14496 -1.3376,-0.22435 -2.03125,-0.1875 z"
         id="path3382" />
      <path
         inkscape:connector-curvature="0"
         style="fill:#e9f5e9;stroke-width:7.08743286"
         d="m 154.20946,189.31 c 0.84639,18.39542 11.10566,25.36394 20.83129,34.14019 3.57277,-3.57278 5.44508,-16.22059 1.44662,-25.17116 -3.69935,-8.28101 -16.35367,-11.58844 -22.27791,-8.96903 z m -58.30601,0 c -0.84639,18.39542 -11.10566,25.36394 -20.83129,34.14019 -3.57277,-3.57278 -5.44508,-16.22059 -1.44662,-25.17116 3.69935,-8.28101 16.35367,-11.58844 22.27791,-8.96903 z"
         id="path3384" />
      <path
         inkscape:connector-curvature="0"
         d="m 169.25428,233.57651 c -4.92335,14.02282 -1.42706,25.70686 7.52241,35.87612 m -38.47882,-68.97261 c -5.16715,19.51084 10.30635,32.00303 22.91326,31.9149 m -80.3525,1.18159 c 4.92335,14.02282 1.42706,25.70686 -7.52241,35.87612 m 38.47882,-68.97261 c 5.16715,19.51084 -10.30635,32.00303 -22.91326,31.9149"
         id="path3386"
         style="stroke-width:6.74993658" />
      <path
         inkscape:connector-curvature="0"
         d="m 221.0432,386.33935 c -12.24114,8.16995 -20.69466,18.86498 -28.35371,30.08965 m 45.71313,-1.73594 c -3.90829,20.44392 -13.89392,36.45051 -24.59251,52.36756 m -63.07253,-26.47311 c 13.42989,-19.08261 27.08603,-37.82585 36.02078,-63.65118 M 136.56072,154.30185 c 1.96265,11.462 4.5729,22.64647 11.86227,31.82559 M 29.06971,386.33935 c 12.24114,8.16995 20.69466,18.86498 28.35371,30.08965 m -45.71313,-1.73594 c 3.90829,20.44392 13.89392,36.45051 24.59251,52.36756 M 99.37533,440.58751 C 85.94544,421.5049 72.2893,402.76166 63.35455,376.93633 m 50.19764,-222.63448 c -1.96265,11.462 -4.5729,22.64647 -11.86227,31.82559"
         id="path3388"
         style="stroke-width:6.74993658" />
    </g>
    <g
       style="fill:none;stroke:#000000;stroke-width:6.74993658;stroke-linecap:round;stroke-linejoin:round;stroke-opacity:1"
       transform="matrix(0.6403672,0,0,0.6473046,-463.47764,429.62755)"
       id="g3390">
      <path
         id="path3392"
         d="m 123.03125,143.4375 c -10.72242,0.56968 -25.933509,22.15152 -39.5625,42.125 -14.4494,21.17581 -16.28249,26.55184 -18.53125,43.09375 -1.942401,14.28839 1.35018,23.16067 0,34.4375 -10.029871,2.31453 -18.90685,-1.16217 -30.09375,6.9375 C 34.332032,257.30101 21.25933,244.57399 12.875,231.84375 l 21.96875,-17.375 c 7.277272,-0.87902 5.85587,-5.26455 3.96875,-7.71875 -2.087639,-2.71497 -9.08236,-2.24361 -8.9375,2.84375 L 11.71875,221.4375 c 4.56202,-14.27331 5.7684,-28.57045 6.9375,-42.84375 4.18276,-1.95195 1.57058,-6.22231 -0.90625,-7.34375 -2.46137,-1.11443 -6.4408,0.63621 -4.875,3.875 -1.66224,10.67658 -1.72256,21.99449 -6.9375,31.25 -3.17214,7.83761 -6.9165,4.11346 -10.4375,4.625 -0.2112601,-5.87177 1.7519,-11.40815 -0.875,-17.625 -2.4100502,-9.64412 -8.95704,-19.29338 -15.1875,-28.9375 2.75992,-4.26276 -0.94931,-7.04562 -5.40625,-4.40625 -5.2622,3.11624 -2.53319,6.03535 0.34375,7.15625 9.32281,11.76336 12.39392,27.58572 13.125,37.84375 -5.86716,-10.65643 -12.76665,-14.06313 -19.15625,-21.0625 0.98079,-3.92316 -2.92448,-5.17762 -5.5,-2.25 -2.45295,2.78831 -0.68205,6.00262 1.46875,6.15625 0.193941,-0.0582 8.69364,7.60942 12.625,19.59375 4.01575,12.2416 2.45813,2.75708 9.65625,25.65625 7.8188995,22.38703 14.56815,44.94525 32.0625,65.84375 17.40142,3.54263 46.20762,-6.97735 50.3125,-1.5 7.668752,10.23281 2.81104,2.69827 -1.15625,16.21875 -5.230571,17.82569 -6.34375,55.875 -6.34375,55.875 10e-7,-10e-6 -34.60971,-16.02758 -43.96875,-6.9375 -13.0575009,12.68226 -5.78125,52.0625 -5.78125,52.0625 C 8.0185496,392.82808 1.16491,373.12604 3,348.65625 c 1.1748799,-0.43286 3.11889,-5.58889 -2.0625,-6 -5.89468,-0.46771 -3.92428,4.95837 -3.125,5.15625 l 2.46875,41.40625 C -6.8199,374.6065 -14.15003,360.01851 -20.75,345.40625 c 0.477111,-1.94754 1.5153,-8.45528 -5.3125,-5.34375 -5.479521,2.49711 -2.42859,7.28173 -0.5625,7.3125 6.402539,12.41265 11.44065,24.80608 14.03125,37.21875 -4.16251,4.53975 -17.7104,-9.29756 -26.96875,-14.3125 -0.43333,-5.02093 -5.21561,-5.07897 -6.65625,-2 -2.225919,4.75732 3.72943,6.35404 4.5,5.96875 0,-10e-6 20.71857,13.53697 29.125,25.40625 11.74603025,16.58456 -1.45115,23.38545 13.09375,48.875 16.70561,29.27616 38.47644,56.06713 59.8125,64.53125 7.8927,3.13109 17.18522,0.64257 20.125,-18.53125 3.336569,-21.76177 -10.520333,-56.48313 -20.25,-73.34375 -1.124573,-1.73545 -2.248298,-3.50604 -3.34375,-5.34375 1.019303,1.46138 2.164902,3.30091 3.34375,5.34375 14.106367,21.76902 30.769254,35.76062 56.84375,47.90625 2.7045,1.25978 4.27708,2.41724 5.65625,3.125 l 0,0.34375 c 0.9337,0.29316 1.68539,0.38165 2.375,0.34375 0.68961,0.0379 1.4413,-0.0506 2.375,-0.34375 l 0,-0.34375 c 1.37917,-0.70776 2.95175,-1.86522 5.65625,-3.125 C 159.19848,456.93404 175.88322,442.93739 190,421.125 c 1.1627,-2.01098 2.27461,-3.83803 3.28125,-5.28125 -1.07952,1.81098 -2.1735,3.56962 -3.28125,5.28125 -9.73178,16.83186 -23.6541,51.61172 -20.3125,73.40625 2.93978,19.17382 12.20105,21.66234 20.09375,18.53125 21.33606,-8.46412 43.13813,-35.25509 59.84375,-64.53125 14.5449,-25.48955 1.34773,-32.29044 13.09375,-48.875 8.40643,-11.86928 29.12499,-25.40626 29.125,-25.40625 0.77057,0.38529 6.72593,-1.21143 4.5,-5.96875 -1.44064,-3.07897 -6.25416,-3.02093 -6.6875,2 -9.25835,5.01494 -22.77498,18.85225 -26.9375,14.3125 2.5906,-12.41267 7.59745,-24.8061 14,-37.21875 1.86609,-0.0308 4.94827,-4.81539 -0.53125,-7.3125 -6.8278,-3.11153 -5.78963,3.39621 -5.3125,5.34375 -6.59997,14.61226 -13.9301,29.20025 -21.03125,43.8125 l 2.4375,-41.40625 c 0.79928,-0.19788 2.80094,-5.62396 -3.09375,-5.15625 -5.18139,0.41111 -3.23738,5.56714 -2.0625,6 1.83509,24.46979 -5.01854,44.17183 -8.71875,66.03125 0,0 7.27626,-39.38024 -5.78125,-52.0625 -9.35904,-9.09008 -44,6.93749 -44,6.9375 0,0 -1.08193,-38.04931 -6.3125,-55.875 -3.96729,-13.52048 -8.825,-5.98594 -1.15625,-16.21875 4.10488,-5.47735 32.91108,5.04263 50.3125,1.5 17.49435,-20.8985 24.24361,-43.45672 32.0625,-65.84375 7.19812,-22.89917 5.64051,-13.41465 9.65625,-25.65625 3.93136,-11.98433 12.43106,-19.65192 12.625,-19.59375 2.1508,-0.15363 3.9217,-3.36794 1.46875,-6.15625 -2.57552,-2.92762 -6.4808,-1.67316 -5.5,2.25 -6.3896,6.99937 -13.32033,10.40607 -19.1875,21.0625 0.73108,-10.25803 3.80218,-26.08039 13.125,-37.84375 2.87694,-1.1209 5.63721,-4.04001 0.375,-7.15625 -4.45694,-2.63937 -8.19743,0.14349 -5.4375,4.40625 -6.23046,9.64412 -12.77745,19.29338 -15.1875,28.9375 -2.6269,6.21685 -0.66375,11.75323 -0.875,17.625 -3.521,-0.51154 -7.23412,3.21261 -10.40625,-4.625 -5.21494,-9.25551 -5.27526,-20.57342 -6.9375,-31.25 1.5658,-3.23879 -2.41364,-4.98943 -4.875,-3.875 -2.47683,1.12144 -5.08901,5.3918 -0.90625,7.34375 1.1691,14.2733 2.37549,28.57044 6.9375,42.84375 l -18.1875,-11.84375 c 0.14486,-5.08736 -6.84986,-5.55872 -8.9375,-2.84375 -1.88712,2.4542 -3.30852,6.83973 3.96875,7.71875 l 22,17.375 c -8.38433,12.73024 -21.48828,25.45726 -22,38.1875 -11.1869,-8.09967 -20.06388,-4.62297 -30.09375,-6.9375 -1.35018,-11.27683 1.9424,-20.14911 0,-34.4375 -2.24876,-16.54191 -4.05061,-21.91794 -18.5,-43.09375 -14.50987,-21.26443 -30.82561,-44.32023 -41.59375,-41.9375 -0.65428,-0.14496 -1.3376,-0.22435 -2.03125,-0.1875 z"
         style="fill:#008800;fill-opacity:1;stroke-width:6.74993658"
         inkscape:connector-curvature="0" />
      <path
         id="path3394"
         d="m 154.20946,189.31 c 0.84639,18.39542 11.10566,25.36394 20.83129,34.14019 3.57277,-3.57278 5.44508,-16.22059 1.44662,-25.17116 -3.69935,-8.28101 -16.35367,-11.58844 -22.27791,-8.96903 z m -58.30601,0 c -0.84639,18.39542 -11.10566,25.36394 -20.83129,34.14019 -3.57277,-3.57278 -5.44508,-16.22059 -1.44662,-25.17116 3.69935,-8.28101 16.35367,-11.58844 22.27791,-8.96903 z"
         style="fill:#e9f5e9;stroke-width:7.08743286"
         inkscape:connector-curvature="0" />
      <path
         id="path3396"
         d="m 169.25428,233.57651 c -4.92335,14.02282 -1.42706,25.70686 7.52241,35.87612 m -38.47882,-68.97261 c -5.16715,19.51084 10.30635,32.00303 22.91326,31.9149 m -80.3525,1.18159 c 4.92335,14.02282 1.42706,25.70686 -7.52241,35.87612 m 38.47882,-68.97261 c 5.16715,19.51084 -10.30635,32.00303 -22.91326,31.9149"
         inkscape:connector-curvature="0"
         style="stroke-width:6.74993658" />
      <path
         id="path3398"
         d="m 221.0432,386.33935 c -12.24114,8.16995 -20.69466,18.86498 -28.35371,30.08965 m 45.71313,-1.73594 c -3.90829,20.44392 -13.89392,36.45051 -24.59251,52.36756 m -63.07253,-26.47311 c 13.42989,-19.08261 27.08603,-37.82585 36.02078,-63.65118 M 136.56072,154.30185 c 1.96265,11.462 4.5729,22.64647 11.86227,31.82559 M 29.06971,386.33935 c 12.24114,8.16995 20.69466,18.86498 28.35371,30.08965 m -45.71313,-1.73594 c 3.90829,20.44392 13.89392,36.45051 24.59251,52.36756 M 99.37533,440.58751 C 85.94544,421.5049 72.2893,402.76166 63.35455,376.93633 m 50.19764,-222.63448 c -1.96265,11.462 -4.5729,22.64647 -11.86227,31.82559"
         inkscape:connector-curvature="0"
         style="stroke-width:6.74993658" />
    </g>
    <g
       style="fill:none;stroke:#000000;stroke-width:6.74993658;stroke-linecap:round;stroke-linejoin:round;stroke-opacity:1"
       transform="matrix(0.6403672,0,0,0.6473046,-342.52041,176.50729)"
       id="g3468">
      <path
         id="path3470"
         d="m 123.03125,143.4375 c -10.72242,0.56968 -25.933509,22.15152 -39.5625,42.125 -14.4494,21.17581 -16.28249,26.55184 -18.53125,43.09375 -1.942401,14.28839 1.35018,23.16067 0,34.4375 -10.029871,2.31453 -18.90685,-1.16217 -30.09375,6.9375 C 34.332032,257.30101 21.25933,244.57399 12.875,231.84375 l 21.96875,-17.375 c 7.277272,-0.87902 5.85587,-5.26455 3.96875,-7.71875 -2.087639,-2.71497 -9.08236,-2.24361 -8.9375,2.84375 L 11.71875,221.4375 c 4.56202,-14.27331 5.7684,-28.57045 6.9375,-42.84375 4.18276,-1.95195 1.57058,-6.22231 -0.90625,-7.34375 -2.46137,-1.11443 -6.4408,0.63621 -4.875,3.875 -1.66224,10.67658 -1.72256,21.99449 -6.9375,31.25 -3.17214,7.83761 -6.9165,4.11346 -10.4375,4.625 -0.2112601,-5.87177 1.7519,-11.40815 -0.875,-17.625 -2.4100502,-9.64412 -8.95704,-19.29338 -15.1875,-28.9375 2.75992,-4.26276 -0.94931,-7.04562 -5.40625,-4.40625 -5.2622,3.11624 -2.53319,6.03535 0.34375,7.15625 9.32281,11.76336 12.39392,27.58572 13.125,37.84375 -5.86716,-10.65643 -12.76665,-14.06313 -19.15625,-21.0625 0.98079,-3.92316 -2.92448,-5.17762 -5.5,-2.25 -2.45295,2.78831 -0.68205,6.00262 1.46875,6.15625 0.193941,-0.0582 8.69364,7.60942 12.625,19.59375 4.01575,12.2416 2.45813,2.75708 9.65625,25.65625 7.8188995,22.38703 14.56815,44.94525 32.0625,65.84375 17.40142,3.54263 46.20762,-6.97735 50.3125,-1.5 7.668752,10.23281 2.81104,2.69827 -1.15625,16.21875 -5.230571,17.82569 -6.34375,55.875 -6.34375,55.875 10e-7,-10e-6 -34.60971,-16.02758 -43.96875,-6.9375 -13.0575009,12.68226 -5.78125,52.0625 -5.78125,52.0625 C 8.0185496,392.82808 1.16491,373.12604 3,348.65625 c 1.1748799,-0.43286 3.11889,-5.58889 -2.0625,-6 -5.89468,-0.46771 -3.92428,4.95837 -3.125,5.15625 l 2.46875,41.40625 C -6.8199,374.6065 -14.15003,360.01851 -20.75,345.40625 c 0.477111,-1.94754 1.5153,-8.45528 -5.3125,-5.34375 -5.479521,2.49711 -2.42859,7.28173 -0.5625,7.3125 6.402539,12.41265 11.44065,24.80608 14.03125,37.21875 -4.16251,4.53975 -17.7104,-9.29756 -26.96875,-14.3125 -0.43333,-5.02093 -5.21561,-5.07897 -6.65625,-2 -2.225919,4.75732 3.72943,6.35404 4.5,5.96875 0,-10e-6 20.71857,13.53697 29.125,25.40625 11.74603025,16.58456 -1.45115,23.38545 13.09375,48.875 16.70561,29.27616 38.47644,56.06713 59.8125,64.53125 7.8927,3.13109 17.18522,0.64257 20.125,-18.53125 3.336569,-21.76177 -10.520333,-56.48313 -20.25,-73.34375 -1.124573,-1.73545 -2.248298,-3.50604 -3.34375,-5.34375 1.019303,1.46138 2.164902,3.30091 3.34375,5.34375 14.106367,21.76902 30.769254,35.76062 56.84375,47.90625 2.7045,1.25978 4.27708,2.41724 5.65625,3.125 l 0,0.34375 c 0.9337,0.29316 1.68539,0.38165 2.375,0.34375 0.68961,0.0379 1.4413,-0.0506 2.375,-0.34375 l 0,-0.34375 c 1.37917,-0.70776 2.95175,-1.86522 5.65625,-3.125 C 159.19848,456.93404 175.88322,442.93739 190,421.125 c 1.1627,-2.01098 2.27461,-3.83803 3.28125,-5.28125 -1.07952,1.81098 -2.1735,3.56962 -3.28125,5.28125 -9.73178,16.83186 -23.6541,51.61172 -20.3125,73.40625 2.93978,19.17382 12.20105,21.66234 20.09375,18.53125 21.33606,-8.46412 43.13813,-35.25509 59.84375,-64.53125 14.5449,-25.48955 1.34773,-32.29044 13.09375,-48.875 8.40643,-11.86928 29.12499,-25.40626 29.125,-25.40625 0.77057,0.38529 6.72593,-1.21143 4.5,-5.96875 -1.44064,-3.07897 -6.25416,-3.02093 -6.6875,2 -9.25835,5.01494 -22.77498,18.85225 -26.9375,14.3125 2.5906,-12.41267 7.59745,-24.8061 14,-37.21875 1.86609,-0.0308 4.94827,-4.81539 -0.53125,-7.3125 -6.8278,-3.11153 -5.78963,3.39621 -5.3125,5.34375 -6.59997,14.61226 -13.9301,29.20025 -21.03125,43.8125 l 2.4375,-41.40625 c 0.79928,-0.19788 2.80094,-5.62396 -3.09375,-5.15625 -5.18139,0.41111 -3.23738,5.56714 -2.0625,6 1.83509,24.46979 -5.01854,44.17183 -8.71875,66.03125 0,0 7.27626,-39.38024 -5.78125,-52.0625 -9.35904,-9.09008 -44,6.93749 -44,6.9375 0,0 -1.08193,-38.04931 -6.3125,-55.875 -3.96729,-13.52048 -8.825,-5.98594 -1.15625,-16.21875 4.10488,-5.47735 32.91108,5.04263 50.3125,1.5 17.49435,-20.8985 24.24361,-43.45672 32.0625,-65.84375 7.19812,-22.89917 5.64051,-13.41465 9.65625,-25.65625 3.93136,-11.98433 12.43106,-19.65192 12.625,-19.59375 2.1508,-0.15363 3.9217,-3.36794 1.46875,-6.15625 -2.57552,-2.92762 -6.4808,-1.67316 -5.5,2.25 -6.3896,6.99937 -13.32033,10.40607 -19.1875,21.0625 0.73108,-10.25803 3.80218,-26.08039 13.125,-37.84375 2.87694,-1.1209 5.63721,-4.04001 0.375,-7.15625 -4.45694,-2.63937 -8.19743,0.14349 -5.4375,4.40625 -6.23046,9.64412 -12.77745,19.29338 -15.1875,28.9375 -2.6269,6.21685 -0.66375,11.75323 -0.875,17.625 -3.521,-0.51154 -7.23412,3.21261 -10.40625,-4.625 -5.21494,-9.25551 -5.27526,-20.57342 -6.9375,-31.25 1.5658,-3.23879 -2.41364,-4.98943 -4.875,-3.875 -2.47683,1.12144 -5.08901,5.3918 -0.90625,7.34375 1.1691,14.2733 2.37549,28.57044 6.9375,42.84375 l -18.1875,-11.84375 c 0.14486,-5.08736 -6.84986,-5.55872 -8.9375,-2.84375 -1.88712,2.4542 -3.30852,6.83973 3.96875,7.71875 l 22,17.375 c -8.38433,12.73024 -21.48828,25.45726 -22,38.1875 -11.1869,-8.09967 -20.06388,-4.62297 -30.09375,-6.9375 -1.35018,-11.27683 1.9424,-20.14911 0,-34.4375 -2.24876,-16.54191 -4.05061,-21.91794 -18.5,-43.09375 -14.50987,-21.26443 -30.82561,-44.32023 -41.59375,-41.9375 -0.65428,-0.14496 -1.3376,-0.22435 -2.03125,-0.1875 z"
         style="fill:#008800;fill-opacity:1;stroke-width:6.74993658"
         inkscape:connector-curvature="0" />
      <path
         id="path3472"
         d="m 154.20946,189.31 c 0.84639,18.39542 11.10566,25.36394 20.83129,34.14019 3.57277,-3.57278 5.44508,-16.22059 1.44662,-25.17116 -3.69935,-8.28101 -16.35367,-11.58844 -22.27791,-8.96903 z m -58.30601,0 c -0.84639,18.39542 -11.10566,25.36394 -20.83129,34.14019 -3.57277,-3.57278 -5.44508,-16.22059 -1.44662,-25.17116 3.69935,-8.28101 16.35367,-11.58844 22.27791,-8.96903 z"
         style="fill:#e9f5e9;stroke-width:7.08743286"
         inkscape:connector-curvature="0" />
      <path
         id="path3474"
         d="m 169.25428,233.57651 c -4.92335,14.02282 -1.42706,25.70686 7.52241,35.87612 m -38.47882,-68.97261 c -5.16715,19.51084 10.30635,32.00303 22.91326,31.9149 m -80.3525,1.18159 c 4.92335,14.02282 1.42706,25.70686 -7.52241,35.87612 m 38.47882,-68.97261 c 5.16715,19.51084 -10.30635,32.00303 -22.91326,31.9149"
         inkscape:connector-curvature="0"
         style="stroke-width:6.74993658" />
      <path
         id="path3476"
         d="m 221.0432,386.33935 c -12.24114,8.16995 -20.69466,18.86498 -28.35371,30.08965 m 45.71313,-1.73594 c -3.90829,20.44392 -13.89392,36.45051 -24.59251,52.36756 m -63.07253,-26.47311 c 13.42989,-19.08261 27.08603,-37.82585 36.02078,-63.65118 M 136.56072,154.30185 c 1.96265,11.462 4.5729,22.64647 11.86227,31.82559 M 29.06971,386.33935 c 12.24114,8.16995 20.69466,18.86498 28.35371,30.08965 m -45.71313,-1.73594 c 3.90829,20.44392 13.89392,36.45051 24.59251,52.36756 M 99.37533,440.58751 C 85.94544,421.5049 72.2893,402.76166 63.35455,376.93633 m 50.19764,-222.63448 c -1.96265,11.462 -4.5729,22.64647 -11.86227,31.82559"
         inkscape:connector-curvature="0"
         style="stroke-width:6.74993658" />
    </g>
  </g>
  <use
     id="shine"
     xlink:href="#shield"
     stroke-width="3"
     stroke="#000"
     fill="url(#rg)" />
</svg>
