<?xml version="1.0" encoding="UTF-8" standalone="no"?>
<svg
   xmlns:dc="http://purl.org/dc/elements/1.1/"
   xmlns:cc="http://creativecommons.org/ns#"
   xmlns:rdf="http://www.w3.org/1999/02/22-rdf-syntax-ns#"
   xmlns:svg="http://www.w3.org/2000/svg"
   xmlns="http://www.w3.org/2000/svg"
   xmlns:xlink="http://www.w3.org/1999/xlink"
   xmlns:sodipodi="http://sodipodi.sourceforge.net/DTD/sodipodi-0.dtd"
   xmlns:inkscape="http://www.inkscape.org/namespaces/inkscape"
   width="600"
   height="660"
   id="svg2"
   version="1.1"
   inkscape:version="0.91 r13725"
   sodipodi:docname="blason.svg">
  <metadata
     id="metadata19">
    <rdf:RDF>
      <cc:Work
         rdf:about="">
        <dc:format>image/svg+xml</dc:format>
        <dc:type
           rdf:resource="http://purl.org/dc/dcmitype/StillImage" />
      </cc:Work>
    </rdf:RDF>
  </metadata>
  <defs
     id="defs17">
    <radialGradient
       inkscape:collect="always"
       xlink:href="#rg"
       id="radialGradient4153"
       gradientUnits="userSpaceOnUse"
       cx="220"
       cy="220"
       r="405" />
  </defs>
  <sodipodi:namedview
     pagecolor="#ffffff"
     bordercolor="#666666"
     borderopacity="1"
     objecttolerance="10"
     gridtolerance="10"
     guidetolerance="10"
     inkscape:pageopacity="0"
     inkscape:pageshadow="2"
     inkscape:window-width="1366"
     inkscape:window-height="705"
     id="namedview15"
     showgrid="false"
     inkscape:zoom="0.45254834"
     inkscape:cx="322.66287"
     inkscape:cy="175.87965"
     inkscape:window-x="-8"
     inkscape:window-y="-8"
     inkscape:window-maximized="1"
     inkscape:current-layer="svg2" />
  <radialGradient
     id="rg"
     gradientUnits="userSpaceOnUse"
     cx="220"
     cy="220"
     r="405">
    <stop
       style="stop-color:#fff;stop-opacity:.3"
       offset="0"
       id="stop5" />
    <stop
       style="stop-color:#fff;stop-opacity:.2"
       offset=".2"
       id="stop7" />
    <stop
       style="stop-color:#666;stop-opacity:.1"
       offset=".6"
       id="stop9" />
    <stop
       style="stop-color:#000;stop-opacity:.13"
       offset="1"
       id="stop11" />
  </radialGradient>
  <path
     inkscape:connector-curvature="0"
     style="fill:#ffffff;fill-opacity:1;stroke:none;stroke-width:3"
     id="path7212"
     d="m 2,2 0,257 c 0,286 298,398 298,398 0,0 298,-112 298,-398 L 598,2 Z" />
  <g
     transform="matrix(0.40025879,0.65602343,-0.65602343,0.40025879,397.12436,-77.273446)"
     id="g4167"
     inkscape:transform-center-x="0.048769565"
     inkscape:transform-center-y="35.631047">
    <path
       sodipodi:nodetypes="cccccccccccccscccccsccccscccccccccccccccccccccccscccccccccccccccscccccccccccccsccccccccccscccccccccccccccccccccccccccccccccscccccccscccscccc"
       inkscape:connector-curvature="0"
       id="path4159"
       d="m 315.25,435.667 c -1.12665,-12.34695 -4.3326,-26.35575 -8.67015,-37.974 -4.26825,-11.4366 -10.8969,-23.93265 -17.98965,-33.86775 -6.9804,-9.77655 -16.47345,-19.95735 -25.75335,-27.58455 -9.12975,-7.5033 -20.75115,-14.74935 -31.5168,-19.62345 -10.5882,-4.79325 -23.47695,-8.70555 -34.94715,-10.58295 -11.2791,-1.8459 -24.51645,-2.26695 -35.8869,-1.11825 -11.17725,1.12875 -23.8497,4.11075 -34.3497,8.106 -10.3173,3.927 -21.58065,9.99285 -30.52245,16.46715 -8.78535,6.3588 -17.92035,14.99085 -24.74955,23.415 -6.70635,8.274 -13.1649,18.79185 -17.4888,28.52535 -4.24515,9.555 -7.68285,21.17535 -9.2967,31.50525 -1.5834,10.1388 -1.8753,22.02795 -0.7665,32.2287 1.0878,10.0086 3.84615,21.3444 7.50015,30.7251 3.58365,9.2001 9.08775,19.2297 14.94255,27.17925 5.7393,7.79415 13.50825,15.88335 21.07875,21.9135 7.4172,5.9094 16.8315,11.5815 25.53285,15.35625 8.5218,3.696 18.8727,6.6591 28.06335,8.0094 8.99955,1.3209 19.5384,1.4826 28.57155,0.4137 8.8389,-1.0458 18.8391,-3.5805 27.1005,-6.89325 8.0808,-3.2403 16.87875,-8.1837 23.835,-13.419 6.8019,-5.1177 13.84635,-12.02565 19.0785,-18.7404 5.11245,-6.5625 9.99705,-14.87325 13.2216,-22.5414 3.14895,-7.48965 5.6364,-16.5711 6.7221,-24.6225 1.05945,-7.85925 1.09095,-17.0499 0.0619,-24.91335 -1.0038,-7.67025 -3.31485,-16.3338 -6.28635,-23.4759 -2.898,-6.96255 -7.2786,-14.5278 -11.89545,-20.4918 -4.49715,-5.8107 -10.54305,-11.80935 -16.4031,-16.24245 -5.7057,-4.3155 -12.91395,-8.41365 -19.54995,-11.088 -6.45645,-2.60085 -14.26845,-4.61475 -21.17955,-5.4348 -6.72,-0.798 -14.56245,-0.6993 -21.2562,0.2898 -6.5016,0.9618 -13.8285,3.0492 -19.8513,5.6805 -5.84535,2.55465 -12.17685,6.3735 -17.1486,10.37085 -4.8195,3.8766 -9.77235,9.06045 -13.4064,14.06685 -3.5196,4.8489 -6.8313,10.95465 -8.95335,16.55745 -2.0538,5.42325 -3.59415,11.9658 -4.14855,17.73765 -0.5376,5.5797 -0.3087,12.07395 0.64155,17.598 0.91875,5.334 2.7825,11.32425 5.07465,16.22775 2.2092,4.72815 5.46735,9.82695 8.84625,13.80435 3.255,3.82935 7.57785,7.73745 11.72955,10.5714 3.9921,2.7237 8.99535,5.24895 13.566,6.81975 4.389,1.50675 9.6642,2.5725 14.29575,2.86125 4.44045,0.2772 9.5865,-0.0808 13.9398,-0.99435 4.16535,-0.87465 8.82105,-2.51475 12.60315,-4.46775 3.612,-1.8648 7.47915,-4.5612 10.4601,-7.3227 2.8413,-2.63235 5.70465,-6.0942 7.7364,-9.3912 1.93095,-3.1353 3.66975,-7.0371 4.68615,-10.5756 0.96285,-3.3558 1.554,-7.3626 1.57395,-10.85385 0.0199,-3.30015 -0.4683,-7.1001 -1.3461,-10.2816 -0.8274,-2.9988 -2.24595,-6.31995 -3.86085,-8.97855 -1.51725,-2.49795 -3.65295,-5.13345 -5.79915,-7.1169 -2.00865,-1.85535 -4.61055,-3.675 -7.0539,-4.90035 -2.27745,-1.14135 -5.0778,-2.09475 -7.58415,-2.5515 -2.3226,-0.4242 -5.06415,-0.54075 -7.4109,-0.28875 -2.1651,0.2331 -4.61895,0.8526 -6.62445,1.6989 -1.8375,0.777 -3.82725,1.97295 -5.355,3.255 -1.3902,1.16655 -2.7972,2.7447 -3.77265,4.2756 -0.8799,1.3818 -1.65795,3.129 -2.0643,4.7166 -0.36435,1.4217 -0.5334,3.12795 -0.4179,4.59165 0.10185,1.29885 0.46095,2.7825 0.99855,3.969 0.47355,1.0458 1.22955,2.1651 2.0517,2.96625 0.7203,0.7035 1.70835,1.3671 2.64705,1.7304 0.8274,0.32025 1.86795,0.49665 2.75205,0.42945 0.7938,-0.0609 1.70625,-0.34545 2.3793,-0.7707 0.63105,-0.40005 1.2495,-1.0563 1.6002,-1.7157 0.3507,-0.6594 0.9681,-1.3167 1.59915,-1.71675 0.67305,-0.42525 1.5855,-0.7098 2.3793,-0.7707 0.8841,-0.0672 1.9257,0.1092 2.75205,0.42945 0.9387,0.3633 1.9278,1.0269 2.6481,1.7304 0.8211,0.8022 1.5771,1.92045 2.05065,2.96625 0.5376,1.1865 0.89775,2.67015 0.9996,3.969 0.11445,1.4637 -0.0536,3.16995 -0.41895,4.59165 -0.40635,1.5876 -1.1844,3.3348 -2.0643,4.7166 -0.9744,1.53195 -2.38245,3.10905 -3.77265,4.2756 -1.52775,1.28205 -3.5175,2.478 -5.355,3.255 -2.00445,0.84735 -4.45935,1.4658 -6.6234,1.6989 -2.3478,0.25305 -5.08935,0.13545 -7.41195,-0.2877 -2.5053,-0.4578 -5.3067,-1.4112 -7.5831,-2.55255 -2.4444,-1.22535 -5.0463,-3.045 -7.0539,-4.90035 -2.1462,-1.98345 -4.2819,-4.61895 -5.79915,-7.11585 -1.61595,-2.65965 -3.03345,-5.9808 -3.8619,-8.9796 -0.8778,-3.1815 -1.36605,-6.98145 -1.3461,-10.2816 0.02,-3.49125 0.6111,-7.49805 1.575,-10.85385 1.01535,-3.5385 2.75415,-7.4403 4.6851,-10.57455 2.03175,-3.29805 4.8951,-6.7599 7.7364,-9.39225 2.982,-2.7615 6.84915,-5.4579 10.4601,-7.3227 3.7821,-1.953 8.4378,-3.5931 12.60315,-4.46775 4.3533,-0.9135 9.5004,-1.27155 13.9398,-0.99435 4.63155,0.28875 9.90675,1.3545 14.29575,2.8623 4.5717,1.56975 9.57495,4.095 13.56705,6.81975 4.15065,2.8329 8.4735,6.741 11.7285,10.5714 3.37995,3.97635 6.63705,9.0762 8.8473,13.8033 2.2911,4.9035 4.1559,10.8948 5.0736,16.22775 0.9513,5.52405 1.17915,12.0183 0.6426,17.598 -0.55545,5.77185 -2.09475,12.3144 -4.14855,17.73765 -2.12205,5.6028 -5.43375,11.70855 -8.9544,16.5585 -3.633,5.00535 -8.5869,10.1892 -13.4064,14.0658 -4.9707,3.99735 -11.3022,7.81725 -17.14755,10.37085 -6.02385,2.6313 -13.35075,4.7187 -19.85235,5.6805 -6.69375,0.9891 -14.5362,1.0878 -21.25515,0.2898 -6.91215,-0.82005 -14.72415,-2.83395 -21.17955,-5.4348 -6.636,-2.6733 -13.8453,-6.7725 -19.54995,-11.088 -5.8611,-4.4331 -11.90595,-10.43175 -16.40415,-16.24245 -4.6158,-5.964 -8.99745,-13.5282 -11.8944,-20.4918 -2.97255,-7.1421 -5.2836,-15.80565 -6.2874,-23.4759 -1.029,-7.86345 -0.9975,-17.0541 0.06195,-24.91335 1.0857,-8.0514 3.5742,-17.13285 6.72315,-24.62145 3.2235,-7.66815 8.1081,-15.97995 13.2216,-22.54245 5.2311,-6.71475 12.27555,-13.62165 19.07745,-18.7404 6.9573,-5.2353 15.7542,-10.17765 23.83605,-13.419 8.2614,-3.31275 18.26055,-5.84745 27.1005,-6.89325 9.0321,-1.0689 19.572,-0.9072 28.5705,0.4137 9.19065,1.3503 19.54155,4.3134 28.06335,8.0094 8.70135,3.77475 18.11565,9.44685 25.5339,15.35625 7.56945,6.03015 15.33945,14.1204 21.0777,21.9135 5.8548,7.94955 11.35995,17.9802 14.9436,27.17925 3.654,9.3807 6.41235,20.7165 7.4991,30.7251 1.1088,10.20075 0.81795,22.0899 -0.7665,32.2287 -1.6128,10.33095 -5.0505,21.95025 -9.29565,31.50525 -4.3239,9.7335 -10.7835,20.25135 -17.48985,28.52535 -6.8292,8.42415 -15.9642,17.0562 -24.7485,23.41605 -8.94285,6.47325 -20.2062,12.54015 -30.5235,16.4661 -10.5,3.99525 -23.17245,6.97725 -34.3497,8.106 -11.37045,1.1487 -24.6078,0.72765 -35.88585,-1.11825 -11.4702,-1.8774 -24.36,-5.7897 -34.9482,-10.58295 -10.7656,-4.8741 -22.387,-12.12015 -31.51675,-19.62345 -9.2799,-7.6272 -18.77295,-17.808 -25.75335,-27.58455 C 34.7863,508.0522 28.15765,495.55615 23.8894,484.11955 19.55185,472.5013 16.3462,458.4922 15.1765,446.1463 c -1.1886,-12.5391 -0.6384,-27.1257 1.47105,-39.54405 2.14095,-12.6105 6.52785,-26.7687 11.8692,-38.3901 5.4243,-11.7978 13.4568,-24.52275 21.7581,-34.50825 8.4252,-10.1346 19.6518,-20.4897 30.41955,-28.09065 10.92735,-7.71225 24.6561,-14.90265 37.21095,-19.51425 12.73755,-4.67775 28.0833,-8.10705 41.59785,-9.31875 13.7088,-1.22955 29.64465,-0.5481 43.20225,1.8228 13.74975,2.4045 29.1774,7.266 41.85195,13.11765 l 55.5506,41.5163 c 9.11523,10.44302 16.90235,21.62388 23.321,33.565 z"
       style="fill:#008000;stroke:none" />
    <path
       style="fill:#0000c0;fill-opacity:1;stroke:none"
       d="m 404.56456,302.47259 c -10.12945,7.14918 -20.65845,16.93001 -28.55138,26.49557 -7.77026,9.41471 -15.27783,21.40331 -20.33551,32.51337 -4.97654,10.93347 -9.04684,24.2451 -11.01224,36.09533 -1.93318,11.65824 -2.39774,25.34569 -1.23601,37.10607 1.14303,11.56628 4.19925,24.68441 8.30847,35.5566 4.04096,10.69093 10.29499,22.36534 16.97502,31.63809 6.56615,9.1154 15.48486,18.59907 24.19485,25.69471 8.55954,6.97154 19.44439,13.69297 29.5222,18.19964 9.89956,4.42894 21.94263,8.02406 32.65276,9.72624 10.51867,1.67087 22.85667,2.00521 33.44808,0.88307 10.39744,-1.10109 22.17981,-3.93413 31.93269,-7.70145 9.57216,-3.69813 20.01442,-9.38991 28.29413,-15.45054 8.1238,-5.94636 16.56171,-14.00306 22.85864,-21.85787 6.17569,-7.70358 12.10953,-17.48507 16.06664,-26.53025 3.88029,-8.86745 7.00126,-19.64016 8.43828,-29.21148 1.40909,-9.37819 1.61412,-20.36726 0.53248,-29.79022 -1.06008,-9.2281 -3.66941,-19.67379 -7.09534,-28.30828 -3.35584,-8.45429 -8.48523,-17.66205 -13.9275,-24.95054 -5.32514,-7.13181 -12.52035,-14.52489 -19.51998,-20.02309 -6.84658,-5.37803 -15.52666,-10.52558 -23.53869,-13.93222 -7.83301,-3.33177 -17.33769,-5.97846 -25.76891,-7.15226 -8.23952,-1.14627 -17.87914,-1.22108 -26.13223,-0.17955 -8.0607,1.01776 -17.16919,3.40429 -24.68476,6.48974 -7.33603,3.01212 -15.31112,7.58016 -21.60654,12.40307 -6.14073,4.70444 -12.48806,11.03765 -17.18755,17.18209 -4.58075,5.99102 -8.94215,13.56735 -11.7987,20.54766 -2.78364,6.8 -4.95567,15.03523 -5.86482,22.32673 -0.88449,7.09903 -0.82946,15.39063 0.17248,22.47475 0.97582,6.89188 3.13774,14.66422 5.8831,21.05943 2.66891,6.21869 6.67562,12.9611 10.87908,18.26351 4.08374,5.14965 9.55493,10.45123 14.8451,14.35148 5.13507,3.7849 11.60804,7.35871 17.55572,9.6657 5.76699,2.23551 12.73276,3.93288 18.88545,4.57686 5.95907,0.62361 12.90266,0.43875 18.81585,-0.5249 5.72357,-0.93298 12.15976,-2.87027 17.43553,-5.27608 5.10096,-2.32427 10.6107,-5.76963 14.91954,-9.35459 4.16001,-3.46266 8.41584,-8.07184 11.51632,-12.50865 2.9901,-4.2773 5.77671,-9.64834 7.53179,-14.56326 1.68882,-4.73358 2.91191,-10.43133 3.29033,-15.44378 0.36274,-4.81911 0.048,-10.41468 -0.87692,-15.15838 -0.88962,-4.55436 -2.60425,-9.65569 -4.66996,-13.81111 -1.98017,-3.98414 -4.86323,-8.26175 -7.83104,-11.57504 -2.84014,-3.16998 -6.58836,-6.38188 -10.17076,-8.68078 -3.42096,-2.19568 -7.68969,-4.19653 -11.57169,-5.39736 -3.70033,-1.14446 -8.13006,-1.89327 -12.00122,-2.00432 -3.68072,-0.1046 -7.92918,0.34045 -11.50181,1.22948 -3.38763,0.84404 -7.1532,2.33549 -10.18669,4.06384 -2.86796,1.63284 -5.91471,3.95561 -8.23107,6.30656 -2.18334,2.21595 -4.35027,5.10502 -5.84523,7.83287 -1.40466,2.56295 -2.61922,5.73027 -3.26384,8.58066 -0.60246,2.66721 -0.87737,5.83035 -0.71688,8.55903 0.15029,2.543 0.72479,5.44488 1.58241,7.84382 0.79393,2.22353 2.06377,4.65605 3.45539,6.5624 1.28442,1.75848 3.04785,3.57383 4.78351,4.88749 1.59165,1.20282 3.62225,2.32802 5.49642,3.01007 1.70536,0.62067 3.77557,1.05009 5.5891,1.12941 1.63662,0.0711 3.53877,-0.12868 5.11684,-0.57057 1.41341,-0.39531 2.97559,-1.10203 4.18544,-1.93391 1.07391,-0.73763 2.17924,-1.79044 2.93798,-2.84927 0.66891,-0.93301 1.26026,-2.14737 1.543,-3.25995 0.2491,-0.97555 0.32977,-2.16302 0.17504,-3.15761 -0.13635,-0.87668 -0.50386,-1.86602 -1.00411,-2.59807 -0.44964,-0.657 -1.15229,-1.30493 -1.85709,-1.67519 -0.66198,-0.34648 -1.53954,-0.55394 -2.28594,-0.52796 -0.74641,0.026 -1.62435,-0.18005 -2.28633,-0.52653 -0.7048,-0.37025 -1.40745,-1.01818 -1.85709,-1.67518 -0.50025,-0.73206 -0.86828,-1.72231 -1.00411,-2.59807 -0.15473,-0.99459 -0.0746,-2.18298 0.17452,-3.15852 0.28417,-1.1122 0.8746,-2.32604 1.54352,-3.25904 0.75874,-1.05883 1.86354,-2.11255 2.93745,-2.85018 1.21038,-0.83097 2.77206,-1.53856 4.18596,-1.93301 1.57808,-0.44189 3.48023,-0.64168 5.11685,-0.57056 1.81391,0.0779 3.88374,0.50874 5.5891,1.12941 1.87417,0.68204 3.90476,1.80724 5.49642,3.01007 1.73605,1.31223 3.49909,3.12901 4.78299,4.88658 1.39304,1.90673 2.66197,4.33978 3.45682,6.56279 0.85618,2.39855 1.43121,5.30133 1.58097,7.84343 0.16102,2.72958 -0.11389,5.89272 -0.71687,8.55903 -0.64462,2.85039 -1.85918,6.01771 -3.26294,8.58014 -1.49535,2.72927 -3.6628,5.61744 -5.84561,7.8343 -2.31636,2.35095 -5.36309,4.67376 -8.23108,6.30656 -3.03351,1.7283 -6.79905,3.21979 -10.1872,4.06293 -3.57211,0.88993 -7.82057,1.33499 -11.50038,1.22986 -3.87207,-0.11052 -8.3018,-0.85933 -12.00213,-2.00379 -3.88253,-1.20174 -8.15126,-3.20259 -11.5717,-5.39737 -3.58239,-2.29889 -7.33061,-5.5108 -10.17076,-8.68077 -2.96776,-3.31332 -5.85139,-7.59181 -7.83103,-11.57505 -2.06571,-4.15541 -3.78034,-9.25674 -4.66905,-13.81163 -0.9264,-4.74408 -1.2411,-10.33965 -0.87745,-15.15928 0.37804,-5.01102 1.60113,-10.70877 3.29085,-15.44288 1.75365,-4.9153 4.5417,-10.28596 7.53036,-14.56364 3.10101,-4.4359 7.35723,-9.04651 11.51685,-12.50774 4.30831,-3.58587 9.81857,-7.03032 14.91901,-9.35551 5.2763,-2.40489 11.71196,-4.34309 17.43553,-5.27607 5.91319,-0.96365 12.85678,-1.14851 18.81728,-0.52452 6.15126,0.6436 13.11756,2.34188 18.88454,4.57739 5.94716,2.30608 12.42104,5.87937 17.5552,9.66479 5.2907,3.90115 10.76189,9.20274 14.84563,14.35239 4.20346,5.3024 8.21016,12.04481 10.87855,18.2626 2.74589,6.39612 4.9078,14.16846 5.8831,21.05942 1.00285,7.0836 1.05749,15.37664 0.17249,22.47476 -0.90863,7.29241 -3.08119,15.52673 -5.8643,22.32763 -2.85708,6.9794 -7.21704,14.55612 -11.79922,20.54676 -4.69897,6.14535 -11.0463,12.47855 -17.18703,17.18299 -6.29545,4.82287 -14.27053,9.39091 -21.60657,12.40303 -7.51556,3.08545 -16.62458,5.47108 -24.68437,6.4883 -8.25257,1.04245 -17.8931,0.96816 -26.13314,-0.17901 -8.43069,-1.17289 -17.93447,-3.82011 -25.76839,-7.15136 -8.01255,-3.40755 -16.6912,-8.55471 -23.53922,-13.93312 -6.99962,-5.49821 -14.19431,-12.89038 -19.51998,-20.0231 -5.44174,-7.28758 -10.57166,-16.49625 -13.92697,-24.94963 -3.42593,-8.63448 -6.03526,-19.08018 -7.09533,-28.30827 -1.08165,-9.42297 -0.87662,-20.41204 0.53195,-29.79113 1.43754,-9.57041 4.5589,-20.34456 8.4388,-29.21058 3.95711,-9.04518 9.89133,-18.8281 16.06612,-26.53116 6.29692,-7.85481 14.73484,-15.91151 22.85917,-21.85696 8.27971,-6.06062 18.72144,-11.75332 28.29412,-15.45054 9.75326,-3.76875 21.53472,-6.60127 31.93217,-7.70236 10.59141,-1.12214 22.92993,-0.78689 33.4486,0.88398 10.71013,1.70219 22.75321,5.2973 32.65315,9.72481 10.07742,4.50811 20.96319,11.229 29.52181,18.20107 8.70999,7.09564 17.6287,16.57931 24.19485,25.69472 6.68003,9.27274 12.93406,20.94715 16.97449,31.63718 4.10923,10.87218 7.16598,23.99123 8.309,35.5575 1.16171,11.76034 0.69714,25.44779 -1.23603,37.10603 -1.9654,11.85023 -6.03571,25.16186 -11.01225,36.09533 -5.05767,11.11006 -12.56524,23.09866 -20.3355,32.51337 -7.89293,9.56556 -18.42234,19.34628 -28.52935,26.53222 -10.26488,7.29891 -23.17235,14.11572 -34.98168,18.49806 -11.99149,4.45113 -26.4463,7.73107 -39.1814,8.91602 -12.92935,1.20132 -27.96573,0.60744 -40.76407,-1.58894 -12.98942,-2.22914 -27.5705,-6.77411 -39.53699,-12.29878 -12.14269,-5.60724 -25.23413,-13.90148 -35.50532,-22.4685 -10.41982,-8.69217 -21.06256,-20.26733 -28.8692,-31.36542 C 336.91877,505.53925 329.541,491.39768 324.81546,478.471 320.02294,465.36112 316.5196,449.56931 315.25,435.667 l 8.17857,-68.86606 c 4.48631,-13.11553 10.27566,-25.4498 17.40765,-36.97908 z"
       id="path4163"
       inkscape:connector-curvature="0"
       sodipodi:nodetypes="cccccccccccccscccccsccccscccccccccccccccccccccccscccccccccccccccscccccccccccccsccccccccccscccccccccccccccccccccccccccccccccscccccccscccscccc" />
    <path
       style="fill:#ff0000;stroke:none"
       d="m 244.55826,291.72162 c 11.2561,5.19777 24.99105,9.42573 37.22153,11.47843 12.03851,2.02189 26.17473,2.52933 38.32516,1.35438 11.95694,-1.15693 25.52029,-4.28775 36.76559,-8.51078 11.06293,-4.15494 23.14889,-10.59635 32.75281,-17.48262 9.44517,-6.77303 19.2777,-15.97886 26.63868,-24.97365 7.23814,-8.84504 14.22146,-20.09839 18.91188,-30.51984 4.6111,-10.24416 8.36484,-22.70982 10.15485,-33.80071 1.75777,-10.89855 2.13626,-23.68582 1.00025,-34.6668 -1.1142,-10.78773 -4.02228,-23.0149 -7.90321,-33.14123 -3.81232,-9.94487 -9.69177,-20.79707 -15.95927,-29.408417 -6.1523,-8.45391 -14.49697,-17.24122 -22.636,-23.80381 -7.98876,-6.44066 -18.13912,-12.63803 -27.52762,-16.77816 -9.21161,-4.06223 -20.40787,-7.34133 -30.3588,-8.86723 -9.75934,-1.49651 -21.19728,-1.74462 -31.00919,-0.64899 -9.61958,1.0733 -20.50951,3.75681 -29.51703,7.29798 -8.82629,3.46878 -18.44562,8.78576 -26.06533,14.43397 -7.46173,5.5321 -15.2033,13.01469 -20.96801,20.29888 -5.64371,7.13338 -11.05317,16.179447 -14.64405,24.536827 -3.51376,8.17762 -6.31875,18.10539 -7.58052,26.91635 -1.23422,8.61833 -1.35209,18.70928 -0.29631,27.35122 1.03111,8.44946 3.49134,18.00411 6.69041,25.89266 3.12707,7.70876 7.88209,16.09433 12.91063,22.72094 4.91175,6.4719 11.53279,13.16682 17.96266,18.13276 6.27658,4.84714 14.22017,9.46974 21.54465,12.51028 7.14453,2.96581 15.80291,5.29616 23.4739,6.29382 7.47874,0.97153 16.22074,0.96044 23.69414,-0.0559 7.28079,-0.98929 15.49872,-3.22587 22.26792,-6.08427 6.59019,-2.78353 13.74341,-6.97699 19.37747,-11.38676 5.48063,-4.29102 11.13072,-10.04946 15.29645,-15.62462 4.05109,-5.4207 7.88684,-12.26181 10.37713,-18.55331 2.41785,-6.11145 4.27356,-13.50044 5.00619,-20.03198 0.71028,-6.33955 0.56881,-13.73222 -0.40712,-20.03655 -0.94749,-6.11211 -2.96041,-12.99333 -5.47905,-18.64371 -2.43947,-5.47251 -6.07136,-11.3934 -9.8625,-16.03255 -3.66977,-4.49027 -8.56561,-9.09553 -13.28698,-12.46158 -4.56336,-3.25542 -10.302,-6.30432 -15.56109,-8.2434 -5.07875,-1.871337 -11.19834,-3.252407 -16.59097,-3.719097 -5.1993,-0.45085 -11.24406,-0.17861 -16.37804,0.7589 -4.94382,0.90424 -10.48975,2.693887 -15.01988,4.872387 -4.35484,2.09541 -9.0434,5.16573 -12.68907,8.33863 -3.49939,3.04761 -7.05995,7.08319 -9.62579,10.94986 -2.46029,3.70694 -4.72328,8.34255 -6.10877,12.56939 -1.32521,4.04462 -2.23269,8.89663 -2.43239,13.14852 -0.19104,4.06049 0.21054,8.75774 1.11159,12.72007 0.85903,3.77681 2.42541,7.98747 4.26482,11.39552 1.74978,3.2399 4.25943,6.69664 6.81566,9.34612 2.42479,2.51175 5.5992,5.0271 8.61274,6.79001 2.84806,1.6673 6.38302,3.14449 9.57718,3.97504 3.01073,0.78285 6.59621,1.21492 9.70607,1.14568 2.92192,-0.065 6.27218,-0.59682 9.06299,-1.46376 2.61111,-0.81187 5.48792,-2.15535 7.77078,-3.65868 2.12716,-1.40166 4.35301,-3.35013 6.00174,-5.29232 1.52867,-1.79933 3.00038,-4.11531 3.95552,-6.27365 0.88067,-1.99158 1.5711,-4.42643 1.84093,-6.58639 0.24585,-1.97983 0.205,-4.30097 -0.14141,-6.26507 -0.31516,-1.78722 -0.97838,-3.7948 -1.81646,-5.40501 -0.75672,-1.45292 -1.88081,-3.00033 -3.05254,-4.14604 -1.04905,-1.02638 -2.44219,-2.02591 -3.76754,-2.65773 -1.17576,-0.56122 -2.64019,-0.99206 -3.93653,-1.11973 -1.14246,-0.1128 -2.4898,-0.0177 -3.59469,0.29369 -0.9694,0.27205 -2.03812,0.79593 -2.8221,1.42722 -0.69104,0.55642 -1.36409,1.36936 -1.74794,2.16862 -0.34416,0.7179 -0.55396,1.65038 -0.5222,2.44588 0.0309,0.74653 0.29003,1.61025 0.68574,2.24367 0.3957,0.63341 0.65624,1.49674 0.68717,2.24328 0.0318,0.7955 -0.17805,1.72798 -0.5222,2.44588 -0.38386,0.79925 -1.05742,1.6131 -1.74794,2.16862 -0.78398,0.63129 -1.85323,1.15607 -2.82262,1.42812 -1.10528,0.31 -2.45171,0.40559 -3.59418,0.29279 -1.29634,-0.12767 -2.76129,-0.5576 -3.93705,-1.11882 -1.32483,-0.63273 -2.71846,-1.63139 -3.76701,-2.65865 -1.17173,-1.14571 -2.29582,-2.69312 -3.05255,-4.14603 -0.83951,-1.60983 -1.50129,-3.61779 -1.81645,-5.40501 -0.34641,-1.9641 -0.38726,-4.28525 -0.14141,-6.26507 0.26839,-2.15958 0.96025,-4.59481 1.84041,-6.58548 0.95475,-2.15978 2.42737,-4.47523 3.95513,-6.27509 1.64911,-1.94075 3.87548,-3.89014 6.00212,-5.29088 2.28338,-1.50424 5.1602,-2.84772 7.77078,-3.65868 2.79082,-0.86694 6.14108,-1.39876 9.06208,-1.46429 3.1113,-0.0696 6.69625,0.36336 9.70751,1.1453 3.19416,0.83055 6.72914,2.30769 9.57718,3.97504 3.01351,1.76295 6.18795,4.27825 8.61221,6.79092 2.55675,2.64857 5.06641,6.10531 6.81528,9.34469 1.84032,3.40857 3.40669,7.61923 4.26572,11.39604 0.90053,3.96324 1.30211,8.66049 1.1116,12.72006 -0.1997,4.2519 -1.10719,9.1039 -2.43239,13.14853 -1.38554,4.22681 -3.64901,8.86336 -6.10877,12.56939 -2.56584,3.86667 -6.12641,7.90225 -9.6267,10.94933 -3.64529,3.17434 -8.33385,6.24465 -12.6896,8.33954 -4.52869,2.17812 -10.07463,3.96777 -15.01935,4.87148 -5.1336,0.93895 -11.17875,1.20975 -16.37766,0.76034 -5.39211,-0.4676 -11.51312,-1.84829 -16.59044,-3.72001 -5.25962,-1.93818 -10.99773,-4.98798 -15.56162,-8.2425 -4.72084,-3.36695 -9.61721,-7.9713 -13.28698,-12.46157 -3.79114,-4.63915 -7.42303,-10.56004 -9.86288,-16.03399 -2.51826,-5.64894 -4.53066,-12.53107 -5.47814,-18.64318 -0.97646,-6.30343 -1.11884,-13.69662 -0.40765,-20.03564 0.73315,-6.53246 2.58886,-13.92144 5.00672,-20.03289 2.49029,-6.29151 6.32604,-13.13262 10.3766,-18.5524 4.16626,-5.576067 9.81635,-11.334507 15.29645,-15.624627 5.63315,-4.41029 12.78781,-8.60413 19.37747,-11.38675 6.76972,-2.85931 14.98713,-5.09498 22.26845,-6.08519 7.47287,-1.0154 16.21449,-1.02792 23.69362,-0.055 7.67151,0.99675 16.32989,3.32709 23.47442,6.2929 7.32445,3.04059 15.26803,7.66319 21.54462,12.51033 6.42987,4.96594 13.05038,11.661767 17.96123,18.133137 5.02906,6.62571 9.78499,15.0118 12.91153,22.72147 3.19959,7.88764 5.65892,17.44176 6.69094,25.89175 1.05525,8.64285 0.937,18.73237 -0.29683,27.35213 -1.26178,8.81096 -4.06624,18.73782 -7.58052,26.91635 -3.59036,8.35647 -9.00034,17.40345 -14.64353,24.53592 -5.76472,7.28419 -13.50629,14.76678 -20.96802,20.29888 -7.6197,5.64821 -17.23903,10.96519 -26.06585,14.43488 -9.00699,3.54026 -19.89835,6.22415 -29.5165,7.29707 -9.81191,1.09563 -21.25128,0.84791 -31.00972,-0.64808 -9.95092,-1.5259 -21.14719,-4.805 -30.35826,-8.86814 -9.38852,-4.14005 -19.5394,-10.33651 -27.52763,-16.77808 -8.14046,-6.5622 -16.48422,-15.34899 -22.63652,-23.8029 -6.26751,-8.61135 -12.14644,-19.46446 -15.95875,-29.40933 -3.88093,-10.12633 -6.78901,-22.3535 -7.90465,-33.14085 -1.13457,-10.98136 -0.75699,-23.76916 1.00169,-34.66718 1.79001,-11.09089 5.54375,-23.55655 10.15485,-33.800707 4.69042,-10.42145 11.67374,-21.6748 18.91136,-30.51893 7.36097,-8.99479 17.19402,-18.20153 26.6392,-24.97456 9.60389,-6.88623 21.68986,-13.32763 32.75278,-17.48258 11.2453,-4.22303 24.80866,-7.35385 36.7656,-8.51078 12.15042,-1.17495 26.28665,-0.6675 38.32516,1.35438 12.23047,2.0527 25.96553,6.28108 37.24225,11.44104 11.45348,5.24019 23.81074,13.00998 33.51062,21.04599 9.85054,8.15936 19.91845,19.03763 27.3122,29.47408 7.50505,10.59648 14.50893,23.915297 19.00598,36.097187 4.56422,12.36374 7.9187,27.26381 9.11744,40.38943 1.21533,13.31948 0.57802,28.80413 -1.70564,41.98275 -2.31773,13.36992 -7.02074,28.37438 -12.72865,40.68417 -5.78958,12.48694 -14.34766,25.94707 -23.17972,36.50285 -8.95723,10.70538 -20.88124,21.63537 -32.28619,29.68602 l -63.72947,27.35008 c -13.60154,2.67251 -27.17762,3.82559 -40.72825,3.41374 z"
       id="path4165"
       inkscape:connector-curvature="0"
       sodipodi:nodetypes="cccccccccccccscccccsccccscccccccccccccccccccccccscccccccccccccccscccccccccccccsccccccccccscccccccccccccccccccccccccccccccccscccccccscccscccc" />
  </g>
  <path
     id="path4147"
     d="m 2,2 0,257 c 0,286 298,398 298,398 0,0 298,-112 298,-398 L 598,2 Z"
     style="fill:url(#radialGradient4153);stroke:#000000;stroke-width:3"
     inkscape:connector-curvature="0" />
</svg>
