<?xml version="1.0" encoding="UTF-8"?>
<svg xmlns="http://www.w3.org/2000/svg" xmlns:xlink="http://www.w3.org/1999/xlink" width="600" height="660">
<defs>
  <radialGradient id="rg" gradientUnits="userSpaceOnUse" cx="220" cy="220" r="405">
    <stop style="stop-color:#fff;stop-opacity:.3" offset="0"/>
    <stop style="stop-color:#fff;stop-opacity:.2" offset=".2"/>
    <stop style="stop-color:#666;stop-opacity:.1" offset=".6"/>
    <stop style="stop-color:#000;stop-opacity:.13" offset="1"/>
  </radialGradient>
  <clipPath id="clip-shield">
    <path id="shield" d="m2,2v257c0,286 298,398 298,398c0,0 298-112 298-398V2z"/>
  </clipPath>
  <pattern id="vair" patternUnits="userSpaceOnUse" width="120" height="220">
    <path fill="#bbb" d="M60,0 l30,30 v50 l30,30 v110 h-60 l30,-30 v-50 l30,-30 H0 l30,30 v50 l30,30 H0 v-110 l30,-30 v-50z"/>
  </pattern>
</defs>
<g id="design" clip-path="url(#clip-shield)">
  <rect fill="#080" x="0" y="0" width="600" height="660"/>
  <rect fill="url(#vair)" x="0" y="0" width="600" height="660"/>
  <path fill="none" stroke="#f80" stroke-width="132" d="M0,0 l600,600"/>
</g>
<use id="shine" xlink:href="#shield" fill="url(#rg)" stroke="#000" stroke-width="3"/>
</svg>