<?xml version="1.0" encoding="UTF-8" standalone="no"?>
<svg
   xmlns:dc="http://purl.org/dc/elements/1.1/"
   xmlns:cc="http://creativecommons.org/ns#"
   xmlns:rdf="http://www.w3.org/1999/02/22-rdf-syntax-ns#"
   xmlns:svg="http://www.w3.org/2000/svg"
   xmlns="http://www.w3.org/2000/svg"
   xmlns:xlink="http://www.w3.org/1999/xlink"
   xmlns:sodipodi="http://sodipodi.sourceforge.net/DTD/sodipodi-0.dtd"
   xmlns:inkscape="http://www.inkscape.org/namespaces/inkscape"
   version="1.1"
   id="svg2"
   height="660"
   width="600"
   inkscape:version="0.91 r13725"
   sodipodi:docname="House_Osgrey.svg">
  <sodipodi:namedview
     pagecolor="#ffffff"
     bordercolor="#666666"
     borderopacity="1"
     objecttolerance="10"
     gridtolerance="10"
     guidetolerance="10"
     inkscape:pageopacity="0"
     inkscape:pageshadow="2"
     inkscape:window-width="1366"
     inkscape:window-height="705"
     id="namedview409"
     showgrid="false"
     inkscape:zoom="0.50568849"
     inkscape:cx="221.51827"
     inkscape:cy="364.30981"
     inkscape:window-x="-8"
     inkscape:window-y="-8"
     inkscape:window-maximized="1"
     inkscape:current-layer="svg2" />
  <metadata
     id="metadata19">
    <rdf:RDF>
      <cc:Work
         rdf:about="">
        <dc:format>image/svg+xml</dc:format>
        <dc:type
           rdf:resource="http://purl.org/dc/dcmitype/StillImage" />
        <dc:title />
      </cc:Work>
    </rdf:RDF>
  </metadata>
  <defs
     id="defs17">
    <pattern
       inkscape:collect="always"
       xlink:href="#pattern5658"
       id="pattern5667"
       patternTransform="matrix(3.5030904,0,0,3.5030904,-23.995324,-16.417853)" />
    <radialGradient
       r="405"
       cy="220"
       cx="220"
       gradientUnits="userSpaceOnUse"
       id="radialGradient4153"
       xlink:href="#rg" />
    <pattern
       patternUnits="userSpaceOnUse"
       width="20"
       height="20"
       id="pattern5658">
      <rect
         style="opacity:1;fill:#ffff00;fill-opacity:1;stroke:none;stroke-width:60;stroke-linecap:square;stroke-miterlimit:4;stroke-dasharray:none;stroke-opacity:1"
         id="rect5656"
         width="20"
         height="20"
         x="0"
         y="0" />
      <rect
         y="0"
         x="0"
         height="10"
         width="10"
         id="rect5652"
         style="opacity:1;fill:#008000;fill-opacity:1;stroke:none;stroke-width:60;stroke-linecap:square;stroke-miterlimit:4;stroke-dasharray:none;stroke-opacity:1" />
      <rect
         style="opacity:1;fill:#008000;fill-opacity:1;stroke:none;stroke-width:60;stroke-linecap:square;stroke-miterlimit:4;stroke-dasharray:none;stroke-opacity:1"
         id="rect5654"
         width="10"
         height="10"
         x="10"
         y="10" />
    </pattern>
  </defs>
  <radialGradient
     r="405"
     cy="220"
     cx="220"
     gradientUnits="userSpaceOnUse"
     id="rg">
    <stop
       id="stop5"
       offset="0"
       style="stop-color:#fff;stop-opacity:.3" />
    <stop
       id="stop7"
       offset=".2"
       style="stop-color:#fff;stop-opacity:.2" />
    <stop
       id="stop9"
       offset=".6"
       style="stop-color:#666;stop-opacity:.1" />
    <stop
       id="stop11"
       offset="1"
       style="stop-color:#000;stop-opacity:.13" />
  </radialGradient>
  <path
     d="m 2,2 0,257 c 0,286 298,398 298,398 0,0 298,-112 298,-398 L 598,2 Z"
     id="path7212"
     style="fill:#ffffff;fill-opacity:1;stroke:none;stroke-width:3" />
  <path
     d="m 2,2 0,257 c 0,286 298,398 298,398 0,0 298,-112 298,-398 L 598,2 Z"
     id="path7200"
     style="fill:none;fill-opacity:1;stroke:none;stroke-width:3" />
  <g
     id="g6615"
     transform="matrix(1.5658275,0,0,1.5658275,84.89064,15.498178)"
     style="fill:url(#pattern5667);fill-opacity:1">
    <g
       style="fill:url(#pattern5667);fill-opacity:1;stroke:#000000;stroke-width:1.29999995"
       id="g6">
      <path
         style="fill:url(#pattern5667);fill-opacity:1;stroke-linejoin:bevel"
         id="path8"
         d="m 135.04,193.388 c -20.582,2.524 -36.923,10.758 -38.24,27.887 -1.122,14.563 10.147,17.658 10.3,26.477 0.1,5.777 -10.21,12.65 -21.875,26.015 -3.525,0.058 -9.395,4.2 -11.44,4.235 -1.535,0.028 -2.473,-1.866 -5,-1.825 -2.065,0.036 -4.92,1.718 -5.918,2.583 -1.23,-0.787 -4.284,-1.51 -5.984,-0.98 -3.22,1.01 -6.268,5.927 -6.216,8.886 0.073,4.18 5.086,5.315 7.03,3.966 0.373,3.4 5.564,4.886 7.82,2.76 l 18.53,-0.698 c 1.2,0.962 11.41,6.18 10.18,4.514 -1.023,-1.387 0.483,-5.573 3.005,-5.77 1.748,0.646 2.12,0.796 2.814,1.477 1.11,0.225 2.362,-0.42 2.925,-1.313 -0.04,-2.34 0.39,-4.844 -1.237,-7.626 2.612,-4.1 5.864,-7.743 10.247,-9.844 1.048,5.757 5.587,8.1 11.238,6.292 -2.356,-1.678 -3.353,-4.51 -3.695,-8.29 1.284,3.915 6.555,4.834 9.368,3.227 -3.41,-2.543 -3.85,-5.15 -5.51,-8.23 2.405,5.058 6.747,6.65 10.08,4.62 -4.936,-5.433 -1.143,-5.184 -6.262,-9.052 5.747,-3.64 12.716,-7.128 12.272,-14.455 -1.77,-2.887 -6.716,-0.003 -7.477,-3.31 -1.537,-6.684 3.983,-11.617 6.438,-13.29 4.548,-3.1 11.807,-3.084 16.482,-3.16 l 3.916,-0.066 -0.713,-38.48 -23.074,3.45 z"
         class="fil4 str9"
         inkscape:connector-curvature="0" />
      <path
         style="fill:url(#pattern5667);fill-opacity:1;stroke-linecap:round;stroke-linejoin:bevel"
         id="path10"
         d="m 68.246,285.932 c -1.345,1.27 -3.315,2.967 -3.406,6.898 -0.085,3.723 4.178,7.435 8.22,7.37 5.274,-0.09 11.48,-3.198 11.137,-10.89 m -15.95,-3.378 z"
         class="fil4 str10"
         inkscape:connector-curvature="0" />
      <path
         style="fill:url(#pattern5667);fill-opacity:1;stroke-linecap:round;stroke-linejoin:bevel"
         id="path12"
         d="m 57.697,290.66 c -0.35,-3.575 1.723,-9.335 5.2,-11.923"
         class="fil5 str10"
         inkscape:connector-curvature="0" />
      <path
         style="fill:#333333;fill-opacity:1;stroke-linejoin:bevel"
         id="path14"
         d="m 72.838,289.758 c 0.402,1.918 2.55,2.63 3.39,4.31 -0.474,3.952 -2.222,7.54 -5.313,9.664 -2.77,-2.473 -3.812,-7.626 -2.723,-10.76 1.275,-1.337 3.35,-2.048 4.646,-3.214 z m 24.627,0.062 c -0.352,0.942 -3.806,2.66 -5.414,4.455 2.188,3.557 3.007,5.26 4.33,8.67 2.68,-2.56 4.863,-6.934 3.665,-10.03 -0.976,-0.955 -2.245,-2.008 -2.58,-3.095 z m -33.597,0.993 c -0.472,3.05 -2.912,4.8 -4.316,6.714 -1.95,-2.26 -2.112,-5.692 -1.007,-7.66 1.768,-1.73 4.294,-1.358 5.323,0.946 z m -8.16,-1.575 c -1.404,2.46 -2.915,3.353 -3.596,5.28 -1.26,-2.203 -1.846,-6.14 0.294,-7.353 1.615,-0.497 2.998,0.483 3.302,2.073 z"
         class="fil4 str9"
         inkscape:connector-curvature="0" />
      <path
         style="fill:url(#pattern5667);fill-opacity:1;stroke-linecap:round;stroke-linejoin:bevel"
         id="path16"
         d="m 85.138,273.768 c 2.342,-0.04 4.317,0.112 5.895,0.085 m 11.162,6.525 c -0.457,0.944 -1.008,2.566 -0.464,3.597"
         class="fil5 str10"
         inkscape:connector-curvature="0" />
      <path
         style="fill:#000000;fill-opacity:1;stroke:none"
         id="path18"
         d="m 127.3,241.377 c -1.207,6.747 1.155,8.722 3.35,10.923 -2.933,7.783 -7.824,6.45 -13.848,11.714 4.764,-4.938 9.36,-5.116 12.265,-11.446 -1.464,-1.292 -4.104,-3.84 -1.766,-11.19 z m -8.248,-35.451 c -13.06,3.754 -15.34,8.837 -12.72,22.42 -1.31,-11.21 -0.394,-16.858 12.72,-22.42 z m 39.504,12.486 c -10.655,-0.5 -22.944,2.84 -26.843,9.082 6.167,-6.528 20.152,-7.918 26.954,-7.793 l -0.11,-1.288 z"
         class="fil2"
         inkscape:connector-curvature="0" />
    </g>
    <path
       style="fill:url(#pattern5667);fill-opacity:1;stroke:#000000;stroke-width:1.29999995;stroke-linecap:round;stroke-linejoin:bevel"
       id="path20"
       class="fil4 str10"
       d="m 166.69,203.073 c -14.377,-1.853 -17.552,-17.993 -35.42,-11.484 16.13,7.965 13.803,9.85 23.964,23.034 l 18.776,-1.212 -7.32,-10.34 z"
       inkscape:connector-curvature="0" />
    <g
       style="fill:url(#pattern5667);fill-opacity:1;stroke:#000000;stroke-width:1.29999995"
       id="g22">
      <path
         style="fill:url(#pattern5667);fill-opacity:1;stroke-linejoin:round"
         id="path24"
         d="m 186.336,183.654 c -12.91,-16.066 -19.583,-27.296 -19.257,-42.83 0.232,-11.14 4.218,-20.56 4.29,-32.273 l -50.564,-0.992 -13.262,16.1 c -5.893,18.624 1.915,37.518 13.857,49.233 12.66,12.418 31.138,23.7 33.71,36.652 2.545,12.813 -13.32,30.552 -2.14,46.772 8.277,12.008 30.377,8.072 34.53,16.57 4.045,6.234 3.17,17.84 -2.632,27.153 -1.957,-0.045 -5.437,2.372 -5.437,2.372 0,0 -2.344,-1.07 -5.026,-1.13 -2.436,-0.056 -5.09,0.975 -5.804,1.82 -0.95,-1.842 -3.948,-2.17 -5.374,-2.086 -1.897,0.113 -7.61,1.077 -8.933,7.134 -0.2,8.15 8.405,8.714 8.802,5.127 0.673,7.35 10.37,8.09 12.373,3.714 0.745,5.01 3.46,6.3 6.948,6.908 3.87,0.674 9.452,-2.518 10.598,-7.782 1.523,3.446 5.57,5.22 10.172,3.608 7.01,-2.456 6.37,-9.01 2.113,-16.21 1.464,-2.374 1.272,-2.774 3.666,-9.94 2.227,0.53 10.562,0.71 12.234,-3.388 -3.08,0.008 -6.56,-3.115 -8.9,-4.34 5.544,2.624 8.038,0.575 10.877,-2.794 -2.752,-0.453 -7.863,-1.35 -10.24,-4.37 6.22,4.123 9.495,2.402 11.167,-1.696 -1.34,-0.03 -3.87,0.146 -5.427,-0.826 -1.557,-0.97 -3.762,-4.69 -6.525,-4.674 0.25,-3.372 4.28,-13.26 -0.38,-16.643 -8.42,10.692 -22.64,-7.38 -23.878,-12.603 -1.133,-10.69 6.177,-21.046 3.935,-32.04 7.18,-1.383 3.37,-15.516 -5.494,-26.546 z"
         class="fil4 str11"
         inkscape:connector-curvature="0" />
      <path
         style="fill:url(#pattern5667);fill-opacity:1;stroke-linecap:round;stroke-linejoin:bevel"
         id="path26"
         d="m 146.04,147.822 c 2.26,12.824 11.112,15.488 18.458,27.192 m 17.662,15.083 c 5.5,6.3 9.062,13.86 9.67,20.102"
         class="fil5 str10"
         inkscape:connector-curvature="0" />
      <path
         style="fill:url(#pattern5667);fill-opacity:1;stroke-linecap:round;stroke-linejoin:round"
         id="path28"
         d="m 175.467,316.987 c 0.48,-3.304 0.404,-3.893 2.032,-6.04 1.142,-1.51 4.488,-3.02 5.525,-3.464 m -19.93,5.792 c -0.053,-3.636 3.084,-7.992 5.505,-10.177 m 24.415,13.018 c 0.85,-1.817 0.336,-3.905 0.2,-5.664"
         class="fil5 str12"
         inkscape:connector-curvature="0" />
      <path
         style="fill:#333333;fill-opacity:1;stroke-linejoin:round"
         id="path30"
         d="m 204.9,316.002 c 0.348,4.856 0.202,6.458 -3.527,10.42 -0.73,-2.67 -2.228,-7.925 -1.91,-10.148 1.34,-2.097 3.902,-2.3 5.437,-0.272 z m -34.78,-3.099 c 0.012,0.77 1.17,3.218 1.143,4.737 -1.745,2.56 -3.104,5.63 -4.41,7.87 -2.378,-2.466 -2.305,-10.418 -0.433,-12.193 1.298,-0.452 2.56,-0.563 3.7,-0.414 z m -10.438,-3.077 c -0.016,0.646 0.87,2.74 0.793,4.01 -1.55,2.087 -2.797,4.612 -3.97,6.446 -1.908,-2.148 -1.57,-8.813 0.06,-10.24 1.105,-0.33 2.168,-0.382 3.116,-0.216 z m 22.133,5.547 c 0.994,1.548 2.082,2.323 2.738,3.78 -0.538,3.35 -2.15,6.346 -4.852,8.05 -2.273,-2.196 -2.985,-6.618 -1.95,-9.25 0.565,-1.212 1.62,-2.515 4.065,-2.58 z"
         class="fil4 str11"
         inkscape:connector-curvature="0" />
      <path
         style="fill:#000000;fill-opacity:1;stroke:none"
         id="path32"
         d="m 202.88,274.295 c 0.885,-3.588 1.446,-6.03 1.135,-7.26 -0.568,-2.243 -2.09,-2.75 -4.866,-5.7 2.563,1.813 6.31,2.69 6.97,4.34 0.888,2.223 -2.983,8.037 -3.24,8.62 z m -45.738,-45.56 c -3.22,9.91 -4.23,24.8 8.287,30.13 -10.332,-9.815 -8.875,-16.044 -8.288,-30.13 z"
         class="fil2"
         inkscape:connector-curvature="0" />
    </g>
    <g
       style="fill:url(#pattern5667);fill-opacity:1;stroke:#000000;stroke-width:0.241;stroke-linejoin:round"
       id="g34">
      <path
         style="fill:#333333;fill-opacity:1"
         id="path36"
         transform="matrix(5.15577,-0.67097,0.721,5.54024,-205.322,-673.476)"
         class="fil0 str3"
         d="m 30.545,138.812 c 0.136,0.13 0.602,0.475 0.635,0.924 0.028,0.418 -0.154,0.865 -0.67,0.85 -0.123,0 -0.205,-0.05 -0.28,-0.126 -0.065,-0.07 -0.09,-0.202 -0.11,-0.307 -0.007,-0.216 0.145,-0.352 0.257,-0.5 0.175,-0.23 0.134,-0.754 0.168,-0.84 z m -2.168,-1.082 c 0.03,0.16 -0.015,0.705 -0.2,0.952 -0.098,0.235 -0.165,0.402 -0.186,0.466 -0.01,0.36 0.363,0.81 0.724,0.533 1.023,-0.93 -0.17,-1.87 -0.337,-1.95 z"
         inkscape:connector-curvature="0" />
      <path
         style="fill:url(#pattern5667);fill-opacity:1"
         id="path38"
         transform="matrix(5.15577,-0.67097,0.721,5.54024,-205.322,-673.476)"
         class="fil0 str3"
         d="m 28.85,141.085 c -0.02,-0.05 0.11,-0.346 0.15,-0.516 0.037,-0.146 0.13,-0.303 0.18,-0.407 0.066,-0.14 0.183,-0.183 0.292,-0.243 0.08,-0.043 0.267,0.035 0.387,0.015 0.105,-0.018 0.27,0.22 0.328,0.252 0.097,0.056 0.21,0.14 0.34,0.204 0.13,0.064 0.292,0.137 0.395,0.197 0.125,0.073 0.23,0.185 0.293,0.292 0.074,0.125 0.057,0.253 0.058,0.4 0,0.14 -0.045,0.29 -0.08,0.435 -0.044,0.18 -0.134,0.236 -0.245,0.36 -0.12,0.135 -0.244,0.154 -0.398,0.238 l -0.09,0.05 c -0.1,0.054 -0.142,0.09 -0.21,0.115 m -1.403,-1.393 z"
         inkscape:connector-curvature="0" />
      <path
         style="fill:url(#pattern5667);fill-opacity:1;stroke-width:1.29889774"
         d="m 36.755859,75.234375 c -2.336338,0.05502 -4.521315,1.55654 -4.621093,3.78125 -2.280594,-1.207501 -4.030435,-1.490913 -6.40625,-0.207031 -2.233508,1.209021 -3.118343,2.911925 -4.548828,5.013672 -0.826527,1.22311 -1.33847,2.889244 -1.175782,4.501953 0.03751,1.617731 0.661717,3.390313 1.646485,4.591797 l 0.958984,-0.203125 c -1.081608,1.076015 -1.925001,2.133183 -2.376953,2.890625 -1.682695,2.782484 -1.260829,8.288154 2.123047,10.439454 1.20618,1.00928 3.171465,1.40692 4.542969,1.4707 3.438817,0.11588 7.182553,3.44855 9.9375,0.84766 1.253044,1.36939 -0.290389,-0.77413 1.496093,-0.3418 -0.06807,0.12154 -0.13368,0.25483 -0.179687,0.38477 2.921749,3.39459 6.50291,5.7331 10.478515,7.43554 3.526264,1.51302 9.206918,3.31046 9.125,5.78321 -0.0518,1.69696 -3.984365,6.85577 -5.445312,6.38672 5.075717,2.46072 11.903796,-3.29577 13.507812,-3.17774 -2.553489,3.50429 -2.377688,9.52784 -0.03125,12.49024 1.177974,-2.914 4.572396,-6.07691 6.789063,-7.05274 1.987641,1.97806 3.570492,0.6445 5.728516,0.91016 -0.08657,0.12042 -0.169855,0.26518 -0.25,0.42969 -0.08015,0.1645 -0.157609,0.34799 -0.230469,0.55078 -1.020039,2.83898 -1.282568,9.14513 0.394531,10.96289 1.174695,-3.06006 5.614177,-9.06822 6.837891,-8.81055 2.738817,0.57883 19.586919,5.67689 21.080079,5.14453 l 9.6582,-19.82617 -3.6289,-7.58594 -25.109379,-7.21094 C 80.848845,103.06146 73.655525,101.37859 69.615234,99.9043 67.214467,99.02231 61.331451,96.839469 58.0625,95.732422 54.252125,94.45357 47.832799,92.8782 45.847656,87.857422 c -0.935932,-2.357189 1.47229,-4.895139 -1.216797,-8.556641 l -1.644531,0.945313 -1.6875,-1.480469 -1.941406,-1.619141 0.496094,-1.021484 c -0.943655,-0.641314 -2.035685,-0.915632 -3.097657,-0.890625 z"
         id="path40"
         inkscape:connector-curvature="0" />
      <path
         style="fill:#333333;fill-opacity:1"
         id="path42"
         transform="matrix(5.15577,-0.67097,0.721,5.54024,-205.322,-673.476)"
         class="fil0 str3"
         d="m 22.698,142.952 c 0.1,-0.036 0.243,-0.038 0.646,-0.045 0.213,-0.004 0.77,0.116 1.03,0.055 0.343,-0.083 0.655,-0.703 0.332,-0.97 -0.832,-0.68 -1.966,0.797 -2.008,0.96 z m 0.908,-3.934 c 0.22,0.084 0.625,0.403 0.854,0.8 0.145,0.255 0.593,0.447 0.84,0.222 0.478,-0.434 0.263,-0.912 -0.218,-1.14 -0.24,-0.112 -0.805,-0.15 -1.08,-0.068 -0.067,0.015 -0.28,0.11 -0.396,0.186 z"
         inkscape:connector-curvature="0" />
      <path
         style="fill:url(#pattern5667);fill-opacity:1"
         id="path44"
         transform="matrix(5.15577,-0.67097,0.721,5.54024,-205.322,-673.476)"
         class="fil0 str3"
         d="m 26.603,139.02 c 0.037,0.063 0.16,0.207 0.204,0.32 0.034,0.09 0.11,0.18 0.14,0.255 0.057,0.157 0.117,0.316 0.174,0.468 0.036,0.094 0.05,0.195 0.08,0.276 0.04,0.105 0.07,0.22 0.114,0.324 0.034,0.078 0.108,0.156 0.156,0.226 0.058,0.084 0.103,0.173 0.19,0.222 0.11,0.06 0.318,0.3 0.388,0.4 0.1,0.145 0.282,0.25 0.435,0.336 0.01,0.005 0.01,0.016 0.017,0.025 0.04,0.058 0.15,0.06 0.185,0.08 m -2.082,-2.934 z m 0.906,2.865 c -0.982,-0.076 -1.535,-0.71 -2.205,-0.89 -0.372,-0.028 -0.632,0.032 -0.852,0.266 m 3.056,0.623 z M 26.745,143 c -0.023,0.015 -0.085,0.176 -0.11,0.217 -0.038,0.067 -0.05,0.1 -0.108,0.162 -0.06,0.065 -0.123,0.127 -0.182,0.19 -0.06,0.067 -0.074,0.1 -0.11,0.164 m 0.51,-0.734 z"
         inkscape:connector-curvature="0" />
      <path
         style="fill:url(#pattern5667);fill-opacity:1"
         id="path46"
         transform="matrix(5.15577,-0.67097,0.721,5.54024,-205.322,-673.476)"
         class="fil0 str3"
         d="m 25.935,140.783 c -0.06,0.066 0.082,0.19 0.037,0.267 -0.043,0.074 -0.062,0.107 -0.135,0.18 m 0.098,-0.447 z m 1.525,-0.633 c -0.045,0.078 -0.066,0.185 -0.196,0.2 -0.015,0.003 -0.025,0.018 -0.038,0.026 m 0.233,-0.225 z M 35,145.394 c -0.064,-0.056 -0.563,-0.15 -0.78,-0.218 -0.34,-0.107 -0.57,-0.318 -0.935,-0.445 -0.252,-0.086 -0.586,-0.41 -0.782,-0.542 -0.078,-0.052 -0.27,-0.097 -0.334,-0.11 m 2.83,1.316 z m -3.392,0.869 c -0.398,-0.266 0.603,0.754 1,1.02 0.31,0.207 0.507,0.636 0.794,0.828 0.105,0.07 0.253,0.024 0.377,0.01 m -2.17,-1.858 z"
         inkscape:connector-curvature="0" />
    </g>
    <g
       style="fill:url(#pattern5667);fill-opacity:1;stroke:#000000;stroke-width:0.241;stroke-linejoin:round"
       id="g48">
      <path
         style="fill:#333333;fill-opacity:1"
         id="path50"
         transform="matrix(5.17215,-0.53015,0.5697,5.55784,-176.718,-681.21)"
         class="fil0 str3"
         d="m 23.912,152.52 c 0.52,0.35 0.23,0.15 0.722,0.607 0.157,0.272 0.22,0.445 0.364,0.686 0.206,0.34 0.75,0.478 0.898,-0.03 0.223,-1.53 -1.266,-1.665 -1.984,-1.264 z"
         inkscape:connector-curvature="0" />
      <path
         style="fill:url(#pattern5667);fill-opacity:1;stroke-width:1.29889846"
         id="path52"
         class="fil0 str3"
         d="m 110.40922,120.42154 c 0,0 -13.617179,12.47099 -22.232706,19.6892 -6.857584,5.75752 -13.802902,10.65913 -20.940306,16.38917 -3.442772,2.76787 -8.829833,7.82989 -14.014866,6.04185 -2.43799,-0.83965 -3.559804,-5.86914 -8.147578,-5.96051 -0.186789,3.27656 -5.104646,4.75787 -6.165319,2.05848 -3.534659,1.41254 -3.852093,8.15648 -1.433424,10.69421 -1.715413,0.80485 -2.292249,1.34697 -3.375399,2.60933 -3.921319,4.5748 -2.134418,12.57449 2.708388,16.0207 1.7475,1.24178 3.657464,1.36614 5.121873,1.73273 l 0.03649,-0.96974 1.15962,3.86867 2.787301,2.20791 2.620185,1.44438 -0.506718,1.17518 c 1.288243,0.73847 3.127204,0.57806 4.434709,0.33171 1.566246,-0.4245 2.82804,-0.96382 3.772726,-2.25129 2.305437,-3.25785 2.820176,-4.40577 2.578318,-9.00876 0.943655,-0.12481 1.909138,-0.24062 2.88501,-0.40804 0.98797,-0.20236 1.650889,-0.61852 2.322667,-1.30516 0.0533,0.16302 0.111764,0.32552 0.177159,0.4536 0.609807,1.15622 1.471609,1.96648 1.783288,2.35575 0.474161,0.54672 2.534448,1.57673 3.193545,1.58218 l -0.364123,-1.51276 2.465093,0.0843 3.023743,-0.68622 -0.11987,1.68592 c 0.906113,-1.20489 2.251397,-1.28662 2.933546,-3.29976 0.534602,-1.51501 0.518645,-3.60823 0.355141,-5.20333 -0.129712,-1.4694 4.669482,-4.56725 7.047245,-5.79381 5.700063,-2.92624 7.302466,1.23402 7.225117,4.86442 3.197927,-2.70908 5.714323,-7.98792 2.51945,-13.25422 4.138321,0.19361 6.294705,2.36509 6.402905,8.00955 4.54782,-3.45961 4.39897,-9.90864 2.25175,-14.64206 6.27315,2.05279 5.3842,3.98603 5.78061,8.6181 7.77311,-6.56462 3.83337,-9.71587 5.43964,-15.10361 0.64437,-2.17776 2.75496,-4.73606 6.07227,-8.575"
         inkscape:connector-curvature="0" />
      <path
         style="fill:#333333;fill-opacity:1"
         id="path54"
         transform="matrix(5.17215,-0.53015,0.5697,5.55784,-176.718,-681.21)"
         class="fil0 str3"
         d="m 29.967,160.44 c 0.194,-0.05 0.623,-0.205 0.894,-0.636 0.25,-0.402 0.257,-1.113 -0.226,-1.396 -0.116,-0.07 -0.218,-0.068 -0.328,-0.035 -0.32,0.248 -0.39,0.604 -0.352,0.92 0.064,0.28 0.028,1.038 0.013,1.147 z m -4.727,1.312 c 0.033,-0.116 0.184,-0.516 0.44,-0.896 0.133,-0.2 0.44,-0.308 0.555,-0.59 0.153,-0.376 -0.184,-1.155 -0.618,-1.04 -1.608,0.39 -0.668,2.314 -0.377,2.526 z m -3.194,-3.544 c 0.214,-0.146 0.745,-0.302 1.23,-0.24 0.31,0.043 0.76,-0.24 0.73,-0.625 -0.06,-0.745 -0.603,-0.877 -1.105,-0.587 -0.25,0.144 -0.646,0.644 -0.756,0.956 -0.03,0.072 -0.087,0.335 -0.098,0.496 z"
         inkscape:connector-curvature="0" />
      <path
         style="fill:url(#pattern5667);fill-opacity:1"
         id="path56"
         transform="matrix(5.17215,-0.53015,0.5697,5.55784,-176.718,-681.21)"
         class="fil0 str3"
         d="m 24.272,155.34 c 0.08,0.01 0.28,-0.007 0.404,0.032 0.1,0.032 0.223,0.02 0.306,0.048 l 0.51,0.16 c 0.1,0.033 0.196,0.09 0.283,0.118 0.116,0.036 0.232,0.088 0.35,0.12 0.087,0.022 0.2,0.007 0.29,0.01 0.11,0.004 0.214,0.025 0.312,-0.023 0.12,-0.06 0.458,-0.088 0.59,-0.082 0.186,0.007 0.393,-0.09 0.564,-0.173 0.01,-0.005 0.023,0 0.033,0 0.076,0.004 0.15,-0.096 0.187,-0.115 m -3.828,-0.096 z m 3.009,1.141 c 0.005,0 -0.264,0.274 -0.314,0.323 -0.128,0.124 -0.278,0.208 -0.428,0.318 -0.158,0.117 -0.34,0.21 -0.523,0.28 -0.22,0.086 -0.385,0.193 -0.604,0.277 -0.236,0.127 -0.38,0.303 -0.506,0.527 -0.105,0.227 -0.186,0.5 -0.128,0.683 m 2.502,-2.407 z m 0.453,1.481 c 0.184,0.308 0.3,0.564 0.313,0.836 m -0.313,-0.836 z m 1.344,0.625 c -0.094,-0.27 -0.177,-0.507 -0.1,-0.776 0.063,-0.28 0.232,-0.49 0.32,-0.633 m 2.165,-0.305 c 0,0 0.16,0.252 0.192,0.29 0.058,0.07 0.05,0.23 0.076,0.303 0.034,0.083 -0.002,0.228 0.012,0.318 0.008,0.05 0.002,0.127 0.006,0.16 m -0.285,-1.07 z"
         inkscape:connector-curvature="0" />
      <path
         style="fill:url(#pattern5667);fill-opacity:1"
         id="path58"
         transform="matrix(5.17215,-0.53015,0.5697,5.55784,-176.718,-681.21)"
         class="fil0 str3"
         d="m 25.334,157.18 c 0.016,0.103 0.212,0.055 0.25,0.15 0.034,0.09 0.05,0.13 0.064,0.25 m -0.314,-0.4 z m 0.45,-1.852 c 0.036,0.094 0.114,0.188 0.043,0.32 -0.008,0.015 -0.002,0.034 -0.003,0.052 m -0.04,-0.372 z m 9.311,-3.376 c -0.09,0.02 -0.492,0.42 -0.69,0.573 -0.31,0.243 -0.637,0.31 -0.98,0.56 -0.236,0.176 -0.727,0.26 -0.965,0.352 -0.094,0.036 -0.256,0.184 -0.31,0.235 m 2.945,-1.72 z m -1.825,3.614 c 0.476,-0.196 1.063,-0.347 1.58,-0.634 0.503,-0.28 0.936,-0.698 1.48,-0.838"
         inkscape:connector-curvature="0" />
    </g>
    <g
       style="fill:url(#pattern5667);fill-opacity:1;stroke:#000000;stroke-width:1.29999995"
       id="g60">
      <path
         style="fill:url(#pattern5667);fill-opacity:1;stroke-width:1.29863811"
         id="path62"
         d="m 194.494,198.34 c 1.354,6.538 6.793,15.32 13.056,14.446 12.69,-1.77 10.31,-20.177 4.89,-38.242 -4.467,-14.89 -10.49,-22.285 -11.837,-38.244 -0.858,-10.173 1.95,-21.382 5.416,-31.925 0.846,-5.423 9.642,-2.967 6.862,2.574 -2.932,8.414 -5.384,20.872 -4.983,29.345 0.545,11.51 7.573,23.725 12.485,37.86 3.52,6.914 7.2,5.79 8.412,5.724 -0.4,2.84 -3.917,5.043 -7.415,1.7 0.676,3.132 2.475,7.75 8.42,7.443 -1.915,2.074 -4.033,3.492 -7.206,1.537 0.433,2.654 1.772,8.534 8.212,10.12 -1.986,1.996 -5.09,3.265 -6.824,-0.072 0.718,6.857 -2.074,18.675 -14.13,20.852 -9.744,1.76 -15.81,-5.103 -18.025,-11.26"
         inkscape:connector-curvature="0" />
      <g
         style="fill:url(#pattern5667);fill-opacity:1;stroke-width:1.32099998"
         id="g64">
        <path
           style="fill:url(#pattern5667);fill-opacity:1;stroke-width:1.30046284"
           id="path66"
           d="m 212.61601,107.97977 0.27059,-1.03084 c 1.99176,-1.71047 6.60871,-5.11545 8.88272,-9.872814 2.94427,-6.161741 1.97956,-15.19553 3.90263,-21.671065 0.91806,-3.090609 3.18927,-4.935559 5.60317,-6.474998 -0.29852,-0.499148 -2.58602,-1.27841 -3.7254,-1.646503 2.43271,-3.297411 3.60397,-3.80433 5.7883,-4.223927 -1.2623,-1.261379 -2.68074,-2.422171 -6.05497,-2.330479 0.69197,-1.24972 1.81308,-2.725531 3.69722,-4.601253 -4.26835,0.291454 -7.28724,2.105715 -9.81637,4.504198 -2.78993,2.646254 -3.79496,4.745244 -6.55864,7.482004 -4.88327,4.829698 -7.15868,8.57489 -9.34579,15.521237 -2.45322,7.587659 -0.8422,15.979828 0.76301,20.74705 l -0.3439,1.05748"
           inkscape:connector-curvature="0" />
        <g
           style="fill:url(#pattern5667);fill-opacity:1;stroke-width:0.616;stroke-linejoin:round"
           id="g68">
          <path
             style="fill:url(#pattern5667);fill-opacity:1;stroke-width:1.29992247"
             id="path70"
             d="m 209.80871,102.281 c 0.0401,-0.68763 -0.41923,-5.031026 -0.23224,-8.245983 -1.79386,-13.503796 3.56232,-18.046079 9.52361,-24.112281 m -5.3478,29.791306 c 4.46518,-4.839716 6.21102,-10.486066 6.75874,-17.726368 0.79154,-11.660208 2.06732,-8.44852 7.02463,-14.692265"
             class="fil7 str7"
             inkscape:connector-curvature="0" />
          <path
             style="fill:url(#pattern5667);fill-opacity:1;stroke-width:1.29992247"
             id="path72"
             d="m 213.04057,92.089231 c -0.36176,-5.892013 2.74187,-8.885778 3.09782,-15.048803 0.21065,-3.65831 2.43291,-7.282835 5.85598,-9.930396 2.79651,-2.321598 4.19234,-4.435832 5.27697,-6.368212"
             class="fil7 str7"
             inkscape:connector-curvature="0" />
        </g>
      </g>
    </g>
    <g
       style="fill:url(#pattern5667);fill-opacity:1;stroke:#000000;stroke-width:1.29999995"
       id="g74">
      <path
         style="fill:url(#pattern5667);fill-opacity:1;stroke-linecap:round;stroke-linejoin:bevel"
         id="path76"
         d="m 73.43,120.49 c 18.363,3.287 18.332,-10.678 25.875,-13.684 -4.857,-0.412 -12.91,4.595 -18.85,-2.003 9.57,-3.15 9.412,-7.925 15.805,-9.373 7.52,-1.704 12.87,1.844 19.688,3.682 -7.915,-3.91 -6.46,-10.042 -6.207,-15.568 3.05,5.152 8.038,7.485 14.34,5.074 6.506,-2.49 10.743,-9.65 23.02,-15.084 l 1.723,-3.736 16.44,-28.753 17.172,4.713 c 10.84,2.976 1.77,16.992 14.845,23.844 -2.103,1.82 -7.975,2.912 -12.14,-3.515 2.376,5.814 7.335,8.584 8.916,13.91 1.617,5.448 -1.403,13.24 -1.036,22.433 -0.536,-2.52 -5.403,-0.225 -8.185,-7.556 2.026,6.648 2.566,13.422 0.816,19.04 -2.01,6.454 -3.814,11.612 -3.935,17.352 -5.66,-4.23 -7.582,-8.13 -9.373,-15.83 1.302,4.686 4.574,14.842 -0.305,21.083 -4.57,5.847 -6.044,9.377 -6.797,16.002 -6.67,-1.324 -7.06,-14.117 -8.44,-20.81 -0.483,18.965 -10.118,17.926 -8.912,32.184 -12.088,-2.088 -15.427,-15.792 -14.54,-28.35 -2.186,16.036 -17.115,17.31 -4.675,31.042 -20.667,-1.746 -23.696,-15.9 -18.52,-29.992 -2.303,8.983 -12.023,15.25 -18.607,15.122 8.267,-15.053 -0.81,-19.486 7.345,-29.245 -11.93,9.67 -19.43,6.05 -25.46,-1.982 z"
         class="fil4 str10"
         inkscape:connector-curvature="0" />
      <path
         style="fill:#ff0000;fill-opacity:1;stroke-linejoin:bevel"
         id="path78"
         class="fil4 str9"
         d="m 108.805,51.98 c -1.102,1.92 -1.822,3.52 -1.88,6.28 -0.12,5.585 4.09,8.618 8.744,8.732 8.49,0.208 10.21,-4.05 17.558,-3.87 5.566,0.435 9.09,6.288 10.64,10.08 -3.705,1.638 -5.23,1.254 -8.027,0.61 0.062,-2.88 -1.79,-5.88 -4.592,-5.95 -3.43,-0.083 -7.46,4.033 -16.585,3.81 -4.036,-0.1 -11.192,-3.054 -11.01,-11.626 0.097,-4.62 3.21,-8.435 5.152,-8.067 z"
         inkscape:connector-curvature="0" />
      <path
         style="fill:#ffffff;fill-opacity:1;stroke-linejoin:bevel"
         id="path80"
         class="fil4 str9"
         d="m 127.64,74.44 c -1.216,-0.25 -2.63,-0.46 -3.184,-0.902 0.104,-1.432 0.506,-2.922 1.31,-4.557 0.265,1.928 0.906,3.736 1.875,5.46 m -1.687,-9.68 c -1.15,-1.383 -1.915,-2.767 -2.34,-4.13 0.44,-0.57 1.775,-1.13 2.9,-1.683 -0.55,1.92 -0.74,3.874 -0.56,5.812 z"
         inkscape:connector-curvature="0" />
      <path
         style="fill:url(#pattern5667);fill-opacity:1;stroke-linejoin:bevel"
         id="path82"
         class="fil4 str9"
         d="m 188.532,42.76 c -1.175,5.06 -8.713,5.127 -14.154,2.837 1.684,0.547 5.443,6.798 10.623,7.928 -2.24,2.44 -6.158,3.644 -10.984,2.773 9.66,7.208 5.315,14.873 3.407,18.728 0.473,-5.405 -2.275,-8.125 -5.672,-10.304 -1.507,10.165 4.13,14.74 -6.26,21.677 3.612,-5.675 -1.066,-5.064 -1.15,-12.957 0.866,9.018 -9.168,8.298 -10.55,18.684 -5.527,-8.275 3.643,-12.163 2.162,-19.3 -0.194,7.484 -7.63,5.21 -17.064,5.11 -7.557,-0.08 -20.732,7.335 -16.248,-5.046 2.484,-0.658 9.554,0.19 11.63,0.24 11.6,1.216 13.348,-13.204 3.818,-15.396 -5.024,-1.052 -9.32,2.637 -14.136,3.51 -5.728,1.036 -5.775,-7.603 -5.362,-10.726 -1.594,-0.865 -1.158,-2.45 -0.99,-3.445 1.177,-0.73 7.777,-5.922 12.335,-6.255 0.79,-1.672 3.05,-3.306 4.948,-4.08 3.024,-1.236 8.038,-1.39 9.708,-2.173 2.882,-1.352 3.947,-3.096 8.916,-3.91 5.158,-0.908 8.252,-0.41 11.768,0.69 2.04,0.638 3.56,1.053 5.034,2.04 2.915,1.955 13.556,9.98 18.224,9.374 z"
         inkscape:connector-curvature="0" />
      <path
         style="fill:url(#pattern5667);fill-opacity:1;stroke-linecap:round;stroke-linejoin:bevel"
         id="path84"
         class="fil5 str10"
         d="m 130.262,40.827 c 5.775,0.73 10.943,3.327 18.424,3.51"
         inkscape:connector-curvature="0" />
      <path
         style="fill:url(#pattern5667);fill-opacity:1;stroke-linecap:round;stroke-linejoin:round"
         id="path86"
         class="fil5 str12"
         d="m 118.59,50.518 c 2.654,-0.31 4.54,-1.99 7.034,-3.762"
         inkscape:connector-curvature="0" />
      <path
         style="fill:url(#pattern5667);fill-opacity:1;stroke-linecap:round;stroke-linejoin:bevel"
         id="path88"
         class="fil5 str10"
         d="m 143.276,55.148 c 3.197,2.113 4.38,5.353 4.943,8.937"
         inkscape:connector-curvature="0" />
      <path
         style="fill:url(#pattern5667);fill-opacity:1;stroke-linejoin:round"
         id="path90"
         class="fil6 str11"
         d="m 156.004,38.05 c 1.09,-2.016 2.42,-4.282 3.952,-5.856 2.498,-2.377 5.75,-3.822 7.982,-3.074 2.302,0.775 3.99,4.583 4.155,7.26 0.074,2.607 -0.328,4.97 -1.82,7.435 m -14.27,-5.766 z"
         inkscape:connector-curvature="0" />
      <path
         style="fill:url(#pattern5667);fill-opacity:1;stroke-linejoin:round"
         id="path92"
         class="fil7 str11"
         d="m 134.28,45.014 c 1.273,1.7 1.863,1.885 2.9,2.265 1.057,0.39 3.786,0.164 3.786,0.164 m -6.686,-2.43 z m -0.3,-7.219 c 0,0 0.98,1.747 1.493,2.045 2.826,-0.216 4.076,1.93 6.89,-0.397 0.445,-0.527 1.978,-0.378 2.81,-0.017 0.387,0.168 1.218,1.1 1.218,1.1 m -12.41,-2.73 z M 117.6,47.073 c 0.427,-0.143 1.02,-0.362 1.634,-0.29 1.503,0.176 1.215,2.463 0.87,3.394"
         inkscape:connector-curvature="0" />
      <path
         style="fill:#ffffff;fill-opacity:1;stroke-linejoin:round"
         id="path94"
         d="m 136.284,39.924 c -0.18,-0.05 -0.37,-0.075 -0.563,-0.105 -1.094,0.755 -1.66,1.668 -1.783,2.74 -0.046,1.085 0.3,2.055 1.288,2.71 1.287,0.907 5.97,0.93 8.982,-1.254 -0.49,-0.262 -7.38,-3.948 -7.923,-4.09 z"
         class="fil10 str11"
         inkscape:connector-curvature="0" />
      <path
         style="fill:#000000;fill-opacity:1;stroke:none"
         id="path96"
         class="fil2"
         d="m 167.017,32.606 c -4.055,2.723 -4.745,6.213 -5.093,7.13 -0.904,-3.25 1.068,-6.776 5.093,-7.13 z"
         inkscape:connector-curvature="0" />
      <path
         style="fill:url(#pattern5667);fill-opacity:1;stroke-linejoin:round"
         id="path98"
         d="m 138.236,42.725 c 0,1.058 -0.665,2.015 -1.486,2.138 -0.82,0.122 -1.485,-0.636 -1.485,-1.694 0,-1.06 0.665,-2.016 1.485,-2.14 0.82,-0.12 1.486,0.637 1.486,1.695 z"
         inkscape:connector-curvature="0" />
      <path
         id="path100"
         d="m 137.68,42.836 c 0,0.617 -0.417,1.176 -0.93,1.248 -0.514,0.07 -0.93,-0.372 -0.93,-0.99 0,-0.617 0.416,-1.176 0.93,-1.247 0.513,-0.072 0.93,0.37 0.93,0.99 z"
         style="fill:url(#pattern5667);fill-opacity:1"
         inkscape:connector-curvature="0" />
      <path
         style="fill:url(#pattern5667);fill-opacity:1;stroke-linecap:round;stroke-linejoin:bevel"
         id="path102"
         class="fil5 str10"
         d="m 115.948,99.112 c 2.334,1.037 6.156,1.61 10.38,0.01 -4.59,8.705 -10.716,9.057 -17.27,10.48 11.28,8.47 23.477,3.168 32.715,-3.85 -4.8,6.533 -11.52,12.21 -12.196,17.77 14.322,-11.152 20.853,4.355 28.292,-11.848"
         inkscape:connector-curvature="0" />
    </g>
  </g>
  <path
     style="fill:url(#radialGradient4153);stroke:#000000;stroke-width:3"
     d="m 2,2 0,257 c 0,286 298,398 298,398 0,0 298,-112 298,-398 L 598,2 Z"
     id="path4147"
     inkscape:connector-curvature="0" />
</svg>
