<?xml version="1.0" encoding="UTF-8"?>
<svg xmlns="http://www.w3.org/2000/svg" xmlns:xlink="http://www.w3.org/1999/xlink" width="600" height="660">
<defs>
  <radialGradient id="rg" gradientUnits="userSpaceOnUse" cx="220" cy="220" r="405">
    <stop style="stop-color:#fff;stop-opacity:.3" offset="0"/>
    <stop style="stop-color:#fff;stop-opacity:.2" offset=".2"/>
    <stop style="stop-color:#666;stop-opacity:.1" offset=".6"/>
    <stop style="stop-color:#000;stop-opacity:.13" offset="1"/>
  </radialGradient>
  <path id="shield" d="m2,2v257c0,286 298,398 298,398c0,0 298-112 298-398V2z"/>
</defs>
<use id="background" xlink:href="#shield" fill="#000"/>
<path fill="#fff" d="m 349.098,81.384766 c -8.4005,0.04072 -14.6465,2.188324 -31.7657,1.722656 -10.4355,-0.283861 -9.5561,3.393755 -9.791,7.046875 -0.2938,4.567704 -2.5504,14.021643 2.502,17.103513 1.1236,0.68534 8.1673,1.12265 12.3535,1.29297 0.049,2.61884 2.7925,6.38707 3.7695,7.59961 -0.7658,-2.45664 -0.7918,-5.72773 -0.0156,-7.48047 13.5171,0.38289 29.2225,-0.28239 30.2441,4.63867 0.8997,4.33419 -14.8796,4.94311 -22.1093,5.58985 -17.3044,1.54799 -17.8014,5.58649 -13.9102,5.49609 3.6358,-0.0845 1.5519,-0.0797 6.9707,-0.44141 9.6404,-0.64356 11.3668,-1.93187 23.3066,-0.22265 20.3242,2.90949 28.2444,21.0052 20.1114,47.14648 -7.6572,24.61223 -39.5411,38.6676 -70.7637,54.78125 -11.9523,6.16848 -23.8033,12.63183 -34.166,20.11524 -11.7588,8.49166 -21.6001,18.28489 -27.4746,30.41797 -11.4178,23.58235 -10.8502,53.12166 12.3086,75.11718 5.8074,5.51565 14.3664,10.33884 23.4707,15.17383 7.9724,-6.72265 17.154,-12.54167 25.8613,-18.29101 -18.5361,-12.23917 -34.7796,-24.17423 -31.6836,-43.86719 2.8834,-18.34101 15.3062,-30.29279 31.6836,-40.4375 10.2868,-6.37196 22.1327,-12.03715 34.166,-18.11328 31.5614,-15.93665 64.3801,-34.74919 73.5645,-76.89649 5.9725,-27.40756 -6.2395,-68.80579 -31.9102,-79.75195 -6.6317,-2.827796 -12.3454,-6.863696 -22.9531,-7.615234 -1.3259,-0.09394 -2.5694,-0.1308 -3.7695,-0.125 z m 1.1308,4.982422 c 0.2351,-0.0077 0.4647,-0.0038 0.6875,0.0078 1.4853,0.07724 2.6387,0.521484 2.6387,0.521484 3.3371,1.483126 2.4718,5.065545 -3.0899,7.908204 -5.5617,2.842658 -7.9146,-1.863826 -7.791,-4.830079 0.046,-1.112345 0.7678,-1.267024 5.3867,-3.167968 0.7143,-0.293941 1.4628,-0.416428 2.168,-0.439453 z M 325.8616,366.48242 c -8.725,4.63353 -17.9353,9.28322 -25.8613,14.5957 13.79,9.24293 23.5492,20.47361 19.3887,37.06446 -4.1998,16.74774 -11.7027,24.63406 -19.3887,32.0293 -5.0905,4.89796 -10.2564,9.59418 -14.6035,16.48828 -3.5287,5.59617 -6.5187,12.63895 -8.4766,22.45117 -3.7768,18.92785 6.0044,41.04933 21.7598,68.44531 0.4645,-1.36297 0.8978,-2.68703 1.3203,-3.99805 -8.7537,-27.16236 -8.673,-43.49888 -5.1465,-60.60156 1.001,-4.85478 2.8027,-8.87366 5.1465,-12.35937 3.7875,-5.63298 9.0049,-9.86556 14.6035,-13.9375 16.5796,-12.0585 36.5028,-22.73031 32.582,-64.32618 -1.4382,-15.25792 -10.1617,-26.43891 -21.3242,-35.85156 z m -24.541,191.07422 c -0.4294,0.74665 -0.8822,1.51305 -1.3203,2.26758 1.8011,3.10186 3.6526,6.25148 5.5879,9.49023 -1.5981,-4.14594 -2.9993,-8.03583 -4.2676,-11.75781 z"/>
<path fill="#c00" d="m 250.9026,81.384766 c -1.2,-0.0058 -2.4435,0.03106 -3.7695,0.125 -10.6077,0.751538 -16.3214,4.787438 -22.9531,7.615234 -25.6707,10.94616 -37.8826,52.34439 -31.9102,79.75195 9.1845,42.1473 42.0031,60.95984 73.5645,76.89649 10.3627,-7.48341 22.2136,-13.94676 34.166,-20.11524 -31.2227,-16.11365 -63.1064,-30.16902 -70.7637,-54.78125 -8.1329,-26.14128 -0.2129,-44.23699 20.1114,-47.14648 11.9397,-1.70922 13.6662,-0.42092 23.3066,0.22265 5.4187,0.36177 3.3348,0.35691 6.9707,0.44141 3.8911,0.0904 3.3943,-3.9481 -13.9102,-5.49609 -7.2297,-0.64674 -23.0091,-1.25566 -22.1093,-5.58985 1.0215,-4.92106 16.7271,-4.25578 30.2441,-4.63867 0.7766,1.75274 0.7506,5.02383 -0.0156,7.48047 0.977,-1.21254 3.7205,-4.98077 3.7695,-7.59961 4.1862,-0.17032 11.23,-0.60763 12.3535,-1.29297 5.0525,-3.08187 2.7957,-12.535809 2.502,-17.103513 -0.2349,-3.65312 0.6445,-7.330736 -9.791,-7.046875 -17.1193,0.465668 -23.3652,-1.681933 -31.7657,-1.722656 z m -1.1289,4.982422 c 0.7053,0.02303 1.4519,0.145512 2.1661,0.439453 4.619,1.900944 5.3403,2.055623 5.3867,3.167968 0.1236,2.966253 -2.2293,7.672737 -7.791,4.830079 -5.5618,-2.842659 -6.4269,-6.425078 -3.0899,-7.908204 0,0 1.1533,-0.444247 2.6387,-0.521484 0.2228,-0.01158 0.4544,-0.01549 0.6894,-0.0078 z m 84.3926,159.406252 c -12.0333,6.07613 -23.8793,11.74132 -34.166,18.11328 16.3774,10.14471 28.8002,22.09649 31.6836,40.4375 3.0959,19.69296 -13.1476,31.62802 -31.6836,43.86719 -8.7073,5.74934 -17.8889,11.56836 -25.8613,18.29101 -11.1625,9.41265 -19.886,20.59364 -21.3242,35.85156 -3.9207,41.59587 16.0024,52.26768 32.582,64.32618 4.3471,-6.8941 9.5129,-11.59031 14.6035,-16.48828 -7.686,-7.39524 -15.1888,-15.28156 -19.3887,-32.0293 -4.1605,-16.59085 5.5987,-27.82154 19.3887,-37.06446 7.926,-5.31247 17.1363,-9.96217 25.8613,-14.5957 9.1043,-4.83499 17.6634,-9.65818 23.4707,-15.17383 23.1588,-21.99552 23.7265,-51.53483 12.3086,-75.11718 -5.8744,-12.13308 -15.7157,-21.92631 -27.4746,-30.41797 z m -19.5625,220.88672 c -5.5986,4.07194 -10.816,8.30452 -14.6035,13.9375 2.3437,3.48571 4.1455,7.50459 5.1465,12.35937 3.5264,17.10268 3.6071,33.4392 -5.1465,60.60156 -0.4225,1.31102 -0.8558,2.63508 -1.3203,3.99805 -1.2683,3.72198 -2.6695,7.61187 -4.2676,11.75781 1.9353,-3.23875 3.7868,-6.38837 5.5879,-9.49023 0.4382,-0.75453 0.8909,-1.52093 1.3203,-2.26758 15.7554,-27.39598 25.5365,-49.51746 21.7598,-68.44531 -1.9579,-9.81222 -4.9479,-16.855 -8.4766,-22.45117 z"/>
<use id="shine" xlink:href="#shield" fill="url(#rg)" stroke="#000" stroke-width="3"/>
</svg>