<?xml version="1.0" encoding="UTF-8" standalone="no"?>
<svg
   xmlns:dc="http://purl.org/dc/elements/1.1/"
   xmlns:cc="http://creativecommons.org/ns#"
   xmlns:rdf="http://www.w3.org/1999/02/22-rdf-syntax-ns#"
   xmlns:svg="http://www.w3.org/2000/svg"
   xmlns="http://www.w3.org/2000/svg"
   xmlns:xlink="http://www.w3.org/1999/xlink"
   xmlns:sodipodi="http://sodipodi.sourceforge.net/DTD/sodipodi-0.dtd"
   xmlns:inkscape="http://www.inkscape.org/namespaces/inkscape"
   width="600"
   height="660"
   id="svg2"
   version="1.1"
   inkscape:version="0.48.2 r9819"
   sodipodi:docname="House_Terrick.svg">
  <metadata
     id="metadata24">
    <rdf:RDF>
      <cc:Work
         rdf:about="">
        <dc:format>image/svg+xml</dc:format>
        <dc:type
           rdf:resource="http://purl.org/dc/dcmitype/StillImage" />
        <dc:title></dc:title>
      </cc:Work>
    </rdf:RDF>
  </metadata>
  <sodipodi:namedview
     pagecolor="#ffffff"
     bordercolor="#666666"
     borderopacity="1"
     objecttolerance="10"
     gridtolerance="10"
     guidetolerance="10"
     inkscape:pageopacity="0"
     inkscape:pageshadow="2"
     inkscape:window-width="1366"
     inkscape:window-height="715"
     id="namedview22"
     showgrid="false"
     inkscape:zoom="0.71515155"
     inkscape:cx="207.22304"
     inkscape:cy="380.87548"
     inkscape:window-x="-8"
     inkscape:window-y="-8"
     inkscape:window-maximized="1"
     inkscape:current-layer="layer2" />
  <defs
     id="defs4">
    <inkscape:path-effect
       is_visible="true"
       id="path-effect3136"
       effect="spiro" />
    <inkscape:path-effect
       effect="spiro"
       id="path-effect3132"
       is_visible="true" />
    <inkscape:path-effect
       effect="spiro"
       id="path-effect3101"
       is_visible="true" />
    <inkscape:path-effect
       is_visible="true"
       id="path-effect3085"
       effect="spiro" />
    <inkscape:path-effect
       is_visible="true"
       id="path-effect3083"
       effect="spiro" />
    <inkscape:path-effect
       is_visible="true"
       id="path-effect3081"
       effect="spiro" />
    <inkscape:path-effect
       is_visible="true"
       id="path-effect3079"
       effect="spiro" />
    <inkscape:path-effect
       is_visible="true"
       id="path-effect3077"
       effect="spiro" />
    <inkscape:path-effect
       is_visible="true"
       id="path-effect3075"
       effect="spiro" />
    <inkscape:path-effect
       effect="spiro"
       id="path-effect3049"
       is_visible="true" />
    <inkscape:path-effect
       is_visible="true"
       id="path-effect3045"
       effect="spiro" />
    <inkscape:path-effect
       effect="spiro"
       id="path-effect3041"
       is_visible="true" />
    <radialGradient
       id="rg"
       gradientUnits="userSpaceOnUse"
       cx="220"
       cy="220"
       r="405">
      <stop
         style="stop-color:#fff;stop-opacity:.3"
         offset="0"
         id="stop7" />
      <stop
         style="stop-color:#fff;stop-opacity:.2"
         offset=".2"
         id="stop9" />
      <stop
         style="stop-color:#666;stop-opacity:.1"
         offset=".6"
         id="stop11" />
      <stop
         style="stop-color:#000;stop-opacity:.13"
         offset="1"
         id="stop13" />
    </radialGradient>
    <path
       id="shield"
       d="m2,2v257c0,286 298,398 298,398c0,0 298-112 298-398V2z" />
    <radialGradient
       inkscape:collect="always"
       xlink:href="#rg-7"
       id="radialGradient3055-1"
       gradientUnits="userSpaceOnUse"
       cx="220"
       cy="220"
       r="405" />
    <radialGradient
       id="rg-7"
       gradientUnits="userSpaceOnUse"
       cx="220"
       cy="220"
       r="405">
      <stop
         style="stop-color:#fff;stop-opacity:.3"
         offset="0"
         id="stop7-4" />
      <stop
         style="stop-color:#fff;stop-opacity:.2"
         offset=".2"
         id="stop9-0" />
      <stop
         style="stop-color:#666;stop-opacity:.1"
         offset=".6"
         id="stop11-9" />
      <stop
         style="stop-color:#000;stop-opacity:.13"
         offset="1"
         id="stop13-4" />
    </radialGradient>
    <radialGradient
       r="405"
       cy="220"
       cx="220"
       gradientUnits="userSpaceOnUse"
       id="radialGradient3074"
       xlink:href="#rg-7"
       inkscape:collect="always" />
    <inkscape:path-effect
       is_visible="true"
       id="path-effect10120-1"
       effect="spiro" />
    <inkscape:path-effect
       effect="spiro"
       id="path-effect10118-3"
       is_visible="true" />
    <inkscape:path-effect
       effect="spiro"
       id="path-effect10116-9"
       is_visible="true" />
    <inkscape:path-effect
       effect="spiro"
       id="path-effect10114-7"
       is_visible="true" />
    <inkscape:path-effect
       effect="spiro"
       id="path-effect10112-7"
       is_visible="true" />
    <inkscape:path-effect
       effect="spiro"
       id="path-effect10110-2"
       is_visible="true" />
    <linearGradient
       inkscape:collect="always"
       xlink:href="#linearGradient4719-5"
       id="linearGradient4039"
       gradientUnits="userSpaceOnUse"
       gradientTransform="matrix(2.3257341,0,0,2.2943177,447.69485,-1820.2799)"
       x1="-145.25935"
       y1="984.24286"
       x2="-64.14286"
       y2="984.14789" />
    <linearGradient
       inkscape:collect="always"
       id="linearGradient4719-5">
      <stop
         style="stop-color:#666666;stop-opacity:1;"
         offset="0"
         id="stop4721-5" />
      <stop
         id="stop4809-1"
         offset="0.39344174"
         style="stop-color:#666666;stop-opacity:0.74901961;" />
      <stop
         style="stop-color:#666666;stop-opacity:0;"
         offset="1"
         id="stop4723-7" />
    </linearGradient>
    <radialGradient
       inkscape:collect="always"
       xlink:href="#linearGradient4801-8"
       id="radialGradient4041"
       gradientUnits="userSpaceOnUse"
       gradientTransform="matrix(-0.72153181,1.2650715,-2.2729984,-1.2616144,1712.0113,1733.7841)"
       cx="-307.14288"
       cy="782.36218"
       fx="-307.14288"
       fy="782.36218"
       r="63" />
    <linearGradient
       inkscape:collect="always"
       id="linearGradient4801-8">
      <stop
         style="stop-color:#000000;stop-opacity:1;"
         offset="0"
         id="stop4803-2" />
      <stop
         style="stop-color:#000000;stop-opacity:0;"
         offset="1"
         id="stop4805-4" />
    </linearGradient>
    <inkscape:path-effect
       effect="spiro"
       id="path-effect10108-4"
       is_visible="true" />
    <linearGradient
       inkscape:collect="always"
       xlink:href="#linearGradient4719-5"
       id="linearGradient4044"
       gradientUnits="userSpaceOnUse"
       gradientTransform="matrix(-2.4055369,0,0,-1.6485021,142.06168,1726.5307)"
       x1="-145.25935"
       y1="984.24286"
       x2="-64.14286"
       y2="984.14789" />
    <radialGradient
       inkscape:collect="always"
       xlink:href="#linearGradient4801-8"
       id="radialGradient4046"
       gradientUnits="userSpaceOnUse"
       gradientTransform="matrix(0.74628962,-0.90897301,2.3509914,0.90648896,-1165.637,-827.11785)"
       cx="-307.14288"
       cy="782.36218"
       fx="-307.14288"
       fy="782.36218"
       r="63" />
    <inkscape:path-effect
       effect="spiro"
       id="path-effect10102-7"
       is_visible="true" />
    <linearGradient
       inkscape:collect="always"
       xlink:href="#linearGradient4719-5"
       id="linearGradient4049"
       gradientUnits="userSpaceOnUse"
       gradientTransform="matrix(2.334989,0,0,-1.6146975,449.44065,1692.189)"
       x1="-145.25935"
       y1="984.24286"
       x2="-64.14286"
       y2="984.14789" />
    <radialGradient
       inkscape:collect="always"
       xlink:href="#linearGradient4801-8"
       id="radialGradient4051"
       gradientUnits="userSpaceOnUse"
       gradientTransform="matrix(-0.72440295,-0.89033332,-2.2820431,0.88790031,1718.7881,-809.09364)"
       cx="-307.14288"
       cy="782.36218"
       fx="-307.14288"
       fy="782.36218"
       r="63" />
    <inkscape:path-effect
       is_visible="true"
       id="path-effect10096-8"
       effect="spiro" />
    <linearGradient
       inkscape:collect="always"
       xlink:href="#linearGradient4719-5"
       id="linearGradient4054"
       gradientUnits="userSpaceOnUse"
       gradientTransform="matrix(-2.409599,0,0,2.2818507,139.61083,-1810.8163)"
       x1="-145.25935"
       y1="984.24286"
       x2="-64.14286"
       y2="984.14789" />
    <radialGradient
       inkscape:collect="always"
       xlink:href="#linearGradient4801-8"
       id="radialGradient4056"
       gradientUnits="userSpaceOnUse"
       gradientTransform="matrix(0.74754985,1.2581972,2.3549614,-1.2547588,-1170.296,1723.935)"
       cx="-307.14288"
       cy="782.36218"
       fx="-307.14288"
       fy="782.36218"
       r="63" />
    <inkscape:path-effect
       is_visible="true"
       id="path-effect10090-3"
       effect="spiro" />
    <inkscape:path-effect
       effect="spiro"
       id="path-effect10084-1"
       is_visible="true" />
    <inkscape:path-effect
       effect="spiro"
       id="path-effect10082-1"
       is_visible="true" />
    <radialGradient
       inkscape:collect="always"
       xlink:href="#linearGradient4801-8"
       id="radialGradient4061"
       gradientUnits="userSpaceOnUse"
       gradientTransform="matrix(-0.76516322,1.2901254,-2.4104477,-1.2865998,1806.8444,1757.4704)"
       cx="-307.14288"
       cy="782.36218"
       fx="-307.14288"
       fy="782.36218"
       r="63" />
    <inkscape:path-effect
       effect="spiro"
       id="path-effect10080-4"
       is_visible="true" />
    <inkscape:path-effect
       is_visible="true"
       id="path-effect3075-1"
       effect="spiro" />
    <inkscape:path-effect
       effect="spiro"
       id="path-effect3101-7"
       is_visible="true" />
    <linearGradient
       inkscape:collect="always"
       xlink:href="#grad1-7-7"
       id="linearGradient3085-8-8"
       gradientUnits="userSpaceOnUse"
       gradientTransform="matrix(0.77469594,0,0,0.30982404,152.68996,-13.619206)"
       x1="78.877235"
       y1="178.07356"
       x2="301.40585"
       y2="178.07356" />
    <linearGradient
       id="grad1-7-7"
       x1="78.877235"
       y1="178.07356"
       x2="301.40585"
       y2="178.07356"
       gradientTransform="scale(1.577772,0.63380513)"
       gradientUnits="userSpaceOnUse">
      <stop
         offset="0%"
         style="stop-color:#da0;"
         id="stop16-4-4" />
      <stop
         offset="40%"
         style="stop-color:#fd0;"
         id="stop18-0-0" />
      <stop
         offset="60%"
         style="stop-color:#fd0;"
         id="stop20-9-9" />
      <stop
         offset="100%"
         style="stop-color:#da0;"
         id="stop22-4-4" />
    </linearGradient>
    <linearGradient
       inkscape:collect="always"
       xlink:href="#grad1-7-7"
       id="linearGradient3081-8-8"
       gradientUnits="userSpaceOnUse"
       gradientTransform="matrix(0.77469594,0,0,0.30982404,-27.310046,-13.619206)"
       x1="78.877235"
       y1="178.07356"
       x2="301.40585"
       y2="178.07356" />
    <linearGradient
       id="linearGradient3093"
       x1="78.877235"
       y1="178.07356"
       x2="301.40585"
       y2="178.07356"
       gradientTransform="scale(1.577772,0.63380513)"
       gradientUnits="userSpaceOnUse">
      <stop
         offset="0%"
         style="stop-color:#da0;"
         id="stop3095" />
      <stop
         offset="40%"
         style="stop-color:#fd0;"
         id="stop3097" />
      <stop
         offset="60%"
         style="stop-color:#fd0;"
         id="stop3099" />
      <stop
         offset="100%"
         style="stop-color:#da0;"
         id="stop3101" />
    </linearGradient>
    <linearGradient
       y2="178.07356"
       x2="301.40585"
       y1="178.07356"
       x1="78.877235"
       gradientTransform="matrix(0.77469594,0,0,0.30982404,332.68995,-13.619206)"
       gradientUnits="userSpaceOnUse"
       id="linearGradient3128-1"
       xlink:href="#grad1-7-7"
       inkscape:collect="always" />
    <linearGradient
       id="linearGradient3104"
       x1="78.877235"
       y1="178.07356"
       x2="301.40585"
       y2="178.07356"
       gradientTransform="scale(1.577772,0.63380513)"
       gradientUnits="userSpaceOnUse">
      <stop
         offset="0%"
         style="stop-color:#da0;"
         id="stop3106" />
      <stop
         offset="40%"
         style="stop-color:#fd0;"
         id="stop3108" />
      <stop
         offset="60%"
         style="stop-color:#fd0;"
         id="stop3110" />
      <stop
         offset="100%"
         style="stop-color:#da0;"
         id="stop3112" />
    </linearGradient>
    <inkscape:path-effect
       is_visible="true"
       id="path-effect3061"
       effect="spiro" />
  </defs>
  <g
     inkscape:groupmode="layer"
     id="layer2"
     inkscape:label="Elements"
     style="display:inline">
    <path
       inkscape:connector-curvature="0"
       style="fill:#9f1d35;fill-opacity:1;stroke:none;display:inline"
       id="path7212"
       d="m 2,2 0,257 c 0,286 298,398 298,398 0,0 298,-112 298,-398 L 598,2 z" />
    <path
       inkscape:connector-curvature="0"
       style="fill:#ffffff;stroke:none;display:inline"
       d="m 76.875,2 0,484.09375 c 22.735277,30.96593 48.56077,57.31382 74.375,79.375 L 151.25,2 76.875,2 z m 148.75,0 0,617.125 C 268.32038,645.08212 300,657 300,657 L 300,2 225.625,2 z m 148.75,0 0,617.125 c 22.70984,-13.80669 48.53678,-31.57457 74.375,-53.65625 L 448.75,2 374.375,2 z m 148.75,0 0,484.09375 c 39.79403,-54.20031 70.12842,-122.55225 74.375,-206.75 L 597.5,2 523.125,2 z"
       id="path3061" />
    <path
       style="fill:#ffdd00;fill-opacity:1;display:inline"
       d="m 2,2 0,257 c 0,1.64195 0.01135,3.27575 0.03125,4.90625 0.007,0.58338 0.02225,1.16809 0.03125,1.75 0.017,1.04257 0.0376,2.08712 0.0625,3.125 0.0279,1.16403 0.05595,2.34187 0.09375,3.5 0.04557,1.39488 0.09645,2.76991 0.15625,4.15625 0.0286,0.6654 0.06185,1.33657 0.09375,2 0.06918,1.43864 0.13445,2.85183 0.21875,4.28125 0.0092,0.15663 0.02225,0.31223 0.03125,0.46875 0.0424,0.70514 0.0789,1.42211 0.125,2.125 0.0266,0.40565 0.06595,0.81384 0.09375,1.21875 0.11939,1.73769 0.26472,3.46356 0.40625,5.1875 0.17478,2.12891 0.35447,4.267 0.5625,6.375 0.08491,0.86045 0.19085,1.70553 0.28125,2.5625 0.045,0.42693 0.0786,0.85518 0.125,1.28125 0.16765,1.53973 0.3461,3.09651 0.53125,4.625 0.11162,0.92147 0.22584,1.8326 0.34375,2.75 0.05483,0.42642 0.10005,0.85571 0.15625,1.28125 0.0233,0.1767 0.0389,0.3547 0.0625,0.53125 0.16428,1.23085 0.35574,2.46402 0.53125,3.6875 0.0403,0.28096 0.0841,0.56318 0.125,0.84375 0.05429,0.37248 0.10095,0.7532 0.15625,1.125 0.0295,0.19869 0.06385,0.39525 0.09375,0.59375 0.27747,1.8445 0.57232,3.67234 0.875,5.5 0.09639,0.58208 0.18235,1.16962 0.28125,1.75 0.24451,1.43414 0.49019,2.85751 0.75,4.28125 0.27819,1.52511 0.5795,3.04929 0.875,4.5625 0.09313,0.47671 0.18645,0.96197 0.28125,1.4375 0.1946,0.97595 0.39203,1.93526 0.59375,2.90625 0.20837,1.00289 0.40911,2.0024 0.625,3 0.09659,0.4464 0.18315,0.89841 0.28125,1.34375 0.16569,0.75212 0.36132,1.50089 0.53125,2.25 0.15534,0.68496 0.30989,1.38006 0.46875,2.0625 0.21531,0.92493 0.43454,1.82969 0.65625,2.75 0.12068,0.50093 0.22119,1.00044 0.34375,1.5 0.14347,0.5847 0.29146,1.16717 0.4375,1.75 0.48171,1.92242 0.99072,3.8479 1.5,5.75 0.45801,1.71066 0.92638,3.43073 1.40625,5.125 0.05282,0.18646 0.10315,0.37624 0.15625,0.5625 0.06621,0.23235 0.15215,0.45545 0.21875,0.6875 0.45182,1.57368 0.90467,3.12799 1.375,4.6875 0.58359,1.93504 1.16973,3.86796 1.78125,5.78125 0.06284,0.19666 0.1244,0.39732 0.1875,0.59375 0.52774,1.64157 1.07714,3.28068 1.625,4.90625 0.35164,1.04336 0.70271,2.08821 1.0625,3.125 0.89579,2.58117 1.80483,5.14697 2.75,7.6875 0.0308,0.0829 0.06285,0.1671 0.09375,0.25 0.6327,1.69688 1.28339,3.3837 1.9375,5.0625 0.35305,0.90624 0.70332,1.81777 1.0625,2.71875 0.33767,0.84684 0.68823,1.68905 1.03125,2.53125 0.69842,1.71506 1.40481,3.42913 2.125,5.125 0.7406,1.74346 1.51821,3.46427 2.28125,5.1875 0.3447,0.77867 0.68206,1.5692 1.03125,2.34375 0.41324,0.91634 0.83055,1.83942 1.25,2.75 0.25584,0.55551 0.52313,1.10288 0.78125,1.65625 0.52263,1.12015 1.03064,2.23236 1.5625,3.34375 0.79575,1.66283 1.62158,3.32548 2.4375,4.96875 0.32401,0.65273 0.64162,1.3191 0.96875,1.96875 0.49472,0.98213 0.99825,1.96239 1.5,2.9375 0.72308,1.40553 1.45012,2.79653 2.1875,4.1875 0.96752,1.8248 1.94611,3.63769 2.9375,5.4375 0.29166,0.52957 0.58132,1.06634 0.875,1.59375 0.58396,1.04851 1.18943,2.08501 1.78125,3.125 0.71692,1.26006 1.42807,2.53367 2.15625,3.78125 0.17593,0.30136 0.35467,0.60562 0.53125,0.90625 0.35094,0.59758 0.70903,1.18654 1.0625,1.78125 0.56045,0.94277 1.1208,1.87693 1.6875,2.8125 0.92505,1.52718 1.87125,3.05446 2.8125,4.5625 0.69783,1.11813 1.38729,2.23612 2.09375,3.34375 1.19958,1.88064 2.40143,3.74327 3.625,5.59375 0.20653,0.31239 0.4178,0.62597 0.625,0.9375 0.76661,1.15245 1.53697,2.29676 2.3125,3.4375 0.23542,0.34633 0.48252,0.686 0.71875,1.03125 0.75298,1.10034 1.52025,2.19184 2.28125,3.28125 1.00037,1.43207 1.98628,2.86803 3,4.28125 0.15623,0.21782 0.31221,0.43887 0.46875,0.65625 0.18264,0.25359 0.37944,0.49702 0.5625,0.75 1.3127,1.81435 2.63523,3.62311 3.96875,5.40625 1.30564,1.74586 2.61306,3.47144 3.9375,5.1875 0.12181,0.15782 0.25304,0.31118 0.375,0.46875 0.09545,0.12331 0.18575,0.25184 0.28125,0.375 0.95518,1.23127 1.91069,2.44033 2.875,3.65625 1.06147,1.33843 2.14677,2.68012 3.21875,4 1.10505,1.3606 2.19689,2.72155 3.3125,4.0625 L 300,300 2,2 z"
       id="path3512" />
    <path
       style="fill:#ffdd00;fill-opacity:1;display:inline"
       d="m 300,300 206.875,206.875 c 1.11561,-1.34095 2.20745,-2.7019 3.3125,-4.0625 1.07198,-1.31988 2.15728,-2.66157 3.21875,-4 0.96431,-1.21592 1.91982,-2.42498 2.875,-3.65625 0.0955,-0.12316 0.1858,-0.25169 0.28125,-0.375 0.12196,-0.15757 0.25319,-0.31093 0.375,-0.46875 1.32444,-1.71606 2.63186,-3.44164 3.9375,-5.1875 1.33352,-1.78314 2.65605,-3.5919 3.96875,-5.40625 0.18306,-0.25298 0.37986,-0.49641 0.5625,-0.75 0.15654,-0.21738 0.31252,-0.43843 0.46875,-0.65625 1.01372,-1.41322 1.99963,-2.84918 3,-4.28125 0.761,-1.08941 1.52827,-2.18091 2.28125,-3.28125 0.23623,-0.34525 0.48333,-0.68492 0.71875,-1.03125 0.77553,-1.14074 1.54589,-2.28505 2.3125,-3.4375 0.2072,-0.31153 0.41847,-0.62511 0.625,-0.9375 1.22357,-1.85048 2.42542,-3.71311 3.625,-5.59375 0.70646,-1.10763 1.39592,-2.22562 2.09375,-3.34375 0.94125,-1.50804 1.88745,-3.03532 2.8125,-4.5625 0.5667,-0.93557 1.12705,-1.86973 1.6875,-2.8125 0.35347,-0.59471 0.71156,-1.18367 1.0625,-1.78125 0.17658,-0.30063 0.35532,-0.60489 0.53125,-0.90625 0.72818,-1.24758 1.43933,-2.52119 2.15625,-3.78125 0.59182,-1.03999 1.19729,-2.07649 1.78125,-3.125 0.29368,-0.52741 0.58334,-1.06418 0.875,-1.59375 0.99139,-1.79981 1.96998,-3.6127 2.9375,-5.4375 0.73738,-1.39097 1.46442,-2.78197 2.1875,-4.1875 0.50175,-0.97511 1.00528,-1.95537 1.5,-2.9375 0.32713,-0.64965 0.64474,-1.31602 0.96875,-1.96875 0.81592,-1.64327 1.64175,-3.30592 2.4375,-4.96875 0.53186,-1.11139 1.03987,-2.2236 1.5625,-3.34375 0.25812,-0.55337 0.52541,-1.10074 0.78125,-1.65625 0.41945,-0.91058 0.83676,-1.83366 1.25,-2.75 0.34919,-0.77455 0.68655,-1.56508 1.03125,-2.34375 0.76304,-1.72323 1.54065,-3.44404 2.28125,-5.1875 0.72019,-1.69587 1.42658,-3.40994 2.125,-5.125 0.34302,-0.8422 0.69358,-1.68441 1.03125,-2.53125 0.35918,-0.90098 0.70945,-1.81251 1.0625,-2.71875 0.65411,-1.6788 1.3048,-3.36562 1.9375,-5.0625 0.0309,-0.0829 0.063,-0.16709 0.0937,-0.25 0.94517,-2.54053 1.85421,-5.10633 2.75,-7.6875 0.35979,-1.03679 0.71086,-2.08164 1.0625,-3.125 0.54786,-1.62557 1.09726,-3.26468 1.625,-4.90625 0.0631,-0.19643 0.12466,-0.39709 0.1875,-0.59375 0.61152,-1.91329 1.19766,-3.84621 1.78125,-5.78125 0.47033,-1.55951 0.92318,-3.11382 1.375,-4.6875 0.0666,-0.23205 0.15254,-0.45515 0.21875,-0.6875 0.0531,-0.18626 0.10343,-0.37604 0.15625,-0.5625 0.47987,-1.69427 0.94824,-3.41434 1.40625,-5.125 0.50928,-1.9021 1.01829,-3.82758 1.5,-5.75 0.14604,-0.58283 0.29403,-1.1653 0.4375,-1.75 0.12256,-0.49956 0.22307,-0.99907 0.34375,-1.5 0.22171,-0.92031 0.44094,-1.82507 0.65625,-2.75 0.15886,-0.68244 0.31341,-1.37754 0.46875,-2.0625 0.16993,-0.74911 0.36556,-1.49788 0.53125,-2.25 0.0981,-0.44534 0.18466,-0.89735 0.28125,-1.34375 0.21589,-0.9976 0.41663,-1.99711 0.625,-3 0.20172,-0.97099 0.39915,-1.9303 0.59375,-2.90625 0.0948,-0.47553 0.18812,-0.96079 0.28125,-1.4375 0.2955,-1.51321 0.59681,-3.03739 0.875,-4.5625 0.25981,-1.42374 0.50549,-2.84711 0.75,-4.28125 0.0989,-0.58038 0.18486,-1.16792 0.28125,-1.75 0.30268,-1.82766 0.59753,-3.6555 0.875,-5.5 0.0299,-0.1985 0.0643,-0.39506 0.0937,-0.59375 0.0553,-0.3718 0.10196,-0.75252 0.15625,-1.125 0.0409,-0.28057 0.0847,-0.56279 0.125,-0.84375 0.17551,-1.22348 0.36697,-2.45665 0.53125,-3.6875 0.0236,-0.17655 0.0392,-0.35455 0.0625,-0.53125 0.0562,-0.42554 0.10142,-0.85483 0.15625,-1.28125 0.11791,-0.9174 0.23213,-1.82853 0.34375,-2.75 0.18515,-1.52849 0.3636,-3.08527 0.53125,-4.625 0.0464,-0.42607 0.08,-0.85432 0.125,-1.28125 0.0904,-0.85697 0.19634,-1.70205 0.28125,-2.5625 0.20803,-2.108 0.38772,-4.24609 0.5625,-6.375 0.14153,-1.72394 0.28686,-3.44981 0.40625,-5.1875 0.0278,-0.40491 0.0671,-0.8131 0.0937,-1.21875 0.0461,-0.70289 0.0826,-1.41986 0.125,-2.125 0.009,-0.15652 0.0222,-0.31212 0.0312,-0.46875 0.0843,-1.42942 0.14957,-2.84261 0.21875,-4.28125 0.0319,-0.66343 0.0652,-1.3346 0.0937,-2 0.0598,-1.38634 0.11068,-2.76137 0.15625,-4.15625 0.0378,-1.15813 0.0658,-2.33597 0.0937,-3.5 0.0249,-1.03788 0.0455,-2.08243 0.0625,-3.125 0.009,-0.58191 0.0244,-1.16662 0.0312,-1.75 C 597.989,262.27575 598,260.64195 598,259 L 598,2 300,300 z"
       id="background" />
    <g
       transform="matrix(-1.4346361,0.20162497,0.20162497,1.4346361,-539.17785,-62.436098)"
       id="use3309"
       style="display:inline">
      <path
         inkscape:connector-curvature="0"
         id="path3401"
         class="fil4 str10"
         d="m -363.97778,346.60982 c -18.80843,-0.70762 -17.25877,-12.00932 -29.4516,-14.12103 9.20161,0.11512 18.45618,-3.80794 20.53435,-7.85724 -8.9951,-1.23256 -17.38461,-2.27278 -25.20618,-9.74062 -5.55054,-5.29962 -6.23744,-10.88168 -10.46806,-21.50841 l -2.19801,-4.76831 -20.98079,-36.69678 -21.91835,6.01569 c -13.83527,3.79723 -2.25748,21.68555 -18.9464,30.43172 2.68441,2.32388 10.17911,3.71601 15.4947,-4.48678 -3.03308,7.42077 -9.36191,10.95607 -11.37945,17.75308 -2.06375,6.95268 1.79024,16.89663 1.3221,28.63134 0.68472,-3.21531 6.896,-0.28797 10.44623,-9.64401 -6.83295,14.06214 -1.50154,21.77721 -11.37703,33.32504 6.11569,0.50584 9.47933,0.57432 13.97886,-3.35003 -4.35978,9.88618 -0.66405,15.59373 -9.61168,25.56565 7.03627,0.52511 19.20447,-5.10662 23.1811,-14.01628 5.41271,8.33593 0.81504,13.57566 -0.72429,18.85751 10.26131,-3.03384 17.07142,-12.20983 19.62807,-19.38017 6.48146,11.97784 13.99608,15.3966 21.36622,16.68682 -0.92964,-4.81071 -5.03352,-9.2343 -2.78178,-17.25478 5.88978,7.40538 19.40535,6.53408 29.91042,4.86807 -3.94498,-4.49791 -14.90007,-6.26441 -17.80144,-14.81635 7.59119,4.23053 17.49884,5.2453 26.98301,-4.49413 z"
         style="fill:#000000;fill-opacity:1;stroke:#333333;stroke-width:0.89733446;stroke-linecap:round;stroke-linejoin:bevel;stroke-miterlimit:4;stroke-opacity:1;stroke-dasharray:none"
         sodipodi:nodetypes="cccscccsccsccccccccccccc" />
      <path
         inkscape:connector-curvature="0"
         id="path3403"
         class="fil4 str9"
         d="m -367.18928,286.52084 c -8.41593,-0.54636 -14.29653,-6.65777 -23.67464,-6.42854 -7.1043,0.55739 -11.59962,8.02639 -13.57926,12.86707 4.72837,2.09062 6.67508,1.60045 10.24421,0.77822 -0.0779,-3.67672 2.28505,-7.50612 5.86157,-7.59355 4.37969,-0.10695 11.54154,6.32477 20.96382,6.04016 3.85501,0.80007 18.24751,-1.04852 14.49754,-18.10005 -0.41824,4.78662 -4.67158,13.0626 -14.31324,12.43669 z"
         style="fill:#000000;fill-opacity:1;stroke:#333333;stroke-width:0.89733446;stroke-linejoin:bevel;stroke-miterlimit:4;stroke-opacity:1;stroke-dasharray:none"
         sodipodi:nodetypes="sccccccs" />
      <path
         inkscape:connector-curvature="0"
         id="path3405"
         class="fil4 str9"
         d="m -383.73347,294.53946 c 1.55298,-0.31795 3.35624,-0.58872 4.0656,-1.15164 -0.13376,-1.82813 -0.64695,-3.73007 -1.67308,-5.81586 -0.33821,2.45859 -1.15605,4.76694 -2.39252,6.9675 m 2.15398,-12.35664 c 1.46786,-1.76324 2.44421,-3.53038 2.98523,-5.27061 -0.55863,-0.72723 -2.26349,-1.44179 -3.70084,-2.14717 0.70221,2.45075 0.94471,4.94458 0.71561,7.41778 z"
         style="fill:#000000;fill-opacity:1;stroke:#333333;stroke-width:0.89733446;stroke-linejoin:bevel;stroke-miterlimit:4;stroke-opacity:1;stroke-dasharray:none" />
      <path
         sodipodi:nodetypes="ccccccccccscccscccccccccc"
         inkscape:connector-curvature="0"
         id="path3407"
         class="fil4 str9"
         d="m -461.44791,254.10541 c 1.50053,6.45826 11.12063,6.54481 18.06526,3.62154 -2.149,0.69857 -6.94693,8.67611 -13.55768,10.11828 2.8604,3.11354 7.85985,4.65141 14.01931,3.53926 -12.32824,9.19965 -6.78369,18.98246 -4.34829,23.90197 -0.60394,-6.8979 2.90316,-10.36989 7.23932,-13.15092 1.924,12.97378 -5.26798,18.81411 7.99169,27.66672 -4.61069,-7.24206 1.35937,-6.46243 1.46849,-16.53534 -1.10679,11.50852 11.69968,10.58988 13.46248,23.84561 7.05413,-10.56092 -4.6495,-15.52362 -2.7592,-24.63245 0.24837,9.55187 9.73854,6.64821 21.77911,6.5205 9.64524,-0.10236 26.45936,9.3636 20.73715,-6.43891 -3.17067,-0.84052 -12.19436,0.24167 -14.84481,0.30618 -14.80474,1.55103 -17.03441,-16.85268 -4.87208,-19.65064 6.41216,-1.34201 11.89418,3.36511 18.04228,4.47848 7.31054,1.32391 7.37091,-9.70204 6.84342,-13.68849 2.03376,-1.10349 1.47768,-3.12523 1.26275,-4.3967 -1.50141,-0.93055 -9.925,-7.55813 -15.74204,-7.98235 -1.00851,-2.13395 -3.89368,-4.21985 -6.31516,-5.208 -3.85935,-1.57709 -10.25939,-1.77263 -12.39014,-2.77286 -3.67774,-1.72561 -5.03672,-3.95109 -11.37856,-4.99117 -6.58332,-1.15824 -10.53099,-0.52096 -15.01865,0.88122 -2.60578,0.81435 -4.54292,1.34376 -6.42518,2.60541 -3.72011,2.4939 -17.30089,12.7342 -23.25947,11.96262 z"
         style="fill:#000000;fill-opacity:1;stroke:#333333;stroke-width:0.89733446;stroke-linejoin:bevel;stroke-miterlimit:4;stroke-opacity:1;stroke-dasharray:none" />
      <path
         inkscape:connector-curvature="0"
         id="path3409"
         class="fil5 str10"
         d="m -387.07886,251.63912 c -7.37078,0.9334 -13.96583,4.24629 -23.51344,4.47962"
         style="fill:#000000;fill-opacity:1;stroke:#333333;stroke-width:0.89733446;stroke-linecap:round;stroke-linejoin:bevel;stroke-miterlimit:4;stroke-opacity:1;stroke-dasharray:none" />
      <path
         inkscape:connector-curvature="0"
         id="path3411"
         class="fil5 str12"
         d="m -372.18044,264.00773 c -3.3884,-0.39507 -5.79687,-2.54128 -8.97889,-4.80115"
         style="fill:#000000;fill-opacity:1;stroke:#333333;stroke-width:0.89733446;stroke-linecap:round;stroke-linejoin:round;stroke-miterlimit:4;stroke-opacity:1;stroke-dasharray:none" />
      <path
         inkscape:connector-curvature="0"
         id="path3413"
         class="fil5 str10"
         d="m -403.68787,269.91669 c -4.08053,2.69758 -5.59012,6.83192 -6.30828,11.40588"
         style="fill:#000000;fill-opacity:1;stroke:#333333;stroke-width:0.89733446;stroke-linecap:round;stroke-linejoin:bevel;stroke-miterlimit:4;stroke-opacity:1;stroke-dasharray:none" />
      <path
         inkscape:connector-curvature="0"
         id="path3415"
         class="fil6 str11"
         d="m -419.93238,248.09405 c -1.39141,-2.5723 -3.08911,-5.46392 -5.04451,-7.47322 -3.18738,-3.03384 -7.33951,-4.87725 -10.18727,-3.92282 -2.93711,0.98953 -5.09084,5.84947 -5.30257,9.2648 -0.0944,3.32868 0.41836,6.34538 2.32258,9.48979 m 18.21177,-7.35855 0,0 0,0 z"
         sodipodi:nodetypes="cccccccccccccccccc"
         style="fill:#000000;fill-opacity:1;stroke:#333333;stroke-width:0.89733446;stroke-linejoin:round;stroke-miterlimit:4;stroke-opacity:1;stroke-dasharray:none" />
      <path
         inkscape:connector-curvature="0"
         id="path3417"
         class="fil7 str11"
         d="m -392.20632,256.98356 c -1.62547,2.1693 -2.37771,2.40537 -3.70083,2.89037 -1.35005,0.49787 -4.83289,0.20994 -4.83289,0.20994 m 8.53372,-3.10031 0,0 0,0 z"
         sodipodi:nodetypes="csc"
         style="fill:#000000;fill-opacity:1;stroke:#333333;stroke-width:0.89733446;stroke-linejoin:round;stroke-miterlimit:4;stroke-opacity:1;stroke-dasharray:none" />
      <path
         inkscape:connector-curvature="0"
         id="path3419"
         class="fil7 str11"
         d="m -391.82509,247.76834 c 0,0 -1.2505,2.23003 -1.90447,2.60993 -3.60613,-0.27482 -5.20161,2.46564 -8.79281,-0.50597 -0.5682,-0.67227 -2.52474,-0.48164 -3.58597,-0.0214 -0.49469,0.21457 -1.55489,1.40428 -1.55489,1.40428 m 15.83814,-3.4839 0,0 0,0 z"
         sodipodi:nodetypes="cccss"
         style="fill:#000000;fill-opacity:1;stroke:#333333;stroke-width:0.89733446;stroke-linejoin:round;stroke-miterlimit:4;stroke-opacity:1;stroke-dasharray:none" />
      <path
         inkscape:connector-curvature="0"
         id="path3421"
         class="fil7 str11"
         d="m -370.91922,259.61056 c -0.54344,-0.1825 -1.30066,-0.46148 -2.08455,-0.36959 -1.91825,0.22455 -1.55055,3.14309 -1.11049,4.33117"
         style="fill:#000000;fill-opacity:1;stroke:#333333;stroke-width:0.89733446;stroke-linejoin:round;stroke-miterlimit:4;stroke-opacity:1;stroke-dasharray:none" />
      <path
         inkscape:connector-curvature="0"
         style="fill:#ffffff;fill-opacity:1;stroke:#000000;stroke-width:0.89733446;stroke-linejoin:round;stroke-miterlimit:4;stroke-opacity:1;stroke-dasharray:none"
         sodipodi:nodetypes="cccccc"
         d="m -394.76449,250.48709 c 0.23126,-0.0638 0.47273,-0.0958 0.7188,-0.13438 1.39727,0.96476 2.11939,2.13002 2.27637,3.49945 0.0587,1.38423 -0.38058,2.62215 -1.64372,3.45725 -1.64245,1.15728 -7.61761,1.18597 -11.46343,-1.60001 0.62384,-0.33505 9.41755,-5.03936 10.11198,-5.22174 l 0,0 z"
         class="fil10 str11"
         id="path3423" />
      <path
         inkscape:connector-curvature="0"
         id="path3425"
         class="fil2"
         d="m -433.98845,241.14712 c 5.17506,3.4746 6.05557,7.92959 6.49997,9.10101 1.15465,-4.15058 -1.36332,-8.64891 -6.49997,-9.10101 z"
         style="fill:#000000;fill-opacity:1;stroke:#333333;stroke-width:0.89733446;stroke-miterlimit:4;stroke-opacity:1;stroke-dasharray:none" />
      <path
         id="path3427"
         d="m -397.2558,254.06175 c 0,1.35039 0.84886,2.57176 1.89618,2.72805 1.04718,0.15647 1.89604,-0.81168 1.89604,-2.16204 0,-1.35035 -0.84886,-2.57175 -1.89604,-2.72805 -1.04732,-0.15647 -1.89618,0.81172 -1.89618,2.16204 z"
         style="fill:#ffffff;fill-opacity:1;stroke:#000000;stroke-width:0.89733446;stroke-linejoin:round;stroke-miterlimit:4;stroke-opacity:1;stroke-dasharray:none;stroke-dashoffset:0"
         inkscape:connector-curvature="0" />
      <path
         id="path3429"
         d="m -396.54516,254.20293 c 0,0.78843 0.53131,1.50152 1.18681,1.59277 0.6555,0.0913 1.18682,-0.47388 1.18682,-1.26232 0,-0.78839 -0.53132,-1.50149 -1.18682,-1.59273 -0.6555,-0.0913 -1.18681,0.47392 -1.18681,1.26228 z"
         style="fill:#ffffff;fill-opacity:1;stroke:#000000;stroke-width:0.89733446;stroke-miterlimit:4;stroke-opacity:1;stroke-dasharray:none;display:inline"
         inkscape:connector-curvature="0" />
    </g>
    <g
       style="display:inline"
       id="g3143"
       transform="matrix(-1.4346361,0.20162497,0.20162497,1.4346361,-181.13284,-62.436098)">
      <path
         sodipodi:nodetypes="cccscccsccsccccccccccccc"
         style="fill:#000000;fill-opacity:1;stroke:#333333;stroke-width:0.89733446;stroke-linecap:round;stroke-linejoin:bevel;stroke-miterlimit:4;stroke-opacity:1;stroke-dasharray:none"
         d="m -363.97778,346.60982 c -18.80843,-0.70762 -17.25877,-12.00932 -29.4516,-14.12103 9.20161,0.11512 18.45618,-3.80794 20.53435,-7.85724 -8.9951,-1.23256 -17.38461,-2.27278 -25.20618,-9.74062 -5.55054,-5.29962 -6.23744,-10.88168 -10.46806,-21.50841 l -2.19801,-4.76831 -20.98079,-36.69678 -21.91835,6.01569 c -13.83527,3.79723 -2.25748,21.68555 -18.9464,30.43172 2.68441,2.32388 10.17911,3.71601 15.4947,-4.48678 -3.03308,7.42077 -9.36191,10.95607 -11.37945,17.75308 -2.06375,6.95268 1.79024,16.89663 1.3221,28.63134 0.68472,-3.21531 6.896,-0.28797 10.44623,-9.64401 -6.83295,14.06214 -1.50154,21.77721 -11.37703,33.32504 6.11569,0.50584 9.47933,0.57432 13.97886,-3.35003 -4.35978,9.88618 -0.66405,15.59373 -9.61168,25.56565 7.03627,0.52511 19.20447,-5.10662 23.1811,-14.01628 5.41271,8.33593 0.81504,13.57566 -0.72429,18.85751 10.26131,-3.03384 17.07142,-12.20983 19.62807,-19.38017 6.48146,11.97784 13.99608,15.3966 21.36622,16.68682 -0.92964,-4.81071 -5.03352,-9.2343 -2.78178,-17.25478 5.88978,7.40538 19.40535,6.53408 29.91042,4.86807 -3.94498,-4.49791 -14.90007,-6.26441 -17.80144,-14.81635 7.59119,4.23053 17.49884,5.2453 26.98301,-4.49413 z"
         class="fil4 str10"
         id="path3145"
         inkscape:connector-curvature="0" />
      <path
         sodipodi:nodetypes="sccccccs"
         style="fill:#000000;fill-opacity:1;stroke:#333333;stroke-width:0.89733446;stroke-linejoin:bevel;stroke-miterlimit:4;stroke-opacity:1;stroke-dasharray:none"
         d="m -367.18928,286.52084 c -8.41593,-0.54636 -14.29653,-6.65777 -23.67464,-6.42854 -7.1043,0.55739 -11.59962,8.02639 -13.57926,12.86707 4.72837,2.09062 6.67508,1.60045 10.24421,0.77822 -0.0779,-3.67672 2.28505,-7.50612 5.86157,-7.59355 4.37969,-0.10695 11.54154,6.32477 20.96382,6.04016 3.85501,0.80007 18.24751,-1.04852 14.49754,-18.10005 -0.41824,4.78662 -4.67158,13.0626 -14.31324,12.43669 z"
         class="fil4 str9"
         id="path3147"
         inkscape:connector-curvature="0" />
      <path
         style="fill:#000000;fill-opacity:1;stroke:#333333;stroke-width:0.89733446;stroke-linejoin:bevel;stroke-miterlimit:4;stroke-opacity:1;stroke-dasharray:none"
         d="m -383.73347,294.53946 c 1.55298,-0.31795 3.35624,-0.58872 4.0656,-1.15164 -0.13376,-1.82813 -0.64695,-3.73007 -1.67308,-5.81586 -0.33821,2.45859 -1.15605,4.76694 -2.39252,6.9675 m 2.15398,-12.35664 c 1.46786,-1.76324 2.44421,-3.53038 2.98523,-5.27061 -0.55863,-0.72723 -2.26349,-1.44179 -3.70084,-2.14717 0.70221,2.45075 0.94471,4.94458 0.71561,7.41778 z"
         class="fil4 str9"
         id="path3149"
         inkscape:connector-curvature="0" />
      <path
         style="fill:#000000;fill-opacity:1;stroke:#333333;stroke-width:0.89733446;stroke-linejoin:bevel;stroke-miterlimit:4;stroke-opacity:1;stroke-dasharray:none"
         d="m -461.44791,254.10541 c 1.50053,6.45826 11.12063,6.54481 18.06526,3.62154 -2.149,0.69857 -6.94693,8.67611 -13.55768,10.11828 2.8604,3.11354 7.85985,4.65141 14.01931,3.53926 -12.32824,9.19965 -6.78369,18.98246 -4.34829,23.90197 -0.60394,-6.8979 2.90316,-10.36989 7.23932,-13.15092 1.924,12.97378 -5.26798,18.81411 7.99169,27.66672 -4.61069,-7.24206 1.35937,-6.46243 1.46849,-16.53534 -1.10679,11.50852 11.69968,10.58988 13.46248,23.84561 7.05413,-10.56092 -4.6495,-15.52362 -2.7592,-24.63245 0.24837,9.55187 9.73854,6.64821 21.77911,6.5205 9.64524,-0.10236 26.45936,9.3636 20.73715,-6.43891 -3.17067,-0.84052 -12.19436,0.24167 -14.84481,0.30618 -14.80474,1.55103 -17.03441,-16.85268 -4.87208,-19.65064 6.41216,-1.34201 11.89418,3.36511 18.04228,4.47848 7.31054,1.32391 7.37091,-9.70204 6.84342,-13.68849 2.03376,-1.10349 1.47768,-3.12523 1.26275,-4.3967 -1.50141,-0.93055 -9.925,-7.55813 -15.74204,-7.98235 -1.00851,-2.13395 -3.89368,-4.21985 -6.31516,-5.208 -3.85935,-1.57709 -10.25939,-1.77263 -12.39014,-2.77286 -3.67774,-1.72561 -5.03672,-3.95109 -11.37856,-4.99117 -6.58332,-1.15824 -10.53099,-0.52096 -15.01865,0.88122 -2.60578,0.81435 -4.54292,1.34376 -6.42518,2.60541 -3.72011,2.4939 -17.30089,12.7342 -23.25947,11.96262 z"
         class="fil4 str9"
         id="path3151"
         inkscape:connector-curvature="0"
         sodipodi:nodetypes="ccccccccccscccscccccccccc" />
      <path
         style="fill:#000000;fill-opacity:1;stroke:#333333;stroke-width:0.89733446;stroke-linecap:round;stroke-linejoin:bevel;stroke-miterlimit:4;stroke-opacity:1;stroke-dasharray:none"
         d="m -387.07886,251.63912 c -7.37078,0.9334 -13.96583,4.24629 -23.51344,4.47962"
         class="fil5 str10"
         id="path3153"
         inkscape:connector-curvature="0" />
      <path
         style="fill:#000000;fill-opacity:1;stroke:#333333;stroke-width:0.89733446;stroke-linecap:round;stroke-linejoin:round;stroke-miterlimit:4;stroke-opacity:1;stroke-dasharray:none"
         d="m -372.18044,264.00773 c -3.3884,-0.39507 -5.79687,-2.54128 -8.97889,-4.80115"
         class="fil5 str12"
         id="path3155"
         inkscape:connector-curvature="0" />
      <path
         style="fill:#000000;fill-opacity:1;stroke:#333333;stroke-width:0.89733446;stroke-linecap:round;stroke-linejoin:bevel;stroke-miterlimit:4;stroke-opacity:1;stroke-dasharray:none"
         d="m -403.68787,269.91669 c -4.08053,2.69758 -5.59012,6.83192 -6.30828,11.40588"
         class="fil5 str10"
         id="path3157"
         inkscape:connector-curvature="0" />
      <path
         style="fill:#000000;fill-opacity:1;stroke:#333333;stroke-width:0.89733446;stroke-linejoin:round;stroke-miterlimit:4;stroke-opacity:1;stroke-dasharray:none"
         sodipodi:nodetypes="cccccccccccccccccc"
         d="m -419.93238,248.09405 c -1.39141,-2.5723 -3.08911,-5.46392 -5.04451,-7.47322 -3.18738,-3.03384 -7.33951,-4.87725 -10.18727,-3.92282 -2.93711,0.98953 -5.09084,5.84947 -5.30257,9.2648 -0.0944,3.32868 0.41836,6.34538 2.32258,9.48979 m 18.21177,-7.35855 0,0 0,0 z"
         class="fil6 str11"
         id="path3159"
         inkscape:connector-curvature="0" />
      <path
         style="fill:#000000;fill-opacity:1;stroke:#333333;stroke-width:0.89733446;stroke-linejoin:round;stroke-miterlimit:4;stroke-opacity:1;stroke-dasharray:none"
         sodipodi:nodetypes="csc"
         d="m -392.20632,256.98356 c -1.62547,2.1693 -2.37771,2.40537 -3.70083,2.89037 -1.35005,0.49787 -4.83289,0.20994 -4.83289,0.20994 m 8.53372,-3.10031 0,0 0,0 z"
         class="fil7 str11"
         id="path3161"
         inkscape:connector-curvature="0" />
      <path
         style="fill:#000000;fill-opacity:1;stroke:#333333;stroke-width:0.89733446;stroke-linejoin:round;stroke-miterlimit:4;stroke-opacity:1;stroke-dasharray:none"
         sodipodi:nodetypes="cccss"
         d="m -391.82509,247.76834 c 0,0 -1.2505,2.23003 -1.90447,2.60993 -3.60613,-0.27482 -5.20161,2.46564 -8.79281,-0.50597 -0.5682,-0.67227 -2.52474,-0.48164 -3.58597,-0.0214 -0.49469,0.21457 -1.55489,1.40428 -1.55489,1.40428 m 15.83814,-3.4839 0,0 0,0 z"
         class="fil7 str11"
         id="path3163"
         inkscape:connector-curvature="0" />
      <path
         style="fill:#000000;fill-opacity:1;stroke:#333333;stroke-width:0.89733446;stroke-linejoin:round;stroke-miterlimit:4;stroke-opacity:1;stroke-dasharray:none"
         d="m -370.91922,259.61056 c -0.54344,-0.1825 -1.30066,-0.46148 -2.08455,-0.36959 -1.91825,0.22455 -1.55055,3.14309 -1.11049,4.33117"
         class="fil7 str11"
         id="path3165"
         inkscape:connector-curvature="0" />
      <path
         id="path3167"
         class="fil10 str11"
         d="m -394.76449,250.48709 c 0.23126,-0.0638 0.47273,-0.0958 0.7188,-0.13438 1.39727,0.96476 2.11939,2.13002 2.27637,3.49945 0.0587,1.38423 -0.38058,2.62215 -1.64372,3.45725 -1.64245,1.15728 -7.61761,1.18597 -11.46343,-1.60001 0.62384,-0.33505 9.41755,-5.03936 10.11198,-5.22174 l 0,0 z"
         sodipodi:nodetypes="cccccc"
         style="fill:#ffffff;fill-opacity:1;stroke:#000000;stroke-width:0.89733446;stroke-linejoin:round;stroke-miterlimit:4;stroke-opacity:1;stroke-dasharray:none"
         inkscape:connector-curvature="0" />
      <path
         style="fill:#000000;fill-opacity:1;stroke:#333333;stroke-width:0.89733446;stroke-miterlimit:4;stroke-opacity:1;stroke-dasharray:none"
         d="m -433.98845,241.14712 c 5.17506,3.4746 6.05557,7.92959 6.49997,9.10101 1.15465,-4.15058 -1.36332,-8.64891 -6.49997,-9.10101 z"
         class="fil2"
         id="path3169"
         inkscape:connector-curvature="0" />
      <path
         inkscape:connector-curvature="0"
         style="fill:#ffffff;fill-opacity:1;stroke:#000000;stroke-width:0.89733446;stroke-linejoin:round;stroke-miterlimit:4;stroke-opacity:1;stroke-dasharray:none;stroke-dashoffset:0"
         d="m -397.2558,254.06175 c 0,1.35039 0.84886,2.57176 1.89618,2.72805 1.04718,0.15647 1.89604,-0.81168 1.89604,-2.16204 0,-1.35035 -0.84886,-2.57175 -1.89604,-2.72805 -1.04732,-0.15647 -1.89618,0.81172 -1.89618,2.16204 z"
         id="path3171" />
      <path
         inkscape:connector-curvature="0"
         style="fill:#ffffff;fill-opacity:1;stroke:#000000;stroke-width:0.89733446;stroke-miterlimit:4;stroke-opacity:1;stroke-dasharray:none;display:inline"
         d="m -396.54516,254.20293 c 0,0.78843 0.53131,1.50152 1.18681,1.59277 0.6555,0.0913 1.18682,-0.47388 1.18682,-1.26232 0,-0.78839 -0.53132,-1.50149 -1.18682,-1.59273 -0.6555,-0.0913 -1.18681,0.47392 -1.18681,1.26228 z"
         id="path3173" />
    </g>
  </g>
  <g
     inkscape:groupmode="layer"
     id="layer1"
     inkscape:label="Cover"
     style="display:inline"
     sodipodi:insensitive="true">
    <path
       d="m 2,2 v 257 c 0,286 298,398 298,398 0,0 298,-112 298,-398 V 2 z"
       id="shine"
       inkscape:connector-curvature="0"
       style="fill:url(#radialGradient3074);stroke:#000000;stroke-width:3" />
  </g>
</svg>
