<?xml version="1.0" encoding="UTF-8" standalone="no"?>
<svg
   xmlns:dc="http://purl.org/dc/elements/1.1/"
   xmlns:cc="http://creativecommons.org/ns#"
   xmlns:rdf="http://www.w3.org/1999/02/22-rdf-syntax-ns#"
   xmlns:svg="http://www.w3.org/2000/svg"
   xmlns="http://www.w3.org/2000/svg"
   xmlns:xlink="http://www.w3.org/1999/xlink"
   xmlns:sodipodi="http://sodipodi.sourceforge.net/DTD/sodipodi-0.dtd"
   xmlns:inkscape="http://www.inkscape.org/namespaces/inkscape"
   width="600"
   height="660"
   id="svg2"
   version="1.1"
   inkscape:version="0.48.2 r9819"
   sodipodi:docname="House_Payne.svg">
  <metadata
     id="metadata24">
    <rdf:RDF>
      <cc:Work
         rdf:about="">
        <dc:format>image/svg+xml</dc:format>
        <dc:type
           rdf:resource="http://purl.org/dc/dcmitype/StillImage" />
        <dc:title />
      </cc:Work>
    </rdf:RDF>
  </metadata>
  <sodipodi:namedview
     pagecolor="#ffffff"
     bordercolor="#666666"
     borderopacity="1"
     objecttolerance="10"
     gridtolerance="10"
     guidetolerance="10"
     inkscape:pageopacity="0"
     inkscape:pageshadow="2"
     inkscape:window-width="1366"
     inkscape:window-height="715"
     id="namedview22"
     showgrid="false"
     inkscape:zoom="1.011377"
     inkscape:cx="364.48828"
     inkscape:cy="266.28932"
     inkscape:window-x="-8"
     inkscape:window-y="-8"
     inkscape:window-maximized="1"
     inkscape:current-layer="layer2" />
  <defs
     id="defs4">
    <inkscape:path-effect
       is_visible="true"
       id="path-effect3823"
       effect="spiro" />
    <inkscape:path-effect
       is_visible="true"
       id="path-effect3820"
       effect="spiro" />
    <inkscape:path-effect
       effect="spiro"
       id="path-effect3817"
       is_visible="true" />
    <inkscape:path-effect
       is_visible="true"
       id="path-effect3814"
       effect="spiro" />
    <inkscape:path-effect
       effect="spiro"
       id="path-effect3739"
       is_visible="true" />
    <inkscape:path-effect
       is_visible="true"
       id="path-effect3735"
       effect="spiro" />
    <inkscape:path-effect
       effect="spiro"
       id="path-effect3731"
       is_visible="true" />
    <inkscape:path-effect
       effect="spiro"
       id="path-effect3729"
       is_visible="true" />
    <inkscape:path-effect
       effect="spiro"
       id="path-effect3727"
       is_visible="true" />
    <inkscape:path-effect
       effect="spiro"
       id="path-effect3725"
       is_visible="true" />
    <inkscape:path-effect
       is_visible="true"
       id="path-effect3715"
       effect="spiro" />
    <inkscape:path-effect
       is_visible="true"
       id="path-effect3711"
       effect="spiro" />
    <inkscape:path-effect
       effect="spiro"
       id="path-effect3707"
       is_visible="true" />
    <radialGradient
       id="rg"
       gradientUnits="userSpaceOnUse"
       cx="220"
       cy="220"
       r="405">
      <stop
         style="stop-color:#fff;stop-opacity:.3"
         offset="0"
         id="stop7" />
      <stop
         style="stop-color:#fff;stop-opacity:.2"
         offset=".2"
         id="stop9" />
      <stop
         style="stop-color:#666;stop-opacity:.1"
         offset=".6"
         id="stop11" />
      <stop
         style="stop-color:#000;stop-opacity:.13"
         offset="1"
         id="stop13" />
    </radialGradient>
    <path
       id="shield"
       d="m2,2v257c0,286 298,398 298,398c0,0 298-112 298-398V2z" />
    <radialGradient
       inkscape:collect="always"
       xlink:href="#rg-7"
       id="radialGradient3055-1"
       gradientUnits="userSpaceOnUse"
       cx="220"
       cy="220"
       r="405" />
    <radialGradient
       id="rg-7"
       gradientUnits="userSpaceOnUse"
       cx="220"
       cy="220"
       r="405">
      <stop
         style="stop-color:#fff;stop-opacity:.3"
         offset="0"
         id="stop7-4" />
      <stop
         style="stop-color:#fff;stop-opacity:.2"
         offset=".2"
         id="stop9-0" />
      <stop
         style="stop-color:#666;stop-opacity:.1"
         offset=".6"
         id="stop11-9" />
      <stop
         style="stop-color:#000;stop-opacity:.13"
         offset="1"
         id="stop13-4" />
    </radialGradient>
    <radialGradient
       r="405"
       cy="220"
       cx="220"
       gradientUnits="userSpaceOnUse"
       id="radialGradient3074"
       xlink:href="#rg-7"
       inkscape:collect="always" />
    <inkscape:path-effect
       is_visible="true"
       id="path-effect10120-1"
       effect="spiro" />
    <inkscape:path-effect
       effect="spiro"
       id="path-effect10118-3"
       is_visible="true" />
    <inkscape:path-effect
       effect="spiro"
       id="path-effect10116-9"
       is_visible="true" />
    <inkscape:path-effect
       effect="spiro"
       id="path-effect10114-7"
       is_visible="true" />
    <inkscape:path-effect
       effect="spiro"
       id="path-effect10112-7"
       is_visible="true" />
    <inkscape:path-effect
       effect="spiro"
       id="path-effect10110-2"
       is_visible="true" />
    <linearGradient
       inkscape:collect="always"
       xlink:href="#linearGradient4719-5"
       id="linearGradient4039"
       gradientUnits="userSpaceOnUse"
       gradientTransform="matrix(2.3257341,0,0,2.2943177,447.69485,-1820.2799)"
       x1="-145.25935"
       y1="984.24286"
       x2="-64.14286"
       y2="984.14789" />
    <linearGradient
       inkscape:collect="always"
       id="linearGradient4719-5">
      <stop
         style="stop-color:#666666;stop-opacity:1;"
         offset="0"
         id="stop4721-5" />
      <stop
         id="stop4809-1"
         offset="0.39344174"
         style="stop-color:#666666;stop-opacity:0.74901961;" />
      <stop
         style="stop-color:#666666;stop-opacity:0;"
         offset="1"
         id="stop4723-7" />
    </linearGradient>
    <radialGradient
       inkscape:collect="always"
       xlink:href="#linearGradient4801-8"
       id="radialGradient4041"
       gradientUnits="userSpaceOnUse"
       gradientTransform="matrix(-0.72153181,1.2650715,-2.2729984,-1.2616144,1712.0113,1733.7841)"
       cx="-307.14288"
       cy="782.36218"
       fx="-307.14288"
       fy="782.36218"
       r="63" />
    <linearGradient
       inkscape:collect="always"
       id="linearGradient4801-8">
      <stop
         style="stop-color:#000000;stop-opacity:1;"
         offset="0"
         id="stop4803-2" />
      <stop
         style="stop-color:#000000;stop-opacity:0;"
         offset="1"
         id="stop4805-4" />
    </linearGradient>
    <inkscape:path-effect
       effect="spiro"
       id="path-effect10108-4"
       is_visible="true" />
    <linearGradient
       inkscape:collect="always"
       xlink:href="#linearGradient4719-5"
       id="linearGradient4044"
       gradientUnits="userSpaceOnUse"
       gradientTransform="matrix(-2.4055369,0,0,-1.6485021,142.06168,1726.5307)"
       x1="-145.25935"
       y1="984.24286"
       x2="-64.14286"
       y2="984.14789" />
    <radialGradient
       inkscape:collect="always"
       xlink:href="#linearGradient4801-8"
       id="radialGradient4046"
       gradientUnits="userSpaceOnUse"
       gradientTransform="matrix(0.74628962,-0.90897301,2.3509914,0.90648896,-1165.637,-827.11785)"
       cx="-307.14288"
       cy="782.36218"
       fx="-307.14288"
       fy="782.36218"
       r="63" />
    <inkscape:path-effect
       effect="spiro"
       id="path-effect10102-7"
       is_visible="true" />
    <linearGradient
       inkscape:collect="always"
       xlink:href="#linearGradient4719-5"
       id="linearGradient4049"
       gradientUnits="userSpaceOnUse"
       gradientTransform="matrix(2.334989,0,0,-1.6146975,449.44065,1692.189)"
       x1="-145.25935"
       y1="984.24286"
       x2="-64.14286"
       y2="984.14789" />
    <radialGradient
       inkscape:collect="always"
       xlink:href="#linearGradient4801-8"
       id="radialGradient4051"
       gradientUnits="userSpaceOnUse"
       gradientTransform="matrix(-0.72440295,-0.89033332,-2.2820431,0.88790031,1718.7881,-809.09364)"
       cx="-307.14288"
       cy="782.36218"
       fx="-307.14288"
       fy="782.36218"
       r="63" />
    <inkscape:path-effect
       is_visible="true"
       id="path-effect10096-8"
       effect="spiro" />
    <linearGradient
       inkscape:collect="always"
       xlink:href="#linearGradient4719-5"
       id="linearGradient4054"
       gradientUnits="userSpaceOnUse"
       gradientTransform="matrix(-2.409599,0,0,2.2818507,139.61083,-1810.8163)"
       x1="-145.25935"
       y1="984.24286"
       x2="-64.14286"
       y2="984.14789" />
    <radialGradient
       inkscape:collect="always"
       xlink:href="#linearGradient4801-8"
       id="radialGradient4056"
       gradientUnits="userSpaceOnUse"
       gradientTransform="matrix(0.74754985,1.2581972,2.3549614,-1.2547588,-1170.296,1723.935)"
       cx="-307.14288"
       cy="782.36218"
       fx="-307.14288"
       fy="782.36218"
       r="63" />
    <inkscape:path-effect
       is_visible="true"
       id="path-effect10090-3"
       effect="spiro" />
    <inkscape:path-effect
       effect="spiro"
       id="path-effect10084-1"
       is_visible="true" />
    <inkscape:path-effect
       effect="spiro"
       id="path-effect10082-1"
       is_visible="true" />
    <radialGradient
       inkscape:collect="always"
       xlink:href="#linearGradient4801-8"
       id="radialGradient4061"
       gradientUnits="userSpaceOnUse"
       gradientTransform="matrix(-0.76516322,1.2901254,-2.4104477,-1.2865998,1806.8444,1757.4704)"
       cx="-307.14288"
       cy="782.36218"
       fx="-307.14288"
       fy="782.36218"
       r="63" />
    <inkscape:path-effect
       effect="spiro"
       id="path-effect10080-4"
       is_visible="true" />
    <inkscape:path-effect
       effect="spiro"
       id="path-effect3707-1"
       is_visible="true" />
    <inkscape:path-effect
       effect="spiro"
       id="path-effect3739-7"
       is_visible="true" />
    <inkscape:path-effect
       is_visible="true"
       id="path-effect3735-4"
       effect="spiro" />
    <inkscape:path-effect
       effect="spiro"
       id="path-effect3725-0"
       is_visible="true" />
    <radialGradient
       inkscape:collect="always"
       xlink:href="#grad1"
       id="radialGradient3094"
       cx="49.200001"
       cy="49.200001"
       r="80"
       fx="49.200001"
       fy="49.200001"
       gradientUnits="userSpaceOnUse" />
    <radialGradient
       id="grad1"
       cx="0.49000001"
       cy="0.49000001"
       r="1">
      <stop
         offset="0%"
         style="stop-color:#ff0;"
         id="stop16" />
      <stop
         offset="50%"
         style="stop-color:#ff0;"
         id="stop18" />
      <stop
         offset="50%"
         style="stop-color:#fd0;"
         id="stop20" />
      <stop
         offset="100%"
         style="stop-color:#fd0;"
         id="stop22" />
    </radialGradient>
    <radialGradient
       inkscape:collect="always"
       xlink:href="#grad2"
       id="radialGradient3096"
       cx="51.399998"
       cy="51.399998"
       r="70"
       fx="51.399998"
       fy="51.399998"
       gradientUnits="userSpaceOnUse" />
    <radialGradient
       id="grad2"
       cx="0.51999998"
       cy="0.51999998"
       r="1">
      <stop
         offset="0%"
         style="stop-color:#fe0;"
         id="stop25" />
      <stop
         offset="50%"
         style="stop-color:#fe0;"
         id="stop27" />
      <stop
         offset="50%"
         style="stop-color:#fd0;"
         id="stop29" />
      <stop
         offset="100%"
         style="stop-color:#fd0;"
         id="stop31" />
    </radialGradient>
    <radialGradient
       r="70"
       fy="51.399998"
       fx="51.399998"
       cy="51.399998"
       cx="51.399998"
       gradientUnits="userSpaceOnUse"
       id="radialGradient3135"
       xlink:href="#grad2"
       inkscape:collect="always" />
    <radialGradient
       inkscape:collect="always"
       xlink:href="#grad1"
       id="radialGradient4057"
       gradientUnits="userSpaceOnUse"
       cx="49.200001"
       cy="49.200001"
       fx="49.200001"
       fy="49.200001"
       r="80" />
    <radialGradient
       inkscape:collect="always"
       xlink:href="#grad2"
       id="radialGradient4059"
       gradientUnits="userSpaceOnUse"
       cx="51.399998"
       cy="51.399998"
       fx="51.399998"
       fy="51.399998"
       r="70" />
    <radialGradient
       inkscape:collect="always"
       xlink:href="#grad1"
       id="radialGradient4067"
       gradientUnits="userSpaceOnUse"
       cx="49.200001"
       cy="49.200001"
       fx="49.200001"
       fy="49.200001"
       r="80" />
    <radialGradient
       inkscape:collect="always"
       xlink:href="#grad2"
       id="radialGradient4069"
       gradientUnits="userSpaceOnUse"
       cx="51.399998"
       cy="51.399998"
       fx="51.399998"
       fy="51.399998"
       r="70" />
    <radialGradient
       inkscape:collect="always"
       xlink:href="#grad1"
       id="radialGradient4077"
       gradientUnits="userSpaceOnUse"
       cx="49.200001"
       cy="49.200001"
       fx="49.200001"
       fy="49.200001"
       r="80" />
    <radialGradient
       inkscape:collect="always"
       xlink:href="#grad2"
       id="radialGradient4079"
       gradientUnits="userSpaceOnUse"
       cx="51.399998"
       cy="51.399998"
       fx="51.399998"
       fy="51.399998"
       r="70" />
    <radialGradient
       inkscape:collect="always"
       xlink:href="#grad1"
       id="radialGradient4087"
       gradientUnits="userSpaceOnUse"
       cx="49.200001"
       cy="49.200001"
       fx="49.200001"
       fy="49.200001"
       r="80" />
    <radialGradient
       inkscape:collect="always"
       xlink:href="#grad2"
       id="radialGradient4089"
       gradientUnits="userSpaceOnUse"
       cx="51.399998"
       cy="51.399998"
       fx="51.399998"
       fy="51.399998"
       r="70" />
    <radialGradient
       inkscape:collect="always"
       xlink:href="#grad1"
       id="radialGradient4097"
       gradientUnits="userSpaceOnUse"
       cx="49.200001"
       cy="49.200001"
       fx="49.200001"
       fy="49.200001"
       r="80" />
    <radialGradient
       inkscape:collect="always"
       xlink:href="#grad2"
       id="radialGradient4099"
       gradientUnits="userSpaceOnUse"
       cx="51.399998"
       cy="51.399998"
       fx="51.399998"
       fy="51.399998"
       r="70" />
    <radialGradient
       inkscape:collect="always"
       xlink:href="#grad1-4"
       id="radialGradient4087-9"
       gradientUnits="userSpaceOnUse"
       cx="49.200001"
       cy="49.200001"
       fx="49.200001"
       fy="49.200001"
       r="80" />
    <radialGradient
       id="grad1-4"
       cx="0.49000001"
       cy="0.49000001"
       r="1">
      <stop
         offset="0%"
         style="stop-color:#ff0;"
         id="stop16-8" />
      <stop
         offset="50%"
         style="stop-color:#ff0;"
         id="stop18-8" />
      <stop
         offset="50%"
         style="stop-color:#fd0;"
         id="stop20-2" />
      <stop
         offset="100%"
         style="stop-color:#fd0;"
         id="stop22-4" />
    </radialGradient>
    <radialGradient
       inkscape:collect="always"
       xlink:href="#grad2-5"
       id="radialGradient4089-5"
       gradientUnits="userSpaceOnUse"
       cx="51.399998"
       cy="51.399998"
       fx="51.399998"
       fy="51.399998"
       r="70" />
    <radialGradient
       id="grad2-5"
       cx="0.51999998"
       cy="0.51999998"
       r="1">
      <stop
         offset="0%"
         style="stop-color:#fe0;"
         id="stop25-1" />
      <stop
         offset="50%"
         style="stop-color:#fe0;"
         id="stop27-7" />
      <stop
         offset="50%"
         style="stop-color:#fd0;"
         id="stop29-1" />
      <stop
         offset="100%"
         style="stop-color:#fd0;"
         id="stop31-1" />
    </radialGradient>
    <radialGradient
       inkscape:collect="always"
       xlink:href="#grad1-2"
       id="radialGradient4087-5"
       gradientUnits="userSpaceOnUse"
       cx="49.200001"
       cy="49.200001"
       fx="49.200001"
       fy="49.200001"
       r="80" />
    <radialGradient
       id="grad1-2"
       cx="0.49000001"
       cy="0.49000001"
       r="1">
      <stop
         offset="0%"
         style="stop-color:#ff0;"
         id="stop16-7" />
      <stop
         offset="50%"
         style="stop-color:#ff0;"
         id="stop18-6" />
      <stop
         offset="50%"
         style="stop-color:#fd0;"
         id="stop20-1" />
      <stop
         offset="100%"
         style="stop-color:#fd0;"
         id="stop22-42" />
    </radialGradient>
    <radialGradient
       inkscape:collect="always"
       xlink:href="#grad2-2"
       id="radialGradient4089-3"
       gradientUnits="userSpaceOnUse"
       cx="51.399998"
       cy="51.399998"
       fx="51.399998"
       fy="51.399998"
       r="70" />
    <radialGradient
       id="grad2-2"
       cx="0.51999998"
       cy="0.51999998"
       r="1">
      <stop
         offset="0%"
         style="stop-color:#fe0;"
         id="stop25-2" />
      <stop
         offset="50%"
         style="stop-color:#fe0;"
         id="stop27-1" />
      <stop
         offset="50%"
         style="stop-color:#fd0;"
         id="stop29-6" />
      <stop
         offset="100%"
         style="stop-color:#fd0;"
         id="stop31-8" />
    </radialGradient>
    <radialGradient
       r="70"
       fy="51.399998"
       fx="51.399998"
       cy="51.399998"
       cx="51.399998"
       gradientUnits="userSpaceOnUse"
       id="radialGradient4251"
       xlink:href="#grad2-2"
       inkscape:collect="always" />
    <radialGradient
       inkscape:collect="always"
       xlink:href="#grad1-2-8"
       id="radialGradient4087-5-1"
       gradientUnits="userSpaceOnUse"
       cx="49.200001"
       cy="49.200001"
       fx="49.200001"
       fy="49.200001"
       r="80" />
    <radialGradient
       id="grad1-2-8"
       cx="0.49000001"
       cy="0.49000001"
       r="1">
      <stop
         offset="0%"
         style="stop-color:#ff0;"
         id="stop16-7-9" />
      <stop
         offset="50%"
         style="stop-color:#ff0;"
         id="stop18-6-2" />
      <stop
         offset="50%"
         style="stop-color:#fd0;"
         id="stop20-1-7" />
      <stop
         offset="100%"
         style="stop-color:#fd0;"
         id="stop22-42-9" />
    </radialGradient>
    <radialGradient
       r="70"
       fy="51.399998"
       fx="51.399998"
       cy="51.399998"
       cx="51.399998"
       gradientUnits="userSpaceOnUse"
       id="radialGradient4251-5"
       xlink:href="#grad2-2-4"
       inkscape:collect="always" />
    <radialGradient
       id="grad2-2-4"
       cx="0.51999998"
       cy="0.51999998"
       r="1">
      <stop
         offset="0%"
         style="stop-color:#fe0;"
         id="stop25-2-3" />
      <stop
         offset="50%"
         style="stop-color:#fe0;"
         id="stop27-1-1" />
      <stop
         offset="50%"
         style="stop-color:#fd0;"
         id="stop29-6-2" />
      <stop
         offset="100%"
         style="stop-color:#fd0;"
         id="stop31-8-3" />
    </radialGradient>
    <radialGradient
       r="70"
       fy="51.399998"
       fx="51.399998"
       cy="51.399998"
       cx="51.399998"
       gradientUnits="userSpaceOnUse"
       id="radialGradient4315"
       xlink:href="#grad2-2-4"
       inkscape:collect="always" />
    <radialGradient
       inkscape:collect="always"
       xlink:href="#grad1-2-8"
       id="radialGradient4364"
       gradientUnits="userSpaceOnUse"
       cx="49.200001"
       cy="49.200001"
       fx="49.200001"
       fy="49.200001"
       r="80" />
    <radialGradient
       inkscape:collect="always"
       xlink:href="#grad2-2-4"
       id="radialGradient4366"
       gradientUnits="userSpaceOnUse"
       cx="51.399998"
       cy="51.399998"
       fx="51.399998"
       fy="51.399998"
       r="70" />
    <radialGradient
       inkscape:collect="always"
       xlink:href="#grad2-2-4"
       id="radialGradient4374"
       gradientUnits="userSpaceOnUse"
       cx="51.399998"
       cy="51.399998"
       fx="51.399998"
       fy="51.399998"
       r="70"
       gradientTransform="translate(299.57812,597.07812)" />
    <radialGradient
       inkscape:collect="always"
       xlink:href="#grad1-2-8"
       id="radialGradient4379"
       gradientUnits="userSpaceOnUse"
       cx="49.200001"
       cy="49.200001"
       fx="49.200001"
       fy="49.200001"
       r="80"
       gradientTransform="translate(299.57812,597.07812)" />
    <radialGradient
       inkscape:collect="always"
       xlink:href="#grad2-2-4"
       id="radialGradient4386"
       gradientUnits="userSpaceOnUse"
       cx="51.399998"
       cy="51.399998"
       fx="51.399998"
       fy="51.399998"
       r="70"
       gradientTransform="translate(200.42187,597.07812)" />
    <radialGradient
       inkscape:collect="always"
       xlink:href="#grad1-2-8"
       id="radialGradient4391"
       gradientUnits="userSpaceOnUse"
       cx="49.200001"
       cy="49.200001"
       fx="49.200001"
       fy="49.200001"
       r="80"
       gradientTransform="translate(200.42187,597.07812)" />
    <radialGradient
       inkscape:collect="always"
       xlink:href="#grad1"
       id="radialGradient4483"
       gradientUnits="userSpaceOnUse"
       cx="49.200001"
       cy="49.200001"
       fx="49.200001"
       fy="49.200001"
       r="80" />
    <radialGradient
       inkscape:collect="always"
       xlink:href="#grad2"
       id="radialGradient4485"
       gradientUnits="userSpaceOnUse"
       cx="51.399998"
       cy="51.399998"
       fx="51.399998"
       fy="51.399998"
       r="70" />
    <radialGradient
       inkscape:collect="always"
       xlink:href="#grad1"
       id="radialGradient4493"
       gradientUnits="userSpaceOnUse"
       cx="49.200001"
       cy="49.200001"
       fx="49.200001"
       fy="49.200001"
       r="80" />
    <radialGradient
       inkscape:collect="always"
       xlink:href="#grad2"
       id="radialGradient4495"
       gradientUnits="userSpaceOnUse"
       cx="51.399998"
       cy="51.399998"
       fx="51.399998"
       fy="51.399998"
       r="70" />
    <radialGradient
       inkscape:collect="always"
       xlink:href="#grad1"
       id="radialGradient4503"
       gradientUnits="userSpaceOnUse"
       cx="49.200001"
       cy="49.200001"
       fx="49.200001"
       fy="49.200001"
       r="80" />
    <radialGradient
       inkscape:collect="always"
       xlink:href="#grad2"
       id="radialGradient4505"
       gradientUnits="userSpaceOnUse"
       cx="51.399998"
       cy="51.399998"
       fx="51.399998"
       fy="51.399998"
       r="70" />
    <radialGradient
       inkscape:collect="always"
       xlink:href="#grad1"
       id="radialGradient4513"
       gradientUnits="userSpaceOnUse"
       cx="49.200001"
       cy="49.200001"
       fx="49.200001"
       fy="49.200001"
       r="80" />
    <radialGradient
       inkscape:collect="always"
       xlink:href="#grad2"
       id="radialGradient4515"
       gradientUnits="userSpaceOnUse"
       cx="51.399998"
       cy="51.399998"
       fx="51.399998"
       fy="51.399998"
       r="70" />
    <radialGradient
       inkscape:collect="always"
       xlink:href="#grad1"
       id="radialGradient4523"
       gradientUnits="userSpaceOnUse"
       cx="49.200001"
       cy="49.200001"
       fx="49.200001"
       fy="49.200001"
       r="80" />
    <radialGradient
       inkscape:collect="always"
       xlink:href="#grad2"
       id="radialGradient4525"
       gradientUnits="userSpaceOnUse"
       cx="51.399998"
       cy="51.399998"
       fx="51.399998"
       fy="51.399998"
       r="70" />
    <radialGradient
       inkscape:collect="always"
       xlink:href="#grad1"
       id="radialGradient4533"
       gradientUnits="userSpaceOnUse"
       cx="49.200001"
       cy="49.200001"
       fx="49.200001"
       fy="49.200001"
       r="80" />
    <radialGradient
       inkscape:collect="always"
       xlink:href="#grad2"
       id="radialGradient4535"
       gradientUnits="userSpaceOnUse"
       cx="51.399998"
       cy="51.399998"
       fx="51.399998"
       fy="51.399998"
       r="70" />
    <radialGradient
       inkscape:collect="always"
       xlink:href="#grad1"
       id="radialGradient4562"
       gradientUnits="userSpaceOnUse"
       cx="49.200001"
       cy="49.200001"
       fx="49.200001"
       fy="49.200001"
       r="80"
       gradientTransform="translate(1.828125,299.57812)" />
    <radialGradient
       inkscape:collect="always"
       xlink:href="#grad1"
       id="radialGradient4567"
       gradientUnits="userSpaceOnUse"
       cx="49.200001"
       cy="49.200001"
       fx="49.200001"
       fy="49.200001"
       r="80"
       gradientTransform="translate(497.92187,299.57812)" />
    <radialGradient
       inkscape:collect="always"
       xlink:href="#grad2"
       id="radialGradient4582"
       gradientUnits="userSpaceOnUse"
       cx="51.399998"
       cy="51.399998"
       fx="51.399998"
       fy="51.399998"
       r="70"
       gradientTransform="translate(1.828125,398.75)" />
    <radialGradient
       inkscape:collect="always"
       xlink:href="#grad1"
       id="radialGradient4587"
       gradientUnits="userSpaceOnUse"
       cx="49.200001"
       cy="49.200001"
       fx="49.200001"
       fy="49.200001"
       r="80"
       gradientTransform="translate(1.828125,398.75)" />
    <radialGradient
       inkscape:collect="always"
       xlink:href="#grad1"
       id="radialGradient4592"
       gradientUnits="userSpaceOnUse"
       cx="49.200001"
       cy="49.200001"
       fx="49.200001"
       fy="49.200001"
       r="80"
       gradientTransform="translate(497.92187,398.75)" />
    <radialGradient
       inkscape:collect="always"
       xlink:href="#grad2"
       id="radialGradient4597"
       gradientUnits="userSpaceOnUse"
       cx="51.399998"
       cy="51.399998"
       fx="51.399998"
       fy="51.399998"
       r="70"
       gradientTransform="translate(497.92187,398.75)" />
    <radialGradient
       inkscape:collect="always"
       xlink:href="#grad2"
       id="radialGradient4609"
       gradientUnits="userSpaceOnUse"
       cx="51.399998"
       cy="51.399998"
       fx="51.399998"
       fy="51.399998"
       r="70"
       gradientTransform="translate(398.70312,497.92187)" />
    <radialGradient
       inkscape:collect="always"
       xlink:href="#grad1"
       id="radialGradient4616"
       gradientUnits="userSpaceOnUse"
       cx="49.200001"
       cy="49.200001"
       fx="49.200001"
       fy="49.200001"
       r="80"
       gradientTransform="translate(398.70312,497.92187)" />
    <radialGradient
       inkscape:collect="always"
       xlink:href="#grad1"
       id="radialGradient4621"
       gradientUnits="userSpaceOnUse"
       cx="49.200001"
       cy="49.200001"
       fx="49.200001"
       fy="49.200001"
       r="80"
       gradientTransform="translate(101.04688,497.92187)" />
    <radialGradient
       inkscape:collect="always"
       xlink:href="#grad2"
       id="radialGradient4626"
       gradientUnits="userSpaceOnUse"
       cx="51.399998"
       cy="51.399998"
       fx="51.399998"
       fy="51.399998"
       r="70"
       gradientTransform="translate(101.04688,497.92187)" />
  </defs>
  <g
     inkscape:groupmode="layer"
     id="layer2"
     inkscape:label="Elements"
     style="display:inline">
    <path
       id="path4551"
       d="m 101.65625,399.15625 0,-99.15625 -97.5625,0 c 3.7426671,36.08132 12.342146,69.07581 24.3125,99.15625 l 73.25,0 z"
       style="fill:#ffffff;stroke:none;display:inline"
       inkscape:connector-curvature="0" />
    <path
       style="fill:#aa00aa;display:inline"
       d="m 2,2 v 257 c 0,286 298,398 298,398 0,0 298,-112 298,-398 V 2 z"
       id="background"
       inkscape:connector-curvature="0" />
    <path
       style="fill:#ffffff;stroke:none;display:inline"
       d="m 101.65625,2 0,99.65625 99.1875,0 0,-99.65625 -99.1875,0 z"
       id="path4049"
       inkscape:connector-curvature="0" />
    <path
       style="fill:#ffffff;stroke:none;display:inline"
       d="m 200.84375,101.65625 0,99.1875 99.15625,0 0,-99.1875 -99.15625,0 z"
       id="path4047"
       inkscape:connector-curvature="0" />
    <path
       style="fill:#ffffff;stroke:none;display:inline"
       d="m 300,101.65625 99.15625,0 L 399.15625,2 300,2 l 0,99.65625 z"
       id="path4045"
       inkscape:connector-curvature="0" />
    <path
       style="fill:#ffffff;stroke:none;display:inline"
       d="m 399.15625,101.65625 0,99.1875 99.1875,0 0,-99.1875 -99.1875,0 z"
       id="path4043"
       inkscape:connector-curvature="0" />
    <path
       style="fill:#ffffff;stroke:none;display:inline"
       d="m 498.34375,101.65625 99.15625,0 0,-99.65625 -99.15625,0 0,99.65625 z"
       id="path4041"
       inkscape:connector-curvature="0" />
    <path
       style="fill:#ffffff;stroke:none;display:inline"
       d="m 597.5,101.65625 0,99.1875 0.5,0 0,-99.1875 -0.5,0 z"
       id="path4039"
       inkscape:connector-curvature="0" />
    <path
       style="fill:#ffffff;stroke:none;display:inline"
       d="m 597.5,200.84375 -99.15625,0 0,99.15625 97.5625,0 c 0.70231,-6.77063 1.2413,-13.66806 1.59375,-20.65625 l 0,-78.5 z"
       id="path4037"
       inkscape:connector-curvature="0" />
    <path
       style="fill:#ffffff;stroke:none;display:inline"
       d="m 498.34375,300 -99.1875,0 0,99.15625 99.1875,0 0,-99.15625 z"
       id="path4035"
       inkscape:connector-curvature="0" />
    <path
       style="fill:#ffffff;stroke:none;display:inline"
       d="m 498.34375,399.15625 0,99.1875 15.4375,0 c 22.70044,-28.70448 42.88333,-61.67182 57.8125,-99.1875 l -73.25,0 z"
       id="path4033"
       inkscape:connector-curvature="0" />
    <path
       style="fill:#ffffff;stroke:none;display:inline"
       d="m 498.34375,498.34375 -99.1875,0 0,99.15625 8.25,0 c 29.66599,-20.87247 61.73025,-47.58054 90.9375,-80.6875 l 0,-18.46875 z"
       id="path4031"
       inkscape:connector-curvature="0" />
    <path
       style="fill:#ffffff;stroke:none;display:inline"
       d="M 399.15625,597.5 300,597.5 300,657 c 0,0 44.52504,-16.76065 99.15625,-53.8125 l 0,-5.6875 z"
       id="path4029"
       inkscape:connector-curvature="0" />
    <path
       style="fill:#ffffff;stroke:none;display:inline"
       d="m 300,597.5 0,-99.15625 -99.15625,0 0,99.15625 99.15625,0 z"
       id="path4027"
       inkscape:connector-curvature="0" />
    <path
       style="fill:#ffffff;stroke:none;display:inline"
       d="m 200.84375,597.5 -8.25,0 c 2.76889,1.94814 5.52705,3.84075 8.25,5.6875 l 0,-5.6875 z"
       id="path4025"
       inkscape:connector-curvature="0" />
    <path
       style="fill:#ffffff;stroke:none;display:inline"
       d="m 200.84375,498.34375 0,-99.1875 -99.1875,0 0,99.1875 99.1875,0 z"
       id="path4023"
       inkscape:connector-curvature="0" />
    <path
       style="fill:#ffffff;stroke:none;display:inline"
       d="m 101.65625,498.34375 -15.4375,0 c 5.035966,6.36793 10.186825,12.51701 15.4375,18.46875 l 0,-18.46875 z"
       id="path4021"
       inkscape:connector-curvature="0" />
    <path
       style="fill:#ffffff;stroke:none;display:inline"
       d="m 101.65625,399.15625 0,-99.15625 -97.5625,0 c 3.7426671,36.08132 12.342146,69.07581 24.3125,99.15625 l 73.25,0 z"
       id="path4019"
       inkscape:connector-curvature="0" />
    <path
       style="fill:#ffffff;stroke:none;display:inline"
       d="m 101.65625,300 99.1875,0 0,-99.15625 -99.1875,0 0,99.15625 z"
       id="path4017"
       inkscape:connector-curvature="0" />
    <path
       style="fill:#ffffff;stroke:none;display:inline"
       d="m 101.65625,200.84375 0,-99.1875 -99.65625,0 0,99.1875 99.65625,0 z"
       id="path4015"
       inkscape:connector-curvature="0" />
    <path
       style="fill:#ffffff;stroke:none;display:inline"
       d="m 200.84375,300 0,99.15625 99.15625,0 0,-99.15625 -99.15625,0 z"
       id="path4013"
       inkscape:connector-curvature="0" />
    <path
       style="fill:#ffffff;stroke:none;display:inline"
       d="m 300,300 99.15625,0 0,-99.15625 -99.15625,0 L 300,300 z"
       id="path4011"
       inkscape:connector-curvature="0" />
    <path
       style="fill:#ffffff;stroke:none;display:inline"
       d="m 300,399.15625 0,99.1875 99.15625,0 0,-99.1875 -99.15625,0 z"
       id="path3864"
       inkscape:connector-curvature="0" />
    <g
       id="g4081"
       transform="translate(1.828125,-98.171875)">
      <circle
         d="M 90,50 C 90,72.09139 72.09139,90 50,90 27.90861,90 10,72.09139 10,50 10,27.90861 27.90861,10 50,10 72.09139,10 90,27.90861 90,50 z"
         style="fill:url(#radialGradient4087)"
         sodipodi:ry="40"
         sodipodi:rx="40"
         sodipodi:cy="50"
         sodipodi:cx="50"
         cx="50"
         cy="50"
         r="40"
         id="circle4083"
         transform="translate(0,100)" />
      <circle
         d="M 85,50 C 85,69.329966 69.329966,85 50,85 30.670034,85 15,69.329966 15,50 15,30.670034 30.670034,15 50,15 69.329966,15 85,30.670034 85,50 z"
         style="fill:url(#radialGradient4089)"
         sodipodi:ry="35"
         sodipodi:rx="35"
         sodipodi:cy="50"
         sodipodi:cx="50"
         cx="50"
         cy="50"
         r="35"
         id="circle4085"
         transform="translate(0,100)" />
    </g>
    <use
       style="display:inline"
       x="0"
       y="0"
       xlink:href="#g4081"
       id="use4101"
       transform="translate(496.09375,-5e-6)"
       width="600"
       height="660" />
    <use
       height="660"
       width="600"
       transform="translate(396.875,-5e-6)"
       id="use4157"
       xlink:href="#g4081"
       y="0"
       x="0"
       style="display:inline" />
    <use
       style="display:inline"
       x="0"
       y="0"
       xlink:href="#g4081"
       id="use4159"
       transform="translate(297.65625,-5e-6)"
       width="600"
       height="660" />
    <use
       height="660"
       width="600"
       transform="translate(198.4375,-5e-6)"
       id="use4161"
       xlink:href="#g4081"
       y="0"
       x="0"
       style="display:inline" />
    <use
       style="display:inline"
       x="0"
       y="0"
       xlink:href="#g4081"
       id="use4163"
       transform="translate(99.21875,-5e-6)"
       width="600"
       height="660" />
    <use
       style="display:inline"
       x="0"
       y="0"
       xlink:href="#g4081"
       id="use4165"
       transform="translate(198.59375,496.09375)"
       width="600"
       height="660" />
    <path
       style="fill:url(#radialGradient4379)"
       d="m 349.5625,607.0625 c -22.09139,0 -40,17.90861 -40,40 0,1.96353 0.16418,3.89344 0.4375,5.78125 12.91258,-5.6194 37.26933,-17.08368 66.6875,-35.15625 -7.12891,-6.57991 -16.6587,-10.625 -27.125,-10.625 z"
       id="circle4083-7"
       inkscape:connector-curvature="0" />
    <path
       style="fill:url(#radialGradient4374)"
       d="m 349.5625,612.0625 c -19.32997,0 -35,15.67003 -35,35 0,1.23999 0.0617,2.48081 0.1875,3.6875 12.90519,-5.81558 33.30023,-15.76559 57.5,-30.34375 -6.10732,-5.19709 -14.03982,-8.34375 -22.6875,-8.34375 z"
       id="circle4085-6"
       inkscape:connector-curvature="0" />
    <path
       style="fill:url(#radialGradient4391)"
       d="m 250.40625,607.0625 c -10.4745,0 -19.99427,4.03593 -27.125,10.625 29.48563,18.11242 53.82045,29.5525 66.71875,35.15625 0.27332,-1.88781 0.40625,-3.81772 0.40625,-5.78125 0,-22.09139 -17.90861,-40 -40,-40 z"
       id="circle4356"
       inkscape:connector-curvature="0" />
    <path
       style="fill:url(#radialGradient4386)"
       d="m 250.40625,612.0625 c -8.64768,0 -16.54893,3.14666 -22.65625,8.34375 24.21923,14.58536 44.59872,24.53731 57.5,30.34375 0.12579,-1.20669 0.15625,-2.44751 0.15625,-3.6875 0,-19.32997 -15.67003,-35 -35,-35 z"
       id="circle4358"
       inkscape:connector-curvature="0" />
    <use
       height="660"
       width="600"
       transform="translate(496.09375,99.421875)"
       id="use4402"
       xlink:href="#g4081"
       y="0"
       x="0"
       style="display:inline" />
    <use
       style="display:inline"
       x="0"
       y="0"
       xlink:href="#g4081"
       id="use4404"
       transform="translate(396.875,99.421875)"
       width="600"
       height="660" />
    <use
       height="660"
       width="600"
       transform="translate(297.65625,99.421875)"
       id="use4406"
       xlink:href="#g4081"
       y="0"
       x="0"
       style="display:inline" />
    <use
       style="display:inline"
       x="0"
       y="0"
       xlink:href="#g4081"
       id="use4408"
       transform="translate(198.4375,99.421875)"
       width="600"
       height="660" />
    <use
       height="660"
       width="600"
       transform="translate(99.21875,99.421875)"
       id="use4410"
       xlink:href="#g4081"
       y="0"
       x="0"
       style="display:inline" />
    <use
       style="display:inline"
       x="0"
       y="0"
       xlink:href="#g4081"
       id="use4412"
       transform="translate(0,99.421875)"
       width="600"
       height="660" />
    <use
       style="display:inline"
       x="0"
       y="0"
       xlink:href="#g4081"
       id="use4414"
       transform="translate(496.09375,198.59375)"
       width="600"
       height="660" />
    <use
       height="660"
       width="600"
       transform="translate(396.875,198.59375)"
       id="use4416"
       xlink:href="#g4081"
       y="0"
       x="0"
       style="display:inline" />
    <use
       style="display:inline"
       x="0"
       y="0"
       xlink:href="#g4081"
       id="use4418"
       transform="translate(297.65625,198.59375)"
       width="600"
       height="660" />
    <use
       height="660"
       width="600"
       transform="translate(198.4375,198.59375)"
       id="use4420"
       xlink:href="#g4081"
       y="0"
       x="0"
       style="display:inline" />
    <use
       style="display:inline"
       x="0"
       y="0"
       xlink:href="#g4081"
       id="use4422"
       transform="translate(99.21875,198.59375)"
       width="600"
       height="660" />
    <use
       height="660"
       width="600"
       transform="translate(0,198.59375)"
       id="use4424"
       xlink:href="#g4081"
       y="0"
       x="0"
       style="display:inline" />
    <use
       style="display:inline"
       x="0"
       y="0"
       xlink:href="#g4081"
       id="use4426"
       transform="translate(396.875,297.75)"
       width="600"
       height="660" />
    <use
       height="660"
       width="600"
       transform="translate(297.65625,297.75)"
       id="use4428"
       xlink:href="#g4081"
       y="0"
       x="0"
       style="display:inline" />
    <use
       style="display:inline"
       x="0"
       y="0"
       xlink:href="#g4081"
       id="use4430"
       transform="translate(198.4375,297.75)"
       width="600"
       height="660" />
    <use
       height="660"
       width="600"
       transform="translate(99.21875,297.75)"
       id="use4432"
       xlink:href="#g4081"
       y="0"
       x="0"
       style="display:inline" />
    <use
       height="660"
       width="600"
       transform="translate(396.875,396.92187)"
       id="use4459"
       xlink:href="#g4081"
       y="0"
       x="0"
       style="display:inline" />
    <use
       style="display:inline"
       x="0"
       y="0"
       xlink:href="#g4081"
       id="use4461"
       transform="translate(297.65625,396.92187)"
       width="600"
       height="660" />
    <use
       height="660"
       width="600"
       transform="translate(198.4375,396.92187)"
       id="use4463"
       xlink:href="#g4081"
       y="0"
       x="0"
       style="display:inline" />
    <use
       style="display:inline"
       x="0"
       y="0"
       xlink:href="#g4081"
       id="use4465"
       transform="translate(99.21875,396.92187)"
       width="600"
       height="660" />
    <use
       height="660"
       width="600"
       transform="translate(297.65625,496.09375)"
       id="use4467"
       xlink:href="#g4081"
       y="0"
       x="0"
       style="display:inline" />
    <path
       style="fill:url(#radialGradient4562)"
       d="m 51.8125,309.5625 c -21.13545,0 -38.416771,16.42297 -39.875,37.1875 2.040611,8.71757 4.381956,17.22198 6.96875,25.53125 7.217374,10.44265 19.251533,17.28125 32.90625,17.28125 22.09139,0 40,-17.90861 40,-40 0,-22.09139 -17.90861,-40 -40,-40 z"
       id="circle4479"
       inkscape:connector-curvature="0" />
    <circle
       d="M 85,50 C 85,69.329966 69.329966,85 50,85 30.670034,85 15,69.329966 15,50 15,30.670034 30.670034,15 50,15 69.329966,15 85,30.670034 85,50 z"
       style="fill:url(#radialGradient4485)"
       sodipodi:ry="35"
       sodipodi:rx="35"
       sodipodi:cy="50"
       sodipodi:cx="50"
       cx="50"
       cy="50"
       r="35"
       id="circle4481"
       transform="translate(1.828125,299.57812)" />
    <path
       style="fill:url(#radialGradient4567)"
       d="m 547.90625,309.5625 c -22.09139,0 -40,17.90861 -40,40 0,22.09139 17.90861,40 40,40 13.96874,0 26.2836,-7.14952 33.4375,-18 2.41156,-7.81248 4.60139,-15.79626 6.53125,-23.96875 -10e-4,-0.021 10e-4,-0.0415 0,-0.0625 -1.07133,-21.13479 -18.56772,-37.96875 -39.96875,-37.96875 z"
       id="circle4489"
       inkscape:connector-curvature="0" />
    <circle
       transform="translate(497.92187,299.57812)"
       id="circle4491"
       r="35"
       cy="50"
       cx="50"
       sodipodi:cx="50"
       sodipodi:cy="50"
       sodipodi:rx="35"
       sodipodi:ry="35"
       style="fill:url(#radialGradient4495)"
       d="M 85,50 C 85,69.329966 69.329966,85 50,85 30.670034,85 15,69.329966 15,50 15,30.670034 30.670034,15 50,15 69.329966,15 85,30.670034 85,50 z" />
    <path
       style="fill:url(#radialGradient4587)"
       d="m 51.8125,408.75 c -6.336481,0 -12.300669,1.47091 -17.625,4.09375 11.209165,25.19533 24.735611,48.2545 39.75,69.21875 10.776388,-7.16641 17.875,-19.40058 17.875,-33.3125 0,-22.09139 -17.90861,-40 -40,-40 z"
       id="circle4499"
       inkscape:connector-curvature="0" />
    <path
       style="fill:url(#radialGradient4582)"
       d="m 51.8125,413.75 c -5.611234,0 -10.893119,1.30912 -15.59375,3.65625 10.058441,21.82508 21.898393,41.97936 34.875,60.5625 9.478633,-6.26232 15.71875,-17.00801 15.71875,-29.21875 0,-19.32997 -15.670034,-35 -35,-35 z"
       id="circle4501"
       inkscape:connector-curvature="0" />
    <path
       style="fill:url(#radialGradient4592)"
       d="m 547.90625,408.75 c -22.09139,0 -40,17.90861 -40,40 0,13.98275 7.19374,26.28676 18.0625,33.4375 15.0285,-20.97511 28.5916,-44.03657 39.8125,-69.25 -5.3768,-2.6883 -11.45469,-4.1875 -17.875,-4.1875 z"
       id="circle4509"
       inkscape:connector-curvature="0" />
    <path
       style="fill:url(#radialGradient4597)"
       d="m 547.90625,413.75 c -19.32997,0 -35,15.67003 -35,35 0,12.29082 6.35425,23.09974 15.9375,29.34375 12.98039,-18.58313 24.77986,-38.76681 34.84375,-60.59375 -4.74091,-2.39831 -10.10505,-3.75 -15.78125,-3.75 z"
       id="circle4511"
       inkscape:connector-curvature="0" />
    <path
       style="fill:url(#radialGradient4621)"
       d="m 151.0625,507.90625 c -16.06327,0 -29.91779,9.49595 -36.28125,23.15625 18.60403,19.41036 38.01898,36.39521 56.96875,51.0625 0.006,0.005 0.0248,-0.005 0.0312,0 11.54595,-7.01549 19.28125,-19.72128 19.28125,-34.21875 0,-22.09139 -17.90861,-40 -40,-40 z"
       id="circle4519"
       inkscape:connector-curvature="0" />
    <path
       style="fill:url(#radialGradient4626)"
       d="m 151.0625,512.90625 c -14.73737,0 -27.33992,9.13668 -32.5,22.03125 16.06081,16.38397 32.61557,30.98804 48.9375,43.875 11.03176,-5.89006 18.5625,-17.52698 18.5625,-30.90625 0,-19.32997 -15.67003,-35 -35,-35 z"
       id="circle4521"
       inkscape:connector-curvature="0" />
    <path
       style="fill:url(#radialGradient4616)"
       d="m 448.6875,507.90625 c -22.09139,0 -40,17.90861 -40,40 0,14.56303 7.80459,27.31697 19.4375,34.3125 18.93754,-14.64369 38.33782,-31.58779 56.9375,-50.96875 -6.32282,-13.76326 -20.23675,-23.34375 -36.375,-23.34375 z"
       id="circle4529"
       inkscape:connector-curvature="0" />
    <path
       style="fill:url(#radialGradient4609)"
       d="m 448.6875,512.90625 c -19.32997,0 -35,15.67003 -35,35 0,13.43908 7.6061,25.10395 18.71875,30.96875 16.28724,-12.85099 32.84339,-27.41707 48.875,-43.75 -5.11029,-12.99817 -17.78182,-22.21875 -32.59375,-22.21875 z"
       id="circle4531"
       inkscape:connector-curvature="0" />
  </g>
  <g
     inkscape:groupmode="layer"
     id="layer1"
     inkscape:label="Cover"
     style="display:inline"
     sodipodi:insensitive="true">
    <path
       d="m 2,2 v 257 c 0,286 298,398 298,398 0,0 298,-112 298,-398 V 2 z"
       id="shine"
       inkscape:connector-curvature="0"
       style="fill:url(#radialGradient3074);stroke:#000000;stroke-width:3" />
  </g>
</svg>
