<?xml version="1.0" encoding="UTF-8"?>
<svg xmlns="http://www.w3.org/2000/svg" xmlns:xlink="http://www.w3.org/1999/xlink" width="600" height="660">
<defs>
  <radialGradient id="rg" gradientUnits="userSpaceOnUse" cx="220" cy="220" r="405">
    <stop style="stop-color:#fff;stop-opacity:.3" offset="0"/>
    <stop style="stop-color:#eee;stop-opacity:.2" offset=".2"/>
    <stop style="stop-color:#666;stop-opacity:.1" offset=".6"/>
    <stop style="stop-color:#000;stop-opacity:.13" offset="1"/>
  </radialGradient>
  <path id="shield" d="m2,2v257c0,286 298,398 298,398c0,0 298-112 298-398V2z"/>
</defs>
<use id="design" xlink:href="#shield" fill="#741"/>
<g id="quill" transform="translate(50)rotate(15,300,300)">
  <path fill="#ccc" stroke="#999" stroke-width="2" d="m 166.51702,421.83795 c -19.46408,-28.60926 -14.88891,-69.75649 0.78265,-104.83517 1.09761,-2.45686 10.65259,15.3823 11.42042,12.6921 -7.76959,-22.81441 -4.57509,-38.72632 -2.53856,-53.28971 0,0 11.21918,16.30347 13.32853,12.65457 -4.74915,-44.09334 22.69497,-65.23922 40.9475,-89.14164 3.91724,-5.12968 -5.08362,33.17818 -2.15075,26.39061 16.68748,-38.62026 56.74172,-83.1982 79.30221,-88.88073 4.87858,-1.22884 -7.92555,25.79741 1.76988,21.0721 18.32807,-59.48298 101.05537,-47.91184 166.16791,-54.52906 -53.12593,21.40286 -68.00321,74.35703 -125.48144,91.48174 -4.01176,1.19525 22.35022,-2.40216 19.1888,0.39665 -19.72935,17.46659 -42.83875,37.59002 -65.09601,49.1783 -19.81515,7.14962 -33.12027,6.86709 -44.28908,20.76291 l 28.6317,-7.90791 c -22.82448,31.86133 -49.21969,55.06302 -66.68795,73.44734 l 24.01412,-7.19682 c -20.33424,31.14841 -22.35827,67.21526 -71.29801,97.44153"/>
  <path fill="#fff" d="m 169.38755,418.22785 c -19.46405,-28.60926 -10.84506,-55.82794 -0.56524,-90.9066 0.75675,-2.58231 12.44978,13.13578 13.21765,10.44559 3.01382,-24.16238 -5.02438,-34.23324 -2.98783,-48.79665 0,0 10.32051,13.6076 12.42992,9.95872 4.68635,-37.35368 12.81011,-57.15166 31.06268,-81.05408 3.9172,-5.1297 -1.41097,29.32912 2.79161,23.24543 27.92028,-40.41751 48.65417,-78.25578 71.66397,-87.53277 4.66601,-1.88123 2.85787,16.3619 12.55328,11.63659 21.02397,-48.69956 75.89407,-50.1584 141.9052,-54.07973 -42.7918,28.14247 -57.2198,66.71876 -114.69798,83.84347 -4.01174,1.19524 16.95851,5.23607 13.79711,8.03491 -19.72935,17.4666 -28.46086,21.41491 -50.71813,33.00312 -19.81517,7.1496 -44.35298,19.89704 -54.17393,37.83671 l 25.48655,-4.76275 c -27.76688,30.51341 -40.68284,46.52611 -58.15106,64.91043 l 20.41965,1.7894 c -20.33426,31.1484 -17.68356,49.36718 -61.23162,82.28933"/>
  <path fill="#ccc" stroke="#999" stroke-width="2" d="m 155.42373,534.11862 5.52023,-6.24886 c 0.84283,-34.8197 -2.42524,-38.92102 7.8742,-82.79102 C 237.00959,154.62037 388.4192,128.80451 445.11593,112.75784 271.05932,145.6861 196.11992,296.21369 168.95659,415.84051 c -1.2857,4.95707 -6.11031,25.02046 -7.45035,30.36406 -8.72635,34.79769 -6.4152,44.74355 -6.08251,87.91405 z"/>
</g>
<use xlink:href="#quill" transform="translate(600)scale(-1,1)"/>
<use id="shine" xlink:href="#shield" fill="url(#rg)" stroke="#000" stroke-width="3"/>
</svg>