<?xml version="1.0" encoding="UTF-8" standalone="no"?>
<svg
   xmlns:dc="http://purl.org/dc/elements/1.1/"
   xmlns:cc="http://creativecommons.org/ns#"
   xmlns:rdf="http://www.w3.org/1999/02/22-rdf-syntax-ns#"
   xmlns:svg="http://www.w3.org/2000/svg"
   xmlns="http://www.w3.org/2000/svg"
   xmlns:xlink="http://www.w3.org/1999/xlink"
   xmlns:sodipodi="http://sodipodi.sourceforge.net/DTD/sodipodi-0.dtd"
   xmlns:inkscape="http://www.inkscape.org/namespaces/inkscape"
   width="600"
   height="660"
   id="svg2"
   version="1.1"
   inkscape:version="0.48.2 r9819"
   sodipodi:docname="House_Webber.svg">
  <metadata
     id="metadata24">
    <rdf:RDF>
      <cc:Work
         rdf:about="">
        <dc:format>image/svg+xml</dc:format>
        <dc:type
           rdf:resource="http://purl.org/dc/dcmitype/StillImage" />
        <dc:title></dc:title>
      </cc:Work>
    </rdf:RDF>
  </metadata>
  <sodipodi:namedview
     pagecolor="#ffffff"
     bordercolor="#666666"
     borderopacity="1"
     objecttolerance="10"
     gridtolerance="10"
     guidetolerance="10"
     inkscape:pageopacity="0"
     inkscape:pageshadow="2"
     inkscape:window-width="1366"
     inkscape:window-height="715"
     id="namedview22"
     showgrid="false"
     inkscape:zoom="0.71515154"
     inkscape:cx="67.706929"
     inkscape:cy="370.26504"
     inkscape:window-x="-8"
     inkscape:window-y="-8"
     inkscape:window-maximized="1"
     inkscape:current-layer="layer2" />
  <defs
     id="defs4">
    <radialGradient
       id="rg"
       gradientUnits="userSpaceOnUse"
       cx="220"
       cy="220"
       r="405">
      <stop
         style="stop-color:#fff;stop-opacity:.3"
         offset="0"
         id="stop7" />
      <stop
         style="stop-color:#fff;stop-opacity:.2"
         offset=".2"
         id="stop9" />
      <stop
         style="stop-color:#666;stop-opacity:.1"
         offset=".6"
         id="stop11" />
      <stop
         style="stop-color:#000;stop-opacity:.13"
         offset="1"
         id="stop13" />
    </radialGradient>
    <path
       id="shield"
       d="m2,2v257c0,286 298,398 298,398c0,0 298-112 298-398V2z" />
    <radialGradient
       inkscape:collect="always"
       xlink:href="#rg-7"
       id="radialGradient3055-1"
       gradientUnits="userSpaceOnUse"
       cx="220"
       cy="220"
       r="405" />
    <radialGradient
       id="rg-7"
       gradientUnits="userSpaceOnUse"
       cx="220"
       cy="220"
       r="405">
      <stop
         style="stop-color:#fff;stop-opacity:.3"
         offset="0"
         id="stop7-4" />
      <stop
         style="stop-color:#fff;stop-opacity:.2"
         offset=".2"
         id="stop9-0" />
      <stop
         style="stop-color:#666;stop-opacity:.1"
         offset=".6"
         id="stop11-9" />
      <stop
         style="stop-color:#000;stop-opacity:.13"
         offset="1"
         id="stop13-4" />
    </radialGradient>
    <radialGradient
       r="405"
       cy="220"
       cx="220"
       gradientUnits="userSpaceOnUse"
       id="radialGradient3074"
       xlink:href="#rg-7"
       inkscape:collect="always" />
    <radialGradient
       id="rg-1-1"
       gradientUnits="userSpaceOnUse"
       cx="220"
       cy="220"
       r="405">
      <stop
         style="stop-color:#fff;stop-opacity:.3"
         offset="0"
         id="stop7-7-7" />
      <stop
         style="stop-color:#fff;stop-opacity:.2"
         offset=".2"
         id="stop9-4-4" />
      <stop
         style="stop-color:#666;stop-opacity:.1"
         offset=".6"
         id="stop11-0-0" />
      <stop
         style="stop-color:#000;stop-opacity:.13"
         offset="1"
         id="stop13-9-9" />
    </radialGradient>
    <radialGradient
       id="radialGradient3050"
       gradientUnits="userSpaceOnUse"
       cx="220"
       cy="220"
       r="405">
      <stop
         style="stop-color:#fff;stop-opacity:.3"
         offset="0"
         id="stop3052" />
      <stop
         style="stop-color:#fff;stop-opacity:.2"
         offset=".2"
         id="stop3054" />
      <stop
         style="stop-color:#666;stop-opacity:.1"
         offset=".6"
         id="stop3056" />
      <stop
         style="stop-color:#000;stop-opacity:.13"
         offset="1"
         id="stop3058" />
    </radialGradient>
    <radialGradient
       r="405"
       cy="220"
       cx="220"
       gradientUnits="userSpaceOnUse"
       id="radialGradient3085"
       xlink:href="#rg-1-1"
       inkscape:collect="always" />
  </defs>
  <g
     inkscape:groupmode="layer"
     id="layer2"
     inkscape:label="Elements"
     style="display:inline">
    <use
       style="fill:url(#radialGradient3085);stroke:#000000;stroke-width:3"
       id="shine-1"
       xlink:href="#shield"
       x="0"
       y="0"
       width="1"
       height="1" />
    <use
       height="1052.3622"
       width="744.09448"
       y="0"
       x="0"
       id="background"
       xlink:href="#shield"
       style="fill:#0000cc" />
    <path
       d="m 266.75519,399.87318 c 25.25266,-1.61967 31.63303,-5.91785 55.14253,-7.148 -6.86103,23.36331 -21.44538,39.25202 -18.04217,69.29859 18.6877,10.17151 26.71996,34.68595 37.31461,56.99704 13.01893,8.81239 6.03909,15.92509 5.91396,22.96296 -0.7445,8.81942 -1.42971,15.00707 -1.63553,22.48001 -0.3954,2.73466 -2.84464,4.58029 -5.10122,1.3083 -0.5637,2.29129 -4.09444,4.76419 -5.44833,-1.30058 -0.72821,4.5145 -4.53272,6.70042 -5.65566,0.33183 0.55299,2.62545 -4.44096,7.29518 -4.60716,1.35623 -0.33424,-14.66117 5.00244,-23.05382 2.52933,-35.92618 -19.36629,-32.78388 -33.11319,-35.08638 -49.3576,-63.38687 -8.40824,-17.9368 -8.78625,-43.97037 -11.05276,-66.97333 z"
       id="path3463"
       style="fill:#ff7777;fill-rule:evenodd;stroke:none"
       inkscape:connector-curvature="0" />
    <path
       d="m 270.03401,609.68594 c 5.61698,-7.39879 15.76891,-21.89182 14.91696,-32.51314 -1.36452,-12.92593 -8.99122,-52.12477 -16.74382,-74.41449 -3.89122,-11.18762 -7.55358,-19.43655 -11.04073,-38.28482 -9.8305,-19.75426 -17.37116,-35.55539 -25.59931,-59.3155 12.34183,-0.0832 21.47233,-2.27752 31.53082,-3.12183 4.82908,31.95841 3.41272,64.74606 30.28209,88.66098 8.12191,6.77129 1.78789,42.37785 7.0093,78.38401 1.06438,7.33965 8.86436,9.21627 5.17777,23.52857 -7.32324,9.12356 -13.20389,18.59148 -17.47072,28.20002 -4.39784,4.33573 -6.13476,-0.28838 -4.89173,-3.40009 -1.80516,2.9466 -6.87204,4.16875 -5.13225,-2.35784 -1.80443,2.54453 -6.48878,3.8146 -3.65329,-2.46842 0.31645,-0.70132 -1.68796,3.68402 -4.03527,2.30336 -1.13372,-0.66687 -1.21813,-3.88425 -0.34982,-5.20081 z"
       id="path3465"
       style="fill:#ff7777;fill-rule:evenodd;stroke:none"
       inkscape:connector-curvature="0" />
    <path
       d="m 302.83195,195.8689 c -4.42275,6.6054 -9.37335,12.94692 -16.44314,18.22883 -5.15852,5.32247 -12.88671,-9.63482 -18.04512,-14.41347 -1.40144,-2.6357 -4.64725,-6.92225 -5.90236,-8.96678 -1.68236,-2.74061 -0.3548,-2.29196 -1.22996,-4.60038 -0.96306,-2.54011 -6.90156,-3.03364 -5.3864,-13.75664 3.13306,-10.43433 18.72491,-10.69185 33.14403,-6.58965 3.71492,1.05689 5.70387,6.27251 8.71554,6.23532 3.72887,-0.749 8.19887,-2.75789 8.67111,2.02938 -0.66429,4.00753 -1.9646,5.15273 -3.30105,6.13541 -2.60377,8.11561 5.39915,12.89623 6.54722,28.56993 l 26.78441,22.02265 c 21.18388,21.68289 23.27735,49.02892 44.90005,79.46774 5.16051,17.52233 4.98043,50.72047 9.53443,80.41907 0.23472,1.53114 1.80868,3.51724 2.07,5.02713 -0.75285,1.76406 -1.80533,3.28234 -3.26385,1.69482 0.0522,2.74446 -0.14736,4.92521 -1.86738,5.00419 -0.89716,0.0411 -1.84771,-0.50981 -2.43323,-0.37978 -0.86331,0.19173 -0.55781,2.03114 -2.39175,2.14047 -2.33596,-0.23651 -1.73558,-0.66736 -3.03897,-2.26329 -1.53066,2.2314 -5.90375,1.99914 -5.15095,-3.10848 -0.80474,4.28488 -5.70736,2.06872 -4.63354,-4.39432 5.47454,-26.31732 -7.49477,-50.87952 -7.45973,-80.88901 -10.83756,-13.28929 -21.44364,-27.04155 -29.24121,-46.41091 -8.0607,23.6641 -38.36455,45.59653 -16.16186,74.03476 -39.84868,3.0616 -49.84409,8.41181 -83.83293,8.69899 -4.14566,-22.33715 24.48219,-35.73175 17.85626,-72.02004 11.72889,1.24585 20.81561,-1.3246 25.59394,-10.11851 -14.3709,9.60583 -31.00632,13.64287 -32.73637,-6.54727 -3.0659,-8.27063 16.17761,-15.06307 19.0466,-27.37951 -2.57924,1.83299 -5.15853,5.67893 -7.7377,4.76164 -17.46218,-15.46424 -40.77957,-18.52747 -59.13939,-34.17113 -9.0623,-8.40636 2.59979,-57.90782 2.59467,-89.03669 l 1.97094,-16.797273 c 2.77597,0.160715 6.1621,-1.280463 5.86795,6.939353 l 4.06529,-9.783908 c 0.59226,-1.534394 8.11865,-2.934536 2.22886,9.660248 3.88713,-10.616456 13.21706,-12.378073 5.55922,0.81615 4.39604,-9.054352 13.87864,-12.553148 4.25017,2.79955 4.52694,-3.96197 14.50908,-6.34091 2.3499,4.11963 -3.12218,4.24482 -6.12645,9.19688 -9.62648,11.17435 0.8599,23.59973 -4.80947,66.25651 0.83957,67.31924 18.13356,5.55004 32.56441,11.54564 49.1578,20.17618 4.93262,0.25323 10.88441,-1.53175 13.68978,2.97602 l 3.74342,2.08842 -6.12423,13.98217 c 5.69955,-13.07645 16.3993,-17.4254 24.85022,-30.00445 l 1.11622,-4.89015 z"
       id="path3467"
       style="fill:#ff7777;fill-rule:evenodd;stroke:none"
       inkscape:connector-curvature="0" />
    <path
       d="m 289.96502,234.70271 c 1.27789,-2.07182 0.34465,-3.74159 4.26333,-6.29354 7.51932,-0.54787 14.36562,4.28078 19.08358,-3.24828 2.21943,-1.71188 2.61975,-0.18349 3.24827,1.21811 -4.95571,11.04874 -21.92941,1.34985 -26.59518,8.32371 z"
       id="path3469"
       style="fill:#0000cc;fill-rule:evenodd;stroke:none"
       inkscape:connector-curvature="0" />
    <path
       d="m 275.24628,180.59871 c 0.45774,1.40127 1.3697,1.44018 2.63923,0.40603 -0.23744,-3.33079 6.12495,-6.24906 9.74481,-9.33878 -4.19618,2.93072 -12.13361,3.28932 -12.38404,8.93275 z"
       id="path3471"
       style="fill:#0000cc;fill-rule:evenodd;stroke:none"
       inkscape:connector-curvature="0" />
    <path
       d="m 269.77052,182.20861 c 0.49918,1.16648 -0.13619,1.68301 -1.66529,1.68759 -1.39213,-1.7895 -5.48652,-1.29326 -9.32596,-1.01269 -1.13461,0.13725 -0.73325,-0.44109 0.19842,-0.55522 3.93775,-1.10905 8.08216,-2.86728 10.79283,-0.11968 z"
       id="path3473"
       style="fill:#0000cc;fill-rule:evenodd;stroke:none"
       inkscape:connector-curvature="0" />
    <path
       d="m 273.13382,186.08378 c -0.21911,4.43562 -3.13241,14.2598 -0.6572,13.30686 l 2.02606,0.32756 -0.54753,-1.47753 c -2.09267,0.9497 -0.54758,-8.10458 -0.82133,-12.15689 z"
       id="path3475"
       style="fill:#0000cc;fill-opacity:1;fill-rule:evenodd;stroke:none"
       inkscape:connector-curvature="0" />
    <path
       d="m 275.50651,198.4123 c 0.43725,-0.38073 0.87443,-0.49246 1.31168,-1.14764 0.0383,-0.82168 -0.57259,-0.994 -1.09294,-1.25693 0.31026,0.80153 0.34266,1.60304 -0.21874,2.40457 z"
       id="path3477"
       style="fill:#0000cc;fill-rule:evenodd;stroke:none"
       inkscape:connector-curvature="0" />
    <path
       d="m 279.20411,186.95453 c 2.01674,0.12405 4.14562,0.4727 5.3107,-1.10641 l 2.43415,-7.08101 c -3.15062,2.3227 -6.57928,4.44683 -7.74485,8.18742 z"
       id="path3479"
       style="fill:#0000cc;fill-opacity:1;fill-rule:evenodd;stroke:none"
       inkscape:connector-curvature="0" />
    <path
       d="m 271.00909,186.12741 c -0.97407,1.77015 -1.8185,3.75538 -3.77601,3.8949 l -7.28463,-1.73183 c 3.64794,-1.41922 7.27682,-3.17951 11.06064,-2.16307 z"
       id="path3481"
       style="fill:#0000cc;fill-opacity:1;fill-rule:evenodd;stroke:none"
       inkscape:connector-curvature="0" />
    <path
       d="m 275.4073,201.2173 c -1.55984,-1.97534 6.27665,-1.37215 9.10746,-0.53118 1.24589,0.16501 0.44193,1.03779 0.34831,1.10573 -2.39355,2.46061 -5.61855,6.51474 -5.8771,4.88332 -0.0366,-1.26008 0.30075,-2.67572 -0.62996,-3.48876 -1.2812,-1.48547 -1.35479,-1.26553 -2.94871,-1.96911 z"
       id="path3483"
       style="fill:#0000cc;fill-rule:evenodd;stroke:none"
       inkscape:connector-curvature="0" />
    <path
       d="m 279.41119,201.58859 c 0.61805,0.18963 1.49093,0.23844 2.14181,0.56694 0.0767,1.04262 -0.41609,1.01176 -1.51185,0.88191 -0.49462,-0.26946 -0.80409,-0.67782 -0.62996,-1.44885 z"
       id="path3485"
       style="fill:#ffdd00;fill-rule:evenodd;stroke:none"
       inkscape:connector-curvature="0" />
    <path
       d="m 290.18309,256.64456 c 1.22739,-0.42546 1.34499,0.46306 2.06118,2.59322 -11.18342,20.64701 8.55314,26.09085 12.40377,26.56806 7.30567,0.90539 22.55672,-12.19785 19.80323,-27.64946 1.29491,-1.69298 2.5897,-1.22827 3.88461,-0.38495 -1.77659,14.13914 -7.7861,30.4857 -23.58388,30.08965 -11.31114,-0.80423 -25.45577,-8.98798 -14.56891,-31.21652 z"
       id="path3487"
       style="fill:#0000cc;fill-rule:evenodd;stroke:none"
       inkscape:connector-curvature="0" />
    <path
       d="m 263.37554,323.89835 c 2.16423,0.3919 4.37758,2.30148 4.2165,5.45229 -0.26624,1.32182 -3.35403,2.80425 -5.49727,0.48579 -0.81148,-1.52246 -0.89122,-3.40498 1.82084,-4.56734 l -0.54007,-1.37074 z"
       id="path3493"
       style="fill:#0000cc;fill-rule:evenodd;stroke:none"
       inkscape:connector-curvature="0" />
    <path
       d="m 152.96697,341.99051 c 6.42582,21.81067 22.80588,40.71496 38.52803,59.05218 65.41352,9.74893 129.38675,-16.91976 178.23687,-15.48316 0.7718,-13.56283 -1.76523,-28.20586 -5.76124,-41.76866 -84.48218,-9.03609 -176.46852,32.48183 -211.00366,-1.80036 z"
       id="path3497"
       style="fill:#ffffff;fill-rule:evenodd;stroke:none"
       inkscape:connector-curvature="0" />
    <path
       inkscape:connector-curvature="0"
       style="fill:#ffffff;fill-rule:evenodd;stroke:none"
       d="m 336.71794,36.436704 c -48.75457,0.572324 -173.32599,13.723353 -138.97813,30.3875 l 70.64063,34.271876 c 46.32731,22.47608 111.6822,-38.155427 182.01563,30.97187 -0.19788,-60.943117 -55.89236,-90.378556 -91.50625,-94.531246 -7.20138,-0.839701 -14.61868,-1.188665 -22.17188,-1.1 z"
       id="path3499"
       sodipodi:nodetypes="ssscss" />
    <path
       d="m 388.45571,354.23303 c 1.69842,12.46651 0.97484,23.24511 4.32094,38.88805 20.32978,15.91586 9.96205,31.32643 5.40108,37.44771 46.84829,-26.67343 12.8748,-84.69957 -9.72202,-76.33576 z"
       id="path3501"
       style="fill:#ffffff;fill-rule:evenodd;stroke:none"
       inkscape:connector-curvature="0" />
    <path
       d="m 210.54051,252.7081 c 3.70524,-9.64043 8.15106,-19.46393 14.47061,-30.5982 9.27972,4.90889 19.87856,8.35436 28.16414,16.47475 -14.28174,4.0769 -28.69983,6.92573 -42.63475,14.12345 z"
       id="path2476"
       style="fill:#ffdd00;fill-opacity:1;fill-rule:evenodd;stroke:none"
       inkscape:connector-curvature="0" />
    <path
       d="m 344.46887,151.04672 c -13.00439,1.53709 -11.43818,18.64688 -18.81096,13.34959 -3.96721,-2.85042 -16.67191,-17.28903 -25.8318,-5.58563 -14.40151,-14.75202 -29.51137,-13.92188 -44.96632,-5.49947 -3.73397,4.58614 -5.35724,7.85306 -6.0775,10.55564 -12.96537,-2.43089 -13.13847,20.30969 -27.24283,-3.76217 -0.87294,26.22391 17.92672,16.02095 24.90934,23.61539 2.44719,8.42919 -3.07355,11.7879 -10.02844,14.23395 9.57032,1.38347 21.78156,10.0998 30.01188,13.11503 0.3571,0.13083 7.05248,-0.9737 10.02236,0.11219 -4.72957,-7.62962 -15.50436,-17.81859 -15.56672,-24.26699 -0.4325,-1.77563 -6.02934,-3.72741 -6.02809,-11.45329 0.30473,-13.63254 16.46629,-13.7618 29.08057,-11.99432 4.34619,0.42637 8.14126,2.22677 13.40145,8.13726 5.80424,-3.54535 15.43493,-1.85008 6.14654,9.58561 -0.26276,9.65074 6.13458,15.83424 6.90812,27.02812 4.26929,5.2587 20.09022,13.80496 27.70983,22.01767 11.42104,12.30987 18.07463,28.31256 25.5296,44.11075 9.78575,4.52669 20.55755,11.20294 31.21815,4.79399 -5.27415,-1.31806 -12.02959,-0.41413 -14.80032,-5.48736 3.23618,-9.42624 14.66064,-8.90958 23.93892,-10.99894 -17.58711,-5.74012 -39.38316,12.14155 -47.8778,-16.49843 -6.40647,-42.30264 -25.23342,-30.18685 -31.44784,-45.87832 14.48683,8.09327 19.15759,-10.2777 24.61838,-3.57125 9.29739,9.12164 15.648,8.92234 24.9454,8.36524 -21.3155,-8.45638 -19.05056,-21.42962 -28.00908,-26.40022 -14.07129,-7.80746 -24.97331,8.22169 -30.54413,-1.74416 3.41176,-12.25247 12.39181,-3.91098 20.18584,-9.41788 3.23336,-2.28449 -2.45212,-7.74444 8.60545,-16.462 z"
       id="path2478"
       style="fill:#ffdd00;fill-opacity:1;fill-rule:evenodd;stroke:none"
       inkscape:connector-curvature="0" />
    <path
       d="m 391.33235,464.10018 c -16.00199,-13.6217 -13.04852,-24.71596 6.8888,-33.54577 -15.54958,4.31526 -38.34067,2.24104 -41.6326,17.37191 5.15426,14.78462 19.35241,16.35119 34.7438,16.17386 z"
       id="path3333"
       style="fill:#ffffff;fill-rule:evenodd;stroke:none"
       inkscape:connector-curvature="0" />
    <path
       d="m 391.29674,464.08898 c 5.32754,5.01185 9.07721,10.51677 1.79709,19.46848 4.70114,-1.65261 9.75996,-2.50052 11.38167,-11.08203 -2.00472,-8.76615 -8.22244,-6.9995 -13.17876,-8.38645 z"
       id="path3335"
       style="fill:#ffffff;fill-rule:evenodd;stroke:none"
       inkscape:connector-curvature="0" />
    <path
       d="m 375.74481,503.62078 c 1.46019,-11.50073 8.796,-16.47305 17.37186,-20.0675 -6.09007,-0.38961 -12.18027,-2.4213 -18.27041,4.79222 -2.37763,8.30439 -0.59039,11.61085 0.89855,15.27528 z"
       id="path3337"
       style="fill:#ffffff;fill-rule:evenodd;stroke:none"
       inkscape:connector-curvature="0" />
    <path
       inkscape:connector-curvature="0"
       style="fill:#ffffff;fill-rule:evenodd;stroke:none"
       d="m 373.43332,200.64096 c 38.06711,-19.53256 65.9029,-30.67772 76.3978,-65.41049 13.72188,73.48718 -12.8706,94.87209 -86.02686,122.18011 l -116.1377,41.73105 c -40.39981,11.8779 -73.26551,24.32092 -70.93466,53.29103 -9.86802,0.89686 -19.44627,-9.40537 -28.44586,-23.40482 -2.63761,-10.41732 -2.09201,-23.77256 2.37901,-31.94628 24.15918,-32.16246 63.21284,-47.54478 103.12279,-57.35221"
       id="path3036"
       sodipodi:nodetypes="cccccccc" />
  </g>
  <g
     inkscape:groupmode="layer"
     id="layer1"
     inkscape:label="Cover"
     style="display:inline"
     sodipodi:insensitive="true">
    <path
       d="m 2,2 v 257 c 0,286 298,398 298,398 0,0 298,-112 298,-398 V 2 z"
       id="shine"
       inkscape:connector-curvature="0"
       style="fill:url(#radialGradient3074);stroke:#000000;stroke-width:3" />
  </g>
</svg>
