<?xml version="1.0" encoding="UTF-8" standalone="no"?>
<svg
   xmlns:dc="http://purl.org/dc/elements/1.1/"
   xmlns:cc="http://creativecommons.org/ns#"
   xmlns:rdf="http://www.w3.org/1999/02/22-rdf-syntax-ns#"
   xmlns:svg="http://www.w3.org/2000/svg"
   xmlns="http://www.w3.org/2000/svg"
   xmlns:xlink="http://www.w3.org/1999/xlink"
   xmlns:sodipodi="http://sodipodi.sourceforge.net/DTD/sodipodi-0.dtd"
   xmlns:inkscape="http://www.inkscape.org/namespaces/inkscape"
   width="600"
   height="660"
   id="svg2"
   version="1.1"
   inkscape:version="0.48.2 r9819"
   sodipodi:docname="House_Poole.svg">
  <metadata
     id="metadata27">
    <rdf:RDF>
      <cc:Work
         rdf:about="">
        <dc:format>image/svg+xml</dc:format>
        <dc:type
           rdf:resource="http://purl.org/dc/dcmitype/StillImage" />
        <dc:title></dc:title>
      </cc:Work>
    </rdf:RDF>
  </metadata>
  <sodipodi:namedview
     pagecolor="#ffffff"
     bordercolor="#666666"
     borderopacity="1"
     objecttolerance="10"
     gridtolerance="10"
     guidetolerance="10"
     inkscape:pageopacity="0"
     inkscape:pageshadow="2"
     inkscape:window-width="1366"
     inkscape:window-height="715"
     id="namedview25"
     showgrid="false"
     inkscape:zoom="0.71515151"
     inkscape:cx="267.57698"
     inkscape:cy="336.14064"
     inkscape:window-x="-8"
     inkscape:window-y="-8"
     inkscape:window-maximized="1"
     inkscape:current-layer="svg2" />
  <defs
     id="defs4">
    <radialGradient
       id="rg"
       gradientUnits="userSpaceOnUse"
       cx="220"
       cy="220"
       r="405">
      <stop
         style="stop-color:#fff;stop-opacity:.3"
         offset="0"
         id="stop7" />
      <stop
         style="stop-color:#fff;stop-opacity:.2"
         offset=".2"
         id="stop9" />
      <stop
         style="stop-color:#666;stop-opacity:.1"
         offset=".6"
         id="stop11" />
      <stop
         style="stop-color:#000;stop-opacity:.13"
         offset="1"
         id="stop13" />
    </radialGradient>
    <clipPath
       id="clip-shield">
      <path
         id="shield"
         d="m2,2v257c0,286 298,398 298,398c0,0 298-112 298-398V2z" />
    </clipPath>
  </defs>
  <rect
     style="fill:#ffffff"
     id="rect18"
     height="660"
     width="600"
     y="0"
     x="0" />
  <path
     style="fill:#999999"
     inkscape:connector-curvature="0"
     id="path20"
     d="m 102,102 396,0 0,157 c 0,91.37269 -39.47772,156.91064 -87.75977,206.3125 C 372.41066,504.01947 329.38708,530.93865 300,546.60938 270.61292,530.93866 227.58934,504.01947 189.75977,465.3125 141.47772,415.91064 102,350.37269 102,259 z M 52,52 52,259 C 52,471.45202 241.33706,575.39518 300,602.53711 358.66294,575.39518 548,471.45202 548,259 l 0,-207 z" />
  <circle
     style="fill:#0000cc"
     sodipodi:ry="145"
     sodipodi:rx="145"
     sodipodi:cy="295"
     sodipodi:cx="300"
     d="m 445,295 c 0,80.08129 -64.91871,145 -145,145 -80.08129,0 -145,-64.91871 -145,-145 0,-80.08129 64.91871,-145 145,-145 80.08129,0 145,64.91871 145,145 z"
     id="circle22"
     r="145"
     cy="295"
     cx="300" />
  <use
     id="shine"
     xlink:href="#shield"
     stroke-width="3"
     stroke="#000"
     fill="url(#rg)" />
</svg>
