<?xml version="1.0" encoding="UTF-8" standalone="no"?>
<svg
   xmlns:dc="http://purl.org/dc/elements/1.1/"
   xmlns:cc="http://creativecommons.org/ns#"
   xmlns:rdf="http://www.w3.org/1999/02/22-rdf-syntax-ns#"
   xmlns:svg="http://www.w3.org/2000/svg"
   xmlns="http://www.w3.org/2000/svg"
   xmlns:xlink="http://www.w3.org/1999/xlink"
   xmlns:sodipodi="http://sodipodi.sourceforge.net/DTD/sodipodi-0.dtd"
   xmlns:inkscape="http://www.inkscape.org/namespaces/inkscape"
   width="600"
   height="660"
   id="svg2"
   version="1.1"
   inkscape:version="0.48.2 r9819"
   sodipodi:docname="House_Rosby.svg">
  <metadata
     id="metadata24">
    <rdf:RDF>
      <cc:Work
         rdf:about="">
        <dc:format>image/svg+xml</dc:format>
        <dc:type
           rdf:resource="http://purl.org/dc/dcmitype/StillImage" />
        <dc:title></dc:title>
      </cc:Work>
    </rdf:RDF>
  </metadata>
  <sodipodi:namedview
     pagecolor="#ffffff"
     bordercolor="#666666"
     borderopacity="1"
     objecttolerance="10"
     gridtolerance="10"
     guidetolerance="10"
     inkscape:pageopacity="0"
     inkscape:pageshadow="2"
     inkscape:window-width="1366"
     inkscape:window-height="715"
     id="namedview22"
     showgrid="false"
     inkscape:zoom="0.71515154"
     inkscape:cx="171.21232"
     inkscape:cy="359.22183"
     inkscape:window-x="-8"
     inkscape:window-y="-8"
     inkscape:window-maximized="1"
     inkscape:current-layer="layer2" />
  <defs
     id="defs4">
    <radialGradient
       id="rg"
       gradientUnits="userSpaceOnUse"
       cx="220"
       cy="220"
       r="405">
      <stop
         style="stop-color:#fff;stop-opacity:.3"
         offset="0"
         id="stop7" />
      <stop
         style="stop-color:#fff;stop-opacity:.2"
         offset=".2"
         id="stop9" />
      <stop
         style="stop-color:#666;stop-opacity:.1"
         offset=".6"
         id="stop11" />
      <stop
         style="stop-color:#000;stop-opacity:.13"
         offset="1"
         id="stop13" />
    </radialGradient>
    <path
       id="shield"
       d="m2,2v257c0,286 298,398 298,398c0,0 298-112 298-398V2z" />
    <radialGradient
       inkscape:collect="always"
       xlink:href="#rg-7"
       id="radialGradient3055-1"
       gradientUnits="userSpaceOnUse"
       cx="220"
       cy="220"
       r="405" />
    <radialGradient
       id="rg-7"
       gradientUnits="userSpaceOnUse"
       cx="220"
       cy="220"
       r="405">
      <stop
         style="stop-color:#fff;stop-opacity:.3"
         offset="0"
         id="stop7-4" />
      <stop
         style="stop-color:#fff;stop-opacity:.2"
         offset=".2"
         id="stop9-0" />
      <stop
         style="stop-color:#666;stop-opacity:.1"
         offset=".6"
         id="stop11-9" />
      <stop
         style="stop-color:#000;stop-opacity:.13"
         offset="1"
         id="stop13-4" />
    </radialGradient>
    <radialGradient
       r="405"
       cy="220"
       cx="220"
       gradientUnits="userSpaceOnUse"
       id="radialGradient3074"
       xlink:href="#rg-7"
       inkscape:collect="always" />
    <inkscape:path-effect
       is_visible="true"
       id="path-effect10120-1"
       effect="spiro" />
    <inkscape:path-effect
       effect="spiro"
       id="path-effect10118-3"
       is_visible="true" />
    <inkscape:path-effect
       effect="spiro"
       id="path-effect10116-9"
       is_visible="true" />
    <inkscape:path-effect
       effect="spiro"
       id="path-effect10114-7"
       is_visible="true" />
    <inkscape:path-effect
       effect="spiro"
       id="path-effect10112-7"
       is_visible="true" />
    <inkscape:path-effect
       effect="spiro"
       id="path-effect10110-2"
       is_visible="true" />
    <linearGradient
       inkscape:collect="always"
       xlink:href="#linearGradient4719-5"
       id="linearGradient4039"
       gradientUnits="userSpaceOnUse"
       gradientTransform="matrix(2.3257341,0,0,2.2943177,447.69485,-1820.2799)"
       x1="-145.25935"
       y1="984.24286"
       x2="-64.14286"
       y2="984.14789" />
    <linearGradient
       inkscape:collect="always"
       id="linearGradient4719-5">
      <stop
         style="stop-color:#666666;stop-opacity:1;"
         offset="0"
         id="stop4721-5" />
      <stop
         id="stop4809-1"
         offset="0.39344174"
         style="stop-color:#666666;stop-opacity:0.74901961;" />
      <stop
         style="stop-color:#666666;stop-opacity:0;"
         offset="1"
         id="stop4723-7" />
    </linearGradient>
    <radialGradient
       inkscape:collect="always"
       xlink:href="#linearGradient4801-8"
       id="radialGradient4041"
       gradientUnits="userSpaceOnUse"
       gradientTransform="matrix(-0.72153181,1.2650715,-2.2729984,-1.2616144,1712.0113,1733.7841)"
       cx="-307.14288"
       cy="782.36218"
       fx="-307.14288"
       fy="782.36218"
       r="63" />
    <linearGradient
       inkscape:collect="always"
       id="linearGradient4801-8">
      <stop
         style="stop-color:#000000;stop-opacity:1;"
         offset="0"
         id="stop4803-2" />
      <stop
         style="stop-color:#000000;stop-opacity:0;"
         offset="1"
         id="stop4805-4" />
    </linearGradient>
    <inkscape:path-effect
       effect="spiro"
       id="path-effect10108-4"
       is_visible="true" />
    <linearGradient
       inkscape:collect="always"
       xlink:href="#linearGradient4719-5"
       id="linearGradient4044"
       gradientUnits="userSpaceOnUse"
       gradientTransform="matrix(-2.4055369,0,0,-1.6485021,142.06168,1726.5307)"
       x1="-145.25935"
       y1="984.24286"
       x2="-64.14286"
       y2="984.14789" />
    <radialGradient
       inkscape:collect="always"
       xlink:href="#linearGradient4801-8"
       id="radialGradient4046"
       gradientUnits="userSpaceOnUse"
       gradientTransform="matrix(0.74628962,-0.90897301,2.3509914,0.90648896,-1165.637,-827.11785)"
       cx="-307.14288"
       cy="782.36218"
       fx="-307.14288"
       fy="782.36218"
       r="63" />
    <inkscape:path-effect
       effect="spiro"
       id="path-effect10102-7"
       is_visible="true" />
    <linearGradient
       inkscape:collect="always"
       xlink:href="#linearGradient4719-5"
       id="linearGradient4049"
       gradientUnits="userSpaceOnUse"
       gradientTransform="matrix(2.334989,0,0,-1.6146975,449.44065,1692.189)"
       x1="-145.25935"
       y1="984.24286"
       x2="-64.14286"
       y2="984.14789" />
    <radialGradient
       inkscape:collect="always"
       xlink:href="#linearGradient4801-8"
       id="radialGradient4051"
       gradientUnits="userSpaceOnUse"
       gradientTransform="matrix(-0.72440295,-0.89033332,-2.2820431,0.88790031,1718.7881,-809.09364)"
       cx="-307.14288"
       cy="782.36218"
       fx="-307.14288"
       fy="782.36218"
       r="63" />
    <inkscape:path-effect
       is_visible="true"
       id="path-effect10096-8"
       effect="spiro" />
    <linearGradient
       inkscape:collect="always"
       xlink:href="#linearGradient4719-5"
       id="linearGradient4054"
       gradientUnits="userSpaceOnUse"
       gradientTransform="matrix(-2.409599,0,0,2.2818507,139.61083,-1810.8163)"
       x1="-145.25935"
       y1="984.24286"
       x2="-64.14286"
       y2="984.14789" />
    <radialGradient
       inkscape:collect="always"
       xlink:href="#linearGradient4801-8"
       id="radialGradient4056"
       gradientUnits="userSpaceOnUse"
       gradientTransform="matrix(0.74754985,1.2581972,2.3549614,-1.2547588,-1170.296,1723.935)"
       cx="-307.14288"
       cy="782.36218"
       fx="-307.14288"
       fy="782.36218"
       r="63" />
    <inkscape:path-effect
       is_visible="true"
       id="path-effect10090-3"
       effect="spiro" />
    <inkscape:path-effect
       effect="spiro"
       id="path-effect10084-1"
       is_visible="true" />
    <inkscape:path-effect
       effect="spiro"
       id="path-effect10082-1"
       is_visible="true" />
    <radialGradient
       inkscape:collect="always"
       xlink:href="#linearGradient4801-8"
       id="radialGradient4061"
       gradientUnits="userSpaceOnUse"
       gradientTransform="matrix(-0.76516322,1.2901254,-2.4104477,-1.2865998,1806.8444,1757.4704)"
       cx="-307.14288"
       cy="782.36218"
       fx="-307.14288"
       fy="782.36218"
       r="63" />
    <inkscape:path-effect
       effect="spiro"
       id="path-effect10080-4"
       is_visible="true" />
  </defs>
  <g
     inkscape:groupmode="layer"
     id="layer2"
     inkscape:label="Elements"
     style="display:inline">
    <path
       inkscape:connector-curvature="0"
       style="fill:#ffffff"
       d="m 2,2 0,257 c 0,286 298,398 298,398 0,0 298,-112 298,-398 L 598,2 2,2 z"
       id="rect18" />
    <path
       inkscape:connector-curvature="0"
       style="fill:#000000"
       d="m 59.71875,10.000003 a 4,4 0 0 0 -3.71875,4 4,4 0 0 0 4,4 4,4 0 0 0 4,-4 4,4 0 0 0 -4,-4 4,4 0 0 0 -0.28125,0 z m 60,0 a 4,4 0 0 0 -3.71875,4 4,4 0 0 0 4,4 4,4 0 0 0 4,-4 4,4 0 0 0 -4,-4 4,4 0 0 0 -0.28125,0 z m 60,0 a 4,4 0 0 0 -3.71875,4 4,4 0 0 0 4,4 4,4 0 0 0 4,-4 4,4 0 0 0 -4,-4 4,4 0 0 0 -0.28125,0 z m 60,0 a 4,4 0 0 0 -3.71875,4 4,4 0 0 0 4,4 4,4 0 0 0 4,-4 4,4 0 0 0 -4,-4 4,4 0 0 0 -0.28125,0 z m 60,0 a 4,4 0 0 0 -3.71875,4 4,4 0 0 0 4,4 4,4 0 0 0 4,-4 4,4 0 0 0 -4,-4 4,4 0 0 0 -0.28125,0 z m 60,0 a 4,4 0 0 0 -3.71875,4 4,4 0 0 0 4,4 4,4 0 0 0 4,-4 4,4 0 0 0 -4,-4 4,4 0 0 0 -0.28125,0 z m 60,0 a 4,4 0 0 0 -3.71875,4 4,4 0 0 0 4,4 4,4 0 0 0 4,-4 4,4 0 0 0 -4,-4 4,4 0 0 0 -0.28125,0 z m 60,0 a 4,4 0 0 0 -3.71875,4 4,4 0 0 0 4,4 4,4 0 0 0 4,-4 4,4 0 0 0 -4,-4 4,4 0 0 0 -0.28125,0 z m 60,0 a 4,4 0 0 0 -3.71875,4 4,4 0 0 0 4,4 4,4 0 0 0 4,-4 4,4 0 0 0 -4,-4 4,4 0 0 0 -0.28125,0 z M 2,10.531253 l 0,6.90625 a 4,4 0 0 0 2,-3.4375 4,4 0 0 0 -2,-3.46875 z m 596,0 a 4,4 0 0 0 -2,3.46875 4,4 0 0 0 2,3.46875 l 0,-6.9375 z M 5.71875,17.000003 a 4,4 0 0 0 -3.71875,4 4,4 0 0 0 4,4 4,4 0 0 0 4,-4 4,4 0 0 0 -4,-4 4,4 0 0 0 -0.28125,0 z m 48,0 a 4,4 0 0 0 -3.71875,4 4,4 0 0 0 4,4 4,4 0 0 0 4,-4 4,4 0 0 0 -4,-4 4,4 0 0 0 -0.28125,0 z m 12,0 a 4,4 0 0 0 -3.71875,4 4,4 0 0 0 4,4 4,4 0 0 0 4,-4 4,4 0 0 0 -4,-4 4,4 0 0 0 -0.28125,0 z m 48,0 a 4,4 0 0 0 -3.71875,4 4,4 0 0 0 4,4 4,4 0 0 0 4,-4 4,4 0 0 0 -4,-4 4,4 0 0 0 -0.28125,0 z m 12,0 a 4,4 0 0 0 -3.71875,4 4,4 0 0 0 4,4 4,4 0 0 0 4,-4 4,4 0 0 0 -4,-4 4,4 0 0 0 -0.28125,0 z m 48,0 a 4,4 0 0 0 -3.71875,4 4,4 0 0 0 4,4 4,4 0 0 0 4,-4 4,4 0 0 0 -4,-4 4,4 0 0 0 -0.28125,0 z m 12,0 a 4,4 0 0 0 -3.71875,4 4,4 0 0 0 4,4 4,4 0 0 0 4,-4 4,4 0 0 0 -4,-4 4,4 0 0 0 -0.28125,0 z m 48,0 a 4,4 0 0 0 -3.71875,4 4,4 0 0 0 4,4 4,4 0 0 0 4,-4 4,4 0 0 0 -4,-4 4,4 0 0 0 -0.28125,0 z m 12,0 a 4,4 0 0 0 -3.71875,4 4,4 0 0 0 4,4 4,4 0 0 0 4,-4 4,4 0 0 0 -4,-4 4,4 0 0 0 -0.28125,0 z m 48,0 a 4,4 0 0 0 -3.71875,4 4,4 0 0 0 4,4 4,4 0 0 0 4,-4 4,4 0 0 0 -4,-4 4,4 0 0 0 -0.28125,0 z m 12,0 a 4,4 0 0 0 -3.71875,4 4,4 0 0 0 4,4 4,4 0 0 0 4,-4 4,4 0 0 0 -4,-4 4,4 0 0 0 -0.28125,0 z m 48,0 a 4,4 0 0 0 -3.71875,4 4,4 0 0 0 4,4 4,4 0 0 0 4,-4 4,4 0 0 0 -4,-4 4,4 0 0 0 -0.28125,0 z m 12,0 a 4,4 0 0 0 -3.71875,4 4,4 0 0 0 4,4 4,4 0 0 0 4,-4 4,4 0 0 0 -4,-4 4,4 0 0 0 -0.28125,0 z m 48,0 a 4,4 0 0 0 -3.71875,4 4,4 0 0 0 4,4 4,4 0 0 0 4,-4 4,4 0 0 0 -4,-4 4,4 0 0 0 -0.28125,0 z m 12,0 a 4,4 0 0 0 -3.71875,4 4,4 0 0 0 4,4 4,4 0 0 0 4,-4 4,4 0 0 0 -4,-4 4,4 0 0 0 -0.28125,0 z m 48,0 a 4,4 0 0 0 -3.71875,4 4,4 0 0 0 4,4 4,4 0 0 0 4,-4 4,4 0 0 0 -4,-4 4,4 0 0 0 -0.28125,0 z m 12,0 a 4,4 0 0 0 -3.71875,4 4,4 0 0 0 4,4 4,4 0 0 0 4,-4 4,4 0 0 0 -4,-4 4,4 0 0 0 -0.28125,0 z m 48,0 a 4,4 0 0 0 -3.71875,4 4,4 0 0 0 4,4 4,4 0 0 0 4,-4 4,4 0 0 0 -4,-4 4,4 0 0 0 -0.28125,0 z m 12,0 a 4,4 0 0 0 -3.71875,4 4,4 0 0 0 4,4 4,4 0 0 0 4,-4 4,4 0 0 0 -4,-4 4,4 0 0 0 -0.28125,0 z m 48,0 a 4,4 0 0 0 -3.71875,4 4,4 0 0 0 4,4 4,4 0 0 0 4,-3.71875 4,4 0 0 0 0,-0.28125 4,4 0 0 0 -4,-4 4,4 0 0 0 -0.28125,0 z m -534.53125,4 c 0,10 -4.987501,21 -9.1875,25 3,0 5,0 7,-1 0.6,2 1.2,4 3,5 1.8,-1 2.4,-3 3,-5 1.999999,1 4,1 7,1 -4.2,-4 -9.1875,-15 -9.1875,-25 l -1.625,0 z m 60,0 c 0,10 -4.9875,21 -9.1875,25 3,0 5,0 7,-1 0.6,2 1.2,4 3,5 1.8,-1 2.4,-3 3,-5 2,1 4,1 7,1 -4.2,-4 -9.1875,-15 -9.1875,-25 l -1.625,0 z m 60,0 c 0,10 -4.9875,21 -9.1875,25 3,0 5,0 7,-1 0.6,2 1.2,4 3,5 1.8,-1 2.4,-3 3,-5 2,1 4,1 7,1 -4.2,-4 -9.1875,-15 -9.1875,-25 l -1.625,0 z m 60,0 c 0,10 -4.9875,21 -9.1875,25 3,0 5,0 7,-1 0.6,2 1.2,4 3,5 1.8,-1 2.4,-3 3,-5 2,1 4,1 7,1 -4.2,-4 -9.1875,-15 -9.1875,-25 l -1.625,0 z m 60,0 c 0,10 -4.9875,21 -9.1875,25 3,0 5,0 7,-1 0.6,2 1.2,4 3,5 1.8,-1 2.4,-3 3,-5 2,1 4,1 7,1 -4.2,-4 -9.1875,-15 -9.1875,-25 l -1.625,0 z m 60,0 c 0,10 -4.9875,21 -9.1875,25 3,0 5,0 7,-1 0.6,2 1.2,4 3,5 1.8,-1 2.4,-3 3,-5 2,1 4,1 7,1 -4.2,-4 -9.1875,-15 -9.1875,-25 l -1.625,0 z m 60,0 c 0,10 -4.9875,21 -9.1875,25 3,0 5,0 7,-1 0.6,2 1.2,4 3,5 1.8,-1 2.4,-3 3,-5 2,1 4,1 7,1 -4.2,-4 -9.1875,-15 -9.1875,-25 l -1.625,0 z m 60,0 c 0,10 -4.9875,21 -9.1875,25 3,0 5,0 7,-1 0.6,2 1.2,4 3,5 1.8,-1 2.4,-3 3,-5 2,1 4,1 7,1 -4.2,-4 -9.1875,-15 -9.1875,-25 l -1.625,0 z m 60,0 c 0,10 -4.9875,21 -9.1875,25 3,0 5,0 7,-1 0.6,2 1.2,4 3,5 1.8,-1 2.4,-3 3,-5 2,1 4,1 7,1 -4.2,-4 -9.1875,-15 -9.1875,-25 l -1.625,0 z M 2,30.031253 2,47.750003 c 0.4162725,-0.845315 0.7138702,-1.796233 1,-2.75 2,1 4,1 7,1 C 7.0556573,43.195867 3.7287586,36.959492 2,30.031253 z m 596,0 c -1.72876,6.928239 -5.05566,13.164614 -8,15.96875 3,0 5,0 7,-1 0.28613,0.953767 0.58373,1.904685 1,2.75 l 0,-17.71875 z M 29.71875,70.000003 a 4,4 0 0 0 -3.71875,4 4,4 0 0 0 4,4 4,4 0 0 0 4,-4 4,4 0 0 0 -4,-4 4,4 0 0 0 -0.28125,0 z m 60,0 a 4,4 0 0 0 -3.71875,4 4,4 0 0 0 4,4 4,4 0 0 0 4,-4 4,4 0 0 0 -4,-4 4,4 0 0 0 -0.28125,0 z m 60,0 a 4,4 0 0 0 -3.71875,4 4,4 0 0 0 4,4 4,4 0 0 0 4,-4 4,4 0 0 0 -4,-4 4,4 0 0 0 -0.28125,0 z m 60,0 a 4,4 0 0 0 -3.71875,4 4,4 0 0 0 4,4 4,4 0 0 0 4,-4 4,4 0 0 0 -4,-4 4,4 0 0 0 -0.28125,0 z m 60,0 a 4,4 0 0 0 -3.71875,4 4,4 0 0 0 4,4 4,4 0 0 0 4,-4 4,4 0 0 0 -4,-4 4,4 0 0 0 -0.28125,0 z m 60,0 a 4,4 0 0 0 -3.71875,4 4,4 0 0 0 4,4 4,4 0 0 0 4,-4 4,4 0 0 0 -4,-4 4,4 0 0 0 -0.28125,0 z m 60,0 a 4,4 0 0 0 -3.71875,4 4,4 0 0 0 4,4 4,4 0 0 0 4,-4 4,4 0 0 0 -4,-4 4,4 0 0 0 -0.28125,0 z m 60,0 a 4,4 0 0 0 -3.71875,4 4,4 0 0 0 4,4 4,4 0 0 0 4,-4 4,4 0 0 0 -4,-4 4,4 0 0 0 -0.28125,0 z m 60,0 a 4,4 0 0 0 -3.71875,4 4,4 0 0 0 4,4 4,4 0 0 0 4,-4 4,4 0 0 0 -4,-4 4,4 0 0 0 -0.28125,0 z m 60,0 a 4,4 0 0 0 -3.71875,4 4,4 0 0 0 4,4 4,4 0 0 0 4,-4 4,4 0 0 0 -4,-4 4,4 0 0 0 -0.28125,0 z m -546,7 a 4,4 0 0 0 -3.71875,4 4,4 0 0 0 4,4 4,4 0 0 0 4,-4 4,4 0 0 0 -4,-4 4,4 0 0 0 -0.28125,0 z m 12,0 a 4,4 0 0 0 -3.71875,4 4,4 0 0 0 4,4 4,4 0 0 0 4,-4 4,4 0 0 0 -4,-4 4,4 0 0 0 -0.28125,0 z m 48,0 a 4,4 0 0 0 -3.71875,4 4,4 0 0 0 4,4 4,4 0 0 0 4,-4 4,4 0 0 0 -4,-4 4,4 0 0 0 -0.28125,0 z m 12,0 a 4,4 0 0 0 -3.71875,4 4,4 0 0 0 4,4 4,4 0 0 0 4,-4 4,4 0 0 0 -4,-4 4,4 0 0 0 -0.28125,0 z m 48,0 a 4,4 0 0 0 -3.71875,4 4,4 0 0 0 4,4 4,4 0 0 0 4,-4 4,4 0 0 0 -4,-4 4,4 0 0 0 -0.28125,0 z m 12,0 a 4,4 0 0 0 -3.71875,4 4,4 0 0 0 4,4 4,4 0 0 0 4,-4 4,4 0 0 0 -4,-4 4,4 0 0 0 -0.28125,0 z m 48,0 a 4,4 0 0 0 -3.71875,4 4,4 0 0 0 4,4 4,4 0 0 0 4,-4 4,4 0 0 0 -4,-4 4,4 0 0 0 -0.28125,0 z m 12,0 a 4,4 0 0 0 -3.71875,4 4,4 0 0 0 4,4 4,4 0 0 0 4,-4 4,4 0 0 0 -4,-4 4,4 0 0 0 -0.28125,0 z m 48,0 a 4,4 0 0 0 -3.71875,4 4,4 0 0 0 4,4 4,4 0 0 0 4,-4 4,4 0 0 0 -4,-4 4,4 0 0 0 -0.28125,0 z m 12,0 a 4,4 0 0 0 -3.71875,4 4,4 0 0 0 4,4 4,4 0 0 0 4,-4 4,4 0 0 0 -4,-4 4,4 0 0 0 -0.28125,0 z m 48,0 a 4,4 0 0 0 -3.71875,4 4,4 0 0 0 4,4 4,4 0 0 0 4,-4 4,4 0 0 0 -4,-4 4,4 0 0 0 -0.28125,0 z m 12,0 a 4,4 0 0 0 -3.71875,4 4,4 0 0 0 4,4 4,4 0 0 0 4,-4 4,4 0 0 0 -4,-4 4,4 0 0 0 -0.28125,0 z m 48,0 a 4,4 0 0 0 -3.71875,4 4,4 0 0 0 4,4 4,4 0 0 0 4,-4 4,4 0 0 0 -4,-4 4,4 0 0 0 -0.28125,0 z m 12,0 a 4,4 0 0 0 -3.71875,4 4,4 0 0 0 4,4 4,4 0 0 0 4,-4 4,4 0 0 0 -4,-4 4,4 0 0 0 -0.28125,0 z m 48,0 a 4,4 0 0 0 -3.71875,4 4,4 0 0 0 4,4 4,4 0 0 0 4,-4 4,4 0 0 0 -4,-4 4,4 0 0 0 -0.28125,0 z m 12,0 a 4,4 0 0 0 -3.71875,4 4,4 0 0 0 4,4 4,4 0 0 0 4,-4 4,4 0 0 0 -4,-4 4,4 0 0 0 -0.28125,0 z m 48,0 a 4,4 0 0 0 -3.71875,4 4,4 0 0 0 4,4 4,4 0 0 0 4,-4 4,4 0 0 0 -4,-4 4,4 0 0 0 -0.28125,0 z m 12,0 a 4,4 0 0 0 -3.71875,4 4,4 0 0 0 4,4 4,4 0 0 0 4,-4 4,4 0 0 0 -4,-4 4,4 0 0 0 -0.28125,0 z m 48,0 a 4,4 0 0 0 -3.71875,4 4,4 0 0 0 4,4 4,4 0 0 0 4,-4 4,4 0 0 0 -4,-4 4,4 0 0 0 -0.28125,0 z m 12,0 a 4,4 0 0 0 -3.71875,4 4,4 0 0 0 4,4 4,4 0 0 0 4,-4 4,4 0 0 0 -4,-4 4,4 0 0 0 -0.28125,0 z m -546.53125,4 C 29.1875,91.000003 24.2,102 20,106 c 3,0 5,0 7,-1 0.600001,2 1.2,4 3,5 1.800001,-1 2.4,-3 3,-5 2,1 4,1 7,1 -4.2,-4 -9.1875,-14.999997 -9.1875,-24.999997 l -1.625,0 z m 60,0 C 89.1875,91.000003 84.2,102 80,106 c 3,0 5,0 7,-1 0.6,2 1.2,4 3,5 1.800001,-1 2.4,-3 3,-5 2,1 4,1 7,1 -4.2,-4 -9.1875,-14.999997 -9.1875,-24.999997 l -1.625,0 z m 60,0 C 149.1875,91.000003 144.2,102 140,106 c 3,0 5,0 7,-1 0.6,2 1.2,4 3,5 1.8,-1 2.4,-3 3,-5 2,1 4,1 7,1 -4.2,-4 -9.1875,-14.999997 -9.1875,-24.999997 l -1.625,0 z m 60,0 C 209.1875,91.000003 204.2,102 200,106 c 3,0 5,0 7,-1 0.6,2 1.2,4 3,5 1.8,-1 2.4,-3 3,-5 2,1 4,1 7,1 -4.2,-4 -9.1875,-14.999997 -9.1875,-24.999997 l -1.625,0 z m 60,0 C 269.1875,91.000003 264.2,102 260,106 c 3,0 5,0 7,-1 0.6,2 1.2,4 3,5 1.8,-1 2.4,-3 3,-5 2,1 4,1 7,1 -4.2,-4 -9.1875,-14.999997 -9.1875,-24.999997 l -1.625,0 z m 60,0 C 329.1875,91.000003 324.2,102 320,106 c 3,0 5,0 7,-1 0.6,2 1.2,4 3,5 1.8,-1 2.4,-3 3,-5 2,1 4,1 7,1 -4.2,-4 -9.1875,-14.999997 -9.1875,-24.999997 l -1.625,0 z m 60,0 C 389.1875,91.000003 384.2,102 380,106 c 3,0 5,0 7,-1 0.6,2 1.2,4 3,5 1.8,-1 2.4,-3 3,-5 2,1 4,1 7,1 -4.2,-4 -9.1875,-14.999997 -9.1875,-24.999997 l -1.625,0 z m 60,0 C 449.1875,91.000003 444.2,102 440,106 c 3,0 5,0 7,-1 0.6,2 1.2,4 3,5 1.8,-1 2.4,-3 3,-5 2,1 4,1 7,1 -4.2,-4 -9.1875,-14.999997 -9.1875,-24.999997 l -1.625,0 z m 60,0 C 509.1875,91.000003 504.2,102 500,106 c 3,0 5,0 7,-1 0.6,2 1.2,4 3,5 1.8,-1 2.4,-3 3,-5 2,1 4,1 7,1 -4.2,-4 -9.1875,-14.999997 -9.1875,-24.999997 l -1.625,0 z m 60,0 C 569.1875,91.000003 564.2,102 560,106 c 3,0 5,0 7,-1 0.6,2 1.2,4 3,5 1.8,-1 2.4,-3 3,-5 2,1 4,1 7,1 -4.2,-4 -9.1875,-14.999997 -9.1875,-24.999997 l -1.625,0 z M 59.71875,130 A 4,4 0 0 0 56,134 a 4,4 0 0 0 4,4 4,4 0 0 0 4,-4 4,4 0 0 0 -4,-4 4,4 0 0 0 -0.28125,0 z m 60,0 A 4,4 0 0 0 116,134 a 4,4 0 0 0 4,4 4,4 0 0 0 4,-4 4,4 0 0 0 -4,-4 4,4 0 0 0 -0.28125,0 z m 60,0 A 4,4 0 0 0 176,134 a 4,4 0 0 0 4,4 4,4 0 0 0 4,-4 4,4 0 0 0 -4,-4 4,4 0 0 0 -0.28125,0 z m 60,0 A 4,4 0 0 0 236,134 a 4,4 0 0 0 4,4 4,4 0 0 0 4,-4 4,4 0 0 0 -4,-4 4,4 0 0 0 -0.28125,0 z m 60,0 A 4,4 0 0 0 296,134 a 4,4 0 0 0 4,4 4,4 0 0 0 4,-4 4,4 0 0 0 -4,-4 4,4 0 0 0 -0.28125,0 z m 60,0 A 4,4 0 0 0 356,134 a 4,4 0 0 0 4,4 4,4 0 0 0 4,-4 4,4 0 0 0 -4,-4 4,4 0 0 0 -0.28125,0 z m 60,0 A 4,4 0 0 0 416,134 a 4,4 0 0 0 4,4 4,4 0 0 0 4,-4 4,4 0 0 0 -4,-4 4,4 0 0 0 -0.28125,0 z m 60,0 A 4,4 0 0 0 476,134 a 4,4 0 0 0 4,4 4,4 0 0 0 4,-4 4,4 0 0 0 -4,-4 4,4 0 0 0 -0.28125,0 z m 60,0 A 4,4 0 0 0 536,134 a 4,4 0 0 0 4,4 4,4 0 0 0 4,-4 4,4 0 0 0 -4,-4 4,4 0 0 0 -0.28125,0 z M 2,130.53125 2,137.4375 A 4,4 0 0 0 4,134 4,4 0 0 0 2,130.53125 z m 596,0 A 4,4 0 0 0 596,134 a 4,4 0 0 0 2,3.46875 l 0,-6.9375 z M 5.71875,137 A 4,4 0 0 0 2,141 a 4,4 0 0 0 4,4 4,4 0 0 0 4,-4 4,4 0 0 0 -4,-4 4,4 0 0 0 -0.28125,0 z m 48,0 A 4,4 0 0 0 50,141 a 4,4 0 0 0 4,4 4,4 0 0 0 4,-4 4,4 0 0 0 -4,-4 4,4 0 0 0 -0.28125,0 z m 12,0 A 4,4 0 0 0 62,141 a 4,4 0 0 0 4,4 4,4 0 0 0 4,-4 4,4 0 0 0 -4,-4 4,4 0 0 0 -0.28125,0 z m 48,0 A 4,4 0 0 0 110,141 a 4,4 0 0 0 4,4 4,4 0 0 0 4,-4 4,4 0 0 0 -4,-4 4,4 0 0 0 -0.28125,0 z m 12,0 A 4,4 0 0 0 122,141 a 4,4 0 0 0 4,4 4,4 0 0 0 4,-4 4,4 0 0 0 -4,-4 4,4 0 0 0 -0.28125,0 z m 48,0 A 4,4 0 0 0 170,141 a 4,4 0 0 0 4,4 4,4 0 0 0 4,-4 4,4 0 0 0 -4,-4 4,4 0 0 0 -0.28125,0 z m 12,0 A 4,4 0 0 0 182,141 a 4,4 0 0 0 4,4 4,4 0 0 0 4,-4 4,4 0 0 0 -4,-4 4,4 0 0 0 -0.28125,0 z m 48,0 A 4,4 0 0 0 230,141 a 4,4 0 0 0 4,4 4,4 0 0 0 4,-4 4,4 0 0 0 -4,-4 4,4 0 0 0 -0.28125,0 z m 12,0 A 4,4 0 0 0 242,141 a 4,4 0 0 0 4,4 4,4 0 0 0 4,-4 4,4 0 0 0 -4,-4 4,4 0 0 0 -0.28125,0 z m 48,0 A 4,4 0 0 0 290,141 a 4,4 0 0 0 4,4 4,4 0 0 0 4,-4 4,4 0 0 0 -4,-4 4,4 0 0 0 -0.28125,0 z m 12,0 A 4,4 0 0 0 302,141 a 4,4 0 0 0 4,4 4,4 0 0 0 4,-4 4,4 0 0 0 -4,-4 4,4 0 0 0 -0.28125,0 z m 48,0 A 4,4 0 0 0 350,141 a 4,4 0 0 0 4,4 4,4 0 0 0 4,-4 4,4 0 0 0 -4,-4 4,4 0 0 0 -0.28125,0 z m 12,0 A 4,4 0 0 0 362,141 a 4,4 0 0 0 4,4 4,4 0 0 0 4,-4 4,4 0 0 0 -4,-4 4,4 0 0 0 -0.28125,0 z m 48,0 A 4,4 0 0 0 410,141 a 4,4 0 0 0 4,4 4,4 0 0 0 4,-4 4,4 0 0 0 -4,-4 4,4 0 0 0 -0.28125,0 z m 12,0 A 4,4 0 0 0 422,141 a 4,4 0 0 0 4,4 4,4 0 0 0 4,-4 4,4 0 0 0 -4,-4 4,4 0 0 0 -0.28125,0 z m 48,0 A 4,4 0 0 0 470,141 a 4,4 0 0 0 4,4 4,4 0 0 0 4,-4 4,4 0 0 0 -4,-4 4,4 0 0 0 -0.28125,0 z m 12,0 A 4,4 0 0 0 482,141 a 4,4 0 0 0 4,4 4,4 0 0 0 4,-4 4,4 0 0 0 -4,-4 4,4 0 0 0 -0.28125,0 z m 48,0 A 4,4 0 0 0 530,141 a 4,4 0 0 0 4,4 4,4 0 0 0 4,-4 4,4 0 0 0 -4,-4 4,4 0 0 0 -0.28125,0 z m 12,0 A 4,4 0 0 0 542,141 a 4,4 0 0 0 4,4 4,4 0 0 0 4,-4 4,4 0 0 0 -4,-4 4,4 0 0 0 -0.28125,0 z m 48,0 A 4,4 0 0 0 590,141 a 4,4 0 0 0 4,4 4,4 0 0 0 4,-3.71875 4,4 0 0 0 0,-0.28125 4,4 0 0 0 -4,-4 4,4 0 0 0 -0.28125,0 z M 59.1875,141 c 0,10 -4.987501,21 -9.1875,25 3,0 5,0 7,-1 0.6,2 1.2,4 3,5 1.8,-1 2.4,-3 3,-5 1.999999,1 4,1 7,1 -4.2,-4 -9.1875,-15 -9.1875,-25 l -1.625,0 z m 60,0 c 0,10 -4.9875,21 -9.1875,25 3,0 5,0 7,-1 0.6,2 1.2,4 3,5 1.8,-1 2.4,-3 3,-5 2,1 4,1 7,1 -4.2,-4 -9.1875,-15 -9.1875,-25 l -1.625,0 z m 60,0 c 0,10 -4.9875,21 -9.1875,25 3,0 5,0 7,-1 0.6,2 1.2,4 3,5 1.8,-1 2.4,-3 3,-5 2,1 4,1 7,1 -4.2,-4 -9.1875,-15 -9.1875,-25 l -1.625,0 z m 60,0 c 0,10 -4.9875,21 -9.1875,25 3,0 5,0 7,-1 0.6,2 1.2,4 3,5 1.8,-1 2.4,-3 3,-5 2,1 4,1 7,1 -4.2,-4 -9.1875,-15 -9.1875,-25 l -1.625,0 z m 60,0 c 0,10 -4.9875,21 -9.1875,25 3,0 5,0 7,-1 0.6,2 1.2,4 3,5 1.8,-1 2.4,-3 3,-5 2,1 4,1 7,1 -4.2,-4 -9.1875,-15 -9.1875,-25 l -1.625,0 z m 60,0 c 0,10 -4.9875,21 -9.1875,25 3,0 5,0 7,-1 0.6,2 1.2,4 3,5 1.8,-1 2.4,-3 3,-5 2,1 4,1 7,1 -4.2,-4 -9.1875,-15 -9.1875,-25 l -1.625,0 z m 60,0 c 0,10 -4.9875,21 -9.1875,25 3,0 5,0 7,-1 0.6,2 1.2,4 3,5 1.8,-1 2.4,-3 3,-5 2,1 4,1 7,1 -4.2,-4 -9.1875,-15 -9.1875,-25 l -1.625,0 z m 60,0 c 0,10 -4.9875,21 -9.1875,25 3,0 5,0 7,-1 0.6,2 1.2,4 3,5 1.8,-1 2.4,-3 3,-5 2,1 4,1 7,1 -4.2,-4 -9.1875,-15 -9.1875,-25 l -1.625,0 z m 60,0 c 0,10 -4.9875,21 -9.1875,25 3,0 5,0 7,-1 0.6,2 1.2,4 3,5 1.8,-1 2.4,-3 3,-5 2,1 4,1 7,1 -4.2,-4 -9.1875,-15 -9.1875,-25 l -1.625,0 z M 2,150.03125 2,167.75 c 0.4162725,-0.84532 0.7138702,-1.79623 1,-2.75 2,1 4,1 7,1 -2.9443427,-2.80414 -6.2712414,-9.04051 -8,-15.96875 z m 596,0 c -1.72876,6.92824 -5.05566,13.16461 -8,15.96875 3,0 5,0 7,-1 0.28613,0.95377 0.58373,1.90468 1,2.75 l 0,-17.71875 z M 29.71875,190 A 4,4 0 0 0 26,194 a 4,4 0 0 0 4,4 4,4 0 0 0 4,-4 4,4 0 0 0 -4,-4 4,4 0 0 0 -0.28125,0 z m 60,0 A 4,4 0 0 0 86,194 a 4,4 0 0 0 4,4 4,4 0 0 0 4,-4 4,4 0 0 0 -4,-4 4,4 0 0 0 -0.28125,0 z m 60,0 A 4,4 0 0 0 146,194 a 4,4 0 0 0 4,4 4,4 0 0 0 4,-4 4,4 0 0 0 -4,-4 4,4 0 0 0 -0.28125,0 z m 60,0 A 4,4 0 0 0 206,194 a 4,4 0 0 0 4,4 4,4 0 0 0 4,-4 4,4 0 0 0 -4,-4 4,4 0 0 0 -0.28125,0 z m 60,0 A 4,4 0 0 0 266,194 a 4,4 0 0 0 4,4 4,4 0 0 0 4,-4 4,4 0 0 0 -4,-4 4,4 0 0 0 -0.28125,0 z m 60,0 A 4,4 0 0 0 326,194 a 4,4 0 0 0 4,4 4,4 0 0 0 4,-4 4,4 0 0 0 -4,-4 4,4 0 0 0 -0.28125,0 z m 60,0 A 4,4 0 0 0 386,194 a 4,4 0 0 0 4,4 4,4 0 0 0 4,-4 4,4 0 0 0 -4,-4 4,4 0 0 0 -0.28125,0 z m 60,0 A 4,4 0 0 0 446,194 a 4,4 0 0 0 4,4 4,4 0 0 0 4,-4 4,4 0 0 0 -4,-4 4,4 0 0 0 -0.28125,0 z m 60,0 A 4,4 0 0 0 506,194 a 4,4 0 0 0 4,4 4,4 0 0 0 4,-4 4,4 0 0 0 -4,-4 4,4 0 0 0 -0.28125,0 z m 60,0 A 4,4 0 0 0 566,194 a 4,4 0 0 0 4,4 4,4 0 0 0 4,-4 4,4 0 0 0 -4,-4 4,4 0 0 0 -0.28125,0 z m -546,7 A 4,4 0 0 0 20,201 a 4,4 0 0 0 4,4 4,4 0 0 0 4,-4 4,4 0 0 0 -4,-4 4,4 0 0 0 -0.28125,0 z m 12,0 A 4,4 0 0 0 32,201 a 4,4 0 0 0 4,4 4,4 0 0 0 4,-4 4,4 0 0 0 -4,-4 4,4 0 0 0 -0.28125,0 z m 48,0 A 4,4 0 0 0 80,201 a 4,4 0 0 0 4,4 4,4 0 0 0 4,-4 4,4 0 0 0 -4,-4 4,4 0 0 0 -0.28125,0 z m 12,0 A 4,4 0 0 0 92,201 a 4,4 0 0 0 4,4 4,4 0 0 0 4,-4 4,4 0 0 0 -4,-4 4,4 0 0 0 -0.28125,0 z m 48,0 A 4,4 0 0 0 140,201 a 4,4 0 0 0 4,4 4,4 0 0 0 4,-4 4,4 0 0 0 -4,-4 4,4 0 0 0 -0.28125,0 z m 12,0 A 4,4 0 0 0 152,201 a 4,4 0 0 0 4,4 4,4 0 0 0 4,-4 4,4 0 0 0 -4,-4 4,4 0 0 0 -0.28125,0 z m 48,0 A 4,4 0 0 0 200,201 a 4,4 0 0 0 4,4 4,4 0 0 0 4,-4 4,4 0 0 0 -4,-4 4,4 0 0 0 -0.28125,0 z m 12,0 A 4,4 0 0 0 212,201 a 4,4 0 0 0 4,4 4,4 0 0 0 4,-4 4,4 0 0 0 -4,-4 4,4 0 0 0 -0.28125,0 z m 48,0 A 4,4 0 0 0 260,201 a 4,4 0 0 0 4,4 4,4 0 0 0 4,-4 4,4 0 0 0 -4,-4 4,4 0 0 0 -0.28125,0 z m 12,0 A 4,4 0 0 0 272,201 a 4,4 0 0 0 4,4 4,4 0 0 0 4,-4 4,4 0 0 0 -4,-4 4,4 0 0 0 -0.28125,0 z m 48,0 A 4,4 0 0 0 320,201 a 4,4 0 0 0 4,4 4,4 0 0 0 4,-4 4,4 0 0 0 -4,-4 4,4 0 0 0 -0.28125,0 z m 12,0 A 4,4 0 0 0 332,201 a 4,4 0 0 0 4,4 4,4 0 0 0 4,-4 4,4 0 0 0 -4,-4 4,4 0 0 0 -0.28125,0 z m 48,0 A 4,4 0 0 0 380,201 a 4,4 0 0 0 4,4 4,4 0 0 0 4,-4 4,4 0 0 0 -4,-4 4,4 0 0 0 -0.28125,0 z m 12,0 A 4,4 0 0 0 392,201 a 4,4 0 0 0 4,4 4,4 0 0 0 4,-4 4,4 0 0 0 -4,-4 4,4 0 0 0 -0.28125,0 z m 48,0 A 4,4 0 0 0 440,201 a 4,4 0 0 0 4,4 4,4 0 0 0 4,-4 4,4 0 0 0 -4,-4 4,4 0 0 0 -0.28125,0 z m 12,0 A 4,4 0 0 0 452,201 a 4,4 0 0 0 4,4 4,4 0 0 0 4,-4 4,4 0 0 0 -4,-4 4,4 0 0 0 -0.28125,0 z m 48,0 A 4,4 0 0 0 500,201 a 4,4 0 0 0 4,4 4,4 0 0 0 4,-4 4,4 0 0 0 -4,-4 4,4 0 0 0 -0.28125,0 z m 12,0 A 4,4 0 0 0 512,201 a 4,4 0 0 0 4,4 4,4 0 0 0 4,-4 4,4 0 0 0 -4,-4 4,4 0 0 0 -0.28125,0 z m 48,0 A 4,4 0 0 0 560,201 a 4,4 0 0 0 4,4 4,4 0 0 0 4,-4 4,4 0 0 0 -4,-4 4,4 0 0 0 -0.28125,0 z m 12,0 A 4,4 0 0 0 572,201 a 4,4 0 0 0 4,4 4,4 0 0 0 4,-4 4,4 0 0 0 -4,-4 4,4 0 0 0 -0.28125,0 z M 29.1875,201 c 0,10 -4.9875,21 -9.1875,25 3,0 5,0 7,-1 0.600001,2 1.2,4 3,5 1.800001,-1 2.4,-3 3,-5 2,1 4,1 7,1 -4.2,-4 -9.1875,-15 -9.1875,-25 l -1.625,0 z m 60,0 c 0,10 -4.9875,21 -9.1875,25 3,0 5,0 7,-1 0.6,2 1.2,4 3,5 1.800001,-1 2.4,-3 3,-5 2,1 4,1 7,1 -4.2,-4 -9.1875,-15 -9.1875,-25 l -1.625,0 z m 60,0 c 0,10 -4.9875,21 -9.1875,25 3,0 5,0 7,-1 0.6,2 1.2,4 3,5 1.8,-1 2.4,-3 3,-5 2,1 4,1 7,1 -4.2,-4 -9.1875,-15 -9.1875,-25 l -1.625,0 z m 60,0 c 0,10 -4.9875,21 -9.1875,25 3,0 5,0 7,-1 0.6,2 1.2,4 3,5 1.8,-1 2.4,-3 3,-5 2,1 4,1 7,1 -4.2,-4 -9.1875,-15 -9.1875,-25 l -1.625,0 z m 60,0 c 0,10 -4.9875,21 -9.1875,25 3,0 5,0 7,-1 0.6,2 1.2,4 3,5 1.8,-1 2.4,-3 3,-5 2,1 4,1 7,1 -4.2,-4 -9.1875,-15 -9.1875,-25 l -1.625,0 z m 60,0 c 0,10 -4.9875,21 -9.1875,25 3,0 5,0 7,-1 0.6,2 1.2,4 3,5 1.8,-1 2.4,-3 3,-5 2,1 4,1 7,1 -4.2,-4 -9.1875,-15 -9.1875,-25 l -1.625,0 z m 60,0 c 0,10 -4.9875,21 -9.1875,25 3,0 5,0 7,-1 0.6,2 1.2,4 3,5 1.8,-1 2.4,-3 3,-5 2,1 4,1 7,1 -4.2,-4 -9.1875,-15 -9.1875,-25 l -1.625,0 z m 60,0 c 0,10 -4.9875,21 -9.1875,25 3,0 5,0 7,-1 0.6,2 1.2,4 3,5 1.8,-1 2.4,-3 3,-5 2,1 4,1 7,1 -4.2,-4 -9.1875,-15 -9.1875,-25 l -1.625,0 z m 60,0 c 0,10 -4.9875,21 -9.1875,25 3,0 5,0 7,-1 0.6,2 1.2,4 3,5 1.8,-1 2.4,-3 3,-5 2,1 4,1 7,1 -4.2,-4 -9.1875,-15 -9.1875,-25 l -1.625,0 z m 60,0 c 0,10 -4.9875,21 -9.1875,25 3,0 5,0 7,-1 0.6,2 1.2,4 3,5 1.8,-1 2.4,-3 3,-5 2,1 4,1 7,1 -4.2,-4 -9.1875,-15 -9.1875,-25 l -1.625,0 z M 59.71875,250 A 4,4 0 0 0 56,254 a 4,4 0 0 0 4,4 4,4 0 0 0 4,-4 4,4 0 0 0 -4,-4 4,4 0 0 0 -0.28125,0 z m 60,0 A 4,4 0 0 0 116,254 a 4,4 0 0 0 4,4 4,4 0 0 0 4,-4 4,4 0 0 0 -4,-4 4,4 0 0 0 -0.28125,0 z m 60,0 A 4,4 0 0 0 176,254 a 4,4 0 0 0 4,4 4,4 0 0 0 4,-4 4,4 0 0 0 -4,-4 4,4 0 0 0 -0.28125,0 z m 60,0 A 4,4 0 0 0 236,254 a 4,4 0 0 0 4,4 4,4 0 0 0 4,-4 4,4 0 0 0 -4,-4 4,4 0 0 0 -0.28125,0 z m 60,0 A 4,4 0 0 0 296,254 a 4,4 0 0 0 4,4 4,4 0 0 0 4,-4 4,4 0 0 0 -4,-4 4,4 0 0 0 -0.28125,0 z m 60,0 A 4,4 0 0 0 356,254 a 4,4 0 0 0 4,4 4,4 0 0 0 4,-4 4,4 0 0 0 -4,-4 4,4 0 0 0 -0.28125,0 z m 60,0 A 4,4 0 0 0 416,254 a 4,4 0 0 0 4,4 4,4 0 0 0 4,-4 4,4 0 0 0 -4,-4 4,4 0 0 0 -0.28125,0 z m 60,0 A 4,4 0 0 0 476,254 a 4,4 0 0 0 4,4 4,4 0 0 0 4,-4 4,4 0 0 0 -4,-4 4,4 0 0 0 -0.28125,0 z m 60,0 A 4,4 0 0 0 536,254 a 4,4 0 0 0 4,4 4,4 0 0 0 4,-4 4,4 0 0 0 -4,-4 4,4 0 0 0 -0.28125,0 z M 2,250.53125 2,257.4375 A 4,4 0 0 0 4,254 4,4 0 0 0 2,250.53125 z m 596,0 A 4,4 0 0 0 596,254 a 4,4 0 0 0 2,3.46875 l 0,-6.9375 z M 5.71875,257 a 4,4 0 0 0 -3.6874997,3.78125 c 7.297e-4,0.1674 -9.34e-4,0.33272 0,0.5 a 4,4 0 0 0 0,0.125 A 4,4 0 0 0 6,265 a 4,4 0 0 0 4,-4 4,4 0 0 0 -4,-4 4,4 0 0 0 -0.28125,0 z m 48,0 A 4,4 0 0 0 50,261 a 4,4 0 0 0 4,4 4,4 0 0 0 4,-4 4,4 0 0 0 -4,-4 4,4 0 0 0 -0.28125,0 z m 12,0 A 4,4 0 0 0 62,261 a 4,4 0 0 0 4,4 4,4 0 0 0 4,-4 4,4 0 0 0 -4,-4 4,4 0 0 0 -0.28125,0 z m 48,0 A 4,4 0 0 0 110,261 a 4,4 0 0 0 4,4 4,4 0 0 0 4,-4 4,4 0 0 0 -4,-4 4,4 0 0 0 -0.28125,0 z m 12,0 A 4,4 0 0 0 122,261 a 4,4 0 0 0 4,4 4,4 0 0 0 4,-4 4,4 0 0 0 -4,-4 4,4 0 0 0 -0.28125,0 z m 48,0 A 4,4 0 0 0 170,261 a 4,4 0 0 0 4,4 4,4 0 0 0 4,-4 4,4 0 0 0 -4,-4 4,4 0 0 0 -0.28125,0 z m 12,0 A 4,4 0 0 0 182,261 a 4,4 0 0 0 4,4 4,4 0 0 0 4,-4 4,4 0 0 0 -4,-4 4,4 0 0 0 -0.28125,0 z m 48,0 A 4,4 0 0 0 230,261 a 4,4 0 0 0 4,4 4,4 0 0 0 4,-4 4,4 0 0 0 -4,-4 4,4 0 0 0 -0.28125,0 z m 12,0 A 4,4 0 0 0 242,261 a 4,4 0 0 0 4,4 4,4 0 0 0 4,-4 4,4 0 0 0 -4,-4 4,4 0 0 0 -0.28125,0 z m 48,0 A 4,4 0 0 0 290,261 a 4,4 0 0 0 4,4 4,4 0 0 0 4,-4 4,4 0 0 0 -4,-4 4,4 0 0 0 -0.28125,0 z m 12,0 A 4,4 0 0 0 302,261 a 4,4 0 0 0 4,4 4,4 0 0 0 4,-4 4,4 0 0 0 -4,-4 4,4 0 0 0 -0.28125,0 z m 48,0 A 4,4 0 0 0 350,261 a 4,4 0 0 0 4,4 4,4 0 0 0 4,-4 4,4 0 0 0 -4,-4 4,4 0 0 0 -0.28125,0 z m 12,0 A 4,4 0 0 0 362,261 a 4,4 0 0 0 4,4 4,4 0 0 0 4,-4 4,4 0 0 0 -4,-4 4,4 0 0 0 -0.28125,0 z m 48,0 A 4,4 0 0 0 410,261 a 4,4 0 0 0 4,4 4,4 0 0 0 4,-4 4,4 0 0 0 -4,-4 4,4 0 0 0 -0.28125,0 z m 12,0 A 4,4 0 0 0 422,261 a 4,4 0 0 0 4,4 4,4 0 0 0 4,-4 4,4 0 0 0 -4,-4 4,4 0 0 0 -0.28125,0 z m 48,0 A 4,4 0 0 0 470,261 a 4,4 0 0 0 4,4 4,4 0 0 0 4,-4 4,4 0 0 0 -4,-4 4,4 0 0 0 -0.28125,0 z m 12,0 A 4,4 0 0 0 482,261 a 4,4 0 0 0 4,4 4,4 0 0 0 4,-4 4,4 0 0 0 -4,-4 4,4 0 0 0 -0.28125,0 z m 48,0 A 4,4 0 0 0 530,261 a 4,4 0 0 0 4,4 4,4 0 0 0 4,-4 4,4 0 0 0 -4,-4 4,4 0 0 0 -0.28125,0 z m 12,0 A 4,4 0 0 0 542,261 a 4,4 0 0 0 4,4 4,4 0 0 0 4,-4 4,4 0 0 0 -4,-4 4,4 0 0 0 -0.28125,0 z m 48,0 A 4,4 0 0 0 590,261 a 4,4 0 0 0 4,4 4,4 0 0 0 3.96875,-3.5625 c 10e-4,-0.2195 -9.6e-4,-0.43654 0,-0.65625 A 4,4 0 0 0 594,257 a 4,4 0 0 0 -0.28125,0 z M 59.1875,261 c 0,10 -4.987501,21 -9.1875,25 3,0 5,0 7,-1 0.6,2 1.2,4 3,5 1.8,-1 2.4,-3 3,-5 1.999999,1 4,1 7,1 -4.2,-4 -9.1875,-15 -9.1875,-25 l -1.625,0 z m 60,0 c 0,10 -4.9875,21 -9.1875,25 3,0 5,0 7,-1 0.6,2 1.2,4 3,5 1.8,-1 2.4,-3 3,-5 2,1 4,1 7,1 -4.2,-4 -9.1875,-15 -9.1875,-25 l -1.625,0 z m 60,0 c 0,10 -4.9875,21 -9.1875,25 3,0 5,0 7,-1 0.6,2 1.2,4 3,5 1.8,-1 2.4,-3 3,-5 2,1 4,1 7,1 -4.2,-4 -9.1875,-15 -9.1875,-25 l -1.625,0 z m 60,0 c 0,10 -4.9875,21 -9.1875,25 3,0 5,0 7,-1 0.6,2 1.2,4 3,5 1.8,-1 2.4,-3 3,-5 2,1 4,1 7,1 -4.2,-4 -9.1875,-15 -9.1875,-25 l -1.625,0 z m 60,0 c 0,10 -4.9875,21 -9.1875,25 3,0 5,0 7,-1 0.6,2 1.2,4 3,5 1.8,-1 2.4,-3 3,-5 2,1 4,1 7,1 -4.2,-4 -9.1875,-15 -9.1875,-25 l -1.625,0 z m 60,0 c 0,10 -4.9875,21 -9.1875,25 3,0 5,0 7,-1 0.6,2 1.2,4 3,5 1.8,-1 2.4,-3 3,-5 2,1 4,1 7,1 -4.2,-4 -9.1875,-15 -9.1875,-25 l -1.625,0 z m 60,0 c 0,10 -4.9875,21 -9.1875,25 3,0 5,0 7,-1 0.6,2 1.2,4 3,5 1.8,-1 2.4,-3 3,-5 2,1 4,1 7,1 -4.2,-4 -9.1875,-15 -9.1875,-25 l -1.625,0 z m 60,0 c 0,10 -4.9875,21 -9.1875,25 3,0 5,0 7,-1 0.6,2 1.2,4 3,5 1.8,-1 2.4,-3 3,-5 2,1 4,1 7,1 -4.2,-4 -9.1875,-15 -9.1875,-25 l -1.625,0 z m 60,0 c 0,10 -4.9875,21 -9.1875,25 3,0 5,0 7,-1 0.6,2 1.2,4 3,5 1.8,-1 2.4,-3 3,-5 2,1 4,1 7,1 -4.2,-4 -9.1875,-15 -9.1875,-25 l -1.625,0 z M 2.1875003,270.75 c 0.1431191,4.95479 0.3364689,9.87113 0.6562499,14.71875 C 2.8914858,285.31206 2.9528472,285.15718 3,285 c 2,1 4,1 7,1 -2.8421571,-2.70682 -6.0386743,-8.61124 -7.8124997,-15.25 z m 595.6249997,0 c -1.77383,6.63876 -4.97034,12.54318 -7.8125,15.25 3,0 5,0 7,-1 0.0471,0.15718 0.10851,0.31206 0.15625,0.46875 0.31978,-4.84762 0.51313,-9.76396 0.65625,-14.71875 z M 29.71875,310 A 4,4 0 0 0 26,314 a 4,4 0 0 0 4,4 4,4 0 0 0 4,-4 4,4 0 0 0 -4,-4 4,4 0 0 0 -0.28125,0 z m 60,0 A 4,4 0 0 0 86,314 a 4,4 0 0 0 4,4 4,4 0 0 0 4,-4 4,4 0 0 0 -4,-4 4,4 0 0 0 -0.28125,0 z m 60,0 A 4,4 0 0 0 146,314 a 4,4 0 0 0 4,4 4,4 0 0 0 4,-4 4,4 0 0 0 -4,-4 4,4 0 0 0 -0.28125,0 z m 60,0 A 4,4 0 0 0 206,314 a 4,4 0 0 0 4,4 4,4 0 0 0 4,-4 4,4 0 0 0 -4,-4 4,4 0 0 0 -0.28125,0 z m 60,0 A 4,4 0 0 0 266,314 a 4,4 0 0 0 4,4 4,4 0 0 0 4,-4 4,4 0 0 0 -4,-4 4,4 0 0 0 -0.28125,0 z m 60,0 A 4,4 0 0 0 326,314 a 4,4 0 0 0 4,4 4,4 0 0 0 4,-4 4,4 0 0 0 -4,-4 4,4 0 0 0 -0.28125,0 z m 60,0 A 4,4 0 0 0 386,314 a 4,4 0 0 0 4,4 4,4 0 0 0 4,-4 4,4 0 0 0 -4,-4 4,4 0 0 0 -0.28125,0 z m 60,0 A 4,4 0 0 0 446,314 a 4,4 0 0 0 4,4 4,4 0 0 0 4,-4 4,4 0 0 0 -4,-4 4,4 0 0 0 -0.28125,0 z m 60,0 A 4,4 0 0 0 506,314 a 4,4 0 0 0 4,4 4,4 0 0 0 4,-4 4,4 0 0 0 -4,-4 4,4 0 0 0 -0.28125,0 z m 60,0 A 4,4 0 0 0 566,314 a 4,4 0 0 0 4,4 4,4 0 0 0 4,-4 4,4 0 0 0 -4,-4 4,4 0 0 0 -0.28125,0 z m -546,7 A 4,4 0 0 0 20,321 a 4,4 0 0 0 4,4 4,4 0 0 0 4,-4 4,4 0 0 0 -4,-4 4,4 0 0 0 -0.28125,0 z m 12,0 A 4,4 0 0 0 32,321 a 4,4 0 0 0 4,4 4,4 0 0 0 4,-4 4,4 0 0 0 -4,-4 4,4 0 0 0 -0.28125,0 z m 48,0 A 4,4 0 0 0 80,321 a 4,4 0 0 0 4,4 4,4 0 0 0 4,-4 4,4 0 0 0 -4,-4 4,4 0 0 0 -0.28125,0 z m 12,0 A 4,4 0 0 0 92,321 a 4,4 0 0 0 4,4 4,4 0 0 0 4,-4 4,4 0 0 0 -4,-4 4,4 0 0 0 -0.28125,0 z m 48,0 A 4,4 0 0 0 140,321 a 4,4 0 0 0 4,4 4,4 0 0 0 4,-4 4,4 0 0 0 -4,-4 4,4 0 0 0 -0.28125,0 z m 12,0 A 4,4 0 0 0 152,321 a 4,4 0 0 0 4,4 4,4 0 0 0 4,-4 4,4 0 0 0 -4,-4 4,4 0 0 0 -0.28125,0 z m 48,0 A 4,4 0 0 0 200,321 a 4,4 0 0 0 4,4 4,4 0 0 0 4,-4 4,4 0 0 0 -4,-4 4,4 0 0 0 -0.28125,0 z m 12,0 A 4,4 0 0 0 212,321 a 4,4 0 0 0 4,4 4,4 0 0 0 4,-4 4,4 0 0 0 -4,-4 4,4 0 0 0 -0.28125,0 z m 48,0 A 4,4 0 0 0 260,321 a 4,4 0 0 0 4,4 4,4 0 0 0 4,-4 4,4 0 0 0 -4,-4 4,4 0 0 0 -0.28125,0 z m 12,0 A 4,4 0 0 0 272,321 a 4,4 0 0 0 4,4 4,4 0 0 0 4,-4 4,4 0 0 0 -4,-4 4,4 0 0 0 -0.28125,0 z m 48,0 A 4,4 0 0 0 320,321 a 4,4 0 0 0 4,4 4,4 0 0 0 4,-4 4,4 0 0 0 -4,-4 4,4 0 0 0 -0.28125,0 z m 12,0 A 4,4 0 0 0 332,321 a 4,4 0 0 0 4,4 4,4 0 0 0 4,-4 4,4 0 0 0 -4,-4 4,4 0 0 0 -0.28125,0 z m 48,0 A 4,4 0 0 0 380,321 a 4,4 0 0 0 4,4 4,4 0 0 0 4,-4 4,4 0 0 0 -4,-4 4,4 0 0 0 -0.28125,0 z m 12,0 A 4,4 0 0 0 392,321 a 4,4 0 0 0 4,4 4,4 0 0 0 4,-4 4,4 0 0 0 -4,-4 4,4 0 0 0 -0.28125,0 z m 48,0 A 4,4 0 0 0 440,321 a 4,4 0 0 0 4,4 4,4 0 0 0 4,-4 4,4 0 0 0 -4,-4 4,4 0 0 0 -0.28125,0 z m 12,0 A 4,4 0 0 0 452,321 a 4,4 0 0 0 4,4 4,4 0 0 0 4,-4 4,4 0 0 0 -4,-4 4,4 0 0 0 -0.28125,0 z m 48,0 A 4,4 0 0 0 500,321 a 4,4 0 0 0 4,4 4,4 0 0 0 4,-4 4,4 0 0 0 -4,-4 4,4 0 0 0 -0.28125,0 z m 12,0 A 4,4 0 0 0 512,321 a 4,4 0 0 0 4,4 4,4 0 0 0 4,-4 4,4 0 0 0 -4,-4 4,4 0 0 0 -0.28125,0 z m 48,0 A 4,4 0 0 0 560,321 a 4,4 0 0 0 4,4 4,4 0 0 0 4,-4 4,4 0 0 0 -4,-4 4,4 0 0 0 -0.28125,0 z m 12,0 A 4,4 0 0 0 572,321 a 4,4 0 0 0 4,4 4,4 0 0 0 4,-4 4,4 0 0 0 -4,-4 4,4 0 0 0 -0.28125,0 z M 29.1875,321 c 0,10 -4.9875,21 -9.1875,25 3,0 5,0 7,-1 0.600001,2 1.2,4 3,5 1.800001,-1 2.4,-3 3,-5 2,1 4,1 7,1 -4.2,-4 -9.1875,-15 -9.1875,-25 l -1.625,0 z m 60,0 c 0,10 -4.9875,21 -9.1875,25 3,0 5,0 7,-1 0.6,2 1.2,4 3,5 1.800001,-1 2.4,-3 3,-5 2,1 4,1 7,1 -4.2,-4 -9.1875,-15 -9.1875,-25 l -1.625,0 z m 60,0 c 0,10 -4.9875,21 -9.1875,25 3,0 5,0 7,-1 0.6,2 1.2,4 3,5 1.8,-1 2.4,-3 3,-5 2,1 4,1 7,1 -4.2,-4 -9.1875,-15 -9.1875,-25 l -1.625,0 z m 60,0 c 0,10 -4.9875,21 -9.1875,25 3,0 5,0 7,-1 0.6,2 1.2,4 3,5 1.8,-1 2.4,-3 3,-5 2,1 4,1 7,1 -4.2,-4 -9.1875,-15 -9.1875,-25 l -1.625,0 z m 60,0 c 0,10 -4.9875,21 -9.1875,25 3,0 5,0 7,-1 0.6,2 1.2,4 3,5 1.8,-1 2.4,-3 3,-5 2,1 4,1 7,1 -4.2,-4 -9.1875,-15 -9.1875,-25 l -1.625,0 z m 60,0 c 0,10 -4.9875,21 -9.1875,25 3,0 5,0 7,-1 0.6,2 1.2,4 3,5 1.8,-1 2.4,-3 3,-5 2,1 4,1 7,1 -4.2,-4 -9.1875,-15 -9.1875,-25 l -1.625,0 z m 60,0 c 0,10 -4.9875,21 -9.1875,25 3,0 5,0 7,-1 0.6,2 1.2,4 3,5 1.8,-1 2.4,-3 3,-5 2,1 4,1 7,1 -4.2,-4 -9.1875,-15 -9.1875,-25 l -1.625,0 z m 60,0 c 0,10 -4.9875,21 -9.1875,25 3,0 5,0 7,-1 0.6,2 1.2,4 3,5 1.8,-1 2.4,-3 3,-5 2,1 4,1 7,1 -4.2,-4 -9.1875,-15 -9.1875,-25 l -1.625,0 z m 60,0 c 0,10 -4.9875,21 -9.1875,25 3,0 5,0 7,-1 0.6,2 1.2,4 3,5 1.8,-1 2.4,-3 3,-5 2,1 4,1 7,1 -4.2,-4 -9.1875,-15 -9.1875,-25 l -1.625,0 z m 60,0 c 0,10 -4.9875,21 -9.1875,25 3,0 5,0 7,-1 0.6,2 1.2,4 3,5 1.8,-1 2.4,-3 3,-5 2,1 4,1 7,1 -4.2,-4 -9.1875,-15 -9.1875,-25 l -1.625,0 z M 59.71875,370 A 4,4 0 0 0 56,374 a 4,4 0 0 0 4,4 4,4 0 0 0 4,-4 4,4 0 0 0 -4,-4 4,4 0 0 0 -0.28125,0 z m 60,0 A 4,4 0 0 0 116,374 a 4,4 0 0 0 4,4 4,4 0 0 0 4,-4 4,4 0 0 0 -4,-4 4,4 0 0 0 -0.28125,0 z m 60,0 A 4,4 0 0 0 176,374 a 4,4 0 0 0 4,4 4,4 0 0 0 4,-4 4,4 0 0 0 -4,-4 4,4 0 0 0 -0.28125,0 z m 60,0 A 4,4 0 0 0 236,374 a 4,4 0 0 0 4,4 4,4 0 0 0 4,-4 4,4 0 0 0 -4,-4 4,4 0 0 0 -0.28125,0 z m 60,0 A 4,4 0 0 0 296,374 a 4,4 0 0 0 4,4 4,4 0 0 0 4,-4 4,4 0 0 0 -4,-4 4,4 0 0 0 -0.28125,0 z m 60,0 A 4,4 0 0 0 356,374 a 4,4 0 0 0 4,4 4,4 0 0 0 4,-4 4,4 0 0 0 -4,-4 4,4 0 0 0 -0.28125,0 z m 60,0 A 4,4 0 0 0 416,374 a 4,4 0 0 0 4,4 4,4 0 0 0 4,-4 4,4 0 0 0 -4,-4 4,4 0 0 0 -0.28125,0 z m 60,0 A 4,4 0 0 0 476,374 a 4,4 0 0 0 4,4 4,4 0 0 0 4,-4 4,4 0 0 0 -4,-4 4,4 0 0 0 -0.28125,0 z m 60,0 A 4,4 0 0 0 536,374 a 4,4 0 0 0 4,4 4,4 0 0 0 4,-4 4,4 0 0 0 -4,-4 4,4 0 0 0 -0.28125,0 z m -486,7 A 4,4 0 0 0 50,381 a 4,4 0 0 0 4,4 4,4 0 0 0 4,-4 4,4 0 0 0 -4,-4 4,4 0 0 0 -0.28125,0 z m 12,0 A 4,4 0 0 0 62,381 a 4,4 0 0 0 4,4 4,4 0 0 0 4,-4 4,4 0 0 0 -4,-4 4,4 0 0 0 -0.28125,0 z m 48,0 A 4,4 0 0 0 110,381 a 4,4 0 0 0 4,4 4,4 0 0 0 4,-4 4,4 0 0 0 -4,-4 4,4 0 0 0 -0.28125,0 z m 12,0 A 4,4 0 0 0 122,381 a 4,4 0 0 0 4,4 4,4 0 0 0 4,-4 4,4 0 0 0 -4,-4 4,4 0 0 0 -0.28125,0 z m 48,0 A 4,4 0 0 0 170,381 a 4,4 0 0 0 4,4 4,4 0 0 0 4,-4 4,4 0 0 0 -4,-4 4,4 0 0 0 -0.28125,0 z m 12,0 A 4,4 0 0 0 182,381 a 4,4 0 0 0 4,4 4,4 0 0 0 4,-4 4,4 0 0 0 -4,-4 4,4 0 0 0 -0.28125,0 z m 48,0 A 4,4 0 0 0 230,381 a 4,4 0 0 0 4,4 4,4 0 0 0 4,-4 4,4 0 0 0 -4,-4 4,4 0 0 0 -0.28125,0 z m 12,0 A 4,4 0 0 0 242,381 a 4,4 0 0 0 4,4 4,4 0 0 0 4,-4 4,4 0 0 0 -4,-4 4,4 0 0 0 -0.28125,0 z m 48,0 A 4,4 0 0 0 290,381 a 4,4 0 0 0 4,4 4,4 0 0 0 4,-4 4,4 0 0 0 -4,-4 4,4 0 0 0 -0.28125,0 z m 12,0 A 4,4 0 0 0 302,381 a 4,4 0 0 0 4,4 4,4 0 0 0 4,-4 4,4 0 0 0 -4,-4 4,4 0 0 0 -0.28125,0 z m 48,0 A 4,4 0 0 0 350,381 a 4,4 0 0 0 4,4 4,4 0 0 0 4,-4 4,4 0 0 0 -4,-4 4,4 0 0 0 -0.28125,0 z m 12,0 A 4,4 0 0 0 362,381 a 4,4 0 0 0 4,4 4,4 0 0 0 4,-4 4,4 0 0 0 -4,-4 4,4 0 0 0 -0.28125,0 z m 48,0 A 4,4 0 0 0 410,381 a 4,4 0 0 0 4,4 4,4 0 0 0 4,-4 4,4 0 0 0 -4,-4 4,4 0 0 0 -0.28125,0 z m 12,0 A 4,4 0 0 0 422,381 a 4,4 0 0 0 4,4 4,4 0 0 0 4,-4 4,4 0 0 0 -4,-4 4,4 0 0 0 -0.28125,0 z m 48,0 A 4,4 0 0 0 470,381 a 4,4 0 0 0 4,4 4,4 0 0 0 4,-4 4,4 0 0 0 -4,-4 4,4 0 0 0 -0.28125,0 z m 12,0 A 4,4 0 0 0 482,381 a 4,4 0 0 0 4,4 4,4 0 0 0 4,-4 4,4 0 0 0 -4,-4 4,4 0 0 0 -0.28125,0 z m 48,0 A 4,4 0 0 0 530,381 a 4,4 0 0 0 4,4 4,4 0 0 0 4,-4 4,4 0 0 0 -4,-4 4,4 0 0 0 -0.28125,0 z m 12,0 A 4,4 0 0 0 542,381 a 4,4 0 0 0 4,4 4,4 0 0 0 4,-4 4,4 0 0 0 -4,-4 4,4 0 0 0 -0.28125,0 z M 59.1875,381 c 0,10 -4.987501,21 -9.1875,25 3,0 5,0 7,-1 0.6,2 1.2,4 3,5 1.8,-1 2.4,-3 3,-5 1.999999,1 4,1 7,1 -4.2,-4 -9.1875,-15 -9.1875,-25 l -1.625,0 z m 60,0 c 0,10 -4.9875,21 -9.1875,25 3,0 5,0 7,-1 0.6,2 1.2,4 3,5 1.8,-1 2.4,-3 3,-5 2,1 4,1 7,1 -4.2,-4 -9.1875,-15 -9.1875,-25 l -1.625,0 z m 60,0 c 0,10 -4.9875,21 -9.1875,25 3,0 5,0 7,-1 0.6,2 1.2,4 3,5 1.8,-1 2.4,-3 3,-5 2,1 4,1 7,1 -4.2,-4 -9.1875,-15 -9.1875,-25 l -1.625,0 z m 60,0 c 0,10 -4.9875,21 -9.1875,25 3,0 5,0 7,-1 0.6,2 1.2,4 3,5 1.8,-1 2.4,-3 3,-5 2,1 4,1 7,1 -4.2,-4 -9.1875,-15 -9.1875,-25 l -1.625,0 z m 60,0 c 0,10 -4.9875,21 -9.1875,25 3,0 5,0 7,-1 0.6,2 1.2,4 3,5 1.8,-1 2.4,-3 3,-5 2,1 4,1 7,1 -4.2,-4 -9.1875,-15 -9.1875,-25 l -1.625,0 z m 60,0 c 0,10 -4.9875,21 -9.1875,25 3,0 5,0 7,-1 0.6,2 1.2,4 3,5 1.8,-1 2.4,-3 3,-5 2,1 4,1 7,1 -4.2,-4 -9.1875,-15 -9.1875,-25 l -1.625,0 z m 60,0 c 0,10 -4.9875,21 -9.1875,25 3,0 5,0 7,-1 0.6,2 1.2,4 3,5 1.8,-1 2.4,-3 3,-5 2,1 4,1 7,1 -4.2,-4 -9.1875,-15 -9.1875,-25 l -1.625,0 z m 60,0 c 0,10 -4.9875,21 -9.1875,25 3,0 5,0 7,-1 0.6,2 1.2,4 3,5 1.8,-1 2.4,-3 3,-5 2,1 4,1 7,1 -4.2,-4 -9.1875,-15 -9.1875,-25 l -1.625,0 z m 60,0 c 0,10 -4.9875,21 -9.1875,25 3,0 5,0 7,-1 0.6,2 1.2,4 3,5 1.8,-1 2.4,-3 3,-5 2,1 4,1 7,1 -4.2,-4 -9.1875,-15 -9.1875,-25 l -1.625,0 z M 89.71875,430 A 4,4 0 0 0 86,434 a 4,4 0 0 0 4,4 4,4 0 0 0 4,-4 4,4 0 0 0 -4,-4 4,4 0 0 0 -0.28125,0 z m 60,0 A 4,4 0 0 0 146,434 a 4,4 0 0 0 4,4 4,4 0 0 0 4,-4 4,4 0 0 0 -4,-4 4,4 0 0 0 -0.28125,0 z m 60,0 A 4,4 0 0 0 206,434 a 4,4 0 0 0 4,4 4,4 0 0 0 4,-4 4,4 0 0 0 -4,-4 4,4 0 0 0 -0.28125,0 z m 60,0 A 4,4 0 0 0 266,434 a 4,4 0 0 0 4,4 4,4 0 0 0 4,-4 4,4 0 0 0 -4,-4 4,4 0 0 0 -0.28125,0 z m 60,0 A 4,4 0 0 0 326,434 a 4,4 0 0 0 4,4 4,4 0 0 0 4,-4 4,4 0 0 0 -4,-4 4,4 0 0 0 -0.28125,0 z m 60,0 A 4,4 0 0 0 386,434 a 4,4 0 0 0 4,4 4,4 0 0 0 4,-4 4,4 0 0 0 -4,-4 4,4 0 0 0 -0.28125,0 z m 60,0 A 4,4 0 0 0 446,434 a 4,4 0 0 0 4,4 4,4 0 0 0 4,-4 4,4 0 0 0 -4,-4 4,4 0 0 0 -0.28125,0 z m 60,0 A 4,4 0 0 0 506,434 a 4,4 0 0 0 4,4 4,4 0 0 0 4,-4 4,4 0 0 0 -4,-4 4,4 0 0 0 -0.28125,0 z m -426,7 A 4,4 0 0 0 80,441 a 4,4 0 0 0 4,4 4,4 0 0 0 4,-4 4,4 0 0 0 -4,-4 4,4 0 0 0 -0.28125,0 z m 12,0 A 4,4 0 0 0 92,441 a 4,4 0 0 0 4,4 4,4 0 0 0 4,-4 4,4 0 0 0 -4,-4 4,4 0 0 0 -0.28125,0 z m 48,0 A 4,4 0 0 0 140,441 a 4,4 0 0 0 4,4 4,4 0 0 0 4,-4 4,4 0 0 0 -4,-4 4,4 0 0 0 -0.28125,0 z m 12,0 A 4,4 0 0 0 152,441 a 4,4 0 0 0 4,4 4,4 0 0 0 4,-4 4,4 0 0 0 -4,-4 4,4 0 0 0 -0.28125,0 z m 48,0 A 4,4 0 0 0 200,441 a 4,4 0 0 0 4,4 4,4 0 0 0 4,-4 4,4 0 0 0 -4,-4 4,4 0 0 0 -0.28125,0 z m 12,0 A 4,4 0 0 0 212,441 a 4,4 0 0 0 4,4 4,4 0 0 0 4,-4 4,4 0 0 0 -4,-4 4,4 0 0 0 -0.28125,0 z m 48,0 A 4,4 0 0 0 260,441 a 4,4 0 0 0 4,4 4,4 0 0 0 4,-4 4,4 0 0 0 -4,-4 4,4 0 0 0 -0.28125,0 z m 12,0 A 4,4 0 0 0 272,441 a 4,4 0 0 0 4,4 4,4 0 0 0 4,-4 4,4 0 0 0 -4,-4 4,4 0 0 0 -0.28125,0 z m 48,0 A 4,4 0 0 0 320,441 a 4,4 0 0 0 4,4 4,4 0 0 0 4,-4 4,4 0 0 0 -4,-4 4,4 0 0 0 -0.28125,0 z m 12,0 A 4,4 0 0 0 332,441 a 4,4 0 0 0 4,4 4,4 0 0 0 4,-4 4,4 0 0 0 -4,-4 4,4 0 0 0 -0.28125,0 z m 48,0 A 4,4 0 0 0 380,441 a 4,4 0 0 0 4,4 4,4 0 0 0 4,-4 4,4 0 0 0 -4,-4 4,4 0 0 0 -0.28125,0 z m 12,0 A 4,4 0 0 0 392,441 a 4,4 0 0 0 4,4 4,4 0 0 0 4,-4 4,4 0 0 0 -4,-4 4,4 0 0 0 -0.28125,0 z m 48,0 A 4,4 0 0 0 440,441 a 4,4 0 0 0 4,4 4,4 0 0 0 4,-4 4,4 0 0 0 -4,-4 4,4 0 0 0 -0.28125,0 z m 12,0 A 4,4 0 0 0 452,441 a 4,4 0 0 0 4,4 4,4 0 0 0 4,-4 4,4 0 0 0 -4,-4 4,4 0 0 0 -0.28125,0 z m 48,0 A 4,4 0 0 0 500,441 a 4,4 0 0 0 4,4 4,4 0 0 0 4,-4 4,4 0 0 0 -4,-4 4,4 0 0 0 -0.28125,0 z m 12,0 A 4,4 0 0 0 512,441 a 4,4 0 0 0 4,4 4,4 0 0 0 4,-4 4,4 0 0 0 -4,-4 4,4 0 0 0 -0.28125,0 z M 89.1875,441 c 0,10 -4.9875,21 -9.1875,25 3,0 5,0 7,-1 0.6,2 1.2,4 3,5 1.800001,-1 2.4,-3 3,-5 2,1 4,1 7,1 -4.2,-4 -9.1875,-15 -9.1875,-25 l -1.625,0 z m 60,0 c 0,10 -4.9875,21 -9.1875,25 3,0 5,0 7,-1 0.6,2 1.2,4 3,5 1.8,-1 2.4,-3 3,-5 2,1 4,1 7,1 -4.2,-4 -9.1875,-15 -9.1875,-25 l -1.625,0 z m 60,0 c 0,10 -4.9875,21 -9.1875,25 3,0 5,0 7,-1 0.6,2 1.2,4 3,5 1.8,-1 2.4,-3 3,-5 2,1 4,1 7,1 -4.2,-4 -9.1875,-15 -9.1875,-25 l -1.625,0 z m 60,0 c 0,10 -4.9875,21 -9.1875,25 3,0 5,0 7,-1 0.6,2 1.2,4 3,5 1.8,-1 2.4,-3 3,-5 2,1 4,1 7,1 -4.2,-4 -9.1875,-15 -9.1875,-25 l -1.625,0 z m 60,0 c 0,10 -4.9875,21 -9.1875,25 3,0 5,0 7,-1 0.6,2 1.2,4 3,5 1.8,-1 2.4,-3 3,-5 2,1 4,1 7,1 -4.2,-4 -9.1875,-15 -9.1875,-25 l -1.625,0 z m 60,0 c 0,10 -4.9875,21 -9.1875,25 3,0 5,0 7,-1 0.6,2 1.2,4 3,5 1.8,-1 2.4,-3 3,-5 2,1 4,1 7,1 -4.2,-4 -9.1875,-15 -9.1875,-25 l -1.625,0 z m 60,0 c 0,10 -4.9875,21 -9.1875,25 3,0 5,0 7,-1 0.6,2 1.2,4 3,5 1.8,-1 2.4,-3 3,-5 2,1 4,1 7,1 -4.2,-4 -9.1875,-15 -9.1875,-25 l -1.625,0 z m 60,0 c 0,10 -4.9875,21 -9.1875,25 3,0 5,0 7,-1 0.6,2 1.2,4 3,5 1.8,-1 2.4,-3 3,-5 2,1 4,1 7,1 -4.2,-4 -9.1875,-15 -9.1875,-25 l -1.625,0 z M 119.71875,490 A 4,4 0 0 0 116,494 a 4,4 0 0 0 4,4 4,4 0 0 0 4,-4 4,4 0 0 0 -4,-4 4,4 0 0 0 -0.28125,0 z m 60,0 A 4,4 0 0 0 176,494 a 4,4 0 0 0 4,4 4,4 0 0 0 4,-4 4,4 0 0 0 -4,-4 4,4 0 0 0 -0.28125,0 z m 60,0 A 4,4 0 0 0 236,494 a 4,4 0 0 0 4,4 4,4 0 0 0 4,-4 4,4 0 0 0 -4,-4 4,4 0 0 0 -0.28125,0 z m 60,0 A 4,4 0 0 0 296,494 a 4,4 0 0 0 4,4 4,4 0 0 0 4,-4 4,4 0 0 0 -4,-4 4,4 0 0 0 -0.28125,0 z m 60,0 A 4,4 0 0 0 356,494 a 4,4 0 0 0 4,4 4,4 0 0 0 4,-4 4,4 0 0 0 -4,-4 4,4 0 0 0 -0.28125,0 z m 60,0 A 4,4 0 0 0 416,494 a 4,4 0 0 0 4,4 4,4 0 0 0 4,-4 4,4 0 0 0 -4,-4 4,4 0 0 0 -0.28125,0 z m 60,0 A 4,4 0 0 0 476,494 a 4,4 0 0 0 4,4 4,4 0 0 0 4,-4 4,4 0 0 0 -4,-4 4,4 0 0 0 -0.28125,0 z m -366,7 A 4,4 0 0 0 110,501 a 4,4 0 0 0 4,4 4,4 0 0 0 4,-4 4,4 0 0 0 -4,-4 4,4 0 0 0 -0.28125,0 z m 12,0 A 4,4 0 0 0 122,501 a 4,4 0 0 0 4,4 4,4 0 0 0 4,-4 4,4 0 0 0 -4,-4 4,4 0 0 0 -0.28125,0 z m 48,0 A 4,4 0 0 0 170,501 a 4,4 0 0 0 4,4 4,4 0 0 0 4,-4 4,4 0 0 0 -4,-4 4,4 0 0 0 -0.28125,0 z m 12,0 A 4,4 0 0 0 182,501 a 4,4 0 0 0 4,4 4,4 0 0 0 4,-4 4,4 0 0 0 -4,-4 4,4 0 0 0 -0.28125,0 z m 48,0 A 4,4 0 0 0 230,501 a 4,4 0 0 0 4,4 4,4 0 0 0 4,-4 4,4 0 0 0 -4,-4 4,4 0 0 0 -0.28125,0 z m 12,0 A 4,4 0 0 0 242,501 a 4,4 0 0 0 4,4 4,4 0 0 0 4,-4 4,4 0 0 0 -4,-4 4,4 0 0 0 -0.28125,0 z m 48,0 A 4,4 0 0 0 290,501 a 4,4 0 0 0 4,4 4,4 0 0 0 4,-4 4,4 0 0 0 -4,-4 4,4 0 0 0 -0.28125,0 z m 12,0 A 4,4 0 0 0 302,501 a 4,4 0 0 0 4,4 4,4 0 0 0 4,-4 4,4 0 0 0 -4,-4 4,4 0 0 0 -0.28125,0 z m 48,0 A 4,4 0 0 0 350,501 a 4,4 0 0 0 4,4 4,4 0 0 0 4,-4 4,4 0 0 0 -4,-4 4,4 0 0 0 -0.28125,0 z m 12,0 A 4,4 0 0 0 362,501 a 4,4 0 0 0 4,4 4,4 0 0 0 4,-4 4,4 0 0 0 -4,-4 4,4 0 0 0 -0.28125,0 z m 48,0 A 4,4 0 0 0 410,501 a 4,4 0 0 0 4,4 4,4 0 0 0 4,-4 4,4 0 0 0 -4,-4 4,4 0 0 0 -0.28125,0 z m 12,0 A 4,4 0 0 0 422,501 a 4,4 0 0 0 4,4 4,4 0 0 0 4,-4 4,4 0 0 0 -4,-4 4,4 0 0 0 -0.28125,0 z m 48,0 A 4,4 0 0 0 470,501 a 4,4 0 0 0 4,4 4,4 0 0 0 4,-4 4,4 0 0 0 -4,-4 4,4 0 0 0 -0.28125,0 z m 12,0 A 4,4 0 0 0 482,501 a 4,4 0 0 0 4,4 4,4 0 0 0 4,-4 4,4 0 0 0 -4,-4 4,4 0 0 0 -0.28125,0 z m -366.53125,4 c 0,10 -4.9875,21 -9.1875,25 3,0 5,0 7,-1 0.6,2 1.2,4 3,5 1.8,-1 2.4,-3 3,-5 2,1 4,1 7,1 -4.2,-4 -9.1875,-15 -9.1875,-25 l -1.625,0 z m 60,0 c 0,10 -4.9875,21 -9.1875,25 3,0 5,0 7,-1 0.6,2 1.2,4 3,5 1.8,-1 2.4,-3 3,-5 2,1 4,1 7,1 -4.2,-4 -9.1875,-15 -9.1875,-25 l -1.625,0 z m 60,0 c 0,10 -4.9875,21 -9.1875,25 3,0 5,0 7,-1 0.6,2 1.2,4 3,5 1.8,-1 2.4,-3 3,-5 2,1 4,1 7,1 -4.2,-4 -9.1875,-15 -9.1875,-25 l -1.625,0 z m 60,0 c 0,10 -4.9875,21 -9.1875,25 3,0 5,0 7,-1 0.6,2 1.2,4 3,5 1.8,-1 2.4,-3 3,-5 2,1 4,1 7,1 -4.2,-4 -9.1875,-15 -9.1875,-25 l -1.625,0 z m 60,0 c 0,10 -4.9875,21 -9.1875,25 3,0 5,0 7,-1 0.6,2 1.2,4 3,5 1.8,-1 2.4,-3 3,-5 2,1 4,1 7,1 -4.2,-4 -9.1875,-15 -9.1875,-25 l -1.625,0 z m 60,0 c 0,10 -4.9875,21 -9.1875,25 3,0 5,0 7,-1 0.6,2 1.2,4 3,5 1.8,-1 2.4,-3 3,-5 2,1 4,1 7,1 -4.2,-4 -9.1875,-15 -9.1875,-25 l -1.625,0 z m 60,0 c 0,10 -4.9875,21 -9.1875,25 3,0 5,0 7,-1 0.6,2 1.2,4 3,5 1.8,-1 2.4,-3 3,-5 2,1 4,1 7,1 -4.2,-4 -9.1875,-15 -9.1875,-25 l -1.625,0 z M 149.71875,550 A 4,4 0 0 0 146,554 a 4,4 0 0 0 4,4 4,4 0 0 0 4,-4 4,4 0 0 0 -4,-4 4,4 0 0 0 -0.28125,0 z m 60,0 A 4,4 0 0 0 206,554 a 4,4 0 0 0 4,4 4,4 0 0 0 4,-4 4,4 0 0 0 -4,-4 4,4 0 0 0 -0.28125,0 z m 60,0 A 4,4 0 0 0 266,554 a 4,4 0 0 0 4,4 4,4 0 0 0 4,-4 4,4 0 0 0 -4,-4 4,4 0 0 0 -0.28125,0 z m 60,0 A 4,4 0 0 0 326,554 a 4,4 0 0 0 4,4 4,4 0 0 0 4,-4 4,4 0 0 0 -4,-4 4,4 0 0 0 -0.28125,0 z m 60,0 A 4,4 0 0 0 386,554 a 4,4 0 0 0 4,4 4,4 0 0 0 4,-4 4,4 0 0 0 -4,-4 4,4 0 0 0 -0.28125,0 z m 60,0 A 4,4 0 0 0 446,554 a 4,4 0 0 0 4,4 4,4 0 0 0 4,-4 4,4 0 0 0 -4,-4 4,4 0 0 0 -0.28125,0 z m -306,7 a 4,4 0 0 0 -1.5625,0.46875 c 1.8592,1.6646 3.70077,3.31783 5.5625,4.9375 A 4,4 0 0 0 148,561 a 4,4 0 0 0 -4,-4 4,4 0 0 0 -0.28125,0 z m 12,0 A 4,4 0 0 0 152,561 a 4,4 0 0 0 4,4 4,4 0 0 0 4,-4 4,4 0 0 0 -4,-4 4,4 0 0 0 -0.28125,0 z m 48,0 A 4,4 0 0 0 200,561 a 4,4 0 0 0 4,4 4,4 0 0 0 4,-4 4,4 0 0 0 -4,-4 4,4 0 0 0 -0.28125,0 z m 12,0 A 4,4 0 0 0 212,561 a 4,4 0 0 0 4,4 4,4 0 0 0 4,-4 4,4 0 0 0 -4,-4 4,4 0 0 0 -0.28125,0 z m 48,0 A 4,4 0 0 0 260,561 a 4,4 0 0 0 4,4 4,4 0 0 0 4,-4 4,4 0 0 0 -4,-4 4,4 0 0 0 -0.28125,0 z m 12,0 A 4,4 0 0 0 272,561 a 4,4 0 0 0 4,4 4,4 0 0 0 4,-4 4,4 0 0 0 -4,-4 4,4 0 0 0 -0.28125,0 z m 48,0 A 4,4 0 0 0 320,561 a 4,4 0 0 0 4,4 4,4 0 0 0 4,-4 4,4 0 0 0 -4,-4 4,4 0 0 0 -0.28125,0 z m 12,0 A 4,4 0 0 0 332,561 a 4,4 0 0 0 4,4 4,4 0 0 0 4,-4 4,4 0 0 0 -4,-4 4,4 0 0 0 -0.28125,0 z m 48,0 A 4,4 0 0 0 380,561 a 4,4 0 0 0 4,4 4,4 0 0 0 4,-4 4,4 0 0 0 -4,-4 4,4 0 0 0 -0.28125,0 z m 12,0 A 4,4 0 0 0 392,561 a 4,4 0 0 0 4,4 4,4 0 0 0 4,-4 4,4 0 0 0 -4,-4 4,4 0 0 0 -0.28125,0 z m 48,0 A 4,4 0 0 0 440,561 a 4,4 0 0 0 4,4 4,4 0 0 0 4,-4 4,4 0 0 0 -4,-4 4,4 0 0 0 -0.28125,0 z m 12,0 A 4,4 0 0 0 452,561 a 4,4 0 0 0 0.25,1.40625 c 1.86765,-1.62467 3.72864,-3.26761 5.59375,-4.9375 A 4,4 0 0 0 456,557 a 4,4 0 0 0 -0.28125,0 z m -306.53125,4 c 0,0.85057 -0.0564,1.70238 -0.125,2.5625 0.68596,0.59274 1.37649,1.19458 2.0625,1.78125 -0.18833,-1.45248 -0.3125,-2.90881 -0.3125,-4.34375 l -1.625,0 z m 60,0 c 0,10 -4.9875,21 -9.1875,25 3,0 5,0 7,-1 0.6,2 1.2,4 3,5 1.8,-1 2.4,-3 3,-5 2,1 4,1 7,1 -4.2,-4 -9.1875,-15 -9.1875,-25 l -1.625,0 z m 60,0 c 0,10 -4.9875,21 -9.1875,25 3,0 5,0 7,-1 0.6,2 1.2,4 3,5 1.8,-1 2.4,-3 3,-5 2,1 4,1 7,1 -4.2,-4 -9.1875,-15 -9.1875,-25 l -1.625,0 z m 60,0 c 0,10 -4.9875,21 -9.1875,25 3,0 5,0 7,-1 0.6,2 1.2,4 3,5 1.8,-1 2.4,-3 3,-5 2,1 4,1 7,1 -4.2,-4 -9.1875,-15 -9.1875,-25 l -1.625,0 z m 60,0 c 0,10 -4.9875,21 -9.1875,25 3,0 5,0 7,-1 0.6,2 1.2,4 3,5 1.8,-1 2.4,-3 3,-5 2,1 4,1 7,1 -4.2,-4 -9.1875,-15 -9.1875,-25 l -1.625,0 z m 60,0 c 0,1.43494 -0.12417,2.89127 -0.3125,4.34375 0.68601,-0.58667 1.37654,-1.18851 2.0625,-1.78125 -0.0686,-0.86012 -0.125,-1.71193 -0.125,-2.5625 l -1.625,0 z M 239.71875,610 A 4,4 0 0 0 236,614 a 4,4 0 0 0 4,4 4,4 0 0 0 4,-4 4,4 0 0 0 -4,-4 4,4 0 0 0 -0.28125,0 z m 60,0 A 4,4 0 0 0 296,614 a 4,4 0 0 0 4,4 4,4 0 0 0 4,-4 4,4 0 0 0 -4,-4 4,4 0 0 0 -0.28125,0 z m 60,0 A 4,4 0 0 0 356,614 a 4,4 0 0 0 4,4 4,4 0 0 0 4,-4 4,4 0 0 0 -4,-4 4,4 0 0 0 -0.28125,0 z m -126,7 A 4,4 0 0 0 230,621 a 4,4 0 0 0 0.0937,0.8125 c 1.71835,1.02415 3.41636,2.02274 5.09375,3 A 4,4 0 0 0 238,621 a 4,4 0 0 0 -4,-4 4,4 0 0 0 -0.28125,0 z m 12,0 A 4,4 0 0 0 242,621 a 4,4 0 0 0 4,4 4,4 0 0 0 4,-4 4,4 0 0 0 -4,-4 4,4 0 0 0 -0.28125,0 z m 48,0 A 4,4 0 0 0 290,621 a 4,4 0 0 0 4,4 4,4 0 0 0 4,-4 4,4 0 0 0 -4,-4 4,4 0 0 0 -0.28125,0 z m 12,0 A 4,4 0 0 0 302,621 a 4,4 0 0 0 4,4 4,4 0 0 0 4,-4 4,4 0 0 0 -4,-4 4,4 0 0 0 -0.28125,0 z m 48,0 A 4,4 0 0 0 350,621 a 4,4 0 0 0 4,4 4,4 0 0 0 4,-4 4,4 0 0 0 -4,-4 4,4 0 0 0 -0.28125,0 z m 12,0 A 4,4 0 0 0 362,621 a 4,4 0 0 0 2.8125,3.8125 c 1.67739,-0.97726 3.3754,-1.97585 5.09375,-3 a 4,4 0 0 0 0.0937,-0.8125 4,4 0 0 0 -4,-4 4,4 0 0 0 -0.28125,0 z m -126.53125,4 c 0,1.91716 -0.20531,3.8782 -0.53125,5.8125 1.00924,0.57889 2.00774,1.15729 3,1.71875 -0.52927,-2.49042 -0.84375,-5.04133 -0.84375,-7.53125 l -1.625,0 z m 60,0 c 0,10 -4.9875,21 -9.1875,25 3,0 5,0 7,-1 0.6,2 1.2,4 3,5 1.8,-1 2.4,-3 3,-5 2,1 4,1 7,1 -4.2,-4 -9.1875,-15 -9.1875,-25 l -1.625,0 z m 60,0 c 0,2.48992 -0.31448,5.04083 -0.84375,7.53125 0.99226,-0.56146 1.99076,-1.13986 3,-1.71875 -0.32594,-1.9343 -0.53125,-3.89534 -0.53125,-5.8125 l -1.625,0 z"
       id="path3049" />
    <g
       transform="matrix(1.32,0,0,1.32,593.8152,-516.06491)"
       id="g3300"
       style="stroke-width:2;stroke-miterlimit:4;stroke-dasharray:none">
      <path
         d="m -93.5285,634.38643 c -2.330529,8.6603 -10.85048,31.48989 -12.01574,41.38752 -1.16495,9.89795 -10.92794,8.69657 -17.38085,16.84046 -6.38855,8.06267 -32.11879,24.41371 -26.76117,30.10267 -0.88696,4.3629 -3.92079,3.58729 -6.24218,5.47002 -0.40575,0.32907 -0.70266,0.82027 -0.84506,1.54348 -1.2157,6.17503 -13.39931,11.86313 -18.64269,10.62548 l -1.16497,-5.67684 c -3.78484,1.4394 -7.40536,2.52981 -9.32119,0 -0.58263,-4.33031 3.49518,-7.42295 8.15593,-13.60926 4.66076,-6.18597 10.48647,-3.71133 17.47744,-8.66031 6.99066,-4.94897 16.83154,-14.84658 23.82251,-25.98122 6.99098,-11.13495 6.99098,-21.03257 3.49549,-24.74422 -3.49549,-3.71164 -10.81301,-15.02013 -10.81301,-15.02013 0,0 -14.33326,-11.44324 -17.13311,-13.98748"
         id="path9028-0"
         style="fill:#cc0000;fill-opacity:1;fill-rule:evenodd;stroke:#000000;stroke-width:1.5151515;stroke-linecap:butt;stroke-linejoin:miter;stroke-miterlimit:4;stroke-opacity:1;stroke-dasharray:none"
         inkscape:connector-curvature="0" />
      <path
         sodipodi:nodetypes="cccsscccccsssc"
         d="m -271.9208,653.92363 c -4.92217,-4.58533 -19.05378,13.59139 -21.41415,14.50277 -16.35708,0.45894 -26.42471,17.05139 -40.54221,20.53932 -8.15593,0 -9.58087,5.22471 -9.58087,12.64801 0,3.71239 -3.02071,10.00516 -1.20768,17.05822 1.49223,5.80503 -2.93815,10.32375 -6.39951,8.00543 -4.66044,-3.71165 6.66832,14.76756 -7.89626,14.1489 -8.15594,0 -10.79596,-0.85905 -9.66427,-5.80804 l -6.03169,0.61867 c -1.16526,-6.18598 0,-9.27895 2.33022,-14.22793 3.49549,-11.13464 17.47744,-23.50689 17.47744,-29.69286 0,-6.18599 6.44161,-12.37198 15.76282,-21.03258 7.38245,-6.85882 16.56413,-15.28935 23.67166,-21.273 1.86685,-1.57167 11.50146,-17.67463 13.1981,-18.70402"
         id="path9020-9"
         style="fill:#cc0000;fill-opacity:1;fill-rule:evenodd;stroke:#000000;stroke-width:1.5151515;stroke-linecap:butt;stroke-linejoin:miter;stroke-miterlimit:4;stroke-opacity:1;stroke-dasharray:none"
         inkscape:connector-curvature="0" />
      <path
         d="m -382.46321,508.07502 c -6.98926,-2.18035 -3.05024,-6.63297 -15.91176,-8.02913 0.22832,9.46408 8.44128,21.3427 19.13429,25.26295 7.05217,2.58546 3.56415,-10.98419 3.31063,-12.19187 l -6.53316,-5.04195 z"
         id="path1034-1"
         style="fill:#cc0000;fill-opacity:1;fill-rule:evenodd;stroke:#000000;stroke-width:1.5151515;stroke-linecap:butt;stroke-linejoin:miter;stroke-miterlimit:4;stroke-opacity:1;stroke-dasharray:none"
         inkscape:connector-curvature="0" />
      <path
         style="fill:#cc0000;fill-opacity:1;fill-rule:evenodd;stroke:#000000;stroke-width:1.5151515;stroke-linecap:butt;stroke-linejoin:miter;stroke-miterlimit:4;stroke-opacity:1;stroke-dasharray:none;display:inline"
         d="m -370.39921,512.48338 c -2.3276,-0.39356 -6.09375,-1.26155 -11.74122,-5.31175 -5.64746,-4.05024 -13.46167,-17.22355 -13.27941,-14.62669 0.18225,2.59685 6.79321,19.17298 12.33287,26.24278 5.53967,7.06983 6.11264,2.44887 8.15017,3.26519"
         id="path6700"
         sodipodi:nodetypes="cssss"
         inkscape:connector-curvature="0" />
      <path
         id="path1041-7"
         style="fill:#cc0000;fill-opacity:1;fill-rule:evenodd;stroke:#000000;stroke-width:1.5151515;stroke-linecap:butt;stroke-linejoin:miter;stroke-miterlimit:4;stroke-opacity:1;stroke-dasharray:none"
         d="m -45.228037,652.91916 c -1.249837,-22.1899 -3.323821,-59.57229 -9.193377,-79.23789 -0.920097,-6.51731 -9.512557,-15.02946 -17.753207,-19.99117 0,0 9.641217,11.06494 12.955094,28.09446 3.313854,17.02948 0.300346,40.02356 0.300346,40.02356 -0.958705,7.11549 0.45084,16.31893 5.844431,19.18252 6.990666,3.71164 4.660441,13.60927 6.990666,23.50689 -4.714286,17.53735 -1.705037,39.41983 3.634607,54.01653 1.576916,5.60478 -3.531768,12.06498 -5.279055,4.93211 -2.33053,-4.94865 -3.015992,-4.51154 -4.181262,2.91175 -1.164956,7.42331 -8.773552,11.93485 -17.065486,12.08153 -3.309428,0.48721 -2.374398,-5.88769 0.95384,-10.46402 -2.874128,4.45402 -5.360567,9.8686 -10.973353,7.53724 -4.796438,-2.54636 7.277338,-9.15475 13.103352,-17.81504 5.825722,-8.66062 9.580864,-26.46234 4.920121,-32.64831 -4.660441,-6.18598 -6.730975,-12.85276 -6.730975,-19.03873 0,-6.18598 -15.540629,-8.55808 -22.531599,-14.74406 -28.474096,-24.5326 -29.761866,-18.16312 -60.001406,-14.23208 l 0,3e-5 c -9.71492,-3.26238 -41.49307,11.4453 -47.31878,15.15696 -13.23491,5.35706 -27.95171,5.77233 -41.94555,7.42329 -26.47023,-1.27045 -55.21678,-8.24706 -72.23965,-29.75901 -3.49548,-4.94898 -31.45908,-33.40453 -34.95457,-39.59051 -3.49548,-6.1863 -11.65142,2.47432 -17.47713,1.237 -5.82601,-1.237 -9.3215,11.13495 -16.31218,13.60928 -6.99096,2.47465 -16.31216,1.23733 -20.97292,-1.237 -4.66075,-2.47465 -5.12315,-5.82339 -9.32119,-12.37228 -3.17224,-4.94864 -3.39206,-7.4233 2.33022,-12.37194 6.51485,-5.63406 13.98196,-22.26991 11.65173,-25.98155 -2.33053,-3.71166 -3.49549,-8.6603 0,-12.37194 3.49518,-3.71167 5.38761,-14.84661 5.38761,-19.79526 0,-4.94897 6.98074,-11.36299 10.47177,-14.64187 1.86523,-1.75187 10.21843,0.65276 18.2973,0.92219 6.83231,0.22789 12.65451,0.22866 15.94479,2.58474 6.18558,4.42929 46.6063,22.26957 60.58794,22.26957 13.98195,0 56.30466,-3.71133 62.13068,-1.237 5.82571,2.47432 66.03647,2.47432 75.35767,1.237 9.3212,-1.237 26.79863,-8.66031 40.78058,-6.18598 13.981649,2.47465 15.849911,1.88614 22.523499,9.82663 29.04021,17.07829 35.863517,24.83612 38.536002,37.20274 7.13108,25.46907 6.800485,51.86547 9.135374,79.18067 -0.453087,3.24965 1.999597,7.20277 4.565456,13.42619 1.868757,4.53263 0.455559,10.45149 -0.951458,16.68275 -6.5325,-13.68687 -2.20088,-4.6251 -6.118449,-13.53797 1.99927,6.19743 3.377825,10.64206 -0.404781,17.62458 -5.959124,-14.88088 -4.311765,-24.16426 -4.6767,-33.4166 z"
         sodipodi:nodetypes="cccscscccscccsssccccccsssssssssssssssscccscccc"
         inkscape:connector-curvature="0" />
      <path
         d="m -296.65991,552.63958 c 0,5.82285 3.76778,13.10437 2.39807,18.92168 -1.37002,5.81831 -3.47248,9.85525 -3.49366,15.88477 -0.0193,5.54319 -6.25116,22.41495 -8.27042,27.8496 -0.84848,2.28298 0.62776,4.88313 1.29358,7.23326"
         id="path1047-4"
         style="fill:#cc0000;fill-opacity:1;fill-rule:evenodd;stroke:#000000;stroke-width:1.5151515;stroke-linecap:butt;stroke-linejoin:miter;stroke-miterlimit:4;stroke-opacity:1;stroke-dasharray:none"
         inkscape:connector-curvature="0" />
      <path
         d="m -337.37265,572.94429 c 0,7.78837 -10.34323,12.11623 -19.37163,16.90734"
         id="path1048-0"
         style="fill:#cc0000;fill-opacity:1;fill-rule:evenodd;stroke:#000000;stroke-width:1.5151515;stroke-linecap:butt;stroke-linejoin:miter;stroke-miterlimit:4;stroke-opacity:1;stroke-dasharray:none"
         inkscape:connector-curvature="0" />
      <path
         sodipodi:nodetypes="ccsc"
         d="m -353.83324,545.70981 c -6.18618,10.09884 -15.35761,-3.11738 -20.80762,11.19488 2.01342,2.24092 9.51794,4.07203 12.84148,-1.09212 0.79343,-1.23283 1.24462,-5.32617 4.15978,-6.50259"
         id="path1049-9"
         style="fill:#ffffff;fill-opacity:1;fill-rule:evenodd;stroke:#000000;stroke-width:1.5151515;stroke-linecap:butt;stroke-linejoin:miter;stroke-miterlimit:4;stroke-opacity:1;stroke-dasharray:none"
         inkscape:connector-curvature="0" />
      <path
         sodipodi:nodetypes="cc"
         d="m -363.25748,557.47681 c -4.67509,3.63474 -9.36432,3.34866 -12.36834,8.2295"
         id="path1050-4"
         style="fill:#cc0000;fill-opacity:1;fill-rule:evenodd;stroke:#000000;stroke-width:1.5151515;stroke-linecap:butt;stroke-linejoin:miter;stroke-miterlimit:4;stroke-opacity:1;stroke-dasharray:none"
         inkscape:connector-curvature="0" />
      <path
         d="m -364.35971,554.54063 c 7e-4,1.87033 -1.49433,3.38689 -3.33878,3.38689 -1.84446,0 -3.33948,-1.51656 -3.33879,-3.38689 -6.9e-4,-1.87032 1.49433,-3.38688 3.33879,-3.38688 1.84445,0 3.33948,1.51656 3.33878,3.38688 z"
         id="path11022"
         style="fill:#000000;fill-opacity:1;stroke:#000000;stroke-width:1.5151515;stroke-miterlimit:4;stroke-opacity:1;stroke-dasharray:none"
         inkscape:connector-curvature="0" />
      <path
         d="m -384.17781,520.0845 c 4.62722,1.66155 13.22029,-1.35392 16.76175,0.39106 1.83346,0.90364 5.34085,4.93949 9.60165,4.93642"
         id="path1051-8"
         style="fill:#cc0000;fill-opacity:1;fill-rule:evenodd;stroke:#000000;stroke-width:1.5151515;stroke-linecap:butt;stroke-linejoin:miter;stroke-miterlimit:4;stroke-opacity:1;stroke-dasharray:none"
         inkscape:connector-curvature="0" />
      <path
         d="m -398.39838,549.55519 c 2.72232,3.78266 9.09256,3.59353 8.9931,3.59353"
         id="path1052-8"
         style="fill:#cc0000;fill-opacity:1;fill-rule:evenodd;stroke:#000000;stroke-width:1.5151515;stroke-linecap:butt;stroke-linejoin:miter;stroke-miterlimit:4;stroke-opacity:1;stroke-dasharray:none"
         inkscape:connector-curvature="0" />
      <path
         d="m -379.72746,604.67691 c 5.57242,-1.82513 6.95238,-6.93543 6.98639,-11.88354 0.0357,-5.20402 -1.41721,-10.03952 1.26795,-13.71143"
         id="path1053-2"
         style="fill:#cc0000;fill-opacity:1;fill-rule:evenodd;stroke:#000000;stroke-width:1.5151515;stroke-linecap:butt;stroke-linejoin:miter;stroke-miterlimit:4;stroke-opacity:1;stroke-dasharray:none"
         inkscape:connector-curvature="0" />
      <path
         d="m -393.30014,585.31624 c -2.50919,5.32936 -13.15405,8.52568 0.2468,11.1871 0.71003,0.14113 3.80645,-4.10149 3.25606,-5.05947"
         id="path1054-4"
         style="fill:#cc0000;fill-opacity:1;fill-rule:evenodd;stroke:#000000;stroke-width:1.5151515;stroke-linecap:butt;stroke-linejoin:miter;stroke-miterlimit:4;stroke-opacity:1;stroke-dasharray:none"
         inkscape:connector-curvature="0" />
      <path
         d="m -283.77538,613.7721 c 1.22003,11.9137 15.81018,31.28328 26.61261,35.95155 14.09305,6.90357 11.84398,8.11233 18.28765,19.68454 2.20685,6.02183 4.03625,11.93333 4.03625,17.35926 0,8.66031 -4.66076,29.69288 -12.81668,37.11618 -5.24339,5.56763 -6.51149,9.78843 -5.34652,11.64409 3.90379,2.92535 3.74117,0.95124 7.93642,-5.25338 -6.91562,5.10811 -3.67453,8.05924 -1.42495,11.22096 3.50149,4.40966 10.36808,0.4818 16.57185,-1.80382 0,0 5.56604,-4.67324 5.56604,-14.57086 -1.16527,-6.80464 4.66076,-8.66029 5.82602,-1.85566 8.15623,1.237 1.90712,-6.70208 0.74185,-14.12538 -0.91017,-5.79972 -3.24288,-28.58933 -4.4401,-41.70961 0.19877,-17.06116 3.29511,-34.12236 -2.4543,-51.18353"
         id="path1055-5"
         style="fill:#cc0000;fill-opacity:1;fill-rule:evenodd;stroke:#000000;stroke-width:1.5151515;stroke-linecap:butt;stroke-linejoin:miter;stroke-miterlimit:4;stroke-opacity:1;stroke-dasharray:none"
         inkscape:connector-curvature="0" />
      <path
         d="m -72.333363,724.45193 c 4.345195,6.31433 14.226732,1.90603 19.28439,1.90603"
         id="path1059-5"
         style="fill:#cc0000;fill-opacity:1;fill-rule:evenodd;stroke:#000000;stroke-width:1.5151515;stroke-linecap:butt;stroke-linejoin:miter;stroke-miterlimit:4;stroke-opacity:1;stroke-dasharray:none"
         inkscape:connector-curvature="0" />
      <path
         d="m -177.39018,734.81351 c -0.94992,1.0297 2.14158,-8.64102 6.4659,-7.93077"
         id="path1060-1"
         style="fill:#cc0000;fill-opacity:1;fill-rule:evenodd;stroke:#000000;stroke-width:1.5151515;stroke-linecap:butt;stroke-linejoin:miter;stroke-miterlimit:4;stroke-opacity:1;stroke-dasharray:none"
         inkscape:connector-curvature="0" />
      <path
         d="m -177.74642,722.6463 c -2.00762,4.79385 21.90429,6.18217 22.89978,5.21334"
         id="path1061-7"
         style="fill:#cc0000;fill-opacity:1;fill-rule:evenodd;stroke:#000000;stroke-width:1.5151515;stroke-linecap:butt;stroke-linejoin:miter;stroke-miterlimit:4;stroke-opacity:1;stroke-dasharray:none"
         inkscape:connector-curvature="0" />
      <path
         d="m -249.79297,725.60142 c 2.24813,1.19358 3.37358,3.08376 5.50184,3.44072 6.69448,1.12284 14.51823,-0.93969 19.53842,-6.46201"
         id="path1062-1"
         style="fill:#cc0000;fill-opacity:1;fill-rule:evenodd;stroke:#000000;stroke-width:1.5151515;stroke-linecap:butt;stroke-linejoin:miter;stroke-miterlimit:4;stroke-opacity:1;stroke-dasharray:none"
         inkscape:connector-curvature="0" />
      <path
         d="m -373.29936,721.51151 c 6.59222,3.5001 15.28134,7.87225 23.17265,4.84645"
         id="path1063-1"
         style="fill:#cc0000;fill-opacity:1;fill-rule:evenodd;stroke:#000000;stroke-width:1.5151515;stroke-linecap:butt;stroke-linejoin:miter;stroke-miterlimit:4;stroke-opacity:1;stroke-dasharray:none"
         inkscape:connector-curvature="0" />
      <path
         d="m -367.66646,723.88363 c 2.30289,4.89095 -2.09599,7.71924 -1.41666,11.57073"
         id="path1064-5"
         style="fill:#cc0000;fill-opacity:1;fill-rule:evenodd;stroke:#000000;stroke-width:1.5151515;stroke-linecap:butt;stroke-linejoin:miter;stroke-miterlimit:4;stroke-opacity:1;stroke-dasharray:none"
         inkscape:connector-curvature="0" />
      <path
         d="m -321.29275,508.23878 c 4.53951,2.86845 -3.26796,12.2669 -14.00448,15.08411 -3.81098,0.99997 -10.81672,4.41145 -12.76418,1.91393 -2.68099,-8.80178 -0.95679,-8.90799 7.4528,-11.06461 8.12346,1.66243 16.15168,-11.11752 19.31586,-5.93343 z"
         id="path1067-2"
         style="fill:#cc0000;fill-opacity:1;fill-rule:evenodd;stroke:#000000;stroke-width:1.5151515;stroke-linecap:butt;stroke-linejoin:miter;stroke-miterlimit:4;stroke-opacity:1;stroke-dasharray:none"
         sodipodi:nodetypes="csccc"
         inkscape:connector-curvature="0" />
      <g
         style="fill:#eac102;fill-opacity:1;stroke-width:1.72727478;stroke-miterlimit:4;stroke-dasharray:none"
         id="g6109"
         transform="matrix(-1.1236719,0,0,1.193157,-182.64013,-349.89536)">
        <path
           sodipodi:nodetypes="csscc"
           id="path6736"
           d="m 160.12376,722.34264 c -2.0838,-0.23943 -5.46391,-0.82047 -10.63268,-3.99323 -5.16875,-3.17274 -12.59649,-13.90057 -12.33979,-11.73326 0.25668,2.16735 6.21228,16.31773 11.92159,21.49626 1.20874,1.05743 2.56013,2.48753 4.87299,3.09217"
           style="fill:#cc0000;fill-opacity:1;fill-rule:evenodd;stroke:#000000;stroke-width:1.30854154;stroke-linecap:butt;stroke-linejoin:miter;stroke-miterlimit:4;stroke-opacity:1;stroke-dasharray:none;display:inline"
           inkscape:connector-curvature="0" />
        <path
           sodipodi:nodetypes="cc"
           id="path6101"
           d="m 153.88445,731.23885 c 4.95617,1.50685 8.87401,-8.8162 5.86197,-8.9219"
           style="fill:#cc0000;fill-opacity:1;stroke:#000000;stroke-width:1.30854154;stroke-linecap:butt;stroke-linejoin:miter;stroke-miterlimit:4;stroke-opacity:1;stroke-dasharray:none"
           inkscape:connector-curvature="0" />
      </g>
    </g>
  </g>
  <g
     inkscape:groupmode="layer"
     id="layer1"
     inkscape:label="Cover"
     style="display:inline"
     sodipodi:insensitive="true">
    <path
       d="m 2,2 v 257 c 0,286 298,398 298,398 0,0 298,-112 298,-398 V 2 z"
       id="shine"
       inkscape:connector-curvature="0"
       style="fill:url(#radialGradient3074);stroke:#000000;stroke-width:3" />
  </g>
</svg>
