<?xml version="1.0" encoding="UTF-8" standalone="no"?>
<svg
   xmlns:dc="http://purl.org/dc/elements/1.1/"
   xmlns:cc="http://creativecommons.org/ns#"
   xmlns:rdf="http://www.w3.org/1999/02/22-rdf-syntax-ns#"
   xmlns:svg="http://www.w3.org/2000/svg"
   xmlns="http://www.w3.org/2000/svg"
   xmlns:xlink="http://www.w3.org/1999/xlink"
   xmlns:sodipodi="http://sodipodi.sourceforge.net/DTD/sodipodi-0.dtd"
   xmlns:inkscape="http://www.inkscape.org/namespaces/inkscape"
   width="600"
   height="660"
   id="svg2"
   version="1.1"
   inkscape:version="0.48.2 r9819"
   sodipodi:docname="House_Qoherys.svg">
  <metadata
     id="metadata24">
    <rdf:RDF>
      <cc:Work
         rdf:about="">
        <dc:format>image/svg+xml</dc:format>
        <dc:type
           rdf:resource="http://purl.org/dc/dcmitype/StillImage" />
        <dc:title />
      </cc:Work>
    </rdf:RDF>
  </metadata>
  <sodipodi:namedview
     pagecolor="#ffffff"
     bordercolor="#666666"
     borderopacity="1"
     objecttolerance="10"
     gridtolerance="10"
     guidetolerance="10"
     inkscape:pageopacity="0"
     inkscape:pageshadow="2"
     inkscape:window-width="1366"
     inkscape:window-height="715"
     id="namedview22"
     showgrid="false"
     inkscape:zoom="1.011377"
     inkscape:cx="108.51598"
     inkscape:cy="283.83907"
     inkscape:window-x="-8"
     inkscape:window-y="-8"
     inkscape:window-maximized="1"
     inkscape:current-layer="layer2" />
  <defs
     id="defs4">
    <linearGradient
       id="linearGradient4445">
      <stop
         style="stop-color:#cc0000;stop-opacity:1;"
         offset="0"
         id="stop4447" />
      <stop
         id="stop4461"
         offset="0.25"
         style="stop-color:#ffff00;stop-opacity:1;" />
      <stop
         id="stop4459"
         offset="0.5"
         style="stop-color:#cc0000;stop-opacity:0.78431374;" />
      <stop
         style="stop-color:#ffff00;stop-opacity:1;"
         offset="0.75"
         id="stop4474" />
      <stop
         style="stop-color:#cc0000;stop-opacity:1;"
         offset="1"
         id="stop4449" />
    </linearGradient>
    <inkscape:path-effect
       effect="spiro"
       id="path-effect3059"
       is_visible="true" />
    <inkscape:path-effect
       effect="spiro"
       id="path-effect4012"
       is_visible="true" />
    <inkscape:path-effect
       effect="spiro"
       id="path-effect3980"
       is_visible="true" />
    <radialGradient
       id="rg"
       gradientUnits="userSpaceOnUse"
       cx="220"
       cy="220"
       r="405">
      <stop
         style="stop-color:#fff;stop-opacity:.3"
         offset="0"
         id="stop7" />
      <stop
         style="stop-color:#fff;stop-opacity:.2"
         offset=".2"
         id="stop9" />
      <stop
         style="stop-color:#666;stop-opacity:.1"
         offset=".6"
         id="stop11" />
      <stop
         style="stop-color:#000;stop-opacity:.13"
         offset="1"
         id="stop13" />
    </radialGradient>
    <path
       id="shield"
       d="m2,2v257c0,286 298,398 298,398c0,0 298-112 298-398V2z" />
    <radialGradient
       inkscape:collect="always"
       xlink:href="#rg-7"
       id="radialGradient3055-1"
       gradientUnits="userSpaceOnUse"
       cx="220"
       cy="220"
       r="405" />
    <radialGradient
       id="rg-7"
       gradientUnits="userSpaceOnUse"
       cx="220"
       cy="220"
       r="405">
      <stop
         style="stop-color:#fff;stop-opacity:.3"
         offset="0"
         id="stop7-4" />
      <stop
         style="stop-color:#fff;stop-opacity:.2"
         offset=".2"
         id="stop9-0" />
      <stop
         style="stop-color:#666;stop-opacity:.1"
         offset=".6"
         id="stop11-9" />
      <stop
         style="stop-color:#000;stop-opacity:.13"
         offset="1"
         id="stop13-4" />
    </radialGradient>
    <radialGradient
       r="405"
       cy="220"
       cx="220"
       gradientUnits="userSpaceOnUse"
       id="radialGradient3074"
       xlink:href="#rg-7"
       inkscape:collect="always" />
    <radialGradient
       inkscape:collect="always"
       xlink:href="#linearGradient4445"
       id="radialGradient4457"
       cx="273.65625"
       cy="280.40402"
       fx="273.65625"
       fy="280.40402"
       r="271.15625"
       gradientTransform="matrix(1,0,0,1.0267292,0,-7.494966)"
       gradientUnits="userSpaceOnUse" />
    <radialGradient
       inkscape:collect="always"
       xlink:href="#linearGradient4445"
       id="radialGradient4504"
       gradientUnits="userSpaceOnUse"
       gradientTransform="matrix(-1,0,0,1.0267292,601,-7.494966)"
       cx="273.65625"
       cy="280.40402"
       fx="273.65625"
       fy="280.40402"
       r="271.15625" />
    <radialGradient
       inkscape:collect="always"
       xlink:href="#linearGradient4445-7"
       id="radialGradient4457-1"
       cx="273.65625"
       cy="280.40402"
       fx="273.65625"
       fy="280.40402"
       r="271.15625"
       gradientTransform="matrix(1,0,0,1.0267292,0,-7.494966)"
       gradientUnits="userSpaceOnUse" />
    <linearGradient
       id="linearGradient4445-7">
      <stop
         style="stop-color:#cc0000;stop-opacity:1;"
         offset="0"
         id="stop4447-4" />
      <stop
         id="stop4461-0"
         offset="0.25"
         style="stop-color:#ffff00;stop-opacity:1;" />
      <stop
         id="stop4459-9"
         offset="0.5"
         style="stop-color:#cc0000;stop-opacity:0.78431374;" />
      <stop
         style="stop-color:#ffff00;stop-opacity:1;"
         offset="0.75"
         id="stop4474-4" />
      <stop
         style="stop-color:#cc0000;stop-opacity:1;"
         offset="1"
         id="stop4449-8" />
    </linearGradient>
    <radialGradient
       inkscape:collect="always"
       xlink:href="#linearGradient4445-7"
       id="radialGradient4504-8"
       gradientUnits="userSpaceOnUse"
       gradientTransform="matrix(-1,0,0,1.0267292,601,-7.494966)"
       cx="273.65625"
       cy="280.40402"
       fx="273.65625"
       fy="280.40402"
       r="271.15625" />
    <linearGradient
       id="linearGradient3068">
      <stop
         style="stop-color:#cc0000;stop-opacity:1;"
         offset="0"
         id="stop3070" />
      <stop
         id="stop3072"
         offset="0.25"
         style="stop-color:#ffff00;stop-opacity:1;" />
      <stop
         id="stop3074"
         offset="0.5"
         style="stop-color:#cc0000;stop-opacity:0.78431374;" />
      <stop
         style="stop-color:#ffff00;stop-opacity:1;"
         offset="0.75"
         id="stop3076" />
      <stop
         style="stop-color:#cc0000;stop-opacity:1;"
         offset="1"
         id="stop3078" />
    </linearGradient>
  </defs>
  <g
     inkscape:groupmode="layer"
     id="layer2"
     inkscape:label="Elements"
     style="display:inline">
    <path
       inkscape:connector-curvature="0"
       d="m 598.5,2 v 257 c 0,286 -298,398 -298,398 0,0 -298,-112 -298,-398 V 2 z"
       id="path13"
       style="fill:#000000;fill-opacity:1;stroke:none;display:inline" />
    <g
       style="display:inline"
       transform="matrix(-0.45914007,0,0,0.45914007,361.19995,-128.66241)"
       id="g15841">
      <path
         d="m 53.60113,529.66139 c 5.26471,12.58543 10.84511,25.87064 11.37174,38.7679 -2.42142,10.40118 -1.6846,22.67479 0.94775,32.45231 3.36996,13.41748 16.53176,29.33105 29.69432,34.63584 13.47747,4.83629 21.90118,6.08509 36.95783,6.08509 15.0574,-2e-5 23.48033,-1.24806 36.64213,-6.55285 13.16259,-5.30478 26.48222,-20.75061 29.85216,-34.1681 2.63237,-9.77752 3.36919,-22.05112 0.94778,-32.4523 0.52662,-12.89727 6.107,-26.68802 11.37173,-39.27346"
         id="path15843"
         inkscape:connector-curvature="0"
         style="fill:#ffffff;stroke:#000000;stroke-width:4.17805529" />
      <path
         d="M 35.90305,486.13908 C 21.3822,472.19466 11.23368,447.99449 9.82531,421.86113 8.29628,393.06227 23.64957,364.46572 46.65637,348.16304 c 25.77649,-17.92201 68.87543,-22.87867 95.67406,-21.54105 18.15184,0.0115 58.58578,9.30993 72.85851,19.80967 25.03665,17.9825 38.4633,43.50562 39.39361,72.5968 1.37574,29.22088 -11.08339,51.47739 -26.33955,65.36786"
         id="path15845"
         inkscape:connector-curvature="0"
         style="fill:#ffffff;stroke:#000000;stroke-width:4.17805529" />
      <path
         d="m 228.31266,403.77872 c 5.88241,5.08363 5.14028,12.72561 4.08096,24.13047 -0.83623,8.66514 -6.43331,17.19462 -6.72774,25.11092 -2.05791,16.7044 2.9412,33.40877 5.29432,47.06312 1.61782,15.68721 -2.94196,29.19614 -8.82361,34.4252 -5.88165,5.15711 -16.64632,7.9268 -21.45045,9.69656 -5.59784,1.93467 -11.32166,5.44045 -16.48771,9.47769 -6.21479,5.91269 -8.25868,27.36816 -8.14047,34.30998 -10.86198,6.4411 -23.77554,4.82005 -43.04512,4.91679 -17.2974,0.30734 -33.19182,2.25965 -44.26568,-4.47816 0.24172,-6.94397 -1.31613,-27.77571 -7.84658,-34.62463 -5.48175,-4.03724 -9.2402,-7.29341 -16.48773,-9.16586 -7.97677,-2.40391 -15.5688,-4.53945 -21.45043,-9.69656 -5.88167,-5.22908 -10.44145,-18.73799 -8.82362,-34.42521 2.35311,-13.65434 7.35224,-30.35873 5.29431,-47.06311 -0.29442,-7.9163 -5.89152,-16.44579 -6.72772,-25.11094 -1.05934,-11.40484 -1.80146,-19.04682 4.08095,-24.13046"
         id="path15847"
         inkscape:connector-curvature="0"
         style="fill:#ffffff;stroke:#000000;stroke-width:4.17805529" />
      <path
         d="m 197.57876,462.15251 c -10.21376,-1.76824 -20.11111,-2.9121 -30.32488,-4.05595 -13.37277,-3.32891 -20.11189,11.75339 -16.42628,23.09079 4.63262,10.08934 11.16079,18.93065 18.63672,27.45936 5.79135,6.44863 12.69058,7.49204 19.26958,5.30403 5.31026,-1.45419 10.21454,-4.67963 15.47926,-12.16868 2.31593,-6.44939 4.31619,-9.77826 7.26499,-17.78678 2.31593,-7.38485 -1.28622,-18.43967 -13.89939,-21.84277 z m -130.58004,0 c 10.21377,-1.76824 20.11111,-2.9121 30.32488,-4.05595 13.37276,-3.32891 20.1119,11.75339 16.42628,23.09079 -4.63263,10.08934 -11.16079,18.93065 -18.63671,27.45936 -5.79136,6.44863 -12.6906,7.49204 -19.2696,5.30403 -5.31025,-1.45419 -10.21454,-4.67963 -15.47926,-12.16868 -2.31593,-6.44939 -4.31618,-9.77826 -7.26498,-17.78678 -2.31592,-7.38485 1.28622,-18.43967 13.89939,-21.84277 z"
         id="path15849"
         inkscape:connector-curvature="0"
         style="fill:#000000;stroke:none" />
      <path
         d="m 80.92315,582.53536 c -5.1456,-17.09559 -7.35286,-23.15071 -12.72554,-36.1047 0.14665,-0.48754 6.7385,2.92598 10.73686,5.91926 3.14226,2.35238 6.06294,7.69047 7.58519,11.81068 1.29539,3.50622 1.38549,4.832 1.34642,19.81219 -0.0194,7.45525 -0.10045,5.4655 -0.18027,7.40764 l -0.14484,3.53115 c -2.04669,-1.98089 -5.32338,-8.07563 -6.61782,-12.37622 z m 106.29597,-1.38504 c 4.14312,-17.36581 3.76804,-21.76567 9.14072,-34.71966 -0.14665,-0.48754 -6.7385,2.92598 -10.73686,5.91926 -3.14226,2.35238 -6.06294,7.69047 -7.58519,11.81068 -1.29539,3.50622 -1.38549,4.832 -1.34642,19.81219 0.0194,7.45525 0.10045,5.4655 0.18027,7.40764 l 0.14484,3.53115 c 2.04669,-1.98089 8.82674,-7.99415 10.20264,-13.76126 z"
         id="path15851"
         inkscape:connector-curvature="0"
         style="fill:#000000;stroke:none" />
      <path
         d="m 134.63169,504.24145 c 7.35755,5.52665 8.99435,7.38262 13.06013,13.49842 1.47136,2.36044 4.21906,7.8766 4.9703,11.57726 0.75046,3.69993 1.31275,9.06842 1.31048,11.91157 -0.008,9.63435 -3.11345,15.67823 -6.50388,15.46761 -3.02923,-0.34334 -12.72818,-7.09294 -12.72548,-10.55111 0.0115,-13.86731 -0.15093,-23.80712 -0.11147,-41.90375 z m -5.09199,0 c -7.35755,5.52665 -8.99435,7.38262 -13.06013,13.49842 -1.47136,2.36044 -4.21906,7.8766 -4.9703,11.57726 -0.75046,3.69993 -1.31275,9.06842 -1.31048,11.91157 0.008,9.63435 3.11345,15.67823 6.50388,15.46761 3.02923,-0.34334 12.72818,-7.09294 12.72548,-10.55111 -0.0115,-13.86731 0.15093,-23.80712 0.11147,-41.90375 z"
         id="path15853"
         inkscape:connector-curvature="0"
         style="fill:#000000;stroke:none" />
      <g
         transform="translate(-167.79661,155.08475)"
         id="g15855"
         style="fill:#ffff00;stroke:#000000;stroke-width:4.17805529">
        <path
           d="m 344.72086,430.40813 c -0.2303,-1.2555 -6.51853,-2.12531 -7.25258,-0.62184 l 0.33732,8.70547 c 1.67103,4.63509 3.83895,4.69012 6.40926,1.03639 l 0.506,-9.12002 z"
           id="path15857"
           inkscape:connector-curvature="0"
           style="fill:#ffffff;stroke-width:4.17805529" />
        <path
           d="m 339.64404,432.68511 c -0.23028,-1.25549 -6.51854,-2.12527 -7.25259,-0.62183 l 0.33732,8.70548 c 1.67103,4.63506 3.83896,4.69013 6.4093,1.03637 l 0.50597,-9.12002 z"
           id="path15859"
           inkscape:connector-curvature="0"
           style="fill:#ffffff;stroke-width:4.17805529" />
        <path
           d="m 335.29251,435.28736 c -0.2303,-1.25549 -6.51858,-2.12527 -7.25261,-0.62181 l 0.33731,8.70546 c 1.67103,4.63507 3.83895,4.69013 6.4093,1.03639 l 0.506,-9.12004 z"
           id="path15861"
           inkscape:connector-curvature="0"
           style="fill:#ffffff;stroke-width:4.17805529" />
        <path
           d="m 330.06418,437.41439 c -0.21396,-1.41089 -6.05645,-2.38832 -6.73846,-0.69878 l 0.31341,9.78296 c 1.55257,5.20875 3.5668,5.2706 5.95489,1.16466 l 0.47016,-10.24884 z"
           id="path15863"
           inkscape:connector-curvature="0"
           style="fill:#ffffff;stroke-width:4.17805529" />
        <path
           d="m 325.13894,438.6489 c -0.24195,-1.52254 -6.84448,-2.57734 -7.61525,-0.7541 l 0.35419,10.55713 c 1.75457,5.62097 4.03091,5.68772 6.72977,1.25683 l 0.53129,-11.05986 z"
           id="path15865"
           inkscape:connector-curvature="0"
           style="fill:#ffffff;stroke-width:4.17805529" />
        <path
           d="m 317.5217,440.73743 c -0.24171,-1.47306 -6.84271,-2.49356 -7.61327,-0.72956 l 0.35412,10.21399 c 1.7541,5.43823 4.02984,5.50281 6.728,1.21593 l 0.53115,-10.70036 z"
           id="path15867"
           inkscape:connector-curvature="0"
           style="fill:#ffffff;stroke-width:4.17805529" />
        <path
           d="m 310.19049,441.52837 c -0.32887,-1.59738 -9.30696,-2.704 -10.35497,-0.79114 l 0.4816,11.07595 c 2.38581,5.89722 5.48108,5.96724 9.15091,1.31859 l 0.72246,-11.6034 z"
           id="path15869"
           inkscape:connector-curvature="0"
           style="fill:#ffffff;stroke-width:4.17805529" />
        <path
           d="m 255.14891,430.40813 c 0.23028,-1.2555 6.51854,-2.12531 7.2526,-0.62184 l -0.33733,8.70547 c -1.67103,4.63509 -3.83896,4.69012 -6.40928,1.03639 l -0.50599,-9.12002 z"
           id="path15871"
           inkscape:connector-curvature="0"
           style="fill:#ffffff;stroke-width:4.17805529" />
        <path
           d="m 260.22574,432.68511 c 0.23028,-1.25549 6.51855,-2.12527 7.25259,-0.62183 l -0.33733,8.70548 c -1.67102,4.63506 -3.83895,4.69013 -6.40928,1.03637 l -0.50598,-9.12002 z"
           id="path15873"
           inkscape:connector-curvature="0"
           style="fill:#ffffff;stroke-width:4.17805529" />
        <path
           d="m 264.57727,435.28736 c 0.2303,-1.25549 6.51857,-2.12527 7.25261,-0.62181 l -0.33731,8.70546 c -1.67103,4.63507 -3.83897,4.69013 -6.4093,1.03639 l -0.506,-9.12004 z"
           id="path15875"
           inkscape:connector-curvature="0"
           style="fill:#ffffff;stroke-width:4.17805529" />
        <path
           d="m 269.80561,437.41439 c 0.21395,-1.41089 6.05643,-2.38832 6.73845,-0.69878 l -0.3134,9.78296 c -1.55258,5.20875 -3.56681,5.2706 -5.95492,1.16466 l -0.47013,-10.24884 z"
           id="path15877"
           inkscape:connector-curvature="0"
           style="fill:#ffffff;stroke-width:4.17805529" />
        <path
           d="m 274.73081,438.6489 c 0.24195,-1.52254 6.84451,-2.57734 7.61525,-0.7541 l -0.3542,10.55713 c -1.75455,5.62097 -4.03087,5.68772 -6.72973,1.25683 l -0.53132,-11.05986 z"
           id="path15879"
           inkscape:connector-curvature="0"
           style="fill:#ffffff;stroke-width:4.17805529" />
        <path
           d="m 282.34808,440.73743 c 0.24171,-1.47306 6.84271,-2.49356 7.61325,-0.72956 l -0.3541,10.21399 c -1.7541,5.43823 -4.02984,5.50281 -6.728,1.21593 l -0.53115,-10.70036 z"
           id="path15881"
           inkscape:connector-curvature="0"
           style="fill:#ffffff;stroke-width:4.17805529" />
        <path
           d="m 289.67928,441.52837 c 0.32888,-1.59738 9.30695,-2.704 10.35498,-0.79114 l -0.48158,11.07595 c -2.38582,5.89722 -5.48109,5.96724 -9.15092,1.31859 l -0.72248,-11.6034 z"
           id="path15883"
           inkscape:connector-curvature="0"
           style="fill:#ffffff;stroke-width:4.17805529" />
        <path
           d="m 344.14969,429.77125 c -0.22121,1.30484 -6.25826,2.20887 -6.96297,0.64626 l 0.32385,-9.04775 c 1.60428,-4.81731 3.68565,-4.87452 6.15333,-1.07712 l 0.48579,9.47861 z"
           id="path15885"
           inkscape:connector-curvature="0"
           style="fill:#ffffff;stroke-width:4.17805529" />
        <path
           d="m 339.27561,431.46163 c -0.22121,1.30486 -6.25823,2.20885 -6.96297,0.64625 l 0.32386,-9.04772 c 1.60427,-4.81733 3.68564,-4.87454 6.15332,-1.07714 l 0.48579,9.47861 z"
           id="path15887"
           inkscape:connector-curvature="0"
           style="fill:#ffffff;stroke-width:4.17805529" />
        <path
           d="m 335.09785,433.53659 c -0.22122,1.56325 -6.25824,2.64626 -6.963,0.77424 l 0.32384,-10.83952 c 1.60432,-5.7713 3.68569,-5.83988 6.15337,-1.29044 l 0.48579,11.35572 z"
           id="path15889"
           inkscape:connector-curvature="0"
           style="fill:#ffffff;stroke-width:4.17805529" />
        <path
           d="m 330.92011,436.70856 c -0.30959,2.04778 -8.76152,3.46648 -9.74817,1.01422 l 0.45343,-14.19911 c 2.24596,-7.56004 5.15986,-7.64983 8.61462,-1.69038 l 0.68012,14.87527 z"
           id="path15891"
           inkscape:connector-curvature="0"
           style="fill:#ffffff;stroke-width:4.17805529" />
        <path
           d="m 322.56458,438.80989 c -0.30963,1.98317 -8.76155,3.3571 -9.74819,0.98223 l 0.45342,-13.75118 c 2.24598,-7.32154 5.15989,-7.4085 8.61464,-1.63703 l 0.68013,14.40598 z"
           id="path15893"
           inkscape:connector-curvature="0"
           style="fill:#ffffff;stroke-width:4.17805529" />
        <path
           d="m 314.55718,441.44158 c -0.47545,2.04779 -13.45522,3.46645 -14.97039,1.01423 l 0.6963,-14.19908 c 3.44919,-7.56008 7.92409,-7.64986 13.22963,-1.69041 l 1.04446,14.87526 z"
           id="path15895"
           inkscape:connector-curvature="0"
           style="fill:#ffffff;stroke-width:4.17805529" />
        <path
           d="m 255.72007,429.77125 c 0.22121,1.30484 6.25826,2.20887 6.96297,0.64626 l -0.32386,-9.04775 c -1.60427,-4.81731 -3.68562,-4.87452 -6.1533,-1.07712 l -0.48581,9.47861 z"
           id="path15897"
           inkscape:connector-curvature="0"
           style="fill:#ffffff;stroke-width:4.17805529" />
        <path
           d="m 260.59414,431.46163 c 0.22123,1.30486 6.25824,2.20885 6.96299,0.64625 l -0.32387,-9.04772 c -1.60428,-4.81733 -3.68565,-4.87454 -6.15333,-1.07714 l -0.48579,9.47861 z"
           id="path15899"
           inkscape:connector-curvature="0"
           style="fill:#ffffff;stroke-width:4.17805529" />
        <path
           d="m 264.77193,433.53659 c 0.22123,1.56325 6.25824,2.64626 6.96299,0.77424 l -0.32387,-10.83952 c -1.60429,-5.7713 -3.68567,-5.83988 -6.15335,-1.29044 l -0.48577,11.35572 z"
           id="path15901"
           inkscape:connector-curvature="0"
           style="fill:#ffffff;stroke-width:4.17805529" />
        <path
           d="m 268.94965,436.70856 c 0.3096,2.04778 8.76155,3.46648 9.74816,1.01422 l -0.45342,-14.19911 c -2.24598,-7.56004 -5.15987,-7.64983 -8.61463,-1.69038 l -0.68011,14.87527 z"
           id="path15903"
           inkscape:connector-curvature="0"
           style="fill:#ffffff;stroke-width:4.17805529" />
        <path
           d="m 277.30519,438.80989 c 0.30961,1.98317 8.76154,3.3571 9.74818,0.98223 l -0.4534,-13.75118 c -2.24599,-7.32154 -5.15989,-7.4085 -8.61465,-1.63703 l -0.68013,14.40598 z"
           id="path15905"
           inkscape:connector-curvature="0"
           style="fill:#ffffff;stroke-width:4.17805529" />
        <path
           d="m 285.31258,441.44158 c 0.47544,2.04779 13.4552,3.46645 14.97041,1.01423 l -0.69633,-14.19908 c -3.44919,-7.56008 -7.92409,-7.64986 -13.22963,-1.69041 l -1.04445,14.87526 z"
           id="path15907"
           inkscape:connector-curvature="0"
           style="fill:#ffffff;stroke-width:4.17805529" />
      </g>
    </g>
    <g
       style="display:inline"
       id="g3609" />
    <use
       style="display:inline"
       x="0"
       y="0"
       xlink:href="#g15841"
       id="use3571"
       transform="translate(2.966253,449.83671)"
       width="600"
       height="660" />
    <use
       style="display:inline"
       x="0"
       y="0"
       xlink:href="#g15841"
       id="use3573"
       transform="translate(220.49147,213.43523)"
       width="600"
       height="660" />
    <use
       style="display:inline"
       height="660"
       width="600"
       transform="matrix(-1,0,0,1,380.50853,213.43523)"
       id="use3599"
       xlink:href="#g15841"
       y="0"
       x="0" />
    <g
       style="display:inline"
       id="g3613"
       transform="translate(255.49172,-255.5145)" />
    <path
       id="path3675"
       d="m 85.90625,2 c -3.76457,5.1559209 -5.91993,12.180884 -5.625,22.53125 0.626,21.96906 -9.77067,29.0593 -23.21875,34.875 21.9613,0.61835 29.0285,-9.79736 34.84375,-23.25 5.81729,-13.45736 12.83302,-23.84505 34.8125,-23.21875 -13.45736,5.81729 -23.8138,12.86428 -23.1875,34.84375 0.6263,21.97949 -9.79264,29.02646 -23.25,34.84375 21.97948,0.62629 29.02646,-9.76139 34.84375,-23.21875 5.81729,-13.45736 12.86426,-23.8763 34.84375,-23.25 -13.45736,5.81728 -23.8763,12.86425 -23.25,34.84375 0.6263,21.97947 -9.73014,29.02646 -23.1875,34.84375 21.97949,0.6263 28.99522,-9.76139 34.8125,-23.21875 5.8173,-13.45736 12.86427,-23.84505 34.84375,-23.21875 -13.45737,5.81729 -23.84506,12.833 -23.21875,34.8125 0.6263,21.97948 -9.79265,29.02647 -23.25,34.84375 21.97948,0.6263 29.02646,-9.7614 34.84375,-23.21875 5.81729,-13.45736 12.86426,-23.84505 34.84375,-23.21875 -13.45736,5.81729 -23.84505,12.86427 -23.21875,34.84375 0.626,21.96906 -9.77067,29.02805 -23.21875,34.84375 21.96129,0.61834 29.0285,-9.76612 34.84375,-23.21875 5.81731,-13.45736 12.83302,-23.8763 34.8125,-23.25 -13.45736,5.81729 -23.84506,12.86426 -23.21875,34.84375 0.6263,21.97948 -9.76139,29.02646 -23.21875,34.84375 21.97948,0.6263 28.99521,-9.76139 34.8125,-23.21875 5.81729,-13.45736 12.89551,-23.84505 34.875,-23.21875 -13.45737,5.81728 -23.8763,12.83301 -23.25,34.8125 0.6263,21.97948 -9.76141,29.05771 -23.21875,34.875 21.97947,0.62631 29.02647,-9.79263 34.84375,-23.25 5.8173,-13.45735 12.86427,-23.84506 34.84375,-23.21875 -13.45735,5.81729 -23.84505,12.86427 -23.21875,34.84375 0.6263,21.97949 -9.79264,29.02646 -23.25,34.84375 21.97948,0.62629 29.05771,-9.7614 34.875,-23.21875 5.81729,-13.45736 12.83302,-23.8763 34.8125,-23.25 -13.45736,5.8173 -23.84505,12.86426 -23.21875,34.84375 0.6263,21.97948 -9.7614,29.02645 -23.21875,34.84375 21.97947,0.62628 29.02646,-9.7614 34.84375,-23.21875 5.81729,-13.45736 12.83303,-23.84505 34.8125,-23.21875 -13.45734,5.81729 -23.84505,12.83302 -23.21875,34.8125 0.6263,21.97948 -9.76138,29.02646 -23.21875,34.84375 21.97949,0.6263 29.02646,-9.7614 34.84375,-23.21875 5.81729,-13.45736 12.86427,-23.84505 34.84375,-23.21875 -13.45736,5.81728 -23.8763,12.86426 -23.25,34.84375 0.62631,21.97948 -9.76138,29.02645 -23.21875,34.84375 21.97948,0.62631 29.02645,-9.79263 34.84375,-23.25 5.81728,-13.45736 12.86427,-23.84505 34.84375,-23.21875 -13.45735,5.81728 -23.84505,12.86427 -23.21875,34.84375 0.626,21.96906 -9.77067,29.02805 -23.21875,34.84375 21.9613,0.61835 29.0285,-9.76611 34.84375,-23.21875 5.81729,-13.45736 12.83302,-23.8763 34.8125,-23.25 -13.45736,5.81729 -23.84505,12.86428 -23.21875,34.84375 0.6263,21.97949 -9.76139,29.02646 -23.21875,34.84375 21.97948,0.62629 28.99521,-9.76139 34.8125,-23.21875 5.81729,-13.45736 12.89551,-23.84505 34.875,-23.21875 -13.45736,5.81728 -23.8763,12.833 -23.25,34.8125 0.6263,21.97947 -9.76139,29.05771 -23.21875,34.875 21.97949,0.6263 29.02647,-9.79264 34.84375,-23.25 5.8173,-13.45736 12.86427,-23.84505 34.84375,-23.21875 -13.45737,5.81729 -23.84506,12.86425 -23.21875,34.84375 0.6263,21.97948 -9.79265,28.99522 -23.25,34.8125 21.97948,0.6263 29.02646,-9.73015 34.84375,-23.1875 5.81729,-13.45736 12.86426,-23.8763 34.84375,-23.25 -13.45736,5.81729 -23.84505,12.86427 -23.21875,34.84375 0.626,21.96906 -9.77067,29.02805 -23.21875,34.84375 21.96129,0.61834 28.99725,-9.79737 34.8125,-23.25 5.81731,-13.45736 12.86427,-23.84505 34.84375,-23.21875 -13.45736,5.81729 -23.84506,12.86426 -23.21875,34.84375 0.6263,21.97948 -9.76139,29.02646 -23.21875,34.84375 21.97948,0.6263 28.99521,-9.76139 34.8125,-23.21875 5.81729,-13.45736 12.89551,-23.8763 34.875,-23.25 -13.45737,5.81728 -23.8763,12.86426 -23.25,34.84375 0.6263,21.97948 -9.76141,29.02646 -23.21875,34.84375 21.97947,0.62631 29.02647,-9.76138 34.84375,-23.21875 5.8173,-13.45735 12.83302,-23.84506 34.8125,-23.21875 -13.45735,5.81729 -23.8138,12.86427 -23.1875,34.84375 0.6263,21.97949 -9.79264,28.99521 -23.25,34.8125 21.97948,0.62629 29.02646,-9.7614 34.84375,-23.21875 5.81729,-13.45736 12.86427,-23.84505 34.84375,-23.21875 -13.45736,5.8173 -23.8763,12.86426 -23.25,34.84375 0.6263,21.97948 -9.73015,29.02645 -23.1875,34.84375 6.35695,0.18113 11.43606,-0.5598 15.625,-2.03125 -3.76281,4.7481 -7.5826,9.39048 -11.46875,13.90625 -16.24579,1.71788 -22.30346,11.16428 -27.40625,22.96875 -2.54506,5.8876 -5.30788,11.16762 -9.46875,15.21875 -5.34969,5.2086 -13.01154,8.35229 -25.375,8 13.45736,-5.81728 23.84505,-12.86427 23.21875,-34.84375 -0.6263,-21.97948 9.79265,-29.02645 23.25,-34.84375 -21.97947,-0.6263 -29.02647,9.79263 -34.84375,23.25 -5.8173,13.45736 -12.86427,23.84506 -34.84375,23.21875 13.45737,-5.81729 23.84505,-12.86428 23.21875,-34.84375 -0.6263,-21.97951 9.7614,-29.02647 23.21875,-34.84375 -21.97948,-0.6263 -28.99521,9.7614 -34.8125,23.21875 -5.81729,13.45736 -12.86426,23.8763 -34.84375,23.25 13.45736,-5.81729 23.84505,-12.89552 23.21875,-34.875 -0.6263,-21.9795 9.7614,-28.99521 23.21875,-34.8125 -21.97947,-0.6263 -29.02647,9.76139 -34.84375,23.21875 -5.8173,13.45736 -12.86428,23.84505 -34.84375,23.21875 13.45735,-5.81729 23.8763,-12.86427 23.25,-34.84375 -0.6263,-21.97948 9.76139,-29.02646 23.21875,-34.84375 -21.97948,-0.6263 -29.02646,9.79264 -34.84375,23.25 -5.81729,13.45736 -12.83301,23.84505 -34.8125,23.21875 13.45736,-5.81729 23.8138,-12.86426 23.1875,-34.84375 -0.6263,-21.97949 9.79265,-29.02646 23.25,-34.84375 -21.97947,-0.62631 -29.02645,9.79264 -34.84375,23.25 -5.81728,13.45737 -12.86427,23.84505 -34.84375,23.21875 13.45735,-5.81729 23.8763,-12.86427 23.25,-34.84375 -0.6263,-21.97948 9.73014,-29.02647 23.1875,-34.84375 -21.97949,-0.6263 -28.99521,9.76139 -34.8125,23.21875 -5.81729,13.45736 -12.86427,23.8763 -34.84375,23.25 13.45736,-5.8173 23.84505,-12.8955 23.21875,-34.875 -0.6263,-21.97947 9.79263,-28.99522 23.25,-34.8125 -21.97948,-0.62631 -29.0577,9.76138 -34.875,23.21875 -5.81728,13.45737 -12.83302,23.84505 -34.8125,23.21875 13.45735,-5.8173 23.84505,-12.83302 23.21875,-34.8125 -0.6263,-21.97948 9.76138,-29.05773 23.21875,-34.875 -21.97949,-0.6263 -29.02646,9.79263 -34.84375,23.25 -5.81729,13.45734 -12.83302,23.84505 -34.8125,23.21875 13.45736,-5.8173 23.84505,-12.86427 23.21875,-34.84375 -0.62601,-21.96894 9.73955,-29.02807 23.1875,-34.84375 -21.96129,-0.61834 -28.99724,9.7661 -34.8125,23.21875 -5.81728,13.45735 -12.86426,23.87629 -34.84375,23.25 13.45736,-5.81729 23.8763,-12.86427 23.25,-34.84375 -0.6263,-21.97948 9.76139,-29.02646 23.21875,-34.84375 -21.9795,-0.6263 -29.02647,9.76139 -34.84375,23.21875 -5.8173,13.45736 -12.89552,23.84504 -34.875,23.21875 13.45736,-5.8173 23.87631,-12.83302 23.25,-34.8125 -0.6263,-21.97948 9.79264,-29.02646 23.25,-34.84375 -21.97948,-0.62629 -29.05771,9.7614 -34.875,23.21875 -5.81728,13.45736 -12.83301,23.84505 -34.8125,23.21875 13.45736,-5.81728 23.8138,-12.86427 23.1875,-34.84375 -0.6263,-21.97948 9.79265,-29.02645 23.25,-34.84375 -21.97947,-0.6263 -29.02647,9.79263 -34.84375,23.25 -5.8173,13.45736 -12.86427,23.84506 -34.84375,23.21875 13.45737,-5.81729 23.8763,-12.86428 23.25,-34.84375 -0.6263,-21.97951 9.73015,-29.02647 23.1875,-34.84375 -21.97948,-0.6263 -28.99521,9.7614 -34.8125,23.21875 -5.81729,13.45736 -12.86426,23.8763 -34.84375,23.25 13.45736,-5.81729 23.84505,-12.86427 23.21875,-34.84375 -0.6263,-21.9795 9.79265,-29.02646 23.25,-34.84375 -21.97947,-0.6263 -29.05772,9.76139 -34.875,23.21875 -5.8173,13.45736 -12.83303,23.84505 -34.8125,23.21875 13.45735,-5.81729 23.84505,-12.83302 23.21875,-34.8125 -0.6263,-21.97948 9.76139,-29.05771 23.21875,-34.875 -21.97948,-0.6263 -29.02646,9.79264 -34.84375,23.25 -5.81729,13.45736 -12.83301,23.84505 -34.8125,23.21875 13.45736,-5.81729 23.84505,-12.89551 23.21875,-34.875 -0.6263,-21.97949 9.7614,-28.99521 23.21875,-34.8125 -21.97947,-0.62631 -28.9952,9.76139 -34.8125,23.21875 -5.81728,13.45737 -12.89552,23.84505 -34.875,23.21875 13.45735,-5.81729 23.8763,-12.83302 23.25,-34.8125 -0.6263,-21.97948 9.76139,-29.05772 23.21875,-34.875 -21.97949,-0.6263 -29.02646,9.79264 -34.84375,23.25 -5.81729,13.45736 -12.86427,23.84505 -34.84375,23.21875 13.45736,-5.8173 23.84505,-12.86425 23.21875,-34.84375 -0.6263,-21.97947 9.79263,-29.02647 23.25,-34.84375 -21.97948,-0.62631 -29.0577,9.76138 -34.875,23.21875 -5.81728,13.45737 -12.83302,23.8763 -34.8125,23.25 C 35.6761,134.8702 46.0638,127.82323 45.4375,105.84375 44.8112,83.86427 55.19888,76.81727 68.65625,71 46.67676,70.3737 39.66104,80.76138 33.84375,94.21875 28.349,106.92994 21.73543,116.89897 2.5,117.4375 l 0,-1.59375 C 14.19734,110.24813 22.7891,102.64103 22.21875,82.625 21.59274,60.65606 31.98955,53.59693 45.4375,47.78125 23.47621,47.16291 16.40901,57.54735 10.59375,71 8.34407,76.204277 5.90796,80.951289 2.5,84.78125 L 2.5,40.3125 C 6.56604,32.326938 13.78622,28.176426 22.21875,24.53125 13.64401,24.286915 7.3409,25.735079 2.5,28.375 L 2.5,2 27.125,2 C 22.9428,6.9740219 17.13079,10.111699 10.59375,12.9375 25.12822,13.351656 33.12172,8.9197244 38.5625,2 L 57.03125,2 C 57.42144,23.435878 47.15882,30.400465 33.84375,36.15625 55.82323,36.78256 62.83895,26.39487 68.65625,12.9375 70.37738,8.9559399 72.23852,5.2378224 74.53125,2 l 11.375,0 z"
       style="fill:url(#radialGradient4457-1);fill-opacity:1;fill-rule:evenodd;stroke:none;display:inline"
       inkscape:connector-curvature="0" />
    <path
       inkscape:connector-curvature="0"
       style="fill:url(#radialGradient4504-8);fill-opacity:1;fill-rule:evenodd;stroke:none;display:inline"
       d="m 515.09375,2 c 3.76457,5.1559209 5.91993,12.180884 5.625,22.53125 -0.626,21.96906 9.77067,29.0593 23.21875,34.875 -21.9613,0.61835 -29.0285,-9.79736 -34.84375,-23.25 -5.81729,-13.45736 -12.83302,-23.84505 -34.8125,-23.21875 13.45736,5.81729 23.8138,12.86428 23.1875,34.84375 -0.6263,21.97949 9.79264,29.02646 23.25,34.84375 -21.97948,0.62629 -29.02646,-9.76139 -34.84375,-23.21875 -5.81729,-13.45736 -12.86426,-23.8763 -34.84375,-23.25 13.45736,5.81728 23.8763,12.86425 23.25,34.84375 -0.6263,21.97947 9.73014,29.02646 23.1875,34.84375 -21.97949,0.6263 -28.99522,-9.76139 -34.8125,-23.21875 -5.8173,-13.45736 -12.86427,-23.84505 -34.84375,-23.21875 13.45737,5.81729 23.84506,12.833 23.21875,34.8125 -0.6263,21.97948 9.79265,29.02647 23.25,34.84375 -21.97948,0.6263 -29.02646,-9.7614 -34.84375,-23.21875 C 433.62021,92.38639 426.57324,81.9987 404.59375,82.625 c 13.45736,5.81729 23.84505,12.86427 23.21875,34.84375 -0.626,21.96906 9.77067,29.02805 23.21875,34.84375 -21.96129,0.61834 -29.0285,-9.76612 -34.84375,-23.21875 -5.81731,-13.45736 -12.83302,-23.8763 -34.8125,-23.25 13.45736,5.81729 23.84506,12.86426 23.21875,34.84375 -0.6263,21.97948 9.76139,29.02646 23.21875,34.84375 -21.97948,0.6263 -28.99521,-9.76139 -34.8125,-23.21875 -5.81729,-13.45736 -12.89551,-23.84505 -34.875,-23.21875 13.45737,5.81728 23.8763,12.83301 23.25,34.8125 -0.6263,21.97948 9.76141,29.05771 23.21875,34.875 -21.97947,0.62631 -29.02647,-9.79263 -34.84375,-23.25 -5.8173,-13.45735 -12.86427,-23.84506 -34.84375,-23.21875 13.45735,5.81729 23.84505,12.86427 23.21875,34.84375 -0.6263,21.97949 9.79264,29.02646 23.25,34.84375 -21.97948,0.62629 -29.05771,-9.7614 -34.875,-23.21875 -5.81729,-13.45736 -12.83302,-23.8763 -34.8125,-23.25 13.45736,5.8173 23.84505,12.86426 23.21875,34.84375 -0.6263,21.97948 9.7614,29.02645 23.21875,34.84375 -21.97947,0.62628 -29.02646,-9.7614 -34.84375,-23.21875 -5.81729,-13.45736 -12.83303,-23.84505 -34.8125,-23.21875 13.45734,5.81729 23.84505,12.83302 23.21875,34.8125 -0.6263,21.97948 9.76138,29.02646 23.21875,34.84375 -21.97949,0.6263 -29.02646,-9.7614 -34.84375,-23.21875 C 294.24521,231.76139 287.19823,221.3737 265.21875,222 c 13.45736,5.81728 23.8763,12.86426 23.25,34.84375 -0.62631,21.97948 9.76138,29.02645 23.21875,34.84375 -21.97948,0.62631 -29.02645,-9.79263 -34.84375,-23.25 C 271.02647,254.98014 263.97948,244.59245 242,245.21875 c 13.45735,5.81728 23.84505,12.86427 23.21875,34.84375 -0.626,21.96906 9.77067,29.02805 23.21875,34.84375 -21.9613,0.61835 -29.0285,-9.76611 -34.84375,-23.21875 -5.81729,-13.45736 -12.83302,-23.8763 -34.8125,-23.25 13.45736,5.81729 23.84505,12.86428 23.21875,34.84375 -0.6263,21.97949 9.76139,29.02646 23.21875,34.84375 -21.97948,0.62629 -28.99521,-9.76139 -34.8125,-23.21875 -5.81729,-13.45736 -12.89551,-23.84505 -34.875,-23.21875 13.45736,5.81728 23.8763,12.833 23.25,34.8125 -0.6263,21.97947 9.76139,29.05771 23.21875,34.875 -21.97949,0.6263 -29.02647,-9.79264 -34.84375,-23.25 -5.8173,-13.45736 -12.86427,-23.84505 -34.84375,-23.21875 13.45737,5.81729 23.84506,12.86425 23.21875,34.84375 -0.6263,21.97948 9.79265,28.99522 23.25,34.8125 -21.97948,0.6263 -29.02646,-9.73015 -34.84375,-23.1875 -5.81729,-13.45736 -12.86426,-23.8763 -34.84375,-23.25 13.45736,5.81729 23.84505,12.86427 23.21875,34.84375 -0.626,21.96906 9.77067,29.02805 23.21875,34.84375 -21.96129,0.61834 -28.99725,-9.79737 -34.8125,-23.25 -5.81731,-13.45736 -12.86427,-23.84505 -34.84375,-23.21875 13.45736,5.81729 23.84506,12.86426 23.21875,34.84375 -0.6263,21.97948 9.76139,29.02646 23.21875,34.84375 -21.97948,0.6263 -28.99521,-9.76139 -34.8125,-23.21875 -5.81729,-13.45736 -12.89551,-23.8763 -34.875,-23.25 13.45737,5.81728 23.8763,12.86426 23.25,34.84375 -0.6263,21.97948 9.76141,29.02646 23.21875,34.84375 -21.97947,0.62631 -29.02647,-9.76138 -34.84375,-23.21875 -5.8173,-13.45735 -12.83302,-23.84506 -34.8125,-23.21875 13.45735,5.81729 23.8138,12.86427 23.1875,34.84375 -0.6263,21.97949 9.79264,28.99521 23.25,34.8125 -21.97948,0.62629 -29.02646,-9.7614 -34.84375,-23.21875 -5.81729,-13.45736 -12.86427,-23.84505 -34.84375,-23.21875 13.45736,5.8173 23.8763,12.86426 23.25,34.84375 -0.6263,21.97948 9.73015,29.02645 23.1875,34.84375 -6.35695,0.18113 -11.43606,-0.5598 -15.625,-2.03125 3.76281,4.7481 7.5826,9.39048 11.46875,13.90625 16.24579,1.71788 22.30346,11.16428 27.40625,22.96875 2.54506,5.8876 5.30788,11.16762 9.46875,15.21875 5.34969,5.2086 13.01154,8.35229 25.375,8 C 147.26139,552.96397 136.8737,545.91698 137.5,523.9375 c 0.6263,-21.97948 -9.79265,-29.02645 -23.25,-34.84375 21.97947,-0.6263 29.02647,9.79263 34.84375,23.25 5.8173,13.45736 12.86427,23.84506 34.84375,23.21875 -13.45737,-5.81729 -23.84505,-12.86428 -23.21875,-34.84375 0.6263,-21.97951 -9.7614,-29.02647 -23.21875,-34.84375 21.97948,-0.6263 28.99521,9.7614 34.8125,23.21875 5.81729,13.45736 12.86426,23.8763 34.84375,23.25 -13.45736,-5.81729 -23.84505,-12.89552 -23.21875,-34.875 0.6263,-21.9795 -9.7614,-28.99521 -23.21875,-34.8125 21.97947,-0.6263 29.02647,9.76139 34.84375,23.21875 5.8173,13.45736 12.86428,23.84505 34.84375,23.21875 -13.45735,-5.81729 -23.8763,-12.86427 -23.25,-34.84375 0.6263,-21.97948 -9.76139,-29.02646 -23.21875,-34.84375 21.97948,-0.6263 29.02646,9.79264 34.84375,23.25 5.81729,13.45736 12.83301,23.84505 34.8125,23.21875 -13.45736,-5.81729 -23.8138,-12.86426 -23.1875,-34.84375 0.6263,-21.97949 -9.79265,-29.02646 -23.25,-34.84375 21.97947,-0.62631 29.02645,9.79264 34.84375,23.25 5.81728,13.45737 12.86427,23.84505 34.84375,23.21875 -13.45735,-5.81729 -23.8763,-12.86427 -23.25,-34.84375 0.6263,-21.97948 -9.73014,-29.02647 -23.1875,-34.84375 21.97949,-0.6263 28.99521,9.76139 34.8125,23.21875 5.81729,13.45736 12.86427,23.8763 34.84375,23.25 -13.45736,-5.8173 -23.84505,-12.8955 -23.21875,-34.875 0.6263,-21.97947 -9.79263,-28.99522 -23.25,-34.8125 21.97948,-0.62631 29.0577,9.76138 34.875,23.21875 5.81728,13.45737 12.83302,23.84505 34.8125,23.21875 -13.45735,-5.8173 -23.84505,-12.83302 -23.21875,-34.8125 0.6263,-21.97948 -9.76138,-29.05773 -23.21875,-34.875 21.97949,-0.6263 29.02646,9.79263 34.84375,23.25 5.81729,13.45734 12.83302,23.84505 34.8125,23.21875 -13.45736,-5.8173 -23.84505,-12.86427 -23.21875,-34.84375 0.62601,-21.96894 -9.73955,-29.02807 -23.1875,-34.84375 21.96129,-0.61834 28.99724,9.7661 34.8125,23.21875 5.81728,13.45735 12.86426,23.87629 34.84375,23.25 -13.45736,-5.81729 -23.8763,-12.86427 -23.25,-34.84375 0.6263,-21.97948 -9.76139,-29.02646 -23.21875,-34.84375 21.9795,-0.6263 29.02647,9.76139 34.84375,23.21875 5.8173,13.45736 12.89552,23.84504 34.875,23.21875 -13.45736,-5.8173 -23.87631,-12.83302 -23.25,-34.8125 0.6263,-21.97948 -9.79264,-29.02646 -23.25,-34.84375 21.97948,-0.62629 29.05771,9.7614 34.875,23.21875 5.81728,13.45736 12.83301,23.84505 34.8125,23.21875 C 402.73014,297.46397 392.3737,290.41698 393,268.4375 c 0.6263,-21.97948 -9.79265,-29.02645 -23.25,-34.84375 21.97947,-0.6263 29.02647,9.79263 34.84375,23.25 5.8173,13.45736 12.86427,23.84506 34.84375,23.21875 -13.45737,-5.81729 -23.8763,-12.86428 -23.25,-34.84375 0.6263,-21.97951 -9.73015,-29.02647 -23.1875,-34.84375 21.97948,-0.6263 28.99521,9.7614 34.8125,23.21875 5.81729,13.45736 12.86426,23.8763 34.84375,23.25 C 449.19889,251.02646 438.8112,243.97948 439.4375,222 c 0.6263,-21.9795 -9.79265,-29.02646 -23.25,-34.84375 21.97947,-0.6263 29.05772,9.76139 34.875,23.21875 5.8173,13.45736 12.83303,23.84505 34.8125,23.21875 -13.45735,-5.81729 -23.84505,-12.83302 -23.21875,-34.8125 0.6263,-21.97948 -9.76139,-29.05771 -23.21875,-34.875 21.97948,-0.6263 29.02646,9.79264 34.84375,23.25 5.81729,13.45736 12.83301,23.84505 34.8125,23.21875 -13.45736,-5.81729 -23.84505,-12.89551 -23.21875,-34.875 0.6263,-21.97949 -9.7614,-28.99521 -23.21875,-34.8125 21.97947,-0.62631 28.9952,9.76139 34.8125,23.21875 5.81728,13.45737 12.89552,23.84505 34.875,23.21875 -13.45735,-5.81729 -23.8763,-12.83302 -23.25,-34.8125 0.6263,-21.97948 -9.76139,-29.05772 -23.21875,-34.875 21.97949,-0.6263 29.02646,9.79264 34.84375,23.25 5.81729,13.45736 12.86427,23.84505 34.84375,23.21875 -13.45736,-5.8173 -23.84505,-12.86425 -23.21875,-34.84375 0.6263,-21.97947 -9.79263,-29.02647 -23.25,-34.84375 21.97948,-0.62631 29.0577,9.76138 34.875,23.21875 5.81728,13.45737 12.83302,23.8763 34.8125,23.25 C 565.3239,134.8702 554.9362,127.82323 555.5625,105.84375 556.1888,83.86427 545.80112,76.81727 532.34375,71 c 21.97949,-0.6263 28.99521,9.76138 34.8125,23.21875 5.49475,12.71119 12.10832,22.68022 31.34375,23.21875 l 0,-1.59375 C 586.80266,110.24813 578.2109,102.64103 578.78125,82.625 579.40726,60.65606 569.01045,53.59693 555.5625,47.78125 577.52379,47.16291 584.59099,57.54735 590.40625,71 c 2.24968,5.204277 4.68579,9.951289 8.09375,13.78125 l 0,-44.46875 C 594.43396,32.326938 587.21378,28.176426 578.78125,24.53125 587.35599,24.286915 593.6591,25.735079 598.5,28.375 L 598.5,2 573.875,2 c 4.1822,4.9740219 9.99421,8.111699 16.53125,10.9375 C 575.87178,13.351656 567.87828,8.9197244 562.4375,2 l -18.46875,0 c -0.39019,21.435878 9.87243,28.400465 23.1875,34.15625 -21.97948,0.62631 -28.9952,-9.76138 -34.8125,-23.21875 C 530.62262,8.9559399 528.76148,5.2378224 526.46875,2 l -11.375,0 z"
       id="path4502" />
  </g>
  <g
     inkscape:groupmode="layer"
     id="layer1"
     inkscape:label="Cover"
     style="display:inline"
     sodipodi:insensitive="true">
    <path
       d="m 2,2 v 257 c 0,286 298,398 298,398 0,0 298,-112 298,-398 V 2 z"
       id="shine"
       inkscape:connector-curvature="0"
       style="fill:url(#radialGradient3074);stroke:#000000;stroke-width:3" />
  </g>
</svg>
