<?xml version="1.0" encoding="UTF-8" standalone="no"?>
<svg
   xmlns:dc="http://purl.org/dc/elements/1.1/"
   xmlns:cc="http://creativecommons.org/ns#"
   xmlns:rdf="http://www.w3.org/1999/02/22-rdf-syntax-ns#"
   xmlns:svg="http://www.w3.org/2000/svg"
   xmlns="http://www.w3.org/2000/svg"
   xmlns:xlink="http://www.w3.org/1999/xlink"
   xmlns:sodipodi="http://sodipodi.sourceforge.net/DTD/sodipodi-0.dtd"
   xmlns:inkscape="http://www.inkscape.org/namespaces/inkscape"
   width="600"
   height="660"
   id="svg2"
   version="1.1"
   inkscape:version="0.48.2 r9819"
   sodipodi:docname="Rainbow_Guard.svg">
  <metadata
     id="metadata19">
    <rdf:RDF>
      <cc:Work
         rdf:about="">
        <dc:format>image/svg+xml</dc:format>
        <dc:type
           rdf:resource="http://purl.org/dc/dcmitype/StillImage" />
        <dc:title />
      </cc:Work>
    </rdf:RDF>
  </metadata>
  <defs
     id="defs17">
    <radialGradient
       inkscape:collect="always"
       xlink:href="#rg"
       id="radialGradient4153"
       gradientUnits="userSpaceOnUse"
       cx="220"
       cy="220"
       r="405" />
  </defs>
  <sodipodi:namedview
     pagecolor="#ffffff"
     bordercolor="#666666"
     borderopacity="1"
     objecttolerance="10"
     gridtolerance="10"
     guidetolerance="10"
     inkscape:pageopacity="0"
     inkscape:pageshadow="2"
     inkscape:window-width="1366"
     inkscape:window-height="715"
     id="namedview15"
     showgrid="false"
     inkscape:zoom="0.70710678"
     inkscape:cx="181.73127"
     inkscape:cy="373.5159"
     inkscape:window-x="-8"
     inkscape:window-y="-8"
     inkscape:window-maximized="1"
     inkscape:current-layer="svg2"
     showguides="false" />
  <radialGradient
     id="rg"
     gradientUnits="userSpaceOnUse"
     cx="220"
     cy="220"
     r="405">
    <stop
       style="stop-color:#fff;stop-opacity:.3"
       offset="0"
       id="stop5" />
    <stop
       style="stop-color:#fff;stop-opacity:.2"
       offset=".2"
       id="stop7" />
    <stop
       style="stop-color:#666;stop-opacity:.1"
       offset=".6"
       id="stop9" />
    <stop
       style="stop-color:#000;stop-opacity:.13"
       offset="1"
       id="stop11" />
  </radialGradient>
  <path
     style="opacity:1;fill:#cc0000;fill-opacity:1;stroke:none;stroke-width:1;stroke-miterlimit:4;stroke-dasharray:none"
     d="M 2.5 2 L 2.5 279.09766 C 15.999883 550.26006 300 657 300 657 L 300 2 L 2.5 2 z "
     id="rect4336" />
  <path
     style="opacity:1;fill:#800080;fill-opacity:1;stroke:none;stroke-width:1;stroke-miterlimit:4;stroke-dasharray:none"
     d="M 300 2 L 300 657 C 300 657 584.00012 550.26006 597.5 279.09766 L 597.5 2 L 300 2 z "
     id="rect4334" />
  <path
     style="opacity:1;fill:#ff8800;fill-opacity:1;stroke:none;stroke-width:1;stroke-miterlimit:4;stroke-dasharray:none"
     d="M 87.5 2 L 87.5 499.94141 C 175.5526 610.22119 300 657 300 657 L 300 2 L 87.5 2 z "
     id="rect4332" />
  <path
     style="opacity:1;fill:#330088;fill-opacity:1;stroke:none;stroke-width:1;stroke-miterlimit:4;stroke-dasharray:none"
     d="M 300 2 L 300 657 C 300 657 424.4474 610.22119 512.5 499.94141 L 512.5 2 L 300 2 z "
     id="rect4330" />
  <path
     style="opacity:1;fill:#0000cc;fill-opacity:1;stroke:none;stroke-width:1;stroke-miterlimit:4;stroke-dasharray:none"
     d="M 300 2 L 300 657 C 300 657 360.81625 634.13618 427.5 582.70703 L 427.5 2 L 300 2 z "
     id="rect4328" />
  <path
     inkscape:connector-curvature="0"
     style="fill:none;fill-opacity:1;stroke:none;stroke-width:3"
     id="path7200"
     d="m 2,2 0,257 c 0,286 298,398 298,398 0,0 298,-112 298,-398 L 598,2 Z" />
  <path
     style="opacity:1;fill:#ffff00;fill-opacity:1;stroke:none;stroke-width:1;stroke-miterlimit:4;stroke-dasharray:none"
     d="M 172.5 2 L 172.5 582.70703 C 239.18375 634.13618 300 657 300 657 L 300 2 L 172.5 2 z "
     id="rect4326" />
  <path
     style="opacity:1;fill:#008800;fill-opacity:1;stroke:none;stroke-width:1;stroke-miterlimit:4;stroke-dasharray:none"
     d="M 257.5 2 L 257.5 637.18164 C 283.15535 650.66103 300 657 300 657 C 300 657 316.84465 650.66103 342.5 637.18164 L 342.5 2 L 257.5 2 z "
     id="rect4322" />
  <path
     id="path4147"
     d="m 2,2 0,257 c 0,286 298,398 298,398 0,0 298,-112 298,-398 L 598,2 Z"
     style="fill:url(#radialGradient4153);stroke:#000000;stroke-width:3"
     inkscape:connector-curvature="0" />
</svg>
