<?xml version="1.0" encoding="UTF-8" standalone="no"?>
<svg
   xmlns:dc="http://purl.org/dc/elements/1.1/"
   xmlns:cc="http://creativecommons.org/ns#"
   xmlns:rdf="http://www.w3.org/1999/02/22-rdf-syntax-ns#"
   xmlns:svg="http://www.w3.org/2000/svg"
   xmlns="http://www.w3.org/2000/svg"
   xmlns:xlink="http://www.w3.org/1999/xlink"
   xmlns:sodipodi="http://sodipodi.sourceforge.net/DTD/sodipodi-0.dtd"
   xmlns:inkscape="http://www.inkscape.org/namespaces/inkscape"
   width="600"
   height="660"
   id="svg2"
   version="1.1"
   inkscape:version="0.48.2 r9819"
   sodipodi:docname="House_Slynt_(Morros).svg">
  <metadata
     id="metadata24">
    <rdf:RDF>
      <cc:Work
         rdf:about="">
        <dc:format>image/svg+xml</dc:format>
        <dc:type
           rdf:resource="http://purl.org/dc/dcmitype/StillImage" />
        <dc:title></dc:title>
      </cc:Work>
    </rdf:RDF>
  </metadata>
  <sodipodi:namedview
     pagecolor="#ffffff"
     bordercolor="#666666"
     borderopacity="1"
     objecttolerance="10"
     gridtolerance="10"
     guidetolerance="10"
     inkscape:pageopacity="0"
     inkscape:pageshadow="2"
     inkscape:window-width="1366"
     inkscape:window-height="715"
     id="namedview22"
     showgrid="false"
     inkscape:zoom="0.71515153"
     inkscape:cx="137.75648"
     inkscape:cy="420.90025"
     inkscape:window-x="-8"
     inkscape:window-y="-8"
     inkscape:window-maximized="1"
     inkscape:current-layer="layer2" />
  <defs
     id="defs4">
    <radialGradient
       id="rg"
       gradientUnits="userSpaceOnUse"
       cx="220"
       cy="220"
       r="405">
      <stop
         style="stop-color:#fff;stop-opacity:.3"
         offset="0"
         id="stop7" />
      <stop
         style="stop-color:#fff;stop-opacity:.2"
         offset=".2"
         id="stop9" />
      <stop
         style="stop-color:#666;stop-opacity:.1"
         offset=".6"
         id="stop11" />
      <stop
         style="stop-color:#000;stop-opacity:.13"
         offset="1"
         id="stop13" />
    </radialGradient>
    <path
       id="shield"
       d="m2,2v257c0,286 298,398 298,398c0,0 298-112 298-398V2z" />
    <radialGradient
       inkscape:collect="always"
       xlink:href="#rg-7"
       id="radialGradient3055-1"
       gradientUnits="userSpaceOnUse"
       cx="220"
       cy="220"
       r="405" />
    <radialGradient
       id="rg-7"
       gradientUnits="userSpaceOnUse"
       cx="220"
       cy="220"
       r="405">
      <stop
         style="stop-color:#fff;stop-opacity:.3"
         offset="0"
         id="stop7-4" />
      <stop
         style="stop-color:#fff;stop-opacity:.2"
         offset=".2"
         id="stop9-0" />
      <stop
         style="stop-color:#666;stop-opacity:.1"
         offset=".6"
         id="stop11-9" />
      <stop
         style="stop-color:#000;stop-opacity:.13"
         offset="1"
         id="stop13-4" />
    </radialGradient>
    <radialGradient
       r="405"
       cy="220"
       cx="220"
       gradientUnits="userSpaceOnUse"
       id="radialGradient3074"
       xlink:href="#rg-7"
       inkscape:collect="always" />
    <inkscape:path-effect
       is_visible="true"
       id="path-effect10120-1"
       effect="spiro" />
    <inkscape:path-effect
       effect="spiro"
       id="path-effect10118-3"
       is_visible="true" />
    <inkscape:path-effect
       effect="spiro"
       id="path-effect10116-9"
       is_visible="true" />
    <inkscape:path-effect
       effect="spiro"
       id="path-effect10114-7"
       is_visible="true" />
    <inkscape:path-effect
       effect="spiro"
       id="path-effect10112-7"
       is_visible="true" />
    <inkscape:path-effect
       effect="spiro"
       id="path-effect10110-2"
       is_visible="true" />
    <linearGradient
       inkscape:collect="always"
       xlink:href="#linearGradient4719-5"
       id="linearGradient4039"
       gradientUnits="userSpaceOnUse"
       gradientTransform="matrix(2.3257341,0,0,2.2943177,447.69485,-1820.2799)"
       x1="-145.25935"
       y1="984.24286"
       x2="-64.14286"
       y2="984.14789" />
    <linearGradient
       inkscape:collect="always"
       id="linearGradient4719-5">
      <stop
         style="stop-color:#666666;stop-opacity:1;"
         offset="0"
         id="stop4721-5" />
      <stop
         id="stop4809-1"
         offset="0.39344174"
         style="stop-color:#666666;stop-opacity:0.74901961;" />
      <stop
         style="stop-color:#666666;stop-opacity:0;"
         offset="1"
         id="stop4723-7" />
    </linearGradient>
    <radialGradient
       inkscape:collect="always"
       xlink:href="#linearGradient4801-8"
       id="radialGradient4041"
       gradientUnits="userSpaceOnUse"
       gradientTransform="matrix(-0.72153181,1.2650715,-2.2729984,-1.2616144,1712.0113,1733.7841)"
       cx="-307.14288"
       cy="782.36218"
       fx="-307.14288"
       fy="782.36218"
       r="63" />
    <linearGradient
       inkscape:collect="always"
       id="linearGradient4801-8">
      <stop
         style="stop-color:#000000;stop-opacity:1;"
         offset="0"
         id="stop4803-2" />
      <stop
         style="stop-color:#000000;stop-opacity:0;"
         offset="1"
         id="stop4805-4" />
    </linearGradient>
    <inkscape:path-effect
       effect="spiro"
       id="path-effect10108-4"
       is_visible="true" />
    <linearGradient
       inkscape:collect="always"
       xlink:href="#linearGradient4719-5"
       id="linearGradient4044"
       gradientUnits="userSpaceOnUse"
       gradientTransform="matrix(-2.4055369,0,0,-1.6485021,142.06168,1726.5307)"
       x1="-145.25935"
       y1="984.24286"
       x2="-64.14286"
       y2="984.14789" />
    <radialGradient
       inkscape:collect="always"
       xlink:href="#linearGradient4801-8"
       id="radialGradient4046"
       gradientUnits="userSpaceOnUse"
       gradientTransform="matrix(0.74628962,-0.90897301,2.3509914,0.90648896,-1165.637,-827.11785)"
       cx="-307.14288"
       cy="782.36218"
       fx="-307.14288"
       fy="782.36218"
       r="63" />
    <inkscape:path-effect
       effect="spiro"
       id="path-effect10102-7"
       is_visible="true" />
    <linearGradient
       inkscape:collect="always"
       xlink:href="#linearGradient4719-5"
       id="linearGradient4049"
       gradientUnits="userSpaceOnUse"
       gradientTransform="matrix(2.334989,0,0,-1.6146975,449.44065,1692.189)"
       x1="-145.25935"
       y1="984.24286"
       x2="-64.14286"
       y2="984.14789" />
    <radialGradient
       inkscape:collect="always"
       xlink:href="#linearGradient4801-8"
       id="radialGradient4051"
       gradientUnits="userSpaceOnUse"
       gradientTransform="matrix(-0.72440295,-0.89033332,-2.2820431,0.88790031,1718.7881,-809.09364)"
       cx="-307.14288"
       cy="782.36218"
       fx="-307.14288"
       fy="782.36218"
       r="63" />
    <inkscape:path-effect
       is_visible="true"
       id="path-effect10096-8"
       effect="spiro" />
    <linearGradient
       inkscape:collect="always"
       xlink:href="#linearGradient4719-5"
       id="linearGradient4054"
       gradientUnits="userSpaceOnUse"
       gradientTransform="matrix(-2.409599,0,0,2.2818507,139.61083,-1810.8163)"
       x1="-145.25935"
       y1="984.24286"
       x2="-64.14286"
       y2="984.14789" />
    <radialGradient
       inkscape:collect="always"
       xlink:href="#linearGradient4801-8"
       id="radialGradient4056"
       gradientUnits="userSpaceOnUse"
       gradientTransform="matrix(0.74754985,1.2581972,2.3549614,-1.2547588,-1170.296,1723.935)"
       cx="-307.14288"
       cy="782.36218"
       fx="-307.14288"
       fy="782.36218"
       r="63" />
    <inkscape:path-effect
       is_visible="true"
       id="path-effect10090-3"
       effect="spiro" />
    <inkscape:path-effect
       effect="spiro"
       id="path-effect10084-1"
       is_visible="true" />
    <inkscape:path-effect
       effect="spiro"
       id="path-effect10082-1"
       is_visible="true" />
    <radialGradient
       inkscape:collect="always"
       xlink:href="#linearGradient4801-8"
       id="radialGradient4061"
       gradientUnits="userSpaceOnUse"
       gradientTransform="matrix(-0.76516322,1.2901254,-2.4104477,-1.2865998,1806.8444,1757.4704)"
       cx="-307.14288"
       cy="782.36218"
       fx="-307.14288"
       fy="782.36218"
       r="63" />
    <inkscape:path-effect
       effect="spiro"
       id="path-effect10080-4"
       is_visible="true" />
  </defs>
  <g
     inkscape:groupmode="layer"
     id="layer2"
     inkscape:label="Elements"
     style="display:inline">
    <path
       d="m 2,2 v 257 c 0,286 298,398 298,398 0,0 298,-112 298,-398 V 2 z"
       id="background"
       inkscape:connector-curvature="0"
       style="fill:#ffffff;display:inline" />
    <path
       inkscape:connector-curvature="0"
       style="fill:#ffdd00;stroke:none;display:inline"
       d="m 2.4375,2 0,33.0625 33.0625,0 L 35.5,2 2.4375,2 z M 35.5,35.0625 l 0,33.0625 33.0625,0 0,-33.0625 -33.0625,0 z m 33.0625,0 33.0625,0 0,-33.0625 -33.0625,0 0,33.0625 z m 33.0625,0 0,33.0625 33.0625,0 0,-33.0625 -33.0625,0 z m 33.0625,0 33.0625,0 0,-33.0625 -33.0625,0 0,33.0625 z m 33.0625,0 0,33.0625 33.0625,0 0,-33.0625 -33.0625,0 z m 33.0625,0 33.0625,0 0,-33.0625 -33.0625,0 0,33.0625 z m 33.0625,0 0,33.0625 33.0625,0 0,-33.0625 -33.0625,0 z m 33.0625,0 33.0625,0 L 300,2 l -33.0625,0 0,33.0625 z m 33.0625,0 0,33.0625 33.0625,0 0,-33.0625 -33.0625,0 z m 33.0625,0 33.0625,0 0,-33.0625 -33.0625,0 0,33.0625 z m 33.0625,0 0,33.0625 33.0625,0 0,-33.0625 -33.0625,0 z m 33.0625,0 33.0625,0 0,-33.0625 -33.0625,0 0,33.0625 z m 33.0625,0 0,33.0625 33.0625,0 0,-33.0625 -33.0625,0 z m 33.0625,0 33.0625,0 0,-33.0625 -33.0625,0 0,33.0625 z m 33.0625,0 0,33.0625 33.0625,0 0,-33.0625 -33.0625,0 z m 33.0625,0 33.0625,0 0,-33.0625 -33.0625,0 0,33.0625 z m 33.0625,0 0,33.0625 33.0625,0 0,-33.0625 -33.0625,0 z m 0,33.0625 -33.0625,0 0,33.0625 33.0625,0 0,-33.0625 z m 0,33.0625 0,33.03125 33.0625,0 0,-33.03125 -33.0625,0 z m -33.0625,0 -33.0625,0 0,33.03125 33.0625,0 0,-33.03125 z m -33.0625,0 0,-33.0625 -33.0625,0 0,33.0625 33.0625,0 z m -33.0625,0 -33.0625,0 0,33.03125 33.0625,0 0,-33.03125 z m -33.0625,0 0,-33.0625 -33.0625,0 0,33.0625 33.0625,0 z m -33.0625,0 -33.0625,0 0,33.03125 33.0625,0 0,-33.03125 z m -33.0625,0 0,-33.0625 -33.0625,0 0,33.0625 33.0625,0 z m -33.0625,0 -33.0625,0 0,33.03125 33.0625,0 0,-33.03125 z m -33.0625,0 0,-33.0625 -33.0625,0 0,33.0625 33.0625,0 z m -33.0625,0 -33.0625,0 0,33.03125 33.0625,0 0,-33.03125 z m -33.0625,0 0,-33.0625 -33.0625,0 0,33.0625 33.0625,0 z m -33.0625,0 -33.0625,0 0,33.03125 33.0625,0 0,-33.03125 z m -33.0625,0 0,-33.0625 -33.0625,0 0,33.0625 33.0625,0 z m -33.0625,0 -33.0625,0 0,33.03125 33.0625,0 0,-33.03125 z m -33.0625,0 0,-33.0625 -33.0625,0 0,33.0625 33.0625,0 z m -33.0625,0 -33.0625,0 0,33.03125 33.0625,0 0,-33.03125 z m -33.0625,0 0,-33.0625 -33.0625,0 0,33.0625 33.0625,0 z M 2.4375,134.25 l 0,33.0625 33.0625,0 0,33.03125 33.0625,0 0,-33.03125 33.0625,0 0,33.03125 33.0625,0 0,-33.03125 33.0625,0 0,33.03125 33.0625,0 0,-33.03125 33.0625,0 0,33.03125 33.0625,0 0,-33.03125 33.0625,0 0,33.03125 33.0625,0 0,-33.03125 33.0625,0 0,33.03125 33.0625,0 0,-33.03125 33.0625,0 0,33.03125 33.0625,0 0,-33.03125 33.0625,0 0,33.03125 33.0625,0 0,-33.03125 33.0625,0 0,33.03125 33.0625,0 0,-33.0625 -33.0625,0 0,-33.03125 -33.0625,0 0,33.03125 -33.0625,0 0,-33.03125 -33.0625,0 0,33.03125 -33.0625,0 0,-33.03125 -33.0625,0 0,33.03125 -33.0625,0 0,-33.03125 -33.0625,0 0,33.03125 -33.0625,0 0,-33.03125 -33.0625,0 0,33.03125 -33.0625,0 0,-33.03125 -33.0625,0 0,33.03125 -33.0625,0 0,-33.03125 -33.0625,0 0,33.03125 -33.0625,0 0,-33.03125 -33.0625,0 0,33.03125 -33.0625,0 0,-33.03125 -33.0625,0 z m 0,66.125 0,33.0625 33.0625,0 0,-33.0625 -33.0625,0 z m 33.0625,33.0625 0,33.03125 33.0625,0 0,-33.03125 -33.0625,0 z m 33.0625,0 33.0625,0 0,-33.0625 -33.0625,0 0,33.0625 z m 33.0625,0 0,33.03125 33.0625,0 0,-33.03125 -33.0625,0 z m 33.0625,0 33.0625,0 0,-33.0625 -33.0625,0 0,33.0625 z m 33.0625,0 0,33.03125 33.0625,0 0,-33.03125 -33.0625,0 z m 33.0625,0 33.0625,0 0,-33.0625 -33.0625,0 0,33.0625 z m 33.0625,0 0,33.03125 33.0625,0 0,-33.03125 -33.0625,0 z m 33.0625,0 33.0625,0 0,-33.0625 -33.0625,0 0,33.0625 z m 33.0625,0 0,33.03125 33.0625,0 0,-33.03125 -33.0625,0 z m 33.0625,0 33.0625,0 0,-33.0625 -33.0625,0 0,33.0625 z m 33.0625,0 0,33.03125 33.0625,0 0,-33.03125 -33.0625,0 z m 33.0625,0 33.0625,0 0,-33.0625 -33.0625,0 0,33.0625 z m 33.0625,0 0,33.03125 33.0625,0 0,-33.03125 -33.0625,0 z m 33.0625,0 33.0625,0 0,-33.0625 -33.0625,0 0,33.0625 z m 33.0625,0 0,33.03125 33.0625,0 0,-33.03125 -33.0625,0 z m 33.0625,0 33.0625,0 0,-33.0625 -33.0625,0 0,33.0625 z m 33.0625,0 0,33.03125 33.0625,0 0,-33.03125 -33.0625,0 z M 2.4375,266.5 l 0,11.5 c 0.3434024,7.29936 0.9005342,14.49965 1.625,21.5625 l 31.4375,0 0,33.03125 33.0625,0 0,-33.03125 33.0625,0 0,33.03125 33.0625,0 0,-33.03125 33.0625,0 0,33.03125 33.0625,0 0,-33.03125 33.0625,0 0,33.03125 33.0625,0 0,-33.03125 33.0625,0 0,33.03125 33.0625,0 0,-33.03125 33.0625,0 0,33.03125 33.0625,0 0,-33.03125 33.0625,0 0,33.03125 33.0625,0 0,-33.03125 33.0625,0 0,33.03125 33.0625,0 0,-33.03125 33.0625,0 0,33.03125 26.5625,0 c 2.06911,-10.72685 3.714,-21.73482 4.875,-33.0625 l -31.4375,0 0,-33.03125 -33.0625,0 0,33.03125 -33.0625,0 0,-33.03125 -33.0625,0 0,33.03125 -33.0625,0 0,-33.03125 -33.0625,0 0,33.03125 -33.0625,0 0,-33.03125 -33.0625,0 0,33.03125 -33.0625,0 0,-33.03125 -33.0625,0 0,33.03125 -33.0625,0 0,-33.03125 -33.0625,0 0,33.03125 -33.0625,0 0,-33.03125 -33.0625,0 0,33.03125 -33.0625,0 0,-33.03125 -33.0625,0 0,33.03125 -33.0625,0 0,-33.03125 -33.0625,0 z m 6.5,66.125 c 2.190165,11.34942 4.864297,22.37509 7.96875,33.0625 l 18.59375,0 0,-33.0625 -26.5625,0 z m 26.5625,33.0625 0,33.03125 33.0625,0 0,-33.03125 -33.0625,0 z m 33.0625,0 33.0625,0 0,-33.0625 -33.0625,0 0,33.0625 z m 33.0625,0 0,33.03125 33.0625,0 0,-33.03125 -33.0625,0 z m 33.0625,0 33.0625,0 0,-33.0625 -33.0625,0 0,33.0625 z m 33.0625,0 0,33.03125 33.0625,0 0,-33.03125 -33.0625,0 z m 33.0625,0 33.0625,0 0,-33.0625 -33.0625,0 0,33.0625 z m 33.0625,0 0,33.03125 33.0625,0 0,-33.03125 -33.0625,0 z m 33.0625,0 33.0625,0 0,-33.0625 -33.0625,0 0,33.0625 z m 33.0625,0 0,33.03125 33.0625,0 0,-33.03125 -33.0625,0 z m 33.0625,0 33.0625,0 0,-33.0625 -33.0625,0 0,33.0625 z m 33.0625,0 0,33.03125 33.0625,0 0,-33.03125 -33.0625,0 z m 33.0625,0 33.0625,0 0,-33.0625 -33.0625,0 0,33.0625 z m 33.0625,0 0,33.03125 33.0625,0 0,-33.03125 -33.0625,0 z m 33.0625,0 33.0625,0 0,-33.0625 -33.0625,0 0,33.0625 z m 33.0625,0 0,33.03125 33.0625,0 0,-33.03125 -33.0625,0 z m 33.0625,0 33.0625,0 0,-33.0625 -33.0625,0 0,33.0625 z m 33.0625,0 0,33.03125 7.28125,0 c 4.21944,-10.64282 8.00666,-21.65055 11.3125,-33.03125 l -18.59375,0 z M 28.21875,398.75 c 2.299819,5.79958 4.73928,11.47902 7.28125,17.0625 l 0,-17.0625 -7.28125,0 z m 40.34375,0 0,33.03125 -25.34375,0 c 5.900035,11.5021 12.293008,22.52487 19.0625,33.0625 l 6.28125,0 0,-33.03125 33.0625,0 0,33.03125 33.0625,0 0,-33.03125 33.0625,0 0,33.03125 33.0625,0 0,-33.03125 33.0625,0 0,33.03125 33.0625,0 0,-33.03125 33.0625,0 0,33.03125 33.0625,0 0,-33.03125 33.0625,0 0,33.03125 33.0625,0 0,-33.03125 33.0625,0 0,33.03125 33.0625,0 0,-33.03125 33.0625,0 0,33.03125 33.0625,0 0,-33.03125 25.34375,0 c 2.68249,-5.22856 5.24619,-10.56897 7.71875,-16 l 0,-17.0625 -33.0625,0 0,33.03125 -33.0625,0 0,-33.03125 -33.0625,0 0,33.03125 -33.0625,0 0,-33.03125 -33.0625,0 0,33.03125 -33.0625,0 0,-33.03125 -33.0625,0 0,33.03125 -33.0625,0 0,-33.03125 -33.0625,0 0,33.03125 -33.0625,0 0,-33.03125 -33.0625,0 0,33.03125 -33.0625,0 0,-33.03125 -33.0625,0 0,33.03125 -33.0625,0 0,-33.03125 -33.0625,0 z m 0,66.125 0,9.46875 c 5.572591,8.16426 11.373104,16.02566 17.34375,23.59375 l 15.71875,0 0,-33.0625 -33.0625,0 z m 33.0625,33.0625 0,18.84375 c 4.29177,4.86575 8.66417,9.59601 13.0625,14.1875 l 20,0 0,-33.03125 -33.0625,0 z m 33.0625,0 33.0625,0 0,-33.0625 -33.0625,0 0,33.0625 z m 33.0625,0 0,33.03125 33.0625,0 0,-33.03125 -33.0625,0 z m 33.0625,0 33.0625,0 0,-33.0625 -33.0625,0 0,33.0625 z m 33.0625,0 0,33.03125 33.0625,0 0,-33.03125 -33.0625,0 z m 33.0625,0 33.0625,0 0,-33.0625 -33.0625,0 0,33.0625 z m 33.0625,0 0,33.03125 33.0625,0 0,-33.03125 -33.0625,0 z m 33.0625,0 33.0625,0 0,-33.0625 -33.0625,0 0,33.0625 z m 33.0625,0 0,33.03125 33.0625,0 0,-33.03125 -33.0625,0 z m 33.0625,0 33.0625,0 0,-33.0625 -33.0625,0 0,33.0625 z m 33.0625,0 0,33.03125 33.0625,0 0,-33.03125 -33.0625,0 z m 33.0625,0 33.0625,0 0,-33.0625 -33.0625,0 0,33.0625 z m 33.0625,0 0,18.84375 c 5.35124,-6.0669 10.59128,-12.34443 15.71875,-18.84375 l -15.71875,0 z m 33.0625,-33.0625 0,9.46875 c 2.12855,-3.11849 4.22104,-6.26221 6.28125,-9.46875 l -6.28125,0 z m -396.75,66.125 0,19.65625 c 4.97253,4.63171 9.96964,9.09927 14.96875,13.40625 l 18.09375,0 0,14.9375 c 8.18651,6.45615 16.30076,12.48611 24.25,18.09375 l 8.8125,0 0,-33.03125 33.0625,0 0,33.03125 33.0625,0 0,-33.03125 33.0625,0 0,33.03125 33.0625,0 0,-33.03125 33.0625,0 0,33.03125 33.0625,0 0,-33.03125 33.0625,0 0,14.9375 c 6.03149,-4.75663 12.09076,-9.74168 18.15625,-14.96875 l -18.15625,0 0,-33.03125 -33.0625,0 0,33.03125 -33.0625,0 0,-33.03125 -33.0625,0 0,33.03125 -33.0625,0 0,-33.03125 -33.0625,0 0,33.03125 -33.0625,0 0,-33.03125 -33.0625,0 0,33.03125 -33.0625,0 0,-33.03125 -33.0625,0 z m 330.625,0 0,19.65625 C 472.03041,544.39879 478.70844,537.86021 485.28125,531 l -19.96875,0 z m -264.5,66.125 0,6.03125 c 11.59413,7.8646 22.70659,14.80604 33.0625,20.875 l 0,-26.90625 -33.0625,0 z m 66.125,0 0,33.0625 33.0625,0 0,-33.0625 -33.0625,0 z M 300,630.1875 300,657 c 0,0 12.80374,-4.81643 33.0625,-14.96875 l 0,-11.84375 -33.0625,0 z m 33.0625,0 22.3125,0 c 3.47626,-1.94046 7.05986,-3.99369 10.75,-6.15625 l 0,-26.90625 -33.0625,0 0,33.0625 z m -66.125,0 -22.3125,0 c 8.1272,4.53663 15.62585,8.49286 22.3125,11.84375 l 0,-11.84375 z m 132.25,-33.0625 0,6.03125 c 2.88463,-1.95672 5.81415,-3.96073 8.75,-6.03125 l -8.75,0 z"
       id="path3521" />
    <path
       style="fill:#9f1d35;display:inline"
       inkscape:connector-curvature="0"
       id="inescutcheon"
       d="m 100,100 0,159 C 100,424.40588 234.8926,515.01826 300,549.1543 365.1074,515.01826 500,424.40588 500,259 l 0,-159 -400,0 z" />
    <g
       id="g14125"
       transform="matrix(1.5393944,0,0,1.5504226,203.72478,111.00559)"
       style="fill:#ffdd00;stroke:#000000;stroke-width:1.94187486;stroke-miterlimit:4;stroke-opacity:1;stroke-dasharray:none;display:inline">
      <g
         transform="translate(0,-420)"
         style="fill:#ffdd00;stroke:#000000;stroke-width:1.94187486;stroke-miterlimit:4;stroke-opacity:1;stroke-dasharray:none;display:inline"
         inkscape:label="Fond écu"
         id="layer3-0">
        <g
           transform="matrix(3.333333,0,0,3.333333,-69.5528,-748.3586)"
           style="fill:#ffdd00;stroke:#000000;stroke-width:0.58256251;stroke-miterlimit:4;stroke-opacity:1;stroke-dasharray:none;display:inline"
           inkscape:label="Fond écu"
           id="g6515" />
        <g
           transform="matrix(3.333333,0,0,3.333333,-69.5528,-748.3586)"
           style="fill:#ffdd00;stroke:#000000;stroke-width:0.58256251;stroke-miterlimit:4;stroke-opacity:1;stroke-dasharray:none;display:inline"
           inkscape:label="Reflet final"
           id="g6534" />
        <g
           transform="matrix(3.333333,0,0,3.333333,-69.5528,-748.3586)"
           style="fill:#ffdd00;stroke:#000000;stroke-width:0.58256251;stroke-miterlimit:4;stroke-opacity:1;stroke-dasharray:none;display:inline"
           inkscape:label="Contour final"
           id="g2400" />
        <path
           inkscape:connector-curvature="0"
           inkscape:export-ydpi="90"
           inkscape:export-xdpi="90"
           inkscape:export-filename="C:\Documents and Settings\Propriétaire\Mes documents\Mes images\blason\123.svg"
           sodipodi:nodetypes="cccscccccccccccccccccccccccccccccccccccccccccccccccccccccccccccccccccccccccccccccccccccccccccccccccccccccccccccccccccccccccccccccccccccccccccccccccccccccccccccccccccccccccccccccccccsccccccccccccccccccccccssccccccccccccccccccccccccccccccccccccccccccccccccccccccccccc"
           id="path6540"
           d="m 2.9350463,430.95366 97.6345937,0.25294 c 0.71937,-0.15084 2.44566,3.73297 0.89237,6.35615 -3.470934,1.44374 -5.849354,4.1631 -7.535824,7.52597 -3.85102,7.6789 -4.09417,18.7131 -5.49763,25.57643 l -0.25292,1.51763 4.80588,0 1.41834,2.77365 0.23247,2.50398 0,2.50398 -0.73332,2.72753 -1.50239,2.28039 -0.76009,0.5008 1.76169,3.25516 3.00478,3.25517 3.50558,3.00476 1.788564,3.2194 2.2178,3.79172 2.50394,1.50239 2.50399,0 2.50402,-2.00318 2.50393,-3.00476 1.50234,-3.23729 0,-2.77224 -0.50074,-2.50398 -1.74384,-2.50397 -1.76169,-1.0016 -1.27889,0.5008 -1.22513,1.50239 -1.50245,1.50238 -1.00154,-1.50238 -0.20565,-3.50557 0.44709,-3.00476 0.7601,-2.00316 1.00165,-3.00478 1.00158,-3.50556 2.2446,-3.77384 2.50397,-2.23569 2.76333,-1.50239 3.50563,0.20569 2.50399,0.7959 2.76333,1.79749 2.74533,2.20886 2.00321,2.50398 2.504,3.24622 2.00316,3.53239 1.78845,4.23885 1.43086,4.00637 1.28784,4.50714 0.72435,4.77544 0.27723,4.73966 0,5.00795 -1.21628,7.51192 -2.54858,8.01271 -2.01219,4.73071 -2.23568,4.28359 -3.00474,4.50714 -4.00636,4.50717 -5.00792,4.00634 -5.00802,3.80067 -7.01109,4.71283 -2.50394,3.00478 -3.23729,4.75754 -2.772264,6.25994 -2.50399,7.28834 0.5008,4.22992 0,6.00955 1.00159,4.78437 2.003234,4.73072 3.50553,3.7649 3.00468,0.74225 3.50562,-1.00159 2.00315,-2.50398 1.50238,-3.22833 0.50085,-4.28358 0,-3.50556 -0.71542,-2.50397 -1.28781,-2.00318 -1.0016,0 -1.50234,0.50079 -1.50238,3.00477 -0.5008,2.00319 -2.50394,-0.72437 -1.00164,-1.77961 -0.22355,-1.50239 0.22355,-2.50398 0.5008,-3.00475 1.50239,-4.00637 3.00477,-4.00634 3.00474,-3.00478 4.00636,-3.00477 4.25685,-3.00476 4.5161,-3.00477 4.74854,-4.71283 3.2998,-3.80068 2.504,-4.00636 3.71136,-7.01112 2.7275,-6.51032 2.28039,-7.01112 1.29675,-6.51032 0.93893,-6.51035 0,-9.0143 -0.44711,-6.00953 -0.787,-5.50873 -1.50242,-7.01112 -2.00316,-5.27623 -2.50388,-5.74125 -2.504,-5.00794 -5.50885,-7.01112 -4.73067,-4.28359 -5.7859,-2.22674 -3.50563,-0.50079 -3.27306,0.76013 -3.2372,1.52026 -2.7544,2.72755 -2.75436,4.00636 -2.79016,5.74124 -2.21776,7.27941 -1.225184,5.50875 -0.27725,6.5103 0.5008,6.51033 0,2.00318 -3.50558,-3.00476 -3.00478,-3.21046 -1.71702,-3.29987 1.34785,-0.5008 -59.72612,0 -1.00164,2.50398 -2.50399,3.50556 -4.50712,4.00635 -4.74861,5.00795 -3.26407,5.00795 -2.00319,5.50873 -1.00159,5.22258 -0.70644,6.7965 -0.0895,7.51191 0.7959,7.51191 1.70803,8.01272 2.01216,7.01113 3.29095,8.01269 4.50708,9.01432 4.76656,8.01271 4.47136,7.51192 4.56079,7.51192 3.22832,4.50714 4.00637,5.50875 1.50239,3.71124 0.5008,3.80067 24.18962,0 3.14844,0 0.70645,0 1.50233,0 0.5008,1.0016 0,2.00318 0,3.50555 -0.74225,1.00159 -30.30698,0 -1.50235,-1.50239 0,-5.00793 1.00155,-0.77803 1.50239,-0.22357 -1.50239,0.22357 -1.00155,0.77803 0,5.00793 1.50235,1.50239 0.50079,0.5008 -1.50239,5.00794 -1.73487,4.50716 -2.77225,5.00794 -4.50717,6.00954 -5.50876,5.50874 -6.51035,6.00953 -1.50239,1.50238 77.122424,0.5008 -9.515144,-9.01431 -5.00792,-5.00794 -4.00637,-5.50874 -2.78124,-5.00794 -2.22672,-6.00955 -0.50076,-4.00635 -5.97094,0.26332 -22.54733,-0.63608 c -1.60889,-0.0454 -1.42396,3.26012 -1.99701,5.60748 l -9.01575,15.52145 -13.09612,12.9734 76.665304,0.82526 2.00317,1.00159 0.5008,2.00318 -0.5008,2.28039 -1.22513,1.22516 -77.900464,0 -2.50399,-1.00158 -0.25925,-2.50397 0.49183,-1.50238 1.26987,-1.50239 1.00154,-0.5008 1.50239,-1.50238 6.51035,-6.00953 5.50876,-5.50874 4.50717,-6.00954 2.77225,-5.00794 1.73487,-4.50716 1.50239,-5.00794 -1.44763,-1.22461 c -0.99603,-2.1202 -0.86827,-6.24315 0.26592,-6.25845 l 22.26776,-0.30047 c 5.5701,-0.90543 12.76377,-0.48731 8.4608,7.28273 l 1.00159,-6.51032 -0.5008,-1.0016 -2.00318,0 0.50085,-4.00636 1.50233,-3.50555 3.00483,-4.00636 3.50558,-4.50715 2.50398,-4.50716 4.00632,-6.51032 3.72912,-6.00954 2.28039,-2.50397 0,0 2.50399,-7.01112 2.727524,-6.00954 3.28203,-5.00794 2.00313,-6.51033 1.50239,-5.50875 1.50239,-7.01112 0.50085,-5.00793 0.28612,-7.51191 -0.28612,-5.50876 -0.50085,-4.77543 -1.00159,-4.73967 -1.93353,-4.81822 -0.85728,-1.24945 -0.99928,-0.83973 -2.2132,-1.13824 -4.012584,-6.97819 -3.50558,-3.00476 -3.00478,-3.29637 -1.50239,-3.21396 0,-0.5008 -58.5929,0 -2.00318,0 -2.00319,-1.50237 -0.5008,-2.00318 0,-4.00635 0.25529,-3.00477 1.2471,-2.00319 3.50553,0 4.00637,0 54.58657,-0.23804 -55.378,0.23804 -0.21016,-2.50396 -0.50085,-2.50397 -2.00314,-2.50398 -3.00472,-2.50396 -3.00484,-2.50398 -3.50557,-2.70485 -4.00632,-2.3031 -9.01431,-5.50874 -5.5087597,-2.78001 -3.00473,-1.72714 -2.00319,-3.50556 0,-4.00636 0.22866,-3.50555 0.77288,-1.50239 0.68148,-1.43524 z"
           style="fill:#ffdd00;fill-opacity:1;fill-rule:evenodd;stroke:#000000;stroke-width:1.94187486;stroke-linecap:butt;stroke-linejoin:miter;stroke-miterlimit:4;stroke-opacity:1;stroke-dasharray:none;display:inline" />
      </g>
      <g
         transform="translate(0,-420)"
         inkscape:label="Meubles"
         id="layer4-0"
         style="fill:#ffdd00;stroke:#000000;stroke-width:1.94187486;stroke-miterlimit:4;stroke-opacity:1;stroke-dasharray:none" />
      <g
         transform="translate(0,-420)"
         inkscape:label="Reflet final"
         id="layer2-9"
         style="fill:#ffdd00;stroke:#000000;stroke-width:1.94187486;stroke-miterlimit:4;stroke-opacity:1;stroke-dasharray:none" />
      <g
         transform="translate(0,-420)"
         style="fill:#ffdd00;stroke:#000000;stroke-width:1.94187486;stroke-miterlimit:4;stroke-opacity:1;stroke-dasharray:none;display:inline"
         inkscape:label="Contour final"
         id="layer1-5" />
    </g>
  </g>
  <g
     inkscape:groupmode="layer"
     id="layer1"
     inkscape:label="Cover"
     style="display:inline"
     sodipodi:insensitive="true">
    <path
       d="m 2,2 v 257 c 0,286 298,398 298,398 0,0 298,-112 298,-398 V 2 z"
       id="shine"
       inkscape:connector-curvature="0"
       style="fill:url(#radialGradient3074);stroke:#000000;stroke-width:3" />
  </g>
</svg>
