<?xml version="1.0" encoding="UTF-8" standalone="no"?>
<svg
   xmlns:dc="http://purl.org/dc/elements/1.1/"
   xmlns:cc="http://creativecommons.org/ns#"
   xmlns:rdf="http://www.w3.org/1999/02/22-rdf-syntax-ns#"
   xmlns:svg="http://www.w3.org/2000/svg"
   xmlns="http://www.w3.org/2000/svg"
   xmlns:xlink="http://www.w3.org/1999/xlink"
   xmlns:sodipodi="http://sodipodi.sourceforge.net/DTD/sodipodi-0.dtd"
   xmlns:inkscape="http://www.inkscape.org/namespaces/inkscape"
   width="600"
   height="660"
   id="svg2"
   version="1.1"
   inkscape:version="0.48.2 r9819"
   sodipodi:docname="House_Redfort.svg">
  <metadata
     id="metadata24">
    <rdf:RDF>
      <cc:Work
         rdf:about="">
        <dc:format>image/svg+xml</dc:format>
        <dc:type
           rdf:resource="http://purl.org/dc/dcmitype/StillImage" />
        <dc:title />
      </cc:Work>
    </rdf:RDF>
  </metadata>
  <sodipodi:namedview
     pagecolor="#ffffff"
     bordercolor="#666666"
     borderopacity="1"
     objecttolerance="10"
     gridtolerance="10"
     guidetolerance="10"
     inkscape:pageopacity="0"
     inkscape:pageshadow="2"
     inkscape:window-width="1366"
     inkscape:window-height="715"
     id="namedview22"
     showgrid="false"
     inkscape:zoom="0.50568849"
     inkscape:cx="383.17263"
     inkscape:cy="122.77793"
     inkscape:window-x="-8"
     inkscape:window-y="-8"
     inkscape:window-maximized="1"
     inkscape:current-layer="layer2" />
  <defs
     id="defs4">
    <inkscape:path-effect
       effect="spiro"
       id="path-effect8286"
       is_visible="true" />
    <inkscape:path-effect
       effect="spiro"
       id="path-effect3295"
       is_visible="true" />
    <inkscape:path-effect
       is_visible="true"
       id="path-effect3288"
       effect="spiro" />
    <inkscape:path-effect
       effect="spiro"
       id="path-effect3284"
       is_visible="true" />
    <inkscape:path-effect
       is_visible="true"
       id="path-effect3280"
       effect="spiro" />
    <inkscape:path-effect
       effect="spiro"
       id="path-effect3276"
       is_visible="true" />
    <inkscape:path-effect
       is_visible="true"
       id="path-effect3272"
       effect="spiro" />
    <inkscape:path-effect
       effect="spiro"
       id="path-effect3268"
       is_visible="true" />
    <linearGradient
       id="linearGradient3904">
      <stop
         id="stop3906"
         offset="0"
         style="stop-color:#00ff00;stop-opacity:1;" />
      <stop
         style="stop-color:#00c300;stop-opacity:1;"
         offset="0.5"
         id="stop3914" />
      <stop
         id="stop3910"
         offset="1"
         style="stop-color:#ffffff;stop-opacity:1;" />
    </linearGradient>
    <linearGradient
       id="linearGradient3854">
      <stop
         id="stop3856"
         offset="0"
         style="stop-color:#ffff00;stop-opacity:1;" />
      <stop
         style="stop-color:#ff8800;stop-opacity:1;"
         offset="0.43744272"
         id="stop3858" />
      <stop
         id="stop3860"
         offset="1"
         style="stop-color:#cc0000;stop-opacity:1;" />
    </linearGradient>
    <linearGradient
       id="linearGradient6940">
      <stop
         id="stop6942"
         offset="0"
         style="stop-color:#fcff00;stop-opacity:1;" />
      <stop
         style="stop-color:#ff8800;stop-opacity:1;"
         offset="0.3860921"
         id="stop6944" />
      <stop
         id="stop6946"
         offset="1"
         style="stop-color:#cc0000;stop-opacity:1;" />
    </linearGradient>
    <linearGradient
       id="linearGradient5451">
      <stop
         style="stop-color:#00ff00;stop-opacity:1;"
         offset="0"
         id="stop5453" />
      <stop
         id="stop3890"
         offset="0.5"
         style="stop-color:#ffffff;stop-opacity:1;" />
      <stop
         style="stop-color:#008800;stop-opacity:1;"
         offset="1"
         id="stop5455" />
    </linearGradient>
    <inkscape:path-effect
       effect="spiro"
       id="path-effect3576"
       is_visible="true" />
    <inkscape:path-effect
       is_visible="true"
       id="path-effect3572"
       effect="spiro" />
    <inkscape:path-effect
       effect="spiro"
       id="path-effect3568"
       is_visible="true" />
    <inkscape:path-effect
       is_visible="true"
       id="path-effect3136"
       effect="spiro" />
    <inkscape:path-effect
       effect="spiro"
       id="path-effect3132"
       is_visible="true" />
    <inkscape:path-effect
       effect="spiro"
       id="path-effect3101"
       is_visible="true" />
    <inkscape:path-effect
       is_visible="true"
       id="path-effect3085"
       effect="spiro" />
    <inkscape:path-effect
       is_visible="true"
       id="path-effect3083"
       effect="spiro" />
    <inkscape:path-effect
       is_visible="true"
       id="path-effect3081"
       effect="spiro" />
    <inkscape:path-effect
       is_visible="true"
       id="path-effect3079"
       effect="spiro" />
    <inkscape:path-effect
       is_visible="true"
       id="path-effect3077"
       effect="spiro" />
    <inkscape:path-effect
       is_visible="true"
       id="path-effect3075"
       effect="spiro" />
    <inkscape:path-effect
       effect="spiro"
       id="path-effect3049"
       is_visible="true" />
    <inkscape:path-effect
       is_visible="true"
       id="path-effect3045"
       effect="spiro" />
    <inkscape:path-effect
       effect="spiro"
       id="path-effect3041"
       is_visible="true" />
    <radialGradient
       id="rg"
       gradientUnits="userSpaceOnUse"
       cx="220"
       cy="220"
       r="405">
      <stop
         style="stop-color:#fff;stop-opacity:.3"
         offset="0"
         id="stop7" />
      <stop
         style="stop-color:#fff;stop-opacity:.2"
         offset=".2"
         id="stop9" />
      <stop
         style="stop-color:#666;stop-opacity:.1"
         offset=".6"
         id="stop11" />
      <stop
         style="stop-color:#000;stop-opacity:.13"
         offset="1"
         id="stop13" />
    </radialGradient>
    <path
       id="shield"
       d="m2,2v257c0,286 298,398 298,398c0,0 298-112 298-398V2z" />
    <radialGradient
       inkscape:collect="always"
       xlink:href="#rg-7"
       id="radialGradient3055-1"
       gradientUnits="userSpaceOnUse"
       cx="220"
       cy="220"
       r="405" />
    <radialGradient
       id="rg-7"
       gradientUnits="userSpaceOnUse"
       cx="220"
       cy="220"
       r="405">
      <stop
         style="stop-color:#fff;stop-opacity:.3"
         offset="0"
         id="stop7-4" />
      <stop
         style="stop-color:#fff;stop-opacity:.2"
         offset=".2"
         id="stop9-0" />
      <stop
         style="stop-color:#666;stop-opacity:.1"
         offset=".6"
         id="stop11-9" />
      <stop
         style="stop-color:#000;stop-opacity:.13"
         offset="1"
         id="stop13-4" />
    </radialGradient>
    <radialGradient
       r="405"
       cy="220"
       cx="220"
       gradientUnits="userSpaceOnUse"
       id="radialGradient3074"
       xlink:href="#rg-7"
       inkscape:collect="always" />
    <inkscape:path-effect
       is_visible="true"
       id="path-effect10120-1"
       effect="spiro" />
    <inkscape:path-effect
       effect="spiro"
       id="path-effect10118-3"
       is_visible="true" />
    <inkscape:path-effect
       effect="spiro"
       id="path-effect10116-9"
       is_visible="true" />
    <inkscape:path-effect
       effect="spiro"
       id="path-effect10114-7"
       is_visible="true" />
    <inkscape:path-effect
       effect="spiro"
       id="path-effect10112-7"
       is_visible="true" />
    <inkscape:path-effect
       effect="spiro"
       id="path-effect10110-2"
       is_visible="true" />
    <linearGradient
       inkscape:collect="always"
       xlink:href="#linearGradient4719-5"
       id="linearGradient4039"
       gradientUnits="userSpaceOnUse"
       gradientTransform="matrix(2.3257341,0,0,2.2943177,447.69485,-1820.2799)"
       x1="-145.25935"
       y1="984.24286"
       x2="-64.14286"
       y2="984.14789" />
    <linearGradient
       inkscape:collect="always"
       id="linearGradient4719-5">
      <stop
         style="stop-color:#666666;stop-opacity:1;"
         offset="0"
         id="stop4721-5" />
      <stop
         id="stop4809-1"
         offset="0.39344174"
         style="stop-color:#666666;stop-opacity:0.74901961;" />
      <stop
         style="stop-color:#666666;stop-opacity:0;"
         offset="1"
         id="stop4723-7" />
    </linearGradient>
    <radialGradient
       inkscape:collect="always"
       xlink:href="#linearGradient4801-8"
       id="radialGradient4041"
       gradientUnits="userSpaceOnUse"
       gradientTransform="matrix(-0.72153181,1.2650715,-2.2729984,-1.2616144,1712.0113,1733.7841)"
       cx="-307.14288"
       cy="782.36218"
       fx="-307.14288"
       fy="782.36218"
       r="63" />
    <linearGradient
       inkscape:collect="always"
       id="linearGradient4801-8">
      <stop
         style="stop-color:#000000;stop-opacity:1;"
         offset="0"
         id="stop4803-2" />
      <stop
         style="stop-color:#000000;stop-opacity:0;"
         offset="1"
         id="stop4805-4" />
    </linearGradient>
    <inkscape:path-effect
       effect="spiro"
       id="path-effect10108-4"
       is_visible="true" />
    <linearGradient
       inkscape:collect="always"
       xlink:href="#linearGradient4719-5"
       id="linearGradient4044"
       gradientUnits="userSpaceOnUse"
       gradientTransform="matrix(-2.4055369,0,0,-1.6485021,142.06168,1726.5307)"
       x1="-145.25935"
       y1="984.24286"
       x2="-64.14286"
       y2="984.14789" />
    <radialGradient
       inkscape:collect="always"
       xlink:href="#linearGradient4801-8"
       id="radialGradient4046"
       gradientUnits="userSpaceOnUse"
       gradientTransform="matrix(0.74628962,-0.90897301,2.3509914,0.90648896,-1165.637,-827.11785)"
       cx="-307.14288"
       cy="782.36218"
       fx="-307.14288"
       fy="782.36218"
       r="63" />
    <inkscape:path-effect
       effect="spiro"
       id="path-effect10102-7"
       is_visible="true" />
    <linearGradient
       inkscape:collect="always"
       xlink:href="#linearGradient4719-5"
       id="linearGradient4049"
       gradientUnits="userSpaceOnUse"
       gradientTransform="matrix(2.334989,0,0,-1.6146975,449.44065,1692.189)"
       x1="-145.25935"
       y1="984.24286"
       x2="-64.14286"
       y2="984.14789" />
    <radialGradient
       inkscape:collect="always"
       xlink:href="#linearGradient4801-8"
       id="radialGradient4051"
       gradientUnits="userSpaceOnUse"
       gradientTransform="matrix(-0.72440295,-0.89033332,-2.2820431,0.88790031,1718.7881,-809.09364)"
       cx="-307.14288"
       cy="782.36218"
       fx="-307.14288"
       fy="782.36218"
       r="63" />
    <inkscape:path-effect
       is_visible="true"
       id="path-effect10096-8"
       effect="spiro" />
    <linearGradient
       inkscape:collect="always"
       xlink:href="#linearGradient4719-5"
       id="linearGradient4054"
       gradientUnits="userSpaceOnUse"
       gradientTransform="matrix(-2.409599,0,0,2.2818507,139.61083,-1810.8163)"
       x1="-145.25935"
       y1="984.24286"
       x2="-64.14286"
       y2="984.14789" />
    <radialGradient
       inkscape:collect="always"
       xlink:href="#linearGradient4801-8"
       id="radialGradient4056"
       gradientUnits="userSpaceOnUse"
       gradientTransform="matrix(0.74754985,1.2581972,2.3549614,-1.2547588,-1170.296,1723.935)"
       cx="-307.14288"
       cy="782.36218"
       fx="-307.14288"
       fy="782.36218"
       r="63" />
    <inkscape:path-effect
       is_visible="true"
       id="path-effect10090-3"
       effect="spiro" />
    <inkscape:path-effect
       effect="spiro"
       id="path-effect10084-1"
       is_visible="true" />
    <inkscape:path-effect
       effect="spiro"
       id="path-effect10082-1"
       is_visible="true" />
    <radialGradient
       inkscape:collect="always"
       xlink:href="#linearGradient4801-8"
       id="radialGradient4061"
       gradientUnits="userSpaceOnUse"
       gradientTransform="matrix(-0.76516322,1.2901254,-2.4104477,-1.2865998,1806.8444,1757.4704)"
       cx="-307.14288"
       cy="782.36218"
       fx="-307.14288"
       fy="782.36218"
       r="63" />
    <inkscape:path-effect
       effect="spiro"
       id="path-effect10080-4"
       is_visible="true" />
    <inkscape:path-effect
       is_visible="true"
       id="path-effect3075-1"
       effect="spiro" />
    <inkscape:path-effect
       effect="spiro"
       id="path-effect3101-7"
       is_visible="true" />
    <linearGradient
       inkscape:collect="always"
       xlink:href="#grad1-7-7"
       id="linearGradient3085-8-8"
       gradientUnits="userSpaceOnUse"
       gradientTransform="matrix(0.77469594,0,0,0.30982404,152.68996,-13.619206)"
       x1="78.877235"
       y1="178.07356"
       x2="301.40585"
       y2="178.07356" />
    <linearGradient
       id="grad1-7-7"
       x1="78.877235"
       y1="178.07356"
       x2="301.40585"
       y2="178.07356"
       gradientTransform="scale(1.577772,0.63380513)"
       gradientUnits="userSpaceOnUse">
      <stop
         offset="0%"
         style="stop-color:#da0;"
         id="stop16-4-4" />
      <stop
         offset="40%"
         style="stop-color:#fd0;"
         id="stop18-0-0" />
      <stop
         offset="60%"
         style="stop-color:#fd0;"
         id="stop20-9-9" />
      <stop
         offset="100%"
         style="stop-color:#da0;"
         id="stop22-4-4" />
    </linearGradient>
    <linearGradient
       inkscape:collect="always"
       xlink:href="#grad1-7-7"
       id="linearGradient3081-8-8"
       gradientUnits="userSpaceOnUse"
       gradientTransform="matrix(0.77469594,0,0,0.30982404,-27.310046,-13.619206)"
       x1="78.877235"
       y1="178.07356"
       x2="301.40585"
       y2="178.07356" />
    <linearGradient
       id="linearGradient3093"
       x1="78.877235"
       y1="178.07356"
       x2="301.40585"
       y2="178.07356"
       gradientTransform="scale(1.577772,0.63380513)"
       gradientUnits="userSpaceOnUse">
      <stop
         offset="0%"
         style="stop-color:#da0;"
         id="stop3095" />
      <stop
         offset="40%"
         style="stop-color:#fd0;"
         id="stop3097" />
      <stop
         offset="60%"
         style="stop-color:#fd0;"
         id="stop3099" />
      <stop
         offset="100%"
         style="stop-color:#da0;"
         id="stop3101" />
    </linearGradient>
    <linearGradient
       y2="178.07356"
       x2="301.40585"
       y1="178.07356"
       x1="78.877235"
       gradientTransform="matrix(0.77469594,0,0,0.30982404,332.68995,-13.619206)"
       gradientUnits="userSpaceOnUse"
       id="linearGradient3128-1"
       xlink:href="#grad1-7-7"
       inkscape:collect="always" />
    <linearGradient
       id="linearGradient3104"
       x1="78.877235"
       y1="178.07356"
       x2="301.40585"
       y2="178.07356"
       gradientTransform="scale(1.577772,0.63380513)"
       gradientUnits="userSpaceOnUse">
      <stop
         offset="0%"
         style="stop-color:#da0;"
         id="stop3106" />
      <stop
         offset="40%"
         style="stop-color:#fd0;"
         id="stop3108" />
      <stop
         offset="60%"
         style="stop-color:#fd0;"
         id="stop3110" />
      <stop
         offset="100%"
         style="stop-color:#da0;"
         id="stop3112" />
    </linearGradient>
    <inkscape:path-effect
       is_visible="true"
       id="path-effect3061"
       effect="spiro" />
    <clipPath
       clipPathUnits="userSpaceOnUse"
       id="clipPath10110">
      <path
         style="fill:#ffff00;fill-opacity:1;stroke:none"
         id="path10112"
         d="M 598,2 V 259 C 598,545 300,657 300,657 300,657 2,545 2,259 V 2 z"
         inkscape:connector-curvature="0" />
    </clipPath>
    <linearGradient
       inkscape:collect="always"
       xlink:href="#linearGradient5451"
       id="linearGradient5457"
       x1="-491.73343"
       y1="496.60559"
       x2="-128.62625"
       y2="496.60559"
       gradientUnits="userSpaceOnUse"
       spreadMethod="pad" />
    <linearGradient
       inkscape:collect="always"
       xlink:href="#linearGradient5451"
       id="linearGradient6923"
       gradientUnits="userSpaceOnUse"
       spreadMethod="pad"
       x1="-491.73343"
       y1="496.60559"
       x2="-128.62625"
       y2="496.60559" />
    <radialGradient
       inkscape:collect="always"
       xlink:href="#linearGradient3904"
       id="radialGradient3916"
       cx="334.25"
       cy="274.85938"
       fx="334.25"
       fy="274.85938"
       r="266.25"
       gradientTransform="matrix(0.03365959,1.9431845,-1.0340585,0.01791183,607.21995,-379.57329)"
       gradientUnits="userSpaceOnUse" />
    <linearGradient
       y2="178.07356"
       x2="301.40585"
       y1="178.07356"
       x1="78.877235"
       gradientTransform="matrix(1.2941974,0,0,0.51989068,55.919303,-63.729152)"
       gradientUnits="userSpaceOnUse"
       id="linearGradient4465"
       xlink:href="#grad1-7"
       inkscape:collect="always" />
    <linearGradient
       id="grad1-7"
       x1="78.877235"
       y1="178.07356"
       x2="301.40585"
       y2="178.07356"
       gradientTransform="scale(1.577772,0.63380513)"
       gradientUnits="userSpaceOnUse">
      <stop
         offset="0"
         style="stop-color:#000000;stop-opacity:1;"
         id="stop16-4" />
      <stop
         offset="0.60000002"
         style="stop-color:#505050;stop-opacity:1;"
         id="stop20-0" />
      <stop
         offset="1"
         style="stop-color:#000000;stop-opacity:1;"
         id="stop22-9" />
    </linearGradient>
    <linearGradient
       inkscape:collect="always"
       xlink:href="#grad1-7"
       id="linearGradient4520"
       gradientUnits="userSpaceOnUse"
       gradientTransform="matrix(1.2941974,0,0,0.51989068,55.919303,-63.729152)"
       x1="78.877235"
       y1="178.07356"
       x2="301.40585"
       y2="178.07356" />
    <linearGradient
       id="linearGradient4635"
       x1="78.877235"
       y1="178.07356"
       x2="301.40585"
       y2="178.07356"
       gradientTransform="scale(1.577772,0.63380513)"
       gradientUnits="userSpaceOnUse">
      <stop
         offset="0"
         style="stop-color:#000000;stop-opacity:1;"
         id="stop4637" />
      <stop
         offset="0.60000002"
         style="stop-color:#505050;stop-opacity:1;"
         id="stop4639" />
      <stop
         offset="1"
         style="stop-color:#000000;stop-opacity:1;"
         id="stop4641" />
    </linearGradient>
    <clipPath
       clipPathUnits="userSpaceOnUse"
       id="clipPath17297">
      <path
         style="fill:#000000;stroke:none"
         inkscape:connector-curvature="0"
         id="path17299"
         d="m 2,2 v 257 c 0,286 298,398 298,398 0,0 298,-112 298,-398 V 2 z" />
    </clipPath>
    <clipPath
       clipPathUnits="userSpaceOnUse"
       id="clipPath6451">
      <g
         id="g6453">
        <path
           id="path6455"
           d="m 2.5,2 0,277.34375 c 0.361506,7.16766 0.9268994,14.21749 1.65625,21.15625 l 196.6875,0 0,-298.5 L 2.5,2 z"
           style="fill:#00ff00;stroke:none;display:inline"
           inkscape:connector-curvature="0" />
        <path
           id="path6457"
           d="m 200.84375,300.5 0,302.6875 C 255.48162,640.24691 300,657 300,657 c 0,0 44.51838,-16.75309 99.15625,-53.8125 l 0,-302.6875 -198.3125,0 z"
           style="fill:#00ff00;stroke:none;display:inline"
           inkscape:connector-curvature="0" />
        <path
           id="path6459"
           d="m 399.15625,300.5 196.6875,0 c 0.72935,-6.93876 1.29474,-13.98859 1.65625,-21.15625 L 597.5,2 399.15625,2 l 0,298.5 z"
           style="fill:#00ff00;stroke:none;display:inline"
           inkscape:connector-curvature="0" />
      </g>
    </clipPath>
  </defs>
  <g
     inkscape:groupmode="layer"
     id="layer2"
     inkscape:label="Elements"
     style="display:inline">
    <g
       style="display:inline"
       id="g3159">
      <use
         height="1052.3622"
         width="744.09448"
         y="0"
         x="0"
         style="fill:#ffffff"
         xlink:href="#shield"
         id="shine-1" />
      <path
         inkscape:connector-curvature="0"
         style="fill:#cc0000"
         d="m 2,2 0,257 c 0,286 298,398 298,398 0,0 298,-112 298,-398 L 598,2 2,2 z m 73,73 50,0 0,25 50,0 0,-25 50,0 0,25 50,0 0,-25 50,0 0,25 50,0 0,-25 50,0 0,25 50,0 0,-25 50,0 0,50 -25,0 0,56 25,0 0,56 -25,0 0,21.83398 -0.0312,4.34571 0,0.0625 -0.0762,3.78711 -0.13672,4.10742 -0.18555,3.92773 -0.24414,4.04688 -0.28515,3.85742 -0.33399,3.82813 -0.36719,3.6289 24.875,2.51172 c -2.05758,19.32359 -5.83372,37.58796 -10.99414,54.82812 l -23.97851,-7.06835 -0.11719,0.39648 -2.1543,6.81836 -2.29687,6.67578 -2.42969,6.51367 -2.58203,6.43164 -2.70117,6.27539 -2.82813,6.16016 -2.96875,6.08008 -1.07617,2.08008 22.20117,11.49218 c -8.75417,17.04661 -18.8152,32.82937 -29.71875,47.38477 l -19.92773,-15.0957 -3.10742,4.10156 -3.89454,4.9414 -4.07617,4.97852 -4.06836,4.78711 -4.2539,4.82617 -4.17774,4.57617 -4.24414,4.4961 -4.3125,4.41601 -2.36719,2.34961 17.60938,17.7461 c -13.88881,13.76127 -28.19783,25.98377 -42.2207,36.73242 l -15.22266,-19.83203 -2.01562,1.54687 -0.0762,0.0586 -4.26953,3.1914 -4.41406,3.22266 -4.20703,2.99609 -0.082,0.0566 -4.38867,3.05078 -0.0684,0.0469 -4.03907,2.74219 -0.0508,0.0332 -4.16601,2.76562 -0.041,0.0273 -4.12109,2.67187 -0.043,0.0274 -4.08984,2.59179 -8.06836,4.94922 13.07226,21.3125 C 322.42487,565.61854 310.00937,572.18552 300,577.10938 289.99063,572.18553 277.57513,565.61854 263.76172,557.32031 l 13.07226,-21.3125 -8.06836,-4.94922 -4.08984,-2.59179 -0.043,-0.0274 -4.12109,-2.67187 -0.041,-0.0273 -4.16601,-2.76562 -0.0508,-0.0332 -4.03907,-2.74219 -0.0684,-0.0469 -4.38867,-3.05078 -0.082,-0.0566 -4.20703,-2.99609 -4.41406,-3.22266 -4.26953,-3.1914 -0.0762,-0.0586 -2.01562,-1.54687 -15.22266,19.83203 C 203.44783,515.11268 189.13881,502.89019 175.25,489.12891 l 17.60938,-17.7461 -2.36719,-2.34961 -4.3125,-4.41601 -4.24414,-4.4961 -4.17774,-4.57617 -4.2539,-4.82617 -4.06836,-4.78711 -4.07617,-4.97852 -3.89454,-4.9414 -3.10742,-4.10156 -19.92773,15.0957 c -10.90355,-14.5554 -20.96458,-30.33816 -29.71875,-47.38477 l 22.20117,-11.49218 -1.07617,-2.08008 -2.96875,-6.08008 -2.82813,-6.16016 -2.70117,-6.27539 -2.58203,-6.43164 -2.42969,-6.51367 -2.29687,-6.67578 -2.1543,-6.81836 -0.11719,-0.39648 -23.978513,7.06835 C 82.618883,330.52546 78.842738,312.26109 76.785156,292.9375 l 24.873044,-2.51172 -0.36718,-3.6289 -0.33399,-3.82813 -0.28515,-3.85742 -0.24415,-4.04688 -0.18554,-3.92773 -0.13672,-4.10742 -0.0762,-3.78711 0,-0.0625 L 100,258.83398 100,237 l -25,0 0,-56 25,0 0,-56 -25,0 0,-50 z"
         id="bordure" />
      <g
         id="g3621"
         transform="translate(-14.24747,47.32268)">
        <rect
           width="232.51184"
           height="98.983528"
           x="197.99146"
           y="268.5542"
           id="rect5340"
           style="fill:#333333;fill-opacity:1;fill-rule:nonzero;stroke:#000000;stroke-width:2.75397229;stroke-linecap:butt;stroke-linejoin:miter;stroke-miterlimit:4;stroke-opacity:1;stroke-dasharray:none;stroke-dashoffset:0.99999998" />
        <path
           d="m 263.03135,353.07196 -76.42731,0 -16.94116,12.82313 0,13.59232 93.36847,0"
           id="path5342"
           style="fill:#b00000;fill-opacity:1;fill-rule:nonzero;stroke:#000000;stroke-width:2.75397229;stroke-linecap:square;stroke-linejoin:miter;stroke-miterlimit:4;stroke-opacity:1;stroke-dasharray:none;stroke-dashoffset:0.99999998"
           inkscape:connector-curvature="0" />
        <path
           d="m 365.46363,353.07196 76.42676,0 16.94113,12.82313 0,13.59232 -93.36789,0"
           id="path5344"
           style="fill:#b00000;fill-opacity:1;fill-rule:nonzero;stroke:#000000;stroke-width:2.75397229;stroke-linecap:square;stroke-linejoin:miter;stroke-miterlimit:4;stroke-opacity:1;stroke-dasharray:none;stroke-dashoffset:0.99999998"
           inkscape:connector-curvature="0" />
        <path
           d="m 169.66288,365.89509 289.16864,0"
           id="path5346"
           style="fill:#b00000;fill-opacity:1;fill-rule:nonzero;stroke:#000000;stroke-width:2.75397229;stroke-linecap:square;stroke-linejoin:miter;stroke-miterlimit:4;stroke-opacity:1;stroke-dasharray:none;stroke-dashoffset:0.99999998"
           inkscape:connector-curvature="0" />
        <path
           d="m 260.57402,359.70756 -19.13474,10.61823 0,15.8167 72.80818,0 72.80771,0 0,-15.8167 -19.13428,-10.61823 -53.67343,0 -53.67344,0 z"
           id="path5348"
           style="fill:#b00000;fill-opacity:1;fill-rule:evenodd;stroke:#000000;stroke-width:2.75397229;stroke-linecap:butt;stroke-linejoin:miter;stroke-miterlimit:4;stroke-opacity:1;stroke-dasharray:none"
           inkscape:connector-curvature="0" />
        <path
           d="m 241.41934,370.29518 145.65624,0"
           id="path5350"
           style="fill:#b00000;fill-opacity:1;fill-rule:evenodd;stroke:#000000;stroke-width:2.75397229;stroke-linecap:butt;stroke-linejoin:miter;stroke-miterlimit:4;stroke-opacity:1;stroke-dasharray:none"
           inkscape:connector-curvature="0" />
        <path
           d="m 231.04697,296.21319 c 11.00366,0 19.99036,10.5496 19.99036,23.55544 l 0,33.25492 14.36585,0 0,-125.99675 -78.79914,0 0,125.99675 24.45308,0 0,-33.25492 c 0,-12.49935 8.83201,-23.55544 19.98985,-23.55544 z"
           id="path5352"
           style="fill:#b00000;fill-opacity:1;fill-rule:nonzero;stroke:#000000;stroke-width:2.75397229;stroke-linecap:square;stroke-linejoin:miter;stroke-miterlimit:4;stroke-opacity:1;stroke-dasharray:none;stroke-dashoffset:0.99999998"
           inkscape:connector-curvature="0" />
        <path
           d="m 195.33251,235.1652 47.53338,0.27206 -0.23707,8.29798 12.72376,0.46843 0.33535,102.91621 -2.07572,0.009 0.27156,-33.30341 c 0.053,-17.90434 -10.68184,-25.81084 -28.69849,-23.34832 -9.10227,1.67906 -19.59233,9.07419 -20.07592,25.21007 l -0.0972,31.9565 -9.67972,-0.25213 z"
           id="rect5865"
           style="fill:#cc0000;fill-opacity:1;fill-rule:nonzero;stroke:none"
           inkscape:connector-curvature="0" />
        <rect
           width="36.235607"
           height="76.408318"
           x="215.02531"
           y="141.786"
           id="rect5354"
           style="fill:#333333;fill-opacity:1;fill-rule:nonzero;stroke:#000000;stroke-width:2.75397229;stroke-linecap:butt;stroke-linejoin:miter;stroke-miterlimit:4;stroke-opacity:1;stroke-dasharray:none;stroke-dashoffset:0.99999998" />
        <path
           d="m 206.10525,114.03411 0,79.38581 11.87869,0 0,-21.80195 c 0,-8.16457 5.01211,-14.84506 12.02388,-15.25304 0.22651,-0.0145 0.44351,0 0.67269,0 7.3284,0 13.26536,6.82668 13.26536,15.25304 l 0,21.80195 11.3093,0 0,-79.38581 -49.14992,0 z"
           id="path5356"
           style="fill:#b00000;fill-opacity:1;fill-rule:evenodd;stroke:#000000;stroke-width:2.75397229;stroke-linecap:butt;stroke-linejoin:miter;stroke-miterlimit:4;stroke-opacity:1;stroke-dasharray:none"
           inkscape:connector-curvature="0" />
        <path
           d="m 249.69201,206.35789 -31.70807,0 0,-12.93797 -23.24933,0 0,12.93797 -15.77199,0 0,-12.93797 -9.41403,0 0,23.4781 80.14342,0 m -70.72939,-0.0833 68.40995,0 0,10.2121 -68.40995,0 0,-10.2121 z"
           id="path5358"
           style="fill:#b00000;fill-opacity:1;fill-rule:evenodd;stroke:#000000;stroke-width:2.75397229;stroke-linecap:butt;stroke-linejoin:miter;stroke-miterlimit:4;stroke-opacity:1;stroke-dasharray:none"
           inkscape:connector-curvature="0" />
        <rect
           width="57.373058"
           height="119.82215"
           x="284.51852"
           y="93.164658"
           id="rect5360"
           style="fill:#333333;fill-opacity:1;fill-rule:nonzero;stroke:#000000;stroke-width:2.75397229;stroke-linecap:butt;stroke-linejoin:miter;stroke-miterlimit:4;stroke-opacity:1;stroke-dasharray:none;stroke-dashoffset:0.99999998" />
        <path
           d="m 280.50257,93.225838 0,100.263842 18.21725,0 0,-29.74053 c 0,-6.86158 3.81936,-16.38869 15.52764,-16.38869 11.70776,0 15.52772,9.52711 15.52772,16.38869 l 0,29.74053 18.21721,0 0,-100.263842 -33.74493,0 -33.74489,0 z m 30.93268,11.246452 2.81221,0 2.81227,0 0,28.91438 -2.81227,0 -2.81221,0 0,-28.91438 z m -16.13848,6.74951 5.68532,0 0,25.10223 -5.68532,0 0,-25.10223 z m 32.21611,0 5.68532,0 0,25.10223 -5.68532,0 0,-25.10223 z"
           id="path5362"
           style="fill:#b00000;fill-opacity:1;fill-rule:evenodd;stroke:#000000;stroke-width:2.75397229;stroke-linecap:butt;stroke-linejoin:miter;stroke-miterlimit:4;stroke-opacity:1;stroke-dasharray:none"
           inkscape:connector-curvature="0" />
        <path
           d="m 274.3286,78.805668 0,14.278977 39.91886,0 39.91891,0 0,-14.278977 -39.91891,0 -39.91886,0 z"
           id="path5364"
           style="fill:#b00000;fill-opacity:1;fill-rule:nonzero;stroke:#000000;stroke-width:2.75397229;stroke-linecap:square;stroke-linejoin:miter;stroke-miterlimit:4;stroke-opacity:1;stroke-dasharray:none;stroke-dashoffset:0.99999998"
           inkscape:connector-curvature="0" />
        <path
           d="m 266.80934,62.212157 0,16.593511 47.43812,0 47.43819,0 0,-16.593511 -11.92064,0 0,9.139537 -13.44889,0 0,-9.139537 -15.34419,0 0,9.139537 -6.72447,0 -6.72442,0 0,-9.139537 -15.34418,0 0,9.139537 -13.44889,0 0,-9.139537 -11.92063,0 z"
           id="path5366"
           style="fill:#b00000;fill-opacity:1;fill-rule:nonzero;stroke:#000000;stroke-width:2.75397229;stroke-linecap:square;stroke-linejoin:miter;stroke-miterlimit:4;stroke-opacity:1;stroke-dasharray:none;stroke-dashoffset:0.99999998"
           inkscape:connector-curvature="0" />
        <path
           d="m 201.82609,103.27728 0,10.75683 57.21967,0 0,-10.75683 -57.21967,0 z"
           id="path5368"
           style="fill:#b00000;fill-opacity:1;fill-rule:nonzero;stroke:#000000;stroke-width:2.75397229;stroke-linecap:square;stroke-linejoin:miter;stroke-miterlimit:4;stroke-opacity:1;stroke-dasharray:none;stroke-dashoffset:0.99999998"
           inkscape:connector-curvature="0" />
        <path
           d="m 194.49034,82.673842 0,20.603438 68.65109,0 0,-20.603438 -10.5758,0 0,10.479828 -12.77677,0 0,-10.479828 -19.50126,0 0,10.479828 -12.7762,0 0,-10.479828 -13.02106,0 z"
           id="path5370"
           style="fill:#b00000;fill-opacity:1;fill-rule:nonzero;stroke:#000000;stroke-width:2.75397229;stroke-linecap:square;stroke-linejoin:miter;stroke-miterlimit:4;stroke-opacity:1;stroke-dasharray:none;stroke-dashoffset:0.99999998"
           inkscape:connector-curvature="0" />
        <path
           d="m 397.448,296.21319 c -11.00366,0 -19.99036,10.5496 -19.99036,23.55544 l 0,33.25492 -14.36592,0 0,-125.99675 78.79867,0 0,125.99675 -24.45255,0 0,-33.25492 c 0,-12.49935 -8.83207,-23.55544 -19.98984,-23.55544 z"
           id="path5372"
           style="fill:#b00000;fill-opacity:1;fill-rule:nonzero;stroke:#000000;stroke-width:2.75397229;stroke-linecap:square;stroke-linejoin:miter;stroke-miterlimit:4;stroke-opacity:1;stroke-dasharray:none;stroke-dashoffset:0.99999998"
           inkscape:connector-curvature="0" />
        <path
           d="m 249.20338,227.0268 0,10.33698 65.04408,0 65.04408,0 0,-10.33698 -65.04408,0 -65.04408,0 z"
           id="path5374"
           style="fill:#b00000;fill-opacity:1;fill-rule:nonzero;stroke:#000000;stroke-width:2.75397229;stroke-linecap:round;stroke-linejoin:miter;stroke-miterlimit:4;stroke-opacity:1;stroke-dasharray:none;stroke-dashoffset:0.99999998"
           inkscape:connector-curvature="0" />
        <rect
           width="36.235607"
           height="76.408318"
           x="-414.93802"
           y="141.786"
           transform="scale(-1,1)"
           id="rect5376"
           style="fill:#333333;fill-opacity:1;fill-rule:nonzero;stroke:#000000;stroke-width:2.75397229;stroke-linecap:butt;stroke-linejoin:miter;stroke-miterlimit:4;stroke-opacity:1;stroke-dasharray:none;stroke-dashoffset:0.99999998" />
        <path
           d="m 422.38971,114.03411 0,79.38581 -11.87925,0 0,-21.80195 c 0,-8.16457 -5.01161,-14.84506 -12.02336,-15.25304 -0.22646,-0.0145 -0.44354,0 -0.67263,0 -7.32841,0 -13.26542,6.82668 -13.26542,15.25304 l 0,21.80195 -11.30931,0 0,-79.38581 49.14997,0 z"
           id="path5378"
           style="fill:#b00000;fill-opacity:1;fill-rule:evenodd;stroke:#000000;stroke-width:2.75397229;stroke-linecap:butt;stroke-linejoin:miter;stroke-miterlimit:4;stroke-opacity:1;stroke-dasharray:none"
           inkscape:connector-curvature="0" />
        <path
           d="m 378.80237,206.35789 31.70809,0 0,-12.93797 23.24938,0 0,12.93797 15.77252,0 0,-12.93797 9.41399,0 0,23.4781 -80.14398,0 m 70.72999,-0.0833 -68.41004,0 0,10.2121 68.41004,0 0,-10.2121 z"
           id="path5380"
           style="fill:#b00000;fill-opacity:1;fill-rule:evenodd;stroke:#000000;stroke-width:2.75397229;stroke-linecap:butt;stroke-linejoin:miter;stroke-miterlimit:4;stroke-opacity:1;stroke-dasharray:none"
           inkscape:connector-curvature="0" />
        <path
           d="m 243.88451,193.41992 0,33.60688 70.36295,0 70.36242,0 0,-33.60688 -13.3262,0 0,12.93797 -17.72866,0 0,-12.93797 -23.77984,0 0,12.93797 -15.52772,0 -15.52764,0 0,-12.93797 -23.77994,0 0,12.93797 -17.72806,0 0,-12.93797 -13.32731,0 z"
           id="path5382"
           style="fill:#b00000;fill-opacity:1;fill-rule:evenodd;stroke:#000000;stroke-width:2.75397229;stroke-linecap:butt;stroke-linejoin:miter;stroke-miterlimit:4;stroke-opacity:1;stroke-dasharray:none"
           inkscape:connector-curvature="0" />
        <path
           d="m 426.6689,103.27728 0,10.75683 -57.2197,0 0,-10.75683 57.2197,0 z"
           id="path5384"
           style="fill:#b00000;fill-opacity:1;fill-rule:nonzero;stroke:#000000;stroke-width:2.75397229;stroke-linecap:square;stroke-linejoin:miter;stroke-miterlimit:4;stroke-opacity:1;stroke-dasharray:none;stroke-dashoffset:0.99999998"
           inkscape:connector-curvature="0" />
        <path
           d="m 434.00465,82.673842 0,20.603438 -68.65116,0 0,-20.603438 10.57584,0 0,10.479828 12.77679,0 0,-10.479828 19.50118,0 0,10.479828 12.77628,0 0,-10.479828 13.02107,0 z"
           id="path5386"
           style="fill:#b00000;fill-opacity:1;fill-rule:nonzero;stroke:#000000;stroke-width:2.75397229;stroke-linecap:square;stroke-linejoin:miter;stroke-miterlimit:4;stroke-opacity:1;stroke-dasharray:none;stroke-dashoffset:0.99999998"
           inkscape:connector-curvature="0" />
        <rect
           width="137.4503"
           height="7.0942311"
           x="245.37979"
           y="374.64447"
           id="rect5307-7-4-1-2-2-1-6-8-5"
           style="fill:#cc0000;fill-opacity:1;fill-rule:nonzero;stroke:none;display:inline" />
        <path
           d="m 261.23726,237.39958 0,122.27235 25.12517,0 c 0,0 0,-25.3106 0,-45.77304 0,-21.56061 12.51254,-31.70978 28.30392,-31.70978 15.17796,0 28.3039,10.14917 28.3039,31.70978 0,20.46244 0,45.77304 0,45.77304 l 25.12524,0 0,-122.27235 -53.42914,0 -53.42909,0 z"
           id="path5414"
           style="fill:#b00000;fill-opacity:1;fill-rule:evenodd;stroke:#000000;stroke-width:2.75397229;stroke-linecap:butt;stroke-linejoin:round;stroke-miterlimit:4;stroke-opacity:1;stroke-dasharray:none;display:inline"
           inkscape:connector-curvature="0" />
        <path
           d="m 270.09902,246.51671 -0.44597,106.91227 8.78098,0 c 0,0 -1.45337,-19.59306 -0.44172,-40.03048 -0.31645,-23.18546 8.95326,-40.58008 37.43726,-40.8568 27.22123,1.79055 37.02805,19.51094 35.81663,39.5316 0.21582,20.46129 0.64301,40.30167 0.64301,40.30167 l 9.60309,0.17054 -0.88346,-106.3699 -44.15272,0.44174 z"
           id="path5414-1"
           style="fill:#cc0000;fill-opacity:1;fill-rule:evenodd;stroke:none;display:inline"
           inkscape:connector-curvature="0" />
        <rect
           width="128.98651"
           height="9.8495131"
           x="250.6377"
           y="211.89717"
           id="rect5307"
           style="fill:#cc0000;fill-opacity:1;fill-rule:nonzero;stroke:none" />
        <rect
           width="68.02713"
           height="3.9756119"
           x="172.2298"
           y="208.80498"
           id="rect5307-7"
           style="fill:#cc0000;fill-opacity:1;fill-rule:nonzero;stroke:none;display:inline" />
        <rect
           width="68.02713"
           height="3.9756119"
           x="388.01715"
           y="209.46758"
           id="rect5307-7-4"
           style="fill:#cc0000;fill-opacity:1;fill-rule:nonzero;stroke:none;display:inline" />
        <rect
           width="11.4851"
           height="12.810305"
           x="200.27994"
           y="197.31982"
           id="rect5345"
           style="fill:#cc0000;fill-opacity:1;fill-rule:nonzero;stroke:none" />
        <rect
           width="11.4851"
           height="12.810305"
           x="416.69495"
           y="197.84262"
           id="rect5345-9"
           style="fill:#cc0000;fill-opacity:1;fill-rule:nonzero;stroke:none;display:inline" />
        <rect
           width="11.4851"
           height="20.761528"
           x="279.99768"
           y="198.31934"
           id="rect5345-4"
           style="fill:#cc0000;fill-opacity:1;fill-rule:nonzero;stroke:none;display:inline" />
        <rect
           width="11.4851"
           height="20.761528"
           x="336.29926"
           y="197.87759"
           id="rect5345-4-8"
           style="fill:#cc0000;fill-opacity:1;fill-rule:nonzero;stroke:none;display:inline" />
        <rect
           width="11.4851"
           height="12.810305"
           x="392.87622"
           y="85.340149"
           id="rect5345-9-8"
           style="fill:#cc0000;fill-opacity:1;fill-rule:nonzero;stroke:none;display:inline" />
        <rect
           width="11.4851"
           height="12.810305"
           x="224.13361"
           y="85.781883"
           id="rect5345-9-8-2"
           style="fill:#cc0000;fill-opacity:1;fill-rule:nonzero;stroke:none;display:inline" />
        <rect
           width="8.2308893"
           height="9.6916847"
           x="295.68454"
           y="64.873627"
           id="rect5345-9-8-2-4"
           style="fill:#cc0000;fill-opacity:1;fill-rule:nonzero;stroke:none;display:inline" />
        <rect
           width="8.2308893"
           height="9.6916847"
           x="324.70123"
           y="64.941422"
           id="rect5345-9-8-2-4-5"
           style="fill:#cc0000;fill-opacity:1;fill-rule:nonzero;stroke:none;display:inline" />
        <rect
           width="6.7393761"
           height="9.6916847"
           x="269.37964"
           y="65.212624"
           id="rect5345-9-8-2-4-51"
           style="fill:#cc0000;fill-opacity:1;fill-rule:nonzero;stroke:none;display:inline" />
        <rect
           width="6.7393761"
           height="9.6916847"
           x="352.29425"
           y="64.67025"
           id="rect5345-9-8-2-4-51-7"
           style="fill:#cc0000;fill-opacity:1;fill-rule:nonzero;stroke:none;display:inline" />
        <rect
           width="4.7054944"
           height="13.488265"
           x="368.2941"
           y="85.280258"
           id="rect5345-9-8-2-4-51-7-1"
           style="fill:#cc0000;fill-opacity:1;fill-rule:nonzero;stroke:none;display:inline" />
        <rect
           width="4.7054944"
           height="13.488265"
           x="255.27808"
           y="85.280258"
           id="rect5345-9-8-2-4-51-7-1-1"
           style="fill:#cc0000;fill-opacity:1;fill-rule:nonzero;stroke:none;display:inline" />
        <rect
           width="4.7054944"
           height="13.488265"
           x="425.44617"
           y="85.415833"
           id="rect5345-9-8-2-4-51-7-1-5"
           style="fill:#cc0000;fill-opacity:1;fill-rule:nonzero;stroke:none;display:inline" />
        <rect
           width="4.7054944"
           height="24.606817"
           x="376.22626"
           y="197.41492"
           id="rect5345-9-8-2-4-51-7-1-2"
           style="fill:#cc0000;fill-opacity:1;fill-rule:nonzero;stroke:none;display:inline" />
        <rect
           width="4.7054944"
           height="24.335634"
           x="248.49846"
           y="197.48273"
           id="rect5345-9-8-2-4-51-7-1-2-7"
           style="fill:#cc0000;fill-opacity:1;fill-rule:nonzero;stroke:none;display:inline" />
        <rect
           width="3.7563493"
           height="16.606884"
           x="452.56464"
           y="197.07591"
           id="rect5345-9-8-2-4-51-7-1-2-6"
           style="fill:#cc0000;fill-opacity:1;fill-rule:nonzero;stroke:none;display:inline" />
        <rect
           width="58.80687"
           height="3.9756119"
           x="387.54813"
           y="219.79823"
           id="rect5307-7-4-1"
           style="fill:#cc0000;fill-opacity:1;fill-rule:nonzero;stroke:none;display:inline" />
        <rect
           width="124.29787"
           height="3.9756119"
           x="252.63399"
           y="229.96767"
           id="rect5307-7-4-1-4"
           style="fill:#cc0000;fill-opacity:1;fill-rule:nonzero;stroke:none;display:inline" />
        <rect
           width="89.586281"
           height="2.2129142"
           x="269.17621"
           y="73.765518"
           id="rect5307-7-4-1-2"
           style="fill:#cc0000;fill-opacity:1;fill-rule:nonzero;stroke:none;display:inline" />
        <rect
           width="61.789894"
           height="4.2467961"
           x="368.36188"
           y="95.663643"
           id="rect5307-7-4-1-2-3"
           style="fill:#cc0000;fill-opacity:1;fill-rule:nonzero;stroke:none;display:inline" />
        <rect
           width="62.196671"
           height="3.7044277"
           x="197.92256"
           y="96.477211"
           id="rect5307-7-4-1-2-2"
           style="fill:#cc0000;fill-opacity:1;fill-rule:nonzero;stroke:none;display:inline" />
        <rect
           width="4.7054944"
           height="13.488265"
           x="198.32938"
           y="85.415833"
           id="rect5345-9-8-2-4-51-7-1-1-2"
           style="fill:#cc0000;fill-opacity:1;fill-rule:nonzero;stroke:none;display:inline" />
        <rect
           width="51.213707"
           height="3.704428"
           x="204.83775"
           y="106.71442"
           id="rect5307-7-4-1-2-2-1"
           style="fill:#cc0000;fill-opacity:1;fill-rule:nonzero;stroke:none;display:inline" />
        <rect
           width="71.959297"
           height="5.7383099"
           x="278.53204"
           y="82.985794"
           id="rect5307-7-4-1-2-2-1-6"
           style="fill:#cc0000;fill-opacity:1;fill-rule:nonzero;stroke:none;display:inline" />
        <rect
           width="59.213642"
           height="3.4332435"
           x="181.92267"
           y="220.00163"
           id="rect5307-7-4-1-2-2-1-6-8"
           style="fill:#cc0000;fill-opacity:1;fill-rule:nonzero;stroke:none;display:inline" />
        <rect
           width="65.450882"
           height="7.0942311"
           x="172.7702"
           y="369.15298"
           id="rect5307-7-4-1-2-2-1-6-8-5-7"
           style="fill:#cc0000;fill-opacity:1;fill-rule:nonzero;stroke:none;display:inline" />
        <rect
           width="65.450882"
           height="7.0942311"
           x="389.51422"
           y="368.88174"
           id="rect5307-7-4-1-2-2-1-6-8-5-7-6"
           style="fill:#cc0000;fill-opacity:1;fill-rule:nonzero;stroke:none;display:inline" />
        <rect
           width="51.213707"
           height="3.704428"
           x="372.04065"
           y="106.68519"
           id="rect5307-7-4-1-2-2-1-1"
           style="fill:#cc0000;fill-opacity:1;fill-rule:nonzero;stroke:none;display:inline" />
        <path
           d="m 433.22603,234.71135 -47.53338,0.27206 0.23707,8.29798 -12.72376,0.46842 -0.33535,102.91622 2.07572,0.009 -0.27156,-33.3034 c -0.053,-17.9044 14.9755,-25.81089 28.69849,-23.34837 9.10227,1.67906 19.59233,9.07419 20.07592,25.21007 l 0.0972,31.95649 9.67972,-0.25211 z"
           id="rect5865-8"
           style="fill:#cc0000;fill-opacity:1;fill-rule:nonzero;stroke:none;display:inline"
           inkscape:connector-curvature="0" />
        <path
           d="m 210.47552,118.77209 0.0555,71.17784 4.0306,0 c 0,0 -0.66713,-11.96333 -0.20277,-24.44224 0.72214,-5.04923 4.19642,-14.80281 17.27099,-14.97178 12.49494,1.09329 17.34336,9.05081 16.7873,22.14263 0.0991,12.40672 -0.13854,16.62782 -0.13854,16.62782 l 3.36708,0.10413 0.0282,-70.6732 -20.44021,0.18299 z"
           id="path5414-1-9"
           style="fill:#cc0000;fill-opacity:1;fill-rule:evenodd;stroke:none;display:inline"
           inkscape:connector-curvature="0" />
        <path
           d="m 377.1883,118.94933 0.0555,71.17784 4.0306,0 c 0,0 -0.66712,-11.96333 -0.20276,-24.44224 0.72214,-5.04922 4.19642,-14.80281 17.27098,-14.97178 12.49494,1.09328 17.34337,9.05081 16.78732,22.14262 0.0991,12.40672 -0.13855,16.62783 -0.13855,16.62783 l 3.36709,0.10414 0.0281,-70.67321 -20.44021,0.18298 z"
           id="path5414-1-9-2"
           style="fill:#cc0000;fill-opacity:1;fill-rule:evenodd;stroke:none;display:inline"
           inkscape:connector-curvature="0" />
        <path
           d="m 286.02571,101.52397 0.59562,88.25625 5.46475,0 c 0,0 0.30985,-15.11081 0.93942,-30.87284 0.97911,-6.37764 4.47522,-17.82994 22.20188,-18.04337 16.94081,1.38092 21.08567,14.38114 20.24502,27.01408 0.13431,15.67085 -0.0143,22.21684 -0.0143,22.21684 l 6.99384,0.13155 -0.0486,-90.394508 -4.83962,8.476608 -0.52419,31.6652 -13.06822,0.076 -0.47819,-31.64164 -3.00491,0.0822 -0.51427,28.00764 -11.27882,-0.0407 -0.0845,-28.54276 -4.66812,-0.0181 0.25272,32.13627 -12.49758,0.006 0.096,-31.90989 z"
           id="path5414-1-9-7"
           style="fill:#cc0000;fill-opacity:1;fill-rule:evenodd;stroke:none;display:inline"
           inkscape:connector-curvature="0" />
        <path
           d="m 286.06773,97.186459 56.29355,0 0,14.919101 -4.68388,0.95413 -0.0902,-6.05992 -14.13495,0.24841 0.17348,4.85738 -3.29607,0 0.0223,-11.44773 -11.99226,-0.0885 0.26023,11.53628 -4.77065,0 -0.19293,-5.1336 -11.77703,-0.0707 -0.0867,5.20434 -5.72479,0 z"
           id="rect5978"
           style="fill:#cc0000;fill-opacity:1;fill-rule:nonzero;stroke:none"
           inkscape:connector-curvature="0" />
      </g>
    </g>
  </g>
  <g
     inkscape:groupmode="layer"
     id="layer1"
     inkscape:label="Cover"
     style="display:inline"
     sodipodi:insensitive="true">
    <path
       d="m 2,2 v 257 c 0,286 298,398 298,398 0,0 298,-112 298,-398 V 2 z"
       id="shine"
       inkscape:connector-curvature="0"
       style="fill:url(#radialGradient3074);stroke:#000000;stroke-width:3" />
  </g>
</svg>
