<?xml version="1.0" encoding="UTF-8" standalone="no"?>
<svg
   xmlns:dc="http://purl.org/dc/elements/1.1/"
   xmlns:cc="http://creativecommons.org/ns#"
   xmlns:rdf="http://www.w3.org/1999/02/22-rdf-syntax-ns#"
   xmlns:svg="http://www.w3.org/2000/svg"
   xmlns="http://www.w3.org/2000/svg"
   xmlns:xlink="http://www.w3.org/1999/xlink"
   xmlns:sodipodi="http://sodipodi.sourceforge.net/DTD/sodipodi-0.dtd"
   xmlns:inkscape="http://www.inkscape.org/namespaces/inkscape"
   width="600"
   height="660"
   id="svg2"
   version="1.1"
   inkscape:version="0.48.2 r9819"
   sodipodi:docname="House_Pyle.svg">
  <metadata
     id="metadata24">
    <rdf:RDF>
      <cc:Work
         rdf:about="">
        <dc:format>image/svg+xml</dc:format>
        <dc:type
           rdf:resource="http://purl.org/dc/dcmitype/StillImage" />
        <dc:title></dc:title>
      </cc:Work>
    </rdf:RDF>
  </metadata>
  <sodipodi:namedview
     pagecolor="#ffffff"
     bordercolor="#666666"
     borderopacity="1"
     objecttolerance="10"
     gridtolerance="10"
     guidetolerance="10"
     inkscape:pageopacity="0"
     inkscape:pageshadow="2"
     inkscape:window-width="1366"
     inkscape:window-height="715"
     id="namedview22"
     showgrid="false"
     inkscape:zoom="0.71515154"
     inkscape:cx="110.34171"
     inkscape:cy="286.40898"
     inkscape:window-x="-8"
     inkscape:window-y="-8"
     inkscape:window-maximized="1"
     inkscape:current-layer="layer2" />
  <defs
     id="defs4">
    <radialGradient
       id="rg"
       gradientUnits="userSpaceOnUse"
       cx="220"
       cy="220"
       r="405">
      <stop
         style="stop-color:#fff;stop-opacity:.3"
         offset="0"
         id="stop7" />
      <stop
         style="stop-color:#fff;stop-opacity:.2"
         offset=".2"
         id="stop9" />
      <stop
         style="stop-color:#666;stop-opacity:.1"
         offset=".6"
         id="stop11" />
      <stop
         style="stop-color:#000;stop-opacity:.13"
         offset="1"
         id="stop13" />
    </radialGradient>
    <path
       id="shield"
       d="m2,2v257c0,286 298,398 298,398c0,0 298-112 298-398V2z" />
    <radialGradient
       inkscape:collect="always"
       xlink:href="#rg-7"
       id="radialGradient3055-1"
       gradientUnits="userSpaceOnUse"
       cx="220"
       cy="220"
       r="405" />
    <radialGradient
       id="rg-7"
       gradientUnits="userSpaceOnUse"
       cx="220"
       cy="220"
       r="405">
      <stop
         style="stop-color:#fff;stop-opacity:.3"
         offset="0"
         id="stop7-4" />
      <stop
         style="stop-color:#fff;stop-opacity:.2"
         offset=".2"
         id="stop9-0" />
      <stop
         style="stop-color:#666;stop-opacity:.1"
         offset=".6"
         id="stop11-9" />
      <stop
         style="stop-color:#000;stop-opacity:.13"
         offset="1"
         id="stop13-4" />
    </radialGradient>
    <radialGradient
       r="405"
       cy="220"
       cx="220"
       gradientUnits="userSpaceOnUse"
       id="radialGradient3074"
       xlink:href="#rg-7"
       inkscape:collect="always" />
    <inkscape:path-effect
       is_visible="true"
       id="path-effect10120-1"
       effect="spiro" />
    <inkscape:path-effect
       effect="spiro"
       id="path-effect10118-3"
       is_visible="true" />
    <inkscape:path-effect
       effect="spiro"
       id="path-effect10116-9"
       is_visible="true" />
    <inkscape:path-effect
       effect="spiro"
       id="path-effect10114-7"
       is_visible="true" />
    <inkscape:path-effect
       effect="spiro"
       id="path-effect10112-7"
       is_visible="true" />
    <inkscape:path-effect
       effect="spiro"
       id="path-effect10110-2"
       is_visible="true" />
    <linearGradient
       inkscape:collect="always"
       xlink:href="#linearGradient4719-5"
       id="linearGradient4039"
       gradientUnits="userSpaceOnUse"
       gradientTransform="matrix(2.3257341,0,0,2.2943177,447.69485,-1820.2799)"
       x1="-145.25935"
       y1="984.24286"
       x2="-64.14286"
       y2="984.14789" />
    <linearGradient
       inkscape:collect="always"
       id="linearGradient4719-5">
      <stop
         style="stop-color:#666666;stop-opacity:1;"
         offset="0"
         id="stop4721-5" />
      <stop
         id="stop4809-1"
         offset="0.39344174"
         style="stop-color:#666666;stop-opacity:0.74901961;" />
      <stop
         style="stop-color:#666666;stop-opacity:0;"
         offset="1"
         id="stop4723-7" />
    </linearGradient>
    <radialGradient
       inkscape:collect="always"
       xlink:href="#linearGradient4801-8"
       id="radialGradient4041"
       gradientUnits="userSpaceOnUse"
       gradientTransform="matrix(-0.72153181,1.2650715,-2.2729984,-1.2616144,1712.0113,1733.7841)"
       cx="-307.14288"
       cy="782.36218"
       fx="-307.14288"
       fy="782.36218"
       r="63" />
    <linearGradient
       inkscape:collect="always"
       id="linearGradient4801-8">
      <stop
         style="stop-color:#000000;stop-opacity:1;"
         offset="0"
         id="stop4803-2" />
      <stop
         style="stop-color:#000000;stop-opacity:0;"
         offset="1"
         id="stop4805-4" />
    </linearGradient>
    <inkscape:path-effect
       effect="spiro"
       id="path-effect10108-4"
       is_visible="true" />
    <linearGradient
       inkscape:collect="always"
       xlink:href="#linearGradient4719-5"
       id="linearGradient4044"
       gradientUnits="userSpaceOnUse"
       gradientTransform="matrix(-2.4055369,0,0,-1.6485021,142.06168,1726.5307)"
       x1="-145.25935"
       y1="984.24286"
       x2="-64.14286"
       y2="984.14789" />
    <radialGradient
       inkscape:collect="always"
       xlink:href="#linearGradient4801-8"
       id="radialGradient4046"
       gradientUnits="userSpaceOnUse"
       gradientTransform="matrix(0.74628962,-0.90897301,2.3509914,0.90648896,-1165.637,-827.11785)"
       cx="-307.14288"
       cy="782.36218"
       fx="-307.14288"
       fy="782.36218"
       r="63" />
    <inkscape:path-effect
       effect="spiro"
       id="path-effect10102-7"
       is_visible="true" />
    <linearGradient
       inkscape:collect="always"
       xlink:href="#linearGradient4719-5"
       id="linearGradient4049"
       gradientUnits="userSpaceOnUse"
       gradientTransform="matrix(2.334989,0,0,-1.6146975,449.44065,1692.189)"
       x1="-145.25935"
       y1="984.24286"
       x2="-64.14286"
       y2="984.14789" />
    <radialGradient
       inkscape:collect="always"
       xlink:href="#linearGradient4801-8"
       id="radialGradient4051"
       gradientUnits="userSpaceOnUse"
       gradientTransform="matrix(-0.72440295,-0.89033332,-2.2820431,0.88790031,1718.7881,-809.09364)"
       cx="-307.14288"
       cy="782.36218"
       fx="-307.14288"
       fy="782.36218"
       r="63" />
    <inkscape:path-effect
       is_visible="true"
       id="path-effect10096-8"
       effect="spiro" />
    <linearGradient
       inkscape:collect="always"
       xlink:href="#linearGradient4719-5"
       id="linearGradient4054"
       gradientUnits="userSpaceOnUse"
       gradientTransform="matrix(-2.409599,0,0,2.2818507,139.61083,-1810.8163)"
       x1="-145.25935"
       y1="984.24286"
       x2="-64.14286"
       y2="984.14789" />
    <radialGradient
       inkscape:collect="always"
       xlink:href="#linearGradient4801-8"
       id="radialGradient4056"
       gradientUnits="userSpaceOnUse"
       gradientTransform="matrix(0.74754985,1.2581972,2.3549614,-1.2547588,-1170.296,1723.935)"
       cx="-307.14288"
       cy="782.36218"
       fx="-307.14288"
       fy="782.36218"
       r="63" />
    <inkscape:path-effect
       is_visible="true"
       id="path-effect10090-3"
       effect="spiro" />
    <inkscape:path-effect
       effect="spiro"
       id="path-effect10084-1"
       is_visible="true" />
    <inkscape:path-effect
       effect="spiro"
       id="path-effect10082-1"
       is_visible="true" />
    <radialGradient
       inkscape:collect="always"
       xlink:href="#linearGradient4801-8"
       id="radialGradient4061"
       gradientUnits="userSpaceOnUse"
       gradientTransform="matrix(-0.76516322,1.2901254,-2.4104477,-1.2865998,1806.8444,1757.4704)"
       cx="-307.14288"
       cy="782.36218"
       fx="-307.14288"
       fy="782.36218"
       r="63" />
    <inkscape:path-effect
       effect="spiro"
       id="path-effect10080-4"
       is_visible="true" />
  </defs>
  <g
     inkscape:groupmode="layer"
     id="layer2"
     inkscape:label="Elements"
     style="display:inline">
    <path
       inkscape:connector-curvature="0"
       style="fill:#ffffff"
       d="m 2,2 0,257 c 0,286 298,398 298,398 0,0 298,-112 298,-398 L 598,2 2,2 z"
       id="rect18" />
    <path
       inkscape:connector-curvature="0"
       style="fill:#000000"
       d="m 59.71875,10.000003 a 4,4 0 0 0 -3.71875,4 4,4 0 0 0 4,4 4,4 0 0 0 4,-4 4,4 0 0 0 -4,-4 4,4 0 0 0 -0.28125,0 z m 60,0 a 4,4 0 0 0 -3.71875,4 4,4 0 0 0 4,4 4,4 0 0 0 4,-4 4,4 0 0 0 -4,-4 4,4 0 0 0 -0.28125,0 z m 60,0 a 4,4 0 0 0 -3.71875,4 4,4 0 0 0 4,4 4,4 0 0 0 4,-4 4,4 0 0 0 -4,-4 4,4 0 0 0 -0.28125,0 z m 60,0 a 4,4 0 0 0 -3.71875,4 4,4 0 0 0 4,4 4,4 0 0 0 4,-4 4,4 0 0 0 -4,-4 4,4 0 0 0 -0.28125,0 z m 60,0 a 4,4 0 0 0 -3.71875,4 4,4 0 0 0 4,4 4,4 0 0 0 4,-4 4,4 0 0 0 -4,-4 4,4 0 0 0 -0.28125,0 z m 60,0 a 4,4 0 0 0 -3.71875,4 4,4 0 0 0 4,4 4,4 0 0 0 4,-4 4,4 0 0 0 -4,-4 4,4 0 0 0 -0.28125,0 z m 60,0 a 4,4 0 0 0 -3.71875,4 4,4 0 0 0 4,4 4,4 0 0 0 4,-4 4,4 0 0 0 -4,-4 4,4 0 0 0 -0.28125,0 z m 60,0 a 4,4 0 0 0 -3.71875,4 4,4 0 0 0 4,4 4,4 0 0 0 4,-4 4,4 0 0 0 -4,-4 4,4 0 0 0 -0.28125,0 z m 60,0 a 4,4 0 0 0 -3.71875,4 4,4 0 0 0 4,4 4,4 0 0 0 4,-4 4,4 0 0 0 -4,-4 4,4 0 0 0 -0.28125,0 z M 2,10.531253 l 0,6.90625 a 4,4 0 0 0 2,-3.4375 4,4 0 0 0 -2,-3.46875 z m 596,0 a 4,4 0 0 0 -2,3.46875 4,4 0 0 0 2,3.46875 l 0,-6.9375 z M 5.71875,17.000003 a 4,4 0 0 0 -3.71875,4 4,4 0 0 0 4,4 4,4 0 0 0 4,-4 4,4 0 0 0 -4,-4 4,4 0 0 0 -0.28125,0 z m 48,0 a 4,4 0 0 0 -3.71875,4 4,4 0 0 0 4,4 4,4 0 0 0 4,-4 4,4 0 0 0 -4,-4 4,4 0 0 0 -0.28125,0 z m 12,0 a 4,4 0 0 0 -3.71875,4 4,4 0 0 0 4,4 4,4 0 0 0 4,-4 4,4 0 0 0 -4,-4 4,4 0 0 0 -0.28125,0 z m 48,0 a 4,4 0 0 0 -3.71875,4 4,4 0 0 0 4,4 4,4 0 0 0 4,-4 4,4 0 0 0 -4,-4 4,4 0 0 0 -0.28125,0 z m 12,0 a 4,4 0 0 0 -3.71875,4 4,4 0 0 0 4,4 4,4 0 0 0 4,-4 4,4 0 0 0 -4,-4 4,4 0 0 0 -0.28125,0 z m 48,0 a 4,4 0 0 0 -3.71875,4 4,4 0 0 0 4,4 4,4 0 0 0 4,-4 4,4 0 0 0 -4,-4 4,4 0 0 0 -0.28125,0 z m 12,0 a 4,4 0 0 0 -3.71875,4 4,4 0 0 0 4,4 4,4 0 0 0 4,-4 4,4 0 0 0 -4,-4 4,4 0 0 0 -0.28125,0 z m 48,0 a 4,4 0 0 0 -3.71875,4 4,4 0 0 0 4,4 4,4 0 0 0 4,-4 4,4 0 0 0 -4,-4 4,4 0 0 0 -0.28125,0 z m 12,0 a 4,4 0 0 0 -3.71875,4 4,4 0 0 0 4,4 4,4 0 0 0 4,-4 4,4 0 0 0 -4,-4 4,4 0 0 0 -0.28125,0 z m 48,0 a 4,4 0 0 0 -3.71875,4 4,4 0 0 0 4,4 4,4 0 0 0 4,-4 4,4 0 0 0 -4,-4 4,4 0 0 0 -0.28125,0 z m 12,0 a 4,4 0 0 0 -3.71875,4 4,4 0 0 0 4,4 4,4 0 0 0 4,-4 4,4 0 0 0 -4,-4 4,4 0 0 0 -0.28125,0 z m 48,0 a 4,4 0 0 0 -3.71875,4 4,4 0 0 0 4,4 4,4 0 0 0 4,-4 4,4 0 0 0 -4,-4 4,4 0 0 0 -0.28125,0 z m 12,0 a 4,4 0 0 0 -3.71875,4 4,4 0 0 0 4,4 4,4 0 0 0 4,-4 4,4 0 0 0 -4,-4 4,4 0 0 0 -0.28125,0 z m 48,0 a 4,4 0 0 0 -3.71875,4 4,4 0 0 0 4,4 4,4 0 0 0 4,-4 4,4 0 0 0 -4,-4 4,4 0 0 0 -0.28125,0 z m 12,0 a 4,4 0 0 0 -3.71875,4 4,4 0 0 0 4,4 4,4 0 0 0 4,-4 4,4 0 0 0 -4,-4 4,4 0 0 0 -0.28125,0 z m 48,0 a 4,4 0 0 0 -3.71875,4 4,4 0 0 0 4,4 4,4 0 0 0 4,-4 4,4 0 0 0 -4,-4 4,4 0 0 0 -0.28125,0 z m 12,0 a 4,4 0 0 0 -3.71875,4 4,4 0 0 0 4,4 4,4 0 0 0 4,-4 4,4 0 0 0 -4,-4 4,4 0 0 0 -0.28125,0 z m 48,0 a 4,4 0 0 0 -3.71875,4 4,4 0 0 0 4,4 4,4 0 0 0 4,-4 4,4 0 0 0 -4,-4 4,4 0 0 0 -0.28125,0 z m 12,0 a 4,4 0 0 0 -3.71875,4 4,4 0 0 0 4,4 4,4 0 0 0 4,-4 4,4 0 0 0 -4,-4 4,4 0 0 0 -0.28125,0 z m 48,0 a 4,4 0 0 0 -3.71875,4 4,4 0 0 0 4,4 4,4 0 0 0 4,-3.71875 4,4 0 0 0 0,-0.28125 4,4 0 0 0 -4,-4 4,4 0 0 0 -0.28125,0 z m -534.53125,4 c 0,10 -4.987501,21 -9.1875,25 3,0 5,0 7,-1 0.6,2 1.2,4 3,5 1.8,-1 2.4,-3 3,-5 1.999999,1 4,1 7,1 -4.2,-4 -9.1875,-15 -9.1875,-25 l -1.625,0 z m 60,0 c 0,10 -4.9875,21 -9.1875,25 3,0 5,0 7,-1 0.6,2 1.2,4 3,5 1.8,-1 2.4,-3 3,-5 2,1 4,1 7,1 -4.2,-4 -9.1875,-15 -9.1875,-25 l -1.625,0 z m 60,0 c 0,10 -4.9875,21 -9.1875,25 3,0 5,0 7,-1 0.6,2 1.2,4 3,5 1.8,-1 2.4,-3 3,-5 2,1 4,1 7,1 -4.2,-4 -9.1875,-15 -9.1875,-25 l -1.625,0 z m 60,0 c 0,10 -4.9875,21 -9.1875,25 3,0 5,0 7,-1 0.6,2 1.2,4 3,5 1.8,-1 2.4,-3 3,-5 2,1 4,1 7,1 -4.2,-4 -9.1875,-15 -9.1875,-25 l -1.625,0 z m 60,0 c 0,10 -4.9875,21 -9.1875,25 3,0 5,0 7,-1 0.6,2 1.2,4 3,5 1.8,-1 2.4,-3 3,-5 2,1 4,1 7,1 -4.2,-4 -9.1875,-15 -9.1875,-25 l -1.625,0 z m 60,0 c 0,10 -4.9875,21 -9.1875,25 3,0 5,0 7,-1 0.6,2 1.2,4 3,5 1.8,-1 2.4,-3 3,-5 2,1 4,1 7,1 -4.2,-4 -9.1875,-15 -9.1875,-25 l -1.625,0 z m 60,0 c 0,10 -4.9875,21 -9.1875,25 3,0 5,0 7,-1 0.6,2 1.2,4 3,5 1.8,-1 2.4,-3 3,-5 2,1 4,1 7,1 -4.2,-4 -9.1875,-15 -9.1875,-25 l -1.625,0 z m 60,0 c 0,10 -4.9875,21 -9.1875,25 3,0 5,0 7,-1 0.6,2 1.2,4 3,5 1.8,-1 2.4,-3 3,-5 2,1 4,1 7,1 -4.2,-4 -9.1875,-15 -9.1875,-25 l -1.625,0 z m 60,0 c 0,10 -4.9875,21 -9.1875,25 3,0 5,0 7,-1 0.6,2 1.2,4 3,5 1.8,-1 2.4,-3 3,-5 2,1 4,1 7,1 -4.2,-4 -9.1875,-15 -9.1875,-25 l -1.625,0 z M 2,30.031253 2,47.750003 c 0.4162725,-0.845315 0.7138702,-1.796233 1,-2.75 2,1 4,1 7,1 C 7.0556573,43.195867 3.7287586,36.959492 2,30.031253 z m 596,0 c -1.72876,6.928239 -5.05566,13.164614 -8,15.96875 3,0 5,0 7,-1 0.28613,0.953767 0.58373,1.904685 1,2.75 l 0,-17.71875 z M 29.71875,70.000003 a 4,4 0 0 0 -3.71875,4 4,4 0 0 0 4,4 4,4 0 0 0 4,-4 4,4 0 0 0 -4,-4 4,4 0 0 0 -0.28125,0 z m 60,0 a 4,4 0 0 0 -3.71875,4 4,4 0 0 0 4,4 4,4 0 0 0 4,-4 4,4 0 0 0 -4,-4 4,4 0 0 0 -0.28125,0 z m 60,0 a 4,4 0 0 0 -3.71875,4 4,4 0 0 0 4,4 4,4 0 0 0 4,-4 4,4 0 0 0 -4,-4 4,4 0 0 0 -0.28125,0 z m 60,0 a 4,4 0 0 0 -3.71875,4 4,4 0 0 0 4,4 4,4 0 0 0 4,-4 4,4 0 0 0 -4,-4 4,4 0 0 0 -0.28125,0 z m 60,0 a 4,4 0 0 0 -3.71875,4 4,4 0 0 0 4,4 4,4 0 0 0 4,-4 4,4 0 0 0 -4,-4 4,4 0 0 0 -0.28125,0 z m 60,0 a 4,4 0 0 0 -3.71875,4 4,4 0 0 0 4,4 4,4 0 0 0 4,-4 4,4 0 0 0 -4,-4 4,4 0 0 0 -0.28125,0 z m 60,0 a 4,4 0 0 0 -3.71875,4 4,4 0 0 0 4,4 4,4 0 0 0 4,-4 4,4 0 0 0 -4,-4 4,4 0 0 0 -0.28125,0 z m 60,0 a 4,4 0 0 0 -3.71875,4 4,4 0 0 0 4,4 4,4 0 0 0 4,-4 4,4 0 0 0 -4,-4 4,4 0 0 0 -0.28125,0 z m 60,0 a 4,4 0 0 0 -3.71875,4 4,4 0 0 0 4,4 4,4 0 0 0 4,-4 4,4 0 0 0 -4,-4 4,4 0 0 0 -0.28125,0 z m 60,0 a 4,4 0 0 0 -3.71875,4 4,4 0 0 0 4,4 4,4 0 0 0 4,-4 4,4 0 0 0 -4,-4 4,4 0 0 0 -0.28125,0 z m -546,7 a 4,4 0 0 0 -3.71875,4 4,4 0 0 0 4,4 4,4 0 0 0 4,-4 4,4 0 0 0 -4,-4 4,4 0 0 0 -0.28125,0 z m 12,0 a 4,4 0 0 0 -3.71875,4 4,4 0 0 0 4,4 4,4 0 0 0 4,-4 4,4 0 0 0 -4,-4 4,4 0 0 0 -0.28125,0 z m 48,0 a 4,4 0 0 0 -3.71875,4 4,4 0 0 0 4,4 4,4 0 0 0 4,-4 4,4 0 0 0 -4,-4 4,4 0 0 0 -0.28125,0 z m 12,0 a 4,4 0 0 0 -3.71875,4 4,4 0 0 0 4,4 4,4 0 0 0 4,-4 4,4 0 0 0 -4,-4 4,4 0 0 0 -0.28125,0 z m 48,0 a 4,4 0 0 0 -3.71875,4 4,4 0 0 0 4,4 4,4 0 0 0 4,-4 4,4 0 0 0 -4,-4 4,4 0 0 0 -0.28125,0 z m 12,0 a 4,4 0 0 0 -3.71875,4 4,4 0 0 0 4,4 4,4 0 0 0 4,-4 4,4 0 0 0 -4,-4 4,4 0 0 0 -0.28125,0 z m 48,0 a 4,4 0 0 0 -3.71875,4 4,4 0 0 0 4,4 4,4 0 0 0 4,-4 4,4 0 0 0 -4,-4 4,4 0 0 0 -0.28125,0 z m 12,0 a 4,4 0 0 0 -3.71875,4 4,4 0 0 0 4,4 4,4 0 0 0 4,-4 4,4 0 0 0 -4,-4 4,4 0 0 0 -0.28125,0 z m 48,0 a 4,4 0 0 0 -3.71875,4 4,4 0 0 0 4,4 4,4 0 0 0 4,-4 4,4 0 0 0 -4,-4 4,4 0 0 0 -0.28125,0 z m 12,0 a 4,4 0 0 0 -3.71875,4 4,4 0 0 0 4,4 4,4 0 0 0 4,-4 4,4 0 0 0 -4,-4 4,4 0 0 0 -0.28125,0 z m 48,0 a 4,4 0 0 0 -3.71875,4 4,4 0 0 0 4,4 4,4 0 0 0 4,-4 4,4 0 0 0 -4,-4 4,4 0 0 0 -0.28125,0 z m 12,0 a 4,4 0 0 0 -3.71875,4 4,4 0 0 0 4,4 4,4 0 0 0 4,-4 4,4 0 0 0 -4,-4 4,4 0 0 0 -0.28125,0 z m 48,0 a 4,4 0 0 0 -3.71875,4 4,4 0 0 0 4,4 4,4 0 0 0 4,-4 4,4 0 0 0 -4,-4 4,4 0 0 0 -0.28125,0 z m 12,0 a 4,4 0 0 0 -3.71875,4 4,4 0 0 0 4,4 4,4 0 0 0 4,-4 4,4 0 0 0 -4,-4 4,4 0 0 0 -0.28125,0 z m 48,0 a 4,4 0 0 0 -3.71875,4 4,4 0 0 0 4,4 4,4 0 0 0 4,-4 4,4 0 0 0 -4,-4 4,4 0 0 0 -0.28125,0 z m 12,0 a 4,4 0 0 0 -3.71875,4 4,4 0 0 0 4,4 4,4 0 0 0 4,-4 4,4 0 0 0 -4,-4 4,4 0 0 0 -0.28125,0 z m 48,0 a 4,4 0 0 0 -3.71875,4 4,4 0 0 0 4,4 4,4 0 0 0 4,-4 4,4 0 0 0 -4,-4 4,4 0 0 0 -0.28125,0 z m 12,0 a 4,4 0 0 0 -3.71875,4 4,4 0 0 0 4,4 4,4 0 0 0 4,-4 4,4 0 0 0 -4,-4 4,4 0 0 0 -0.28125,0 z m 48,0 a 4,4 0 0 0 -3.71875,4 4,4 0 0 0 4,4 4,4 0 0 0 4,-4 4,4 0 0 0 -4,-4 4,4 0 0 0 -0.28125,0 z m 12,0 a 4,4 0 0 0 -3.71875,4 4,4 0 0 0 4,4 4,4 0 0 0 4,-4 4,4 0 0 0 -4,-4 4,4 0 0 0 -0.28125,0 z m -546.53125,4 C 29.1875,91.000003 24.2,102 20,106 c 3,0 5,0 7,-1 0.600001,2 1.2,4 3,5 1.800001,-1 2.4,-3 3,-5 2,1 4,1 7,1 -4.2,-4 -9.1875,-14.999997 -9.1875,-24.999997 l -1.625,0 z m 60,0 C 89.1875,91.000003 84.2,102 80,106 c 3,0 5,0 7,-1 0.6,2 1.2,4 3,5 1.800001,-1 2.4,-3 3,-5 2,1 4,1 7,1 -4.2,-4 -9.1875,-14.999997 -9.1875,-24.999997 l -1.625,0 z m 60,0 C 149.1875,91.000003 144.2,102 140,106 c 3,0 5,0 7,-1 0.6,2 1.2,4 3,5 1.8,-1 2.4,-3 3,-5 2,1 4,1 7,1 -4.2,-4 -9.1875,-14.999997 -9.1875,-24.999997 l -1.625,0 z m 60,0 C 209.1875,91.000003 204.2,102 200,106 c 3,0 5,0 7,-1 0.6,2 1.2,4 3,5 1.8,-1 2.4,-3 3,-5 2,1 4,1 7,1 -4.2,-4 -9.1875,-14.999997 -9.1875,-24.999997 l -1.625,0 z m 60,0 C 269.1875,91.000003 264.2,102 260,106 c 3,0 5,0 7,-1 0.6,2 1.2,4 3,5 1.8,-1 2.4,-3 3,-5 2,1 4,1 7,1 -4.2,-4 -9.1875,-14.999997 -9.1875,-24.999997 l -1.625,0 z m 60,0 C 329.1875,91.000003 324.2,102 320,106 c 3,0 5,0 7,-1 0.6,2 1.2,4 3,5 1.8,-1 2.4,-3 3,-5 2,1 4,1 7,1 -4.2,-4 -9.1875,-14.999997 -9.1875,-24.999997 l -1.625,0 z m 60,0 C 389.1875,91.000003 384.2,102 380,106 c 3,0 5,0 7,-1 0.6,2 1.2,4 3,5 1.8,-1 2.4,-3 3,-5 2,1 4,1 7,1 -4.2,-4 -9.1875,-14.999997 -9.1875,-24.999997 l -1.625,0 z m 60,0 C 449.1875,91.000003 444.2,102 440,106 c 3,0 5,0 7,-1 0.6,2 1.2,4 3,5 1.8,-1 2.4,-3 3,-5 2,1 4,1 7,1 -4.2,-4 -9.1875,-14.999997 -9.1875,-24.999997 l -1.625,0 z m 60,0 C 509.1875,91.000003 504.2,102 500,106 c 3,0 5,0 7,-1 0.6,2 1.2,4 3,5 1.8,-1 2.4,-3 3,-5 2,1 4,1 7,1 -4.2,-4 -9.1875,-14.999997 -9.1875,-24.999997 l -1.625,0 z m 60,0 C 569.1875,91.000003 564.2,102 560,106 c 3,0 5,0 7,-1 0.6,2 1.2,4 3,5 1.8,-1 2.4,-3 3,-5 2,1 4,1 7,1 -4.2,-4 -9.1875,-14.999997 -9.1875,-24.999997 l -1.625,0 z M 59.71875,130 A 4,4 0 0 0 56,134 a 4,4 0 0 0 4,4 4,4 0 0 0 4,-4 4,4 0 0 0 -4,-4 4,4 0 0 0 -0.28125,0 z m 60,0 A 4,4 0 0 0 116,134 a 4,4 0 0 0 4,4 4,4 0 0 0 4,-4 4,4 0 0 0 -4,-4 4,4 0 0 0 -0.28125,0 z m 60,0 A 4,4 0 0 0 176,134 a 4,4 0 0 0 4,4 4,4 0 0 0 4,-4 4,4 0 0 0 -4,-4 4,4 0 0 0 -0.28125,0 z m 60,0 A 4,4 0 0 0 236,134 a 4,4 0 0 0 4,4 4,4 0 0 0 4,-4 4,4 0 0 0 -4,-4 4,4 0 0 0 -0.28125,0 z m 60,0 A 4,4 0 0 0 296,134 a 4,4 0 0 0 4,4 4,4 0 0 0 4,-4 4,4 0 0 0 -4,-4 4,4 0 0 0 -0.28125,0 z m 60,0 A 4,4 0 0 0 356,134 a 4,4 0 0 0 4,4 4,4 0 0 0 4,-4 4,4 0 0 0 -4,-4 4,4 0 0 0 -0.28125,0 z m 60,0 A 4,4 0 0 0 416,134 a 4,4 0 0 0 4,4 4,4 0 0 0 4,-4 4,4 0 0 0 -4,-4 4,4 0 0 0 -0.28125,0 z m 60,0 A 4,4 0 0 0 476,134 a 4,4 0 0 0 4,4 4,4 0 0 0 4,-4 4,4 0 0 0 -4,-4 4,4 0 0 0 -0.28125,0 z m 60,0 A 4,4 0 0 0 536,134 a 4,4 0 0 0 4,4 4,4 0 0 0 4,-4 4,4 0 0 0 -4,-4 4,4 0 0 0 -0.28125,0 z M 2,130.53125 2,137.4375 A 4,4 0 0 0 4,134 4,4 0 0 0 2,130.53125 z m 596,0 A 4,4 0 0 0 596,134 a 4,4 0 0 0 2,3.46875 l 0,-6.9375 z M 5.71875,137 A 4,4 0 0 0 2,141 a 4,4 0 0 0 4,4 4,4 0 0 0 4,-4 4,4 0 0 0 -4,-4 4,4 0 0 0 -0.28125,0 z m 48,0 A 4,4 0 0 0 50,141 a 4,4 0 0 0 4,4 4,4 0 0 0 4,-4 4,4 0 0 0 -4,-4 4,4 0 0 0 -0.28125,0 z m 12,0 A 4,4 0 0 0 62,141 a 4,4 0 0 0 4,4 4,4 0 0 0 4,-4 4,4 0 0 0 -4,-4 4,4 0 0 0 -0.28125,0 z m 48,0 A 4,4 0 0 0 110,141 a 4,4 0 0 0 4,4 4,4 0 0 0 4,-4 4,4 0 0 0 -4,-4 4,4 0 0 0 -0.28125,0 z m 12,0 A 4,4 0 0 0 122,141 a 4,4 0 0 0 4,4 4,4 0 0 0 4,-4 4,4 0 0 0 -4,-4 4,4 0 0 0 -0.28125,0 z m 48,0 A 4,4 0 0 0 170,141 a 4,4 0 0 0 4,4 4,4 0 0 0 4,-4 4,4 0 0 0 -4,-4 4,4 0 0 0 -0.28125,0 z m 12,0 A 4,4 0 0 0 182,141 a 4,4 0 0 0 4,4 4,4 0 0 0 4,-4 4,4 0 0 0 -4,-4 4,4 0 0 0 -0.28125,0 z m 48,0 A 4,4 0 0 0 230,141 a 4,4 0 0 0 4,4 4,4 0 0 0 4,-4 4,4 0 0 0 -4,-4 4,4 0 0 0 -0.28125,0 z m 12,0 A 4,4 0 0 0 242,141 a 4,4 0 0 0 4,4 4,4 0 0 0 4,-4 4,4 0 0 0 -4,-4 4,4 0 0 0 -0.28125,0 z m 48,0 A 4,4 0 0 0 290,141 a 4,4 0 0 0 4,4 4,4 0 0 0 4,-4 4,4 0 0 0 -4,-4 4,4 0 0 0 -0.28125,0 z m 12,0 A 4,4 0 0 0 302,141 a 4,4 0 0 0 4,4 4,4 0 0 0 4,-4 4,4 0 0 0 -4,-4 4,4 0 0 0 -0.28125,0 z m 48,0 A 4,4 0 0 0 350,141 a 4,4 0 0 0 4,4 4,4 0 0 0 4,-4 4,4 0 0 0 -4,-4 4,4 0 0 0 -0.28125,0 z m 12,0 A 4,4 0 0 0 362,141 a 4,4 0 0 0 4,4 4,4 0 0 0 4,-4 4,4 0 0 0 -4,-4 4,4 0 0 0 -0.28125,0 z m 48,0 A 4,4 0 0 0 410,141 a 4,4 0 0 0 4,4 4,4 0 0 0 4,-4 4,4 0 0 0 -4,-4 4,4 0 0 0 -0.28125,0 z m 12,0 A 4,4 0 0 0 422,141 a 4,4 0 0 0 4,4 4,4 0 0 0 4,-4 4,4 0 0 0 -4,-4 4,4 0 0 0 -0.28125,0 z m 48,0 A 4,4 0 0 0 470,141 a 4,4 0 0 0 4,4 4,4 0 0 0 4,-4 4,4 0 0 0 -4,-4 4,4 0 0 0 -0.28125,0 z m 12,0 A 4,4 0 0 0 482,141 a 4,4 0 0 0 4,4 4,4 0 0 0 4,-4 4,4 0 0 0 -4,-4 4,4 0 0 0 -0.28125,0 z m 48,0 A 4,4 0 0 0 530,141 a 4,4 0 0 0 4,4 4,4 0 0 0 4,-4 4,4 0 0 0 -4,-4 4,4 0 0 0 -0.28125,0 z m 12,0 A 4,4 0 0 0 542,141 a 4,4 0 0 0 4,4 4,4 0 0 0 4,-4 4,4 0 0 0 -4,-4 4,4 0 0 0 -0.28125,0 z m 48,0 A 4,4 0 0 0 590,141 a 4,4 0 0 0 4,4 4,4 0 0 0 4,-3.71875 4,4 0 0 0 0,-0.28125 4,4 0 0 0 -4,-4 4,4 0 0 0 -0.28125,0 z M 59.1875,141 c 0,10 -4.987501,21 -9.1875,25 3,0 5,0 7,-1 0.6,2 1.2,4 3,5 1.8,-1 2.4,-3 3,-5 1.999999,1 4,1 7,1 -4.2,-4 -9.1875,-15 -9.1875,-25 l -1.625,0 z m 60,0 c 0,10 -4.9875,21 -9.1875,25 3,0 5,0 7,-1 0.6,2 1.2,4 3,5 1.8,-1 2.4,-3 3,-5 2,1 4,1 7,1 -4.2,-4 -9.1875,-15 -9.1875,-25 l -1.625,0 z m 60,0 c 0,10 -4.9875,21 -9.1875,25 3,0 5,0 7,-1 0.6,2 1.2,4 3,5 1.8,-1 2.4,-3 3,-5 2,1 4,1 7,1 -4.2,-4 -9.1875,-15 -9.1875,-25 l -1.625,0 z m 60,0 c 0,10 -4.9875,21 -9.1875,25 3,0 5,0 7,-1 0.6,2 1.2,4 3,5 1.8,-1 2.4,-3 3,-5 2,1 4,1 7,1 -4.2,-4 -9.1875,-15 -9.1875,-25 l -1.625,0 z m 60,0 c 0,10 -4.9875,21 -9.1875,25 3,0 5,0 7,-1 0.6,2 1.2,4 3,5 1.8,-1 2.4,-3 3,-5 2,1 4,1 7,1 -4.2,-4 -9.1875,-15 -9.1875,-25 l -1.625,0 z m 60,0 c 0,10 -4.9875,21 -9.1875,25 3,0 5,0 7,-1 0.6,2 1.2,4 3,5 1.8,-1 2.4,-3 3,-5 2,1 4,1 7,1 -4.2,-4 -9.1875,-15 -9.1875,-25 l -1.625,0 z m 60,0 c 0,10 -4.9875,21 -9.1875,25 3,0 5,0 7,-1 0.6,2 1.2,4 3,5 1.8,-1 2.4,-3 3,-5 2,1 4,1 7,1 -4.2,-4 -9.1875,-15 -9.1875,-25 l -1.625,0 z m 60,0 c 0,10 -4.9875,21 -9.1875,25 3,0 5,0 7,-1 0.6,2 1.2,4 3,5 1.8,-1 2.4,-3 3,-5 2,1 4,1 7,1 -4.2,-4 -9.1875,-15 -9.1875,-25 l -1.625,0 z m 60,0 c 0,10 -4.9875,21 -9.1875,25 3,0 5,0 7,-1 0.6,2 1.2,4 3,5 1.8,-1 2.4,-3 3,-5 2,1 4,1 7,1 -4.2,-4 -9.1875,-15 -9.1875,-25 l -1.625,0 z M 2,150.03125 2,167.75 c 0.4162725,-0.84532 0.7138702,-1.79623 1,-2.75 2,1 4,1 7,1 -2.9443427,-2.80414 -6.2712414,-9.04051 -8,-15.96875 z m 596,0 c -1.72876,6.92824 -5.05566,13.16461 -8,15.96875 3,0 5,0 7,-1 0.28613,0.95377 0.58373,1.90468 1,2.75 l 0,-17.71875 z M 29.71875,190 A 4,4 0 0 0 26,194 a 4,4 0 0 0 4,4 4,4 0 0 0 4,-4 4,4 0 0 0 -4,-4 4,4 0 0 0 -0.28125,0 z m 60,0 A 4,4 0 0 0 86,194 a 4,4 0 0 0 4,4 4,4 0 0 0 4,-4 4,4 0 0 0 -4,-4 4,4 0 0 0 -0.28125,0 z m 60,0 A 4,4 0 0 0 146,194 a 4,4 0 0 0 4,4 4,4 0 0 0 4,-4 4,4 0 0 0 -4,-4 4,4 0 0 0 -0.28125,0 z m 60,0 A 4,4 0 0 0 206,194 a 4,4 0 0 0 4,4 4,4 0 0 0 4,-4 4,4 0 0 0 -4,-4 4,4 0 0 0 -0.28125,0 z m 60,0 A 4,4 0 0 0 266,194 a 4,4 0 0 0 4,4 4,4 0 0 0 4,-4 4,4 0 0 0 -4,-4 4,4 0 0 0 -0.28125,0 z m 60,0 A 4,4 0 0 0 326,194 a 4,4 0 0 0 4,4 4,4 0 0 0 4,-4 4,4 0 0 0 -4,-4 4,4 0 0 0 -0.28125,0 z m 60,0 A 4,4 0 0 0 386,194 a 4,4 0 0 0 4,4 4,4 0 0 0 4,-4 4,4 0 0 0 -4,-4 4,4 0 0 0 -0.28125,0 z m 60,0 A 4,4 0 0 0 446,194 a 4,4 0 0 0 4,4 4,4 0 0 0 4,-4 4,4 0 0 0 -4,-4 4,4 0 0 0 -0.28125,0 z m 60,0 A 4,4 0 0 0 506,194 a 4,4 0 0 0 4,4 4,4 0 0 0 4,-4 4,4 0 0 0 -4,-4 4,4 0 0 0 -0.28125,0 z m 60,0 A 4,4 0 0 0 566,194 a 4,4 0 0 0 4,4 4,4 0 0 0 4,-4 4,4 0 0 0 -4,-4 4,4 0 0 0 -0.28125,0 z m -546,7 A 4,4 0 0 0 20,201 a 4,4 0 0 0 4,4 4,4 0 0 0 4,-4 4,4 0 0 0 -4,-4 4,4 0 0 0 -0.28125,0 z m 12,0 A 4,4 0 0 0 32,201 a 4,4 0 0 0 4,4 4,4 0 0 0 4,-4 4,4 0 0 0 -4,-4 4,4 0 0 0 -0.28125,0 z m 48,0 A 4,4 0 0 0 80,201 a 4,4 0 0 0 4,4 4,4 0 0 0 4,-4 4,4 0 0 0 -4,-4 4,4 0 0 0 -0.28125,0 z m 12,0 A 4,4 0 0 0 92,201 a 4,4 0 0 0 4,4 4,4 0 0 0 4,-4 4,4 0 0 0 -4,-4 4,4 0 0 0 -0.28125,0 z m 48,0 A 4,4 0 0 0 140,201 a 4,4 0 0 0 4,4 4,4 0 0 0 4,-4 4,4 0 0 0 -4,-4 4,4 0 0 0 -0.28125,0 z m 12,0 A 4,4 0 0 0 152,201 a 4,4 0 0 0 4,4 4,4 0 0 0 4,-4 4,4 0 0 0 -4,-4 4,4 0 0 0 -0.28125,0 z m 48,0 A 4,4 0 0 0 200,201 a 4,4 0 0 0 4,4 4,4 0 0 0 4,-4 4,4 0 0 0 -4,-4 4,4 0 0 0 -0.28125,0 z m 12,0 A 4,4 0 0 0 212,201 a 4,4 0 0 0 4,4 4,4 0 0 0 4,-4 4,4 0 0 0 -4,-4 4,4 0 0 0 -0.28125,0 z m 48,0 A 4,4 0 0 0 260,201 a 4,4 0 0 0 4,4 4,4 0 0 0 4,-4 4,4 0 0 0 -4,-4 4,4 0 0 0 -0.28125,0 z m 12,0 A 4,4 0 0 0 272,201 a 4,4 0 0 0 4,4 4,4 0 0 0 4,-4 4,4 0 0 0 -4,-4 4,4 0 0 0 -0.28125,0 z m 48,0 A 4,4 0 0 0 320,201 a 4,4 0 0 0 4,4 4,4 0 0 0 4,-4 4,4 0 0 0 -4,-4 4,4 0 0 0 -0.28125,0 z m 12,0 A 4,4 0 0 0 332,201 a 4,4 0 0 0 4,4 4,4 0 0 0 4,-4 4,4 0 0 0 -4,-4 4,4 0 0 0 -0.28125,0 z m 48,0 A 4,4 0 0 0 380,201 a 4,4 0 0 0 4,4 4,4 0 0 0 4,-4 4,4 0 0 0 -4,-4 4,4 0 0 0 -0.28125,0 z m 12,0 A 4,4 0 0 0 392,201 a 4,4 0 0 0 4,4 4,4 0 0 0 4,-4 4,4 0 0 0 -4,-4 4,4 0 0 0 -0.28125,0 z m 48,0 A 4,4 0 0 0 440,201 a 4,4 0 0 0 4,4 4,4 0 0 0 4,-4 4,4 0 0 0 -4,-4 4,4 0 0 0 -0.28125,0 z m 12,0 A 4,4 0 0 0 452,201 a 4,4 0 0 0 4,4 4,4 0 0 0 4,-4 4,4 0 0 0 -4,-4 4,4 0 0 0 -0.28125,0 z m 48,0 A 4,4 0 0 0 500,201 a 4,4 0 0 0 4,4 4,4 0 0 0 4,-4 4,4 0 0 0 -4,-4 4,4 0 0 0 -0.28125,0 z m 12,0 A 4,4 0 0 0 512,201 a 4,4 0 0 0 4,4 4,4 0 0 0 4,-4 4,4 0 0 0 -4,-4 4,4 0 0 0 -0.28125,0 z m 48,0 A 4,4 0 0 0 560,201 a 4,4 0 0 0 4,4 4,4 0 0 0 4,-4 4,4 0 0 0 -4,-4 4,4 0 0 0 -0.28125,0 z m 12,0 A 4,4 0 0 0 572,201 a 4,4 0 0 0 4,4 4,4 0 0 0 4,-4 4,4 0 0 0 -4,-4 4,4 0 0 0 -0.28125,0 z M 29.1875,201 c 0,10 -4.9875,21 -9.1875,25 3,0 5,0 7,-1 0.600001,2 1.2,4 3,5 1.800001,-1 2.4,-3 3,-5 2,1 4,1 7,1 -4.2,-4 -9.1875,-15 -9.1875,-25 l -1.625,0 z m 60,0 c 0,10 -4.9875,21 -9.1875,25 3,0 5,0 7,-1 0.6,2 1.2,4 3,5 1.800001,-1 2.4,-3 3,-5 2,1 4,1 7,1 -4.2,-4 -9.1875,-15 -9.1875,-25 l -1.625,0 z m 60,0 c 0,10 -4.9875,21 -9.1875,25 3,0 5,0 7,-1 0.6,2 1.2,4 3,5 1.8,-1 2.4,-3 3,-5 2,1 4,1 7,1 -4.2,-4 -9.1875,-15 -9.1875,-25 l -1.625,0 z m 60,0 c 0,10 -4.9875,21 -9.1875,25 3,0 5,0 7,-1 0.6,2 1.2,4 3,5 1.8,-1 2.4,-3 3,-5 2,1 4,1 7,1 -4.2,-4 -9.1875,-15 -9.1875,-25 l -1.625,0 z m 60,0 c 0,10 -4.9875,21 -9.1875,25 3,0 5,0 7,-1 0.6,2 1.2,4 3,5 1.8,-1 2.4,-3 3,-5 2,1 4,1 7,1 -4.2,-4 -9.1875,-15 -9.1875,-25 l -1.625,0 z m 60,0 c 0,10 -4.9875,21 -9.1875,25 3,0 5,0 7,-1 0.6,2 1.2,4 3,5 1.8,-1 2.4,-3 3,-5 2,1 4,1 7,1 -4.2,-4 -9.1875,-15 -9.1875,-25 l -1.625,0 z m 60,0 c 0,10 -4.9875,21 -9.1875,25 3,0 5,0 7,-1 0.6,2 1.2,4 3,5 1.8,-1 2.4,-3 3,-5 2,1 4,1 7,1 -4.2,-4 -9.1875,-15 -9.1875,-25 l -1.625,0 z m 60,0 c 0,10 -4.9875,21 -9.1875,25 3,0 5,0 7,-1 0.6,2 1.2,4 3,5 1.8,-1 2.4,-3 3,-5 2,1 4,1 7,1 -4.2,-4 -9.1875,-15 -9.1875,-25 l -1.625,0 z m 60,0 c 0,10 -4.9875,21 -9.1875,25 3,0 5,0 7,-1 0.6,2 1.2,4 3,5 1.8,-1 2.4,-3 3,-5 2,1 4,1 7,1 -4.2,-4 -9.1875,-15 -9.1875,-25 l -1.625,0 z m 60,0 c 0,10 -4.9875,21 -9.1875,25 3,0 5,0 7,-1 0.6,2 1.2,4 3,5 1.8,-1 2.4,-3 3,-5 2,1 4,1 7,1 -4.2,-4 -9.1875,-15 -9.1875,-25 l -1.625,0 z M 59.71875,250 A 4,4 0 0 0 56,254 a 4,4 0 0 0 4,4 4,4 0 0 0 4,-4 4,4 0 0 0 -4,-4 4,4 0 0 0 -0.28125,0 z m 60,0 A 4,4 0 0 0 116,254 a 4,4 0 0 0 4,4 4,4 0 0 0 4,-4 4,4 0 0 0 -4,-4 4,4 0 0 0 -0.28125,0 z m 60,0 A 4,4 0 0 0 176,254 a 4,4 0 0 0 4,4 4,4 0 0 0 4,-4 4,4 0 0 0 -4,-4 4,4 0 0 0 -0.28125,0 z m 60,0 A 4,4 0 0 0 236,254 a 4,4 0 0 0 4,4 4,4 0 0 0 4,-4 4,4 0 0 0 -4,-4 4,4 0 0 0 -0.28125,0 z m 60,0 A 4,4 0 0 0 296,254 a 4,4 0 0 0 4,4 4,4 0 0 0 4,-4 4,4 0 0 0 -4,-4 4,4 0 0 0 -0.28125,0 z m 60,0 A 4,4 0 0 0 356,254 a 4,4 0 0 0 4,4 4,4 0 0 0 4,-4 4,4 0 0 0 -4,-4 4,4 0 0 0 -0.28125,0 z m 60,0 A 4,4 0 0 0 416,254 a 4,4 0 0 0 4,4 4,4 0 0 0 4,-4 4,4 0 0 0 -4,-4 4,4 0 0 0 -0.28125,0 z m 60,0 A 4,4 0 0 0 476,254 a 4,4 0 0 0 4,4 4,4 0 0 0 4,-4 4,4 0 0 0 -4,-4 4,4 0 0 0 -0.28125,0 z m 60,0 A 4,4 0 0 0 536,254 a 4,4 0 0 0 4,4 4,4 0 0 0 4,-4 4,4 0 0 0 -4,-4 4,4 0 0 0 -0.28125,0 z M 2,250.53125 2,257.4375 A 4,4 0 0 0 4,254 4,4 0 0 0 2,250.53125 z m 596,0 A 4,4 0 0 0 596,254 a 4,4 0 0 0 2,3.46875 l 0,-6.9375 z M 5.71875,257 a 4,4 0 0 0 -3.6874997,3.78125 c 7.297e-4,0.1674 -9.34e-4,0.33272 0,0.5 a 4,4 0 0 0 0,0.125 A 4,4 0 0 0 6,265 a 4,4 0 0 0 4,-4 4,4 0 0 0 -4,-4 4,4 0 0 0 -0.28125,0 z m 48,0 A 4,4 0 0 0 50,261 a 4,4 0 0 0 4,4 4,4 0 0 0 4,-4 4,4 0 0 0 -4,-4 4,4 0 0 0 -0.28125,0 z m 12,0 A 4,4 0 0 0 62,261 a 4,4 0 0 0 4,4 4,4 0 0 0 4,-4 4,4 0 0 0 -4,-4 4,4 0 0 0 -0.28125,0 z m 48,0 A 4,4 0 0 0 110,261 a 4,4 0 0 0 4,4 4,4 0 0 0 4,-4 4,4 0 0 0 -4,-4 4,4 0 0 0 -0.28125,0 z m 12,0 A 4,4 0 0 0 122,261 a 4,4 0 0 0 4,4 4,4 0 0 0 4,-4 4,4 0 0 0 -4,-4 4,4 0 0 0 -0.28125,0 z m 48,0 A 4,4 0 0 0 170,261 a 4,4 0 0 0 4,4 4,4 0 0 0 4,-4 4,4 0 0 0 -4,-4 4,4 0 0 0 -0.28125,0 z m 12,0 A 4,4 0 0 0 182,261 a 4,4 0 0 0 4,4 4,4 0 0 0 4,-4 4,4 0 0 0 -4,-4 4,4 0 0 0 -0.28125,0 z m 48,0 A 4,4 0 0 0 230,261 a 4,4 0 0 0 4,4 4,4 0 0 0 4,-4 4,4 0 0 0 -4,-4 4,4 0 0 0 -0.28125,0 z m 12,0 A 4,4 0 0 0 242,261 a 4,4 0 0 0 4,4 4,4 0 0 0 4,-4 4,4 0 0 0 -4,-4 4,4 0 0 0 -0.28125,0 z m 48,0 A 4,4 0 0 0 290,261 a 4,4 0 0 0 4,4 4,4 0 0 0 4,-4 4,4 0 0 0 -4,-4 4,4 0 0 0 -0.28125,0 z m 12,0 A 4,4 0 0 0 302,261 a 4,4 0 0 0 4,4 4,4 0 0 0 4,-4 4,4 0 0 0 -4,-4 4,4 0 0 0 -0.28125,0 z m 48,0 A 4,4 0 0 0 350,261 a 4,4 0 0 0 4,4 4,4 0 0 0 4,-4 4,4 0 0 0 -4,-4 4,4 0 0 0 -0.28125,0 z m 12,0 A 4,4 0 0 0 362,261 a 4,4 0 0 0 4,4 4,4 0 0 0 4,-4 4,4 0 0 0 -4,-4 4,4 0 0 0 -0.28125,0 z m 48,0 A 4,4 0 0 0 410,261 a 4,4 0 0 0 4,4 4,4 0 0 0 4,-4 4,4 0 0 0 -4,-4 4,4 0 0 0 -0.28125,0 z m 12,0 A 4,4 0 0 0 422,261 a 4,4 0 0 0 4,4 4,4 0 0 0 4,-4 4,4 0 0 0 -4,-4 4,4 0 0 0 -0.28125,0 z m 48,0 A 4,4 0 0 0 470,261 a 4,4 0 0 0 4,4 4,4 0 0 0 4,-4 4,4 0 0 0 -4,-4 4,4 0 0 0 -0.28125,0 z m 12,0 A 4,4 0 0 0 482,261 a 4,4 0 0 0 4,4 4,4 0 0 0 4,-4 4,4 0 0 0 -4,-4 4,4 0 0 0 -0.28125,0 z m 48,0 A 4,4 0 0 0 530,261 a 4,4 0 0 0 4,4 4,4 0 0 0 4,-4 4,4 0 0 0 -4,-4 4,4 0 0 0 -0.28125,0 z m 12,0 A 4,4 0 0 0 542,261 a 4,4 0 0 0 4,4 4,4 0 0 0 4,-4 4,4 0 0 0 -4,-4 4,4 0 0 0 -0.28125,0 z m 48,0 A 4,4 0 0 0 590,261 a 4,4 0 0 0 4,4 4,4 0 0 0 3.96875,-3.5625 c 10e-4,-0.2195 -9.6e-4,-0.43654 0,-0.65625 A 4,4 0 0 0 594,257 a 4,4 0 0 0 -0.28125,0 z M 59.1875,261 c 0,10 -4.987501,21 -9.1875,25 3,0 5,0 7,-1 0.6,2 1.2,4 3,5 1.8,-1 2.4,-3 3,-5 1.999999,1 4,1 7,1 -4.2,-4 -9.1875,-15 -9.1875,-25 l -1.625,0 z m 60,0 c 0,10 -4.9875,21 -9.1875,25 3,0 5,0 7,-1 0.6,2 1.2,4 3,5 1.8,-1 2.4,-3 3,-5 2,1 4,1 7,1 -4.2,-4 -9.1875,-15 -9.1875,-25 l -1.625,0 z m 60,0 c 0,10 -4.9875,21 -9.1875,25 3,0 5,0 7,-1 0.6,2 1.2,4 3,5 1.8,-1 2.4,-3 3,-5 2,1 4,1 7,1 -4.2,-4 -9.1875,-15 -9.1875,-25 l -1.625,0 z m 60,0 c 0,10 -4.9875,21 -9.1875,25 3,0 5,0 7,-1 0.6,2 1.2,4 3,5 1.8,-1 2.4,-3 3,-5 2,1 4,1 7,1 -4.2,-4 -9.1875,-15 -9.1875,-25 l -1.625,0 z m 60,0 c 0,10 -4.9875,21 -9.1875,25 3,0 5,0 7,-1 0.6,2 1.2,4 3,5 1.8,-1 2.4,-3 3,-5 2,1 4,1 7,1 -4.2,-4 -9.1875,-15 -9.1875,-25 l -1.625,0 z m 60,0 c 0,10 -4.9875,21 -9.1875,25 3,0 5,0 7,-1 0.6,2 1.2,4 3,5 1.8,-1 2.4,-3 3,-5 2,1 4,1 7,1 -4.2,-4 -9.1875,-15 -9.1875,-25 l -1.625,0 z m 60,0 c 0,10 -4.9875,21 -9.1875,25 3,0 5,0 7,-1 0.6,2 1.2,4 3,5 1.8,-1 2.4,-3 3,-5 2,1 4,1 7,1 -4.2,-4 -9.1875,-15 -9.1875,-25 l -1.625,0 z m 60,0 c 0,10 -4.9875,21 -9.1875,25 3,0 5,0 7,-1 0.6,2 1.2,4 3,5 1.8,-1 2.4,-3 3,-5 2,1 4,1 7,1 -4.2,-4 -9.1875,-15 -9.1875,-25 l -1.625,0 z m 60,0 c 0,10 -4.9875,21 -9.1875,25 3,0 5,0 7,-1 0.6,2 1.2,4 3,5 1.8,-1 2.4,-3 3,-5 2,1 4,1 7,1 -4.2,-4 -9.1875,-15 -9.1875,-25 l -1.625,0 z M 2.1875003,270.75 c 0.1431191,4.95479 0.3364689,9.87113 0.6562499,14.71875 C 2.8914858,285.31206 2.9528472,285.15718 3,285 c 2,1 4,1 7,1 -2.8421571,-2.70682 -6.0386743,-8.61124 -7.8124997,-15.25 z m 595.6249997,0 c -1.77383,6.63876 -4.97034,12.54318 -7.8125,15.25 3,0 5,0 7,-1 0.0471,0.15718 0.10851,0.31206 0.15625,0.46875 0.31978,-4.84762 0.51313,-9.76396 0.65625,-14.71875 z M 29.71875,310 A 4,4 0 0 0 26,314 a 4,4 0 0 0 4,4 4,4 0 0 0 4,-4 4,4 0 0 0 -4,-4 4,4 0 0 0 -0.28125,0 z m 60,0 A 4,4 0 0 0 86,314 a 4,4 0 0 0 4,4 4,4 0 0 0 4,-4 4,4 0 0 0 -4,-4 4,4 0 0 0 -0.28125,0 z m 60,0 A 4,4 0 0 0 146,314 a 4,4 0 0 0 4,4 4,4 0 0 0 4,-4 4,4 0 0 0 -4,-4 4,4 0 0 0 -0.28125,0 z m 60,0 A 4,4 0 0 0 206,314 a 4,4 0 0 0 4,4 4,4 0 0 0 4,-4 4,4 0 0 0 -4,-4 4,4 0 0 0 -0.28125,0 z m 60,0 A 4,4 0 0 0 266,314 a 4,4 0 0 0 4,4 4,4 0 0 0 4,-4 4,4 0 0 0 -4,-4 4,4 0 0 0 -0.28125,0 z m 60,0 A 4,4 0 0 0 326,314 a 4,4 0 0 0 4,4 4,4 0 0 0 4,-4 4,4 0 0 0 -4,-4 4,4 0 0 0 -0.28125,0 z m 60,0 A 4,4 0 0 0 386,314 a 4,4 0 0 0 4,4 4,4 0 0 0 4,-4 4,4 0 0 0 -4,-4 4,4 0 0 0 -0.28125,0 z m 60,0 A 4,4 0 0 0 446,314 a 4,4 0 0 0 4,4 4,4 0 0 0 4,-4 4,4 0 0 0 -4,-4 4,4 0 0 0 -0.28125,0 z m 60,0 A 4,4 0 0 0 506,314 a 4,4 0 0 0 4,4 4,4 0 0 0 4,-4 4,4 0 0 0 -4,-4 4,4 0 0 0 -0.28125,0 z m 60,0 A 4,4 0 0 0 566,314 a 4,4 0 0 0 4,4 4,4 0 0 0 4,-4 4,4 0 0 0 -4,-4 4,4 0 0 0 -0.28125,0 z m -546,7 A 4,4 0 0 0 20,321 a 4,4 0 0 0 4,4 4,4 0 0 0 4,-4 4,4 0 0 0 -4,-4 4,4 0 0 0 -0.28125,0 z m 12,0 A 4,4 0 0 0 32,321 a 4,4 0 0 0 4,4 4,4 0 0 0 4,-4 4,4 0 0 0 -4,-4 4,4 0 0 0 -0.28125,0 z m 48,0 A 4,4 0 0 0 80,321 a 4,4 0 0 0 4,4 4,4 0 0 0 4,-4 4,4 0 0 0 -4,-4 4,4 0 0 0 -0.28125,0 z m 12,0 A 4,4 0 0 0 92,321 a 4,4 0 0 0 4,4 4,4 0 0 0 4,-4 4,4 0 0 0 -4,-4 4,4 0 0 0 -0.28125,0 z m 48,0 A 4,4 0 0 0 140,321 a 4,4 0 0 0 4,4 4,4 0 0 0 4,-4 4,4 0 0 0 -4,-4 4,4 0 0 0 -0.28125,0 z m 12,0 A 4,4 0 0 0 152,321 a 4,4 0 0 0 4,4 4,4 0 0 0 4,-4 4,4 0 0 0 -4,-4 4,4 0 0 0 -0.28125,0 z m 48,0 A 4,4 0 0 0 200,321 a 4,4 0 0 0 4,4 4,4 0 0 0 4,-4 4,4 0 0 0 -4,-4 4,4 0 0 0 -0.28125,0 z m 12,0 A 4,4 0 0 0 212,321 a 4,4 0 0 0 4,4 4,4 0 0 0 4,-4 4,4 0 0 0 -4,-4 4,4 0 0 0 -0.28125,0 z m 48,0 A 4,4 0 0 0 260,321 a 4,4 0 0 0 4,4 4,4 0 0 0 4,-4 4,4 0 0 0 -4,-4 4,4 0 0 0 -0.28125,0 z m 12,0 A 4,4 0 0 0 272,321 a 4,4 0 0 0 4,4 4,4 0 0 0 4,-4 4,4 0 0 0 -4,-4 4,4 0 0 0 -0.28125,0 z m 48,0 A 4,4 0 0 0 320,321 a 4,4 0 0 0 4,4 4,4 0 0 0 4,-4 4,4 0 0 0 -4,-4 4,4 0 0 0 -0.28125,0 z m 12,0 A 4,4 0 0 0 332,321 a 4,4 0 0 0 4,4 4,4 0 0 0 4,-4 4,4 0 0 0 -4,-4 4,4 0 0 0 -0.28125,0 z m 48,0 A 4,4 0 0 0 380,321 a 4,4 0 0 0 4,4 4,4 0 0 0 4,-4 4,4 0 0 0 -4,-4 4,4 0 0 0 -0.28125,0 z m 12,0 A 4,4 0 0 0 392,321 a 4,4 0 0 0 4,4 4,4 0 0 0 4,-4 4,4 0 0 0 -4,-4 4,4 0 0 0 -0.28125,0 z m 48,0 A 4,4 0 0 0 440,321 a 4,4 0 0 0 4,4 4,4 0 0 0 4,-4 4,4 0 0 0 -4,-4 4,4 0 0 0 -0.28125,0 z m 12,0 A 4,4 0 0 0 452,321 a 4,4 0 0 0 4,4 4,4 0 0 0 4,-4 4,4 0 0 0 -4,-4 4,4 0 0 0 -0.28125,0 z m 48,0 A 4,4 0 0 0 500,321 a 4,4 0 0 0 4,4 4,4 0 0 0 4,-4 4,4 0 0 0 -4,-4 4,4 0 0 0 -0.28125,0 z m 12,0 A 4,4 0 0 0 512,321 a 4,4 0 0 0 4,4 4,4 0 0 0 4,-4 4,4 0 0 0 -4,-4 4,4 0 0 0 -0.28125,0 z m 48,0 A 4,4 0 0 0 560,321 a 4,4 0 0 0 4,4 4,4 0 0 0 4,-4 4,4 0 0 0 -4,-4 4,4 0 0 0 -0.28125,0 z m 12,0 A 4,4 0 0 0 572,321 a 4,4 0 0 0 4,4 4,4 0 0 0 4,-4 4,4 0 0 0 -4,-4 4,4 0 0 0 -0.28125,0 z M 29.1875,321 c 0,10 -4.9875,21 -9.1875,25 3,0 5,0 7,-1 0.600001,2 1.2,4 3,5 1.800001,-1 2.4,-3 3,-5 2,1 4,1 7,1 -4.2,-4 -9.1875,-15 -9.1875,-25 l -1.625,0 z m 60,0 c 0,10 -4.9875,21 -9.1875,25 3,0 5,0 7,-1 0.6,2 1.2,4 3,5 1.800001,-1 2.4,-3 3,-5 2,1 4,1 7,1 -4.2,-4 -9.1875,-15 -9.1875,-25 l -1.625,0 z m 60,0 c 0,10 -4.9875,21 -9.1875,25 3,0 5,0 7,-1 0.6,2 1.2,4 3,5 1.8,-1 2.4,-3 3,-5 2,1 4,1 7,1 -4.2,-4 -9.1875,-15 -9.1875,-25 l -1.625,0 z m 60,0 c 0,10 -4.9875,21 -9.1875,25 3,0 5,0 7,-1 0.6,2 1.2,4 3,5 1.8,-1 2.4,-3 3,-5 2,1 4,1 7,1 -4.2,-4 -9.1875,-15 -9.1875,-25 l -1.625,0 z m 60,0 c 0,10 -4.9875,21 -9.1875,25 3,0 5,0 7,-1 0.6,2 1.2,4 3,5 1.8,-1 2.4,-3 3,-5 2,1 4,1 7,1 -4.2,-4 -9.1875,-15 -9.1875,-25 l -1.625,0 z m 60,0 c 0,10 -4.9875,21 -9.1875,25 3,0 5,0 7,-1 0.6,2 1.2,4 3,5 1.8,-1 2.4,-3 3,-5 2,1 4,1 7,1 -4.2,-4 -9.1875,-15 -9.1875,-25 l -1.625,0 z m 60,0 c 0,10 -4.9875,21 -9.1875,25 3,0 5,0 7,-1 0.6,2 1.2,4 3,5 1.8,-1 2.4,-3 3,-5 2,1 4,1 7,1 -4.2,-4 -9.1875,-15 -9.1875,-25 l -1.625,0 z m 60,0 c 0,10 -4.9875,21 -9.1875,25 3,0 5,0 7,-1 0.6,2 1.2,4 3,5 1.8,-1 2.4,-3 3,-5 2,1 4,1 7,1 -4.2,-4 -9.1875,-15 -9.1875,-25 l -1.625,0 z m 60,0 c 0,10 -4.9875,21 -9.1875,25 3,0 5,0 7,-1 0.6,2 1.2,4 3,5 1.8,-1 2.4,-3 3,-5 2,1 4,1 7,1 -4.2,-4 -9.1875,-15 -9.1875,-25 l -1.625,0 z m 60,0 c 0,10 -4.9875,21 -9.1875,25 3,0 5,0 7,-1 0.6,2 1.2,4 3,5 1.8,-1 2.4,-3 3,-5 2,1 4,1 7,1 -4.2,-4 -9.1875,-15 -9.1875,-25 l -1.625,0 z M 59.71875,370 A 4,4 0 0 0 56,374 a 4,4 0 0 0 4,4 4,4 0 0 0 4,-4 4,4 0 0 0 -4,-4 4,4 0 0 0 -0.28125,0 z m 60,0 A 4,4 0 0 0 116,374 a 4,4 0 0 0 4,4 4,4 0 0 0 4,-4 4,4 0 0 0 -4,-4 4,4 0 0 0 -0.28125,0 z m 60,0 A 4,4 0 0 0 176,374 a 4,4 0 0 0 4,4 4,4 0 0 0 4,-4 4,4 0 0 0 -4,-4 4,4 0 0 0 -0.28125,0 z m 60,0 A 4,4 0 0 0 236,374 a 4,4 0 0 0 4,4 4,4 0 0 0 4,-4 4,4 0 0 0 -4,-4 4,4 0 0 0 -0.28125,0 z m 60,0 A 4,4 0 0 0 296,374 a 4,4 0 0 0 4,4 4,4 0 0 0 4,-4 4,4 0 0 0 -4,-4 4,4 0 0 0 -0.28125,0 z m 60,0 A 4,4 0 0 0 356,374 a 4,4 0 0 0 4,4 4,4 0 0 0 4,-4 4,4 0 0 0 -4,-4 4,4 0 0 0 -0.28125,0 z m 60,0 A 4,4 0 0 0 416,374 a 4,4 0 0 0 4,4 4,4 0 0 0 4,-4 4,4 0 0 0 -4,-4 4,4 0 0 0 -0.28125,0 z m 60,0 A 4,4 0 0 0 476,374 a 4,4 0 0 0 4,4 4,4 0 0 0 4,-4 4,4 0 0 0 -4,-4 4,4 0 0 0 -0.28125,0 z m 60,0 A 4,4 0 0 0 536,374 a 4,4 0 0 0 4,4 4,4 0 0 0 4,-4 4,4 0 0 0 -4,-4 4,4 0 0 0 -0.28125,0 z m -486,7 A 4,4 0 0 0 50,381 a 4,4 0 0 0 4,4 4,4 0 0 0 4,-4 4,4 0 0 0 -4,-4 4,4 0 0 0 -0.28125,0 z m 12,0 A 4,4 0 0 0 62,381 a 4,4 0 0 0 4,4 4,4 0 0 0 4,-4 4,4 0 0 0 -4,-4 4,4 0 0 0 -0.28125,0 z m 48,0 A 4,4 0 0 0 110,381 a 4,4 0 0 0 4,4 4,4 0 0 0 4,-4 4,4 0 0 0 -4,-4 4,4 0 0 0 -0.28125,0 z m 12,0 A 4,4 0 0 0 122,381 a 4,4 0 0 0 4,4 4,4 0 0 0 4,-4 4,4 0 0 0 -4,-4 4,4 0 0 0 -0.28125,0 z m 48,0 A 4,4 0 0 0 170,381 a 4,4 0 0 0 4,4 4,4 0 0 0 4,-4 4,4 0 0 0 -4,-4 4,4 0 0 0 -0.28125,0 z m 12,0 A 4,4 0 0 0 182,381 a 4,4 0 0 0 4,4 4,4 0 0 0 4,-4 4,4 0 0 0 -4,-4 4,4 0 0 0 -0.28125,0 z m 48,0 A 4,4 0 0 0 230,381 a 4,4 0 0 0 4,4 4,4 0 0 0 4,-4 4,4 0 0 0 -4,-4 4,4 0 0 0 -0.28125,0 z m 12,0 A 4,4 0 0 0 242,381 a 4,4 0 0 0 4,4 4,4 0 0 0 4,-4 4,4 0 0 0 -4,-4 4,4 0 0 0 -0.28125,0 z m 48,0 A 4,4 0 0 0 290,381 a 4,4 0 0 0 4,4 4,4 0 0 0 4,-4 4,4 0 0 0 -4,-4 4,4 0 0 0 -0.28125,0 z m 12,0 A 4,4 0 0 0 302,381 a 4,4 0 0 0 4,4 4,4 0 0 0 4,-4 4,4 0 0 0 -4,-4 4,4 0 0 0 -0.28125,0 z m 48,0 A 4,4 0 0 0 350,381 a 4,4 0 0 0 4,4 4,4 0 0 0 4,-4 4,4 0 0 0 -4,-4 4,4 0 0 0 -0.28125,0 z m 12,0 A 4,4 0 0 0 362,381 a 4,4 0 0 0 4,4 4,4 0 0 0 4,-4 4,4 0 0 0 -4,-4 4,4 0 0 0 -0.28125,0 z m 48,0 A 4,4 0 0 0 410,381 a 4,4 0 0 0 4,4 4,4 0 0 0 4,-4 4,4 0 0 0 -4,-4 4,4 0 0 0 -0.28125,0 z m 12,0 A 4,4 0 0 0 422,381 a 4,4 0 0 0 4,4 4,4 0 0 0 4,-4 4,4 0 0 0 -4,-4 4,4 0 0 0 -0.28125,0 z m 48,0 A 4,4 0 0 0 470,381 a 4,4 0 0 0 4,4 4,4 0 0 0 4,-4 4,4 0 0 0 -4,-4 4,4 0 0 0 -0.28125,0 z m 12,0 A 4,4 0 0 0 482,381 a 4,4 0 0 0 4,4 4,4 0 0 0 4,-4 4,4 0 0 0 -4,-4 4,4 0 0 0 -0.28125,0 z m 48,0 A 4,4 0 0 0 530,381 a 4,4 0 0 0 4,4 4,4 0 0 0 4,-4 4,4 0 0 0 -4,-4 4,4 0 0 0 -0.28125,0 z m 12,0 A 4,4 0 0 0 542,381 a 4,4 0 0 0 4,4 4,4 0 0 0 4,-4 4,4 0 0 0 -4,-4 4,4 0 0 0 -0.28125,0 z M 59.1875,381 c 0,10 -4.987501,21 -9.1875,25 3,0 5,0 7,-1 0.6,2 1.2,4 3,5 1.8,-1 2.4,-3 3,-5 1.999999,1 4,1 7,1 -4.2,-4 -9.1875,-15 -9.1875,-25 l -1.625,0 z m 60,0 c 0,10 -4.9875,21 -9.1875,25 3,0 5,0 7,-1 0.6,2 1.2,4 3,5 1.8,-1 2.4,-3 3,-5 2,1 4,1 7,1 -4.2,-4 -9.1875,-15 -9.1875,-25 l -1.625,0 z m 60,0 c 0,10 -4.9875,21 -9.1875,25 3,0 5,0 7,-1 0.6,2 1.2,4 3,5 1.8,-1 2.4,-3 3,-5 2,1 4,1 7,1 -4.2,-4 -9.1875,-15 -9.1875,-25 l -1.625,0 z m 60,0 c 0,10 -4.9875,21 -9.1875,25 3,0 5,0 7,-1 0.6,2 1.2,4 3,5 1.8,-1 2.4,-3 3,-5 2,1 4,1 7,1 -4.2,-4 -9.1875,-15 -9.1875,-25 l -1.625,0 z m 60,0 c 0,10 -4.9875,21 -9.1875,25 3,0 5,0 7,-1 0.6,2 1.2,4 3,5 1.8,-1 2.4,-3 3,-5 2,1 4,1 7,1 -4.2,-4 -9.1875,-15 -9.1875,-25 l -1.625,0 z m 60,0 c 0,10 -4.9875,21 -9.1875,25 3,0 5,0 7,-1 0.6,2 1.2,4 3,5 1.8,-1 2.4,-3 3,-5 2,1 4,1 7,1 -4.2,-4 -9.1875,-15 -9.1875,-25 l -1.625,0 z m 60,0 c 0,10 -4.9875,21 -9.1875,25 3,0 5,0 7,-1 0.6,2 1.2,4 3,5 1.8,-1 2.4,-3 3,-5 2,1 4,1 7,1 -4.2,-4 -9.1875,-15 -9.1875,-25 l -1.625,0 z m 60,0 c 0,10 -4.9875,21 -9.1875,25 3,0 5,0 7,-1 0.6,2 1.2,4 3,5 1.8,-1 2.4,-3 3,-5 2,1 4,1 7,1 -4.2,-4 -9.1875,-15 -9.1875,-25 l -1.625,0 z m 60,0 c 0,10 -4.9875,21 -9.1875,25 3,0 5,0 7,-1 0.6,2 1.2,4 3,5 1.8,-1 2.4,-3 3,-5 2,1 4,1 7,1 -4.2,-4 -9.1875,-15 -9.1875,-25 l -1.625,0 z M 89.71875,430 A 4,4 0 0 0 86,434 a 4,4 0 0 0 4,4 4,4 0 0 0 4,-4 4,4 0 0 0 -4,-4 4,4 0 0 0 -0.28125,0 z m 60,0 A 4,4 0 0 0 146,434 a 4,4 0 0 0 4,4 4,4 0 0 0 4,-4 4,4 0 0 0 -4,-4 4,4 0 0 0 -0.28125,0 z m 60,0 A 4,4 0 0 0 206,434 a 4,4 0 0 0 4,4 4,4 0 0 0 4,-4 4,4 0 0 0 -4,-4 4,4 0 0 0 -0.28125,0 z m 60,0 A 4,4 0 0 0 266,434 a 4,4 0 0 0 4,4 4,4 0 0 0 4,-4 4,4 0 0 0 -4,-4 4,4 0 0 0 -0.28125,0 z m 60,0 A 4,4 0 0 0 326,434 a 4,4 0 0 0 4,4 4,4 0 0 0 4,-4 4,4 0 0 0 -4,-4 4,4 0 0 0 -0.28125,0 z m 60,0 A 4,4 0 0 0 386,434 a 4,4 0 0 0 4,4 4,4 0 0 0 4,-4 4,4 0 0 0 -4,-4 4,4 0 0 0 -0.28125,0 z m 60,0 A 4,4 0 0 0 446,434 a 4,4 0 0 0 4,4 4,4 0 0 0 4,-4 4,4 0 0 0 -4,-4 4,4 0 0 0 -0.28125,0 z m 60,0 A 4,4 0 0 0 506,434 a 4,4 0 0 0 4,4 4,4 0 0 0 4,-4 4,4 0 0 0 -4,-4 4,4 0 0 0 -0.28125,0 z m -426,7 A 4,4 0 0 0 80,441 a 4,4 0 0 0 4,4 4,4 0 0 0 4,-4 4,4 0 0 0 -4,-4 4,4 0 0 0 -0.28125,0 z m 12,0 A 4,4 0 0 0 92,441 a 4,4 0 0 0 4,4 4,4 0 0 0 4,-4 4,4 0 0 0 -4,-4 4,4 0 0 0 -0.28125,0 z m 48,0 A 4,4 0 0 0 140,441 a 4,4 0 0 0 4,4 4,4 0 0 0 4,-4 4,4 0 0 0 -4,-4 4,4 0 0 0 -0.28125,0 z m 12,0 A 4,4 0 0 0 152,441 a 4,4 0 0 0 4,4 4,4 0 0 0 4,-4 4,4 0 0 0 -4,-4 4,4 0 0 0 -0.28125,0 z m 48,0 A 4,4 0 0 0 200,441 a 4,4 0 0 0 4,4 4,4 0 0 0 4,-4 4,4 0 0 0 -4,-4 4,4 0 0 0 -0.28125,0 z m 12,0 A 4,4 0 0 0 212,441 a 4,4 0 0 0 4,4 4,4 0 0 0 4,-4 4,4 0 0 0 -4,-4 4,4 0 0 0 -0.28125,0 z m 48,0 A 4,4 0 0 0 260,441 a 4,4 0 0 0 4,4 4,4 0 0 0 4,-4 4,4 0 0 0 -4,-4 4,4 0 0 0 -0.28125,0 z m 12,0 A 4,4 0 0 0 272,441 a 4,4 0 0 0 4,4 4,4 0 0 0 4,-4 4,4 0 0 0 -4,-4 4,4 0 0 0 -0.28125,0 z m 48,0 A 4,4 0 0 0 320,441 a 4,4 0 0 0 4,4 4,4 0 0 0 4,-4 4,4 0 0 0 -4,-4 4,4 0 0 0 -0.28125,0 z m 12,0 A 4,4 0 0 0 332,441 a 4,4 0 0 0 4,4 4,4 0 0 0 4,-4 4,4 0 0 0 -4,-4 4,4 0 0 0 -0.28125,0 z m 48,0 A 4,4 0 0 0 380,441 a 4,4 0 0 0 4,4 4,4 0 0 0 4,-4 4,4 0 0 0 -4,-4 4,4 0 0 0 -0.28125,0 z m 12,0 A 4,4 0 0 0 392,441 a 4,4 0 0 0 4,4 4,4 0 0 0 4,-4 4,4 0 0 0 -4,-4 4,4 0 0 0 -0.28125,0 z m 48,0 A 4,4 0 0 0 440,441 a 4,4 0 0 0 4,4 4,4 0 0 0 4,-4 4,4 0 0 0 -4,-4 4,4 0 0 0 -0.28125,0 z m 12,0 A 4,4 0 0 0 452,441 a 4,4 0 0 0 4,4 4,4 0 0 0 4,-4 4,4 0 0 0 -4,-4 4,4 0 0 0 -0.28125,0 z m 48,0 A 4,4 0 0 0 500,441 a 4,4 0 0 0 4,4 4,4 0 0 0 4,-4 4,4 0 0 0 -4,-4 4,4 0 0 0 -0.28125,0 z m 12,0 A 4,4 0 0 0 512,441 a 4,4 0 0 0 4,4 4,4 0 0 0 4,-4 4,4 0 0 0 -4,-4 4,4 0 0 0 -0.28125,0 z M 89.1875,441 c 0,10 -4.9875,21 -9.1875,25 3,0 5,0 7,-1 0.6,2 1.2,4 3,5 1.800001,-1 2.4,-3 3,-5 2,1 4,1 7,1 -4.2,-4 -9.1875,-15 -9.1875,-25 l -1.625,0 z m 60,0 c 0,10 -4.9875,21 -9.1875,25 3,0 5,0 7,-1 0.6,2 1.2,4 3,5 1.8,-1 2.4,-3 3,-5 2,1 4,1 7,1 -4.2,-4 -9.1875,-15 -9.1875,-25 l -1.625,0 z m 60,0 c 0,10 -4.9875,21 -9.1875,25 3,0 5,0 7,-1 0.6,2 1.2,4 3,5 1.8,-1 2.4,-3 3,-5 2,1 4,1 7,1 -4.2,-4 -9.1875,-15 -9.1875,-25 l -1.625,0 z m 60,0 c 0,10 -4.9875,21 -9.1875,25 3,0 5,0 7,-1 0.6,2 1.2,4 3,5 1.8,-1 2.4,-3 3,-5 2,1 4,1 7,1 -4.2,-4 -9.1875,-15 -9.1875,-25 l -1.625,0 z m 60,0 c 0,10 -4.9875,21 -9.1875,25 3,0 5,0 7,-1 0.6,2 1.2,4 3,5 1.8,-1 2.4,-3 3,-5 2,1 4,1 7,1 -4.2,-4 -9.1875,-15 -9.1875,-25 l -1.625,0 z m 60,0 c 0,10 -4.9875,21 -9.1875,25 3,0 5,0 7,-1 0.6,2 1.2,4 3,5 1.8,-1 2.4,-3 3,-5 2,1 4,1 7,1 -4.2,-4 -9.1875,-15 -9.1875,-25 l -1.625,0 z m 60,0 c 0,10 -4.9875,21 -9.1875,25 3,0 5,0 7,-1 0.6,2 1.2,4 3,5 1.8,-1 2.4,-3 3,-5 2,1 4,1 7,1 -4.2,-4 -9.1875,-15 -9.1875,-25 l -1.625,0 z m 60,0 c 0,10 -4.9875,21 -9.1875,25 3,0 5,0 7,-1 0.6,2 1.2,4 3,5 1.8,-1 2.4,-3 3,-5 2,1 4,1 7,1 -4.2,-4 -9.1875,-15 -9.1875,-25 l -1.625,0 z M 119.71875,490 A 4,4 0 0 0 116,494 a 4,4 0 0 0 4,4 4,4 0 0 0 4,-4 4,4 0 0 0 -4,-4 4,4 0 0 0 -0.28125,0 z m 60,0 A 4,4 0 0 0 176,494 a 4,4 0 0 0 4,4 4,4 0 0 0 4,-4 4,4 0 0 0 -4,-4 4,4 0 0 0 -0.28125,0 z m 60,0 A 4,4 0 0 0 236,494 a 4,4 0 0 0 4,4 4,4 0 0 0 4,-4 4,4 0 0 0 -4,-4 4,4 0 0 0 -0.28125,0 z m 60,0 A 4,4 0 0 0 296,494 a 4,4 0 0 0 4,4 4,4 0 0 0 4,-4 4,4 0 0 0 -4,-4 4,4 0 0 0 -0.28125,0 z m 60,0 A 4,4 0 0 0 356,494 a 4,4 0 0 0 4,4 4,4 0 0 0 4,-4 4,4 0 0 0 -4,-4 4,4 0 0 0 -0.28125,0 z m 60,0 A 4,4 0 0 0 416,494 a 4,4 0 0 0 4,4 4,4 0 0 0 4,-4 4,4 0 0 0 -4,-4 4,4 0 0 0 -0.28125,0 z m 60,0 A 4,4 0 0 0 476,494 a 4,4 0 0 0 4,4 4,4 0 0 0 4,-4 4,4 0 0 0 -4,-4 4,4 0 0 0 -0.28125,0 z m -366,7 A 4,4 0 0 0 110,501 a 4,4 0 0 0 4,4 4,4 0 0 0 4,-4 4,4 0 0 0 -4,-4 4,4 0 0 0 -0.28125,0 z m 12,0 A 4,4 0 0 0 122,501 a 4,4 0 0 0 4,4 4,4 0 0 0 4,-4 4,4 0 0 0 -4,-4 4,4 0 0 0 -0.28125,0 z m 48,0 A 4,4 0 0 0 170,501 a 4,4 0 0 0 4,4 4,4 0 0 0 4,-4 4,4 0 0 0 -4,-4 4,4 0 0 0 -0.28125,0 z m 12,0 A 4,4 0 0 0 182,501 a 4,4 0 0 0 4,4 4,4 0 0 0 4,-4 4,4 0 0 0 -4,-4 4,4 0 0 0 -0.28125,0 z m 48,0 A 4,4 0 0 0 230,501 a 4,4 0 0 0 4,4 4,4 0 0 0 4,-4 4,4 0 0 0 -4,-4 4,4 0 0 0 -0.28125,0 z m 12,0 A 4,4 0 0 0 242,501 a 4,4 0 0 0 4,4 4,4 0 0 0 4,-4 4,4 0 0 0 -4,-4 4,4 0 0 0 -0.28125,0 z m 48,0 A 4,4 0 0 0 290,501 a 4,4 0 0 0 4,4 4,4 0 0 0 4,-4 4,4 0 0 0 -4,-4 4,4 0 0 0 -0.28125,0 z m 12,0 A 4,4 0 0 0 302,501 a 4,4 0 0 0 4,4 4,4 0 0 0 4,-4 4,4 0 0 0 -4,-4 4,4 0 0 0 -0.28125,0 z m 48,0 A 4,4 0 0 0 350,501 a 4,4 0 0 0 4,4 4,4 0 0 0 4,-4 4,4 0 0 0 -4,-4 4,4 0 0 0 -0.28125,0 z m 12,0 A 4,4 0 0 0 362,501 a 4,4 0 0 0 4,4 4,4 0 0 0 4,-4 4,4 0 0 0 -4,-4 4,4 0 0 0 -0.28125,0 z m 48,0 A 4,4 0 0 0 410,501 a 4,4 0 0 0 4,4 4,4 0 0 0 4,-4 4,4 0 0 0 -4,-4 4,4 0 0 0 -0.28125,0 z m 12,0 A 4,4 0 0 0 422,501 a 4,4 0 0 0 4,4 4,4 0 0 0 4,-4 4,4 0 0 0 -4,-4 4,4 0 0 0 -0.28125,0 z m 48,0 A 4,4 0 0 0 470,501 a 4,4 0 0 0 4,4 4,4 0 0 0 4,-4 4,4 0 0 0 -4,-4 4,4 0 0 0 -0.28125,0 z m 12,0 A 4,4 0 0 0 482,501 a 4,4 0 0 0 4,4 4,4 0 0 0 4,-4 4,4 0 0 0 -4,-4 4,4 0 0 0 -0.28125,0 z m -366.53125,4 c 0,10 -4.9875,21 -9.1875,25 3,0 5,0 7,-1 0.6,2 1.2,4 3,5 1.8,-1 2.4,-3 3,-5 2,1 4,1 7,1 -4.2,-4 -9.1875,-15 -9.1875,-25 l -1.625,0 z m 60,0 c 0,10 -4.9875,21 -9.1875,25 3,0 5,0 7,-1 0.6,2 1.2,4 3,5 1.8,-1 2.4,-3 3,-5 2,1 4,1 7,1 -4.2,-4 -9.1875,-15 -9.1875,-25 l -1.625,0 z m 60,0 c 0,10 -4.9875,21 -9.1875,25 3,0 5,0 7,-1 0.6,2 1.2,4 3,5 1.8,-1 2.4,-3 3,-5 2,1 4,1 7,1 -4.2,-4 -9.1875,-15 -9.1875,-25 l -1.625,0 z m 60,0 c 0,10 -4.9875,21 -9.1875,25 3,0 5,0 7,-1 0.6,2 1.2,4 3,5 1.8,-1 2.4,-3 3,-5 2,1 4,1 7,1 -4.2,-4 -9.1875,-15 -9.1875,-25 l -1.625,0 z m 60,0 c 0,10 -4.9875,21 -9.1875,25 3,0 5,0 7,-1 0.6,2 1.2,4 3,5 1.8,-1 2.4,-3 3,-5 2,1 4,1 7,1 -4.2,-4 -9.1875,-15 -9.1875,-25 l -1.625,0 z m 60,0 c 0,10 -4.9875,21 -9.1875,25 3,0 5,0 7,-1 0.6,2 1.2,4 3,5 1.8,-1 2.4,-3 3,-5 2,1 4,1 7,1 -4.2,-4 -9.1875,-15 -9.1875,-25 l -1.625,0 z m 60,0 c 0,10 -4.9875,21 -9.1875,25 3,0 5,0 7,-1 0.6,2 1.2,4 3,5 1.8,-1 2.4,-3 3,-5 2,1 4,1 7,1 -4.2,-4 -9.1875,-15 -9.1875,-25 l -1.625,0 z M 149.71875,550 A 4,4 0 0 0 146,554 a 4,4 0 0 0 4,4 4,4 0 0 0 4,-4 4,4 0 0 0 -4,-4 4,4 0 0 0 -0.28125,0 z m 60,0 A 4,4 0 0 0 206,554 a 4,4 0 0 0 4,4 4,4 0 0 0 4,-4 4,4 0 0 0 -4,-4 4,4 0 0 0 -0.28125,0 z m 60,0 A 4,4 0 0 0 266,554 a 4,4 0 0 0 4,4 4,4 0 0 0 4,-4 4,4 0 0 0 -4,-4 4,4 0 0 0 -0.28125,0 z m 60,0 A 4,4 0 0 0 326,554 a 4,4 0 0 0 4,4 4,4 0 0 0 4,-4 4,4 0 0 0 -4,-4 4,4 0 0 0 -0.28125,0 z m 60,0 A 4,4 0 0 0 386,554 a 4,4 0 0 0 4,4 4,4 0 0 0 4,-4 4,4 0 0 0 -4,-4 4,4 0 0 0 -0.28125,0 z m 60,0 A 4,4 0 0 0 446,554 a 4,4 0 0 0 4,4 4,4 0 0 0 4,-4 4,4 0 0 0 -4,-4 4,4 0 0 0 -0.28125,0 z m -306,7 a 4,4 0 0 0 -1.5625,0.46875 c 1.8592,1.6646 3.70077,3.31783 5.5625,4.9375 A 4,4 0 0 0 148,561 a 4,4 0 0 0 -4,-4 4,4 0 0 0 -0.28125,0 z m 12,0 A 4,4 0 0 0 152,561 a 4,4 0 0 0 4,4 4,4 0 0 0 4,-4 4,4 0 0 0 -4,-4 4,4 0 0 0 -0.28125,0 z m 48,0 A 4,4 0 0 0 200,561 a 4,4 0 0 0 4,4 4,4 0 0 0 4,-4 4,4 0 0 0 -4,-4 4,4 0 0 0 -0.28125,0 z m 12,0 A 4,4 0 0 0 212,561 a 4,4 0 0 0 4,4 4,4 0 0 0 4,-4 4,4 0 0 0 -4,-4 4,4 0 0 0 -0.28125,0 z m 48,0 A 4,4 0 0 0 260,561 a 4,4 0 0 0 4,4 4,4 0 0 0 4,-4 4,4 0 0 0 -4,-4 4,4 0 0 0 -0.28125,0 z m 12,0 A 4,4 0 0 0 272,561 a 4,4 0 0 0 4,4 4,4 0 0 0 4,-4 4,4 0 0 0 -4,-4 4,4 0 0 0 -0.28125,0 z m 48,0 A 4,4 0 0 0 320,561 a 4,4 0 0 0 4,4 4,4 0 0 0 4,-4 4,4 0 0 0 -4,-4 4,4 0 0 0 -0.28125,0 z m 12,0 A 4,4 0 0 0 332,561 a 4,4 0 0 0 4,4 4,4 0 0 0 4,-4 4,4 0 0 0 -4,-4 4,4 0 0 0 -0.28125,0 z m 48,0 A 4,4 0 0 0 380,561 a 4,4 0 0 0 4,4 4,4 0 0 0 4,-4 4,4 0 0 0 -4,-4 4,4 0 0 0 -0.28125,0 z m 12,0 A 4,4 0 0 0 392,561 a 4,4 0 0 0 4,4 4,4 0 0 0 4,-4 4,4 0 0 0 -4,-4 4,4 0 0 0 -0.28125,0 z m 48,0 A 4,4 0 0 0 440,561 a 4,4 0 0 0 4,4 4,4 0 0 0 4,-4 4,4 0 0 0 -4,-4 4,4 0 0 0 -0.28125,0 z m 12,0 A 4,4 0 0 0 452,561 a 4,4 0 0 0 0.25,1.40625 c 1.86765,-1.62467 3.72864,-3.26761 5.59375,-4.9375 A 4,4 0 0 0 456,557 a 4,4 0 0 0 -0.28125,0 z m -306.53125,4 c 0,0.85057 -0.0564,1.70238 -0.125,2.5625 0.68596,0.59274 1.37649,1.19458 2.0625,1.78125 -0.18833,-1.45248 -0.3125,-2.90881 -0.3125,-4.34375 l -1.625,0 z m 60,0 c 0,10 -4.9875,21 -9.1875,25 3,0 5,0 7,-1 0.6,2 1.2,4 3,5 1.8,-1 2.4,-3 3,-5 2,1 4,1 7,1 -4.2,-4 -9.1875,-15 -9.1875,-25 l -1.625,0 z m 60,0 c 0,10 -4.9875,21 -9.1875,25 3,0 5,0 7,-1 0.6,2 1.2,4 3,5 1.8,-1 2.4,-3 3,-5 2,1 4,1 7,1 -4.2,-4 -9.1875,-15 -9.1875,-25 l -1.625,0 z m 60,0 c 0,10 -4.9875,21 -9.1875,25 3,0 5,0 7,-1 0.6,2 1.2,4 3,5 1.8,-1 2.4,-3 3,-5 2,1 4,1 7,1 -4.2,-4 -9.1875,-15 -9.1875,-25 l -1.625,0 z m 60,0 c 0,10 -4.9875,21 -9.1875,25 3,0 5,0 7,-1 0.6,2 1.2,4 3,5 1.8,-1 2.4,-3 3,-5 2,1 4,1 7,1 -4.2,-4 -9.1875,-15 -9.1875,-25 l -1.625,0 z m 60,0 c 0,1.43494 -0.12417,2.89127 -0.3125,4.34375 0.68601,-0.58667 1.37654,-1.18851 2.0625,-1.78125 -0.0686,-0.86012 -0.125,-1.71193 -0.125,-2.5625 l -1.625,0 z M 239.71875,610 A 4,4 0 0 0 236,614 a 4,4 0 0 0 4,4 4,4 0 0 0 4,-4 4,4 0 0 0 -4,-4 4,4 0 0 0 -0.28125,0 z m 60,0 A 4,4 0 0 0 296,614 a 4,4 0 0 0 4,4 4,4 0 0 0 4,-4 4,4 0 0 0 -4,-4 4,4 0 0 0 -0.28125,0 z m 60,0 A 4,4 0 0 0 356,614 a 4,4 0 0 0 4,4 4,4 0 0 0 4,-4 4,4 0 0 0 -4,-4 4,4 0 0 0 -0.28125,0 z m -126,7 A 4,4 0 0 0 230,621 a 4,4 0 0 0 0.0937,0.8125 c 1.71835,1.02415 3.41636,2.02274 5.09375,3 A 4,4 0 0 0 238,621 a 4,4 0 0 0 -4,-4 4,4 0 0 0 -0.28125,0 z m 12,0 A 4,4 0 0 0 242,621 a 4,4 0 0 0 4,4 4,4 0 0 0 4,-4 4,4 0 0 0 -4,-4 4,4 0 0 0 -0.28125,0 z m 48,0 A 4,4 0 0 0 290,621 a 4,4 0 0 0 4,4 4,4 0 0 0 4,-4 4,4 0 0 0 -4,-4 4,4 0 0 0 -0.28125,0 z m 12,0 A 4,4 0 0 0 302,621 a 4,4 0 0 0 4,4 4,4 0 0 0 4,-4 4,4 0 0 0 -4,-4 4,4 0 0 0 -0.28125,0 z m 48,0 A 4,4 0 0 0 350,621 a 4,4 0 0 0 4,4 4,4 0 0 0 4,-4 4,4 0 0 0 -4,-4 4,4 0 0 0 -0.28125,0 z m 12,0 A 4,4 0 0 0 362,621 a 4,4 0 0 0 2.8125,3.8125 c 1.67739,-0.97726 3.3754,-1.97585 5.09375,-3 a 4,4 0 0 0 0.0937,-0.8125 4,4 0 0 0 -4,-4 4,4 0 0 0 -0.28125,0 z m -126.53125,4 c 0,1.91716 -0.20531,3.8782 -0.53125,5.8125 1.00924,0.57889 2.00774,1.15729 3,1.71875 -0.52927,-2.49042 -0.84375,-5.04133 -0.84375,-7.53125 l -1.625,0 z m 60,0 c 0,10 -4.9875,21 -9.1875,25 3,0 5,0 7,-1 0.6,2 1.2,4 3,5 1.8,-1 2.4,-3 3,-5 2,1 4,1 7,1 -4.2,-4 -9.1875,-15 -9.1875,-25 l -1.625,0 z m 60,0 c 0,2.48992 -0.31448,5.04083 -0.84375,7.53125 0.99226,-0.56146 1.99076,-1.13986 3,-1.71875 -0.32594,-1.9343 -0.53125,-3.89534 -0.53125,-5.8125 l -1.625,0 z"
       id="path3049" />
    <path
       style="fill:#cc0000"
       inkscape:connector-curvature="0"
       d="M 2,2 2,44.425781 300,342.42578 598,44.425781 598,2 555.57422,2 300,257.57422 44.425781,2 2,2 z M 129.27734,2 300,172.72266 470.72266,2 385.86719,2 300,87.867188 214.13281,2 129.27734,2 z M 2,129.27734 l 0,84.85547 298,298 298,-298 0,-84.85547 L 300,427.2793 2,129.27734 z"
       id="path26" />
  </g>
  <g
     inkscape:groupmode="layer"
     id="layer1"
     inkscape:label="Cover"
     style="display:inline"
     sodipodi:insensitive="true">
    <path
       d="m 2,2 v 257 c 0,286 298,398 298,398 0,0 298,-112 298,-398 V 2 z"
       id="shine"
       inkscape:connector-curvature="0"
       style="fill:url(#radialGradient3074);stroke:#000000;stroke-width:3" />
  </g>
</svg>
