<?xml version="1.0" encoding="UTF-8"?>
<svg xmlns="http://www.w3.org/2000/svg" xmlns:xlink="http://www.w3.org/1999/xlink" width="600" height="660">
<defs>
  <radialGradient id="rg" gradientUnits="userSpaceOnUse" cx="220" cy="220" r="405">
    <stop style="stop-color:#fff;stop-opacity:.3" offset="0"/>
    <stop style="stop-color:#fff;stop-opacity:.2" offset=".2"/>
    <stop style="stop-color:#666;stop-opacity:.1" offset=".6"/>
    <stop style="stop-color:#000;stop-opacity:.13" offset="1"/>
  </radialGradient>
  <linearGradient id="grad1" x1="0%" y1="0%" x2="100%" y2="0%">
    <stop offset="0%" style="stop-color:#111;" />
    <stop offset="50%" style="stop-color:#111;" />
    <stop offset="50%" style="stop-color:#000;" />
    <stop offset="100%" style="stop-color:#000;" />
  </linearGradient>
  <linearGradient id="grad2" x1="0%" y1="0%" x2="0%" y2="100%">
    <stop offset="0%" style="stop-color:#111;" />
    <stop offset="50%" style="stop-color:#111;" />
    <stop offset="50%" style="stop-color:#000;" />
    <stop offset="100%" style="stop-color:#000;" />
  </linearGradient>
  <radialGradient id="grad3" cx="33%" cy="33%" r="100%">
    <stop offset="0%" style="stop-color:#000;" />
    <stop offset="50%" style="stop-color:#000;" />
    <stop offset="50%" style="stop-color:#111;" />
    <stop offset="100%" style="stop-color:#111;" />
  </radialGradient>
  <clipPath id="clip-shield">
    <path id="shield" d="m2,2v257c0,286 298,398 298,398c0,0 298-112 298-398V2z"/>
  </clipPath>
</defs>
<use id="background" xlink:href="#shield" fill="#808"/>
<circle fill="#fff" cx="300" cy="300" r="150"/>
<circle fill="#808" cx="250" cy="300" r="130"/>
<rect x="100" y="75" width="20" height="300" fill="url(#grad1)"/>
<rect x="195" y="75" width="20" height="450" fill="url(#grad1)"/>
<rect x="290" y="75" width="20" height="500" fill="url(#grad1)"/>
<rect x="385" y="75" width="20" height="450" fill="url(#grad1)"/>
<rect x="480" y="75" width="20" height="300" fill="url(#grad1)"/>
<path fill="url(#grad2)" d="m110,110 10,10 h75 l10,-10 10,10 h75 l10,-10 10,10 h75 l10,-10 10,10 h75 l20,-20 H110z"/>
<g id="bar">
  <g id="segment">
    <path fill="url(#grad2)" d="m110,205 10,10 h 75 l10,-10 -10,-10 h-75z"/>
    <circle fill="url(#grad3)" id="nail" cx="110" cy="205" r="5"/>
  </g>
  <use xlink:href="#segment" x="95"/>
  <use xlink:href="#segment" x="190"/>
  <use xlink:href="#segment" x="285"/>
  <use xlink:href="#nail" x="380"/>
</g>
<use xlink:href="#bar" y="95"/>
<use xlink:href="#bar" y="190"/>
<use xlink:href="#bar" y="285"/>
<use xlink:href="#nail" y="-95"/>
<use xlink:href="#nail" y="-95" x="95"/>
<use xlink:href="#nail" y="-95" x="190"/>
<use xlink:href="#nail" y="-95" x="285"/>
<use xlink:href="#nail" y="-95" x="380"/>
<path id="bordure" fill="#da2" d="M 2 2 L 2 259 C 2 545 300 657 300 657 C 300 657 598 545 598 259 L 598 2 L 2 2 z M 100 100 L 500 100 L 500 259 C 500 424.40588 365.1074 515.01826 300 549.1543 C 234.8926 515.01826 100 424.40588 100 259 L 100 100 z"/>
<g id="runes" fill="none" stroke="#000" stroke-width="5">
  <path d="M37.5,75 v-50 l25,12.5 l-15,12.5 15,25"/>
  <path d="M162.5,75 l25,-25 -12.5,-25 -12.5 25 25,25"/>
  <path d="M300,25 v50 m-12.5,0 a12.5,12.5 0,0,1 25,0"/>
  <path d="M412.5,25 v31.25 l25,-12.5 v31.25"/>
  <path d="M537.5,75 v-50 l12.5,12.5 12.5,-12.5 v50"/>
  
  <path d="M37.5,238 v-50 l12.5,12.5 12.5,-12.5 v50"/>
  <path d="M70,352v50 m-12.5,-50 a12.5,12.5 0,0,0 25,0"/>
  <path d="M160,550 v-50 l12.5,12.5 12.5,-12.5 v50"/>
  <path d="M300,578v50 m-12.5,-50 a12.5,12.5 0,0,0 25,0"/>
  <path d="M415,550 v-50 l25,12.5 l-18,12.5 18,12.5z"/>
  <path d="M517.5,402 v-50 l12.5,12.5 12.5,-12.5 v50"/>
  <path d="M537.5,238 v-50 l25,12.5 l-15,12.5 15,25"/>
</g>
<use id="shine" xlink:href="#shield" fill="url(#rg)" stroke="#000" stroke-width="3"/>
</svg>