<?xml version="1.0" encoding="UTF-8" standalone="no"?>
<svg
   xmlns:dc="http://purl.org/dc/elements/1.1/"
   xmlns:cc="http://creativecommons.org/ns#"
   xmlns:rdf="http://www.w3.org/1999/02/22-rdf-syntax-ns#"
   xmlns:svg="http://www.w3.org/2000/svg"
   xmlns="http://www.w3.org/2000/svg"
   xmlns:xlink="http://www.w3.org/1999/xlink"
   xmlns:sodipodi="http://sodipodi.sourceforge.net/DTD/sodipodi-0.dtd"
   xmlns:inkscape="http://www.inkscape.org/namespaces/inkscape"
   width="600"
   height="660"
   id="svg2"
   version="1.1"
   inkscape:version="0.48.2 r9819"
   sodipodi:docname="House_Ryswell.svg">
  <metadata
     id="metadata24">
    <rdf:RDF>
      <cc:Work
         rdf:about="">
        <dc:format>image/svg+xml</dc:format>
        <dc:type
           rdf:resource="http://purl.org/dc/dcmitype/StillImage" />
        <dc:title />
      </cc:Work>
    </rdf:RDF>
  </metadata>
  <sodipodi:namedview
     pagecolor="#ffffff"
     bordercolor="#666666"
     borderopacity="1"
     objecttolerance="10"
     gridtolerance="10"
     guidetolerance="10"
     inkscape:pageopacity="0"
     inkscape:pageshadow="2"
     inkscape:window-width="1366"
     inkscape:window-height="715"
     id="namedview22"
     showgrid="false"
     inkscape:zoom="0.71515155"
     inkscape:cx="235.50215"
     inkscape:cy="307.03418"
     inkscape:window-x="-8"
     inkscape:window-y="-8"
     inkscape:window-maximized="1"
     inkscape:current-layer="layer2" />
  <defs
     id="defs4">
    <inkscape:path-effect
       is_visible="true"
       id="path-effect3136"
       effect="spiro" />
    <inkscape:path-effect
       effect="spiro"
       id="path-effect3132"
       is_visible="true" />
    <inkscape:path-effect
       effect="spiro"
       id="path-effect3101"
       is_visible="true" />
    <inkscape:path-effect
       is_visible="true"
       id="path-effect3085"
       effect="spiro" />
    <inkscape:path-effect
       is_visible="true"
       id="path-effect3083"
       effect="spiro" />
    <inkscape:path-effect
       is_visible="true"
       id="path-effect3081"
       effect="spiro" />
    <inkscape:path-effect
       is_visible="true"
       id="path-effect3079"
       effect="spiro" />
    <inkscape:path-effect
       is_visible="true"
       id="path-effect3077"
       effect="spiro" />
    <inkscape:path-effect
       is_visible="true"
       id="path-effect3075"
       effect="spiro" />
    <inkscape:path-effect
       effect="spiro"
       id="path-effect3049"
       is_visible="true" />
    <inkscape:path-effect
       is_visible="true"
       id="path-effect3045"
       effect="spiro" />
    <inkscape:path-effect
       effect="spiro"
       id="path-effect3041"
       is_visible="true" />
    <radialGradient
       id="rg"
       gradientUnits="userSpaceOnUse"
       cx="220"
       cy="220"
       r="405">
      <stop
         style="stop-color:#fff;stop-opacity:.3"
         offset="0"
         id="stop7" />
      <stop
         style="stop-color:#fff;stop-opacity:.2"
         offset=".2"
         id="stop9" />
      <stop
         style="stop-color:#666;stop-opacity:.1"
         offset=".6"
         id="stop11" />
      <stop
         style="stop-color:#000;stop-opacity:.13"
         offset="1"
         id="stop13" />
    </radialGradient>
    <path
       id="shield"
       d="m2,2v257c0,286 298,398 298,398c0,0 298-112 298-398V2z" />
    <radialGradient
       inkscape:collect="always"
       xlink:href="#rg-7"
       id="radialGradient3055-1"
       gradientUnits="userSpaceOnUse"
       cx="220"
       cy="220"
       r="405" />
    <radialGradient
       id="rg-7"
       gradientUnits="userSpaceOnUse"
       cx="220"
       cy="220"
       r="405">
      <stop
         style="stop-color:#fff;stop-opacity:.3"
         offset="0"
         id="stop7-4" />
      <stop
         style="stop-color:#fff;stop-opacity:.2"
         offset=".2"
         id="stop9-0" />
      <stop
         style="stop-color:#666;stop-opacity:.1"
         offset=".6"
         id="stop11-9" />
      <stop
         style="stop-color:#000;stop-opacity:.13"
         offset="1"
         id="stop13-4" />
    </radialGradient>
    <radialGradient
       r="405"
       cy="220"
       cx="220"
       gradientUnits="userSpaceOnUse"
       id="radialGradient3074"
       xlink:href="#rg-7"
       inkscape:collect="always" />
    <inkscape:path-effect
       is_visible="true"
       id="path-effect10120-1"
       effect="spiro" />
    <inkscape:path-effect
       effect="spiro"
       id="path-effect10118-3"
       is_visible="true" />
    <inkscape:path-effect
       effect="spiro"
       id="path-effect10116-9"
       is_visible="true" />
    <inkscape:path-effect
       effect="spiro"
       id="path-effect10114-7"
       is_visible="true" />
    <inkscape:path-effect
       effect="spiro"
       id="path-effect10112-7"
       is_visible="true" />
    <inkscape:path-effect
       effect="spiro"
       id="path-effect10110-2"
       is_visible="true" />
    <linearGradient
       inkscape:collect="always"
       xlink:href="#linearGradient4719-5"
       id="linearGradient4039"
       gradientUnits="userSpaceOnUse"
       gradientTransform="matrix(2.3257341,0,0,2.2943177,447.69485,-1820.2799)"
       x1="-145.25935"
       y1="984.24286"
       x2="-64.14286"
       y2="984.14789" />
    <linearGradient
       inkscape:collect="always"
       id="linearGradient4719-5">
      <stop
         style="stop-color:#666666;stop-opacity:1;"
         offset="0"
         id="stop4721-5" />
      <stop
         id="stop4809-1"
         offset="0.39344174"
         style="stop-color:#666666;stop-opacity:0.74901961;" />
      <stop
         style="stop-color:#666666;stop-opacity:0;"
         offset="1"
         id="stop4723-7" />
    </linearGradient>
    <radialGradient
       inkscape:collect="always"
       xlink:href="#linearGradient4801-8"
       id="radialGradient4041"
       gradientUnits="userSpaceOnUse"
       gradientTransform="matrix(-0.72153181,1.2650715,-2.2729984,-1.2616144,1712.0113,1733.7841)"
       cx="-307.14288"
       cy="782.36218"
       fx="-307.14288"
       fy="782.36218"
       r="63" />
    <linearGradient
       inkscape:collect="always"
       id="linearGradient4801-8">
      <stop
         style="stop-color:#000000;stop-opacity:1;"
         offset="0"
         id="stop4803-2" />
      <stop
         style="stop-color:#000000;stop-opacity:0;"
         offset="1"
         id="stop4805-4" />
    </linearGradient>
    <inkscape:path-effect
       effect="spiro"
       id="path-effect10108-4"
       is_visible="true" />
    <linearGradient
       inkscape:collect="always"
       xlink:href="#linearGradient4719-5"
       id="linearGradient4044"
       gradientUnits="userSpaceOnUse"
       gradientTransform="matrix(-2.4055369,0,0,-1.6485021,142.06168,1726.5307)"
       x1="-145.25935"
       y1="984.24286"
       x2="-64.14286"
       y2="984.14789" />
    <radialGradient
       inkscape:collect="always"
       xlink:href="#linearGradient4801-8"
       id="radialGradient4046"
       gradientUnits="userSpaceOnUse"
       gradientTransform="matrix(0.74628962,-0.90897301,2.3509914,0.90648896,-1165.637,-827.11785)"
       cx="-307.14288"
       cy="782.36218"
       fx="-307.14288"
       fy="782.36218"
       r="63" />
    <inkscape:path-effect
       effect="spiro"
       id="path-effect10102-7"
       is_visible="true" />
    <linearGradient
       inkscape:collect="always"
       xlink:href="#linearGradient4719-5"
       id="linearGradient4049"
       gradientUnits="userSpaceOnUse"
       gradientTransform="matrix(2.334989,0,0,-1.6146975,449.44065,1692.189)"
       x1="-145.25935"
       y1="984.24286"
       x2="-64.14286"
       y2="984.14789" />
    <radialGradient
       inkscape:collect="always"
       xlink:href="#linearGradient4801-8"
       id="radialGradient4051"
       gradientUnits="userSpaceOnUse"
       gradientTransform="matrix(-0.72440295,-0.89033332,-2.2820431,0.88790031,1718.7881,-809.09364)"
       cx="-307.14288"
       cy="782.36218"
       fx="-307.14288"
       fy="782.36218"
       r="63" />
    <inkscape:path-effect
       is_visible="true"
       id="path-effect10096-8"
       effect="spiro" />
    <linearGradient
       inkscape:collect="always"
       xlink:href="#linearGradient4719-5"
       id="linearGradient4054"
       gradientUnits="userSpaceOnUse"
       gradientTransform="matrix(-2.409599,0,0,2.2818507,139.61083,-1810.8163)"
       x1="-145.25935"
       y1="984.24286"
       x2="-64.14286"
       y2="984.14789" />
    <radialGradient
       inkscape:collect="always"
       xlink:href="#linearGradient4801-8"
       id="radialGradient4056"
       gradientUnits="userSpaceOnUse"
       gradientTransform="matrix(0.74754985,1.2581972,2.3549614,-1.2547588,-1170.296,1723.935)"
       cx="-307.14288"
       cy="782.36218"
       fx="-307.14288"
       fy="782.36218"
       r="63" />
    <inkscape:path-effect
       is_visible="true"
       id="path-effect10090-3"
       effect="spiro" />
    <inkscape:path-effect
       effect="spiro"
       id="path-effect10084-1"
       is_visible="true" />
    <inkscape:path-effect
       effect="spiro"
       id="path-effect10082-1"
       is_visible="true" />
    <radialGradient
       inkscape:collect="always"
       xlink:href="#linearGradient4801-8"
       id="radialGradient4061"
       gradientUnits="userSpaceOnUse"
       gradientTransform="matrix(-0.76516322,1.2901254,-2.4104477,-1.2865998,1806.8444,1757.4704)"
       cx="-307.14288"
       cy="782.36218"
       fx="-307.14288"
       fy="782.36218"
       r="63" />
    <inkscape:path-effect
       effect="spiro"
       id="path-effect10080-4"
       is_visible="true" />
    <inkscape:path-effect
       is_visible="true"
       id="path-effect3075-1"
       effect="spiro" />
    <inkscape:path-effect
       effect="spiro"
       id="path-effect3101-7"
       is_visible="true" />
    <linearGradient
       inkscape:collect="always"
       xlink:href="#grad1-7-7"
       id="linearGradient3085-8-8"
       gradientUnits="userSpaceOnUse"
       gradientTransform="matrix(0.77469594,0,0,0.30982404,152.68996,-13.619206)"
       x1="78.877235"
       y1="178.07356"
       x2="301.40585"
       y2="178.07356" />
    <linearGradient
       id="grad1-7-7"
       x1="78.877235"
       y1="178.07356"
       x2="301.40585"
       y2="178.07356"
       gradientTransform="scale(1.577772,0.63380513)"
       gradientUnits="userSpaceOnUse">
      <stop
         offset="0%"
         style="stop-color:#da0;"
         id="stop16-4-4" />
      <stop
         offset="40%"
         style="stop-color:#fd0;"
         id="stop18-0-0" />
      <stop
         offset="60%"
         style="stop-color:#fd0;"
         id="stop20-9-9" />
      <stop
         offset="100%"
         style="stop-color:#da0;"
         id="stop22-4-4" />
    </linearGradient>
    <linearGradient
       inkscape:collect="always"
       xlink:href="#grad1-7-7"
       id="linearGradient3081-8-8"
       gradientUnits="userSpaceOnUse"
       gradientTransform="matrix(0.77469594,0,0,0.30982404,-27.310046,-13.619206)"
       x1="78.877235"
       y1="178.07356"
       x2="301.40585"
       y2="178.07356" />
    <linearGradient
       id="linearGradient3093"
       x1="78.877235"
       y1="178.07356"
       x2="301.40585"
       y2="178.07356"
       gradientTransform="scale(1.577772,0.63380513)"
       gradientUnits="userSpaceOnUse">
      <stop
         offset="0%"
         style="stop-color:#da0;"
         id="stop3095" />
      <stop
         offset="40%"
         style="stop-color:#fd0;"
         id="stop3097" />
      <stop
         offset="60%"
         style="stop-color:#fd0;"
         id="stop3099" />
      <stop
         offset="100%"
         style="stop-color:#da0;"
         id="stop3101" />
    </linearGradient>
    <linearGradient
       y2="178.07356"
       x2="301.40585"
       y1="178.07356"
       x1="78.877235"
       gradientTransform="matrix(0.77469594,0,0,0.30982404,332.68995,-13.619206)"
       gradientUnits="userSpaceOnUse"
       id="linearGradient3128-1"
       xlink:href="#grad1-7-7"
       inkscape:collect="always" />
    <linearGradient
       id="linearGradient3104"
       x1="78.877235"
       y1="178.07356"
       x2="301.40585"
       y2="178.07356"
       gradientTransform="scale(1.577772,0.63380513)"
       gradientUnits="userSpaceOnUse">
      <stop
         offset="0%"
         style="stop-color:#da0;"
         id="stop3106" />
      <stop
         offset="40%"
         style="stop-color:#fd0;"
         id="stop3108" />
      <stop
         offset="60%"
         style="stop-color:#fd0;"
         id="stop3110" />
      <stop
         offset="100%"
         style="stop-color:#da0;"
         id="stop3112" />
    </linearGradient>
    <inkscape:path-effect
       is_visible="true"
       id="path-effect3061"
       effect="spiro" />
  </defs>
  <g
     inkscape:groupmode="layer"
     id="layer2"
     inkscape:label="Elements"
     style="display:inline">
    <path
       inkscape:connector-curvature="0"
       style="fill:#ddaa22;fill-opacity:1;stroke:none;display:inline"
       id="path7212"
       d="m 2,2 0,257 c 0,286 298,398 298,398 0,0 298,-112 298,-398 L 598,2 z" />
    <path
       style="fill:#000000"
       d="m 598.00051,1.9997259 -297.6875,0.40625 -297.687497,0.375 -0.5,130.5625041 c -0.51819,136.18082 0.37178,163.87702 6.28125,195.56249 11.00224,58.99198 35.24237,113.46222 71.90625,161.75 47.576697,62.6604 116.911617,117.70343 195.656247,155.3125 12.67814,6.05519 23.28025,11.01375 23.5625,11.03125 1.54034,0.0957 28.18238,-12.29114 43.125,-20.0625 62.29039,-32.39605 122.00919,-79.53491 163.59375,-129.125 41.04222,-48.94336 69.47306,-105.96199 82.53125,-165.4375 7.9986,-36.43074 7.93295,-34.87625 8.59375,-191.31249 l 0.625,-149.0625041 z M 424.53176,47.624726 c 16.01226,0.20183 33.94998,11.845395 38.1875,25.71875 1.20348,3.94017 2.68118,7.15625 3.28125,7.15625 0.60005,0 1.98934,-3.08994 3.09375,-6.875 2.77958,-9.52633 14.88657,-20.47639 26.5625,-24.03125 29.05288,-8.84547 58.4632,16.568903 51.21875,44.25 -3.46781,13.250544 -16.16173,25.064844 -30.125,28.031254 -6.54162,1.38974 -5.56572,3.02497 3,5.125 16.71134,4.09705 30.5531,24.084 28.09375,40.53125 -2.44915,16.37907 -15.45255,29.39351 -32.8125,32.87499 -5.04072,1.01091 -4.5529,3.84375 0.65625,3.84375 9.0749,0 24.01846,11.57267 29.09375,22.53125 3.12593,6.74956 3.35869,20.17791 0.5,27.875 -4.12836,11.11567 -17.51662,21.58227 -31,24.25 -6.78664,1.34274 -6.82841,3.30665 -0.125,4.65625 2.97413,0.59877 8.52437,4.07973 12.9375,8.125 14.07125,12.89837 16.63199,29.50823 7.0625,45.625 -7.04,11.85664 -20.01621,19.375 -33.40625,19.375 -3.65142,0 -6.625,0.61218 -6.625,1.34375 0,0.73157 2.59851,3.14977 5.78125,5.375 13.67366,9.5601 18.65281,30.24446 10.84375,45.03125 -4.79892,9.08693 -16.19654,18.27493 -25.71875,20.71875 -4.3851,1.12545 -11.50175,1.57413 -17.28125,1.09375 -10.05447,-0.83572 -11.83492,0.0433 -7.25,3.53125 4.26627,3.24557 9.03375,13.21721 10.03125,20.9375 3.6195,28.01365 -31.47757,51.30026 -58.59375,38.875 -3.09014,-1.41598 -5.96555,-2.28157 -6.375,-1.90625 -0.40945,0.37533 0.83517,3.65545 2.75,7.28125 2.37209,4.49166 3.46875,9.50794 3.46875,15.75 0,27.13768 -31.09906,46.07864 -57.59375,35.0625 -4.05884,-1.68761 -8.67465,-4.16724 -10.28125,-5.5 -4.18176,-3.46899 -5.00188,-1.74894 -2.125,4.5625 8.49698,18.64102 -4.57173,43.06325 -26.78125,50 -34.42059,10.75069 -69.74835,-19.65129 -56.9375,-49 1.47174,-3.37163 2.27917,-6.47846 1.8125,-6.90625 -0.46669,-0.42777 -4.31466,1.47376 -8.5625,4.21875 -7.11699,4.59906 -8.70778,5 -20.34375,5 -14.46162,0 -21.3259,-2.43173 -30.46875,-10.8125 -12.59075,-11.54127 -16.13246,-28.63404 -8.6875,-41.9375 2.29992,-4.10977 3.79334,-7.80661 3.34375,-8.21875 -0.44962,-0.41214 -3.17847,0.57093 -6.09375,2.1875 -4.01575,2.22677 -8.32777,2.9375 -17.78125,2.9375 -11.01094,0 -13.43068,-0.53847 -20.53125,-4.5625 -21.96892,-12.45021 -28.10077,-36.91141 -13.78125,-55.03125 2.63042,-3.32853 4.8125,-6.28234 4.8125,-6.59375 0,-0.3114 -5.04078,-0.24689 -11.1875,0.15625 -9.1309,0.59887 -12.75955,0.11263 -19.78125,-2.65625 -15.387267,-6.06767 -24.968747,-19.68064 -24.968747,-35.46875 0,-11.66129 3.93436,-19.53073 13.65625,-27.375 4.184477,-3.37631 7.145637,-6.55922 6.562497,-7.09375 -0.58315,-0.53453 -3.93702,-1 -7.437497,-1 -8.67228,0 -17.3631,-3.57238 -24.90625,-10.25 -7.67283,-6.79239 -10.43016,-11.39716 -12.75,-21.3125 -3.52891,-15.08321 6.15229,-33.02702 21.34375,-39.5625 4.55912,-1.96136 8.30655,-4.03715 8.34375,-4.59375 0.0371,-0.55662 -2.33811,-1.4802 -5.28125,-2.0625 -19.47962,-3.8541 -32.39405,-18.87966 -32.46875,-37.75 -0.0645,-16.30289 11.57563,-31.6242 27.125,-35.6875 9.91506,-2.59095 10.30042,-3.88461 1.8125,-5.84375 -9.78527,-2.25857 -22.64397,-12.60456 -26.5625,-21.37499 -6.98754,-15.63947 -1.12864,-35.39563 13.53125,-45.65625 4.10259,-2.87145 9.98434,-5.65817 13.0625,-6.1875 8.22896,-1.41509 8.12361,-3.08406 -0.3125,-5.03125 -9.42368,-2.17511 -21.44288,-12.01513 -25.9375,-21.25 -2.02697,-4.164717 -3.3075,-10.045267 -3.3125,-15.218754 -0.0218,-26.477737 31.81295,-45.30499 56.968747,-33.6875 11.06142,5.10842 22.59375,18.45577 22.59375,26.125 0,5.112803 2.97948,4.955102 4.15625,-0.21875 3.0208,-13.28117 15.83128,-25.11876 30.78125,-28.40625 20.47718,-4.50294 43.24751,8.58117 48.0625,27.625 1.21977,4.824335 4.28125,5.612592 4.28125,1.09375 0,-7.84976 11.36762,-20.93152 23.0625,-26.53125 8.36944,-4.00745 25.08845,-3.71829 33.96875,0.5625 8.98141,4.32952 18.47191,14.63226 20.8125,22.625 1.0331,3.52792 2.27603,6.40625 2.78125,6.40625 0.5052,0 2.26444,-3.45019 3.90625,-7.6875 7.93553,-20.48066 34.09886,-30.85495 54.34375,-21.53125 9.74226,4.48675 19.14252,14.2993 21.84375,22.8125 1.38279,4.35802 2.76947,7.90625 3.09375,7.90625 0.32428,0 1.74221,-3.54823 3.125,-7.90625 4.00486,-12.62175 18.54605,-23.95516 33.5625,-26.15625 1.59797,-0.234227 3.21856,-0.333379 4.875,-0.3125 z"
       id="path3147"
       inkscape:connector-curvature="0" />
    <g
       id="g4010"
       transform="matrix(0.9025,0,0,0.9025,687.80264,-86.032)">
      <path
         d="m -416.92362,273.62094 -0.625,0.0937 -94,15.125 -0.4375,0.0937 -0.34375,0.34375 c -42.69386,46.55641 -89.30365,87.52544 -124.4375,149.125 -1.76303,3.09108 -1.6567,6.10814 -0.59375,8.53125 0.89766,2.04631 2.38871,3.64576 3.875,5 -0.43153,0.67925 -1.37345,2.0739 -2.65625,4.71875 -1.55461,3.20525 -3.14717,7.03708 -2.6875,10.34375 0.43026,3.09515 2.81275,6.10781 5,8.5625 2.05952,2.31135 3.80724,3.83528 4.03125,4.03125 l 3.03125,8.5 0.59375,1.65625 1.4375,-1 17.65625,-11.96875 c 6.34736,-4.30713 14.03524,-6.39545 19.25,-6.9375 1.65167,-0.17169 2.89416,-0.11783 3.875,-0.0312 l -11.90625,6.5625 c -5.53131,3.04222 -11.83891,7.81801 -14.28125,12.59375 -0.61059,1.19393 -0.99648,2.40255 -0.9375,3.65625 0.059,1.2537 0.62154,2.49371 1.625,3.4375 1.93814,1.82289 5.32774,2.73428 10.5625,2.96875 6.13276,5.11454 10.87519,7.98208 14.75,9.09375 3.95485,1.13463 7.17054,0.31047 9.375,-1.75 2.20446,-2.06047 3.48878,-5.10156 4.53125,-8.375 0.95391,-2.99535 1.69408,-6.19271 2.5625,-9.125 16.38853,-0.81732 37.21329,-12.16036 64.3125,-37 17.30876,4.61898 33.40485,3.28708 49.03125,0.21875 -8.69303,43.82461 -13.67403,88.20921 -11.0625,133.71875 -13.36182,4.9851 -20.03217,16.80665 -23.53125,31.21875 -1.64755,6.78596 -2.62071,14.19231 -3.34375,21.8125 13.01718,2.09788 26.3608,3.18755 39.96875,3.18755 66.362,0 126.71776,-25.93056 171.5,-68.21875 l -10.3125,-15.96875 -16.34375,-88.03125 3.75,-54.625 0.0312,-0.3125 -0.125,-0.3125 -29.65625,-69.375 -0.125,-0.3125 -0.2187,-0.1875 -82.65625,-70.65625 -0.46875,-0.40625 z"
         id="path2841-1"
         style="font-size:medium;font-style:normal;font-variant:normal;font-weight:normal;font-stretch:normal;text-indent:0;text-align:start;text-decoration:none;line-height:normal;letter-spacing:normal;word-spacing:normal;text-transform:none;direction:ltr;block-progression:tb;writing-mode:lr-tb;text-anchor:start;color:#000000;fill:#000000;fill-opacity:1;stroke:#333333;stroke-width:2.99168992;marker:none;visibility:visible;display:inline;overflow:visible;enable-background:accumulate;font-family:Bitstream Vera Sans;-inkscape-font-specification:Bitstream Vera Sans"
         inkscape:connector-curvature="0" />
      <path
         d="m -416.92362,273.62094 -0.625,0.0937 -94,15.125 -0.4375,0.0937 -0.34375,0.34375 c -42.69386,46.55641 -89.30365,87.52544 -124.4375,149.125 -1.76303,3.09108 -1.6567,6.10814 -0.59375,8.53125 0.89766,2.04631 2.38871,3.64576 3.875,5 -0.43153,0.67925 -1.37345,2.0739 -2.65625,4.71875 -1.55461,3.20525 -3.14717,7.03708 -2.6875,10.34375 0.43026,3.09515 2.81275,6.10781 5,8.5625 2.05952,2.31135 3.80724,3.83528 4.03125,4.03125 l 3.03125,8.5 0.59375,1.65625 1.4375,-1 17.65625,-11.96875 c 6.34736,-4.30713 14.03524,-6.39545 19.25,-6.9375 1.65167,-0.17169 2.89416,-0.11778 3.875,-0.0312 l -11.90625,6.5625 c -5.53131,3.04222 -11.83891,7.81801 -14.28125,12.59375 -0.61059,1.19393 -0.99648,2.40255 -0.9375,3.65625 0.059,1.2537 0.62154,2.49371 1.625,3.4375 1.93814,1.82289 5.32774,2.73428 10.5625,2.96875 6.13276,5.11454 10.87519,7.98208 14.75,9.09375 3.95485,1.13463 7.17054,0.31047 9.375,-1.75 2.20446,-2.06047 3.48878,-5.10156 4.53125,-8.375 0.95391,-2.99535 1.69408,-6.19271 2.5625,-9.125 16.38853,-0.81732 37.21329,-12.16036 64.3125,-37 17.30876,4.61898 33.40485,3.28708 49.03125,0.21875 -8.69303,43.82461 -13.67403,88.20921 -11.0625,133.71875 -13.36182,4.9851 -20.03217,16.80665 -23.53125,31.21875 -1.88492,7.76365 -2.90943,16.3161 -3.65784,25.10177 83.29064,7.7513 142.0033,-3.05371 213.40239,-65.87232 l -11.93205,-18.41645 -16.34375,-88.03125 3.75,-54.625 0.0312,-0.3125 -0.125,-0.3125 -29.65625,-69.375 -0.125,-0.3125 -0.21875,-0.1875 -82.65625,-70.65625 -0.46875,-0.40625 5e-5,-4.5e-4 z m -0.8125,2.84375 81.9375,70.03125 29.375,68.78125 -3.75,54.59375 0,0.1875 0.0312,0.15625 16.40625,88.3125 0.0312,0.28125 0.15625,0.21875 10.35134,16.42731 c -67.22294,59.86421 -134.17779,71.36141 -206.42804,63.96562 0.72282,-7.68272 1.70141,-15.07367 3.3267,-21.76793 3.48094,-14.33736 9.74206,-25.28492 22.71875,-29.6875 l 0.96875,-0.34375 -0.0625,-1.03125 c -2.75667,-46.2044 2.3822,-91.30272 11.34375,-135.90625 55.87944,-19.31014 49.52404,-82.25441 25.42695,-105.8903 15.40454,18.50892 33.76648,77.61039 -27.0207,104.29655 -16.26641,3.34244 -32.71872,4.9358 -50.46875,0.0312 l -0.71875,-0.21875 -0.5625,0.53125 c -27.71171,25.50643 -48.64808,36.47644 -64.09375,36.84375 l -0.96875,0.0312 -0.28125,0.9375 c -1.02475,3.29163 -1.82264,6.82924 -2.8125,9.9375 -0.98986,3.10826 -2.19573,5.73679 -3.78125,7.21875 -1.58552,1.48196 -3.46114,2.07753 -6.78125,1.125 -3.32011,-0.95253 -7.95728,-3.65411 -14.125,-8.84375 l -0.34375,-0.28125 -0.46875,-0.0312 c -5.27282,-0.18221 -8.17021,-1.20503 -9.28125,-2.25 -0.55552,-0.52249 -0.75242,-1.01211 -0.78125,-1.625 -0.0288,-0.61289 0.18907,-1.39898 0.65625,-2.3125 1.86873,-3.6541 7.95105,-8.60589 13.15625,-11.46875 l 12.625,-6.9375 c 0.8959,-0.49274 1.64635,-0.88578 1.875,-2.03125 0.11432,-0.57273 -0.12333,-1.25869 -0.46875,-1.625 -0.34542,-0.36631 -0.7127,-0.54779 -1.09375,-0.6875 -1.5242,-0.55885 -3.65093,-0.57415 -6.46875,-0.28125 -5.63564,0.5858 -13.6554,2.73045 -20.5,7.375 l -16.21875,11.03125 -2.5625,-7.21875 -0.125,-0.3125 -0.25,-0.25 c 0,0 -1.97349,-1.72188 -4.03125,-4.03125 -2.05776,-2.30937 -4.0907,-5.30468 -4.34375,-7.125 -0.28245,-2.03184 0.96783,-5.75112 2.4375,-8.78125 1.46967,-3.03013 3.03125,-5.40625 3.03125,-5.40625 l 0.65625,-1 -0.90625,-0.78125 c -1.59414,-1.35324 -3.18187,-3.01871 -3.96875,-4.8125 -0.78688,-1.79379 -0.92747,-3.64578 0.46875,-6.09375 34.78577,-60.98929 81.02426,-101.74236 123.75,-148.28125 l 92.9375,-15 10e-5,5e-5 z"
         id="path2841"
         style="font-size:medium;font-style:normal;font-variant:normal;font-weight:normal;font-stretch:normal;text-indent:0;text-align:start;text-decoration:none;line-height:normal;letter-spacing:normal;word-spacing:normal;text-transform:none;direction:ltr;block-progression:tb;writing-mode:lr-tb;text-anchor:start;color:#000000;fill:#000000;fill-opacity:1;stroke:#333333;stroke-width:2.99168992;marker:none;visibility:visible;display:inline;overflow:visible;enable-background:accumulate;font-family:Bitstream Vera Sans;-inkscape-font-specification:Bitstream Vera Sans"
         inkscape:connector-curvature="0" />
      <path
         inkscape:connector-curvature="0"
         id="path3955"
         d="m -507.53999,339.86047 c -9.58987,-0.78077 -24.25039,-0.28744 -26.32113,10.72922 0,1.21149 5.56539,-0.9345 5.875,0.1875 1.82151,6.60096 8.67536,11.40625 16.65625,11.40625 9.33745,0 17.125,-6.56729 17.125,-14.90625 0,-1.78235 10.83812,9.16741 10.1875,7.59375 -2.39341,-5.78887 -13.93274,-14.22971 -23.52262,-15.01047 z"
         style="font-size:medium;font-style:normal;font-variant:normal;font-weight:normal;font-stretch:normal;text-indent:0;text-align:start;text-decoration:none;line-height:normal;letter-spacing:normal;word-spacing:normal;text-transform:none;direction:ltr;block-progression:tb;writing-mode:lr-tb;text-anchor:start;color:#000000;fill:#ffffff;fill-opacity:1;stroke:#333333;stroke-width:2.99168992;marker:none;visibility:visible;display:inline;overflow:visible;enable-background:accumulate;font-family:Bitstream Vera Sans;-inkscape-font-specification:Bitstream Vera Sans" />
      <path
         inkscape:connector-curvature="0"
         id="path3993"
         d="m -513.36112,339.62094 c -3.88518,0.008 -7.97163,0.42623 -11.5,1.625 l -0.0625,0.125 c -0.1402,0.30278 -0.0635,0.65442 -0.0625,0.96875 0,6.64223 3.6362,12.4375 11.71875,12.4375 7.74159,0 14.12964,-5.94319 14.65625,-12.28125 l -0.0937,-0.125 c -2.9258,-1.33262 -5.96946,-2.26599 -8.84375,-2.5 -1.7981,-0.14639 -3.77428,-0.25416 -5.8125,-0.25 z"
         style="font-size:medium;font-style:normal;font-variant:normal;font-weight:normal;font-stretch:normal;text-indent:0;text-align:start;text-decoration:none;line-height:normal;letter-spacing:normal;word-spacing:normal;text-transform:none;direction:ltr;block-progression:tb;writing-mode:lr-tb;text-anchor:start;color:#000000;fill:#cc0000;fill-opacity:1;stroke:#000000;stroke-width:2.99168992;marker:none;visibility:visible;display:inline;overflow:visible;enable-background:accumulate;font-family:Bitstream Vera Sans;-inkscape-font-specification:Bitstream Vera Sans" />
      <path
         d="m -512.94902,345.17087 a 4.2531309,4.2531309 0 1 1 -8.50626,0 4.2531309,4.2531309 0 1 1 8.50626,0 z"
         id="path3621"
         style="fill:#ffffff;fill-opacity:1;stroke:none"
         inkscape:connector-curvature="0" />
      <path
         d="m -603.49182,422.64382 c 0,0 9.9545,4.09473 13.3974,9.56957 3.4429,5.47484 -0.59682,17.75738 3.82782,22.01001 4.42464,4.25263 11.19937,-0.99385 14.35436,1.91391 3.15499,2.90776 2.39239,11.00501 2.39239,11.00501 0,0 2.45426,-9.36041 -0.47848,-12.91892 -2.93274,-3.55851 -10.52359,1.03371 -14.35435,-3.34935 -3.83076,-4.38306 1.84451,-14.74469 -1.91392,-20.0961 -3.75843,-5.35141 -17.22522,-8.13413 -17.22522,-8.13413 z"
         id="path3631"
         style="fill:#333333;stroke:none"
         inkscape:connector-curvature="0" />
      <path
         d="m -579.08942,436.51969 43.06306,-52.63263 c -18.03818,14.47435 -32.67833,31.7804 -43.06306,52.63263 z"
         id="path3633"
         style="fill:#333333;stroke:none"
         inkscape:connector-curvature="0" />
      <path
         d="m -461.8622,427.90708 c 40.52199,-10.62866 31.77738,-34.47518 21.05306,-58.85285 12.85687,29.5549 4.35647,48.43116 -21.05306,58.85285 z"
         id="path3635"
         style="fill:#333333;stroke:none"
         inkscape:connector-curvature="0" />
      <path
         d="m -399.18152,405.89707 10.04805,163.63963 c -19.24725,13.93763 -15.48613,22.56564 -19.61762,33.01502 6.11514,-12.65247 13.38681,-24.72668 32.05806,-31.1011 -11.78522,-50.89546 -15.23085,-110.13051 -22.48849,-165.55355 z"
         id="path3637"
         style="fill:#333333;stroke:none"
         inkscape:connector-curvature="0" />
      <path
         d="m -518.32265,285.79898 -19.13914,-42.1061 33.01501,29.66566"
         id="path3641"
         style="fill:#000000;stroke:#333333;stroke-width:2.99168992;stroke-linecap:butt;stroke-linejoin:miter;stroke-miterlimit:4;stroke-opacity:1;stroke-dasharray:none"
         inkscape:connector-curvature="0" />
      <path
         d="m -616.04695,450.09377 a 5.0948341,8.185634 13.175291 0 1 -9.81867,-2.74577 5.0948341,8.185634 13.175291 0 1 9.81867,2.74577 z"
         id="path3643"
         style="fill:#333333;fill-opacity:1;stroke:#333333;stroke-width:1.1080333"
         inkscape:connector-curvature="0" />
      <path
         d="m -399.95487,241.37094 c -0.87161,4.97842 -3.54471,9.49796 -7.34375,11.875 -6.22024,4.14926 -13.88526,4.74786 -21.75,5.15625 0.56207,-0.53052 1.11542,-1.0716 1.625,-1.65625 3.25068,-3.87924 4.58844,-8.62381 4.8125,-13.15625 -1.44981,4.30014 -3.95945,8.18847 -7.34375,10.375 -4.4843,3.09527 -10.24812,2.01246 -15.86735,1.92093 l -21.23405,-3.45218 c -10.50888,-1.70851 -22.27928,5.22915 -35.05485,14.34375 -14.19352,-3.25456 -15.78857,10.87168 -23.73532,18.26468 -18.03929,16.78225 -18.78044,7.58828 -23.76468,4.39157 2.48873,29.07137 15.00997,17.93382 25.9375,13.25 0.75009,20.55042 6.36336,34.47855 34.8125,17.125 -27.71634,8.79787 -23.09497,-26.13065 -6.09375,-29.8125 15.50076,-3.35691 35.60374,-6.26553 46.40625,1.09375 6.02635,3.42045 12.38598,4.79308 19.875,-0.5625 3.97506,18.23853 13.7449,28.25977 35.34375,21.53125 0.97783,11.42212 11.4715,30.82223 35.90562,23.47704 1.42547,8.28441 6.5462,16.65538 14.37437,19.05421 -2.57348,13.53751 0.86671,26.31386 18.21938,37.2736 -4.97872,17.53631 -6.20268,35.502 12.125,47.21172 -14.71963,23.31065 -17.55234,43.03816 4.4375,56.07016 -9.52331,12.07477 -9.2112,29.97245 8.28188,36.72577 -11.05444,17.00959 -0.72801,32.22742 8.8125,38.09375 5.72068,2.86288 11.62851,0.8952 14.65625,-3.4375 4.86622,-6.96358 8.22904,-15.06922 12,-22.78125 0.54089,-1.05862 1.0898,-2.087 1.6875,-3.0625 3.625,1.43314 7.25,0.21584 10.875,-1.09375 l -8.78125,-1.78125 c 0.82452,-0.9383 1.73555,-1.7619 2.78125,-2.40625 1.51708,-0.95679 3.36173,-1.52086 5.28125,-1.6875 2.57967,-0.22556 5.2849,0.19281 7.90625,0.90625 -2.43627,-1.20211 -5.04719,-2.15355 -7.875,-2.46875 -2.12985,-0.23376 -4.36859,-0.0199 -6.5,0.78125 -1.96823,0.75664 -3.75173,1.91729 -5.28125,3.3125 -0.2442,0.22148 -0.48419,0.45854 -0.71875,0.6875 l -18.15625,-5.46875 c 11.06019,0.7585 19.72599,-6.10778 28.75,-11.625 3.89122,-1.77927 7.34262,-2.3746 11.40625,-2.3125 1.91275,0.0107 4.27797,-0.64857 6.09375,0.15625 2.22214,0.98115 4.26887,2.51249 6.09375,4.25 -1.52542,-2.00555 -3.31442,-3.8839 -5.5,-5.3125 -1.79972,-1.17181 -3.87237,-1.97326 -6.0625,-2.34375 -4.59116,-0.74198 -9.28403,0.28925 -13.53125,1.5625 -5.32085,1.53274 -10.4736,3.39791 -15.53125,4.65625 -5.26508,1.30886 -10.85383,3.26836 -15.75,2.03125 -5.79617,-1.46452 -10.47682,-5.50184 -4.9375,-11.65625 3.5,2.73083 9.20013,5.21411 12.8125,3.15625 9.62877,-5.48522 19.85111,-7.48216 31.90625,-4.8125 -7.42515,-3.94839 -15.96175,-6.2832 -24.875,-6.46875 l 1.6875,-0.6875 c 15.63758,0.59126 32.52756,-1.63758 43.625,18.21875 -6.1257,-25.73139 -27.04262,-34.45049 -55.78125,-35.90625 l 35.84375,-10 c 3.02411,-1.09525 6.03105,-1.9589 8.9375,-1.6875 2.15059,0.12731 4.41088,0.95712 6.4375,2.3125 2.03169,1.35523 3.89287,3.28341 5.6875,5.3125 1.81987,2.06761 3.5586,4.27839 5.5,6.28125 -2.49885,-5.10436 -2.91041,-12.29355 -6.93687,-16.30548 -5.25418,-5.23521 -14.37466,-6.38528 -21.68813,-5.69452 l -10.5625,1.5625 c 5.44258,-5.11577 5.4101,-10.48041 -1.46875,-16.15625 1.8254,1.53646 3.73045,2.97786 5.75,4.28125 3.57942,2.35397 7.76732,4.1908 12.1875,4.59375 3.55484,0.28543 7.01015,-0.52507 9.9375,-2.125 3.09285,-1.70213 6.42038,-8.16854 8.63329,-10.69768 -8.74457,7.16979 -18.88561,10.43126 -26.85204,3.22893 -3.42039,-4.38219 -9.18299,-10.49389 -9.9375,-12.90625 6.85885,4.11702 12.83845,5.26948 17.28125,5.21875 7.43576,-0.0849 14.33229,-3.06186 15.39094,-15.99424 -4.78925,4.689 -9.29865,11.85709 -15.82844,10.77549 -7.29447,-1.20827 -13.66572,-4.90311 -17.8125,-10.90625 -5.22798,-9.34584 -12.02249,-15.24276 -20.6875,-22.5625 15.40889,9.41208 28.88342,-2.9924 27.15625,-14.68939 -5.14937,9.31537 -13.19444,13.81999 -22.5,8.47064 -2.90413,-1.77641 -5.62643,-3.87577 -8.3125,-6.125 -2.31481,-1.94649 -4.5729,-3.98517 -6.75,-6.09375 -0.68009,-0.6591 -1.34439,-1.33354 -2,-2 -0.18099,-0.18398 -0.35792,-0.35061 -0.53125,-0.53125 -0.0466,-0.0484 -0.0803,-0.10913 -0.125,-0.15625 -0.0116,-0.0122 -0.0197,-0.0192 -0.0312,-0.0312 -0.004,-0.004 -0.027,-0.0272 -0.0312,-0.0312 l -0.21875,0.28125 -0.25,-0.34375 c 20.43754,-6.84922 19.67817,-24.92016 20.1486,-38.90049 -19.74343,25.04832 -31.5205,-2.837 -45.0236,-11.91201 -6.80404,-4.57279 -12.12994,-6.2847 -17.25,-7.03125 1.55716,-0.38176 2.76242,-1.10661 3.75,-1.8125 1.50845,-1.00543 2.85627,-2.12807 4.125,-3.28125 1.09478,-0.99288 2.11508,-2.01024 3.125,-3.0625 0.31527,-0.32846 0.63038,-0.66551 0.9375,-1 0.0851,-0.0926 0.16597,-0.18802 0.25,-0.28125 0.005,-0.007 -0.005,-0.0245 0,-0.0312 -0.10944,0.0613 -0.23396,0.12733 -0.34375,0.1875 -0.39699,0.21764 -0.78683,0.448 -1.1875,0.65625 -1.28374,0.66722 -2.59711,1.275 -3.90625,1.84375 -1.52492,0.66163 -3.04893,1.25977 -4.5625,1.65625 -1.30751,0.31041 -2.44697,0.54702 -3.15625,0.25 -4.56427,-1.53598 -9.82807,-2.05953 -13.96875,-4.59375 -5.57066,-3.40941 -9.98891,-9.19439 -16.9375,-8.90625 l 6.40625,-2.28125 c 1.95493,0.3852 3.89959,0.78896 5.84375,1.21875 2.56708,0.56863 5.1254,1.18895 7.625,1.875 2.11458,0.59552 4.10554,1.13439 5.90625,1.9375 2.76534,1.2801 5.62341,1.66579 8.3125,1.625 2.76302,-0.0228 5.45743,-0.45287 8.03125,-1.15625 2.04726,-0.55194 4.1081,-1.27087 5.90625,-2.40625 0.55576,-0.34552 1.11236,-0.7638 1.5,-1.3125 0.2522,-0.34352 0.36802,-0.82285 0.15625,-1.15625 0.13966,0.36946 -0.0842,0.74714 -0.34375,1 -0.44673,0.42373 -1.00399,0.6777 -1.59375,0.90625 -1.89794,0.71688 -3.90791,0.95927 -5.9375,1.09375 -2.52011,0.15428 -5.02388,0.0109 -7.40625,-0.46875 -2.31786,-0.48539 -4.5211,-1.24059 -6.09375,-2.5 -2.00888,-1.42707 -4.12863,-2.51845 -6.125,-3.53125 -2.44629,-1.24893 -4.90328,-2.42163 -7.375,-3.53125 -2.04547,-0.91847 -4.12146,-1.7896 -6.1875,-2.65625 2.25031,0.17642 4.55167,0.23455 6.84375,0 2.47395,-0.25276 4.8769,-0.89845 7.0625,-1.9375 1.77267,-0.85924 3.26186,-1.92404 4.71875,-2.90625 1.49809,-1.00648 3.05816,-1.91331 4.78125,-2.5625 -1.84128,-0.0133 -3.73461,0.29452 -5.5625,0.71875 -1.74599,0.39556 -3.45425,0.82905 -5.03125,0.9375 -1.9207,0.14722 -3.80029,-0.0998 -5.59375,-0.59375 -1.85646,-0.49318 -3.65774,-1.26851 -5.4375,-2.15625 5.12016,-0.5795 9.90637,-2.26402 14.15625,-5.1875 2.35649,-1.87498 4.08279,-4.29901 5.125,-6.90625 1.0165,-2.56133 1.46092,-5.20147 1.78125,-7.8125 -0.91431,2.4666 -1.95692,4.89161 -3.40625,6.9375 -1.45329,2.05544 -3.36063,3.69657 -5.46875,4.65625 -2.80148,1.33233 -6.02081,1.62508 -9.25,1.59375 -5.13338,-0.0925 -10.1757,-1.39616 -15.375,-2.65625 l -23.75,-5.75 c 7.37355,-1.83872 9.12575,1.75465 16.46875,0.625 3.46978,-0.88616 6.01754,-3.10087 8.1875,-5.40625 -2.72898,1.60505 -5.73963,2.91478 -8.5,2.71875 -1.97017,-0.0744 -3.80262,-1.01541 -5.6875,-2.0625 -2.24664,-1.29821 -4.58828,-2.79001 -7.4375,-3.96875 -3.81757,-1.53537 -8.19564,-3.54664 -12.15625,-2.1875 l -11.65625,4 c 4.55967,-1.99726 11.231,-5.29431 14.65625,-8.875 3.84046,-4.13179 2.95607,-8.89421 2.625,-13.9375 l -1e-4,-1.5e-4 z m 99.71875,202.375 c 13.05007,0.52424 27.52846,0.47735 35.6875,5.28125 0,0 9.57142,13.11844 -8.6875,12.40625 -12.01005,-0.46845 -15.97441,-14.01231 -27,-17.6875 z m 24.0625,96.25 c 2.21457,0.0146 4.70636,0.50061 7.25,1.28125 -2.67332,3.4504 -4.94416,6.96984 -7.59375,9.65625 -8.41702,8.64941 -9.92024,2.84269 -12.4375,-0.84375 l 5.96875,-7.40625 c 1.56625,-1.94346 3.96519,-2.7063 6.8125,-2.6875 z"
         id="path3649"
         style="fill:#cc0000;fill-rule:evenodd;stroke:#000000;stroke-width:2.99168992;stroke-miterlimit:4;stroke-dasharray:none"
         inkscape:connector-curvature="0" />
      <path
         d="m -491.04938,290.10529 -16.74675,-57.8959 c 0,0 55.5676,38.77073 59.80981,52.63263 2.08364,6.80855 -5.74174,20.57458 -5.74174,20.57458"
         id="path3639"
         style="fill:#000000;stroke:#333333;stroke-width:2.99168992;stroke-linecap:butt;stroke-linejoin:miter;stroke-miterlimit:4;stroke-opacity:1;stroke-dasharray:none"
         inkscape:connector-curvature="0" />
      <path
         d="m -476.37817,301.62498 c 12.66144,-15.82431 -14.07534,-35.88709 -22.50828,-53.94226 10.2796,18.58115 46.22162,42.71093 22.50828,53.94226 z"
         id="path3733"
         style="fill:#000000;stroke:#333333;stroke-width:1.1080333"
         inkscape:connector-curvature="0" />
    </g>
  </g>
  <g
     inkscape:groupmode="layer"
     id="layer1"
     inkscape:label="Cover"
     style="display:inline"
     sodipodi:insensitive="true">
    <path
       d="m 2,2 v 257 c 0,286 298,398 298,398 0,0 298,-112 298,-398 V 2 z"
       id="shine"
       inkscape:connector-curvature="0"
       style="fill:url(#radialGradient3074);stroke:#000000;stroke-width:3" />
  </g>
</svg>
