<?xml version="1.0" encoding="UTF-8" standalone="no"?>
<svg
   xmlns:dc="http://purl.org/dc/elements/1.1/"
   xmlns:cc="http://creativecommons.org/ns#"
   xmlns:rdf="http://www.w3.org/1999/02/22-rdf-syntax-ns#"
   xmlns:svg="http://www.w3.org/2000/svg"
   xmlns="http://www.w3.org/2000/svg"
   xmlns:xlink="http://www.w3.org/1999/xlink"
   xmlns:sodipodi="http://sodipodi.sourceforge.net/DTD/sodipodi-0.dtd"
   xmlns:inkscape="http://www.inkscape.org/namespaces/inkscape"
   width="600"
   height="660"
   id="svg2"
   version="1.1"
   inkscape:version="0.48.2 r9819"
   sodipodi:docname="House_Ryswell_(Rodrik).svg">
  <metadata
     id="metadata24">
    <rdf:RDF>
      <cc:Work
         rdf:about="">
        <dc:format>image/svg+xml</dc:format>
        <dc:type
           rdf:resource="http://purl.org/dc/dcmitype/StillImage" />
        <dc:title />
      </cc:Work>
    </rdf:RDF>
  </metadata>
  <sodipodi:namedview
     pagecolor="#ffffff"
     bordercolor="#666666"
     borderopacity="1"
     objecttolerance="10"
     gridtolerance="10"
     guidetolerance="10"
     inkscape:pageopacity="0"
     inkscape:pageshadow="2"
     inkscape:window-width="1366"
     inkscape:window-height="715"
     id="namedview22"
     showgrid="false"
     inkscape:zoom="0.71515155"
     inkscape:cx="395.56306"
     inkscape:cy="485.74449"
     inkscape:window-x="-8"
     inkscape:window-y="-8"
     inkscape:window-maximized="1"
     inkscape:current-layer="layer2" />
  <defs
     id="defs4">
    <inkscape:path-effect
       is_visible="true"
       id="path-effect3136"
       effect="spiro" />
    <inkscape:path-effect
       effect="spiro"
       id="path-effect3132"
       is_visible="true" />
    <inkscape:path-effect
       effect="spiro"
       id="path-effect3101"
       is_visible="true" />
    <inkscape:path-effect
       is_visible="true"
       id="path-effect3085"
       effect="spiro" />
    <inkscape:path-effect
       is_visible="true"
       id="path-effect3083"
       effect="spiro" />
    <inkscape:path-effect
       is_visible="true"
       id="path-effect3081"
       effect="spiro" />
    <inkscape:path-effect
       is_visible="true"
       id="path-effect3079"
       effect="spiro" />
    <inkscape:path-effect
       is_visible="true"
       id="path-effect3077"
       effect="spiro" />
    <inkscape:path-effect
       is_visible="true"
       id="path-effect3075"
       effect="spiro" />
    <inkscape:path-effect
       effect="spiro"
       id="path-effect3049"
       is_visible="true" />
    <inkscape:path-effect
       is_visible="true"
       id="path-effect3045"
       effect="spiro" />
    <inkscape:path-effect
       effect="spiro"
       id="path-effect3041"
       is_visible="true" />
    <radialGradient
       id="rg"
       gradientUnits="userSpaceOnUse"
       cx="220"
       cy="220"
       r="405">
      <stop
         style="stop-color:#fff;stop-opacity:.3"
         offset="0"
         id="stop7" />
      <stop
         style="stop-color:#fff;stop-opacity:.2"
         offset=".2"
         id="stop9" />
      <stop
         style="stop-color:#666;stop-opacity:.1"
         offset=".6"
         id="stop11" />
      <stop
         style="stop-color:#000;stop-opacity:.13"
         offset="1"
         id="stop13" />
    </radialGradient>
    <path
       id="shield"
       d="m2,2v257c0,286 298,398 298,398c0,0 298-112 298-398V2z" />
    <radialGradient
       inkscape:collect="always"
       xlink:href="#rg-7"
       id="radialGradient3055-1"
       gradientUnits="userSpaceOnUse"
       cx="220"
       cy="220"
       r="405" />
    <radialGradient
       id="rg-7"
       gradientUnits="userSpaceOnUse"
       cx="220"
       cy="220"
       r="405">
      <stop
         style="stop-color:#fff;stop-opacity:.3"
         offset="0"
         id="stop7-4" />
      <stop
         style="stop-color:#fff;stop-opacity:.2"
         offset=".2"
         id="stop9-0" />
      <stop
         style="stop-color:#666;stop-opacity:.1"
         offset=".6"
         id="stop11-9" />
      <stop
         style="stop-color:#000;stop-opacity:.13"
         offset="1"
         id="stop13-4" />
    </radialGradient>
    <radialGradient
       r="405"
       cy="220"
       cx="220"
       gradientUnits="userSpaceOnUse"
       id="radialGradient3074"
       xlink:href="#rg-7"
       inkscape:collect="always" />
    <inkscape:path-effect
       is_visible="true"
       id="path-effect10120-1"
       effect="spiro" />
    <inkscape:path-effect
       effect="spiro"
       id="path-effect10118-3"
       is_visible="true" />
    <inkscape:path-effect
       effect="spiro"
       id="path-effect10116-9"
       is_visible="true" />
    <inkscape:path-effect
       effect="spiro"
       id="path-effect10114-7"
       is_visible="true" />
    <inkscape:path-effect
       effect="spiro"
       id="path-effect10112-7"
       is_visible="true" />
    <inkscape:path-effect
       effect="spiro"
       id="path-effect10110-2"
       is_visible="true" />
    <linearGradient
       inkscape:collect="always"
       xlink:href="#linearGradient4719-5"
       id="linearGradient4039"
       gradientUnits="userSpaceOnUse"
       gradientTransform="matrix(2.3257341,0,0,2.2943177,447.69485,-1820.2799)"
       x1="-145.25935"
       y1="984.24286"
       x2="-64.14286"
       y2="984.14789" />
    <linearGradient
       inkscape:collect="always"
       id="linearGradient4719-5">
      <stop
         style="stop-color:#666666;stop-opacity:1;"
         offset="0"
         id="stop4721-5" />
      <stop
         id="stop4809-1"
         offset="0.39344174"
         style="stop-color:#666666;stop-opacity:0.74901961;" />
      <stop
         style="stop-color:#666666;stop-opacity:0;"
         offset="1"
         id="stop4723-7" />
    </linearGradient>
    <radialGradient
       inkscape:collect="always"
       xlink:href="#linearGradient4801-8"
       id="radialGradient4041"
       gradientUnits="userSpaceOnUse"
       gradientTransform="matrix(-0.72153181,1.2650715,-2.2729984,-1.2616144,1712.0113,1733.7841)"
       cx="-307.14288"
       cy="782.36218"
       fx="-307.14288"
       fy="782.36218"
       r="63" />
    <linearGradient
       inkscape:collect="always"
       id="linearGradient4801-8">
      <stop
         style="stop-color:#000000;stop-opacity:1;"
         offset="0"
         id="stop4803-2" />
      <stop
         style="stop-color:#000000;stop-opacity:0;"
         offset="1"
         id="stop4805-4" />
    </linearGradient>
    <inkscape:path-effect
       effect="spiro"
       id="path-effect10108-4"
       is_visible="true" />
    <linearGradient
       inkscape:collect="always"
       xlink:href="#linearGradient4719-5"
       id="linearGradient4044"
       gradientUnits="userSpaceOnUse"
       gradientTransform="matrix(-2.4055369,0,0,-1.6485021,142.06168,1726.5307)"
       x1="-145.25935"
       y1="984.24286"
       x2="-64.14286"
       y2="984.14789" />
    <radialGradient
       inkscape:collect="always"
       xlink:href="#linearGradient4801-8"
       id="radialGradient4046"
       gradientUnits="userSpaceOnUse"
       gradientTransform="matrix(0.74628962,-0.90897301,2.3509914,0.90648896,-1165.637,-827.11785)"
       cx="-307.14288"
       cy="782.36218"
       fx="-307.14288"
       fy="782.36218"
       r="63" />
    <inkscape:path-effect
       effect="spiro"
       id="path-effect10102-7"
       is_visible="true" />
    <linearGradient
       inkscape:collect="always"
       xlink:href="#linearGradient4719-5"
       id="linearGradient4049"
       gradientUnits="userSpaceOnUse"
       gradientTransform="matrix(2.334989,0,0,-1.6146975,449.44065,1692.189)"
       x1="-145.25935"
       y1="984.24286"
       x2="-64.14286"
       y2="984.14789" />
    <radialGradient
       inkscape:collect="always"
       xlink:href="#linearGradient4801-8"
       id="radialGradient4051"
       gradientUnits="userSpaceOnUse"
       gradientTransform="matrix(-0.72440295,-0.89033332,-2.2820431,0.88790031,1718.7881,-809.09364)"
       cx="-307.14288"
       cy="782.36218"
       fx="-307.14288"
       fy="782.36218"
       r="63" />
    <inkscape:path-effect
       is_visible="true"
       id="path-effect10096-8"
       effect="spiro" />
    <linearGradient
       inkscape:collect="always"
       xlink:href="#linearGradient4719-5"
       id="linearGradient4054"
       gradientUnits="userSpaceOnUse"
       gradientTransform="matrix(-2.409599,0,0,2.2818507,139.61083,-1810.8163)"
       x1="-145.25935"
       y1="984.24286"
       x2="-64.14286"
       y2="984.14789" />
    <radialGradient
       inkscape:collect="always"
       xlink:href="#linearGradient4801-8"
       id="radialGradient4056"
       gradientUnits="userSpaceOnUse"
       gradientTransform="matrix(0.74754985,1.2581972,2.3549614,-1.2547588,-1170.296,1723.935)"
       cx="-307.14288"
       cy="782.36218"
       fx="-307.14288"
       fy="782.36218"
       r="63" />
    <inkscape:path-effect
       is_visible="true"
       id="path-effect10090-3"
       effect="spiro" />
    <inkscape:path-effect
       effect="spiro"
       id="path-effect10084-1"
       is_visible="true" />
    <inkscape:path-effect
       effect="spiro"
       id="path-effect10082-1"
       is_visible="true" />
    <radialGradient
       inkscape:collect="always"
       xlink:href="#linearGradient4801-8"
       id="radialGradient4061"
       gradientUnits="userSpaceOnUse"
       gradientTransform="matrix(-0.76516322,1.2901254,-2.4104477,-1.2865998,1806.8444,1757.4704)"
       cx="-307.14288"
       cy="782.36218"
       fx="-307.14288"
       fy="782.36218"
       r="63" />
    <inkscape:path-effect
       effect="spiro"
       id="path-effect10080-4"
       is_visible="true" />
    <inkscape:path-effect
       is_visible="true"
       id="path-effect3075-1"
       effect="spiro" />
    <inkscape:path-effect
       effect="spiro"
       id="path-effect3101-7"
       is_visible="true" />
    <linearGradient
       inkscape:collect="always"
       xlink:href="#grad1-7-7"
       id="linearGradient3085-8-8"
       gradientUnits="userSpaceOnUse"
       gradientTransform="matrix(0.77469594,0,0,0.30982404,152.68996,-13.619206)"
       x1="78.877235"
       y1="178.07356"
       x2="301.40585"
       y2="178.07356" />
    <linearGradient
       id="grad1-7-7"
       x1="78.877235"
       y1="178.07356"
       x2="301.40585"
       y2="178.07356"
       gradientTransform="scale(1.577772,0.63380513)"
       gradientUnits="userSpaceOnUse">
      <stop
         offset="0%"
         style="stop-color:#da0;"
         id="stop16-4-4" />
      <stop
         offset="40%"
         style="stop-color:#fd0;"
         id="stop18-0-0" />
      <stop
         offset="60%"
         style="stop-color:#fd0;"
         id="stop20-9-9" />
      <stop
         offset="100%"
         style="stop-color:#da0;"
         id="stop22-4-4" />
    </linearGradient>
    <linearGradient
       inkscape:collect="always"
       xlink:href="#grad1-7-7"
       id="linearGradient3081-8-8"
       gradientUnits="userSpaceOnUse"
       gradientTransform="matrix(0.77469594,0,0,0.30982404,-27.310046,-13.619206)"
       x1="78.877235"
       y1="178.07356"
       x2="301.40585"
       y2="178.07356" />
    <linearGradient
       id="linearGradient3093"
       x1="78.877235"
       y1="178.07356"
       x2="301.40585"
       y2="178.07356"
       gradientTransform="scale(1.577772,0.63380513)"
       gradientUnits="userSpaceOnUse">
      <stop
         offset="0%"
         style="stop-color:#da0;"
         id="stop3095" />
      <stop
         offset="40%"
         style="stop-color:#fd0;"
         id="stop3097" />
      <stop
         offset="60%"
         style="stop-color:#fd0;"
         id="stop3099" />
      <stop
         offset="100%"
         style="stop-color:#da0;"
         id="stop3101" />
    </linearGradient>
    <linearGradient
       y2="178.07356"
       x2="301.40585"
       y1="178.07356"
       x1="78.877235"
       gradientTransform="matrix(0.77469594,0,0,0.30982404,332.68995,-13.619206)"
       gradientUnits="userSpaceOnUse"
       id="linearGradient3128-1"
       xlink:href="#grad1-7-7"
       inkscape:collect="always" />
    <linearGradient
       id="linearGradient3104"
       x1="78.877235"
       y1="178.07356"
       x2="301.40585"
       y2="178.07356"
       gradientTransform="scale(1.577772,0.63380513)"
       gradientUnits="userSpaceOnUse">
      <stop
         offset="0%"
         style="stop-color:#da0;"
         id="stop3106" />
      <stop
         offset="40%"
         style="stop-color:#fd0;"
         id="stop3108" />
      <stop
         offset="60%"
         style="stop-color:#fd0;"
         id="stop3110" />
      <stop
         offset="100%"
         style="stop-color:#da0;"
         id="stop3112" />
    </linearGradient>
    <inkscape:path-effect
       is_visible="true"
       id="path-effect3061"
       effect="spiro" />
  </defs>
  <g
     inkscape:groupmode="layer"
     id="layer2"
     inkscape:label="Elements"
     style="display:inline">
    <path
       inkscape:connector-curvature="0"
       style="fill:#ddaa22;fill-opacity:1;stroke:none;display:inline"
       id="path7212"
       d="M 2,2.0000041 2,259 c 0,286 298,398 298,398 0,0 298,-112 298,-398 L 598,2.0000041 z" />
    <path
       style="fill:#000000;display:inline"
       d="m 598.00051,1.99973 -297.6875,0.40625 -297.687497,0.375 -0.5,130.5625 c -0.51819,136.18082 0.37178,163.87702 6.28125,195.56249 11.00224,58.99198 35.24237,113.46222 71.90625,161.75 47.576697,62.6604 116.911617,117.70343 195.656247,155.3125 12.67814,6.05519 23.28025,11.01375 23.5625,11.03125 1.54034,0.0957 28.18238,-12.29114 43.125,-20.0625 62.29039,-32.39605 122.00919,-79.53491 163.59375,-129.125 41.04222,-48.94336 69.47306,-105.96199 82.53125,-165.4375 7.9986,-36.43074 7.93295,-34.87625 8.59375,-191.31249 l 0.625,-149.0625 z m -173.46875,45.625 c 16.01226,0.20183 33.94998,11.845395 38.1875,25.71875 1.20348,3.94017 2.68118,7.15625 3.28125,7.15625 0.60005,0 1.98934,-3.08994 3.09375,-6.875 2.77958,-9.52633 14.88657,-20.47639 26.5625,-24.03125 29.05288,-8.84547 58.4632,16.568903 51.21875,44.25 -3.46781,13.25054 -16.16173,25.06484 -30.125,28.03125 -6.54162,1.38974 -5.56572,3.02497 3,5.125 16.71134,4.09705 30.5531,24.084 28.09375,40.53125 -2.44915,16.37907 -15.45255,29.39351 -32.8125,32.87499 -5.04072,1.01091 -4.5529,3.84375 0.65625,3.84375 9.0749,0 24.01846,11.57267 29.09375,22.53125 3.12593,6.74956 3.35869,20.17791 0.5,27.875 -4.12836,11.11567 -17.51662,21.58227 -31,24.25 -6.78664,1.34274 -6.82841,3.30665 -0.125,4.65625 2.97413,0.59877 8.52437,4.07973 12.9375,8.125 14.07125,12.89837 16.63199,29.50823 7.0625,45.625 -7.04,11.85664 -20.01621,19.375 -33.40625,19.375 -3.65142,0 -6.625,0.61218 -6.625,1.34375 0,0.73157 2.59851,3.14977 5.78125,5.375 13.67366,9.5601 18.65281,30.24446 10.84375,45.03125 -4.79892,9.08693 -16.19654,18.27493 -25.71875,20.71875 -4.3851,1.12545 -11.50175,1.57413 -17.28125,1.09375 -10.05447,-0.83572 -11.83492,0.0433 -7.25,3.53125 4.26627,3.24557 9.03375,13.21721 10.03125,20.9375 3.6195,28.01365 -31.47757,51.30026 -58.59375,38.875 -3.09014,-1.41598 -5.96555,-2.28157 -6.375,-1.90625 -0.40945,0.37533 0.83517,3.65545 2.75,7.28125 2.37209,4.49166 3.46875,9.50794 3.46875,15.75 0,27.13768 -31.09906,46.07864 -57.59375,35.0625 -4.05884,-1.68761 -8.67465,-4.16724 -10.28125,-5.5 -4.18176,-3.46899 -5.00188,-1.74894 -2.125,4.5625 8.49698,18.64102 -4.57173,43.06325 -26.78125,50 -34.42059,10.75069 -69.74835,-19.65129 -56.9375,-49 1.47174,-3.37163 2.27917,-6.47846 1.8125,-6.90625 -0.46669,-0.42777 -4.31466,1.47376 -8.5625,4.21875 -7.11699,4.59906 -8.70778,5 -20.34375,5 -14.46162,0 -21.3259,-2.43173 -30.46875,-10.8125 -12.59075,-11.54127 -16.13246,-28.63404 -8.6875,-41.9375 2.29992,-4.10977 3.79334,-7.80661 3.34375,-8.21875 -0.44962,-0.41214 -3.17847,0.57093 -6.09375,2.1875 -4.01575,2.22677 -8.32777,2.9375 -17.78125,2.9375 -11.01094,0 -13.43068,-0.53847 -20.53125,-4.5625 -21.96892,-12.45021 -28.10077,-36.91141 -13.78125,-55.03125 2.63042,-3.32853 4.8125,-6.28234 4.8125,-6.59375 0,-0.3114 -5.04078,-0.24689 -11.1875,0.15625 -9.1309,0.59887 -12.75955,0.11263 -19.78125,-2.65625 -15.387267,-6.06767 -24.968747,-19.68064 -24.968747,-35.46875 0,-11.66129 3.93436,-19.53073 13.65625,-27.375 4.184477,-3.37631 7.145637,-6.55922 6.562497,-7.09375 -0.58315,-0.53453 -3.93702,-1 -7.437497,-1 -8.67228,0 -17.3631,-3.57238 -24.90625,-10.25 -7.67283,-6.79239 -10.43016,-11.39716 -12.75,-21.3125 -3.52891,-15.08321 6.15229,-33.02702 21.34375,-39.5625 4.55912,-1.96136 8.30655,-4.03715 8.34375,-4.59375 0.0371,-0.55662 -2.33811,-1.4802 -5.28125,-2.0625 -19.47962,-3.8541 -32.39405,-18.87966 -32.46875,-37.75 -0.0645,-16.30289 11.57563,-31.6242 27.125,-35.6875 9.91506,-2.59095 10.30042,-3.88461 1.8125,-5.84375 -9.78527,-2.25857 -22.64397,-12.60456 -26.5625,-21.37499 -6.98754,-15.63947 -1.12864,-35.39563 13.53125,-45.65625 4.10259,-2.87145 9.98434,-5.65817 13.0625,-6.1875 8.22896,-1.41509 8.12361,-3.08406 -0.3125,-5.03125 -9.42368,-2.17511 -21.44288,-12.01513 -25.9375,-21.25 -2.02697,-4.164713 -3.3075,-10.045263 -3.3125,-15.21875 -0.0218,-26.477737 31.81295,-45.30499 56.968747,-33.6875 11.06142,5.10842 22.59375,18.45577 22.59375,26.125 0,5.112803 2.97948,4.955102 4.15625,-0.21875 3.0208,-13.28117 15.83128,-25.11876 30.78125,-28.40625 20.47718,-4.50294 43.24751,8.58117 48.0625,27.625 1.21977,4.824335 4.28125,5.612592 4.28125,1.09375 0,-7.84976 11.36762,-20.93152 23.0625,-26.53125 8.36944,-4.00745 25.08845,-3.71829 33.96875,0.5625 8.98141,4.32952 18.47191,14.63226 20.8125,22.625 1.0331,3.52792 2.27603,6.40625 2.78125,6.40625 0.5052,0 2.26444,-3.45019 3.90625,-7.6875 7.93553,-20.48066 34.09886,-30.85495 54.34375,-21.53125 9.74226,4.48675 19.14252,14.2993 21.84375,22.8125 1.38279,4.35802 2.76947,7.90625 3.09375,7.90625 0.32428,0 1.74221,-3.54823 3.125,-7.90625 4.00486,-12.62175 18.54605,-23.95516 33.5625,-26.15625 1.59797,-0.234227 3.21856,-0.333379 4.875,-0.3125 z"
       id="path3147"
       inkscape:connector-curvature="0" />
    <g
       transform="matrix(0.99436872,0,0,0.99436872,-438.31873,-332.87905)"
       style="display:inline"
       id="g3150">
      <path
         d="m 754.02903,497.42785 -0.56406,0.0846 -84.835,13.65032 -0.39484,0.0846 -0.31024,0.31023 c -38.53121,42.01716 -80.59654,78.99171 -112.30484,134.58532 -1.59114,2.7897 -1.49517,5.51259 -0.53586,7.69945 0.81014,1.84679 2.15581,3.2903 3.49719,4.5125 -0.38946,0.61302 -1.23954,1.87169 -2.39727,4.25867 -1.40303,2.89274 -2.84032,6.35097 -2.42547,9.33524 0.38831,2.79337 2.53851,5.51229 4.5125,7.72765 1.85872,2.086 3.43604,3.46134 3.63821,3.6382 l 2.7357,7.67125 0.53586,1.49477 1.29734,-0.9025 15.93477,-10.8018 c 5.72849,-3.88718 12.6668,-5.77189 17.37312,-6.26109 1.49063,-0.15495 2.61198,-0.10634 3.49719,-0.0282 l -10.74539,5.92266 c -4.99201,2.7456 -10.68462,7.05575 -12.88883,11.36586 -0.55106,1.07752 -0.89932,2.1683 -0.84609,3.29976 0.0532,1.13147 0.56094,2.25058 1.46656,3.10235 1.74917,1.64516 4.80829,2.46768 9.53266,2.67929 5.53481,4.61588 9.81486,7.20383 13.31187,8.20711 3.56925,1.02401 6.47141,0.2802 8.46094,-1.57937 1.98952,-1.85958 3.14862,-4.60416 4.08945,-7.55844 0.86091,-2.7033 1.52891,-5.58892 2.31266,-8.23531 14.79065,-0.73763 33.58499,-10.97473 58.04203,-33.3925 15.62116,4.16863 30.14788,2.96659 44.2507,0.19742 -7.84546,39.55171 -12.34081,79.60881 -9.9839,120.68117 -12.05905,4.49905 -18.07904,15.168 -21.23696,28.17492 -1.48691,6.12433 -2.36519,12.80856 -3.01773,19.68579 11.748,1.89333 23.79062,2.87676 36.0718,2.87676 59.8917,0 114.36277,-23.40233 154.77875,-61.56742 l -9.30704,-14.4118 -14.75023,-79.4482 3.38437,-49.29907 0.0282,-0.28203 -0.11281,-0.28203 -26.76477,-62.61094 -0.11281,-0.28203 -0.19737,-0.16922 -74.59727,-63.76726 -0.42305,-0.36664 z"
         id="path2841-1-1"
         style="font-size:medium;font-style:normal;font-variant:normal;font-weight:normal;font-stretch:normal;text-indent:0;text-align:start;text-decoration:none;line-height:normal;letter-spacing:normal;word-spacing:normal;text-transform:none;direction:ltr;block-progression:tb;writing-mode:lr-tb;text-anchor:start;color:#000000;fill:#ffdd00;fill-opacity:1;stroke:#000000;stroke-width:2.40935302;marker:none;visibility:visible;display:inline;overflow:visible;enable-background:accumulate;font-family:Bitstream Vera Sans;-inkscape-font-specification:Bitstream Vera Sans"
         inkscape:connector-curvature="0" />
      <path
         d="m 754.02903,497.42785 -0.56406,0.0846 -84.835,13.65032 -0.39484,0.0846 -0.31024,0.31023 c -38.53121,42.01716 -80.59654,78.99171 -112.30484,134.58532 -1.59114,2.7897 -1.49517,5.51259 -0.53586,7.69945 0.81014,1.84679 2.15581,3.2903 3.49719,4.5125 -0.38946,0.61302 -1.23954,1.87169 -2.39727,4.25867 -1.40303,2.89274 -2.84032,6.35097 -2.42547,9.33524 0.38831,2.79337 2.53851,5.51229 4.5125,7.72765 1.85872,2.086 3.43604,3.46134 3.63821,3.6382 l 2.7357,7.67125 0.53586,1.49477 1.29734,-0.9025 15.93477,-10.8018 c 5.72849,-3.88718 12.6668,-5.77189 17.37312,-6.26109 1.49063,-0.15495 2.61198,-0.1063 3.49719,-0.0282 l -10.74539,5.92266 c -4.99201,2.7456 -10.68462,7.05575 -12.88883,11.36586 -0.55106,1.07752 -0.89932,2.1683 -0.84609,3.29976 0.0532,1.13147 0.56094,2.25058 1.46656,3.10235 1.74917,1.64516 4.80829,2.46768 9.53266,2.67929 5.53481,4.61588 9.81486,7.20383 13.31187,8.20711 3.56925,1.02401 6.47141,0.2802 8.46094,-1.57937 1.98952,-1.85958 3.14862,-4.60416 4.08945,-7.55844 0.86091,-2.7033 1.52891,-5.58892 2.31266,-8.23531 14.79065,-0.73763 33.58499,-10.97473 58.04203,-33.3925 15.62116,4.16863 30.14788,2.96659 44.2507,0.19742 -7.84546,39.55171 -12.34081,79.60881 -9.9839,120.68117 -12.05905,4.49905 -18.07904,15.168 -21.23696,28.17492 -1.70114,7.0067 -2.62576,14.72528 -3.3012,22.65435 75.1698,6.99555 128.15798,-2.75597 192.59566,-59.44977 l -10.76868,-16.62084 -14.75023,-79.44821 3.38437,-49.29906 0.0282,-0.28203 -0.11281,-0.28203 -26.76477,-62.61094 -0.11281,-0.28203 -0.19742,-0.16922 -74.59727,-63.76726 -0.42304,-0.36665 4e-5,-4e-4 z m -0.73328,2.56648 73.9486,63.20321 26.51093,62.07507 -3.38437,49.27086 0,0.16922 0.0282,0.14102 14.80664,79.70203 0.0282,0.25383 0.14102,0.19742 9.34208,14.82565 c -60.6687,54.02745 -121.09545,64.40367 -186.3013,57.72897 0.65234,-6.93366 1.53552,-13.60399 3.00235,-19.64556 3.14154,-12.93947 8.7922,-22.81964 20.50367,-26.79297 l 0.87429,-0.31023 -0.0564,-0.9307 c -2.4879,-41.69948 2.14993,-82.40071 10.23773,-122.6554 50.4312,-17.4274 44.69545,-74.2346 22.94782,-95.56599 13.9026,16.7043 30.47425,70.04338 -24.38618,94.12764 -14.68043,3.01655 -29.52864,4.45455 -45.54804,0.0281 l -0.64868,-0.19742 -0.50765,0.47945 c -25.00982,23.01956 -43.90489,32.91999 -57.84461,33.25149 l -0.8743,0.0282 -0.25383,0.84609 c -0.92483,2.9707 -1.64493,6.16339 -2.53828,8.96859 -0.89335,2.80521 -1.98164,5.17746 -3.41258,6.51493 -1.43093,1.33747 -3.12367,1.87497 -6.12007,1.01531 -2.9964,-0.85966 -7.18145,-3.29784 -12.74782,-7.98149 l -0.31023,-0.25382 -0.42305,-0.0282 c -4.75872,-0.16445 -7.37361,-1.08754 -8.37633,-2.03063 -0.50135,-0.47154 -0.67906,-0.91343 -0.70507,-1.46656 -0.026,-0.55313 0.17063,-1.26258 0.59226,-2.08703 1.68653,-3.29783 7.17582,-7.76682 11.87352,-10.35055 l 11.39406,-6.26109 c 0.80855,-0.4447 1.48583,-0.79942 1.69219,-1.8332 0.10317,-0.51689 -0.11131,-1.13597 -0.42305,-1.46657 -0.31174,-0.33059 -0.64321,-0.49438 -0.98711,-0.62047 -1.37559,-0.50436 -3.29496,-0.51817 -5.83805,-0.25382 -5.08616,0.52868 -12.32399,2.46423 -18.50125,6.65593 l -14.63742,9.95571 -2.31265,-6.51492 -0.11282,-0.28204 -0.22562,-0.22562 c 0,0 -1.78108,-1.554 -3.6382,-3.6382 -1.85713,-2.08421 -3.69186,-4.78748 -3.92024,-6.43032 -0.25491,-1.83373 0.87347,-5.19038 2.19984,-7.92507 1.32638,-2.7347 2.73571,-4.87915 2.73571,-4.87915 l 0.59226,-0.9025 -0.81789,-0.70507 c -1.43871,-1.2213 -2.87163,-2.72439 -3.58179,-4.34328 -0.71016,-1.6189 -0.83705,-3.29032 0.42304,-5.49961 31.39416,-55.04284 73.1244,-91.82248 111.68438,-133.82383 l 83.87609,-13.5375 9e-5,4e-5 z"
         id="path2841-7"
         style="font-size:medium;font-style:normal;font-variant:normal;font-weight:normal;font-stretch:normal;text-indent:0;text-align:start;text-decoration:none;line-height:normal;letter-spacing:normal;word-spacing:normal;text-transform:none;direction:ltr;block-progression:tb;writing-mode:lr-tb;text-anchor:start;color:#000000;fill:#000000;fill-opacity:1;stroke:#000000;stroke-width:2.40935302;marker:none;visibility:visible;display:inline;overflow:visible;enable-background:accumulate;font-family:Bitstream Vera Sans;-inkscape-font-specification:Bitstream Vera Sans"
         inkscape:connector-curvature="0" />
      <path
         inkscape:connector-curvature="0"
         id="path3955-4"
         d="m 672.24776,557.20902 c -8.65486,-0.70464 -21.88598,-0.25941 -23.75482,9.68313 0,1.09336 5.02276,-0.84339 5.30219,0.16921 1.64391,5.95737 7.82951,10.29414 15.03226,10.29414 8.42705,0 15.45531,-5.92697 15.45531,-13.45289 0,-1.60857 9.78141,8.27359 9.19422,6.85336 -2.16005,-5.22445 -12.57429,-12.84231 -21.22916,-13.54695 z"
         style="font-size:medium;font-style:normal;font-variant:normal;font-weight:normal;font-stretch:normal;text-indent:0;text-align:start;text-decoration:none;line-height:normal;letter-spacing:normal;word-spacing:normal;text-transform:none;direction:ltr;block-progression:tb;writing-mode:lr-tb;text-anchor:start;color:#000000;fill:#ffffff;fill-opacity:1;stroke:#000000;stroke-width:2.40935302;marker:none;visibility:visible;display:inline;overflow:visible;enable-background:accumulate;font-family:Bitstream Vera Sans;-inkscape-font-specification:Bitstream Vera Sans" />
      <path
         inkscape:connector-curvature="0"
         id="path3993-0"
         d="m 666.99419,556.99285 c -3.50638,0.007 -7.1944,0.38467 -10.37875,1.46656 l -0.0564,0.11281 c -0.12653,0.27326 -0.0573,0.59062 -0.0564,0.8743 0,5.99461 3.28167,11.22484 10.57617,11.22484 6.98678,0 12.752,-5.36373 13.22726,-11.08382 l -0.0846,-0.11282 c -2.64053,-1.20269 -5.38744,-2.04505 -7.98148,-2.25625 -1.62279,-0.13211 -3.40629,-0.22938 -5.24579,-0.22562 z"
         style="font-size:medium;font-style:normal;font-variant:normal;font-weight:normal;font-stretch:normal;text-indent:0;text-align:start;text-decoration:none;line-height:normal;letter-spacing:normal;word-spacing:normal;text-transform:none;direction:ltr;block-progression:tb;writing-mode:lr-tb;text-anchor:start;color:#000000;fill:#cc0000;fill-opacity:1;stroke:#000000;stroke-width:2.40935302;marker:none;visibility:visible;display:inline;overflow:visible;enable-background:accumulate;font-family:Bitstream Vera Sans;-inkscape-font-specification:Bitstream Vera Sans" />
      <path
         d="m 667.36611,562.00166 a 3.8384506,3.8384506 0 1 1 -7.6769,0 3.8384506,3.8384506 0 1 1 7.6769,0 z"
         id="path3621-9"
         style="fill:#ffffff;fill-opacity:1;stroke:#000000;stroke-width:0.89235294"
         inkscape:connector-curvature="0" />
      <path
         d="m 585.65123,631.921 c 0,0 8.98394,3.69549 12.09116,8.63653 3.10721,4.94105 -0.53863,16.02604 3.4546,19.86404 3.99324,3.838 10.10743,-0.89695 12.95481,1.7273 2.84738,2.62426 2.15914,9.93202 2.15914,9.93202 0,0 2.21497,-8.44777 -0.43183,-11.65932 -2.6468,-3.21156 -9.49754,0.93292 -12.9548,-3.02279 -3.45726,-3.95571 1.66467,-13.30708 -1.72732,-18.13673 -3.39198,-4.82965 -15.54576,-7.34105 -15.54576,-7.34105 z"
         id="path3631-4"
         style="fill:#000000;stroke:#000000;stroke-width:0.89235294"
         inkscape:connector-curvature="0" />
      <path
         d="m 607.6744,644.44397 38.86441,-47.50095 c -16.27946,13.0631 -29.49219,28.68181 -38.86441,47.50095 z"
         id="path3633-8"
         style="fill:#000000;stroke:#000000;stroke-width:0.89235294"
         inkscape:connector-curvature="0" />
      <path
         d="m 713.47196,636.67109 c 36.5711,-9.59237 28.67909,-31.11385 19.00039,-53.1147 11.60333,26.6733 3.93172,43.70912 -19.00039,53.1147 z"
         id="path3635-8"
         style="fill:#000000;stroke:#000000;stroke-width:0.89235294"
         inkscape:connector-curvature="0" />
      <path
         d="m 770.04128,616.80706 9.06836,147.68476 c -17.37064,12.57871 -13.97623,20.36549 -17.7049,29.79606 5.51892,-11.41886 12.0816,-22.31583 28.9324,-28.06875 -10.63616,-45.93315 -13.74584,-99.39278 -20.29586,-149.41207 z"
         id="path3637-2"
         style="fill:#000000;stroke:#000000;stroke-width:0.89235294"
         inkscape:connector-curvature="0" />
      <path
         d="m 662.51641,508.41853 -17.27308,-38.00076 29.79605,26.77326"
         id="path3641-4"
         style="fill:#ffdd00;stroke:#000000;stroke-width:2.40935302;stroke-linecap:butt;stroke-linejoin:miter;stroke-miterlimit:4;stroke-opacity:1;stroke-dasharray:none"
         inkscape:connector-curvature="0" />
      <path
         d="m 574.32023,656.69458 a 4.5980883,7.3875355 13.175291 0 1 -8.86135,-2.47806 4.5980883,7.3875355 13.175291 1 1 8.86135,2.47806 z"
         id="path3643-5"
         style="fill:#000000;fill-opacity:1;stroke:#000000;stroke-width:0.89235294"
         inkscape:connector-curvature="0" />
      <path
         d="m 769.34333,468.32222 c -0.78663,4.49303 -3.1991,8.57191 -6.62773,10.71719 -5.61377,3.74471 -12.53145,4.28494 -19.62938,4.65352 0.50727,-0.4788 1.00667,-0.96712 1.46656,-1.49477 2.93374,-3.50101 4.14107,-7.78299 4.34328,-11.87351 -1.30845,3.88087 -3.5734,7.39009 -6.62773,9.36343 -4.04708,2.79348 -9.24893,1.81625 -14.32028,1.73364 l -19.16373,-3.11559 c -9.48427,-1.54193 -20.10705,4.71931 -31.63701,12.94523 -12.80965,-2.93724 -14.24918,9.8117 -21.42112,16.48388 -16.28046,15.14598 -16.94935,6.84842 -21.44763,3.96339 2.24608,26.23691 13.5465,16.18527 23.4086,11.95812 0.67695,18.54676 5.74293,31.1169 31.41828,15.45532 -25.014,7.94007 -20.84321,-23.58291 -5.49961,-26.90578 13.98944,-3.02962 32.13238,-5.65464 41.88164,0.98711 5.43878,3.08695 11.17835,4.32575 17.93719,-0.50766 3.58749,16.46027 12.40477,25.50444 31.89773,19.43195 0.88249,10.30847 10.35303,27.81706 32.40482,21.18803 1.28649,7.47668 5.90795,15.03148 12.97287,17.19643 -2.32256,12.2176 0.78221,23.74825 16.44299,33.63942 -4.49329,15.82652 -5.59791,32.04055 10.94282,42.60858 -13.28447,21.03786 -15.84099,38.84194 4.00484,50.60332 -8.59479,10.89748 -8.31311,27.05013 7.4744,33.145 -9.97664,15.35116 -0.65703,29.08525 7.95328,34.37961 5.16291,2.58375 10.49473,0.80792 13.22726,-3.10234 4.39177,-6.28463 7.42671,-13.59997 10.83,-20.56008 0.48816,-0.9554 0.98355,-1.88352 1.52297,-2.76391 3.27156,1.29341 6.54313,0.1948 9.81469,-0.9871 l -7.92508,-1.60758 c 0.74413,-0.84682 1.56634,-1.59012 2.51008,-2.17164 1.36916,-0.86351 3.03396,-1.37258 4.76633,-1.52297 2.32815,-0.20357 4.76962,0.17401 7.13539,0.81789 -2.19874,-1.08491 -4.55509,-1.94358 -7.10719,-2.22805 -1.92219,-0.21097 -3.94265,-0.018 -5.86625,0.70508 -1.77633,0.68287 -3.38594,1.73035 -4.76633,2.98953 -0.22039,0.19989 -0.43698,0.41383 -0.64867,0.62047 l -16.38601,-4.93555 c 9.98182,0.68455 17.8027,-5.51227 25.94687,-10.49156 3.51183,-1.60579 6.62671,-2.14308 10.29414,-2.08703 1.72626,0.01 3.86087,-0.58534 5.49961,0.14101 2.00548,0.88549 3.85266,2.26753 5.49961,3.83563 -1.37669,-1.81001 -2.99126,-3.50522 -4.96375,-4.79453 -1.62425,-1.05756 -3.49481,-1.78087 -5.47141,-2.11524 -4.14352,-0.66963 -8.37883,0.26105 -12.21195,1.41016 -4.80207,1.3833 -9.45242,3.06661 -14.01695,4.20227 -4.75174,1.18124 -9.79558,2.94969 -14.21438,1.8332 -5.23104,-1.32173 -9.45533,-4.96541 -4.45609,-10.51977 3.15875,2.46458 8.30312,4.70574 11.56328,2.84852 8.68996,-4.95041 17.91563,-6.75265 28.79539,-4.34328 -6.7012,-3.56342 -14.40548,-5.67059 -22.44969,-5.83805 l 1.52297,-0.62047 c 14.11292,0.53361 29.35612,-1.47791 39.37156,16.44242 -5.52844,-23.22258 -24.40596,-31.09156 -50.34257,-32.40539 l 32.34898,-9.025 c 2.72926,-0.98846 5.44302,-1.7679 8.06609,-1.52297 1.94091,0.1149 3.98082,0.86381 5.80985,2.08704 1.8336,1.22309 3.51331,2.96327 5.13297,4.79453 1.64243,1.86602 3.21163,3.86124 4.96375,5.66883 -2.25522,-4.60669 -2.62665,-11.09493 -6.26053,-14.7157 -4.7419,-4.72478 -12.97313,-5.76272 -19.57354,-5.1393 l -9.53265,1.41015 c 4.91193,-4.61698 4.88261,-9.45857 -1.32555,-14.58101 1.64742,1.38665 3.36673,2.68751 5.18938,3.86382 3.23042,2.12446 7.01,3.7822 10.99921,4.14586 3.20825,0.2576 6.32667,-0.47387 8.9686,-1.91781 2.7913,-1.53617 5.79439,-7.37211 7.79154,-9.65466 -7.89197,6.47074 -17.04426,9.41422 -24.23396,2.91411 -3.08691,-3.95492 -8.28765,-9.47073 -8.9686,-11.64789 6.19012,3.71561 11.5867,4.75571 15.59633,4.70993 6.71077,-0.0766 12.93489,-2.76333 13.89032,-14.43481 -4.32229,4.23183 -8.39203,10.70103 -14.28516,9.72488 -6.58326,-1.09046 -12.33331,-4.42505 -16.07578,-9.84289 -4.71826,-8.43462 -10.8503,-13.75659 -18.67047,-20.36265 13.90652,8.4944 26.06728,-2.70064 24.50851,-13.25718 -4.6473,8.40712 -11.90798,12.47254 -20.30625,7.64475 -2.62097,-1.60321 -5.07785,-3.49788 -7.50203,-5.52781 -2.08911,-1.75671 -4.12704,-3.59661 -6.09187,-5.49961 -0.61378,-0.59484 -1.21332,-1.20352 -1.805,-1.805 -0.16335,-0.16604 -0.32303,-0.31642 -0.47946,-0.47945 -0.0421,-0.0437 -0.0725,-0.0985 -0.11281,-0.14102 -0.0105,-0.011 -0.0178,-0.0173 -0.0282,-0.0281 -0.004,-0.004 -0.0244,-0.0245 -0.0281,-0.0282 l -0.19743,0.25383 -0.22562,-0.31024 c 18.44488,-6.18142 17.75955,-22.49044 18.18411,-35.10769 -17.81845,22.60611 -28.44725,-2.56039 -40.6338,-10.75059 -6.14065,-4.12694 -10.94727,-5.67194 -15.56812,-6.3457 1.40533,-0.34454 2.49308,-0.99872 3.38437,-1.63578 1.36138,-0.9074 2.57778,-1.92059 3.72281,-2.96133 0.98804,-0.89608 1.90886,-1.81424 2.82032,-2.76391 0.28453,-0.29643 0.56891,-0.60062 0.84609,-0.9025 0.0768,-0.0836 0.14979,-0.16969 0.22562,-0.25383 0.005,-0.006 -0.005,-0.0221 0,-0.0281 -0.0988,0.0553 -0.21114,0.11491 -0.31023,0.16921 -0.35828,0.19642 -0.71011,0.40432 -1.07172,0.59227 -1.15857,0.60217 -2.34389,1.15069 -3.52539,1.66398 -1.37624,0.59713 -2.75166,1.13695 -4.11766,1.49477 -1.18002,0.28014 -2.20839,0.49369 -2.84851,0.22562 -4.11925,-1.38622 -8.86983,-1.85872 -12.6068,-4.14585 -5.02752,-3.077 -9.01499,-8.29794 -15.28609,-8.0379 L 801.5514,524.08 c 1.76432,0.34764 3.51938,0.71203 5.27398,1.09992 2.31679,0.51319 4.62568,1.07303 6.88157,1.69219 1.9084,0.53745 3.70525,1.02378 5.33039,1.74859 2.49572,1.15529 5.07512,1.50338 7.50203,1.46656 2.49362,-0.0206 4.92533,-0.40871 7.2482,-1.04351 1.84765,-0.49813 3.70756,-1.14696 5.33039,-2.17164 0.50157,-0.31184 1.00391,-0.68933 1.35375,-1.18454 0.22761,-0.31002 0.33214,-0.74262 0.14102,-1.04351 0.12604,0.33344 -0.076,0.67429 -0.31024,0.9025 -0.40317,0.38242 -0.9061,0.61162 -1.43836,0.81789 -1.71289,0.64698 -3.52689,0.86574 -5.35859,0.98711 -2.2744,0.13924 -4.53405,0.01 -6.68414,-0.42305 -2.09187,-0.43806 -4.08029,-1.11963 -5.49961,-2.25625 -1.81301,-1.28793 -3.72609,-2.2729 -5.52781,-3.18695 -2.20778,-1.12716 -4.42521,-2.18552 -6.65594,-3.18695 -1.84604,-0.82892 -3.71962,-1.61512 -5.58422,-2.39727 2.03091,0.15922 4.10788,0.21168 6.17649,0 2.23273,-0.22812 4.4014,-0.81085 6.3739,-1.74859 1.59984,-0.77547 2.94383,-1.73645 4.25867,-2.62289 1.35203,-0.90835 2.75999,-1.72677 4.31508,-2.31266 -1.66175,-0.012 -3.37048,0.2658 -5.02015,0.64867 -1.57576,0.35699 -3.11747,0.74822 -4.54071,0.8461 -1.73343,0.13286 -3.42976,-0.0901 -5.04836,-0.53586 -1.67545,-0.4451 -3.30111,-1.14483 -4.90734,-1.94602 4.62094,-0.523 8.9405,-2.04328 12.77601,-4.68172 2.12674,-1.69217 3.68472,-3.87985 4.62532,-6.23289 0.91739,-2.3116 1.31848,-4.69433 1.60758,-7.05078 -0.82517,2.22611 -1.76613,4.41468 -3.07415,6.26109 -1.31159,1.85504 -3.03296,3.33616 -4.93554,4.20227 -2.52834,1.20243 -5.43378,1.46663 -8.34813,1.43836 -4.63287,-0.0835 -9.18357,-1.26004 -13.87593,-2.39727 l -21.43438,-5.18937 c 6.65463,-1.65945 8.23599,1.58357 14.86305,0.56406 3.13147,-0.79976 5.43083,-2.79853 7.38922,-4.87914 -2.46291,1.44856 -5.18002,2.63059 -7.67125,2.45367 -1.77808,-0.0671 -3.43187,-0.91641 -5.13297,-1.8614 -2.0276,-1.17164 -4.14093,-2.51799 -6.71235,-3.5818 -3.44535,-1.38567 -7.39656,-3.20084 -10.97101,-1.97422 l -10.51977,3.61 c 4.1151,-1.80253 10.13598,-4.77811 13.22727,-8.00969 3.46601,-3.72894 2.66785,-8.02702 2.36906,-12.57859 l -9e-5,-1.4e-4 z m 89.99617,182.64344 c 11.77769,0.47313 24.84444,0.43081 32.20797,4.76633 0,0 8.63821,11.83939 -7.84047,11.19664 -10.83907,-0.42278 -14.4169,-12.64611 -24.3675,-15.96297 z m 21.71641,86.86563 c 1.99865,0.0132 4.24749,0.4518 6.54312,1.15632 -2.41267,3.11399 -4.4621,6.29028 -6.85336,8.71477 -7.59636,7.80609 -8.95301,2.56553 -11.22484,-0.76148 l 5.3868,-6.68415 c 1.41354,-1.75397 3.57858,-2.44243 6.14828,-2.42546 z"
         id="path3649-5"
         style="fill:#cc0000;fill-rule:evenodd;stroke:#000000;stroke-width:2.40935302;stroke-miterlimit:4;stroke-dasharray:none"
         inkscape:connector-curvature="0" />
      <path
         d="m 687.13053,512.30497 -15.11394,-52.25105 c 0,0 50.14976,34.99059 53.97836,47.50095 1.88048,6.14472 -5.18192,18.56856 -5.18192,18.56856"
         id="path3639-1"
         style="fill:#ffdd00;stroke:#000000;stroke-width:2.40935302;stroke-linecap:butt;stroke-linejoin:miter;stroke-miterlimit:4;stroke-opacity:1;stroke-dasharray:none"
         inkscape:connector-curvature="0" />
      <path
         d="m 700.3713,522.70149 c 11.42695,-14.28144 -12.70299,-32.38809 -20.31372,-48.68289 9.27734,16.76949 41.71501,38.54662 20.31372,48.68289 z"
         id="path3733-7"
         style="fill:#000000;stroke:#000000;stroke-width:0.89235294"
         inkscape:connector-curvature="0" />
    </g>
  </g>
  <g
     inkscape:groupmode="layer"
     id="layer1"
     inkscape:label="Cover"
     style="display:inline"
     sodipodi:insensitive="true">
    <path
       d="m 2,2 v 257 c 0,286 298,398 298,398 0,0 298,-112 298,-398 V 2 z"
       id="shine"
       inkscape:connector-curvature="0"
       style="fill:url(#radialGradient3074);stroke:#000000;stroke-width:3" />
  </g>
</svg>
