<?xml version="1.0" encoding="UTF-8"?>
<svg xmlns="http://www.w3.org/2000/svg" xmlns:xlink="http://www.w3.org/1999/xlink" width="600" height="660">
<defs>
  <radialGradient id="rg" gradientUnits="userSpaceOnUse" cx="220" cy="220" r="405">
    <stop style="stop-color:#fff;stop-opacity:.3" offset="0"/>
    <stop style="stop-color:#fff;stop-opacity:.2" offset=".2"/>
    <stop style="stop-color:#666;stop-opacity:.1" offset=".6"/>
    <stop style="stop-color:#000;stop-opacity:.13" offset="1"/>
  </radialGradient>
  <path id="shield" d="m2,2v257c0,286 298,398 298,398c0,0 298-112 298-398V2z"/>
</defs>
<use id="shine" xlink:href="#shield" fill="#fff"/>
<path fill="#c00" d="M 2 2 L 2 259 C 2 545 300 657 300 657 C 300 657 598 545 598 259 L 598 2 L 2 2 z M 75 75 L 125 75 L 125 100 L 175 100 L 175 75 L 225 75 L 225 100 L 275 100 L 275 75 L 325 75 L 325 100 L 375 100 L 375 75 L 425 75 L 425 100 L 475 100 L 475 75 L 525 75 L 525 125 L 500 125 L 500 181 L 525 181 L 525 237 L 500 237 L 500 258.83398 L 499.96875 263.17969 L 499.96875 263.24219 L 499.89258 267.0293 L 499.75586 271.13672 L 499.57031 275.06445 L 499.32617 279.11133 L 499.04102 282.96875 L 498.70703 286.79688 L 498.33984 290.42578 L 523.21484 292.9375 C 521.15726 312.26109 517.38112 330.52546 512.2207 347.76562 L 488.24219 340.69727 L 488.125 341.09375 L 485.9707 347.91211 L 483.67383 354.58789 L 481.24414 361.10156 L 478.66211 367.5332 L 475.96094 373.80859 L 473.13281 379.96875 L 470.16406 386.04883 L 469.08789 388.12891 L 491.28906 399.62109 C 482.53489 416.6677 472.47386 432.45046 461.57031 447.00586 L 441.64258 431.91016 L 438.53516 436.01172 L 434.64062 440.95312 L 430.56445 445.93164 L 426.49609 450.71875 L 422.24219 455.54492 L 418.06445 460.12109 L 413.82031 464.61719 L 409.50781 469.0332 L 407.14062 471.38281 L 424.75 489.12891 C 410.86119 502.89018 396.55217 515.11268 382.5293 525.86133 L 367.30664 506.0293 L 365.29102 507.57617 L 365.21484 507.63477 L 360.94531 510.82617 L 356.53125 514.04883 L 352.32422 517.04492 L 352.24219 517.10156 L 347.85352 520.15234 L 347.78516 520.19922 L 343.74609 522.94141 L 343.69531 522.97461 L 339.5293 525.74023 L 339.48828 525.76758 L 335.36719 528.43945 L 335.32422 528.4668 L 331.23438 531.05859 L 323.16602 536.00781 L 336.23828 557.32031 C 322.42487 565.61854 310.00937 572.18552 300 577.10938 C 289.99063 572.18553 277.57513 565.61854 263.76172 557.32031 L 276.83398 536.00781 L 268.76562 531.05859 L 264.67578 528.4668 L 264.63281 528.43945 L 260.51172 525.76758 L 260.4707 525.74023 L 256.30469 522.97461 L 256.25391 522.94141 L 252.21484 520.19922 L 252.14648 520.15234 L 247.75781 517.10156 L 247.67578 517.04492 L 243.46875 514.04883 L 239.05469 510.82617 L 234.78516 507.63477 L 234.70898 507.57617 L 232.69336 506.0293 L 217.4707 525.86133 C 203.44783 515.11268 189.13881 502.89019 175.25 489.12891 L 192.85938 471.38281 L 190.49219 469.0332 L 186.17969 464.61719 L 181.93555 460.12109 L 177.75781 455.54492 L 173.50391 450.71875 L 169.43555 445.93164 L 165.35938 440.95312 L 161.46484 436.01172 L 158.35742 431.91016 L 138.42969 447.00586 C 127.52614 432.45046 117.46511 416.6677 108.71094 399.62109 L 130.91211 388.12891 L 129.83594 386.04883 L 126.86719 379.96875 L 124.03906 373.80859 L 121.33789 367.5332 L 118.75586 361.10156 L 116.32617 354.58789 L 114.0293 347.91211 L 111.875 341.09375 L 111.75781 340.69727 L 87.779297 347.76562 C 82.618883 330.52546 78.842738 312.26109 76.785156 292.9375 L 101.6582 290.42578 L 101.29102 286.79688 L 100.95703 282.96875 L 100.67188 279.11133 L 100.42773 275.06445 L 100.24219 271.13672 L 100.10547 267.0293 L 100.0293 263.24219 L 100.0293 263.17969 L 100 258.83398 L 100 237 L 75 237 L 75 181 L 100 181 L 100 125 L 75 125 L 75 75 z "/>
<path fill="#c00" d="M 150 150 L 150 259 C 150 381.45655 240.12925 455.92036 300 491.97852 C 359.87075 455.92036 450 381.45655 450 259 L 450 150 L 150 150 z"/>
<g id="rose" transform="translate(300,300)scale(0.8)">
	<g transform="rotate(36)">
		<path id="leaf" fill="#eee" d="m 0,0 c -15,18 -24,43 -24,72 0,29 9,54 24,72 15,-18 24,-43 24,-72 0,-29 -9,-54 -24,-72 z"/>
		<use xlink:href="#leaf" transform="rotate(72)"/>
		<use xlink:href="#leaf" transform="rotate(144)"/>
		<use xlink:href="#leaf" transform="rotate(216)"/>
		<use xlink:href="#leaf" transform="rotate(288)"/>
		<g id="petals">
			<g id="g1">
				<path style="fill:#fff;stroke:#000;stroke-width:0.2" d="M 0,-115 C-53,-115 -59.73,-86.15 -52,-75 L0,0 52,-75 C 59.73,-86.15 53,-115 0,-115 z"/>
				<path fill="#333" d="m 0,-100 c 14,0 24,-4 32,-2 17,4 18,14 18,21 0,-8 -1,-18 -18,-22 -8,-2 -18,1 -32,1 -14,0 -24,-3 -32,-1 -17,4 -18,14 -18,22 0,-7 1,-17 18,-21 8,-2 18,2 32,2z"/>
				<path fill="#aaa" d="M 0,-99 C 14,-99 24,-103 32,-101 49,-97 50,-86 50,-79 50,-85 49,-94 32,-98 24,-100 14,-92 0,-92 -14,-92 -24,-100 -32,-98 -49,-94 -50,-85 -50,-79 -50,-86 -49,-97 -32,-101 -24,-103 -14,-99 0,-99z"/>
				<path fill="#333" d="M 0,-84 -6,-68 C 0,-72 0,-72 6,-68 z"/>
				<path fill="#aaa" d="M -5,-63 C -5,-65 -3,-67 0,-67 3,-67 5,-65 5,-63 5,-60 2,-56 0,-53 -2,-56 -5,-60 -5,-63 z"/>
			</g>
			<use xlink:href="#g1" transform="rotate(72)"/>
			<use xlink:href="#g1" transform="rotate(144)"/>
			<use xlink:href="#g1" transform="rotate(216)"/>
			<use xlink:href="#g1" transform="rotate(288)"/>
		</g>
		<use xlink:href="#petals" transform="rotate(36) scale(0.55)"/>
		<circle r="20" style="fill:#ddd;stroke:#330;stroke-width:1.5;stroke-opacity:0.4"/>
		<circle r="10" style="fill:#eee;stroke:#330;stroke-width:1.5;stroke-opacity:0.4"/>
		<g id="g2" style="fill:#eee;stroke:#330;stroke-width:1.25;stroke-opacity:0.4">
			<circle r="4" cy="25"/>
			<circle r="4" cy="-25"/>
		</g>
		<use xlink:href="#g2" transform="rotate(20)"/>
		<use xlink:href="#g2" transform="rotate(40)"/>
		<use xlink:href="#g2" transform="rotate(60)"/>
		<use xlink:href="#g2" transform="rotate(80)"/>
		<use xlink:href="#g2" transform="rotate(100)"/>
		<use xlink:href="#g2" transform="rotate(120)"/>
		<use xlink:href="#g2" transform="rotate(140)"/>
		<use xlink:href="#g2" transform="rotate(160)"/>
	</g>
</g>
<use id="shine" xlink:href="#shield" fill="url(#rg)" stroke="#000" stroke-width="3"/>
</svg>