<?xml version="1.0" encoding="UTF-8" standalone="no"?>
<svg
   xmlns:dc="http://purl.org/dc/elements/1.1/"
   xmlns:cc="http://creativecommons.org/ns#"
   xmlns:rdf="http://www.w3.org/1999/02/22-rdf-syntax-ns#"
   xmlns:svg="http://www.w3.org/2000/svg"
   xmlns="http://www.w3.org/2000/svg"
   xmlns:xlink="http://www.w3.org/1999/xlink"
   xmlns:sodipodi="http://sodipodi.sourceforge.net/DTD/sodipodi-0.dtd"
   xmlns:inkscape="http://www.inkscape.org/namespaces/inkscape"
   width="600"
   height="660"
   id="svg2"
   version="1.1"
   inkscape:version="0.48.2 r9819"
   sodipodi:docname="House_Shawney.svg">
  <metadata
     id="metadata24">
    <rdf:RDF>
      <cc:Work
         rdf:about="">
        <dc:format>image/svg+xml</dc:format>
        <dc:type
           rdf:resource="http://purl.org/dc/dcmitype/StillImage" />
        <dc:title />
      </cc:Work>
    </rdf:RDF>
  </metadata>
  <sodipodi:namedview
     pagecolor="#ffffff"
     bordercolor="#666666"
     borderopacity="1"
     objecttolerance="10"
     gridtolerance="10"
     guidetolerance="10"
     inkscape:pageopacity="0"
     inkscape:pageshadow="2"
     inkscape:window-width="1366"
     inkscape:window-height="715"
     id="namedview22"
     showgrid="false"
     inkscape:zoom="1"
     inkscape:cx="257.43478"
     inkscape:cy="199.71199"
     inkscape:window-x="-8"
     inkscape:window-y="-8"
     inkscape:window-maximized="1"
     inkscape:current-layer="layer2" />
  <defs
     id="defs4">
    <inkscape:path-effect
       effect="spiro"
       id="path-effect3779"
       is_visible="true" />
    <inkscape:path-effect
       is_visible="true"
       id="path-effect3775"
       effect="spiro" />
    <inkscape:path-effect
       effect="spiro"
       id="path-effect3771"
       is_visible="true" />
    <inkscape:path-effect
       is_visible="true"
       id="path-effect3767"
       effect="spiro" />
    <inkscape:path-effect
       effect="spiro"
       id="path-effect3763"
       is_visible="true" />
    <inkscape:path-effect
       is_visible="true"
       id="path-effect3756"
       effect="spiro" />
    <inkscape:path-effect
       effect="spiro"
       id="path-effect3226"
       is_visible="true" />
    <inkscape:path-effect
       is_visible="true"
       id="path-effect3217"
       effect="spiro" />
    <inkscape:path-effect
       effect="spiro"
       id="path-effect3213"
       is_visible="true" />
    <inkscape:path-effect
       is_visible="true"
       id="path-effect3136"
       effect="spiro" />
    <inkscape:path-effect
       effect="spiro"
       id="path-effect3132"
       is_visible="true" />
    <inkscape:path-effect
       effect="spiro"
       id="path-effect3101"
       is_visible="true" />
    <inkscape:path-effect
       is_visible="true"
       id="path-effect3085"
       effect="spiro" />
    <inkscape:path-effect
       is_visible="true"
       id="path-effect3083"
       effect="spiro" />
    <inkscape:path-effect
       is_visible="true"
       id="path-effect3081"
       effect="spiro" />
    <inkscape:path-effect
       is_visible="true"
       id="path-effect3079"
       effect="spiro" />
    <inkscape:path-effect
       is_visible="true"
       id="path-effect3077"
       effect="spiro" />
    <inkscape:path-effect
       is_visible="true"
       id="path-effect3075"
       effect="spiro" />
    <inkscape:path-effect
       effect="spiro"
       id="path-effect3049"
       is_visible="true" />
    <inkscape:path-effect
       is_visible="true"
       id="path-effect3045"
       effect="spiro" />
    <inkscape:path-effect
       effect="spiro"
       id="path-effect3041"
       is_visible="true" />
    <radialGradient
       id="rg"
       gradientUnits="userSpaceOnUse"
       cx="220"
       cy="220"
       r="405">
      <stop
         style="stop-color:#fff;stop-opacity:.3"
         offset="0"
         id="stop7" />
      <stop
         style="stop-color:#fff;stop-opacity:.2"
         offset=".2"
         id="stop9" />
      <stop
         style="stop-color:#666;stop-opacity:.1"
         offset=".6"
         id="stop11" />
      <stop
         style="stop-color:#000;stop-opacity:.13"
         offset="1"
         id="stop13" />
    </radialGradient>
    <path
       id="shield"
       d="m2,2v257c0,286 298,398 298,398c0,0 298-112 298-398V2z" />
    <radialGradient
       inkscape:collect="always"
       xlink:href="#rg-7"
       id="radialGradient3055-1"
       gradientUnits="userSpaceOnUse"
       cx="220"
       cy="220"
       r="405" />
    <radialGradient
       id="rg-7"
       gradientUnits="userSpaceOnUse"
       cx="220"
       cy="220"
       r="405">
      <stop
         style="stop-color:#fff;stop-opacity:.3"
         offset="0"
         id="stop7-4" />
      <stop
         style="stop-color:#fff;stop-opacity:.2"
         offset=".2"
         id="stop9-0" />
      <stop
         style="stop-color:#666;stop-opacity:.1"
         offset=".6"
         id="stop11-9" />
      <stop
         style="stop-color:#000;stop-opacity:.13"
         offset="1"
         id="stop13-4" />
    </radialGradient>
    <radialGradient
       r="405"
       cy="220"
       cx="220"
       gradientUnits="userSpaceOnUse"
       id="radialGradient3074"
       xlink:href="#rg-7"
       inkscape:collect="always" />
    <inkscape:path-effect
       is_visible="true"
       id="path-effect10120-1"
       effect="spiro" />
    <inkscape:path-effect
       effect="spiro"
       id="path-effect10118-3"
       is_visible="true" />
    <inkscape:path-effect
       effect="spiro"
       id="path-effect10116-9"
       is_visible="true" />
    <inkscape:path-effect
       effect="spiro"
       id="path-effect10114-7"
       is_visible="true" />
    <inkscape:path-effect
       effect="spiro"
       id="path-effect10112-7"
       is_visible="true" />
    <inkscape:path-effect
       effect="spiro"
       id="path-effect10110-2"
       is_visible="true" />
    <linearGradient
       inkscape:collect="always"
       xlink:href="#linearGradient4719-5"
       id="linearGradient4039"
       gradientUnits="userSpaceOnUse"
       gradientTransform="matrix(2.3257341,0,0,2.2943177,447.69485,-1820.2799)"
       x1="-145.25935"
       y1="984.24286"
       x2="-64.14286"
       y2="984.14789" />
    <linearGradient
       inkscape:collect="always"
       id="linearGradient4719-5">
      <stop
         style="stop-color:#666666;stop-opacity:1;"
         offset="0"
         id="stop4721-5" />
      <stop
         id="stop4809-1"
         offset="0.39344174"
         style="stop-color:#666666;stop-opacity:0.74901961;" />
      <stop
         style="stop-color:#666666;stop-opacity:0;"
         offset="1"
         id="stop4723-7" />
    </linearGradient>
    <radialGradient
       inkscape:collect="always"
       xlink:href="#linearGradient4801-8"
       id="radialGradient4041"
       gradientUnits="userSpaceOnUse"
       gradientTransform="matrix(-0.72153181,1.2650715,-2.2729984,-1.2616144,1712.0113,1733.7841)"
       cx="-307.14288"
       cy="782.36218"
       fx="-307.14288"
       fy="782.36218"
       r="63" />
    <linearGradient
       inkscape:collect="always"
       id="linearGradient4801-8">
      <stop
         style="stop-color:#000000;stop-opacity:1;"
         offset="0"
         id="stop4803-2" />
      <stop
         style="stop-color:#000000;stop-opacity:0;"
         offset="1"
         id="stop4805-4" />
    </linearGradient>
    <inkscape:path-effect
       effect="spiro"
       id="path-effect10108-4"
       is_visible="true" />
    <linearGradient
       inkscape:collect="always"
       xlink:href="#linearGradient4719-5"
       id="linearGradient4044"
       gradientUnits="userSpaceOnUse"
       gradientTransform="matrix(-2.4055369,0,0,-1.6485021,142.06168,1726.5307)"
       x1="-145.25935"
       y1="984.24286"
       x2="-64.14286"
       y2="984.14789" />
    <radialGradient
       inkscape:collect="always"
       xlink:href="#linearGradient4801-8"
       id="radialGradient4046"
       gradientUnits="userSpaceOnUse"
       gradientTransform="matrix(0.74628962,-0.90897301,2.3509914,0.90648896,-1165.637,-827.11785)"
       cx="-307.14288"
       cy="782.36218"
       fx="-307.14288"
       fy="782.36218"
       r="63" />
    <inkscape:path-effect
       effect="spiro"
       id="path-effect10102-7"
       is_visible="true" />
    <linearGradient
       inkscape:collect="always"
       xlink:href="#linearGradient4719-5"
       id="linearGradient4049"
       gradientUnits="userSpaceOnUse"
       gradientTransform="matrix(2.334989,0,0,-1.6146975,449.44065,1692.189)"
       x1="-145.25935"
       y1="984.24286"
       x2="-64.14286"
       y2="984.14789" />
    <radialGradient
       inkscape:collect="always"
       xlink:href="#linearGradient4801-8"
       id="radialGradient4051"
       gradientUnits="userSpaceOnUse"
       gradientTransform="matrix(-0.72440295,-0.89033332,-2.2820431,0.88790031,1718.7881,-809.09364)"
       cx="-307.14288"
       cy="782.36218"
       fx="-307.14288"
       fy="782.36218"
       r="63" />
    <inkscape:path-effect
       is_visible="true"
       id="path-effect10096-8"
       effect="spiro" />
    <linearGradient
       inkscape:collect="always"
       xlink:href="#linearGradient4719-5"
       id="linearGradient4054"
       gradientUnits="userSpaceOnUse"
       gradientTransform="matrix(-2.409599,0,0,2.2818507,139.61083,-1810.8163)"
       x1="-145.25935"
       y1="984.24286"
       x2="-64.14286"
       y2="984.14789" />
    <radialGradient
       inkscape:collect="always"
       xlink:href="#linearGradient4801-8"
       id="radialGradient4056"
       gradientUnits="userSpaceOnUse"
       gradientTransform="matrix(0.74754985,1.2581972,2.3549614,-1.2547588,-1170.296,1723.935)"
       cx="-307.14288"
       cy="782.36218"
       fx="-307.14288"
       fy="782.36218"
       r="63" />
    <inkscape:path-effect
       is_visible="true"
       id="path-effect10090-3"
       effect="spiro" />
    <inkscape:path-effect
       effect="spiro"
       id="path-effect10084-1"
       is_visible="true" />
    <inkscape:path-effect
       effect="spiro"
       id="path-effect10082-1"
       is_visible="true" />
    <radialGradient
       inkscape:collect="always"
       xlink:href="#linearGradient4801-8"
       id="radialGradient4061"
       gradientUnits="userSpaceOnUse"
       gradientTransform="matrix(-0.76516322,1.2901254,-2.4104477,-1.2865998,1806.8444,1757.4704)"
       cx="-307.14288"
       cy="782.36218"
       fx="-307.14288"
       fy="782.36218"
       r="63" />
    <inkscape:path-effect
       effect="spiro"
       id="path-effect10080-4"
       is_visible="true" />
    <inkscape:path-effect
       is_visible="true"
       id="path-effect3075-1"
       effect="spiro" />
    <inkscape:path-effect
       effect="spiro"
       id="path-effect3101-7"
       is_visible="true" />
    <linearGradient
       inkscape:collect="always"
       xlink:href="#grad1-7-7"
       id="linearGradient3085-8-8"
       gradientUnits="userSpaceOnUse"
       gradientTransform="matrix(0.77469594,0,0,0.30982404,152.68996,-13.619206)"
       x1="78.877235"
       y1="178.07356"
       x2="301.40585"
       y2="178.07356" />
    <linearGradient
       id="grad1-7-7"
       x1="78.877235"
       y1="178.07356"
       x2="301.40585"
       y2="178.07356"
       gradientTransform="scale(1.577772,0.63380513)"
       gradientUnits="userSpaceOnUse">
      <stop
         offset="0%"
         style="stop-color:#da0;"
         id="stop16-4-4" />
      <stop
         offset="40%"
         style="stop-color:#fd0;"
         id="stop18-0-0" />
      <stop
         offset="60%"
         style="stop-color:#fd0;"
         id="stop20-9-9" />
      <stop
         offset="100%"
         style="stop-color:#da0;"
         id="stop22-4-4" />
    </linearGradient>
    <linearGradient
       inkscape:collect="always"
       xlink:href="#grad1-7-7"
       id="linearGradient3081-8-8"
       gradientUnits="userSpaceOnUse"
       gradientTransform="matrix(0.77469594,0,0,0.30982404,-27.310046,-13.619206)"
       x1="78.877235"
       y1="178.07356"
       x2="301.40585"
       y2="178.07356" />
    <linearGradient
       id="linearGradient3093"
       x1="78.877235"
       y1="178.07356"
       x2="301.40585"
       y2="178.07356"
       gradientTransform="scale(1.577772,0.63380513)"
       gradientUnits="userSpaceOnUse">
      <stop
         offset="0%"
         style="stop-color:#da0;"
         id="stop3095" />
      <stop
         offset="40%"
         style="stop-color:#fd0;"
         id="stop3097" />
      <stop
         offset="60%"
         style="stop-color:#fd0;"
         id="stop3099" />
      <stop
         offset="100%"
         style="stop-color:#da0;"
         id="stop3101" />
    </linearGradient>
    <linearGradient
       y2="178.07356"
       x2="301.40585"
       y1="178.07356"
       x1="78.877235"
       gradientTransform="matrix(0.77469594,0,0,0.30982404,332.68995,-13.619206)"
       gradientUnits="userSpaceOnUse"
       id="linearGradient3128-1"
       xlink:href="#grad1-7-7"
       inkscape:collect="always" />
    <linearGradient
       id="linearGradient3104"
       x1="78.877235"
       y1="178.07356"
       x2="301.40585"
       y2="178.07356"
       gradientTransform="scale(1.577772,0.63380513)"
       gradientUnits="userSpaceOnUse">
      <stop
         offset="0%"
         style="stop-color:#da0;"
         id="stop3106" />
      <stop
         offset="40%"
         style="stop-color:#fd0;"
         id="stop3108" />
      <stop
         offset="60%"
         style="stop-color:#fd0;"
         id="stop3110" />
      <stop
         offset="100%"
         style="stop-color:#da0;"
         id="stop3112" />
    </linearGradient>
    <inkscape:path-effect
       is_visible="true"
       id="path-effect3061"
       effect="spiro" />
    <inkscape:path-effect
       is_visible="true"
       id="path-effect3775-7"
       effect="spiro" />
    <inkscape:path-effect
       effect="spiro"
       id="path-effect3779-4"
       is_visible="true" />
  </defs>
  <g
     inkscape:groupmode="layer"
     id="layer2"
     inkscape:label="Elements"
     style="display:inline">
    <path
       style="fill:#0000cc;stroke:none;display:inline"
       d="m 2.5,2 0,277.34375 C 10.753472,442.9871 117.54832,546.69508 200.84375,603.1875 L 200.84375,2 2.5,2 z"
       id="path3773"
       inkscape:connector-curvature="0" />
    <path
       style="fill:#008800;stroke:none;display:inline"
       d="m 399.15625,2 0,601.1875 C 482.45168,546.69508 589.24653,442.9871 597.5,279.34375 L 597.5,2 399.15625,2 z"
       id="path3777"
       inkscape:connector-curvature="0" />
    <path
       style="fill:#cc0000;stroke:none;display:inline"
       d="M 200.8125 2 L 200.8125 222 L 200.8125 279.34375 L 200.8125 545.84375 L 200.8125 603.15625 L 200.8125 603.1875 C 255.45358 640.24959 300 657 300 657 C 300 657 344.52504 640.23935 399.15625 603.1875 L 399.15625 545.84375 L 399.15625 279.34375 L 399.15625 222 L 399.15625 2 L 200.8125 2 z "
       id="path3098" />
    <path
       inkscape:connector-curvature="0"
       style="fill:#000000;stroke:none;display:inline"
       d="M 4.09375,300 C 30.624001,555.76587 300,657 300,657 c 0,0 269.376,-101.23413 295.90625,-357 l -591.8125,0 z"
       id="path3224" />
    <g
       style="display:inline"
       id="g3732">
      <path
         inkscape:connector-curvature="0"
         id="path3121"
         d="m 255.3271,562.71326 c 9.06744,-1.54201 19.95466,-3.16096 24.19382,-3.59778 4.73688,-0.48806 7.54537,-1.05656 7.28672,-1.47504 -0.69593,-1.12608 -18.0751,-0.0426 -30.79362,1.91935 -28.53958,4.40293 -42.96028,2.69165 -57.2237,-6.79063 -16.27998,-10.82289 -24.24514,-28.36077 -26.12806,-57.52922 -0.64204,-9.94602 -1.01425,-11.46757 -2.50297,-10.23204 -1.40042,1.16225 -1.95872,12.96975 -1.02357,21.64754 2.76916,25.69645 14.45034,46.75071 30.24666,54.51684 8.61327,4.23463 12.52411,4.89848 27.09376,4.59884 10.55727,-0.21707 14.77459,-0.66405 28.85096,-3.05786 z"
         style="fill:#ffffff" />
      <path
         inkscape:connector-curvature="0"
         id="path3119"
         d="m 271.84917,527.05334 c 7.588,-1.76953 17.10092,-5.07488 22.6328,-7.864 2.26686,-1.14293 10.30392,-6.10511 17.86012,-11.02707 19.19071,-12.50044 26.42295,-16.91044 35.81163,-21.83686 14.02499,-7.35916 19.2757,-11.78339 26.01413,-21.91943 7.00369,-10.53506 12.31422,-24.326 18.91171,-49.11192 5.91581,-22.22492 8.00757,-28.19463 11.69264,-33.36983 0.81696,-1.14732 1.29389,-2.27755 1.05982,-2.51161 -0.85677,-0.85678 -4.95268,3.91293 -15.4755,18.02132 -11.89537,15.94862 -17.481,22.29524 -22.88991,26.00846 -7.13402,4.8975 -24.84038,10.39666 -38.98172,12.10677 -8.02175,0.97006 -29.88782,0.98262 -43.27644,0.0249 -17.37292,-1.24278 -42.92631,-1.60964 -53.87921,-0.77352 -24.13824,1.84266 -52.27025,8.09107 -64.71747,14.37441 -8.96663,4.52634 -14.2145,10.36547 -15.09601,16.79681 -0.5487,4.00312 1.49433,7.78737 6.76516,12.53097 5.28243,4.75405 6.17356,5.03161 8.87001,2.7627 1.82432,-1.53506 2.6776,-1.80553 4.68403,-1.48468 2.33107,0.37275 2.52139,0.25131 3.81787,-2.43599 1.63642,-3.39189 4.78235,-6.01418 5.88831,-4.90822 0.53133,0.53133 0.058,1.63799 -1.66729,3.89826 -2.82771,3.7045 -4.2068,9.10019 -3.36342,13.15941 0.46374,2.23196 1.39862,3.38131 5.3705,6.60253 7.48446,6.06994 9.28686,10.90219 4.06648,10.90219 -2.6574,0 -3.80264,-1.40622 -2.46142,-3.0223 0.61541,-0.74152 0.33321,-1.32287 -1.3156,-2.71026 -2.49959,-2.10327 -4.12265,-1.72814 -4.12265,0.95284 0,6.69206 6.75588,12.40603 18.21711,15.4076 5.53561,1.44972 19.29054,2.77124 22.49804,2.16152 3.11102,-0.59138 6.96757,-3.8126 8.75183,-7.31004 0.71561,-1.40271 2.74949,-6.94704 4.51974,-12.32073 l 3.21863,-9.77035 -1.12557,-4.04847 c -1.98669,-7.14573 -0.98983,-9.00205 1.67858,-3.1258 1.72621,3.80136 1.69031,10.85729 -0.093,18.29057 l -1.40084,5.83888 1.43382,1.16331 c 4.86238,3.94502 19.32031,6.91446 33.66308,6.91389 11.7947,-4.7e-4 17.83601,-1.24598 19.7063,-4.06278 0.89595,-1.34938 0.79204,-1.68706 -1.22642,-3.98598 -2.60672,-2.96889 -13.87857,-8.67045 -20.4114,-10.32455 -8.01386,-2.02911 -16.22939,-2.03293 -16.77419,-0.008 -0.10164,0.37781 0.74256,0.77169 1.87599,0.87529 3.41878,0.31249 5.15195,0.83125 5.15195,1.54205 0,0.81822 -12.81583,0.92417 -13.31895,0.11011 -0.70384,-1.13884 2.43245,-5.04669 4.91913,-6.12929 3.29267,-1.43349 11.4357,-1.38983 17.08723,0.0916 12.94515,3.39335 27.03283,12.3323 27.03283,17.15293 0,5.37227 -14.41456,9.45473 -29.53789,8.36565 -11.91861,-0.85829 -24.67021,-3.86841 -29.33468,-6.92469 -2.03679,-1.33455 -2.36732,-1.11108 -4.86873,3.29166 -1.12692,1.98349 -2.85657,4.35574 -3.84366,5.27167 -0.9871,0.91591 -1.79473,2.04151 -1.79473,2.50134 0,1.05931 3.79477,2.57509 9.96045,3.97855 2.64467,0.60202 5.42673,1.23757 6.18235,1.41232 0.75562,0.17482 6.78341,0.22957 13.39509,0.12179 9.27604,-0.15133 13.44123,-0.52721 18.23939,-1.64615 z"
         style="fill:#ffffff" />
      <path
         inkscape:connector-curvature="0"
         id="path3117"
         d="m 268.03526,511.69735 c -2.45577,-0.34205 -9.25635,-1.25423 -15.11241,-2.02706 -5.85606,-0.77283 -10.91258,-1.66159 -11.23672,-1.97502 -0.74455,-0.71998 0.71704,-5.2783 1.82469,-5.6907 0.45399,-0.16902 5.61676,0.40817 11.47281,1.28266 5.85606,0.87449 10.9565,1.62541 11.33431,1.66871 0.37781,0.0433 0.0687,0.32213 -0.68693,0.6196 -0.75562,0.29748 -5.54694,0.41318 -10.64738,0.25711 -12.65265,-0.38716 -10.58851,0.67262 7.12397,3.65763 7.60503,1.28165 14.13644,2.45746 14.51425,2.61292 1.18006,0.48557 -3.91591,0.2447 -8.58659,-0.40585 z"
         style="fill:#000000" />
      <path
         inkscape:connector-curvature="0"
         id="path3115"
         d="m 219.90403,505.91273 c -0.74558,-0.89836 -0.73779,-1.34377 0.0451,-2.57598 4.40853,-6.9392 6.14555,-12.27846 6.18339,-19.00646 0.0269,-4.78859 0.98058,-6.61981 2.02155,-3.88184 1.00053,2.63157 0.90917,7.61407 -0.25075,13.67643 -1.15636,6.04377 -2.49372,9.47559 -4.45809,11.43996 -1.71898,1.71898 -2.35165,1.78113 -3.54114,0.34789 z"
         style="fill:#000000" />
      <path
         inkscape:connector-curvature="0"
         id="path3113"
         d="m 212.14956,498.92435 c 2.54154,-4.91204 3.26145,-7.14473 3.92971,-12.18724 0.87355,-6.59164 1.81196,-7.80932 4.08373,-5.29906 1.00592,1.11154 1.05986,1.81411 0.40946,5.33249 -1.00206,5.42061 -3.99172,11.83584 -7.1396,15.32017 -4.24199,4.69537 -4.72913,3.49344 -1.2833,-3.16636 z"
         style="fill:#000000" />
      <path
         inkscape:connector-curvature="0"
         id="path3111"
         d="m 183.7598,489.13399 c -3.56122,-1.43485 -4.09508,-7.21329 -0.95641,-10.35196 2.09835,-2.09835 4.90801,-2.63409 6.02735,-1.14929 1.27431,1.6904 2.43989,6.6086 1.99051,8.39907 -0.30398,1.21114 -1.2496,2.15453 -2.81545,2.80878 -1.29675,0.54181 -2.44494,0.96553 -2.55153,0.94157 -0.10659,-0.024 -0.8691,-0.31563 -1.69447,-0.64817 z"
         style="fill:#000000" />
      <path
         inkscape:connector-curvature="0"
         id="path3109"
         d="m 186.50117,483.89101 c 0.2416,-0.2416 0.28322,-0.69178 0.0925,-1.00039 -0.42831,-0.69301 -2.36357,-0.0165 -2.36357,0.82623 0,0.70486 1.61643,0.82881 2.27108,0.17416 z"
         style="fill:#0000ca" />
      <path
         inkscape:connector-curvature="0"
         id="path3107"
         d="m 196.2795,485.41218 c 0.61292,-4.08722 -0.64012,-7.56208 -3.5186,-9.7576 -2.6504,-2.02157 -3.05988,-3.68899 -0.90592,-3.68899 3.73254,0 8.13184,7.79609 7.10668,12.59391 -0.98904,4.62882 -3.36153,5.38306 -2.68216,0.85268 z"
         style="fill:#000000" />
      <path
         inkscape:connector-curvature="0"
         id="path3105"
         d="m 336.21228,483.47325 c 0.15713,-0.47137 4.05058,-3.02159 8.65213,-5.66715 6.73626,-3.87288 10.18443,-6.48319 17.69678,-13.39671 9.37095,-8.62397 10.75623,-9.61548 11.57752,-8.28661 0.74219,1.20089 -0.29876,2.3077 -9.93358,10.56209 -6.969,5.97053 -11.43816,9.1502 -17.98415,12.79515 -8.74028,4.86679 -10.53911,5.58448 -10.0087,3.99323 z"
         style="fill:#000000" />
      <path
         inkscape:connector-curvature="0"
         id="path3103"
         d="m 196.59478,448.62437 c -0.9159,-0.57917 -0.9159,-0.76227 0,-1.64787 0.71891,-0.69512 7.46772,-1.75834 22.32515,-3.51714 23.17601,-2.74352 24.37825,-2.74993 55.29768,-0.2947 10.23999,0.81313 11.88461,1.12032 11.2754,2.10606 -0.4827,0.78103 -1.36148,0.7432 -28.10513,-1.21003 l -14.42548,-1.05358 -17.86012,2.47445 c -9.82306,1.36095 -19.92859,2.77616 -22.45673,3.14494 -5.45547,0.79575 -4.78862,0.79599 -6.05077,-0.002 z"
         style="fill:#000000" />
      <path
         inkscape:connector-curvature="0"
         id="path3101"
         d="m 313.04963,525.16827 c 9.47094,-2.46689 18.95985,-12.16522 21.30548,-21.77574 0.36647,-1.50145 0.22117,-1.88905 -0.7081,-1.88905 -0.64305,0 -1.33084,0.61823 -1.52844,1.37385 -0.22632,0.86544 -0.93699,1.37386 -1.92038,1.37386 -0.8586,0 -2.29085,0.5981 -3.18279,1.32911 -1.37205,1.12453 -1.49574,1.53608 -0.80346,2.67366 1.11276,1.8285 0.53079,2.19415 -2.7964,1.75699 -1.99393,-0.26198 -3.23631,-0.0514 -4.20417,0.71274 -1.36732,1.07946 -1.3665,1.09086 0.17173,2.39639 0.85007,0.72148 1.54559,1.52442 1.54559,1.78431 0,0.25989 -1.82018,0.26128 -4.04485,0.003 -4.55093,-0.52819 -5.78492,0.26261 -3.81184,2.44284 1.69498,1.87293 0.98487,2.19106 -2.69427,1.20704 -3.80559,-1.01784 -5.22723,-0.24119 -3.7852,2.06787 1.2905,2.06639 0.25913,2.57698 -2.3582,1.16748 -2.13332,-1.14886 -2.41549,-1.15471 -4.46914,-0.0927 -2.77704,1.43602 -2.76712,2.18642 0.0405,3.06102 5.50223,1.71395 7.93947,1.7889 13.24398,0.40728 z"
         style="fill:#ffffff" />
      <path
         inkscape:connector-curvature="0"
         id="path3099"
         d="m 164.87475,500.43879 c -0.12908,-0.61875 -2.1972,-1.75336 -4.93763,-2.70888 -9.96462,-3.4744 -14.70078,-9.10547 -12.03026,-14.30344 0.42397,-0.82523 1.56062,-2.34728 2.52589,-3.38232 2.26176,-2.42521 1.43811,-3.22584 -1.62278,-1.57744 -6.47832,3.4888 -6.92113,11.41234 -0.92,16.46196 5.56732,4.68459 17.62883,8.59752 16.98478,5.51012 z"
         style="fill:#ffffff" />
      <path
         inkscape:connector-curvature="0"
         id="path3097"
         d="m 161.87262,489.71544 c 0.9623,-0.43845 1.74964,-1.15668 1.74964,-1.59606 0,-1.11974 -9.41016,-7.43264 -10.27892,-6.89572 -0.92934,0.57437 -0.91642,4.87562 0.0199,6.62517 1.30947,2.44677 5.31003,3.32434 8.50937,1.86661 z"
         style="fill:#ffffff" />
      <path
         inkscape:connector-curvature="0"
         id="path3095"
         d="m 379.69684,480.88332 c 12.36571,-4.25443 26.6393,-18.53387 34.66331,-34.67752 1.87786,-3.7781 3.70359,-8.41676 4.05718,-10.30812 0.83387,-4.46032 0.0962,-12.50504 -2.97814,-32.47868 -1.35421,-8.79814 -2.4622,-17.17008 -2.4622,-18.60429 0,-1.43422 -0.19375,-2.80142 -0.43055,-3.03822 -0.87888,-0.87888 -4.0985,1.52835 -5.58746,4.1776 -2.23538,3.97732 -2.05165,5.50421 0.69432,5.77005 l 2.23252,0.21612 -3.86026,2.53891 c -5.80202,3.81603 -6.17118,7.25698 -0.50259,4.68473 6.46149,-2.93205 6.27013,-1.35669 -0.401,3.30109 -4.65838,3.25248 -6.6856,5.73017 -5.58712,6.82865 0.23203,0.23202 2.52328,-0.25495 5.09168,-1.08216 8.542,-2.75113 8.30784,-1.65001 -0.65392,3.07514 -6.00214,3.16467 -8.25062,5.23079 -7.02561,6.45581 0.32096,0.32095 3.51804,-0.16972 7.10465,-1.09038 12.28576,-3.15367 11.85188,-1.51398 -0.8113,3.06598 -6.84578,2.47595 -8.81041,3.64646 -8.81041,5.2492 0,0.61754 3.57228,0.22784 9.96045,-1.08657 11.34428,-2.33418 10.31615,-1.21864 -2.28111,2.47506 -7.96812,2.33636 -9.74012,3.4271 -9.74012,5.99546 0,1.22258 0.34254,1.30064 3.94984,0.90012 2.1724,-0.2412 6.88644,-0.60138 10.47564,-0.80039 8.37855,-0.46456 6.61652,0.43636 -6.08636,3.11196 -5.04764,1.06318 -9.42673,2.19263 -9.73131,2.50989 -0.30458,0.31726 -0.65689,1.19507 -0.78292,1.95069 -0.20833,1.24913 0.11388,1.36053 3.54897,1.22705 2.07795,-0.0807 6.4056,-0.42585 9.61698,-0.76691 3.21139,-0.34106 6.11005,-0.37478 6.44146,-0.0749 0.69882,0.63224 -1.62219,1.30432 -12.94876,3.74947 -7.76055,1.67532 -9.56228,2.49297 -9.05325,4.10846 0.12127,0.38486 3.43904,0.77266 7.54504,0.88189 4.03072,0.10724 7.32859,0.47172 7.32859,0.80996 0,0.63573 -4.65592,1.71129 -10.64738,2.45966 -4.80081,0.59964 -5.83889,0.95747 -5.83889,2.01267 0,0.58522 1.18651,1.05938 3.26291,1.30394 1.7946,0.21137 4.91462,0.58247 6.93339,0.82467 2.01876,0.24219 3.40979,0.6991 3.09117,1.01534 -0.31862,0.31624 -3.96874,0.91878 -8.11139,1.33897 -4.14264,0.42019 -7.93314,1.09684 -8.42333,1.50366 -1.27234,1.05595 0.17798,2.60977 2.4727,2.64916 0.99272,0.017 2.7323,0.43904 3.86573,0.93777 l 2.06078,0.90679 -3.09117,0.43776 c -1.70015,0.24078 -4.48221,0.51429 -6.18235,0.60783 -2.54864,0.1402 -3.12728,0.42277 -3.29684,1.60995 -0.16483,1.1541 0.48281,1.72601 3.26291,2.88137 5.81874,2.41816 4.27597,3.6394 -2.70601,2.14203 -2.65846,-0.57013 -3.73476,-0.55001 -4.49884,0.0841 -1.52849,1.26854 -1.22932,1.95413 1.39989,3.20791 1.32234,0.63058 2.40425,1.39837 2.40425,1.70621 0,0.30784 -2.12213,0.5597 -4.71586,0.5597 -3.73075,0 -5.09394,0.2974 -6.52581,1.42371 -0.99547,0.78304 -1.80996,1.68773 -1.80996,2.01042 0,1.73437 8.22979,1.32704 14.11786,-0.69875 z"
         style="fill:#ffffff" />
      <path
         inkscape:connector-curvature="0"
         id="path3093"
         d="m 158.78363,448.30289 c 0.65408,-0.78811 0.46535,-2.03614 -0.91086,-6.02339 -5.6623,-16.40514 -0.36729,-29.77661 14.59302,-36.85172 6.19967,-2.93198 10.5119,-3.41123 37.86755,-4.20857 27.00603,-0.78715 34.34638,-1.24635 34.34638,-2.14866 0,-0.33342 -2.44427,-0.60622 -5.43171,-0.60622 -2.98744,0 -14.85544,-0.47306 -26.37332,-1.05125 -28.93583,-1.45256 -37.32389,-0.50421 -47.31174,5.34906 -14.19086,8.3164 -18.09474,24.98825 -10.17666,43.46037 1.40013,3.26638 2.07173,3.67764 3.39734,2.08038 z"
         style="fill:#ffffff" />
      <path
         inkscape:connector-curvature="0"
         id="path3091"
         d="m 215.9476,428.34568 c 8.32021,-5.03399 11.55893,-6.60273 11.55893,-5.59881 0,0.13203 -2.9838,2.20285 -6.63067,4.60181 -7.10725,4.67525 -7.70138,6.13339 -1.15377,2.83169 4.80252,-2.42172 9.15829,-4.27347 9.15829,-3.89341 0,0.15147 -1.41885,1.25161 -3.15301,2.44474 -1.73415,1.19313 -2.89334,2.41253 -2.57598,2.70977 0.81614,0.76438 15.38426,-1.30803 17.16732,-2.44217 2.20632,-1.40336 3.93274,-6.40968 3.02956,-8.7852 -2.91663,-7.67132 -21.7275,-2.79336 -34.37199,8.9132 -4.01514,3.71731 -4.91832,5.05727 -3.40879,5.05727 0.40126,0 5.07231,-2.6275 10.38011,-5.83889 z"
         style="fill:#ffffff" />
      <path
         inkscape:connector-curvature="0"
         id="path3089"
         d="m 300.69738,425.55838 c 1.05986,-3.18961 2.18153,-5.79929 2.49257,-5.79929 0.76894,0 0.68394,3.80565 -0.1675,7.49958 -0.3847,1.669 -0.5434,3.44121 -0.35267,3.93825 0.77325,2.01508 2.4198,-0.17446 4.49604,-5.97873 3.35349,-9.37492 4.8253,-8.62621 2.12612,1.08158 -2.30383,8.28593 0.37067,7.69955 4.76747,-1.04526 2.37469,-4.72302 4.80849,-7.98288 4.80849,-6.44053 0,0.32833 -0.80174,3.0044 -1.78167,5.94682 -1.80774,5.42815 -1.8228,8.24226 -0.0362,6.7595 0.50248,-0.41702 2.71866,-3.38845 4.92483,-6.60318 2.20619,-3.21473 4.26435,-5.84496 4.57371,-5.84496 0.80061,0 0.80819,-0.0238 -1.8418,5.79119 -1.32233,2.90167 -2.40424,5.56776 -2.40424,5.92464 0,1.85016 2.41872,0.10111 6.22718,-4.50309 2.34385,-2.83357 4.53353,-5.15196 4.86596,-5.15196 0.33242,0 -0.3274,1.8459 -1.46626,4.10198 -1.13887,2.25609 -2.07068,4.41991 -2.07068,4.80849 0,1.69218 2.37209,0.38175 7.35804,-4.06487 5.69346,-5.07759 7.16547,-5.31157 3.69073,-0.58666 -4.04342,5.49819 -1.85945,5.44411 5.54774,-0.13737 7.05987,-5.31977 8.02178,-5.43302 4.44764,-0.52364 -0.75301,1.03433 -1.14931,2.10041 -0.88065,2.36906 0.68498,0.68498 8.91394,-3.47369 13.83942,-6.99404 4.52688,-3.23546 7.66365,-6.30722 7.05857,-6.9123 -0.21371,-0.21371 -3.58946,0.63131 -7.50167,1.87783 -6.46602,2.06021 -7.89424,2.26716 -15.6997,2.2749 -7.85036,0.008 -9.20504,-0.18821 -15.79933,-2.28593 -15.71049,-4.99768 -29.96009,-3.10386 -43.27645,5.75157 -5.44469,3.62074 -10.1569,8.30844 -9.2402,9.19213 0.59051,0.56925 3.55046,1.00512 5.55925,0.81863 0.43124,-0.0401 1.27881,-1.30926 1.88348,-2.8205 1.63174,-4.0781 2.51875,-3.62197 3.3242,1.70943 0.11351,0.75128 0.72461,1.46577 1.35801,1.58775 0.92766,0.17865 1.3838,-0.85854 2.34528,-5.33283 1.48518,-6.91141 2.76568,-7.00731 2.42957,-0.18195 -0.13205,2.68142 -0.0449,5.19118 0.19373,5.57724 0.9865,1.59619 2.38336,-0.33352 4.20097,-5.80348 z"
         style="fill:#ffffff" />
      <path
         inkscape:connector-curvature="0"
         id="path3087"
         d="m 386.29342,395.21366 c 10.46886,-15.66166 14.37533,-19.15764 24.43952,-21.87141 8.34852,-2.25115 26.32433,-1.19921 48.5248,2.83969 5.24158,0.95358 9.69672,1.56722 9.90031,1.36362 0.71565,-0.71565 -1.14,-3.55029 -8.11562,-12.39722 -8.94278,-11.34182 -9.25333,-12.04652 -7.89311,-17.91164 2.36816,-10.21131 1.35808,-11.37776 -8.2951,-9.57931 -11.24949,2.09585 -21.74606,6.40348 -30.18048,12.38558 -9.27015,6.57487 -19.87542,19.5241 -27.27963,33.30895 -3.45092,6.42478 -9.06989,19.12777 -9.84454,22.25588 -0.85819,3.46543 0.78629,1.51057 8.74385,-10.39414 z"
         style="fill:#ffffff" />
      <path
         inkscape:connector-curvature="0"
         id="path2993"
         d="m 491.1993,377.30515 c 4.83406,-2.49392 6.89062,-8.00447 4.6138,-12.36265 -1.49109,-2.85418 -4.3076,-5.21608 -11.05217,-9.26826 -3.40029,-2.04291 -6.54854,-4.45639 -6.99611,-5.36327 -0.44756,-0.90689 -1.27513,-3.86183 -1.83904,-6.56653 -1.81626,-8.7114 -4.14613,-11.22516 -10.40399,-11.22516 -4.34228,0 -9.26836,1.32119 -9.26836,2.48579 0,1.0743 0.0777,1.08947 6.18235,1.20662 2.45577,0.0471 4.61959,0.39481 4.80849,0.77262 0.18891,0.37781 -1.43396,1.13681 -3.60637,1.68666 -6.04379,1.52974 -5.19483,2.77837 1.88905,2.77837 3.21139,0 5.83889,0.2872 5.83889,0.63822 0,0.35103 -1.77743,0.99289 -3.94983,1.42637 -7.0685,1.41042 -9.1018,2.09374 -9.1018,3.05879 0,0.76793 1.24435,0.87462 6.52582,0.55952 8.11138,-0.48393 8.6963,0.58242 1.20212,2.19156 -11.41915,2.45189 -11.53983,3.34324 -0.5152,3.80542 8.77715,0.36795 8.73854,0.76741 -0.21796,2.2545 -2.76455,0.45901 -5.08293,1.14368 -5.15195,1.52149 -0.0761,0.41664 3.52332,0.82207 9.14802,1.03039 9.82034,0.36372 9.95173,0.98565 0.39918,1.88953 -2.99184,0.2831 -5.55259,0.85543 -5.69056,1.27186 -0.26482,0.79929 5.74044,1.57809 13.19104,1.71069 2.26687,0.0403 4.89436,0.29378 5.83889,0.5632 1.4561,0.41532 1.20642,0.56163 -1.64146,0.96191 -1.84734,0.25965 -5.30666,0.47209 -7.6874,0.47209 -3.75769,0 -5.9223,0.77715 -4.9296,1.76985 0.16752,0.16752 4.52612,0.65934 9.68577,1.09292 5.15965,0.43358 9.38118,1.02269 9.38118,1.30913 0,0.28644 -3.41253,0.74197 -7.5834,1.01229 -9.74286,0.63147 -9.59636,1.73238 0.38652,2.90459 4.10335,0.48183 7.60736,1.02278 7.78671,1.20213 0.764,0.764 -0.80028,1.11585 -6.64411,1.49446 -6.89746,0.44686 -8.10133,0.87552 -7.42306,2.64307 0.41276,1.07562 1.19268,1.15785 7.39713,0.77986 4.74945,-0.28936 7.72115,-0.82776 9.42741,-1.70803 z"
         style="fill:#ffffff" />
      <path
         inkscape:connector-curvature="0"
         id="path3069"
         d="m 186.50117,483.89101 c 0.2416,-0.2416 0.28322,-0.69178 0.0925,-1.00039 -0.42831,-0.69301 -2.36357,-0.0165 -2.36357,0.82623 0,0.70486 1.61643,0.82881 2.27108,0.17416 z"
         style="fill:#ffffff" />
    </g>
  </g>
  <g
     inkscape:groupmode="layer"
     id="layer1"
     inkscape:label="Cover"
     style="display:inline"
     sodipodi:insensitive="true">
    <path
       d="m 2,2 v 257 c 0,286 298,398 298,398 0,0 298,-112 298,-398 V 2 z"
       id="shine"
       inkscape:connector-curvature="0"
       style="fill:url(#radialGradient3074);stroke:#000000;stroke-width:3" />
  </g>
</svg>
