<?xml version="1.0" encoding="UTF-8" standalone="no"?>
<svg
   xmlns:dc="http://purl.org/dc/elements/1.1/"
   xmlns:cc="http://creativecommons.org/ns#"
   xmlns:rdf="http://www.w3.org/1999/02/22-rdf-syntax-ns#"
   xmlns:svg="http://www.w3.org/2000/svg"
   xmlns="http://www.w3.org/2000/svg"
   xmlns:xlink="http://www.w3.org/1999/xlink"
   xmlns:sodipodi="http://sodipodi.sourceforge.net/DTD/sodipodi-0.dtd"
   xmlns:inkscape="http://www.inkscape.org/namespaces/inkscape"
   width="600"
   height="660"
   id="svg2"
   version="1.1"
   inkscape:version="0.48.2 r9819"
   sodipodi:docname="House_Shermer.svg">
  <metadata
     id="metadata24">
    <rdf:RDF>
      <cc:Work
         rdf:about="">
        <dc:format>image/svg+xml</dc:format>
        <dc:type
           rdf:resource="http://purl.org/dc/dcmitype/StillImage" />
        <dc:title />
      </cc:Work>
    </rdf:RDF>
  </metadata>
  <sodipodi:namedview
     pagecolor="#ffffff"
     bordercolor="#666666"
     borderopacity="1"
     objecttolerance="10"
     gridtolerance="10"
     guidetolerance="10"
     inkscape:pageopacity="0"
     inkscape:pageshadow="2"
     inkscape:window-width="1366"
     inkscape:window-height="715"
     id="namedview22"
     showgrid="false"
     inkscape:zoom="0.71515153"
     inkscape:cx="139.02389"
     inkscape:cy="305.6529"
     inkscape:window-x="-8"
     inkscape:window-y="-8"
     inkscape:window-maximized="1"
     inkscape:current-layer="layer2" />
  <defs
     id="defs4">
    <radialGradient
       id="rg"
       gradientUnits="userSpaceOnUse"
       cx="220"
       cy="220"
       r="405">
      <stop
         style="stop-color:#fff;stop-opacity:.3"
         offset="0"
         id="stop7" />
      <stop
         style="stop-color:#fff;stop-opacity:.2"
         offset=".2"
         id="stop9" />
      <stop
         style="stop-color:#666;stop-opacity:.1"
         offset=".6"
         id="stop11" />
      <stop
         style="stop-color:#000;stop-opacity:.13"
         offset="1"
         id="stop13" />
    </radialGradient>
    <path
       id="shield"
       d="m2,2v257c0,286 298,398 298,398c0,0 298-112 298-398V2z" />
    <radialGradient
       inkscape:collect="always"
       xlink:href="#rg-7"
       id="radialGradient3055-1"
       gradientUnits="userSpaceOnUse"
       cx="220"
       cy="220"
       r="405" />
    <radialGradient
       id="rg-7"
       gradientUnits="userSpaceOnUse"
       cx="220"
       cy="220"
       r="405">
      <stop
         style="stop-color:#fff;stop-opacity:.3"
         offset="0"
         id="stop7-4" />
      <stop
         style="stop-color:#fff;stop-opacity:.2"
         offset=".2"
         id="stop9-0" />
      <stop
         style="stop-color:#666;stop-opacity:.1"
         offset=".6"
         id="stop11-9" />
      <stop
         style="stop-color:#000;stop-opacity:.13"
         offset="1"
         id="stop13-4" />
    </radialGradient>
    <radialGradient
       r="405"
       cy="220"
       cx="220"
       gradientUnits="userSpaceOnUse"
       id="radialGradient3074"
       xlink:href="#rg-7"
       inkscape:collect="always" />
  </defs>
  <g
     inkscape:groupmode="layer"
     id="layer2"
     inkscape:label="Elements"
     style="display:inline">
    <use
       height="1052.3622"
       width="744.09448"
       y="0"
       x="0"
       id="background"
       xlink:href="#shield"
       style="fill:#0000cc;display:inline"
       transform="matrix(-1,0,0,1,600,0)" />
    <path
       inkscape:connector-curvature="0"
       style="fill:#b7410e;display:inline"
       d="m 2,2 0,257 c 0,286 298,398 298,398 0,0 298,-112 298,-398 L 598,2 2,2 z m 311.53125,66.96875 c 0.30036,-0.01722 0.54929,0.01804 0.6875,0.15625 0.25668,0.25668 -0.36554,2.395012 -1.375,4.75 -2.843,6.632438 -2.47453,9.372694 2,14.25 9.38418,10.228917 11.21553,12.3521 14.03125,16.59375 1.64332,2.47554 3.02285,5.14173 3.0625,5.90625 0.0396,0.76451 0.36177,4.85677 0.71875,9.09375 0.54154,6.4274 0.36228,8.43792 -1.0625,12.21875 -0.93923,2.49235 -2.11329,5.01272 -2.59375,5.59375 -1.2539,1.51635 -0.57581,11.41705 0.8125,11.875 0.71482,0.23581 1.125,-0.51971 1.125,-2.03125 0,-1.5942 1.44541,-3.96338 4.3125,-7.09375 6.14458,-6.70881 8.06248,-9.72447 9.75,-15.25 0.8178,-2.67772 1.88537,-5.79249 2.34375,-6.9375 1.54028,-3.84754 0.97675,-15.77596 -0.875,-18.8125 -0.92235,-1.512488 -2.96614,-6.488708 -4.5625,-11.0625 -3.28285,-9.405873 -3.2162,-9.782308 2.59375,-15.03125 3.43631,-3.104504 6.62002,-4.231787 7.59375,-2.65625 0.23186,0.375157 -0.15034,2.319929 -0.84375,4.3125 -2.21659,6.369571 -1.68596,9.0064 2.59375,13.46875 15.92027,16.5997 17.2939,19.34734 17.375,34.125 0.0396,7.21973 -0.27972,9.28801 -2.03125,12.84375 -2.47317,5.02072 -2.59667,13.875 -0.1875,13.875 0.83692,0 1.49792,-1.04921 1.6875,-2.71875 0.18344,-1.61525 1.81682,-4.37891 4.0625,-6.84375 4.08049,-4.47869 6.36513,-8.07316 9.09375,-14.4375 2.42143,-5.6478 3.22877,-23.21518 1.21875,-26.375 -1.95131,-3.06751 -5.86145,-13.348283 -6.5625,-17.25 -0.53155,-2.958329 -0.24522,-3.627354 2.96875,-6.90625 6.16781,-6.29241 10.12937,-6.188533 7.875,0.21875 -2.45758,6.98487 -1.59253,8.927515 8.71875,19.75 8.18999,8.59603 9.69378,10.71917 10.90625,15.25 2.66976,9.97658 1.83667,21.8559 -1.9375,27.15625 -1.4799,2.07833 -1.67837,3.25021 -1.09375,7.3125 0.48423,3.36475 1.12588,4.84375 2.0625,4.84375 0.92149,0 1.35492,-0.95768 1.375,-3.0625 0.0236,-2.47337 0.77091,-3.72848 3.84375,-6.375 2.10235,-1.81068 3.8125,-3.77249 3.8125,-4.34375 0,-0.57125 1.00495,-2.21372 2.21875,-3.65625 1.21381,-1.44253 2.45716,-3.81934 2.78125,-5.28125 0.32409,-1.46192 1.16978,-4.18315 1.875,-6.0625 1.96677,-5.24124 1.71207,-17.32582 -0.46875,-21.375 -2.23853,-4.156321 -5.96741,-13.36185 -6.78125,-16.78125 -0.47705,-2.004461 -0.0459,-3.412131 1.8125,-6.09375 2.42499,-3.499272 7.52902,-7.15625 9.96875,-7.15625 1.65913,0 1.63247,0.937693 -0.0625,4.1875 -0.74463,1.427768 -1.34068,4.490092 -1.34375,6.8125 -0.005,3.879439 0.39969,4.707254 5.1875,9.9375 2.86619,3.131063 6.4806,6.912406 8.03125,8.4375 5.33535,5.24744 7.38169,9.50807 8.53125,17.90625 1.27345,9.30315 0.61452,14.43842 -2.375,19.0625 -2.25533,3.48844 -2.56766,5.6929 -1.59375,10.5625 0.69272,3.46353 3.03125,3.82814 3.03125,0.46875 0,-1.53838 1.23655,-3.58029 3.46875,-5.8125 4.9168,-4.91679 9.08508,-12.05544 10.8125,-18.46875 2.08102,-7.72601 1.69607,-20.35421 -0.75,-24.5 -0.99015,-1.678164 -2.18502,-4.206585 -2.625,-5.625 -0.43999,-1.418414 -1.60914,-4.784601 -2.625,-7.46875 -1.29264,-3.415471 -1.5985,-5.350457 -1,-6.46875 1.41767,-2.648964 9.19573,-9.03125 11,-9.03125 2.03761,0 2.05453,0.500092 0.3125,5.4375 -2.44352,6.925658 -1.68795,9.087036 5.90625,17.1875 1.74464,1.860947 3.86382,4.145617 4.71875,5.09375 0.85494,0.948135 2.31906,2.470373 3.28125,3.375 1.94317,1.82691 4.87925,7.5139 6.40625,12.46875 2.36267,7.66637 0.61226,22.14508 -3.1875,26.34375 -1.88185,2.07942 -0.91386,7.125 1.375,7.125 0.87747,0 4.66046,-2.98702 8.40625,-6.625 6.14935,-5.97238 7.00504,-7.2175 8.71875,-12.90625 1.41375,-4.69296 1.81621,-8.03064 1.5625,-13.09375 -0.25874,-5.16348 0.0932,-8.03589 1.46875,-11.875 1.65801,-4.627542 2.22607,-5.250009 6.75,-7.46875 4.99738,-2.450946 7.20759,-2.874598 9.8125,-1.875 1.98659,0.762325 1.77449,2.858948 -0.34375,3.53125 -1.99093,0.631898 -7.29761,8.16951 -7.28125,10.34375 0.0183,2.43476 2.36155,10.128 5.78125,18.96875 1.80005,4.6536 3.28125,9.84967 3.28125,11.5625 0,5.07739 -4.60786,13.95845 -9.15625,17.6875 -2.20333,1.80643 -5.82475,4.97924 -8.0625,7.03125 -4.98098,4.56752 -12.99458,7.375 -21.03125,7.375 -5.62955,0 -12.56745,-1.93652 -15.3125,-4.25 -2.1068,-1.77557 -12.625,-1.64496 -12.625,0.15625 0,0.80461 0.8556,1.37299 2.0625,1.375 2.50443,0.004 7.80032,3.12648 8.53125,5.03125 0.89533,2.33319 9.98626,7.56638 17.25,9.9375 9.4276,3.07747 18.14255,3.06574 24.5625,-0.0312 2.58318,-1.24617 5.07073,-2.25 5.53125,-2.25 0.46052,0 1.99506,-0.55761 3.40625,-1.25 5.54558,-2.72088 8.72009,-3.33117 10.6875,-2.03125 4.49227,2.96816 10.73153,11.45599 9.40625,12.78125 -0.28145,0.28145 -2.42627,-0.30303 -4.78125,-1.3125 -6.62589,-2.84018 -9.34203,-2.47307 -14.15625,2 -12.22835,11.36178 -15.79745,14.47094 -17.96875,15.59375 -1.31505,0.68004 -6.27283,1.69315 -11,2.25 -7.82753,0.92208 -9.03021,0.85509 -13.46875,-0.78125 -2.68051,-0.98821 -5.58985,-2.45459 -6.46875,-3.25 -2.29447,-2.07646 -11.16803,-1.55191 -11.59375,0.6875 -0.22493,1.18318 0.2937,1.59375 2.0625,1.59375 1.55998,0 3.88134,1.37921 6.75,4.0625 2.39806,2.24311 4.66278,4.09375 5.0625,4.09375 0.39973,0 2.06706,1.01401 3.6875,2.25 4.52799,3.45365 15.88213,6.8125 23.03125,6.8125 4.91739,0 7.31372,-0.54614 12.34375,-2.84375 3.43362,-1.56841 8.67609,-3.61849 11.65625,-4.53125 l 5.4375,-1.65625 3.40625,2.375 c 3.40124,2.35705 7.0625,7.18021 7.0625,9.34375 0,0.77487 -0.79332,0.97104 -2.5,0.5625 -10.86238,-2.60021 -12.2218,-2.08763 -22.96875,8.6875 -8.62823,8.65086 -12.08083,10.4347 -22.3125,11.59375 -7.24825,0.8211 -8.53013,0.72346 -13,-0.96875 -2.72393,-1.03123 -5.61967,-2.48464 -6.4375,-3.21875 -2.19743,-1.97247 -11.05898,-1.34294 -11.46875,0.8125 -0.21333,1.1222 0.27335,1.59375 1.6875,1.59375 2.63478,0 7.55879,3.08669 9.40625,5.90625 0.81077,1.23739 2.02077,2.25 2.71875,2.25 0.69796,0 2.43472,0.95629 3.84375,2.125 2.35468,1.95305 5.17366,3.13163 13.96875,5.90625 1.78003,0.56154 5.85784,1.03105 9.0625,1.03125 4.69094,2.8e-4 6.97599,-0.57124 11.71875,-2.875 6.71594,-3.26223 10.01089,-4.63052 14.375,-6.03125 2.84459,-0.91302 3.3596,-0.74733 7.09375,2.3125 7.70675,6.31511 8.11481,11.36088 0.71875,8.78125 -6.27246,-2.18773 -7.64096,-1.72787 -14.46875,4.625 -3.47912,3.23713 -6.61833,5.875 -6.96875,5.875 -0.35042,0 -0.86649,0.74332 -1.15625,1.65625 -0.70487,2.22086 -6.56238,5.95473 -12.34375,7.875 -7.07831,2.35102 -18.00163,1.56298 -24.03125,-1.71875 -3.71287,-2.0208 -5.51416,-2.41427 -9.5,-2.1875 -3.82733,0.21776 -4.98404,0.6091 -5.21875,1.84375 -0.23491,1.23571 0.33087,1.59375 2.53125,1.59375 2.09705,0 3.94998,1.06543 7.1875,4.09375 2.39806,2.24311 4.66279,4.0625 5.0625,4.0625 0.39973,0 1.98879,0.94053 3.53125,2.09375 4.87706,3.6463 13.84389,6.0625 22.5,6.0625 7.19203,0 8.35003,-0.27262 15.4375,-3.625 4.21536,-1.99388 8.36777,-3.625 9.21875,-3.625 0.85098,0 2.33664,-0.41524 3.3125,-0.9375 1.46478,-0.78392 2.5093,-0.3773 5.90625,2.40625 2.26309,1.85443 4.70403,4.55039 5.4375,5.96875 1.19484,2.31058 1.18241,2.6233 -0.125,3.125 -0.80255,0.30797 -3.01658,0.0974 -4.90625,-0.46875 -6.42604,-1.92529 -7.37677,-1.50665 -16.4375,6.9375 -4.69572,4.37615 -9.75949,8.3985 -11.25,8.9375 -7.4768,2.70375 -10.42426,3.3125 -16,3.3125 -5.0879,0 -7.16583,-0.52389 -12.90625,-3.25 -8.06513,-3.83011 -12.62538,-7.24977 -15.1875,-11.34375 -1.89526,-3.02839 -7.42813,-6.03778 -9.5625,-5.21875 -1.87815,0.72072 -1.36104,2.82771 0.9375,3.875 1.25118,0.57007 2.72826,2.63261 3.65625,5.0625 3.00499,7.86847 6.98829,14.04433 11.25,17.5 2.35888,1.91274 5.31633,4.4456 6.5625,5.625 3.82552,3.62052 10.92337,5.41155 21.90625,5.5 10.32105,0.0831 14.76553,1.30771 15.90625,4.4375 0.30843,0.84626 1.30666,2.52997 2.21875,3.71875 2.07902,2.7097 2.33027,10.0625 0.34375,10.0625 -0.72293,0 -1.66387,-0.57556 -2.0625,-1.28125 -0.39862,-0.70571 -2.35655,-2.57957 -4.34375,-4.15625 -3.8759,-3.07516 -3.68668,-3.05009 -13.59375,-0.5625 -8.92455,2.24089 -11.57335,3.02028 -16,4.71875 -4.11347,1.5783 -4.3544,1.57547 -9.96875,-0.28125 -14.18999,-4.69273 -15.55207,-5.43785 -21.15625,-11.40625 -5.29078,-5.63464 -10.23706,-8.64294 -12.1875,-7.4375 -1.6142,0.99762 -1.05734,3.33026 0.90625,3.84375 1.86213,0.48696 5.375,6.23386 5.375,8.78125 0,4.31817 12.61813,17.88558 19.5,20.96875 1.98813,0.89071 6.69898,1.94718 10.4375,2.34375 3.73852,0.39657 10.05889,1.08292 14.0625,1.5 4.00361,0.41709 7.73745,1.05084 8.3125,1.40625 1.7289,1.06852 5.81848,10.80072 5.53125,13.1875 -0.41117,3.41668 -1.96593,3.21989 -6.625,-0.8125 -4.26409,-3.69055 -4.28945,-3.67661 -9.84375,-3.0625 -3.06333,0.3387 -6.36052,1.16665 -7.34375,1.84375 -0.98323,0.67709 -2.80414,1.21875 -4.03125,1.21875 -1.22712,0 -3.99139,0.85825 -6.15625,1.90625 -4.05908,1.96497 -5.51023,1.99054 -15.21875,0.0625 -5.9215,-1.17599 -15.80265,-5.74677 -18.25,-8.4375 -1.06325,-1.16899 -2.59733,-3.43037 -3.40625,-5.03125 -1.55063,-3.06878 -7.1511,-5.59322 -10,-4.5 -2.01277,0.77238 -1.76221,2.48728 0.4375,3.0625 1.95908,0.51233 5.375,6.31092 5.375,9.09375 0,0.90602 0.83296,2.35329 1.84375,3.21875 1.01081,0.86548 2.07732,2.79282 2.375,4.28125 0.29768,1.48842 0.91287,2.6875 1.34375,2.6875 0.43088,0 2.95039,1.9841 5.625,4.40625 7.21454,6.53352 14.82076,9.78302 23.25,9.9375 8.41996,0.1543 17.60482,1.06111 18.75,1.84375 2.16073,1.47665 4.84375,8.58466 4.84375,12.84375 0,2.47699 -0.28274,4.5 -0.59375,4.5 -0.31101,0 -2.11625,-1.76194 -4.03125,-3.9375 -4.81342,-5.46832 -8.03057,-6.71849 -12.40625,-4.78125 -4.63295,2.05115 -15.83113,5.04167 -22.625,6.03125 -6.11596,0.89085 -8.32604,0.40408 -19.28125,-4.125 -5.94719,-2.45869 -11.78125,-7.01687 -11.78125,-9.21875 0,-1.80452 -5.47663,-4.80867 -8.8125,-4.8125 -1.62003,-0.002 -2.96875,0.2308 -2.96875,0.5 0,0.26921 1.63112,2.04077 3.625,3.9375 2.87215,2.73221 3.625,4.09893 3.625,6.59375 0,2.22935 0.67717,3.73028 2.28125,5.125 1.24617,1.08354 2.25,2.39473 2.25,2.9375 0,0.54279 2.57207,3.54358 5.6875,6.65625 8.27079,8.26346 12.45206,9.80452 27.375,9.96875 6.49347,0.0714 12.50829,0.51009 13.34375,1 4.33993,2.54493 8.41226,13.45413 6.25,16.71875 -0.70804,1.06904 -1.58958,0.51093 -4.625,-2.9375 -3.42713,-3.89348 -4.10873,-4.28125 -7.8125,-4.28125 -2.23352,0 -4.87768,0.43501 -5.875,0.96875 -0.99732,0.53375 -3.94744,1.39014 -6.53125,1.875 -2.58381,0.48485 -6.53813,1.28979 -8.78125,1.8125 -5.19367,1.21027 -8.18349,1.21538 -14.9375,-0.0312 -12.51878,-2.31064 -22.0991,-9.5866 -27.1875,-20.625 -2.86606,-6.21739 -5.01382,-8.46875 -8.09375,-8.46875 -1.87317,0 -1.80934,1.70304 0.15625,3.875 0.98508,1.08849 1.80625,4.03399 2.1875,7.78125 1.02376,10.06256 2.40416,15.71665 4.34375,17.78125 1.01548,1.08092 1.84375,2.40369 1.84375,2.9375 0,1.64657 11.76728,12.03125 13.625,12.03125 4.07036,0 21.76588,6.93326 23.0625,9.03125 1.2312,1.99211 0.61451,8.95151 -1.09375,12.28125 l -1.8125,3.5 -2.84375,-3.9375 c -1.56332,-2.15808 -2.84375,-4.43839 -2.84375,-5.09375 0,-2.35737 -3.58749,-3.22594 -11.59375,-2.75 -4.32772,0.25726 -8.50231,0.50126 -9.25,0.53125 -5.43396,0.21794 -13.75583,-1.74703 -18.78125,-4.4375 -7.00266,-3.74903 -15.12668,-12.06509 -16.4375,-16.8125 -1.1863,-4.29639 -5.20503,-8.625 -8,-8.625 -2.54078,0 -2.57667,0.30256 -0.375,3.4375 1.26338,1.7989 1.89229,4.75524 2.3125,11.0625 0.37445,5.62027 1.00747,8.95042 1.8125,9.5625 0.67831,0.51573 1.87206,2.46694 2.65625,4.34375 0.78418,1.8768 3.77498,5.75236 6.65625,8.59375 4.62118,4.55723 6.21093,5.46341 13.40625,7.78125 16.64027,5.36038 19.08911,7.09829 18.71875,13.375 -0.23098,3.91472 -2.31735,8.90625 -3.71875,8.90625 -0.45069,0 -1.76384,-1.86879 -2.90625,-4.15625 -2.93895,-5.88468 -5.61489,-7.03651 -14.5,-6.25 -5.02617,0.44491 -7.52561,0.3193 -8.4375,-0.4375 -1.00337,-0.83273 -2.00904,-0.80432 -4.40625,0.0625 -2.69594,0.97487 -3.92109,0.83974 -9.4375,-0.96875 -5.09971,-1.67188 -7.61869,-3.247 -12.84375,-7.96875 -6.02728,-5.44674 -10.0625,-11.0596 -10.0625,-14.0625 0,-1.81468 -2.98861,-4.28125 -5.21875,-4.28125 -3.00035,0 -3.3705,1.84521 -0.8125,3.96875 2.00278,1.66263 2.39411,2.84075 2.75,8.28125 0.22825,3.48928 0.67697,7.75537 1.03125,9.5 0.72203,3.55556 6.40576,11.63007 11.0625,15.71875 2.93429,2.57633 16.04921,7.875 19.5,7.875 0.90618,0 3.17988,0.96781 5.0625,2.15625 4.70386,2.96943 6.00852,7.21176 3.90625,12.75 -2.08872,5.50252 -2.54335,5.72351 -4.40625,2.3125 -0.88789,-1.62575 -2.54499,-4.12641 -3.6875,-5.53125 l -2.0625,-2.53125 -9.25,0.375 c -14.51563,0.62372 -17.0771,0.48805 -22.625,-1.40625 -5.92593,-2.0234 -16.28226,-9.88451 -17.0625,-12.9375 -0.87752,-3.4336 0.66157,-7.76685 4.0625,-11.53125 1.79529,-1.98719 3.25,-4.47173 3.25,-5.5 0,-2.89067 -1.6897,-5.375 -3.65625,-5.375 -1.33759,0 -1.77871,0.62789 -1.78125,2.5 -0.003,2.61536 -3.00847,8.375 -4.375,8.375 -1.48911,0 -3.77971,7.74526 -3.75,12.71875 0.0266,4.44372 1.18822,8.82932 4.375,16.59375 0.57594,1.40324 1.03125,5.60398 1.03125,9.34375 l 0,6.78125 -5.40625,5.40625 c -2.98478,2.9571 -5.60046,5.375 -5.78125,5.375 -0.18079,0 -2.37214,-2.1643 -4.875,-4.78125 -2.50285,-2.61697 -5.13864,-5.20885 -5.875,-5.78125 -1.72036,-1.33729 -1.36034,-14.69144 0.5,-18.28125 3.43527,-6.62892 4.21875,-9.59133 4.21875,-16.09375 0,-6.40569 -0.21274,-7.1549 -3.625,-12.40625 -2.03884,-3.1377 -3.625,-6.66596 -3.625,-8.09375 0,-4.20022 -4.76437,-3.23759 -5.875,1.1875 -0.47595,1.89631 0.087,3.13913 2.96875,6.46875 3.71205,4.28895 5.2823,9.01508 4.0625,12.3125 -0.95113,2.57114 -11.00434,10.95879 -13.84375,11.5625 -1.24617,0.26494 -3.69285,1.07665 -5.4375,1.78125 -5.66128,2.28643 -11.14321,2.96004 -21.03125,2.625 L 239.5,541.25 l -2.34375,2.78125 c -1.2859,1.52821 -2.94509,3.93935 -3.6875,5.375 -0.7424,1.43566 -1.72516,2.625 -2.1875,2.625 -0.46233,0 -1.7064,-1.95325 -2.75,-4.3125 -1.83973,-4.15901 -1.85136,-4.39992 -0.3125,-7.8125 1.67716,-3.71927 6.16391,-7.1064 10.75,-8.15625 13.80618,-3.16052 19.8815,-7.02908 27.09375,-17.21875 4.18621,-5.91438 4.98479,-8.43936 5.65625,-17.8125 0.35384,-4.93933 0.79431,-6.18691 2.75,-7.8125 2.59586,-2.15769 2.14827,-3.96875 -0.96875,-3.96875 -2.10661,0 -6.90625,4.28551 -6.90625,6.15625 0,4.26048 -14.55865,20.125 -18.46875,20.125 -0.83351,0 -2.61034,0.72418 -3.9375,1.59375 -1.62037,1.06171 -4.35596,1.62266 -8.34375,1.6875 -3.26615,0.0531 -6.34528,0.20674 -6.84375,0.34375 -0.49847,0.13699 -4.38801,0.19537 -8.625,0.125 -10.02006,-0.16642 -11.76517,0.81078 -15.34375,8.71875 -2.08435,4.60601 -5.5,0.29964 -5.5,-6.9375 0,-5.32067 2.53829,-7.37887 14.9375,-12.125 13.73986,-5.2593 14.31514,-5.59992 19.125,-11.0625 8.64554,-9.8188 9.24005,-11.09222 9.90625,-21.03125 0.43999,-6.56415 1.06633,-9.52887 2.34375,-11.34375 2.20599,-3.13411 2.1665,-3.4375 -0.375,-3.4375 -3.00886,0 -6.72511,4.34215 -8.3125,9.6875 -1.11397,3.75113 -2.49086,5.61051 -7.3125,9.9375 -3.25834,2.92406 -7.02463,5.74306 -8.375,6.28125 -1.35039,0.53818 -3.95926,1.66739 -5.8125,2.5 -1.85325,0.83259 -4.80304,1.5 -6.53125,1.5 -1.7282,0 -4.06476,0.35571 -5.21875,0.78125 -1.15401,0.42552 -4.57168,0.48378 -7.5625,0.125 -7.60311,-0.91209 -14.98146,-0.10763 -15.625,1.71875 -0.76758,2.1784 -5.882,10.0625 -6.53125,10.0625 -0.31129,0 -1.29006,-2.14102 -2.1875,-4.78125 -2.17366,-6.39482 -0.91358,-12.10056 2.875,-13 1.35292,-0.3212 3.06479,-1.09677 3.8125,-1.71875 1.59141,-1.32381 14.56725,-5.875 16.75,-5.875 2.28751,0 11.11554,-8.04644 13.875,-12.65625 3.29309,-5.5013 4.68666,-8.81231 4.71875,-11.1875 0.11121,-8.22746 1.50992,-15.13165 3.5,-17.25 2.08982,-2.22451 1.99578,-4.21875 -0.1875,-4.21875 -2.06086,0 -6.66962,5.09861 -7.84375,8.65625 -0.64292,1.94807 -1.82852,4.58236 -2.625,5.84375 -1.74938,2.77049 -11.26916,11.78125 -12.4375,11.78125 -0.45769,0 -2.34387,0.82438 -4.1875,1.8125 -1.84364,0.98814 -5.08202,2.04525 -7.21875,2.34375 -2.13673,0.29851 -4.9805,0.93509 -6.3125,1.4375 -3.01974,1.13901 -12.23703,-0.1976 -23.09375,-3.34375 -10.88417,-3.15411 -11.67841,-3.04529 -16.8125,2.28125 C 134.4102,462.9611 132.24764,465 132,465 c -0.24764,0 -0.4375,-2.26826 -0.4375,-5.0625 0,-4.04298 0.4534,-5.62664 2.1875,-7.6875 1.19849,-1.42432 2.33786,-3.04479 2.53125,-3.625 0.49108,-1.47322 7.77889,-2.53003 18,-2.59375 7.31885,-0.0456 9.37756,-0.39914 13.34375,-2.3125 2.58319,-1.24617 5.05306,-2.28125 5.46875,-2.28125 1.11995,0 12.84375,-12.03702 12.84375,-13.1875 0,-0.54279 1.00383,-1.95427 2.25,-3.125 1.24618,-1.17072 2.28125,-3.09721 2.28125,-4.28125 0,-3.03407 2.21851,-6.96846 4.9375,-8.75 2.94294,-1.9283 2.9576,-3.28125 0.0312,-3.28125 -2.92148,0 -9.29859,4.01604 -10.53125,6.625 -1.09073,2.30859 -9.13022,7.69388 -15.75,10.5625 -5.98634,2.59412 -18.50183,3.57289 -21.46875,1.6875 -1.14459,-0.72734 -4.54044,-1.8535 -7.53125,-2.5 -2.99082,-0.6465 -6.96441,-1.71379 -8.84375,-2.40625 -5.58546,-2.05797 -7.00502,-1.63186 -12.1875,3.71875 -2.65542,2.74158 -5.20405,4.96875 -5.65625,4.96875 -1.20163,0 -0.033,-10.0508 1.4375,-12.40625 0.68928,-1.10402 1.25,-2.60058 1.25,-3.3125 0,-1.84298 1.61881,-2.27478 11.09375,-2.875 15.9924,-1.01311 17.48022,-1.26137 23.34375,-3.9375 3.24005,-1.47877 7.31785,-4.17008 9.0625,-6 1.74464,-1.82991 4.22711,-3.87898 5.53125,-4.5625 1.46321,-0.76687 2.59864,-2.30574 2.9375,-4 0.302,-1.51008 1.36419,-3.44702 2.375,-4.3125 1.0108,-0.86546 1.84375,-2.26847 1.84375,-3.09375 0,-3.0972 2.80733,-8.1351 5,-8.96875 2.56587,-0.97554 2.83725,-2.02242 0.90625,-3.625 -2.25972,-1.87541 -7.9696,1.51481 -11.5,6.8125 -2.52235,3.785 -4.22524,5.09114 -10.28125,8.03125 -9.54132,4.63219 -19.94748,6.2058 -25.96875,3.90625 -2.19357,-0.83772 -4.9065,-1.53125 -6.03125,-1.53125 -1.12475,0 -3.69336,-0.82642 -5.6875,-1.84375 -1.99413,-1.01734 -5.55868,-1.92703 -7.9375,-2.03125 -3.9009,-0.17091 -4.7789,0.18465 -9,3.71875 -2.57408,2.15513 -5.114851,3.65904 -5.625,3.34375 -2.899653,-1.79209 1.762178,-13.96611 6.21875,-16.25 1.40661,-0.72085 7.39035,-1.46901 14.625,-1.84375 14.20409,-0.73573 17.37456,-1.87146 25.65625,-8.96875 5.24692,-4.49657 11.5,-12.96093 11.5,-15.59375 0,-2.55889 3.53923,-8.32427 5.40625,-8.8125 2.05885,-0.5384 2.4993,-3.16775 0.65625,-3.875 -2.95271,-1.13306 -11.67782,5.49013 -15.9375,12.09375 -0.84769,1.31415 -16.3301,7.18253 -20.84375,7.90625 -2.67508,0.42893 -5.51969,0.19425 -8.625,-0.75 -9.36973,-2.84912 -22.681646,-6.0625 -25.1875,-6.0625 -1.022265,0 -3.69439,1.85063 -5.9375,4.09375 -2.243111,2.24311 -4.442119,4.0625 -4.875,4.0625 -0.432882,0 -0.78125,-1.98558 -0.78125,-4.40625 0,-3.63265 0.543669,-5.10966 3.15625,-8.53125 1.740925,-2.28003 3.873964,-4.34998 4.75,-4.59375 0.876037,-0.24376 6.706639,-0.72513 12.9375,-1.0625 6.23086,-0.33737 11.72028,-0.94191 12.21875,-1.34375 0.49847,-0.40184 2.53737,-1.17541 4.53125,-1.71875 2.50618,-0.68293 5.75971,-3.01517 10.53125,-7.5625 6.93846,-6.61242 9.31925,-10.14266 12.21875,-18.1875 1.07144,-2.97274 2.36634,-4.77807 4.125,-5.6875 4.82097,-2.49302 2.70817,-4.65088 -2.90625,-2.96875 -2.68333,0.80395 -4.42372,2.14392 -6.28125,4.84375 -3.17588,4.61597 -7.50946,7.67293 -16.3125,11.46875 -5.794,2.49832 -7.79975,2.90126 -13.59375,2.8125 -9.350568,-0.14325 -16.719256,-2.60517 -21.78125,-7.28125 -2.229368,-2.05941 -6.052978,-5.57939 -8.5,-7.84375 -4.911903,-4.54524 -7.669825,-5.08901 -15.59375,-3.09375 -2.233702,0.56246 -4.272131,0.79036 -4.5625,0.5 -0.884565,-0.88457 4.202673,-8.16632 7.5,-10.71875 L 63.625,293 l 5.46875,1.65625 c 3.004324,0.90963 5.968511,2.00415 6.5625,2.4375 3.152014,2.29957 11.739623,4.66607 18.25,5.03125 5.959156,0.33426 8.2827,0.0495 13.34375,-1.71875 3.37231,-1.17821 6.69519,-2.15625 7.375,-2.15625 0.6798,0 1.9843,-0.79703 2.875,-1.78125 0.8907,-0.98422 2.47544,-2.07825 3.53125,-2.40625 1.05582,-0.328 3.36681,-2.14079 5.125,-4.03125 1.75818,-1.89044 4.39314,-3.70301 5.875,-4.03125 5.10099,-1.12991 5.28873,-1.24122 4.0625,-2.71875 -1.90309,-2.29309 -9.09212,-1.69988 -14.15625,1.15625 -4.02212,2.26844 -5.25111,2.47179 -13.5,2.4375 -14.682308,-0.061 -17.494262,-1.33977 -30.28125,-13.8125 -7.246301,-7.0682 -7.842454,-7.4375 -11.6875,-7.4375 -2.22641,0 -5.600946,0.48417 -7.53125,1.0625 -1.930305,0.57834 -3.79888,0.76361 -4.125,0.4375 -1.028626,-1.02863 2.780296,-7.14873 5.375,-8.65625 1.367638,-0.7946 2.496848,-1.73744 2.5,-2.09375 0.0032,-0.35633 0.757749,-1.06491 1.6875,-1.5625 1.235875,-0.66142 2.994585,-0.41284 6.5625,0.9375 2.68415,1.01586 5.927134,2.16784 7.1875,2.5625 1.260364,0.39466 3.978057,1.59284 6.0625,2.65625 4.580868,2.33698 16.91635,2.68729 23.09375,0.65625 2.13591,-0.70225 5.19819,-1.54197 6.8125,-1.875 1.61431,-0.33304 3.1719,-0.98844 3.46875,-1.46875 0.29686,-0.48032 2.18904,-1.92593 4.1875,-3.1875 1.99845,-1.26157 4.85675,-3.68141 6.34375,-5.375 1.66691,-1.89849 3.89947,-3.29737 5.8125,-3.65625 1.76393,-0.33091 3.09375,-1.12826 3.09375,-1.84375 0,-0.93269 -1.38489,-1.25 -5.375,-1.25 -2.96139,0 -5.61166,0.35514 -5.875,0.78125 -0.26334,0.4261 -2.96233,1.67366 -6,2.78125 -4.39466,1.60239 -6.84857,1.94502 -12.03125,1.625 -12.753186,-0.78747 -14.854776,-1.80023 -26.25,-12.65625 -9.143036,-8.71038 -9.958897,-9.1472 -16.0625,-8.59375 -2.83277,0.25687 -6.007599,0.99745 -7.0625,1.65625 -5.246673,3.2766 -2.131396,-4.39685 4.15625,-10.21875 2.725578,-2.52369 4.374201,-3.4403 5.4375,-3 0.839334,0.34755 2.974109,0.98615 4.71875,1.40625 2.865708,0.69004 10.68451,4.04844 14.71875,6.3125 0.865557,0.48576 5.154484,0.875 9.5625,0.875 6.38831,0 9.38942,-0.48434 14.75,-2.40625 7.53555,-2.70169 10.09296,-4.28834 16.875,-10.5 3.12094,-2.85846 5.51038,-4.3125 7.09375,-4.3125 1.7835,0 2.28784,-0.40845 2.0625,-1.59375 -0.47232,-2.48452 -9.02613,-2.69711 -12.375,-0.3125 -4.97523,3.54268 -9.02744,4.32503 -18.5,3.5625 -12.374565,-0.99614 -13.898348,-1.90625 -30.40625,-17.84375 -4.392682,-4.24089 -4.249313,-4.20721 -14.90625,-2.34375 -2.314327,0.40468 -3.375,0.27782 -3.375,-0.4375 0,-2.22252 2.656974,-6.0694 6.1875,-8.90625 3.536983,-2.84204 3.869311,-2.9187 7.96875,-2 2.346541,0.52587 5.305589,1.52501 6.59375,2.21875 12.542083,6.75453 20.626209,7.60215 33.0625,3.46875 4.04818,-1.34547 8.49721,-3.38438 9.90625,-4.53125 1.40903,-1.14687 3.00658,-2.09375 3.53125,-2.09375 0.52467,0 2.66112,-1.85064 4.75,-4.09375 2.99831,-3.21968 4.42221,-4.0625 6.75,-4.0625 2.31874,0 2.86185,-0.34651 2.625,-1.59375 -0.22655,-1.19305 -1.35283,-1.66814 -4.5625,-1.875 -3.40058,-0.21919 -5.65589,0.41576 -11.09375,3.03125 l -6.8125,3.28125 -8.8125,-1.0625 c -9.645543,-1.15167 -13.972585,-2.90251 -18.5625,-7.5 -1.648082,-1.65079 -4.939524,-4.56173 -7.3125,-6.46875 -2.932306,-2.3565 -5.166195,-5.25434 -6.96875,-9.03125 -3.176158,-6.65504 -3.029226,-9.78164 1.03125,-21.375 4.416209,-12.60903 5.636575,-18.69135 4.34375,-21.8125 -0.606659,-1.46461 -1.439345,-2.65625 -1.84375,-2.65625 -0.404403,0 -0.987021,-0.849507 -1.3125,-1.875 -0.325479,-1.025492 -1.630965,-2.245769 -2.875,-2.71875 -3.239607,-1.231696 -2.131324,-3.078832 2.03125,-3.375 2.414847,-0.171817 4.887613,0.443835 7.65625,1.9375 5.581472,3.011174 8.189674,9.45502 7.6875,18.9375 -0.509893,9.6282 1.947363,17.6057 7.21875,23.46875 4.63834,5.15895 10.65496,9.84375 12.6875,9.84375 2.79086,0 2.57607,-4.11778 -0.46875,-8.4375 -2.70087,-3.83176 -2.97887,-4.80496 -3.375,-13.03125 -0.65752,-13.65476 1.80514,-19.3837 13.40625,-31.0625 9.35129,-9.413923 10.41291,-12.040201 8,-20.09375 -0.57833,-1.930305 -0.83277,-3.76097 -0.5625,-4.03125 1.31239,-1.312388 5.61657,1.158499 8.9375,5.125 l 3.6875,4.40625 -2.90625,8.40625 c -1.60884,4.6203 -3.57791,9.401204 -4.375,10.625 -1.85819,2.85297 -2.97153,15.74324 -1.71875,20 3.31774,11.27323 5.68184,15.72574 11.03125,20.875 2.44838,2.35678 3.70011,4.48455 4.09375,6.90625 0.36148,2.22388 1.04936,3.46875 1.90625,3.46875 1.93083,0 2.3674,-9.59043 0.5625,-12.40625 -3.85881,-6.02014 -4.45513,-17.90379 -1.375,-27.53125 1.72332,-5.38655 4.05767,-8.42782 16.90625,-22.125 3.24475,-3.459048 3.79493,-7.329546 1.96875,-13.90625 -0.53203,-1.916001 -0.78342,-3.716578 -0.53125,-3.96875 1.29282,-1.29282 7.27811,2.037046 9.71875,5.40625 3.01322,4.15962 3.01609,7.313646 -0.0312,13.8125 -6.97763,14.88075 -6.6437,13.64543 -6.125,22.53125 0.67874,11.62772 4.75597,20.89941 12.65625,28.71875 3.01907,2.98814 4.3125,5.004 4.3125,6.71875 0,1.83922 0.40073,2.35155 1.59375,2.125 2.41192,-0.45801 2.68486,-8.14639 0.40625,-11.40625 -2.97638,-4.25814 -4.93364,-12.10562 -4.46875,-17.96875 0.84291,-10.63019 3.53905,-15.82655 13.375,-25.71875 9.33246,-9.385825 10.37791,-12.021474 7.96875,-20.0625 -0.57833,-1.930305 -0.7957,-3.766801 -0.5,-4.0625 0.29571,-0.295701 1.98382,-0.05164 3.75,0.53125 4.23678,1.398268 8.92421,8.084384 8.15625,11.625 -0.63527,2.928889 -4.34838,12.048211 -6.78125,16.625 -2.77576,5.22185 -2.47126,17.08716 0.65625,25 1.33193,3.3699 3.34279,7.2569 4.46875,8.625 1.12596,1.3681 2.30181,3.23643 2.59375,4.15625 0.29194,0.91981 1.47148,2.16391 2.625,2.78125 2.50562,1.34097 5.125,5.51409 5.125,8.15625 0,1.29515 0.5765,1.90625 1.8125,1.90625 1.59666,0 1.8125,-0.6266 1.8125,-5.09375 0,-3.57146 -0.50814,-5.78721 -1.75,-7.53125 -4.63928,-6.51526 -5.9313,-17.78969 -2.9375,-25.90625 1.69407,-4.59283 5.49819,-10.76853 7.75,-12.59375 0.68262,-0.553319 3.94504,-3.971831 7.25,-7.625 6.70559,-7.412054 7.11503,-8.992494 4.4375,-16.53125 -0.85582,-2.409597 -1.30904,-4.62846 -1,-4.9375 1.09334,-1.093332 7.57544,3.038018 10.53125,6.71875 l 3,3.71875 -2.40625,7.03125 c -1.33028,3.857399 -3.40358,8.930093 -4.59375,11.28125 -3.18467,6.29127 -3.07235,17.38006 0.25,25.84375 1.32283,3.3699 2.92031,6.7523 3.53125,7.5 0.61094,0.74771 1.76196,2.70212 2.59375,4.34375 0.83179,1.64164 2.45394,3.38691 3.59375,3.90625 2.46147,1.12152 5.09375,5.27508 5.09375,8.03125 0,1.3826 0.47825,1.86785 1.59375,1.65625 1.16528,-0.22104 1.66655,-1.35017 1.875,-4.25 0.22062,-3.06919 -0.45764,-5.38665 -2.96875,-10.46875 -2.76335,-5.59257 -3.21875,-7.43051 -3.21875,-12.8125 0,-11.2872 3.54701,-18.02734 16.34375,-31.125 5.64366,-5.776388 5.86338,-6.744088 4,-17.53125 -0.36836,-2.132476 -0.2501,-3.375 0.34375,-3.375 2.54215,0 5.55173,1.992574 8.65625,5.78125 l 3.40625,4.1875 -2.90625,8.375 c -1.59605,4.609282 -3.39614,9.400376 -4.03125,10.65625 -0.63508,1.25587 -1.28113,5.96098 -1.40625,10.4375 -0.18229,6.5212 0.18335,9.15529 1.75,13.3125 1.07544,2.85374 1.9375,6.71618 1.9375,8.5625 0,1.84632 0.37501,4.59421 0.84375,6.125 0.46871,1.5308 1.44345,4.82016 2.15625,7.3125 1.21126,4.23528 1.48223,4.53125 4.21875,4.53125 2.63127,0 3.061,-0.38751 4.21875,-3.8125 0.70856,-2.09611 1.65796,-6.98949 2.09375,-10.875 0.43578,-3.88551 1.496,-9.28967 2.375,-12.03125 0.87899,-2.74158 1.78928,-8.25019 2,-12.21875 0.33893,-6.38298 0.0876,-7.84622 -2.09375,-12.6875 -3.43328,-7.619858 -3.79669,-8.513694 -5.40625,-13.40625 L 300.03125,79.78125 303.25,75.875 c 2.57821,-3.146361 8.1787,-6.785673 10.28125,-6.90625 z"
       id="use3111" />
    <g
       transform="translate(1.7e-6,-4.2952849)"
       style="display:inline"
       id="g3200">
      <g
         transform="translate(0,-7.6293945e-6)"
         id="g3158">
        <g
           transform="matrix(0.53587679,0,0,0.53587679,-91.195211,-53.10553)"
           id="g3332"
           style="fill:#b7410e;display:inline">
          <path
             sodipodi:nodetypes="ccccccc"
             d="m 526.06832,410.20048 -38.70713,-24.50533 -38.773,24.40113 23.06038,14.00431 15.43924,164.55641 17.53104,-164.51207 z"
             id="path19609-7"
             style="fill:#b7410e;fill-opacity:1;fill-rule:evenodd;stroke:#000000;stroke-width:2.79915094;stroke-linecap:butt;stroke-linejoin:miter;stroke-miterlimit:4;stroke-opacity:1;stroke-dasharray:none"
             inkscape:connector-curvature="0" />
          <path
             sodipodi:nodetypes="ccc"
             d="m 526.06832,410.20048 -33.78196,-9.36096 -43.69817,9.25676"
             id="path19611-6"
             style="fill:#b7410e;fill-opacity:1;fill-rule:evenodd;stroke:#000000;stroke-width:2.79915094;stroke-linecap:butt;stroke-linejoin:miter;stroke-miterlimit:4;stroke-opacity:1;stroke-dasharray:none"
             inkscape:connector-curvature="0" />
          <path
             sodipodi:nodetypes="ccc"
             d="m 487.36119,385.69515 4.92517,15.14437 -5.19855,187.8174"
             id="path19613-1"
             style="fill:#b7410e;stroke:#000000;stroke-width:2.79915094;stroke-linecap:butt;stroke-linejoin:miter;stroke-miterlimit:4;stroke-opacity:1;stroke-dasharray:none"
             inkscape:connector-curvature="0" />
        </g>
        <g
           style="fill:#b7410e;display:inline"
           id="g3047"
           transform="matrix(0.53587679,0,0,0.53587679,168.8994,-53.10553)">
          <path
             inkscape:connector-curvature="0"
             style="fill:#b7410e;fill-opacity:1;fill-rule:evenodd;stroke:#000000;stroke-width:2.79915094;stroke-linecap:butt;stroke-linejoin:miter;stroke-miterlimit:4;stroke-opacity:1;stroke-dasharray:none"
             id="path3049"
             d="m 526.06832,410.20048 -38.70713,-24.50533 -38.773,24.40113 23.06038,14.00431 15.43924,164.55641 17.53104,-164.51207 z"
             sodipodi:nodetypes="ccccccc" />
          <path
             inkscape:connector-curvature="0"
             style="fill:#b7410e;fill-opacity:1;fill-rule:evenodd;stroke:#000000;stroke-width:2.79915094;stroke-linecap:butt;stroke-linejoin:miter;stroke-miterlimit:4;stroke-opacity:1;stroke-dasharray:none"
             id="path3051"
             d="m 526.06832,410.20048 -33.78196,-9.36096 -43.69817,9.25676"
             sodipodi:nodetypes="ccc" />
          <path
             inkscape:connector-curvature="0"
             style="fill:#b7410e;stroke:#000000;stroke-width:2.79915094;stroke-linecap:butt;stroke-linejoin:miter;stroke-miterlimit:4;stroke-opacity:1;stroke-dasharray:none"
             id="path3053"
             d="m 487.36119,385.69515 4.92517,15.14437 -5.19855,187.8174"
             sodipodi:nodetypes="ccc" />
        </g>
        <g
           style="fill:#b7410e;display:inline"
           id="g3055"
           transform="matrix(0.53587679,0,0,0.53587679,-4.4970269,-53.10553)">
          <path
             inkscape:connector-curvature="0"
             style="fill:#b7410e;fill-opacity:1;fill-rule:evenodd;stroke:#000000;stroke-width:2.79915094;stroke-linecap:butt;stroke-linejoin:miter;stroke-miterlimit:4;stroke-opacity:1;stroke-dasharray:none"
             id="path3057"
             d="m 526.06832,410.20048 -38.70713,-24.50533 -38.773,24.40113 23.06038,14.00431 15.43924,164.55641 17.53104,-164.51207 z"
             sodipodi:nodetypes="ccccccc" />
          <path
             inkscape:connector-curvature="0"
             style="fill:#b7410e;fill-opacity:1;fill-rule:evenodd;stroke:#000000;stroke-width:2.79915094;stroke-linecap:butt;stroke-linejoin:miter;stroke-miterlimit:4;stroke-opacity:1;stroke-dasharray:none"
             id="path3059"
             d="m 526.06832,410.20048 -33.78196,-9.36096 -43.69817,9.25676"
             sodipodi:nodetypes="ccc" />
          <path
             inkscape:connector-curvature="0"
             style="fill:#b7410e;stroke:#000000;stroke-width:2.79915094;stroke-linecap:butt;stroke-linejoin:miter;stroke-miterlimit:4;stroke-opacity:1;stroke-dasharray:none"
             id="path3061"
             d="m 487.36119,385.69515 4.92517,15.14437 -5.19855,187.8174"
             sodipodi:nodetypes="ccc" />
        </g>
        <g
           transform="matrix(0.53587679,0,0,0.53587679,82.201192,-53.10553)"
           id="g3063"
           style="fill:#b7410e;display:inline">
          <path
             sodipodi:nodetypes="ccccccc"
             d="m 526.06832,410.20048 -38.70713,-24.50533 -38.773,24.40113 23.06038,14.00431 15.43924,164.55641 17.53104,-164.51207 z"
             id="path3065"
             style="fill:#b7410e;fill-opacity:1;fill-rule:evenodd;stroke:#000000;stroke-width:2.79915094;stroke-linecap:butt;stroke-linejoin:miter;stroke-miterlimit:4;stroke-opacity:1;stroke-dasharray:none"
             inkscape:connector-curvature="0" />
          <path
             sodipodi:nodetypes="ccc"
             d="m 526.06832,410.20048 -33.78196,-9.36096 -43.69817,9.25676"
             id="path3067"
             style="fill:#b7410e;fill-opacity:1;fill-rule:evenodd;stroke:#000000;stroke-width:2.79915094;stroke-linecap:butt;stroke-linejoin:miter;stroke-miterlimit:4;stroke-opacity:1;stroke-dasharray:none"
             inkscape:connector-curvature="0" />
          <path
             sodipodi:nodetypes="ccc"
             d="m 487.36119,385.69515 4.92517,15.14437 -5.19855,187.8174"
             id="path3069"
             style="fill:#b7410e;stroke:#000000;stroke-width:2.79915094;stroke-linecap:butt;stroke-linejoin:miter;stroke-miterlimit:4;stroke-opacity:1;stroke-dasharray:none"
             inkscape:connector-curvature="0" />
        </g>
      </g>
      <g
         transform="translate(0,-29.587143)"
         id="g3176">
        <g
           style="fill:#b7410e;display:inline"
           id="g3071"
           transform="matrix(0.53587679,0,0,0.53587679,-47.846113,58.803315)">
          <path
             inkscape:connector-curvature="0"
             style="fill:#b7410e;fill-opacity:1;fill-rule:evenodd;stroke:#000000;stroke-width:2.79915094;stroke-linecap:butt;stroke-linejoin:miter;stroke-miterlimit:4;stroke-opacity:1;stroke-dasharray:none"
             id="path3073"
             d="m 526.06832,410.20048 -38.70713,-24.50533 -38.773,24.40113 23.06038,14.00431 15.43924,164.55641 17.53104,-164.51207 z"
             sodipodi:nodetypes="ccccccc" />
          <path
             inkscape:connector-curvature="0"
             style="fill:#b7410e;fill-opacity:1;fill-rule:evenodd;stroke:#000000;stroke-width:2.79915094;stroke-linecap:butt;stroke-linejoin:miter;stroke-miterlimit:4;stroke-opacity:1;stroke-dasharray:none"
             id="path3075"
             d="m 526.06832,410.20048 -33.78196,-9.36096 -43.69817,9.25676"
             sodipodi:nodetypes="ccc" />
          <path
             inkscape:connector-curvature="0"
             style="fill:#b7410e;stroke:#000000;stroke-width:2.79915094;stroke-linecap:butt;stroke-linejoin:miter;stroke-miterlimit:4;stroke-opacity:1;stroke-dasharray:none"
             id="path3077"
             d="m 487.36119,385.69515 4.92517,15.14437 -5.19855,187.8174"
             sodipodi:nodetypes="ccc" />
        </g>
        <g
           transform="matrix(0.53587679,0,0,0.53587679,38.85209,62.758319)"
           id="g3079"
           style="fill:#b7410e;display:inline">
          <path
             sodipodi:nodetypes="ccccccc"
             d="m 526.06832,410.20048 -38.70713,-24.50533 -38.773,24.40113 23.06038,14.00431 15.43924,164.55641 17.53104,-164.51207 z"
             id="path3081"
             style="fill:#b7410e;fill-opacity:1;fill-rule:evenodd;stroke:#000000;stroke-width:2.79915094;stroke-linecap:butt;stroke-linejoin:miter;stroke-miterlimit:4;stroke-opacity:1;stroke-dasharray:none"
             inkscape:connector-curvature="0" />
          <path
             sodipodi:nodetypes="ccc"
             d="m 526.06832,410.20048 -33.78196,-9.36096 -43.69817,9.25676"
             id="path3083"
             style="fill:#b7410e;fill-opacity:1;fill-rule:evenodd;stroke:#000000;stroke-width:2.79915094;stroke-linecap:butt;stroke-linejoin:miter;stroke-miterlimit:4;stroke-opacity:1;stroke-dasharray:none"
             inkscape:connector-curvature="0" />
          <path
             sodipodi:nodetypes="ccc"
             d="m 487.36119,385.69515 4.92517,15.14437 -5.19855,187.8174"
             id="path3085"
             style="fill:#b7410e;stroke:#000000;stroke-width:2.79915094;stroke-linecap:butt;stroke-linejoin:miter;stroke-miterlimit:4;stroke-opacity:1;stroke-dasharray:none"
             inkscape:connector-curvature="0" />
        </g>
        <g
           style="fill:#b7410e;display:inline"
           id="g3087"
           transform="matrix(0.53587679,0,0,0.53587679,125.5503,64.735821)">
          <path
             inkscape:connector-curvature="0"
             style="fill:#b7410e;fill-opacity:1;fill-rule:evenodd;stroke:#000000;stroke-width:2.79915094;stroke-linecap:butt;stroke-linejoin:miter;stroke-miterlimit:4;stroke-opacity:1;stroke-dasharray:none"
             id="path3089"
             d="m 526.06832,410.20048 -38.70713,-24.50533 -38.773,24.40113 23.06038,14.00431 15.43924,164.55641 17.53104,-164.51207 z"
             sodipodi:nodetypes="ccccccc" />
          <path
             inkscape:connector-curvature="0"
             style="fill:#b7410e;fill-opacity:1;fill-rule:evenodd;stroke:#000000;stroke-width:2.79915094;stroke-linecap:butt;stroke-linejoin:miter;stroke-miterlimit:4;stroke-opacity:1;stroke-dasharray:none"
             id="path3091"
             d="m 526.06832,410.20048 -33.78196,-9.36096 -43.69817,9.25676"
             sodipodi:nodetypes="ccc" />
          <path
             inkscape:connector-curvature="0"
             style="fill:#b7410e;stroke:#000000;stroke-width:2.79915094;stroke-linecap:butt;stroke-linejoin:miter;stroke-miterlimit:4;stroke-opacity:1;stroke-dasharray:none"
             id="path3093"
             d="m 487.36119,385.69515 4.92517,15.14437 -5.19855,187.8174"
             sodipodi:nodetypes="ccc" />
        </g>
      </g>
      <g
         transform="translate(0,-30.320534)"
         id="g3190">
        <g
           transform="matrix(0.53587679,0,0,0.53587679,-4.4970066,146.80215)"
           id="g3095"
           style="fill:#b7410e;display:inline">
          <path
             sodipodi:nodetypes="ccccccc"
             d="m 526.06832,410.20048 -38.70713,-24.50533 -38.773,24.40113 23.06038,14.00431 15.43924,164.55641 17.53104,-164.51207 z"
             id="path3097"
             style="fill:#b7410e;fill-opacity:1;fill-rule:evenodd;stroke:#000000;stroke-width:2.79915094;stroke-linecap:butt;stroke-linejoin:miter;stroke-miterlimit:4;stroke-opacity:1;stroke-dasharray:none"
             inkscape:connector-curvature="0" />
          <path
             sodipodi:nodetypes="ccc"
             d="m 526.06832,410.20048 -33.78196,-9.36096 -43.69817,9.25676"
             id="path3099"
             style="fill:#b7410e;fill-opacity:1;fill-rule:evenodd;stroke:#000000;stroke-width:2.79915094;stroke-linecap:butt;stroke-linejoin:miter;stroke-miterlimit:4;stroke-opacity:1;stroke-dasharray:none"
             inkscape:connector-curvature="0" />
          <path
             sodipodi:nodetypes="ccc"
             d="m 487.36119,385.69515 4.92517,15.14437 -5.19855,187.8174"
             id="path3101"
             style="fill:#b7410e;stroke:#000000;stroke-width:2.79915094;stroke-linecap:butt;stroke-linejoin:miter;stroke-miterlimit:4;stroke-opacity:1;stroke-dasharray:none"
             inkscape:connector-curvature="0" />
        </g>
        <g
           style="fill:#b7410e;display:inline"
           id="g3103"
           transform="matrix(0.53587679,0,0,0.53587679,82.201197,148.77965)">
          <path
             inkscape:connector-curvature="0"
             style="fill:#b7410e;fill-opacity:1;fill-rule:evenodd;stroke:#000000;stroke-width:2.79915094;stroke-linecap:butt;stroke-linejoin:miter;stroke-miterlimit:4;stroke-opacity:1;stroke-dasharray:none"
             id="path3105"
             d="m 526.06832,410.20048 -38.70713,-24.50533 -38.773,24.40113 23.06038,14.00431 15.43924,164.55641 17.53104,-164.51207 z"
             sodipodi:nodetypes="ccccccc" />
          <path
             inkscape:connector-curvature="0"
             style="fill:#b7410e;fill-opacity:1;fill-rule:evenodd;stroke:#000000;stroke-width:2.79915094;stroke-linecap:butt;stroke-linejoin:miter;stroke-miterlimit:4;stroke-opacity:1;stroke-dasharray:none"
             id="path3107"
             d="m 526.06832,410.20048 -33.78196,-9.36096 -43.69817,9.25676"
             sodipodi:nodetypes="ccc" />
          <path
             inkscape:connector-curvature="0"
             style="fill:#b7410e;stroke:#000000;stroke-width:2.79915094;stroke-linecap:butt;stroke-linejoin:miter;stroke-miterlimit:4;stroke-opacity:1;stroke-dasharray:none"
             id="path3109"
             d="m 487.36119,385.69515 4.92517,15.14437 -5.19855,187.8174"
             sodipodi:nodetypes="ccc" />
        </g>
      </g>
      <g
         transform="matrix(0.53587679,0,0,0.53587679,38.852099,202.75832)"
         id="g3116"
         style="fill:#b7410e;display:inline">
        <path
           sodipodi:nodetypes="ccccccc"
           d="m 526.06832,410.20048 -38.70713,-24.50533 -38.773,24.40113 23.06038,14.00431 15.43924,164.55641 17.53104,-164.51207 z"
           id="path3118"
           style="fill:#b7410e;fill-opacity:1;fill-rule:evenodd;stroke:#000000;stroke-width:2.79915094;stroke-linecap:butt;stroke-linejoin:miter;stroke-miterlimit:4;stroke-opacity:1;stroke-dasharray:none"
           inkscape:connector-curvature="0" />
        <path
           sodipodi:nodetypes="ccc"
           d="m 526.06832,410.20048 -33.78196,-9.36096 -43.69817,9.25676"
           id="path3120"
           style="fill:#b7410e;fill-opacity:1;fill-rule:evenodd;stroke:#000000;stroke-width:2.79915094;stroke-linecap:butt;stroke-linejoin:miter;stroke-miterlimit:4;stroke-opacity:1;stroke-dasharray:none"
           inkscape:connector-curvature="0" />
        <path
           sodipodi:nodetypes="ccc"
           d="m 487.36119,385.69515 4.92517,15.14437 -5.19855,187.8174"
           id="path3122"
           style="fill:#b7410e;stroke:#000000;stroke-width:2.79915094;stroke-linecap:butt;stroke-linejoin:miter;stroke-miterlimit:4;stroke-opacity:1;stroke-dasharray:none"
           inkscape:connector-curvature="0" />
      </g>
    </g>
  </g>
  <g
     inkscape:groupmode="layer"
     id="layer1"
     inkscape:label="Cover"
     style="display:inline"
     sodipodi:insensitive="true">
    <path
       d="m 2,2 v 257 c 0,286 298,398 298,398 0,0 298,-112 298,-398 V 2 z"
       id="shine"
       inkscape:connector-curvature="0"
       style="fill:url(#radialGradient3074);stroke:#000000;stroke-width:3" />
  </g>
</svg>
