<?xml version="1.0" encoding="UTF-8" standalone="no"?>
<svg
   xmlns:dc="http://purl.org/dc/elements/1.1/"
   xmlns:cc="http://creativecommons.org/ns#"
   xmlns:rdf="http://www.w3.org/1999/02/22-rdf-syntax-ns#"
   xmlns:svg="http://www.w3.org/2000/svg"
   xmlns="http://www.w3.org/2000/svg"
   xmlns:xlink="http://www.w3.org/1999/xlink"
   xmlns:sodipodi="http://sodipodi.sourceforge.net/DTD/sodipodi-0.dtd"
   xmlns:inkscape="http://www.inkscape.org/namespaces/inkscape"
   width="600"
   height="660"
   id="svg2"
   version="1.1"
   inkscape:version="0.48.2 r9819"
   sodipodi:docname="House_Sloane.svg">
  <metadata
     id="metadata24">
    <rdf:RDF>
      <cc:Work
         rdf:about="">
        <dc:format>image/svg+xml</dc:format>
        <dc:type
           rdf:resource="http://purl.org/dc/dcmitype/StillImage" />
        <dc:title />
      </cc:Work>
    </rdf:RDF>
  </metadata>
  <sodipodi:namedview
     pagecolor="#ffffff"
     bordercolor="#666666"
     borderopacity="1"
     objecttolerance="10"
     gridtolerance="10"
     guidetolerance="10"
     inkscape:pageopacity="0"
     inkscape:pageshadow="2"
     inkscape:window-width="1366"
     inkscape:window-height="715"
     id="namedview22"
     showgrid="false"
     inkscape:zoom="0.71515152"
     inkscape:cx="472.99743"
     inkscape:cy="336.65518"
     inkscape:window-x="-8"
     inkscape:window-y="-8"
     inkscape:window-maximized="1"
     inkscape:current-layer="layer2" />
  <defs
     id="defs4">
    <inkscape:path-effect
       effect="spiro"
       id="path-effect7615"
       is_visible="true" />
    <inkscape:path-effect
       effect="spiro"
       id="path-effect3576"
       is_visible="true" />
    <inkscape:path-effect
       is_visible="true"
       id="path-effect3572"
       effect="spiro" />
    <inkscape:path-effect
       effect="spiro"
       id="path-effect3568"
       is_visible="true" />
    <inkscape:path-effect
       is_visible="true"
       id="path-effect3136"
       effect="spiro" />
    <inkscape:path-effect
       effect="spiro"
       id="path-effect3132"
       is_visible="true" />
    <inkscape:path-effect
       effect="spiro"
       id="path-effect3101"
       is_visible="true" />
    <inkscape:path-effect
       is_visible="true"
       id="path-effect3085"
       effect="spiro" />
    <inkscape:path-effect
       is_visible="true"
       id="path-effect3083"
       effect="spiro" />
    <inkscape:path-effect
       is_visible="true"
       id="path-effect3081"
       effect="spiro" />
    <inkscape:path-effect
       is_visible="true"
       id="path-effect3079"
       effect="spiro" />
    <inkscape:path-effect
       is_visible="true"
       id="path-effect3077"
       effect="spiro" />
    <inkscape:path-effect
       is_visible="true"
       id="path-effect3075"
       effect="spiro" />
    <inkscape:path-effect
       effect="spiro"
       id="path-effect3049"
       is_visible="true" />
    <inkscape:path-effect
       is_visible="true"
       id="path-effect3045"
       effect="spiro" />
    <inkscape:path-effect
       effect="spiro"
       id="path-effect3041"
       is_visible="true" />
    <radialGradient
       id="rg"
       gradientUnits="userSpaceOnUse"
       cx="220"
       cy="220"
       r="405">
      <stop
         style="stop-color:#fff;stop-opacity:.3"
         offset="0"
         id="stop7" />
      <stop
         style="stop-color:#fff;stop-opacity:.2"
         offset=".2"
         id="stop9" />
      <stop
         style="stop-color:#666;stop-opacity:.1"
         offset=".6"
         id="stop11" />
      <stop
         style="stop-color:#000;stop-opacity:.13"
         offset="1"
         id="stop13" />
    </radialGradient>
    <path
       id="shield"
       d="m2,2v257c0,286 298,398 298,398c0,0 298-112 298-398V2z" />
    <radialGradient
       inkscape:collect="always"
       xlink:href="#rg-7"
       id="radialGradient3055-1"
       gradientUnits="userSpaceOnUse"
       cx="220"
       cy="220"
       r="405" />
    <radialGradient
       id="rg-7"
       gradientUnits="userSpaceOnUse"
       cx="220"
       cy="220"
       r="405">
      <stop
         style="stop-color:#fff;stop-opacity:.3"
         offset="0"
         id="stop7-4" />
      <stop
         style="stop-color:#fff;stop-opacity:.2"
         offset=".2"
         id="stop9-0" />
      <stop
         style="stop-color:#666;stop-opacity:.1"
         offset=".6"
         id="stop11-9" />
      <stop
         style="stop-color:#000;stop-opacity:.13"
         offset="1"
         id="stop13-4" />
    </radialGradient>
    <radialGradient
       r="405"
       cy="220"
       cx="220"
       gradientUnits="userSpaceOnUse"
       id="radialGradient3074"
       xlink:href="#rg-7"
       inkscape:collect="always" />
    <inkscape:path-effect
       is_visible="true"
       id="path-effect10120-1"
       effect="spiro" />
    <inkscape:path-effect
       effect="spiro"
       id="path-effect10118-3"
       is_visible="true" />
    <inkscape:path-effect
       effect="spiro"
       id="path-effect10116-9"
       is_visible="true" />
    <inkscape:path-effect
       effect="spiro"
       id="path-effect10114-7"
       is_visible="true" />
    <inkscape:path-effect
       effect="spiro"
       id="path-effect10112-7"
       is_visible="true" />
    <inkscape:path-effect
       effect="spiro"
       id="path-effect10110-2"
       is_visible="true" />
    <linearGradient
       inkscape:collect="always"
       xlink:href="#linearGradient4719-5"
       id="linearGradient4039"
       gradientUnits="userSpaceOnUse"
       gradientTransform="matrix(2.3257341,0,0,2.2943177,447.69485,-1820.2799)"
       x1="-145.25935"
       y1="984.24286"
       x2="-64.14286"
       y2="984.14789" />
    <linearGradient
       inkscape:collect="always"
       id="linearGradient4719-5">
      <stop
         style="stop-color:#666666;stop-opacity:1;"
         offset="0"
         id="stop4721-5" />
      <stop
         id="stop4809-1"
         offset="0.39344174"
         style="stop-color:#666666;stop-opacity:0.74901961;" />
      <stop
         style="stop-color:#666666;stop-opacity:0;"
         offset="1"
         id="stop4723-7" />
    </linearGradient>
    <radialGradient
       inkscape:collect="always"
       xlink:href="#linearGradient4801-8"
       id="radialGradient4041"
       gradientUnits="userSpaceOnUse"
       gradientTransform="matrix(-0.72153181,1.2650715,-2.2729984,-1.2616144,1712.0113,1733.7841)"
       cx="-307.14288"
       cy="782.36218"
       fx="-307.14288"
       fy="782.36218"
       r="63" />
    <linearGradient
       inkscape:collect="always"
       id="linearGradient4801-8">
      <stop
         style="stop-color:#000000;stop-opacity:1;"
         offset="0"
         id="stop4803-2" />
      <stop
         style="stop-color:#000000;stop-opacity:0;"
         offset="1"
         id="stop4805-4" />
    </linearGradient>
    <inkscape:path-effect
       effect="spiro"
       id="path-effect10108-4"
       is_visible="true" />
    <linearGradient
       inkscape:collect="always"
       xlink:href="#linearGradient4719-5"
       id="linearGradient4044"
       gradientUnits="userSpaceOnUse"
       gradientTransform="matrix(-2.4055369,0,0,-1.6485021,142.06168,1726.5307)"
       x1="-145.25935"
       y1="984.24286"
       x2="-64.14286"
       y2="984.14789" />
    <radialGradient
       inkscape:collect="always"
       xlink:href="#linearGradient4801-8"
       id="radialGradient4046"
       gradientUnits="userSpaceOnUse"
       gradientTransform="matrix(0.74628962,-0.90897301,2.3509914,0.90648896,-1165.637,-827.11785)"
       cx="-307.14288"
       cy="782.36218"
       fx="-307.14288"
       fy="782.36218"
       r="63" />
    <inkscape:path-effect
       effect="spiro"
       id="path-effect10102-7"
       is_visible="true" />
    <linearGradient
       inkscape:collect="always"
       xlink:href="#linearGradient4719-5"
       id="linearGradient4049"
       gradientUnits="userSpaceOnUse"
       gradientTransform="matrix(2.334989,0,0,-1.6146975,449.44065,1692.189)"
       x1="-145.25935"
       y1="984.24286"
       x2="-64.14286"
       y2="984.14789" />
    <radialGradient
       inkscape:collect="always"
       xlink:href="#linearGradient4801-8"
       id="radialGradient4051"
       gradientUnits="userSpaceOnUse"
       gradientTransform="matrix(-0.72440295,-0.89033332,-2.2820431,0.88790031,1718.7881,-809.09364)"
       cx="-307.14288"
       cy="782.36218"
       fx="-307.14288"
       fy="782.36218"
       r="63" />
    <inkscape:path-effect
       is_visible="true"
       id="path-effect10096-8"
       effect="spiro" />
    <linearGradient
       inkscape:collect="always"
       xlink:href="#linearGradient4719-5"
       id="linearGradient4054"
       gradientUnits="userSpaceOnUse"
       gradientTransform="matrix(-2.409599,0,0,2.2818507,139.61083,-1810.8163)"
       x1="-145.25935"
       y1="984.24286"
       x2="-64.14286"
       y2="984.14789" />
    <radialGradient
       inkscape:collect="always"
       xlink:href="#linearGradient4801-8"
       id="radialGradient4056"
       gradientUnits="userSpaceOnUse"
       gradientTransform="matrix(0.74754985,1.2581972,2.3549614,-1.2547588,-1170.296,1723.935)"
       cx="-307.14288"
       cy="782.36218"
       fx="-307.14288"
       fy="782.36218"
       r="63" />
    <inkscape:path-effect
       is_visible="true"
       id="path-effect10090-3"
       effect="spiro" />
    <inkscape:path-effect
       effect="spiro"
       id="path-effect10084-1"
       is_visible="true" />
    <inkscape:path-effect
       effect="spiro"
       id="path-effect10082-1"
       is_visible="true" />
    <radialGradient
       inkscape:collect="always"
       xlink:href="#linearGradient4801-8"
       id="radialGradient4061"
       gradientUnits="userSpaceOnUse"
       gradientTransform="matrix(-0.76516322,1.2901254,-2.4104477,-1.2865998,1806.8444,1757.4704)"
       cx="-307.14288"
       cy="782.36218"
       fx="-307.14288"
       fy="782.36218"
       r="63" />
    <inkscape:path-effect
       effect="spiro"
       id="path-effect10080-4"
       is_visible="true" />
    <inkscape:path-effect
       is_visible="true"
       id="path-effect3075-1"
       effect="spiro" />
    <inkscape:path-effect
       effect="spiro"
       id="path-effect3101-7"
       is_visible="true" />
    <linearGradient
       inkscape:collect="always"
       xlink:href="#grad1-7-7"
       id="linearGradient3085-8-8"
       gradientUnits="userSpaceOnUse"
       gradientTransform="matrix(0.77469594,0,0,0.30982404,152.68996,-13.619206)"
       x1="78.877235"
       y1="178.07356"
       x2="301.40585"
       y2="178.07356" />
    <linearGradient
       id="grad1-7-7"
       x1="78.877235"
       y1="178.07356"
       x2="301.40585"
       y2="178.07356"
       gradientTransform="scale(1.577772,0.63380513)"
       gradientUnits="userSpaceOnUse">
      <stop
         offset="0%"
         style="stop-color:#da0;"
         id="stop16-4-4" />
      <stop
         offset="40%"
         style="stop-color:#fd0;"
         id="stop18-0-0" />
      <stop
         offset="60%"
         style="stop-color:#fd0;"
         id="stop20-9-9" />
      <stop
         offset="100%"
         style="stop-color:#da0;"
         id="stop22-4-4" />
    </linearGradient>
    <linearGradient
       inkscape:collect="always"
       xlink:href="#grad1-7-7"
       id="linearGradient3081-8-8"
       gradientUnits="userSpaceOnUse"
       gradientTransform="matrix(0.77469594,0,0,0.30982404,-27.310046,-13.619206)"
       x1="78.877235"
       y1="178.07356"
       x2="301.40585"
       y2="178.07356" />
    <linearGradient
       id="linearGradient3093"
       x1="78.877235"
       y1="178.07356"
       x2="301.40585"
       y2="178.07356"
       gradientTransform="scale(1.577772,0.63380513)"
       gradientUnits="userSpaceOnUse">
      <stop
         offset="0%"
         style="stop-color:#da0;"
         id="stop3095" />
      <stop
         offset="40%"
         style="stop-color:#fd0;"
         id="stop3097" />
      <stop
         offset="60%"
         style="stop-color:#fd0;"
         id="stop3099" />
      <stop
         offset="100%"
         style="stop-color:#da0;"
         id="stop3101" />
    </linearGradient>
    <linearGradient
       y2="178.07356"
       x2="301.40585"
       y1="178.07356"
       x1="78.877235"
       gradientTransform="matrix(0.77469594,0,0,0.30982404,332.68995,-13.619206)"
       gradientUnits="userSpaceOnUse"
       id="linearGradient3128-1"
       xlink:href="#grad1-7-7"
       inkscape:collect="always" />
    <linearGradient
       id="linearGradient3104"
       x1="78.877235"
       y1="178.07356"
       x2="301.40585"
       y2="178.07356"
       gradientTransform="scale(1.577772,0.63380513)"
       gradientUnits="userSpaceOnUse">
      <stop
         offset="0%"
         style="stop-color:#da0;"
         id="stop3106" />
      <stop
         offset="40%"
         style="stop-color:#fd0;"
         id="stop3108" />
      <stop
         offset="60%"
         style="stop-color:#fd0;"
         id="stop3110" />
      <stop
         offset="100%"
         style="stop-color:#da0;"
         id="stop3112" />
    </linearGradient>
    <inkscape:path-effect
       is_visible="true"
       id="path-effect3061"
       effect="spiro" />
    <clipPath
       clipPathUnits="userSpaceOnUse"
       id="clipPath10110">
      <path
         style="fill:#ffff00;fill-opacity:1;stroke:none"
         id="path10112"
         d="M 598,2 V 259 C 598,545 300,657 300,657 300,657 2,545 2,259 V 2 z"
         inkscape:connector-curvature="0" />
    </clipPath>
  </defs>
  <g
     inkscape:groupmode="layer"
     id="layer2"
     inkscape:label="Elements"
     style="display:inline">
    <path
       inkscape:connector-curvature="0"
       d="M 598,2 V 259 C 598,545 300,657 300,657 300,657 2,545 2,259 V 2 z"
       id="path13"
       style="fill:#330088;fill-opacity:1;stroke:none;display:inline" />
    <g
       style="display:inline"
       id="g3105">
      <path
         inkscape:connector-curvature="0"
         id="path4584"
         d="m 299.98437,563.84375 -11.53125,35.0625 -35.03125,11.53125 35.03125,11.5 10.96875,33.34375 c 0.39288,-0.16185 0.86771,-0.34548 1.3125,-0.53125 l 10.78125,-32.8125 35.0625,-11.5 -35.0625,-11.53125 -11.53125,-35.0625 z"
         style="fill:#ffffff;fill-opacity:1;fill-rule:evenodd;stroke:none;display:inline" />
      <path
         id="path3124"
         d="M 13.59375,2 12.46875,2.375 47.5,13.90625 59.03125,48.9375 70.5625,13.90625 105.59375,2.375 104.46875,2 13.59375,2 z"
         style="fill:#ffffff;fill-opacity:1;fill-rule:evenodd;stroke:none;display:inline"
         inkscape:connector-curvature="0" />
      <path
         id="path3122"
         d="M 174.25,2 173.125,2.375 208.15625,13.90625 219.6875,48.9375 231.21875,13.90625 266.25,2.375 265.125,2 174.25,2 z"
         style="fill:#ffffff;fill-opacity:1;fill-rule:evenodd;stroke:none;display:inline"
         inkscape:connector-curvature="0" />
      <path
         id="path3120"
         d="M 334.875,2 333.75,2.375 368.78125,13.90625 380.3125,48.9375 391.84375,13.90625 426.875,2.375 425.75,2 334.875,2 z"
         style="fill:#ffffff;fill-opacity:1;fill-rule:evenodd;stroke:none;display:inline"
         inkscape:connector-curvature="0" />
      <path
         id="path3118"
         d="m 495.53125,2 -1.125,0.375 L 529.4375,13.90625 540.96875,48.9375 552.5,13.90625 587.53125,2.375 586.40625,2 l -90.875,0 z"
         style="fill:#ffffff;fill-opacity:1;fill-rule:evenodd;stroke:none;display:inline"
         inkscape:connector-curvature="0" />
      <path
         id="path3116"
         d="M 59.03125,129.75 47.5,164.78125 12.46875,176.3125 47.5,187.84375 59.03125,222.875 70.5625,187.84375 105.59375,176.3125 70.5625,164.78125 59.03125,129.75 z"
         style="fill:#ffffff;fill-opacity:1;fill-rule:evenodd;stroke:none;display:inline"
         inkscape:connector-curvature="0" />
      <path
         id="path3114"
         d="M 219.6875,129.75 208.15625,164.78125 173.125,176.3125 208.15625,187.84375 219.6875,222.875 231.21875,187.84375 266.25,176.3125 231.21875,164.78125 219.6875,129.75 z"
         style="fill:#ffffff;fill-opacity:1;fill-rule:evenodd;stroke:none;display:inline"
         inkscape:connector-curvature="0" />
      <path
         id="path3112"
         d="M 380.3125,129.75 368.78125,164.78125 333.75,176.3125 368.78125,187.84375 380.3125,222.875 391.84375,187.84375 426.875,176.3125 391.84375,164.78125 380.3125,129.75 z"
         style="fill:#ffffff;fill-opacity:1;fill-rule:evenodd;stroke:none;display:inline"
         inkscape:connector-curvature="0" />
      <path
         id="path3110"
         d="M 540.96875,129.75 529.4375,164.78125 494.40625,176.3125 529.4375,187.84375 540.96875,222.875 552.5,187.84375 587.53125,176.3125 552.5,164.78125 540.96875,129.75 z"
         style="fill:#ffffff;fill-opacity:1;fill-rule:evenodd;stroke:none;display:inline"
         inkscape:connector-curvature="0" />
      <path
         id="path3108"
         d="M 59.03125,303.15625 47.5,338.1875 12.625,349.65625 c 0.01014,0.0419 0.0211,0.0832 0.03125,0.125 L 47.5,361.25 59.03125,396.28125 70.5625,361.25 105.59375,349.71875 70.5625,338.1875 59.03125,303.15625 z"
         style="fill:#ffffff;fill-opacity:1;fill-rule:evenodd;stroke:none;display:inline"
         inkscape:connector-curvature="0" />
      <path
         id="path3106"
         d="M 219.6875,303.15625 208.15625,338.1875 173.125,349.71875 208.15625,361.25 219.6875,396.28125 231.21875,361.25 266.25,349.71875 231.21875,338.1875 219.6875,303.15625 z"
         style="fill:#ffffff;fill-opacity:1;fill-rule:evenodd;stroke:none;display:inline"
         inkscape:connector-curvature="0" />
      <path
         id="path3104"
         d="M 380.3125,303.15625 368.78125,338.1875 333.75,349.71875 368.78125,361.25 380.3125,396.28125 391.84375,361.25 426.875,349.71875 391.84375,338.1875 380.3125,303.15625 z"
         style="fill:#ffffff;fill-opacity:1;fill-rule:evenodd;stroke:none;display:inline"
         inkscape:connector-curvature="0" />
      <path
         id="path3102"
         d="M 540.96875,303.15625 529.4375,338.1875 494.40625,349.71875 529.4375,361.25 540.96875,396.28125 552.5,361.25 587.34375,349.78125 c 0.0101,-0.0418 0.0211,-0.0831 0.0312,-0.125 L 552.5,338.1875 540.96875,303.15625 z"
         style="fill:#ffffff;fill-opacity:1;fill-rule:evenodd;stroke:none;display:inline"
         inkscape:connector-curvature="0" />
      <path
         id="path3100"
         d="M 219.6875,476.84375 208.15625,511.875 173.125,523.40625 208.15625,534.9375 219.6875,569.96875 231.21875,534.9375 266.25,523.40625 231.21875,511.875 219.6875,476.84375 z"
         style="fill:#ffffff;fill-opacity:1;fill-rule:evenodd;stroke:none;display:inline"
         inkscape:connector-curvature="0" />
      <path
         id="path3929"
         d="M 380.3125,476.84375 368.78125,511.875 333.75,523.40625 368.78125,534.9375 380.3125,569.96875 391.84375,534.9375 426.875,523.40625 391.84375,511.875 380.3125,476.84375 z"
         style="fill:#ffffff;fill-opacity:1;fill-rule:evenodd;stroke:none;display:inline"
         inkscape:connector-curvature="0" />
      <path
         id="path3899"
         d="m 139.34375,42.78125 -11.5,35.03125 -35.0625,11.53125 35.0625,11.53125 11.5,35.0625 L 150.875,100.875 185.9375,89.34375 150.875,77.8125 139.34375,42.78125 z m 160.625,0 L 288.4375,77.8125 253.40625,89.34375 288.4375,100.875 299.96875,135.9375 311.5,100.875 346.5625,89.34375 311.5,77.8125 299.96875,42.78125 z m 160.6875,0 L 449.125,77.8125 414.09375,89.34375 449.125,100.875 460.65625,135.9375 472.1875,100.875 507.21875,89.34375 472.1875,77.8125 460.65625,42.78125 z M 2,81.6875 2,97 25.28125,89.34375 2,81.6875 z m 596,0 -23.28125,7.65625 L 598,97 598,81.6875 z m -458.65625,134.78125 -11.5,35.03125 -35.0625,11.53125 35.0625,11.53125 11.5,35.0625 L 150.875,274.5625 185.9375,263.03125 150.875,251.5 139.34375,216.46875 z m 160.625,0 L 288.4375,251.5 253.40625,263.03125 288.4375,274.5625 299.96875,309.625 311.5,274.5625 346.5625,263.03125 311.5,251.5 299.96875,216.46875 z m 160.6875,0 L 449.125,251.5 414.09375,263.03125 449.125,274.5625 460.65625,309.625 472.1875,274.5625 507.21875,263.03125 472.1875,251.5 460.65625,216.46875 z M 2,255.375 2,259 c 0,3.91022 0.077615,7.77967 0.1875,11.625 L 25.28125,263.03125 2,255.375 z m 596,0 -23.28125,7.65625 23.09375,7.59375 C 597.92238,266.77967 598,262.91022 598,259 l 0,-3.625 z m -458.65625,134.78125 -11.5,35.03125 -35.0625,11.53125 35.0625,11.53125 11.5,35.0625 L 150.875,448.25 185.9375,436.71875 150.875,425.1875 139.34375,390.15625 z m 160.625,0 L 288.4375,425.1875 253.40625,436.71875 288.4375,448.25 299.96875,483.3125 311.5,448.25 346.5625,436.71875 311.5,425.1875 299.96875,390.15625 z m 160.6875,0 L 449.125,425.1875 414.09375,436.71875 449.125,448.25 460.65625,483.3125 472.1875,448.25 507.21875,436.71875 472.1875,425.1875 460.65625,390.15625 z"
         style="fill:#ffffff;fill-opacity:1;fill-rule:evenodd;stroke:none;display:inline"
         inkscape:connector-curvature="0" />
    </g>
    <path
       style="fill:#ffff00"
       inkscape:connector-curvature="0"
       d="m 300,2 0,655 c 0,0 298,-112 298,-398 L 598,2 300,2 z"
       id="path17" />
    <path
       d="m 450,156.37502 c -8.24472,11.00374 -8.92902,22.60191 -6.8688,34.63965 2.04319,11.93805 1.12953,23.5283 -6.2092,33.72991 -3.64211,-13.51698 -10.46824,-22.58283 -19.42369,-28.63516 -10.69068,-7.22505 -16.37457,-16.68844 -19.5829,-29.36297 -3.4062,13.32123 0.3815,24.2839 6.89155,34.61692 6.45273,10.24205 10.05502,21.29939 7.18721,33.52518 -8.53682,-11.09013 -18.32023,-16.85016 -28.90808,-19.01428 -12.64178,-2.58394 -21.52578,-9.14643 -29.34022,-19.62837 1.95092,13.61072 9.65961,22.28502 19.62838,29.3402 9.88677,6.99712 17.44491,15.84423 19.46918,28.2485 -12.13445,-6.98342 -23.36738,-8.58055 -33.98009,-6.52763 -12.66831,2.45055 -23.38601,-0.19793 -34.61691,-6.89154 7.01102,11.82809 17.45311,16.87965 29.36299,19.58289 11.80719,2.67992 22.15418,7.97344 28.77159,18.65037 -13.87334,-1.80306 -24.85149,1.02746 -33.86634,6.98257 -10.76623,7.11196 -21.70215,8.755 -34.63966,6.86876 11.00372,8.24474 22.60191,8.92904 34.63966,6.86881 11.93803,-2.04317 23.52829,-1.12954 33.72988,6.20919 -13.51696,3.64212 -22.58281,10.46823 -28.63513,19.42368 -7.22508,10.69069 -16.68846,16.37457 -29.36299,19.58292 13.32124,3.4062 24.28389,-0.38152 34.61691,-6.89156 10.24203,-6.45273 21.29939,-10.05503 33.52518,-7.1872 -11.09011,8.53681 -16.85017,18.32022 -19.01427,28.90808 -2.58392,12.64176 -9.14641,21.52582 -19.62838,29.34014 13.61072,-1.9508 22.28505,-9.65946 29.34022,-19.62831 6.99713,-9.88678 15.84422,-17.44492 28.24849,-19.46915 -6.98343,12.13443 -8.58056,23.36743 -6.52761,33.98004 2.45054,12.66833 -0.19793,23.386 -6.89156,34.61687 11.82809,-7.01095 16.87965,-17.45306 19.5829,-29.36288 2.68212,-11.8169 7.97853,-22.17769 18.67314,-28.79438 -1.80985,13.88476 1.00146,24.89214 6.95975,33.91182 7.11198,10.76622 8.755,21.67944 6.8688,34.61689 8.24472,-11.0037 8.92906,-22.57911 6.8688,-34.61689 -2.04319,-11.93808 -1.108,-23.54976 6.23196,-33.75262 3.64269,13.50958 10.44886,22.60777 19.40093,28.65791 10.69067,7.22509 16.37458,16.66569 19.58289,29.34015 3.40622,-13.32117 -0.38143,-24.26111 -6.89153,-34.59415 -6.4565,-10.24793 -10.04213,-21.33478 -7.16447,-33.57064 8.53605,11.0909 18.29746,16.87293 28.88535,19.03703 12.64177,2.58386 21.52579,9.14643 29.34022,19.62832 -1.95093,-13.61073 -9.65958,-22.285 -19.62839,-29.34014 -9.88676,-6.9971 -17.4234,-15.86575 -19.44643,-28.27127 12.12819,6.97705 23.34906,8.60247 33.95732,6.55038 12.66831,-2.45057 23.38608,0.19795 34.61692,6.89156 -7.01102,-11.82812 -17.45308,-16.87968 -29.36298,-19.58291 -11.80719,-2.67992 -22.13209,-7.99457 -28.74885,-18.67313 13.86352,1.79789 24.85636,-1.00791 33.86636,-6.95975 10.76619,-7.11198 21.67944,-8.75501 34.6169,-6.8688 -11.00372,-8.24474 -22.57915,-8.92906 -34.6169,-6.86877 -11.93804,2.04317 -23.54982,1.10797 -33.75265,-6.23198 13.5095,-3.64273 22.60786,-10.44889 28.65789,-19.40096 7.22506,-10.69066 16.66574,-16.37456 29.34023,-19.58289 -13.32122,-3.40618 -24.26115,0.38147 -34.59415,6.89154 -10.24801,6.45649 -21.33482,10.04215 -33.57069,7.16446 11.09088,-8.53601 16.87293,-18.29746 19.03703,-28.88532 2.58392,-12.64179 9.14644,-21.52579 19.62839,-29.34021 -13.61073,1.9509 -22.28506,9.65957 -29.34022,19.62839 -6.99714,9.88674 -15.86577,17.42338 -28.27126,19.44642 6.977,-12.12821 8.60246,-23.34909 6.55038,-33.95734 -2.45056,-12.66833 0.19794,-23.38605 6.89153,-34.61691 -11.82807,7.011 -16.87965,17.45308 -19.58289,29.36296 -2.67857,11.80117 -7.98275,22.13168 -18.65036,28.74889 1.79708,-13.86274 -1.03069,-24.83364 -6.98253,-33.84364 -7.11199,-10.7662 -8.75505,-21.70214 -6.8688,-34.63965 z"
       id="use3034"
       inkscape:connector-curvature="0"
       style="fill:#ff8800" />
  </g>
  <g
     inkscape:groupmode="layer"
     id="layer1"
     inkscape:label="Cover"
     style="display:inline"
     sodipodi:insensitive="true">
    <path
       d="m 2,2 v 257 c 0,286 298,398 298,398 0,0 298,-112 298,-398 V 2 z"
       id="shine"
       inkscape:connector-curvature="0"
       style="fill:url(#radialGradient3074);stroke:#000000;stroke-width:3" />
  </g>
</svg>
