<?xml version="1.0" encoding="UTF-8" standalone="no"?>
<svg
   xmlns:dc="http://purl.org/dc/elements/1.1/"
   xmlns:cc="http://creativecommons.org/ns#"
   xmlns:rdf="http://www.w3.org/1999/02/22-rdf-syntax-ns#"
   xmlns:svg="http://www.w3.org/2000/svg"
   xmlns="http://www.w3.org/2000/svg"
   xmlns:xlink="http://www.w3.org/1999/xlink"
   xmlns:sodipodi="http://sodipodi.sourceforge.net/DTD/sodipodi-0.dtd"
   xmlns:inkscape="http://www.inkscape.org/namespaces/inkscape"
   width="600"
   height="660"
   id="svg2"
   version="1.1"
   inkscape:version="0.48.2 r9819"
   sodipodi:docname="House_Stackspear.svg">
  <metadata
     id="metadata24">
    <rdf:RDF>
      <cc:Work
         rdf:about="">
        <dc:format>image/svg+xml</dc:format>
        <dc:type
           rdf:resource="http://purl.org/dc/dcmitype/StillImage" />
        <dc:title></dc:title>
      </cc:Work>
    </rdf:RDF>
  </metadata>
  <sodipodi:namedview
     pagecolor="#ffffff"
     bordercolor="#666666"
     borderopacity="1"
     objecttolerance="10"
     gridtolerance="10"
     guidetolerance="10"
     inkscape:pageopacity="0"
     inkscape:pageshadow="2"
     inkscape:window-width="1366"
     inkscape:window-height="715"
     id="namedview22"
     showgrid="false"
     inkscape:zoom="0.5056885"
     inkscape:cx="-187.13742"
     inkscape:cy="465.50252"
     inkscape:window-x="-8"
     inkscape:window-y="-8"
     inkscape:window-maximized="1"
     inkscape:current-layer="layer2" />
  <defs
     id="defs4">
    <radialGradient
       id="rg"
       gradientUnits="userSpaceOnUse"
       cx="220"
       cy="220"
       r="405">
      <stop
         style="stop-color:#fff;stop-opacity:.3"
         offset="0"
         id="stop7" />
      <stop
         style="stop-color:#fff;stop-opacity:.2"
         offset=".2"
         id="stop9" />
      <stop
         style="stop-color:#666;stop-opacity:.1"
         offset=".6"
         id="stop11" />
      <stop
         style="stop-color:#000;stop-opacity:.13"
         offset="1"
         id="stop13" />
    </radialGradient>
    <path
       id="shield"
       d="m2,2v257c0,286 298,398 298,398c0,0 298-112 298-398V2z" />
    <radialGradient
       inkscape:collect="always"
       xlink:href="#rg-7"
       id="radialGradient3055-1"
       gradientUnits="userSpaceOnUse"
       cx="220"
       cy="220"
       r="405" />
    <radialGradient
       id="rg-7"
       gradientUnits="userSpaceOnUse"
       cx="220"
       cy="220"
       r="405">
      <stop
         style="stop-color:#fff;stop-opacity:.3"
         offset="0"
         id="stop7-4" />
      <stop
         style="stop-color:#fff;stop-opacity:.2"
         offset=".2"
         id="stop9-0" />
      <stop
         style="stop-color:#666;stop-opacity:.1"
         offset=".6"
         id="stop11-9" />
      <stop
         style="stop-color:#000;stop-opacity:.13"
         offset="1"
         id="stop13-4" />
    </radialGradient>
    <radialGradient
       r="405"
       cy="220"
       cx="220"
       gradientUnits="userSpaceOnUse"
       id="radialGradient3074"
       xlink:href="#rg-7"
       inkscape:collect="always" />
    <inkscape:path-effect
       is_visible="true"
       id="path-effect10120-1"
       effect="spiro" />
    <inkscape:path-effect
       effect="spiro"
       id="path-effect10118-3"
       is_visible="true" />
    <inkscape:path-effect
       effect="spiro"
       id="path-effect10116-9"
       is_visible="true" />
    <inkscape:path-effect
       effect="spiro"
       id="path-effect10114-7"
       is_visible="true" />
    <inkscape:path-effect
       effect="spiro"
       id="path-effect10112-7"
       is_visible="true" />
    <inkscape:path-effect
       effect="spiro"
       id="path-effect10110-2"
       is_visible="true" />
    <linearGradient
       inkscape:collect="always"
       xlink:href="#linearGradient4719-5"
       id="linearGradient4039"
       gradientUnits="userSpaceOnUse"
       gradientTransform="matrix(2.3257341,0,0,2.2943177,447.69485,-1820.2799)"
       x1="-145.25935"
       y1="984.24286"
       x2="-64.14286"
       y2="984.14789" />
    <linearGradient
       inkscape:collect="always"
       id="linearGradient4719-5">
      <stop
         style="stop-color:#666666;stop-opacity:1;"
         offset="0"
         id="stop4721-5" />
      <stop
         id="stop4809-1"
         offset="0.39344174"
         style="stop-color:#666666;stop-opacity:0.74901961;" />
      <stop
         style="stop-color:#666666;stop-opacity:0;"
         offset="1"
         id="stop4723-7" />
    </linearGradient>
    <radialGradient
       inkscape:collect="always"
       xlink:href="#linearGradient4801-8"
       id="radialGradient4041"
       gradientUnits="userSpaceOnUse"
       gradientTransform="matrix(-0.72153181,1.2650715,-2.2729984,-1.2616144,1712.0113,1733.7841)"
       cx="-307.14288"
       cy="782.36218"
       fx="-307.14288"
       fy="782.36218"
       r="63" />
    <linearGradient
       inkscape:collect="always"
       id="linearGradient4801-8">
      <stop
         style="stop-color:#000000;stop-opacity:1;"
         offset="0"
         id="stop4803-2" />
      <stop
         style="stop-color:#000000;stop-opacity:0;"
         offset="1"
         id="stop4805-4" />
    </linearGradient>
    <inkscape:path-effect
       effect="spiro"
       id="path-effect10108-4"
       is_visible="true" />
    <linearGradient
       inkscape:collect="always"
       xlink:href="#linearGradient4719-5"
       id="linearGradient4044"
       gradientUnits="userSpaceOnUse"
       gradientTransform="matrix(-2.4055369,0,0,-1.6485021,142.06168,1726.5307)"
       x1="-145.25935"
       y1="984.24286"
       x2="-64.14286"
       y2="984.14789" />
    <radialGradient
       inkscape:collect="always"
       xlink:href="#linearGradient4801-8"
       id="radialGradient4046"
       gradientUnits="userSpaceOnUse"
       gradientTransform="matrix(0.74628962,-0.90897301,2.3509914,0.90648896,-1165.637,-827.11785)"
       cx="-307.14288"
       cy="782.36218"
       fx="-307.14288"
       fy="782.36218"
       r="63" />
    <inkscape:path-effect
       effect="spiro"
       id="path-effect10102-7"
       is_visible="true" />
    <linearGradient
       inkscape:collect="always"
       xlink:href="#linearGradient4719-5"
       id="linearGradient4049"
       gradientUnits="userSpaceOnUse"
       gradientTransform="matrix(2.334989,0,0,-1.6146975,449.44065,1692.189)"
       x1="-145.25935"
       y1="984.24286"
       x2="-64.14286"
       y2="984.14789" />
    <radialGradient
       inkscape:collect="always"
       xlink:href="#linearGradient4801-8"
       id="radialGradient4051"
       gradientUnits="userSpaceOnUse"
       gradientTransform="matrix(-0.72440295,-0.89033332,-2.2820431,0.88790031,1718.7881,-809.09364)"
       cx="-307.14288"
       cy="782.36218"
       fx="-307.14288"
       fy="782.36218"
       r="63" />
    <inkscape:path-effect
       is_visible="true"
       id="path-effect10096-8"
       effect="spiro" />
    <linearGradient
       inkscape:collect="always"
       xlink:href="#linearGradient4719-5"
       id="linearGradient4054"
       gradientUnits="userSpaceOnUse"
       gradientTransform="matrix(-2.409599,0,0,2.2818507,139.61083,-1810.8163)"
       x1="-145.25935"
       y1="984.24286"
       x2="-64.14286"
       y2="984.14789" />
    <radialGradient
       inkscape:collect="always"
       xlink:href="#linearGradient4801-8"
       id="radialGradient4056"
       gradientUnits="userSpaceOnUse"
       gradientTransform="matrix(0.74754985,1.2581972,2.3549614,-1.2547588,-1170.296,1723.935)"
       cx="-307.14288"
       cy="782.36218"
       fx="-307.14288"
       fy="782.36218"
       r="63" />
    <inkscape:path-effect
       is_visible="true"
       id="path-effect10090-3"
       effect="spiro" />
    <inkscape:path-effect
       effect="spiro"
       id="path-effect10084-1"
       is_visible="true" />
    <inkscape:path-effect
       effect="spiro"
       id="path-effect10082-1"
       is_visible="true" />
    <radialGradient
       inkscape:collect="always"
       xlink:href="#linearGradient4801-8"
       id="radialGradient4061"
       gradientUnits="userSpaceOnUse"
       gradientTransform="matrix(-0.76516322,1.2901254,-2.4104477,-1.2865998,1806.8444,1757.4704)"
       cx="-307.14288"
       cy="782.36218"
       fx="-307.14288"
       fy="782.36218"
       r="63" />
    <inkscape:path-effect
       effect="spiro"
       id="path-effect10080-4"
       is_visible="true" />
  </defs>
  <g
     inkscape:groupmode="layer"
     id="layer2"
     inkscape:label="Elements"
     style="display:inline">
    <path
       d="m 2,2 v 257 c 0,286 298,398 298,398 0,0 298,-112 298,-398 V 2 z"
       id="background"
       inkscape:connector-curvature="0"
       style="fill:#000000;display:inline" />
    <path
       inkscape:connector-curvature="0"
       style="fill:#ffdd00;stroke:none;display:inline"
       d="m 2.4375,2 0,33.0625 33.0625,0 L 35.5,2 2.4375,2 z M 35.5,35.0625 l 0,33.0625 33.0625,0 0,-33.0625 -33.0625,0 z m 33.0625,0 33.0625,0 0,-33.0625 -33.0625,0 0,33.0625 z m 33.0625,0 0,33.0625 33.0625,0 0,-33.0625 -33.0625,0 z m 33.0625,0 33.0625,0 0,-33.0625 -33.0625,0 0,33.0625 z m 33.0625,0 0,33.0625 33.0625,0 0,-33.0625 -33.0625,0 z m 33.0625,0 33.0625,0 0,-33.0625 -33.0625,0 0,33.0625 z m 33.0625,0 0,33.0625 33.0625,0 0,-33.0625 -33.0625,0 z m 33.0625,0 33.0625,0 L 300,2 l -33.0625,0 0,33.0625 z m 33.0625,0 0,33.0625 33.0625,0 0,-33.0625 -33.0625,0 z m 33.0625,0 33.0625,0 0,-33.0625 -33.0625,0 0,33.0625 z m 33.0625,0 0,33.0625 33.0625,0 0,-33.0625 -33.0625,0 z m 33.0625,0 33.0625,0 0,-33.0625 -33.0625,0 0,33.0625 z m 33.0625,0 0,33.0625 33.0625,0 0,-33.0625 -33.0625,0 z m 33.0625,0 33.0625,0 0,-33.0625 -33.0625,0 0,33.0625 z m 33.0625,0 0,33.0625 33.0625,0 0,-33.0625 -33.0625,0 z m 33.0625,0 33.0625,0 0,-33.0625 -33.0625,0 0,33.0625 z m 33.0625,0 0,33.0625 33.0625,0 0,-33.0625 -33.0625,0 z m 0,33.0625 -33.0625,0 0,33.0625 33.0625,0 0,-33.0625 z m 0,33.0625 0,33.03125 33.0625,0 0,-33.03125 -33.0625,0 z m -33.0625,0 -33.0625,0 0,33.03125 33.0625,0 0,-33.03125 z m -33.0625,0 0,-33.0625 -33.0625,0 0,33.0625 33.0625,0 z m -33.0625,0 -33.0625,0 0,33.03125 33.0625,0 0,-33.03125 z m -33.0625,0 0,-33.0625 -33.0625,0 0,33.0625 33.0625,0 z m -33.0625,0 -33.0625,0 0,33.03125 33.0625,0 0,-33.03125 z m -33.0625,0 0,-33.0625 -33.0625,0 0,33.0625 33.0625,0 z m -33.0625,0 -33.0625,0 0,33.03125 33.0625,0 0,-33.03125 z m -33.0625,0 0,-33.0625 -33.0625,0 0,33.0625 33.0625,0 z m -33.0625,0 -33.0625,0 0,33.03125 33.0625,0 0,-33.03125 z m -33.0625,0 0,-33.0625 -33.0625,0 0,33.0625 33.0625,0 z m -33.0625,0 -33.0625,0 0,33.03125 33.0625,0 0,-33.03125 z m -33.0625,0 0,-33.0625 -33.0625,0 0,33.0625 33.0625,0 z m -33.0625,0 -33.0625,0 0,33.03125 33.0625,0 0,-33.03125 z m -33.0625,0 0,-33.0625 -33.0625,0 0,33.0625 33.0625,0 z m -33.0625,0 -33.0625,0 0,33.03125 33.0625,0 0,-33.03125 z m -33.0625,0 0,-33.0625 -33.0625,0 0,33.0625 33.0625,0 z M 2.4375,134.25 l 0,33.0625 33.0625,0 0,33.03125 33.0625,0 0,-33.03125 33.0625,0 0,33.03125 33.0625,0 0,-33.03125 33.0625,0 0,33.03125 33.0625,0 0,-33.03125 33.0625,0 0,33.03125 33.0625,0 0,-33.03125 33.0625,0 0,33.03125 33.0625,0 0,-33.03125 33.0625,0 0,33.03125 33.0625,0 0,-33.03125 33.0625,0 0,33.03125 33.0625,0 0,-33.03125 33.0625,0 0,33.03125 33.0625,0 0,-33.03125 33.0625,0 0,33.03125 33.0625,0 0,-33.0625 -33.0625,0 0,-33.03125 -33.0625,0 0,33.03125 -33.0625,0 0,-33.03125 -33.0625,0 0,33.03125 -33.0625,0 0,-33.03125 -33.0625,0 0,33.03125 -33.0625,0 0,-33.03125 -33.0625,0 0,33.03125 -33.0625,0 0,-33.03125 -33.0625,0 0,33.03125 -33.0625,0 0,-33.03125 -33.0625,0 0,33.03125 -33.0625,0 0,-33.03125 -33.0625,0 0,33.03125 -33.0625,0 0,-33.03125 -33.0625,0 0,33.03125 -33.0625,0 0,-33.03125 -33.0625,0 z m 0,66.125 0,33.0625 33.0625,0 0,-33.0625 -33.0625,0 z m 33.0625,33.0625 0,33.03125 33.0625,0 0,-33.03125 -33.0625,0 z m 33.0625,0 33.0625,0 0,-33.0625 -33.0625,0 0,33.0625 z m 33.0625,0 0,33.03125 33.0625,0 0,-33.03125 -33.0625,0 z m 33.0625,0 33.0625,0 0,-33.0625 -33.0625,0 0,33.0625 z m 33.0625,0 0,33.03125 33.0625,0 0,-33.03125 -33.0625,0 z m 33.0625,0 33.0625,0 0,-33.0625 -33.0625,0 0,33.0625 z m 33.0625,0 0,33.03125 33.0625,0 0,-33.03125 -33.0625,0 z m 33.0625,0 33.0625,0 0,-33.0625 -33.0625,0 0,33.0625 z m 33.0625,0 0,33.03125 33.0625,0 0,-33.03125 -33.0625,0 z m 33.0625,0 33.0625,0 0,-33.0625 -33.0625,0 0,33.0625 z m 33.0625,0 0,33.03125 33.0625,0 0,-33.03125 -33.0625,0 z m 33.0625,0 33.0625,0 0,-33.0625 -33.0625,0 0,33.0625 z m 33.0625,0 0,33.03125 33.0625,0 0,-33.03125 -33.0625,0 z m 33.0625,0 33.0625,0 0,-33.0625 -33.0625,0 0,33.0625 z m 33.0625,0 0,33.03125 33.0625,0 0,-33.03125 -33.0625,0 z m 33.0625,0 33.0625,0 0,-33.0625 -33.0625,0 0,33.0625 z m 33.0625,0 0,33.03125 33.0625,0 0,-33.03125 -33.0625,0 z M 2.4375,266.5 l 0,11.5 c 0.3434024,7.29936 0.9005342,14.49965 1.625,21.5625 l 31.4375,0 0,33.03125 33.0625,0 0,-33.03125 33.0625,0 0,33.03125 33.0625,0 0,-33.03125 33.0625,0 0,33.03125 33.0625,0 0,-33.03125 33.0625,0 0,33.03125 33.0625,0 0,-33.03125 33.0625,0 0,33.03125 33.0625,0 0,-33.03125 33.0625,0 0,33.03125 33.0625,0 0,-33.03125 33.0625,0 0,33.03125 33.0625,0 0,-33.03125 33.0625,0 0,33.03125 33.0625,0 0,-33.03125 33.0625,0 0,33.03125 26.5625,0 c 2.06911,-10.72685 3.714,-21.73482 4.875,-33.0625 l -31.4375,0 0,-33.03125 -33.0625,0 0,33.03125 -33.0625,0 0,-33.03125 -33.0625,0 0,33.03125 -33.0625,0 0,-33.03125 -33.0625,0 0,33.03125 -33.0625,0 0,-33.03125 -33.0625,0 0,33.03125 -33.0625,0 0,-33.03125 -33.0625,0 0,33.03125 -33.0625,0 0,-33.03125 -33.0625,0 0,33.03125 -33.0625,0 0,-33.03125 -33.0625,0 0,33.03125 -33.0625,0 0,-33.03125 -33.0625,0 0,33.03125 -33.0625,0 0,-33.03125 -33.0625,0 z m 6.5,66.125 c 2.190165,11.34942 4.864297,22.37509 7.96875,33.0625 l 18.59375,0 0,-33.0625 -26.5625,0 z m 26.5625,33.0625 0,33.03125 33.0625,0 0,-33.03125 -33.0625,0 z m 33.0625,0 33.0625,0 0,-33.0625 -33.0625,0 0,33.0625 z m 33.0625,0 0,33.03125 33.0625,0 0,-33.03125 -33.0625,0 z m 33.0625,0 33.0625,0 0,-33.0625 -33.0625,0 0,33.0625 z m 33.0625,0 0,33.03125 33.0625,0 0,-33.03125 -33.0625,0 z m 33.0625,0 33.0625,0 0,-33.0625 -33.0625,0 0,33.0625 z m 33.0625,0 0,33.03125 33.0625,0 0,-33.03125 -33.0625,0 z m 33.0625,0 33.0625,0 0,-33.0625 -33.0625,0 0,33.0625 z m 33.0625,0 0,33.03125 33.0625,0 0,-33.03125 -33.0625,0 z m 33.0625,0 33.0625,0 0,-33.0625 -33.0625,0 0,33.0625 z m 33.0625,0 0,33.03125 33.0625,0 0,-33.03125 -33.0625,0 z m 33.0625,0 33.0625,0 0,-33.0625 -33.0625,0 0,33.0625 z m 33.0625,0 0,33.03125 33.0625,0 0,-33.03125 -33.0625,0 z m 33.0625,0 33.0625,0 0,-33.0625 -33.0625,0 0,33.0625 z m 33.0625,0 0,33.03125 33.0625,0 0,-33.03125 -33.0625,0 z m 33.0625,0 33.0625,0 0,-33.0625 -33.0625,0 0,33.0625 z m 33.0625,0 0,33.03125 7.28125,0 c 4.21944,-10.64282 8.00666,-21.65055 11.3125,-33.03125 l -18.59375,0 z M 28.21875,398.75 c 2.299819,5.79958 4.73928,11.47902 7.28125,17.0625 l 0,-17.0625 -7.28125,0 z m 40.34375,0 0,33.03125 -25.34375,0 c 5.900035,11.5021 12.293008,22.52487 19.0625,33.0625 l 6.28125,0 0,-33.03125 33.0625,0 0,33.03125 33.0625,0 0,-33.03125 33.0625,0 0,33.03125 33.0625,0 0,-33.03125 33.0625,0 0,33.03125 33.0625,0 0,-33.03125 33.0625,0 0,33.03125 33.0625,0 0,-33.03125 33.0625,0 0,33.03125 33.0625,0 0,-33.03125 33.0625,0 0,33.03125 33.0625,0 0,-33.03125 33.0625,0 0,33.03125 33.0625,0 0,-33.03125 25.34375,0 c 2.68249,-5.22856 5.24619,-10.56897 7.71875,-16 l 0,-17.0625 -33.0625,0 0,33.03125 -33.0625,0 0,-33.03125 -33.0625,0 0,33.03125 -33.0625,0 0,-33.03125 -33.0625,0 0,33.03125 -33.0625,0 0,-33.03125 -33.0625,0 0,33.03125 -33.0625,0 0,-33.03125 -33.0625,0 0,33.03125 -33.0625,0 0,-33.03125 -33.0625,0 0,33.03125 -33.0625,0 0,-33.03125 -33.0625,0 0,33.03125 -33.0625,0 0,-33.03125 -33.0625,0 z m 0,66.125 0,9.46875 c 5.572591,8.16426 11.373104,16.02566 17.34375,23.59375 l 15.71875,0 0,-33.0625 -33.0625,0 z m 33.0625,33.0625 0,18.84375 c 4.29177,4.86575 8.66417,9.59601 13.0625,14.1875 l 20,0 0,-33.03125 -33.0625,0 z m 33.0625,0 33.0625,0 0,-33.0625 -33.0625,0 0,33.0625 z m 33.0625,0 0,33.03125 33.0625,0 0,-33.03125 -33.0625,0 z m 33.0625,0 33.0625,0 0,-33.0625 -33.0625,0 0,33.0625 z m 33.0625,0 0,33.03125 33.0625,0 0,-33.03125 -33.0625,0 z m 33.0625,0 33.0625,0 0,-33.0625 -33.0625,0 0,33.0625 z m 33.0625,0 0,33.03125 33.0625,0 0,-33.03125 -33.0625,0 z m 33.0625,0 33.0625,0 0,-33.0625 -33.0625,0 0,33.0625 z m 33.0625,0 0,33.03125 33.0625,0 0,-33.03125 -33.0625,0 z m 33.0625,0 33.0625,0 0,-33.0625 -33.0625,0 0,33.0625 z m 33.0625,0 0,33.03125 33.0625,0 0,-33.03125 -33.0625,0 z m 33.0625,0 33.0625,0 0,-33.0625 -33.0625,0 0,33.0625 z m 33.0625,0 0,18.84375 c 5.35124,-6.0669 10.59128,-12.34443 15.71875,-18.84375 l -15.71875,0 z m 33.0625,-33.0625 0,9.46875 c 2.12855,-3.11849 4.22104,-6.26221 6.28125,-9.46875 l -6.28125,0 z m -396.75,66.125 0,19.65625 c 4.97253,4.63171 9.96964,9.09927 14.96875,13.40625 l 18.09375,0 0,14.9375 c 8.18651,6.45615 16.30076,12.48611 24.25,18.09375 l 8.8125,0 0,-33.03125 33.0625,0 0,33.03125 33.0625,0 0,-33.03125 33.0625,0 0,33.03125 33.0625,0 0,-33.03125 33.0625,0 0,33.03125 33.0625,0 0,-33.03125 33.0625,0 0,14.9375 c 6.03149,-4.75663 12.09076,-9.74168 18.15625,-14.96875 l -18.15625,0 0,-33.03125 -33.0625,0 0,33.03125 -33.0625,0 0,-33.03125 -33.0625,0 0,33.03125 -33.0625,0 0,-33.03125 -33.0625,0 0,33.03125 -33.0625,0 0,-33.03125 -33.0625,0 0,33.03125 -33.0625,0 0,-33.03125 -33.0625,0 z m 330.625,0 0,19.65625 C 472.03041,544.39879 478.70844,537.86021 485.28125,531 l -19.96875,0 z m -264.5,66.125 0,6.03125 c 11.59413,7.8646 22.70659,14.80604 33.0625,20.875 l 0,-26.90625 -33.0625,0 z m 66.125,0 0,33.0625 33.0625,0 0,-33.0625 -33.0625,0 z M 300,630.1875 300,657 c 0,0 12.80374,-4.81643 33.0625,-14.96875 l 0,-11.84375 -33.0625,0 z m 33.0625,0 22.3125,0 c 3.47626,-1.94046 7.05986,-3.99369 10.75,-6.15625 l 0,-26.90625 -33.0625,0 0,33.0625 z m -66.125,0 -22.3125,0 c 8.1272,4.53663 15.62585,8.49286 22.3125,11.84375 l 0,-11.84375 z m 132.25,-33.0625 0,6.03125 c 2.88463,-1.95672 5.81415,-3.96073 8.75,-6.03125 l -8.75,0 z"
       id="path3521" />
    <path
       style="fill:#000000;display:inline"
       inkscape:connector-curvature="0"
       id="inescutcheon"
       d="m 100,100 0,159 C 100,424.40588 234.8926,515.01826 300,549.1543 365.1074,515.01826 500,424.40588 500,259 l 0,-159 -400,0 z" />
    <path
       id="path21"
       d="m 416.90834,409.5911 c 0.0259,0.082 3.67613,4.52047 0.46359,7.73301 -2.78577,2.78577 -6.6855,0.45656 -7.64143,-0.2252 l -248.31752,-248.32049 7.36281,-7.36281 248.13304,248.17501 z"
       inkscape:connector-curvature="0"
       style="fill:#ffdd00;stroke:#000000" />
    <path
       style="fill:#ffdd00;stroke:#000000"
       id="path23"
       d="m 152.71849,158.61593 8.26772,10.5332 8.34272,-8.34272 -10.4214,-8.19188 -6.18904,6.0014 z"
       inkscape:connector-curvature="0" />
    <path
       id="path25"
       d="m 112.53252,112.64039 0.3565,0.3565 23.31755,43.74283 c 0,0 2.41899,-2.4274 7.02022,-2.32937 4.60132,0.0981 7.34253,2.45196 7.34253,2.45196 l 3.09256,-3.09256 0.10788,-0.10788 3.09256,-3.09256 c 0,0 -2.37185,-2.72322 -2.46995,-7.32454 -0.0981,-4.60131 2.34735,-7.0382 2.34735,-7.0382 l -43.74282,-23.31756 -0.3565,-0.3565 0.11495,0.22279 -0.22285,-0.11489 z"
       inkscape:connector-curvature="0"
       style="fill:#ffdd00;stroke:none" />
    <path
       id="path27"
       d="m 112.64062,112.5332 0.11524,0.22266 -0.22266,-0.11524 0.35547,0.35547 18.39649,34.50977 c 1.27455,2.92138 2.5586,6.49606 2.42482,8.12878 -0.23417,2.85788 -0.0352,5.2218 1.31148,4.18306 1.08451,-0.83656 0.82999,-2.33824 0.0274,-5.24934 -0.25629,-0.92955 -0.22347,-1.93373 -0.34571,-2.77539 -0.38862,-2.67584 -2.19823,-4.84351 -2.29101,-7.79297 -0.10858,-3.45159 4.63132,-0.68551 5.24508,1.45891 0.85543,2.9888 0.99573,4.6664 1.335,7.79304 0.23428,2.15904 -0.17311,2.61324 0.6636,4.27368 0.72622,1.44118 2.17897,1.02361 2.54926,0.17084 0.5525,-1.27239 -0.33923,-3.10782 -0.46872,-4.89374 -0.16179,-2.23144 0.96291,-12.98292 2.9707,-6.87109 0.79633,2.42407 4.49512,8.07645 5.74609,4.13867 0.72561,-2.28404 1.82646,-8.45032 3.23829,-5.2832 0.38512,0.86395 0.86096,1.6917 1.4082,2.42773 -0.37359,-1.09382 -0.67386,-2.41459 -0.70703,-3.9707 -0.0981,-4.60131 2.34765,-7.03711 2.34765,-7.03711 l -43.74414,-23.31836 z"
       inkscape:connector-curvature="0"
       style="fill:#cc0000;stroke:none" />
    <path
       id="path29"
       d="m 122.23451,122.14305 31.52526,31.52527"
       inkscape:connector-curvature="0"
       style="fill:none;stroke:#000000" />
    <path
       style="fill:#ffdd00;stroke:#000000"
       id="path31"
       d="m 150.23561,157.19246 7.04833,-7.04832 c 0.54239,-0.5424 1.4157,-0.5424 1.95809,0 0.54239,0.54239 0.54239,1.41569 0,1.95809 l -7.04833,7.04832 c -0.54239,0.5424 -1.4157,0.5424 -1.95809,1e-5 -0.54239,-0.5424 -0.54239,-1.4157 0,-1.9581 z"
       inkscape:connector-curvature="0" />
  </g>
  <g
     inkscape:groupmode="layer"
     id="layer1"
     inkscape:label="Cover"
     style="display:inline"
     sodipodi:insensitive="true">
    <path
       d="m 2,2 v 257 c 0,286 298,398 298,398 0,0 298,-112 298,-398 V 2 z"
       id="shine"
       inkscape:connector-curvature="0"
       style="fill:url(#radialGradient3074);stroke:#000000;stroke-width:3" />
  </g>
</svg>
