<?xml version="1.0" encoding="UTF-8" standalone="no"?>
<svg
   xmlns:dc="http://purl.org/dc/elements/1.1/"
   xmlns:cc="http://creativecommons.org/ns#"
   xmlns:rdf="http://www.w3.org/1999/02/22-rdf-syntax-ns#"
   xmlns:svg="http://www.w3.org/2000/svg"
   xmlns="http://www.w3.org/2000/svg"
   xmlns:xlink="http://www.w3.org/1999/xlink"
   xmlns:sodipodi="http://sodipodi.sourceforge.net/DTD/sodipodi-0.dtd"
   xmlns:inkscape="http://www.inkscape.org/namespaces/inkscape"
   width="600"
   height="660"
   id="svg2"
   version="1.1"
   inkscape:version="0.48.2 r9819"
   sodipodi:docname="House_Payne.svg">
  <metadata
     id="metadata24">
    <rdf:RDF>
      <cc:Work
         rdf:about="">
        <dc:format>image/svg+xml</dc:format>
        <dc:type
           rdf:resource="http://purl.org/dc/dcmitype/StillImage" />
        <dc:title></dc:title>
      </cc:Work>
    </rdf:RDF>
  </metadata>
  <sodipodi:namedview
     pagecolor="#ffffff"
     bordercolor="#666666"
     borderopacity="1"
     objecttolerance="10"
     gridtolerance="10"
     guidetolerance="10"
     inkscape:pageopacity="0"
     inkscape:pageshadow="2"
     inkscape:window-width="1366"
     inkscape:window-height="715"
     id="namedview22"
     showgrid="false"
     inkscape:zoom="0.5056885"
     inkscape:cx="-87.215959"
     inkscape:cy="443.3378"
     inkscape:window-x="-8"
     inkscape:window-y="-8"
     inkscape:window-maximized="1"
     inkscape:current-layer="layer2" />
  <defs
     id="defs4">
    <radialGradient
       id="rg"
       gradientUnits="userSpaceOnUse"
       cx="220"
       cy="220"
       r="405">
      <stop
         style="stop-color:#fff;stop-opacity:.3"
         offset="0"
         id="stop7" />
      <stop
         style="stop-color:#fff;stop-opacity:.2"
         offset=".2"
         id="stop9" />
      <stop
         style="stop-color:#666;stop-opacity:.1"
         offset=".6"
         id="stop11" />
      <stop
         style="stop-color:#000;stop-opacity:.13"
         offset="1"
         id="stop13" />
    </radialGradient>
    <path
       id="shield"
       d="m2,2v257c0,286 298,398 298,398c0,0 298-112 298-398V2z" />
    <radialGradient
       inkscape:collect="always"
       xlink:href="#rg-7"
       id="radialGradient3055-1"
       gradientUnits="userSpaceOnUse"
       cx="220"
       cy="220"
       r="405" />
    <radialGradient
       id="rg-7"
       gradientUnits="userSpaceOnUse"
       cx="220"
       cy="220"
       r="405">
      <stop
         style="stop-color:#fff;stop-opacity:.3"
         offset="0"
         id="stop7-4" />
      <stop
         style="stop-color:#fff;stop-opacity:.2"
         offset=".2"
         id="stop9-0" />
      <stop
         style="stop-color:#666;stop-opacity:.1"
         offset=".6"
         id="stop11-9" />
      <stop
         style="stop-color:#000;stop-opacity:.13"
         offset="1"
         id="stop13-4" />
    </radialGradient>
    <radialGradient
       r="405"
       cy="220"
       cx="220"
       gradientUnits="userSpaceOnUse"
       id="radialGradient3074"
       xlink:href="#rg-7"
       inkscape:collect="always" />
    <inkscape:path-effect
       is_visible="true"
       id="path-effect10120-1"
       effect="spiro" />
    <inkscape:path-effect
       effect="spiro"
       id="path-effect10118-3"
       is_visible="true" />
    <inkscape:path-effect
       effect="spiro"
       id="path-effect10116-9"
       is_visible="true" />
    <inkscape:path-effect
       effect="spiro"
       id="path-effect10114-7"
       is_visible="true" />
    <inkscape:path-effect
       effect="spiro"
       id="path-effect10112-7"
       is_visible="true" />
    <inkscape:path-effect
       effect="spiro"
       id="path-effect10110-2"
       is_visible="true" />
    <linearGradient
       inkscape:collect="always"
       xlink:href="#linearGradient4719-5"
       id="linearGradient4039"
       gradientUnits="userSpaceOnUse"
       gradientTransform="matrix(2.3257341,0,0,2.2943177,447.69485,-1820.2799)"
       x1="-145.25935"
       y1="984.24286"
       x2="-64.14286"
       y2="984.14789" />
    <linearGradient
       inkscape:collect="always"
       id="linearGradient4719-5">
      <stop
         style="stop-color:#666666;stop-opacity:1;"
         offset="0"
         id="stop4721-5" />
      <stop
         id="stop4809-1"
         offset="0.39344174"
         style="stop-color:#666666;stop-opacity:0.74901961;" />
      <stop
         style="stop-color:#666666;stop-opacity:0;"
         offset="1"
         id="stop4723-7" />
    </linearGradient>
    <radialGradient
       inkscape:collect="always"
       xlink:href="#linearGradient4801-8"
       id="radialGradient4041"
       gradientUnits="userSpaceOnUse"
       gradientTransform="matrix(-0.72153181,1.2650715,-2.2729984,-1.2616144,1712.0113,1733.7841)"
       cx="-307.14288"
       cy="782.36218"
       fx="-307.14288"
       fy="782.36218"
       r="63" />
    <linearGradient
       inkscape:collect="always"
       id="linearGradient4801-8">
      <stop
         style="stop-color:#000000;stop-opacity:1;"
         offset="0"
         id="stop4803-2" />
      <stop
         style="stop-color:#000000;stop-opacity:0;"
         offset="1"
         id="stop4805-4" />
    </linearGradient>
    <inkscape:path-effect
       effect="spiro"
       id="path-effect10108-4"
       is_visible="true" />
    <linearGradient
       inkscape:collect="always"
       xlink:href="#linearGradient4719-5"
       id="linearGradient4044"
       gradientUnits="userSpaceOnUse"
       gradientTransform="matrix(-2.4055369,0,0,-1.6485021,142.06168,1726.5307)"
       x1="-145.25935"
       y1="984.24286"
       x2="-64.14286"
       y2="984.14789" />
    <radialGradient
       inkscape:collect="always"
       xlink:href="#linearGradient4801-8"
       id="radialGradient4046"
       gradientUnits="userSpaceOnUse"
       gradientTransform="matrix(0.74628962,-0.90897301,2.3509914,0.90648896,-1165.637,-827.11785)"
       cx="-307.14288"
       cy="782.36218"
       fx="-307.14288"
       fy="782.36218"
       r="63" />
    <inkscape:path-effect
       effect="spiro"
       id="path-effect10102-7"
       is_visible="true" />
    <linearGradient
       inkscape:collect="always"
       xlink:href="#linearGradient4719-5"
       id="linearGradient4049"
       gradientUnits="userSpaceOnUse"
       gradientTransform="matrix(2.334989,0,0,-1.6146975,449.44065,1692.189)"
       x1="-145.25935"
       y1="984.24286"
       x2="-64.14286"
       y2="984.14789" />
    <radialGradient
       inkscape:collect="always"
       xlink:href="#linearGradient4801-8"
       id="radialGradient4051"
       gradientUnits="userSpaceOnUse"
       gradientTransform="matrix(-0.72440295,-0.89033332,-2.2820431,0.88790031,1718.7881,-809.09364)"
       cx="-307.14288"
       cy="782.36218"
       fx="-307.14288"
       fy="782.36218"
       r="63" />
    <inkscape:path-effect
       is_visible="true"
       id="path-effect10096-8"
       effect="spiro" />
    <linearGradient
       inkscape:collect="always"
       xlink:href="#linearGradient4719-5"
       id="linearGradient4054"
       gradientUnits="userSpaceOnUse"
       gradientTransform="matrix(-2.409599,0,0,2.2818507,139.61083,-1810.8163)"
       x1="-145.25935"
       y1="984.24286"
       x2="-64.14286"
       y2="984.14789" />
    <radialGradient
       inkscape:collect="always"
       xlink:href="#linearGradient4801-8"
       id="radialGradient4056"
       gradientUnits="userSpaceOnUse"
       gradientTransform="matrix(0.74754985,1.2581972,2.3549614,-1.2547588,-1170.296,1723.935)"
       cx="-307.14288"
       cy="782.36218"
       fx="-307.14288"
       fy="782.36218"
       r="63" />
    <inkscape:path-effect
       is_visible="true"
       id="path-effect10090-3"
       effect="spiro" />
    <inkscape:path-effect
       effect="spiro"
       id="path-effect10084-1"
       is_visible="true" />
    <inkscape:path-effect
       effect="spiro"
       id="path-effect10082-1"
       is_visible="true" />
    <radialGradient
       inkscape:collect="always"
       xlink:href="#linearGradient4801-8"
       id="radialGradient4061"
       gradientUnits="userSpaceOnUse"
       gradientTransform="matrix(-0.76516322,1.2901254,-2.4104477,-1.2865998,1806.8444,1757.4704)"
       cx="-307.14288"
       cy="782.36218"
       fx="-307.14288"
       fy="782.36218"
       r="63" />
    <inkscape:path-effect
       effect="spiro"
       id="path-effect10080-4"
       is_visible="true" />
  </defs>
  <g
     inkscape:groupmode="layer"
     id="layer2"
     inkscape:label="Elements"
     style="display:inline">
    <path
       d="m 2,2 v 257 c 0,286 298,398 298,398 0,0 298,-112 298,-398 V 2 z"
       id="background"
       inkscape:connector-curvature="0"
       style="fill:#ffdd00;display:inline" />
    <path
       style="fill:#dddddd;display:inline"
       d="m 2,2 0,82.25 74.875,0 L 76.875,2 2,2 z m 74.875,82.25 0,81.75 74.375,0 0,-81.75 -74.375,0 z m 74.375,0 74.375,0 0,-82.25 -74.375,0 0,82.25 z m 74.375,0 0,81.75 74.375,0 0,-81.75 -74.375,0 z m 74.375,0 74.375,0 0,-82.25 -74.375,0 0,82.25 z m 74.375,0 0,81.75 74.375,0 0,-81.75 -74.375,0 z m 74.375,0 74.375,0 0,-82.25 -74.375,0 0,82.25 z m 74.375,0 0,81.75 74.375,0 0,-81.75 -74.375,0 z m 0,81.75 -74.375,0 0,81.75 74.375,0 0,-81.75 z m 0,81.75 0,81.75 68.53125,0 c 0.5116,-2.77796 0.98425,-5.589 1.4375,-8.40625 0.45325,-2.81725 0.88796,-5.64319 1.28125,-8.5 0.006,-0.0407 -0.006,-0.0842 0,-0.125 0.33782,-2.46195 0.67686,-4.94626 0.96875,-7.4375 0.0415,-0.35378 0.0845,-0.70812 0.125,-1.0625 0.0522,-0.4555 0.10563,-0.91851 0.15625,-1.375 0.11013,-0.99501 0.20976,-2.00028 0.3125,-3 0.15972,-1.55097 0.32701,-3.09392 0.46875,-4.65625 0.12475,-1.37822 0.23315,-2.76918 0.34375,-4.15625 0.0225,-0.28119 0.0406,-0.5622 0.0625,-0.84375 0.0363,-0.46733 0.0598,-0.93916 0.0937,-1.40625 0.16093,-2.21004 0.31046,-4.42289 0.4375,-6.65625 0.0536,-0.94057 0.10919,-1.89917 0.15625,-2.84375 l 0,-31.28125 -74.375,0 z m 0,81.75 -74.375,0 0,81.75 74.375,0 0,-81.75 z m 0,81.75 0,74.8125 c 0.21664,-0.29518 0.44018,-0.57898 0.65625,-0.875 0.34255,-0.46915 0.69013,-0.93499 1.03125,-1.40625 0.67217,-0.92901 1.33356,-1.87525 2,-2.8125 1.20293,-1.69102 2.41011,-3.40716 3.59375,-5.125 0.0213,-0.0309 0.0412,-0.063 0.0625,-0.0937 0.34325,-0.49845 0.68968,-0.99929 1.03125,-1.5 0.85865,-1.25949 1.71475,-2.5074 2.5625,-3.78125 0.23352,-0.35064 0.45482,-0.71077 0.6875,-1.0625 0.94223,-1.42544 1.88444,-2.86914 2.8125,-4.3125 0.13424,-0.20862 0.27231,-0.416 0.40625,-0.625 1.02263,-1.59691 2.0579,-3.19367 3.0625,-4.8125 0.0366,-0.0589 0.0572,-0.1286 0.0937,-0.1875 0.94476,-1.52417 1.88431,-3.05012 2.8125,-4.59375 0.0939,-0.15606 0.1875,-0.31249 0.28125,-0.46875 0.0622,-0.10373 0.1254,-0.20869 0.1875,-0.3125 0.9589,-1.60167 1.90336,-3.22113 2.84375,-4.84375 2.99875,-5.17842 5.89065,-10.45116 8.6875,-15.84375 0.93423,-1.80015 1.83987,-3.61325 2.75,-5.4375 1.81666,-3.6429 3.59624,-7.32355 5.3125,-11.0625 0.60812,-1.32483 1.2175,-2.66307 1.8125,-4 0.2441,-0.54848 0.4769,-1.10572 0.71875,-1.65625 l -43.40625,0 z m -74.375,0 -74.375,0 0,81.75 74.375,0 0,-81.75 z m 0,81.75 0,72.46875 C 472.62278,545.06676 496.4986,520.99695 517.9375,493 l -69.1875,0 z m -74.375,0 -74.375,0 0,81.75 74.375,0 0,-81.75 z m 0,81.75 0,44.375 c 5.67746,-3.45167 11.54393,-7.14142 17.5625,-11.09375 1.50464,-0.98808 3.00908,-2.01145 4.53125,-3.03125 1.38638,-0.92883 2.78778,-1.85722 4.1875,-2.8125 0.1346,-0.092 0.27152,-0.18898 0.40625,-0.28125 1.8472,-1.26298 3.72587,-2.56575 5.59375,-3.875 1.2278,-0.86208 2.4825,-1.74255 3.71875,-2.625 0.78378,-0.55868 1.58826,-1.12071 2.375,-1.6875 0.77848,-0.56165 1.56237,-1.14904 2.34375,-1.71875 1.25469,-0.91363 2.52017,-1.84701 3.78125,-2.78125 0.32004,-0.23739 0.64829,-0.48001 0.96875,-0.71875 1.7327,-1.28937 3.47609,-2.60908 5.21875,-3.9375 1.44516,-1.10268 2.92356,-2.21381 4.375,-3.34375 0.62359,-0.48516 1.25052,-0.97859 1.875,-1.46875 0.10413,-0.0818 0.20834,-0.16808 0.3125,-0.25 0.46236,-0.36365 0.91318,-0.75823 1.375,-1.125 1.51491,-1.20299 3.03707,-2.39119 4.5625,-3.625 l -63.1875,0 z m -74.375,0 -74.375,0 0,44.375 c 5.33692,3.24464 10.51643,6.28369 15.46875,9.09375 9.90464,5.62011 18.93057,10.381 26.8125,14.3125 7.80993,3.89559 14.46336,6.97877 19.65625,9.28125 0.10878,0.0482 0.20501,0.0774 0.3125,0.125 2.31336,1.02329 4.25134,1.85322 5.9375,2.5625 0.15728,0.0662 0.41095,0.15529 0.5625,0.21875 1.98276,0.82818 2.83902,1.17295 3.75,1.53125 0.15695,0.0626 0.36351,0.16476 0.5,0.21875 0.0152,0.006 0.0793,0.0257 0.0937,0.0312 l 1.28125,0 0,-81.75 z m 0,81.75 0,0.5 c 0,0 0.94812,-0.37088 1.28125,-0.5 L 300,656.5 z m -74.375,-81.75 0,-81.75 -74.375,0 0,72.46875 c 3.73586,3.19272 7.46146,6.2673 11.1875,9.28125 l 63.1875,0 z M 151.25,493 l 0,-81.75 -74.375,0 0,74.8125 0,0.0312 c 0.286662,0.39044 0.587361,0.76728 0.875,1.15625 1.045662,1.41433 2.097973,2.82388 3.15625,4.21875 0.134575,0.17737 0.271478,0.35419 0.40625,0.53125 0.25129,0.33014 0.498026,0.67095 0.75,1 l 69.1875,0 z m -74.375,-81.75 0,-81.75 -68.53125,0 c 5.422684,29.44472 14.103633,56.6627 25.125,81.75 l 43.40625,0 z m 0,-81.75 74.375,0 0,-81.75 -74.375,0 0,81.75 z m 0,-81.75 0,-81.75 -74.875,0 0,81.75 74.875,0 z m 74.375,0 74.375,0 0,-81.75 -74.375,0 0,81.75 z m 74.375,0 0,81.75 74.375,0 0,-81.75 -74.375,0 z m 74.375,0 74.375,0 0,-81.75 -74.375,0 0,81.75 z m 74.375,0 0,81.75 74.375,0 0,-81.75 -74.375,0 z m 0,81.75 -74.375,0 0,81.75 74.375,0 0,-81.75 z M 300,411.25 l -74.375,0 0,81.75 74.375,0 0,-81.75 z m -74.375,0 0,-81.75 -74.375,0 0,81.75 74.375,0 z m 297.1875,75.28125 c -1.58313,2.1497 -3.20136,4.27016 -4.8125,6.375 1.61257,-2.10699 3.22865,-4.22347 4.8125,-6.375 z m -304.40625,128.125 c 1.29749,0.81438 2.56407,1.61662 3.84375,2.40625 -1.27727,-0.78842 -2.54818,-1.59286 -3.84375,-2.40625 z"
       id="path3113"
       inkscape:connector-curvature="0" />
    <g
       style="fill:#222222;stroke:#dddddd"
       id="spear"
       transform="matrix(0.70710678,0.70710678,-0.70710678,0.70710678,300,-124.26407)">
      <path
         style="fill:#000000"
         inkscape:connector-curvature="0"
         d="m 307.39153,569.20509 c -0.0567,0.10893 -0.85291,8.27981 -7.34323,8.27981 -5.62811,0 -7.21456,-6.29218 -7.49152,-7.94649 l 0.003,-501.680155 14.87513,0 -0.0424,501.346835 z"
         id="path24" />
      <path
         inkscape:connector-curvature="0"
         d="m 294.04269,48.80983 -2.28848,18.991796 16.85484,0 -2.25216,-18.80225 -12.3142,-0.189546 z"
         id="path26" />
      <path
         inkscape:connector-curvature="0"
         d="m 299.89103,-38.226441 0,0.720247 -20.63265,67.741212 c 0,0 4.8956,-0.0085 9.44452,4.738473 4.54894,4.747134 4.94022,9.893928 4.94022,9.893928 l 6.24791,0 0.21795,0 6.24791,0 c 0,0 0.35495,-5.146794 4.90388,-9.893928 4.54892,-4.747135 9.48084,-4.738473 9.48084,-4.738473 l -20.63263,-67.741212 0,-0.720247 -0.10893,0.341169 -0.10906,-0.341169 z"
         id="path28" />
      <path
         inkscape:connector-curvature="0"
         d="m 300.09238,-18.826814 0,63.690656"
         id="path30" />
      <path
         inkscape:connector-curvature="0"
         d="m 292.97252,44.863829 14.23977,0 c 1.0958,0 1.97797,0.882169 1.97797,1.977969 0,1.0958 -0.88217,1.97797 -1.97797,1.97797 l -14.23977,0 c -1.0958,0 -1.97798,-0.88217 -1.97798,-1.97797 0,-1.0958 0.88218,-1.977969 1.97798,-1.977969 z"
         id="path32" />
    </g>
    <use
       height="1052.3622"
       width="744.09448"
       y="0"
       x="0"
       xlink:href="#spear"
       transform="matrix(0,-1,1,0,-2e-6,600)"
       id="use34" />
  </g>
  <g
     inkscape:groupmode="layer"
     id="layer1"
     inkscape:label="Cover"
     style="display:inline"
     sodipodi:insensitive="true">
    <path
       d="m 2,2 v 257 c 0,286 298,398 298,398 0,0 298,-112 298,-398 V 2 z"
       id="shine"
       inkscape:connector-curvature="0"
       style="fill:url(#radialGradient3074);stroke:#000000;stroke-width:3" />
  </g>
</svg>
