<?xml version="1.0" encoding="UTF-8" standalone="no"?>
<svg
   xmlns:dc="http://purl.org/dc/elements/1.1/"
   xmlns:cc="http://creativecommons.org/ns#"
   xmlns:rdf="http://www.w3.org/1999/02/22-rdf-syntax-ns#"
   xmlns:svg="http://www.w3.org/2000/svg"
   xmlns="http://www.w3.org/2000/svg"
   xmlns:xlink="http://www.w3.org/1999/xlink"
   xmlns:sodipodi="http://sodipodi.sourceforge.net/DTD/sodipodi-0.dtd"
   xmlns:inkscape="http://www.inkscape.org/namespaces/inkscape"
   width="600"
   height="660"
   id="svg2"
   version="1.1"
   inkscape:version="0.48.2 r9819"
   sodipodi:docname="House_Staedmon.svg">
  <metadata
     id="metadata24">
    <rdf:RDF>
      <cc:Work
         rdf:about="">
        <dc:format>image/svg+xml</dc:format>
        <dc:type
           rdf:resource="http://purl.org/dc/dcmitype/StillImage" />
        <dc:title />
      </cc:Work>
    </rdf:RDF>
  </metadata>
  <sodipodi:namedview
     pagecolor="#ffffff"
     bordercolor="#666666"
     borderopacity="1"
     objecttolerance="10"
     gridtolerance="10"
     guidetolerance="10"
     inkscape:pageopacity="0"
     inkscape:pageshadow="2"
     inkscape:window-width="1366"
     inkscape:window-height="715"
     id="namedview22"
     showgrid="false"
     inkscape:zoom="0.50568849"
     inkscape:cx="222.28697"
     inkscape:cy="366.82622"
     inkscape:window-x="-8"
     inkscape:window-y="-8"
     inkscape:window-maximized="1"
     inkscape:current-layer="layer2" />
  <defs
     id="defs4">
    <inkscape:path-effect
       is_visible="true"
       id="path-effect3426"
       effect="spiro" />
    <inkscape:path-effect
       effect="spiro"
       id="path-effect3422"
       is_visible="true" />
    <inkscape:path-effect
       effect="spiro"
       id="path-effect8286"
       is_visible="true" />
    <inkscape:path-effect
       effect="spiro"
       id="path-effect3295"
       is_visible="true" />
    <inkscape:path-effect
       is_visible="true"
       id="path-effect3288"
       effect="spiro" />
    <inkscape:path-effect
       effect="spiro"
       id="path-effect3284"
       is_visible="true" />
    <inkscape:path-effect
       is_visible="true"
       id="path-effect3280"
       effect="spiro" />
    <inkscape:path-effect
       effect="spiro"
       id="path-effect3276"
       is_visible="true" />
    <inkscape:path-effect
       is_visible="true"
       id="path-effect3272"
       effect="spiro" />
    <inkscape:path-effect
       effect="spiro"
       id="path-effect3268"
       is_visible="true" />
    <linearGradient
       id="linearGradient3904">
      <stop
         id="stop3906"
         offset="0"
         style="stop-color:#00ff00;stop-opacity:1;" />
      <stop
         style="stop-color:#00c300;stop-opacity:1;"
         offset="0.5"
         id="stop3914" />
      <stop
         id="stop3910"
         offset="1"
         style="stop-color:#ffffff;stop-opacity:1;" />
    </linearGradient>
    <linearGradient
       id="linearGradient3854">
      <stop
         id="stop3856"
         offset="0"
         style="stop-color:#ffff00;stop-opacity:1;" />
      <stop
         style="stop-color:#ff8800;stop-opacity:1;"
         offset="0.43744272"
         id="stop3858" />
      <stop
         id="stop3860"
         offset="1"
         style="stop-color:#cc0000;stop-opacity:1;" />
    </linearGradient>
    <linearGradient
       id="linearGradient6940">
      <stop
         id="stop6942"
         offset="0"
         style="stop-color:#fcff00;stop-opacity:1;" />
      <stop
         style="stop-color:#ff8800;stop-opacity:1;"
         offset="0.3860921"
         id="stop6944" />
      <stop
         id="stop6946"
         offset="1"
         style="stop-color:#cc0000;stop-opacity:1;" />
    </linearGradient>
    <linearGradient
       id="linearGradient5451">
      <stop
         style="stop-color:#00ff00;stop-opacity:1;"
         offset="0"
         id="stop5453" />
      <stop
         id="stop3890"
         offset="0.5"
         style="stop-color:#ffffff;stop-opacity:1;" />
      <stop
         style="stop-color:#008800;stop-opacity:1;"
         offset="1"
         id="stop5455" />
    </linearGradient>
    <inkscape:path-effect
       effect="spiro"
       id="path-effect3576"
       is_visible="true" />
    <inkscape:path-effect
       is_visible="true"
       id="path-effect3572"
       effect="spiro" />
    <inkscape:path-effect
       effect="spiro"
       id="path-effect3568"
       is_visible="true" />
    <inkscape:path-effect
       is_visible="true"
       id="path-effect3136"
       effect="spiro" />
    <inkscape:path-effect
       effect="spiro"
       id="path-effect3132"
       is_visible="true" />
    <inkscape:path-effect
       effect="spiro"
       id="path-effect3101"
       is_visible="true" />
    <inkscape:path-effect
       is_visible="true"
       id="path-effect3085"
       effect="spiro" />
    <inkscape:path-effect
       is_visible="true"
       id="path-effect3083"
       effect="spiro" />
    <inkscape:path-effect
       is_visible="true"
       id="path-effect3081"
       effect="spiro" />
    <inkscape:path-effect
       is_visible="true"
       id="path-effect3079"
       effect="spiro" />
    <inkscape:path-effect
       is_visible="true"
       id="path-effect3077"
       effect="spiro" />
    <inkscape:path-effect
       is_visible="true"
       id="path-effect3075"
       effect="spiro" />
    <inkscape:path-effect
       effect="spiro"
       id="path-effect3049"
       is_visible="true" />
    <inkscape:path-effect
       is_visible="true"
       id="path-effect3045"
       effect="spiro" />
    <inkscape:path-effect
       effect="spiro"
       id="path-effect3041"
       is_visible="true" />
    <radialGradient
       id="rg"
       gradientUnits="userSpaceOnUse"
       cx="220"
       cy="220"
       r="405">
      <stop
         style="stop-color:#fff;stop-opacity:.3"
         offset="0"
         id="stop7" />
      <stop
         style="stop-color:#fff;stop-opacity:.2"
         offset=".2"
         id="stop9" />
      <stop
         style="stop-color:#666;stop-opacity:.1"
         offset=".6"
         id="stop11" />
      <stop
         style="stop-color:#000;stop-opacity:.13"
         offset="1"
         id="stop13" />
    </radialGradient>
    <path
       id="shield"
       d="m2,2v257c0,286 298,398 298,398c0,0 298-112 298-398V2z" />
    <radialGradient
       inkscape:collect="always"
       xlink:href="#rg-7"
       id="radialGradient3055-1"
       gradientUnits="userSpaceOnUse"
       cx="220"
       cy="220"
       r="405" />
    <radialGradient
       id="rg-7"
       gradientUnits="userSpaceOnUse"
       cx="220"
       cy="220"
       r="405">
      <stop
         style="stop-color:#fff;stop-opacity:.3"
         offset="0"
         id="stop7-4" />
      <stop
         style="stop-color:#fff;stop-opacity:.2"
         offset=".2"
         id="stop9-0" />
      <stop
         style="stop-color:#666;stop-opacity:.1"
         offset=".6"
         id="stop11-9" />
      <stop
         style="stop-color:#000;stop-opacity:.13"
         offset="1"
         id="stop13-4" />
    </radialGradient>
    <radialGradient
       r="405"
       cy="220"
       cx="220"
       gradientUnits="userSpaceOnUse"
       id="radialGradient3074"
       xlink:href="#rg-7"
       inkscape:collect="always" />
    <inkscape:path-effect
       is_visible="true"
       id="path-effect10120-1"
       effect="spiro" />
    <inkscape:path-effect
       effect="spiro"
       id="path-effect10118-3"
       is_visible="true" />
    <inkscape:path-effect
       effect="spiro"
       id="path-effect10116-9"
       is_visible="true" />
    <inkscape:path-effect
       effect="spiro"
       id="path-effect10114-7"
       is_visible="true" />
    <inkscape:path-effect
       effect="spiro"
       id="path-effect10112-7"
       is_visible="true" />
    <inkscape:path-effect
       effect="spiro"
       id="path-effect10110-2"
       is_visible="true" />
    <linearGradient
       inkscape:collect="always"
       xlink:href="#linearGradient4719-5"
       id="linearGradient4039"
       gradientUnits="userSpaceOnUse"
       gradientTransform="matrix(2.3257341,0,0,2.2943177,447.69485,-1820.2799)"
       x1="-145.25935"
       y1="984.24286"
       x2="-64.14286"
       y2="984.14789" />
    <linearGradient
       inkscape:collect="always"
       id="linearGradient4719-5">
      <stop
         style="stop-color:#666666;stop-opacity:1;"
         offset="0"
         id="stop4721-5" />
      <stop
         id="stop4809-1"
         offset="0.39344174"
         style="stop-color:#666666;stop-opacity:0.74901961;" />
      <stop
         style="stop-color:#666666;stop-opacity:0;"
         offset="1"
         id="stop4723-7" />
    </linearGradient>
    <radialGradient
       inkscape:collect="always"
       xlink:href="#linearGradient4801-8"
       id="radialGradient4041"
       gradientUnits="userSpaceOnUse"
       gradientTransform="matrix(-0.72153181,1.2650715,-2.2729984,-1.2616144,1712.0113,1733.7841)"
       cx="-307.14288"
       cy="782.36218"
       fx="-307.14288"
       fy="782.36218"
       r="63" />
    <linearGradient
       inkscape:collect="always"
       id="linearGradient4801-8">
      <stop
         style="stop-color:#000000;stop-opacity:1;"
         offset="0"
         id="stop4803-2" />
      <stop
         style="stop-color:#000000;stop-opacity:0;"
         offset="1"
         id="stop4805-4" />
    </linearGradient>
    <inkscape:path-effect
       effect="spiro"
       id="path-effect10108-4"
       is_visible="true" />
    <linearGradient
       inkscape:collect="always"
       xlink:href="#linearGradient4719-5"
       id="linearGradient4044"
       gradientUnits="userSpaceOnUse"
       gradientTransform="matrix(-2.4055369,0,0,-1.6485021,142.06168,1726.5307)"
       x1="-145.25935"
       y1="984.24286"
       x2="-64.14286"
       y2="984.14789" />
    <radialGradient
       inkscape:collect="always"
       xlink:href="#linearGradient4801-8"
       id="radialGradient4046"
       gradientUnits="userSpaceOnUse"
       gradientTransform="matrix(0.74628962,-0.90897301,2.3509914,0.90648896,-1165.637,-827.11785)"
       cx="-307.14288"
       cy="782.36218"
       fx="-307.14288"
       fy="782.36218"
       r="63" />
    <inkscape:path-effect
       effect="spiro"
       id="path-effect10102-7"
       is_visible="true" />
    <linearGradient
       inkscape:collect="always"
       xlink:href="#linearGradient4719-5"
       id="linearGradient4049"
       gradientUnits="userSpaceOnUse"
       gradientTransform="matrix(2.334989,0,0,-1.6146975,449.44065,1692.189)"
       x1="-145.25935"
       y1="984.24286"
       x2="-64.14286"
       y2="984.14789" />
    <radialGradient
       inkscape:collect="always"
       xlink:href="#linearGradient4801-8"
       id="radialGradient4051"
       gradientUnits="userSpaceOnUse"
       gradientTransform="matrix(-0.72440295,-0.89033332,-2.2820431,0.88790031,1718.7881,-809.09364)"
       cx="-307.14288"
       cy="782.36218"
       fx="-307.14288"
       fy="782.36218"
       r="63" />
    <inkscape:path-effect
       is_visible="true"
       id="path-effect10096-8"
       effect="spiro" />
    <linearGradient
       inkscape:collect="always"
       xlink:href="#linearGradient4719-5"
       id="linearGradient4054"
       gradientUnits="userSpaceOnUse"
       gradientTransform="matrix(-2.409599,0,0,2.2818507,139.61083,-1810.8163)"
       x1="-145.25935"
       y1="984.24286"
       x2="-64.14286"
       y2="984.14789" />
    <radialGradient
       inkscape:collect="always"
       xlink:href="#linearGradient4801-8"
       id="radialGradient4056"
       gradientUnits="userSpaceOnUse"
       gradientTransform="matrix(0.74754985,1.2581972,2.3549614,-1.2547588,-1170.296,1723.935)"
       cx="-307.14288"
       cy="782.36218"
       fx="-307.14288"
       fy="782.36218"
       r="63" />
    <inkscape:path-effect
       is_visible="true"
       id="path-effect10090-3"
       effect="spiro" />
    <inkscape:path-effect
       effect="spiro"
       id="path-effect10084-1"
       is_visible="true" />
    <inkscape:path-effect
       effect="spiro"
       id="path-effect10082-1"
       is_visible="true" />
    <radialGradient
       inkscape:collect="always"
       xlink:href="#linearGradient4801-8"
       id="radialGradient4061"
       gradientUnits="userSpaceOnUse"
       gradientTransform="matrix(-0.76516322,1.2901254,-2.4104477,-1.2865998,1806.8444,1757.4704)"
       cx="-307.14288"
       cy="782.36218"
       fx="-307.14288"
       fy="782.36218"
       r="63" />
    <inkscape:path-effect
       effect="spiro"
       id="path-effect10080-4"
       is_visible="true" />
    <inkscape:path-effect
       is_visible="true"
       id="path-effect3075-1"
       effect="spiro" />
    <inkscape:path-effect
       effect="spiro"
       id="path-effect3101-7"
       is_visible="true" />
    <linearGradient
       inkscape:collect="always"
       xlink:href="#grad1-7-7"
       id="linearGradient3085-8-8"
       gradientUnits="userSpaceOnUse"
       gradientTransform="matrix(0.77469594,0,0,0.30982404,152.68996,-13.619206)"
       x1="78.877235"
       y1="178.07356"
       x2="301.40585"
       y2="178.07356" />
    <linearGradient
       id="grad1-7-7"
       x1="78.877235"
       y1="178.07356"
       x2="301.40585"
       y2="178.07356"
       gradientTransform="scale(1.577772,0.63380513)"
       gradientUnits="userSpaceOnUse">
      <stop
         offset="0%"
         style="stop-color:#da0;"
         id="stop16-4-4" />
      <stop
         offset="40%"
         style="stop-color:#fd0;"
         id="stop18-0-0" />
      <stop
         offset="60%"
         style="stop-color:#fd0;"
         id="stop20-9-9" />
      <stop
         offset="100%"
         style="stop-color:#da0;"
         id="stop22-4-4" />
    </linearGradient>
    <linearGradient
       inkscape:collect="always"
       xlink:href="#grad1-7-7"
       id="linearGradient3081-8-8"
       gradientUnits="userSpaceOnUse"
       gradientTransform="matrix(0.77469594,0,0,0.30982404,-27.310046,-13.619206)"
       x1="78.877235"
       y1="178.07356"
       x2="301.40585"
       y2="178.07356" />
    <linearGradient
       id="linearGradient3093"
       x1="78.877235"
       y1="178.07356"
       x2="301.40585"
       y2="178.07356"
       gradientTransform="scale(1.577772,0.63380513)"
       gradientUnits="userSpaceOnUse">
      <stop
         offset="0%"
         style="stop-color:#da0;"
         id="stop3095" />
      <stop
         offset="40%"
         style="stop-color:#fd0;"
         id="stop3097" />
      <stop
         offset="60%"
         style="stop-color:#fd0;"
         id="stop3099" />
      <stop
         offset="100%"
         style="stop-color:#da0;"
         id="stop3101" />
    </linearGradient>
    <linearGradient
       y2="178.07356"
       x2="301.40585"
       y1="178.07356"
       x1="78.877235"
       gradientTransform="matrix(0.77469594,0,0,0.30982404,332.68995,-13.619206)"
       gradientUnits="userSpaceOnUse"
       id="linearGradient3128-1"
       xlink:href="#grad1-7-7"
       inkscape:collect="always" />
    <linearGradient
       id="linearGradient3104"
       x1="78.877235"
       y1="178.07356"
       x2="301.40585"
       y2="178.07356"
       gradientTransform="scale(1.577772,0.63380513)"
       gradientUnits="userSpaceOnUse">
      <stop
         offset="0%"
         style="stop-color:#da0;"
         id="stop3106" />
      <stop
         offset="40%"
         style="stop-color:#fd0;"
         id="stop3108" />
      <stop
         offset="60%"
         style="stop-color:#fd0;"
         id="stop3110" />
      <stop
         offset="100%"
         style="stop-color:#da0;"
         id="stop3112" />
    </linearGradient>
    <inkscape:path-effect
       is_visible="true"
       id="path-effect3061"
       effect="spiro" />
    <clipPath
       clipPathUnits="userSpaceOnUse"
       id="clipPath10110">
      <path
         style="fill:#ffff00;fill-opacity:1;stroke:none"
         id="path10112"
         d="M 598,2 V 259 C 598,545 300,657 300,657 300,657 2,545 2,259 V 2 z"
         inkscape:connector-curvature="0" />
    </clipPath>
    <linearGradient
       inkscape:collect="always"
       xlink:href="#linearGradient5451"
       id="linearGradient5457"
       x1="-491.73343"
       y1="496.60559"
       x2="-128.62625"
       y2="496.60559"
       gradientUnits="userSpaceOnUse"
       spreadMethod="pad" />
    <linearGradient
       inkscape:collect="always"
       xlink:href="#linearGradient5451"
       id="linearGradient6923"
       gradientUnits="userSpaceOnUse"
       spreadMethod="pad"
       x1="-491.73343"
       y1="496.60559"
       x2="-128.62625"
       y2="496.60559" />
    <radialGradient
       inkscape:collect="always"
       xlink:href="#linearGradient3904"
       id="radialGradient3916"
       cx="334.25"
       cy="274.85938"
       fx="334.25"
       fy="274.85938"
       r="266.25"
       gradientTransform="matrix(0.03365959,1.9431845,-1.0340585,0.01791183,607.21995,-379.57329)"
       gradientUnits="userSpaceOnUse" />
    <linearGradient
       y2="178.07356"
       x2="301.40585"
       y1="178.07356"
       x1="78.877235"
       gradientTransform="matrix(1.2941974,0,0,0.51989068,55.919303,-63.729152)"
       gradientUnits="userSpaceOnUse"
       id="linearGradient4465"
       xlink:href="#grad1-7"
       inkscape:collect="always" />
    <linearGradient
       id="grad1-7"
       x1="78.877235"
       y1="178.07356"
       x2="301.40585"
       y2="178.07356"
       gradientTransform="scale(1.577772,0.63380513)"
       gradientUnits="userSpaceOnUse">
      <stop
         offset="0"
         style="stop-color:#000000;stop-opacity:1;"
         id="stop16-4" />
      <stop
         offset="0.60000002"
         style="stop-color:#505050;stop-opacity:1;"
         id="stop20-0" />
      <stop
         offset="1"
         style="stop-color:#000000;stop-opacity:1;"
         id="stop22-9" />
    </linearGradient>
    <linearGradient
       inkscape:collect="always"
       xlink:href="#grad1-7"
       id="linearGradient4520"
       gradientUnits="userSpaceOnUse"
       gradientTransform="matrix(1.2941974,0,0,0.51989068,55.919303,-63.729152)"
       x1="78.877235"
       y1="178.07356"
       x2="301.40585"
       y2="178.07356" />
    <linearGradient
       id="linearGradient4635"
       x1="78.877235"
       y1="178.07356"
       x2="301.40585"
       y2="178.07356"
       gradientTransform="scale(1.577772,0.63380513)"
       gradientUnits="userSpaceOnUse">
      <stop
         offset="0"
         style="stop-color:#000000;stop-opacity:1;"
         id="stop4637" />
      <stop
         offset="0.60000002"
         style="stop-color:#505050;stop-opacity:1;"
         id="stop4639" />
      <stop
         offset="1"
         style="stop-color:#000000;stop-opacity:1;"
         id="stop4641" />
    </linearGradient>
    <clipPath
       clipPathUnits="userSpaceOnUse"
       id="clipPath17297">
      <path
         style="fill:#000000;stroke:none"
         inkscape:connector-curvature="0"
         id="path17299"
         d="m 2,2 v 257 c 0,286 298,398 298,398 0,0 298,-112 298,-398 V 2 z" />
    </clipPath>
    <clipPath
       clipPathUnits="userSpaceOnUse"
       id="clipPath6451">
      <g
         id="g6453">
        <path
           id="path6455"
           d="m 2.5,2 0,277.34375 c 0.361506,7.16766 0.9268994,14.21749 1.65625,21.15625 l 196.6875,0 0,-298.5 L 2.5,2 z"
           style="fill:#00ff00;stroke:none;display:inline"
           inkscape:connector-curvature="0" />
        <path
           id="path6457"
           d="m 200.84375,300.5 0,302.6875 C 255.48162,640.24691 300,657 300,657 c 0,0 44.51838,-16.75309 99.15625,-53.8125 l 0,-302.6875 -198.3125,0 z"
           style="fill:#00ff00;stroke:none;display:inline"
           inkscape:connector-curvature="0" />
        <path
           id="path6459"
           d="m 399.15625,300.5 196.6875,0 c 0.72935,-6.93876 1.29474,-13.98859 1.65625,-21.15625 L 597.5,2 399.15625,2 l 0,298.5 z"
           style="fill:#00ff00;stroke:none;display:inline"
           inkscape:connector-curvature="0" />
      </g>
    </clipPath>
  </defs>
  <g
     inkscape:groupmode="layer"
     id="layer2"
     inkscape:label="Elements"
     style="display:inline">
    <use
       id="shine-1"
       xlink:href="#shield"
       style="fill:#ffffff;display:inline"
       x="0"
       y="0"
       width="744.09448"
       height="1052.3622"
       transform="matrix(-1,0,0,1,600,0)" />
    <path
       inkscape:connector-curvature="0"
       style="color:#000000;fill:#cc0000;fill-opacity:1;fill-rule:evenodd;stroke:none;stroke-width:2;marker:none;visibility:visible;display:inline;overflow:visible;enable-background:accumulate"
       d="m 129.3396,99.796737 c 0,3.015603 1.30165,7.643333 1.30165,12.062403 0,4.43554 -5.55412,6.0312 -5.55412,12.0624 0,6.03119 3.17737,9.0468 1.23687,15.07799 -1.94052,6.03121 -6.0312,6.03121 -6.0312,15.07801 0,6.65843 5.40396,12.06239 12.0624,12.06239 6.65844,0 12.0624,-5.40396 12.0624,-12.06239 0,-9.0468 -9.0468,-15.88575 -9.0468,-24.12481 0,-8.23905 3.01559,-8.287 3.01559,-14.3182 0,-6.0312 -6.03119,-13.89918 -9.04679,-15.837793 z"
       id="path3631" />
    <path
       id="path5540"
       d="m 185.22119,99.796737 c 0,3.015603 1.30167,7.643333 1.30167,12.062403 0,4.43554 -5.55412,6.0312 -5.55412,12.0624 0,6.03119 3.17737,9.0468 1.23686,15.07799 -1.94051,6.03121 -6.0312,6.03121 -6.0312,15.07801 0,6.65843 5.40396,12.06239 12.0624,12.06239 6.65844,0 12.06239,-5.40396 12.06239,-12.06239 0,-9.0468 -9.0468,-15.88575 -9.0468,-24.12481 0,-8.23905 3.0156,-8.287 3.0156,-14.3182 0,-6.0312 -6.03119,-13.89918 -9.0468,-15.837793 z"
       style="color:#000000;fill:#cc0000;fill-opacity:1;fill-rule:evenodd;stroke:none;stroke-width:2;marker:none;visibility:visible;display:inline;overflow:visible;enable-background:accumulate"
       inkscape:connector-curvature="0" />
    <path
       inkscape:connector-curvature="0"
       style="color:#000000;fill:#cc0000;fill-opacity:1;fill-rule:evenodd;stroke:none;stroke-width:2;marker:none;visibility:visible;display:inline;overflow:visible;enable-background:accumulate"
       d="m 241.1028,99.796737 c 0,3.015603 1.30166,7.643333 1.30166,12.062403 0,4.43554 -5.55412,6.0312 -5.55412,12.0624 0,6.03119 3.17737,9.0468 1.23686,15.07799 -1.94051,6.03121 -6.0312,6.03121 -6.0312,15.07801 0,6.65843 5.40396,12.06239 12.0624,12.06239 6.65845,0 12.06241,-5.40396 12.06241,-12.06239 0,-9.0468 -9.04681,-15.88575 -9.04681,-24.12481 0,-8.23905 3.01561,-8.287 3.01561,-14.3182 0,-6.0312 -6.03121,-13.89918 -9.04681,-15.837793 z"
       id="path5542" />
    <path
       id="path5544"
       d="m 352.86602,99.796737 c 0,3.015603 1.30166,7.643333 1.30166,12.062403 0,4.43554 -5.55413,6.0312 -5.55413,12.0624 0,6.03119 3.17739,9.0468 1.23688,15.07799 -1.94051,6.03121 -6.03121,6.03121 -6.03121,15.07801 0,6.65843 5.40396,12.06239 12.06241,12.06239 6.65844,0 12.06239,-5.40396 12.06239,-12.06239 0,-9.0468 -9.0468,-15.88575 -9.0468,-24.12481 0,-8.23905 3.0156,-8.287 3.0156,-14.3182 0,-6.0312 -6.03119,-13.89918 -9.0468,-15.837793 z"
       style="color:#000000;fill:#cc0000;fill-opacity:1;fill-rule:evenodd;stroke:none;stroke-width:2;marker:none;visibility:visible;display:inline;overflow:visible;enable-background:accumulate"
       inkscape:connector-curvature="0" />
    <path
       inkscape:connector-curvature="0"
       style="color:#000000;fill:#cc0000;fill-opacity:1;fill-rule:evenodd;stroke:none;stroke-width:2;marker:none;visibility:visible;display:inline;overflow:visible;enable-background:accumulate"
       d="m 408.74762,99.796737 c 0,3.015603 1.30167,7.643333 1.30167,12.062403 0,4.43554 -5.55412,6.0312 -5.55412,12.0624 0,6.03119 3.17737,9.0468 1.23686,15.07799 -1.94051,6.03121 -6.0312,6.03121 -6.0312,15.07801 0,6.65843 5.40396,12.06239 12.0624,12.06239 6.65844,0 12.06239,-5.40396 12.06239,-12.06239 0,-9.0468 -9.04679,-15.88575 -9.04679,-24.12481 0,-8.23905 3.01559,-8.287 3.01559,-14.3182 0,-6.0312 -6.03119,-13.89918 -9.0468,-15.837793 z"
       id="path5546" />
    <path
       id="path5561"
       d="m 464.62921,99.796737 c 0,3.015603 1.30166,7.643333 1.30166,12.062403 0,4.43554 -5.55412,6.0312 -5.55412,12.0624 0,6.03119 3.17738,9.0468 1.23687,15.07799 -1.94051,6.03121 -6.0312,6.03121 -6.0312,15.07801 0,6.65843 5.40395,12.06239 12.0624,12.06239 6.65843,0 12.06239,-5.40396 12.06239,-12.06239 0,-9.0468 -9.0468,-15.88575 -9.0468,-24.12481 0,-8.23905 3.0156,-8.287 3.0156,-14.3182 0,-6.0312 -6.03119,-13.89918 -9.0468,-15.837793 z"
       style="color:#000000;fill:#cc0000;fill-opacity:1;fill-rule:evenodd;stroke:none;stroke-width:2;marker:none;visibility:visible;display:inline;overflow:visible;enable-background:accumulate"
       inkscape:connector-curvature="0" />
    <path
       id="path3143"
       d="m 296.98439,99.796737 c 0,3.015603 1.30166,7.643333 1.30166,12.062403 0,4.43554 -5.55412,6.0312 -5.55412,12.0624 0,6.03119 3.17737,9.0468 1.23686,15.07799 -1.94051,6.03121 -6.0312,6.03121 -6.0312,15.07801 0,6.65843 5.40396,12.06239 12.0624,12.06239 6.65845,0 12.06241,-5.40396 12.06241,-12.06239 0,-9.0468 -9.04681,-15.88575 -9.04681,-24.12481 0,-8.23905 3.01561,-8.287 3.01561,-14.3182 0,-6.0312 -6.03121,-13.89918 -9.04681,-15.837793 z"
       style="color:#000000;fill:#cc0000;fill-opacity:1;fill-rule:evenodd;stroke:none;stroke-width:2;marker:none;visibility:visible;display:inline;overflow:visible;enable-background:accumulate"
       inkscape:connector-curvature="0" />
    <path
       id="path3145"
       d="m 101.3988,176.19672 c 0,3.0156 1.30165,7.64333 1.30165,12.0624 0,4.43554 -5.55412,6.0312 -5.55412,12.0624 0,6.03119 3.17737,9.0468 1.23687,15.07799 -1.94052,6.03121 -6.0312,6.03121 -6.0312,15.07801 0,6.65843 5.40396,12.06239 12.0624,12.06239 6.65844,0 12.0624,-5.40396 12.0624,-12.06239 0,-9.0468 -9.0468,-15.88575 -9.0468,-24.12481 0,-8.23905 3.01559,-8.287 3.01559,-14.3182 0,-6.0312 -6.03119,-13.89918 -9.04679,-15.83779 z"
       style="color:#000000;fill:#cc0000;fill-opacity:1;fill-rule:evenodd;stroke:none;stroke-width:2;marker:none;visibility:visible;display:inline;overflow:visible;enable-background:accumulate"
       inkscape:connector-curvature="0" />
    <path
       inkscape:connector-curvature="0"
       style="color:#000000;fill:#cc0000;fill-opacity:1;fill-rule:evenodd;stroke:none;stroke-width:2;marker:none;visibility:visible;display:inline;overflow:visible;enable-background:accumulate"
       d="m 157.28039,176.19672 c 0,3.0156 1.30167,7.64333 1.30167,12.0624 0,4.43554 -5.55412,6.0312 -5.55412,12.0624 0,6.03119 3.17737,9.0468 1.23686,15.07799 -1.94051,6.03121 -6.0312,6.03121 -6.0312,15.07801 0,6.65843 5.40396,12.06239 12.0624,12.06239 6.65844,0 12.06239,-5.40396 12.06239,-12.06239 0,-9.0468 -9.0468,-15.88575 -9.0468,-24.12481 0,-8.23905 3.0156,-8.287 3.0156,-14.3182 0,-6.0312 -6.03119,-13.89918 -9.0468,-15.83779 z"
       id="path3147" />
    <path
       id="path3149"
       d="m 213.162,176.19672 c 0,3.0156 1.30166,7.64333 1.30166,12.0624 0,4.43554 -5.55412,6.0312 -5.55412,12.0624 0,6.03119 3.17737,9.0468 1.23686,15.07799 -1.94051,6.03121 -6.0312,6.03121 -6.0312,15.07801 0,6.65843 5.40396,12.06239 12.0624,12.06239 6.65845,0 12.06241,-5.40396 12.06241,-12.06239 0,-9.0468 -9.04681,-15.88575 -9.04681,-24.12481 0,-8.23905 3.01561,-8.287 3.01561,-14.3182 0,-6.0312 -6.03121,-13.89918 -9.04681,-15.83779 z"
       style="color:#000000;fill:#cc0000;fill-opacity:1;fill-rule:evenodd;stroke:none;stroke-width:2;marker:none;visibility:visible;display:inline;overflow:visible;enable-background:accumulate"
       inkscape:connector-curvature="0" />
    <path
       inkscape:connector-curvature="0"
       style="color:#000000;fill:#cc0000;fill-opacity:1;fill-rule:evenodd;stroke:none;stroke-width:2;marker:none;visibility:visible;display:inline;overflow:visible;enable-background:accumulate"
       d="m 324.92522,176.19672 c 0,3.0156 1.30166,7.64333 1.30166,12.0624 0,4.43554 -5.55413,6.0312 -5.55413,12.0624 0,6.03119 3.17739,9.0468 1.23688,15.07799 -1.94051,6.03121 -6.03121,6.03121 -6.03121,15.07801 0,6.65843 5.40396,12.06239 12.06241,12.06239 6.65844,0 12.06239,-5.40396 12.06239,-12.06239 0,-9.0468 -9.0468,-15.88575 -9.0468,-24.12481 0,-8.23905 3.0156,-8.287 3.0156,-14.3182 0,-6.0312 -6.03119,-13.89918 -9.0468,-15.83779 z"
       id="path3151" />
    <path
       id="path3153"
       d="m 380.80682,176.19672 c 0,3.0156 1.30167,7.64333 1.30167,12.0624 0,4.43554 -5.55412,6.0312 -5.55412,12.0624 0,6.03119 3.17737,9.0468 1.23686,15.07799 -1.94051,6.03121 -6.0312,6.03121 -6.0312,15.07801 0,6.65843 5.40396,12.06239 12.0624,12.06239 6.65844,0 12.06239,-5.40396 12.06239,-12.06239 0,-9.0468 -9.04679,-15.88575 -9.04679,-24.12481 0,-8.23905 3.01559,-8.287 3.01559,-14.3182 0,-6.0312 -6.03119,-13.89918 -9.0468,-15.83779 z"
       style="color:#000000;fill:#cc0000;fill-opacity:1;fill-rule:evenodd;stroke:none;stroke-width:2;marker:none;visibility:visible;display:inline;overflow:visible;enable-background:accumulate"
       inkscape:connector-curvature="0" />
    <path
       inkscape:connector-curvature="0"
       style="color:#000000;fill:#cc0000;fill-opacity:1;fill-rule:evenodd;stroke:none;stroke-width:2;marker:none;visibility:visible;display:inline;overflow:visible;enable-background:accumulate"
       d="m 269.04359,176.19672 c 0,3.0156 1.30166,7.64333 1.30166,12.0624 0,4.43554 -5.55412,6.0312 -5.55412,12.0624 0,6.03119 3.17737,9.0468 1.23686,15.07799 -1.94051,6.03121 -6.0312,6.03121 -6.0312,15.07801 0,6.65843 5.40396,12.06239 12.0624,12.06239 6.65845,0 12.06241,-5.40396 12.06241,-12.06239 0,-9.0468 -9.04681,-15.88575 -9.04681,-24.12481 0,-8.23905 3.01561,-8.287 3.01561,-14.3182 0,-6.0312 -6.03121,-13.89918 -9.04681,-15.83779 z"
       id="path3157" />
    <path
       inkscape:connector-curvature="0"
       style="color:#000000;fill:#cc0000;fill-opacity:1;fill-rule:evenodd;stroke:none;stroke-width:2;marker:none;visibility:visible;display:inline;overflow:visible;enable-background:accumulate"
       d="m 436.68841,176.19672 c 0,3.0156 1.30167,7.64333 1.30167,12.0624 0,4.43554 -5.55412,6.0312 -5.55412,12.0624 0,6.03119 3.17737,9.0468 1.23686,15.07799 -1.94051,6.03121 -6.0312,6.03121 -6.0312,15.07801 0,6.65843 5.40396,12.06239 12.0624,12.06239 6.65844,0 12.06239,-5.40396 12.06239,-12.06239 0,-9.0468 -9.04679,-15.88575 -9.04679,-24.12481 0,-8.23905 3.01559,-8.287 3.01559,-14.3182 0,-6.0312 -6.03119,-13.89918 -9.0468,-15.83779 z"
       id="path3159" />
    <path
       id="path3161"
       d="m 492.57,176.19672 c 0,3.0156 1.30166,7.64333 1.30166,12.0624 0,4.43554 -5.55412,6.0312 -5.55412,12.0624 0,6.03119 3.17738,9.0468 1.23687,15.07799 -1.94051,6.03121 -6.0312,6.03121 -6.0312,15.07801 0,6.65843 5.40395,12.06239 12.0624,12.06239 6.65843,0 12.06239,-5.40396 12.06239,-12.06239 0,-9.0468 -9.0468,-15.88575 -9.0468,-24.12481 0,-8.23905 3.0156,-8.287 3.0156,-14.3182 0,-6.0312 -6.03119,-13.89918 -9.0468,-15.83779 z"
       style="color:#000000;fill:#cc0000;fill-opacity:1;fill-rule:evenodd;stroke:none;stroke-width:2;marker:none;visibility:visible;display:inline;overflow:visible;enable-background:accumulate"
       inkscape:connector-curvature="0" />
    <path
       id="path3214"
       d="m 129.3396,252.59674 c 0,3.0156 1.30165,7.64333 1.30165,12.0624 0,4.43554 -5.55412,6.0312 -5.55412,12.0624 0,6.03119 3.17737,9.0468 1.23687,15.07799 -1.94052,6.03121 -6.0312,6.03121 -6.0312,15.07801 0,6.65843 5.40396,12.06239 12.0624,12.06239 6.65844,0 12.0624,-5.40396 12.0624,-12.06239 0,-9.0468 -9.0468,-15.88575 -9.0468,-24.12481 0,-8.23905 3.01559,-8.287 3.01559,-14.3182 0,-6.0312 -6.03119,-13.89918 -9.04679,-15.83779 z"
       style="color:#000000;fill:#cc0000;fill-opacity:1;fill-rule:evenodd;stroke:none;stroke-width:2;marker:none;visibility:visible;display:inline;overflow:visible;enable-background:accumulate"
       inkscape:connector-curvature="0" />
    <path
       inkscape:connector-curvature="0"
       style="color:#000000;fill:#cc0000;fill-opacity:1;fill-rule:evenodd;stroke:none;stroke-width:2;marker:none;visibility:visible;display:inline;overflow:visible;enable-background:accumulate"
       d="m 185.22119,252.59674 c 0,3.0156 1.30167,7.64333 1.30167,12.0624 0,4.43554 -5.55412,6.0312 -5.55412,12.0624 0,6.03119 3.17737,9.0468 1.23686,15.07799 -1.94051,6.03121 -6.0312,6.03121 -6.0312,15.07801 0,6.65843 5.40396,12.06239 12.0624,12.06239 6.65844,0 12.06239,-5.40396 12.06239,-12.06239 0,-9.0468 -9.0468,-15.88575 -9.0468,-24.12481 0,-8.23905 3.0156,-8.287 3.0156,-14.3182 0,-6.0312 -6.03119,-13.89918 -9.0468,-15.83779 z"
       id="path3216" />
    <path
       id="path3218"
       d="m 241.1028,252.59674 c 0,3.0156 1.30166,7.64333 1.30166,12.0624 0,4.43554 -5.55412,6.0312 -5.55412,12.0624 0,6.03119 3.17737,9.0468 1.23686,15.07799 -1.94051,6.03121 -6.0312,6.03121 -6.0312,15.07801 0,6.65843 5.40396,12.06239 12.0624,12.06239 6.65845,0 12.06241,-5.40396 12.06241,-12.06239 0,-9.0468 -9.04681,-15.88575 -9.04681,-24.12481 0,-8.23905 3.01561,-8.287 3.01561,-14.3182 0,-6.0312 -6.03121,-13.89918 -9.04681,-15.83779 z"
       style="color:#000000;fill:#cc0000;fill-opacity:1;fill-rule:evenodd;stroke:none;stroke-width:2;marker:none;visibility:visible;display:inline;overflow:visible;enable-background:accumulate"
       inkscape:connector-curvature="0" />
    <path
       inkscape:connector-curvature="0"
       style="color:#000000;fill:#cc0000;fill-opacity:1;fill-rule:evenodd;stroke:none;stroke-width:2;marker:none;visibility:visible;display:inline;overflow:visible;enable-background:accumulate"
       d="m 352.86602,252.59674 c 0,3.0156 1.30166,7.64333 1.30166,12.0624 0,4.43554 -5.55413,6.0312 -5.55413,12.0624 0,6.03119 3.17739,9.0468 1.23688,15.07799 -1.94051,6.03121 -6.03121,6.03121 -6.03121,15.07801 0,6.65843 5.40396,12.06239 12.06241,12.06239 6.65844,0 12.06239,-5.40396 12.06239,-12.06239 0,-9.0468 -9.0468,-15.88575 -9.0468,-24.12481 0,-8.23905 3.0156,-8.287 3.0156,-14.3182 0,-6.0312 -6.03119,-13.89918 -9.0468,-15.83779 z"
       id="path3220" />
    <path
       id="path3222"
       d="m 408.74762,252.59674 c 0,3.0156 1.30167,7.64333 1.30167,12.0624 0,4.43554 -5.55412,6.0312 -5.55412,12.0624 0,6.03119 3.17737,9.0468 1.23686,15.07799 -1.94051,6.03121 -6.0312,6.03121 -6.0312,15.07801 0,6.65843 5.40396,12.06239 12.0624,12.06239 6.65844,0 12.06239,-5.40396 12.06239,-12.06239 0,-9.0468 -9.04679,-15.88575 -9.04679,-24.12481 0,-8.23905 3.01559,-8.287 3.01559,-14.3182 0,-6.0312 -6.03119,-13.89918 -9.0468,-15.83779 z"
       style="color:#000000;fill:#cc0000;fill-opacity:1;fill-rule:evenodd;stroke:none;stroke-width:2;marker:none;visibility:visible;display:inline;overflow:visible;enable-background:accumulate"
       inkscape:connector-curvature="0" />
    <path
       inkscape:connector-curvature="0"
       style="color:#000000;fill:#cc0000;fill-opacity:1;fill-rule:evenodd;stroke:none;stroke-width:2;marker:none;visibility:visible;display:inline;overflow:visible;enable-background:accumulate"
       d="m 464.62921,252.59674 c 0,3.0156 1.30166,7.64333 1.30166,12.0624 0,4.43554 -5.55412,6.0312 -5.55412,12.0624 0,6.03119 3.17738,9.0468 1.23687,15.07799 -1.94051,6.03121 -6.0312,6.03121 -6.0312,15.07801 0,6.65843 5.40395,12.06239 12.0624,12.06239 6.65843,0 12.06239,-5.40396 12.06239,-12.06239 0,-9.0468 -9.0468,-15.88575 -9.0468,-24.12481 0,-8.23905 3.0156,-8.287 3.0156,-14.3182 0,-6.0312 -6.03119,-13.89918 -9.0468,-15.83779 z"
       id="path3224" />
    <path
       inkscape:connector-curvature="0"
       style="color:#000000;fill:#cc0000;fill-opacity:1;fill-rule:evenodd;stroke:none;stroke-width:2;marker:none;visibility:visible;display:inline;overflow:visible;enable-background:accumulate"
       d="m 296.98439,252.59674 c 0,3.0156 1.30166,7.64333 1.30166,12.0624 0,4.43554 -5.55412,6.0312 -5.55412,12.0624 0,6.03119 3.17737,9.0468 1.23686,15.07799 -1.94051,6.03121 -6.0312,6.03121 -6.0312,15.07801 0,6.65843 5.40396,12.06239 12.0624,12.06239 6.65845,0 12.06241,-5.40396 12.06241,-12.06239 0,-9.0468 -9.04681,-15.88575 -9.04681,-24.12481 0,-8.23905 3.01561,-8.287 3.01561,-14.3182 0,-6.0312 -6.03121,-13.89918 -9.04681,-15.83779 z"
       id="path3226" />
    <path
       id="path3232"
       d="m 157.28039,328.99672 c 0,3.0156 1.30167,7.64333 1.30167,12.0624 0,4.43554 -5.55412,6.0312 -5.55412,12.0624 0,6.03119 3.17737,9.0468 1.23686,15.07799 -1.94051,6.03121 -6.0312,6.03121 -6.0312,15.07801 0,6.65843 5.40396,12.06239 12.0624,12.06239 6.65844,0 12.06239,-5.40396 12.06239,-12.06239 0,-9.0468 -9.0468,-15.88575 -9.0468,-24.12481 0,-8.23905 3.0156,-8.287 3.0156,-14.3182 0,-6.0312 -6.03119,-13.89918 -9.0468,-15.83779 z"
       style="color:#000000;fill:#cc0000;fill-opacity:1;fill-rule:evenodd;stroke:none;stroke-width:2;marker:none;visibility:visible;display:inline;overflow:visible;enable-background:accumulate"
       inkscape:connector-curvature="0" />
    <path
       inkscape:connector-curvature="0"
       style="color:#000000;fill:#cc0000;fill-opacity:1;fill-rule:evenodd;stroke:none;stroke-width:2;marker:none;visibility:visible;display:inline;overflow:visible;enable-background:accumulate"
       d="m 213.162,328.99672 c 0,3.0156 1.30166,7.64333 1.30166,12.0624 0,4.43554 -5.55412,6.0312 -5.55412,12.0624 0,6.03119 3.17737,9.0468 1.23686,15.07799 -1.94051,6.03121 -6.0312,6.03121 -6.0312,15.07801 0,6.65843 5.40396,12.06239 12.0624,12.06239 6.65845,0 12.06241,-5.40396 12.06241,-12.06239 0,-9.0468 -9.04681,-15.88575 -9.04681,-24.12481 0,-8.23905 3.01561,-8.287 3.01561,-14.3182 0,-6.0312 -6.03121,-13.89918 -9.04681,-15.83779 z"
       id="path3234" />
    <path
       id="path3236"
       d="m 324.92522,328.99672 c 0,3.0156 1.30166,7.64333 1.30166,12.0624 0,4.43554 -5.55413,6.0312 -5.55413,12.0624 0,6.03119 3.17739,9.0468 1.23688,15.07799 -1.94051,6.03121 -6.03121,6.03121 -6.03121,15.07801 0,6.65843 5.40396,12.06239 12.06241,12.06239 6.65844,0 12.06239,-5.40396 12.06239,-12.06239 0,-9.0468 -9.0468,-15.88575 -9.0468,-24.12481 0,-8.23905 3.0156,-8.287 3.0156,-14.3182 0,-6.0312 -6.03119,-13.89918 -9.0468,-15.83779 z"
       style="color:#000000;fill:#cc0000;fill-opacity:1;fill-rule:evenodd;stroke:none;stroke-width:2;marker:none;visibility:visible;display:inline;overflow:visible;enable-background:accumulate"
       inkscape:connector-curvature="0" />
    <path
       inkscape:connector-curvature="0"
       style="color:#000000;fill:#cc0000;fill-opacity:1;fill-rule:evenodd;stroke:none;stroke-width:2;marker:none;visibility:visible;display:inline;overflow:visible;enable-background:accumulate"
       d="m 380.80682,328.99672 c 0,3.0156 1.30167,7.64333 1.30167,12.0624 0,4.43554 -5.55412,6.0312 -5.55412,12.0624 0,6.03119 3.17737,9.0468 1.23686,15.07799 -1.94051,6.03121 -6.0312,6.03121 -6.0312,15.07801 0,6.65843 5.40396,12.06239 12.0624,12.06239 6.65844,0 12.06239,-5.40396 12.06239,-12.06239 0,-9.0468 -9.04679,-15.88575 -9.04679,-24.12481 0,-8.23905 3.01559,-8.287 3.01559,-14.3182 0,-6.0312 -6.03119,-13.89918 -9.0468,-15.83779 z"
       id="path3238" />
    <path
       id="path3240"
       d="m 269.04359,328.99672 c 0,3.0156 1.30166,7.64333 1.30166,12.0624 0,4.43554 -5.55412,6.0312 -5.55412,12.0624 0,6.03119 3.17737,9.0468 1.23686,15.07799 -1.94051,6.03121 -6.0312,6.03121 -6.0312,15.07801 0,6.65843 5.40396,12.06239 12.0624,12.06239 6.65845,0 12.06241,-5.40396 12.06241,-12.06239 0,-9.0468 -9.04681,-15.88575 -9.04681,-24.12481 0,-8.23905 3.01561,-8.287 3.01561,-14.3182 0,-6.0312 -6.03121,-13.89918 -9.04681,-15.83779 z"
       style="color:#000000;fill:#cc0000;fill-opacity:1;fill-rule:evenodd;stroke:none;stroke-width:2;marker:none;visibility:visible;display:inline;overflow:visible;enable-background:accumulate"
       inkscape:connector-curvature="0" />
    <path
       id="path3242"
       d="m 436.68841,328.99672 c 0,3.0156 1.30167,7.64333 1.30167,12.0624 0,4.43554 -5.55412,6.0312 -5.55412,12.0624 0,6.03119 3.17737,9.0468 1.23686,15.07799 -1.94051,6.03121 -6.0312,6.03121 -6.0312,15.07801 0,6.65843 5.40396,12.06239 12.0624,12.06239 6.65844,0 12.06239,-5.40396 12.06239,-12.06239 0,-9.0468 -9.04679,-15.88575 -9.04679,-24.12481 0,-8.23905 3.01559,-8.287 3.01559,-14.3182 0,-6.0312 -6.03119,-13.89918 -9.0468,-15.83779 z"
       style="color:#000000;fill:#cc0000;fill-opacity:1;fill-rule:evenodd;stroke:none;stroke-width:2;marker:none;visibility:visible;display:inline;overflow:visible;enable-background:accumulate"
       inkscape:connector-curvature="0" />
    <path
       id="path3250"
       d="m 185.22119,405.39674 c 0,3.0156 1.30167,7.64333 1.30167,12.0624 0,4.43554 -5.55412,6.0312 -5.55412,12.0624 0,6.03119 3.17737,9.0468 1.23686,15.07799 -1.94051,6.03121 -6.0312,6.03121 -6.0312,15.07801 0,6.65843 5.40396,12.06239 12.0624,12.06239 6.65844,0 12.06239,-5.40396 12.06239,-12.06239 0,-9.0468 -9.0468,-15.88575 -9.0468,-24.12481 0,-8.23905 3.0156,-8.287 3.0156,-14.3182 0,-6.0312 -6.03119,-13.89918 -9.0468,-15.83779 z"
       style="color:#000000;fill:#cc0000;fill-opacity:1;fill-rule:evenodd;stroke:none;stroke-width:2;marker:none;visibility:visible;display:inline;overflow:visible;enable-background:accumulate"
       inkscape:connector-curvature="0" />
    <path
       inkscape:connector-curvature="0"
       style="color:#000000;fill:#cc0000;fill-opacity:1;fill-rule:evenodd;stroke:none;stroke-width:2;marker:none;visibility:visible;display:inline;overflow:visible;enable-background:accumulate"
       d="m 241.1028,405.39674 c 0,3.0156 1.30166,7.64333 1.30166,12.0624 0,4.43554 -5.55412,6.0312 -5.55412,12.0624 0,6.03119 3.17737,9.0468 1.23686,15.07799 -1.94051,6.03121 -6.0312,6.03121 -6.0312,15.07801 0,6.65843 5.40396,12.06239 12.0624,12.06239 6.65845,0 12.06241,-5.40396 12.06241,-12.06239 0,-9.0468 -9.04681,-15.88575 -9.04681,-24.12481 0,-8.23905 3.01561,-8.287 3.01561,-14.3182 0,-6.0312 -6.03121,-13.89918 -9.04681,-15.83779 z"
       id="path3252" />
    <path
       id="path3254"
       d="m 352.86602,405.39674 c 0,3.0156 1.30166,7.64333 1.30166,12.0624 0,4.43554 -5.55413,6.0312 -5.55413,12.0624 0,6.03119 3.17739,9.0468 1.23688,15.07799 -1.94051,6.03121 -6.03121,6.03121 -6.03121,15.07801 0,6.65843 5.40396,12.06239 12.06241,12.06239 6.65844,0 12.06239,-5.40396 12.06239,-12.06239 0,-9.0468 -9.0468,-15.88575 -9.0468,-24.12481 0,-8.23905 3.0156,-8.287 3.0156,-14.3182 0,-6.0312 -6.03119,-13.89918 -9.0468,-15.83779 z"
       style="color:#000000;fill:#cc0000;fill-opacity:1;fill-rule:evenodd;stroke:none;stroke-width:2;marker:none;visibility:visible;display:inline;overflow:visible;enable-background:accumulate"
       inkscape:connector-curvature="0" />
    <path
       inkscape:connector-curvature="0"
       style="color:#000000;fill:#cc0000;fill-opacity:1;fill-rule:evenodd;stroke:none;stroke-width:2;marker:none;visibility:visible;display:inline;overflow:visible;enable-background:accumulate"
       d="m 408.74762,405.39674 c 0,3.0156 1.30167,7.64333 1.30167,12.0624 0,4.43554 -5.55412,6.0312 -5.55412,12.0624 0,6.03119 3.17737,9.0468 1.23686,15.07799 -1.94051,6.03121 -6.0312,6.03121 -6.0312,15.07801 0,6.65843 5.40396,12.06239 12.0624,12.06239 6.65844,0 12.06239,-5.40396 12.06239,-12.06239 0,-9.0468 -9.04679,-15.88575 -9.04679,-24.12481 0,-8.23905 3.01559,-8.287 3.01559,-14.3182 0,-6.0312 -6.03119,-13.89918 -9.0468,-15.83779 z"
       id="path3256" />
    <path
       id="path3260"
       d="m 296.98439,405.39674 c 0,3.0156 1.30166,7.64333 1.30166,12.0624 0,4.43554 -5.55412,6.0312 -5.55412,12.0624 0,6.03119 3.17737,9.0468 1.23686,15.07799 -1.94051,6.03121 -6.0312,6.03121 -6.0312,15.07801 0,6.65843 5.40396,12.06239 12.0624,12.06239 6.65845,0 12.06241,-5.40396 12.06241,-12.06239 0,-9.0468 -9.04681,-15.88575 -9.04681,-24.12481 0,-8.23905 3.01561,-8.287 3.01561,-14.3182 0,-6.0312 -6.03121,-13.89918 -9.04681,-15.83779 z"
       style="color:#000000;fill:#cc0000;fill-opacity:1;fill-rule:evenodd;stroke:none;stroke-width:2;marker:none;visibility:visible;display:inline;overflow:visible;enable-background:accumulate"
       inkscape:connector-curvature="0" />
    <path
       inkscape:connector-curvature="0"
       style="color:#000000;fill:#cc0000;fill-opacity:1;fill-rule:evenodd;stroke:none;stroke-width:2;marker:none;visibility:visible;display:inline;overflow:visible;enable-background:accumulate"
       d="m 324.92522,481.79676 c 0,3.0156 1.30166,7.64333 1.30166,12.0624 0,4.43554 -5.55413,6.0312 -5.55413,12.0624 0,6.03119 3.17739,9.0468 1.23688,15.07799 -1.94051,6.03121 -6.03121,6.03121 -6.03121,15.07801 0,6.65843 5.40396,12.06239 12.06241,12.06239 6.65844,0 12.06239,-5.40396 12.06239,-12.06239 0,-9.0468 -9.0468,-15.88575 -9.0468,-24.12481 0,-8.23905 3.0156,-8.287 3.0156,-14.3182 0,-6.0312 -6.03119,-13.89918 -9.0468,-15.83779 z"
       id="path3270" />
    <path
       inkscape:connector-curvature="0"
       style="color:#000000;fill:#cc0000;fill-opacity:1;fill-rule:evenodd;stroke:none;stroke-width:2;marker:none;visibility:visible;display:inline;overflow:visible;enable-background:accumulate"
       d="m 269.04359,481.79676 c 0,3.0156 1.30166,7.64333 1.30166,12.0624 0,4.43554 -5.55412,6.0312 -5.55412,12.0624 0,6.03119 3.17737,9.0468 1.23686,15.07799 -1.94051,6.03121 -6.0312,6.03121 -6.0312,15.07801 0,6.65843 5.40396,12.06239 12.0624,12.06239 6.65845,0 12.06241,-5.40396 12.06241,-12.06239 0,-9.0468 -9.04681,-15.88575 -9.04681,-24.12481 0,-8.23905 3.01561,-8.287 3.01561,-14.3182 0,-6.0312 -6.03121,-13.89918 -9.04681,-15.83779 z"
       id="path3274" />
    <g
       transform="matrix(0.72850252,0,0,0.72850252,88.63961,75.69156)"
       id="g3074">
      <g
         id="g3070">
        <path
           inkscape:connector-curvature="0"
           style="fill:#000000;fill-opacity:1;fill-rule:evenodd;stroke:#333333;stroke-width:3;stroke-linecap:round;stroke-linejoin:miter;stroke-miterlimit:4;stroke-opacity:1;stroke-dasharray:none;stroke-dashoffset:0;marker:none;visibility:visible;display:inline;overflow:visible;enable-background:accumulate"
           id="path3271"
           d="m 459.70862,495.07602 c -28.83605,-20.45416 0.38887,1.3254 -271.8285,-200.48549 l -10.24802,-50.02456 34.68711,-34.90863 c 45.55377,12.73024 4.44474,0.2207 49.22241,12.73191 202.42055,272.11233 8.23795,5.05398 198.11049,272.0647 z" />
        <path
           inkscape:connector-curvature="0"
           style="fill:#000000;stroke:#333333;stroke-width:3;stroke-linecap:round;stroke-linejoin:miter;stroke-miterlimit:4;stroke-opacity:1;stroke-dasharray:none;stroke-dashoffset:0;marker:none;visibility:visible;display:inline;overflow:visible;enable-background:accumulate"
           id="path3276"
           d="M 461.35898,492.69886 193.08589,225.23353" />
      </g>
      <path
         id="path3042"
         d="m 268.26661,224.13166 c -37.80114,0.70284 -72.37626,27.55047 -75.99991,73.18654 -3.89066,49.00026 31.95773,118.17478 133.82678,172.2639 101.86893,-54.08912 137.67935,-123.26364 133.78864,-172.2639 -3.62353,-45.63607 -38.1607,-72.4837 -75.96187,-73.18654 -30.07912,0 -47.77808,15.27256 -57.82677,27.79191 -10.04875,-12.51935 -27.74771,-27.79191 -57.82687,-27.79191 z"
         inkscape:connector-curvature="0"
         style="fill:#cc0000;stroke:#880000;stroke-width:0.7962594;display:inline" />
      <path
         d="m 169.22936,226.11425 -66.62864,67.05412 c -5.85758,5.89492 -5.77657,15.63441 2.56615,23.92998 8.34268,8.29559 20.57194,10.25124 29.98828,0.77476 9.41644,-9.47655 6.26481,-23.92116 -0.62635,-30.37639 l 46.04591,-46.33993 c -6.55519,-6.51828 -5.87976,-12.48814 -11.34535,-15.04254 z"
         id="path3282"
         style="fill:#000000;fill-opacity:1;fill-rule:evenodd;stroke:#333333;stroke-width:3;stroke-linecap:round;stroke-linejoin:miter;stroke-miterlimit:4;stroke-opacity:1;stroke-dasharray:none;stroke-dashoffset:0;marker:none;visibility:visible;display:inline;overflow:visible;enable-background:accumulate"
         inkscape:connector-curvature="0" />
      <path
         d="m 194.79327,200.38712 66.62853,-67.05406 c 5.85764,-5.89498 15.59408,-5.87253 23.93679,2.42303 8.34272,8.29549 10.37128,20.5169 0.95491,29.99347 -9.41635,9.47646 -23.87471,6.41071 -30.36903,-0.44379 l -46.04592,46.33994 c -6.55535,-6.51816 -12.51895,-5.80654 -15.10528,-11.25859 z"
         id="path3294"
         style="fill:#000000;fill-opacity:1;fill-rule:evenodd;stroke:#333333;stroke-width:3;stroke-linecap:round;stroke-linejoin:miter;stroke-miterlimit:4;stroke-opacity:1;stroke-dasharray:none;stroke-dashoffset:0;marker:none;visibility:visible;display:inline;overflow:visible;enable-background:accumulate"
         inkscape:connector-curvature="0" />
      <path
         d="m 210.95251,242.53632 c -9.09875,7.76109 -46.72147,-0.96059 -46.85184,-13.3906 -0.13046,-12.43002 -24.7305,-29.56268 -34.41391,-37.96142 -4.91494,-4.26279 -11.65792,-10.65421 -18.67928,-17.8004 C 104.19496,166.45046 97.12044,158.80652 91.19886,151.70706 79.1742,137.29022 64.54194,122.78662 64.54203,122.78664 L 90.36534,96.79837 c 0,0 14.58636,14.54973 29.07028,26.49161 14.48391,11.94189 31.24062,28.62682 39.69455,38.26294 8.45385,9.63609 25.72838,34.14112 38.15466,34.19679 12.42628,0.0556 21.37113,37.63816 13.66768,46.78661 z"
         id="path3278"
         style="fill:#000000;fill-opacity:1;fill-rule:evenodd;stroke:#333333;stroke-width:3;stroke-linecap:round;stroke-linejoin:miter;stroke-miterlimit:4;stroke-opacity:1;stroke-dasharray:none;stroke-dashoffset:0;marker:none;visibility:visible;display:inline;overflow:visible;enable-background:accumulate"
         inkscape:connector-curvature="0" />
      <path
         d="m 159.63447,218.57351 c -0.95537,-1.2994 -2.07095,-2.55421 -3.23879,-3.86301 l 26.40078,-26.56939 c 1.31609,1.16058 2.64014,2.2038 3.94533,3.15198 l -27.10732,27.28042 z m -8.446,-9.16935 c -1.14422,-1.08709 -2.2905,-2.14802 -3.48306,-3.20628 l 26.52917,-26.69866 c 1.06452,1.18586 2.13357,2.32752 3.22611,3.46485 l -26.27222,26.44009 z m -9.27691,-8.19626 c -1.25261,-1.03572 -2.41351,-1.97835 -3.60732,-2.94436 l 27.94244,-28.12083 c 0.97193,1.18732 1.98716,2.28062 3.02915,3.52613 l -27.36427,27.53906 z m -9.66653,-7.94115 c -0.77845,-0.64269 -1.93039,-1.48854 -2.58463,-2.05589 -0.22474,-0.19476 -0.52072,-0.54477 -0.75294,-0.7487 l 29.48409,-29.67226 c 0.20536,0.23194 0.55625,0.52443 0.75294,0.7487 0.57115,0.65077 1.42323,1.79843 2.07066,2.57307 l -28.97014,29.15517 z m -9.3453,-8.26435 c -0.99118,-0.92868 -1.89129,-1.78848 -2.9396,-2.79448 L 150.0865,151.8892 c 1.00266,1.03306 1.88482,1.94619 2.81114,2.92371 l -29.99791,30.18949 z m -9.02845,-8.72029 c -0.89308,-0.89203 -1.69508,-1.66581 -2.60152,-2.58682 l 30.25485,-30.44804 c 0.92458,0.89997 1.70575,1.70008 2.60157,2.58686 l -30.25493,30.44803 z m -8.36492,-8.70318 c -0.93402,-0.98465 -1.88512,-1.92811 -2.81109,-2.92366 l 29.74097,-29.93093 c 1.0031,0.92248 1.94719,1.86389 2.9396,2.79447 l -29.86951,30.06015 z m -8.24065,-8.96518 c -0.99951,-1.12282 -1.99523,-2.21352 -2.95649,-3.32532 l 28.77746,-28.96118 c 1.11962,0.95737 2.21068,1.94211 3.34191,2.93744 L 97.26571,158.61375 z M 89.282,149.39 c -1.02863,-1.20755 -2.11958,-2.34026 -3.16184,-3.52949 l 27.42846,-27.60365 c 1.19521,1.03498 2.33395,2.11992 3.54734,3.14164 L 89.282,149.39 z m -8.11219,-9.09441 c -1.20711,-1.3276 -2.28253,-2.43249 -3.43154,-3.66913 l 26.52925,-26.69863 c 1.24304,1.14222 2.35415,2.21099 3.68847,3.41057 l -26.78618,26.95719 z"
         id="path3288"
         style="fill:#000000;fill-opacity:1;fill-rule:evenodd;stroke:#333333;stroke-width:3;stroke-miterlimit:4;stroke-dasharray:none;marker:none;visibility:visible;display:inline;overflow:visible;enable-background:accumulate"
         inkscape:connector-curvature="0" />
      <path
         d="m 85.53483,83.47846 a 26.561632,25.072674 45 1 0 -35.34511,35.5708 26.561632,25.072674 45 1 0 35.34511,-35.5708 z"
         id="path3290"
         style="fill:#000000;fill-opacity:1;fill-rule:nonzero;stroke:#333333;stroke-width:3;stroke-linecap:round;stroke-linejoin:miter;stroke-miterlimit:4;stroke-opacity:1;stroke-dasharray:none"
         inkscape:connector-curvature="0" />
      <path
         inkscape:connector-curvature="0"
         id="path3043"
         d="m 212.3125,209.65625 -34.6875,34.90625 10.25,50.03125 c 19.5817,14.51708 27.49787,20.38542 44.09375,32.6875 26.47467,-13.48626 48.23832,-34.87457 62.25,-61.03125 -9.5712,-12.82711 -20.34362,-27.28121 -32.6875,-43.875 -44.77767,-12.51121 -3.66498,0.0115 -49.21875,-12.71875 z"
         style="fill:#000000;fill-opacity:1;fill-rule:evenodd;stroke:#333333;stroke-width:3;stroke-linecap:round;stroke-linejoin:miter;stroke-miterlimit:4;stroke-opacity:1;stroke-dasharray:none;stroke-dashoffset:0;marker:none;visibility:visible;display:inline;overflow:visible;enable-background:accumulate" />
      <path
         inkscape:connector-curvature="0"
         id="path3048"
         d="m 268.6875,300.59375 -75.59375,-75.375"
         style="fill:#000000;stroke:#333333;stroke-width:3;stroke-linecap:round;stroke-linejoin:miter;stroke-miterlimit:4;stroke-opacity:1;stroke-dasharray:none;stroke-dashoffset:0;marker:none;visibility:visible;display:inline;overflow:visible;enable-background:accumulate" />
    </g>
    <path
       inkscape:connector-curvature="0"
       style="fill:#cc0000;display:inline"
       d="m 2,2 0,257 c 0,286 298,398 298,398 0,0 298,-112 298,-398 L 598,2 2,2 z m 91.03125,76.6875 c 4.73923,-0.04624 10.00903,1.793486 15.21875,6.21875 21.55781,13.037437 48.39009,21.49231 72.71875,10.59375 18.3183,-7.140581 36.16998,-21.044732 57.0625,-15.28125 21.61002,3.416617 39.72955,20.65394 61.9375,20.25 0.0211,-3.8e-4 0.0414,4.1e-4 0.0625,0 22.20795,0.40394 40.32748,-16.833383 61.9375,-20.25 20.89252,-5.763482 38.7442,8.140669 57.0625,15.28125 24.32866,10.89856 51.16094,2.443687 72.71875,-10.59375 5.20972,-4.425264 10.47952,-6.264991 15.21875,-6.21875 14.21769,0.138724 23.5755,17.310765 11.46875,32.96875 -14.13832,22.99152 -21.74407,51.3392 -9.09375,76.90625 11.55784,21.11999 21.44151,46.24967 8.1875,69.375 -14.19238,22.56363 -20.30901,50.05647 -12.59375,76.0625 9.45004,24.98505 -2.41981,53.66718 -25.09375,66.90625 -24.43048,13.37916 -37.51247,39.62231 -42.46875,66.15625 -2.77737,23.1361 -23.81768,38.09403 -45,43.375 -19.95498,3.29321 -39.98918,11.21021 -51.9375,28.4375 -9.92134,13.67065 -22.21195,34.28523 -40.40625,34.375 -0.0211,-5e-5 -0.0414,10e-5 -0.0625,0 -18.1943,-0.0898 -30.48491,-20.70435 -40.40625,-34.375 -11.94832,-17.22729 -31.98252,-25.14429 -51.9375,-28.4375 -21.18232,-5.28097 -42.22263,-20.2389 -45,-43.375 -4.95628,-26.53394 -18.03827,-52.77709 -42.46875,-66.15625 C 97.48231,387.66718 85.61246,358.98505 95.0625,334 c 7.71526,-26.00603 1.59863,-53.49887 -12.59375,-76.0625 -13.25401,-23.12533 -3.37034,-48.25501 8.1875,-69.375 12.65032,-25.56705 5.04457,-53.91473 -9.09375,-76.90625 C 69.45575,95.998265 78.81356,78.826224 93.03125,78.6875 z"
       id="use3539" />
  </g>
  <g
     inkscape:groupmode="layer"
     id="layer1"
     inkscape:label="Cover"
     style="display:inline"
     sodipodi:insensitive="true">
    <path
       d="m 2,2 v 257 c 0,286 298,398 298,398 0,0 298,-112 298,-398 V 2 z"
       id="shine"
       inkscape:connector-curvature="0"
       style="fill:url(#radialGradient3074);stroke:#000000;stroke-width:3" />
  </g>
</svg>
