<?xml version="1.0" encoding="UTF-8" standalone="no"?>
<svg
   xmlns:dc="http://purl.org/dc/elements/1.1/"
   xmlns:cc="http://creativecommons.org/ns#"
   xmlns:rdf="http://www.w3.org/1999/02/22-rdf-syntax-ns#"
   xmlns:svg="http://www.w3.org/2000/svg"
   xmlns="http://www.w3.org/2000/svg"
   xmlns:xlink="http://www.w3.org/1999/xlink"
   xmlns:sodipodi="http://sodipodi.sourceforge.net/DTD/sodipodi-0.dtd"
   xmlns:inkscape="http://www.inkscape.org/namespaces/inkscape"
   width="600"
   height="660"
   id="svg2"
   version="1.1"
   inkscape:version="0.48.2 r9819"
   sodipodi:docname="House_Stark_(Robb).svg">
  <metadata
     id="metadata24">
    <rdf:RDF>
      <cc:Work
         rdf:about="">
        <dc:format>image/svg+xml</dc:format>
        <dc:type
           rdf:resource="http://purl.org/dc/dcmitype/StillImage" />
        <dc:title />
      </cc:Work>
    </rdf:RDF>
  </metadata>
  <sodipodi:namedview
     pagecolor="#ffffff"
     bordercolor="#666666"
     borderopacity="1"
     objecttolerance="10"
     gridtolerance="10"
     guidetolerance="10"
     inkscape:pageopacity="0"
     inkscape:pageshadow="2"
     inkscape:window-width="913"
     inkscape:window-height="706"
     id="namedview22"
     showgrid="false"
     inkscape:zoom="0.5056885"
     inkscape:cx="293.64693"
     inkscape:cy="282.31752"
     inkscape:window-x="-7"
     inkscape:window-y="0"
     inkscape:window-maximized="1"
     inkscape:current-layer="layer2" />
  <defs
     id="defs4">
    <radialGradient
       id="rg"
       gradientUnits="userSpaceOnUse"
       cx="220"
       cy="220"
       r="405">
      <stop
         style="stop-color:#fff;stop-opacity:.3"
         offset="0"
         id="stop7" />
      <stop
         style="stop-color:#fff;stop-opacity:.2"
         offset=".2"
         id="stop9" />
      <stop
         style="stop-color:#666;stop-opacity:.1"
         offset=".6"
         id="stop11" />
      <stop
         style="stop-color:#000;stop-opacity:.13"
         offset="1"
         id="stop13" />
    </radialGradient>
    <path
       id="shield"
       d="m2,2v257c0,286 298,398 298,398c0,0 298-112 298-398V2z" />
    <radialGradient
       inkscape:collect="always"
       xlink:href="#rg-7"
       id="radialGradient3055-1"
       gradientUnits="userSpaceOnUse"
       cx="220"
       cy="220"
       r="405" />
    <radialGradient
       id="rg-7"
       gradientUnits="userSpaceOnUse"
       cx="220"
       cy="220"
       r="405">
      <stop
         style="stop-color:#fff;stop-opacity:.3"
         offset="0"
         id="stop7-4" />
      <stop
         style="stop-color:#fff;stop-opacity:.2"
         offset=".2"
         id="stop9-0" />
      <stop
         style="stop-color:#666;stop-opacity:.1"
         offset=".6"
         id="stop11-9" />
      <stop
         style="stop-color:#000;stop-opacity:.13"
         offset="1"
         id="stop13-4" />
    </radialGradient>
    <radialGradient
       r="405"
       cy="220"
       cx="220"
       gradientUnits="userSpaceOnUse"
       id="radialGradient3074"
       xlink:href="#rg-7"
       inkscape:collect="always" />
  </defs>
  <g
     inkscape:groupmode="layer"
     id="layer2"
     inkscape:label="Elements"
     style="display:inline">
    <use
       height="1052.3622"
       width="744.09448"
       y="0"
       x="0"
       style="fill:#f6f6f6;display:inline"
       id="background"
       xlink:href="#shield"
       transform="matrix(-1,0,0,1,600,0)" />
    <g
       id="g3715"
       style="stroke-width:5;stroke-miterlimit:4;stroke-dasharray:none">
      <path
         inkscape:connector-curvature="0"
         style="fill:#7f7f7f;fill-opacity:1;stroke:#000000;stroke-width:5;stroke-linecap:butt;stroke-linejoin:miter;stroke-miterlimit:4;stroke-opacity:1;stroke-dasharray:none;display:inline"
         id="path4905"
         d="m 271.06855,170.81146 c -1.40162,-4.90146 2.2732,-9.61798 3.48284,-14.14079 2.17217,-3.11774 1.86539,-8.06088 -2.25927,-8.0804 1.7176,-3.63727 3.92772,-7.21403 1.97855,-11.39597 0.44649,-5.79992 -9.63694,-0.11754 -7.10936,-5.91839 -0.0292,-6.26935 -5.64772,-10.16628 -10.59838,-12.8237 -5.04446,-3.09749 -11.71231,-3.7626 -13.91942,-9.74983 -4.20111,-3.48493 -9.66238,-5.14433 -14.88066,-6.40497 -3.27414,-1.93436 -8.0609,4.2536 -8.11158,-1.76191 -2.97469,-4.970663 -9.40574,-6.240701 -14.04216,-9.029354 -4.39579,0.195826 -8.37261,-4.929553 -12.12636,-3.357511 3.51843,4.295799 6.13507,9.759252 7.79307,15.297525 3.01828,8.43707 -0.33024,17.61076 2.59763,26.08462 0.89694,4.9274 1.95329,9.94836 5.77994,13.54551 3.28958,4.5258 5.58162,9.90712 10.16191,13.40392 4.18182,5.60304 6.59532,12.29256 7.62091,19.15253 1.47792,5.04854 5.44101,9.29828 10.37643,11.19551 3.58655,1.21632 8.36692,3.42744 7.90636,7.04107 -0.24204,0.0425 0.80489,-0.14392 0.46645,0.13128" />
      <path
         inkscape:connector-curvature="0"
         style="fill:#969696;fill-opacity:1;stroke:none;display:inline;stroke-width:5;stroke-miterlimit:4;stroke-dasharray:none"
         id="path4907"
         d="m 259.2657,160.05886 c -0.93951,-3.33906 1.70271,-6.2243 2.60267,-9.14209 1.56519,-1.92403 1.39893,-5.21915 -1.51262,-5.5012 1.24956,-2.29787 2.84618,-4.52357 1.51277,-7.42157 0.37427,-3.81375 -6.80177,-0.70683 -4.95845,-4.38527 0.0434,-4.15584 -3.88336,-7.10441 -7.35113,-9.18817 -3.52952,-2.38139 -8.2298,-3.25716 -9.72687,-7.36814 -2.93013,-2.58325 -6.7686,-4.039 -10.4395,-5.21472 -2.29158,-1.49535 -5.73377,2.29239 -5.70825,-1.69667 -2.04931,-3.48757 -6.57622,-4.74873 -9.82086,-6.89883 -3.10512,-0.15723 -5.8603,-3.81247 -8.52618,-3.01584 2.43999,3.07592 4.23156,6.86649 5.34559,10.64422 2.04475,5.78715 -0.41243,11.64688 1.56812,17.45249 0.58299,3.32334 1.2776,6.71894 3.94233,9.352 2.27612,3.21328 3.83933,6.92836 7.03709,9.54415 2.89496,3.98533 4.53065,8.57503 5.18478,13.1872 0.99189,3.44149 3.74628,6.51581 7.21102,8.0949 2.51944,1.03995 5.87163,2.81674 5.50968,5.18107 -0.17184,0.0131 0.56962,-0.0427 0.3283,0.11645" />
      <path
         d="m 101.20264,314.51948 28.30828,-12.4385 33.88419,-4.71804 0.12539,15.02168 c 0.65449,7.15023 -0.784,5.22526 -6.34548,2.58891 l -11.82978,-5.60775 2.62484,12.70772 c 1.40478,6.67311 2.1407,7.28089 -3.01614,2.2941 l -10.19398,-9.85784 1.06421,11.17295 c 1.11643,7.96201 0.73574,6.91684 -5.19789,2.51288 l -10.35107,-7.68261 1.75581,7.23204 c 2.34728,7.75183 0.94694,5.61856 -4.1138,1.23907 z"
         id="path4909"
         style="fill:#ffffff;fill-opacity:1;fill-rule:nonzero;stroke:#000000;stroke-width:5;stroke-linejoin:miter;stroke-miterlimit:4;stroke-opacity:1;stroke-dasharray:none"
         inkscape:connector-curvature="0" />
      <path
         d="m 131.83144,360.57873 25.81987,1.1296 28.12434,-19.47869 -10.08195,-11.13649 c -4.36131,-5.70374 -4.11585,-3.31324 -6.42189,2.39314 l -4.90509,12.138 -6.67585,-11.12698 c -3.48618,-5.86091 -3.3564,-6.80648 -3.77279,0.35506 l -0.82301,14.15686 -6.78452,-8.94079 c -4.57133,-6.61386 -4.1435,-5.58708 -5.52611,1.67179 l -2.41189,12.66294 -3.6065,-6.50986 c -3.52342,-7.29291 -3.1088,-4.77501 -3.86579,1.87468 z"
         id="path4911"
         style="fill:#ffffff;fill-opacity:1;fill-rule:nonzero;stroke:#000000;stroke-width:5;stroke-linejoin:miter;stroke-miterlimit:4;stroke-opacity:1;stroke-dasharray:none"
         inkscape:connector-curvature="0" />
      <g
         transform="matrix(3.098579,-4.9841212,4.8863924,3.1605511,467.13314,-279.0064)"
         id="g4913"
         style="fill:#7f7f7f;fill-opacity:1;stroke:none;display:inline;stroke-width:0.85563783;stroke-miterlimit:4;stroke-dasharray:none">
        <g
           transform="matrix(0.16912958,0.44750931,-0.44072217,0.16656447,35.150211,-374.32367)"
           id="g4915"
           style="fill:#7f7f7f;fill-opacity:1;stroke:#4d4d4d;stroke-width:1.80224864;stroke-miterlimit:4;stroke-opacity:1;stroke-dasharray:none;display:inline" />
        <path
           d="m -84.271571,40.006331 c 2.681272,-1.866547 5.486259,-3.843871 6.628867,-6.760439 -0.09249,-1.068903 0.255804,-1.761565 -0.08002,-3.290233 -1.406529,5.133651 -4.490196,7.256932 -7.086031,7.770781 -5.560972,3.845981 -4.069301,10.030213 -2.682903,10.047388 -5.48e-4,-3.31e-4 0.540105,-5.899392 3.220087,-7.767497 z"
           id="path4917"
           style="fill:#7f7f7f;fill-opacity:1;stroke-width:0.85563783;stroke-miterlimit:4;stroke-dasharray:none"
           inkscape:connector-curvature="0" />
      </g>
      <g
         transform="matrix(2.3094157,-1.3015821,1.2567072,2.3198782,-2057.931,806.86068)"
         id="g4919"
         style="fill:#000000;stroke:#4d4d4d;stroke-width:1.89073139;stroke-miterlimit:4;stroke-opacity:1;stroke-dasharray:none;display:inline">
        <path
           d="m 866.09062,211.45412 c -6.7461,0.32973 -13.822,-0.37571 -20.3437,0.40625 -1.9765,1.65055 -3.4682,3.39351 -5.6563,5.3125 -2.5949,2.48666 -7.973,2.20692 -12,2.8125 -5.1577,0.70133 -10.0794,0.82369 -15.1,1.0625 -4.567,0.61045 -10.6691,-1.64995 -12.8478,2.26975 0.5917,1.84577 0.194,5.0849 1.0728,6.57395 3.2827,1.61972 0.8049,7.65646 2.125,10.96875 -1.2947,4.03667 4.6981,1.97413 7.2878,2.8125 3.919,-0.3024 7.8044,1.23135 10.7438,1.78125 2.4687,1.71535 7.3441,1.73157 10.25,3.53125 1.2354,1.16335 3.4612,2.85913 4.5937,3.90625 1.0366,2.24061 2.3549,2.98797 3.1875,5.65625 1.8453,4.31331 -3.9476,5.20465 -7.0188,5.6562 -5.3879,0.0173 -8.7688,-3.49672 -14.6062,-2.84375 -3.6068,0.87968 -6.5004,-1.30092 -9.5,-0.34375 -4.0818,-0.88783 -1.9538,4.00465 -1.4066,5.65625 1.5136,1.33068 1.8117,4.34767 4.6992,5.29843 2.4245,3.13859 7.6921,0.27453 11.432,1.76407 3.954,0.32019 8.2898,1.06395 12.4938,1.0625 5.0611,-0.0794 2.202,2.82929 1.7812,5.65625 -1.8577,2.78987 -3.8742,3.53431 -6.0312,4.9375 -2.1982,1.30568 -5.4187,2.73025 -8.125,3.90625 -6.1808,0.0202 -1.20454,5.86938 0.87936,7.9322 12.46333,3.7169 20.25026,3.70006 25.0577,0.66132 4.93578,6.91219 7.48797,10.28285 12.41352,17.46726 1.48427,2.16496 3.11926,6.90005 -5.66915,25.06104 6.73076,-1.45159 15.42253,-10.59246 16.74744,-8.05272 1.54184,2.95559 -3.30555,13.90415 -8.85215,26.31776 7.13596,2.99803 21.25995,-13.45293 17.39664,-12.18711 14.12718,3.18296 16.54418,-0.84723 22.48019,-5.97159 1.43961,-1.24277 7.4796,6.23677 8.81234,3.94992 -6.18626,-16.70544 -0.0275,-18.51337 2.17566,-21.03269 4.91074,-5.6155 13.27631,1.42839 18.98301,-1.24223 1.31754,-0.61658 -11.29063,-11.60097 -6.01875,-21.49464 6.11609,9.07402 11.30291,7.96968 12.54714,6.73087 -2.24881,-13.22324 -0.9121,-17.20039 -7.9e-4,-18.82512 2.31781,-1.30481 6.3125,2.95805 8.63593,1.94946 5.10292,-1.17325 1.88922,-0.0651 2.84944,-2.55502 -8.23548,-6.21677 -4.50574,-13.04053 -7.33988,-18.26685 6.0088,0.0102 6.78965,-2.64404 8.88329,-5.5016 -10.5568,-1.162 -23.36557,-6.06842 -20.27687,-7.77999 -0.064,-0.0527 -0.23428,-0.0951 -0.18514,-0.15718 2.92336,-3.69341 2.50908,-1.188 4.80475,-5.49488 3.36751,-1.22804 -10.4149,-2.14615 -17.30815,-14.36929 -2.4504,-1.88089 -8.79243,-3.19832 -8.60803,-7.11384 -0.8795,-3.4548 -2.79,-5.42864 -4.9688,-7.89998 -2.2257,-2.43334 -3.8742,-5.73009 -8.275,-5.65625 -3.852,-1.12862 -7.4566,-1.66899 -10.8187,-2.84375 -6.7305,-0.19006 -13.6809,0.55162 -20.1563,-0.71875 l -0.6874,-0.6875 -0.5313,-0.0625 0,0 z m -36.5937,75 c -0.7106,-0.57635 -1.1607,0.50379 0,0 z m -23.6876,-24.75 c 0.065,-0.10333 -0.1469,-0.56053 0,0 z m 1.125,-0.75 0.2813,0.0625 z m 31.4063,1.46875 c -0.6816,-0.5189 -0.9077,0.50824 0,0 z m -7.7813,-14.15625 0,0.375 z m -27.2812,-5.71875 0.062,-0.28125 z m 0.062,-1.6875 0,-0.34375 z m -0.375,-0.71875 0,0.375 z m 0,-0.34375 0,-0.34375 z m 0,-3.1875 c 0,-0.0905 0,-1.82613 0,0 z m 0,-1.0625 0,-0.34375 z m -0.3437,-3.875 0,0.34375 z m -2.125,-6.03125 c 0,-0.0548 0,-1.7785 0,0 z m 38.1874,-7.40625 c -0.7106,-0.57635 -1.1605,0.50379 0,0 z m -18.75,26.875 0.5,0.125 z m 14.125,5.59375 c 0.1847,0.17624 -0.482,0.0287 0,0 z m 0.25,0.375 c 0.4127,0.0307 -0.2625,0.0789 0,0 z m -24.6562,19.4375 c 0.1492,0.0868 -0.3007,0.0199 0,0 z m 26.9062,11.375 0,0.34375 z m -16.75,8.4375 c 0.393,0.006 -0.1643,0.10247 0,0 z"
           id="path4921"
           style="fill:#646464;fill-opacity:1;stroke:#000000;stroke-width:1.89073139;stroke-linecap:butt;stroke-linejoin:miter;stroke-miterlimit:4;stroke-opacity:1;stroke-dasharray:none;display:inline"
           inkscape:connector-curvature="0" />
        <path
           d="m 864.33721,212.07118 c -6.7461,0.32973 -10.71199,-0.0943 -17.23369,0.68763 -1.9765,1.65055 -2.11335,3.79999 -4.30145,5.71898 -2.5949,2.48665 -12.80737,2.64466 -16.83437,3.25024 -5.1577,0.70133 -9.37118,0.0733 -14.39178,0.31209 -4.567,0.61045 -7.22037,-1.68122 -9.39907,2.23848 0.5917,1.84577 3.15011,6.3669 2.92037,17.23607 4.34762,0.89635 16.28716,0.65478 26.80386,6.71199 9.02499,5.70603 14.4773,14.81749 2.27126,17.28227 -5.3879,0.0174 -12.00202,-3.12152 -17.83942,-2.46855 -5.02948,0.008 -9.38225,-1.54363 -8.1661,4.24944 4.03484,7.1435 8.27254,2.35705 14.77635,4.59245 3.954,0.32019 6.96575,1.40788 11.16975,1.40643 5.0611,-0.0794 7.59059,-0.54743 7.16979,2.27953 -1.8577,2.78987 -3.53549,8.00537 -5.69249,9.40856 -2.1982,1.30568 -6.77355,3.07418 -9.47985,4.25018 -8.80644,3.09982 6.20223,5.68183 9.85583,6.57234 -1.5762,1.82736 21.12328,-0.38243 15.55611,-0.28322 21.93901,29.34256 14.80748,7.22057 18.50187,25.96434 27.29099,7.62803 32.00625,-2.68279 61.28342,-24.29934 -0.51155,-23.83148 16.31784,-27.40835 18.46136,-31.21125 -3.4069,-2.51821 -19.83656,-5.01463 -21.07472,-7.5667 0.5497,-4.83246 1.47428,-0.69068 1.36158,-5.7971 -0.3519,-3.81264 -14.56856,-11.57729 -16.74866,-14.97308 -2.4504,-1.88089 -4.76253,-5.80983 -4.57813,-9.72535 -0.8795,-3.4548 -3.43663,-4.70951 -5.61543,-7.18085 -2.2257,-2.43334 -2.79646,-3.63524 -7.19726,-3.5614 -3.852,-1.12862 -8.56514,-1.35633 -11.92724,-2.53109 -6.7305,-0.19006 -11.95654,0.14514 -18.43194,-1.12523 l -0.34869,-0.6875 -3.24099,0.62535 2.03227,1.71964 z m -36.5937,73.62428 c -0.7106,-0.57635 -1.1607,0.50379 0,0 z m -25.24387,-58.43628 c 0,-0.0548 0,-1.7785 0,0 z m 7.43184,41.81092 c 0.1492,0.0868 -0.3007,0.0199 0,0 z m 14.89817,21.87607 c 0.393,0.006 -0.1643,0.10247 0,0 z"
           id="path4923"
           style="fill:#7f7f7f;fill-opacity:1;stroke:none;display:inline;stroke-width:1.89073139;stroke-miterlimit:4;stroke-dasharray:none"
           inkscape:connector-curvature="0" />
        <path
           d="m 851.73375,234.10561 c 9.81031,13.05402 -3.77809,20.13627 -3.77809,20.13627 0,0 5.92872,-8.93397 -2.04338,-13.27165 -7.9718,-4.33308 -4.92246,-9.45589 -4.92246,-9.45589 1.71623,-2.8414 8.35321,-0.5858 10.74393,2.59127 z"
           id="path4925"
           style="fill:#969696;fill-opacity:1;stroke:none;stroke-width:1.89073139;stroke-miterlimit:4;stroke-dasharray:none"
           inkscape:connector-curvature="0" />
        <path
           d="m 852.28042,225.81931 c 0,0.70356 -0.0708,-0.14142 0.3,0.6 0.0444,0.0894 0,0.20001 0,0.3 0,0.1 0,0.20001 0,0.3 0,0.1 -0.0444,0.21057 0,0.3 0.0636,0.12649 0.34476,0.16584 0.3,0.3 -0.0888,0.26833 -0.44304,0.36467 -0.6,0.6 -0.0732,0.11028 0.1068,0.84685 0,0.9 -0.1788,0.0894 -0.42108,-0.0894 -0.6,0 -0.0888,0.0448 0.0708,0.2293 0,0.3 -0.15804,0.15813 -0.41388,0.17597 -0.6,0.3 -0.1176,0.0785 -0.23676,0.17352 -0.3,0.3 -0.0444,0.0894 0.09,0.25529 0,0.3 -0.1788,0.0894 -0.39996,0 -0.6,0 -0.19992,0 -0.45852,0.14143 -0.6,0 -0.14136,-0.14142 0.14148,-0.45857 0,-0.6 -0.14136,-0.14142 -0.45852,0.14143 -0.6,0 -0.14136,-0.14142 0.14148,-0.45857 0,-0.6 -0.14136,-0.14142 -0.45852,0.14143 -0.6,0 -0.22356,-0.22359 -0.12456,-0.63687 -0.3,-0.9 -0.0552,-0.0832 -0.25524,0.0894 -0.3,0 -0.14916,-0.29844 0.1188,-0.84065 0,-0.9 -0.1788,-0.0894 -0.45852,0.14143 -0.6,0 -0.072,-0.0715 0,-1.00615 0,-1.2 0,-0.1 0,-0.19999 0,-0.3 0.0996,0 0.26844,0.0949 0.3,0 0.0948,-0.2846 -0.0732,-0.60895 0,-0.9 0.0348,-0.13719 0.23676,-0.17351 0.3,-0.3 0.0444,-0.0894 -0.0708,-0.22928 0,-0.3 0.0708,-0.0707 0.20004,0 0.3,0 0.0996,0 0.20004,0 0.3,0 0.3,0 0.6,0 0.9,0 0.0996,0 0.40008,0 0.3,0 -0.19992,0 -0.79992,0 -0.6,0 0.3,0 0.61548,-0.0948 0.9,0 0.0948,0.0317 0.0996,0.3 0,0.3 -0.0996,0 -0.0996,-0.3 0,-0.3 0.51,0 1.00008,0.20001 2.4,1.5 z"
           id="path4927"
           style="fill:#5a4e20;fill-opacity:1;stroke:#806600;stroke-width:1.89073139;stroke-linecap:butt;stroke-linejoin:miter;stroke-miterlimit:4;stroke-opacity:1;stroke-dasharray:none;display:inline"
           inkscape:connector-curvature="0" />
        <path
           d="m 804.68839,224.42671 c 10.09879,0.33505 36.86093,1.49409 39.11077,-0.58273 -0.36511,-0.85071 2.19128,-3.37319 2.55402,-4.60193 3.09401,-2.89325 1.3202,-1.33436 4.44795,-3.51979 5.09306,-0.078 8.84617,-0.96079 18.98824,0.82919 14.17884,2.50243 26.11687,0.45481 26.11687,0.45481 -2.54131,-0.81391 -6.54671,-2.2025 -9.00642,-2.63835 -3.86838,0.13221 -11.11733,0.12504 -18.07431,-1.28674 -0.94893,-0.0408 -2.76801,-0.86168 -3.71439,-0.89441 -8.7594,0.0648 -16.24419,0.2776 -17.90928,0.44074 -2.95902,1.11504 -3.96706,3.46166 -5.85763,5.50396 -0.3865,0.41753 0.79428,1.31669 0.79428,1.31669 -21.9294,3.66583 -23.95651,2.54441 -36.60718,2.78512 -0.76205,0.93646 -3.91481,0.71533 -3.91481,0.71533 z"
           id="path4929"
           style="fill:#969696;fill-opacity:1;stroke:none;stroke-width:1.89073139;stroke-miterlimit:4;stroke-dasharray:none"
           inkscape:connector-curvature="0" />
        <path
           d="m 840.7204,228.57988 c -0.7912,1.35663 -2.52287,0.76388 -3.19002,2.30804 -0.46833,1.084 -5.10657,-4.86937 -5.63929,-2.86507 -2.2235,8.3656 -4.1151,1.30837 -5.71351,0.82947 -1.08809,-0.32599 -1.01394,2.67473 -2.11214,3.0075 -2.32041,0.70309 -2.53857,-2.21163 -2.43662,-3.34777"
           id="path4931"
           style="fill:#969696;fill-opacity:1;stroke:#000000;stroke-width:1.89073139;stroke-miterlimit:4;stroke-opacity:1;stroke-dasharray:none"
           inkscape:connector-curvature="0" />
      </g>
      <path
         d="m 275.51432,376.99699 c 4.53066,12.32245 -5.92147,0.12428 -1.8623,1.15735 5.30235,9.74699 9.63361,20.75301 18.75803,27.50262 3.82201,1.90906 12.56882,5.9721 13.95852,5.03863 -2.74571,-6.65755 -3.43465,-16.14134 1.27488,-21.79352 8.29759,2.22628 15.35374,8.98827 19.22629,16.73179 3.51593,8.57046 7.05645,17.14613 12.05554,24.98049 6.69793,5.37582 7.13792,-10.13727 8.44738,-14.75045 0.0255,-8.05874 3.2262,-16.27504 0.46024,-24.13478 -1.3971,-9.2987 -6.81882,-17.09008 -10.48656,-25.45364 -1.73859,-8.74463 8.33861,2.48476 11.20397,4.16271 5.58434,4.66551 10.2737,10.58043 12.84991,17.44873 2.30345,-7.16306 2.02039,-15.68464 0.98768,-23.3359 -0.9011,-13.39991 -11.96039,-23.29749 -12.68866,-36.66661 5.18662,0.73759 12.20133,2.75636 17.99068,4.39731 4.49116,0.8001 9.62147,13.34047 7.94533,3.34944 -0.2242,-10.48864 -4.71506,-19.95192 -9.53859,-28.91278 -2.46893,-9.03181 7.84708,1.59054 10.79523,3.55171 5.08681,-1.15446 -0.80887,-12.00239 -0.88624,-16.54791 -3.18429,-9.03823 -0.42344,-19.18111 -4.29735,-27.91344 -2.98842,-1.20364 -7.20488,-9.50863 -1.44155,-4.58902 5.99148,3.89194 9.99946,10.01079 14.02017,15.79691 0.62104,-10.02233 -0.0826,-20.55313 -5.6739,-29.06822 -1.81921,-3.79077 -3.08525,-2.24711 -5.42,-5.68694"
         id="path4939"
         style="fill:none;stroke:#000000;stroke-width:5;stroke-linecap:butt;stroke-linejoin:miter;stroke-miterlimit:4;stroke-opacity:1;stroke-dasharray:none;display:inline"
         inkscape:connector-curvature="0" />
      <path
         d="m 383.2348,182.48451 c 3.17894,1.67435 1.46887,6.06812 3.72307,8.42357 1.6373,2.12159 4.17362,3.78142 4.66466,6.60417 1.93595,2.78807 5.64696,4.53613 6.03863,8.24259 -0.49485,3.08011 2.43756,5.74435 5.35401,5.81175 2.67432,2.79013 2.35343,7.46772 5.61235,9.81386 0.72889,2.05894 6.34215,2.44407 4.42195,4.86921 -4.54321,1.9357 -7.52887,-0.12427 -12.62927,-0.86135 -3.60307,-1.68748 -9.63492,4.17895 -13.12344,2.09473 -2.78558,-1.30725 -5.63946,-2.66243 -8.75903,-2.87149 -2.45717,-0.52352 -4.42488,-3.35378 -7.12879,-2.45294"
         id="path4941"
         style="fill:#969696;fill-opacity:1;stroke:none;display:inline;stroke-width:5;stroke-miterlimit:4;stroke-dasharray:none"
         inkscape:connector-curvature="0" />
      <path
         d="m 315.82703,367.91072 c -13.6265,3.10893 -27.05046,15.71107 -42.83024,0.26962 4.20812,9.81804 8.72352,18.94812 17.23499,24.99043 3.58283,1.68421 6.49988,7.07342 9.47803,8.16638 -2.47214,-6.08537 0.70299,-18.61807 5.27236,-23.92588 7.81566,1.88684 18.30005,5.76606 21.81812,12.83065 3.16459,7.83439 8.14598,15.82554 12.72933,22.95123 6.23985,4.82395 1.23039,-7.42991 2.55951,-11.71112 0.1797,-7.43349 -1.91906,-13.25875 -4.38689,-20.45268 -6.76556,-9.45194 -12.66983,-17.17445 -7.49762,-24.94343 8.77421,-2.12124 12.02264,0.35411 14.70417,1.8442 5.19877,4.19117 10.26182,5.64784 12.56938,11.93107 2.31959,-6.65305 -5.49834,-11.90449 -6.3289,-18.94082 -5.34279,-13.73713 -7.92342,-20.00522 -8.35531,-32.32154 4.89796,0.57622 14.69842,3.98628 20.14987,5.38357 4.23784,0.64791 5.41748,9.97714 4.02295,0.79544 -4.56251,-11.75724 -4.95459,-17.81542 -9.35004,-25.9837 -2.16405,-8.2809 8.81549,-2.39591 11.56991,-0.64622 4.83979,-1.16685 -0.92548,-9.67047 -0.91121,-13.86143 -2.84142,-8.27248 -1.54887,-11.01093 -5.04945,-18.98734 -2.80702,-1.05024 -0.99478,-18.20584 4.36875,-13.78398 5.59935,3.46954 7.10473,5.02212 10.80099,10.27829 0.78147,-9.25649 -0.97011,-6.59589 -6.1013,-14.33751 -1.64962,-3.46006 -1.83538,-1.20815 -3.98019,-4.33406"
         id="path4943"
         style="fill:#969696;fill-opacity:1;stroke:none;display:inline;stroke-width:5;stroke-miterlimit:4;stroke-dasharray:none"
         inkscape:connector-curvature="0" />
      <path
         d="m 74.93592,282.88095 c 0,0 23.04679,12.63997 30.74273,-20.79037 0,0 6.84623,41.31415 -24.65416,33.88351 z"
         id="path4945"
         style="fill:#000000;fill-opacity:1;stroke:none;display:inline;stroke-width:5;stroke-miterlimit:4;stroke-dasharray:none"
         inkscape:connector-curvature="0" />
      <g
         style="fill:#000000;stroke:#4d4d4d;stroke-width:2.41068242;stroke-miterlimit:4;stroke-opacity:1;stroke-dasharray:none;display:inline"
         id="g4949"
         transform="matrix(-1.9109103,-0.79566397,-0.79042011,1.9221144,2236.1702,420.18678)">
        <path
           inkscape:connector-curvature="0"
           style="fill:#646464;fill-opacity:1;stroke:#000000;stroke-width:2.41068242;stroke-linecap:butt;stroke-linejoin:miter;stroke-miterlimit:4;stroke-opacity:1;stroke-dasharray:none;display:inline"
           id="path4951"
           d="m 905.65315,235.07104 c 2.14629,0.0103 5.28899,1.70558 5.8456,-1.48192 1.92414,-2.24958 3.88337,-4.45456 6.60242,-5.74778 2.20394,-1.66678 4.84829,-2.45328 7.33286,-3.56976 2.49019,-1.12995 5.03924,-2.05899 7.67847,-2.79553 2.95873,-1.67923 6.40564,-1.07643 9.626,-1.63046 2.93143,0.0979 5.17626,-1.9333 7.87081,-2.70129 3.11076,-0.77128 6.23091,-2.55082 9.51471,-1.57034 1.3638,-0.0426 4.66932,-0.0485 2.15126,1.62663 -1.85171,2.20248 -5.08752,3.62958 -4.94346,6.99872 -0.76827,2.67707 -0.53751,5.54875 -1.6642,8.06406 -2.05902,2.54086 -3.51071,5.62969 -6.2398,7.561 -1.25011,1.46906 -4.78809,1.99404 -2.63707,4.32418 1.85654,3.2243 -3.64798,2.09985 -5.4362,2.64164 -2.09815,0.23273 -6.90978,0.0657 -4.68261,3.381 0.9375,1.25067 2.54357,3.71257 -0.27244,3.71348 -2.5543,1.29097 -5.51115,2.25848 -8.24426,1.00724 -3.34378,0.42085 2.01245,3.77348 -1.31117,3.65406 -3.30121,0.13914 -6.67945,0.11441 -9.76636,-1.24318 -2.75781,-1.16078 -5.70612,-2.82808 -8.79269,-1.81104 -0.4618,0.10484 -0.9196,0.2264 -1.38187,0.32929" />
        <path
           inkscape:connector-curvature="0"
           style="fill:#7f7f7f;fill-opacity:1;stroke:none;stroke-width:2.41068242;stroke-miterlimit:4;stroke-dasharray:none"
           id="path4953"
           d="m 910.44767,236.91222 c 0,0 3.79799,-5.60554 9.703,-8.60496 3.27627,-1.66417 7.80788,-3.93129 13.14899,-5.32879 3.7556,-1.8166 10.31398,-1.68524 12.17398,-1.8494 0,0 10.64519,-5.6493 14.50132,-4.09695 0.26359,0.41657 -1.17832,1.48013 -2.45313,2.70732 -0.57069,0.54937 -1.07238,1.51124 -1.60635,2.56239 -1.88213,3.70501 -7.099,5.0435 -7.46261,5.73292 -0.65617,1.24414 -8.34402,2.38125 -9.58991,2.07535 -2.04736,2.15829 0.32822,3.97677 -1.75848,5.66464 -1.9936,1.61258 -7.489,1.28185 -7.29549,2.31388 0.6417,3.43205 -1.74971,4.24641 -4.21203,5.4159 -1.1925,0.56423 -1.92008,2.31205 -5.91176,1.156 -0.9582,-0.27751 3.78146,3.08041 2.54001,4.51158 -1.59088,1.83399 -16.2072,3.09674 -16.66264,1.67507 -0.88618,-2.76618 0.0723,-12.68615 0.27569,-13.69047 0.73141,-3.61125 4.60941,-0.24448 4.60941,-0.24448 z" />
        <path
           inkscape:connector-curvature="0"
           style="fill:none;stroke:#000000;stroke-width:2.41068242;stroke-linecap:butt;stroke-linejoin:miter;stroke-miterlimit:4;stroke-opacity:1;stroke-dasharray:none;display:inline"
           id="path4955"
           d="m 911.65315,250.82104 c 2.04708,-0.26011 4.27016,0.56157 6.18012,-0.48918 1.88251,0.34554 3.1117,-0.94697 4.71429,-1.36674 2.10316,-0.42739 -0.5825,-1.99334 -1.11489,-2.88906 -0.39582,-0.8227 -2.23324,-1.73244 -2.02992,-2.03695 1.5494,0.19766 3.06906,0.5232 4.64716,0.2841 2.32526,-0.51925 4.8192,-0.78977 6.8872,-2.02494 0.23758,-0.61376 -1.94018,-1.65801 -2.18119,-2.70237 -0.14598,-0.74019 -1.48294,-2.54109 0.30076,-1.75918 1.8866,0.73516 3.64213,-0.002 5.38962,-0.13686 1.26848,-1.08389 2.89123,-0.69373 3.69014,-2.19135 1.78711,-0.68302 -0.21947,-0.89152 -0.73263,-1.92617 -1.12248,-0.44412 -2.53178,-3.03193 -0.463,-3.07923 1.2927,0.62268 2.87567,0.6172 4.14434,0.0518 2.67024,0.40916 5.15325,-0.83101 7.75295,-1.1378 0.73534,-0.14105 7.97006,-5.91059 8.57776,-6.35687" />
        <path
           inkscape:connector-curvature="0"
           style="fill:#969696;fill-opacity:1;stroke:none;display:inline;stroke-width:2.41068242;stroke-miterlimit:4;stroke-dasharray:none"
           id="path4957"
           d="m 911.64244,236.21704 c 0,0 4.52287,-3.02939 10.42788,-6.02881 3.27627,-1.66417 8.17032,-4.48332 13.51143,-5.88082 3.7556,-1.8166 10.31401,-1.31722 12.17401,-1.48138 0,0 5.93349,-6.20133 9.78959,-4.64898 0.2636,0.41657 0.99633,-1.46404 -0.27847,-0.23685 -0.5707,0.54937 -1.9785,2.24728 -2.5125,3.29843 -1.8821,3.70501 -6.91778,3.75543 -7.28138,4.44485 -0.6562,1.24414 -12.69329,2.56526 -13.93918,2.25936 -2.04736,2.15829 -0.0342,5.08083 0.59738,6.58469 0.99983,2.38065 -8.93876,-0.92628 -8.74525,0.10575 0.6417,3.43205 1.51224,4.79844 -0.95008,5.96793 -1.1925,0.56423 -4.63837,0.65596 -8.63005,-0.5001 -0.9582,-0.2775 2.3317,5.84058 1.09025,7.27175 -1.59088,1.83398 -6.62051,-1.56638 -8.50775,0.019 -0.50829,0.42699 -2.31422,-11.25161 -1.35529,-10.93031 4.75989,1.59487 5.45477,0.848 4.60941,-0.24448 z" />
      </g>
      <path
         d="m 416.41085,407.63653 c -21.88024,-25.81444 -36.63684,-31.99017 -28.81619,-72.73381 -24.43056,45.41836 -4.06892,59.56853 28.81619,72.73381 z"
         id="path4969"
         style="fill:#969696;fill-opacity:1;stroke:none;display:inline;stroke-width:5;stroke-miterlimit:4;stroke-dasharray:none"
         inkscape:connector-curvature="0" />
      <path
         d="m 421.32004,336.16037 c -18.8438,-23.05418 -24.13208,-16.07021 -23.961,-47.43603 0,0 -16.52582,27.97263 18.80417,47.69115 0.32894,-0.41677 1.49605,5.14514 17.71958,5.44908 -9.72017,-4.92318 -9.20156,1.75365 -12.56275,-5.7042 z"
         id="path4971"
         style="fill:#969696;fill-opacity:1;stroke:none;display:inline;stroke-width:5;stroke-miterlimit:4;stroke-dasharray:none"
         inkscape:connector-curvature="0" />
      <path
         inkscape:connector-curvature="0"
         d="m 193.84796,214.15371 c 6.86261,-0.7898 13.72524,-8.17822 20.58785,-0.85784 7.13661,11.67791 -7.89153,18.57249 -16.66493,20.82954 -7.18237,1.80387 -13.29068,1.45967 -17.21924,-3.24407 -4.88932,-6.42329 8.22061,-16.94212 13.29632,-16.72763 z"
         id="path4973"
         style="fill:#ffffff;fill-opacity:1;stroke:#000000;stroke-width:5;stroke-miterlimit:4;stroke-opacity:1;stroke-dasharray:none" />
      <path
         inkscape:connector-curvature="0"
         d="m 304.65235,220.86906 c 14.52462,-8.70268 22.05819,7.24805 38.09224,3.69848 0.89915,-0.1991 1.82505,-0.45943 2.78039,-0.78891 -9.69642,9.0818 -17.73526,17.38419 -27.65209,20.03075 -2.65325,0.45088 -2.32885,0.60041 -0.91715,2.84256 l 20.00416,31.77199 c 9.65681,13.52617 -7.3757,-4.05455 -11.10731,-6.29216 -11.50907,-6.91453 -23.41537,-8.73631 -28.54347,-20.64285"
         id="path4975"
         style="fill:none;stroke:#000000;stroke-width:5;stroke-miterlimit:4;stroke-opacity:1;stroke-dasharray:none" />
      <path
         inkscape:connector-curvature="0"
         d="m 385.40016,182.49184 c 6.18651,11.24309 4.10872,21.65971 20.43309,33.91658 9.6568,13.52617 5.92061,14.38872 2.189,12.15111 -12.45947,-10.71619 -29.4835,4.30661 -34.54825,-7.34653"
         id="path4977"
         style="fill:none;stroke:#000000;stroke-width:5;stroke-miterlimit:4;stroke-opacity:1;stroke-dasharray:none" />
      <path
         inkscape:connector-curvature="0"
         d="m 314.51907,323.77835 c -14.2799,-27.0988 -39.17712,-20.11333 -42.87898,-21.39693 -3.8833,-1.34652 -8.04206,-3.29678 -11.40173,-7.21019 -9.67327,-11.26769 -16.24334,-31.26442 -19.29867,-38.3584"
         id="path4979"
         style="fill:none;stroke:#000000;stroke-width:5;stroke-miterlimit:4;stroke-opacity:1;stroke-dasharray:none" />
      <path
         inkscape:connector-curvature="0"
         d="m 231.68682,343.84321 c 8.43952,-8.08243 12.86539,-16.43454 9.36228,-21.96869 -6.34326,-10.02092 -10.90436,-18.44259 -12.79116,-22.82342"
         id="path4981"
         style="fill:none;stroke:#000000;stroke-width:5;stroke-miterlimit:4;stroke-opacity:1;stroke-dasharray:none" />
      <path
         inkscape:connector-curvature="0"
         d="m 220.73069,336.91552 c 8.43952,-8.08242 6.43169,-11.28757 2.92857,-16.82172 -6.34325,-10.02091 -13.47782,-18.44259 -15.36462,-22.82341"
         id="path4983"
         style="fill:#969696;fill-opacity:1;stroke:#000000;stroke-width:5;stroke-miterlimit:4;stroke-opacity:1;stroke-dasharray:none" />
      <path
         inkscape:connector-curvature="0"
         d="M 193.15722,287.92532 C 186.81396,277.9044 180.96614,281.4923 179.07934,277.11148"
         id="path4985"
         style="fill:#969696;fill-opacity:1;stroke:#000000;stroke-width:5;stroke-miterlimit:4;stroke-opacity:1;stroke-dasharray:none" />
      <path
         inkscape:connector-curvature="0"
         d="m 227.47956,242.29305 c -22.15584,-2.11462 -31.51332,-2.99113 -33.37899,-7.38253"
         id="path4987"
         style="fill:#969696;fill-opacity:1;stroke:#000000;stroke-width:5;stroke-miterlimit:4;stroke-opacity:1;stroke-dasharray:none" />
      <path
         inkscape:connector-curvature="0"
         d="m 258.14687,209.69562 c -28.855,18.51207 -30.95178,-10.52411 -44.70424,-5.74572 -25.80284,8.96541 -41.11942,19.55928 -42.28895,16.80648"
         id="path4989"
         style="fill:none;stroke:#000000;stroke-width:5;stroke-miterlimit:4;stroke-opacity:1;stroke-dasharray:none" />
      <path
         inkscape:connector-curvature="0"
         d="m 195.23209,225.78472 a 5.7903502,5.7903502 0 0 1 -11.5807,0 5.7903502,5.7903502 0 1 1 11.5807,0 z"
         id="path4991"
         style="fill:#000000;fill-opacity:1;fill-rule:nonzero;stroke:#000000;stroke-width:5;stroke-linejoin:miter;stroke-miterlimit:4;stroke-opacity:1;stroke-dasharray:none" />
    </g>
  </g>
  <g
     inkscape:groupmode="layer"
     id="layer1"
     inkscape:label="Cover"
     style="display:inline"
     sodipodi:insensitive="true">
    <path
       d="m 2,2 v 257 c 0,286 298,398 298,398 0,0 298,-112 298,-398 V 2 z"
       id="shine"
       inkscape:connector-curvature="0"
       style="fill:url(#radialGradient3074);stroke:#000000;stroke-width:3" />
  </g>
</svg>
