<?xml version="1.0" encoding="UTF-8" standalone="no"?>
<svg
   xmlns:dc="http://purl.org/dc/elements/1.1/"
   xmlns:cc="http://creativecommons.org/ns#"
   xmlns:rdf="http://www.w3.org/1999/02/22-rdf-syntax-ns#"
   xmlns:svg="http://www.w3.org/2000/svg"
   xmlns="http://www.w3.org/2000/svg"
   xmlns:xlink="http://www.w3.org/1999/xlink"
   xmlns:sodipodi="http://sodipodi.sourceforge.net/DTD/sodipodi-0.dtd"
   xmlns:inkscape="http://www.inkscape.org/namespaces/inkscape"
   width="600"
   height="660"
   id="svg2"
   version="1.1"
   inkscape:version="0.48.2 r9819"
   sodipodi:docname="House_Templeton.svg">
  <metadata
     id="metadata40">
    <rdf:RDF>
      <cc:Work
         rdf:about="">
        <dc:format>image/svg+xml</dc:format>
        <dc:type
           rdf:resource="http://purl.org/dc/dcmitype/StillImage" />
      </cc:Work>
    </rdf:RDF>
  </metadata>
  <sodipodi:namedview
     pagecolor="#ffffff"
     bordercolor="#666666"
     borderopacity="1"
     objecttolerance="10"
     gridtolerance="10"
     guidetolerance="10"
     inkscape:pageopacity="0"
     inkscape:pageshadow="2"
     inkscape:window-width="1366"
     inkscape:window-height="715"
     id="namedview38"
     showgrid="false"
     inkscape:zoom="0.50568849"
     inkscape:cx="460.32181"
     inkscape:cy="361.09201"
     inkscape:window-x="-8"
     inkscape:window-y="-8"
     inkscape:window-maximized="1"
     inkscape:current-layer="svg2" />
  <defs
     id="defs4">
    <radialGradient
       id="rg"
       gradientUnits="userSpaceOnUse"
       cx="220"
       cy="220"
       r="405">
      <stop
         style="stop-color:#fff;stop-opacity:.3"
         offset="0"
         id="stop7" />
      <stop
         style="stop-color:#fff;stop-opacity:.2"
         offset=".2"
         id="stop9" />
      <stop
         style="stop-color:#666;stop-opacity:.1"
         offset=".6"
         id="stop11" />
      <stop
         style="stop-color:#000;stop-opacity:.13"
         offset="1"
         id="stop13" />
    </radialGradient>
    <path
       id="shield"
       d="m2,2v257c0,286 298,398 298,398c0,0 298-112 298-398V2z" />
    <path
       id="star6"
       transform="translate(300,300)scale(40)rotate(45)"
       fill="#000"
       d="M 0 -1 L -0.17382812 -0.30273438 L -0.86523438 -0.5 L -0.34960938 0 L -0.86523438 0.5 L -0.17382812 0.30273438 L 0 1 L 0.17382812 0.30273438 L 0.86523438 0.5 L 0.34960938 0 L 0.86523438 -0.5 L 0.17382812 -0.30273438 L 0 -1 z" />
    <use
       id="star6b"
       xlink:href="#star6"
       transform="rotate(90,300,300)" />
    <radialGradient
       id="rg-1"
       gradientUnits="userSpaceOnUse"
       cx="220"
       cy="220"
       r="405">
      <stop
         style="stop-color:#fff;stop-opacity:.3"
         offset="0"
         id="stop7-7" />
      <stop
         style="stop-color:#fff;stop-opacity:.2"
         offset=".2"
         id="stop9-4" />
      <stop
         style="stop-color:#666;stop-opacity:.1"
         offset=".6"
         id="stop11-0" />
      <stop
         style="stop-color:#000;stop-opacity:.13"
         offset="1"
         id="stop13-9" />
    </radialGradient>
    <radialGradient
       id="radialGradient3016"
       gradientUnits="userSpaceOnUse"
       cx="220"
       cy="220"
       r="405">
      <stop
         style="stop-color:#fff;stop-opacity:.3"
         offset="0"
         id="stop3018" />
      <stop
         style="stop-color:#fff;stop-opacity:.2"
         offset=".2"
         id="stop3020" />
      <stop
         style="stop-color:#666;stop-opacity:.1"
         offset=".6"
         id="stop3022" />
      <stop
         style="stop-color:#000;stop-opacity:.13"
         offset="1"
         id="stop3024" />
    </radialGradient>
  </defs>
  <use
     height="1052.3622"
     width="744.09448"
     y="0"
     x="0"
     style="fill:#000000"
     id="background"
     xlink:href="#shield" />
  <path
     inkscape:connector-curvature="0"
     id="saltire"
     d="M 2,2 2,108.06641 193.93359,300 49.828125,444.10547 c 26.417514,47.21233 60.870915,85.74122 95.728515,116.4043 L 300,406.06641 454.44336,560.50977 c 34.8576,-30.66308 69.311,-69.19197 95.72852,-116.4043 L 406.06641,300 598,108.06641 598,2 491.93359,2 300,193.93359 108.06641,2 2,2 z"
     style="fill:#ffdd00" />
  <path
     style="fill:#000000"
     inkscape:connector-curvature="0"
     id="star7"
     d="m 300,205 -41.2186,180.59215 115.49245,-144.8237 -166.8922,80.37095 185.2367,0 -166.8922,-80.37095 115.49245,144.8237 z" />
  <use
     height="1052.3622"
     width="744.09448"
     xlink:href="#star6b"
     x="-120"
     y="-120"
     id="use21" />
  <use
     height="1052.3622"
     width="744.09448"
     xlink:href="#star6"
     x="120"
     y="-120"
     id="use23" />
  <use
     height="1052.3622"
     width="744.09448"
     xlink:href="#star6"
     x="-100"
     y="100"
     id="use25" />
  <use
     height="1052.3622"
     width="744.09448"
     xlink:href="#star6b"
     x="100"
     y="100"
     id="use27" />
  <use
     height="1052.3622"
     width="744.09448"
     xlink:href="#star6b"
     x="-200"
     y="-200"
     id="use29" />
  <use
     height="1052.3622"
     width="744.09448"
     xlink:href="#star6"
     x="200"
     y="-200"
     id="use31" />
  <use
     height="1052.3622"
     width="744.09448"
     xlink:href="#star6"
     x="-165"
     y="165"
     id="use33" />
  <use
     height="1052.3622"
     width="744.09448"
     xlink:href="#star6b"
     x="165"
     y="165"
     id="use35" />
  <use
     height="1052.3622"
     width="744.09448"
     y="0"
     x="0"
     style="fill:url(#rg-1);stroke:#000000;stroke-width:3"
     id="shine"
     xlink:href="#shield" />
</svg>
