<?xml version="1.0" encoding="UTF-8"?>
<svg xmlns="http://www.w3.org/2000/svg" xmlns:xlink="http://www.w3.org/1999/xlink" width="600" height="660">
<defs>
  <radialGradient id="rg" gradientUnits="userSpaceOnUse" cx="220" cy="220" r="405">
    <stop style="stop-color:#fff;stop-opacity:.3" offset="0"/>
    <stop style="stop-color:#fff;stop-opacity:.2" offset=".2"/>
    <stop style="stop-color:#666;stop-opacity:.1" offset=".6"/>
    <stop style="stop-color:#000;stop-opacity:.13" offset="1"/>
  </radialGradient>
  <clipPath id="clip-shield">
    <path id="shield" d="m2,2v257c0,286 298,398 298,398c0,0 298-112 298-398V2z"/>
  </clipPath>
</defs>
<use id="background" xlink:href="#shield" fill="#fff"/>
<path id="tressure" fill="#c00" d="m 66.666,66.666 466.666,0 0,192.333 c 0,102.31605 -45.35347,177.54263 -98.46484,231.64258 C 385.64053,540.7875 330.09422,571.75317 300,586.25586 269.90578,571.75317 214.35947,540.7875 165.13086,490.64258 112.01949,436.54263 66.666,361.31605 66.666,259 l 0,-192.333 z M 50,50 50,259 C 50,473.57263 241.96889,578.02974 300,604.73828 358.03111,578.02974 550,473.57263 550,259 L 550,50 50,50 Z"/>
<path id="tressure" fill="#080808" d="m 100,100 400,0 0,159 C 500,424.40588 365.1074,515.01826 300,549.1543 234.8926,515.01826 100,424.40588 100,259 l 0,-159 z m -16.666016,-16.666016 0,16.666016 0,159 c 0,87.23359 35.912756,155.48395 79.736326,205.31055 43.82358,49.82659 95.45884,81.91741 129.19141,99.60351 l 7.73828,4.0586 7.73828,-4.0586 c 33.73257,-17.6861 85.36783,-49.77692 129.19141,-99.60351 C 480.75326,414.48395 516.66602,346.23359 516.66602,259 l 0,-175.666016 -433.332036,0 z"/>
<g id="tower" transform="translate(300.5,260.5)scale(0.2)translate(-210)" stroke="#000" stroke-width="4" fill="#080808">
  <path d="m 30,-570 0,-100 48,0 0,40 30,0 0,-40 48,0 0,40 30,0 0,-40 48,0 0,40 30,0 0,-40 48,0 0,40 30,0 0,-40 48,0 0,100 z m 10,0 340,0 0,15 -340,0 z m 10,15 320,0 0,15 -320,0 z m 50,105 c 0,-30 -20,-70 -40,-90 l 300,0 c -20,20 -40,60 -40,90 z m -5,0 230,0 0,15 -230,0 z m 5,15 220,0 0,10 -220,0 z m -90,410 0,-140 c 100,-100 100,-210 100,-260 l 200,0 c 0,50 0,160 100,260 l 0,140 z m -10,0 420,0 0,25 L 0,0 Z"/>
  <path fill="none" d="m 54,-645 0,-25 m 78,25 0,-25 m 78,25 0,-25 m 78,25 0,-25 m 78,25 0,-25 m -273,75 0,-35 m 78,35 0,-35 m 78,35 0,-35 m 78,35 0,-35 m -273,60 0,-25 m 78,25 0,-25 m 78,25 0,-25 m 78,25 0,-25 m 78,25 0,-25 m -336,0 360,0 m -360,-50 48,0 m 30,0 48,0 m 30,0 48,0 m 30,0 48,0 m 30,0 48,0 m -300,120 0,-15 m 40,15 0,-15 m 40,15 0,-15 m 40,15 0,-15 m 40,15 0,-15 m 40,15 0,-15 m 40,15 0,-15 m -220,30 0,-15 m 40,15 0,-15 m 40,15 0,-15 m 40,15 0,-15 m 40,15 0,-15 m 40,15 0,-15 m -220,30 0,-15 m 40,15 0,-15 m 40,15 0,-15 m 40,15 0,-15 m 40,15 0,-15 m 40,15 0,-15 m 40,15 0,-15 m -220,30 0,-15 m 40,15 0,-15 m 40,15 0,-15 m 40,15 0,-15 m 40,15 0,-15 m 40,15 0,-15 m -180,30 0,-15 m 40,15 0,-15 m 40,15 0,-15 m 40,15 0,-15 m 40,15 0,-15 m -180,30 0,-15 m 40,15 0,-15 m 40,15 0,-15 m 40,15 0,-15 m 40,15 0,-15 m 40,15 0,-15 m -211.5,0 223,0 M 95,-480 l 230,0 m -235.5,-15 241,0 M 82,-510 l 256,0 m -265.5,-15 275,0 m -187.5,140 0,-40 m 50,40 0,-40 m 50,40 0,-40 m -125,80 0,-40 m 50,40 0,-40 m 50,40 0,-40 m 50,40 0,-40 m -175,80 0,-40 m 50,40 0,-40 m 50,40 0,-40 m 50,40 0,-40 m 50,40 0,-40 m -175,80 0,-40 m 50,40 0,-40 m 50,40 0,-40 m 50,40 0,-40 m -175,80 0,-40 m 50,40 0,-40 m 50,40 0,-40 m 50,40 0,-40 m 50,40 0,-40 m -225,80 0,-40 m 50,40 0,-40 m 50,40 0,-40 m 50,40 0,-40 m 50,40 0,-40 m 50,40 0,-40 m -275,80 0,-40 m 50,40 0,-40 m 50,40 0,-40 m 50,40 0,-40 m 50,40 0,-40 m 50,40 0,-40 m 50,40 0,-40 m -325,80 0,-40 m 50,40 0,-40 m 50,40 0,-40 m 50,40 0,-40 m 50,40 0,-40 m 50,40 0,-40 m 50,40 0,-40 m 50,40 0,-40 m -325,80 0,-40 m 50,40 0,-40 m 50,40 0,-40 m 50,40 0,-40 m 50,40 0,-40 m 50,40 0,-40 m 50,40 0,-40 m -325,80 0,-40 m 50,40 0,-40 m 50,40 0,-40 m 50,40 0,-40 m 50,40 0,-40 m 50,40 0,-40 m 50,40 0,-40 m 50,40 0,-40 m -375,0 400,0 m 0,-40 -400,0 m 0,-40 400,0 m -18.5,-40 -363,0 m 30,-40 303,0 m -21.5,-40 -260,0 m 15,-40 230,0 m -9.5,-40 -211,0 m 4.5,-40 202,0"/>
  <path d="m120,-25 v-150a90,90 0,0,1 180,0v150z"/>
  <path d="m100,-25 v-35h220v35z m0,-70v-35h220v35z"/>
  <path transform="rotate(5,210,-175)" d="m100,-155v-35h110v35z"/>
  <path transform="rotate(60,210,-175)" d="m100,-155v-35h110v35z"/>
  <path transform="rotate(-60,210,-175)" d="m210,-155v-35h110v35z"/>
  <path transform="rotate(-5,210,-175)" d="m210,-155v-35h110v35z"/>
  <path fill="#310" d="m150,-25 v-150a60,60 0,0,1 120,0v150z"/>
</g>
<use xlink:href="#tower" x="60" y="180"/>
<use xlink:href="#tower" x="-60" y="180"/>
<use xlink:href="#tower" x="-120"/>
<use xlink:href="#tower" x="120"/>
<use id="shine" xlink:href="#shield" fill="url(#rg)" stroke="#000" stroke-width="3"/>
</svg>