<?xml version="1.0" encoding="UTF-8" standalone="no"?>
<svg
   xmlns:dc="http://purl.org/dc/elements/1.1/"
   xmlns:cc="http://creativecommons.org/ns#"
   xmlns:rdf="http://www.w3.org/1999/02/22-rdf-syntax-ns#"
   xmlns:svg="http://www.w3.org/2000/svg"
   xmlns="http://www.w3.org/2000/svg"
   xmlns:xlink="http://www.w3.org/1999/xlink"
   xmlns:sodipodi="http://sodipodi.sourceforge.net/DTD/sodipodi-0.dtd"
   xmlns:inkscape="http://www.inkscape.org/namespaces/inkscape"
   width="600"
   height="660"
   id="svg2"
   version="1.1"
   inkscape:version="0.48.2 r9819"
   sodipodi:docname="House_Uffering.svg">
  <metadata
     id="metadata24">
    <rdf:RDF>
      <cc:Work
         rdf:about="">
        <dc:format>image/svg+xml</dc:format>
        <dc:type
           rdf:resource="http://purl.org/dc/dcmitype/StillImage" />
        <dc:title />
      </cc:Work>
    </rdf:RDF>
  </metadata>
  <sodipodi:namedview
     pagecolor="#ffffff"
     bordercolor="#666666"
     borderopacity="1"
     objecttolerance="10"
     gridtolerance="10"
     guidetolerance="10"
     inkscape:pageopacity="0"
     inkscape:pageshadow="2"
     inkscape:window-width="1366"
     inkscape:window-height="715"
     id="namedview22"
     showgrid="false"
     inkscape:zoom="0.5056885"
     inkscape:cx="13.408317"
     inkscape:cy="420.92019"
     inkscape:window-x="-8"
     inkscape:window-y="-8"
     inkscape:window-maximized="1"
     inkscape:current-layer="layer2" />
  <defs
     id="defs4">
    <inkscape:path-effect
       is_visible="true"
       id="path-effect3136"
       effect="spiro" />
    <inkscape:path-effect
       effect="spiro"
       id="path-effect3132"
       is_visible="true" />
    <inkscape:path-effect
       effect="spiro"
       id="path-effect3101"
       is_visible="true" />
    <inkscape:path-effect
       is_visible="true"
       id="path-effect3085"
       effect="spiro" />
    <inkscape:path-effect
       is_visible="true"
       id="path-effect3083"
       effect="spiro" />
    <inkscape:path-effect
       is_visible="true"
       id="path-effect3081"
       effect="spiro" />
    <inkscape:path-effect
       is_visible="true"
       id="path-effect3079"
       effect="spiro" />
    <inkscape:path-effect
       is_visible="true"
       id="path-effect3077"
       effect="spiro" />
    <inkscape:path-effect
       is_visible="true"
       id="path-effect3075"
       effect="spiro" />
    <inkscape:path-effect
       effect="spiro"
       id="path-effect3049"
       is_visible="true" />
    <inkscape:path-effect
       is_visible="true"
       id="path-effect3045"
       effect="spiro" />
    <inkscape:path-effect
       effect="spiro"
       id="path-effect3041"
       is_visible="true" />
    <radialGradient
       id="rg"
       gradientUnits="userSpaceOnUse"
       cx="220"
       cy="220"
       r="405">
      <stop
         style="stop-color:#fff;stop-opacity:.3"
         offset="0"
         id="stop7" />
      <stop
         style="stop-color:#fff;stop-opacity:.2"
         offset=".2"
         id="stop9" />
      <stop
         style="stop-color:#666;stop-opacity:.1"
         offset=".6"
         id="stop11" />
      <stop
         style="stop-color:#000;stop-opacity:.13"
         offset="1"
         id="stop13" />
    </radialGradient>
    <path
       id="shield"
       d="m2,2v257c0,286 298,398 298,398c0,0 298-112 298-398V2z" />
    <radialGradient
       inkscape:collect="always"
       xlink:href="#rg-7"
       id="radialGradient3055-1"
       gradientUnits="userSpaceOnUse"
       cx="220"
       cy="220"
       r="405" />
    <radialGradient
       id="rg-7"
       gradientUnits="userSpaceOnUse"
       cx="220"
       cy="220"
       r="405">
      <stop
         style="stop-color:#fff;stop-opacity:.3"
         offset="0"
         id="stop7-4" />
      <stop
         style="stop-color:#fff;stop-opacity:.2"
         offset=".2"
         id="stop9-0" />
      <stop
         style="stop-color:#666;stop-opacity:.1"
         offset=".6"
         id="stop11-9" />
      <stop
         style="stop-color:#000;stop-opacity:.13"
         offset="1"
         id="stop13-4" />
    </radialGradient>
    <radialGradient
       r="405"
       cy="220"
       cx="220"
       gradientUnits="userSpaceOnUse"
       id="radialGradient3074"
       xlink:href="#rg-7"
       inkscape:collect="always" />
    <inkscape:path-effect
       is_visible="true"
       id="path-effect10120-1"
       effect="spiro" />
    <inkscape:path-effect
       effect="spiro"
       id="path-effect10118-3"
       is_visible="true" />
    <inkscape:path-effect
       effect="spiro"
       id="path-effect10116-9"
       is_visible="true" />
    <inkscape:path-effect
       effect="spiro"
       id="path-effect10114-7"
       is_visible="true" />
    <inkscape:path-effect
       effect="spiro"
       id="path-effect10112-7"
       is_visible="true" />
    <inkscape:path-effect
       effect="spiro"
       id="path-effect10110-2"
       is_visible="true" />
    <linearGradient
       inkscape:collect="always"
       xlink:href="#linearGradient4719-5"
       id="linearGradient4039"
       gradientUnits="userSpaceOnUse"
       gradientTransform="matrix(2.3257341,0,0,2.2943177,447.69485,-1820.2799)"
       x1="-145.25935"
       y1="984.24286"
       x2="-64.14286"
       y2="984.14789" />
    <linearGradient
       inkscape:collect="always"
       id="linearGradient4719-5">
      <stop
         style="stop-color:#666666;stop-opacity:1;"
         offset="0"
         id="stop4721-5" />
      <stop
         id="stop4809-1"
         offset="0.39344174"
         style="stop-color:#666666;stop-opacity:0.74901961;" />
      <stop
         style="stop-color:#666666;stop-opacity:0;"
         offset="1"
         id="stop4723-7" />
    </linearGradient>
    <radialGradient
       inkscape:collect="always"
       xlink:href="#linearGradient4801-8"
       id="radialGradient4041"
       gradientUnits="userSpaceOnUse"
       gradientTransform="matrix(-0.72153181,1.2650715,-2.2729984,-1.2616144,1712.0113,1733.7841)"
       cx="-307.14288"
       cy="782.36218"
       fx="-307.14288"
       fy="782.36218"
       r="63" />
    <linearGradient
       inkscape:collect="always"
       id="linearGradient4801-8">
      <stop
         style="stop-color:#000000;stop-opacity:1;"
         offset="0"
         id="stop4803-2" />
      <stop
         style="stop-color:#000000;stop-opacity:0;"
         offset="1"
         id="stop4805-4" />
    </linearGradient>
    <inkscape:path-effect
       effect="spiro"
       id="path-effect10108-4"
       is_visible="true" />
    <linearGradient
       inkscape:collect="always"
       xlink:href="#linearGradient4719-5"
       id="linearGradient4044"
       gradientUnits="userSpaceOnUse"
       gradientTransform="matrix(-2.4055369,0,0,-1.6485021,142.06168,1726.5307)"
       x1="-145.25935"
       y1="984.24286"
       x2="-64.14286"
       y2="984.14789" />
    <radialGradient
       inkscape:collect="always"
       xlink:href="#linearGradient4801-8"
       id="radialGradient4046"
       gradientUnits="userSpaceOnUse"
       gradientTransform="matrix(0.74628962,-0.90897301,2.3509914,0.90648896,-1165.637,-827.11785)"
       cx="-307.14288"
       cy="782.36218"
       fx="-307.14288"
       fy="782.36218"
       r="63" />
    <inkscape:path-effect
       effect="spiro"
       id="path-effect10102-7"
       is_visible="true" />
    <linearGradient
       inkscape:collect="always"
       xlink:href="#linearGradient4719-5"
       id="linearGradient4049"
       gradientUnits="userSpaceOnUse"
       gradientTransform="matrix(2.334989,0,0,-1.6146975,449.44065,1692.189)"
       x1="-145.25935"
       y1="984.24286"
       x2="-64.14286"
       y2="984.14789" />
    <radialGradient
       inkscape:collect="always"
       xlink:href="#linearGradient4801-8"
       id="radialGradient4051"
       gradientUnits="userSpaceOnUse"
       gradientTransform="matrix(-0.72440295,-0.89033332,-2.2820431,0.88790031,1718.7881,-809.09364)"
       cx="-307.14288"
       cy="782.36218"
       fx="-307.14288"
       fy="782.36218"
       r="63" />
    <inkscape:path-effect
       is_visible="true"
       id="path-effect10096-8"
       effect="spiro" />
    <linearGradient
       inkscape:collect="always"
       xlink:href="#linearGradient4719-5"
       id="linearGradient4054"
       gradientUnits="userSpaceOnUse"
       gradientTransform="matrix(-2.409599,0,0,2.2818507,139.61083,-1810.8163)"
       x1="-145.25935"
       y1="984.24286"
       x2="-64.14286"
       y2="984.14789" />
    <radialGradient
       inkscape:collect="always"
       xlink:href="#linearGradient4801-8"
       id="radialGradient4056"
       gradientUnits="userSpaceOnUse"
       gradientTransform="matrix(0.74754985,1.2581972,2.3549614,-1.2547588,-1170.296,1723.935)"
       cx="-307.14288"
       cy="782.36218"
       fx="-307.14288"
       fy="782.36218"
       r="63" />
    <inkscape:path-effect
       is_visible="true"
       id="path-effect10090-3"
       effect="spiro" />
    <inkscape:path-effect
       effect="spiro"
       id="path-effect10084-1"
       is_visible="true" />
    <inkscape:path-effect
       effect="spiro"
       id="path-effect10082-1"
       is_visible="true" />
    <radialGradient
       inkscape:collect="always"
       xlink:href="#linearGradient4801-8"
       id="radialGradient4061"
       gradientUnits="userSpaceOnUse"
       gradientTransform="matrix(-0.76516322,1.2901254,-2.4104477,-1.2865998,1806.8444,1757.4704)"
       cx="-307.14288"
       cy="782.36218"
       fx="-307.14288"
       fy="782.36218"
       r="63" />
    <inkscape:path-effect
       effect="spiro"
       id="path-effect10080-4"
       is_visible="true" />
    <inkscape:path-effect
       is_visible="true"
       id="path-effect3075-1"
       effect="spiro" />
    <inkscape:path-effect
       effect="spiro"
       id="path-effect3101-7"
       is_visible="true" />
  </defs>
  <g
     inkscape:groupmode="layer"
     id="layer2"
     inkscape:label="Elements"
     style="display:inline">
    <path
       d="m 2,2 v 257 c 0,286 298,398 298,398 0,0 298,-112 298,-398 V 2 z"
       id="background"
       inkscape:connector-curvature="0"
       style="fill:#994400" />
    <path
       style="fill:#888888;stroke:none;stroke-width:1px;stroke-linecap:butt;stroke-linejoin:miter;stroke-opacity:1;display:inline"
       d="M 76.875 2 L 76.875 486.09375 C 99.610277 517.05968 125.43577 543.40757 151.25 565.46875 L 151.25 2 L 76.875 2 z M 225.625 2 L 225.625 619.125 C 268.32038 645.08212 300 657 300 657 L 300 2 L 225.625 2 z M 374.375 2 L 374.375 619.125 C 397.08484 605.31831 422.91178 587.55043 448.75 565.46875 L 448.75 2 L 374.375 2 z M 523.125 2 L 523.125 486.09375 C 562.91903 431.89344 593.25342 363.5415 597.5 279.34375 L 597.5 2 L 523.125 2 z "
       id="path3061" />
    <path
       style="fill:#ffffff"
       inkscape:connector-curvature="0"
       d="M 2,2 2,150 598,150 598,2 2,2 z"
       id="path23" />
    <g
       style="fill:#008800;stroke:#ffffff;stroke-width:1"
       id="hand">
      <path
         inkscape:connector-curvature="0"
         d="m 314.57547,64.404453 c 0.31943,-1.0235 0.77832,-3.749835 1.04041,-4.473025 0.66559,-1.83653 6.20512,-4.65384 7.7564,-4.13675 1.55128,0.5171 -0.51709,5.17094 -0.51709,7.239315 0,2.06837 2.58546,7.756395 2.58546,10.34187 0,2.585465 -0.57942,15.492025 -0.57942,19.11168 0,3.619655 -4.65384,6.34819 -5.68803,9.450757 -1.03419,3.10255 -4.07441,5.15015 -4.59151,9.2869 -1.07631,5.09095 -0.65128,5.29615 0.37868,11.19941 -0.27714,1.2193 -22.38104,5.0601 -31.9672,-0.54584 1.03167,-4.45632 1.12411,-6.87685 0.31408,-12.86725 -2.88277,-5.67802 -4.38768,-10.473687 -5.85024,-14.495732 -1.46257,-4.022045 -2.55948,-12.407775 -2.55948,-15.698535 0,-3.29076 0.77507,-17.306 0.12008,-20.55158 -1.68974,-8.37298 1.70812,-11.441945 3.53632,-11.441945 3.94577,1.410775 2.88669,6.724785 3.10794,10.78639 0.61311,3.1839 0.36761,4.99396 1.23538,12.45014 -0.54879,-4.105755 -0.13817,-6.8847 -0.25854,-11.21476 0.38085,-5.733745 -0.0368,-5.16046 0.35264,-10.23032 0.4903,-4.88538 -1.12014,-17.37614 4.92316,-18.610905 4.02365,-0.90797 4.40495,8.223675 4.35093,14.991255 0.50394,2.907305 0.52009,6.11937 0.36564,9.689465 0.18799,4.24359 0.15224,6.110825 0.18282,10.05511 0.1142,-4.08351 -0.30147,-7.538235 0.1071,-11.97203 0.43857,-5.128005 0.93801,-5.935605 0.68691,-11.47869 0.36565,-2.19384 -0.56906,-14.2416 5.71717,-14.134505 5.06941,1.681095 3.06803,8.470035 3.36111,14.367065 0,4.40121 0.2252,7.269875 0.0757,12.16023 0,0 -0.022,5.33383 -0.44137,10.699905 0.42411,-5.52958 0.20445,-7.17816 0.37517,-10.860325 0.59636,-4.39466 0.63839,-4.30287 1.07784,-8.48281 -0.0821,-12.531 2.75705,-13.842185 4.76288,-13.75493 4.98531,0.216865 4.57051,7.678445 4.57051,14.991255 0.36563,2.647945 0.18282,5.59399 0,9.66046 0,2.29495 1.46852,8.468725 1.46852,8.468725 z"
         id="path26" />
      <path
         style="fill:none"
         inkscape:connector-curvature="0"
         d="m 281.36601,70.244143 c -1.90167,1.141 -2.66233,1.521335 -4.564,1.901665 m 14.07233,-5.76912 c -2.66233,0.38033 -4.18367,1.52133 -5.705,1.901665 m 15.21333,-2.66233 c -2.282,-0.38033 -3.04266,-0.38033 -4.94433,0 m 16.35432,0.44445 c -3.04266,-1.141 -4.94432,-1.52133 -7.22633,-1.141 m 7.84274,45.223357 c -3.27404,0.80284 -9.15478,-0.53183 -10.67279,-3.05881 m -7.65459,2.31196 c 0,0 -4.71965,0.56479 -7.78662,-0.68282"
         id="path28" />
      <path
         inkscape:connector-curvature="0"
         d="m 314.51558,64.444628 c -0.89742,3.72647 0.55877,6.555505 0.55877,8.623885 0,2.06837 -1.55127,11.37605 -1.55127,11.37605 l 0.51709,-3.61965 c 0,0 -7.23931,0.517095 -9.82478,2.585465 -2.58547,2.068375 -5.68803,11.89315 -4.65384,18.615362"
         id="path30" />
    </g>
    <use
       height="1052.3622"
       width="744.09448"
       y="0"
       xlink:href="#hand"
       x="-240"
       id="use32" />
    <use
       height="1052.3622"
       width="744.09448"
       y="0"
       xlink:href="#hand"
       x="-160"
       id="use34" />
    <use
       height="1052.3622"
       width="744.09448"
       y="0"
       xlink:href="#hand"
       x="-80"
       id="use36" />
    <use
       height="1052.3622"
       width="744.09448"
       y="0"
       xlink:href="#hand"
       x="80"
       id="use38" />
    <use
       height="1052.3622"
       width="744.09448"
       y="0"
       xlink:href="#hand"
       x="160"
       id="use40" />
    <use
       height="1052.3622"
       width="744.09448"
       y="0"
       xlink:href="#hand"
       x="240"
       id="use42" />
  </g>
  <g
     inkscape:groupmode="layer"
     id="layer1"
     inkscape:label="Cover"
     style="display:inline"
     sodipodi:insensitive="true">
    <path
       d="m 2,2 v 257 c 0,286 298,398 298,398 0,0 298,-112 298,-398 V 2 z"
       id="shine"
       inkscape:connector-curvature="0"
       style="fill:url(#radialGradient3074);stroke:#000000;stroke-width:3" />
  </g>
</svg>
