<?xml version="1.0" encoding="UTF-8" standalone="no"?>
<svg
   xmlns:dc="http://purl.org/dc/elements/1.1/"
   xmlns:cc="http://creativecommons.org/ns#"
   xmlns:rdf="http://www.w3.org/1999/02/22-rdf-syntax-ns#"
   xmlns:svg="http://www.w3.org/2000/svg"
   xmlns="http://www.w3.org/2000/svg"
   xmlns:xlink="http://www.w3.org/1999/xlink"
   xmlns:sodipodi="http://sodipodi.sourceforge.net/DTD/sodipodi-0.dtd"
   xmlns:inkscape="http://www.inkscape.org/namespaces/inkscape"
   width="600"
   height="600"
   id="svg2"
   version="1.1"
   inkscape:version="0.48.2 r9819"
   sodipodi:docname="House_Uller.svg">
  <metadata
     id="metadata19">
    <rdf:RDF>
      <cc:Work
         rdf:about="">
        <dc:format>image/svg+xml</dc:format>
        <dc:type
           rdf:resource="http://purl.org/dc/dcmitype/StillImage" />
        <dc:title />
      </cc:Work>
    </rdf:RDF>
  </metadata>
  <defs
     id="defs17">
    <radialGradient
       inkscape:collect="always"
       xlink:href="#rg"
       id="radialGradient4275"
       cx="236"
       cy="227"
       fx="236"
       fy="227"
       r="298"
       gradientUnits="userSpaceOnUse"
       gradientTransform="matrix(1.3489933,0,0,1.3489933,-82.36242,-79.221476)" />
    <clipPath
       clipPathUnits="userSpaceOnUse"
       id="clipPath4331">
      <use
         x="0"
         y="0"
         xlink:href="#path4263"
         id="use4333"
         width="100%"
         height="100%" />
    </clipPath>
  </defs>
  <sodipodi:namedview
     pagecolor="#ffffff"
     bordercolor="#666666"
     borderopacity="1"
     objecttolerance="10"
     gridtolerance="10"
     guidetolerance="10"
     inkscape:pageopacity="0"
     inkscape:pageshadow="2"
     inkscape:window-width="1366"
     inkscape:window-height="715"
     id="namedview15"
     showgrid="false"
     inkscape:zoom="0.70710678"
     inkscape:cx="399.39768"
     inkscape:cy="430.17286"
     inkscape:window-x="-8"
     inkscape:window-y="-8"
     inkscape:window-maximized="1"
     inkscape:current-layer="svg2"
     showguides="false" />
  <radialGradient
     id="rg"
     gradientUnits="userSpaceOnUse"
     cx="220"
     cy="220"
     r="405">
    <stop
       style="stop-color:#fff;stop-opacity:.3"
       offset="0"
       id="stop5" />
    <stop
       style="stop-color:#fff;stop-opacity:.2"
       offset=".2"
       id="stop7" />
    <stop
       style="stop-color:#666;stop-opacity:.1"
       offset=".6"
       id="stop9" />
    <stop
       style="stop-color:#000;stop-opacity:.13"
       offset="1"
       id="stop11" />
  </radialGradient>
  <circle
     style="opacity:1;fill:#ffff00;fill-opacity:1;stroke:none;stroke-width:60;stroke-linecap:square;stroke-miterlimit:4;stroke-dasharray:none;stroke-opacity:1"
     id="path4263"
     cx="300"
     cy="299"
     r="298" />
  <path
     inkscape:connector-curvature="0"
     style="fill:none;fill-opacity:1;stroke:none;stroke-width:3"
     id="path7200"
     d="m 2,-58 0,257 c 0,286 298,398 298,398 0,0 298,-112 298,-398 l 0,-257 z" />
  <path
     id="path4284"
     style="fill:#b00000;fill-rule:evenodd;stroke:none;stroke-width:1px;stroke-linecap:butt;stroke-linejoin:miter;stroke-opacity:1"
     d="m 0,300 c 29.197679,-27.57982 24.867931,-50.10482 15,-75 29.197679,27.57982 24.867931,50.10482 15,75 -9.867931,24.89518 -14.197679,47.42018 15,75 -9.867931,-24.89518 -14.197679,-47.42018 15,-75 29.197679,-27.57982 24.867931,-50.10482 15,-75 29.19768,27.57982 24.867931,50.10482 15,75 -9.867931,24.89518 -14.197679,47.42018 15,75 -9.867931,-24.89518 -14.197679,-47.42018 15,-75 29.19768,-27.57982 24.86793,-50.10482 15,-75 29.19768,27.57982 24.86793,50.10482 15,75 -9.86793,24.89518 -14.19768,47.42018 15,75 -9.86793,-24.89518 -14.19768,-47.42018 15,-75 29.19768,-27.57982 24.86793,-50.10482 15,-75 29.19768,27.57982 24.86793,50.10482 15,75 -9.86793,24.89518 -14.19768,47.42018 15,75 -9.86793,-24.89518 -14.19768,-47.42018 15,-75 29.19768,-27.57982 24.86793,-50.10482 15,-75 29.19768,27.57982 24.86793,50.10482 15,75 -9.86793,24.89518 -14.19768,47.42018 15,75 -9.86793,-24.89518 -14.19768,-47.42018 15,-75 29.19768,-27.57982 24.86793,-50.10482 15,-75 29.19768,27.57982 24.86793,50.10482 15,75 -9.86793,24.89518 -14.19768,47.42018 15,75 -9.86793,-24.89518 -14.19768,-47.42018 15,-75 29.19768,-27.57982 24.86793,-50.10482 15,-75 29.19768,27.57982 24.86793,50.10482 15,75 -9.86793,24.89518 -14.19768,47.42018 15,75 -9.86793,-24.89518 -14.19768,-47.42018 15,-75 29.19768,-27.57982 24.86793,-50.10482 15,-75 29.19768,27.57982 24.86793,50.10482 15,75 -9.86793,24.89518 -14.19768,47.42018 15,75 -9.86793,-24.89518 -14.19768,-47.42018 15,-75 29.19768,-27.57982 24.86793,-50.10482 15,-75 29.19768,27.57982 24.86793,50.10482 15,75 -9.86793,24.89518 -14.19768,47.42018 15,75 -9.86793,-24.89518 -14.19768,-47.42018 15,-75 29.19768,-27.57982 24.86793,-50.10482 15,-75 29.19768,27.57982 24.86793,50.10482 15,75 -9.86793,24.89518 -14.19768,47.42018 15,75 -9.86793,-24.89518 -14.19768,-47.42018 15,-75 l 0,300 -600,0 z"
     inkscape:connector-curvature="0"
     sodipodi:nodetypes="ccscscscscscscscscscscscscscscscscscscsccccc"
     clip-path="url(#clipPath4331)" />
  <circle
     r="298"
     cy="299"
     cx="300"
     id="circle4265"
     style="opacity:1;fill:url(#radialGradient4275);fill-opacity:1;stroke:#000000;stroke-width:3;stroke-linecap:square;stroke-miterlimit:4;stroke-dasharray:none;stroke-opacity:1" />
</svg>
