<?xml version="1.0" encoding="UTF-8" standalone="no"?>
<svg
   xmlns:dc="http://purl.org/dc/elements/1.1/"
   xmlns:cc="http://creativecommons.org/ns#"
   xmlns:rdf="http://www.w3.org/1999/02/22-rdf-syntax-ns#"
   xmlns:svg="http://www.w3.org/2000/svg"
   xmlns="http://www.w3.org/2000/svg"
   xmlns:xlink="http://www.w3.org/1999/xlink"
   xmlns:sodipodi="http://sodipodi.sourceforge.net/DTD/sodipodi-0.dtd"
   xmlns:inkscape="http://www.inkscape.org/namespaces/inkscape"
   width="600"
   height="660"
   id="svg2"
   version="1.1"
   inkscape:version="0.48.2 r9819"
   sodipodi:docname="House_Mudd1.svg">
  <metadata
     id="metadata24">
    <rdf:RDF>
      <cc:Work
         rdf:about="">
        <dc:format>image/svg+xml</dc:format>
        <dc:type
           rdf:resource="http://purl.org/dc/dcmitype/StillImage" />
        <dc:title></dc:title>
      </cc:Work>
    </rdf:RDF>
  </metadata>
  <sodipodi:namedview
     pagecolor="#ffffff"
     bordercolor="#666666"
     borderopacity="1"
     objecttolerance="10"
     gridtolerance="10"
     guidetolerance="10"
     inkscape:pageopacity="0"
     inkscape:pageshadow="2"
     inkscape:window-width="1366"
     inkscape:window-height="715"
     id="namedview22"
     showgrid="false"
     inkscape:zoom="0.5056885"
     inkscape:cx="-4.3899446"
     inkscape:cy="231.85153"
     inkscape:window-x="-8"
     inkscape:window-y="-8"
     inkscape:window-maximized="1"
     inkscape:current-layer="layer2" />
  <defs
     id="defs4">
    <radialGradient
       id="rg"
       gradientUnits="userSpaceOnUse"
       cx="220"
       cy="220"
       r="405">
      <stop
         style="stop-color:#fff;stop-opacity:.3"
         offset="0"
         id="stop7" />
      <stop
         style="stop-color:#fff;stop-opacity:.2"
         offset=".2"
         id="stop9" />
      <stop
         style="stop-color:#666;stop-opacity:.1"
         offset=".6"
         id="stop11" />
      <stop
         style="stop-color:#000;stop-opacity:.13"
         offset="1"
         id="stop13" />
    </radialGradient>
    <path
       id="shield"
       d="m2,2v257c0,286 298,398 298,398c0,0 298-112 298-398V2z" />
    <radialGradient
       inkscape:collect="always"
       xlink:href="#rg-7"
       id="radialGradient3055-1"
       gradientUnits="userSpaceOnUse"
       cx="220"
       cy="220"
       r="405" />
    <radialGradient
       id="rg-7"
       gradientUnits="userSpaceOnUse"
       cx="220"
       cy="220"
       r="405">
      <stop
         style="stop-color:#fff;stop-opacity:.3"
         offset="0"
         id="stop7-4" />
      <stop
         style="stop-color:#fff;stop-opacity:.2"
         offset=".2"
         id="stop9-0" />
      <stop
         style="stop-color:#666;stop-opacity:.1"
         offset=".6"
         id="stop11-9" />
      <stop
         style="stop-color:#000;stop-opacity:.13"
         offset="1"
         id="stop13-4" />
    </radialGradient>
    <radialGradient
       r="405"
       cy="220"
       cx="220"
       gradientUnits="userSpaceOnUse"
       id="radialGradient3074"
       xlink:href="#rg-7"
       inkscape:collect="always" />
    <inkscape:path-effect
       is_visible="true"
       id="path-effect10120-1"
       effect="spiro" />
    <inkscape:path-effect
       effect="spiro"
       id="path-effect10118-3"
       is_visible="true" />
    <inkscape:path-effect
       effect="spiro"
       id="path-effect10116-9"
       is_visible="true" />
    <inkscape:path-effect
       effect="spiro"
       id="path-effect10114-7"
       is_visible="true" />
    <inkscape:path-effect
       effect="spiro"
       id="path-effect10112-7"
       is_visible="true" />
    <inkscape:path-effect
       effect="spiro"
       id="path-effect10110-2"
       is_visible="true" />
    <linearGradient
       inkscape:collect="always"
       xlink:href="#linearGradient4719-5"
       id="linearGradient4039"
       gradientUnits="userSpaceOnUse"
       gradientTransform="matrix(2.3257341,0,0,2.2943177,447.69485,-1820.2799)"
       x1="-145.25935"
       y1="984.24286"
       x2="-64.14286"
       y2="984.14789" />
    <linearGradient
       inkscape:collect="always"
       id="linearGradient4719-5">
      <stop
         style="stop-color:#666666;stop-opacity:1;"
         offset="0"
         id="stop4721-5" />
      <stop
         id="stop4809-1"
         offset="0.39344174"
         style="stop-color:#666666;stop-opacity:0.74901961;" />
      <stop
         style="stop-color:#666666;stop-opacity:0;"
         offset="1"
         id="stop4723-7" />
    </linearGradient>
    <radialGradient
       inkscape:collect="always"
       xlink:href="#linearGradient4801-8"
       id="radialGradient4041"
       gradientUnits="userSpaceOnUse"
       gradientTransform="matrix(-0.72153181,1.2650715,-2.2729984,-1.2616144,1712.0113,1733.7841)"
       cx="-307.14288"
       cy="782.36218"
       fx="-307.14288"
       fy="782.36218"
       r="63" />
    <linearGradient
       inkscape:collect="always"
       id="linearGradient4801-8">
      <stop
         style="stop-color:#000000;stop-opacity:1;"
         offset="0"
         id="stop4803-2" />
      <stop
         style="stop-color:#000000;stop-opacity:0;"
         offset="1"
         id="stop4805-4" />
    </linearGradient>
    <inkscape:path-effect
       effect="spiro"
       id="path-effect10108-4"
       is_visible="true" />
    <linearGradient
       inkscape:collect="always"
       xlink:href="#linearGradient4719-5"
       id="linearGradient4044"
       gradientUnits="userSpaceOnUse"
       gradientTransform="matrix(-2.4055369,0,0,-1.6485021,142.06168,1726.5307)"
       x1="-145.25935"
       y1="984.24286"
       x2="-64.14286"
       y2="984.14789" />
    <radialGradient
       inkscape:collect="always"
       xlink:href="#linearGradient4801-8"
       id="radialGradient4046"
       gradientUnits="userSpaceOnUse"
       gradientTransform="matrix(0.74628962,-0.90897301,2.3509914,0.90648896,-1165.637,-827.11785)"
       cx="-307.14288"
       cy="782.36218"
       fx="-307.14288"
       fy="782.36218"
       r="63" />
    <inkscape:path-effect
       effect="spiro"
       id="path-effect10102-7"
       is_visible="true" />
    <linearGradient
       inkscape:collect="always"
       xlink:href="#linearGradient4719-5"
       id="linearGradient4049"
       gradientUnits="userSpaceOnUse"
       gradientTransform="matrix(2.334989,0,0,-1.6146975,449.44065,1692.189)"
       x1="-145.25935"
       y1="984.24286"
       x2="-64.14286"
       y2="984.14789" />
    <radialGradient
       inkscape:collect="always"
       xlink:href="#linearGradient4801-8"
       id="radialGradient4051"
       gradientUnits="userSpaceOnUse"
       gradientTransform="matrix(-0.72440295,-0.89033332,-2.2820431,0.88790031,1718.7881,-809.09364)"
       cx="-307.14288"
       cy="782.36218"
       fx="-307.14288"
       fy="782.36218"
       r="63" />
    <inkscape:path-effect
       is_visible="true"
       id="path-effect10096-8"
       effect="spiro" />
    <linearGradient
       inkscape:collect="always"
       xlink:href="#linearGradient4719-5"
       id="linearGradient4054"
       gradientUnits="userSpaceOnUse"
       gradientTransform="matrix(-2.409599,0,0,2.2818507,139.61083,-1810.8163)"
       x1="-145.25935"
       y1="984.24286"
       x2="-64.14286"
       y2="984.14789" />
    <radialGradient
       inkscape:collect="always"
       xlink:href="#linearGradient4801-8"
       id="radialGradient4056"
       gradientUnits="userSpaceOnUse"
       gradientTransform="matrix(0.74754985,1.2581972,2.3549614,-1.2547588,-1170.296,1723.935)"
       cx="-307.14288"
       cy="782.36218"
       fx="-307.14288"
       fy="782.36218"
       r="63" />
    <inkscape:path-effect
       is_visible="true"
       id="path-effect10090-3"
       effect="spiro" />
    <inkscape:path-effect
       effect="spiro"
       id="path-effect10084-1"
       is_visible="true" />
    <inkscape:path-effect
       effect="spiro"
       id="path-effect10082-1"
       is_visible="true" />
    <radialGradient
       inkscape:collect="always"
       xlink:href="#linearGradient4801-8"
       id="radialGradient4061"
       gradientUnits="userSpaceOnUse"
       gradientTransform="matrix(-0.76516322,1.2901254,-2.4104477,-1.2865998,1806.8444,1757.4704)"
       cx="-307.14288"
       cy="782.36218"
       fx="-307.14288"
       fy="782.36218"
       r="63" />
    <inkscape:path-effect
       effect="spiro"
       id="path-effect10080-4"
       is_visible="true" />
  </defs>
  <g
     inkscape:groupmode="layer"
     id="layer2"
     inkscape:label="Elements"
     style="display:inline">
    <use
       height="1052.3622"
       width="744.09448"
       y="0"
       x="0"
       xlink:href="#shield"
       id="use16"
       style="fill:#008800" />
    <g
       transform="matrix(2.7633875,0,0,2.7633875,379.53432,48.110679)"
       id="g3013">
      <path
         inkscape:connector-curvature="0"
         id="path3696"
         d="m -89.835532,33.652442 c 0.266338,-0.02477 0.570248,0.01256 0.935483,0.09127 1.798274,0.387527 2.494076,2.116721 1.962232,4.837132 -0.151984,0.777475 -0.02504,2.05504 0.2738,2.829266 0.29888,0.77424 0.662034,3.194975 0.798583,5.384731 0.136681,2.189815 0.452245,7.038417 0.707317,10.769463 0.777876,6.582026 0.706396,13.63414 1.567252,20.086662 0.177415,1.329791 0.434393,2.614037 0.645964,4.235896 0.107037,2.535489 0.339365,2.763386 7.02753,7.027531 l 5.110932,3.262782 1.597166,-6.776548 c 2.972299,-12.61242 11.318669,-26.659743 18.84656,-31.715155 1.604321,-1.077399 3.084812,-2.166093 3.285599,-2.418566 2.793708,-3.512911 11.965128,-7.568121 21.402025,-9.446096 17.3842497,-3.459524 34.8081087,0.566437 46.1581,10.655379 6.099313,5.421611 11.532635,13.721238 12.800146,19.576693 0.521169,2.407519 1.070959,4.873638 1.232099,5.475998 0.980715,3.665903 0.955562,9.850174 -0.06841,14.351678 -1.071617,4.711374 -5.664409,14.655912 -7.232881,15.675042 -1.340013,0.87073 4.295081,1.19935 17.88826,1.04957 10.629351,-0.11712 13.689995,0.0588 13.689995,0.77576 0,3.20525 -7.245329,9.8336 -18.43586,16.88433 -3.476528,2.19046 -5.985266,2.33813 -10.130596,0.59323 -0.677637,-0.28523 -3.101459,0.31195 -5.612898,1.369 -7.810672,3.28746 -15.3397672,4.9932 -20.1927427,4.60897 -2.4235307,-0.19188 -5.06073485,-0.0882 -5.8638812,0.22816 -2.1308934,0.83944 -3.2688788,0.79762 -7.5751306,-0.31943 -2.6416945,-0.68525 -4.7225375,-0.80209 -6.5483805,-0.36507 -1.471803,0.35229 -6.283708,0.83393 -10.701013,1.07239 -6.745627,0.36415 -9.083586,0.18585 -14.602662,-1.14084 -3.614158,-0.86876 -7.885437,-1.71927 -9.49173,-1.89378 -13.388523,-1.45452 -28.580438,-8.16013 -36.164403,-15.97166 -4.532958,-4.66905 -9.038281,-7.26092 -14.077883,-8.0771 -4.17139,-0.67558 -4.72947,-2.58604 -2.71518,-9.24074 0.89142,-2.94478 1.95895,-5.769899 2.37293,-6.274581 0.78803,-0.960417 0.20207,-3.929007 -2.35011,-11.864663 -0.71035,-2.208652 -2.14711,-7.13705 -3.19434,-10.951996 -2.80363,-10.213021 -6.38519,-18.470125 -8.37371,-19.348526 -1.38265,-0.610567 -1.61648,-1.208407 -1.43745,-3.650665 0.18005,-2.456372 0.50529,-2.962435 1.98505,-3.171516 1.82146,-0.257379 3.07335,1.119316 3.51377,3.856015 0.12587,0.782126 0.68428,1.932086 1.23209,2.555466 0.5479,0.62338 1.71669,2.783632 2.6011,4.791498 0.88456,2.007866 2.85285,6.443425 4.3808,9.856797 6.998404,15.633032 8.784419,19.76495 8.784419,20.443726 0,0.401025 0.32856,0.730133 0.730133,0.730133 l 0.182497,-0.114083 c 0.81336,-1.107335 1.226353,-4.303164 1.528716,-11.590863 0.09616,-2.318078 0.441007,-7.443626 0.775766,-11.385512 0.896092,-10.552877 0.399142,-19.525847 -1.16365,-21.03696 -1.086708,-1.050515 -1.102749,-1.69431 -0.09127,-3.924466 0.762989,-1.682282 1.208845,-2.321453 2.007866,-2.395749 z"
         style="fill:#000000;fill-opacity:1" />
      <path
         inkscape:connector-curvature="0"
         id="path2996"
         d="m -89.6875,35.15625 c -0.811061,0.01118 -1.470796,0.647322 -1.6875,1.65625 -0.445491,2.07414 2.343998,3.85572 3.03125,1.9375 0.572709,-1.596407 0.25313,-2.98459 -0.65625,-3.4375 -0.20987,-0.104541 -0.416745,-0.160083 -0.6875,-0.15625 z m 0.84375,5.59375 c -0.452432,0.173112 -0.420424,1.472665 -0.125,6.3125 0.318674,5.221591 -0.229504,16.300247 -1.625,32.625 -0.338635,2.519404 -0.169089,4.113709 -1.3125,6.09375 -0.519928,0.365716 -0.08315,1.168667 1.28125,2.375 2.388557,2.111691 2.107452,3.272027 -0.40625,1.625 -2.015167,-1.320351 -2.121631,-1.471672 -8.53125,-16.625 -7.35631,-17.3915 -10.88034,-24.84375 -11.75,-24.84375 -1.08666,0 -1.01406,0.294565 1.53125,6.09375 2.10242,4.790242 5.4217,15.353995 9.75,31.15625 2.636873,9.626958 2.770434,10.413074 1.71875,10.0625 -0.508464,-0.169464 -1.11164,-1.119591 -1.34375,-2.09375 -0.342944,-1.440151 -0.74636,-0.79089 -2.15625,3.5 -1.65229,5.02859 -1.6796,5.34947 -0.46875,6.6875 0.69896,0.7723 2.445254,1.63217 3.90625,1.90625 4.266679,0.80043 7.869353,3.00755 12.84375,7.875 2.560649,2.50552 5.675611,5.14954 6.9375,5.875 l 2.3125,1.3125 0,-1.90625 c 0,-1.18923 0.318273,-1.71174 0.8125,-1.40625 0.436766,0.26981 0.60857,1.10113 0.40625,1.875 -0.273435,1.04563 0.364653,1.88234 2.53125,3.25 4.202719,2.65306 4.804401,2.76183 5.34375,1.0625 0.655148,-2.06398 2.1147,-1.91951 1.59375,0.15625 -0.373901,1.48929 0.03844,1.81051 4.125,3.0625 5.523602,1.69234 5.895883,1.73191 5.9375,0.65625 0.05841,-1.48952 1.15625,-2.02277 1.15625,-0.5625 0,1.1787 1.234658,1.68131 7.84375,3.21875 6.443716,1.49898 9.66816,1.83587 18.0625,1.8125 11.801068,-0.0328 14.25,-0.45797 14.25,-2.53125 0,-1.88985 0.217679,-1.87609 2.6875,0.59375 1.8718421,1.87184 2.4625059,2.08161 6.0625,1.84375 2.199964,-0.14534 6.6979729,-0.25387 9.96875,-0.21875 3.2707771,0.0351 6.536295,-0.26264 7.28125,-0.65625 0.744955,-0.3936 3.514775,-1.27765 6.125,-1.96875 2.610226,-0.6911 6.198104,-1.90324 7.96875,-2.6875 3.056848,-1.35399 3.341657,-1.34399 5.90625,-0.1875 1.485528,0.66986 3.411443,1.10452 4.28125,0.96875 2.494208,-0.38933 18.544191,-12.16874 20.34375,-14.9375 l 1.625,-2.53125 -11.125,0.34375 c -6.113477,0.17307 -13.407738,0.0426 -16.21875,-0.25 l -5.125,-0.5 -2.90625,3.03125 c -3.368396,3.53164 -12.179727,8.38223 -16.21875,8.90625 -1.5203561,0.19723 -4.2339541,0.61533 -6,0.9375 -2.0662766,0.37694 -5.8339395,0.20196 -10.5625,-0.5 -10.608104,-1.57479 -16.823667,-4.85679 -23.84375,-12.53125 l -5.3125,-5.78125 -2.375,1 c -2.851535,1.19145 -5.300353,1.37669 -10.125,0.71875 -5.850118,-0.79779 -15.019366,-3.16882 -16.8125,-4.34375 -1.66098,-1.088281 -3.095055,-5.613368 -2.21875,-7.03125 0.243938,-0.394739 -0.05754,-0.71875 -0.6875,-0.71875 -0.630105,0 -3.919644,-1.867049 -7.3125,-4.125 -3.93768,-2.62044 -6.614712,-3.947997 -7.375,-3.65625 -0.655075,0.251385 -1.565571,0.23139 -2.03125,-0.0625 -0.506639,-0.319805 0.03335,-0.700593 1.34375,-0.9375 1.363845,-0.246544 1.857383,-0.479142 2,-1.34375 -0.223582,-2.392676 -0.620126,-7.202605 -0.96875,-14.53125 -0.897246,-18.861973 -1.6526,-27.043403 -2.46875,-27.34375 -0.127474,-0.04695 -0.214903,-0.109016 -0.3125,-0.125 -0.0854,-0.01398 -0.154117,-0.02473 -0.21875,0 z M -15.375,42.03125 C -25.509394,42.305063 -36.915549,45.479996 -43.40625,50 c -2.228731,1.551964 -4.871067,3.328431 -5.875,3.96875 -2.952074,1.882889 -9.012517,9.625372 -12.1875,15.5625 -5.523019,10.327871 -8.826646,23.130423 -6.90625,26.71875 1.567961,2.929666 19.097668,5.33271 24.03125,3.28125 1.305113,-0.542693 2.375146,-1.042056 2.375,-1.09375 -2.19e-4,-0.05169 -0.678746,-1.870406 -1.5,-4.03125 -0.821327,-2.160836 -1.953861,-6.626463 -2.53125,-9.9375 -0.964871,-5.532941 -0.9407,-6.536927 0.3125,-12.15625 2.389872,-10.717302 6.665922,-15.892095 17.65625,-21.34375 4.789235,-2.375627 6.493633,-2.810789 12.5,-3.25 8.5246683,-0.623344 13.3070813,0.261955 19.1875,3.53125 5.6036983,3.115485 7.275146,4.626593 10.25,9.25 2.626362,4.0817 3.862594,7.531672 4.46875,12.65625 0.503208,4.254303 -1.509748,8.998736 -5.3125,12.59375 -3.3347371,3.15254 -10.4340343,6.783132 -14.4375,7.375 -6.4367801,0.95159 -14.130031,-2.305818 -21,-8.875 -2.776988,-2.655355 -3.661956,-4.148686 -4.6875,-7.9375 -1.075633,-3.973362 -1.129227,-5.223521 -0.375,-8.59375 0.501893,-2.243232 1.819011,-5.153973 3.0625,-6.71875 2.753916,-3.465263 8.813191,-6.84375 12.28125,-6.84375 3.591598,0 12.36486848,2.598176 14.15625,4.1875 1.9333923,1.715463 4.875,8.456984 4.875,11.125 0,2.662722 -2.9211089,6.218827 -6.71875,8.15625 -2.7505573,1.403191 -3.1161374,1.427684 -7.75,0.375 -3.934322,-0.893756 -5.356693,-1.651832 -7.34375,-3.8125 -2.231141,-2.426042 -2.406247,-2.950511 -2.0625,-6 0.302275,-2.6821 0.925474,-3.88527 3.0625,-5.84375 2.42375,-2.221137 2.955197,-2.399185 5.71875,-1.96875 3.6097779,0.562232 6.3518669,2.343703 7.625,4.9375 2.1719998,4.425169 -2.6791461,8.259422 -7.0625,5.59375 -2.46471,-1.498875 -2.760354,-2.613695 -1.3125,-4.59375 0.9283642,-1.269584 3.8556435,-0.970796 3.0625,0.3125 -0.2113736,0.341958 -0.8792405,0.41371 -1.46875,0.1875 -1.3019733,-0.499622 -1.4317198,1.318332 -0.1875,2.5625 1.322417,1.322461 4.7906763,1.035602 5.5625,-0.4375 1.54912334,-2.956192 -2.6629362,-7.46875 -6.96875,-7.46875 -3.624162,0 -6.776358,3.304782 -6.75,7.0625 0.03066,4.329543 2.921634,7.347886 8.15625,8.4375 3.8472902,0.80081 4.4711163,0.736712 7.53125,-0.75 2.5174989,-1.223133 3.672323,-2.357608 4.6875,-4.625 1.3323468,-2.975891 1.3480416,-3.040901 -0.3125,-6.625 -2.3055412,-4.976273 -4.2938473,-6.855471 -8.28125,-7.875 -5.9022497,-1.509104 -9.833259,-1.633757 -12.1875,-0.40625 -1.19698,0.624147 -2.566739,1.12281 -3.03125,1.125 -1.438581,0.0077 -5.61654,5.670783 -6.59375,8.9375 -1.992022,6.658807 -0.644007,11.801611 4.4375,16.8125 6.175685,6.08977 13.6382742,9.204233 19.65625,8.1875 9.9014806,-1.672859 18.78125,-9.658986 18.78125,-16.875 0,-3.623154 -2.306243,-10.637403 -4.625,-14.15625 -4.7972661,-7.28023 -16.7355603,-12.810426 -25.9375,-12 -7.005189,0.616948 -11.995806,1.995431 -16.1875,4.4375 -9.565182,5.572573 -12.507176,9.373852 -14.625,18.90625 -1.183108,5.325795 -1.201874,6.414735 -0.25,12.40625 1.033212,6.503982 3.325442,13.521752 5.15625,15.75 0.520877,0.63398 0.96875,1.42975 0.96875,1.75 0,0.32023 2.453957,3.09867 5.46875,6.1875 7.271322,7.45008 13.048924,10.66465 21.03125,11.71875 3.2884463,0.43426 6.9827805,0.91354 8.1875,1.0625 3.97228899,0.49114 14.312907,-2.14013 18.59375,-4.71875 11.639489,-7.0113 19,-19.325852 19,-31.875 0,-6.036053 -2.868823,-16.297549 -5.90625,-21.0625 C 24.6722,57.962684 25.010094,58.371235 19.375,53.4375 11.038122,46.13825 2.1699186,42.856118 -11.25,42.09375 c -0.687274,-0.03906 -1.3872,-0.05425 -2.09375,-0.0625 -0.66239,-0.0078 -1.355624,-0.01825 -2.03125,0 z m -98.84375,1.34375 c -0.1218,0.01389 -0.24862,0.04521 -0.375,0.09375 -0.75729,0.2906 -1.11382,1.103311 -0.96875,2.125 0.29826,2.100374 3.48628,2.818788 3.46875,0.78125 -0.0139,-1.695975 -0.7714,-2.889028 -1.78125,-3 -0.11653,-0.01282 -0.22195,-0.01389 -0.34375,0 z m 44.625,53.46875 c -0.07719,0.0044 -0.125,0.04571 -0.125,0.15625 0,2.517915 6.578148,5.1421 16.4375,6.53125 5.889399,0.82977 7.481332,0.81069 9.84375,-0.0312 2.726609,-0.97181 3.641038,-3.19208 1.09375,-2.65625 -0.803146,0.16894 -4.417091,0.37056 -8.03125,0.46875 -7.853676,0.21336 -16.194382,-1.427547 -18.0625,-3.5625 -0.439248,-0.501915 -0.832289,-0.833309 -1.0625,-0.90625 -0.03454,-0.01095 -0.06805,-0.0015 -0.09375,0 z"
         style="fill:#dddddd" />
    </g>
  </g>
  <g
     inkscape:groupmode="layer"
     id="layer1"
     inkscape:label="Cover"
     style="display:inline"
     sodipodi:insensitive="true">
    <path
       d="m 2,2 v 257 c 0,286 298,398 298,398 0,0 298,-112 298,-398 V 2 z"
       id="shine"
       inkscape:connector-curvature="0"
       style="fill:url(#radialGradient3074);stroke:#000000;stroke-width:3" />
  </g>
</svg>
