<?xml version="1.0" encoding="UTF-8" standalone="no"?>
<svg
   xmlns:dc="http://purl.org/dc/elements/1.1/"
   xmlns:cc="http://creativecommons.org/ns#"
   xmlns:rdf="http://www.w3.org/1999/02/22-rdf-syntax-ns#"
   xmlns:svg="http://www.w3.org/2000/svg"
   xmlns="http://www.w3.org/2000/svg"
   xmlns:xlink="http://www.w3.org/1999/xlink"
   xmlns:sodipodi="http://sodipodi.sourceforge.net/DTD/sodipodi-0.dtd"
   xmlns:inkscape="http://www.inkscape.org/namespaces/inkscape"
   width="600"
   height="600"
   id="svg2"
   version="1.1"
   inkscape:version="0.48.2 r9819"
   sodipodi:docname="House_Vaith.svg">
  <metadata
     id="metadata19">
    <rdf:RDF>
      <cc:Work
         rdf:about="">
        <dc:format>image/svg+xml</dc:format>
        <dc:type
           rdf:resource="http://purl.org/dc/dcmitype/StillImage" />
        <dc:title />
      </cc:Work>
    </rdf:RDF>
  </metadata>
  <defs
     id="defs17">
    <radialGradient
       inkscape:collect="always"
       xlink:href="#rg"
       id="radialGradient4275"
       cx="236"
       cy="227"
       fx="236"
       fy="227"
       r="298"
       gradientUnits="userSpaceOnUse"
       gradientTransform="matrix(1.3489933,0,0,1.3489933,-82.36242,-79.221476)" />
    <clipPath
       clipPathUnits="userSpaceOnUse"
       id="clipPath4331">
      <circle
         r="298"
         cy="299"
         cx="300"
         id="use4333"
         style="fill:#ff8800;fill-opacity:1;stroke:none"
         sodipodi:cx="300"
         sodipodi:cy="299"
         sodipodi:rx="298"
         sodipodi:ry="298" />
    </clipPath>
    <radialGradient
       inkscape:collect="always"
       xlink:href="#rg-7"
       id="radialGradient4275-1"
       cx="236"
       cy="227"
       fx="236"
       fy="227"
       r="298"
       gradientUnits="userSpaceOnUse"
       gradientTransform="matrix(1.3489933,0,0,1.3489933,-82.36242,-79.221476)" />
    <radialGradient
       id="rg-7"
       gradientUnits="userSpaceOnUse"
       cx="220"
       cy="220"
       r="405">
      <stop
         style="stop-color:#fff;stop-opacity:.3"
         offset="0"
         id="stop5-4" />
      <stop
         style="stop-color:#fff;stop-opacity:.2"
         offset=".2"
         id="stop7-0" />
      <stop
         style="stop-color:#666;stop-opacity:.1"
         offset=".6"
         id="stop9-9" />
      <stop
         style="stop-color:#000;stop-opacity:.13"
         offset="1"
         id="stop11-4" />
    </radialGradient>
    <radialGradient
       r="298"
       fy="227"
       fx="236"
       cy="227"
       cx="236"
       gradientTransform="matrix(1.3489933,0,0,1.3489933,-82.36242,-79.221476)"
       gradientUnits="userSpaceOnUse"
       id="radialGradient3011"
       xlink:href="#rg-7"
       inkscape:collect="always" />
    <clipPath
       clipPathUnits="userSpaceOnUse"
       id="clipPath3208">
      <circle
         r="298"
         cy="299"
         cx="300"
         id="circle3210"
         style="fill:#ff8800;fill-opacity:1;stroke:none"
         sodipodi:cx="300"
         sodipodi:cy="299"
         sodipodi:rx="298"
         sodipodi:ry="298" />
    </clipPath>
    <clipPath
       clipPathUnits="userSpaceOnUse"
       id="clipPath3208-1">
      <circle
         r="298"
         cy="299"
         cx="300"
         id="circle3210-7"
         style="fill:#ff8800;fill-opacity:1;stroke:none"
         sodipodi:cx="300"
         sodipodi:cy="299"
         sodipodi:rx="298"
         sodipodi:ry="298" />
    </clipPath>
  </defs>
  <sodipodi:namedview
     pagecolor="#ffffff"
     bordercolor="#666666"
     borderopacity="1"
     objecttolerance="10"
     gridtolerance="10"
     guidetolerance="10"
     inkscape:pageopacity="0"
     inkscape:pageshadow="2"
     inkscape:window-width="1366"
     inkscape:window-height="715"
     id="namedview15"
     showgrid="false"
     inkscape:zoom="0.70710678"
     inkscape:cx="100.62932"
     inkscape:cy="315.86537"
     inkscape:window-x="-8"
     inkscape:window-y="-8"
     inkscape:window-maximized="1"
     inkscape:current-layer="layer2"
     showguides="false" />
  <radialGradient
     id="rg"
     gradientUnits="userSpaceOnUse"
     cx="220"
     cy="220"
     r="405">
    <stop
       style="stop-color:#fff;stop-opacity:.3"
       offset="0"
       id="stop5" />
    <stop
       style="stop-color:#fff;stop-opacity:.2"
       offset=".2"
       id="stop7" />
    <stop
       style="stop-color:#666;stop-opacity:.1"
       offset=".6"
       id="stop9" />
    <stop
       style="stop-color:#000;stop-opacity:.13"
       offset="1"
       id="stop11" />
  </radialGradient>
  <g
     inkscape:groupmode="layer"
     id="layer2"
     inkscape:label="Elements"
     style="display:inline">
    <circle
       sodipodi:ry="298"
       sodipodi:rx="298"
       sodipodi:cy="299"
       sodipodi:cx="300"
       style="fill:#ff8800;fill-opacity:1;stroke:none"
       id="path4263"
       cx="300"
       cy="299"
       r="298" />
    <path
       inkscape:connector-curvature="0"
       style="fill:none;stroke:none"
       id="path7200"
       d="m 2,-58 0,257 c 0,286 298,398 298,398 0,0 298,-112 298,-398 l 0,-257 z" />
    <path
       style="fill:#ffff00;display:inline"
       inkscape:connector-curvature="0"
       id="path20"
       d="M 100,1 300,511 500,1 z"
       clip-path="url(#clipPath3208-1)" />
    <g
       id="g3212"
       transform="translate(6,0)">
      <g
         id="g3504"
         transform="matrix(0.37236953,0,0,0.37236953,191.99057,206.87606)"
         style="display:inline">
        <path
           d="m 179.66457,468.42781 c -2.57221,4.03354 -8.19777,7.54937 -12.26413,9.75839 7.85385,-0.30711 14.67185,-4.07384 19.59785,-6.8877 l -7.33372,-2.87069 z"
           id="path3534"
           style="fill:#000000;fill-rule:evenodd;stroke:#333333;stroke-width:5.3710084;stroke-linecap:round;stroke-linejoin:round;stroke-miterlimit:4;stroke-dasharray:none"
           inkscape:connector-curvature="0" />
        <path
           d="m 161.78372,458.6676 c -5.68615,3.49545 -6.95932,9.20748 -8.77184,12.81593 4.81323,-3.60189 8.74887,-4.68945 13.65614,-7.66882 l -4.8843,-5.14711 z"
           id="path3532"
           style="fill:#000000;fill-rule:evenodd;stroke:#333333;stroke-width:5.3710084;stroke-linecap:round;stroke-linejoin:round;stroke-miterlimit:4;stroke-dasharray:none"
           inkscape:connector-curvature="0" />
        <path
           d="m 165.41653,441.30578 c -8.88619,0.71282 -15.20694,6.32035 -20.07383,11.45692 7.32856,-2.65791 13.73258,-4.53999 20.6774,-4.96669 4.74454,-2.27823 -0.82246,-5.8569 -0.60357,-6.49023 z"
           id="path3530"
           style="fill:#000000;fill-rule:evenodd;stroke:#333333;stroke-width:5.3710084;stroke-linecap:round;stroke-linejoin:round;stroke-miterlimit:4;stroke-dasharray:none"
           inkscape:connector-curvature="0" />
        <path
           d="m 182.26975,431.74043 c -7.97968,-2.85106 -15.72151,-0.94754 -24.05888,-0.81714 8.84697,1.61727 15.81035,4.52748 22.33003,7.7423 l 1.72885,-6.92516 z"
           id="path3528"
           style="fill:#000000;fill-rule:evenodd;stroke:#333333;stroke-width:5.3710084;stroke-linecap:round;stroke-linejoin:round;stroke-miterlimit:4;stroke-dasharray:none"
           inkscape:connector-curvature="0" />
        <path
           d="m 306.15905,488.57602 c -8.42828,-0.46373 -14.09096,1.99921 -20.41436,6.74665 9.71532,-1.38513 13.6012,-2.71864 20.22008,-2.27129 l 0.1943,-4.47536 z"
           id="path3536"
           style="fill:#000000;fill-rule:evenodd;stroke:#333333;stroke-width:5.3710084;stroke-linecap:round;stroke-linejoin:round;stroke-miterlimit:4;stroke-dasharray:none"
           inkscape:connector-curvature="0" />
        <path
           d="m 296.95926,504.52352 c -5.58818,3.2229 -11.97711,8.48462 -14.1158,14.96387 5.70348,-4.2486 11.5923,-6.84589 16.89824,-9.23231 l -2.78244,-5.73156 z"
           id="path3538"
           style="fill:#000000;fill-rule:evenodd;stroke:#333333;stroke-width:5.3710084;stroke-linecap:round;stroke-linejoin:round;stroke-miterlimit:4;stroke-dasharray:none"
           inkscape:connector-curvature="0" />
        <path
           d="m 305.81327,518.03254 c -5.45283,4.58972 -9.5293,10.50076 -11.11418,16.85183 5.74752,-5.22839 10.81084,-8.12707 17.12181,-10.78715 l -6.00763,-6.06468 z"
           id="path3540"
           style="fill:#000000;fill-rule:evenodd;stroke:#333333;stroke-width:5.3710084;stroke-linecap:round;stroke-linejoin:round;stroke-miterlimit:4;stroke-dasharray:none"
           inkscape:connector-curvature="0" />
        <path
           d="m 336.04882,519.76255 c 0.5652,3.50451 3.19529,8.50418 5.68482,11.93687 l 2.05693,-12.65464 -7.74175,0.71777 z"
           id="path3542"
           style="fill:#000000;fill-rule:evenodd;stroke:#333333;stroke-width:5.3710084;stroke-linecap:round;stroke-linejoin:round;stroke-miterlimit:4;stroke-dasharray:none"
           inkscape:connector-curvature="0" />
        <g
           style="fill:#000000;stroke:#333333;stroke-width:2.6855042"
           id="g4575"
           transform="translate(0,-23.534588)">
          <path
             inkscape:connector-curvature="0"
             style="fill:#000000;fill-rule:evenodd;stroke:#333333;stroke-width:5.3710084;stroke-linecap:round;stroke-linejoin:round;stroke-miterlimit:4;stroke-dasharray:none"
             id="path2935"
             d="m 199.76693,264.68732 c -3.16227,-4.7819 -7.00622,-3.88135 -10.6492,-4.65585 l 6.98027,9.03762 3.66893,-4.38177 z" />
          <path
             inkscape:connector-curvature="0"
             style="fill:#000000;fill-rule:evenodd;stroke:#333333;stroke-width:5.3710084;stroke-linecap:round;stroke-linejoin:round;stroke-miterlimit:4;stroke-dasharray:none"
             id="path2937"
             d="m 184.49706,273.14051 c -4.88985,-2.49862 -7.73311,-6.23153 -17.96545,-2.15927 7.81772,1.99902 10.01635,4.20781 13.05853,7.59793 l 4.90692,-5.43866 z" />
          <path
             inkscape:connector-curvature="0"
             style="fill:#000000;fill-rule:evenodd;stroke:#333333;stroke-width:5.3710084;stroke-linecap:round;stroke-linejoin:round;stroke-miterlimit:4;stroke-dasharray:none"
             id="path2268"
             d="m 176.17738,289.8239 c -5.78804,-0.73957 -12.23092,0.0126 -15.91575,4.83892 4.22276,-0.95188 8.46934,-1.26546 12.77219,-0.0725 l 3.14356,-4.76641 z" />
          <path
             inkscape:connector-curvature="0"
             style="fill:#000000;fill-rule:evenodd;stroke:#333333;stroke-width:5.3710084;stroke-linecap:round;stroke-linejoin:round;stroke-miterlimit:4;stroke-dasharray:none"
             id="path2270"
             d="m 187.36152,308.81129 c -3.87062,2.05273 -7.66165,4.15179 -8.12585,8.18651 4.52929,-2.84492 9.59105,-4.54713 14.85752,-5.81006 l -6.73167,-2.37645 z" />
        </g>
        <path
           d="m 280.00501,152.42582 c -0.0348,-3.48795 -1.04773,-5.78449 -0.0668,-10.50931 2.99092,4.18928 7.48744,5.53004 11.35777,8.05556"
           id="path2864"
           style="fill:#000000;fill-opacity:1;fill-rule:evenodd;stroke:#333333;stroke-width:5.3710084;stroke-linecap:round;stroke-linejoin:round;stroke-miterlimit:4;stroke-dasharray:none"
           inkscape:connector-curvature="0" />
        <path
           d="m 312.15564,118.40004 c -28.61797,4.88883 -46.38166,35.60641 -75.80407,16.68054 19.95251,31.46031 45.52991,-4.04622 78.95475,-5.7896 l -3.15068,-10.89094 z"
           id="path2866"
           style="fill:#000000;fill-rule:evenodd;stroke:#333333;stroke-width:5.3710084;stroke-linecap:round;stroke-linejoin:round;stroke-miterlimit:4;stroke-dasharray:none"
           inkscape:connector-curvature="0" />
        <path
           d="m 266.98081,123.10005 c 0.95721,4.2088 3.84677,7.12191 8.24287,9.02482 -2.63823,-5.13803 1.30668,-8.74026 3.51108,-12.74853"
           id="path2868"
           style="fill:#000000;fill-opacity:1;fill-rule:evenodd;stroke:#333333;stroke-width:5.3710084;stroke-linecap:round;stroke-linejoin:round;stroke-miterlimit:4;stroke-dasharray:none"
           inkscape:connector-curvature="0" />
        <g
           style="fill:#000000;stroke:#333333;stroke-width:2.6855042"
           id="g4588"
           transform="translate(0,-23.534588)">
          <path
             inkscape:connector-curvature="0"
             style="fill:#000000;fill-opacity:1;fill-rule:evenodd;stroke:#333333;stroke-width:5.3710084;stroke-linecap:round;stroke-linejoin:round;stroke-miterlimit:4;stroke-dasharray:none;display:inline"
             id="path2030"
             d="m 373.84384,355.85709 c 2.10263,-0.33733 12.15675,-4.46893 24.66519,44.52801 19.12564,25.7548 43.41115,-20.76675 47.45738,-36.14572 2.85986,-19.38077 -5.34552,-45.15211 -5.34552,-45.15211 -0.42763,-12.85569 9.10064,-20.7193 19.34874,-28.22197 -8.85892,2.26815 -17.3537,0.7481 -27.02561,11.47469 0,0 -0.37461,-8.995 3.06019,-17.90873 3.4348,-8.91371 13.98314,-13.29803 13.98314,-13.29803 -12.06237,3.43579 -22.41221,7.49987 -25.028,14.40141 0.49298,-21.4478 13.69612,-37.89687 30.68965,-52.85522 -15.98184,6.49105 -30.53864,14.64151 -39.60926,29.18022 -0.78112,-38.63765 31.60094,-50.75927 68.98076,-73.35982 28.05469,-16.96238 12.58936,-39.69654 12.58936,-39.69654 -17.32662,-8.80757 -33.69009,-5.51401 -47.6172,-1.01603 0,0 -9.71582,-14.90019 -19.27338,-4.27385 -11.08435,12.32388 -19.18038,18.10473 -18.3557,34.78385 -1.48029,-3.0103 20.05356,-12.66437 34.71987,-10.02297 11.80708,2.12645 6.05663,-13.51867 6.05663,-13.51867 25.50054,-8.03289 60.25825,-1.09261 24.90622,25.09764 -42.45985,28.63195 -76.29744,31.78587 -70.07823,91.00142 3.53227,33.63193 33.53552,64.13982 29.0904,84.85143 1.46448,14.20037 -21.17472,60.54085 -33.19545,31.50588 -8.08751,-37.40025 -18.20041,-42.49069 -31.04088,-43.79869 l 1.0217,12.4438 z" />
          <path
             inkscape:connector-curvature="0"
             style="fill:#000000;fill-opacity:1;fill-rule:evenodd;stroke:#333333;stroke-width:5.3710084;stroke-linecap:round;stroke-linejoin:round;stroke-miterlimit:4;stroke-dasharray:none"
             id="path3243"
             d="m 195.68205,147.4347 c 8.6144,15.9433 17.01795,13.72303 27.37543,22.23615 13.51446,11.10797 19.19695,24.79049 54.8255,24.79007 l -9.75498,53.52533 -28.1883,-15.92707 c -5.70697,-4.40601 -21.10414,-8.76114 -29.27018,-24.37629 -6.93507,0.90336 -8.53919,7.02559 -9.18307,14.08785 -3.37653,-8.23464 -8.17521,-16.50985 -3.72577,-24.52123 l -10.41016,-11.94159 c -6.51969,8.1937 -16.42488,5.51309 -25.0331,6.99842 11.06869,-4.22615 19.85339,-11.15092 21.27172,-18.78393 l -4.2435,-6.4281 c -10.79099,-0.011 -6.84012,3.72427 -16.14955,4.40685 l -7.28228,-3.41328 c 6.68218,-6.86081 12.47139,-4.40878 18.95415,-7.51141 -10.26374,-4.31171 -13.95102,2.02444 -22.18329,-0.45412 -1.91734,-3.23212 -1.82055,-5.54563 0.21645,-7.89127 5.6898,-1.32085 12.44332,-2.01676 18.85795,-1.31036 -9.07547,-6.49408 -9.10892,-3.47162 -16.52504,-4.63864 -2.40661,-3.85671 -3.66558,-6.24133 1.22192,-8.33309 4.89291,1.03017 14.70958,0.68756 20.63745,5.29369 -0.77936,-4.47241 -3.36505,-5.94475 -9.22384,-7.53894 1.15742,-4.95243 -1.49516,-3.15029 4.49976,-5.68049 12.06147,3.81463 21.31428,8.11309 23.31273,17.41145 z" />
          <path
             inkscape:connector-curvature="0"
             style="fill:#000000;fill-opacity:1;fill-rule:evenodd;stroke:#333333;stroke-width:5.3710084;stroke-linecap:round;stroke-linejoin:round;stroke-miterlimit:4;stroke-dasharray:none"
             id="path3524"
             d="m 333.90724,345.56167 c -33.63895,5.25743 -81.58375,-0.77456 -104.24388,24.18716 -14.67896,10.02759 -64.59427,25.08276 -45.85688,0.85412 -30.56926,15.85473 20.33744,27.66731 52.84044,2.31553 -40.38968,29.42802 5.16051,33.55242 10.26107,61.93459 -8.6539,16.2122 -18.63042,9.64892 -31.96146,24.63355 -6.13622,3.19171 -12.84939,2.06148 -23.50019,0.4668 -1.76116,-4.43502 -5.64382,-6.44169 -9.79015,-7.23457 -4.27113,1.41342 -9.19825,4.52842 -8.57613,8.04467 6.49284,1.17885 6.39697,4.58437 11.67505,7.85414 -9.41556,-2.8756 -9.48702,-7.54277 -20.46601,-4.74202 -4.28839,3.14604 -3.96312,7.35378 -3.24583,9.21926 9.355,0.85068 12.53584,0.79229 20.20019,3.08621 -8.70769,0.15321 -9.83468,-1.81228 -21.42843,5.66582 1.01285,3.82289 3.04626,5.31058 6.60931,7.66433 6.99435,-1.51032 9.72482,-7.38873 18.40752,-4.31655 -8.11857,4.96952 -7.89987,6.2758 -8.73294,8.04419 1.55963,1.97438 4.23032,3.46061 8.46946,4.25764 7.62155,-0.90874 10.62867,-4.50233 13.42371,-8.2193 39.83275,2.32625 27.64689,-8.54773 38.03322,-11.17953 13.81758,6.30526 13.9282,-0.90828 18.38061,-6.9344 14.59502,9.13847 11.7221,-0.18882 14.33712,-3.1079 -3.52855,-13.34329 10.56619,-15.50955 15.25689,-26.86865 6.35202,-5.04835 15.67119,-9.19214 -8.10092,-23.42403 -7.38036,-13.41152 -4.3694,-23.88332 9.67399,-31.23403 23.24596,6.46907 41.71472,1.11095 62.5721,1.66643 l -14.23786,-42.63346 z" />
          <path
             inkscape:connector-curvature="0"
             style="fill:#000000;fill-opacity:1;fill-rule:evenodd;stroke:#333333;stroke-width:5.3710084;stroke-linecap:round;stroke-linejoin:round;stroke-miterlimit:4;stroke-dasharray:none"
             id="path3526"
             d="m 312.85145,342.91729 c 7.41457,7.40449 15.5994,14.72465 12.79165,23.24893 -7.75863,5.52467 -11.9825,10.72385 7.73864,13.71829 l 7.58509,-19.43575 -15.4758,-17.71742 c -9.04871,-2.26213 -12.40359,-1.78761 -12.63958,0.18587 z" />
          <path
             inkscape:connector-curvature="0"
             style="fill:#000000;fill-opacity:1;fill-rule:evenodd;stroke:#333333;stroke-width:5.3710084;stroke-linecap:round;stroke-linejoin:round;stroke-miterlimit:4;stroke-dasharray:none"
             id="path3453"
             d="m 261.38881,245.40791 c 11.11563,45.4748 45.25673,60.69925 59.49176,87.93107 16.26352,31.11224 10.46601,33.97208 10.46601,33.97208 -6.79213,18.34813 -23.7829,33.88532 -18.73874,45.57317 22.02242,51.02822 -29.35629,30.7202 -3.86308,60.78436 -13.91221,-15.42916 9.96957,-19.66249 19.38672,-28.21386 5.54291,7.90788 11.67834,15.23847 23.62585,16.90589 -3.51397,11.41797 -12.35556,23.03482 -6.26831,34.09439 -7.23409,7.08015 -10.81697,17.73474 -23.41038,19.56825 -4.99074,-2.92228 -5.44686,-5.6298 -14.97521,-4.67847 -5.14049,2.25269 -3.19332,5.14201 -3.54097,7.21578 12.35428,1.88256 2.53509,0.43536 12.55769,4.34116 -13.00285,1.73054 -8.667,-3.41845 -20.17722,4.42065 -0.74055,3.16918 3.53583,5.91866 4.11285,8.29439 11.79258,-2.44563 6.70701,-4.9405 18.58758,-2.6535 -6.44235,3.07894 -7.99532,3.03121 -13.09571,7.74799 -1.20042,4.46568 5.41085,5.65507 5.68447,8.32103 11.98383,-3.62286 8.26496,-8.34274 21.98095,-11.831 -0.17471,2.52519 -0.39891,5.06216 1.77266,7.03165 3.63388,0.74193 7.04042,1.07007 10.56105,-1.22202 0.96038,-3.25972 2.75059,-6.55039 -0.33748,-9.65901 11.06609,-8.91333 28.92746,-12.85121 26.41013,-31.71017 3.30598,4.1379 7.12718,7.72675 14.09416,7.96354 -4.5127,-10.7402 12.27614,-13.51404 -2.00005,-26.20275 3.81651,-4.46499 6.32534,-10.60505 13.92633,-10.22224 l 0.29724,-19.41595 C 358.89101,421.763 401.54564,377.16306 369.0734,337.60408 370.21929,269.0806 365.14976,233.41005 353.8648,203.95492 l -92.47599,41.45299 z" />
          <path
             inkscape:connector-curvature="0"
             style="fill:#000000;fill-opacity:1;fill-rule:evenodd;stroke:#333333;stroke-width:5.3710084;stroke-linecap:round;stroke-linejoin:round;stroke-miterlimit:4;stroke-dasharray:none"
             id="path2262"
             d="m 201.75531,263.19816 c -5.28993,0.85482 -5.55674,3.48289 -6.94058,5.71669 1.41231,4.34165 6.81415,8.00501 12.18867,11.67305 -7.06034,-2.05494 -14.07222,-2.81272 -21.28336,-8.90798 l -6.12343,0.22857 c -3.41065,2.35078 -3.1636,4.56505 -2.55792,6.76589 7.51943,7.37326 13.84443,7.48588 20.55559,9.94582 -7.62475,0.0854 -14.65556,2.87795 -23.00803,-0.35397 -5.91685,3.19137 -2.55383,5.29896 -2.26512,7.76561 7.87363,2.79727 16.70558,1.10505 25.09438,1.48893 -0.86874,3.42069 -5.06416,6.63734 -11.38994,9.7233 -1.77372,4.17843 2.84654,5.25703 6.88985,6.61538 5.40753,-1.09442 10.07654,-3.1613 11.9304,-8.93493 8.60905,-0.24111 17.68718,-0.13867 24.98889,-1.33703 5.22517,3.44335 -2.77371,7.38036 -6.22682,11.14766 21.22003,-0.2372 20.79082,-10.84536 37.66862,-17.57677 -3.26315,6.19974 -0.2139,11.15771 3.15418,16.05299 1.75058,-9.97484 11.68342,-12.38809 20.334,-16.52546 l 5.91245,-5.88046 c 5.54224,2.49162 12.19332,2.05017 18.9559,1.31381 -3.46291,-3.77866 -0.34243,-7.80306 5.68643,-11.93604 9.00165,5.35597 14.30995,4.46255 19.00109,2.52488 -19.59712,-6.30362 -5.54146,-25.68026 -6.06932,-39.39166 l -29.48012,-23.15568 -53.43813,46.86839 c -5.1695,4.1093 -12.43798,8.06559 -23.16421,9.15216 -10.38905,-1.93323 -15.9508,-7.0911 -20.41347,-12.98315 z" />
          <path
             inkscape:connector-curvature="0"
             style="fill:#000000;fill-opacity:1;fill-rule:evenodd;stroke:#333333;stroke-width:5.3710084;stroke-linecap:round;stroke-linejoin:round;stroke-miterlimit:4;stroke-dasharray:none"
             id="path2870"
             d="m 298.44075,250.59053 -1.68618,12.64428 9.49328,-7.32502 c -12.79633,29.3688 6.00416,31.88091 25.77107,33.57155 -7.36321,-15.18989 9.50795,-27.43783 13.96752,-44.5462 -4.47394,16.87519 -0.25741,26.35738 25.90232,17.17256 -26.97818,-5.90551 0.8702,-21.15043 -10.14704,-39.89026 5.70951,10.5051 14.48147,4.62439 22.28474,3.92693 -24.93837,-7.24245 -11.8817,-23.7974 -11.07308,-37.35037 l -11.68959,-23.18459 c 5.7535,15.03663 15.09668,8.95799 23.71837,7.12333 -17.66598,-3.56208 -5.87792,-26.97863 -27.32606,-37.32621 7.8026,3.10107 15.71467,7.43926 22.8691,3.21527 -16.97299,-2.11917 -11.72258,-19.35843 -27.23692,-23.31376 8.75088,0.47709 14.02392,-2.57826 20.46481,-4.44743 -7.41096,-1.22951 -14.13476,0.70312 -22.40608,-4.48523 L 338.43425,94.565113 306.5733,94.180932 c -7.90479,2.291729 -15.4318,5.342882 -21.60008,11.125398 -5.74398,3.1742 -13.10445,5.5569 -12.58591,11.79741 -12.25131,2.49486 -35.39166,16.13582 -17.51454,14.62246 0.83108,12.77941 4.00912,16.27241 10.87866,16.05258 15.41906,2.5426 18.66089,-8.66399 29.95809,-11.77245 25.42014,6.67888 15.39152,23.25273 8.02376,30.12015 -8.00823,7.4644 -22.76385,4.0701 -22.76385,4.0701 -4.62696,7.047 -4.01285,11.00616 1.84225,11.87747 7.19181,5.86606 9.27228,0.33618 12.94492,-1.64388 25.22892,-0.54769 21.36167,-13.2406 30.25523,-20.60692 -6.60368,10.63507 3.46373,24.03243 -23.59456,30.85258 -13.97282,3.5283 -12.58407,-1.79632 -25.77973,2.09452 -13.19563,3.89087 -16.51157,12.66918 -27.00286,13.46887 -9.37815,0.71483 -22.33945,1.78538 -13.66303,-18.66311 -18.62964,19.46688 1.57474,35.70722 26.55353,26.97023 -22.44475,8.09713 -36.36776,18.53669 -56.13524,6.93746 27.64845,32.78246 40.24373,9.37887 70.05701,6.11519 -29.54196,5.09023 -25.31198,29.14882 -57.47353,27.98363 9.27142,11.72656 19.18245,9.25135 32.18659,5.28303 -4.76713,4.80449 -8.54277,15.52326 -18.86523,15.20833 5.95919,8.57807 21.66836,4.27012 35.21852,0.5315 15.41696,-4.2537 22.87298,-15.67269 30.92745,-26.01495 z" />
        </g>
        <path
           d="m 319.53556,80.984192 c -2.97065,-11.781387 7.94084,-14.359305 15.83824,-18.935436 -0.21398,7.831243 1.65031,17.773386 -3.22384,20.871346"
           id="path2872"
           style="fill:#000000;fill-opacity:1;fill-rule:evenodd;stroke:#333333;stroke-width:5.3710084;stroke-linecap:round;stroke-linejoin:round;stroke-miterlimit:4;stroke-dasharray:none"
           inkscape:connector-curvature="0" />
        <path
           d="m 274.02728,94.439682 c 4.28426,4.48516 6.77141,0.70081 9.65247,-1.27083 6.85126,-9.57892 12.86979,-3.80049 19.06328,-1.24895"
           id="path2874"
           style="fill:#000000;fill-opacity:1;fill-rule:evenodd;stroke:#333333;stroke-width:5.3710084;stroke-linecap:round;stroke-linejoin:round;stroke-miterlimit:4;stroke-dasharray:none"
           inkscape:connector-curvature="0" />
        <path
           d="m 279.57434,97.189772 c 3.77767,1.75344 5.99061,2.31787 9.08342,0.91987 5.05202,-2.10416 6.29213,-5.32811 8.75166,-5.41594 -0.45282,-2.07858 -1.11297,-4.03829 -4.60825,-4.37294 -7.77761,2.60041 -7.11359,5.2773 -13.22683,8.86901 z"
           id="path2876"
           style="fill:#ffffff;fill-opacity:1;fill-rule:evenodd;stroke:#333333;stroke-width:5.3710084;stroke-linecap:round;stroke-linejoin:round;stroke-miterlimit:4;stroke-dasharray:none"
           inkscape:connector-curvature="0" />
        <g
           style="fill:#000000;stroke:#333333;stroke-width:2.6855042"
           id="g4581"
           transform="translate(0,-23.534588)">
          <path
             inkscape:connector-curvature="0"
             style="fill:#000000;fill-rule:evenodd;stroke:#333333;stroke-width:5.3710084;stroke-linecap:round;stroke-linejoin:round;stroke-miterlimit:4;stroke-dasharray:none"
             id="path3249"
             d="m 155.59369,152.23603 c -5.63684,1.32605 -14.23261,4.45303 -17.4561,10.76784 7.38213,-1.94788 13.23359,-3.59079 18.44012,-4.42935 l -0.98402,-6.33849 z" />
          <path
             inkscape:connector-curvature="0"
             style="fill:#000000;fill-rule:evenodd;stroke:#333333;stroke-width:5.3710084;stroke-linecap:round;stroke-linejoin:round;stroke-miterlimit:4;stroke-dasharray:none"
             id="path3247"
             d="m 157.36609,138.88256 c -5.71598,0.97326 -9.66866,0.34051 -18.46948,6.20579 7.62692,-0.70212 15.67149,-0.49702 20.53547,1.36713 l -2.06599,-7.57292 z" />
          <path
             inkscape:connector-curvature="0"
             style="fill:#000000;fill-rule:evenodd;stroke:#333333;stroke-width:5.3710084;stroke-linecap:round;stroke-linejoin:round;stroke-miterlimit:4;stroke-dasharray:none"
             id="path3245"
             d="m 173.42744,131.62095 c -5.18662,-2.63369 -11.216,-1.72003 -17.06988,-1.54512 7.8223,1.9582 9.89031,3.52261 14.10503,6.4805 l 2.96485,-4.93538 z" />
          <path
             inkscape:connector-curvature="0"
             style="fill:#000000;fill-rule:evenodd;stroke:#333333;stroke-width:5.3710084;stroke-linecap:round;stroke-linejoin:round;stroke-miterlimit:4;stroke-dasharray:none"
             id="path4220"
             d="m 160.43848,167.58185 c -7.48072,2.2828 -6.41021,3.90789 -8.34011,9.48584 7.148,-4.84742 11.52908,-4.89695 14.56316,-7.90052 l -6.22305,-1.58532 z" />
          <path
             inkscape:connector-curvature="0"
             style="fill:#000000;fill-opacity:1;fill-rule:evenodd;stroke:#333333;stroke-width:5.3710084;stroke-linecap:round;stroke-linejoin:round;stroke-miterlimit:4;stroke-dasharray:none"
             id="path4248"
             d="m 176.42399,141.53477 c 6.49182,7.73456 2.88165,11.8726 12.42328,15.62816" />
        </g>
        <path
           d="m 292.28128,93.737712 a 3.7121764,3.7121762 0 0 1 -7.42435,0 3.7121764,3.7121762 0 1 1 7.42435,0 z"
           id="path13339"
           style="fill:#ffdd00;fill-opacity:1;fill-rule:evenodd;stroke:#333333;stroke-width:5.3710084;stroke-linecap:round;stroke-linejoin:round;stroke-miterlimit:4;stroke-dasharray:none;stroke-dashoffset:0"
           inkscape:connector-curvature="0" />
      </g>
      <use
         height="660"
         width="600"
         transform="translate(-71.767429,-201.52407)"
         id="use3288"
         xlink:href="#g3504"
         y="0"
         x="0"
         style="display:inline" />
      <use
         height="660"
         width="600"
         transform="translate(143.53488,0)"
         id="use3290"
         xlink:href="#use3288"
         y="0"
         x="0"
         style="display:inline" />
    </g>
  </g>
  <g
     inkscape:groupmode="layer"
     id="layer1"
     inkscape:label="Reflect"
     style="display:inline"
     sodipodi:insensitive="true">
    <circle
       sodipodi:ry="298"
       sodipodi:rx="298"
       sodipodi:cy="299"
       sodipodi:cx="300"
       r="298"
       cy="299"
       cx="300"
       id="circle4265"
       style="fill:url(#radialGradient3011);fill-opacity:1;stroke:#000000;stroke-width:3;stroke-linecap:square;stroke-miterlimit:4;stroke-opacity:1;stroke-dasharray:none" />
  </g>
</svg>
