<?xml version="1.0" encoding="UTF-8" standalone="no"?>
<svg
   xmlns:dc="http://purl.org/dc/elements/1.1/"
   xmlns:cc="http://creativecommons.org/ns#"
   xmlns:rdf="http://www.w3.org/1999/02/22-rdf-syntax-ns#"
   xmlns:svg="http://www.w3.org/2000/svg"
   xmlns="http://www.w3.org/2000/svg"
   xmlns:xlink="http://www.w3.org/1999/xlink"
   xmlns:sodipodi="http://sodipodi.sourceforge.net/DTD/sodipodi-0.dtd"
   xmlns:inkscape="http://www.inkscape.org/namespaces/inkscape"
   width="600"
   height="660"
   id="svg2"
   version="1.1"
   inkscape:version="0.48.2 r9819"
   sodipodi:docname="House_Vance_(Atranta).svg">
  <metadata
     id="metadata24">
    <rdf:RDF>
      <cc:Work
         rdf:about="">
        <dc:format>image/svg+xml</dc:format>
        <dc:type
           rdf:resource="http://purl.org/dc/dcmitype/StillImage" />
        <dc:title />
      </cc:Work>
    </rdf:RDF>
  </metadata>
  <sodipodi:namedview
     pagecolor="#ffffff"
     bordercolor="#666666"
     borderopacity="1"
     objecttolerance="10"
     gridtolerance="10"
     guidetolerance="10"
     inkscape:pageopacity="0"
     inkscape:pageshadow="2"
     inkscape:window-width="1366"
     inkscape:window-height="715"
     id="namedview22"
     showgrid="false"
     inkscape:zoom="0.5056885"
     inkscape:cx="264.0834"
     inkscape:cy="392.99322"
     inkscape:window-x="-8"
     inkscape:window-y="-8"
     inkscape:window-maximized="1"
     inkscape:current-layer="layer2" />
  <defs
     id="defs4">
    <radialGradient
       id="rg"
       gradientUnits="userSpaceOnUse"
       cx="220"
       cy="220"
       r="405">
      <stop
         style="stop-color:#fff;stop-opacity:.3"
         offset="0"
         id="stop7" />
      <stop
         style="stop-color:#fff;stop-opacity:.2"
         offset=".2"
         id="stop9" />
      <stop
         style="stop-color:#666;stop-opacity:.1"
         offset=".6"
         id="stop11" />
      <stop
         style="stop-color:#000;stop-opacity:.13"
         offset="1"
         id="stop13" />
    </radialGradient>
    <path
       id="shield"
       d="m2,2v257c0,286 298,398 298,398c0,0 298-112 298-398V2z" />
    <radialGradient
       inkscape:collect="always"
       xlink:href="#rg-7"
       id="radialGradient3055-1"
       gradientUnits="userSpaceOnUse"
       cx="220"
       cy="220"
       r="405" />
    <radialGradient
       id="rg-7"
       gradientUnits="userSpaceOnUse"
       cx="220"
       cy="220"
       r="405">
      <stop
         style="stop-color:#fff;stop-opacity:.3"
         offset="0"
         id="stop7-4" />
      <stop
         style="stop-color:#fff;stop-opacity:.2"
         offset=".2"
         id="stop9-0" />
      <stop
         style="stop-color:#666;stop-opacity:.1"
         offset=".6"
         id="stop11-9" />
      <stop
         style="stop-color:#000;stop-opacity:.13"
         offset="1"
         id="stop13-4" />
    </radialGradient>
    <radialGradient
       r="405"
       cy="220"
       cx="220"
       gradientUnits="userSpaceOnUse"
       id="radialGradient3074"
       xlink:href="#rg-7"
       inkscape:collect="always" />
    <inkscape:path-effect
       is_visible="true"
       id="path-effect10120-1"
       effect="spiro" />
    <inkscape:path-effect
       effect="spiro"
       id="path-effect10118-3"
       is_visible="true" />
    <inkscape:path-effect
       effect="spiro"
       id="path-effect10116-9"
       is_visible="true" />
    <inkscape:path-effect
       effect="spiro"
       id="path-effect10114-7"
       is_visible="true" />
    <inkscape:path-effect
       effect="spiro"
       id="path-effect10112-7"
       is_visible="true" />
    <inkscape:path-effect
       effect="spiro"
       id="path-effect10110-2"
       is_visible="true" />
    <linearGradient
       inkscape:collect="always"
       xlink:href="#linearGradient4719-5"
       id="linearGradient4039"
       gradientUnits="userSpaceOnUse"
       gradientTransform="matrix(2.3257341,0,0,2.2943177,447.69485,-1820.2799)"
       x1="-145.25935"
       y1="984.24286"
       x2="-64.14286"
       y2="984.14789" />
    <linearGradient
       inkscape:collect="always"
       id="linearGradient4719-5">
      <stop
         style="stop-color:#666666;stop-opacity:1;"
         offset="0"
         id="stop4721-5" />
      <stop
         id="stop4809-1"
         offset="0.39344174"
         style="stop-color:#666666;stop-opacity:0.74901961;" />
      <stop
         style="stop-color:#666666;stop-opacity:0;"
         offset="1"
         id="stop4723-7" />
    </linearGradient>
    <radialGradient
       inkscape:collect="always"
       xlink:href="#linearGradient4801-8"
       id="radialGradient4041"
       gradientUnits="userSpaceOnUse"
       gradientTransform="matrix(-0.72153181,1.2650715,-2.2729984,-1.2616144,1712.0113,1733.7841)"
       cx="-307.14288"
       cy="782.36218"
       fx="-307.14288"
       fy="782.36218"
       r="63" />
    <linearGradient
       inkscape:collect="always"
       id="linearGradient4801-8">
      <stop
         style="stop-color:#000000;stop-opacity:1;"
         offset="0"
         id="stop4803-2" />
      <stop
         style="stop-color:#000000;stop-opacity:0;"
         offset="1"
         id="stop4805-4" />
    </linearGradient>
    <inkscape:path-effect
       effect="spiro"
       id="path-effect10108-4"
       is_visible="true" />
    <linearGradient
       inkscape:collect="always"
       xlink:href="#linearGradient4719-5"
       id="linearGradient4044"
       gradientUnits="userSpaceOnUse"
       gradientTransform="matrix(-2.4055369,0,0,-1.6485021,142.06168,1726.5307)"
       x1="-145.25935"
       y1="984.24286"
       x2="-64.14286"
       y2="984.14789" />
    <radialGradient
       inkscape:collect="always"
       xlink:href="#linearGradient4801-8"
       id="radialGradient4046"
       gradientUnits="userSpaceOnUse"
       gradientTransform="matrix(0.74628962,-0.90897301,2.3509914,0.90648896,-1165.637,-827.11785)"
       cx="-307.14288"
       cy="782.36218"
       fx="-307.14288"
       fy="782.36218"
       r="63" />
    <inkscape:path-effect
       effect="spiro"
       id="path-effect10102-7"
       is_visible="true" />
    <linearGradient
       inkscape:collect="always"
       xlink:href="#linearGradient4719-5"
       id="linearGradient4049"
       gradientUnits="userSpaceOnUse"
       gradientTransform="matrix(2.334989,0,0,-1.6146975,449.44065,1692.189)"
       x1="-145.25935"
       y1="984.24286"
       x2="-64.14286"
       y2="984.14789" />
    <radialGradient
       inkscape:collect="always"
       xlink:href="#linearGradient4801-8"
       id="radialGradient4051"
       gradientUnits="userSpaceOnUse"
       gradientTransform="matrix(-0.72440295,-0.89033332,-2.2820431,0.88790031,1718.7881,-809.09364)"
       cx="-307.14288"
       cy="782.36218"
       fx="-307.14288"
       fy="782.36218"
       r="63" />
    <inkscape:path-effect
       is_visible="true"
       id="path-effect10096-8"
       effect="spiro" />
    <linearGradient
       inkscape:collect="always"
       xlink:href="#linearGradient4719-5"
       id="linearGradient4054"
       gradientUnits="userSpaceOnUse"
       gradientTransform="matrix(-2.409599,0,0,2.2818507,139.61083,-1810.8163)"
       x1="-145.25935"
       y1="984.24286"
       x2="-64.14286"
       y2="984.14789" />
    <radialGradient
       inkscape:collect="always"
       xlink:href="#linearGradient4801-8"
       id="radialGradient4056"
       gradientUnits="userSpaceOnUse"
       gradientTransform="matrix(0.74754985,1.2581972,2.3549614,-1.2547588,-1170.296,1723.935)"
       cx="-307.14288"
       cy="782.36218"
       fx="-307.14288"
       fy="782.36218"
       r="63" />
    <inkscape:path-effect
       is_visible="true"
       id="path-effect10090-3"
       effect="spiro" />
    <inkscape:path-effect
       effect="spiro"
       id="path-effect10084-1"
       is_visible="true" />
    <inkscape:path-effect
       effect="spiro"
       id="path-effect10082-1"
       is_visible="true" />
    <radialGradient
       inkscape:collect="always"
       xlink:href="#linearGradient4801-8"
       id="radialGradient4061"
       gradientUnits="userSpaceOnUse"
       gradientTransform="matrix(-0.76516322,1.2901254,-2.4104477,-1.2865998,1806.8444,1757.4704)"
       cx="-307.14288"
       cy="782.36218"
       fx="-307.14288"
       fy="782.36218"
       r="63" />
    <inkscape:path-effect
       effect="spiro"
       id="path-effect10080-4"
       is_visible="true" />
    <pattern
       id="ermine"
       patternUnits="userSpaceOnUse"
       x="-10"
       width="60"
       height="120">
      <g
         transform="scale(0.2)"
         id="g17">
        <path
           id="ermine1"
           d="m 46,105 c 0,50 -25,105 -46,125 15,0 25,0 35,-5 3,10 6,20 15,25 9,-5 12,-15 15,-25 10,5 20,5 35,5 C 79,210 54,155 54,105 Z m 54,0 a 20,20 0 0 1 -20,20 20,20 0 0 1 -20,-20 20,20 0 0 1 20,-20 20,20 0 0 1 20,20 z m -60,0 A 20,20 0 0 1 20,125 20,20 0 0 1 0,105 20,20 0 0 1 20,85 20,20 0 0 1 40,105 Z M 70,70 A 20,20 0 0 1 50,90 20,20 0 0 1 30,70 20,20 0 0 1 50,50 20,20 0 0 1 70,70 Z" />
        <use
           xlink:href="#ermine1"
           x="150"
           y="300"
           id="use20" />
      </g>
    </pattern>
  </defs>
  <g
     inkscape:groupmode="layer"
     id="layer2"
     inkscape:label="Elements"
     style="display:inline">
    <use
       id="bg"
       xlink:href="#shield"
       style="fill:#000000;display:inline"
       x="0"
       y="0"
       width="1"
       height="1" />
    <path
       inkscape:connector-curvature="0"
       id="top-right"
       d="m 300,2 0,298 -295.89258,0 C 2.73239,286.74845 2,273.0886 2,259 L 2,2 300,2 z"
       style="fill:#ffffff;display:inline" />
    <path
       inkscape:connector-curvature="0"
       id="bottom-left"
       d="M 595.89258,300 C 569.35441,555.75613 300,657 300,657 l 0,-357 295.89258,0 z"
       style="fill:#ffffff;display:inline" />
    <g
       style="display:inline"
       id="g3956"
       transform="translate(0,11.701529)">
      <path
         d="m 28.268726,44.272674 c 6.125145,3.882337 12.431899,7.673859 17.400899,12.523557 3.825677,3.284486 8.46115,5.937953 12.876112,8.692423 3.644219,1.757423 7.189049,3.689344 11.265302,4.650143 2.590733,0.891941 5.189454,1.715185 7.961681,1.582353 3.709214,0.03672 7.367376,0.565206 10.981689,1.51596 2.062158,0.102491 2.331272,2.135943 3.500164,3.20039 0.217763,2.518435 0.653329,5.068816 -0.554725,7.37805 -1.503481,4.399846 -2.721974,8.905841 -3.370375,13.488791 -0.391757,4.082109 -0.335351,8.334349 1.297358,12.403759 1.491098,2.35102 2.61465,4.86998 5.180128,6.71723 1.333352,1.41987 2.864447,2.6406 4.984045,3.26611 2.813796,1.42552 6.005716,2.19565 9.158576,2.67988 2.91088,-0.0299 5.92288,0.26827 8.50566,-0.77938 2.76068,-0.30228 4.45011,-1.92674 6.38806,-3.24501 2.40078,-0.70457 5.04053,-1.75333 7.70319,-1.0416 1.72882,1.29425 3.89023,2.37409 4.31271,4.31575 0.65421,1.43521 0.40823,3.09989 0.0601,4.48984 -0.78789,1.77869 -2.069,3.3821 -3.08212,5.02931 -0.67872,1.16044 0.26308,3.73713 -1.67111,3.80035 -6.4782,0.15943 -12.95641,0.31886 -19.43461,0.47829 -0.78043,-1.38412 -0.66468,-3.31375 -2.91508,-3.79868 -2.43765,-1.14574 -4.8155,-2.44918 -7.64972,-2.58868 -3.848127,-0.8584 -7.724974,-1.09676 -11.610376,-1.11687 -3.584833,-0.45464 -6.850585,0.50551 -10.221375,1.00308 -0.0301,-1.43131 -0.209041,-2.82389 -1.605236,-3.96937 -0.993899,-1.32315 -1.992279,-2.6308 -3.945958,-3.14244 -2.881288,-1.71173 -6.405363,-1.75096 -9.690582,-2.36667 -5.1136,0.0926 -10.145628,0.49648 -15.066767,1.32189 -3.712289,0.55222 -7.02078,1.99759 -10.778435,2.49708 -2.620491,-0.10191 -5.250732,-0.68651 -7.473564,-2.01956 -1.019091,-0.37598 -2.70106,-4.08585 -0.767061,-2.54521 1.51247,0.28854 3.896592,0.94158 5.027903,0.0539 1.411642,-0.89319 2.543038,-1.89498 2.046161,-3.5037 0.228232,-1.6777 -1.948021,-2.97076 -2.830835,-4.46542 -2.658746,-1.27256 -5.154795,-2.9222 -8.283484,-3.1238 -4.892346,-0.92702 -9.784693,-1.85405 -14.677035,-2.78107 -1.8413042,-1.07269 -2.1277652,-2.50696 -1.8150305,-4.08056 0.018903,-1.375575 2.4705865,-2.887373 2.2915455,-0.47027 2.219418,0.95776 4.81003,1.40398 7.16405,1.10483 1.785974,-1.25843 4.542428,-1.932196 4.840518,-4.087079 0.722505,-1.784221 2.006067,-3.475123 1.300636,-5.50003 -0.191052,-1.75925 0.199928,-3.532904 -1.275228,-5.13234 -1.341753,-2.405279 -4.806123,-3.683554 -6.700576,-5.769998 -1.712285,-1.959154 -1.167106,-4.412912 -0.881339,-6.496193 0.662504,-1.394798 1.514978,-2.624729 3.620326,-2.767221 1.77817,-0.566475 0.192213,2.427996 0.551829,3.363066 -0.105087,1.392161 1.021437,2.809762 2.886295,3.131989 1.710646,0.427666 3.389336,-0.727273 5.086911,-0.937777 1.490816,-2.481804 4.001521,-4.620731 4.095917,-7.563587 0.757277,-2.225745 0.64821,-4.540257 0.215546,-6.885247 -0.409623,-3.704494 -1.329965,-7.43979 -3.346793,-10.945321 -0.999049,-1.614981 -2.699032,-2.967001 -3.953079,-4.487416 -2.323036,-0.332325 -4.761864,-1.345603 -6.852727,-0.299485 -2.386377,1.37894 -1.940482,-1.029243 -0.948383,-2.028839 0.966943,-1.25347 1.565446,-2.944018 3.954465,-2.510561 2.559917,-0.583295 4.41592,0.952939 6.743807,1.76133 z"
         id="path2320"
         style="fill:#008800;fill-rule:evenodd;stroke:#000000;stroke-width:3;stroke-linecap:butt;stroke-linejoin:miter;stroke-miterlimit:4;stroke-opacity:1;stroke-dasharray:none"
         inkscape:connector-curvature="0" />
      <path
         d="m 67.380992,90.21662 c 1.914635,-1.438887 -13.507857,17.88885 -20.261788,26.83326 6.753931,-8.94441 19.765905,-26.947243 20.261788,-26.83326 z"
         id="path8182"
         style="fill:#008800;fill-opacity:0.75;fill-rule:evenodd;stroke:#000000;stroke-width:3;stroke-linecap:round;stroke-linejoin:round;stroke-miterlimit:4;stroke-opacity:1;stroke-dasharray:none"
         inkscape:connector-curvature="0" />
      <path
         d="m 83.210395,112.34214 c -1.165424,-7.54993 1.102444,-17.213513 1.683468,-25.838603"
         id="path8184"
         style="fill:#008800;fill-opacity:0.75;fill-rule:evenodd;stroke:#000000;stroke-width:3;stroke-linecap:round;stroke-linejoin:round;stroke-miterlimit:4;stroke-opacity:1;stroke-dasharray:none"
         inkscape:connector-curvature="0" />
      <path
         d="m 55.821522,82.747784 c 1.086728,-0.47344 -19.345885,0.250496 -29.037485,0.311443 9.679165,-0.103812 29.068118,0.634981 29.037485,-0.311443 z"
         id="path8186"
         style="fill:#008800;fill-opacity:0.75;fill-rule:evenodd;stroke:#000000;stroke-width:3;stroke-linecap:round;stroke-linejoin:round;stroke-miterlimit:4;stroke-opacity:1;stroke-dasharray:none"
         inkscape:connector-curvature="0" />
      <path
         d="M 61.345374,87.937879 C 62.221925,87.094975 42.618347,98.356269 33.212153,103.53932 42.589887,98.338835 61.736571,88.452463 61.345374,87.937879 z"
         id="path8190"
         style="fill:#008800;fill-opacity:0.75;fill-rule:evenodd;stroke:#000000;stroke-width:3;stroke-linecap:round;stroke-linejoin:round;stroke-miterlimit:4;stroke-opacity:1;stroke-dasharray:none"
         inkscape:connector-curvature="0" />
      <path
         inkscape:connector-curvature="0"
         style="fill:#008800;fill-opacity:0.75;fill-rule:evenodd;stroke:#000000;stroke-width:3;stroke-linecap:round;stroke-linejoin:round;stroke-miterlimit:4;stroke-opacity:1;stroke-dasharray:none"
         id="path8188"
         d="m 36.485146,55.105256 c 7.732084,5.654195 15.702451,14.064717 25.915366,15.70981" />
      <path
         inkscape:connector-curvature="0"
         style="fill:#008800;fill-opacity:1;fill-rule:evenodd;stroke:#000000;stroke-width:3;stroke-linecap:butt;stroke-linejoin:miter;stroke-miterlimit:4;stroke-opacity:1;stroke-dasharray:none"
         id="path2382"
         d="m 201.76641,225.9543 c -9.9159,18.85468 -24.78475,17.02418 -35.0569,18.06003 12.53208,16.25432 47.90491,3.43183 51.62297,-31.88044 -5.36414,6.52463 -15.64429,9.27292 -16.56607,13.82041 z" />
      <path
         inkscape:connector-curvature="0"
         style="fill:#008800;fill-opacity:1;fill-rule:evenodd;stroke:#000000;stroke-width:3;stroke-linecap:butt;stroke-linejoin:miter;stroke-miterlimit:4;stroke-opacity:1;stroke-dasharray:none"
         id="path1413"
         d="m 168.01945,184.72289 7.89636,-9.23587 8.46857,-5.23414 c 4.18805,1.03539 8.41176,2.22283 13.08988,5.34793 l -7.89532,6.61001 -6.1155,6.966 -1.9937,7.44489 4.32993,7.12026 8.81791,-0.29221 8.48015,-4.93811 3.72269,-12.02855 -4.72171,-8.17781 c -6.04375,-4.72738 -12.11295,-7.38385 -18.31129,-8.70739 -14.74897,2.05482 -27.71035,-0.0324 -40.45772,-2.6155 -6.46326,10.64013 -7.18814,22.99836 -7.75456,35.40403 -1.2561,3.94382 -0.0507,6.42494 3.15868,7.71528 2.73064,0.71724 5.59169,2.29668 7.97437,0.7139 4.06046,-2.78802 7.36903,0.27251 6.49752,4.11573 -2.20979,0.9486 -2.80227,3.36229 -2.87149,6.24999 -2.83319,0.56999 -5.24689,-0.44695 -7.23568,-3.07128 -3.56095,0.78216 -6.86587,-0.5681 -10.06272,-2.58285 -3.03784,1.22481 -5.23607,4.46025 -6.34385,9.88847 0.69004,4.14896 -0.94145,7.07723 -3.10942,9.72341 -1.34286,-1.43783 -3.11089,-2.33374 -5.87306,-1.96253 -0.63353,-2.96115 -0.53707,-5.88399 3.27761,-8.6117 1.00585,-4.13784 2.96444,-8.31182 5.12,-12.49328 -2.97926,3.16721 -8.26523,3.04747 -12.87341,3.89353 -2.19676,2.13247 -4.87689,4.14499 -8.30598,2.75461 0.96281,-2.49537 -0.0838,-4.29168 -1.72608,-5.88073 0.50174,-5.64884 4.9498,-6.07562 8.46088,-3.57365 6.01054,1.23425 9.31727,-0.9231 13.37858,-2.13391 -5.36516,-2.01755 -8.80413,-4.42482 -10.8736,-7.10916 -3.95159,-0.0824 -6.773,-0.26427 -7.15086,-4.35353 1.53747,-1.92585 2.31988,-3.96431 1.68875,-6.21358 2.03977,-2.80313 4.45564,-3.32202 7.79828,1.78784 2.84031,6.15484 6.93878,8.10441 11.53486,8.39076 1.7375,-11.57683 -0.94346,-24.41169 -3.68148,-37.61748 -2.23684,-2.84292 -4.40042,-6.56753 -7.39829,-0.2509 -7.68924,12.66636 -15.80012,8.40242 -20.26697,17.95757 2.847546,2.11013 3.265551,5.66393 4.57766,8.68644 1.17933,2.83961 3.6882,4.72307 0.63271,10.60814 -2.178002,-1.97576 -4.263518,-1.58945 -6.247531,1.38885 -5.405085,-4.47242 -2.308265,-8.49868 -0.166473,-12.57505 -4.014675,-9.77594 -11.244611,-10.71802 -18.589434,-11.34446 -4.389717,2.74614 -7.761219,3.67713 -8.378185,-0.30234 2.391221,-1.15659 1.921935,-6.42686 -0.487212,-6.89241 5.516415,-8.66613 10.373935,4.14905 19.352169,3.07562 -2.731664,-4.45353 -6.504464,-9.286 -5.923515,-12.53383 -4.368032,0.60854 -8.113023,-5.62541 -4.174188,-10.80899 1.317313,1.11717 4.632189,-2.18182 4.712932,-4.74736 4.016852,0.15462 5.575115,3.11528 4.362937,10.32011 -0.206213,9.0161 3.201477,10.56901 5.457268,14.50074 -1.156226,-7.03416 3.785847,-12.15396 0.79136,-18.63627 -5.76526,-1.18224 -6.377536,-4.76837 -3.32771,-10.06288 2.269896,0.62268 3.641828,0.51156 5.782386,-2.16862 9.461576,3.27653 -0.708984,19.78392 1.383408,32.55275 4.446528,-6.32552 13.755778,-10.76127 14.715278,-16.42277 -11.92873,-14.5032 -25.994822,-42.54413 -3.60871,-67.59385 35.20181,-32.622949 67.71317,-8.373935 82.5526,-32.182235 -6.08939,-5.654827 -16.38578,6.721737 -22.87329,3.426195 -11.10891,-5.16605 -27.6598,9.398064 -30.25116,5.777167 -3.01991,-5.596436 8.76091,-11.435761 13.24767,-13.728439 -18.52872,0.714517 -43.05578,-0.973937 -36.47571,-22.42557 9.6355,20.82361 27.65384,12.049989 43.231,16.937441 -1.5874,-5.977847 -4.94279,-7.938808 -7.31741,-8.177343 -4.88562,-9.635552 -10.16039,-4.709673 -11.46254,1.398434 -2.16949,-2.044245 -1.69112,-6.544759 -0.18356,-9.160275 -0.33365,-1.344078 -0.82933,-3.035977 -0.19957,-4.438879 1.2328,-2.746257 2.94587,-4.911755 4.56762,-5.44274 9.12462,-2.720197 11.90219,9.597272 25.43231,6.776603 4.18941,-3.1176 9.6834,-1.89113 11.34655,5.350732 22.78255,0.268051 51.01962,19.815728 48.33824,-1.712167 6.03411,0.392559 6.91988,8.426978 3.06001,13.284831 -7.18915,2.994104 -11.42424,4.073787 -38.01632,-1.114036 8.08444,3.131079 40.94585,21.128484 39.70014,2.146587 6.02679,1.008095 5.68693,10.183764 -0.10479,13.491854 -8.26591,1.818917 -18.68318,1.749593 -25.9847,-1.328055 -4.90178,27.52483 -25.16217,27.727603 -41.96607,33.174206 -1e-4,3.4e-5 -2e-4,6.1e-5 -3e-4,9.9e-5 -3.92697,2.640361 -8.91715,5.399209 -12.81237,6.590192 -1.81079,4.036019 -2.8595,7.544308 -8.60928,13.941478 1.35932,2.85083 1.90851,3.715 2.27233,8.72567 2.38602,1.06016 4.36195,2.32896 6.59033,5.33577 5.56621,-9.26303 -0.88264,-17.97937 7.82478,-24.928013 3.86252,-2.372044 7.26948,-1.224267 9.2589,3.369963 2.64925,12.55793 14.53309,16.82025 25.24454,10.57648 9.08024,-5.29292 14.4764,-18.55951 18.37351,-39.874964 2.82221,-14.74695 9.11529,-15.012511 15.87895,-10.702997 25.00685,10.188281 40.50572,-11.515001 58.89142,-12.27396 7.16148,-0.543654 7.25452,7.248953 4.57056,12.237497 -3.04595,-5.924032 -5.62215,-5.202763 -8.18977,-4.360046 -11.58014,8.841356 -18.59942,26.459794 -16.50809,36.057468 2.07129,4.274146 6.3962,5.144563 8.34083,-4.319977 6.55657,2.43393 0.40795,16.956369 -5.22792,16.946399 -7.27753,-0.0318 -14.07575,16.40206 -9.34436,22.57406 3.19766,3.86537 5.63081,2.871 6.88152,0.20599 3.12171,0.91332 1.31522,10.61035 -3.97034,9.35873 -6.75592,-0.61935 -20.15991,-9.56548 -25.33213,2.96288 -0.2648,4.96411 4.35953,6.27806 7.48916,3.18556 -4.41336,11.30791 -14.05945,6.82964 -17.08427,0.44802 -10.91154,-13.5233 -25.54933,-19.95734 -30.45378,-6.21114 -3.93303,-6.92851 -24.75875,-17.52322 -29.92078,-6.41847 0.13281,5.11735 4.1578,5.49589 9.66297,2.38881 2.56423,4.8761 9.8162,5.03907 14.31386,2.15422 1.28233,2.13458 8.44207,6.3882 13.52217,2.76145 1.65335,6.62282 6.45896,6.03041 11.66498,4.52152 -1.99187,9.85365 4.47096,13.4754 13.07742,15.51709 -3.21514,8.49623 -2.21879,17.38456 2.71237,26.63923 -7.8072,4.74736 -10.05392,13.68423 -10.34809,24.09223 -5.30247,1.7903 -9.89996,6.10716 -13.37715,14.43907 -5.08731,-1.25869 -9.74375,-0.75221 -15.14688,2.50732 -4.43302,-2.21861 -9.03048,-2.83894 -13.89254,-0.88729 l -9.89917,-4.95448 -5.23039,-10.22015 -2.27826,-13.08504 4.87679,-13.39886" />
      <g
         transform="matrix(0.26646689,0.09698601,-0.11857674,0.32578692,119.77022,-33.180062)"
         style="fill:#ffcc00;stroke:#000000;stroke-width:9.56794357;stroke-miterlimit:4;stroke-opacity:1;stroke-dasharray:none"
         id="g2372">
        <path
           inkscape:connector-curvature="0"
           style="fill:#008800;fill-opacity:1;fill-rule:evenodd;stroke:#000000;stroke-width:9.56794357;stroke-linecap:butt;stroke-linejoin:miter;stroke-miterlimit:4;stroke-opacity:1;stroke-dasharray:none"
           id="path1405"
           d="m 125.0794,488.83419 c -2.65394,6.72186 -7.539,12.19103 -16.81878,11.67421 -1.63285,-5.91079 -8.10641,-6.17409 -16.0273,-4.74883 5.16923,-15.7063 18.04732,-19.90984 32.84608,-6.92538 z" />
        <path
           inkscape:connector-curvature="0"
           style="fill:#008800;fill-opacity:1;fill-rule:evenodd;stroke:#000000;stroke-width:9.56794357;stroke-linecap:butt;stroke-linejoin:miter;stroke-miterlimit:4;stroke-opacity:1;stroke-dasharray:none"
           id="path1407"
           d="m 88.47383,518.31652 c 2.45129,5.81447 -2.31402,17.95862 -9.10193,17.41238 -6.66408,-6.34833 -14.48256,-5.19309 -22.16121,-4.9467 2.91837,-12.469 9.0304,-21.39908 31.26314,-12.46568 z" />
        <path
           inkscape:connector-curvature="0"
           style="fill:#008800;fill-opacity:1;fill-rule:evenodd;stroke:#000000;stroke-width:9.56794357;stroke-linecap:butt;stroke-linejoin:miter;stroke-miterlimit:4;stroke-opacity:1;stroke-dasharray:none"
           id="path1409"
           d="m 82.33992,618.04198 c 7.09664,-5.21627 -1.0307,-18.75647 -9.69553,-18.40172 -24.4265,7.65856 -13.024,27.97574 -7.12325,33.43968 0.21478,-6.31382 3.85217,-15.62938 16.81878,-15.03796 z" />
        <path
           inkscape:connector-curvature="0"
           style="fill:#008800;fill-opacity:1;fill-rule:evenodd;stroke:#000000;stroke-width:9.56794357;stroke-linecap:butt;stroke-linejoin:miter;stroke-miterlimit:4;stroke-opacity:1;stroke-dasharray:none"
           id="path2714"
           d="m 201.78996,656.12634 c 4.11485,-8.99166 11.00182,-11.51505 19.58793,-10.07379 9.01982,14.06961 4.72004,29.36195 -12.87207,35.25827 3.58834,-11.60539 -0.47195,-21.02545 -6.71586,-25.18448 z" />
        <path
           inkscape:connector-curvature="0"
           style="fill:#008800;fill-opacity:1;fill-rule:evenodd;stroke:#000000;stroke-width:9.56794357;stroke-linecap:butt;stroke-linejoin:miter;stroke-miterlimit:4;stroke-opacity:1;stroke-dasharray:none"
           id="path1417"
           d="m 409.65829,638.71273 c -5.60829,5.24882 -6.25501,12.1515 -2.37275,20.56384 12.96219,-4.17422 17.82792,1.77214 22.54112,7.90916 11.61359,-18.30894 -2.39274,-29.15062 -20.16837,-28.473 z" />
        <path
           inkscape:connector-curvature="0"
           style="fill:#008800;fill-opacity:1;fill-rule:evenodd;stroke:#000000;stroke-width:9.56794357;stroke-linecap:butt;stroke-linejoin:miter;stroke-miterlimit:4;stroke-opacity:1;stroke-dasharray:none"
           id="path1421"
           d="m 315.24286,725.20867 c 5.07359,-5.7673 11.95308,-6.62632 20.48101,-3.00501 -3.773,13.08461 0.89675,13.49393 7.17603,18.01587 -17.94255,12.17201 -27.78684,2.7772 -27.65704,-15.01086 z" />
        <path
           inkscape:connector-curvature="0"
           style="fill:#008800;fill-opacity:1;fill-rule:evenodd;stroke:#000000;stroke-width:9.56794357;stroke-linecap:butt;stroke-linejoin:miter;stroke-miterlimit:4;stroke-opacity:1;stroke-dasharray:none"
           id="path1423"
           d="m 241.65543,683.27878 c 7.40679,2.36644 13.44996,7.15007 12.96805,13.80738 -8.98473,3.36005 -9.13853,10.10288 -6.73083,16.69454 -20.92693,-0.81408 -19.99437,-23.00132 -6.23722,-30.50192 z" />
        <path
           inkscape:connector-curvature="0"
           style="fill:#008800;fill-opacity:1;fill-rule:evenodd;stroke:#000000;stroke-width:9.56794357;stroke-linecap:butt;stroke-linejoin:miter;stroke-miterlimit:4;stroke-opacity:1;stroke-dasharray:none"
           id="path1425"
           d="m 231.68082,614.29933 c 5.56348,5.29629 5.74935,10.32747 1.79573,18.70652 -12.92624,-4.28425 -13.51875,1.17014 -18.28394,7.26687 -11.45756,-18.40698 -1.28102,-26.80207 16.48821,-25.97339 z" />
      </g>
      <path
         inkscape:connector-curvature="0"
         style="fill:#008800;fill-opacity:1;fill-rule:evenodd;stroke:#000000;stroke-width:3;stroke-linecap:butt;stroke-linejoin:miter;stroke-miterlimit:4;stroke-opacity:1;stroke-dasharray:none"
         id="path2384"
         d="m 166.63971,243.8148 c 11.07348,0.30391 14.38727,-1.95929 15.43176,-7.96486 -6.41397,-6.93662 -17.21817,3.38095 -27.74098,0.69871 8.56976,8.19802 6.86213,28.87101 21.20539,22.34443 1.79359,-9.72046 -5.84374,-9.71521 -8.89617,-15.07828 z" />
      <path
         d="m 230.25223,159.49684 c -6.26004,4.74801 -9.02578,1.41087 -12.4021,0.41639"
         id="path2453"
         style="fill:#008800;fill-opacity:0.75;fill-rule:evenodd;stroke:#000000;stroke-width:3;stroke-linecap:round;stroke-linejoin:miter;stroke-miterlimit:4;stroke-opacity:1;stroke-dasharray:none"
         inkscape:connector-curvature="0" />
      <path
         d="m 217.4679,144.06835 c -3.44518,4.28135 -8.86928,5.85843 -13.23979,4.7788"
         id="path2455"
         style="fill:#008800;fill-opacity:0.75;fill-rule:evenodd;stroke:#000000;stroke-width:3;stroke-linecap:round;stroke-linejoin:miter;stroke-miterlimit:4;stroke-opacity:1;stroke-dasharray:none"
         inkscape:connector-curvature="0" />
      <path
         d="m 205.52874,139.91189 c -3.13115,3.21456 -7.69866,5.43824 -12.3805,5.11327"
         id="path2457"
         style="fill:#008800;fill-opacity:0.75;fill-rule:evenodd;stroke:#000000;stroke-width:3;stroke-linecap:round;stroke-linejoin:miter;stroke-miterlimit:4;stroke-opacity:1;stroke-dasharray:none"
         inkscape:connector-curvature="0" />
      <path
         d="m 192.48163,136.67546 c -3.10037,4.83424 -7.75004,4.74813 -10.65264,5.74217"
         id="path2459"
         style="fill:#008800;fill-opacity:0.75;fill-rule:evenodd;stroke:#000000;stroke-width:3;stroke-linecap:round;stroke-linejoin:miter;stroke-miterlimit:4;stroke-opacity:1;stroke-dasharray:none"
         inkscape:connector-curvature="0" />
      <path
         d="m 178.0685,134.64322 c -2.98148,3.49323 -7.66313,5.34151 -11.80673,6.41292"
         id="path2461"
         style="fill:#008800;fill-opacity:0.75;fill-rule:evenodd;stroke:#000000;stroke-width:3;stroke-linecap:round;stroke-linejoin:miter;stroke-miterlimit:4;stroke-opacity:1;stroke-dasharray:none"
         inkscape:connector-curvature="0" />
      <path
         d="m 233.42806,185.60624 c -3.9905,-2.51102 -8.00546,-4.91884 -11.16047,-10.95445"
         id="path2463"
         style="fill:#008800;fill-opacity:0.75;fill-rule:evenodd;stroke:#000000;stroke-width:3;stroke-linecap:round;stroke-linejoin:miter;stroke-miterlimit:4;stroke-opacity:1;stroke-dasharray:none"
         inkscape:connector-curvature="0" />
      <path
         d="m 222.25152,209.51646 c -3.36746,-2.55981 -3.44698,-8.74032 -3.02834,-15.46939"
         id="path2465"
         style="fill:#008800;fill-opacity:0.75;fill-rule:evenodd;stroke:#000000;stroke-width:3;stroke-linecap:round;stroke-linejoin:miter;stroke-miterlimit:4;stroke-opacity:1;stroke-dasharray:none"
         inkscape:connector-curvature="0" />
      <path
         d="m 209.07611,223.62517 c -0.77661,-5.29266 0.40797,-10.159 3.46517,-14.61828"
         id="path2467"
         style="fill:#008800;fill-opacity:0.75;fill-rule:evenodd;stroke:#000000;stroke-width:3;stroke-linecap:round;stroke-linejoin:miter;stroke-miterlimit:4;stroke-opacity:1;stroke-dasharray:none"
         inkscape:connector-curvature="0" />
      <path
         d="m 273.70915,57.473082 c -9.06885,4.198564 -18.58942,11.324979 -30.17953,10.559407"
         id="path2469"
         style="fill:#008800;fill-opacity:0.75;fill-rule:evenodd;stroke:#000000;stroke-width:3;stroke-linecap:round;stroke-linejoin:round;stroke-miterlimit:4;stroke-opacity:1;stroke-dasharray:none"
         inkscape:connector-curvature="0" />
      <path
         inkscape:connector-curvature="0"
         id="path2473"
         d="M 264.32691,97.435208 231.79726,71.646447"
         style="fill:#008800;fill-opacity:0.75;fill-rule:evenodd;stroke:#000000;stroke-width:3;stroke-linecap:round;stroke-linejoin:round;stroke-miterlimit:4;stroke-opacity:1;stroke-dasharray:none" />
      <path
         inkscape:connector-curvature="0"
         id="path3568"
         d="m 227.31742,75.777437 c 0.2798,-2.104885 19.04454,28.641123 28.77476,42.919603"
         style="fill:#008800;fill-opacity:0.75;fill-rule:evenodd;stroke:#000000;stroke-width:3;stroke-linecap:round;stroke-linejoin:round;stroke-miterlimit:4;stroke-opacity:1;stroke-dasharray:none" />
      <path
         inkscape:connector-curvature="0"
         id="path2477"
         d="M 235.5608,130.7194 C 231.84415,112.9918 225.50773,75.241588 224.41084,77.536609"
         style="fill:#008800;fill-opacity:0.75;fill-rule:evenodd;stroke:#000000;stroke-width:3;stroke-linecap:round;stroke-linejoin:round;stroke-miterlimit:4;stroke-opacity:1;stroke-dasharray:none" />
      <path
         d="m 204.2525,118.02321 c 6.46897,-9.3159 11.05477,-26.661988 16.5658,-40.062688"
         id="path2479"
         style="fill:#008800;fill-opacity:0.75;fill-rule:evenodd;stroke:#000000;stroke-width:3;stroke-linecap:round;stroke-linejoin:round;stroke-miterlimit:4;stroke-opacity:1;stroke-dasharray:none"
         inkscape:connector-curvature="0" />
      <path
         inkscape:connector-curvature="0"
         style="fill:#008800;fill-opacity:0.75;fill-rule:evenodd;stroke:#000000;stroke-width:3;stroke-linecap:round;stroke-linejoin:miter;stroke-miterlimit:4;stroke-opacity:1;stroke-dasharray:none"
         id="path2481"
         d="m 124.26862,161.38446 c -3.45879,-8.45789 -3.84185,-16.21105 -1.55074,-23.72246" />
      <path
         inkscape:connector-curvature="0"
         style="fill:#008800;fill-opacity:0.75;fill-rule:evenodd;stroke:#000000;stroke-width:3;stroke-linecap:round;stroke-linejoin:miter;stroke-miterlimit:4;stroke-opacity:1;stroke-dasharray:none"
         id="path2483"
         d="m 138.24448,152.56978 3.84435,6.84308 -3.86764,8.21727" />
      <path
         inkscape:connector-curvature="0"
         style="fill:#008800;fill-opacity:0.75;fill-rule:evenodd;stroke:#000000;stroke-width:3;stroke-linecap:round;stroke-linejoin:miter;stroke-miterlimit:4;stroke-opacity:1;stroke-dasharray:none"
         id="path2485"
         d="m 144.43156,151.65479 3.39579,6.7087 -4.3613,8.40164" />
      <path
         inkscape:connector-curvature="0"
         style="fill:#008800;fill-opacity:0.75;fill-rule:evenodd;stroke:#000000;stroke-width:3;stroke-linecap:round;stroke-linejoin:miter;stroke-miterlimit:4;stroke-opacity:1;stroke-dasharray:none"
         id="path2487"
         d="m 114.45669,143.91173 c -1.15114,4.79272 0.90121,11.68655 6.16305,14.54674" />
      <path
         d="m 138.55385,23.006768 c -3.0622,6.472627 4.1337,6.508709 7.09921,8.498735"
         id="path2495"
         style="fill:#008800;fill-opacity:0.75;fill-rule:evenodd;stroke:#000000;stroke-width:3;stroke-linecap:butt;stroke-linejoin:miter;stroke-miterlimit:4;stroke-opacity:1;stroke-dasharray:none"
         inkscape:connector-curvature="0" />
      <path
         d="m 137.57632,57.456242 c -2.53571,-2.584521 -2.59083,-7.857581 -1.7218,-10.373799 0.96089,3.838267 3.40664,5.506718 6.21003,6.65255 l -4.48823,3.721249 z"
         id="path2499"
         style="fill:#008800;fill-opacity:1;fill-rule:evenodd;stroke:#000000;stroke-width:3;stroke-linecap:butt;stroke-linejoin:miter;stroke-miterlimit:4;stroke-opacity:1;stroke-dasharray:none"
         inkscape:connector-curvature="0" />
      <path
         inkscape:connector-curvature="0"
         style="fill:#008800;fill-opacity:0.75;fill-rule:evenodd;stroke:#000000;stroke-width:3;stroke-linecap:round;stroke-linejoin:miter;stroke-miterlimit:4;stroke-opacity:1;stroke-dasharray:none"
         id="path2501"
         d="m 169.2559,79.951941 c -1.7892,2.208606 -2.11063,5.991165 -4.63451,8.177012" />
      <path
         inkscape:connector-curvature="0"
         style="fill:#008800;fill-opacity:0.75;fill-rule:evenodd;stroke:#000000;stroke-width:3;stroke-linecap:round;stroke-linejoin:miter;stroke-miterlimit:4;stroke-opacity:1;stroke-dasharray:none"
         id="path2503"
         d="m 153.20632,84.467932 c -1.79691,1.66247 -0.60485,8.196233 -2.0835,11.045051" />
      <path
         inkscape:connector-curvature="0"
         style="fill:#008800;fill-opacity:0.75;fill-rule:evenodd;stroke:#000000;stroke-width:3;stroke-linecap:round;stroke-linejoin:miter;stroke-miterlimit:4;stroke-opacity:1;stroke-dasharray:none"
         id="path2505"
         d="m 136.77418,99.324078 c 0.86038,4.413142 4.14337,5.181702 6.05453,10.239652" />
      <path
         inkscape:connector-curvature="0"
         style="fill:#008800;fill-opacity:0.75;fill-rule:evenodd;stroke:#000000;stroke-width:3;stroke-linecap:round;stroke-linejoin:miter;stroke-miterlimit:4;stroke-opacity:1;stroke-dasharray:none"
         id="path2507"
         d="m 133.96055,116.75581 c 2.5709,2.2043 8.61433,0.24203 11.79388,1.6353" />
      <path
         inkscape:connector-curvature="0"
         style="fill:#008800;fill-opacity:0.75;fill-rule:evenodd;stroke:#000000;stroke-width:3;stroke-linecap:round;stroke-linejoin:miter;stroke-miterlimit:4;stroke-opacity:1;stroke-dasharray:none"
         id="path2509"
         d="m 151.60303,123.51183 c -3.02587,3.43551 -3.43477,7.67796 -6.83839,10.08982" />
      <path
         inkscape:connector-curvature="0"
         style="fill:#008800;fill-opacity:0.75;fill-rule:evenodd;stroke:#000000;stroke-width:3;stroke-linecap:round;stroke-linejoin:miter;stroke-miterlimit:4;stroke-opacity:1;stroke-dasharray:none"
         id="path2511"
         d="m 184.53761,53.358714 c 5.74179,-7.471183 -3.70964,-14.164541 -9.33824,-18.533749 -2.83809,-4.477185 -5.38361,-4.774838 -9.15008,-2.210185 -2.32382,-3.883454 -5.85952,-6.553964 -8.98321,-8.239821" />
      <path
         inkscape:connector-curvature="0"
         style="fill:#008800;fill-opacity:0.75;fill-rule:evenodd;stroke:#000000;stroke-width:3;stroke-linecap:round;stroke-linejoin:miter;stroke-miterlimit:4;stroke-opacity:1;stroke-dasharray:none"
         id="path2513"
         d="m 174.94298,35.249687 c -4.05365,2.909519 -7.46401,1.490273 -9.08042,-2.994129 1.43703,5.753426 -0.28709,12.441683 -7.82675,13.268011 -3.57953,1.299703 -6.53615,4.59666 -9.16698,5.040219" />
      <path
         inkscape:connector-curvature="0"
         style="fill:none;stroke:#000000;stroke-width:3;stroke-linecap:round;stroke-linejoin:miter;stroke-miterlimit:4;stroke-opacity:1;stroke-dasharray:none"
         id="path2515"
         d="m 165.23827,30.587195 c 4.61284,-3.857424 11.19964,0.08147 12.94008,5.086561" />
      <path
         d="m 206.07647,54.514408 c 2.50386,-0.586642 4.73576,-1.51444 3.76088,-5.122854"
         id="path2543"
         style="fill:#008800;fill-opacity:0.75;fill-rule:evenodd;stroke:#000000;stroke-width:3;stroke-linecap:round;stroke-linejoin:miter;stroke-miterlimit:4;stroke-opacity:1;stroke-dasharray:none"
         inkscape:connector-curvature="0" />
      <path
         d="m 210.83955,56.016182 c 2.50387,-0.586642 4.73576,-1.514439 3.76089,-5.122859"
         id="path2545"
         style="fill:#008800;fill-opacity:0.75;fill-rule:evenodd;stroke:#000000;stroke-width:3;stroke-linecap:round;stroke-linejoin:miter;stroke-miterlimit:4;stroke-opacity:1;stroke-dasharray:none"
         inkscape:connector-curvature="0" />
      <path
         d="m 216.00096,56.952712 c 2.45446,-0.978382 4.59375,-2.244148 3.17784,-5.593804"
         id="path2547"
         style="fill:#008800;fill-opacity:0.75;fill-rule:evenodd;stroke:#000000;stroke-width:3;stroke-linecap:round;stroke-linejoin:miter;stroke-miterlimit:4;stroke-opacity:1;stroke-dasharray:none"
         inkscape:connector-curvature="0" />
      <path
         d="m 221.50114,57.301884 c 2.46541,-0.917852 4.62205,-2.131947 3.27388,-5.526712"
         id="path2549"
         style="fill:#008800;fill-opacity:0.75;fill-rule:evenodd;stroke:#000000;stroke-width:3;stroke-linecap:round;stroke-linejoin:miter;stroke-miterlimit:4;stroke-opacity:1;stroke-dasharray:none"
         inkscape:connector-curvature="0" />
      <path
         d="m 227.01283,57.015455 c 2.22496,-1.678291 4.06891,-3.524805 1.88225,-6.1932"
         id="path2551"
         style="fill:#008800;fill-opacity:0.75;fill-rule:evenodd;stroke:#000000;stroke-width:3;stroke-linecap:round;stroke-linejoin:miter;stroke-miterlimit:4;stroke-opacity:1;stroke-dasharray:none"
         inkscape:connector-curvature="0" />
      <path
         d="m 206.37441,55.953514 c -3.89987,-1.694147 -7.54575,-2.379461 -11.64222,-4.900649"
         id="path2553"
         style="fill:#008800;fill-opacity:0.75;fill-rule:evenodd;stroke:#000000;stroke-width:3;stroke-linecap:round;stroke-linejoin:miter;stroke-miterlimit:4;stroke-opacity:1;stroke-dasharray:none"
         inkscape:connector-curvature="0" />
      <path
         d="m 189.13943,45.531136 c 3.54271,-2.695623 5.06986,-5.040555 1.52692,-9.417869"
         id="path2555"
         style="fill:#008800;fill-opacity:0.75;fill-rule:evenodd;stroke:#000000;stroke-width:3;stroke-linecap:round;stroke-linejoin:miter;stroke-miterlimit:4;stroke-opacity:1;stroke-dasharray:none"
         inkscape:connector-curvature="0" />
      <path
         d="m 201.96956,41.579037 c 2.50387,-0.586642 4.73577,-1.514439 3.76089,-5.122854"
         id="path2557"
         style="fill:#008800;fill-opacity:0.75;fill-rule:evenodd;stroke:#000000;stroke-width:3;stroke-linecap:round;stroke-linejoin:miter;stroke-miterlimit:4;stroke-opacity:1;stroke-dasharray:none"
         inkscape:connector-curvature="0" />
      <path
         d="m 206.73265,43.080812 c 2.50387,-0.586643 4.73576,-1.51444 3.76088,-5.12286"
         id="path2559"
         style="fill:#008800;fill-opacity:0.75;fill-rule:evenodd;stroke:#000000;stroke-width:3;stroke-linecap:round;stroke-linejoin:miter;stroke-miterlimit:4;stroke-opacity:1;stroke-dasharray:none"
         inkscape:connector-curvature="0" />
      <path
         d="m 211.89405,44.017342 c 2.45447,-0.978383 4.59376,-2.244154 3.17785,-5.593805"
         id="path2561"
         style="fill:#008800;fill-opacity:0.75;fill-rule:evenodd;stroke:#000000;stroke-width:3;stroke-linecap:round;stroke-linejoin:miter;stroke-miterlimit:4;stroke-opacity:1;stroke-dasharray:none"
         inkscape:connector-curvature="0" />
      <path
         d="m 217.39424,44.366513 c 2.46541,-0.917852 4.62205,-2.131952 3.27388,-5.526712"
         id="path2563"
         style="fill:#008800;fill-opacity:0.75;fill-rule:evenodd;stroke:#000000;stroke-width:3;stroke-linecap:round;stroke-linejoin:miter;stroke-miterlimit:4;stroke-opacity:1;stroke-dasharray:none"
         inkscape:connector-curvature="0" />
      <path
         d="m 222.90593,44.080084 c 2.22496,-1.678291 4.06891,-3.52481 1.88225,-6.1932"
         id="path2565"
         style="fill:#008800;fill-opacity:0.75;fill-rule:evenodd;stroke:#000000;stroke-width:3;stroke-linecap:round;stroke-linejoin:miter;stroke-miterlimit:4;stroke-opacity:1;stroke-dasharray:none"
         inkscape:connector-curvature="0" />
      <path
         d="m 110.59674,153.58708 c 3.97837,3.25254 4.81781,4.01864 9.65636,5.10851"
         id="path2567"
         style="fill:#008800;fill-opacity:0.75;fill-rule:evenodd;stroke:#000000;stroke-width:3;stroke-linecap:round;stroke-linejoin:miter;stroke-miterlimit:4;stroke-opacity:1;stroke-dasharray:none"
         inkscape:connector-curvature="0" />
      <path
         inkscape:connector-curvature="0"
         style="fill:#008800;fill-opacity:0.75;fill-rule:evenodd;stroke:#000000;stroke-width:3;stroke-linecap:round;stroke-linejoin:miter;stroke-miterlimit:4;stroke-opacity:1;stroke-dasharray:none"
         id="path2631"
         d="m 188.6753,174.00039 -2.28539,11.19168" />
      <path
         inkscape:connector-curvature="0"
         style="fill:#008800;fill-opacity:0.75;fill-rule:evenodd;stroke:#000000;stroke-width:3;stroke-linecap:round;stroke-linejoin:miter;stroke-miterlimit:4;stroke-opacity:1;stroke-dasharray:none"
         id="path2633"
         d="m 177.04788,182.61164 5.43628,7.1706" />
      <path
         inkscape:connector-curvature="0"
         style="fill:#008800;fill-opacity:0.75;fill-rule:evenodd;stroke:#000000;stroke-width:3;stroke-linecap:round;stroke-linejoin:miter;stroke-miterlimit:4;stroke-opacity:1;stroke-dasharray:none"
         id="path2635"
         d="m 174.69635,194.59903 7.91612,3.42775" />
      <path
         inkscape:connector-curvature="0"
         style="fill:#008800;fill-opacity:0.75;fill-rule:evenodd;stroke:#000000;stroke-width:3;stroke-linecap:round;stroke-linejoin:miter;stroke-miterlimit:4;stroke-opacity:1;stroke-dasharray:none"
         id="path2637"
         d="m 177.30251,204.0187 7.74243,-1.00765" />
      <path
         inkscape:connector-curvature="0"
         style="fill:#008800;fill-opacity:0.75;fill-rule:evenodd;stroke:#000000;stroke-width:3;stroke-linecap:round;stroke-linejoin:miter;stroke-miterlimit:4;stroke-opacity:1;stroke-dasharray:none"
         id="path2639"
         d="m 185.41501,209.97727 7.45921,-5.75616" />
      <path
         inkscape:connector-curvature="0"
         style="fill:#008800;fill-opacity:0.75;fill-rule:evenodd;stroke:#000000;stroke-width:3;stroke-linecap:round;stroke-linejoin:miter;stroke-miterlimit:4;stroke-opacity:1;stroke-dasharray:none"
         id="path2641"
         d="m 193.85906,209.49826 4.45535,-7.94253" />
      <path
         inkscape:connector-curvature="0"
         style="fill:#008800;fill-opacity:0.75;fill-rule:evenodd;stroke:#000000;stroke-width:3;stroke-linecap:round;stroke-linejoin:miter;stroke-miterlimit:4;stroke-opacity:1;stroke-dasharray:none"
         id="path2645"
         d="m 203.57997,196.91397 -2.26268,9.28712" />
      <path
         inkscape:connector-curvature="0"
         style="fill:#008800;fill-opacity:0.75;fill-rule:evenodd;stroke:#000000;stroke-width:3;stroke-linecap:round;stroke-linejoin:miter;stroke-miterlimit:4;stroke-opacity:1;stroke-dasharray:none"
         id="path2647"
         d="m 204.83222,191.63127 3.13311,7.97188" />
      <path
         inkscape:connector-curvature="0"
         style="fill:#008800;fill-opacity:0.75;fill-rule:evenodd;stroke:#000000;stroke-width:3;stroke-linecap:round;stroke-linejoin:miter;stroke-miterlimit:4;stroke-opacity:1;stroke-dasharray:none"
         id="path2649"
         d="m 206.28181,186.42038 4.93204,6.71383" />
      <path
         inkscape:connector-curvature="0"
         style="fill:#008800;fill-opacity:0.75;fill-rule:evenodd;stroke:#000000;stroke-width:3;stroke-linecap:round;stroke-linejoin:miter;stroke-miterlimit:4;stroke-opacity:1;stroke-dasharray:none"
         id="path2651"
         d="m 202.46881,178.47429 8.74994,2.36494" />
      <path
         inkscape:connector-curvature="0"
         style="fill:#008800;fill-opacity:1;fill-rule:evenodd;stroke:#000000;stroke-width:3;stroke-linecap:round;stroke-linejoin:miter;stroke-miterlimit:4;stroke-opacity:1;stroke-dasharray:none"
         id="path2653"
         d="m 201.11291,168.6899 -7.1977,9.95028" />
      <path
         transform="matrix(1.2364885,-0.21802628,0.21802628,1.2364885,-285.82358,-8.4767139)"
         d="m 352.75791,95.744476 c 0,0.976311 -0.79146,1.767767 -1.76777,1.767767 -0.97631,0 -1.76776,-0.791456 -1.76776,-1.767767 0,-0.97631 0.79145,-1.767767 1.76776,-1.767767 0.97631,0 1.76777,0.791457 1.76777,1.767767 z"
         sodipodi:ry="1.767767"
         sodipodi:rx="1.767767"
         sodipodi:cy="95.744476"
         sodipodi:cx="350.99014"
         id="path3618-1"
         style="fill:#000000;stroke:#000000;stroke-width:0.07964554;stroke-miterlimit:4;stroke-opacity:1;stroke-dasharray:none"
         sodipodi:type="arc" />
    </g>
    <g
       style="display:inline"
       transform="matrix(0.857375,0,0,0.857375,303.7253,300.06926)"
       id="g4034">
      <path
         inkscape:connector-curvature="0"
         style="fill:#008800;fill-rule:evenodd;stroke:#000000;stroke-width:3.49905229;stroke-linecap:butt;stroke-linejoin:miter;stroke-miterlimit:4;stroke-opacity:1;stroke-dasharray:none"
         id="path4036"
         d="m 28.268726,44.272674 c 6.125145,3.882337 12.431899,7.673859 17.400899,12.523557 3.825677,3.284486 8.46115,5.937953 12.876112,8.692423 3.644219,1.757423 7.189049,3.689344 11.265302,4.650143 2.590733,0.891941 5.189454,1.715185 7.961681,1.582353 3.709214,0.03672 7.367376,0.565206 10.981689,1.51596 2.062158,0.102491 2.331272,2.135943 3.500164,3.20039 0.217763,2.518435 0.653329,5.068816 -0.554725,7.37805 -1.503481,4.399846 -2.721974,8.905841 -3.370375,13.488791 -0.391757,4.082109 -0.335351,8.334349 1.297358,12.403759 1.491098,2.35102 2.61465,4.86998 5.180128,6.71723 1.333352,1.41987 2.864447,2.6406 4.984045,3.26611 2.813796,1.42552 6.005716,2.19565 9.158576,2.67988 2.91088,-0.0299 5.92288,0.26827 8.50566,-0.77938 2.76068,-0.30228 4.45011,-1.92674 6.38806,-3.24501 2.40078,-0.70457 5.04053,-1.75333 7.70319,-1.0416 1.72882,1.29425 3.89023,2.37409 4.31271,4.31575 0.65421,1.43521 0.40823,3.09989 0.0601,4.48984 -0.78789,1.77869 -2.069,3.3821 -3.08212,5.02931 -0.67872,1.16044 0.26308,3.73713 -1.67111,3.80035 -6.4782,0.15943 -12.95641,0.31886 -19.43461,0.47829 -0.78043,-1.38412 -0.66468,-3.31375 -2.91508,-3.79868 -2.43765,-1.14574 -4.8155,-2.44918 -7.64972,-2.58868 -3.848127,-0.8584 -7.724974,-1.09676 -11.610376,-1.11687 -3.584833,-0.45464 -6.850585,0.50551 -10.221375,1.00308 -0.0301,-1.43131 -0.209041,-2.82389 -1.605236,-3.96937 -0.993899,-1.32315 -1.992279,-2.6308 -3.945958,-3.14244 -2.881288,-1.71173 -6.405363,-1.75096 -9.690582,-2.36667 -5.1136,0.0926 -10.145628,0.49648 -15.066767,1.32189 -3.712289,0.55222 -7.02078,1.99759 -10.778435,2.49708 -2.620491,-0.10191 -5.250732,-0.68651 -7.473564,-2.01956 -1.019091,-0.37598 -2.70106,-4.08585 -0.767061,-2.54521 1.51247,0.28854 3.896592,0.94158 5.027903,0.0539 1.411642,-0.89319 2.543038,-1.89498 2.046161,-3.5037 0.228232,-1.6777 -1.948021,-2.97076 -2.830835,-4.46542 -2.658746,-1.27256 -5.154795,-2.9222 -8.283484,-3.1238 -4.892346,-0.92702 -9.784693,-1.85405 -14.677035,-2.78107 -1.8413042,-1.07269 -2.1277652,-2.50696 -1.8150305,-4.08056 0.018903,-1.375575 2.4705865,-2.887373 2.2915455,-0.47027 2.219418,0.95776 4.81003,1.40398 7.16405,1.10483 1.785974,-1.25843 4.542428,-1.932196 4.840518,-4.087079 0.722505,-1.784221 2.006067,-3.475123 1.300636,-5.50003 -0.191052,-1.75925 0.199928,-3.532904 -1.275228,-5.13234 -1.341753,-2.405279 -4.806123,-3.683554 -6.700576,-5.769998 -1.712285,-1.959154 -1.167106,-4.412912 -0.881339,-6.496193 0.662504,-1.394798 1.514978,-2.624729 3.620326,-2.767221 1.77817,-0.566475 0.192213,2.427996 0.551829,3.363066 -0.105087,1.392161 1.021437,2.809762 2.886295,3.131989 1.710646,0.427666 3.389336,-0.727273 5.086911,-0.937777 1.490816,-2.481804 4.001521,-4.620731 4.095917,-7.563587 0.757277,-2.225745 0.64821,-4.540257 0.215546,-6.885247 -0.409623,-3.704494 -1.329965,-7.43979 -3.346793,-10.945321 -0.999049,-1.614981 -2.699032,-2.967001 -3.953079,-4.487416 -2.323036,-0.332325 -4.761864,-1.345603 -6.852727,-0.299485 -2.386377,1.37894 -1.940482,-1.029243 -0.948383,-2.028839 0.966943,-1.25347 1.565446,-2.944018 3.954465,-2.510561 2.559917,-0.583295 4.41592,0.952939 6.743807,1.76133 z" />
      <path
         inkscape:connector-curvature="0"
         style="fill:#008800;fill-opacity:0.75;fill-rule:evenodd;stroke:#000000;stroke-width:3.49905229;stroke-linecap:round;stroke-linejoin:round;stroke-miterlimit:4;stroke-opacity:1;stroke-dasharray:none"
         id="path4038"
         d="m 67.380992,90.21662 c 1.914635,-1.438887 -13.507857,17.88885 -20.261788,26.83326 6.753931,-8.94441 19.765905,-26.947243 20.261788,-26.83326 z" />
      <path
         inkscape:connector-curvature="0"
         style="fill:#008800;fill-opacity:0.75;fill-rule:evenodd;stroke:#000000;stroke-width:3.49905229;stroke-linecap:round;stroke-linejoin:round;stroke-miterlimit:4;stroke-opacity:1;stroke-dasharray:none"
         id="path4040"
         d="m 83.210395,112.34214 c -1.165424,-7.54993 1.102444,-17.213513 1.683468,-25.838603" />
      <path
         inkscape:connector-curvature="0"
         style="fill:#008800;fill-opacity:0.75;fill-rule:evenodd;stroke:#000000;stroke-width:3.49905229;stroke-linecap:round;stroke-linejoin:round;stroke-miterlimit:4;stroke-opacity:1;stroke-dasharray:none"
         id="path4042"
         d="m 55.821522,82.747784 c 1.086728,-0.47344 -19.345885,0.250496 -29.037485,0.311443 9.679165,-0.103812 29.068118,0.634981 29.037485,-0.311443 z" />
      <path
         inkscape:connector-curvature="0"
         style="fill:#008800;fill-opacity:0.75;fill-rule:evenodd;stroke:#000000;stroke-width:3.49905229;stroke-linecap:round;stroke-linejoin:round;stroke-miterlimit:4;stroke-opacity:1;stroke-dasharray:none"
         id="path4044"
         d="M 61.345374,87.937879 C 62.221925,87.094975 42.618347,98.356269 33.212153,103.53932 42.589887,98.338835 61.736571,88.452463 61.345374,87.937879 z" />
      <path
         d="m 36.485146,55.105256 c 7.732084,5.654195 15.702451,14.064717 25.915366,15.70981"
         id="path4046"
         style="fill:#008800;fill-opacity:0.75;fill-rule:evenodd;stroke:#000000;stroke-width:3.49905229;stroke-linecap:round;stroke-linejoin:round;stroke-miterlimit:4;stroke-opacity:1;stroke-dasharray:none"
         inkscape:connector-curvature="0" />
      <path
         d="m 201.76641,225.9543 c -9.9159,18.85468 -24.78475,17.02418 -35.0569,18.06003 12.53208,16.25432 47.90491,3.43183 51.62297,-31.88044 -5.36414,6.52463 -15.64429,9.27292 -16.56607,13.82041 z"
         id="path4048"
         style="fill:#008800;fill-opacity:1;fill-rule:evenodd;stroke:#000000;stroke-width:3.49905229;stroke-linecap:butt;stroke-linejoin:miter;stroke-miterlimit:4;stroke-opacity:1;stroke-dasharray:none"
         inkscape:connector-curvature="0" />
      <path
         d="m 168.01945,184.72289 7.89636,-9.23587 8.46857,-5.23414 c 4.18805,1.03539 8.41176,2.22283 13.08988,5.34793 l -7.89532,6.61001 -6.1155,6.966 -1.9937,7.44489 4.32993,7.12026 8.81791,-0.29221 8.48015,-4.93811 3.72269,-12.02855 -4.72171,-8.17781 c -6.04375,-4.72738 -12.11295,-7.38385 -18.31129,-8.70739 -14.74897,2.05482 -27.71035,-0.0324 -40.45772,-2.6155 -6.46326,10.64013 -7.18814,22.99836 -7.75456,35.40403 -1.2561,3.94382 -0.0507,6.42494 3.15868,7.71528 2.73064,0.71724 5.59169,2.29668 7.97437,0.7139 4.06046,-2.78802 7.36903,0.27251 6.49752,4.11573 -2.20979,0.9486 -2.80227,3.36229 -2.87149,6.24999 -2.83319,0.56999 -5.24689,-0.44695 -7.23568,-3.07128 -3.56095,0.78216 -6.86587,-0.5681 -10.06272,-2.58285 -3.03784,1.22481 -5.23607,4.46025 -6.34385,9.88847 0.69004,4.14896 -0.94145,7.07723 -3.10942,9.72341 -1.34286,-1.43783 -3.11089,-2.33374 -5.87306,-1.96253 -0.63353,-2.96115 -0.53707,-5.88399 3.27761,-8.6117 1.00585,-4.13784 2.96444,-8.31182 5.12,-12.49328 -2.97926,3.16721 -8.26523,3.04747 -12.87341,3.89353 -2.19676,2.13247 -4.87689,4.14499 -8.30598,2.75461 0.96281,-2.49537 -0.0838,-4.29168 -1.72608,-5.88073 0.50174,-5.64884 4.9498,-6.07562 8.46088,-3.57365 6.01054,1.23425 9.31727,-0.9231 13.37858,-2.13391 -5.36516,-2.01755 -8.80413,-4.42482 -10.8736,-7.10916 -3.95159,-0.0824 -6.773,-0.26427 -7.15086,-4.35353 1.53747,-1.92585 2.31988,-3.96431 1.68875,-6.21358 2.03977,-2.80313 4.45564,-3.32202 7.79828,1.78784 2.84031,6.15484 6.93878,8.10441 11.53486,8.39076 1.7375,-11.57683 -0.94346,-24.41169 -3.68148,-37.61748 -2.23684,-2.84292 -4.40042,-6.56753 -7.39829,-0.2509 -7.68924,12.66636 -15.80012,8.40242 -20.26697,17.95757 2.847546,2.11013 3.265551,5.66393 4.57766,8.68644 1.17933,2.83961 3.6882,4.72307 0.63271,10.60814 -2.178002,-1.97576 -4.263518,-1.58945 -6.247531,1.38885 -5.405085,-4.47242 -2.308265,-8.49868 -0.166473,-12.57505 -4.014675,-9.77594 -11.244611,-10.71802 -18.589434,-11.34446 -4.389717,2.74614 -7.761219,3.67713 -8.378185,-0.30234 2.391221,-1.15659 1.921935,-6.42686 -0.487212,-6.89241 5.516415,-8.66613 10.373935,4.14905 19.352169,3.07562 -2.731664,-4.45353 -6.504464,-9.286 -5.923515,-12.53383 -4.368032,0.60854 -8.113023,-5.62541 -4.174188,-10.80899 1.317313,1.11717 4.632189,-2.18182 4.712932,-4.74736 4.016852,0.15462 5.575115,3.11528 4.362937,10.32011 -0.206213,9.0161 3.201477,10.56901 5.457268,14.50074 -1.156226,-7.03416 3.785847,-12.15396 0.79136,-18.63627 -5.76526,-1.18224 -6.377536,-4.76837 -3.32771,-10.06288 2.269896,0.62268 3.641828,0.51156 5.782386,-2.16862 9.461576,3.27653 -0.708984,19.78392 1.383408,32.55275 4.446528,-6.32552 13.755778,-10.76127 14.715278,-16.42277 -11.92873,-14.5032 -25.994822,-42.54413 -3.60871,-67.59385 35.20181,-32.622949 67.71317,-8.373935 82.5526,-32.182235 -6.08939,-5.654827 -16.38578,6.721737 -22.87329,3.426195 -11.10891,-5.16605 -27.6598,9.398064 -30.25116,5.777167 -3.01991,-5.596436 8.76091,-11.435761 13.24767,-13.728439 -18.52872,0.714517 -43.05578,-0.973937 -36.47571,-22.42557 9.6355,20.82361 27.65384,12.049989 43.231,16.937441 -1.5874,-5.977847 -4.94279,-7.938808 -7.31741,-8.177343 -4.88562,-9.635552 -10.16039,-4.709673 -11.46254,1.398434 -2.16949,-2.044245 -1.69112,-6.544759 -0.18356,-9.160275 -0.33365,-1.344078 -0.82933,-3.035977 -0.19957,-4.438879 1.2328,-2.746257 2.94587,-4.911755 4.56762,-5.44274 9.12462,-2.720197 11.90219,9.597272 25.43231,6.776603 4.18941,-3.1176 9.6834,-1.89113 11.34655,5.350732 22.78255,0.268051 51.01962,19.815728 48.33824,-1.712167 6.03411,0.392559 6.91988,8.426978 3.06001,13.284831 -7.18915,2.994104 -11.42424,4.073787 -38.01632,-1.114036 8.08444,3.131079 40.94585,21.128484 39.70014,2.146587 6.02679,1.008095 5.68693,10.183764 -0.10479,13.491854 -8.26591,1.818917 -18.68318,1.749593 -25.9847,-1.328055 -4.90178,27.52483 -25.16217,27.727603 -41.96607,33.174206 -1e-4,3.4e-5 -2e-4,6.1e-5 -3e-4,9.9e-5 -3.92697,2.640361 -8.91715,5.399209 -12.81237,6.590192 -1.81079,4.036019 -2.8595,7.544308 -8.60928,13.941478 1.35932,2.85083 1.90851,3.715 2.27233,8.72567 2.38602,1.06016 4.36195,2.32896 6.59033,5.33577 5.56621,-9.26303 -0.88264,-17.97937 7.82478,-24.928013 3.86252,-2.372044 7.26948,-1.224267 9.2589,3.369963 2.64925,12.55793 14.53309,16.82025 25.24454,10.57648 9.08024,-5.29292 14.4764,-18.55951 18.37351,-39.874964 2.82221,-14.74695 9.11529,-15.012511 15.87895,-10.702997 25.00685,10.188281 40.50572,-11.515001 58.89142,-12.27396 7.16148,-0.543654 7.25452,7.248953 4.57056,12.237497 -3.04595,-5.924032 -5.62215,-5.202763 -8.18977,-4.360046 -11.58014,8.841356 -18.59942,26.459794 -16.50809,36.057468 2.07129,4.274146 6.3962,5.144563 8.34083,-4.319977 6.55657,2.43393 0.40795,16.956369 -5.22792,16.946399 -7.27753,-0.0318 -14.07575,16.40206 -9.34436,22.57406 3.19766,3.86537 5.63081,2.871 6.88152,0.20599 3.12171,0.91332 1.31522,10.61035 -3.97034,9.35873 -6.75592,-0.61935 -20.15991,-9.56548 -25.33213,2.96288 -0.2648,4.96411 4.35953,6.27806 7.48916,3.18556 -4.41336,11.30791 -14.05945,6.82964 -17.08427,0.44802 -10.91154,-13.5233 -25.54933,-19.95734 -30.45378,-6.21114 -3.93303,-6.92851 -24.75875,-17.52322 -29.92078,-6.41847 0.13281,5.11735 4.1578,5.49589 9.66297,2.38881 2.56423,4.8761 9.8162,5.03907 14.31386,2.15422 1.28233,2.13458 8.44207,6.3882 13.52217,2.76145 1.65335,6.62282 6.45896,6.03041 11.66498,4.52152 -1.99187,9.85365 4.47096,13.4754 13.07742,15.51709 -3.21514,8.49623 -2.21879,17.38456 2.71237,26.63923 -7.8072,4.74736 -10.05392,13.68423 -10.34809,24.09223 -5.30247,1.7903 -9.89996,6.10716 -13.37715,14.43907 -5.08731,-1.25869 -9.74375,-0.75221 -15.14688,2.50732 -4.43302,-2.21861 -9.03048,-2.83894 -13.89254,-0.88729 l -9.89917,-4.95448 -5.23039,-10.22015 -2.27826,-13.08504 4.87679,-13.39886"
         id="path4050"
         style="fill:#008800;fill-opacity:1;fill-rule:evenodd;stroke:#000000;stroke-width:3.49905229;stroke-linecap:butt;stroke-linejoin:miter;stroke-miterlimit:4;stroke-opacity:1;stroke-dasharray:none"
         inkscape:connector-curvature="0" />
      <g
         id="g4052"
         style="fill:#ffcc00;stroke:#000000;stroke-width:11.15957832;stroke-miterlimit:4;stroke-opacity:1;stroke-dasharray:none"
         transform="matrix(0.26646689,0.09698601,-0.11857674,0.32578692,119.77022,-33.180062)">
        <path
           d="m 125.0794,488.83419 c -2.65394,6.72186 -7.539,12.19103 -16.81878,11.67421 -1.63285,-5.91079 -8.10641,-6.17409 -16.0273,-4.74883 5.16923,-15.7063 18.04732,-19.90984 32.84608,-6.92538 z"
           id="path4054"
           style="fill:#008800;fill-opacity:1;fill-rule:evenodd;stroke:#000000;stroke-width:11.15957832;stroke-linecap:butt;stroke-linejoin:miter;stroke-miterlimit:4;stroke-opacity:1;stroke-dasharray:none"
           inkscape:connector-curvature="0" />
        <path
           d="m 88.47383,518.31652 c 2.45129,5.81447 -2.31402,17.95862 -9.10193,17.41238 -6.66408,-6.34833 -14.48256,-5.19309 -22.16121,-4.9467 2.91837,-12.469 9.0304,-21.39908 31.26314,-12.46568 z"
           id="path4056"
           style="fill:#008800;fill-opacity:1;fill-rule:evenodd;stroke:#000000;stroke-width:11.15957832;stroke-linecap:butt;stroke-linejoin:miter;stroke-miterlimit:4;stroke-opacity:1;stroke-dasharray:none"
           inkscape:connector-curvature="0" />
        <path
           d="m 82.33992,618.04198 c 7.09664,-5.21627 -1.0307,-18.75647 -9.69553,-18.40172 -24.4265,7.65856 -13.024,27.97574 -7.12325,33.43968 0.21478,-6.31382 3.85217,-15.62938 16.81878,-15.03796 z"
           id="path4058"
           style="fill:#008800;fill-opacity:1;fill-rule:evenodd;stroke:#000000;stroke-width:11.15957832;stroke-linecap:butt;stroke-linejoin:miter;stroke-miterlimit:4;stroke-opacity:1;stroke-dasharray:none"
           inkscape:connector-curvature="0" />
        <path
           d="m 201.78996,656.12634 c 4.11485,-8.99166 11.00182,-11.51505 19.58793,-10.07379 9.01982,14.06961 4.72004,29.36195 -12.87207,35.25827 3.58834,-11.60539 -0.47195,-21.02545 -6.71586,-25.18448 z"
           id="path4060"
           style="fill:#008800;fill-opacity:1;fill-rule:evenodd;stroke:#000000;stroke-width:11.15957832;stroke-linecap:butt;stroke-linejoin:miter;stroke-miterlimit:4;stroke-opacity:1;stroke-dasharray:none"
           inkscape:connector-curvature="0" />
        <path
           d="m 409.65829,638.71273 c -5.60829,5.24882 -6.25501,12.1515 -2.37275,20.56384 12.96219,-4.17422 17.82792,1.77214 22.54112,7.90916 11.61359,-18.30894 -2.39274,-29.15062 -20.16837,-28.473 z"
           id="path4062"
           style="fill:#008800;fill-opacity:1;fill-rule:evenodd;stroke:#000000;stroke-width:11.15957832;stroke-linecap:butt;stroke-linejoin:miter;stroke-miterlimit:4;stroke-opacity:1;stroke-dasharray:none"
           inkscape:connector-curvature="0" />
        <path
           d="m 315.24286,725.20867 c 5.07359,-5.7673 11.95308,-6.62632 20.48101,-3.00501 -3.773,13.08461 0.89675,13.49393 7.17603,18.01587 -17.94255,12.17201 -27.78684,2.7772 -27.65704,-15.01086 z"
           id="path4064"
           style="fill:#008800;fill-opacity:1;fill-rule:evenodd;stroke:#000000;stroke-width:11.15957832;stroke-linecap:butt;stroke-linejoin:miter;stroke-miterlimit:4;stroke-opacity:1;stroke-dasharray:none"
           inkscape:connector-curvature="0" />
        <path
           d="m 241.65543,683.27878 c 7.40679,2.36644 13.44996,7.15007 12.96805,13.80738 -8.98473,3.36005 -9.13853,10.10288 -6.73083,16.69454 -20.92693,-0.81408 -19.99437,-23.00132 -6.23722,-30.50192 z"
           id="path4066"
           style="fill:#008800;fill-opacity:1;fill-rule:evenodd;stroke:#000000;stroke-width:11.15957832;stroke-linecap:butt;stroke-linejoin:miter;stroke-miterlimit:4;stroke-opacity:1;stroke-dasharray:none"
           inkscape:connector-curvature="0" />
        <path
           d="m 231.68082,614.29933 c 5.56348,5.29629 5.74935,10.32747 1.79573,18.70652 -12.92624,-4.28425 -13.51875,1.17014 -18.28394,7.26687 -11.45756,-18.40698 -1.28102,-26.80207 16.48821,-25.97339 z"
           id="path4068"
           style="fill:#008800;fill-opacity:1;fill-rule:evenodd;stroke:#000000;stroke-width:11.15957832;stroke-linecap:butt;stroke-linejoin:miter;stroke-miterlimit:4;stroke-opacity:1;stroke-dasharray:none"
           inkscape:connector-curvature="0" />
      </g>
      <path
         d="m 166.63971,243.8148 c 11.07348,0.30391 14.38727,-1.95929 15.43176,-7.96486 -6.41397,-6.93662 -17.21817,3.38095 -27.74098,0.69871 8.56976,8.19802 6.86213,28.87101 21.20539,22.34443 1.79359,-9.72046 -5.84374,-9.71521 -8.89617,-15.07828 z"
         id="path4070"
         style="fill:#008800;fill-opacity:1;fill-rule:evenodd;stroke:#000000;stroke-width:3.49905229;stroke-linecap:butt;stroke-linejoin:miter;stroke-miterlimit:4;stroke-opacity:1;stroke-dasharray:none"
         inkscape:connector-curvature="0" />
      <path
         inkscape:connector-curvature="0"
         style="fill:#008800;fill-opacity:0.75;fill-rule:evenodd;stroke:#000000;stroke-width:3.49905229;stroke-linecap:round;stroke-linejoin:miter;stroke-miterlimit:4;stroke-opacity:1;stroke-dasharray:none"
         id="path4072"
         d="m 230.25223,159.49684 c -6.26004,4.74801 -9.02578,1.41087 -12.4021,0.41639" />
      <path
         inkscape:connector-curvature="0"
         style="fill:#008800;fill-opacity:0.75;fill-rule:evenodd;stroke:#000000;stroke-width:3.49905229;stroke-linecap:round;stroke-linejoin:miter;stroke-miterlimit:4;stroke-opacity:1;stroke-dasharray:none"
         id="path4074"
         d="m 217.4679,144.06835 c -3.44518,4.28135 -8.86928,5.85843 -13.23979,4.7788" />
      <path
         inkscape:connector-curvature="0"
         style="fill:#008800;fill-opacity:0.75;fill-rule:evenodd;stroke:#000000;stroke-width:3.49905229;stroke-linecap:round;stroke-linejoin:miter;stroke-miterlimit:4;stroke-opacity:1;stroke-dasharray:none"
         id="path4076"
         d="m 205.52874,139.91189 c -3.13115,3.21456 -7.69866,5.43824 -12.3805,5.11327" />
      <path
         inkscape:connector-curvature="0"
         style="fill:#008800;fill-opacity:0.75;fill-rule:evenodd;stroke:#000000;stroke-width:3.49905229;stroke-linecap:round;stroke-linejoin:miter;stroke-miterlimit:4;stroke-opacity:1;stroke-dasharray:none"
         id="path4078"
         d="m 192.48163,136.67546 c -3.10037,4.83424 -7.75004,4.74813 -10.65264,5.74217" />
      <path
         inkscape:connector-curvature="0"
         style="fill:#008800;fill-opacity:0.75;fill-rule:evenodd;stroke:#000000;stroke-width:3.49905229;stroke-linecap:round;stroke-linejoin:miter;stroke-miterlimit:4;stroke-opacity:1;stroke-dasharray:none"
         id="path4080"
         d="m 178.0685,134.64322 c -2.98148,3.49323 -7.66313,5.34151 -11.80673,6.41292" />
      <path
         inkscape:connector-curvature="0"
         style="fill:#008800;fill-opacity:0.75;fill-rule:evenodd;stroke:#000000;stroke-width:3.49905229;stroke-linecap:round;stroke-linejoin:miter;stroke-miterlimit:4;stroke-opacity:1;stroke-dasharray:none"
         id="path4082"
         d="m 233.42806,185.60624 c -3.9905,-2.51102 -8.00546,-4.91884 -11.16047,-10.95445" />
      <path
         inkscape:connector-curvature="0"
         style="fill:#008800;fill-opacity:0.75;fill-rule:evenodd;stroke:#000000;stroke-width:3.49905229;stroke-linecap:round;stroke-linejoin:miter;stroke-miterlimit:4;stroke-opacity:1;stroke-dasharray:none"
         id="path4084"
         d="m 222.25152,209.51646 c -3.36746,-2.55981 -3.44698,-8.74032 -3.02834,-15.46939" />
      <path
         inkscape:connector-curvature="0"
         style="fill:#008800;fill-opacity:0.75;fill-rule:evenodd;stroke:#000000;stroke-width:3.49905229;stroke-linecap:round;stroke-linejoin:miter;stroke-miterlimit:4;stroke-opacity:1;stroke-dasharray:none"
         id="path4086"
         d="m 209.07611,223.62517 c -0.77661,-5.29266 0.40797,-10.159 3.46517,-14.61828" />
      <path
         inkscape:connector-curvature="0"
         style="fill:#008800;fill-opacity:0.75;fill-rule:evenodd;stroke:#000000;stroke-width:3.49905229;stroke-linecap:round;stroke-linejoin:round;stroke-miterlimit:4;stroke-opacity:1;stroke-dasharray:none"
         id="path4088"
         d="m 273.70915,57.473082 c -9.06885,4.198564 -18.58942,11.324979 -30.17953,10.559407" />
      <path
         style="fill:#008800;fill-opacity:0.75;fill-rule:evenodd;stroke:#000000;stroke-width:3.49905229;stroke-linecap:round;stroke-linejoin:round;stroke-miterlimit:4;stroke-opacity:1;stroke-dasharray:none"
         d="M 264.32691,97.435208 231.79726,71.646447"
         id="path4090"
         inkscape:connector-curvature="0" />
      <path
         style="fill:#008800;fill-opacity:0.75;fill-rule:evenodd;stroke:#000000;stroke-width:3.49905229;stroke-linecap:round;stroke-linejoin:round;stroke-miterlimit:4;stroke-opacity:1;stroke-dasharray:none"
         d="m 227.31742,75.777437 c 0.2798,-2.104885 19.04454,28.641123 28.77476,42.919603"
         id="path4092"
         inkscape:connector-curvature="0" />
      <path
         style="fill:#008800;fill-opacity:0.75;fill-rule:evenodd;stroke:#000000;stroke-width:3.49905229;stroke-linecap:round;stroke-linejoin:round;stroke-miterlimit:4;stroke-opacity:1;stroke-dasharray:none"
         d="M 235.5608,130.7194 C 231.84415,112.9918 225.50773,75.241588 224.41084,77.536609"
         id="path4094"
         inkscape:connector-curvature="0" />
      <path
         inkscape:connector-curvature="0"
         style="fill:#008800;fill-opacity:0.75;fill-rule:evenodd;stroke:#000000;stroke-width:3.49905229;stroke-linecap:round;stroke-linejoin:round;stroke-miterlimit:4;stroke-opacity:1;stroke-dasharray:none"
         id="path4096"
         d="m 204.2525,118.02321 c 6.46897,-9.3159 11.05477,-26.661988 16.5658,-40.062688" />
      <path
         d="m 124.26862,161.38446 c -3.45879,-8.45789 -3.84185,-16.21105 -1.55074,-23.72246"
         id="path4098"
         style="fill:#008800;fill-opacity:0.75;fill-rule:evenodd;stroke:#000000;stroke-width:3.49905229;stroke-linecap:round;stroke-linejoin:miter;stroke-miterlimit:4;stroke-opacity:1;stroke-dasharray:none"
         inkscape:connector-curvature="0" />
      <path
         d="m 138.24448,152.56978 3.84435,6.84308 -3.86764,8.21727"
         id="path4100"
         style="fill:#008800;fill-opacity:0.75;fill-rule:evenodd;stroke:#000000;stroke-width:3.49905229;stroke-linecap:round;stroke-linejoin:miter;stroke-miterlimit:4;stroke-opacity:1;stroke-dasharray:none"
         inkscape:connector-curvature="0" />
      <path
         d="m 144.43156,151.65479 3.39579,6.7087 -4.3613,8.40164"
         id="path4102"
         style="fill:#008800;fill-opacity:0.75;fill-rule:evenodd;stroke:#000000;stroke-width:3.49905229;stroke-linecap:round;stroke-linejoin:miter;stroke-miterlimit:4;stroke-opacity:1;stroke-dasharray:none"
         inkscape:connector-curvature="0" />
      <path
         d="m 114.45669,143.91173 c -1.15114,4.79272 0.90121,11.68655 6.16305,14.54674"
         id="path4104"
         style="fill:#008800;fill-opacity:0.75;fill-rule:evenodd;stroke:#000000;stroke-width:3.49905229;stroke-linecap:round;stroke-linejoin:miter;stroke-miterlimit:4;stroke-opacity:1;stroke-dasharray:none"
         inkscape:connector-curvature="0" />
      <path
         inkscape:connector-curvature="0"
         style="fill:#008800;fill-opacity:0.75;fill-rule:evenodd;stroke:#000000;stroke-width:3.49905229;stroke-linecap:butt;stroke-linejoin:miter;stroke-miterlimit:4;stroke-opacity:1;stroke-dasharray:none"
         id="path4106"
         d="m 138.55385,23.006768 c -3.0622,6.472627 4.1337,6.508709 7.09921,8.498735" />
      <path
         inkscape:connector-curvature="0"
         style="fill:#008800;fill-opacity:1;fill-rule:evenodd;stroke:#000000;stroke-width:3.49905229;stroke-linecap:butt;stroke-linejoin:miter;stroke-miterlimit:4;stroke-opacity:1;stroke-dasharray:none"
         id="path4108"
         d="m 137.57632,57.456242 c -2.53571,-2.584521 -2.59083,-7.857581 -1.7218,-10.373799 0.96089,3.838267 3.40664,5.506718 6.21003,6.65255 l -4.48823,3.721249 z" />
      <path
         d="m 169.2559,79.951941 c -1.7892,2.208606 -2.11063,5.991165 -4.63451,8.177012"
         id="path4110"
         style="fill:#008800;fill-opacity:0.75;fill-rule:evenodd;stroke:#000000;stroke-width:3.49905229;stroke-linecap:round;stroke-linejoin:miter;stroke-miterlimit:4;stroke-opacity:1;stroke-dasharray:none"
         inkscape:connector-curvature="0" />
      <path
         d="m 153.20632,84.467932 c -1.79691,1.66247 -0.60485,8.196233 -2.0835,11.045051"
         id="path4112"
         style="fill:#008800;fill-opacity:0.75;fill-rule:evenodd;stroke:#000000;stroke-width:3.49905229;stroke-linecap:round;stroke-linejoin:miter;stroke-miterlimit:4;stroke-opacity:1;stroke-dasharray:none"
         inkscape:connector-curvature="0" />
      <path
         d="m 136.77418,99.324078 c 0.86038,4.413142 4.14337,5.181702 6.05453,10.239652"
         id="path4114"
         style="fill:#008800;fill-opacity:0.75;fill-rule:evenodd;stroke:#000000;stroke-width:3.49905229;stroke-linecap:round;stroke-linejoin:miter;stroke-miterlimit:4;stroke-opacity:1;stroke-dasharray:none"
         inkscape:connector-curvature="0" />
      <path
         d="m 133.96055,116.75581 c 2.5709,2.2043 8.61433,0.24203 11.79388,1.6353"
         id="path4116"
         style="fill:#008800;fill-opacity:0.75;fill-rule:evenodd;stroke:#000000;stroke-width:3.49905229;stroke-linecap:round;stroke-linejoin:miter;stroke-miterlimit:4;stroke-opacity:1;stroke-dasharray:none"
         inkscape:connector-curvature="0" />
      <path
         d="m 151.60303,123.51183 c -3.02587,3.43551 -3.43477,7.67796 -6.83839,10.08982"
         id="path4118"
         style="fill:#008800;fill-opacity:0.75;fill-rule:evenodd;stroke:#000000;stroke-width:3.49905229;stroke-linecap:round;stroke-linejoin:miter;stroke-miterlimit:4;stroke-opacity:1;stroke-dasharray:none"
         inkscape:connector-curvature="0" />
      <path
         d="m 184.53761,53.358714 c 5.74179,-7.471183 -3.70964,-14.164541 -9.33824,-18.533749 -2.83809,-4.477185 -5.38361,-4.774838 -9.15008,-2.210185 -2.32382,-3.883454 -5.85952,-6.553964 -8.98321,-8.239821"
         id="path4120"
         style="fill:#008800;fill-opacity:0.75;fill-rule:evenodd;stroke:#000000;stroke-width:3.49905229;stroke-linecap:round;stroke-linejoin:miter;stroke-miterlimit:4;stroke-opacity:1;stroke-dasharray:none"
         inkscape:connector-curvature="0" />
      <path
         d="m 174.94298,35.249687 c -4.05365,2.909519 -7.46401,1.490273 -9.08042,-2.994129 1.43703,5.753426 -0.28709,12.441683 -7.82675,13.268011 -3.57953,1.299703 -6.53615,4.59666 -9.16698,5.040219"
         id="path4122"
         style="fill:#008800;fill-opacity:0.75;fill-rule:evenodd;stroke:#000000;stroke-width:3.49905229;stroke-linecap:round;stroke-linejoin:miter;stroke-miterlimit:4;stroke-opacity:1;stroke-dasharray:none"
         inkscape:connector-curvature="0" />
      <path
         d="m 165.23827,30.587195 c 4.61284,-3.857424 11.19964,0.08147 12.94008,5.086561"
         id="path4124"
         style="fill:none;stroke:#000000;stroke-width:3.49905229;stroke-linecap:round;stroke-linejoin:miter;stroke-miterlimit:4;stroke-opacity:1;stroke-dasharray:none"
         inkscape:connector-curvature="0" />
      <path
         inkscape:connector-curvature="0"
         style="fill:#008800;fill-opacity:0.75;fill-rule:evenodd;stroke:#000000;stroke-width:3.49905229;stroke-linecap:round;stroke-linejoin:miter;stroke-miterlimit:4;stroke-opacity:1;stroke-dasharray:none"
         id="path4126"
         d="m 206.07647,54.514408 c 2.50386,-0.586642 4.73576,-1.51444 3.76088,-5.122854" />
      <path
         inkscape:connector-curvature="0"
         style="fill:#008800;fill-opacity:0.75;fill-rule:evenodd;stroke:#000000;stroke-width:3.49905229;stroke-linecap:round;stroke-linejoin:miter;stroke-miterlimit:4;stroke-opacity:1;stroke-dasharray:none"
         id="path4128"
         d="m 210.83955,56.016182 c 2.50387,-0.586642 4.73576,-1.514439 3.76089,-5.122859" />
      <path
         inkscape:connector-curvature="0"
         style="fill:#008800;fill-opacity:0.75;fill-rule:evenodd;stroke:#000000;stroke-width:3.49905229;stroke-linecap:round;stroke-linejoin:miter;stroke-miterlimit:4;stroke-opacity:1;stroke-dasharray:none"
         id="path4130"
         d="m 216.00096,56.952712 c 2.45446,-0.978382 4.59375,-2.244148 3.17784,-5.593804" />
      <path
         inkscape:connector-curvature="0"
         style="fill:#008800;fill-opacity:0.75;fill-rule:evenodd;stroke:#000000;stroke-width:3.49905229;stroke-linecap:round;stroke-linejoin:miter;stroke-miterlimit:4;stroke-opacity:1;stroke-dasharray:none"
         id="path4132"
         d="m 221.50114,57.301884 c 2.46541,-0.917852 4.62205,-2.131947 3.27388,-5.526712" />
      <path
         inkscape:connector-curvature="0"
         style="fill:#008800;fill-opacity:0.75;fill-rule:evenodd;stroke:#000000;stroke-width:3.49905229;stroke-linecap:round;stroke-linejoin:miter;stroke-miterlimit:4;stroke-opacity:1;stroke-dasharray:none"
         id="path4134"
         d="m 227.01283,57.015455 c 2.22496,-1.678291 4.06891,-3.524805 1.88225,-6.1932" />
      <path
         inkscape:connector-curvature="0"
         style="fill:#008800;fill-opacity:0.75;fill-rule:evenodd;stroke:#000000;stroke-width:3.49905229;stroke-linecap:round;stroke-linejoin:miter;stroke-miterlimit:4;stroke-opacity:1;stroke-dasharray:none"
         id="path4136"
         d="m 206.37441,55.953514 c -3.89987,-1.694147 -7.54575,-2.379461 -11.64222,-4.900649" />
      <path
         inkscape:connector-curvature="0"
         style="fill:#008800;fill-opacity:0.75;fill-rule:evenodd;stroke:#000000;stroke-width:3.49905229;stroke-linecap:round;stroke-linejoin:miter;stroke-miterlimit:4;stroke-opacity:1;stroke-dasharray:none"
         id="path4138"
         d="m 189.13943,45.531136 c 3.54271,-2.695623 5.06986,-5.040555 1.52692,-9.417869" />
      <path
         inkscape:connector-curvature="0"
         style="fill:#008800;fill-opacity:0.75;fill-rule:evenodd;stroke:#000000;stroke-width:3.49905229;stroke-linecap:round;stroke-linejoin:miter;stroke-miterlimit:4;stroke-opacity:1;stroke-dasharray:none"
         id="path4140"
         d="m 201.96956,41.579037 c 2.50387,-0.586642 4.73577,-1.514439 3.76089,-5.122854" />
      <path
         inkscape:connector-curvature="0"
         style="fill:#008800;fill-opacity:0.75;fill-rule:evenodd;stroke:#000000;stroke-width:3.49905229;stroke-linecap:round;stroke-linejoin:miter;stroke-miterlimit:4;stroke-opacity:1;stroke-dasharray:none"
         id="path4142"
         d="m 206.73265,43.080812 c 2.50387,-0.586643 4.73576,-1.51444 3.76088,-5.12286" />
      <path
         inkscape:connector-curvature="0"
         style="fill:#008800;fill-opacity:0.75;fill-rule:evenodd;stroke:#000000;stroke-width:3.49905229;stroke-linecap:round;stroke-linejoin:miter;stroke-miterlimit:4;stroke-opacity:1;stroke-dasharray:none"
         id="path4144"
         d="m 211.89405,44.017342 c 2.45447,-0.978383 4.59376,-2.244154 3.17785,-5.593805" />
      <path
         inkscape:connector-curvature="0"
         style="fill:#008800;fill-opacity:0.75;fill-rule:evenodd;stroke:#000000;stroke-width:3.49905229;stroke-linecap:round;stroke-linejoin:miter;stroke-miterlimit:4;stroke-opacity:1;stroke-dasharray:none"
         id="path4146"
         d="m 217.39424,44.366513 c 2.46541,-0.917852 4.62205,-2.131952 3.27388,-5.526712" />
      <path
         inkscape:connector-curvature="0"
         style="fill:#008800;fill-opacity:0.75;fill-rule:evenodd;stroke:#000000;stroke-width:3.49905229;stroke-linecap:round;stroke-linejoin:miter;stroke-miterlimit:4;stroke-opacity:1;stroke-dasharray:none"
         id="path4148"
         d="m 222.90593,44.080084 c 2.22496,-1.678291 4.06891,-3.52481 1.88225,-6.1932" />
      <path
         inkscape:connector-curvature="0"
         style="fill:#008800;fill-opacity:0.75;fill-rule:evenodd;stroke:#000000;stroke-width:3.49905229;stroke-linecap:round;stroke-linejoin:miter;stroke-miterlimit:4;stroke-opacity:1;stroke-dasharray:none"
         id="path4150"
         d="m 110.59674,153.58708 c 3.97837,3.25254 4.81781,4.01864 9.65636,5.10851" />
      <path
         d="m 188.6753,174.00039 -2.28539,11.19168"
         id="path4152"
         style="fill:#008800;fill-opacity:0.75;fill-rule:evenodd;stroke:#000000;stroke-width:3.49905229;stroke-linecap:round;stroke-linejoin:miter;stroke-miterlimit:4;stroke-opacity:1;stroke-dasharray:none"
         inkscape:connector-curvature="0" />
      <path
         d="m 177.04788,182.61164 5.43628,7.1706"
         id="path4154"
         style="fill:#008800;fill-opacity:0.75;fill-rule:evenodd;stroke:#000000;stroke-width:3.49905229;stroke-linecap:round;stroke-linejoin:miter;stroke-miterlimit:4;stroke-opacity:1;stroke-dasharray:none"
         inkscape:connector-curvature="0" />
      <path
         d="m 174.69635,194.59903 7.91612,3.42775"
         id="path4156"
         style="fill:#008800;fill-opacity:0.75;fill-rule:evenodd;stroke:#000000;stroke-width:3.49905229;stroke-linecap:round;stroke-linejoin:miter;stroke-miterlimit:4;stroke-opacity:1;stroke-dasharray:none"
         inkscape:connector-curvature="0" />
      <path
         d="m 177.30251,204.0187 7.74243,-1.00765"
         id="path4158"
         style="fill:#008800;fill-opacity:0.75;fill-rule:evenodd;stroke:#000000;stroke-width:3.49905229;stroke-linecap:round;stroke-linejoin:miter;stroke-miterlimit:4;stroke-opacity:1;stroke-dasharray:none"
         inkscape:connector-curvature="0" />
      <path
         d="m 185.41501,209.97727 7.45921,-5.75616"
         id="path4160"
         style="fill:#008800;fill-opacity:0.75;fill-rule:evenodd;stroke:#000000;stroke-width:3.49905229;stroke-linecap:round;stroke-linejoin:miter;stroke-miterlimit:4;stroke-opacity:1;stroke-dasharray:none"
         inkscape:connector-curvature="0" />
      <path
         d="m 193.85906,209.49826 4.45535,-7.94253"
         id="path4162"
         style="fill:#008800;fill-opacity:0.75;fill-rule:evenodd;stroke:#000000;stroke-width:3.49905229;stroke-linecap:round;stroke-linejoin:miter;stroke-miterlimit:4;stroke-opacity:1;stroke-dasharray:none"
         inkscape:connector-curvature="0" />
      <path
         d="m 203.57997,196.91397 -2.26268,9.28712"
         id="path4164"
         style="fill:#008800;fill-opacity:0.75;fill-rule:evenodd;stroke:#000000;stroke-width:3.49905229;stroke-linecap:round;stroke-linejoin:miter;stroke-miterlimit:4;stroke-opacity:1;stroke-dasharray:none"
         inkscape:connector-curvature="0" />
      <path
         d="m 204.83222,191.63127 3.13311,7.97188"
         id="path4166"
         style="fill:#008800;fill-opacity:0.75;fill-rule:evenodd;stroke:#000000;stroke-width:3.49905229;stroke-linecap:round;stroke-linejoin:miter;stroke-miterlimit:4;stroke-opacity:1;stroke-dasharray:none"
         inkscape:connector-curvature="0" />
      <path
         d="m 206.28181,186.42038 4.93204,6.71383"
         id="path4168"
         style="fill:#008800;fill-opacity:0.75;fill-rule:evenodd;stroke:#000000;stroke-width:3.49905229;stroke-linecap:round;stroke-linejoin:miter;stroke-miterlimit:4;stroke-opacity:1;stroke-dasharray:none"
         inkscape:connector-curvature="0" />
      <path
         d="m 202.46881,178.47429 8.74994,2.36494"
         id="path4170"
         style="fill:#008800;fill-opacity:0.75;fill-rule:evenodd;stroke:#000000;stroke-width:3.49905229;stroke-linecap:round;stroke-linejoin:miter;stroke-miterlimit:4;stroke-opacity:1;stroke-dasharray:none"
         inkscape:connector-curvature="0" />
      <path
         d="m 201.11291,168.6899 -7.1977,9.95028"
         id="path4172"
         style="fill:#008800;fill-opacity:1;fill-rule:evenodd;stroke:#000000;stroke-width:3.49905229;stroke-linecap:round;stroke-linejoin:miter;stroke-miterlimit:4;stroke-opacity:1;stroke-dasharray:none"
         inkscape:connector-curvature="0" />
      <path
         sodipodi:type="arc"
         style="fill:#000000;stroke:#000000;stroke-width:0.09289462;stroke-miterlimit:4;stroke-opacity:1;stroke-dasharray:none"
         id="path4174"
         sodipodi:cx="350.99014"
         sodipodi:cy="95.744476"
         sodipodi:rx="1.767767"
         sodipodi:ry="1.767767"
         d="m 352.75791,95.744476 c 0,0.976311 -0.79146,1.767767 -1.76777,1.767767 -0.97631,0 -1.76776,-0.791456 -1.76776,-1.767767 0,-0.97631 0.79145,-1.767767 1.76776,-1.767767 0.97631,0 1.76777,0.791457 1.76777,1.767767 z"
         transform="matrix(1.2364885,-0.21802628,0.21802628,1.2364885,-285.82358,-8.4767139)" />
    </g>
    <g
       transform="matrix(0.51366245,0,0,0.51366245,294.9013,-52.137263)"
       id="g3523"
       style="stroke-width:2;stroke-miterlimit:4;stroke-dasharray:none;display:inline">
      <path
         d="m 196.43343,233.69878 0,-57.53699 27.61775,0 0,23.0148 17.2611,0 0,-23.0148 27.61775,0 0,23.0148 17.26109,0 0,-23.0148 27.61775,0 0,23.0148 17.2611,0 0,-23.0148 27.61775,0 0,23.0148 17.26109,0 0,-23.0148 27.61776,0 0,57.53699 z m 5.7537,0 195.62574,0 0,8.63054 -195.62574,0 z m 5.7537,8.63054 184.11834,0 0,8.63055 -184.11834,0 z m 28.76849,60.41384 c 0,-17.2611 -11.5074,-40.27589 -23.01479,-51.78329 l 172.61094,0 c -11.50739,11.5074 -23.01479,34.52219 -23.01479,51.78329 z m -2.87685,0 132.33506,0 0,8.63054 -132.33506,0 z m 2.87685,8.63054 126.58136,0 0,5.7537 -126.58136,0 z m -51.78329,235.90163 0,-80.55178 c 57.53699,-57.53698 57.53699,-120.82766 57.53699,-149.59615 l 115.07396,0 c 0,28.76849 0,92.05917 57.53698,149.59615 l 0,80.55178 z m -5.75369,0 241.65532,0 0,14.38424 -241.65532,0 z"
         id="path3525"
         inkscape:connector-curvature="0"
         style="fill:#ffffff;fill-opacity:1;stroke:#000000;stroke-width:3.85480094;stroke-miterlimit:4;stroke-dasharray:none" />
      <path
         d="m 210.24231,190.54604 0,-14.38425 m 44.87884,14.38425 0,-14.38425 M 300,190.54604 l 0,-14.38425 m 44.87884,14.38425 0,-14.38425 m 44.87885,14.38425 0,-14.38425 m -157.07596,43.15274 0,-20.13794 m 44.87885,20.13794 0,-20.13794 m 44.87884,20.13794 0,-20.13794 m 44.87885,20.13794 0,-20.13794 m -157.07596,34.52219 0,-14.38425 m 44.87884,14.38425 0,-14.38425 M 300,233.69878 l 0,-14.38425 m 44.87884,14.38425 0,-14.38425 m 44.87885,14.38425 0,-14.38425 m -193.32426,0 207.13314,0 m -207.13314,-28.76849 27.61775,0 m 17.2611,0 27.61775,0 m 17.26109,0 27.61775,0 m 17.2611,0 27.61775,0 m 17.26109,0 27.61776,0 m -172.61095,69.04438 0,-8.63055 m 23.01479,8.63055 0,-8.63055 m 23.0148,8.63055 0,-8.63055 M 300,259.59042 l 0,-8.63055 m 23.01479,8.63055 0,-8.63055 m 23.01479,8.63055 0,-8.63055 m 23.0148,8.63055 0,-8.63055 m -126.58136,17.2611 0,-8.63055 m 23.01479,8.63055 0,-8.63055 m 23.01479,8.63055 0,-8.63055 m 23.01479,8.63055 0,-8.63055 m 23.0148,8.63055 0,-8.63055 m 23.01479,8.63055 0,-8.63055 m -126.58136,17.26109 0,-8.63054 m 23.01479,8.63054 0,-8.63054 m 23.0148,8.63054 0,-8.63054 M 300,276.85151 l 0,-8.63054 m 23.01479,8.63054 0,-8.63054 m 23.01479,8.63054 0,-8.63054 m 23.0148,8.63054 0,-8.63054 m -126.58136,17.26109 0,-8.63055 m 23.01479,8.63055 0,-8.63055 m 23.01479,8.63055 0,-8.63055 m 23.01479,8.63055 0,-8.63055 m 23.0148,8.63055 0,-8.63055 m 23.01479,8.63055 0,-8.63055 m -103.56657,17.2611 0,-8.63055 m 23.0148,8.63055 0,-8.63055 M 300,294.11261 l 0,-8.63055 m 23.01479,8.63055 0,-8.63055 m 23.01479,8.63055 0,-8.63055 m -103.56656,17.2611 0,-8.63055 m 23.01479,8.63055 0,-8.63055 m 23.01479,8.63055 0,-8.63055 m 23.01479,8.63055 0,-8.63055 m 23.0148,8.63055 0,-8.63055 m 23.01479,8.63055 0,-8.63055 m -121.69072,0 128.30747,0 m -130.32126,-8.63055 132.33506,0 m -135.49959,-8.63055 138.66412,0 m -142.9794,-8.63054 147.29468,0 m -152.76069,-8.63055 158.2267,0 m -107.88184,80.55177 0,-23.01479 M 300,340.14219 300,317.1274 m 28.76849,23.01479 0,-23.01479 m -71.92123,46.02959 0,-23.0148 m 28.76849,23.0148 0,-23.0148 m 28.76849,23.0148 0,-23.0148 m 28.7685,23.0148 0,-23.0148 m -100.68972,46.02959 0,-23.01479 m 28.76849,23.01479 0,-23.01479 M 300,386.17178 l 0,-23.01479 m 28.76849,23.01479 0,-23.01479 m 28.76849,23.01479 0,-23.01479 m -100.68972,46.02958 0,-23.01479 m 28.76849,23.01479 0,-23.01479 m 28.76849,23.01479 0,-23.01479 m 28.7685,23.01479 0,-23.01479 m -100.68972,46.02958 0,-23.01479 m 28.76849,23.01479 0,-23.01479 M 300,432.20136 l 0,-23.01479 m 28.76849,23.01479 0,-23.01479 m 28.76849,23.01479 0,-23.01479 m -129.45821,46.02959 0,-23.0148 m 28.76849,23.0148 0,-23.0148 m 28.76849,23.0148 0,-23.0148 m 28.76849,23.0148 0,-23.0148 m 28.7685,23.0148 0,-23.0148 m 28.76849,23.0148 0,-23.0148 m -158.2267,46.02959 0,-23.01479 m 28.76849,23.01479 0,-23.01479 m 28.76849,23.01479 0,-23.01479 M 300,478.23095 l 0,-23.01479 m 28.76849,23.01479 0,-23.01479 m 28.76849,23.01479 0,-23.01479 m 28.76849,23.01479 0,-23.01479 m -186.99519,46.02958 0,-23.01479 m 28.76849,23.01479 0,-23.01479 m 28.76849,23.01479 0,-23.01479 m 28.76849,23.01479 0,-23.01479 m 28.76849,23.01479 0,-23.01479 m 28.7685,23.01479 0,-23.01479 m 28.76849,23.01479 0,-23.01479 m 28.76849,23.01479 0,-23.01479 m -186.99519,46.02959 0,-23.0148 m 28.76849,23.0148 0,-23.0148 m 28.76849,23.0148 0,-23.0148 M 300,524.26054 l 0,-23.0148 m 28.76849,23.0148 0,-23.0148 m 28.76849,23.0148 0,-23.0148 m 28.76849,23.0148 0,-23.0148 m -186.99519,46.02959 0,-23.01479 m 28.76849,23.01479 0,-23.01479 m 28.76849,23.01479 0,-23.01479 m 28.76849,23.01479 0,-23.01479 m 28.76849,23.01479 0,-23.01479 m 28.7685,23.01479 0,-23.01479 m 28.76849,23.01479 0,-23.01479 m 28.76849,23.01479 0,-23.01479 m -215.76369,0 230.14793,0 m 0,-23.0148 -230.14793,0 m 0,-23.01479 230.14793,0 m -10.64434,-23.01479 -208.85924,0 m 17.26109,-23.0148 174.33706,0 m -12.37045,-23.01479 -149.59616,0 m 8.63055,-23.01479 132.33506,0 m -5.46602,-23.01479 -121.40303,0 m 2.58917,-23.0148 116.2247,0"
         id="path3527"
         inkscape:connector-curvature="0"
         style="fill:#ffffff;fill-opacity:1;stroke:#000000;stroke-width:3.85480094;stroke-miterlimit:4;stroke-dasharray:none" />
      <path
         d="m 248.21671,547.27533 v -86.30547 a 51.783285,51.783285 0 1 1 103.56657,0 v 86.30547 z"
         id="path3529"
         inkscape:connector-curvature="0"
         style="fill:#ffffff;fill-opacity:1;stroke:#000000;stroke-width:3.85480094;stroke-miterlimit:4;stroke-dasharray:none" />
      <path
         d="m 236.70932,547.27533 v -20.13794 h 126.58136 v 20.13794 z m 0,-40.27589 V 486.8615 h 126.58136 v 20.13794 z"
         id="path3531"
         inkscape:connector-curvature="0"
         style="fill:#ffffff;fill-opacity:1;stroke:#000000;stroke-width:3.85480094;stroke-miterlimit:4;stroke-dasharray:none" />
      <path
         d="m 235.94721,466.91731 1.75514,-20.0613 63.04986,5.51612 -1.75514,20.06134 z"
         id="path3533"
         inkscape:connector-curvature="0"
         style="fill:#ffffff;fill-opacity:1;stroke:#000000;stroke-width:3.85480094;stroke-miterlimit:4;stroke-dasharray:none" />
      <path
         d="m 258.38897,411.91221 17.43997,-10.06897 31.64534,54.81134 -17.43997,10.06897 z"
         id="path3535"
         inkscape:connector-curvature="0"
         style="fill:#ffffff;fill-opacity:1;stroke:#000000;stroke-width:3.85480094;stroke-miterlimit:4;stroke-dasharray:none" />
      <path
         d="m 309.96569,466.72355 -17.43998,-10.06897 31.64534,-54.81134 17.43998,10.06897 z"
         id="path3537"
         inkscape:connector-curvature="0"
         style="fill:#ffffff;fill-opacity:1;stroke:#000000;stroke-width:3.85480094;stroke-miterlimit:4;stroke-dasharray:none" />
      <path
         d="m 301.00293,472.43347 -1.75514,-20.06131 63.04983,-5.51615 1.75514,20.06133 z"
         id="path3539"
         inkscape:connector-curvature="0"
         style="fill:#ffffff;fill-opacity:1;stroke:#000000;stroke-width:3.85480094;stroke-miterlimit:4;stroke-dasharray:none" />
      <path
         d="m 265.47781,547.27533 v -86.30547 a 34.52219,34.52219 0 1 1 69.04438,0 v 86.30547 z"
         id="path3541"
         inkscape:connector-curvature="0"
         style="fill:#dddddd;stroke:#000000;stroke-width:3.85480094;stroke-miterlimit:4;stroke-dasharray:none" />
    </g>
    <g
       style="stroke-width:2;stroke-miterlimit:4;stroke-dasharray:none;display:inline"
       id="g3648"
       transform="matrix(0.51883355,0,0,0.51883355,33.84994,242.30263)">
      <path
         style="fill:#ffffff;fill-opacity:1;stroke:#000000;stroke-width:3.85480094;stroke-miterlimit:4;stroke-dasharray:none"
         inkscape:connector-curvature="0"
         id="path3650"
         d="m 196.43343,233.69878 0,-57.53699 27.61775,0 0,23.0148 17.2611,0 0,-23.0148 27.61775,0 0,23.0148 17.26109,0 0,-23.0148 27.61775,0 0,23.0148 17.2611,0 0,-23.0148 27.61775,0 0,23.0148 17.26109,0 0,-23.0148 27.61776,0 0,57.53699 z m 5.7537,0 195.62574,0 0,8.63054 -195.62574,0 z m 5.7537,8.63054 184.11834,0 0,8.63055 -184.11834,0 z m 28.76849,60.41384 c 0,-17.2611 -11.5074,-40.27589 -23.01479,-51.78329 l 172.61094,0 c -11.50739,11.5074 -23.01479,34.52219 -23.01479,51.78329 z m -2.87685,0 132.33506,0 0,8.63054 -132.33506,0 z m 2.87685,8.63054 126.58136,0 0,5.7537 -126.58136,0 z m -51.78329,235.90163 0,-80.55178 c 57.53699,-57.53698 57.53699,-120.82766 57.53699,-149.59615 l 115.07396,0 c 0,28.76849 0,92.05917 57.53698,149.59615 l 0,80.55178 z m -5.75369,0 241.65532,0 0,14.38424 -241.65532,0 z" />
      <path
         style="fill:#ffffff;fill-opacity:1;stroke:#000000;stroke-width:3.85480094;stroke-miterlimit:4;stroke-dasharray:none"
         inkscape:connector-curvature="0"
         id="path3652"
         d="m 210.24231,190.54604 0,-14.38425 m 44.87884,14.38425 0,-14.38425 M 300,190.54604 l 0,-14.38425 m 44.87884,14.38425 0,-14.38425 m 44.87885,14.38425 0,-14.38425 m -157.07596,43.15274 0,-20.13794 m 44.87885,20.13794 0,-20.13794 m 44.87884,20.13794 0,-20.13794 m 44.87885,20.13794 0,-20.13794 m -157.07596,34.52219 0,-14.38425 m 44.87884,14.38425 0,-14.38425 M 300,233.69878 l 0,-14.38425 m 44.87884,14.38425 0,-14.38425 m 44.87885,14.38425 0,-14.38425 m -193.32426,0 207.13314,0 m -207.13314,-28.76849 27.61775,0 m 17.2611,0 27.61775,0 m 17.26109,0 27.61775,0 m 17.2611,0 27.61775,0 m 17.26109,0 27.61776,0 m -172.61095,69.04438 0,-8.63055 m 23.01479,8.63055 0,-8.63055 m 23.0148,8.63055 0,-8.63055 M 300,259.59042 l 0,-8.63055 m 23.01479,8.63055 0,-8.63055 m 23.01479,8.63055 0,-8.63055 m 23.0148,8.63055 0,-8.63055 m -126.58136,17.2611 0,-8.63055 m 23.01479,8.63055 0,-8.63055 m 23.01479,8.63055 0,-8.63055 m 23.01479,8.63055 0,-8.63055 m 23.0148,8.63055 0,-8.63055 m 23.01479,8.63055 0,-8.63055 m -126.58136,17.26109 0,-8.63054 m 23.01479,8.63054 0,-8.63054 m 23.0148,8.63054 0,-8.63054 M 300,276.85151 l 0,-8.63054 m 23.01479,8.63054 0,-8.63054 m 23.01479,8.63054 0,-8.63054 m 23.0148,8.63054 0,-8.63054 m -126.58136,17.26109 0,-8.63055 m 23.01479,8.63055 0,-8.63055 m 23.01479,8.63055 0,-8.63055 m 23.01479,8.63055 0,-8.63055 m 23.0148,8.63055 0,-8.63055 m 23.01479,8.63055 0,-8.63055 m -103.56657,17.2611 0,-8.63055 m 23.0148,8.63055 0,-8.63055 M 300,294.11261 l 0,-8.63055 m 23.01479,8.63055 0,-8.63055 m 23.01479,8.63055 0,-8.63055 m -103.56656,17.2611 0,-8.63055 m 23.01479,8.63055 0,-8.63055 m 23.01479,8.63055 0,-8.63055 m 23.01479,8.63055 0,-8.63055 m 23.0148,8.63055 0,-8.63055 m 23.01479,8.63055 0,-8.63055 m -121.69072,0 128.30747,0 m -130.32126,-8.63055 132.33506,0 m -135.49959,-8.63055 138.66412,0 m -142.9794,-8.63054 147.29468,0 m -152.76069,-8.63055 158.2267,0 m -107.88184,80.55177 0,-23.01479 M 300,340.14219 300,317.1274 m 28.76849,23.01479 0,-23.01479 m -71.92123,46.02959 0,-23.0148 m 28.76849,23.0148 0,-23.0148 m 28.76849,23.0148 0,-23.0148 m 28.7685,23.0148 0,-23.0148 m -100.68972,46.02959 0,-23.01479 m 28.76849,23.01479 0,-23.01479 M 300,386.17178 l 0,-23.01479 m 28.76849,23.01479 0,-23.01479 m 28.76849,23.01479 0,-23.01479 m -100.68972,46.02958 0,-23.01479 m 28.76849,23.01479 0,-23.01479 m 28.76849,23.01479 0,-23.01479 m 28.7685,23.01479 0,-23.01479 m -100.68972,46.02958 0,-23.01479 m 28.76849,23.01479 0,-23.01479 M 300,432.20136 l 0,-23.01479 m 28.76849,23.01479 0,-23.01479 m 28.76849,23.01479 0,-23.01479 m -129.45821,46.02959 0,-23.0148 m 28.76849,23.0148 0,-23.0148 m 28.76849,23.0148 0,-23.0148 m 28.76849,23.0148 0,-23.0148 m 28.7685,23.0148 0,-23.0148 m 28.76849,23.0148 0,-23.0148 m -158.2267,46.02959 0,-23.01479 m 28.76849,23.01479 0,-23.01479 m 28.76849,23.01479 0,-23.01479 M 300,478.23095 l 0,-23.01479 m 28.76849,23.01479 0,-23.01479 m 28.76849,23.01479 0,-23.01479 m 28.76849,23.01479 0,-23.01479 m -186.99519,46.02958 0,-23.01479 m 28.76849,23.01479 0,-23.01479 m 28.76849,23.01479 0,-23.01479 m 28.76849,23.01479 0,-23.01479 m 28.76849,23.01479 0,-23.01479 m 28.7685,23.01479 0,-23.01479 m 28.76849,23.01479 0,-23.01479 m 28.76849,23.01479 0,-23.01479 m -186.99519,46.02959 0,-23.0148 m 28.76849,23.0148 0,-23.0148 m 28.76849,23.0148 0,-23.0148 M 300,524.26054 l 0,-23.0148 m 28.76849,23.0148 0,-23.0148 m 28.76849,23.0148 0,-23.0148 m 28.76849,23.0148 0,-23.0148 m -186.99519,46.02959 0,-23.01479 m 28.76849,23.01479 0,-23.01479 m 28.76849,23.01479 0,-23.01479 m 28.76849,23.01479 0,-23.01479 m 28.76849,23.01479 0,-23.01479 m 28.7685,23.01479 0,-23.01479 m 28.76849,23.01479 0,-23.01479 m 28.76849,23.01479 0,-23.01479 m -215.76369,0 230.14793,0 m 0,-23.0148 -230.14793,0 m 0,-23.01479 230.14793,0 m -10.64434,-23.01479 -208.85924,0 m 17.26109,-23.0148 174.33706,0 m -12.37045,-23.01479 -149.59616,0 m 8.63055,-23.01479 132.33506,0 m -5.46602,-23.01479 -121.40303,0 m 2.58917,-23.0148 116.2247,0" />
      <path
         style="fill:#ffffff;fill-opacity:1;stroke:#000000;stroke-width:3.85480094;stroke-miterlimit:4;stroke-dasharray:none"
         inkscape:connector-curvature="0"
         id="path3654"
         d="m 248.21671,547.27533 v -86.30547 a 51.783285,51.783285 0 1 1 103.56657,0 v 86.30547 z" />
      <path
         style="fill:#ffffff;fill-opacity:1;stroke:#000000;stroke-width:3.85480094;stroke-miterlimit:4;stroke-dasharray:none"
         inkscape:connector-curvature="0"
         id="path3656"
         d="m 236.70932,547.27533 v -20.13794 h 126.58136 v 20.13794 z m 0,-40.27589 V 486.8615 h 126.58136 v 20.13794 z" />
      <path
         style="fill:#ffffff;fill-opacity:1;stroke:#000000;stroke-width:3.85480094;stroke-miterlimit:4;stroke-dasharray:none"
         inkscape:connector-curvature="0"
         id="path3658"
         d="m 235.94721,466.91731 1.75514,-20.0613 63.04986,5.51612 -1.75514,20.06134 z" />
      <path
         style="fill:#ffffff;fill-opacity:1;stroke:#000000;stroke-width:3.85480094;stroke-miterlimit:4;stroke-dasharray:none"
         inkscape:connector-curvature="0"
         id="path3660"
         d="m 258.38897,411.91221 17.43997,-10.06897 31.64534,54.81134 -17.43997,10.06897 z" />
      <path
         style="fill:#ffffff;fill-opacity:1;stroke:#000000;stroke-width:3.85480094;stroke-miterlimit:4;stroke-dasharray:none"
         inkscape:connector-curvature="0"
         id="path3662"
         d="m 309.96569,466.72355 -17.43998,-10.06897 31.64534,-54.81134 17.43998,10.06897 z" />
      <path
         style="fill:#ffffff;fill-opacity:1;stroke:#000000;stroke-width:3.85480094;stroke-miterlimit:4;stroke-dasharray:none"
         inkscape:connector-curvature="0"
         id="path3664"
         d="m 301.00293,472.43347 -1.75514,-20.06131 63.04983,-5.51615 1.75514,20.06133 z" />
      <path
         style="fill:#dddddd;stroke:#000000;stroke-width:3.85480094;stroke-miterlimit:4;stroke-dasharray:none"
         inkscape:connector-curvature="0"
         id="path3666"
         d="m 265.47781,547.27533 v -86.30547 a 34.52219,34.52219 0 1 1 69.04438,0 v 86.30547 z" />
    </g>
  </g>
  <g
     inkscape:groupmode="layer"
     id="layer1"
     inkscape:label="Cover"
     style="display:inline"
     sodipodi:insensitive="true">
    <path
       d="m 2,2 v 257 c 0,286 298,398 298,398 0,0 298,-112 298,-398 V 2 z"
       id="shine"
       inkscape:connector-curvature="0"
       style="fill:url(#radialGradient3074);stroke:#000000;stroke-width:3" />
  </g>
</svg>
