<?xml version="1.0" encoding="UTF-8"?>
<svg xmlns="http://www.w3.org/2000/svg" xmlns:xlink="http://www.w3.org/1999/xlink" width="600" height="660">
<defs>
  <radialGradient id="rg" gradientUnits="userSpaceOnUse" cx="220" cy="220" r="405">
    <stop style="stop-color:#fff;stop-opacity:.3" offset="0"/>
    <stop style="stop-color:#fff;stop-opacity:.2" offset=".2"/>
    <stop style="stop-color:#666;stop-opacity:.1" offset=".6"/>
    <stop style="stop-color:#000;stop-opacity:.13" offset="1"/>
  </radialGradient>
  <path id="shield" d="m2,2v257c0,286 298,398 298,398c0,0 298-112 298-398V2z"/>
</defs>
<use xlink:href="#shield" fill="#0aa"/>
<path fill="#ddd" d="m 255.86841,34.368208 c 9.42295,1.327177 16.79798,6.661633 26.28729,12.368488 3.0525,1.858046 5.90593,3.185222 6.4368,2.986145 0.53087,-0.199076 1.1281,-1.791686 1.39353,-3.716091 0.26544,-1.791687 0.86267,-3.84881 1.32718,-4.446039 1.32718,-1.858046 2.58799,-0.331794 5.04326,5.905932 1.12811,2.986146 2.38892,5.839573 2.72071,6.237726 1.19446,1.459893 2.78708,0.929023 4.71148,-1.459893 1.92441,-2.455275 3.19631,-1.81199 3.8599,-0.0203 0.19908,0.530871 0.0663,2.654352 -0.3318,4.777832 -1.19445,6.237726 2.37783,5.793517 7.81925,1.612914 4.71148,-3.649733 6.50317,-4.379679 8.29485,-3.450656 1.85805,0.995381 -0.68013,1.29033 -3.06904,6.79811 -2.05713,4.777833 -1.09126,8.228489 0.8995,5.44142 0.53087,-0.729947 5.18332,-1.564977 7.70495,-2.759436 2.52163,-1.260817 6.4368,-3.317939 8.75936,-4.645115 2.32256,-1.260817 4.4092,-5.258886 6.0018,-5.856116 2.91979,-0.995381 18.71318,-3.317938 20.04036,-2.853426 0.39815,0.132716 -1.79169,1.924404 -4.77783,4.047885 -6.56953,4.512397 -19.1777,16.058827 -19.1777,17.51872 0,0.862664 0.72995,0.995381 5.30871,0.597229 6.03865,-0.530871 5.90593,-0.729947 4.57875,5.574139 -0.46451,2.189835 -0.53086,3.649732 -0.13271,4.047878 0.39815,0.398157 2.45528,0.265438 5.57413,-0.398146 2.72071,-0.530875 5.10963,-0.995386 5.37507,-0.995386 0.99538,0 0.53087,5.242349 -0.86267,9.688385 -1.32717,4.180597 -1.32717,4.578754 -0.26543,5.308703 1.32717,0.995376 2.85343,0.530865 12.93996,-4.114244 5.9723,-2.787076 7.49855,-3.251587 10.75012,-3.118868 2.05713,0.06633 4.5124,0.530876 5.50779,1.061741 l 1.85804,0.929022 -4.31332,4.645119 c -5.10962,5.57414 -10.28561,13.00633 -11.08192,15.99246 -1.45989,4.97692 3.45066,5.83958 19.974,3.7161 9.02479,-1.19446 15.12981,-0.99538 18.11594,0.59723 2.32257,1.19446 10.28562,8.62663 10.28562,9.62202 0,0.33179 -3.84881,0.7963 -8.56028,0.99539 -9.88746,0.39814 -17.05422,2.12348 -22.96015,5.37506 -5.57413,3.0525 -5.44141,3.71608 0.59723,3.71608 5.04328,0 7.96306,0.79632 10.61741,2.9198 1.26082,0.99537 1.26082,1.06174 0,2.45527 -1.9244,2.12348 -5.6405,3.78245 -10.21925,4.5124 -2.32256,0.39815 -4.31332,0.7963 -4.44604,0.99538 -0.13272,0.13272 1.9244,0.59723 4.57876,0.99538 6.9013,1.1281 16.58969,3.98153 21.30116,6.37045 4.24697,2.12348 4.44604,2.38891 5.30871,8.56028 l 0.39815,2.52164 -2.12348,-0.46452 c -3.31794,-0.72994 -20.43851,-1.1281 -23.22557,-0.53087 -4.24697,0.92902 -3.05251,1.85804 3.51701,2.65436 8.22849,0.99537 12.87361,1.92439 15.06344,3.0525 l 1.72533,0.92902 -3.58337,1.72532 c -1.99076,0.99539 -6.56952,2.38892 -10.21925,3.11887 -15.52797,3.18522 -17.45236,4.9769 -4.44605,4.31332 10.68377,-0.53087 14.93074,-0.13272 14.59893,1.52625 -0.33179,1.85804 -6.90131,5.04327 -13.73626,6.7686 -4.18061,1.06174 -2.58799,1.85805 4.24696,2.12348 6.17137,0.19908 10.81648,1.79168 12.74089,4.37967 1.52625,1.92441 0.59723,10.68378 -1.19446,11.81187 -0.39816,0.19908 -1.19446,-0.0663 -1.79169,-0.59723 -0.59723,-0.59723 -3.31794,-2.05712 -6.03865,-3.38429 -5.10962,-2.45528 -5.17598,-2.45528 -12.47545,-1.32718 -3.11886,0.46451 -5.83957,3.0525 -8.16212,7.83034 -1.12811,2.2562 -3.45066,5.83957 -5.176,7.96305 -1.72532,2.12348 -3.71609,4.57875 -4.37967,5.44142 -1.26082,1.52625 -1.26082,1.59262 0.13271,4.37968 0.72995,1.59261 1.52626,3.3843 1.72533,3.98153 1.19446,4.11424 21.50024,2.72071 37.49272,-2.588 6.37044,-2.12348 15.79339,-6.76859 20.04035,-9.88745 l 3.25158,-2.38892 0,2.58799 c 0,6.37044 -4.97691,17.18693 -9.95381,21.63297 l -3.18522,2.85343 3.25157,6.23772 c 4.04789,7.76398 4.31332,10.75013 1.19446,13.86899 -1.1281,1.19446 -1.92441,2.52164 -1.65897,3.0525 0.19907,0.53088 1.92441,1.85804 3.84881,2.91978 5.97229,3.38431 5.70686,3.05251 3.25158,4.31333 -1.19446,0.66359 -4.44604,1.32718 -7.10039,1.52625 -2.91978,0.26544 -5.24235,0.72995 -5.64049,1.26082 -1.65898,1.99076 1.79168,6.37044 7.76397,9.95382 0.99538,0.59723 0.26544,0.86266 -4.04789,1.52625 -2.91978,0.39815 -7.16674,0.7963 -9.42294,0.86266 l -4.11425,0.13272 1.39353,2.52164 c 1.65897,2.98614 4.77784,6.23772 7.36583,7.83033 l 1.85805,1.19446 -2.05712,0.26543 c -1.1281,0.19908 -3.45066,0.0663 -5.17599,-0.19907 -4.9769,-0.7963 -11.01556,-0.66359 -12.34273,0.26544 -2.05712,1.52625 -0.3318,4.9769 4.84419,9.95381 l 4.5124,4.37968 -2.91979,0.46451 c -5.50778,0.79631 -12.47546,-0.0663 -16.19154,-1.99076 -1.92441,-0.92902 -3.58338,-1.65897 -3.7161,-1.52625 -0.92902,0.99537 2.65436,10.61741 4.97691,13.27175 0.53088,0.59723 0.7963,1.32718 0.53088,1.65897 -0.26544,0.26544 -3.84882,0.46451 -7.8967,0.46451 -5.77321,0 -7.96306,-0.26544 -9.68838,-1.19446 -1.26082,-0.59723 -2.38892,-1.12809 -2.52164,-1.12809 -0.0663,0 -0.19908,1.39353 -0.19908,3.11886 0,2.2562 0.46452,3.64973 1.72533,5.3087 l 1.65897,2.18985 -1.85804,0 c -4.31332,-0.0663 -14.53258,-3.3843 -18.18231,-6.03866 -2.38891,-1.65897 -2.588,-1.5926 -2.588,0.86267 0.0663,2.78707 1.52625,6.83496 3.05251,8.56028 1.39354,1.59262 1.06174,1.59262 -5.44141,-0.0663 -5.83958,-1.4599 -11.01557,-3.51703 -13.66993,-5.37507 -2.45527,-1.79169 -2.7207,-1.59261 -2.18983,1.19446 0.59723,3.31794 1.85804,5.24235 4.37968,6.56952 1.1281,0.53087 1.92441,1.19446 1.72533,1.32718 -0.53087,0.59722 -14.53257,-1.59261 -17.71779,-2.72072 -1.59262,-0.53086 -3.45066,-1.52625 -4.11425,-2.12348 -1.1281,-0.99537 -1.19446,-0.99537 -1.19446,0.59723 0,0.92902 0.72994,3.05251 1.65897,4.77784 0.92903,1.72533 1.65896,3.25158 1.65896,3.45065 0,0.53088 -3.64973,-0.59723 -7.89669,-2.45527 -2.32256,-1.06174 -5.04327,-1.9244 -6.03864,-1.9244 -2.2562,0 -4.91056,2.05712 -6.96768,5.30869 -1.1281,1.79169 -2.85343,3.11887 -6.17137,4.77784 l -3.54652,0.12539 -0.26544,-2.72072 c -0.33179,-2.45527 -12.37957,-29.05782 -13.44132,-30.18591 -0.46451,-0.46451 -13.80262,8.693 -26.67623,18.24866 -7.76398,5.77322 -25.6145,23.49102 -30.85683,30.65776 -14.39986,19.6422 -19.11134,33.1794 -19.1777,55.0778 0,12.07729 0.79631,18.5141 3.58338,30.12688 6.105,24.8182 20.30579,48.44192 36.43097,60.3865 10.61741,7.8967 23.15921,10.55104 46.51751,9.82111 28.26884,-0.86267 45.92028,-6.76861 58.99296,-19.57585 9.68839,-9.55566 16.64143,-22.03111 19.29579,-36.63006 0.39815,-2.3889 0.72995,-8.22848 0.72995,-12.93996 0,-16.19153 -2.87291,-27.40617 -10.83597,-35.96646 -6.90131,-7.36582 -14.65555,-12.19052 -24.0785,-13.65041 -8.95844,-1.39354 -19.9545,1.00999 -26.25859,6.7832 -4.37967,4.04789 -5.74398,7.52593 -2.29332,14.42725 3.0525,6.17137 2.73532,6.59875 0.81091,8.52315 -1.79169,1.79168 -4.14834,1.14271 -8.39531,-0.91442 -6.17137,-2.85342 -7.28183,-8.26745 -6.75095,-17.95584 0.53086,-8.69299 2.83092,-14.33349 11.98843,-18.97861 8.89208,-4.44603 13.40447,-5.3087 27.27346,-5.24234 11.48006,0 12.67452,0.13271 18.24867,1.85805 11.14827,3.38429 16.55743,7.89669 21.79978,15.19616 11.94458,16.85513 17.93149,44.62233 14.08268,63.33551 -2.98615,14.26714 -9.00716,30.89396 -20.08907,43.63485 -18.71318,21.63297 -42.75456,29.77259 -78.38922,29.77259 -26.41079,0 -45.12397,-5.04327 -63.70444,-17.12057 -20.70393,-13.40447 -32.74897,-28.84844 -44.09633,-56.91821 -3.0525,-7.69761 -4.24696,-12.47545 -4.77784,-19.11132 -0.19907,-3.25158 -0.72993,-5.90593 -1.32716,-6.56953 -2.65436,-3.0525 -3.58338,-11.7455 -1.92441,-17.38599 l 0.99537,-3.18522 -2.05711,-1.79169 c -3.64974,-3.25158 -3.25158,-10.28562 0.86266,-14.99709 l 1.9244,-2.18984 -2.18983,-2.18984 c -2.85343,-2.91979 -4.11425,-8.42756 -3.58338,-15.72703 0.33179,-5.04326 2.58799,-12.0773 3.84881,-12.0773 1.32717,0 0.46452,-1.79168 -1.45989,-2.91979 -2.98615,-1.79169 -4.57876,-4.77782 -4.57876,-8.75936 0,-8.0294 3.24155,-20.01705 5.69682,-20.94608 0.99537,-0.39814 1.19446,-2.18983 0.26544,-2.18983 -1.52625,0 -3.58338,-6.23773 -3.91517,-11.87822 -0.39816,-7.10039 0.99537,-12.54182 3.91517,-15.4616 l 1.92439,-1.99076 -2.05711,-4.24697 c -1.79169,-3.64973 -2.05713,-4.71147 -1.72534,-7.76397 0.72995,-7.03404 8.49393,-20.04036 14.33351,-23.88917 2.12348,-1.39354 2.72071,-2.18984 2.72071,-3.71609 0,-4.44605 3.10043,-10.05431 9.20544,-16.62383 6.37044,-6.7686 8.42756,-9.8211 9.75474,-14.59893 0.92902,-3.0525 1.92441,-4.64512 4.71147,-7.43218 3.25159,-3.25159 10.1529,-7.09118 14.26714,-8.15292 0.86267,-0.19908 1.32718,-0.86266 1.32718,-1.9244 0.0663,-4.24696 5.03405,-11.75933 9.67916,-13.88281 2.32257,-1.06174 2.92901,-2.00919 2.92901,-3.93359 0,-2.72071 1.56958,-4.61747 6.87829,-8.26721 5.04326,-3.38429 13.41828,-5.71607 25.69466,-6.77781 25.81356,-2.12348 36.74435,-5.33821 48.88801,-17.41552 7.36582,-7.29946 11.31783,-13.99521 13.97219,-23.68359 2.18984,-8.02942 1.91059,-16.35189 -0.0802,-22.19147 -1.39353,-4.11425 -7.21281,-12.33813 -8.00912,-12.33813 -0.26543,0 0.13272,2.18983 0.86267,4.77782 1.72533,6.30409 1.9244,16.65606 0.33179,21.69933 -2.18984,7.03404 -6.50316,12.27637 -12.54181,15.39524 -4.11424,2.12348 -6.10501,2.588 -13.13903,3.25158 -7.29947,0.66359 -12.21003,2.12348 -14.59894,4.31333 -3.58337,3.31793 -11.61279,3.71608 -19.31041,1.06174 -1.99076,-0.72995 -5.70685,-1.52627 -8.29484,-1.72534 l -4.77784,-0.46451 -6.17136,4.31333 c -6.37045,4.37967 -34.04667,19.22102 -38.89085,21.14541 -8.82573,3.51702 -17.40632,1.33639 -21.58693,-5.36584 -3.38429,-5.37506 -0.33179,-9.18242 14.06807,-22.18875 11.67915,-10.48469 14.46621,-14.61735 15.99246,-20.72236 0.6636,-2.58799 3.20192,-8.21183 5.25903,-12.45879 4.84419,-10.41834 4.91056,-12.21003 0.33179,-16.98785 -1.79168,-1.92441 -5.43319,-4.87006 -5.96405,-6.26359 -1.06174,-2.45528 -1.52625,-8.029418 -0.7963,-8.825721 0.39814,-0.331803 6.39783,2.005196 8.72038,2.867863 0.72995,0.265438 0.86267,-0.729948 0.66359,-5.308703 -0.13272,-3.583368 -1.42092,-7.844774 -0.95641,-9.105588 l 0.86266,-1.990774 2.38892,2.322566 c 2.45528,2.388908 5.13957,3.810073 5.93587,2.54926 0.95435,-1.087063 0.66358,-2.256201 0.99538,-4.246963 0.66359,-4.180598 3.08893,-10.71139 3.08893,-10.71139 0.26543,0.265435 0.86266,1.658969 1.32717,2.986145 0.39816,1.393534 2.43728,5.817392 2.83773,4.581478 0.0818,-0.252505 -0.094,-3.309146 0.17145,-5.233551 0.72994,-5.706856 0.83964,-8.43908 2.63132,-10.09805 1.45989,-1.393534 1.85805,-1.459894 2.32256,-0.663588 0.33179,0.530871 0.66358,1.725328 0.66358,2.654352 0,2.919786 1.85805,8.825718 4.31333,13.802625 4.77783,9.555666 9.83953,10.274526 19.12975,-2.001851 5.30871,-7.034033 6.92895,-10.597105 5.46906,-13.782327 -3.51703,-7.432183 -19.62191,-17.727007 -33.49089,-22.040328 -2.58799,-0.796306 -4.71148,-1.65897 -4.71148,-1.924405 0,-1.260817 3.31795,-4.246962 6.23773,-5.640497 3.31794,-1.526252 7.16675,-1.858046 12.67453,-1.128099 z"/>
<path fill="#0aa" d="m 266.98047,110.23047 c -3.64636,0.0262 -7.18844,0.74227 -10.27344,1.6582 -6.17001,1.83187 -12.55187,5.5342 -12.55187,5.5342 -3.29542,1.90262 -6.75429,7.65931 -4.52629,13.32903 l 0.004,-0.002 c 2.28449,5.77139 8.95569,8.65944 14.875,6.48242 5.92128,-2.17778 8.96982,-8.6935 6.6875,-14.46875 -1.28853,-3.26055 -4.02247,-5.44038 -7.18359,-6.46094 1.20974,-0.48031 2.1435,-0.96004 3.59375,-1.39062 5.75702,-1.70926 12.90842,-2.51314 18.80078,0.59375 l 1.47266,-2.79297 c -3.50133,-1.84617 -7.25209,-2.50865 -10.89844,-2.48242 z m -16.26563,8.50586 c 3.2806,0.11178 6.31411,2.07796 7.54297,5.1875 1.6385,4.14607 -0.47487,8.74104 -4.83789,10.3457 -4.35812,1.60285 -9.21355,-0.533 -10.84762,-4.67408 -1.63406,-4.14109 0.48072,-8.72538 4.83786,-10.32787 1.09075,-0.40116 2.21115,-0.56851 3.30468,-0.53125 z m -3.38657,8.26832 c 0,2.38669 1.38647,4.32149 3.09678,4.32149 1.71029,0 3.09676,-1.9348 3.09676,-4.32149 0,-2.38669 -1.38647,-4.32149 -3.09676,-4.32149 -1.66776,0 -3.03597,1.84306 -3.09484,4.16891 m 145.62999,39.39774 c -4.21388,-2.34217 16.23044,-1.97326 20.55246,-1.92796 2.92658,0.88236 5.61446,2.15773 6.51377,1.74116 0.89935,-0.41658 0.17603,-3.68555 -0.73588,-9.23936 -3.21755,-2.64061 -6.54916,-4.05707 -10.09631,-5.0909 -3.38135,-1.19961 -6.36529,-1.98625 -10.22366,-3.21689 -3.69909,-0.44179 -4.89671,-0.27283 -10.16098,-1.4209 6.17489,-0.98227 10.55887,-0.22901 16.69821,-6.69462 -2.48144,-1.49209 -3.45891,-3.38068 -6.44305,-4.09688 -2.98413,-0.63926 -4.03188,-0.53845 -6.48284,-0.53845 -4.69769,0 -6.0714,0.85874 -2.92778,-1.40721 3.1436,-2.26593 9.14669,-4.83826 15.88685,-6.06374 5.92316,-1.02124 14.91028,-1.05304 19.24175,-1.22747 -1.98811,-3.92911 -5.6871,-6.22624 -7.93382,-8.6772 -3.67644,-4.49345 -12.12485,-4.39264 -24.78817,-2.35017 -20.01622,2.45097 -21.2417,0 -8.57838,-15.93127 l 8.04905,-8.858829 -5.10619,-2.026695 -5.57507,-0.150952 c -5.31043,1.225481 -12.07358,5.317626 -16.15853,6.951608 -6.5359,2.859463 -6.18061,0.16674 -4.13814,-5.143596 1.63398,-4.493435 0.44872,-4.469413 1.08268,-9.44298 -3.26795,0 -11.88478,3.269575 -11.88478,1.227103 0,-2.450962 1.12981,-4.09185 1.76375,-9.728551 -2.85945,0 -9.27038,0.76795 -10.68058,0.463605 -1.41019,-0.304347 1.96204,-3.554087 5.3979,-6.633317 l 8.84231,-7.924529 12.48958,-8.421871 -18.53205,2.32099 c -5.71892,0 -14.76681,6.212288 -19.56668,8.714316 -2.39991,1.251014 -4.67684,1.638471 -6.11934,3.151163 -3.30025,1.22526 0.66549,4.495776 -1.726,1.48391 -1.21923,-2.191274 4.4288,-8.669641 3.66141,-12.054815 -4.04978,-7.722603 -13.12592,6.415942 -15.10076,4.131809 -3.77857,-0.408495 1.84955,-9.206997 -1.14705,-10.990743 -4.27697,-2.545867 -6.7118,6.198548 -9.0138,4.652211 -2.30201,-1.546336 -3.79332,-12.754064 -7.43196,-14.162107 -3.63864,-1.408061 -2.15649,11.438249 -4.60746,9.702148 -5.31043,-3.676448 -16.80439,-10.890254 -26.25802,-12.198809 -4.72681,-0.654278 -10.23367,-2.01345 -14.89663,-1.17327 -4.66297,0.840161 -9.06226,4.045486 -10.33062,7.961108 6.27953,1.831577 7.27145,2.000545 13.80735,4.860005 6.53591,2.450966 15.11429,8.57838 19.19923,12.663323 6.94441,7.761392 6.94441,8.578379 -0.81699,18.382243 -9.80386,13.480313 -14.70579,12.663322 -20.01622,-2.85946 -2.24671,-6.127415 -1.54644,-10.020049 -2.61276,-12.105617 -0.61605,0.44927 -2.85193,1.375382 -4.19752,3.478589 -1.17697,1.839654 -2.22677,9.972274 -2.21559,12.094903 -0.98314,-0.598129 -1.90135,-3.268939 -2.82046,-7.552819 -2.45693,4.733502 -3.15987,6.291871 -3.97686,8.538586 -0.81699,2.246723 -0.10811,8.209676 -2.55905,8.209676 -1.42973,0 -3.16583,-2.760321 -6.20914,-5.450088 -2.62887,4.936323 -2.2545,11.103694 -1.2041,15.779169 -2.05805,-0.671106 -6.27911,-2.108815 -8.32778,-2.300766 -0.63954,2.460562 -0.59874,5.420819 -0.10144,7.660269 1.49206,3.20296 1.9536,5.96162 5.22156,8.41258 4.90193,4.08495 4.90193,6.53591 0,15.93128 -3.26796,6.12741 -5.71892,13.07182 -5.71892,15.93127 0,2.45098 -7.3529,10.62086 -16.74827,18.38225 -11.43784,9.80386 -15.52278,15.93128 -13.8888,20.42472 4.08493,9.80386 16.74826,12.66332 28.1861,6.5359 5.31042,-2.85946 17.15676,-9.39537 26.55213,-14.70579 6.33166,-3.47221 10.50001,-7.25798 14.36201,-9.68595 6.20653,-0.0833 10.93442,0.48763 16.27506,3.15004 8.16989,1.22548 14.70579,0.40849 16.33978,-2.04247 1.63397,-2.45096 8.16987,-4.49344 14.29729,-4.49344 16.33978,0 27.03749,-10.80653 27.67679,-26.629 0.24584,-6.87609 -0.68224,-11.22059 -2.96443,-18.9623 9.01768,14.24178 9.54809,20.80851 6.30931,33.37379 -3.90192,17.53873 -22.03473,39.99531 -62.06718,40.4038 -7.55714,0.20425 -13.88749,2.34752 -21.03486,3.77924 -4.56838,2.70528 -14.31455,7.88524 -12.33524,14.37962 -7.41196,1.97699 -12.49935,9.6612 -12.60678,15.96633 -18.19922,5.44571 -20.6078,16.11961 -20.6078,18.16209 0,2.04246 -4.49343,8.16987 -10.21236,13.4803 -5.71891,5.31042 -9.50898,13.89601 -8.80563,18.63105 -6.33029,3.26796 -8.60001,8.04185 -12.45049,13.23144 -3.26436,6.62653 -8.69921,14.87262 -0.68185,24.78427 -8.39453,3.11254 -8.02594,26.88153 -1.32457,30.32364 -4.93077,3.3888 -5.98943,11.65787 -7.04088,22.91449 -0.0464,3.78754 1.17845,7.17785 7.19281,10.17456 -1.60294,0.80777 -2.87723,3.02701 -3.74957,5.92871 -0.87236,2.90173 -1.34276,6.48591 -1.33794,10.02363 0.006,3.53774 0.48491,7.02898 1.5135,9.74482 1.02858,2.71584 2.60571,4.65624 4.80464,5.09227 -7.49529,4.89501 -7.31477,17.84253 -0.85318,19.17696 -3.62,6.60977 -2.48291,19.60104 2.13372,22.15096 -1.0103,13.33488 4.27245,22.79325 7.06807,29.83977 5.59127,14.09306 12.95692,26.04151 22.19275,36.07524 9.23579,10.03365 20.34172,18.15247 33.41354,24.58617 28.5946,13.8888 77.20542,13.4803 104.98303,-0.81699 24.50965,-12.66333 44.52587,-40.03245 48.61082,-66.58457 3.67645,-23.69268 -7.76139,-58.41468 -22.46719,-69.44404 -23.28417,-17.15675 -68.62704,-11.43784 -75.16295,9.39537 -3.26795,10.62085 0.817,23.28418 8.57838,26.14364 10.21236,3.67644 14.29731,-1.22548 8.57838,-10.21236 -4.08494,-6.9444 -3.67644,-8.98687 2.85947,-14.29729 19.60772,-14.29731 49.01931,-1.63399 55.96371,23.69266 8.57838,32.67954 -4.90193,65.76758 -32.27105,79.24789 -22.87567,11.43784 -69.03553,12.25484 -85.3753,2.04247 -31.86256,-20.01622 -51.87877,-74.34595 -42.07491,-115.19539 5.31042,-22.46718 27.36912,-50.24479 55.96372,-69.44403 l 17.97374,-12.66331 6.53591,16.74826 c 3.47221,8.78263 6.53591,13.65936 5.70964,19.20852 5.30777,-3.23745 7.22292,-2.65256 10.88477,-6.10089 1.63398,-3.67644 4.64729,-7.79721 9.14073,-6.57172 1.02124,0.30637 7.2131,3.95153 13.37815,4.79095 -2.12419,-4.96304 -4.27519,-5.10569 -4.0243,-10.05395 3.30505,4.21423 12.77456,4.73812 25.05239,6.0371 -9.60579,-5.4982 -7.78246,-6.57405 -8.49638,-11.19597 3.67645,4.15878 12.8533,6.75101 23.46354,8.66018 -5.47089,-5.71693 -4.5348,-7.47492 -5.07179,-12.67967 5.38047,5.29393 18.48689,8.25173 23.3475,7.93997 -4.25761,-4.95376 -4.32719,-4.8878 -4.24405,-11.01427 4.77861,3.75095 13.60808,3.22257 21.50517,1.82486 -4.86839,-5.21077 -6.35882,-10.95933 -6.6363,-15.32775 6.40216,5.95147 16.88775,4.66934 23.7376,3.53273 -5.36545,-4.76003 -8.6175,-7.44044 -10.28397,-10.42723 -1.94167,-3.75337 -0.63329,-4.97885 5.90261,-4.97885 4.49344,0 7.60275,2.88102 14.23413,0.34118 -9.61553,-3.80111 -12.22768,-16.08914 -14.38609,-16.33702 -8.60184,-0.98785 11.96759,15.65625 -6.44701,12.15128 -4.59964,-0.66061 -6.69133,-0.5801 -10.10298,-0.38488 2.39084,3.51096 2.79855,3.65515 4.85561,6.27191 2.31171,3.40722 2.77192,7.8476 8.24151,10.71965 -4.64265,0.0269 -8.43786,0.45084 -11.51219,-1.98911 -3.07433,-2.43995 -3.10676,-3.43342 -9.5883,-8.09929 -0.88331,4.88603 -0.44712,5.86381 0.0319,9.10142 0.82922,5.60473 1.91117,7.07921 3.59756,11.5103 -7.03613,1.63173 -11.36177,-0.58753 -12.59107,-3.62452 -1.83711,-1.9186 -4.46299,-6.80598 -8.06992,-7.79456 -1.46496,4.40343 0.0943,4.57421 0.63281,8.30371 1.53318,4.19437 1.91516,7.18115 3.22915,11.11704 -7.14102,-2.03235 -11.52635,-4.60766 -16.04632,-10.04541 -7.7614,-6.53591 -7.7614,-6.53591 -5.31043,2.04247 1.0093,5.71892 0.76526,6.99745 2.84089,11.93322 -6.87676,-1.1983 -13.2575,-4.37607 -16.72969,-9.89074 -4.08495,-6.12742 -4.49345,-5.71892 -2.85946,2.04247 0.23078,5.22156 -0.67642,6.06639 0.60876,11.11687 -6.24255,-1.32038 -10.82113,-3.76397 -14.08908,-9.0744 -4.08494,-6.12742 -4.49343,-5.71893 -2.85945,2.04247 1.02123,4.90193 -0.85414,5.91257 2.03914,11.02735 -7.05381,-3.00867 -7.34958,-2.24473 -9.80054,-6.12542 -1.63397,-3.26796 -4.32764,1.0955 -7.59559,7.22292 -2.65521,4.69768 -4.81175,5.05711 -6.7899,5.2859 -0.48609,-3.58428 -1.95428,-5.97291 -5.22223,-13.7343 -3.67645,-8.98687 -6.12742,-16.33977 -5.71893,-17.15676 0.81699,-0.40849 11.02936,-5.71892 22.46719,-11.84633 11.84634,-5.71893 21.6502,-12.25484 21.6502,-14.7058 0,-2.04247 2.04247,-3.67645 4.90194,-3.67645 6.5359,0 23.69266,-16.33977 23.69266,-22.46719 0,-2.85945 3.67644,-9.80386 8.16989,-15.11428 6.1274,-8.16989 13.07181,-11.02934 31.45405,-13.07182 12.99489,-2.29712 23.89951,-5.71892 30.63707,-9.39537 3.3714,-1.76395 3.83296,-3.25602 6.42186,-4.26134 0.1021,2.1446 -1.31567,8.75478 -6.01336,13.24821 -2.65521,2.85947 -5.37444,3.4801 -7.79092,4.97238 2.27265,2.3129 3.91023,6.66972 5.74845,9.73342 4.08495,6.5359 4.08495,8.57838 -1.63398,10.62085 -5.31043,2.04247 -5.31043,3.26795 -0.81699,6.12742 1.83823,1.42973 4.60616,2.4125 6.54388,3.66252 -3.03586,0.75267 -5.40992,0.94365 -11.20311,-0.53649 -7.35289,-4.45232 -7.91522,-3.13798 -4.73613,1.3674 2.60481,3.93109 4.36611,8.32109 8.1533,11.37087 -4.33628,0.23142 -6.31508,-0.54577 -10.19577,-1.9755 -4.08495,-1.63398 -7.54255,-2.72949 -4.73614,3.61146 2.66702,4.43209 1.19458,-2.38396 3.72571,3.46409 4.36132,0.84236 14.26621,-0.1974 21.50889,-1.94874 -6.51755,-3.57498 -8.90021,-6.36949 -9.71721,-8.20771 -1.22548,-3.67645 2.29064,-3.45501 5.55859,-3.45501 1.42973,0 6.15554,0.57133 9.68701,-3.34683 -2.93415,-1.59718 -7.39423,-3.04185 -10.0788,-6.41074 8.37461,-4.8289 3.50869,-12.14647 1.55685,-15.62227 -1.6158,-2.77797 -1.74813,-4.2494 -3.62525,-7.13285 2.5775,-0.18721 6.34088,-5.06879 8.17911,-8.33674 3.88069,-6.9444 5.56506,-13.54265 5.00272,-19.21984 -5.5359,4.26995 -7.68181,5.64795 -11.13014,7.36152 -5.85221,3.49873 -18.41342,7.90198 -29.51148,9.58038 -11.09814,1.6784 -20.73331,1.46089 -20.73331,-2.62404 0,-4.08494 -4.44136,-3.7459 -1.22924,-7.01188 6.01413,-6.11492 9.25142,-11.60685 11.12425,-17.01722 3.50112,-4.23817 7.92237,-4.55074 13.78246,-4.61246 3.10937,1.66314 9.17412,3.11042 11.97299,7.15549 2.63307,-1.26008 3.98966,-9.37215 2.65629,-13.23335 -0.57266,-1.65832 -7.33793,-4.83523 -11.15273,-4.96913 -3.81479,-0.13387 -5.83961,0.95161 -9.19942,-0.47115 3.95459,-1.13933 6.1165,-1.07262 10.23686,-3.12608 3.66407,-1.82607 7.21512,-2.91145 6.73558,-5.23701 -0.59334,-2.87745 -20.85735,-0.91518 -23.71681,-0.81306 -2.34884,0.10211 4.42949,-2.71051 9.42485,-3.34234 3.27724,-1.1746 10.58298,-0.71563 17.97352,-6.2003 -5.45339,-3.50476 -8.32637,-2.03035 -12.79806,-3.67983 m -16.83132,0.67083 c 1.64473,3.46458 21.34086,2.52162 15.86364,3.95288 0,0 -15.21275,2.80322 -20.24776,7.12523 -0.89045,3.82466 4.41796,5.52086 4.41796,5.52086 l 19.29243,-2.05571 c 0.20691,2.64061 -18.75359,3.63666 -18.10109,7.60423 0.21148,1.2858 -1.04958,3.70971 5.25999,2.99057 5.7458,0.26296 12.79534,-0.32143 17.06131,1.8855 3.09951,1.54512 3.47315,4.98178 2.49937,7.92319 -2.80624,-2.2866 -7.27132,-4.16982 -9.72229,-4.98681 -5.2335,-0.67773 -9.01937,0.39689 -12.55588,1.91017 -3.53653,1.51329 -5.99479,3.13368 -9.07044,9.18417 -2.04247,5.31042 -8.57838,11.43784 -14.70579,13.8888 -6.53591,2.04248 -16.97837,7.63734 -21.65019,13.88881 -5.17903,6.93014 -9.04394,12.54616 -21.51874,19.7533 -12.25484,11.02934 -1.67104,7.10834 -6.91997,7.9142 -14.06604,2.15963 -21.80599,5.42044 -24.25695,8.6884 -2.85946,3.26795 -9.39537,6.9444 -14.70579,8.16988 -5.71892,1.63398 -10.21236,4.49344 -10.21236,6.53591 0,2.45096 -2.85946,4.08495 -6.53591,4.08495 -8.98687,0 -49.01931,42.07491 -56.37221,58.82317 -13.8888,31.45406 -16.33977,42.8919 -16.33977,73.52897 0.40849,20.42471 2.85946,38.80696 6.53591,47.38534 8.16988,19.19923 43.00906,57.77539 52.40443,57.77539 1.66058,0.46891 0.9901,0.29796 2.95903,0.61675 0.90334,1.34782 1.41927,1.47904 4.61102,2.96919 4.63837,2.31864 10.5846,3.45076 17.83635,3.6577 7.25173,0.20696 15.80897,-0.51123 25.6694,-1.89324 9.86043,-1.38201 19.52937,-3.42783 26.73317,-5.81746 7.20384,-2.38965 9.85374,-3.68295 11.94255,-5.88759 0.62405,-0.65866 2.28234,-1.51585 2.00562,-4.38569 1.48168,1.35039 4.92642,1.03082 9.04176,-2.69397 3.34273,-3.0255 6.55889,-4.43371 4.8839,-7.47441 4.42084,-0.46169 5.17389,-2.33889 8.65683,-7.23499 2.29047,-3.21983 4.8947,-6.067 3.77924,-10.62085 3.04432,0.60416 4.55386,-3.65483 6.29785,-7.69016 1.52885,-3.5375 4.25537,-8.35474 0.86298,-10.09873 3.90052,0.096 3.16785,-4.67109 3.64207,-7.98796 0.47422,-3.31689 1.45195,-8.46588 -2.48059,-9.36807 4.02812,-1.2715 2.30463,-5.43181 1.69798,-9.16453 -0.85097,-5.23605 -1.3319,-8.06708 -4.67467,-8.75964 2.9875,-1.3355 1.1665,-6.24778 -0.80257,-12.95099 -1.57869,-5.37414 -5.19681,-7.33486 -9.3602,-6.44303 3.98215,-3.0371 -3.28955,-7.99183 -4.85232,-9.29617 -4.34186,-3.6238 -9.27815,-4.96956 -10.24754,-2.61418 0.41795,-4.41004 -14.98015,-4.79892 -20.87128,-4.13421 -5.89115,0.6647 -11.06744,3.32082 -16.58211,7.81425 -8.57838,6.94441 -8.98688,8.98688 -4.49344,16.33978 5.31043,9.39537 1.22548,11.43784 -6.5359,3.67644 -8.16989,-8.16987 -5.71893,-18.38223 6.1274,-27.7776 8.98688,-7.3529 15.1143,-8.57838 30.63707,-7.3529 27.36912,2.85946 38.39847,11.43784 46.15986,36.76449 12.25482,42.07491 -4.49343,83.74132 -41.25792,101.71507 -16.33978,7.76139 -26.14364,9.80386 -52.69577,9.80386 -38.80696,-0.40849 -62.90811,-9.80386 -85.37531,-34.72201 -13.8888,-15.11429 -29.41158,-54.59971 -24.50965,-61.95261 7.97429,-3.39225 0,-3.40652 -2.45096,-3.40652 -3.26796,0 -4.49344,-16.9255 1.59121,-20.00192 -12.14074,0.0459 -5.71231,-15.12617 1.59828,-18.11226 -6.54546,-0.15616 -9.78311,-6.55529 -9.97733,-13.3248 -0.1942,-6.7695 2.655,-13.90936 8.28326,-15.54689 4.24262,-1.2344 0.33538,-2.36228 -3.64795,-3.26795 -4.74912,-1.07982 -6.57529,-1.79018 -5.98915,-10.25132 0.70337,-5.54488 2.65557,-14.81457 6.67431,-16.52259 4.13797,-1.75869 10.58091,-2.27014 14.17396,-2.59164 -4.36268,-1.40672 -8.52244,-2.22371 -11.8896,-2.50416 -7.3529,-3.0637 -9.83227,-17.93427 -3.22097,-22.09805 6.61132,-4.16386 23.25113,4.02022 24.12623,0.6436 -3.24358,-3.55065 -13.29498,-4.42444 -17.75821,-7.6694 -5.46283,-5.37084 -10.50001,-10.50002 -1.51314,-23.1633 4.49345,-6.94441 3.77888,-8.66574 8.98129,-10.58477 6.89667,-0.27852 21.68696,9.00544 33.00263,8.64468 -5.18308,-4.31305 -22.80884,-7.77524 -28.43288,-11.85354 -5.62409,-4.07831 -1.35668,-10.41394 4.42266,-17.66043 6.9444,-6.12742 9.80387,-6.53591 18.79074,-2.45097 6.12741,2.45097 15.82518,5.00274 26.3347,6.76138 -4.07966,-4.20961 -22.65825,-8.80385 -26.74319,-12.0718 -7.7614,-5.71893 -7.7614,-8.11684 -0.4085,-16.28672 l 11.00017,-4.52262 12.284,6.51203 c 8.98688,4.08495 22.89425,8.93383 22.89425,7.70835 0,-0.81699 -12.68189,-6.48287 -19.2178,-10.15931 -6.9444,-3.67644 -11.17501,-8.98687 -11.17501,-11.84633 0,-10.21236 9.42389,-11.56925 23.86684,-1.50258 7.35289,4.2892 25.70858,9.88666 26.80502,7.82169 1.35971,-2.56067 -12.30821,-5.0671 -19.07222,-8.36158 -6.71363,-3.83031 -19.32383,-10.11156 -19.32383,-13.37951 1.65784,-5.54121 9.11154,-9.49618 41.38251,-13.17262 24.10116,-2.85946 36.76449,-10.62085 47.38534,-28.18611 13.07182,-21.2417 10.62085,-39.62394 -6.9444,-56.37221 l -14.70579,-13.888804 8.57837,13.071814 c 15.93128,22.87568 8.16989,50.2448 -14.2973,50.2448 -5.31043,0 -13.07181,2.04247 -17.15676,4.90193 -5.71891,3.26795 -10.6976,2.5622 -15.4989,1.14856 l -7.80738,-2.29873 -2.70624,-0.584 11.30673,-7.6612 c 12.66332,-6.12741 17.97374,-17.97375 11.02935,-24.91815 -2.45098,-2.45096 -3.26796,0 -2.04247,6.53591 1.63397,7.76139 0,11.43784 -5.71893,13.48031 -4.08493,2.04247 -12.25482,6.53591 -17.56525,10.62085 -17.56526,12.66333 -41.25792,27.36912 -43.70888,27.36912 -1.2255,0 0.81698,-4.08494 5.31042,-9.39537 4.49344,-4.90193 2.04246,-4.08494 -5.31042,2.85945 -11.02936,9.80388 -14.29731,11.02936 -19.60773,6.53592 -8.98687,-7.3529 -7.76139,-10.62085 7.76138,-20.42472 9.39537,-5.31043 15.93128,-13.8888 19.19923,-23.69266 2.45098,-8.16989 6.53592,-17.15676 8.16989,-19.60773 2.45097,-2.85946 1.22548,-6.53591 -2.45096,-9.80386 -3.4722,-2.85947 -6.94309,-9.50082 -6.57372,-11.93255 1.61276,0.30372 2.83824,0.75533 4.53125,1.7202 2.04247,1.22548 4.08494,-0.40851 4.08494,-4.084949 0,-1.838233 -1.41514,-8.802518 -1.03184,-10.512098 0.96353,1.771912 3.8913,5.814413 5.11679,6.427153 2.04247,1.225482 4.49343,0 4.49343,-2.859463 0.61274,-5.923166 1.37352,-7.656112 1.88041,-10.443133 0.83847,1.523407 5.07029,7.629424 6.98843,9.094977 -1.63133,-4.5087 -0.34219,-18.980876 0.35858,-20.325751 0.12051,3.877298 2.30524,10.768985 2.96242,13.261391 4.33693,6.115483 5.392,7.451706 10.27402,8.93117 4.13601,0.153185 6.13074,-1.539818 11.84966,-8.279975 5.71892,-6.944398 9.21766,-12.148057 9.54922,-15.68857 0,-3.676449 -12.11823,-18.21645 -26.46931,-23.686727 -6.08033,-2.208265 -6.90462,-2.834264 -10.63413,-3.829634 1.01517,-0.228886 2.50657,-1.647847 6.94027,-2.475587 2.32267,-0.433635 11.72681,-0.401122 17.79686,2.480897 5.42847,1.740743 17.97457,7.099687 23.69341,12.818607 3.10112,0.522111 -0.41824,-9.912783 3.20196,-8.406553 3.62019,1.506249 2.18827,12.374611 5.24409,14.004633 4.58193,2.444096 5.32192,-5.580923 7.36439,-5.580923 2.04248,0.204247 -1.64592,9.520238 2.14744,11.691088 2.48294,1.420947 11.08263,-9.13371 12.10387,-7.499732 0.75296,1.275077 -6.63956,10.003133 -4.6467,11.299842 2.46179,1.939661 2.22372,4.536719 7.66938,2.380631 4.46263,-2.251101 24.17507,-14.626621 29.25229,-14.272419 -4.71174,3.091002 -8.37329,6.846234 -13.48309,11.513708 -8.16988,8.57838 -10.47893,9.647224 -3.94302,10.641926 6.07171,-0.994702 7.57221,-2.830364 10.56824,-0.803972 1.49803,1.013196 -1.3702,8.746848 0.65933,9.984162 2.02954,1.237325 8.99701,-1.482897 9.77571,-0.678683 3.11477,3.216899 -2.42592,7.527771 -0.5877,12.225456 2.45096,6.944408 3.67644,6.944408 11.84633,1.225478 6.53591,-4.697682 14.88939,-8.058878 15.14021,-6.280599 0.32938,2.335199 -1.6599,3.421139 -5.33635,8.731579 -11.84633,16.74825 -8.57838,20.01621 14.70579,17.56524 0,0 18.96045,-5.53077 24.63963,3.13683 -5.60969,-1.0526 -19.0492,1.62087 -22.63336,3.17549 -1.9414,0.84209 -6.14533,3.35994 -9.77521,6.24521 -1.81494,1.44265 -0.76502,2.57609 0.33413,5.76561 4.24905,1.53169 8.8789,2.46692 13.8922,2.18683 -15.16115,6.10375 -13.80389,1.05818 -19.30062,4.12324 3.94827,6.51286 7.09046,6.03109 20.59424,7.92151 3.34447,1.59814 6.57665,2.3543 10.2531,3.37554 3.77857,1.02123 6.11598,3.95152 5.18302,4.28564 -0.93297,0.33409 -4.63892,-0.60172 -8.80244,-1.01287 -4.88266,0.0631 -2.35469,0.021 -13.29743,1.14722 -5.11529,1.24824 -7.40579,5.00371 -6.41588,7.05183 z"/>
<path fill="#ddd" d="m 356.52251,416.22231 c 1.17729,0.0451 2.54405,0.37569 2.16196,-1.09029 -0.34089,-1.30785 -1.61029,-1.95253 -4.03084,-3.86861 -1.2367,-0.97896 -3.41199,-2.76987 -4.63056,-3.37323 -1.40481,-0.6956 -4.16294,-1.56731 -3.2182,0.69475 0.39547,0.94687 1.64585,1.34122 3.87789,2.86403 2.37685,1.62159 5.03975,4.74267 5.83975,4.77335 z m 10.85852,19.81197 c 0.39713,1.10921 2.16819,0.0578 2.49352,-1.42186 0.48804,-2.21968 -1.05224,-4.66476 -1.70985,-7.3501 -0.55202,-2.25415 -1.56759,-4.93531 -3.38717,-6.44026 -1.32757,-1.09801 -3.72836,-1.70299 -3.2182,0.69476 0.39547,1.85869 3.05503,5.40295 3.96078,8.41783 0.82789,2.75564 1.22669,4.32821 1.86092,6.09963 z m 2.90031,17.32387 c 0.39713,1.10921 2.02488,0.73987 2.99088,-0.42715 1.15117,-1.39076 -0.21469,-3.84072 -0.30067,-6.60405 -0.0546,-1.7568 -0.54452,-3.52643 -1.48064,-5.69423 -0.58155,-1.34669 -2.68193,-1.50767 -2.72086,0.94342 -0.0189,1.19555 0.31959,2.75039 0.6451,5.3508 0.35737,2.85504 0.23196,4.6598 0.86619,6.43121 z m -1.49101,17.15862 c 0.68317,1.31355 1.94201,1.15433 3.9856,0.23598 1.64674,-0.74003 1.02869,-3.34336 1.27428,-6.60405 0.13202,-1.75269 0.48976,-3.3819 0.0111,-5.69423 -0.41575,-2.00983 -4.20791,-2.73821 -4.46159,-0.29997 -0.18475,1.7758 0.0776,2.811 -0.26672,5.84816 -0.55678,4.91034 -1.07619,5.48888 -0.54299,6.51411 z m -5.72077,18.15385 c 1.74477,0.55079 1.55603,0.89772 2.99088,-0.34425 1.16363,-1.00719 2.32719,-3.62625 3.67818,-6.60405 0.79515,-1.75267 2.56206,-4.3766 1.91793,-6.10869 -0.71538,-1.92366 -3.2276,-3.24285 -3.88134,-0.88021 -1.17947,4.26257 -1.56753,4.31876 -3.58242,9.32964 -0.77642,1.9309 -1.81875,4.388 -1.12323,4.60756 z m -10.60972,17.07507 c 1.74478,0.55078 1.30736,0.89771 2.74221,-0.34426 1.16363,-1.00719 1.9732,-2.70482 4.09264,-5.19487 1.20962,-1.42112 3.62885,-5.51521 3.74156,-6.44026 0.32311,-2.65221 -1.15528,-4.40335 -2.30638,-2.20651 -2.0527,3.91754 -4.67839,8.0134 -8.30729,11.31906 -2.0563,1.87315 -0.65825,2.64727 0.0373,2.86684 z m -14.75406,10.11394 c 1.49609,1.13103 1.60861,1.65787 3.48824,1.3965 3.07015,-0.42695 3.46526,-1.29566 6.41362,-3.7028 1.44563,-1.18023 3.6911,-3.46732 3.24421,-4.28507 -0.5887,-1.07725 -1.58233,-4.316 -2.88663,-2.2065 -1.14088,1.84523 -6.00468,4.69771 -8.88754,6.67708 -2.29308,1.57445 -1.9537,1.68096 -1.3719,2.12079 z m -42.60781,13.84239 c 0.255,1.25441 0.20379,0.8459 0.58701,2.63988 9.85549,-1.71423 10.05166,-1.50092 21.97606,-3.95891 8.98787,-2.55462 11.95364,-4.49382 17.51171,-7.45288 0.40455,-1.9623 0.29253,-1.72659 -0.15429,-2.54435 -0.5887,-1.07725 -0.14464,-0.73235 -1.47747,-1.54336 -6.60807,3.9679 -13.68716,5.13141 -17.47956,6.40383 -9.04431,1.86278 -13.51921,2.3595 -21.16632,3.1745 0.0904,1.72929 0.10955,2.12627 0.20304,3.28129 z m -41.52902,-3.97911 c -0.73971,1.17153 -0.45935,1.50906 -1.15376,2.88856 4.21882,2.51328 5.16102,2.72658 15.51039,4.74481 12.71805,0.42951 18.0759,0.12552 24.04842,-0.67827 -0.21592,-1.59049 -0.23516,-1.73751 -0.30592,-3.24179 -0.0669,-1.42157 0.11809,-0.9585 0.006,-2.48119 -11.89307,0.78955 -15.50492,-0.008 -20.20914,-0.31048 -8.46405,-0.78978 -14.84548,-2.77982 -16.85594,-3.29111 -0.90439,1.6464 -0.80219,1.21446 -1.04034,2.36947 z m -29.36517,-23.03535 c -1.34596,0.8684 -0.68792,0.56289 -2.74637,1.87374 3.22408,3.83955 5.53018,6.03882 11.54539,11.99625 4.54445,3.33277 5.90375,6.24112 15.2058,9.99248 1.10789,-1.24471 1.15473,-1.40777 1.69283,-2.2044 0.51907,-0.76844 0.73865,-0.96439 1.3218,-2.45867 -4.72206,-1.45401 -10.30752,-4.74861 -13.8551,-8.3134 -5.87124,-5.04779 -7.3462,-7.32327 -11.25484,-12.26319 -0.90439,0.59135 -1.31968,0.80831 -1.90951,1.37719 z m -24.70276,-49.23842 c -1.05289,-0.24527 -3.67205,0.0655 -5.89628,-0.11569 2.39517,13.45508 4.3697,18.47272 8.89283,26.75118 5.37337,7.80897 10.61613,15.12485 17.52507,22.55372 0.85333,-0.59161 1.43623,-1.37223 2.2488,-2.15585 0.78272,-0.75484 1.44202,-0.98449 2.37511,-1.83573 -7.87197,-10.40642 -9.26251,-13.50507 -13.97059,-23.03816 -3.88183,-9.52399 -4.52787,-12.13104 -7.11022,-22.54183 -2.07667,0.82581 -2.30261,0.86867 -4.06472,0.38248 z m -3.64674,-41.77783 c -1.0529,-0.24526 -2.17998,-0.43181 -4.40422,-0.61304 -0.42318,7.65261 -0.43805,9.52032 -0.22534,17.1356 0.5656,7.97475 0.66902,14.46171 1.94128,22.5537 1.43945,-0.41577 1.76872,-0.85482 4.40399,-0.99534 2.63165,-0.14037 2.47524,-0.18402 5.19347,-0.013 -1.90372,-7.58806 -1.96796,-10.18935 -2.53142,-19.22504 -0.23457,-7.03721 -0.21746,-9.31269 0.3501,-17.23673 -2.07667,-0.66627 -2.96575,-1.12077 -4.72786,-1.60695 z m 7.37704,-30.25457 c -3.40822,-1.60586 -3.38315,-1.21633 -6.22785,-2.43667 -1.91526,3.59087 -3.25641,9.93478 -4.28707,13.81988 -0.76069,4.4104 -1.40331,9.3224 -1.62311,14.67885 3.01196,0.57895 1.76872,0.22278 4.40399,0.74539 2.62065,0.5197 2.76241,0.62065 5.56351,1.78726 0.83176,-5.84731 1.55207,-9.07152 3.0668,-13.06673 1.00882,-2.80969 3.09822,-9.17706 5.39231,-12.52192 -2.9056,-1.57808 -4.11201,-1.60806 -6.28858,-3.00606 z m 8.45583,-16.90981 c -3.40822,-1.60586 -4.87522,-2.45971 -7.71992,-3.68004 -1.91526,3.59086 -2.42747,4.13231 -3.7897,7.10558 -0.8436,2.50387 -1.48622,3.76858 -2.94939,7.88166 3.17775,1.15919 4.1433,1.4634 6.22761,2.40324 2.13046,0.96065 4.38177,2.30278 6.8513,3.71806 2.32383,-4.35526 2.25959,-3.39216 3.60266,-5.96225 1.25747,-2.47813 2.10351,-3.2088 4.39758,-6.55366 -3.40296,-2.57279 -4.44358,-3.51459 -6.62014,-4.91259 z m 11.13703,-16.52916 c -2.82206,-2.19201 -5.46134,-3.74922 -7.83714,-5.32125 -2.26692,2.65306 -4.42033,4.71846 -5.78257,7.69174 -2.25032,2.85555 -2.42405,3.41689 -4.23889,7.2955 4.23279,2.09703 3.79163,1.58063 6.93097,3.10662 3.05306,1.48404 4.38177,3.12336 8.02357,5.47648 2.90999,-3.3002 0.85287,-2.10266 4.65773,-5.84502 1.84361,-2.24369 2.80686,-4.0294 5.6871,-6.90535 -4.10634,-3.51059 -4.67804,-3.9835 -7.44077,-5.49872 z m 22.50804,-22.74199 c -2.35315,-4.77102 -5.6958,-5.62486 -8.30606,-7.90026 -4.84593,1.94968 -6.76489,6.12518 -11.40951,10.27075 -5.76714,6.37236 -6.64423,7.40263 -9.3969,11.28124 4.23279,2.09702 5.43282,2.284 9.27552,5.68563 3.97586,3.51947 5.08515,3.59228 7.78911,6.64876 2.90999,-3.30021 2.49408,-3.04048 6.29894,-6.78285 3.9537,-3.65041 4.44803,-3.56049 9.67283,-8.31207 -1.52733,-5.38626 -2.33349,-7.26589 -3.92393,-10.8912 z m 26.96249,-22.04013 c -2.35316,-4.771 -3.35126,-5.85931 -5.96151,-8.13471 -4.84594,1.94969 -6.99935,0.7327 -11.64397,4.87827 -4.3604,3.09 -13.44344,10.685 -16.89948,14.32916 3.29496,1.62812 6.37064,2.75292 10.21335,7.79573 3.84273,5.0428 2.74059,6.40574 4.97566,12.04124 4.08224,-2.59684 6.01087,-3.97829 9.81573,-6.31393 3.95372,-3.65042 5.62033,-4.73276 10.14176,-7.84317 -1.76178,-5.15179 0.0111,-12.65835 -0.64154,-16.75259 z m 20.1629,-7.50144 c -1.18088,-5.2399 -1.0067,-10.78285 -3.61695,-14.93392 -4.14257,0.54294 -3.48253,1.905 -8.36161,3.47156 -5.06375,2.15217 -8.51985,2.71353 -11.27255,8.23333 4.46726,4.20712 5.46007,3.60789 6.931,10.37473 1.05647,4.72551 -1.01071,11.3293 0.98989,15.55806 5.48897,-2.3624 6.01088,-3.74383 10.75358,-6.78285 4.89153,-2.94704 5.38587,-1.68484 8.50055,-4.79523 -1.76177,-5.38627 -2.80241,-7.96926 -3.92391,-11.12568 z m 29.30575,-18.28755 c -2.82206,-3.83317 -3.35125,-6.56266 -5.72706,-9.30698 -4.14255,0.54294 -7.46825,1.20162 -12.34733,2.76819 -6.70495,1.44879 -7.58204,3.65134 -11.03809,7.2955 1.88825,3.7382 2.17768,8.53145 3.64862,15.29829 1.05647,4.72551 2.03721,7.34356 4.03782,11.57233 5.48896,-2.3624 9.5277,-4.44721 14.27039,-7.48621 4.89153,-2.94705 9.60608,-5.90506 11.78293,-12.06336 -2.46514,-4.44845 -2.33349,-5.85917 -4.62728,-8.07776 z m 21.3364,-17.34986 c -3.7599,-2.42645 -4.75797,-5.85929 -7.36824,-7.43134 -3.43921,1.48077 -2.54469,1.90498 -8.12714,4.64382 -6.00158,3.79335 -3.83075,2.94798 -8.45908,9.17115 1.88825,3.73821 2.88105,5.48353 5.75871,9.43691 3.1666,2.84988 3.20948,4.999 6.14791,8.52441 5.48898,-1.42458 9.05881,-3.50941 13.33259,-8.42405 3.01589,-3.65041 6.55815,-3.79493 8.03163,-9.95325 -3.87186,-2.5728 -7.02259,-3.74906 -9.31638,-5.96765 z m 30.71319,-28.83784 c 0.4603,-2.192 -0.53777,-3.28029 -4.08586,-5.55569 -4.37702,0.54295 -11.98231,3.65807 -16.80198,7.92619 -8.21154,7.27176 -9.45769,9.98164 -14.08602,16.20481 1.88824,3.73821 3.11551,4.54572 6.69653,8.03018 3.63551,2.38097 5.78851,3.82672 8.25801,5.00757 1.97214,-6.11367 4.36971,-9.13633 9.81575,-16.16107 2.54698,-3.88487 10.075,-6.84286 13.89303,-9.71879 -0.82394,-3.04172 -2.33349,-3.28015 -3.68946,-5.7332 z"/>
<use id="shine" xlink:href="#shield" fill="url(#rg)" stroke="#000" stroke-width="3"/>
</svg>