<?xml version="1.0" encoding="UTF-8" standalone="no"?>
<svg
   xmlns:dc="http://purl.org/dc/elements/1.1/"
   xmlns:cc="http://creativecommons.org/ns#"
   xmlns:rdf="http://www.w3.org/1999/02/22-rdf-syntax-ns#"
   xmlns:svg="http://www.w3.org/2000/svg"
   xmlns="http://www.w3.org/2000/svg"
   xmlns:xlink="http://www.w3.org/1999/xlink"
   xmlns:sodipodi="http://sodipodi.sourceforge.net/DTD/sodipodi-0.dtd"
   xmlns:inkscape="http://www.inkscape.org/namespaces/inkscape"
   width="600"
   height="660"
   id="svg2"
   version="1.1"
   inkscape:version="0.48.2 r9819"
   sodipodi:docname="House_Wayn.svg">
  <metadata
     id="metadata31">
    <rdf:RDF>
      <cc:Work
         rdf:about="">
        <dc:format>image/svg+xml</dc:format>
        <dc:type
           rdf:resource="http://purl.org/dc/dcmitype/StillImage" />
        <dc:title />
      </cc:Work>
    </rdf:RDF>
  </metadata>
  <sodipodi:namedview
     pagecolor="#ffffff"
     bordercolor="#666666"
     borderopacity="1"
     objecttolerance="10"
     gridtolerance="10"
     guidetolerance="10"
     inkscape:pageopacity="0"
     inkscape:pageshadow="2"
     inkscape:window-width="1366"
     inkscape:window-height="715"
     id="namedview29"
     showgrid="false"
     inkscape:zoom="0.71515152"
     inkscape:cx="120.90403"
     inkscape:cy="436.58453"
     inkscape:window-x="-8"
     inkscape:window-y="-8"
     inkscape:window-maximized="1"
     inkscape:current-layer="svg2" />
  <defs
     id="defs4">
    <radialGradient
       id="rg"
       gradientUnits="userSpaceOnUse"
       cx="220"
       cy="220"
       r="405">
      <stop
         style="stop-color:#fff;stop-opacity:.3"
         offset="0"
         id="stop7" />
      <stop
         style="stop-color:#fff;stop-opacity:.2"
         offset=".2"
         id="stop9" />
      <stop
         style="stop-color:#666;stop-opacity:.1"
         offset=".6"
         id="stop11" />
      <stop
         style="stop-color:#000;stop-opacity:.13"
         offset="1"
         id="stop13" />
    </radialGradient>
    <path
       id="shield"
       d="m2,2v257c0,286 298,398 298,398c0,0 298-112 298-398V2z" />
    <path
       id="sun"
       transform="scale(0.5)"
       d="m 300,75 c -13.62764,18.187994 -14.7587,37.358523 -11.35338,57.255633 3.37716,19.73229 1.86698,38.88973 -10.26314,55.75188 -6.02002,-22.34209 -17.30287,-37.32697 -32.10528,-47.33082 -17.67053,-11.94222 -27.0654,-27.58421 -32.36843,-48.533841 -5.63006,22.018581 0.63056,40.138661 11.391,57.218041 10.66568,16.929 16.61987,35.2056 11.87969,55.41354 -14.11046,-18.33078 -30.28137,-27.85151 -47.78196,-31.42856 -20.8955,-4.27099 -35.57979,-15.11806 -48.49623,-32.44361 3.22465,22.49705 15.96628,36.83477 32.44361,48.49621 16.34177,11.5655 28.83456,26.18881 32.18044,46.69175 -20.05693,-11.54286 -38.62376,-14.18274 -56.16541,-10.78948 -20.93937,4.0505 -38.65458,-0.32715 -57.218047,-11.39098 11.588457,19.55055 28.848127,27.90026 48.533857,32.36842 19.51603,4.42963 36.61848,13.17924 47.55637,30.82706 -22.93117,-2.98029 -41.07684,1.69827 -55.97743,11.54141 -17.79541,11.75533 -35.871343,14.47109 -57.255647,11.35336 18.187968,13.62766 37.358527,14.75873 57.255647,11.35339 19.73227,-3.37714 38.88973,-1.86699 55.75186,10.26312 -22.34207,6.02003 -37.32695,17.30286 -47.3308,32.10527 -11.94225,17.67055 -27.58422,27.06539 -48.533856,32.36845 22.018576,5.63009 40.138666,-0.63059 57.218046,-11.39099 16.92898,-10.66568 35.20559,-16.6199 55.41352,-11.8797 -18.33076,14.11046 -27.85152,30.28137 -31.42855,47.78196 -4.27097,20.89547 -15.11804,35.57987 -32.44361,48.49612 22.49705,-3.22449 36.83479,-15.96607 48.49623,-32.4435 11.5655,-16.34179 26.1888,-28.83459 46.69172,-32.18044 -11.54287,20.05693 -14.18274,38.62386 -10.78945,56.16536 4.0505,20.9394 -0.32714,38.65456 -11.391,57.21799 19.55055,-11.58837 27.90025,-28.84804 32.36843,-48.53369 4.43327,-19.53206 13.18767,-36.65734 30.8647,-47.59403 -2.9915,22.95001 1.6553,41.14403 11.50372,56.0526 11.75533,17.7954 14.47108,35.83378 11.35338,57.218 13.62765,-18.18792 14.75879,-37.32085 11.35337,-57.218 -3.37714,-19.73237 -1.83139,-38.92522 10.30078,-55.78946 6.02097,22.32989 17.27086,37.36821 32.06766,47.36846 17.67052,11.9423 27.06541,27.54657 32.36842,48.49612 5.63009,-22.01847 -0.6305,-40.10101 -11.39096,-57.18042 -10.6719,-16.93874 -16.59857,-35.2641 -11.8421,-55.48867 14.10915,18.33209 30.24374,27.88914 47.74437,31.46618 20.89548,4.27082 35.57982,15.11806 48.49622,32.4435 -3.22465,-22.49707 -15.96624,-36.83471 -32.44361,-48.49612 -16.34175,-11.56544 -28.79901,-26.22437 -32.14285,-46.72935 20.0466,11.53229 38.59349,14.21895 56.1278,10.82709 20.93937,-4.05056 38.65467,0.32718 57.21804,11.39099 -11.58846,-19.55061 -28.84807,-27.9003 -48.53383,-32.36845 -19.51602,-4.42962 -36.58198,-13.21415 -47.51878,-30.86468 22.91491,2.97174 41.0849,-1.66597 55.97745,-11.50371 17.79536,-11.75534 35.83378,-14.4711 57.21803,-11.35339 -18.18798,-13.62768 -37.32091,-14.75877 -57.21803,-11.35336 -19.73227,3.37716 -38.92532,1.83138 -55.7895,-10.30079 22.32977,-6.02102 37.36835,-17.27087 47.36843,-32.06768 11.94223,-17.67051 27.54665,-27.06541 48.49623,-32.36842 -22.01853,-5.63007 -40.10106,0.63052 -57.18041,11.39098 -16.93885,10.67188 -35.26417,16.59858 -55.48875,11.84209 18.33205,-14.10913 27.88915,-30.24376 31.46617,-47.74436 4.27096,-20.89551 15.1181,-35.5798 32.44361,-48.49621 -22.49706,3.22464 -36.8348,15.96624 -48.49622,32.44361 -11.56551,16.34174 -26.22441,28.79898 -46.72936,32.14286 11.53224,-20.04663 14.21895,-38.59353 10.82709,-56.12784 -4.05052,-20.9394 0.32717,-38.65464 11.39096,-57.218041 -19.55052,11.588441 -27.90026,28.848091 -32.36842,48.533841 -4.42738,19.50608 -13.19462,36.58129 -30.82705,47.5188 2.97039,-22.91361 -1.70361,-41.04732 -11.54139,-55.93986 -11.75533,-17.79538 -14.47112,-35.871328 -11.35337,-57.255633 z" />
    <radialGradient
       id="rg-1"
       gradientUnits="userSpaceOnUse"
       cx="220"
       cy="220"
       r="405">
      <stop
         style="stop-color:#fff;stop-opacity:.3"
         offset="0"
         id="stop7-7" />
      <stop
         style="stop-color:#fff;stop-opacity:.2"
         offset=".2"
         id="stop9-4" />
      <stop
         style="stop-color:#666;stop-opacity:.1"
         offset=".6"
         id="stop11-0" />
      <stop
         style="stop-color:#000;stop-opacity:.13"
         offset="1"
         id="stop13-9" />
    </radialGradient>
    <radialGradient
       id="radialGradient4508"
       gradientUnits="userSpaceOnUse"
       cx="220"
       cy="220"
       r="405">
      <stop
         style="stop-color:#fff;stop-opacity:.3"
         offset="0"
         id="stop4510" />
      <stop
         style="stop-color:#fff;stop-opacity:.2"
         offset=".2"
         id="stop4512" />
      <stop
         style="stop-color:#666;stop-opacity:.1"
         offset=".6"
         id="stop4514" />
      <stop
         style="stop-color:#000;stop-opacity:.13"
         offset="1"
         id="stop4516" />
    </radialGradient>
    <radialGradient
       id="rg-1-1"
       gradientUnits="userSpaceOnUse"
       cx="220"
       cy="220"
       r="405">
      <stop
         style="stop-color:#fff;stop-opacity:.3"
         offset="0"
         id="stop7-7-7" />
      <stop
         style="stop-color:#fff;stop-opacity:.2"
         offset=".2"
         id="stop9-4-4" />
      <stop
         style="stop-color:#666;stop-opacity:.1"
         offset=".6"
         id="stop11-0-0" />
      <stop
         style="stop-color:#000;stop-opacity:.13"
         offset="1"
         id="stop13-9-9" />
    </radialGradient>
    <radialGradient
       id="radialGradient3248"
       gradientUnits="userSpaceOnUse"
       cx="220"
       cy="220"
       r="405">
      <stop
         style="stop-color:#fff;stop-opacity:.3"
         offset="0"
         id="stop3250" />
      <stop
         style="stop-color:#fff;stop-opacity:.2"
         offset=".2"
         id="stop3252" />
      <stop
         style="stop-color:#666;stop-opacity:.1"
         offset=".6"
         id="stop3254" />
      <stop
         style="stop-color:#000;stop-opacity:.13"
         offset="1"
         id="stop3256" />
    </radialGradient>
  </defs>
  <use
     height="1052.3622"
     width="744.09448"
     y="0"
     x="0"
     id="bg"
     xlink:href="#shield"
     style="fill:#0000cc;fill-opacity:1" />
  <g
     id="g3247"
     style="fill:#ffffff;fill-opacity:1"
     transform="translate(-1.8999999e-6,0)">
    <path
       inkscape:connector-curvature="0"
       d="m 300,2 0,298 295.89258,0 C 597.26761,286.74845 598,273.0886 598,259 L 598,2 300,2 z"
       id="top-right"
       style="fill:#ffffff;fill-opacity:1" />
    <path
       inkscape:connector-curvature="0"
       d="M 4.1074219,300 C 30.645587,555.75613 300,657 300,657 l 0,-357 -295.8925781,0 z"
       id="bottom-left"
       style="fill:#ffffff;fill-opacity:1" />
  </g>
  <g
     transform="matrix(0.48150873,0,0,0.48150873,306.0289,6.2620981)"
     style="fill:#0000cc;display:inline;stroke:none"
     id="g3135">
    <rect
       style="fill:#0000cc;fill-rule:evenodd;stroke:none;stroke-width:6.23041676999999970;stroke-linecap:butt;stroke-linejoin:miter;stroke-miterlimit:4;stroke-opacity:1;stroke-dasharray:none"
       id="rect3840"
       width="29.601362"
       height="163.31786"
       x="278.6611"
       y="91.449699"
       transform="matrix(-0.69988905,0.71425158,0.71425158,0.69988905,471.20506,56.532273)" />
    <rect
       transform="matrix(-0.69988905,0.71425158,0.71425158,0.69988905,291.21367,-119.83977)"
       y="91.449699"
       x="278.6611"
       height="163.31786"
       width="29.601362"
       id="rect3842"
       style="fill:#0000cc;fill-rule:evenodd;stroke:none;stroke-width:6.23041676999999970;stroke-linecap:butt;stroke-linejoin:miter;stroke-miterlimit:4;stroke-opacity:1;stroke-dasharray:none" />
    <rect
       transform="matrix(0.69988905,0.71425158,-0.71425158,0.69988905,127.71851,56.532273)"
       y="91.449699"
       x="278.6611"
       height="163.31786"
       width="29.601362"
       id="rect3834"
       style="fill:#0000cc;fill-rule:evenodd;stroke:none;stroke-width:6.23041676999999970;stroke-linecap:butt;stroke-linejoin:miter;stroke-miterlimit:4;stroke-opacity:1;stroke-dasharray:none" />
    <rect
       style="fill:#0000cc;fill-rule:evenodd;stroke:none;stroke-width:6.23041676999999970;stroke-linecap:butt;stroke-linejoin:miter;stroke-miterlimit:4;stroke-opacity:1;stroke-dasharray:none"
       id="rect3832"
       width="29.601362"
       height="163.31786"
       x="278.6611"
       y="91.449699"
       transform="matrix(0.69988905,0.71425158,-0.71425158,0.69988905,307.7099,-119.83977)" />
    <rect
       transform="matrix(0.00533795,0.99998575,-0.99998575,0.00533795,596.99966,4.0543936)"
       y="91.449699"
       x="278.6611"
       height="163.31786"
       width="29.601362"
       id="rect3836"
       style="fill:#0000cc;fill-rule:evenodd;stroke:none;stroke-width:6.23041676999999970;stroke-linecap:butt;stroke-linejoin:miter;stroke-miterlimit:4;stroke-opacity:1;stroke-dasharray:none" />
    <rect
       style="fill:#0000cc;fill-rule:evenodd;stroke:none;stroke-width:6.23041676999999970;stroke-linecap:butt;stroke-linejoin:miter;stroke-miterlimit:4;stroke-opacity:1;stroke-dasharray:none"
       id="rect3838"
       width="29.601362"
       height="163.31786"
       x="278.6611"
       y="91.449699"
       transform="matrix(0.00533795,0.99998575,-0.99998575,0.00533795,345.00326,5.3995642)" />
    <rect
       transform="translate(6,0)"
       y="91.449699"
       x="278.6611"
       height="163.31786"
       width="29.601362"
       id="rect3060"
       style="fill:#0000cc;fill-rule:evenodd;stroke:none;stroke-width:6.23041676999999970;stroke-linecap:butt;stroke-linejoin:miter;stroke-miterlimit:4;stroke-opacity:1;stroke-dasharray:none" />
    <rect
       style="fill:#0000cc;fill-rule:evenodd;stroke:none;stroke-width:6.23041676999999970;stroke-linecap:butt;stroke-linejoin:miter;stroke-miterlimit:4;stroke-opacity:1;stroke-dasharray:none"
       id="rect3830"
       width="29.601362"
       height="163.31786"
       x="278.6611"
       y="91.449699"
       transform="translate(6,252)" />
    <path
       transform="translate(442,0)"
       inkscape:connector-curvature="0"
       id="path3989"
       d="m -142.03125,236.71875 c -35.05996,0 -63.46875,28.41575 -63.46875,63.46875 0,35.05301 28.40879,63.46875 63.46875,63.46875 35.05994,0 63.46875,-28.41574 63.46875,-63.46875 0,-35.053 -28.40881,-63.46875 -63.46875,-63.46875 z M -142.625,264.75 c 18.59122,0 33.65625,15.06871 33.65625,33.65625 0,18.58754 -15.06503,33.65625 -33.65625,33.65625 -18.59122,0 -33.65625,-15.06871 -33.65625,-33.65625 0,-18.58754 15.06503,-33.65625 33.65625,-33.65625 z"
       style="fill:#0000cc;stroke:none;stroke-width:6.23041676999999970;stroke-linecap:butt;stroke-linejoin:miter;stroke-miterlimit:4;stroke-opacity:1;stroke-dasharray:none;stroke-dashoffset:0;display:inline" />
    <path
       transform="translate(642,0)"
       inkscape:connector-curvature="0"
       id="path6763"
       d="m -343,66.375 c -128.20497,0 -232.125,103.95127 -232.125,232.15625 0,128.20497 103.92003,232.125 232.125,232.125 128.20497,0 232.125,-103.92003 232.125,-232.125 C -110.875,170.32627 -214.79503,66.375 -343,66.375 z m 1.25,41.1875 c 105.97045,0 191.875,85.89429 191.875,191.84375 0,105.94946 -85.90455,191.8125 -191.875,191.8125 -105.97047,0 -191.90625,-85.86304 -191.90625,-191.8125 0,-105.94946 85.93578,-191.84375 191.90625,-191.84375 z"
       style="fill:#0000cc;fill-opacity:1;stroke:none;stroke-width:6.23041676999999970;stroke-linecap:butt;stroke-linejoin:miter;stroke-miterlimit:4;stroke-opacity:1;stroke-dasharray:none;stroke-dashoffset:0;display:inline" />
  </g>
  <g
     id="g3310"
     style="fill:#0000cc;display:inline;stroke:none"
     transform="matrix(0.43038253,0,0,0.43038253,56.315632,288.52407)">
    <rect
       transform="matrix(-0.69988905,0.71425158,0.71425158,0.69988905,471.20506,56.532273)"
       y="91.449699"
       x="278.6611"
       height="163.31786"
       width="29.601362"
       id="rect3312"
       style="fill:#0000cc;fill-rule:evenodd;stroke:none;stroke-width:6.97054337999999960;stroke-linecap:butt;stroke-linejoin:miter;stroke-miterlimit:4;stroke-opacity:1;stroke-dasharray:none" />
    <rect
       style="fill:#0000cc;fill-rule:evenodd;stroke:none;stroke-width:6.97054337999999960;stroke-linecap:butt;stroke-linejoin:miter;stroke-miterlimit:4;stroke-opacity:1;stroke-dasharray:none"
       id="rect3314"
       width="29.601362"
       height="163.31786"
       x="278.6611"
       y="91.449699"
       transform="matrix(-0.69988905,0.71425158,0.71425158,0.69988905,291.21367,-119.83977)" />
    <rect
       style="fill:#0000cc;fill-rule:evenodd;stroke:none;stroke-width:6.97054337999999960;stroke-linecap:butt;stroke-linejoin:miter;stroke-miterlimit:4;stroke-opacity:1;stroke-dasharray:none"
       id="rect3316"
       width="29.601362"
       height="163.31786"
       x="278.6611"
       y="91.449699"
       transform="matrix(0.69988905,0.71425158,-0.71425158,0.69988905,127.71851,56.532273)" />
    <rect
       transform="matrix(0.69988905,0.71425158,-0.71425158,0.69988905,307.7099,-119.83977)"
       y="91.449699"
       x="278.6611"
       height="163.31786"
       width="29.601362"
       id="rect3318"
       style="fill:#0000cc;fill-rule:evenodd;stroke:none;stroke-width:6.97054337999999960;stroke-linecap:butt;stroke-linejoin:miter;stroke-miterlimit:4;stroke-opacity:1;stroke-dasharray:none" />
    <rect
       style="fill:#0000cc;fill-rule:evenodd;stroke:none;stroke-width:6.97054337999999960;stroke-linecap:butt;stroke-linejoin:miter;stroke-miterlimit:4;stroke-opacity:1;stroke-dasharray:none"
       id="rect3320"
       width="29.601362"
       height="163.31786"
       x="278.6611"
       y="91.449699"
       transform="matrix(0.00533795,0.99998575,-0.99998575,0.00533795,596.99966,4.0543936)" />
    <rect
       transform="matrix(0.00533795,0.99998575,-0.99998575,0.00533795,345.00326,5.3995642)"
       y="91.449699"
       x="278.6611"
       height="163.31786"
       width="29.601362"
       id="rect3322"
       style="fill:#0000cc;fill-rule:evenodd;stroke:none;stroke-width:6.97054337999999960;stroke-linecap:butt;stroke-linejoin:miter;stroke-miterlimit:4;stroke-opacity:1;stroke-dasharray:none" />
    <rect
       style="fill:#0000cc;fill-rule:evenodd;stroke:none;stroke-width:6.97054337999999960;stroke-linecap:butt;stroke-linejoin:miter;stroke-miterlimit:4;stroke-opacity:1;stroke-dasharray:none"
       id="rect3324"
       width="29.601362"
       height="163.31786"
       x="278.6611"
       y="91.449699"
       transform="translate(6,0)" />
    <rect
       transform="translate(6,252)"
       y="91.449699"
       x="278.6611"
       height="163.31786"
       width="29.601362"
       id="rect3326"
       style="fill:#0000cc;fill-rule:evenodd;stroke:none;stroke-width:6.97054337999999960;stroke-linecap:butt;stroke-linejoin:miter;stroke-miterlimit:4;stroke-opacity:1;stroke-dasharray:none" />
    <path
       style="fill:#0000cc;stroke:none;stroke-width:6.97054337999999960;stroke-linecap:butt;stroke-linejoin:miter;stroke-miterlimit:4;stroke-opacity:1;stroke-dasharray:none;stroke-dashoffset:0;display:inline"
       d="m -142.03125,236.71875 c -35.05996,0 -63.46875,28.41575 -63.46875,63.46875 0,35.05301 28.40879,63.46875 63.46875,63.46875 35.05994,0 63.46875,-28.41574 63.46875,-63.46875 0,-35.053 -28.40881,-63.46875 -63.46875,-63.46875 z M -142.625,264.75 c 18.59122,0 33.65625,15.06871 33.65625,33.65625 0,18.58754 -15.06503,33.65625 -33.65625,33.65625 -18.59122,0 -33.65625,-15.06871 -33.65625,-33.65625 0,-18.58754 15.06503,-33.65625 33.65625,-33.65625 z"
       id="path3328"
       inkscape:connector-curvature="0"
       transform="translate(442,0)" />
    <path
       style="fill:#0000cc;fill-opacity:1;stroke:none;stroke-width:6.97054337999999960;stroke-linecap:butt;stroke-linejoin:miter;stroke-miterlimit:4;stroke-opacity:1;stroke-dasharray:none;stroke-dashoffset:0;display:inline"
       d="m -343,66.375 c -128.20497,0 -232.125,103.95127 -232.125,232.15625 0,128.20497 103.92003,232.125 232.125,232.125 128.20497,0 232.125,-103.92003 232.125,-232.125 C -110.875,170.32627 -214.79503,66.375 -343,66.375 z m 1.25,41.1875 c 105.97045,0 191.875,85.89429 191.875,191.84375 0,105.94946 -85.90455,191.8125 -191.875,191.8125 -105.97047,0 -191.90625,-85.86304 -191.90625,-191.8125 0,-105.94946 85.93578,-191.84375 191.90625,-191.84375 z"
       id="path3331"
       inkscape:connector-curvature="0"
       transform="translate(642,0)" />
  </g>
  <g
     id="g3333"
     style="fill:#ffffff;display:inline;stroke:none"
     transform="matrix(-0.48150873,0,0,0.48150873,296.07852,6.2620981)">
    <rect
       transform="matrix(-0.69988905,0.71425158,0.71425158,0.69988905,471.20506,56.532273)"
       y="91.449699"
       x="278.6611"
       height="163.31786"
       width="29.601362"
       id="rect3335"
       style="fill:#ffffff;fill-rule:evenodd;stroke:none;stroke-width:6.23041676999999970;stroke-linecap:butt;stroke-linejoin:miter;stroke-miterlimit:4;stroke-opacity:1;stroke-dasharray:none" />
    <rect
       style="fill:#ffffff;fill-rule:evenodd;stroke:none;stroke-width:6.23041676999999970;stroke-linecap:butt;stroke-linejoin:miter;stroke-miterlimit:4;stroke-opacity:1;stroke-dasharray:none"
       id="rect3337"
       width="29.601362"
       height="163.31786"
       x="278.6611"
       y="91.449699"
       transform="matrix(-0.69988905,0.71425158,0.71425158,0.69988905,291.21367,-119.83977)" />
    <rect
       style="fill:#ffffff;fill-rule:evenodd;stroke:none;stroke-width:6.23041676999999970;stroke-linecap:butt;stroke-linejoin:miter;stroke-miterlimit:4;stroke-opacity:1;stroke-dasharray:none"
       id="rect3339"
       width="29.601362"
       height="163.31786"
       x="278.6611"
       y="91.449699"
       transform="matrix(0.69988905,0.71425158,-0.71425158,0.69988905,127.71851,56.532273)" />
    <rect
       transform="matrix(0.69988905,0.71425158,-0.71425158,0.69988905,307.7099,-119.83977)"
       y="91.449699"
       x="278.6611"
       height="163.31786"
       width="29.601362"
       id="rect3341"
       style="fill:#ffffff;fill-rule:evenodd;stroke:none;stroke-width:6.23041676999999970;stroke-linecap:butt;stroke-linejoin:miter;stroke-miterlimit:4;stroke-opacity:1;stroke-dasharray:none" />
    <rect
       style="fill:#ffffff;fill-rule:evenodd;stroke:none;stroke-width:6.23041676999999970;stroke-linecap:butt;stroke-linejoin:miter;stroke-miterlimit:4;stroke-opacity:1;stroke-dasharray:none"
       id="rect3343"
       width="29.601362"
       height="163.31786"
       x="278.6611"
       y="91.449699"
       transform="matrix(0.00533795,0.99998575,-0.99998575,0.00533795,596.99966,4.0543936)" />
    <rect
       transform="matrix(0.00533795,0.99998575,-0.99998575,0.00533795,345.00326,5.3995642)"
       y="91.449699"
       x="278.6611"
       height="163.31786"
       width="29.601362"
       id="rect3345"
       style="fill:#ffffff;fill-rule:evenodd;stroke:none;stroke-width:6.23041676999999970;stroke-linecap:butt;stroke-linejoin:miter;stroke-miterlimit:4;stroke-opacity:1;stroke-dasharray:none" />
    <rect
       style="fill:#ffffff;fill-rule:evenodd;stroke:none;stroke-width:6.23041676999999970;stroke-linecap:butt;stroke-linejoin:miter;stroke-miterlimit:4;stroke-opacity:1;stroke-dasharray:none"
       id="rect3347"
       width="29.601362"
       height="163.31786"
       x="278.6611"
       y="91.449699"
       transform="translate(6,0)" />
    <rect
       transform="translate(6,252)"
       y="91.449699"
       x="278.6611"
       height="163.31786"
       width="29.601362"
       id="rect3349"
       style="fill:#ffffff;fill-rule:evenodd;stroke:none;stroke-width:6.23041676999999970;stroke-linecap:butt;stroke-linejoin:miter;stroke-miterlimit:4;stroke-opacity:1;stroke-dasharray:none" />
    <path
       style="fill:#ffffff;stroke:none;stroke-width:6.23041676999999970;stroke-linecap:butt;stroke-linejoin:miter;stroke-miterlimit:4;stroke-opacity:1;stroke-dasharray:none;stroke-dashoffset:0;display:inline"
       d="m -142.03125,236.71875 c -35.05996,0 -63.46875,28.41575 -63.46875,63.46875 0,35.05301 28.40879,63.46875 63.46875,63.46875 35.05994,0 63.46875,-28.41574 63.46875,-63.46875 0,-35.053 -28.40881,-63.46875 -63.46875,-63.46875 z M -142.625,264.75 c 18.59122,0 33.65625,15.06871 33.65625,33.65625 0,18.58754 -15.06503,33.65625 -33.65625,33.65625 -18.59122,0 -33.65625,-15.06871 -33.65625,-33.65625 0,-18.58754 15.06503,-33.65625 33.65625,-33.65625 z"
       id="path3351"
       inkscape:connector-curvature="0"
       transform="translate(442,0)" />
    <path
       style="fill:#ffffff;fill-opacity:1;stroke:none;stroke-width:6.23041676999999970;stroke-linecap:butt;stroke-linejoin:miter;stroke-miterlimit:4;stroke-opacity:1;stroke-dasharray:none;stroke-dashoffset:0;display:inline"
       d="m -343,66.375 c -128.20497,0 -232.125,103.95127 -232.125,232.15625 0,128.20497 103.92003,232.125 232.125,232.125 128.20497,0 232.125,-103.92003 232.125,-232.125 C -110.875,170.32627 -214.79503,66.375 -343,66.375 z m 1.25,41.1875 c 105.97045,0 191.875,85.89429 191.875,191.84375 0,105.94946 -85.90455,191.8125 -191.875,191.8125 -105.97047,0 -191.90625,-85.86304 -191.90625,-191.8125 0,-105.94946 85.93578,-191.84375 191.90625,-191.84375 z"
       id="path3353"
       inkscape:connector-curvature="0"
       transform="translate(642,0)" />
  </g>
  <g
     transform="matrix(-0.43038253,0,0,0.43038253,545.79179,288.52407)"
     style="fill:#ffffff;display:inline;stroke:none"
     id="g3355">
    <rect
       style="fill:#ffffff;fill-rule:evenodd;stroke:none;stroke-width:6.97054337999999960;stroke-linecap:butt;stroke-linejoin:miter;stroke-miterlimit:4;stroke-opacity:1;stroke-dasharray:none"
       id="rect3357"
       width="29.601362"
       height="163.31786"
       x="278.6611"
       y="91.449699"
       transform="matrix(-0.69988905,0.71425158,0.71425158,0.69988905,471.20506,56.532273)" />
    <rect
       transform="matrix(-0.69988905,0.71425158,0.71425158,0.69988905,291.21367,-119.83977)"
       y="91.449699"
       x="278.6611"
       height="163.31786"
       width="29.601362"
       id="rect3359"
       style="fill:#ffffff;fill-rule:evenodd;stroke:none;stroke-width:6.97054337999999960;stroke-linecap:butt;stroke-linejoin:miter;stroke-miterlimit:4;stroke-opacity:1;stroke-dasharray:none" />
    <rect
       transform="matrix(0.69988905,0.71425158,-0.71425158,0.69988905,127.71851,56.532273)"
       y="91.449699"
       x="278.6611"
       height="163.31786"
       width="29.601362"
       id="rect3361"
       style="fill:#ffffff;fill-rule:evenodd;stroke:none;stroke-width:6.97054337999999960;stroke-linecap:butt;stroke-linejoin:miter;stroke-miterlimit:4;stroke-opacity:1;stroke-dasharray:none" />
    <rect
       style="fill:#ffffff;fill-rule:evenodd;stroke:none;stroke-width:6.97054337999999960;stroke-linecap:butt;stroke-linejoin:miter;stroke-miterlimit:4;stroke-opacity:1;stroke-dasharray:none"
       id="rect3363"
       width="29.601362"
       height="163.31786"
       x="278.6611"
       y="91.449699"
       transform="matrix(0.69988905,0.71425158,-0.71425158,0.69988905,307.7099,-119.83977)" />
    <rect
       transform="matrix(0.00533795,0.99998575,-0.99998575,0.00533795,596.99966,4.0543936)"
       y="91.449699"
       x="278.6611"
       height="163.31786"
       width="29.601362"
       id="rect3365"
       style="fill:#ffffff;fill-rule:evenodd;stroke:none;stroke-width:6.97054337999999960;stroke-linecap:butt;stroke-linejoin:miter;stroke-miterlimit:4;stroke-opacity:1;stroke-dasharray:none" />
    <rect
       style="fill:#ffffff;fill-rule:evenodd;stroke:none;stroke-width:6.97054337999999960;stroke-linecap:butt;stroke-linejoin:miter;stroke-miterlimit:4;stroke-opacity:1;stroke-dasharray:none"
       id="rect3367"
       width="29.601362"
       height="163.31786"
       x="278.6611"
       y="91.449699"
       transform="matrix(0.00533795,0.99998575,-0.99998575,0.00533795,345.00326,5.3995642)" />
    <rect
       transform="translate(6,0)"
       y="91.449699"
       x="278.6611"
       height="163.31786"
       width="29.601362"
       id="rect3369"
       style="fill:#ffffff;fill-rule:evenodd;stroke:none;stroke-width:6.97054337999999960;stroke-linecap:butt;stroke-linejoin:miter;stroke-miterlimit:4;stroke-opacity:1;stroke-dasharray:none" />
    <rect
       style="fill:#ffffff;fill-rule:evenodd;stroke:none;stroke-width:6.97054337999999960;stroke-linecap:butt;stroke-linejoin:miter;stroke-miterlimit:4;stroke-opacity:1;stroke-dasharray:none"
       id="rect3371"
       width="29.601362"
       height="163.31786"
       x="278.6611"
       y="91.449699"
       transform="translate(6,252)" />
    <path
       transform="translate(442,0)"
       inkscape:connector-curvature="0"
       id="path3373"
       d="m -142.03125,236.71875 c -35.05996,0 -63.46875,28.41575 -63.46875,63.46875 0,35.05301 28.40879,63.46875 63.46875,63.46875 35.05994,0 63.46875,-28.41574 63.46875,-63.46875 0,-35.053 -28.40881,-63.46875 -63.46875,-63.46875 z M -142.625,264.75 c 18.59122,0 33.65625,15.06871 33.65625,33.65625 0,18.58754 -15.06503,33.65625 -33.65625,33.65625 -18.59122,0 -33.65625,-15.06871 -33.65625,-33.65625 0,-18.58754 15.06503,-33.65625 33.65625,-33.65625 z"
       style="fill:#ffffff;stroke:none;stroke-width:6.97054337999999960;stroke-linecap:butt;stroke-linejoin:miter;stroke-miterlimit:4;stroke-opacity:1;stroke-dasharray:none;stroke-dashoffset:0;display:inline" />
    <path
       transform="translate(642,0)"
       inkscape:connector-curvature="0"
       id="path3375"
       d="m -343,66.375 c -128.20497,0 -232.125,103.95127 -232.125,232.15625 0,128.20497 103.92003,232.125 232.125,232.125 128.20497,0 232.125,-103.92003 232.125,-232.125 C -110.875,170.32627 -214.79503,66.375 -343,66.375 z m 1.25,41.1875 c 105.97045,0 191.875,85.89429 191.875,191.84375 0,105.94946 -85.90455,191.8125 -191.875,191.8125 -105.97047,0 -191.90625,-85.86304 -191.90625,-191.8125 0,-105.94946 85.93578,-191.84375 191.90625,-191.84375 z"
       style="fill:#ffffff;fill-opacity:1;stroke:none;stroke-width:6.97054337999999960;stroke-linecap:butt;stroke-linejoin:miter;stroke-miterlimit:4;stroke-opacity:1;stroke-dasharray:none;stroke-dashoffset:0;display:inline" />
  </g>
  <use
     style="fill:url(#rg-1-1);stroke:#000000;stroke-width:3"
     id="shine"
     xlink:href="#shield"
     x="0"
     y="0"
     width="1"
     height="1" />
</svg>
