<?xml version="1.0" encoding="UTF-8" standalone="no"?>
<svg
   xmlns:dc="http://purl.org/dc/elements/1.1/"
   xmlns:cc="http://creativecommons.org/ns#"
   xmlns:rdf="http://www.w3.org/1999/02/22-rdf-syntax-ns#"
   xmlns:svg="http://www.w3.org/2000/svg"
   xmlns="http://www.w3.org/2000/svg"
   xmlns:xlink="http://www.w3.org/1999/xlink"
   xmlns:sodipodi="http://sodipodi.sourceforge.net/DTD/sodipodi-0.dtd"
   xmlns:inkscape="http://www.inkscape.org/namespaces/inkscape"
   width="600"
   height="660"
   id="svg2"
   version="1.1"
   inkscape:version="0.48.2 r9819"
   sodipodi:docname="House_Wensington.svg">
  <metadata
     id="metadata24">
    <rdf:RDF>
      <cc:Work
         rdf:about="">
        <dc:format>image/svg+xml</dc:format>
        <dc:type
           rdf:resource="http://purl.org/dc/dcmitype/StillImage" />
        <dc:title />
      </cc:Work>
    </rdf:RDF>
  </metadata>
  <sodipodi:namedview
     pagecolor="#ffffff"
     bordercolor="#666666"
     borderopacity="1"
     objecttolerance="10"
     gridtolerance="10"
     guidetolerance="10"
     inkscape:pageopacity="0"
     inkscape:pageshadow="2"
     inkscape:window-width="1366"
     inkscape:window-height="715"
     id="namedview22"
     showgrid="false"
     inkscape:zoom="0.5056885"
     inkscape:cx="-27.039399"
     inkscape:cy="424.78663"
     inkscape:window-x="-8"
     inkscape:window-y="-8"
     inkscape:window-maximized="1"
     inkscape:current-layer="layer2" />
  <defs
     id="defs4">
    <inkscape:path-effect
       is_visible="true"
       id="path-effect3136"
       effect="spiro" />
    <inkscape:path-effect
       effect="spiro"
       id="path-effect3132"
       is_visible="true" />
    <inkscape:path-effect
       effect="spiro"
       id="path-effect3101"
       is_visible="true" />
    <inkscape:path-effect
       is_visible="true"
       id="path-effect3085"
       effect="spiro" />
    <inkscape:path-effect
       is_visible="true"
       id="path-effect3083"
       effect="spiro" />
    <inkscape:path-effect
       is_visible="true"
       id="path-effect3081"
       effect="spiro" />
    <inkscape:path-effect
       is_visible="true"
       id="path-effect3079"
       effect="spiro" />
    <inkscape:path-effect
       is_visible="true"
       id="path-effect3077"
       effect="spiro" />
    <inkscape:path-effect
       is_visible="true"
       id="path-effect3075"
       effect="spiro" />
    <inkscape:path-effect
       effect="spiro"
       id="path-effect3049"
       is_visible="true" />
    <inkscape:path-effect
       is_visible="true"
       id="path-effect3045"
       effect="spiro" />
    <inkscape:path-effect
       effect="spiro"
       id="path-effect3041"
       is_visible="true" />
    <radialGradient
       id="rg"
       gradientUnits="userSpaceOnUse"
       cx="220"
       cy="220"
       r="405">
      <stop
         style="stop-color:#fff;stop-opacity:.3"
         offset="0"
         id="stop7" />
      <stop
         style="stop-color:#fff;stop-opacity:.2"
         offset=".2"
         id="stop9" />
      <stop
         style="stop-color:#666;stop-opacity:.1"
         offset=".6"
         id="stop11" />
      <stop
         style="stop-color:#000;stop-opacity:.13"
         offset="1"
         id="stop13" />
    </radialGradient>
    <path
       id="shield"
       d="m2,2v257c0,286 298,398 298,398c0,0 298-112 298-398V2z" />
    <radialGradient
       inkscape:collect="always"
       xlink:href="#rg-7"
       id="radialGradient3055-1"
       gradientUnits="userSpaceOnUse"
       cx="220"
       cy="220"
       r="405" />
    <radialGradient
       id="rg-7"
       gradientUnits="userSpaceOnUse"
       cx="220"
       cy="220"
       r="405">
      <stop
         style="stop-color:#fff;stop-opacity:.3"
         offset="0"
         id="stop7-4" />
      <stop
         style="stop-color:#fff;stop-opacity:.2"
         offset=".2"
         id="stop9-0" />
      <stop
         style="stop-color:#666;stop-opacity:.1"
         offset=".6"
         id="stop11-9" />
      <stop
         style="stop-color:#000;stop-opacity:.13"
         offset="1"
         id="stop13-4" />
    </radialGradient>
    <radialGradient
       r="405"
       cy="220"
       cx="220"
       gradientUnits="userSpaceOnUse"
       id="radialGradient3074"
       xlink:href="#rg-7"
       inkscape:collect="always" />
    <inkscape:path-effect
       is_visible="true"
       id="path-effect10120-1"
       effect="spiro" />
    <inkscape:path-effect
       effect="spiro"
       id="path-effect10118-3"
       is_visible="true" />
    <inkscape:path-effect
       effect="spiro"
       id="path-effect10116-9"
       is_visible="true" />
    <inkscape:path-effect
       effect="spiro"
       id="path-effect10114-7"
       is_visible="true" />
    <inkscape:path-effect
       effect="spiro"
       id="path-effect10112-7"
       is_visible="true" />
    <inkscape:path-effect
       effect="spiro"
       id="path-effect10110-2"
       is_visible="true" />
    <linearGradient
       inkscape:collect="always"
       xlink:href="#linearGradient4719-5"
       id="linearGradient4039"
       gradientUnits="userSpaceOnUse"
       gradientTransform="matrix(2.3257341,0,0,2.2943177,447.69485,-1820.2799)"
       x1="-145.25935"
       y1="984.24286"
       x2="-64.14286"
       y2="984.14789" />
    <linearGradient
       inkscape:collect="always"
       id="linearGradient4719-5">
      <stop
         style="stop-color:#666666;stop-opacity:1;"
         offset="0"
         id="stop4721-5" />
      <stop
         id="stop4809-1"
         offset="0.39344174"
         style="stop-color:#666666;stop-opacity:0.74901961;" />
      <stop
         style="stop-color:#666666;stop-opacity:0;"
         offset="1"
         id="stop4723-7" />
    </linearGradient>
    <radialGradient
       inkscape:collect="always"
       xlink:href="#linearGradient4801-8"
       id="radialGradient4041"
       gradientUnits="userSpaceOnUse"
       gradientTransform="matrix(-0.72153181,1.2650715,-2.2729984,-1.2616144,1712.0113,1733.7841)"
       cx="-307.14288"
       cy="782.36218"
       fx="-307.14288"
       fy="782.36218"
       r="63" />
    <linearGradient
       inkscape:collect="always"
       id="linearGradient4801-8">
      <stop
         style="stop-color:#000000;stop-opacity:1;"
         offset="0"
         id="stop4803-2" />
      <stop
         style="stop-color:#000000;stop-opacity:0;"
         offset="1"
         id="stop4805-4" />
    </linearGradient>
    <inkscape:path-effect
       effect="spiro"
       id="path-effect10108-4"
       is_visible="true" />
    <linearGradient
       inkscape:collect="always"
       xlink:href="#linearGradient4719-5"
       id="linearGradient4044"
       gradientUnits="userSpaceOnUse"
       gradientTransform="matrix(-2.4055369,0,0,-1.6485021,142.06168,1726.5307)"
       x1="-145.25935"
       y1="984.24286"
       x2="-64.14286"
       y2="984.14789" />
    <radialGradient
       inkscape:collect="always"
       xlink:href="#linearGradient4801-8"
       id="radialGradient4046"
       gradientUnits="userSpaceOnUse"
       gradientTransform="matrix(0.74628962,-0.90897301,2.3509914,0.90648896,-1165.637,-827.11785)"
       cx="-307.14288"
       cy="782.36218"
       fx="-307.14288"
       fy="782.36218"
       r="63" />
    <inkscape:path-effect
       effect="spiro"
       id="path-effect10102-7"
       is_visible="true" />
    <linearGradient
       inkscape:collect="always"
       xlink:href="#linearGradient4719-5"
       id="linearGradient4049"
       gradientUnits="userSpaceOnUse"
       gradientTransform="matrix(2.334989,0,0,-1.6146975,449.44065,1692.189)"
       x1="-145.25935"
       y1="984.24286"
       x2="-64.14286"
       y2="984.14789" />
    <radialGradient
       inkscape:collect="always"
       xlink:href="#linearGradient4801-8"
       id="radialGradient4051"
       gradientUnits="userSpaceOnUse"
       gradientTransform="matrix(-0.72440295,-0.89033332,-2.2820431,0.88790031,1718.7881,-809.09364)"
       cx="-307.14288"
       cy="782.36218"
       fx="-307.14288"
       fy="782.36218"
       r="63" />
    <inkscape:path-effect
       is_visible="true"
       id="path-effect10096-8"
       effect="spiro" />
    <linearGradient
       inkscape:collect="always"
       xlink:href="#linearGradient4719-5"
       id="linearGradient4054"
       gradientUnits="userSpaceOnUse"
       gradientTransform="matrix(-2.409599,0,0,2.2818507,139.61083,-1810.8163)"
       x1="-145.25935"
       y1="984.24286"
       x2="-64.14286"
       y2="984.14789" />
    <radialGradient
       inkscape:collect="always"
       xlink:href="#linearGradient4801-8"
       id="radialGradient4056"
       gradientUnits="userSpaceOnUse"
       gradientTransform="matrix(0.74754985,1.2581972,2.3549614,-1.2547588,-1170.296,1723.935)"
       cx="-307.14288"
       cy="782.36218"
       fx="-307.14288"
       fy="782.36218"
       r="63" />
    <inkscape:path-effect
       is_visible="true"
       id="path-effect10090-3"
       effect="spiro" />
    <inkscape:path-effect
       effect="spiro"
       id="path-effect10084-1"
       is_visible="true" />
    <inkscape:path-effect
       effect="spiro"
       id="path-effect10082-1"
       is_visible="true" />
    <radialGradient
       inkscape:collect="always"
       xlink:href="#linearGradient4801-8"
       id="radialGradient4061"
       gradientUnits="userSpaceOnUse"
       gradientTransform="matrix(-0.76516322,1.2901254,-2.4104477,-1.2865998,1806.8444,1757.4704)"
       cx="-307.14288"
       cy="782.36218"
       fx="-307.14288"
       fy="782.36218"
       r="63" />
    <inkscape:path-effect
       effect="spiro"
       id="path-effect10080-4"
       is_visible="true" />
    <inkscape:path-effect
       is_visible="true"
       id="path-effect3075-1"
       effect="spiro" />
    <inkscape:path-effect
       effect="spiro"
       id="path-effect3101-7"
       is_visible="true" />
  </defs>
  <g
     inkscape:groupmode="layer"
     id="layer2"
     inkscape:label="Elements"
     style="display:inline">
    <path
       d="M 598,2 V 259 C 598,545 300,657 300,657 300,657 2,545 2,259 V 2 z"
       id="background"
       inkscape:connector-curvature="0"
       style="fill:#0000cc;display:inline" />
    <path
       style="fill:#ffdd00;display:inline"
       inkscape:connector-curvature="0"
       d="M 2,2 2,150 598,150 598,2 2,2 z"
       id="path23" />
    <g
       id="g3125"
       style="stroke-width:2;stroke-miterlimit:4;stroke-dasharray:none;display:inline">
      <path
         style="fill:#ffdd00;fill-opacity:1;stroke:#000000;stroke-width:2;stroke-linecap:butt;stroke-linejoin:miter;stroke-miterlimit:4;stroke-opacity:1;stroke-dasharray:none"
         d="m 100.81932,305.86546 93.45392,-80.03302 c 0,0 1.28624,15.00335 1.3983,20.11509 0.11216,5.1118 -0.65085,5.42365 -0.26851,10.51094 0.38234,5.08729 1.36541,12.39089 3.51022,19.78657 2.14491,7.39573 5.59107,16.39779 9.90051,24.157 4.30945,7.75922 8.04782,12.596 15.88337,22.01507 7.83555,9.41906 32.03545,33.5193 32.03545,33.5193 l 129.68082,141.19202 40.03811,42.13796 -12.58732,13.6383 c 0,0 -194.28005,-207.573 -206.5321,-216.97137 -12.25205,-9.39838 -8.54636,-6.0804 -12.5795,-9.11809 -4.03325,-3.03776 -6.84803,-5.91386 -11.62409,-9.09374 -4.77596,-3.17983 -11.14861,-6.90175 -17.15635,-9.61753 -6.00763,-2.71573 -12.49982,-4.98075 -18.76333,-6.59887 -6.26352,-1.61813 -10.72713,-3.53989 -18.66016,-3.15409 -7.93303,0.38581 -27.72945,7.51441 -27.72945,7.51441 z"
         id="path17051"
         inkscape:connector-curvature="0"
         sodipodi:nodetypes="cczzzzzcccczzzzzzcc" />
      <path
         style="fill:#ffdd00;fill-opacity:1;stroke:#000000;stroke-width:2;stroke-linecap:butt;stroke-linejoin:miter;stroke-miterlimit:4;stroke-opacity:1;stroke-dasharray:none"
         d="m 62.280456,317.31077 c -14.057952,-14.55266 6.555002,-35.02421 14.647137,-49.34607 8.092136,-14.32186 19.306962,-26.71356 29.642717,-37.48896 10.33576,-10.77541 25.20667,-27.00145 39.90395,-34.93197 14.69739,-7.93046 22.70325,-11.91428 32.87895,-14.45838 10.1756,-2.54417 22.4876,-6.96456 27.96028,-1.58031 5.47267,5.38425 -2.17552,18.76 -6.11284,29.67598 -3.93733,10.91597 -9.9543,23.22578 -18.4804,34.71446 -8.5261,11.48867 -22.16721,23.70947 -32.96547,32.81448 -10.79827,9.10501 -16.6567,14.83226 -31.16319,22.15152 -14.5065,7.31926 -42.253182,33.0019 -56.311134,18.44925 z"
         id="path17045"
         inkscape:connector-curvature="0"
         sodipodi:nodetypes="zzzzzzzzzzz" />
      <path
         style="fill:none;stroke:#000000;stroke-width:2;stroke-linecap:butt;stroke-linejoin:miter;stroke-miterlimit:4;stroke-opacity:1;stroke-dasharray:none"
         d="m 81.428879,301.35409 c 0,0 14.551384,-6.56677 23.049431,-11.45864 8.49805,-4.89187 18.00051,-10.34716 27.62068,-18.22618 9.62017,-7.87902 21.38022,-20.52581 29.24656,-29.46732 7.86622,-8.94157 13.26293,-16.15902 18.38829,-23.62535 5.12536,-7.46634 12.58174,-20.9053 12.58174,-20.9053"
         id="path17047"
         inkscape:connector-curvature="0"
         sodipodi:nodetypes="czzzzc" />
      <path
         style="fill:#000000;stroke:#000000;stroke-width:2;stroke-linecap:butt;stroke-linejoin:miter;stroke-miterlimit:4;stroke-opacity:1;stroke-dasharray:none"
         d="m 114.63077,281.74067 c 0,0 3.32384,-9.09693 6.30031,-14.56389 2.97679,-5.46679 7.2678,-12.68543 11.93037,-17.86217 4.66257,-5.17675 9.541,-9.26525 15.6304,-12.98686 6.08939,-3.72161 16.29308,-8.31975 20.68778,-8.84172 4.3946,-0.52202 3.99859,0.67587 3.99859,0.67587 0,0 -12.73879,16.74238 -20.52469,24.90937 -7.7859,8.167 -19.44756,19.51453 -26.23345,23.80736 -6.78579,4.29287 -11.78931,4.86204 -11.78931,4.86204 z"
         id="path17049"
         inkscape:connector-curvature="0"
         sodipodi:nodetypes="czzzzczzc" />
      <path
         sodipodi:nodetypes="cczzzzzcccczzzzzzcc"
         inkscape:connector-curvature="0"
         id="path3078"
         d="m 499.18068,305.86546 -93.45392,-80.03302 c 0,0 -1.28624,15.00335 -1.3983,20.11509 -0.11216,5.1118 0.65085,5.42365 0.26851,10.51094 -0.38234,5.08729 -1.36541,12.39089 -3.51022,19.78657 -2.14491,7.39573 -5.59107,16.39779 -9.90051,24.157 -4.30945,7.75922 -8.04782,12.596 -15.88337,22.01507 -7.83555,9.41906 -32.03545,33.5193 -32.03545,33.5193 l -129.68082,141.19202 -40.03811,42.13796 12.58732,13.6383 c 0,0 194.28005,-207.573 206.5321,-216.97137 12.25205,-9.39838 8.54636,-6.0804 12.5795,-9.11809 4.03325,-3.03776 6.84803,-5.91386 11.62409,-9.09374 4.77596,-3.17983 11.14861,-6.90175 17.15635,-9.61753 6.00763,-2.71573 12.49982,-4.98075 18.76333,-6.59887 6.26352,-1.61813 10.72713,-3.53989 18.66016,-3.15409 7.93303,0.38581 27.72945,7.51441 27.72945,7.51441 z"
         style="fill:#ffdd00;fill-opacity:1;stroke:#000000;stroke-width:2;stroke-linecap:butt;stroke-linejoin:miter;stroke-miterlimit:4;stroke-opacity:1;stroke-dasharray:none" />
      <path
         sodipodi:nodetypes="zzzzzzzzzzz"
         inkscape:connector-curvature="0"
         id="path3080"
         d="m 537.71954,317.31077 c 14.05796,-14.55266 -6.555,-35.02421 -14.64713,-49.34607 -8.09214,-14.32186 -19.30697,-26.71356 -29.64272,-37.48896 -10.33576,-10.77541 -25.20667,-27.00145 -39.90395,-34.93197 -14.69739,-7.93046 -22.70325,-11.91428 -32.87895,-14.45838 -10.1756,-2.54417 -22.4876,-6.96456 -27.96028,-1.58031 -5.47267,5.38425 2.17552,18.76 6.11284,29.67598 3.93733,10.91597 9.9543,23.22578 18.4804,34.71446 8.5261,11.48867 22.16721,23.70947 32.96547,32.81448 10.79827,9.10501 16.6567,14.83226 31.16319,22.15152 14.5065,7.31926 42.25318,33.0019 56.31113,18.44925 z"
         style="fill:#ffdd00;fill-opacity:1;stroke:#000000;stroke-width:2;stroke-linecap:butt;stroke-linejoin:miter;stroke-miterlimit:4;stroke-opacity:1;stroke-dasharray:none" />
      <path
         sodipodi:nodetypes="czzzzc"
         inkscape:connector-curvature="0"
         id="path3082"
         d="m 518.57112,301.35409 c 0,0 -14.55138,-6.56677 -23.04943,-11.45864 -8.49805,-4.89187 -18.00051,-10.34716 -27.62068,-18.22618 -9.62017,-7.87902 -21.38022,-20.52581 -29.24656,-29.46732 -7.86622,-8.94157 -13.26293,-16.15902 -18.38829,-23.62535 -5.12536,-7.46634 -12.58174,-20.9053 -12.58174,-20.9053"
         style="fill:none;stroke:#000000;stroke-width:2;stroke-linecap:butt;stroke-linejoin:miter;stroke-miterlimit:4;stroke-opacity:1;stroke-dasharray:none" />
      <path
         sodipodi:nodetypes="czzzzczzc"
         inkscape:connector-curvature="0"
         id="path3084"
         d="m 485.36923,281.74067 c 0,0 -3.32384,-9.09693 -6.30031,-14.56389 -2.97679,-5.46679 -7.2678,-12.68543 -11.93037,-17.86217 -4.66257,-5.17675 -9.541,-9.26525 -15.6304,-12.98686 -6.08939,-3.72161 -16.29308,-8.31975 -20.68778,-8.84172 -4.3946,-0.52202 -3.99859,0.67587 -3.99859,0.67587 0,0 12.73879,16.74238 20.52469,24.90937 7.7859,8.167 19.44756,19.51453 26.23345,23.80736 6.78579,4.29287 11.78931,4.86204 11.78931,4.86204 z"
         style="fill:#000000;stroke:#000000;stroke-width:2;stroke-linecap:butt;stroke-linejoin:miter;stroke-miterlimit:4;stroke-opacity:1;stroke-dasharray:none" />
    </g>
    <g
       style="display:inline"
       id="g3121"
       transform="matrix(0.26742973,0,0,0.26742973,302.1435,-95.21519)">
      <path
         id="path21"
         d="m 718.53039,517.31998 c -1.44,-0.18 -5.32,-0.96 -8.64,-1.74 -5.73,-1.35 -6.42,-1.8 -13.72,-8.9 -8.93,-8.7 -9.93,-11.08 -2.97,-7.1 7.24,4.14 23.47,9.43 31,10.1 12.85,1.13 32.4,-8.36 41.36,-16.9 1.32,-0.18 2.03,-0.46 3.2,-0.6 l -8.94,9.08 3.65,0.27 c 4.13,0.3 7.4,3.53 6.35,6.25 -0.52,1.36 -0.7,1.3 -1.58,-0.48 -0.6,-1.22 -2.24,-2.32 -4.15,-2.8 -4.2,-1.04 -9.62,0.77 -20.54,6.87 -10.8,6.02 -15.52,7.14 -25.03,5.96 z m -143.5,-62.4 c 0.63,-0.64 -1.72,-0.3 -6.04,0.87 -0.86,0.23 -1.53,-0.06 -1.53,-0.66 0,-0.58 -0.2,-0.86 -0.46,-0.6 -0.24,0.24 -0.2,1.04 0.07,1.77 0.42,1.12 1.04,1.17 3.88,0.33 1.85,-0.55 3.7,-1.32 4.08,-1.7 z m 60.12,7.8 c 0.28,-0.3 -0.3,-0.54 -1.28,-0.54 -1.04,0 -2.92,-1.4 -4.43,-3.26 -2.55,-3.18 -2.76,-3.26 -7.98,-3.1 -4.63,0.12 -5.3,-0.05 -4.83,-1.27 0.44,-1.15 0.2,-1.1 -1.27,0.23 -1.54,1.4 -1.62,1.75 -0.5,2.37 0.7,0.4 1.1,1.26 0.84,1.9 -0.25,0.65 0.62,2.03 1.94,3.06 2.12,1.66 3.2,1.82 9.68,1.5 4.02,-0.22 7.54,-0.62 7.83,-0.9 z m -38.5,0.3 c 1.9,-0.63 5.82,-1.6 8.7,-2.2 4.22,-0.84 4.64,-1.06 2.17,-1.13 -4.36,-0.13 -12.37,1.9 -16.08,4.1 -1.74,1.03 -3.33,1.87 -3.52,1.87 -0.2,0 -0.6,-1.35 -0.9,-3 -0.32,-1.67 -1.2,-3.53 -1.94,-4.15 -1.2,-1 -1.23,-0.9 -0.34,0.78 0.56,1.04 1,2.7 1,3.7 0,1 0.48,2.56 1.05,3.47 1,1.6 1.1,1.6 3.7,-0.34 1.45,-1.1 4.22,-2.5 6.14,-3.1 z m 20.87,20.6 c -1.24,-1.9 -6.42,-5 -10.22,-6.13 -0.84,-0.25 -1.56,-1.35 -1.6,-2.44 -0.1,-1.92 -0.1,-1.92 -0.75,0.2 -0.8,2.64 -0.53,2.92 3.88,4.17 1.9,0.54 4.85,2.16 6.53,3.6 3.7,3.17 3.88,3.22 2.16,0.6 z m 52.87,8.38 c -0.23,-2.92 -0.76,-4.57 -1.47,-4.57 -0.6,0 -2.16,-0.82 -3.46,-1.84 -3.5,-2.76 -1.63,-3.93 3.5,-2.17 5.02,1.7 6.3,1.1 1.72,-0.8 -6.68,-2.8 -12.67,0.36 -6.64,3.48 1.47,0.76 2.67,1.86 2.68,2.44 0.03,1.32 3.4,8.86 3.75,8.38 0.13,-0.2 0.1,-2.4 -0.1,-4.92 z m -184.77,120.52 c 0,-0.64 0.92,-3 2.06,-5.23 1.12,-2.23 1.74,-4.06 1.37,-4.06 -0.76,0 -4.3,7 -4.3,8.5 0,0.53 -1.1,1.13 -2.4,1.33 -2.24,0.34 -2.2,0.37 0.43,0.5 1.84,0.08 2.83,-0.28 2.83,-1.03 z m -20.75,35.07 c 1.17,-3.36 0.63,-3.87 -3.77,-3.55 l -3.53,0.26 2.63,-3.34 c 2.8,-3.55 5.4,-10.23 5.4,-13.88 0,-1.48 1.16,-3.25 3.5,-5.34 3.53,-3.18 5.85,-8.63 4.8,-11.34 -0.34,-0.9 0.87,-2.53 3.65,-4.9 12.7,-10.9 20.9,-21.4 31.84,-40.8 3.4,-6.03 4.77,-7.66 7.5,-8.9 3.18,-1.42 3.52,-1.42 6.52,0 3.53,1.67 6.05,4.8 6.98,8.63 0.73,3.02 2.77,6.1 8.46,12.77 l 4.16,4.86 0,9.12 c 0,7.36 0.43,10.48 2.22,16.15 1.42,4.5 2.2,8.86 2.13,12.13 -0.06,3.5 0.48,6.35 1.7,9.03 3.05,6.6 2.15,8.1 -4.26,7.14 -2.14,-0.3 -4.3,-1.8 -7.78,-5.3 l -4.8,-4.9 -4.17,-21.32 c -3.33,-17.1 -4.63,-22.1 -6.53,-25.18 -1.3,-2.12 -2.76,-3.98 -3.24,-4.13 -0.48,-0.16 -2.24,1.73 -3.92,4.2 -1.68,2.47 -5.1,7.08 -7.64,10.23 -5.35,6.7 -9.77,15.02 -9.77,18.4 0,2.64 2.42,4.2 3.67,2.4 0.5,-0.76 0.67,-0.42 0.5,1.04 -0.15,1.27 -1.08,2.54 -2.2,3.04 -1.58,0.7 -1.97,1.56 -1.97,4.4 0,1.95 -0.54,4.3 -1.2,5.2 -1.14,1.55 -1.22,1.53 -1.84,-0.5 -0.72,-2.4 -2.92,-5.17 -4.08,-5.17 -0.43,0 -0.36,0.77 0.13,1.7 1.4,2.6 1.07,6.6 -0.7,8.2 -2.14,1.94 -2.58,1.8 -2.1,-0.65 0.78,-4.14 -3.4,-8.44 -6.2,-6.38 -1.18,0.87 -1.27,1.6 -0.54,4.1 1.6,5.46 1.34,9.5 -0.7,11.55 l -1.87,1.87 -0.98,-2.8 c -1.28,-3.7 -2.28,-3.55 -1.83,0.26 0.86,7.4 -3.3,14.36 -8.57,14.36 -2.4,0 -2.46,-0.1 -1.57,-2.65 z m 174.1,-26.34 1.7,-3.32 4.63,4.2 c 2.55,2.3 5.96,4.9 7.6,5.78 l 2.94,1.6 -3.05,-2.78 c -8.86,-8.06 -9.54,-8.96 -13.2,-17.42 -3.84,-8.85 -5.04,-10.5 -3.42,-4.63 1.78,6.42 1.18,12.43 -1.85,18.58 -1.54,3.12 -2.96,6.05 -3.16,6.53 -0.97,2.32 6.33,-5.65 7.8,-8.53 z m -64.98,31.52 c 5.57,-1.95 10.2,-4.12 11.08,-5.18 1.7,-2.1 3.3,-7.2 3.24,-10.4 -0.03,-1.6 -0.52,-0.95 -1.8,2.37 -2.08,5.42 -3.6,6.6 -16.63,12.9 -10.84,5.24 -10.15,5.3 4.1,0.3 z m 80.17,22.57 c 4.5,-1.53 8,-2.96 7.76,-3.2 -0.23,-0.23 -3.57,0.3 -7.42,1.18 -6.28,1.44 -8,1.5 -16.76,0.54 -20.2,-2.2 -24.67,-2.88 -29.33,-4.46 -2.63,-0.9 -4.9,-1.5 -5.04,-1.36 -0.87,0.88 7.4,3.42 17.36,5.35 6.4,1.24 13.96,2.77 16.84,3.4 7.36,1.64 7.5,1.62 16.6,-1.45 z m -156.66,52.92 c 0.06,-0.05 0.28,-2.55 0.5,-5.55 0.44,-6.52 -1.08,-6.05 -1.7,0.52 -0.33,3.3 -0.87,4.54 -2.3,5.25 -1.6,0.82 -1.5,0.87 0.77,0.4 1.44,-0.3 2.66,-0.57 2.73,-0.63 z m 217.25,10.47 c 2.56,-1.1 6,-2.28 7.65,-2.6 6,-1.15 6.8,-2.3 7.2,-10.3 0.22,-3.98 0.65,-8 0.98,-8.97 0.33,-0.96 -0.23,-0.02 -1.25,2.1 -1,2.1 -2.1,5.58 -2.4,7.73 -0.3,2.15 -1.15,4.2 -1.87,4.57 -0.72,0.36 -4.25,2.05 -7.84,3.76 -7.1,3.37 -15.85,9.82 -17.5,12.9 -0.68,1.28 0.88,0.4 4.68,-2.62 3.14,-2.5 7.8,-5.45 10.35,-6.57 z m -37.88,88.22 c -2.9,-2.3 -2.92,-4.5 -0.06,-13.45 3.23,-10.07 2.64,-12.85 -4.35,-20.3 -3,-3.2 -5.7,-6.4 -5.96,-7.12 -0.32,-0.8 -0.53,-0.48 -0.57,0.87 -0.07,2.54 1.6,5.1 6.7,10.26 4.5,4.57 4.72,7.32 1.43,16.75 -3,8.58 -2.02,13.3 3.1,14.98 2.25,0.75 2.12,-0.1 -0.3,-1.98 z m 101.63,-452.75 c -0.33,0.04 -0.18,0.53 0.73,1.57 3.8,4.36 5.44,12.65 4.13,20.86 -0.86,5.42 -2.38,9.84 -3.37,9.84 -0.3,0 -1.86,-2.97 -3.5,-6.6 -3.7,-8.27 -10.3,-15.5 -15.3,-16.8 -6.6,-1.72 -14.87,2.03 -18.95,8.6 l -1.9,3.05 3.64,-3.24 c 7.13,-6.35 13.28,-8.18 18.47,-5.5 2.05,1.06 6.12,5.5 6.12,6.68 0,0.17 -1.8,0.3 -4,0.3 -3.3,0 -4.36,0.43 -6.1,2.45 -2.8,3.23 -2.68,4.65 0.2,2.4 2.47,-1.95 6.4,-2.35 9.05,-0.92 0.9,0.5 2.75,2.74 4.08,5 2.3,3.9 2.43,4.75 2.65,16.3 0.15,8.3 0.67,13.55 1.6,16.4 2.12,6.37 1.12,9.6 -7.95,25.76 -1.8,3.2 -2.63,4.8 -2.63,10.55 0,6.06 0.1,4.73 0.54,7.62 1.08,-0.64 1.4,-1.16 2.43,-2.07 0,-3.9 2.87,-12.13 7.06,-16.95 6.55,-7.54 8.3,-11.46 8.3,-18.67 0,-3.35 -0.32,-7.6 -0.7,-9.44 -1.02,-4.8 0.66,-3.34 2.48,2.14 1.12,3.29 1.42,6.39 1.12,11.75 -0.33,6.4 -0.83,8.17 -4.1,14.74 -5.15,10.42 -15.87,20.9 -27.27,26.64 l -5.1,2.57 1.85,-3.6 c 1.14,-2.22 2.14,-6.56 2.65,-11.46 0.88,-8.55 3.47,-14.37 9.2,-20.72 6.37,-7.04 9.5,-20.7 7.06,-30.6 -1.58,-6.4 -4.2,-12.28 -6.86,-15.5 -1.45,-1.76 -1.68,-1.84 -1.17,-0.44 3.68,10 4.2,21.4 1.32,27.96 -1.04,2.34 -3.12,5.8 -4.63,7.68 -1.52,1.9 -3.43,5.42 -4.26,7.84 -1.3,3.85 -1.5,4.08 -1.57,1.8 -0.1,-3.5 -2.98,-9.67 -5,-10.75 -0.9,-0.47 -3.38,-1.08 -5.52,-1.35 l -3.88,-0.48 3.4,1.28 c 4.52,1.7 5.57,2.7 6.5,6.06 1.04,3.75 -0.32,17.37 -2.53,25.54 -2.38,8.74 -5.33,14.2 -9.68,17.92 -5.88,5.04 -12.95,6.13 -22.98,3.55 -4.48,-1.14 -17.82,-6.8 -17.8,-7.53 0,-0.15 4.2,-0.27 9.35,-0.28 16.8,-0.03 25.9,-5.3 29.36,-16.97 0.6,-2 0.37,-1.92 -2.72,1.03 -4.93,4.7 -12.9,9.2 -18.33,10.32 -2.6,0.54 -5,0.75 -5.27,0.46 -0.3,-0.28 0.67,-1.8 2.14,-3.34 1.47,-1.55 3.35,-4.16 4.18,-5.8 1.9,-3.75 2.1,-10.95 0.36,-12.7 -1.1,-1.12 -1.23,-0.85 -0.93,2.23 0.7,7.23 -3.54,12.13 -13.9,16.14 -7,2.7 -11.72,3 -16.48,1 l -3,-1.27 4.98,-1.48 c 2.75,-0.82 5.22,-1.85 5.5,-2.3 0.27,-0.44 2.18,-0.8 4.23,-0.8 3.78,0 8.76,-2.76 11.85,-6.55 1.2,-1.5 1.15,-1.55 -0.88,-0.97 -1.2,0.35 -3.74,0.87 -5.65,1.15 l -3.5,0.5 2.45,-2.3 c 5.38,-5.06 6.17,-12.26 1.78,-16.3 -2.17,-2 -2.23,-2 -1.3,-0.2 0.56,1.05 1,3.47 1,5.38 0,2.84 -0.7,4.28 -3.83,7.95 -11.58,13.57 -23.5,14.5 -30.48,2.34 -4.4,-7.66 -3.45,-13.5 2.84,-17.48 3.95,-2.5 8.3,-8.33 10.17,-13.68 1.76,-4.98 1.68,-5.03 -1.77,-1 -1.68,1.95 -4.74,4.62 -6.8,5.92 -2.06,1.3 -4.43,3.56 -5.25,5 -0.83,1.43 -1.74,2.37 -2.02,2.08 -1.08,-1.1 1.67,-8.84 5.48,-15.38 3.1,-5.34 4.06,-7.95 4.43,-12 0.27,-2.85 0.1,-5.9 -0.4,-6.75 -0.68,-1.23 -0.88,-0.6 -0.88,2.78 0,5.08 -1.37,8.04 -6.77,14.67 -9.12,11.2 -10.8,20.1 -6,31.6 l 1.3,3.15 -2.08,-1.96 c -4.86,-4.57 -10,-18.47 -8.8,-23.87 0.3,-1.46 2.04,-4.26 3.83,-6.22 1.8,-1.97 3.92,-5.54 4.73,-7.93 1.96,-5.78 2.77,-14.52 1.54,-16.64 -0.76,-1.3 -0.96,-1.35 -0.98,-0.27 -0.08,3.2 -2.88,10.53 -5.54,14.44 -1.58,2.32 -3.3,5.6 -3.82,7.27 -0.86,2.75 -0.96,2.33 -1.03,-4.36 -0.07,-6.47 0.35,-8.62 3.32,-17.2 1.86,-5.38 3.28,-9.8 3.16,-9.8 -0.5,0 -9.23,14.72 -10.4,17.53 -0.68,1.64 -1.67,5.3 -2.2,8.2 -0.8,4.48 -0.7,6.06 0.8,11.3 0.97,3.35 1.75,6.4 1.75,6.8 0,0.84 -6.68,-2.8 -7.96,-4.34 -0.5,-0.6 -1.48,-3.93 -2.2,-7.43 -2.64,-12.97 -10.33,-20.3 -16.64,-15.88 -1.06,0.75 -1.93,1.8 -1.93,2.35 0,0.72 0.3,0.7 1.04,-0.05 2.15,-2.15 6.46,-1.22 9.27,1.98 2.7,3.07 3.16,4.63 4.1,13.8 0.6,6.13 1.92,9.3 3.85,9.3 2.26,0 9.16,4.75 11.57,7.96 2.56,3.4 6.16,10.32 5.64,10.84 -0.2,0.2 -3.8,-1.26 -8,-3.23 -7.28,-3.4 -8.02,-3.56 -15.5,-3.46 -4.3,0.06 -8.2,0.34 -8.66,0.62 -1.4,0.87 -23.75,0.6 -39.24,-0.48 -8.03,-0.56 -14.98,-0.78 -15.45,-0.5 -0.46,0.3 -0.84,3.6 -0.84,7.32 0,7.7 0.62,8.66 6.75,10.4 4.27,1.23 6.58,4.1 6.16,7.7 -0.22,1.97 -0.77,2.5 -2.8,2.73 -1.4,0.16 -4.05,-0.4 -5.9,-1.23 -3.85,-1.74 -4.64,-1.36 -3.84,1.83 0.65,2.58 4.4,4.5 10.47,5.33 3.1,0.43 4.33,0.16 6.56,-1.43 3.4,-2.42 8.15,-2.48 13.26,-0.17 4.78,2.17 6.93,4.28 9.9,9.73 2.5,4.6 8.04,9.03 12.54,10.02 6.4,1.4 19.28,-5.28 21.8,-11.32 0.63,-1.48 0.74,-1.5 0.8,-0.22 0.08,2.6 -5.78,8.13 -11.25,10.6 -2.86,1.27 -9.37,3.27 -14.47,4.42 -5.1,1.15 -24.919,7.5 -37.829,17.32 -12.57,9.57 -30.931,27.78 -33.051,69.8 l 1.77,6.5 c 0.98,3.58 2,7.8 2.3,9.38 l 0.54,2.88 2.17,-3.75 c 2.92,-5.05 11.7,-14 17.83,-18.22 4.7,-3.2 4.43,-2.86 -4,5.53 -6.74,6.7 -9.7,10.38 -11.77,14.64 -4,8.15 -4.23,10.77 -1.53,17.52 1.25,3.1 2.27,6.12 2.27,6.7 0,2.05 -4.3,7.8 -8.85,11.77 -6.02,5.25 -22.4,13.44 -27.94,13.96 -4.05,0.38 -7.5,2.2 -10.36,5.42 -0.9,1.03 -2.25,6.58 -3.7,15.2 -3.3,19.87 -5.34,25.42 -14.96,40.8 -1.98,3.15 -2.7,5.03 -2.1,5.6 1.6,1.62 0.97,8.62 -1.07,11.85 -1.64,2.6 -1.94,4.3 -1.96,11.36 0,6.55 -0.36,8.82 -1.6,10.74 -2.07,3.14 -1.3,3.8 2.37,2.06 3.48,-1.66 4,-1.33 4,2.54 0,3.7 2.23,3.9 5.66,0.5 5.37,-5.3 7.17,-16.46 3.96,-24.52 -1.87,-4.7 -1.87,-4.73 -0.17,-6.42 1.7,-1.7 1.72,-1.7 3.96,0.54 1.23,1.24 2.24,3.05 2.24,4.03 0,2.46 1.26,2.24 2.47,-0.43 1.4,-3.05 1.34,-3.38 -1.23,-6.43 -1.85,-2.2 -2,-2.68 -0.78,-2.68 0.8,0 2.57,1.2 3.93,2.65 l 2.48,2.65 0.6,-3.1 c 0.4,-2.1 0.17,-3.7 -0.68,-5 -1.16,-1.73 -1.08,-2.05 0.9,-3.75 1.78,-1.54 2,-2.15 1.18,-3.53 -0.53,-0.93 -0.98,-1.2 -1,-0.6 -0.04,1.96 -2.65,1.15 -3.7,-1.14 -1.2,-2.66 0.03,-11.24 2.86,-19.8 4.08,-12.28 7.2,-20.28 8.54,-21.8 3.7,-4.23 10.3,-5.7 34.07,-7.55 26.85,-2.1 39,-4.92 43.7,-10.13 0.8,-0.9 1.87,-4.12 2.36,-7.17 1.2,-7.54 1.9,-7.77 1.26,-0.43 -0.75,8.62 -1.53,9.76 -8.38,12.46 l -5.9,2.32 8.94,8.78 c 10.25,10.05 17.45,15.03 25.75,17.78 13.3,4.4 17.42,7.26 21.9,15.2 1.47,2.6 2.82,4.74 3,4.74 0.8,0 11.32,-19.73 12.56,-23.6 2.02,-6.33 4.9,-8.13 13.22,-8.3 3.6,-0.08 5.16,0.02 3.48,0.22 -10.52,1.23 -11,1.7 -20.2,19.84 l -7.1,14.02 -0.22,23.07 c -0.12,12.7 0.17,25.4 0.65,28.22 0.48,2.83 2.46,8.7 4.4,13 4.3,9.5 8.53,23.84 8.53,28.76 0,10.64 -10.94,15.27 -43.44,18.4 -17.93,1.74 -20.85,2.55 -23.16,6.44 -3.03,5.1 -5.96,7.6 -11.28,9.58 -2.83,1.06 -6.43,3.04 -8,4.4 -2.97,2.63 -3.3,2.76 -10.55,4.4 -2.5,0.58 -4.57,1.38 -4.57,1.8 0,1.36 4.03,3.46 7.9,4.12 l 3.77,0.64 -3.83,2.8 c -2.1,1.56 -4.14,2.83 -4.52,2.83 -0.4,0 -0.7,0.44 -0.7,0.98 0,1.8 15.5,0.48 20.6,-1.77 5.37,-2.34 7.38,-4.37 8.58,-8.62 0.57,-2 1.8,-3.64 3.32,-4.48 2.3,-1.26 2.52,-1.22 4.12,0.72 2.04,2.5 2.15,5.17 0.33,7.77 -2.42,3.45 0.9,2.32 3.92,-1.34 2.58,-3.13 2.72,-3.18 3.22,-1.3 0.95,3.6 2.92,1.6 2.92,-3 0,-1.64 0.35,-2.07 1.37,-1.68 1.97,0.76 4.73,-0.98 4.73,-2.98 0,-1.48 -0.24,-1.58 -1.67,-0.68 -2.15,1.34 -4.44,-0.34 -4.44,-3.24 0,-1.68 0.66,-2.14 4.14,-2.88 12.2,-2.6 40.56,-5.3 56.37,-5.37 9.75,-0.03 14.27,-1.04 16.26,-3.63 2.63,-3.4 2.83,-7.25 0.8,-15.37 -2.1,-8.53 -2.2,-10.22 -1.56,-25.5 0.54,-12.77 1.7,-15.87 8.28,-22.27 5.05,-4.9 11.96,-8.22 23.1,-11.1 18.02,-4.65 22.7,-8.53 27.67,-23 1.1,-3.15 1.64,-7.23 1.66,-12.22 0.03,-6.77 0.15,-7.32 1.3,-5.8 0.85,1.12 1.3,3.8 1.3,7.84 0.02,7.4 0.9,9.43 2.6,5.96 l 1.2,-2.42 0.3,2.17 c 0.47,3.25 2.08,6.96 3.03,6.96 0.46,0 0.6,-1.08 0.34,-2.4 -0.28,-1.3 -0.1,-2.98 0.36,-3.7 0.78,-1.16 0.97,-1.16 1.73,0 1.3,2 1.05,6.35 -0.52,8.6 -1.35,1.93 -1.33,2 0.65,1.7 1.26,-0.17 2.54,-1.3 3.3,-2.88 l 1.24,-2.6 0.97,2.93 c 1.1,3.3 4.2,6.2 6.63,6.2 1.5,0 1.45,-0.25 -0.48,-3.1 -1.15,-1.7 -2.55,-5.32 -3.1,-8.05 -3.03,-14.67 -5.32,-18.8 -14.94,-26.8 -3.5,-2.9 -6.82,-6.24 -7.4,-7.4 -0.55,-1.16 -3.27,-6.8 -6,-12.55 -6.06,-12.65 -11.17,-18.15 -24.33,-26.2 -25.05,-15.32 -29.46,-18.28 -34.03,-22.83 -3,-3 -10.66,-13.52 -19.3,-26.52 -7.86,-11.87 -10.84,-18.07 -17.05,-23.67 -3.4,-3.08 -7.8,-9.8 -8.02,-18.6 -0.5,-18.48 18.55,-37.8 27.18,-46.9 -0.2,-0.2 -1.87,0.68 -3.72,1.95 -3.6,2.46 -15.1,8.48 -15.1,7.9 0,-0.2 2.73,-1.98 6.1,-3.97 3.34,-2 8.38,-5.53 11.2,-7.87 5.43,-4.53 7.1,-8.2 7.04,-15.44 -0.02,-3.04 -0.46,-3.63 -5.3,-7.14 -5.85,-4.25 -6.9,-6.16 -6.75,-12.12 l 0.1,-4.08 0.68,4.8 c 0.83,5.75 2.77,7.68 15.3,15.26 7.72,4.67 8.76,5.05 14.77,5.44 3.56,0.23 6.47,0.13 6.47,-0.2 0,-0.36 -1.3,-2.16 -2.88,-4 -1.6,-1.85 -4.4,-6.15 -6.27,-9.54 -4.28,-7.82 -8.4,-12.66 -12.66,-14.82 -1.82,-0.94 -3.57,-2.12 -3.9,-2.63 -0.3,-0.5 1.52,0.17 4.06,1.5 2.6,1.4 7.86,5.73 12.05,9.96 8.18,8.25 12.3,10.72 24.56,14.73 13.5,4.4 24.7,2.9 42.08,-5.7 7.3,-3.6 11.08,-4.92 15.88,-5.55 7.77,-1.04 13.73,-4.27 21.04,-11.42 5.37,-5.26 9.2,-6.93 13.07,-5.7 1.37,0.44 1.82,1.3 1.82,3.52 0,1.6 -0.4,3.18 -0.87,3.47 -0.48,0.3 -0.87,0.98 -0.87,1.5 0,0.54 1,0.06 2.18,-1.06 1.48,-1.4 2.18,-3 2.18,-4.95 0,-3.03 -2.5,-6.38 -4.74,-6.38 -3,0 -1.7,-1.76 4.67,-6.43 7.02,-5.14 10.8,-9.18 13.57,-14.47 2.3,-4.4 2.75,-15.1 0.95,-22.5 l -1.44,-5.9 2.77,-6.48 c 4.56,-10.7 3.75,-18 -3.02,-27.15 -3,-4.05 -10.15,-8.4 -15.65,-9.5 -6.26,-1.24 -8.66,0.14 -3.1,1.8 5.27,1.58 12.17,8.8 14.6,15.24 1.47,3.95 1.84,6.58 1.64,11.72 l -0.25,6.62 -3.3,-4.93 c -5.03,-7.5 -11.86,-11.95 -18.46,-11.97 -2.36,0 -2.16,0.2 2.15,2.35 4.95,2.46 5.87,3.7 10.25,13.7 1.05,2.38 3.47,6.83 5.38,9.87 6.12,9.75 6.76,19 1.8,26.38 -2.45,3.7 -8.43,9.13 -9.2,8.37 -0.2,-0.2 0.62,-4.3 1.82,-9.08 2.08,-8.24 2.13,-8.9 0.85,-12.52 -1.76,-5 -4.96,-10.4 -7.44,-12.58 -1.97,-1.74 -1.97,-1.74 -1.2,0 0.67,1.56 1.52,19.47 1.42,30.24 -0.07,8.27 -9.26,20.02 -20.2,25.86 l -5.46,2.9 3.98,-5.58 c 4.98,-6.97 10.74,-18.76 11.54,-23.62 0.63,-3.83 1.75,-5.86 3.22,-5.86 0.52,0 0.64,1.32 0.3,3.27 -0.5,3.04 -0.45,3.15 0.8,1.57 0.7,-0.93 1.3,-3.18 1.3,-5 0,-3.12 -0.5,-3.7 -3.04,-3.44 -0.47,0.05 -0.9,-1.8 -0.93,-4.14 -0.07,-4.93 -3.7,-13.1 -6.96,-15.65 -2.45,-1.94 -2.64,-3.55 -0.8,-7.1 2.25,-4.35 4.77,-16.68 4.77,-23.4 0,-8.2 -1.37,-12.73 -5,-16.35 -1.87,-1.87 -3.7,-3.02 -4.25,-2.94 z m -7.8,443.34 c 0.24,-0.4 -0.52,-0.56 -1.7,-0.34 -1.9,0.37 -2.4,-0.14 -4.26,-4.34 -1.15,-2.6 -3.4,-5.86 -5,-7.22 -2.3,-1.95 -21.62,-12.02 -25.54,-13.3 -2.36,-0.78 3.16,2.88 6.97,4.6 8.88,4.06 19.3,12.33 21.96,17.42 0.74,1.44 1.8,2.9 2.32,3.25 1.33,0.87 4.68,0.82 5.24,-0.08 z m -44.36,86.1 c 1.73,-3.34 1.8,-3.22 -1.72,-2.8 -1.67,0.18 -3.04,0.07 -3.04,-0.27 0,-1.02 9.23,-10.88 13.97,-14.93 3.8,-3.26 5,-3.8 8.34,-3.8 4.23,0 5.36,-0.87 10.44,-7.95 6.67,-9.3 6.85,-10.03 6.85,-27.36 l 0,-15.71 -3.27,-6.6 c -4.82,-9.75 -11.12,-14.62 -18.94,-14.64 -3.38,0 -11.93,-4.44 -19.6,-10.15 -3.83,-2.85 -9.5,-6.98 -12.62,-9.16 -5.88,-4.14 -14.8,-12.95 -14.8,-14.63 0,-2.17 8.08,-9.45 12.9,-11.6 5.93,-2.68 19.08,-6.3 25.84,-7.16 l 4.8,-0.6 0,5.1 c 0.04,9.42 4.26,15.1 21.34,28.78 7.2,5.77 13.13,9.3 21.53,12.8 3.7,1.57 4.07,3.23 1.98,9.16 -2,5.67 -3.76,15.15 -5.68,30.64 -0.97,7.86 -2.15,16.64 -2.63,19.5 -1.26,7.68 -1.1,9.02 1.36,11.3 1.95,1.8 2.05,2.16 0.82,2.85 -1.2,0.66 -1.24,1.15 -0.36,3.1 0.82,1.8 0.8,2.58 -0.06,3.63 -1.4,1.7 -2.98,1.73 -2.34,0.07 0.3,-0.8 -0.23,-1.5 -1.43,-1.87 -2.33,-0.74 -2.84,-0.4 -2.5,1.66 0.34,1.96 -2.1,5.82 -3.67,5.82 -0.74,0 -1.02,-0.72 -0.78,-2 0.22,-1.13 -0.17,-2.48 -0.88,-3.07 -2.62,-2.17 -5.8,1.04 -7.58,7.7 -1.3,4.88 -3.16,7.62 -6.18,9.18 -3.83,1.98 -4.3,1.53 -2.53,-2.44 1.05,-2.34 1.36,-4 0.83,-4.52 -1.15,-1.16 -2.6,0.46 -5.18,5.86 -2.46,5.13 -5.17,6.58 -12.43,6.67 l -4.16,0.05 1.34,-2.57 z"
         inkscape:connector-curvature="0"
         style="fill:#000000;fill-rule:evenodd" />
      <path
         id="path23-1"
         d="m 621.08039,419.21998 1.42,31.36 c 20.13,3.1 35.281,9.24 54.001,20.3 l 21.719,-22.64 -15.68,0.7 c 2.16,11.83 -11.58,13.26 -13.74,1.45 -7.96,3.6 -11.57,-4.36 -8.2,-7.5 l 5.3,-2.4 -4.8,-10.6 -10.6,4.8 2.4,5.3 c 0.47,4.6 -7.5,8.2 -11.1,0.24 -9.4,7.48 -18.8,-2.66 -9.4,-10.13 z"
         inkscape:connector-curvature="0"
         style="fill:#000000;stroke:#ffdd00;stroke-width:3.73930025" />
    </g>
    <g
       transform="matrix(0.26742973,0,0,0.26742973,128.65492,-95.21519)"
       id="g3939"
       style="display:inline">
      <path
         style="fill:#000000;fill-rule:evenodd"
         inkscape:connector-curvature="0"
         d="m 718.53039,517.31998 c -1.44,-0.18 -5.32,-0.96 -8.64,-1.74 -5.73,-1.35 -6.42,-1.8 -13.72,-8.9 -8.93,-8.7 -9.93,-11.08 -2.97,-7.1 7.24,4.14 23.47,9.43 31,10.1 12.85,1.13 32.4,-8.36 41.36,-16.9 1.32,-0.18 2.03,-0.46 3.2,-0.6 l -8.94,9.08 3.65,0.27 c 4.13,0.3 7.4,3.53 6.35,6.25 -0.52,1.36 -0.7,1.3 -1.58,-0.48 -0.6,-1.22 -2.24,-2.32 -4.15,-2.8 -4.2,-1.04 -9.62,0.77 -20.54,6.87 -10.8,6.02 -15.52,7.14 -25.03,5.96 z m -143.5,-62.4 c 0.63,-0.64 -1.72,-0.3 -6.04,0.87 -0.86,0.23 -1.53,-0.06 -1.53,-0.66 0,-0.58 -0.2,-0.86 -0.46,-0.6 -0.24,0.24 -0.2,1.04 0.07,1.77 0.42,1.12 1.04,1.17 3.88,0.33 1.85,-0.55 3.7,-1.32 4.08,-1.7 z m 60.12,7.8 c 0.28,-0.3 -0.3,-0.54 -1.28,-0.54 -1.04,0 -2.92,-1.4 -4.43,-3.26 -2.55,-3.18 -2.76,-3.26 -7.98,-3.1 -4.63,0.12 -5.3,-0.05 -4.83,-1.27 0.44,-1.15 0.2,-1.1 -1.27,0.23 -1.54,1.4 -1.62,1.75 -0.5,2.37 0.7,0.4 1.1,1.26 0.84,1.9 -0.25,0.65 0.62,2.03 1.94,3.06 2.12,1.66 3.2,1.82 9.68,1.5 4.02,-0.22 7.54,-0.62 7.83,-0.9 z m -38.5,0.3 c 1.9,-0.63 5.82,-1.6 8.7,-2.2 4.22,-0.84 4.64,-1.06 2.17,-1.13 -4.36,-0.13 -12.37,1.9 -16.08,4.1 -1.74,1.03 -3.33,1.87 -3.52,1.87 -0.2,0 -0.6,-1.35 -0.9,-3 -0.32,-1.67 -1.2,-3.53 -1.94,-4.15 -1.2,-1 -1.23,-0.9 -0.34,0.78 0.56,1.04 1,2.7 1,3.7 0,1 0.48,2.56 1.05,3.47 1,1.6 1.1,1.6 3.7,-0.34 1.45,-1.1 4.22,-2.5 6.14,-3.1 z m 20.87,20.6 c -1.24,-1.9 -6.42,-5 -10.22,-6.13 -0.84,-0.25 -1.56,-1.35 -1.6,-2.44 -0.1,-1.92 -0.1,-1.92 -0.75,0.2 -0.8,2.64 -0.53,2.92 3.88,4.17 1.9,0.54 4.85,2.16 6.53,3.6 3.7,3.17 3.88,3.22 2.16,0.6 z m 52.87,8.38 c -0.23,-2.92 -0.76,-4.57 -1.47,-4.57 -0.6,0 -2.16,-0.82 -3.46,-1.84 -3.5,-2.76 -1.63,-3.93 3.5,-2.17 5.02,1.7 6.3,1.1 1.72,-0.8 -6.68,-2.8 -12.67,0.36 -6.64,3.48 1.47,0.76 2.67,1.86 2.68,2.44 0.03,1.32 3.4,8.86 3.75,8.38 0.13,-0.2 0.1,-2.4 -0.1,-4.92 z m -184.77,120.52 c 0,-0.64 0.92,-3 2.06,-5.23 1.12,-2.23 1.74,-4.06 1.37,-4.06 -0.76,0 -4.3,7 -4.3,8.5 0,0.53 -1.1,1.13 -2.4,1.33 -2.24,0.34 -2.2,0.37 0.43,0.5 1.84,0.08 2.83,-0.28 2.83,-1.03 z m -20.75,35.07 c 1.17,-3.36 0.63,-3.87 -3.77,-3.55 l -3.53,0.26 2.63,-3.34 c 2.8,-3.55 5.4,-10.23 5.4,-13.88 0,-1.48 1.16,-3.25 3.5,-5.34 3.53,-3.18 5.85,-8.63 4.8,-11.34 -0.34,-0.9 0.87,-2.53 3.65,-4.9 12.7,-10.9 20.9,-21.4 31.84,-40.8 3.4,-6.03 4.77,-7.66 7.5,-8.9 3.18,-1.42 3.52,-1.42 6.52,0 3.53,1.67 6.05,4.8 6.98,8.63 0.73,3.02 2.77,6.1 8.46,12.77 l 4.16,4.86 0,9.12 c 0,7.36 0.43,10.48 2.22,16.15 1.42,4.5 2.2,8.86 2.13,12.13 -0.06,3.5 0.48,6.35 1.7,9.03 3.05,6.6 2.15,8.1 -4.26,7.14 -2.14,-0.3 -4.3,-1.8 -7.78,-5.3 l -4.8,-4.9 -4.17,-21.32 c -3.33,-17.1 -4.63,-22.1 -6.53,-25.18 -1.3,-2.12 -2.76,-3.98 -3.24,-4.13 -0.48,-0.16 -2.24,1.73 -3.92,4.2 -1.68,2.47 -5.1,7.08 -7.64,10.23 -5.35,6.7 -9.77,15.02 -9.77,18.4 0,2.64 2.42,4.2 3.67,2.4 0.5,-0.76 0.67,-0.42 0.5,1.04 -0.15,1.27 -1.08,2.54 -2.2,3.04 -1.58,0.7 -1.97,1.56 -1.97,4.4 0,1.95 -0.54,4.3 -1.2,5.2 -1.14,1.55 -1.22,1.53 -1.84,-0.5 -0.72,-2.4 -2.92,-5.17 -4.08,-5.17 -0.43,0 -0.36,0.77 0.13,1.7 1.4,2.6 1.07,6.6 -0.7,8.2 -2.14,1.94 -2.58,1.8 -2.1,-0.65 0.78,-4.14 -3.4,-8.44 -6.2,-6.38 -1.18,0.87 -1.27,1.6 -0.54,4.1 1.6,5.46 1.34,9.5 -0.7,11.55 l -1.87,1.87 -0.98,-2.8 c -1.28,-3.7 -2.28,-3.55 -1.83,0.26 0.86,7.4 -3.3,14.36 -8.57,14.36 -2.4,0 -2.46,-0.1 -1.57,-2.65 z m 174.1,-26.34 1.7,-3.32 4.63,4.2 c 2.55,2.3 5.96,4.9 7.6,5.78 l 2.94,1.6 -3.05,-2.78 c -8.86,-8.06 -9.54,-8.96 -13.2,-17.42 -3.84,-8.85 -5.04,-10.5 -3.42,-4.63 1.78,6.42 1.18,12.43 -1.85,18.58 -1.54,3.12 -2.96,6.05 -3.16,6.53 -0.97,2.32 6.33,-5.65 7.8,-8.53 z m -64.98,31.52 c 5.57,-1.95 10.2,-4.12 11.08,-5.18 1.7,-2.1 3.3,-7.2 3.24,-10.4 -0.03,-1.6 -0.52,-0.95 -1.8,2.37 -2.08,5.42 -3.6,6.6 -16.63,12.9 -10.84,5.24 -10.15,5.3 4.1,0.3 z m 80.17,22.57 c 4.5,-1.53 8,-2.96 7.76,-3.2 -0.23,-0.23 -3.57,0.3 -7.42,1.18 -6.28,1.44 -8,1.5 -16.76,0.54 -20.2,-2.2 -24.67,-2.88 -29.33,-4.46 -2.63,-0.9 -4.9,-1.5 -5.04,-1.36 -0.87,0.88 7.4,3.42 17.36,5.35 6.4,1.24 13.96,2.77 16.84,3.4 7.36,1.64 7.5,1.62 16.6,-1.45 z m -156.66,52.92 c 0.06,-0.05 0.28,-2.55 0.5,-5.55 0.44,-6.52 -1.08,-6.05 -1.7,0.52 -0.33,3.3 -0.87,4.54 -2.3,5.25 -1.6,0.82 -1.5,0.87 0.77,0.4 1.44,-0.3 2.66,-0.57 2.73,-0.63 z m 217.25,10.47 c 2.56,-1.1 6,-2.28 7.65,-2.6 6,-1.15 6.8,-2.3 7.2,-10.3 0.22,-3.98 0.65,-8 0.98,-8.97 0.33,-0.96 -0.23,-0.02 -1.25,2.1 -1,2.1 -2.1,5.58 -2.4,7.73 -0.3,2.15 -1.15,4.2 -1.87,4.57 -0.72,0.36 -4.25,2.05 -7.84,3.76 -7.1,3.37 -15.85,9.82 -17.5,12.9 -0.68,1.28 0.88,0.4 4.68,-2.62 3.14,-2.5 7.8,-5.45 10.35,-6.57 z m -37.88,88.22 c -2.9,-2.3 -2.92,-4.5 -0.06,-13.45 3.23,-10.07 2.64,-12.85 -4.35,-20.3 -3,-3.2 -5.7,-6.4 -5.96,-7.12 -0.32,-0.8 -0.53,-0.48 -0.57,0.87 -0.07,2.54 1.6,5.1 6.7,10.26 4.5,4.57 4.72,7.32 1.43,16.75 -3,8.58 -2.02,13.3 3.1,14.98 2.25,0.75 2.12,-0.1 -0.3,-1.98 z m 101.63,-452.75 c -0.33,0.04 -0.18,0.53 0.73,1.57 3.8,4.36 5.44,12.65 4.13,20.86 -0.86,5.42 -2.38,9.84 -3.37,9.84 -0.3,0 -1.86,-2.97 -3.5,-6.6 -3.7,-8.27 -10.3,-15.5 -15.3,-16.8 -6.6,-1.72 -14.87,2.03 -18.95,8.6 l -1.9,3.05 3.64,-3.24 c 7.13,-6.35 13.28,-8.18 18.47,-5.5 2.05,1.06 6.12,5.5 6.12,6.68 0,0.17 -1.8,0.3 -4,0.3 -3.3,0 -4.36,0.43 -6.1,2.45 -2.8,3.23 -2.68,4.65 0.2,2.4 2.47,-1.95 6.4,-2.35 9.05,-0.92 0.9,0.5 2.75,2.74 4.08,5 2.3,3.9 2.43,4.75 2.65,16.3 0.15,8.3 0.67,13.55 1.6,16.4 2.12,6.37 1.12,9.6 -7.95,25.76 -1.8,3.2 -2.63,4.8 -2.63,10.55 0,6.06 0.1,4.73 0.54,7.62 1.08,-0.64 1.4,-1.16 2.43,-2.07 0,-3.9 2.87,-12.13 7.06,-16.95 6.55,-7.54 8.3,-11.46 8.3,-18.67 0,-3.35 -0.32,-7.6 -0.7,-9.44 -1.02,-4.8 0.66,-3.34 2.48,2.14 1.12,3.29 1.42,6.39 1.12,11.75 -0.33,6.4 -0.83,8.17 -4.1,14.74 -5.15,10.42 -15.87,20.9 -27.27,26.64 l -5.1,2.57 1.85,-3.6 c 1.14,-2.22 2.14,-6.56 2.65,-11.46 0.88,-8.55 3.47,-14.37 9.2,-20.72 6.37,-7.04 9.5,-20.7 7.06,-30.6 -1.58,-6.4 -4.2,-12.28 -6.86,-15.5 -1.45,-1.76 -1.68,-1.84 -1.17,-0.44 3.68,10 4.2,21.4 1.32,27.96 -1.04,2.34 -3.12,5.8 -4.63,7.68 -1.52,1.9 -3.43,5.42 -4.26,7.84 -1.3,3.85 -1.5,4.08 -1.57,1.8 -0.1,-3.5 -2.98,-9.67 -5,-10.75 -0.9,-0.47 -3.38,-1.08 -5.52,-1.35 l -3.88,-0.48 3.4,1.28 c 4.52,1.7 5.57,2.7 6.5,6.06 1.04,3.75 -0.32,17.37 -2.53,25.54 -2.38,8.74 -5.33,14.2 -9.68,17.92 -5.88,5.04 -12.95,6.13 -22.98,3.55 -4.48,-1.14 -17.82,-6.8 -17.8,-7.53 0,-0.15 4.2,-0.27 9.35,-0.28 16.8,-0.03 25.9,-5.3 29.36,-16.97 0.6,-2 0.37,-1.92 -2.72,1.03 -4.93,4.7 -12.9,9.2 -18.33,10.32 -2.6,0.54 -5,0.75 -5.27,0.46 -0.3,-0.28 0.67,-1.8 2.14,-3.34 1.47,-1.55 3.35,-4.16 4.18,-5.8 1.9,-3.75 2.1,-10.95 0.36,-12.7 -1.1,-1.12 -1.23,-0.85 -0.93,2.23 0.7,7.23 -3.54,12.13 -13.9,16.14 -7,2.7 -11.72,3 -16.48,1 l -3,-1.27 4.98,-1.48 c 2.75,-0.82 5.22,-1.85 5.5,-2.3 0.27,-0.44 2.18,-0.8 4.23,-0.8 3.78,0 8.76,-2.76 11.85,-6.55 1.2,-1.5 1.15,-1.55 -0.88,-0.97 -1.2,0.35 -3.74,0.87 -5.65,1.15 l -3.5,0.5 2.45,-2.3 c 5.38,-5.06 6.17,-12.26 1.78,-16.3 -2.17,-2 -2.23,-2 -1.3,-0.2 0.56,1.05 1,3.47 1,5.38 0,2.84 -0.7,4.28 -3.83,7.95 -11.58,13.57 -23.5,14.5 -30.48,2.34 -4.4,-7.66 -3.45,-13.5 2.84,-17.48 3.95,-2.5 8.3,-8.33 10.17,-13.68 1.76,-4.98 1.68,-5.03 -1.77,-1 -1.68,1.95 -4.74,4.62 -6.8,5.92 -2.06,1.3 -4.43,3.56 -5.25,5 -0.83,1.43 -1.74,2.37 -2.02,2.08 -1.08,-1.1 1.67,-8.84 5.48,-15.38 3.1,-5.34 4.06,-7.95 4.43,-12 0.27,-2.85 0.1,-5.9 -0.4,-6.75 -0.68,-1.23 -0.88,-0.6 -0.88,2.78 0,5.08 -1.37,8.04 -6.77,14.67 -9.12,11.2 -10.8,20.1 -6,31.6 l 1.3,3.15 -2.08,-1.96 c -4.86,-4.57 -10,-18.47 -8.8,-23.87 0.3,-1.46 2.04,-4.26 3.83,-6.22 1.8,-1.97 3.92,-5.54 4.73,-7.93 1.96,-5.78 2.77,-14.52 1.54,-16.64 -0.76,-1.3 -0.96,-1.35 -0.98,-0.27 -0.08,3.2 -2.88,10.53 -5.54,14.44 -1.58,2.32 -3.3,5.6 -3.82,7.27 -0.86,2.75 -0.96,2.33 -1.03,-4.36 -0.07,-6.47 0.35,-8.62 3.32,-17.2 1.86,-5.38 3.28,-9.8 3.16,-9.8 -0.5,0 -9.23,14.72 -10.4,17.53 -0.68,1.64 -1.67,5.3 -2.2,8.2 -0.8,4.48 -0.7,6.06 0.8,11.3 0.97,3.35 1.75,6.4 1.75,6.8 0,0.84 -6.68,-2.8 -7.96,-4.34 -0.5,-0.6 -1.48,-3.93 -2.2,-7.43 -2.64,-12.97 -10.33,-20.3 -16.64,-15.88 -1.06,0.75 -1.93,1.8 -1.93,2.35 0,0.72 0.3,0.7 1.04,-0.05 2.15,-2.15 6.46,-1.22 9.27,1.98 2.7,3.07 3.16,4.63 4.1,13.8 0.6,6.13 1.92,9.3 3.85,9.3 2.26,0 9.16,4.75 11.57,7.96 2.56,3.4 6.16,10.32 5.64,10.84 -0.2,0.2 -3.8,-1.26 -8,-3.23 -7.28,-3.4 -8.02,-3.56 -15.5,-3.46 -4.3,0.06 -8.2,0.34 -8.66,0.62 -1.4,0.87 -23.75,0.6 -39.24,-0.48 -8.03,-0.56 -14.98,-0.78 -15.45,-0.5 -0.46,0.3 -0.84,3.6 -0.84,7.32 0,7.7 0.62,8.66 6.75,10.4 4.27,1.23 6.58,4.1 6.16,7.7 -0.22,1.97 -0.77,2.5 -2.8,2.73 -1.4,0.16 -4.05,-0.4 -5.9,-1.23 -3.85,-1.74 -4.64,-1.36 -3.84,1.83 0.65,2.58 4.4,4.5 10.47,5.33 3.1,0.43 4.33,0.16 6.56,-1.43 3.4,-2.42 8.15,-2.48 13.26,-0.17 4.78,2.17 6.93,4.28 9.9,9.73 2.5,4.6 8.04,9.03 12.54,10.02 6.4,1.4 19.28,-5.28 21.8,-11.32 0.63,-1.48 0.74,-1.5 0.8,-0.22 0.08,2.6 -5.78,8.13 -11.25,10.6 -2.86,1.27 -9.37,3.27 -14.47,4.42 -5.1,1.15 -24.919,7.5 -37.829,17.32 -12.57,9.57 -30.931,27.78 -33.051,69.8 l 1.77,6.5 c 0.98,3.58 2,7.8 2.3,9.38 l 0.54,2.88 2.17,-3.75 c 2.92,-5.05 11.7,-14 17.83,-18.22 4.7,-3.2 4.43,-2.86 -4,5.53 -6.74,6.7 -9.7,10.38 -11.77,14.64 -4,8.15 -4.23,10.77 -1.53,17.52 1.25,3.1 2.27,6.12 2.27,6.7 0,2.05 -4.3,7.8 -8.85,11.77 -6.02,5.25 -22.4,13.44 -27.94,13.96 -4.05,0.38 -7.5,2.2 -10.36,5.42 -0.9,1.03 -2.25,6.58 -3.7,15.2 -3.3,19.87 -5.34,25.42 -14.96,40.8 -1.98,3.15 -2.7,5.03 -2.1,5.6 1.6,1.62 0.97,8.62 -1.07,11.85 -1.64,2.6 -1.94,4.3 -1.96,11.36 0,6.55 -0.36,8.82 -1.6,10.74 -2.07,3.14 -1.3,3.8 2.37,2.06 3.48,-1.66 4,-1.33 4,2.54 0,3.7 2.23,3.9 5.66,0.5 5.37,-5.3 7.17,-16.46 3.96,-24.52 -1.87,-4.7 -1.87,-4.73 -0.17,-6.42 1.7,-1.7 1.72,-1.7 3.96,0.54 1.23,1.24 2.24,3.05 2.24,4.03 0,2.46 1.26,2.24 2.47,-0.43 1.4,-3.05 1.34,-3.38 -1.23,-6.43 -1.85,-2.2 -2,-2.68 -0.78,-2.68 0.8,0 2.57,1.2 3.93,2.65 l 2.48,2.65 0.6,-3.1 c 0.4,-2.1 0.17,-3.7 -0.68,-5 -1.16,-1.73 -1.08,-2.05 0.9,-3.75 1.78,-1.54 2,-2.15 1.18,-3.53 -0.53,-0.93 -0.98,-1.2 -1,-0.6 -0.04,1.96 -2.65,1.15 -3.7,-1.14 -1.2,-2.66 0.03,-11.24 2.86,-19.8 4.08,-12.28 7.2,-20.28 8.54,-21.8 3.7,-4.23 10.3,-5.7 34.07,-7.55 26.85,-2.1 39,-4.92 43.7,-10.13 0.8,-0.9 1.87,-4.12 2.36,-7.17 1.2,-7.54 1.9,-7.77 1.26,-0.43 -0.75,8.62 -1.53,9.76 -8.38,12.46 l -5.9,2.32 8.94,8.78 c 10.25,10.05 17.45,15.03 25.75,17.78 13.3,4.4 17.42,7.26 21.9,15.2 1.47,2.6 2.82,4.74 3,4.74 0.8,0 11.32,-19.73 12.56,-23.6 2.02,-6.33 4.9,-8.13 13.22,-8.3 3.6,-0.08 5.16,0.02 3.48,0.22 -10.52,1.23 -11,1.7 -20.2,19.84 l -7.1,14.02 -0.22,23.07 c -0.12,12.7 0.17,25.4 0.65,28.22 0.48,2.83 2.46,8.7 4.4,13 4.3,9.5 8.53,23.84 8.53,28.76 0,10.64 -10.94,15.27 -43.44,18.4 -17.93,1.74 -20.85,2.55 -23.16,6.44 -3.03,5.1 -5.96,7.6 -11.28,9.58 -2.83,1.06 -6.43,3.04 -8,4.4 -2.97,2.63 -3.3,2.76 -10.55,4.4 -2.5,0.58 -4.57,1.38 -4.57,1.8 0,1.36 4.03,3.46 7.9,4.12 l 3.77,0.64 -3.83,2.8 c -2.1,1.56 -4.14,2.83 -4.52,2.83 -0.4,0 -0.7,0.44 -0.7,0.98 0,1.8 15.5,0.48 20.6,-1.77 5.37,-2.34 7.38,-4.37 8.58,-8.62 0.57,-2 1.8,-3.64 3.32,-4.48 2.3,-1.26 2.52,-1.22 4.12,0.72 2.04,2.5 2.15,5.17 0.33,7.77 -2.42,3.45 0.9,2.32 3.92,-1.34 2.58,-3.13 2.72,-3.18 3.22,-1.3 0.95,3.6 2.92,1.6 2.92,-3 0,-1.64 0.35,-2.07 1.37,-1.68 1.97,0.76 4.73,-0.98 4.73,-2.98 0,-1.48 -0.24,-1.58 -1.67,-0.68 -2.15,1.34 -4.44,-0.34 -4.44,-3.24 0,-1.68 0.66,-2.14 4.14,-2.88 12.2,-2.6 40.56,-5.3 56.37,-5.37 9.75,-0.03 14.27,-1.04 16.26,-3.63 2.63,-3.4 2.83,-7.25 0.8,-15.37 -2.1,-8.53 -2.2,-10.22 -1.56,-25.5 0.54,-12.77 1.7,-15.87 8.28,-22.27 5.05,-4.9 11.96,-8.22 23.1,-11.1 18.02,-4.65 22.7,-8.53 27.67,-23 1.1,-3.15 1.64,-7.23 1.66,-12.22 0.03,-6.77 0.15,-7.32 1.3,-5.8 0.85,1.12 1.3,3.8 1.3,7.84 0.02,7.4 0.9,9.43 2.6,5.96 l 1.2,-2.42 0.3,2.17 c 0.47,3.25 2.08,6.96 3.03,6.96 0.46,0 0.6,-1.08 0.34,-2.4 -0.28,-1.3 -0.1,-2.98 0.36,-3.7 0.78,-1.16 0.97,-1.16 1.73,0 1.3,2 1.05,6.35 -0.52,8.6 -1.35,1.93 -1.33,2 0.65,1.7 1.26,-0.17 2.54,-1.3 3.3,-2.88 l 1.24,-2.6 0.97,2.93 c 1.1,3.3 4.2,6.2 6.63,6.2 1.5,0 1.45,-0.25 -0.48,-3.1 -1.15,-1.7 -2.55,-5.32 -3.1,-8.05 -3.03,-14.67 -5.32,-18.8 -14.94,-26.8 -3.5,-2.9 -6.82,-6.24 -7.4,-7.4 -0.55,-1.16 -3.27,-6.8 -6,-12.55 -6.06,-12.65 -11.17,-18.15 -24.33,-26.2 -25.05,-15.32 -29.46,-18.28 -34.03,-22.83 -3,-3 -10.66,-13.52 -19.3,-26.52 -7.86,-11.87 -10.84,-18.07 -17.05,-23.67 -3.4,-3.08 -7.8,-9.8 -8.02,-18.6 -0.5,-18.48 18.55,-37.8 27.18,-46.9 -0.2,-0.2 -1.87,0.68 -3.72,1.95 -3.6,2.46 -15.1,8.48 -15.1,7.9 0,-0.2 2.73,-1.98 6.1,-3.97 3.34,-2 8.38,-5.53 11.2,-7.87 5.43,-4.53 7.1,-8.2 7.04,-15.44 -0.02,-3.04 -0.46,-3.63 -5.3,-7.14 -5.85,-4.25 -6.9,-6.16 -6.75,-12.12 l 0.1,-4.08 0.68,4.8 c 0.83,5.75 2.77,7.68 15.3,15.26 7.72,4.67 8.76,5.05 14.77,5.44 3.56,0.23 6.47,0.13 6.47,-0.2 0,-0.36 -1.3,-2.16 -2.88,-4 -1.6,-1.85 -4.4,-6.15 -6.27,-9.54 -4.28,-7.82 -8.4,-12.66 -12.66,-14.82 -1.82,-0.94 -3.57,-2.12 -3.9,-2.63 -0.3,-0.5 1.52,0.17 4.06,1.5 2.6,1.4 7.86,5.73 12.05,9.96 8.18,8.25 12.3,10.72 24.56,14.73 13.5,4.4 24.7,2.9 42.08,-5.7 7.3,-3.6 11.08,-4.92 15.88,-5.55 7.77,-1.04 13.73,-4.27 21.04,-11.42 5.37,-5.26 9.2,-6.93 13.07,-5.7 1.37,0.44 1.82,1.3 1.82,3.52 0,1.6 -0.4,3.18 -0.87,3.47 -0.48,0.3 -0.87,0.98 -0.87,1.5 0,0.54 1,0.06 2.18,-1.06 1.48,-1.4 2.18,-3 2.18,-4.95 0,-3.03 -2.5,-6.38 -4.74,-6.38 -3,0 -1.7,-1.76 4.67,-6.43 7.02,-5.14 10.8,-9.18 13.57,-14.47 2.3,-4.4 2.75,-15.1 0.95,-22.5 l -1.44,-5.9 2.77,-6.48 c 4.56,-10.7 3.75,-18 -3.02,-27.15 -3,-4.05 -10.15,-8.4 -15.65,-9.5 -6.26,-1.24 -8.66,0.14 -3.1,1.8 5.27,1.58 12.17,8.8 14.6,15.24 1.47,3.95 1.84,6.58 1.64,11.72 l -0.25,6.62 -3.3,-4.93 c -5.03,-7.5 -11.86,-11.95 -18.46,-11.97 -2.36,0 -2.16,0.2 2.15,2.35 4.95,2.46 5.87,3.7 10.25,13.7 1.05,2.38 3.47,6.83 5.38,9.87 6.12,9.75 6.76,19 1.8,26.38 -2.45,3.7 -8.43,9.13 -9.2,8.37 -0.2,-0.2 0.62,-4.3 1.82,-9.08 2.08,-8.24 2.13,-8.9 0.85,-12.52 -1.76,-5 -4.96,-10.4 -7.44,-12.58 -1.97,-1.74 -1.97,-1.74 -1.2,0 0.67,1.56 1.52,19.47 1.42,30.24 -0.07,8.27 -9.26,20.02 -20.2,25.86 l -5.46,2.9 3.98,-5.58 c 4.98,-6.97 10.74,-18.76 11.54,-23.62 0.63,-3.83 1.75,-5.86 3.22,-5.86 0.52,0 0.64,1.32 0.3,3.27 -0.5,3.04 -0.45,3.15 0.8,1.57 0.7,-0.93 1.3,-3.18 1.3,-5 0,-3.12 -0.5,-3.7 -3.04,-3.44 -0.47,0.05 -0.9,-1.8 -0.93,-4.14 -0.07,-4.93 -3.7,-13.1 -6.96,-15.65 -2.45,-1.94 -2.64,-3.55 -0.8,-7.1 2.25,-4.35 4.77,-16.68 4.77,-23.4 0,-8.2 -1.37,-12.73 -5,-16.35 -1.87,-1.87 -3.7,-3.02 -4.25,-2.94 z m -7.8,443.34 c 0.24,-0.4 -0.52,-0.56 -1.7,-0.34 -1.9,0.37 -2.4,-0.14 -4.26,-4.34 -1.15,-2.6 -3.4,-5.86 -5,-7.22 -2.3,-1.95 -21.62,-12.02 -25.54,-13.3 -2.36,-0.78 3.16,2.88 6.97,4.6 8.88,4.06 19.3,12.33 21.96,17.42 0.74,1.44 1.8,2.9 2.32,3.25 1.33,0.87 4.68,0.82 5.24,-0.08 z m -44.36,86.1 c 1.73,-3.34 1.8,-3.22 -1.72,-2.8 -1.67,0.18 -3.04,0.07 -3.04,-0.27 0,-1.02 9.23,-10.88 13.97,-14.93 3.8,-3.26 5,-3.8 8.34,-3.8 4.23,0 5.36,-0.87 10.44,-7.95 6.67,-9.3 6.85,-10.03 6.85,-27.36 l 0,-15.71 -3.27,-6.6 c -4.82,-9.75 -11.12,-14.62 -18.94,-14.64 -3.38,0 -11.93,-4.44 -19.6,-10.15 -3.83,-2.85 -9.5,-6.98 -12.62,-9.16 -5.88,-4.14 -14.8,-12.95 -14.8,-14.63 0,-2.17 8.08,-9.45 12.9,-11.6 5.93,-2.68 19.08,-6.3 25.84,-7.16 l 4.8,-0.6 0,5.1 c 0.04,9.42 4.26,15.1 21.34,28.78 7.2,5.77 13.13,9.3 21.53,12.8 3.7,1.57 4.07,3.23 1.98,9.16 -2,5.67 -3.76,15.15 -5.68,30.64 -0.97,7.86 -2.15,16.64 -2.63,19.5 -1.26,7.68 -1.1,9.02 1.36,11.3 1.95,1.8 2.05,2.16 0.82,2.85 -1.2,0.66 -1.24,1.15 -0.36,3.1 0.82,1.8 0.8,2.58 -0.06,3.63 -1.4,1.7 -2.98,1.73 -2.34,0.07 0.3,-0.8 -0.23,-1.5 -1.43,-1.87 -2.33,-0.74 -2.84,-0.4 -2.5,1.66 0.34,1.96 -2.1,5.82 -3.67,5.82 -0.74,0 -1.02,-0.72 -0.78,-2 0.22,-1.13 -0.17,-2.48 -0.88,-3.07 -2.62,-2.17 -5.8,1.04 -7.58,7.7 -1.3,4.88 -3.16,7.62 -6.18,9.18 -3.83,1.98 -4.3,1.53 -2.53,-2.44 1.05,-2.34 1.36,-4 0.83,-4.52 -1.15,-1.16 -2.6,0.46 -5.18,5.86 -2.46,5.13 -5.17,6.58 -12.43,6.67 l -4.16,0.05 1.34,-2.57 z"
         id="path3941" />
      <path
         style="fill:#000000;stroke:#ffdd00;stroke-width:3.73930025"
         inkscape:connector-curvature="0"
         d="m 621.08039,419.21998 1.42,31.36 c 20.13,3.1 35.281,9.24 54.001,20.3 l 21.719,-22.64 -15.68,0.7 c 2.16,11.83 -11.58,13.26 -13.74,1.45 -7.96,3.6 -11.57,-4.36 -8.2,-7.5 l 5.3,-2.4 -4.8,-10.6 -10.6,4.8 2.4,5.3 c 0.47,4.6 -7.5,8.2 -11.1,0.24 -9.4,7.48 -18.8,-2.66 -9.4,-10.13 z"
         id="path3943" />
    </g>
    <g
       style="display:inline"
       id="g3945"
       transform="matrix(0.26742973,0,0,0.26742973,-44.833648,-95.21519)">
      <path
         id="path3947"
         d="m 718.53039,517.31998 c -1.44,-0.18 -5.32,-0.96 -8.64,-1.74 -5.73,-1.35 -6.42,-1.8 -13.72,-8.9 -8.93,-8.7 -9.93,-11.08 -2.97,-7.1 7.24,4.14 23.47,9.43 31,10.1 12.85,1.13 32.4,-8.36 41.36,-16.9 1.32,-0.18 2.03,-0.46 3.2,-0.6 l -8.94,9.08 3.65,0.27 c 4.13,0.3 7.4,3.53 6.35,6.25 -0.52,1.36 -0.7,1.3 -1.58,-0.48 -0.6,-1.22 -2.24,-2.32 -4.15,-2.8 -4.2,-1.04 -9.62,0.77 -20.54,6.87 -10.8,6.02 -15.52,7.14 -25.03,5.96 z m -143.5,-62.4 c 0.63,-0.64 -1.72,-0.3 -6.04,0.87 -0.86,0.23 -1.53,-0.06 -1.53,-0.66 0,-0.58 -0.2,-0.86 -0.46,-0.6 -0.24,0.24 -0.2,1.04 0.07,1.77 0.42,1.12 1.04,1.17 3.88,0.33 1.85,-0.55 3.7,-1.32 4.08,-1.7 z m 60.12,7.8 c 0.28,-0.3 -0.3,-0.54 -1.28,-0.54 -1.04,0 -2.92,-1.4 -4.43,-3.26 -2.55,-3.18 -2.76,-3.26 -7.98,-3.1 -4.63,0.12 -5.3,-0.05 -4.83,-1.27 0.44,-1.15 0.2,-1.1 -1.27,0.23 -1.54,1.4 -1.62,1.75 -0.5,2.37 0.7,0.4 1.1,1.26 0.84,1.9 -0.25,0.65 0.62,2.03 1.94,3.06 2.12,1.66 3.2,1.82 9.68,1.5 4.02,-0.22 7.54,-0.62 7.83,-0.9 z m -38.5,0.3 c 1.9,-0.63 5.82,-1.6 8.7,-2.2 4.22,-0.84 4.64,-1.06 2.17,-1.13 -4.36,-0.13 -12.37,1.9 -16.08,4.1 -1.74,1.03 -3.33,1.87 -3.52,1.87 -0.2,0 -0.6,-1.35 -0.9,-3 -0.32,-1.67 -1.2,-3.53 -1.94,-4.15 -1.2,-1 -1.23,-0.9 -0.34,0.78 0.56,1.04 1,2.7 1,3.7 0,1 0.48,2.56 1.05,3.47 1,1.6 1.1,1.6 3.7,-0.34 1.45,-1.1 4.22,-2.5 6.14,-3.1 z m 20.87,20.6 c -1.24,-1.9 -6.42,-5 -10.22,-6.13 -0.84,-0.25 -1.56,-1.35 -1.6,-2.44 -0.1,-1.92 -0.1,-1.92 -0.75,0.2 -0.8,2.64 -0.53,2.92 3.88,4.17 1.9,0.54 4.85,2.16 6.53,3.6 3.7,3.17 3.88,3.22 2.16,0.6 z m 52.87,8.38 c -0.23,-2.92 -0.76,-4.57 -1.47,-4.57 -0.6,0 -2.16,-0.82 -3.46,-1.84 -3.5,-2.76 -1.63,-3.93 3.5,-2.17 5.02,1.7 6.3,1.1 1.72,-0.8 -6.68,-2.8 -12.67,0.36 -6.64,3.48 1.47,0.76 2.67,1.86 2.68,2.44 0.03,1.32 3.4,8.86 3.75,8.38 0.13,-0.2 0.1,-2.4 -0.1,-4.92 z m -184.77,120.52 c 0,-0.64 0.92,-3 2.06,-5.23 1.12,-2.23 1.74,-4.06 1.37,-4.06 -0.76,0 -4.3,7 -4.3,8.5 0,0.53 -1.1,1.13 -2.4,1.33 -2.24,0.34 -2.2,0.37 0.43,0.5 1.84,0.08 2.83,-0.28 2.83,-1.03 z m -20.75,35.07 c 1.17,-3.36 0.63,-3.87 -3.77,-3.55 l -3.53,0.26 2.63,-3.34 c 2.8,-3.55 5.4,-10.23 5.4,-13.88 0,-1.48 1.16,-3.25 3.5,-5.34 3.53,-3.18 5.85,-8.63 4.8,-11.34 -0.34,-0.9 0.87,-2.53 3.65,-4.9 12.7,-10.9 20.9,-21.4 31.84,-40.8 3.4,-6.03 4.77,-7.66 7.5,-8.9 3.18,-1.42 3.52,-1.42 6.52,0 3.53,1.67 6.05,4.8 6.98,8.63 0.73,3.02 2.77,6.1 8.46,12.77 l 4.16,4.86 0,9.12 c 0,7.36 0.43,10.48 2.22,16.15 1.42,4.5 2.2,8.86 2.13,12.13 -0.06,3.5 0.48,6.35 1.7,9.03 3.05,6.6 2.15,8.1 -4.26,7.14 -2.14,-0.3 -4.3,-1.8 -7.78,-5.3 l -4.8,-4.9 -4.17,-21.32 c -3.33,-17.1 -4.63,-22.1 -6.53,-25.18 -1.3,-2.12 -2.76,-3.98 -3.24,-4.13 -0.48,-0.16 -2.24,1.73 -3.92,4.2 -1.68,2.47 -5.1,7.08 -7.64,10.23 -5.35,6.7 -9.77,15.02 -9.77,18.4 0,2.64 2.42,4.2 3.67,2.4 0.5,-0.76 0.67,-0.42 0.5,1.04 -0.15,1.27 -1.08,2.54 -2.2,3.04 -1.58,0.7 -1.97,1.56 -1.97,4.4 0,1.95 -0.54,4.3 -1.2,5.2 -1.14,1.55 -1.22,1.53 -1.84,-0.5 -0.72,-2.4 -2.92,-5.17 -4.08,-5.17 -0.43,0 -0.36,0.77 0.13,1.7 1.4,2.6 1.07,6.6 -0.7,8.2 -2.14,1.94 -2.58,1.8 -2.1,-0.65 0.78,-4.14 -3.4,-8.44 -6.2,-6.38 -1.18,0.87 -1.27,1.6 -0.54,4.1 1.6,5.46 1.34,9.5 -0.7,11.55 l -1.87,1.87 -0.98,-2.8 c -1.28,-3.7 -2.28,-3.55 -1.83,0.26 0.86,7.4 -3.3,14.36 -8.57,14.36 -2.4,0 -2.46,-0.1 -1.57,-2.65 z m 174.1,-26.34 1.7,-3.32 4.63,4.2 c 2.55,2.3 5.96,4.9 7.6,5.78 l 2.94,1.6 -3.05,-2.78 c -8.86,-8.06 -9.54,-8.96 -13.2,-17.42 -3.84,-8.85 -5.04,-10.5 -3.42,-4.63 1.78,6.42 1.18,12.43 -1.85,18.58 -1.54,3.12 -2.96,6.05 -3.16,6.53 -0.97,2.32 6.33,-5.65 7.8,-8.53 z m -64.98,31.52 c 5.57,-1.95 10.2,-4.12 11.08,-5.18 1.7,-2.1 3.3,-7.2 3.24,-10.4 -0.03,-1.6 -0.52,-0.95 -1.8,2.37 -2.08,5.42 -3.6,6.6 -16.63,12.9 -10.84,5.24 -10.15,5.3 4.1,0.3 z m 80.17,22.57 c 4.5,-1.53 8,-2.96 7.76,-3.2 -0.23,-0.23 -3.57,0.3 -7.42,1.18 -6.28,1.44 -8,1.5 -16.76,0.54 -20.2,-2.2 -24.67,-2.88 -29.33,-4.46 -2.63,-0.9 -4.9,-1.5 -5.04,-1.36 -0.87,0.88 7.4,3.42 17.36,5.35 6.4,1.24 13.96,2.77 16.84,3.4 7.36,1.64 7.5,1.62 16.6,-1.45 z m -156.66,52.92 c 0.06,-0.05 0.28,-2.55 0.5,-5.55 0.44,-6.52 -1.08,-6.05 -1.7,0.52 -0.33,3.3 -0.87,4.54 -2.3,5.25 -1.6,0.82 -1.5,0.87 0.77,0.4 1.44,-0.3 2.66,-0.57 2.73,-0.63 z m 217.25,10.47 c 2.56,-1.1 6,-2.28 7.65,-2.6 6,-1.15 6.8,-2.3 7.2,-10.3 0.22,-3.98 0.65,-8 0.98,-8.97 0.33,-0.96 -0.23,-0.02 -1.25,2.1 -1,2.1 -2.1,5.58 -2.4,7.73 -0.3,2.15 -1.15,4.2 -1.87,4.57 -0.72,0.36 -4.25,2.05 -7.84,3.76 -7.1,3.37 -15.85,9.82 -17.5,12.9 -0.68,1.28 0.88,0.4 4.68,-2.62 3.14,-2.5 7.8,-5.45 10.35,-6.57 z m -37.88,88.22 c -2.9,-2.3 -2.92,-4.5 -0.06,-13.45 3.23,-10.07 2.64,-12.85 -4.35,-20.3 -3,-3.2 -5.7,-6.4 -5.96,-7.12 -0.32,-0.8 -0.53,-0.48 -0.57,0.87 -0.07,2.54 1.6,5.1 6.7,10.26 4.5,4.57 4.72,7.32 1.43,16.75 -3,8.58 -2.02,13.3 3.1,14.98 2.25,0.75 2.12,-0.1 -0.3,-1.98 z m 101.63,-452.75 c -0.33,0.04 -0.18,0.53 0.73,1.57 3.8,4.36 5.44,12.65 4.13,20.86 -0.86,5.42 -2.38,9.84 -3.37,9.84 -0.3,0 -1.86,-2.97 -3.5,-6.6 -3.7,-8.27 -10.3,-15.5 -15.3,-16.8 -6.6,-1.72 -14.87,2.03 -18.95,8.6 l -1.9,3.05 3.64,-3.24 c 7.13,-6.35 13.28,-8.18 18.47,-5.5 2.05,1.06 6.12,5.5 6.12,6.68 0,0.17 -1.8,0.3 -4,0.3 -3.3,0 -4.36,0.43 -6.1,2.45 -2.8,3.23 -2.68,4.65 0.2,2.4 2.47,-1.95 6.4,-2.35 9.05,-0.92 0.9,0.5 2.75,2.74 4.08,5 2.3,3.9 2.43,4.75 2.65,16.3 0.15,8.3 0.67,13.55 1.6,16.4 2.12,6.37 1.12,9.6 -7.95,25.76 -1.8,3.2 -2.63,4.8 -2.63,10.55 0,6.06 0.1,4.73 0.54,7.62 1.08,-0.64 1.4,-1.16 2.43,-2.07 0,-3.9 2.87,-12.13 7.06,-16.95 6.55,-7.54 8.3,-11.46 8.3,-18.67 0,-3.35 -0.32,-7.6 -0.7,-9.44 -1.02,-4.8 0.66,-3.34 2.48,2.14 1.12,3.29 1.42,6.39 1.12,11.75 -0.33,6.4 -0.83,8.17 -4.1,14.74 -5.15,10.42 -15.87,20.9 -27.27,26.64 l -5.1,2.57 1.85,-3.6 c 1.14,-2.22 2.14,-6.56 2.65,-11.46 0.88,-8.55 3.47,-14.37 9.2,-20.72 6.37,-7.04 9.5,-20.7 7.06,-30.6 -1.58,-6.4 -4.2,-12.28 -6.86,-15.5 -1.45,-1.76 -1.68,-1.84 -1.17,-0.44 3.68,10 4.2,21.4 1.32,27.96 -1.04,2.34 -3.12,5.8 -4.63,7.68 -1.52,1.9 -3.43,5.42 -4.26,7.84 -1.3,3.85 -1.5,4.08 -1.57,1.8 -0.1,-3.5 -2.98,-9.67 -5,-10.75 -0.9,-0.47 -3.38,-1.08 -5.52,-1.35 l -3.88,-0.48 3.4,1.28 c 4.52,1.7 5.57,2.7 6.5,6.06 1.04,3.75 -0.32,17.37 -2.53,25.54 -2.38,8.74 -5.33,14.2 -9.68,17.92 -5.88,5.04 -12.95,6.13 -22.98,3.55 -4.48,-1.14 -17.82,-6.8 -17.8,-7.53 0,-0.15 4.2,-0.27 9.35,-0.28 16.8,-0.03 25.9,-5.3 29.36,-16.97 0.6,-2 0.37,-1.92 -2.72,1.03 -4.93,4.7 -12.9,9.2 -18.33,10.32 -2.6,0.54 -5,0.75 -5.27,0.46 -0.3,-0.28 0.67,-1.8 2.14,-3.34 1.47,-1.55 3.35,-4.16 4.18,-5.8 1.9,-3.75 2.1,-10.95 0.36,-12.7 -1.1,-1.12 -1.23,-0.85 -0.93,2.23 0.7,7.23 -3.54,12.13 -13.9,16.14 -7,2.7 -11.72,3 -16.48,1 l -3,-1.27 4.98,-1.48 c 2.75,-0.82 5.22,-1.85 5.5,-2.3 0.27,-0.44 2.18,-0.8 4.23,-0.8 3.78,0 8.76,-2.76 11.85,-6.55 1.2,-1.5 1.15,-1.55 -0.88,-0.97 -1.2,0.35 -3.74,0.87 -5.65,1.15 l -3.5,0.5 2.45,-2.3 c 5.38,-5.06 6.17,-12.26 1.78,-16.3 -2.17,-2 -2.23,-2 -1.3,-0.2 0.56,1.05 1,3.47 1,5.38 0,2.84 -0.7,4.28 -3.83,7.95 -11.58,13.57 -23.5,14.5 -30.48,2.34 -4.4,-7.66 -3.45,-13.5 2.84,-17.48 3.95,-2.5 8.3,-8.33 10.17,-13.68 1.76,-4.98 1.68,-5.03 -1.77,-1 -1.68,1.95 -4.74,4.62 -6.8,5.92 -2.06,1.3 -4.43,3.56 -5.25,5 -0.83,1.43 -1.74,2.37 -2.02,2.08 -1.08,-1.1 1.67,-8.84 5.48,-15.38 3.1,-5.34 4.06,-7.95 4.43,-12 0.27,-2.85 0.1,-5.9 -0.4,-6.75 -0.68,-1.23 -0.88,-0.6 -0.88,2.78 0,5.08 -1.37,8.04 -6.77,14.67 -9.12,11.2 -10.8,20.1 -6,31.6 l 1.3,3.15 -2.08,-1.96 c -4.86,-4.57 -10,-18.47 -8.8,-23.87 0.3,-1.46 2.04,-4.26 3.83,-6.22 1.8,-1.97 3.92,-5.54 4.73,-7.93 1.96,-5.78 2.77,-14.52 1.54,-16.64 -0.76,-1.3 -0.96,-1.35 -0.98,-0.27 -0.08,3.2 -2.88,10.53 -5.54,14.44 -1.58,2.32 -3.3,5.6 -3.82,7.27 -0.86,2.75 -0.96,2.33 -1.03,-4.36 -0.07,-6.47 0.35,-8.62 3.32,-17.2 1.86,-5.38 3.28,-9.8 3.16,-9.8 -0.5,0 -9.23,14.72 -10.4,17.53 -0.68,1.64 -1.67,5.3 -2.2,8.2 -0.8,4.48 -0.7,6.06 0.8,11.3 0.97,3.35 1.75,6.4 1.75,6.8 0,0.84 -6.68,-2.8 -7.96,-4.34 -0.5,-0.6 -1.48,-3.93 -2.2,-7.43 -2.64,-12.97 -10.33,-20.3 -16.64,-15.88 -1.06,0.75 -1.93,1.8 -1.93,2.35 0,0.72 0.3,0.7 1.04,-0.05 2.15,-2.15 6.46,-1.22 9.27,1.98 2.7,3.07 3.16,4.63 4.1,13.8 0.6,6.13 1.92,9.3 3.85,9.3 2.26,0 9.16,4.75 11.57,7.96 2.56,3.4 6.16,10.32 5.64,10.84 -0.2,0.2 -3.8,-1.26 -8,-3.23 -7.28,-3.4 -8.02,-3.56 -15.5,-3.46 -4.3,0.06 -8.2,0.34 -8.66,0.62 -1.4,0.87 -23.75,0.6 -39.24,-0.48 -8.03,-0.56 -14.98,-0.78 -15.45,-0.5 -0.46,0.3 -0.84,3.6 -0.84,7.32 0,7.7 0.62,8.66 6.75,10.4 4.27,1.23 6.58,4.1 6.16,7.7 -0.22,1.97 -0.77,2.5 -2.8,2.73 -1.4,0.16 -4.05,-0.4 -5.9,-1.23 -3.85,-1.74 -4.64,-1.36 -3.84,1.83 0.65,2.58 4.4,4.5 10.47,5.33 3.1,0.43 4.33,0.16 6.56,-1.43 3.4,-2.42 8.15,-2.48 13.26,-0.17 4.78,2.17 6.93,4.28 9.9,9.73 2.5,4.6 8.04,9.03 12.54,10.02 6.4,1.4 19.28,-5.28 21.8,-11.32 0.63,-1.48 0.74,-1.5 0.8,-0.22 0.08,2.6 -5.78,8.13 -11.25,10.6 -2.86,1.27 -9.37,3.27 -14.47,4.42 -5.1,1.15 -24.919,7.5 -37.829,17.32 -12.57,9.57 -30.931,27.78 -33.051,69.8 l 1.77,6.5 c 0.98,3.58 2,7.8 2.3,9.38 l 0.54,2.88 2.17,-3.75 c 2.92,-5.05 11.7,-14 17.83,-18.22 4.7,-3.2 4.43,-2.86 -4,5.53 -6.74,6.7 -9.7,10.38 -11.77,14.64 -4,8.15 -4.23,10.77 -1.53,17.52 1.25,3.1 2.27,6.12 2.27,6.7 0,2.05 -4.3,7.8 -8.85,11.77 -6.02,5.25 -22.4,13.44 -27.94,13.96 -4.05,0.38 -7.5,2.2 -10.36,5.42 -0.9,1.03 -2.25,6.58 -3.7,15.2 -3.3,19.87 -5.34,25.42 -14.96,40.8 -1.98,3.15 -2.7,5.03 -2.1,5.6 1.6,1.62 0.97,8.62 -1.07,11.85 -1.64,2.6 -1.94,4.3 -1.96,11.36 0,6.55 -0.36,8.82 -1.6,10.74 -2.07,3.14 -1.3,3.8 2.37,2.06 3.48,-1.66 4,-1.33 4,2.54 0,3.7 2.23,3.9 5.66,0.5 5.37,-5.3 7.17,-16.46 3.96,-24.52 -1.87,-4.7 -1.87,-4.73 -0.17,-6.42 1.7,-1.7 1.72,-1.7 3.96,0.54 1.23,1.24 2.24,3.05 2.24,4.03 0,2.46 1.26,2.24 2.47,-0.43 1.4,-3.05 1.34,-3.38 -1.23,-6.43 -1.85,-2.2 -2,-2.68 -0.78,-2.68 0.8,0 2.57,1.2 3.93,2.65 l 2.48,2.65 0.6,-3.1 c 0.4,-2.1 0.17,-3.7 -0.68,-5 -1.16,-1.73 -1.08,-2.05 0.9,-3.75 1.78,-1.54 2,-2.15 1.18,-3.53 -0.53,-0.93 -0.98,-1.2 -1,-0.6 -0.04,1.96 -2.65,1.15 -3.7,-1.14 -1.2,-2.66 0.03,-11.24 2.86,-19.8 4.08,-12.28 7.2,-20.28 8.54,-21.8 3.7,-4.23 10.3,-5.7 34.07,-7.55 26.85,-2.1 39,-4.92 43.7,-10.13 0.8,-0.9 1.87,-4.12 2.36,-7.17 1.2,-7.54 1.9,-7.77 1.26,-0.43 -0.75,8.62 -1.53,9.76 -8.38,12.46 l -5.9,2.32 8.94,8.78 c 10.25,10.05 17.45,15.03 25.75,17.78 13.3,4.4 17.42,7.26 21.9,15.2 1.47,2.6 2.82,4.74 3,4.74 0.8,0 11.32,-19.73 12.56,-23.6 2.02,-6.33 4.9,-8.13 13.22,-8.3 3.6,-0.08 5.16,0.02 3.48,0.22 -10.52,1.23 -11,1.7 -20.2,19.84 l -7.1,14.02 -0.22,23.07 c -0.12,12.7 0.17,25.4 0.65,28.22 0.48,2.83 2.46,8.7 4.4,13 4.3,9.5 8.53,23.84 8.53,28.76 0,10.64 -10.94,15.27 -43.44,18.4 -17.93,1.74 -20.85,2.55 -23.16,6.44 -3.03,5.1 -5.96,7.6 -11.28,9.58 -2.83,1.06 -6.43,3.04 -8,4.4 -2.97,2.63 -3.3,2.76 -10.55,4.4 -2.5,0.58 -4.57,1.38 -4.57,1.8 0,1.36 4.03,3.46 7.9,4.12 l 3.77,0.64 -3.83,2.8 c -2.1,1.56 -4.14,2.83 -4.52,2.83 -0.4,0 -0.7,0.44 -0.7,0.98 0,1.8 15.5,0.48 20.6,-1.77 5.37,-2.34 7.38,-4.37 8.58,-8.62 0.57,-2 1.8,-3.64 3.32,-4.48 2.3,-1.26 2.52,-1.22 4.12,0.72 2.04,2.5 2.15,5.17 0.33,7.77 -2.42,3.45 0.9,2.32 3.92,-1.34 2.58,-3.13 2.72,-3.18 3.22,-1.3 0.95,3.6 2.92,1.6 2.92,-3 0,-1.64 0.35,-2.07 1.37,-1.68 1.97,0.76 4.73,-0.98 4.73,-2.98 0,-1.48 -0.24,-1.58 -1.67,-0.68 -2.15,1.34 -4.44,-0.34 -4.44,-3.24 0,-1.68 0.66,-2.14 4.14,-2.88 12.2,-2.6 40.56,-5.3 56.37,-5.37 9.75,-0.03 14.27,-1.04 16.26,-3.63 2.63,-3.4 2.83,-7.25 0.8,-15.37 -2.1,-8.53 -2.2,-10.22 -1.56,-25.5 0.54,-12.77 1.7,-15.87 8.28,-22.27 5.05,-4.9 11.96,-8.22 23.1,-11.1 18.02,-4.65 22.7,-8.53 27.67,-23 1.1,-3.15 1.64,-7.23 1.66,-12.22 0.03,-6.77 0.15,-7.32 1.3,-5.8 0.85,1.12 1.3,3.8 1.3,7.84 0.02,7.4 0.9,9.43 2.6,5.96 l 1.2,-2.42 0.3,2.17 c 0.47,3.25 2.08,6.96 3.03,6.96 0.46,0 0.6,-1.08 0.34,-2.4 -0.28,-1.3 -0.1,-2.98 0.36,-3.7 0.78,-1.16 0.97,-1.16 1.73,0 1.3,2 1.05,6.35 -0.52,8.6 -1.35,1.93 -1.33,2 0.65,1.7 1.26,-0.17 2.54,-1.3 3.3,-2.88 l 1.24,-2.6 0.97,2.93 c 1.1,3.3 4.2,6.2 6.63,6.2 1.5,0 1.45,-0.25 -0.48,-3.1 -1.15,-1.7 -2.55,-5.32 -3.1,-8.05 -3.03,-14.67 -5.32,-18.8 -14.94,-26.8 -3.5,-2.9 -6.82,-6.24 -7.4,-7.4 -0.55,-1.16 -3.27,-6.8 -6,-12.55 -6.06,-12.65 -11.17,-18.15 -24.33,-26.2 -25.05,-15.32 -29.46,-18.28 -34.03,-22.83 -3,-3 -10.66,-13.52 -19.3,-26.52 -7.86,-11.87 -10.84,-18.07 -17.05,-23.67 -3.4,-3.08 -7.8,-9.8 -8.02,-18.6 -0.5,-18.48 18.55,-37.8 27.18,-46.9 -0.2,-0.2 -1.87,0.68 -3.72,1.95 -3.6,2.46 -15.1,8.48 -15.1,7.9 0,-0.2 2.73,-1.98 6.1,-3.97 3.34,-2 8.38,-5.53 11.2,-7.87 5.43,-4.53 7.1,-8.2 7.04,-15.44 -0.02,-3.04 -0.46,-3.63 -5.3,-7.14 -5.85,-4.25 -6.9,-6.16 -6.75,-12.12 l 0.1,-4.08 0.68,4.8 c 0.83,5.75 2.77,7.68 15.3,15.26 7.72,4.67 8.76,5.05 14.77,5.44 3.56,0.23 6.47,0.13 6.47,-0.2 0,-0.36 -1.3,-2.16 -2.88,-4 -1.6,-1.85 -4.4,-6.15 -6.27,-9.54 -4.28,-7.82 -8.4,-12.66 -12.66,-14.82 -1.82,-0.94 -3.57,-2.12 -3.9,-2.63 -0.3,-0.5 1.52,0.17 4.06,1.5 2.6,1.4 7.86,5.73 12.05,9.96 8.18,8.25 12.3,10.72 24.56,14.73 13.5,4.4 24.7,2.9 42.08,-5.7 7.3,-3.6 11.08,-4.92 15.88,-5.55 7.77,-1.04 13.73,-4.27 21.04,-11.42 5.37,-5.26 9.2,-6.93 13.07,-5.7 1.37,0.44 1.82,1.3 1.82,3.52 0,1.6 -0.4,3.18 -0.87,3.47 -0.48,0.3 -0.87,0.98 -0.87,1.5 0,0.54 1,0.06 2.18,-1.06 1.48,-1.4 2.18,-3 2.18,-4.95 0,-3.03 -2.5,-6.38 -4.74,-6.38 -3,0 -1.7,-1.76 4.67,-6.43 7.02,-5.14 10.8,-9.18 13.57,-14.47 2.3,-4.4 2.75,-15.1 0.95,-22.5 l -1.44,-5.9 2.77,-6.48 c 4.56,-10.7 3.75,-18 -3.02,-27.15 -3,-4.05 -10.15,-8.4 -15.65,-9.5 -6.26,-1.24 -8.66,0.14 -3.1,1.8 5.27,1.58 12.17,8.8 14.6,15.24 1.47,3.95 1.84,6.58 1.64,11.72 l -0.25,6.62 -3.3,-4.93 c -5.03,-7.5 -11.86,-11.95 -18.46,-11.97 -2.36,0 -2.16,0.2 2.15,2.35 4.95,2.46 5.87,3.7 10.25,13.7 1.05,2.38 3.47,6.83 5.38,9.87 6.12,9.75 6.76,19 1.8,26.38 -2.45,3.7 -8.43,9.13 -9.2,8.37 -0.2,-0.2 0.62,-4.3 1.82,-9.08 2.08,-8.24 2.13,-8.9 0.85,-12.52 -1.76,-5 -4.96,-10.4 -7.44,-12.58 -1.97,-1.74 -1.97,-1.74 -1.2,0 0.67,1.56 1.52,19.47 1.42,30.24 -0.07,8.27 -9.26,20.02 -20.2,25.86 l -5.46,2.9 3.98,-5.58 c 4.98,-6.97 10.74,-18.76 11.54,-23.62 0.63,-3.83 1.75,-5.86 3.22,-5.86 0.52,0 0.64,1.32 0.3,3.27 -0.5,3.04 -0.45,3.15 0.8,1.57 0.7,-0.93 1.3,-3.18 1.3,-5 0,-3.12 -0.5,-3.7 -3.04,-3.44 -0.47,0.05 -0.9,-1.8 -0.93,-4.14 -0.07,-4.93 -3.7,-13.1 -6.96,-15.65 -2.45,-1.94 -2.64,-3.55 -0.8,-7.1 2.25,-4.35 4.77,-16.68 4.77,-23.4 0,-8.2 -1.37,-12.73 -5,-16.35 -1.87,-1.87 -3.7,-3.02 -4.25,-2.94 z m -7.8,443.34 c 0.24,-0.4 -0.52,-0.56 -1.7,-0.34 -1.9,0.37 -2.4,-0.14 -4.26,-4.34 -1.15,-2.6 -3.4,-5.86 -5,-7.22 -2.3,-1.95 -21.62,-12.02 -25.54,-13.3 -2.36,-0.78 3.16,2.88 6.97,4.6 8.88,4.06 19.3,12.33 21.96,17.42 0.74,1.44 1.8,2.9 2.32,3.25 1.33,0.87 4.68,0.82 5.24,-0.08 z m -44.36,86.1 c 1.73,-3.34 1.8,-3.22 -1.72,-2.8 -1.67,0.18 -3.04,0.07 -3.04,-0.27 0,-1.02 9.23,-10.88 13.97,-14.93 3.8,-3.26 5,-3.8 8.34,-3.8 4.23,0 5.36,-0.87 10.44,-7.95 6.67,-9.3 6.85,-10.03 6.85,-27.36 l 0,-15.71 -3.27,-6.6 c -4.82,-9.75 -11.12,-14.62 -18.94,-14.64 -3.38,0 -11.93,-4.44 -19.6,-10.15 -3.83,-2.85 -9.5,-6.98 -12.62,-9.16 -5.88,-4.14 -14.8,-12.95 -14.8,-14.63 0,-2.17 8.08,-9.45 12.9,-11.6 5.93,-2.68 19.08,-6.3 25.84,-7.16 l 4.8,-0.6 0,5.1 c 0.04,9.42 4.26,15.1 21.34,28.78 7.2,5.77 13.13,9.3 21.53,12.8 3.7,1.57 4.07,3.23 1.98,9.16 -2,5.67 -3.76,15.15 -5.68,30.64 -0.97,7.86 -2.15,16.64 -2.63,19.5 -1.26,7.68 -1.1,9.02 1.36,11.3 1.95,1.8 2.05,2.16 0.82,2.85 -1.2,0.66 -1.24,1.15 -0.36,3.1 0.82,1.8 0.8,2.58 -0.06,3.63 -1.4,1.7 -2.98,1.73 -2.34,0.07 0.3,-0.8 -0.23,-1.5 -1.43,-1.87 -2.33,-0.74 -2.84,-0.4 -2.5,1.66 0.34,1.96 -2.1,5.82 -3.67,5.82 -0.74,0 -1.02,-0.72 -0.78,-2 0.22,-1.13 -0.17,-2.48 -0.88,-3.07 -2.62,-2.17 -5.8,1.04 -7.58,7.7 -1.3,4.88 -3.16,7.62 -6.18,9.18 -3.83,1.98 -4.3,1.53 -2.53,-2.44 1.05,-2.34 1.36,-4 0.83,-4.52 -1.15,-1.16 -2.6,0.46 -5.18,5.86 -2.46,5.13 -5.17,6.58 -12.43,6.67 l -4.16,0.05 1.34,-2.57 z"
         inkscape:connector-curvature="0"
         style="fill:#000000;fill-rule:evenodd" />
      <path
         id="path3949"
         d="m 621.08039,419.21998 1.42,31.36 c 20.13,3.1 35.281,9.24 54.001,20.3 l 21.719,-22.64 -15.68,0.7 c 2.16,11.83 -11.58,13.26 -13.74,1.45 -7.96,3.6 -11.57,-4.36 -8.2,-7.5 l 5.3,-2.4 -4.8,-10.6 -10.6,4.8 2.4,5.3 c 0.47,4.6 -7.5,8.2 -11.1,0.24 -9.4,7.48 -18.8,-2.66 -9.4,-10.13 z"
         inkscape:connector-curvature="0"
         style="fill:#000000;stroke:#ffdd00;stroke-width:3.73930025" />
    </g>
  </g>
  <g
     inkscape:groupmode="layer"
     id="layer1"
     inkscape:label="Cover"
     style="display:inline"
     sodipodi:insensitive="true">
    <path
       d="m 2,2 v 257 c 0,286 298,398 298,398 0,0 298,-112 298,-398 V 2 z"
       id="shine"
       inkscape:connector-curvature="0"
       style="fill:url(#radialGradient3074);stroke:#000000;stroke-width:3" />
  </g>
</svg>
