<?xml version="1.0" encoding="UTF-8" standalone="no"?>
<svg
   xmlns:dc="http://purl.org/dc/elements/1.1/"
   xmlns:cc="http://creativecommons.org/ns#"
   xmlns:rdf="http://www.w3.org/1999/02/22-rdf-syntax-ns#"
   xmlns:svg="http://www.w3.org/2000/svg"
   xmlns="http://www.w3.org/2000/svg"
   xmlns:xlink="http://www.w3.org/1999/xlink"
   xmlns:sodipodi="http://sodipodi.sourceforge.net/DTD/sodipodi-0.dtd"
   xmlns:inkscape="http://www.inkscape.org/namespaces/inkscape"
   width="600"
   height="660"
   id="svg2"
   version="1.1"
   inkscape:version="0.48.2 r9819"
   sodipodi:docname="House_Mallery.svg">
  <metadata
     id="metadata19">
    <rdf:RDF>
      <cc:Work
         rdf:about="">
        <dc:format>image/svg+xml</dc:format>
        <dc:type
           rdf:resource="http://purl.org/dc/dcmitype/StillImage" />
        <dc:title></dc:title>
      </cc:Work>
    </rdf:RDF>
  </metadata>
  <defs
     id="defs17">
    <radialGradient
       inkscape:collect="always"
       xlink:href="#rg"
       id="radialGradient4153"
       gradientUnits="userSpaceOnUse"
       cx="220"
       cy="220"
       r="405" />
    <clipPath
       clipPathUnits="userSpaceOnUse"
       id="clipPath5195">
      <path
         style="fill:#ffff00;stroke:none;stroke-width:3"
         id="path5197"
         d="m 2,2 0,257 c 0,286 298,398 298,398 0,0 298,-112 298,-398 L 598,2 Z"
         inkscape:connector-curvature="0" />
    </clipPath>
    <clipPath
       clipPathUnits="userSpaceOnUse"
       id="clipPath5277">
      <path
         style="fill:#1a1a1a;stroke:none;stroke-width:3"
         id="path5279"
         d="m 599.72861,332.73456 0,257 c 0,286 -298,398 -298,398 0,0 -298,-112 -298,-398 l 0,-257 z"
         inkscape:connector-curvature="0" />
    </clipPath>
    <clipPath
       clipPathUnits="userSpaceOnUse"
       id="clipPath5289">
      <path
         style="fill:#dc143c;fill-opacity:1;stroke:none;stroke-width:3"
         id="path5291"
         d="m 2,2 0,257 c 0,286 298,398 298,398 0,0 298,-112 298,-398 L 598,2 Z"
         inkscape:connector-curvature="0" />
    </clipPath>
    <clipPath
       clipPathUnits="userSpaceOnUse"
       id="clipPath5469">
      <path
         style="fill:#964b00;fill-opacity:1;stroke:none;stroke-width:3"
         id="path5471"
         d="m 2,2 0,257 c 0,286 298,398 298,398 0,0 298,-112 298,-398 L 598,2 Z"
         inkscape:connector-curvature="0" />
    </clipPath>
    <pattern
       patternUnits="userSpaceOnUse"
       width="119.33141"
       height="238.66283"
       patternTransform="translate(1.8988578,1.8104371)"
       id="pattern7206">
      <rect
         transform="matrix(0.70710678,0.70710678,-0.70710678,0.70710678,0,0)"
         id="rect7202"
         height="84.380051"
         width="84.380051"
         y="-42.190025"
         x="42.190025"
         style="fill:#ff0000;stroke:none" />
      <rect
         transform="matrix(0.70710678,0.70710678,-0.70710678,0.70710678,0,0)"
         id="rect7204"
         height="84.380051"
         width="84.380051"
         y="42.190029"
         x="126.57008"
         style="fill:#ff0000;stroke:none" />
    </pattern>
  </defs>
  <sodipodi:namedview
     pagecolor="#ffffff"
     bordercolor="#666666"
     borderopacity="1"
     objecttolerance="10"
     gridtolerance="10"
     guidetolerance="10"
     inkscape:pageopacity="0"
     inkscape:pageshadow="2"
     inkscape:window-width="1366"
     inkscape:window-height="715"
     id="namedview15"
     showgrid="false"
     inkscape:zoom="0.45254834"
     inkscape:cx="-117.99606"
     inkscape:cy="204.62185"
     inkscape:window-x="-8"
     inkscape:window-y="-8"
     inkscape:window-maximized="1"
     inkscape:current-layer="svg2" />
  <radialGradient
     id="rg"
     gradientUnits="userSpaceOnUse"
     cx="220"
     cy="220"
     r="405">
    <stop
       style="stop-color:#fff;stop-opacity:.3"
       offset="0"
       id="stop5" />
    <stop
       style="stop-color:#fff;stop-opacity:.2"
       offset=".2"
       id="stop7" />
    <stop
       style="stop-color:#666;stop-opacity:.1"
       offset=".6"
       id="stop9" />
    <stop
       style="stop-color:#000;stop-opacity:.13"
       offset="1"
       id="stop11" />
  </radialGradient>
  <path
     inkscape:connector-curvature="0"
     style="fill:#ffdd77;fill-opacity:1;stroke:none;stroke-width:3"
     id="path7212"
     d="m 2,2 0,257 c 0,286 298,398 298,398 0,0 298,-112 298,-398 L 598,2 Z" />
  <g
     id="g7233"
     transform="matrix(0.91229114,0,0,0.91229114,45.527789,314.94276)">
    <path
       inkscape:connector-curvature="0"
       id="path1900"
       d="m 210.61551,124.75033 68.30762,91.25495 68.33636,-91.25495 -68.33636,0 -68.30762,0 z"
       style="fill:#ffffff;fill-opacity:1;fill-rule:evenodd;stroke:#000000;stroke-width:3.28842211;stroke-linecap:butt;stroke-linejoin:miter;stroke-miterlimit:4;stroke-opacity:1;stroke-dasharray:none" />
    <path
       inkscape:connector-curvature="0"
       sodipodi:nodetypes="ccccccccccccccccccccc"
       id="path2792"
       d="M 272.5625,125.21875 C 257.19658,136.91298 242.73369,163.0608 240,170.9375 c -45.38879,5.6315 -59.01013,37.37364 -31.4375,48.5625 0.65366,-3.5372 32.28424,-34.07621 35.97849,-35.2243 -4.40364,1.62923 -36.04547,32.03298 -35.88474,35.2868 -6.33117,23.26421 7.29466,32.61535 25.28125,31.0625 2.90109,-14.41044 17.51835,-45.17162 24.4095,-52.79451 -6.73696,8.18151 -21.64794,38.57633 -24.472,53.35701 9.93655,21.52379 23.26305,27.56001 44.6875,14.03125 l 0.375,-61.99013 0.375,61.99013 c 21.42445,13.52876 34.71969,7.49254 44.65625,-14.03125 -3.59166,-13.24549 -18.41776,-43.74757 -24.44075,-53.35701 4.75359,7.7904 19.22334,36.7778 24.4095,52.79451 17.98659,1.55285 31.61244,-7.79829 25.28125,-31.0625 -1.0235,-6.998 -33.29781,-36.39936 -35.91599,-35.90503 4.19851,-0.45978 36.3444,30.1993 36.00974,35.84253 27.57263,-11.18886 13.9513,-42.931 -31.4375,-48.5625 -2.73369,-7.8767 -16.64084,-34.85812 -32.00676,-46.55235 0,0 -4.64225,-4.09784 -6.93074,-3.0414 l -6.375,3.875 z"
       style="fill:#ffffff;fill-opacity:1;fill-rule:evenodd;stroke:#000000;stroke-width:3.28842402;stroke-linecap:butt;stroke-linejoin:miter;stroke-miterlimit:4;stroke-opacity:1;stroke-dasharray:none" />
    <path
       inkscape:connector-curvature="0"
       sodipodi:nodetypes="cc"
       id="path3686"
       d="m 246.70482,177.6338 c 23.13397,11.51861 44.28729,9.17267 64.46537,0"
       style="fill:none;stroke:#000000;stroke-width:1.09614134;stroke-linecap:butt;stroke-linejoin:miter;stroke-miterlimit:4;stroke-opacity:1;stroke-dasharray:none" />
    <path
       inkscape:connector-curvature="0"
       sodipodi:nodetypes="cc"
       id="path4573"
       d="m 223.36391,198.75177 c 35.5671,37.69163 72.61616,39.3463 111.14719,0"
       style="fill:none;stroke:#000000;stroke-width:1.09614134;stroke-linecap:butt;stroke-linejoin:miter;stroke-miterlimit:4;stroke-opacity:1;stroke-dasharray:none" />
  </g>
  <g
     transform="matrix(0.91229114,0,0,0.91229114,-42.860556,137.06119)"
     id="g3071">
    <path
       style="fill:#ffffff;fill-opacity:1;fill-rule:evenodd;stroke:#000000;stroke-width:3.28842211;stroke-linecap:butt;stroke-linejoin:miter;stroke-miterlimit:4;stroke-opacity:1;stroke-dasharray:none"
       d="m 210.61551,124.75033 68.30762,91.25495 68.33636,-91.25495 -68.33636,0 -68.30762,0 z"
       id="path3073"
       inkscape:connector-curvature="0" />
    <path
       style="fill:#ffffff;fill-opacity:1;fill-rule:evenodd;stroke:#000000;stroke-width:3.28842402;stroke-linecap:butt;stroke-linejoin:miter;stroke-miterlimit:4;stroke-opacity:1;stroke-dasharray:none"
       d="M 272.5625,125.21875 C 257.19658,136.91298 242.73369,163.0608 240,170.9375 c -45.38879,5.6315 -59.01013,37.37364 -31.4375,48.5625 0.65366,-3.5372 32.28424,-34.07621 35.97849,-35.2243 -4.40364,1.62923 -36.04547,32.03298 -35.88474,35.2868 -6.33117,23.26421 7.29466,32.61535 25.28125,31.0625 2.90109,-14.41044 17.51835,-45.17162 24.4095,-52.79451 -6.73696,8.18151 -21.64794,38.57633 -24.472,53.35701 9.93655,21.52379 23.26305,27.56001 44.6875,14.03125 l 0.375,-61.99013 0.375,61.99013 c 21.42445,13.52876 34.71969,7.49254 44.65625,-14.03125 -3.59166,-13.24549 -18.41776,-43.74757 -24.44075,-53.35701 4.75359,7.7904 19.22334,36.7778 24.4095,52.79451 17.98659,1.55285 31.61244,-7.79829 25.28125,-31.0625 -1.0235,-6.998 -33.29781,-36.39936 -35.91599,-35.90503 4.19851,-0.45978 36.3444,30.1993 36.00974,35.84253 27.57263,-11.18886 13.9513,-42.931 -31.4375,-48.5625 -2.73369,-7.8767 -16.64084,-34.85812 -32.00676,-46.55235 0,0 -4.64225,-4.09784 -6.93074,-3.0414 l -6.375,3.875 z"
       id="path3075"
       sodipodi:nodetypes="ccccccccccccccccccccc"
       inkscape:connector-curvature="0" />
    <path
       style="fill:none;stroke:#000000;stroke-width:1.09614134;stroke-linecap:butt;stroke-linejoin:miter;stroke-miterlimit:4;stroke-opacity:1;stroke-dasharray:none"
       d="m 246.70482,177.6338 c 23.13397,11.51861 44.28729,9.17267 64.46537,0"
       id="path3077"
       sodipodi:nodetypes="cc"
       inkscape:connector-curvature="0" />
    <path
       style="fill:none;stroke:#000000;stroke-width:1.09614134;stroke-linecap:butt;stroke-linejoin:miter;stroke-miterlimit:4;stroke-opacity:1;stroke-dasharray:none"
       d="m 223.36391,198.75177 c 35.5671,37.69163 72.61616,39.3463 111.14719,0"
       id="path3079"
       sodipodi:nodetypes="cc"
       inkscape:connector-curvature="0" />
  </g>
  <g
     id="g3081"
     transform="matrix(0.91229114,0,0,0.91229114,133.91614,137.06119)">
    <path
       inkscape:connector-curvature="0"
       id="path3083"
       d="m 210.61551,124.75033 68.30762,91.25495 68.33636,-91.25495 -68.33636,0 -68.30762,0 z"
       style="fill:#ffffff;fill-opacity:1;fill-rule:evenodd;stroke:#000000;stroke-width:3.28842211;stroke-linecap:butt;stroke-linejoin:miter;stroke-miterlimit:4;stroke-opacity:1;stroke-dasharray:none" />
    <path
       inkscape:connector-curvature="0"
       sodipodi:nodetypes="ccccccccccccccccccccc"
       id="path3085"
       d="M 272.5625,125.21875 C 257.19658,136.91298 242.73369,163.0608 240,170.9375 c -45.38879,5.6315 -59.01013,37.37364 -31.4375,48.5625 0.65366,-3.5372 32.28424,-34.07621 35.97849,-35.2243 -4.40364,1.62923 -36.04547,32.03298 -35.88474,35.2868 -6.33117,23.26421 7.29466,32.61535 25.28125,31.0625 2.90109,-14.41044 17.51835,-45.17162 24.4095,-52.79451 -6.73696,8.18151 -21.64794,38.57633 -24.472,53.35701 9.93655,21.52379 23.26305,27.56001 44.6875,14.03125 l 0.375,-61.99013 0.375,61.99013 c 21.42445,13.52876 34.71969,7.49254 44.65625,-14.03125 -3.59166,-13.24549 -18.41776,-43.74757 -24.44075,-53.35701 4.75359,7.7904 19.22334,36.7778 24.4095,52.79451 17.98659,1.55285 31.61244,-7.79829 25.28125,-31.0625 -1.0235,-6.998 -33.29781,-36.39936 -35.91599,-35.90503 4.19851,-0.45978 36.3444,30.1993 36.00974,35.84253 27.57263,-11.18886 13.9513,-42.931 -31.4375,-48.5625 -2.73369,-7.8767 -16.64084,-34.85812 -32.00676,-46.55235 0,0 -4.64225,-4.09784 -6.93074,-3.0414 l -6.375,3.875 z"
       style="fill:#ffffff;fill-opacity:1;fill-rule:evenodd;stroke:#000000;stroke-width:3.28842402;stroke-linecap:butt;stroke-linejoin:miter;stroke-miterlimit:4;stroke-opacity:1;stroke-dasharray:none" />
    <path
       inkscape:connector-curvature="0"
       sodipodi:nodetypes="cc"
       id="path3087"
       d="m 246.70482,177.6338 c 23.13397,11.51861 44.28729,9.17267 64.46537,0"
       style="fill:none;stroke:#000000;stroke-width:1.09614134;stroke-linecap:butt;stroke-linejoin:miter;stroke-miterlimit:4;stroke-opacity:1;stroke-dasharray:none" />
    <path
       inkscape:connector-curvature="0"
       sodipodi:nodetypes="cc"
       id="path3089"
       d="m 223.36391,198.75177 c 35.5671,37.69163 72.61616,39.3463 111.14719,0"
       style="fill:none;stroke:#000000;stroke-width:1.09614134;stroke-linecap:butt;stroke-linejoin:miter;stroke-miterlimit:4;stroke-opacity:1;stroke-dasharray:none" />
  </g>
  <g
     transform="matrix(0.91229114,0,0,0.91229114,-131.24891,-40.820341)"
     id="g3091">
    <path
       style="fill:#ffffff;fill-opacity:1;fill-rule:evenodd;stroke:#000000;stroke-width:3.28842211;stroke-linecap:butt;stroke-linejoin:miter;stroke-miterlimit:4;stroke-opacity:1;stroke-dasharray:none"
       d="m 210.61551,124.75033 68.30762,91.25495 68.33636,-91.25495 -68.33636,0 -68.30762,0 z"
       id="path3093"
       inkscape:connector-curvature="0" />
    <path
       style="fill:#ffffff;fill-opacity:1;fill-rule:evenodd;stroke:#000000;stroke-width:3.28842402;stroke-linecap:butt;stroke-linejoin:miter;stroke-miterlimit:4;stroke-opacity:1;stroke-dasharray:none"
       d="M 272.5625,125.21875 C 257.19658,136.91298 242.73369,163.0608 240,170.9375 c -45.38879,5.6315 -59.01013,37.37364 -31.4375,48.5625 0.65366,-3.5372 32.28424,-34.07621 35.97849,-35.2243 -4.40364,1.62923 -36.04547,32.03298 -35.88474,35.2868 -6.33117,23.26421 7.29466,32.61535 25.28125,31.0625 2.90109,-14.41044 17.51835,-45.17162 24.4095,-52.79451 -6.73696,8.18151 -21.64794,38.57633 -24.472,53.35701 9.93655,21.52379 23.26305,27.56001 44.6875,14.03125 l 0.375,-61.99013 0.375,61.99013 c 21.42445,13.52876 34.71969,7.49254 44.65625,-14.03125 -3.59166,-13.24549 -18.41776,-43.74757 -24.44075,-53.35701 4.75359,7.7904 19.22334,36.7778 24.4095,52.79451 17.98659,1.55285 31.61244,-7.79829 25.28125,-31.0625 -1.0235,-6.998 -33.29781,-36.39936 -35.91599,-35.90503 4.19851,-0.45978 36.3444,30.1993 36.00974,35.84253 27.57263,-11.18886 13.9513,-42.931 -31.4375,-48.5625 -2.73369,-7.8767 -16.64084,-34.85812 -32.00676,-46.55235 0,0 -4.64225,-4.09784 -6.93074,-3.0414 l -6.375,3.875 z"
       id="path3095"
       sodipodi:nodetypes="ccccccccccccccccccccc"
       inkscape:connector-curvature="0" />
    <path
       style="fill:none;stroke:#000000;stroke-width:1.09614134;stroke-linecap:butt;stroke-linejoin:miter;stroke-miterlimit:4;stroke-opacity:1;stroke-dasharray:none"
       d="m 246.70482,177.6338 c 23.13397,11.51861 44.28729,9.17267 64.46537,0"
       id="path3097"
       sodipodi:nodetypes="cc"
       inkscape:connector-curvature="0" />
    <path
       style="fill:none;stroke:#000000;stroke-width:1.09614134;stroke-linecap:butt;stroke-linejoin:miter;stroke-miterlimit:4;stroke-opacity:1;stroke-dasharray:none"
       d="m 223.36391,198.75177 c 35.5671,37.69163 72.61616,39.3463 111.14719,0"
       id="path3099"
       sodipodi:nodetypes="cc"
       inkscape:connector-curvature="0" />
  </g>
  <g
     id="g3101"
     transform="matrix(0.91229114,0,0,0.91229114,222.30448,-40.820341)">
    <path
       inkscape:connector-curvature="0"
       id="path3103"
       d="m 210.61551,124.75033 68.30762,91.25495 68.33636,-91.25495 -68.33636,0 -68.30762,0 z"
       style="fill:#ffffff;fill-opacity:1;fill-rule:evenodd;stroke:#000000;stroke-width:3.28842211;stroke-linecap:butt;stroke-linejoin:miter;stroke-miterlimit:4;stroke-opacity:1;stroke-dasharray:none" />
    <path
       inkscape:connector-curvature="0"
       sodipodi:nodetypes="ccccccccccccccccccccc"
       id="path3105"
       d="M 272.5625,125.21875 C 257.19658,136.91298 242.73369,163.0608 240,170.9375 c -45.38879,5.6315 -59.01013,37.37364 -31.4375,48.5625 0.65366,-3.5372 32.28424,-34.07621 35.97849,-35.2243 -4.40364,1.62923 -36.04547,32.03298 -35.88474,35.2868 -6.33117,23.26421 7.29466,32.61535 25.28125,31.0625 2.90109,-14.41044 17.51835,-45.17162 24.4095,-52.79451 -6.73696,8.18151 -21.64794,38.57633 -24.472,53.35701 9.93655,21.52379 23.26305,27.56001 44.6875,14.03125 l 0.375,-61.99013 0.375,61.99013 c 21.42445,13.52876 34.71969,7.49254 44.65625,-14.03125 -3.59166,-13.24549 -18.41776,-43.74757 -24.44075,-53.35701 4.75359,7.7904 19.22334,36.7778 24.4095,52.79451 17.98659,1.55285 31.61244,-7.79829 25.28125,-31.0625 -1.0235,-6.998 -33.29781,-36.39936 -35.91599,-35.90503 4.19851,-0.45978 36.3444,30.1993 36.00974,35.84253 27.57263,-11.18886 13.9513,-42.931 -31.4375,-48.5625 -2.73369,-7.8767 -16.64084,-34.85812 -32.00676,-46.55235 0,0 -4.64225,-4.09784 -6.93074,-3.0414 l -6.375,3.875 z"
       style="fill:#ffffff;fill-opacity:1;fill-rule:evenodd;stroke:#000000;stroke-width:3.28842402;stroke-linecap:butt;stroke-linejoin:miter;stroke-miterlimit:4;stroke-opacity:1;stroke-dasharray:none" />
    <path
       inkscape:connector-curvature="0"
       sodipodi:nodetypes="cc"
       id="path3107"
       d="m 246.70482,177.6338 c 23.13397,11.51861 44.28729,9.17267 64.46537,0"
       style="fill:none;stroke:#000000;stroke-width:1.09614134;stroke-linecap:butt;stroke-linejoin:miter;stroke-miterlimit:4;stroke-opacity:1;stroke-dasharray:none" />
    <path
       inkscape:connector-curvature="0"
       sodipodi:nodetypes="cc"
       id="path3109"
       d="m 223.36391,198.75177 c 35.5671,37.69163 72.61616,39.3463 111.14719,0"
       style="fill:none;stroke:#000000;stroke-width:1.09614134;stroke-linecap:butt;stroke-linejoin:miter;stroke-miterlimit:4;stroke-opacity:1;stroke-dasharray:none" />
  </g>
  <g
     transform="matrix(0.91229114,0,0,0.91229114,45.527789,-40.820344)"
     id="g3111">
    <path
       style="fill:#ffffff;fill-opacity:1;fill-rule:evenodd;stroke:#000000;stroke-width:3.28842211;stroke-linecap:butt;stroke-linejoin:miter;stroke-miterlimit:4;stroke-opacity:1;stroke-dasharray:none"
       d="m 210.61551,124.75033 68.30762,91.25495 68.33636,-91.25495 -68.33636,0 -68.30762,0 z"
       id="path3113"
       inkscape:connector-curvature="0" />
    <path
       style="fill:#ffffff;fill-opacity:1;fill-rule:evenodd;stroke:#000000;stroke-width:3.28842402;stroke-linecap:butt;stroke-linejoin:miter;stroke-miterlimit:4;stroke-opacity:1;stroke-dasharray:none"
       d="M 272.5625,125.21875 C 257.19658,136.91298 242.73369,163.0608 240,170.9375 c -45.38879,5.6315 -59.01013,37.37364 -31.4375,48.5625 0.65366,-3.5372 32.28424,-34.07621 35.97849,-35.2243 -4.40364,1.62923 -36.04547,32.03298 -35.88474,35.2868 -6.33117,23.26421 7.29466,32.61535 25.28125,31.0625 2.90109,-14.41044 17.51835,-45.17162 24.4095,-52.79451 -6.73696,8.18151 -21.64794,38.57633 -24.472,53.35701 9.93655,21.52379 23.26305,27.56001 44.6875,14.03125 l 0.375,-61.99013 0.375,61.99013 c 21.42445,13.52876 34.71969,7.49254 44.65625,-14.03125 -3.59166,-13.24549 -18.41776,-43.74757 -24.44075,-53.35701 4.75359,7.7904 19.22334,36.7778 24.4095,52.79451 17.98659,1.55285 31.61244,-7.79829 25.28125,-31.0625 -1.0235,-6.998 -33.29781,-36.39936 -35.91599,-35.90503 4.19851,-0.45978 36.3444,30.1993 36.00974,35.84253 27.57263,-11.18886 13.9513,-42.931 -31.4375,-48.5625 -2.73369,-7.8767 -16.64084,-34.85812 -32.00676,-46.55235 0,0 -4.64225,-4.09784 -6.93074,-3.0414 l -6.375,3.875 z"
       id="path3115"
       sodipodi:nodetypes="ccccccccccccccccccccc"
       inkscape:connector-curvature="0" />
    <path
       style="fill:none;stroke:#000000;stroke-width:1.09614134;stroke-linecap:butt;stroke-linejoin:miter;stroke-miterlimit:4;stroke-opacity:1;stroke-dasharray:none"
       d="m 246.70482,177.6338 c 23.13397,11.51861 44.28729,9.17267 64.46537,0"
       id="path3117"
       sodipodi:nodetypes="cc"
       inkscape:connector-curvature="0" />
    <path
       style="fill:none;stroke:#000000;stroke-width:1.09614134;stroke-linecap:butt;stroke-linejoin:miter;stroke-miterlimit:4;stroke-opacity:1;stroke-dasharray:none"
       d="m 223.36391,198.75177 c 35.5671,37.69163 72.61616,39.3463 111.14719,0"
       id="path3119"
       sodipodi:nodetypes="cc"
       inkscape:connector-curvature="0" />
  </g>
  <path
     inkscape:connector-curvature="0"
     style="fill:none;fill-opacity:1;stroke:none;stroke-width:3"
     id="path7200"
     d="m 2,2 0,257 c 0,286 298,398 298,398 0,0 298,-112 298,-398 L 598,2 Z" />
  <path
     id="path4147"
     d="m 2,2 0,257 c 0,286 298,398 298,398 0,0 298,-112 298,-398 L 598,2 Z"
     style="fill:url(#radialGradient4153);stroke:#000000;stroke-width:3"
     inkscape:connector-curvature="0" />
</svg>
