<?xml version="1.0" encoding="UTF-8"?>
<svg xmlns="http://www.w3.org/2000/svg" xmlns:xlink="http://www.w3.org/1999/xlink" width="600" height="660">
<defs>
  <radialGradient id="rg" gradientUnits="userSpaceOnUse" cx="220" cy="220" r="405">
    <stop style="stop-color:#fff;stop-opacity:.3" offset="0"/>
    <stop style="stop-color:#fff;stop-opacity:.2" offset=".2"/>
    <stop style="stop-color:#666;stop-opacity:.1" offset=".6"/>
    <stop style="stop-color:#000;stop-opacity:.13" offset="1"/>
  </radialGradient>
  <clipPath id="clip-shield">
    <path id="shield" d="m2,2v257c0,286 298,398 298,398c0,0 298-112 298-398V2z"/>
  </clipPath>
</defs>
<g id="design" clip-path="url(#clip-shield)">
  <rect fill="#308" x="0" y="0" width="600" height="660"/>
  <path fill="#fff" d="M100,660 L300,150 L500,660z"/>
  <path id="star" fill="#fff" transform="translate(300,75)scale(3)" d="m0,-10 2,8 8,2 -8,2 -2,8 -2,-8 -8,-2 8,-2z"/>
  <use xlink:href="#star" transform="rotate(-36,300,500)rotate(36,300,75)"/>
  <use xlink:href="#star" transform="rotate(-24,300,500)rotate(24,300,75)"/>
  <use xlink:href="#star" transform="rotate(-12,300,500)rotate(12,300,75)"/>
  <use xlink:href="#star" transform="rotate(12,300,500)rotate(-12,300,75)"/>
  <use xlink:href="#star" transform="rotate(24,300,500)rotate(-24,300,75)"/>
  <use xlink:href="#star" transform="rotate(36,300,500)rotate(-36,300,75)"/>
</g>
<use id="shine" xlink:href="#shield" fill="url(#rg)" stroke="#000" stroke-width="3"/>
</svg>