<?xml version="1.0" encoding="UTF-8" standalone="no"?>
<svg
   xmlns:dc="http://purl.org/dc/elements/1.1/"
   xmlns:cc="http://creativecommons.org/ns#"
   xmlns:rdf="http://www.w3.org/1999/02/22-rdf-syntax-ns#"
   xmlns:svg="http://www.w3.org/2000/svg"
   xmlns="http://www.w3.org/2000/svg"
   xmlns:xlink="http://www.w3.org/1999/xlink"
   xmlns:sodipodi="http://sodipodi.sourceforge.net/DTD/sodipodi-0.dtd"
   xmlns:inkscape="http://www.inkscape.org/namespaces/inkscape"
   width="600"
   height="660"
   id="svg2"
   version="1.1"
   inkscape:version="0.48.2 r9819"
   sodipodi:docname="House_Willum.svg">
  <metadata
     id="metadata24">
    <rdf:RDF>
      <cc:Work
         rdf:about="">
        <dc:format>image/svg+xml</dc:format>
        <dc:type
           rdf:resource="http://purl.org/dc/dcmitype/StillImage" />
        <dc:title />
      </cc:Work>
    </rdf:RDF>
  </metadata>
  <sodipodi:namedview
     pagecolor="#ffffff"
     bordercolor="#666666"
     borderopacity="1"
     objecttolerance="10"
     gridtolerance="10"
     guidetolerance="10"
     inkscape:pageopacity="0"
     inkscape:pageshadow="2"
     inkscape:window-width="1366"
     inkscape:window-height="715"
     id="namedview22"
     showgrid="false"
     inkscape:zoom="0.50568851"
     inkscape:cx="318.0139"
     inkscape:cy="330.79996"
     inkscape:window-x="-8"
     inkscape:window-y="-8"
     inkscape:window-maximized="1"
     inkscape:current-layer="layer2" />
  <defs
     id="defs4">
    <inkscape:path-effect
       is_visible="true"
       id="path-effect3136"
       effect="spiro" />
    <inkscape:path-effect
       effect="spiro"
       id="path-effect3132"
       is_visible="true" />
    <inkscape:path-effect
       effect="spiro"
       id="path-effect3101"
       is_visible="true" />
    <inkscape:path-effect
       is_visible="true"
       id="path-effect3085"
       effect="spiro" />
    <inkscape:path-effect
       is_visible="true"
       id="path-effect3083"
       effect="spiro" />
    <inkscape:path-effect
       is_visible="true"
       id="path-effect3081"
       effect="spiro" />
    <inkscape:path-effect
       is_visible="true"
       id="path-effect3079"
       effect="spiro" />
    <inkscape:path-effect
       is_visible="true"
       id="path-effect3077"
       effect="spiro" />
    <inkscape:path-effect
       is_visible="true"
       id="path-effect3075"
       effect="spiro" />
    <inkscape:path-effect
       effect="spiro"
       id="path-effect3049"
       is_visible="true" />
    <inkscape:path-effect
       is_visible="true"
       id="path-effect3045"
       effect="spiro" />
    <inkscape:path-effect
       effect="spiro"
       id="path-effect3041"
       is_visible="true" />
    <radialGradient
       id="rg"
       gradientUnits="userSpaceOnUse"
       cx="220"
       cy="220"
       r="405">
      <stop
         style="stop-color:#fff;stop-opacity:.3"
         offset="0"
         id="stop7" />
      <stop
         style="stop-color:#fff;stop-opacity:.2"
         offset=".2"
         id="stop9" />
      <stop
         style="stop-color:#666;stop-opacity:.1"
         offset=".6"
         id="stop11" />
      <stop
         style="stop-color:#000;stop-opacity:.13"
         offset="1"
         id="stop13" />
    </radialGradient>
    <path
       id="shield"
       d="m2,2v257c0,286 298,398 298,398c0,0 298-112 298-398V2z" />
    <radialGradient
       inkscape:collect="always"
       xlink:href="#rg-7"
       id="radialGradient3055-1"
       gradientUnits="userSpaceOnUse"
       cx="220"
       cy="220"
       r="405" />
    <radialGradient
       id="rg-7"
       gradientUnits="userSpaceOnUse"
       cx="220"
       cy="220"
       r="405">
      <stop
         style="stop-color:#fff;stop-opacity:.3"
         offset="0"
         id="stop7-4" />
      <stop
         style="stop-color:#fff;stop-opacity:.2"
         offset=".2"
         id="stop9-0" />
      <stop
         style="stop-color:#666;stop-opacity:.1"
         offset=".6"
         id="stop11-9" />
      <stop
         style="stop-color:#000;stop-opacity:.13"
         offset="1"
         id="stop13-4" />
    </radialGradient>
    <radialGradient
       r="405"
       cy="220"
       cx="220"
       gradientUnits="userSpaceOnUse"
       id="radialGradient3074"
       xlink:href="#rg-7"
       inkscape:collect="always" />
    <inkscape:path-effect
       is_visible="true"
       id="path-effect10120-1"
       effect="spiro" />
    <inkscape:path-effect
       effect="spiro"
       id="path-effect10118-3"
       is_visible="true" />
    <inkscape:path-effect
       effect="spiro"
       id="path-effect10116-9"
       is_visible="true" />
    <inkscape:path-effect
       effect="spiro"
       id="path-effect10114-7"
       is_visible="true" />
    <inkscape:path-effect
       effect="spiro"
       id="path-effect10112-7"
       is_visible="true" />
    <inkscape:path-effect
       effect="spiro"
       id="path-effect10110-2"
       is_visible="true" />
    <linearGradient
       inkscape:collect="always"
       xlink:href="#linearGradient4719-5"
       id="linearGradient4039"
       gradientUnits="userSpaceOnUse"
       gradientTransform="matrix(2.3257341,0,0,2.2943177,447.69485,-1820.2799)"
       x1="-145.25935"
       y1="984.24286"
       x2="-64.14286"
       y2="984.14789" />
    <linearGradient
       inkscape:collect="always"
       id="linearGradient4719-5">
      <stop
         style="stop-color:#666666;stop-opacity:1;"
         offset="0"
         id="stop4721-5" />
      <stop
         id="stop4809-1"
         offset="0.39344174"
         style="stop-color:#666666;stop-opacity:0.74901961;" />
      <stop
         style="stop-color:#666666;stop-opacity:0;"
         offset="1"
         id="stop4723-7" />
    </linearGradient>
    <radialGradient
       inkscape:collect="always"
       xlink:href="#linearGradient4801-8"
       id="radialGradient4041"
       gradientUnits="userSpaceOnUse"
       gradientTransform="matrix(-0.72153181,1.2650715,-2.2729984,-1.2616144,1712.0113,1733.7841)"
       cx="-307.14288"
       cy="782.36218"
       fx="-307.14288"
       fy="782.36218"
       r="63" />
    <linearGradient
       inkscape:collect="always"
       id="linearGradient4801-8">
      <stop
         style="stop-color:#000000;stop-opacity:1;"
         offset="0"
         id="stop4803-2" />
      <stop
         style="stop-color:#000000;stop-opacity:0;"
         offset="1"
         id="stop4805-4" />
    </linearGradient>
    <inkscape:path-effect
       effect="spiro"
       id="path-effect10108-4"
       is_visible="true" />
    <linearGradient
       inkscape:collect="always"
       xlink:href="#linearGradient4719-5"
       id="linearGradient4044"
       gradientUnits="userSpaceOnUse"
       gradientTransform="matrix(-2.4055369,0,0,-1.6485021,142.06168,1726.5307)"
       x1="-145.25935"
       y1="984.24286"
       x2="-64.14286"
       y2="984.14789" />
    <radialGradient
       inkscape:collect="always"
       xlink:href="#linearGradient4801-8"
       id="radialGradient4046"
       gradientUnits="userSpaceOnUse"
       gradientTransform="matrix(0.74628962,-0.90897301,2.3509914,0.90648896,-1165.637,-827.11785)"
       cx="-307.14288"
       cy="782.36218"
       fx="-307.14288"
       fy="782.36218"
       r="63" />
    <inkscape:path-effect
       effect="spiro"
       id="path-effect10102-7"
       is_visible="true" />
    <linearGradient
       inkscape:collect="always"
       xlink:href="#linearGradient4719-5"
       id="linearGradient4049"
       gradientUnits="userSpaceOnUse"
       gradientTransform="matrix(2.334989,0,0,-1.6146975,449.44065,1692.189)"
       x1="-145.25935"
       y1="984.24286"
       x2="-64.14286"
       y2="984.14789" />
    <radialGradient
       inkscape:collect="always"
       xlink:href="#linearGradient4801-8"
       id="radialGradient4051"
       gradientUnits="userSpaceOnUse"
       gradientTransform="matrix(-0.72440295,-0.89033332,-2.2820431,0.88790031,1718.7881,-809.09364)"
       cx="-307.14288"
       cy="782.36218"
       fx="-307.14288"
       fy="782.36218"
       r="63" />
    <inkscape:path-effect
       is_visible="true"
       id="path-effect10096-8"
       effect="spiro" />
    <linearGradient
       inkscape:collect="always"
       xlink:href="#linearGradient4719-5"
       id="linearGradient4054"
       gradientUnits="userSpaceOnUse"
       gradientTransform="matrix(-2.409599,0,0,2.2818507,139.61083,-1810.8163)"
       x1="-145.25935"
       y1="984.24286"
       x2="-64.14286"
       y2="984.14789" />
    <radialGradient
       inkscape:collect="always"
       xlink:href="#linearGradient4801-8"
       id="radialGradient4056"
       gradientUnits="userSpaceOnUse"
       gradientTransform="matrix(0.74754985,1.2581972,2.3549614,-1.2547588,-1170.296,1723.935)"
       cx="-307.14288"
       cy="782.36218"
       fx="-307.14288"
       fy="782.36218"
       r="63" />
    <inkscape:path-effect
       is_visible="true"
       id="path-effect10090-3"
       effect="spiro" />
    <inkscape:path-effect
       effect="spiro"
       id="path-effect10084-1"
       is_visible="true" />
    <inkscape:path-effect
       effect="spiro"
       id="path-effect10082-1"
       is_visible="true" />
    <radialGradient
       inkscape:collect="always"
       xlink:href="#linearGradient4801-8"
       id="radialGradient4061"
       gradientUnits="userSpaceOnUse"
       gradientTransform="matrix(-0.76516322,1.2901254,-2.4104477,-1.2865998,1806.8444,1757.4704)"
       cx="-307.14288"
       cy="782.36218"
       fx="-307.14288"
       fy="782.36218"
       r="63" />
    <inkscape:path-effect
       effect="spiro"
       id="path-effect10080-4"
       is_visible="true" />
    <inkscape:path-effect
       is_visible="true"
       id="path-effect3075-1"
       effect="spiro" />
    <inkscape:path-effect
       effect="spiro"
       id="path-effect3101-7"
       is_visible="true" />
    <linearGradient
       inkscape:collect="always"
       xlink:href="#grad1-7-7"
       id="linearGradient3085-8-8"
       gradientUnits="userSpaceOnUse"
       gradientTransform="matrix(0.77469594,0,0,0.30982404,152.68996,-13.619206)"
       x1="78.877235"
       y1="178.07356"
       x2="301.40585"
       y2="178.07356" />
    <linearGradient
       id="grad1-7-7"
       x1="78.877235"
       y1="178.07356"
       x2="301.40585"
       y2="178.07356"
       gradientTransform="scale(1.577772,0.63380513)"
       gradientUnits="userSpaceOnUse">
      <stop
         offset="0%"
         style="stop-color:#da0;"
         id="stop16-4-4" />
      <stop
         offset="40%"
         style="stop-color:#fd0;"
         id="stop18-0-0" />
      <stop
         offset="60%"
         style="stop-color:#fd0;"
         id="stop20-9-9" />
      <stop
         offset="100%"
         style="stop-color:#da0;"
         id="stop22-4-4" />
    </linearGradient>
    <linearGradient
       inkscape:collect="always"
       xlink:href="#grad1-7-7"
       id="linearGradient3081-8-8"
       gradientUnits="userSpaceOnUse"
       gradientTransform="matrix(0.77469594,0,0,0.30982404,-27.310046,-13.619206)"
       x1="78.877235"
       y1="178.07356"
       x2="301.40585"
       y2="178.07356" />
    <linearGradient
       id="linearGradient3093"
       x1="78.877235"
       y1="178.07356"
       x2="301.40585"
       y2="178.07356"
       gradientTransform="scale(1.577772,0.63380513)"
       gradientUnits="userSpaceOnUse">
      <stop
         offset="0%"
         style="stop-color:#da0;"
         id="stop3095" />
      <stop
         offset="40%"
         style="stop-color:#fd0;"
         id="stop3097" />
      <stop
         offset="60%"
         style="stop-color:#fd0;"
         id="stop3099" />
      <stop
         offset="100%"
         style="stop-color:#da0;"
         id="stop3101" />
    </linearGradient>
    <linearGradient
       y2="178.07356"
       x2="301.40585"
       y1="178.07356"
       x1="78.877235"
       gradientTransform="matrix(0.77469594,0,0,0.30982404,332.68995,-13.619206)"
       gradientUnits="userSpaceOnUse"
       id="linearGradient3128-1"
       xlink:href="#grad1-7-7"
       inkscape:collect="always" />
    <linearGradient
       id="linearGradient3104"
       x1="78.877235"
       y1="178.07356"
       x2="301.40585"
       y2="178.07356"
       gradientTransform="scale(1.577772,0.63380513)"
       gradientUnits="userSpaceOnUse">
      <stop
         offset="0%"
         style="stop-color:#da0;"
         id="stop3106" />
      <stop
         offset="40%"
         style="stop-color:#fd0;"
         id="stop3108" />
      <stop
         offset="60%"
         style="stop-color:#fd0;"
         id="stop3110" />
      <stop
         offset="100%"
         style="stop-color:#da0;"
         id="stop3112" />
    </linearGradient>
  </defs>
  <g
     inkscape:groupmode="layer"
     id="layer2"
     inkscape:label="Elements"
     style="display:inline">
    <use
       height="1052.3622"
       width="744.09448"
       y="0"
       x="0"
       id="background"
       xlink:href="#shield"
       style="fill:#000000;fill-opacity:1"
       transform="matrix(-1,0,0,1,600,0)" />
    <path
       inkscape:connector-curvature="0"
       id="chief"
       d="M 2,2 2,150 598,150 598,2 2,2 z"
       style="fill:#ffffff" />
    <g
       transform="matrix(0.77526059,0,0,0.77526059,76.847368,0.1674318)"
       id="g3298">
      <path
         inkscape:connector-curvature="0"
         id="path3043"
         d="m 301.48393,181.94936 c -0.64305,-2.02607 -1.09547,-2.11686 -7.25913,-1.45679 -3.61533,0.38717 -7.16991,0.93287 -7.89906,1.21267 -1.70192,0.65309 -1.80424,-3.82674 -0.12574,-5.50524 0.66,-0.66 2.5725,-1.20614 4.25,-1.21365 7.89198,-0.0353 10.69996,-3.86786 10.90292,-14.88108 0.14676,-7.96333 -3.0771,-15.3577 -10.10261,-23.17176 -4.17862,-4.64763 -4.43256,-5.25031 -3.87784,-9.20341 0.5869,-4.18241 0.54587,-4.25265 -3.63944,-6.2301 -2.32817,-1.1 -4.67796,-3.01419 -5.22177,-4.25375 -2.01559,-4.59434 -4.2285,-0.63237 -4.41158,7.89841 -0.10171,4.7392 2.51704,14.64197 6.08992,23.02897 l 1.99098,4.67363 -3.68537,10.03284 c -2.02695,5.51805 -4.36414,10.59616 -5.19375,11.28467 -0.87702,0.72786 -5.44146,1.42386 -10.90492,1.66282 C 254.31606,176.181 253,176.01669 253,174.65446 253,172.44091 256.14104,171 260.96638,171 c 8.68915,0 12.59812,-3.41347 15.04725,-13.13986 1.01952,-4.04885 0.80879,-5.35438 -2.38099,-14.75125 -1.92473,-5.6701 -4.65446,-11.97587 -6.06607,-14.01283 C 266.15496,127.0591 265,124.83257 265,124.14821 c 0,-0.68435 1.50439,-3.58517 3.3431,-6.44625 3.00956,-4.68296 7.00557,-8.8068 14.9666,-15.44535 1.47967,-1.23386 2.67533,-2.808859 2.65703,-3.499997 -0.0183,-0.691137 -0.92955,-0.180365 -2.025,1.13505 -2.58413,3.103007 -3.70652,1.915767 -2.06078,-2.179828 C 282.59079,95.945326 283.43601,93.6 283.7592,92.5 c 0.96883,-3.297423 -2.30199,-0.04904 -3.80929,3.783156 -1.79708,4.568954 -8.5511,10.402344 -14.73742,12.728584 -2.90813,1.09354 -5.93037,1.98826 -6.71608,1.98826 -0.7857,0 -2.93037,0.71616 -4.76591,1.59147 -5.14145,2.45179 -10.09855,0.63888 -17.96661,-6.57077 -6.46932,-5.92796 -6.53273,-6.037785 -7.22657,-12.516827 -0.60102,-5.612256 -0.38484,-7.187409 1.52907,-11.141018 1.33285,-2.753309 3.57686,-5.399849 5.58134,-6.582517 3.27325,-1.931267 4.73706,-4.52571 1.95004,-3.456228 -2.2776,0.873994 -2.61064,-0.357534 -1.08449,-4.010145 1.36766,-3.273265 1.3427,-3.40303 -0.53965,-2.805596 -2.23424,0.709122 -2.42117,0.196389 -0.93845,-2.57411 C 235.84969,61.412345 235.7431,61 234.53518,61 c -1.75597,0 -1.99426,-1.140923 -0.54167,-2.593512 1.23438,-1.234376 -2.4476,-15.143178 -4.65479,-17.583636 -1.99136,-2.201828 -8.95445,-3.386659 -10.81727,-1.840656 -1.10722,0.918912 -1.16976,1.695566 -0.29173,3.622634 1.46182,3.208347 -1.13832,6.845703 -7.40923,10.364808 -2.47995,1.391699 -6.41497,4.059096 -8.74449,5.927548 -4.21137,3.377843 -4.25496,3.387899 -7.65574,1.766179 -4.79885,-2.288414 -4.38985,-4.588462 2.12002,-11.922053 11.59356,-13.060535 10.74797,-12.417514 28.18177,-21.430747 5.47897,-2.832614 7.75207,-2.596929 4.93849,0.512045 C 227.5935,30.106663 227.55825,31 229.53518,31 232.3874,31 241,37.818707 241,40.076839 c 0,0.542262 0.675,1.244952 1.5,1.561535 0.825,0.316582 1.5,1.562459 1.5,2.768615 0,1.206156 0.48082,2.67383 1.06849,3.261499 0.58767,0.587668 1.15858,5.290168 1.2687,10.45 C 246.50963,66.198691 246.77295,67.5 248.23548,67.5 250.6603,67.5 262,59.009588 262,57.19404 c 0,-2.640659 -5.67492,-10.461724 -12.45495,-17.165152 -5.60507,-5.54175 -6.54451,-6.97792 -6.54131,-10 C 243.00808,25.927609 246.26878,20 248.52049,20 c 1.22383,0 1.33154,0.407968 0.51199,1.939312 -0.57084,1.066621 -0.69917,2.1254 -0.28518,2.352841 0.41398,0.227441 5.0277,-0.165326 10.2527,-0.872816 5.225,-0.70749 12.04736,-1.316269 15.16079,-1.352841 l 5.6608,-0.0665 2.18025,-4.503799 c 2.33568,-4.824881 6.42469,-7.045955 8.06645,-4.381548 0.63947,1.037779 5.69303,1.656518 20.14267,2.466187 17.60958,0.986734 20.11619,1.364303 28.78904,4.336469 16.58215,5.682664 29.22769,12.457237 34.95958,18.72884 6.58621,7.206362 6.80557,10.446686 0.29042,4.290038 -5.8791,-5.555599 -9.21839,-7.881846 -16.82959,-11.723964 C 342.67653,23.769536 322.21272,19 305.02356,19 c -5.99804,0 -11.14653,0.389947 -11.44108,0.866548 -0.29456,0.476601 9.24138,4.133061 21.19098,8.125466 24.22443,8.093473 42.99725,16.901428 52.66687,24.710588 4.62693,3.7367 6.774,6.455638 9.71092,12.297398 5.60952,11.157806 10.85066,28.282677 10.84962,35.45 -0.001,7.4699 -1.27918,6.17574 -2.91337,-2.95 -1.74672,-9.754152 -3.69427,-15.516837 -8.95589,-26.5 -6.39462,-13.348215 -10.56989,-17.226794 -27.53833,-25.581467 -12.27651,-6.044536 -17.08625,-7.511505 -13.77661,-4.201866 2.81029,2.810294 0.6654,2.408185 -6.62894,-1.242744 -7.83012,-3.919103 -25.75664,-10.284287 -27.41097,-9.732842 -1.08493,0.361641 19.21418,19.332497 28.53842,26.671037 9.724,7.653177 29.10632,29.999717 27.45371,31.652328 -0.29052,0.290521 -3.39487,-2.71884 -6.89856,-6.687469 -7.10633,-8.049361 -16.10641,-16.974226 -16.60973,-16.470915 -0.18051,0.180512 2.25894,5.322836 5.42101,11.427387 5.21517,10.068202 5.7795,11.77575 6.07532,18.382867 0.36295,8.106634 -1.03043,7.656284 -2.21629,-0.716316 -0.9107,-6.429809 -8.78113,-21.564409 -16.98066,-32.653294 -4.60752,-6.231111 -7.90079,-9.531368 -12.18683,-12.212653 -8.52459,-5.332872 -18.15563,-10.184904 -18.84606,-9.49448 -0.32841,0.328412 0.25695,2.793859 1.30081,5.47877 1.32025,3.395825 3.23322,5.889124 6.28501,8.19166 12.76989,9.634718 26.67678,24.733637 24.64882,26.761597 -0.26469,0.264691 -2.13271,-1.443136 -4.15115,-3.795172 C 314.31836,67.113747 302.92679,57 300.3355,57 c -0.54052,0 -1.39963,1.6875 -1.90913,3.75 -0.71866,2.90918 -1.48233,3.828394 -3.40591,4.099631 C 290.44536,65.494749 274,73.773663 274,75.43174 274,76.320614 274.84584,77 275.95249,77 c 5.41294,0 30.14519,16.328304 35.63578,23.52685 3.04496,3.99214 11.28468,8.10488 24.91173,12.43434 28.56587,9.07567 33.61982,11.47421 42.6311,20.23217 4.95678,4.81744 7.5371,11.48786 6.41686,16.58829 -0.36045,1.6411 -2.18554,4.7715 -4.05577,6.95644 -2.68895,3.14144 -4.71217,4.34067 -9.67006,5.73178 -8.16059,2.28975 -25.94567,2.39964 -34.44316,0.21283 C 330.22145,160.84073 317,155.12071 317,153.86611 c 0,-1.1439 -0.35324,-1.21709 7.69228,1.59385 13.07245,4.56724 23.42764,6.05528 33.38869,4.79797 8.74015,-1.10321 16.71205,-3.85566 20.13249,-6.95111 1.1826,-1.07023 1.78654,-3.0564 1.78654,-5.8753 0,-3.84463 -0.4079,-4.55847 -4.197,-7.34501 C 373.49465,138.38893 371.07475,137 370.42544,137 c -0.6493,0 -1.73682,-0.67026 -2.4167,-1.48947 C 366.39811,133.56984 348.98116,128 344.52323,128 c -3.52001,0 -5.72598,-2.18083 -4.80477,-4.75 0.24651,-0.6875 -0.0676,-1.25 -0.69798,-1.25 -0.63041,0 -1.00541,1.0125 -0.83334,2.25 0.27225,1.95793 -0.075,2.20779 -2.67526,1.92482 -1.64347,-0.17885 -3.53626,-0.78009 -4.2062,-1.33609 -0.66994,-0.556 -1.73809,-0.68952 -2.37368,-0.2967 -1.42623,0.88145 -2.8962,-1.28167 -2.91669,-4.29203 -0.008,-1.2375 -0.4941,-2.25 -1.07928,-2.25 -0.58518,0 -0.92268,1.2375 -0.75,2.75 0.54932,4.81139 -1.64793,3.94726 -2.60846,-1.02586 -1.08442,-5.61456 -3.04849,-5.7378 -3.14383,-0.19726 -0.0832,4.83659 -2.37071,5.99077 -2.58926,1.30645 -0.0855,-1.83333 -0.0896,-4.23333 -0.009,-5.33333 0.0997,-1.36024 -1.11346,-2.71973 -3.79259,-4.25 -5.65784,-3.23166 -6.27636,-2.9892 -5.50452,2.15777 1.43084,9.54149 -2.48152,14.67529 -4.64276,6.09223 -0.62321,-2.475 -1.5363,-4.5 -2.02909,-4.5 -1.34293,0 -4.85857,6.19926 -4.86285,8.57485 -0.005,2.64374 4.09615,14.74512 6.75873,19.94433 1.12124,2.18945 3.43338,5.7302 5.13808,7.86832 3.4441,4.31979 3.82551,6.99174 1.60561,11.24819 -0.82161,1.57537 -1.53283,4.88931 -1.58048,7.36431 -0.18062,9.38144 -3.76127,17.24408 -5.44175,11.94936 z"
         style="fill:#333333" />
      <path
         inkscape:connector-curvature="0"
         id="path3041"
         d="m 334.60417,120.27083 c -0.33229,-0.33229 -0.56864,0.25834 -0.52522,1.3125 0.048,1.16495 0.28494,1.4019 0.60416,0.60417 0.28887,-0.72187 0.25335,-1.58437 -0.0789,-1.91667 z"
         style="fill:#ffffff" />
      <path
         inkscape:connector-curvature="0"
         id="path3039"
         d="m 290.36163,118.5 c 0.31658,-0.825 0.18787,-1.5 -0.28603,-1.5 -0.47389,0 -1.12064,0.675 -1.43723,1.5 -0.31658,0.825 -0.18787,1.5 0.28603,1.5 0.47389,0 1.12064,-0.675 1.43723,-1.5 z"
         style="fill:#ffffff" />
      <path
         inkscape:connector-curvature="0"
         id="path3037"
         d="m 282.39794,112.86455 c 1.37062,-0.6245 2.75238,-1.81391 3.07059,-2.64313 1.09874,-2.86329 -0.54339,-2.60809 -3.73135,0.57986 -3.42552,3.42552 -3.2859,3.86149 0.66076,2.06327 z"
         style="fill:#ffffff" />
      <path
         inkscape:connector-curvature="0"
         id="path3035"
         d="M 256.39301,101.41821 C 257.73401,97.923635 257.06193,96 254.5,96 c -2,0 -2.5,-0.5 -2.5,-2.5 0,-3.078308 -0.56642,-3.117733 -3.59178,-0.25 -3.35948,3.184449 -2.98557,5.284774 1.34178,7.53714 4.76676,2.48107 5.89208,2.58798 6.64301,0.63107 z"
         style="fill:#ffffff" />
      <path
         inkscape:connector-curvature="0"
         id="path3033"
         d="m 261.8,100.8 c 0.66,-0.66 1.18503,-2.1225 1.16673,-3.25 -0.0319,-1.96501 -0.11481,-1.952125 -2,0.310784 -2.89835,3.479056 -2.19335,5.965836 0.83327,2.939216 z"
         style="fill:#ffffff" />
      <path
         inkscape:connector-curvature="0"
         id="path3031"
         d="m 271.03811,93.9253 c 1.14332,-2.241086 1.88175,-4.603586 1.64097,-5.25 C 272.33096,87.740705 268,95.985584 268,97.582905 c 0,1.369241 1.22755,-0.10862 3.03811,-3.657605 z"
         style="fill:#ffffff" />
      <path
         inkscape:connector-curvature="0"
         id="path3029"
         d="M 278,91.389216 C 278,90.625147 277.78656,90 277.52568,90 c -0.60155,0 -3.53688,5.631542 -3.49241,6.70034 C 274.09081,98.083397 278,92.849315 278,91.389216 z"
         style="fill:#ffffff" />
      <path
         inkscape:connector-curvature="0"
         id="path3027"
         d="M 238.39301,89.418213 C 239.33166,86.972133 239.11021,83 238.03518,83 236.73319,83 235,86.388662 235,88.934259 c 0,2.423731 2.5112,2.78191 3.39301,0.483954 z"
         style="fill:#ffffff" />
      <path
         inkscape:connector-curvature="0"
         id="path3025"
         d="m 269.67,69.598773 c 8.24735,-2.468541 15.60467,-5.757364 18.43858,-8.242287 1.33762,-1.172903 1.45183,-2.290265 0.678,-6.633488 -0.51181,-2.872649 -1.46067,-5.759326 -2.10857,-6.414838 -1.78975,-1.810759 -28.61168,-12.467583 -30.47583,-12.10858 -1.15423,0.222286 -0.2012,1.483296 3.25537,4.307359 C 265.79894,45.687938 270,52.288467 270,57.070781 c 0,3.228871 -0.34244,3.747706 -2.79761,4.23874 -1.53868,0.307737 -4.80118,2.375812 -7.25,4.595723 -3.68901,3.344176 -4.19521,4.210051 -2.95239,5.050166 2.18556,1.477388 3.76749,1.308003 12.67,-1.356637 z"
         style="fill:#ffffff" />
      <path
         inkscape:connector-curvature="0"
         id="path3023"
         d="m 286,42.467881 c 0,-0.292665 -0.63905,-2.061588 -1.42012,-3.930939 -1.7231,-4.123959 -5.3965,-5.434051 -17.07988,-6.091419 l -8,-0.450123 4.5,2.168719 c 5.74087,2.766739 20.26524,8.793557 21.25,8.817583 0.4125,0.01006 0.75,-0.221155 0.75,-0.513821 z"
         style="fill:#ffffff" />
      <path
         inkscape:connector-curvature="0"
         id="path3021"
         d="m 298.5,34.505834 c -7.99042,-7.059256 -11.52553,-8.31236 -10.01391,-3.549671 0.41548,1.309086 3.00603,3.198371 6.8413,4.98936 8.44837,3.945206 8.98974,3.69954 3.17261,-1.439689 z"
         style="fill:#ffffff" />
      <path
         inkscape:connector-curvature="0"
         id="path3010"
         d="m 280.52707,28.956195 c 0.35481,-0.574093 0.12517,-1.670295 -0.51031,-2.436005 -0.87753,-1.057358 -2.88247,-1.256754 -8.33609,-0.829045 -3.94937,0.309735 -7.56293,0.910703 -8.03015,1.335483 -0.46721,0.42478 2.00779,1.210222 5.5,1.745427 8.83096,1.353402 10.63585,1.382616 11.37655,0.18414 z"
         style="fill:#ffffff" />
      <path
         inkscape:connector-curvature="0"
         id="path3161"
         d="m 302.30401,179.57875 c -0.9365,-1.67342 -1.58747,-1.7347 -7.49669,-0.70565 C 286.71998,180.28145 287,180.29483 287,178.5 c 0,-0.88724 0.91915,-1.50228 2.25,-1.50558 9.51141,-0.0236 13.94051,-5.38873 13.94629,-16.89371 0.005,-9.02906 -4.35403,-18.16754 -12.59583,-26.40934 l -2.59296,-2.59296 2.61515,-7.29921 c 1.43833,-4.01456 3.03105,-8.09338 3.53937,-9.06404 0.68768,-1.31314 0.48489,-1.93342 -0.79233,-2.42354 -1.20456,-0.46223 -2.55965,0.35118 -4.54313,2.72706 -1.55461,1.86218 -2.82656,3.99071 -2.82656,4.73008 0,1.03067 -0.69992,0.93086 -3,-0.42783 -3.74804,-2.21403 -3.75045,-2.9015 -0.0169,-4.83218 3.44871,-1.78339 6.70555,-7.22013 5.21693,-8.70875 -1.29651,-1.29651 -5.59277,1.0486 -10.82516,5.90891 -3.68754,3.42531 -4.19996,4.47628 -4.83022,9.90667 -0.43185,3.72083 -0.26101,7.72396 0.44088,10.33058 0.63027,2.34065 0.89137,4.5103 0.58022,4.82145 -0.31114,0.31115 -0.56572,-0.0962 -0.56572,-0.90516 0,-0.80899 -1.35,-3.59962 -3,-6.2014 -1.65,-2.60178 -3,-5.15614 -3,-5.67636 0,-2.08974 7.24066,-12.08445 10.64773,-14.69769 8.05057,-6.17484 9.46624,-7.81453 10.4178,-12.066332 0.82343,-3.679245 0.68319,-4.574008 -1.00002,-6.380723 -1.25449,-1.346536 -2.69553,-1.908454 -4.01162,-1.564287 C 281.73253,89.621199 281,89.332214 281,88.465397 c 0,-1.988164 -1.88758,-2.803589 -3.46308,-1.496036 -1.06169,0.881125 -1.59378,0.751457 -2.33241,-0.568401 -1.59961,-2.858341 -4.06995,-0.843065 -6.86406,5.599627 -2.97144,6.851552 -4.13321,7.497779 -1.85113,1.029676 C 268.39976,87.615495 268.39405,86 266.46446,86 c -0.86175,0 -2.36121,1.92623 -3.41724,4.389835 -2.55726,5.965843 -4.32,6.766994 -2.38333,1.083207 1.81741,-5.33383 1.15997,-6.734471 -1.71341,-3.650269 -2.31352,2.483281 -3.23013,2.644044 -5.82734,1.022059 C 250.36887,87.124759 244,92.152775 244,96.04726 244,99.249273 246.28712,102 248.94946,102 c 0.99363,0 2.42398,0.89727 3.17857,1.99394 1.31102,1.90535 1.5708,1.92433 5.84769,0.42715 3.00317,-1.05129 4.59338,-1.2138 4.83333,-0.49393 0.66171,1.98511 3.02847,1.09524 5.50572,-2.0701 2.45635,-3.138646 2.46072,-3.139776 3.19503,-0.8262 1.1044,3.47966 -0.70926,4.51039 -16.66598,9.4716 -7.14768,2.22233 -9.90399,1.37593 -17.80269,-5.46683 -5.11036,-4.42718 -5.85654,-5.555534 -6.46117,-9.770423 -0.37596,-2.620864 -0.66119,-5.827267 -0.63385,-7.12534 0.078,-3.704545 4.07055,-9.904126 7.21775,-11.20774 2.98771,-1.237548 4.6206,-4.87369 3.19978,-7.125292 -0.45356,-0.718759 -0.87323,-5.240551 -0.9326,-10.048427 -0.12344,-9.995272 -2.57918,-16.289513 -7.89667,-20.239699 -3.60316,-2.676664 -9.66998,-3.797847 -13.22885,-2.444766 -2.31892,0.881649 -2.49557,1.336108 -1.91955,4.938344 0.73573,4.600948 0.82692,4.493909 -10.65486,12.506251 -6.97124,4.864751 -8.02363,5.305305 -10.25,4.290902 C 194.1165,58.187682 193,57.004388 193,56.179898 c 0,-0.82449 2.3625,-4.077375 5.25,-7.228633 2.8875,-3.151259 5.75731,-6.341945 6.37736,-7.090413 1.90382,-2.298127 5.4042,-4.922353 7.76103,-5.818418 1.2338,-0.469091 4.43925,-2.245539 7.12322,-3.947663 C 225.03126,28.594315 226,28.359943 226,30.525 c 0,0.90267 1.25471,1.775942 3.07462,2.139925 3.97915,0.795828 11.25044,7.787466 13.37813,12.863596 0.91556,2.184313 1.9077,8.021479 2.20474,12.971479 0.34557,5.758616 1.05055,9.53319 1.95746,10.480451 1.50708,1.574145 1.44052,1.597139 8.34705,-2.883295 L 257.42399,64.5 l -2.40513,3.256866 c -3.06973,4.156829 -1.81597,5.641137 4.72345,5.591999 4.09739,-0.03079 7.226,-0.793305 19.75769,-4.815431 1.1,-0.353052 -0.5875,0.739709 -3.75,2.428358 C 272.5875,72.650441 270,74.423094 270,74.901021 270,76.098888 274.58517,79 276.47839,79 c 1.51404,0 2.6186,0.435833 7.34497,2.89816 1.27785,0.665728 4.0286,2.099234 6.11277,3.185569 2.08418,1.086334 5.08867,3.299405 6.67664,4.917934 1.58798,1.61853 3.35023,2.955281 3.91612,2.970559 0.56589,0.01528 3.86163,2.885925 7.32387,6.379216 4.21154,4.249312 8.33909,7.273702 12.47111,9.137992 9.64104,4.34985 12.46623,5.35813 28.17613,10.0558 28.69138,8.57947 41.90682,23.31033 32.52776,36.25775 -2.32926,3.21545 -4.09913,4.4377 -8.1815,5.65003 -7.83983,2.32819 -9.12662,1.78215 -2.34626,-0.99562 3.3,-1.35194 7.28532,-3.86854 8.85627,-5.59244 2.49958,-2.74295 2.77602,-3.64828 2.21367,-7.24966 -0.47813,-3.06202 -1.59307,-4.93749 -4.35627,-7.32774 -2.04252,-1.76685 -4.27203,-3.22935 -4.95448,-3.25 -0.68244,-0.0207 -2.19954,-1.50005 -3.37133,-3.28755 -1.4052,-2.14356 -4.04677,-4.05749 -7.75919,-5.62187 -3.09577,-1.30453 -7.42867,-3.15228 -9.62867,-4.1061 -2.2,-0.95383 -6.12766,-2.01403 -8.72814,-2.356 -2.60047,-0.34198 -5.52547,-1.04926 -6.5,-1.57173 -0.97452,-0.52248 -4.24686,-1.67592 -7.27186,-2.56319 -5.1481,-1.51002 -12.5764,-4.59602 -16,-6.64701 -7.80082,-4.67328 -9.11765,-3.94987 -8.3219,4.57166 0.68898,7.37814 -0.0676,8.52522 -1.6781,2.54424 -1.32135,-4.9071 -3.69422,-5.25744 -6.83511,-1.00915 -3.34274,4.5213 -3.57665,7.80714 -1.10663,15.54544 2.7565,8.63576 5.8134,14.80226 9.84079,19.85121 3.44553,4.31949 3.82726,6.99125 1.60711,11.24819 -0.82161,1.57537 -1.52824,5.56431 -1.57028,8.86431 -0.0421,3.3 -0.42067,6.88004 -0.84139,7.95565 -0.73352,1.87534 -0.80705,1.88039 -1.79048,0.1231 z"
         style="fill:#000000" />
      <path
         inkscape:connector-curvature="0"
         id="path3159"
         d="m 239.83948,90.452947 c 2.63259,-5.777904 0.38823,-11.546668 -3.30106,-8.484831 -1.8543,1.538934 -3.88453,7.687558 -3.16097,9.573125 0.94612,2.465534 5.16666,1.754736 6.46203,-1.088294 z"
         style="fill:#ffffff" />
      <path
         inkscape:connector-curvature="0"
         id="path3157"
         d="m 256.4383,173.90016 c -0.30599,-0.49509 0.48272,-0.97713 1.75268,-1.07121 1.26996,-0.0941 2.98402,-0.27124 3.80902,-0.3937 0.825,-0.12246 2.70297,-0.27049 4.17327,-0.32895 1.47031,-0.0585 4.1165,-1.32069 5.88044,-2.80495 l 3.20716,-2.69865 -0.73141,2.44865 c -0.97018,3.248 -3.241,4.91304 -6.97059,5.11106 -1.68238,0.0893 -4.74758,0.2694 -6.81156,0.40016 -2.06397,0.13076 -4.00303,-0.16732 -4.30901,-0.66241 z"
         style="fill:#000000" />
      <path
         inkscape:connector-curvature="0"
         id="path3155"
         d="m 278.84414,154.5 c -0.33492,-0.55 -0.90155,-2.575 -1.25917,-4.5 l -0.65023,-3.5 1.59483,2.80776 c 1.44561,2.54505 1.74867,7.54731 0.31457,5.19224 z"
         style="fill:#000000" />
      <path
         inkscape:connector-curvature="0"
         id="path3153"
         d="M 284,66.550175 C 284,66.337294 285.575,65.189715 287.5,64 290.20636,62.327378 291,61.175112 291,58.918441 291,57.044061 291.51551,56 292.44098,56 c 0.79254,0 1.71335,-0.4407 2.04625,-0.979333 C 295.30326,53.700296 293.2395,50 291.68706,50 291.00364,50 289.66947,49.094856 288.72224,47.988569 286.77688,45.716551 286.35701,43.957014 288.2,45.8 c 1.57529,1.575292 4.78558,1.542214 4.85266,-0.05 0.029,-0.6875 1.08073,0.819653 2.33726,3.349229 1.7619,3.546962 2.15024,5.591892 1.69734,8.937936 -0.53382,3.943911 -0.90574,4.420802 -4.08726,5.240916 -1.925,0.496215 -3.95,1.241789 -4.5,1.65683 -1.2816,0.967119 -4.5,2.122357 -4.5,1.615264 z"
         style="fill:#000000" />
      <path
         inkscape:connector-curvature="0"
         id="path3151"
         d="M 262.35692,60.158101 C 263.26061,59.159531 264,57.779212 264,57.090727 264,54.814115 257.20203,45.594142 251.05328,39.531303 246.53052,35.071745 245,32.859376 245,30.781303 245,28.694856 245.48492,28 246.94098,28 c 1.06754,0 2.2191,-0.45 2.55902,-1 0.98757,-1.597917 8.5,-1.250568 8.5,0.393011 0,0.766156 -0.675,1.652033 -1.5,1.968615 -0.825,0.316583 -1.5,1.212243 -1.5,1.990358 0,0.778114 -0.9,1.650109 -2,1.937765 -3.19199,0.834725 -2.39862,2.264373 4.08209,7.355914 5.95003,4.674606 10.11096,10.352878 11.25136,15.354337 0.49732,2.181118 0.0477,2.721539 -3.52479,4.236841 -3.95172,1.676144 -4.0374,1.673392 -2.45174,-0.07874 z"
         style="fill:#000000" />
      <path
         inkscape:connector-curvature="0"
         id="path3149"
         d="m 324.1081,57.31498 c -1.67905,-2.036979 -2.86981,-3.886603 -2.64614,-4.110276 0.56736,-0.567353 7.53804,4.846939 7.53804,5.854968 0,2.32703 -2.17507,1.551294 -4.8919,-1.744692 z"
         style="fill:#000000" />
      <path
         inkscape:connector-curvature="0"
         id="path3147"
         d="M 313.25,47.825103 C 311.4625,46.72004 310,45.40732 310,44.907949 c 0,-1.690611 1.95502,-0.920163 5.23422,2.062738 3.7349,3.397421 2.78846,3.804966 -1.98422,0.854416 z"
         style="fill:#000000" />
      <path
         inkscape:connector-curvature="0"
         id="path3145"
         d="m 288.63677,38.626484 c -5.28354,-3.194348 -7.13989,-6.163493 -7.00416,-11.202829 0.1284,-4.767649 2.1656,-11.994774 2.304,-8.173655 0.0862,2.378839 2.74399,2.215316 4.06339,-0.25 0.5887,-1.1 1.81953,-2 2.73518,-2 1.29486,0 1.39815,0.266667 0.46482,1.2 -0.66,0.66 -1.2,1.734702 -1.2,2.388226 0,0.653524 7.0875,3.540849 15.75,6.416276 16.61361,5.514718 20.44494,7.097184 18.63986,7.698878 -0.60765,0.202549 -6.68145,-1.447043 -13.49734,-3.66576 -10.90421,-3.549554 -12.52885,-3.850012 -13.52766,-2.50178 -1.00474,1.356241 -1.55134,1.286682 -4.75843,-0.605547 -1.99281,-1.175789 -4.34223,-1.861916 -5.22093,-1.524727 -2.27,0.87108 -0.98214,5.531753 2.27276,8.224941 1.82604,1.510912 2.32285,2.565569 1.7083,3.626484 -0.67967,1.173336 -1.26841,1.253026 -2.72979,0.369493 z"
         style="fill:#000000" />
      <path
         inkscape:connector-curvature="0"
         id="path3008"
         d="m 323.73097,18.344063 c 0.67703,-0.273923 2.02703,-0.290597 3,-0.03705 0.97297,0.253544 0.41903,0.477663 -1.23097,0.498042 -1.65,0.02038 -2.44606,-0.187065 -1.76903,-0.460988 z"
         style="fill:#000000" />
    </g>
    <g
       id="g3216"
       style="fill:#dddddd;stroke:#000000;stroke-width:1.21382701;display:inline"
       transform="matrix(0.90622466,0,0,0.90622466,14.438889,117.70883)">
      <path
         d="m 305.99432,515.84933 c 5.88909,23.98881 13.34312,23.98881 18.94394,10e-6 5.60081,-23.98879 7.33048,-53.51662 1.15311,-77.50541 -6.17737,-23.98878 -16.22589,-23.98877 -22.40326,10e-6 -6.17738,23.98879 -3.58288,53.51661 2.30621,77.50539 z"
         id="path39"
         inkscape:connector-curvature="0"
         style="fill:#dddddd;stroke:#000000;stroke-width:2.42765403" />
      <path
         d="m 296.06442,431.78605 37.65065,1e-5 -5.45448,-350.77532 -13.37086,-30.322655 -13.37084,30.322655 -5.45447,350.77531 z"
         id="path41"
         inkscape:connector-curvature="0"
         style="fill:#dddddd;stroke:#000000;stroke-width:2.42765403;stroke-opacity:1" />
      <path
         d="m 313.06359,428.62047 1.35957,-333.660402 4.09491,333.660402 -5.45448,0 z"
         id="path43"
         inkscape:connector-curvature="0"
         style="fill:#dddddd;stroke:#000000;stroke-width:1.21382701" />
      <path
         d="m 308.57246,527.66098 c -0.2245,-0.54399 -0.4441,-1.08061 -0.64862,-1.62156 l 18.07137,-10.52213 c -0.18025,0.77122 -0.36947,1.53771 -0.55853,2.30623 l -16.86422,9.83746 z m -3.17106,-9.69332 c -0.15235,-0.57518 -0.30302,-1.15294 -0.45043,-1.72967 l 23.63874,-13.78327 c -0.12267,0.74645 -0.24708,1.4894 -0.37837,2.23416 l -22.80994,13.27878 z m -2.39629,-10.12574 c -0.12511,-0.59424 -0.25869,-1.18823 -0.37837,-1.78372 l 27.60254,-16.07146 c -0.069,0.71027 -0.13911,1.4166 -0.2162,2.12605 l -27.00797,15.72913 z m -1.90986,-10.43204 c -0.0936,-0.60616 -0.18244,-1.21268 -0.27025,-1.81976 l 30.17904,-17.58491 c -0.0205,0.67787 -0.0438,1.35828 -0.0721,2.03596 l -29.8367,17.36871 z m -1.33326,-10.75635 c -0.06,-0.62565 -0.12667,-1.24758 -0.18018,-1.8738 L 330.968,466.49214 c 0.0244,0.65589 0.0374,1.30766 0.054,1.96389 l -31.26007,18.1975 z m -0.73872,-11.09867 c -0.0219,-0.65269 -0.0394,-1.31103 -0.054,-1.96389 l 31.20601,-18.17949 c 0.0667,0.62843 0.12095,1.26263 0.18017,1.89182 l -31.33213,18.25156 z m 0,-11.53109 c 0.0231,-0.67902 0.0407,-1.35725 0.0721,-2.03596 l 29.54843,-17.20655 c 0.0463,0.20854 0.0975,0.42321 0.14414,0.63061 0.0679,0.39176 0.13344,0.77888 0.19819,1.17112 l -29.96283,17.44078 z m 0.84682,-12.01756 c 0.10815,-0.72245 0.21343,-1.45158 0.3243,-2.1801 l 26.05307,-15.18861 c 0.16354,0.5753 0.3186,1.14982 0.46845,1.72966 l -26.84582,15.63905 z"
         id="path45"
         inkscape:connector-curvature="0"
         style="fill:#dddddd;stroke:#000000;stroke-width:1.21382701" />
      <path
         d="m 268.22663,426.27315 93.32623,0 0,12.37313 -93.32623,0 z"
         id="path47"
         inkscape:connector-curvature="0"
         style="fill:#dddddd;stroke:#000000;stroke-width:2.42765403" />
      <path
         d="m 331.48837,524.67927 a 16.598632,16.598632 0 1 0 -33.19726,10e-6 16.598632,16.598632 0 0 0 33.19726,-10e-6 z"
         id="path49"
         inkscape:connector-curvature="0"
         style="fill:#dddddd;stroke:#000000;stroke-width:2.42765403" />
      <path
         d="m 321.89537,524.67925 a 7.0056539,7.0056539 0 1 0 -14.0113,10e-6 7.0056539,7.0056539 0 1 0 14.0113,-10e-6 z"
         id="path51"
         inkscape:connector-curvature="0"
         style="fill:#dddddd;stroke:#000000;stroke-width:2.42765403" />
    </g>
    <g
       id="g3192">
      <g
         id="g3178"
         style="fill:#dddddd;stroke:#000000;stroke-width:1.21382701;display:inline"
         transform="matrix(0.51978911,-0.74233578,0.74233578,0.51978911,-84.003332,446.20349)">
        <path
           d="m 305.99432,515.84933 c 5.88909,23.98881 13.34312,23.98881 18.94394,10e-6 5.60081,-23.98879 7.33048,-53.51662 1.15311,-77.50541 -6.17737,-23.98878 -16.22589,-23.98877 -22.40326,10e-6 -6.17738,23.98879 -3.58288,53.51661 2.30621,77.50539 z"
           id="path3180"
           inkscape:connector-curvature="0"
           style="fill:#dddddd;stroke:#000000;stroke-width:2.42765403" />
        <path
           d="m 296.06442,431.78605 37.65065,1e-5 -5.45448,-350.77532 -13.37086,-30.322655 -13.37084,30.322655 -5.45447,350.77531 z"
           id="path3182"
           inkscape:connector-curvature="0"
           style="fill:#dddddd;stroke:#000000;stroke-width:2.42765403;stroke-opacity:1" />
        <path
           d="m 313.06359,428.62047 1.35957,-333.660402 4.09491,333.660402 -5.45448,0 z"
           id="path3184"
           inkscape:connector-curvature="0"
           style="fill:#dddddd;stroke:#000000;stroke-width:1.21382701" />
        <path
           d="m 308.57246,527.66098 c -0.2245,-0.54399 -0.4441,-1.08061 -0.64862,-1.62156 l 18.07137,-10.52213 c -0.18025,0.77122 -0.36947,1.53771 -0.55853,2.30623 l -16.86422,9.83746 z m -3.17106,-9.69332 c -0.15235,-0.57518 -0.30302,-1.15294 -0.45043,-1.72967 l 23.63874,-13.78327 c -0.12267,0.74645 -0.24708,1.4894 -0.37837,2.23416 l -22.80994,13.27878 z m -2.39629,-10.12574 c -0.12511,-0.59424 -0.25869,-1.18823 -0.37837,-1.78372 l 27.60254,-16.07146 c -0.069,0.71027 -0.13911,1.4166 -0.2162,2.12605 l -27.00797,15.72913 z m -1.90986,-10.43204 c -0.0936,-0.60616 -0.18244,-1.21268 -0.27025,-1.81976 l 30.17904,-17.58491 c -0.0205,0.67787 -0.0438,1.35828 -0.0721,2.03596 l -29.8367,17.36871 z m -1.33326,-10.75635 c -0.06,-0.62565 -0.12667,-1.24758 -0.18018,-1.8738 L 330.968,466.49214 c 0.0244,0.65589 0.0374,1.30766 0.054,1.96389 l -31.26007,18.1975 z m -0.73872,-11.09867 c -0.0219,-0.65269 -0.0394,-1.31103 -0.054,-1.96389 l 31.20601,-18.17949 c 0.0667,0.62843 0.12095,1.26263 0.18017,1.89182 l -31.33213,18.25156 z m 0,-11.53109 c 0.0231,-0.67902 0.0407,-1.35725 0.0721,-2.03596 l 29.54843,-17.20655 c 0.0463,0.20854 0.0975,0.42321 0.14414,0.63061 0.0679,0.39176 0.13344,0.77888 0.19819,1.17112 l -29.96283,17.44078 z m 0.84682,-12.01756 c 0.10815,-0.72245 0.21343,-1.45158 0.3243,-2.1801 l 26.05307,-15.18861 c 0.16354,0.5753 0.3186,1.14982 0.46845,1.72966 l -26.84582,15.63905 z"
           id="path3186"
           inkscape:connector-curvature="0"
           style="fill:#dddddd;stroke:#000000;stroke-width:1.21382701" />
        <path
           d="m 268.22663,426.27315 93.32623,0 0,12.37313 -93.32623,0 z"
           id="path3188"
           inkscape:connector-curvature="0"
           style="fill:#dddddd;stroke:#000000;stroke-width:2.42765403" />
        <path
           d="m 331.48837,524.67927 a 16.598632,16.598632 0 1 0 -33.19726,10e-6 16.598632,16.598632 0 0 0 33.19726,-10e-6 z"
           id="path3190"
           inkscape:connector-curvature="0"
           style="fill:#dddddd;stroke:#000000;stroke-width:2.42765403" />
        <path
           d="m 321.89537,524.67925 a 7.0056539,7.0056539 0 1 0 -14.0113,10e-6 7.0056539,7.0056539 0 1 0 14.0113,-10e-6 z"
           id="path3192"
           inkscape:connector-curvature="0"
           style="fill:#dddddd;stroke:#000000;stroke-width:2.42765403" />
      </g>
      <g
         transform="matrix(-0.51978911,-0.74233578,-0.74233578,0.51978911,684.00333,446.20349)"
         style="fill:#dddddd;stroke:#000000;stroke-width:1.21382701;display:inline"
         id="g3157">
        <path
           style="fill:#dddddd;stroke:#000000;stroke-width:2.42765403"
           inkscape:connector-curvature="0"
           id="path3160"
           d="m 305.99432,515.84933 c 5.88909,23.98881 13.34312,23.98881 18.94394,10e-6 5.60081,-23.98879 7.33048,-53.51662 1.15311,-77.50541 -6.17737,-23.98878 -16.22589,-23.98877 -22.40326,10e-6 -6.17738,23.98879 -3.58288,53.51661 2.30621,77.50539 z" />
        <path
           style="fill:#dddddd;stroke:#000000;stroke-width:2.42765403;stroke-opacity:1"
           inkscape:connector-curvature="0"
           id="path3162"
           d="m 296.06442,431.78605 37.65065,1e-5 -5.45448,-350.77532 -13.37086,-30.322655 -13.37084,30.322655 -5.45447,350.77531 z" />
        <path
           style="fill:#dddddd;stroke:#000000;stroke-width:1.21382701"
           inkscape:connector-curvature="0"
           id="path3164"
           d="m 313.06359,428.62047 1.35957,-333.660402 4.09491,333.660402 -5.45448,0 z" />
        <path
           style="fill:#dddddd;stroke:#000000;stroke-width:1.21382701"
           inkscape:connector-curvature="0"
           id="path3166"
           d="m 308.57246,527.66098 c -0.2245,-0.54399 -0.4441,-1.08061 -0.64862,-1.62156 l 18.07137,-10.52213 c -0.18025,0.77122 -0.36947,1.53771 -0.55853,2.30623 l -16.86422,9.83746 z m -3.17106,-9.69332 c -0.15235,-0.57518 -0.30302,-1.15294 -0.45043,-1.72967 l 23.63874,-13.78327 c -0.12267,0.74645 -0.24708,1.4894 -0.37837,2.23416 l -22.80994,13.27878 z m -2.39629,-10.12574 c -0.12511,-0.59424 -0.25869,-1.18823 -0.37837,-1.78372 l 27.60254,-16.07146 c -0.069,0.71027 -0.13911,1.4166 -0.2162,2.12605 l -27.00797,15.72913 z m -1.90986,-10.43204 c -0.0936,-0.60616 -0.18244,-1.21268 -0.27025,-1.81976 l 30.17904,-17.58491 c -0.0205,0.67787 -0.0438,1.35828 -0.0721,2.03596 l -29.8367,17.36871 z m -1.33326,-10.75635 c -0.06,-0.62565 -0.12667,-1.24758 -0.18018,-1.8738 L 330.968,466.49214 c 0.0244,0.65589 0.0374,1.30766 0.054,1.96389 l -31.26007,18.1975 z m -0.73872,-11.09867 c -0.0219,-0.65269 -0.0394,-1.31103 -0.054,-1.96389 l 31.20601,-18.17949 c 0.0667,0.62843 0.12095,1.26263 0.18017,1.89182 l -31.33213,18.25156 z m 0,-11.53109 c 0.0231,-0.67902 0.0407,-1.35725 0.0721,-2.03596 l 29.54843,-17.20655 c 0.0463,0.20854 0.0975,0.42321 0.14414,0.63061 0.0679,0.39176 0.13344,0.77888 0.19819,1.17112 l -29.96283,17.44078 z m 0.84682,-12.01756 c 0.10815,-0.72245 0.21343,-1.45158 0.3243,-2.1801 l 26.05307,-15.18861 c 0.16354,0.5753 0.3186,1.14982 0.46845,1.72966 l -26.84582,15.63905 z" />
        <path
           style="fill:#dddddd;stroke:#000000;stroke-width:2.42765403"
           inkscape:connector-curvature="0"
           id="path3168"
           d="m 268.22663,426.27315 93.32623,0 0,12.37313 -93.32623,0 z" />
        <path
           style="fill:#dddddd;stroke:#000000;stroke-width:2.42765403"
           inkscape:connector-curvature="0"
           id="path3170"
           d="m 331.48837,524.67927 a 16.598632,16.598632 0 1 0 -33.19726,10e-6 16.598632,16.598632 0 0 0 33.19726,-10e-6 z" />
        <path
           style="fill:#dddddd;stroke:#000000;stroke-width:2.42765403"
           inkscape:connector-curvature="0"
           id="path3172"
           d="m 321.89537,524.67925 a 7.0056539,7.0056539 0 1 0 -14.0113,10e-6 7.0056539,7.0056539 0 1 0 14.0113,-10e-6 z" />
      </g>
    </g>
  </g>
  <g
     inkscape:groupmode="layer"
     id="layer1"
     inkscape:label="Cover"
     style="display:inline"
     sodipodi:insensitive="true">
    <path
       d="m 2,2 v 257 c 0,286 298,398 298,398 0,0 298,-112 298,-398 V 2 z"
       id="shine"
       inkscape:connector-curvature="0"
       style="fill:url(#radialGradient3074);stroke:#000000;stroke-width:3" />
  </g>
</svg>
